<?xml version="1.0" encoding="UTF-8" standalone="no"?>
<!-- Created with Inkscape (http://www.inkscape.org/) -->

<svg
   xmlns:dc="http://purl.org/dc/elements/1.1/"
   xmlns:cc="http://creativecommons.org/ns#"
   xmlns:rdf="http://www.w3.org/1999/02/22-rdf-syntax-ns#"
   xmlns:svg="http://www.w3.org/2000/svg"
   xmlns="http://www.w3.org/2000/svg"
   xmlns:sodipodi="http://sodipodi.sourceforge.net/DTD/sodipodi-0.dtd"
   xmlns:inkscape="http://www.inkscape.org/namespaces/inkscape"
   width="251.51013"
   height="361.0968"
   id="svg2"
   sodipodi:version="0.32"
   inkscape:version="0.48.3.1 r9886"
   version="1.0"
   sodipodi:docname="bombilla-encendida.svg"
   inkscape:output_extension="org.inkscape.output.svg.inkscape"
   sodipodi:modified="true">
  <defs
     id="defs4" />
  <sodipodi:namedview
     id="base"
     pagecolor="#ffffff"
     bordercolor="#666666"
     borderopacity="1.0"
     inkscape:pageopacity="0.0"
     inkscape:pageshadow="2"
     inkscape:zoom="0.50833333"
     inkscape:cx="30.952208"
     inkscape:cy="273.36598"
     inkscape:document-units="px"
     inkscape:current-layer="layer1"
     width="640px"
     height="480px"
     inkscape:window-width="958"
     inkscape:window-height="690"
     inkscape:window-x="64"
     inkscape:window-y="48"
     showgrid="false"
     fit-margin-top="0"
     fit-margin-left="0"
     fit-margin-right="0"
     fit-margin-bottom="0"
     inkscape:window-maximized="0" />
  <metadata
     id="metadata7">
    <rdf:RDF>
      <cc:Work
         rdf:about="">
        <dc:format>image/svg+xml</dc:format>
        <dc:type
           rdf:resource="http://purl.org/dc/dcmitype/StillImage" />
        <dc:title></dc:title>
      </cc:Work>
    </rdf:RDF>
  </metadata>
  <g
     inkscape:label="Capa 1"
     inkscape:groupmode="layer"
     id="layer1"
     transform="translate(-194.24493,-108.81675)">
    <path
       style="fill:#898976;fill-opacity:1;fill-rule:evenodd;stroke:#000000;stroke-width:5.74774933;stroke-linecap:butt;stroke-linejoin:miter;stroke-miterlimit:4;stroke-opacity:1;stroke-dasharray:none"
       d="m 381.6371,384.12162 -125.4074,-2.70996 -2.97645,-59.35701 c -237.950422,-283.546997 372.67729,-277.406925 132.59312,0 l -4.20927,62.06697 z"
       id="path2170"
       sodipodi:nodetypes="ccccc"
       inkscape:connector-curvature="0" />
    <path
       style="fill:#cccccc;fill-rule:evenodd;stroke:#000000;stroke-width:5.74774933;stroke-linecap:butt;stroke-linejoin:miter;stroke-miterlimit:4;stroke-opacity:1;stroke-dasharray:none"
       d="m 261.67191,386.12381 111.41888,2.00215 0.12764,56.06053 -111.54652,-2.00215 0,-56.06053 z"
       id="path2172"
       sodipodi:nodetypes="ccccc"
       inkscape:connector-curvature="0" />
    <path
       style="fill:#4d4d4d;fill-rule:evenodd;stroke:#000000;stroke-width:5.74774933;stroke-linecap:butt;stroke-linejoin:miter;stroke-miterlimit:4;stroke-opacity:1;stroke-dasharray:none"
       d="m 282.71838,446.18863 0,20.02168 64.50025,0.82937 0.74405,-20.85105 -65.2443,0 z"
       id="path2174"
       sodipodi:nodetypes="ccccc"
       inkscape:connector-curvature="0" />
    <path
       style="opacity:0.41000001;fill:#1a1a1a;fill-rule:evenodd;stroke:#000000;stroke-width:1.43693733px;stroke-linecap:butt;stroke-linejoin:miter;stroke-opacity:1"
       d="m 304.2672,387.59507 c -32.14314,32.71326 -12.25554,50.65611 36.83142,54.05838 l -78.92447,-1.00108 2.10464,-53.0573 39.98841,0 z"
       id="path3159"
       sodipodi:nodetypes="ccccc"
       inkscape:connector-curvature="0" />
    <path
       style="opacity:0.7;fill:#000000;fill-rule:evenodd;stroke:#000000;stroke-width:1.43693733px;stroke-linecap:butt;stroke-linejoin:miter;stroke-opacity:1"
       d="m 372.64826,392.71103 -98.53969,49.02711 101.12441,-39.17249 -2.58472,-9.85462 z"
       id="path3163"
       sodipodi:nodetypes="cccc"
       inkscape:connector-curvature="0" />
    <path
       style="opacity:0.7;color:#000000;fill:#000000;fill-opacity:1;fill-rule:evenodd;stroke:#000000;stroke-width:1.43693733px;stroke-linecap:butt;stroke-linejoin:miter;stroke-miterlimit:4;stroke-opacity:1;stroke-dasharray:none;stroke-dashoffset:0;marker:none;visibility:visible;display:inline;overflow:visible;enable-background:accumulate"
       d="m 260.20345,410.64501 63.52162,-23.97987 -61.46776,32.82556 -2.05386,-8.84569 z"
       id="path3165"
       sodipodi:nodetypes="cccc"
       inkscape:connector-curvature="0" />
    <path
       style="fill:#1a1a1a;fill-rule:evenodd;stroke:none"
       d="m 301.94259,380.58184 -22.32322,-125.29318 31.25251,109.01215 13.39393,0 38.69356,-103.34918 -29.76428,120.3381 -31.2525,-0.70789 z"
       id="path3167"
       sodipodi:nodetypes="ccccccc"
       inkscape:connector-curvature="0" />
    <path
       style="fill:#808000;fill-rule:evenodd;stroke:#747400;stroke-width:2;stroke-linecap:butt;stroke-linejoin:miter;stroke-miterlimit:4;stroke-opacity:1;stroke-dasharray:none"
       d="m 283.33992,256.7044 14.88213,0 7.44107,-19.82038 5.20876,36.80929 11.90571,-27.60697 5.95286,21.94399 10.41751,-15.57316 2.97642,9.9102 17.11446,0 -17.11446,2.83149 -3.72053,-7.78659 -8.9293,14.86529 -6.69696,-23.35975 -12.64982,31.14634 -5.20875,-34.68569 -6.69697,14.15743 -14.88213,-2.83149 z"
       id="path3169"
       inkscape:connector-curvature="0" />
    <path
       style="opacity:0.10499998;fill:#000000;fill-rule:evenodd;stroke:#000000;stroke-width:1.43693733px;stroke-linecap:butt;stroke-linejoin:miter;stroke-opacity:1"
       d="M 306.77635,376.14225 C 245.69516,264.38452 196.10615,156.15343 348.99608,110.05742 154.5875,115.74514 174.59587,226.81969 254.00167,315.89663 l 2.63874,65.26607 50.13594,-5.02045 z"
       id="path3189"
       sodipodi:nodetypes="ccccc"
       inkscape:connector-curvature="0" />
    <path
       style="fill:#ffffff;fill-rule:evenodd;stroke:none"
       d="m 417.04048,160.19512 c -14.83372,-20.02353 -38.01183,-26.88287 -65.66496,-26.68235 14.07863,11.72374 36.45984,20.14384 39.59303,37.22119 l 26.07193,-10.53884 z"
       id="path3191"
       sodipodi:nodetypes="cccc"
       inkscape:connector-curvature="0" />
    <path
       style="fill:#ffffff;fill-rule:evenodd;stroke:none"
       d="m 423.42768,167.4423 c 8.22193,23.21415 0.34897,45.05752 -16.15555,66.16575 -1.628,-17.73194 4.45039,-39.88553 -8.18396,-52.378 l 24.33951,-13.78775 z"
       id="path3193"
       sodipodi:nodetypes="cccc"
       inkscape:connector-curvature="0" />
    <path
       style="opacity:0.38999999;fill:#ffffff;fill-rule:evenodd;stroke:none"
       d="m 303.59225,463.65541 c -5.8444,-3.70942 -3.14492,-8.4621 1.39102,-10.43273 l 39.29659,1.04327 0,9.73721 -40.68761,-0.34775 z"
       id="path3285"
       sodipodi:nodetypes="ccccc"
       inkscape:connector-curvature="0" />
  </g>
</svg>
