<?xml version="1.0" encoding="UTF-8" standalone="no"?>
<!-- Created with Inkscape (http://www.inkscape.org/) -->

<svg
   xmlns:dc="http://purl.org/dc/elements/1.1/"
   xmlns:cc="http://creativecommons.org/ns#"
   xmlns:rdf="http://www.w3.org/1999/02/22-rdf-syntax-ns#"
   xmlns:svg="http://www.w3.org/2000/svg"
   xmlns="http://www.w3.org/2000/svg"
   xmlns:sodipodi="http://sodipodi.sourceforge.net/DTD/sodipodi-0.dtd"
   xmlns:inkscape="http://www.inkscape.org/namespaces/inkscape"
   width="311.125"
   height="752.75"
   id="svg7415"
   version="1.1"
   inkscape:version="0.48.1 r9760"
   sodipodi:docname="brocha.svg"
   inkscape:export-filename="/home/vhzc/Docs/FOCA/nuevodiseno/objetos/brocha.png"
   inkscape:export-xdpi="90"
   inkscape:export-ydpi="90">
  <title
     id="title7610">brocha</title>
  <defs
     id="defs7417" />
  <sodipodi:namedview
     id="base"
     pagecolor="#ffffff"
     bordercolor="#666666"
     borderopacity="1.0"
     inkscape:pageopacity="0.0"
     inkscape:pageshadow="2"
     inkscape:zoom="0.49497475"
     inkscape:cx="84.032776"
     inkscape:cy="211.02367"
     inkscape:document-units="px"
     inkscape:current-layer="layer1"
     showgrid="false"
     fit-margin-top="0"
     fit-margin-left="0"
     fit-margin-right="0"
     fit-margin-bottom="0"
     inkscape:window-width="1024"
     inkscape:window-height="728"
     inkscape:window-x="0"
     inkscape:window-y="0"
     inkscape:window-maximized="1" />
  <metadata
     id="metadata7420">
    <rdf:RDF>
      <cc:Work
         rdf:about="">
        <dc:format>image/svg+xml</dc:format>
        <dc:type
           rdf:resource="http://purl.org/dc/dcmitype/StillImage" />
        <cc:license
           rdf:resource="http://creativecommons.org/licenses/by/3.0/" />
        <dc:title>brocha</dc:title>
        <dc:creator>
          <cc:Agent>
            <dc:title>Vladimir Zúñiga</dc:title>
          </cc:Agent>
        </dc:creator>
      </cc:Work>
      <cc:License
         rdf:about="http://creativecommons.org/licenses/by/3.0/">
        <cc:permits
           rdf:resource="http://creativecommons.org/ns#Reproduction" />
        <cc:permits
           rdf:resource="http://creativecommons.org/ns#Distribution" />
        <cc:requires
           rdf:resource="http://creativecommons.org/ns#Notice" />
        <cc:requires
           rdf:resource="http://creativecommons.org/ns#Attribution" />
        <cc:permits
           rdf:resource="http://creativecommons.org/ns#DerivativeWorks" />
      </cc:License>
    </rdf:RDF>
  </metadata>
  <g
     inkscape:label="Capa 1"
     inkscape:groupmode="layer"
     id="layer1"
     transform="translate(-130.39037,-44.7553)">
    <g
       transform="matrix(2,0,0,2,-865.85963,-2374.7447)"
       id="g7479">
      <path
         sodipodi:nodetypes="ccccccccccccccccccccccccc"
         inkscape:connector-curvature="0"
         id="path7109-8"
         d="m 512.39638,1503.6467 -12.5,77.6876 0.53125,0 -0.53125,0.125 13.75,2.8437 0.75,-2.9063 26.90625,0.094 -0.34375,1.9375 18.40625,-1.625 0.9375,-0.25 35.5,0.094 -0.4375,0.625 10.47763,1.8375 0.89737,-2.3999 10.84375,2.5312 1.3125,-2.5 15.5,0.031 0.5625,2.6563 16.21875,-2.5937 0.4375,0 -0.0313,-0.094 0.0937,-0.031 -0.15625,-0.4688 -11.96875,-77.5938 z"
         style="color:#000000;fill:#d3bc5f;fill-opacity:1;fill-rule:nonzero;stroke:#000000;stroke-width:3;stroke-linecap:butt;stroke-linejoin:miter;stroke-miterlimit:4;stroke-opacity:1;stroke-dasharray:none;stroke-dashoffset:0;marker:none;visibility:visible;display:inline;overflow:visible;enable-background:accumulate" />
      <path
         sodipodi:nodetypes="cccc"
         inkscape:connector-curvature="0"
         id="path7143-6-6"
         d="m 532.66498,1511.625 -6.87763,61.3769 8.84191,-59.7698 z"
         style="fill:#000000;stroke:none" />
      <path
         inkscape:connector-curvature="0"
         id="path6993-0"
         d="m 576.375,1211.25 c -14.50519,0 -26.28125,67.3741 -26.28125,150.5 0,18.0206 0.54908,35.2975 1.5625,51.3125 -9.18822,13.112 -20.9044,23.9126 -42.375,27.1563 l 2.25,0 c -0.44485,0.1195 -0.8989,0.2209 -1.34375,0.3437 l 0,68.1875 60.53125,0 c 1.82613,2.3024 3.70986,3.5312 5.65625,3.5312 1.94541,0 3.83372,-1.2311 5.65625,-3.5312 l 60.5,0 0,-68.1875 c -1.19695,-0.2347 -2.3968,-0.4605 -3.59375,-0.6875 l 3.5625,0 c -21.7039,-3.4219 -33.19429,-13.8533 -41.46875,-26.625 1.02099,-16.0676 1.59375,-33.4091 1.59375,-51.5 0,-83.1259 -11.74481,-150.5 -26.25,-150.5 z m -0.46875,36.5938 c 3.83551,0 6.96875,9.3372 6.96875,20.8437 0,11.5065 -3.13324,20.8437 -6.96875,20.8437 -3.83551,0 -6.9375,-9.3372 -6.9375,-20.8437 0,-11.5065 3.10199,-20.8437 6.9375,-20.8437 z"
         style="color:#000000;fill:#aa4400;fill-opacity:1;fill-rule:nonzero;stroke:#000000;stroke-width:3;stroke-linecap:butt;stroke-linejoin:miter;stroke-miterlimit:4;stroke-opacity:1;stroke-dasharray:none;stroke-dashoffset:0;marker:none;visibility:visible;display:inline;overflow:visible;enable-background:accumulate" />
      <path
         inkscape:connector-curvature="0"
         id="path7044-5-1"
         d="m 575.90625,1242.25 c -4.86589,0 -8.8125,11.8398 -8.8125,26.4375 0,14.5977 3.94661,26.4375 8.8125,26.4375 4.86589,0 8.8125,-11.8398 8.8125,-26.4375 0,-14.5977 -3.94661,-26.4375 -8.8125,-26.4375 z m 0,5.5938 c 3.83551,0 6.96875,9.3372 6.96875,20.8437 0,11.5065 -3.13324,20.8437 -6.96875,20.8437 -3.83551,0 -6.9375,-9.3372 -6.9375,-20.8437 0,-11.5065 3.10199,-20.8437 6.9375,-20.8437 z"
         style="opacity:0.31188121;color:#000000;fill:#000000;fill-opacity:1;fill-rule:nonzero;stroke:#000000;stroke-width:3.80593204;stroke-linecap:butt;stroke-linejoin:miter;stroke-miterlimit:4;stroke-opacity:1;stroke-dasharray:none;stroke-dashoffset:0;marker:none;visibility:visible;display:inline;overflow:visible;enable-background:accumulate" />
      <path
         sodipodi:nodetypes="cccc"
         inkscape:connector-curvature="0"
         id="path7143-6-8-9"
         d="m 608.31129,1494.7049 6.87763,61.3769 -8.84191,-59.7698 z"
         style="fill:#000000;stroke:none" />
      <path
         id="rect6995-1"
         d="m 506.83388,1447.3343 0,27.625 0.96875,0 0,14.375 -0.96875,0 0,27.625 0.96875,0 0,0.7812 136.25,0 0,-0.7812 0.96875,0 0,-27.625 -0.96875,0 0,-14.375 0.96875,0 0,-27.625 -138.1875,0 z"
         style="color:#000000;fill:#cccccc;fill-opacity:1;fill-rule:nonzero;stroke:#000000;stroke-width:3.08867216;stroke-linecap:butt;stroke-linejoin:miter;stroke-miterlimit:4;stroke-opacity:1;stroke-dasharray:none;stroke-dashoffset:0;marker:none;visibility:visible;display:inline;overflow:visible;enable-background:accumulate"
         inkscape:connector-curvature="0" />
      <path
         transform="translate(314.41448,269.99045)"
         d="m 268.44803,998.69781 c 0,11.50649 -3.10929,20.83439 -6.9448,20.83439 -3.8355,0 -6.94479,-9.3279 -6.94479,-20.83439 0,-11.50651 3.10929,-20.83439 6.94479,-20.83439 3.83551,0 6.9448,9.32788 6.9448,20.83439 z"
         sodipodi:ry="20.834396"
         sodipodi:rx="6.9447989"
         sodipodi:cy="998.69781"
         sodipodi:cx="261.50323"
         id="path7044-5"
         style="color:#000000;fill:none;stroke:#000000;stroke-width:3;stroke-linecap:butt;stroke-linejoin:miter;stroke-miterlimit:4;stroke-opacity:1;stroke-dasharray:none;stroke-dashoffset:0;marker:none;visibility:visible;display:inline;overflow:visible;enable-background:accumulate"
         sodipodi:type="arc" />
      <path
         sodipodi:nodetypes="cccc"
         inkscape:connector-curvature="0"
         id="path7089-25"
         d="m 506.33388,1473.7813 135.71429,0 -136.07143,1.9643 z"
         style="fill:#000000;stroke:none" />
      <path
         sodipodi:nodetypes="cccc"
         inkscape:connector-curvature="0"
         id="path7089-2-6"
         d="m 645.11151,1490.066 -135.71429,0 136.07143,1.9643 z"
         style="fill:#000000;stroke:none" />
      <path
         inkscape:connector-curvature="0"
         id="path7143-8"
         d="m 514.36959,1585.2098 8.39286,-48.75 -10.35714,47.1429 z"
         style="fill:#000000;stroke:none" />
      <path
         sodipodi:nodetypes="cccc"
         inkscape:connector-curvature="0"
         id="path7166-4"
         d="m 542.58389,1581.2812 1.63777,-30.2546 -3.24492,29.1832 z"
         style="color:#000000;fill:#000000;fill-opacity:1;fill-rule:nonzero;stroke:none;stroke-width:1px;marker:none;visibility:visible;display:inline;overflow:visible;enable-background:accumulate" />
      <path
         sodipodi:nodetypes="cccccccc"
         inkscape:connector-curvature="0"
         id="path7206-2"
         d="m 635.88745,1582.4419 -4.28571,-34.2856 1.87499,33.125 -4.10713,0 -1.875,-7.0536 0.71428,7.6786 3.12501,-1.0711 z"
         style="color:#000000;fill:#000000;fill-opacity:1;fill-rule:nonzero;stroke:none;stroke-width:1px;marker:none;visibility:visible;display:inline;overflow:visible;enable-background:accumulate" />
      <path
         inkscape:connector-curvature="0"
         id="path7225-1"
         d="m 562.28064,1581.2043 1.26269,-48.7399 -3.03045,47.9823 z"
         style="color:#000000;fill:#000000;fill-opacity:1;fill-rule:nonzero;stroke:none;stroke-width:1px;marker:none;visibility:visible;display:inline;overflow:visible;enable-background:accumulate" />
      <path
         inkscape:connector-curvature="0"
         id="path7233-1"
         d="m 578.69562,1517.8172 2.27285,42.4264 -0.75762,-41.9213 z"
         style="color:#000000;fill:#000000;fill-opacity:1;fill-rule:nonzero;stroke:none;stroke-width:1px;marker:none;visibility:visible;display:inline;overflow:visible;enable-background:accumulate" />
      <path
         sodipodi:nodetypes="cccc"
         inkscape:connector-curvature="0"
         id="path7244-8"
         d="m 595.36314,1581.9619 -1.2627,-21.9708 -0.25252,21.7183 z"
         style="color:#000000;fill:#000000;fill-opacity:1;fill-rule:nonzero;stroke:none;stroke-width:1px;marker:none;visibility:visible;display:inline;overflow:visible;enable-background:accumulate" />
      <path
         sodipodi:nodetypes="cccc"
         inkscape:connector-curvature="0"
         id="path7252-8"
         d="m 605.59093,1582.3407 -3.02674,-51.7226 4.92078,50.8387 z"
         style="color:#000000;fill:#000000;fill-opacity:1;fill-rule:nonzero;stroke:none;stroke-width:1px;marker:none;visibility:visible;display:inline;overflow:visible;enable-background:accumulate" />
      <path
         inkscape:connector-curvature="0"
         id="path7260-9"
         d="m 618.1196,1583.3348 -1.33929,-17.9464 2.41071,16.0714 z"
         style="color:#000000;fill:#000000;fill-opacity:1;fill-rule:nonzero;stroke:none;stroke-width:1px;marker:none;visibility:visible;display:inline;overflow:visible;enable-background:accumulate" />
      <path
         sodipodi:nodetypes="cccc"
         inkscape:connector-curvature="0"
         id="path7268-9"
         d="m 511.52143,1441.1983 c 41.36605,2.6398 82.73211,1.0787 124.09816,1.1544 -41.8046,-0.4638 -86.93854,0.7371 -123.62218,-2.2871 z"
         style="color:#000000;fill:#000000;fill-opacity:1;fill-rule:nonzero;stroke:none;stroke-width:1px;marker:none;visibility:visible;display:inline;overflow:visible;enable-background:accumulate" />
      <path
         inkscape:connector-curvature="0"
         id="path7109-8-5"
         d="m 580.59375,1213.1875 c 16.45092,68.4648 9.739,142.1824 7.3125,214.9375 44.34406,19.8531 2.02586,12.4093 -27.5625,14.6875 l 26.5625,30.7813 -29.3125,0 2.0625,1.0312 -50.78125,0.5 56.28125,2.25 0.0313,0 20.6875,10.375 -14.125,1 12.125,27.2812 -69.71875,2 -4.65625,3.75 -0.0313,0.3126 69.46875,1.3437 2.84375,47.125 7.875,-40 4.625,50 10.71875,3.2187 c 0,0 -1.06697,-4.9909 0.71875,-3.5624 1.52777,1.2221 6.23371,2.6281 7.625,3.0312 l 0.625,0.1562 4.25,-3.5312 16.4375,0.3438 0,2.75 0.15625,0.7812 16.78125,-2.2812 -0.0625,-0.2188 -9.8125,-63.5 2.34375,0 0,-0.7812 0.96875,0 0,-27.625 -0.96875,0 0,-14.375 0.96875,0 0,-27.625 -2.5,0 0,-6.7813 c -1.19695,-0.2347 -2.3968,-0.4605 -3.59375,-0.6875 l 3.5625,0 c -21.7039,-3.4219 -33.19429,-13.8533 -41.46875,-26.625 1.02099,-16.0676 1.59375,-33.4091 1.59375,-51.5 0,-74.8896 -9.53554,-136.9908 -22.03125,-148.5625 z"
         style="opacity:0.27397257;color:#000000;fill:#000000;fill-opacity:1;fill-rule:nonzero;stroke:none;stroke-width:3;marker:none;visibility:visible;display:inline;overflow:visible;enable-background:accumulate" />
      <path
         sodipodi:nodetypes="ccccc"
         inkscape:connector-curvature="0"
         id="path7370"
         d="m 507.85419,1473.0908 3.53554,-19.6981 53.53808,-3.788 -56.316,-0.2526 z"
         style="fill:#ffffff;stroke:none" />
      <path
         inkscape:connector-curvature="0"
         id="path7372"
         d="m 509.36942,1515.7697 2.52538,-22.2234 60.10408,-2.2728 -62.12438,-0.7577 -1.76777,1.0102 z"
         style="color:#000000;fill:#ffffff;fill-opacity:1;fill-rule:nonzero;stroke:none;stroke-width:1px;marker:none;visibility:visible;display:inline;overflow:visible;enable-background:accumulate" />
      <path
         sodipodi:nodetypes="ccccc"
         inkscape:connector-curvature="0"
         id="path7411"
         d="m 587.78251,1428.3915 c 7.78643,5.1314 30.22346,12.6962 11.74303,13.8896 19.48002,-0.3327 0.0982,-7.9788 -10.85914,-14.0159 l 1.64149,-54.0432 z"
         style="fill:#000000;stroke:none" />
      <path
         sodipodi:nodetypes="cccc"
         inkscape:connector-curvature="0"
         id="path7413"
         d="m 581.60714,1216.8265 c 6.5321,25.5152 7.23785,57.6142 9.82143,87.5 -1.70626,-29.1975 -2.91488,-58.5057 -8.75,-86.7857 z"
         style="fill:#000000;stroke:none" />
    </g>
    <path
       style="fill:#000000;stroke:none;stroke-width:6;stroke-linecap:butt;stroke-linejoin:miter;stroke-opacity:1;opacity:0.27397257000000003;color:#000000;fill-opacity:1;fill-rule:nonzero;marker:none;visibility:visible;display:inline;overflow:visible;enable-background:accumulate"
       d="m 277.28687,476.47328 -11.11167,51.51778 9.59645,-0.50508 -1.51523,3.53554 7.07106,-0.50508 2.52539,30.30458 -20.20306,1.51523 12.12184,7.57614 -6.06092,44.95179 28.78935,126.26907 6.56599,0.50507 -19.69798,-125.25891 8.08122,-2.02031 1.01016,-52.52793 -2.52538,-1.01015 0.50507,-30.80966 3.03046,-54.04316 z"
       id="path7631"
       inkscape:connector-curvature="0"
       transform="translate(130.39037,44.7553)" />
    <path
       style="fill:#000000;stroke:none;stroke-width:6;stroke-linecap:butt;stroke-linejoin:miter;stroke-opacity:1;opacity:0.27397257000000003;color:#000000;fill-opacity:1;fill-rule:nonzero;marker:none;visibility:visible;display:inline;overflow:visible;enable-background:accumulate"
       d="M 21.213203,624.46063 288.90363,628.50124 282.84271,616.37941 22.223356,614.3591 z"
       id="path7650"
       inkscape:connector-curvature="0"
       transform="translate(130.39037,44.7553)" />
  </g>
</svg>
