<?xml version="1.0" encoding="UTF-8" standalone="no"?>
<!-- Created with Inkscape (http://www.inkscape.org/) -->

<svg
   xmlns:dc="http://purl.org/dc/elements/1.1/"
   xmlns:cc="http://creativecommons.org/ns#"
   xmlns:rdf="http://www.w3.org/1999/02/22-rdf-syntax-ns#"
   xmlns:svg="http://www.w3.org/2000/svg"
   xmlns="http://www.w3.org/2000/svg"
   xmlns:sodipodi="http://sodipodi.sourceforge.net/DTD/sodipodi-0.dtd"
   xmlns:inkscape="http://www.inkscape.org/namespaces/inkscape"
   width="620.29816"
   height="382.70209"
   id="svg2"
   sodipodi:version="0.32"
   inkscape:version="0.48.3.1 r9886"
   version="1.0"
   sodipodi:docname="bombilla-apagada.svg"
   inkscape:output_extension="org.inkscape.output.svg.inkscape"
   sodipodi:modified="true">
  <defs
     id="defs4" />
  <sodipodi:namedview
     id="base"
     pagecolor="#ffffff"
     bordercolor="#666666"
     borderopacity="1.0"
     inkscape:pageopacity="0.0"
     inkscape:pageshadow="2"
     inkscape:zoom="1.03"
     inkscape:cx="351.08992"
     inkscape:cy="100.03645"
     inkscape:document-units="px"
     inkscape:current-layer="layer1"
     width="640px"
     height="480px"
     inkscape:window-width="696"
     inkscape:window-height="715"
     inkscape:window-x="0"
     inkscape:window-y="48"
     showgrid="false"
     fit-margin-top="0"
     fit-margin-left="0"
     fit-margin-right="0"
     fit-margin-bottom="0"
     inkscape:window-maximized="0" />
  <metadata
     id="metadata7">
    <rdf:RDF>
      <cc:Work
         rdf:about="">
        <dc:format>image/svg+xml</dc:format>
        <dc:type
           rdf:resource="http://purl.org/dc/dcmitype/StillImage" />
        <dc:title></dc:title>
      </cc:Work>
    </rdf:RDF>
  </metadata>
  <g
     inkscape:label="Capa 1"
     inkscape:groupmode="layer"
     id="layer1"
     transform="translate(41.147891,-6.6995206)">
    <g
       inkscape:label="Layer 1"
       id="layer1-2"
       transform="translate(-47.415842,-57.341472)">
      <g
         transform="matrix(1.4333234,0,0,1.4659875,-131.56105,-77.388127)"
         id="g4218">
        <rect
           style="color:#000000;fill:#e6e6e6;fill-opacity:1;fill-rule:evenodd;stroke:#000000;stroke-width:1.99999988;stroke-linecap:butt;stroke-linejoin:miter;stroke-miterlimit:4;stroke-opacity:1;stroke-dasharray:none;stroke-dashoffset:0;marker:none;visibility:visible;display:inline;overflow:visible;enable-background:accumulate"
           id="rect3916"
           width="138.11348"
           height="199.42555"
           x="10.411797"
           y="194.33583"
           ry="7.7446814"
           transform="matrix(0.8987946,-0.4383701,0.4383701,0.8987946,0,0)" />
        <path
           d="m 121.75091,170.11747 2.20026,13.7763 7.3143,-3.56741 -9.51456,-10.20889 m -3.08585,-2.47213 3.05096,-1.48805 19.3374,20.40737 -2.79782,1.36459 -4.82786,-5.29987 -8.96635,4.37317 1.20403,7.06732 -2.83779,1.38408 -4.16257,-27.80861"
           id="path3918"
           style="color:#000000;fill:#d40000;fill-opacity:1;fill-rule:evenodd;stroke:none;stroke-width:1px;marker:none;visibility:visible;display:inline;overflow:visible;enable-background:accumulate"
           inkscape:connector-curvature="0" />
        <path
           d="m 279.91628,288.10364 -9.50124,-10.21538 7.3143,-3.56742 2.18694,13.7828 m 0.0482,3.95368 3.05096,-1.48805 -4.17587,-27.80212 -2.79782,1.36459 1.20401,7.06733 -8.96635,4.37316 -4.82784,-5.29987 -2.83779,1.38408 19.3507,20.40088"
           id="path3920"
           style="color:#000000;fill:#d40000;fill-opacity:1;fill-rule:evenodd;stroke:none;stroke-width:1px;marker:none;visibility:visible;display:inline;overflow:visible;enable-background:accumulate"
           inkscape:connector-curvature="0" />
        <path
           style="color:#000000;fill:#d40000;fill-opacity:1;fill-rule:evenodd;stroke:none;stroke-width:1px;marker:none;visibility:visible;display:inline;overflow:visible;enable-background:accumulate"
           d="m 126.47934,214.2745 6.10834,-22.13898 21.98486,8.9482 -6.48065,22.84025 -21.61255,-9.64947 z"
           id="path3922"
           sodipodi:nodetypes="ccccc"
           inkscape:connector-curvature="0" />
        <path
           style="color:#000000;fill:#d40000;fill-opacity:1;fill-rule:evenodd;stroke:none;stroke-width:1px;marker:none;visibility:visible;display:inline;overflow:visible;enable-background:accumulate"
           d="m 246.49018,256.29061 21.20641,8.81673 6.48401,-22.83336 -21.98823,-8.95509 -5.70219,22.97172 z"
           id="path3924"
           sodipodi:nodetypes="ccccc"
           inkscape:connector-curvature="0" />
        <path
           style="color:#000000;fill:#d40000;fill-opacity:1;fill-rule:evenodd;stroke:none;stroke-width:1px;marker:none;visibility:visible;display:inline;overflow:visible;enable-background:accumulate"
           d="m 170.07047,243.26966 12.21668,-44.27796 43.96973,17.89641 -12.9613,45.68049 -43.22511,-19.29894 z"
           id="path3926"
           sodipodi:nodetypes="ccccc"
           inkscape:connector-curvature="0" />
        <rect
           style="color:#000000;fill:#e6e6e6;fill-opacity:1;fill-rule:evenodd;stroke:#000000;stroke-width:2;stroke-linecap:butt;stroke-linejoin:miter;stroke-miterlimit:4;stroke-opacity:1;stroke-dasharray:none;stroke-dashoffset:0;marker:none;visibility:visible;display:inline;overflow:visible;enable-background:accumulate"
           id="rect3738"
           width="138.11348"
           height="199.42554"
           x="159.93205"
           y="159.48283"
           ry="7.7446809"
           transform="matrix(0.9794465,-0.2017042,0.2017042,0.9794465,0,0)" />
        <g
           id="g3740"
           transform="matrix(0.9794465,-0.2017042,0.2017042,0.9794465,97.949879,65.009709)">
          <path
             transform="matrix(1.0422533,0,0,1,-4.3000528,-0.5134029)"
             d="m 101.76822,130.99892 c 0,4.22167 -3.62667,7.64402 -8.100389,7.64402 -4.473719,0 -8.100384,-3.42235 -8.100384,-7.64402 0,-4.22168 3.626665,-7.64403 8.100384,-7.64403 4.473719,0 8.100389,3.42235 8.100389,7.64403 z"
             sodipodi:ry="7.6440248"
             sodipodi:rx="8.1003847"
             sodipodi:cy="130.99892"
             sodipodi:cx="93.667831"
             id="path3742"
             style="color:#000000;fill:#000000;fill-opacity:1;fill-rule:evenodd;stroke:none;stroke-width:3;marker:none;visibility:visible;display:inline;overflow:visible;enable-background:accumulate"
             sodipodi:type="arc" />
          <path
             transform="matrix(1.0422533,0,0,1,12.357076,-0.5134029)"
             d="m 101.76822,130.99892 c 0,4.22167 -3.62667,7.64402 -8.100389,7.64402 -4.473719,0 -8.100384,-3.42235 -8.100384,-7.64402 0,-4.22168 3.626665,-7.64403 8.100384,-7.64403 4.473719,0 8.100389,3.42235 8.100389,7.64403 z"
             sodipodi:ry="7.6440248"
             sodipodi:rx="8.1003847"
             sodipodi:cy="130.99892"
             sodipodi:cx="93.667831"
             id="path3744"
             style="color:#000000;fill:#000000;fill-opacity:1;fill-rule:evenodd;stroke:none;stroke-width:3;marker:none;visibility:visible;display:inline;overflow:visible;enable-background:accumulate"
             sodipodi:type="arc" />
          <path
             sodipodi:nodetypes="cccc"
             id="path3746"
             d="M 84.882904,130.88483 C 83.788357,121.361 102.0757,117.4718 101.54003,104.41597 c 0.77531,13.08231 17.21443,16.58107 16.88531,26.92522 l -33.542436,-0.45636 z"
             style="fill:#000000;fill-rule:evenodd;stroke:none"
             inkscape:connector-curvature="0" />
          <path
             sodipodi:nodetypes="ccccc"
             id="path3748"
             d="m 96.976436,143.20654 9.811734,0 c -2.97629,-3.41772 -2.68419,-8.46964 -3.4227,-13.00625 l -3.879056,-0.45636 c -0.438941,4.48754 0.684256,8.97507 -2.509978,13.46261 z"
             style="fill:#000000;fill-rule:evenodd;stroke:none"
             inkscape:connector-curvature="0" />
        </g>
        <g
           id="g3750"
           transform="matrix(0.9794465,-0.2017042,-0.2017042,-0.9794465,256.7036,391.22357)">
          <path
             transform="matrix(1.0422533,0,0,1,-4.3000528,-0.5134029)"
             d="m 101.76822,130.99892 c 0,4.22167 -3.62667,7.64402 -8.100389,7.64402 -4.473719,0 -8.100384,-3.42235 -8.100384,-7.64402 0,-4.22168 3.626665,-7.64403 8.100384,-7.64403 4.473719,0 8.100389,3.42235 8.100389,7.64403 z"
             sodipodi:ry="7.6440248"
             sodipodi:rx="8.1003847"
             sodipodi:cy="130.99892"
             sodipodi:cx="93.667831"
             id="path3752"
             style="color:#000000;fill:#000000;fill-opacity:1;fill-rule:evenodd;stroke:none;stroke-width:3;marker:none;visibility:visible;display:inline;overflow:visible;enable-background:accumulate"
             sodipodi:type="arc" />
          <path
             transform="matrix(1.0422533,0,0,1,12.357076,-0.5134029)"
             d="m 101.76822,130.99892 c 0,4.22167 -3.62667,7.64402 -8.100389,7.64402 -4.473719,0 -8.100384,-3.42235 -8.100384,-7.64402 0,-4.22168 3.626665,-7.64403 8.100384,-7.64403 4.473719,0 8.100389,3.42235 8.100389,7.64403 z"
             sodipodi:ry="7.6440248"
             sodipodi:rx="8.1003847"
             sodipodi:cy="130.99892"
             sodipodi:cx="93.667831"
             id="path3754"
             style="color:#000000;fill:#000000;fill-opacity:1;fill-rule:evenodd;stroke:none;stroke-width:3;marker:none;visibility:visible;display:inline;overflow:visible;enable-background:accumulate"
             sodipodi:type="arc" />
          <path
             sodipodi:nodetypes="cccc"
             id="path3756"
             d="M 84.882904,130.88483 C 83.788357,121.361 102.0757,117.4718 101.54003,104.41597 c 0.77531,13.08231 17.21443,16.58107 16.88531,26.92522 l -33.542436,-0.45636 z"
             style="fill:#000000;fill-rule:evenodd;stroke:none"
             inkscape:connector-curvature="0" />
          <path
             sodipodi:nodetypes="ccccc"
             id="path3758"
             d="m 96.976436,143.20654 9.811734,0 c -2.97629,-3.41772 -2.68419,-8.46964 -3.4227,-13.00625 l -3.879056,-0.45636 c -0.438941,4.48754 0.684256,8.97507 -2.509978,13.46261 z"
             style="fill:#000000;fill-rule:evenodd;stroke:none"
             inkscape:connector-curvature="0" />
        </g>
        <path
           d="m 215.16141,130.70714 -1.286,13.8915 7.97063,-1.64145 -6.68463,-12.25005 m -2.37614,-3.16036 3.32473,-0.68469 13.67051,24.5665 -3.04888,0.62788 -3.36221,-6.33185 -9.77093,2.01219 -0.5868,7.1451 -3.09243,0.63685 2.86601,-27.97198"
           id="path3760"
           inkscape:connector-curvature="0" />
        <path
           d="m 339.11412,284.24131 -6.67013,-12.25304 7.97064,-1.64145 -1.30051,13.89449 m -0.93408,3.84206 3.32473,-0.68469 2.85151,-27.96899 -3.04887,0.62788 -0.58682,7.1451 -9.77093,2.01219 -3.36219,-6.33185 -3.09244,0.63685 13.68501,24.56351"
           id="path3762"
           inkscape:connector-curvature="0" />
        <g
           id="g3764"
           transform="matrix(1.958893,-0.4034084,0.4034084,1.958893,24.302843,6.4816267)">
          <path
             transform="matrix(1.0422533,0,0,1,-4.3000528,-0.5134029)"
             d="m 101.76822,130.99892 c 0,4.22167 -3.62667,7.64402 -8.100389,7.64402 -4.473719,0 -8.100384,-3.42235 -8.100384,-7.64402 0,-4.22168 3.626665,-7.64403 8.100384,-7.64403 4.473719,0 8.100389,3.42235 8.100389,7.64403 z"
             sodipodi:ry="7.6440248"
             sodipodi:rx="8.1003847"
             sodipodi:cy="130.99892"
             sodipodi:cx="93.667831"
             id="path3766"
             style="color:#000000;fill:#000000;fill-opacity:1;fill-rule:evenodd;stroke:none;stroke-width:3;marker:none;visibility:visible;display:inline;overflow:visible;enable-background:accumulate"
             sodipodi:type="arc" />
          <path
             transform="matrix(1.0422533,0,0,1,12.357076,-0.5134029)"
             d="m 101.76822,130.99892 c 0,4.22167 -3.62667,7.64402 -8.100389,7.64402 -4.473719,0 -8.100384,-3.42235 -8.100384,-7.64402 0,-4.22168 3.626665,-7.64403 8.100384,-7.64403 4.473719,0 8.100389,3.42235 8.100389,7.64403 z"
             sodipodi:ry="7.6440248"
             sodipodi:rx="8.1003847"
             sodipodi:cy="130.99892"
             sodipodi:cx="93.667831"
             id="path3768"
             style="color:#000000;fill:#000000;fill-opacity:1;fill-rule:evenodd;stroke:none;stroke-width:3;marker:none;visibility:visible;display:inline;overflow:visible;enable-background:accumulate"
             sodipodi:type="arc" />
          <path
             sodipodi:nodetypes="cccc"
             id="path3770"
             d="M 84.882904,130.88483 C 83.788357,121.361 102.0757,117.4718 101.54003,104.41597 c 0.77531,13.08231 17.21443,16.58107 16.88531,26.92522 l -33.542436,-0.45636 z"
             style="fill:#000000;fill-rule:evenodd;stroke:none"
             inkscape:connector-curvature="0" />
          <path
             sodipodi:nodetypes="ccccc"
             id="path3772"
             d="m 96.976436,143.20654 9.811734,0 c -2.97629,-3.41772 -2.68419,-8.46964 -3.4227,-13.00625 l -3.879056,-0.45636 c -0.438941,4.48754 0.684256,8.97507 -2.509978,13.46261 z"
             style="fill:#000000;fill-rule:evenodd;stroke:none"
             inkscape:connector-curvature="0" />
        </g>
        <rect
           style="color:#000000;fill:#e6e6e6;fill-opacity:1;fill-rule:evenodd;stroke:#000000;stroke-width:2;stroke-linecap:butt;stroke-linejoin:miter;stroke-miterlimit:4;stroke-opacity:1;stroke-dasharray:none;stroke-dashoffset:0;marker:none;visibility:visible;display:inline;overflow:visible;enable-background:accumulate"
           id="rect3818"
           width="138.11348"
           height="199.42554"
           x="305.81305"
           y="56.369072"
           ry="7.7446809"
           transform="matrix(0.9869086,0.1612806,-0.1612806,0.9869086,0,0)" />
        <path
           d="m 314.91598,120.67551 -6.16091,12.51681 8.03136,1.31249 -1.87045,-13.8293 m -1.09119,-3.80043 3.35006,0.54747 3.99857,27.82817 -3.0721,-0.50204 -0.87997,-7.11495 -9.84537,-1.60893 -3.09913,6.46469 -3.116,-0.50922 12.66394,-25.10519"
           id="path3820"
           style="color:#000000;fill:#d40000;fill-opacity:1;fill-rule:evenodd;stroke:none;stroke-width:1px;marker:none;visibility:visible;display:inline;overflow:visible;enable-background:accumulate"
           inkscape:connector-curvature="0" />
        <path
           d="m 375.88316,308.34548 -1.85582,-13.82691 8.03136,1.31249 -6.17554,12.51442 m -2.24424,3.25535 3.35006,0.54747 12.64933,-25.10758 -3.07211,-0.50204 -3.09915,6.46468 -9.84537,-1.60893 -0.87994,-7.11494 -3.116,-0.50922 4.01318,27.83056"
           id="path3822"
           style="color:#000000;fill:#d40000;fill-opacity:1;fill-rule:evenodd;stroke:none;stroke-width:1px;marker:none;visibility:visible;display:inline;overflow:visible;enable-background:accumulate"
           inkscape:connector-curvature="0" />
        <g
           id="g3824"
           style="fill:#d40000"
           transform="matrix(0.9869086,0.1612806,-0.1612806,0.9869086,163.6829,10.719463)">
          <path
             transform="matrix(-1.0422533,0,0,-1,274.24169,249.04863)"
             d="m 101.76822,130.99892 c 0,4.22167 -3.62667,7.64402 -8.100389,7.64402 -4.473719,0 -8.100384,-3.42235 -8.100384,-7.64402 0,-4.22168 3.626665,-7.64403 8.100384,-7.64403 4.473719,0 8.100389,3.42235 8.100389,7.64403 z"
             sodipodi:ry="7.6440248"
             sodipodi:rx="8.1003847"
             sodipodi:cy="130.99892"
             sodipodi:cx="93.667831"
             id="path3826"
             style="color:#000000;fill:#d40000;fill-opacity:1;fill-rule:evenodd;stroke:none;stroke-width:3;marker:none;visibility:visible;display:inline;overflow:visible;enable-background:accumulate"
             sodipodi:type="arc" />
          <path
             transform="matrix(-1.0422533,0,0,-1,257.58456,249.04863)"
             d="m 101.76822,130.99892 c 0,4.22167 -3.62667,7.64402 -8.100389,7.64402 -4.473719,0 -8.100384,-3.42235 -8.100384,-7.64402 0,-4.22168 3.626665,-7.64403 8.100384,-7.64403 4.473719,0 8.100389,3.42235 8.100389,7.64403 z"
             sodipodi:ry="7.6440248"
             sodipodi:rx="8.1003847"
             sodipodi:cy="130.99892"
             sodipodi:cx="93.667831"
             id="path3828"
             style="color:#000000;fill:#d40000;fill-opacity:1;fill-rule:evenodd;stroke:none;stroke-width:3;marker:none;visibility:visible;display:inline;overflow:visible;enable-background:accumulate"
             sodipodi:type="arc" />
          <path
             sodipodi:nodetypes="cccc"
             id="path3830"
             d="m 185.05874,117.6504 c 1.09454,9.52383 -17.1928,13.41303 -16.65713,26.46886 -0.77531,-13.08231 -17.21443,-16.58107 -16.88531,-26.92522 l 33.54244,0.45636 z"
             style="fill:#d40000;fill-rule:evenodd;stroke:none"
             inkscape:connector-curvature="0" />
        </g>
        <g
           id="g3832"
           style="fill:#d40000"
           transform="matrix(0.9869086,0.1612806,0.1612806,-0.9869086,195.64854,363.55272)">
          <path
             transform="matrix(-1.0422533,0,0,-1,274.24169,249.04863)"
             d="m 101.76822,130.99892 c 0,4.22167 -3.62667,7.64402 -8.100389,7.64402 -4.473719,0 -8.100384,-3.42235 -8.100384,-7.64402 0,-4.22168 3.626665,-7.64403 8.100384,-7.64403 4.473719,0 8.100389,3.42235 8.100389,7.64403 z"
             sodipodi:ry="7.6440248"
             sodipodi:rx="8.1003847"
             sodipodi:cy="130.99892"
             sodipodi:cx="93.667831"
             id="path3834"
             style="color:#000000;fill:#d40000;fill-opacity:1;fill-rule:evenodd;stroke:none;stroke-width:3;marker:none;visibility:visible;display:inline;overflow:visible;enable-background:accumulate"
             sodipodi:type="arc" />
          <path
             transform="matrix(-1.0422533,0,0,-1,257.58456,249.04863)"
             d="m 101.76822,130.99892 c 0,4.22167 -3.62667,7.64402 -8.100389,7.64402 -4.473719,0 -8.100384,-3.42235 -8.100384,-7.64402 0,-4.22168 3.626665,-7.64403 8.100384,-7.64403 4.473719,0 8.100389,3.42235 8.100389,7.64403 z"
             sodipodi:ry="7.6440248"
             sodipodi:rx="8.1003847"
             sodipodi:cy="130.99892"
             sodipodi:cx="93.667831"
             id="path3836"
             style="color:#000000;fill:#d40000;fill-opacity:1;fill-rule:evenodd;stroke:none;stroke-width:3;marker:none;visibility:visible;display:inline;overflow:visible;enable-background:accumulate"
             sodipodi:type="arc" />
          <path
             sodipodi:nodetypes="cccc"
             id="path3838"
             d="m 185.05874,117.6504 c 1.09454,9.52383 -17.1928,13.41303 -16.65713,26.46886 -0.77531,-13.08231 -17.21443,-16.58107 -16.88531,-26.92522 l 33.54244,0.45636 z"
             style="fill:#d40000;fill-rule:evenodd;stroke:none"
             inkscape:connector-curvature="0" />
        </g>
        <g
           id="g3840"
           style="fill:#d40000"
           transform="matrix(1.9738172,0.3225612,-0.3225612,1.9738172,48.757019,-80.597915)">
          <path
             transform="matrix(-1.0422533,0,0,-1,274.24169,249.04863)"
             d="m 101.76822,130.99892 c 0,4.22167 -3.62667,7.64402 -8.100389,7.64402 -4.473719,0 -8.100384,-3.42235 -8.100384,-7.64402 0,-4.22168 3.626665,-7.64403 8.100384,-7.64403 4.473719,0 8.100389,3.42235 8.100389,7.64403 z"
             sodipodi:ry="7.6440248"
             sodipodi:rx="8.1003847"
             sodipodi:cy="130.99892"
             sodipodi:cx="93.667831"
             id="path3842"
             style="color:#000000;fill:#d40000;fill-opacity:1;fill-rule:evenodd;stroke:none;stroke-width:3;marker:none;visibility:visible;display:inline;overflow:visible;enable-background:accumulate"
             sodipodi:type="arc" />
          <path
             transform="matrix(-1.0422533,0,0,-1,257.58456,249.04863)"
             d="m 101.76822,130.99892 c 0,4.22167 -3.62667,7.64402 -8.100389,7.64402 -4.473719,0 -8.100384,-3.42235 -8.100384,-7.64402 0,-4.22168 3.626665,-7.64403 8.100384,-7.64403 4.473719,0 8.100389,3.42235 8.100389,7.64403 z"
             sodipodi:ry="7.6440248"
             sodipodi:rx="8.1003847"
             sodipodi:cy="130.99892"
             sodipodi:cx="93.667831"
             id="path3844"
             style="color:#000000;fill:#d40000;fill-opacity:1;fill-rule:evenodd;stroke:none;stroke-width:3;marker:none;visibility:visible;display:inline;overflow:visible;enable-background:accumulate"
             sodipodi:type="arc" />
          <path
             sodipodi:nodetypes="cccc"
             id="path3846"
             d="m 185.05874,117.6504 c 1.09454,9.52383 -17.1928,13.41303 -16.65713,26.46886 -0.77531,-13.08231 -17.21443,-16.58107 -16.88531,-26.92522 l 33.54244,0.45636 z"
             style="fill:#d40000;fill-rule:evenodd;stroke:none"
             inkscape:connector-curvature="0" />
        </g>
        <rect
           style="color:#000000;fill:#e6e6e6;fill-opacity:1;fill-rule:evenodd;stroke:#000000;stroke-width:2;stroke-linecap:butt;stroke-linejoin:miter;stroke-miterlimit:4;stroke-opacity:1;stroke-dasharray:none;stroke-dashoffset:0;marker:none;visibility:visible;display:inline;overflow:visible;enable-background:accumulate"
           id="rect3972"
           width="138.11348"
           height="199.42554"
           x="417.88269"
           y="-65.664627"
           ry="7.7446809"
           transform="matrix(0.9035411,0.4285015,-0.4285015,0.9035411,0,0)" />
        <path
           d="m 422.68176,140.99183 -9.3888,10.31882 7.35292,3.4871 2.03588,-13.80592 m 0.005,-3.95397 3.06707,1.45455 -3.87117,27.84618 -2.81259,-1.33387 1.12654,-7.08009 -9.0137,-4.27472 -4.76951,5.35243 -2.85278,-1.35292 19.12614,-20.61156"
           id="path3974"
           style="color:#000000;fill:#000000;fill-opacity:1;fill-rule:evenodd;stroke:#000000;stroke-width:1px;stroke-linecap:butt;stroke-linejoin:miter;stroke-miterlimit:4;stroke-opacity:1;stroke-dasharray:none;stroke-dashoffset:0;marker:none;visibility:visible;display:inline;overflow:visible;enable-background:accumulate"
           inkscape:connector-curvature="0" />
        <path
           d="m 429.24419,338.20733 2.04926,-13.79957 7.35293,3.4871 -9.40219,10.31247 m -3.0586,2.50577 3.06707,1.45455 19.11277,-20.6179 -2.81259,-1.33387 -4.76954,5.35242 -9.0137,-4.27472 1.12657,-7.08008 -2.85278,-1.35292 -3.8578,27.85252"
           id="path3976"
           style="color:#000000;fill:#000000;fill-opacity:1;fill-rule:evenodd;stroke:#000000;stroke-width:1px;stroke-linecap:butt;stroke-linejoin:miter;stroke-miterlimit:4;stroke-opacity:1;stroke-dasharray:none;stroke-dashoffset:0;marker:none;visibility:visible;display:inline;overflow:visible;enable-background:accumulate"
           inkscape:connector-curvature="0" />
        <g
           id="g3978"
           transform="matrix(0.9035411,0.4285015,-0.4285015,0.9035411,337.21707,7.0698054)">
          <path
             transform="matrix(1.0422533,0,0,1,29.06146,-0.5134029)"
             d="m 101.76822,130.99892 c 0,4.22167 -3.62667,7.64402 -8.100389,7.64402 -4.473719,0 -8.100384,-3.42235 -8.100384,-7.64402 0,-4.22168 3.626665,-7.64403 8.100384,-7.64403 4.473719,0 8.100389,3.42235 8.100389,7.64403 z"
             sodipodi:ry="7.6440248"
             sodipodi:rx="8.1003847"
             sodipodi:cy="130.99892"
             sodipodi:cx="93.667831"
             id="path3980"
             style="color:#000000;fill:#000000;fill-opacity:1;fill-rule:evenodd;stroke:none;stroke-width:3;marker:none;visibility:visible;display:inline;overflow:visible;enable-background:accumulate"
             sodipodi:type="arc" />
          <path
             transform="matrix(1.0422533,0,0,1,45.718589,-0.5134029)"
             d="m 101.76822,130.99892 c 0,4.22167 -3.62667,7.64402 -8.100389,7.64402 -4.473719,0 -8.100384,-3.42235 -8.100384,-7.64402 0,-4.22168 3.626665,-7.64403 8.100384,-7.64403 4.473719,0 8.100389,3.42235 8.100389,7.64403 z"
             sodipodi:ry="7.6440248"
             sodipodi:rx="8.1003847"
             sodipodi:cy="130.99892"
             sodipodi:cx="93.667831"
             id="path3982"
             style="color:#000000;fill:#000000;fill-opacity:1;fill-rule:evenodd;stroke:none;stroke-width:3;marker:none;visibility:visible;display:inline;overflow:visible;enable-background:accumulate"
             sodipodi:type="arc" />
          <path
             sodipodi:nodetypes="ccccc"
             id="path3984"
             d="m 130.33795,143.20654 9.81173,0 c -2.97629,-3.41772 -2.68419,-8.46964 -3.4227,-13.00625 l -3.87905,-0.45636 c -0.43894,4.48754 0.68425,8.97507 -2.50998,13.46261 z"
             style="fill:#000000;fill-rule:evenodd;stroke:none"
             inkscape:connector-curvature="0" />
          <path
             transform="matrix(1.0422533,0,0,1,37.685044,-13.348518)"
             d="m 101.76822,130.99892 c 0,4.22167 -3.62667,7.64402 -8.100389,7.64402 -4.473719,0 -8.100384,-3.42235 -8.100384,-7.64402 0,-4.22168 3.626665,-7.64403 8.100384,-7.64403 4.473719,0 8.100389,3.42235 8.100389,7.64403 z"
             sodipodi:ry="7.6440248"
             sodipodi:rx="8.1003847"
             sodipodi:cy="130.99892"
             sodipodi:cx="93.667831"
             id="path3986"
             style="color:#000000;fill:#000000;fill-opacity:1;fill-rule:evenodd;stroke:none;stroke-width:3;marker:none;visibility:visible;display:inline;overflow:visible;enable-background:accumulate"
             sodipodi:type="arc" />
          <path
             id="path3988"
             d="m 131.88795,123.3549 6.38904,0.68453 -2.73816,7.30176 -3.65088,-7.98629 z"
             style="fill:#000000;fill-rule:evenodd;stroke:#000000;stroke-width:1px;stroke-linecap:butt;stroke-linejoin:miter;stroke-opacity:1"
             inkscape:connector-curvature="0" />
        </g>
        <g
           id="g3990"
           transform="matrix(0.9035411,0.4285015,0.4285015,-0.9035411,269.9898,355.4382)">
          <path
             transform="matrix(1.0422533,0,0,1,29.06146,-0.5134029)"
             d="m 101.76822,130.99892 c 0,4.22167 -3.62667,7.64402 -8.100389,7.64402 -4.473719,0 -8.100384,-3.42235 -8.100384,-7.64402 0,-4.22168 3.626665,-7.64403 8.100384,-7.64403 4.473719,0 8.100389,3.42235 8.100389,7.64403 z"
             sodipodi:ry="7.6440248"
             sodipodi:rx="8.1003847"
             sodipodi:cy="130.99892"
             sodipodi:cx="93.667831"
             id="path3992"
             style="color:#000000;fill:#000000;fill-opacity:1;fill-rule:evenodd;stroke:none;stroke-width:3;marker:none;visibility:visible;display:inline;overflow:visible;enable-background:accumulate"
             sodipodi:type="arc" />
          <path
             transform="matrix(1.0422533,0,0,1,45.718589,-0.5134029)"
             d="m 101.76822,130.99892 c 0,4.22167 -3.62667,7.64402 -8.100389,7.64402 -4.473719,0 -8.100384,-3.42235 -8.100384,-7.64402 0,-4.22168 3.626665,-7.64403 8.100384,-7.64403 4.473719,0 8.100389,3.42235 8.100389,7.64403 z"
             sodipodi:ry="7.6440248"
             sodipodi:rx="8.1003847"
             sodipodi:cy="130.99892"
             sodipodi:cx="93.667831"
             id="path3994"
             style="color:#000000;fill:#000000;fill-opacity:1;fill-rule:evenodd;stroke:none;stroke-width:3;marker:none;visibility:visible;display:inline;overflow:visible;enable-background:accumulate"
             sodipodi:type="arc" />
          <path
             sodipodi:nodetypes="ccccc"
             id="path3996"
             d="m 130.33795,143.20654 9.81173,0 c -2.97629,-3.41772 -2.68419,-8.46964 -3.4227,-13.00625 l -3.87905,-0.45636 c -0.43894,4.48754 0.68425,8.97507 -2.50998,13.46261 z"
             style="fill:#000000;fill-rule:evenodd;stroke:none"
             inkscape:connector-curvature="0" />
          <path
             transform="matrix(1.0422533,0,0,1,37.685044,-13.348518)"
             d="m 101.76822,130.99892 c 0,4.22167 -3.62667,7.64402 -8.100389,7.64402 -4.473719,0 -8.100384,-3.42235 -8.100384,-7.64402 0,-4.22168 3.626665,-7.64403 8.100384,-7.64403 4.473719,0 8.100389,3.42235 8.100389,7.64403 z"
             sodipodi:ry="7.6440248"
             sodipodi:rx="8.1003847"
             sodipodi:cy="130.99892"
             sodipodi:cx="93.667831"
             id="path3998"
             style="color:#000000;fill:#000000;fill-opacity:1;fill-rule:evenodd;stroke:none;stroke-width:3;marker:none;visibility:visible;display:inline;overflow:visible;enable-background:accumulate"
             sodipodi:type="arc" />
          <path
             id="path4000"
             d="m 131.88795,123.3549 6.38904,0.68453 -2.73816,7.30176 -3.65088,-7.98629 z"
             style="fill:#000000;fill-rule:evenodd;stroke:#000000;stroke-width:1px;stroke-linecap:butt;stroke-linejoin:miter;stroke-opacity:1"
             inkscape:connector-curvature="0" />
        </g>
        <g
           id="g4002"
           transform="matrix(1.8070822,0.857003,-0.857003,1.8070822,287.38007,-109.21033)">
          <path
             transform="matrix(1.0422533,0,0,1,29.06146,-0.5134029)"
             d="m 101.76822,130.99892 c 0,4.22167 -3.62667,7.64402 -8.100389,7.64402 -4.473719,0 -8.100384,-3.42235 -8.100384,-7.64402 0,-4.22168 3.626665,-7.64403 8.100384,-7.64403 4.473719,0 8.100389,3.42235 8.100389,7.64403 z"
             sodipodi:ry="7.6440248"
             sodipodi:rx="8.1003847"
             sodipodi:cy="130.99892"
             sodipodi:cx="93.667831"
             id="path4004"
             style="color:#000000;fill:#000000;fill-opacity:1;fill-rule:evenodd;stroke:none;stroke-width:3;marker:none;visibility:visible;display:inline;overflow:visible;enable-background:accumulate"
             sodipodi:type="arc" />
          <path
             transform="matrix(1.0422533,0,0,1,45.718589,-0.5134029)"
             d="m 101.76822,130.99892 c 0,4.22167 -3.62667,7.64402 -8.100389,7.64402 -4.473719,0 -8.100384,-3.42235 -8.100384,-7.64402 0,-4.22168 3.626665,-7.64403 8.100384,-7.64403 4.473719,0 8.100389,3.42235 8.100389,7.64403 z"
             sodipodi:ry="7.6440248"
             sodipodi:rx="8.1003847"
             sodipodi:cy="130.99892"
             sodipodi:cx="93.667831"
             id="path4006"
             style="color:#000000;fill:#000000;fill-opacity:1;fill-rule:evenodd;stroke:none;stroke-width:3;marker:none;visibility:visible;display:inline;overflow:visible;enable-background:accumulate"
             sodipodi:type="arc" />
          <path
             sodipodi:nodetypes="ccccc"
             id="path4008"
             d="m 130.33795,143.20654 9.81173,0 c -2.97629,-3.41772 -2.68419,-8.46964 -3.4227,-13.00625 l -3.87905,-0.45636 c -0.43894,4.48754 0.68425,8.97507 -2.50998,13.46261 z"
             style="fill:#000000;fill-rule:evenodd;stroke:none"
             inkscape:connector-curvature="0" />
          <path
             transform="matrix(1.0422533,0,0,1,37.685044,-13.348518)"
             d="m 101.76822,130.99892 c 0,4.22167 -3.62667,7.64402 -8.100389,7.64402 -4.473719,0 -8.100384,-3.42235 -8.100384,-7.64402 0,-4.22168 3.626665,-7.64403 8.100384,-7.64403 4.473719,0 8.100389,3.42235 8.100389,7.64403 z"
             sodipodi:ry="7.6440248"
             sodipodi:rx="8.1003847"
             sodipodi:cy="130.99892"
             sodipodi:cx="93.667831"
             id="path4010"
             style="color:#000000;fill:#000000;fill-opacity:1;fill-rule:evenodd;stroke:none;stroke-width:3;marker:none;visibility:visible;display:inline;overflow:visible;enable-background:accumulate"
             sodipodi:type="arc" />
          <path
             id="path4012"
             d="m 131.88795,123.3549 6.38904,0.68453 -2.73816,7.30176 -3.65088,-7.98629 z"
             style="fill:#000000;fill-rule:evenodd;stroke:#000000;stroke-width:1px;stroke-linecap:butt;stroke-linejoin:miter;stroke-opacity:1"
             inkscape:connector-curvature="0" />
        </g>
      </g>
    </g>
  </g>
</svg>
