<?xml version="1.0" encoding="UTF-8" standalone="no"?>
<!-- Created with Inkscape (http://www.inkscape.org/) -->

<svg
   xmlns:dc="http://purl.org/dc/elements/1.1/"
   xmlns:cc="http://creativecommons.org/ns#"
   xmlns:rdf="http://www.w3.org/1999/02/22-rdf-syntax-ns#"
   xmlns:svg="http://www.w3.org/2000/svg"
   xmlns="http://www.w3.org/2000/svg"
   xmlns:sodipodi="http://sodipodi.sourceforge.net/DTD/sodipodi-0.dtd"
   xmlns:inkscape="http://www.inkscape.org/namespaces/inkscape"
   width="468.92764"
   height="373.67081"
   id="svg8048"
   version="1.1"
   inkscape:version="0.48.1 r9760"
   sodipodi:docname="chupete.svg"
   inkscape:export-filename="/home/vhzc/Documentos/mis_sitios/pagina_mirror/objetos/chupete.png"
   inkscape:export-xdpi="90"
   inkscape:export-ydpi="90">
  <title
     id="title8222">chupete</title>
  <defs
     id="defs8050" />
  <sodipodi:namedview
     id="base"
     pagecolor="#ffffff"
     bordercolor="#666666"
     borderopacity="1.0"
     inkscape:pageopacity="0.0"
     inkscape:pageshadow="2"
     inkscape:zoom="0.35"
     inkscape:cx="-69.825064"
     inkscape:cy="109.69055"
     inkscape:document-units="px"
     inkscape:current-layer="layer1"
     showgrid="false"
     fit-margin-top="0"
     fit-margin-left="0"
     fit-margin-right="0"
     fit-margin-bottom="0"
     inkscape:window-width="1024"
     inkscape:window-height="716"
     inkscape:window-x="0"
     inkscape:window-y="0"
     inkscape:window-maximized="1" />
  <metadata
     id="metadata8053">
    <rdf:RDF>
      <cc:Work
         rdf:about="">
        <dc:format>image/svg+xml</dc:format>
        <dc:type
           rdf:resource="http://purl.org/dc/dcmitype/StillImage" />
        <dc:title>chupete</dc:title>
        <dc:creator>
          <cc:Agent>
            <dc:title>Vladimir Zúñiga</dc:title>
          </cc:Agent>
        </dc:creator>
        <cc:license
           rdf:resource="http://creativecommons.org/licenses/by/3.0/" />
      </cc:Work>
      <cc:License
         rdf:about="http://creativecommons.org/licenses/by/3.0/">
        <cc:permits
           rdf:resource="http://creativecommons.org/ns#Reproduction" />
        <cc:permits
           rdf:resource="http://creativecommons.org/ns#Distribution" />
        <cc:requires
           rdf:resource="http://creativecommons.org/ns#Notice" />
        <cc:requires
           rdf:resource="http://creativecommons.org/ns#Attribution" />
        <cc:permits
           rdf:resource="http://creativecommons.org/ns#DerivativeWorks" />
      </cc:License>
    </rdf:RDF>
  </metadata>
  <g
     inkscape:label="Capa 1"
     inkscape:groupmode="layer"
     id="layer1"
     transform="translate(148.74636,-268.38192)">
    <g
       transform="matrix(2,0,0,2,-274.35169,-453.17211)"
       id="g7993">
      <path
         id="path6345-5"
         d="M 168.73796,454.05155 C 149.3252,424.96317 112.91741,415.18768 87.37705,432.2326 61.8367,449.27751 56.84171,486.68404 76.25447,515.77241 c 19.41277,29.08838 55.90724,38.88116 81.44759,21.83625 25.54036,-17.04491 30.44866,-54.46873 11.0359,-83.55711 z m -7.90191,5.27351 c 12.85692,19.26499 9.57505,44.02889 -7.34012,55.3176 -16.91516,11.2887 -41.04273,4.81708 -53.89964,-14.44791 -12.85692,-19.265 -9.57505,-44.02889 7.34011,-55.3176 16.91517,-11.2887 41.04274,-4.81709 53.89965,14.44791 z"
         style="color:#000000;fill:#2c5aa0;fill-opacity:1;fill-rule:nonzero;stroke:#000000;stroke-width:3.24068522;stroke-linecap:butt;stroke-linejoin:miter;stroke-miterlimit:4;stroke-opacity:1;stroke-dasharray:none;stroke-dashoffset:0;marker:none;visibility:visible;display:inline;overflow:visible;enable-background:accumulate"
         inkscape:connector-curvature="0" />
      <path
         id="path6345-5-2"
         d="m 121.80357,428.22321 c -6.1306,0.21049 -12.12026,2.00353 -17.40625,5.53125 -14.06893,9.38922 -18.67275,28.10303 -12.4375,45.21875 -1.28517,-13.58666 3.9182,-26.71892 14.96875,-34.09375 16.91517,-11.2887 41.04934,-4.8275 53.90625,14.4375 2.17602,3.26058 3.86143,6.70388 5.125,10.1875 -0.67289,-7.23175 -3.18506,-14.58155 -7.65625,-21.28125 -8.83913,-13.24469 -23.01267,-20.46307 -36.5,-20 z m 55.65625,43.9375 c 2.99824,21.52199 -4.82464,42.69371 -22.28125,54.34375 -25.54035,17.04491 -62.02473,7.24463 -81.4375,-21.84375 -3.86056,-5.78472 -6.72713,-11.9079 -8.6875,-18.125 1.37351,9.97304 5.0375,20.03475 11.1875,29.25 19.41277,29.08838 55.9284,38.85741 81.46875,21.8125 20.46163,-13.65551 27.67023,-40.38718 19.75,-65.4375 z"
         style="opacity:0.17338712;color:#000000;fill:#000000;fill-opacity:1;fill-rule:nonzero;stroke:#000000;stroke-width:1px;stroke-linecap:butt;stroke-linejoin:miter;stroke-miterlimit:4;stroke-opacity:1;stroke-dasharray:none;stroke-dashoffset:0;marker:none;visibility:visible;display:inline;overflow:visible;enable-background:accumulate"
         inkscape:connector-curvature="0" />
      <rect
         transform="matrix(0.55510616,0.83177951,-0.83177951,0.55510616,0,0)"
         ry="21.803087"
         y="89.641548"
         x="440.65079"
         height="60.714287"
         width="61.42857"
         id="rect6347-3"
         style="color:#000000;fill:#2c5aa0;fill-opacity:1;fill-rule:nonzero;stroke:#000000;stroke-width:3.24068522;stroke-linecap:butt;stroke-linejoin:miter;stroke-miterlimit:4;stroke-opacity:1;stroke-dasharray:none;stroke-dashoffset:0;marker:none;visibility:visible;display:inline;overflow:visible;enable-background:accumulate" />
      <path
         sodipodi:nodetypes="ccccccc"
         inkscape:connector-curvature="0"
         id="path6717"
         d="m 143.58482,434.84821 c 5.68559,20.79339 19.28425,44.39596 -8.5,38.4375 l 6.46875,9.65625 c 6.70508,10.04699 20.17176,12.73633 30.21875,6.03125 l 14.25,-9.5 c 1.75985,-1.17447 3.26503,-2.55809 4.5625,-4.09375 z"
         style="opacity:0.17338712;color:#000000;fill:#000000;fill-opacity:1;fill-rule:nonzero;stroke:#000000;stroke-width:1px;stroke-linecap:butt;stroke-linejoin:miter;stroke-miterlimit:4;stroke-opacity:1;stroke-dasharray:none;stroke-dashoffset:0;marker:none;visibility:visible;display:inline;overflow:visible;enable-background:accumulate" />
      <path
         transform="matrix(1.1102123,1.663559,-4.37364,2.9188438,2278.6467,-1474.8381)"
         d="m 259.28572,533.3443 c 0,3.40247 -19.30772,6.16071 -43.125,6.16071 -23.81728,0 -43.125,-2.75824 -43.125,-6.16071 0,-3.40247 19.30772,-6.16071 43.125,-6.16071 23.81728,0 43.125,2.75824 43.125,6.16071 z"
         sodipodi:ry="6.1607141"
         sodipodi:rx="43.125"
         sodipodi:cy="533.3443"
         sodipodi:cx="216.16072"
         id="path5165-96-2"
         style="color:#000000;fill:#2c5aa0;fill-opacity:1;fill-rule:nonzero;stroke:#000000;stroke-width:0.99931967;stroke-linecap:butt;stroke-linejoin:miter;stroke-miterlimit:4;stroke-opacity:1;stroke-dasharray:none;stroke-dashoffset:0;marker:none;visibility:visible;display:inline;overflow:visible;enable-background:accumulate"
         sodipodi:type="arc" />
      <path
         transform="matrix(1.1102123,1.663559,-4.37364,2.9188438,2285.301,-1479.279)"
         d="m 259.28572,533.3443 c 0,3.40247 -19.30772,6.16071 -43.125,6.16071 -23.81728,0 -43.125,-2.75824 -43.125,-6.16071 0,-3.40247 19.30772,-6.16071 43.125,-6.16071 23.81728,0 43.125,2.75824 43.125,6.16071 z"
         sodipodi:ry="6.1607141"
         sodipodi:rx="43.125"
         sodipodi:cy="533.3443"
         sodipodi:cx="216.16072"
         id="path5165-7"
         style="color:#000000;fill:#2c5aa0;fill-opacity:1;fill-rule:nonzero;stroke:#000000;stroke-width:0.99931973;stroke-linecap:butt;stroke-linejoin:miter;stroke-miterlimit:4;stroke-opacity:1;stroke-dasharray:none;stroke-dashoffset:0;marker:none;visibility:visible;display:inline;overflow:visible;enable-background:accumulate"
         sodipodi:type="arc" />
      <path
         transform="matrix(0.65402789,0.98000534,-2.6020432,1.7365301,1454.3727,-710.77193)"
         d="m 259.28572,533.3443 c 0,3.40247 -19.30772,6.16071 -43.125,6.16071 -23.81728,0 -43.125,-2.75824 -43.125,-6.16071 0,-3.40247 19.30772,-6.16071 43.125,-6.16071 23.81728,0 43.125,2.75824 43.125,6.16071 z"
         sodipodi:ry="6.1607141"
         sodipodi:rx="43.125"
         sodipodi:cy="533.3443"
         sodipodi:cx="216.16072"
         id="path5165-9-6-2-6"
         style="color:#000000;fill:#2c5aa0;fill-opacity:1;fill-rule:nonzero;stroke:#000000;stroke-width:1.68800449;stroke-linecap:butt;stroke-linejoin:miter;stroke-miterlimit:4;stroke-opacity:1;stroke-dasharray:none;stroke-dashoffset:0;marker:none;visibility:visible;display:inline;overflow:visible;enable-background:accumulate"
         sodipodi:type="arc" />
      <path
         transform="matrix(0.55510615,0.8317795,-1.9747285,1.3178781,1142.6919,-456.85649)"
         d="m 259.28572,533.3443 c 0,3.40247 -19.30772,6.16071 -43.125,6.16071 -23.81728,0 -43.125,-2.75824 -43.125,-6.16071 0,-3.40247 19.30772,-6.16071 43.125,-6.16071 23.81728,0 43.125,2.75824 43.125,6.16071 z"
         sodipodi:ry="6.1607141"
         sodipodi:rx="43.125"
         sodipodi:cy="533.3443"
         sodipodi:cx="216.16072"
         id="path5165-9-5"
         style="color:#000000;fill:#000080;fill-opacity:1;fill-rule:nonzero;stroke:#000000;stroke-width:2.29430342;marker:none;visibility:visible;display:inline;overflow:visible;enable-background:accumulate"
         sodipodi:type="arc" />
      <path
         sodipodi:nodetypes="ccccssc"
         inkscape:connector-curvature="0"
         id="path6694"
         d="m 211.20982,421.00446 c -2.10738,35.07462 4.8042,86.72461 -44.90625,34.3125 l -1.03125,12.125 16.1875,20.3125 c 20.73162,21.83923 40.27554,30.36173 52.40625,25.5 23.36818,-9.36547 17.34278,-51.83348 -9.57328,-91.48652 -0.57416,-0.84585 -12.50923,0.0723 -13.08297,-0.76348 z"
         style="opacity:0.17338712;fill:#000000;stroke:#000000;stroke-width:1px;stroke-linecap:butt;stroke-linejoin:miter;stroke-opacity:1" />
      <path
         sodipodi:nodetypes="sscccsccsssccsccccs"
         inkscape:connector-curvature="0"
         id="path5165-9-6-9-1"
         d="m 291.89353,372.31184 c -6.73958,-10.09869 -20.18245,-12.98012 -29.99162,-6.43376 -0.98501,0.65737 -1.85037,1.38108 -2.68577,2.16811 -4.44235,9.11698 -15.1424,10.49538 -22.12887,14.69316 -1.40436,0.93723 -2.78421,1.89177 -4.08951,2.87951 -13.6559,-7.50553 -30.64959,-7.49745 -44.20192,1.54699 -1.97002,1.31474 -3.78734,2.74493 -5.45822,4.31893 l 0.13877,0.20794 c -0.043,0.0263 -0.11395,0.0761 -0.15587,0.10403 -5.41061,3.61089 0.94442,22.58226 14.16554,42.39299 13.22112,19.81072 28.30175,32.95888 33.71236,29.34799 0.0423,-0.0282 0.1149,-0.0743 0.15588,-0.10403 l 0.17347,0.25993 c 2.09465,-0.93901 4.1127,-2.06843 6.08272,-3.38317 12.85906,-8.58177 19.46572,-23.09646 18.66803,-37.78073 1.73857,-0.98307 3.47424,-2.09331 5.19867,-3.24415 9.52891,-5.80259 12.95513,-14.94422 21.69522,-15.23017 1.14012,-0.29899 2.15754,-0.97448 3.15417,-1.57903 9.80917,-6.54636 12.30652,-20.06587 5.56695,-30.16454 z"
         style="color:#000000;fill:none;stroke:#000000;stroke-width:3.17229271;marker:none;visibility:visible;display:inline;overflow:visible;enable-background:accumulate" />
      <path
         sodipodi:nodetypes="sscccsccsssccsccccs"
         inkscape:connector-curvature="0"
         id="path5165-9-6-8"
         d="m 291.89353,372.31184 c -6.73958,-10.09869 -20.18245,-12.98012 -29.99162,-6.43376 -0.98501,0.65737 -1.85037,1.38108 -2.68577,2.16811 -4.44235,9.11698 -15.1424,10.49538 -22.12887,14.69316 -1.40436,0.93723 -2.78421,1.89177 -4.08951,2.87951 -13.6559,-7.50553 -30.64959,-7.49745 -44.20192,1.54699 -1.97002,1.31474 -3.78734,2.74493 -5.45822,4.31893 l 0.13877,0.20794 c -0.043,0.0263 -0.11395,0.0761 -0.15587,0.10403 -5.41061,3.61089 0.94442,22.58226 14.16554,42.39299 13.22112,19.81072 28.30175,32.95888 33.71236,29.34799 0.0423,-0.0282 0.1149,-0.0743 0.15588,-0.10403 l 0.17347,0.25993 c 2.09465,-0.93901 4.1127,-2.06843 6.08272,-3.38317 12.85906,-8.58177 19.46572,-23.09646 18.66803,-37.78073 1.73857,-0.98307 3.47424,-2.09331 5.19867,-3.24415 9.52891,-5.80259 12.95513,-14.94422 21.69522,-15.23017 1.14012,-0.29899 2.15754,-0.97448 3.15417,-1.57903 9.80917,-6.54636 12.30652,-20.06587 5.56695,-30.16454 z"
         style="opacity:0.56896548;color:#000000;fill:#ffaaaa;stroke:#000000;stroke-width:3.17229271;marker:none;visibility:visible;display:inline;overflow:visible;enable-background:accumulate" />
      <path
         sodipodi:nodetypes="ccsccsccccc"
         inkscape:connector-curvature="0"
         id="path5165-9-6-9-1-4"
         d="m 291.89353,372.31184 c -0.69959,24.14026 -75.10816,72.77383 -94.40747,61.8779 13.22112,19.81072 28.30175,32.95888 33.71236,29.34799 0.0423,-0.0282 0.1149,-0.0743 0.15588,-0.10403 l 0.17347,0.25993 c 2.09465,-0.93901 4.1127,-2.06843 6.08272,-3.38317 12.85906,-8.58177 19.46572,-23.09646 18.66803,-37.78073 1.73857,-0.98307 3.47424,-2.09331 5.19867,-3.24415 9.52891,-5.80259 12.95513,-14.94422 21.69522,-15.23017 1.14012,-0.29899 2.15754,-0.97448 3.15417,-1.57903 9.80917,-6.54636 12.30652,-20.06587 5.56695,-30.16454 z"
         style="opacity:0.14655169;color:#000000;fill:#000000;stroke:#000000;stroke-width:3.17229271;marker:none;visibility:visible;display:inline;overflow:visible;enable-background:accumulate" />
      <path
         sodipodi:nodetypes="ccccc"
         inkscape:connector-curvature="0"
         id="path6601"
         d="m 277.41092,375.00053 -36.87057,21.71828 c -17.05689,-1.10441 -33.70301,-6.72723 -52.02286,6.06091 4.76011,-6.23876 8.93005,-17.42123 51.51778,-9.59645 l 35.60788,-21.97081 z"
         style="opacity:0.23275865;fill:#ffffff;stroke:none" />
      <path
         sodipodi:nodetypes="ccc"
         inkscape:connector-curvature="0"
         id="path6800"
         d="m 178.92857,378.79075 c -12.50455,-10.44809 -60.70074,-36.13388 -17.85714,58.92856 -15.92988,-42.22124 -17.27472,-79.30151 17.85714,-58.92856"
         style="opacity:0.23275865;color:#000000;fill:#ffffff;fill-opacity:1;fill-rule:nonzero;stroke:none;stroke-width:1px;marker:none;visibility:visible;display:inline;overflow:visible;enable-background:accumulate" />
    </g>
  </g>
</svg>
