<?xml version="1.0" encoding="UTF-8" standalone="no"?>
<!-- Created with Inkscape (http://www.inkscape.org/) -->

<svg
   xmlns:dc="http://purl.org/dc/elements/1.1/"
   xmlns:cc="http://creativecommons.org/ns#"
   xmlns:rdf="http://www.w3.org/1999/02/22-rdf-syntax-ns#"
   xmlns:svg="http://www.w3.org/2000/svg"
   xmlns="http://www.w3.org/2000/svg"
   xmlns:sodipodi="http://sodipodi.sourceforge.net/DTD/sodipodi-0.dtd"
   xmlns:inkscape="http://www.inkscape.org/namespaces/inkscape"
   width="207.27106"
   height="389.36874"
   id="svg4851"
   version="1.1"
   inkscape:version="0.48.3.1 r9886"
   sodipodi:docname="Nuevo documento 3">
  <defs
     id="defs4853" />
  <sodipodi:namedview
     id="base"
     pagecolor="#ffffff"
     bordercolor="#666666"
     borderopacity="1.0"
     inkscape:pageopacity="0.0"
     inkscape:pageshadow="2"
     inkscape:zoom="0.35"
     inkscape:cx="103.64605"
     inkscape:cy="194.68004"
     inkscape:document-units="px"
     inkscape:current-layer="layer1"
     showgrid="false"
     fit-margin-top="0"
     fit-margin-left="0"
     fit-margin-right="0"
     fit-margin-bottom="0"
     inkscape:window-width="469"
     inkscape:window-height="434"
     inkscape:window-x="752"
     inkscape:window-y="617"
     inkscape:window-maximized="0" />
  <metadata
     id="metadata4856">
    <rdf:RDF>
      <cc:Work
         rdf:about="">
        <dc:format>image/svg+xml</dc:format>
        <dc:type
           rdf:resource="http://purl.org/dc/dcmitype/StillImage" />
        <dc:title></dc:title>
      </cc:Work>
    </rdf:RDF>
  </metadata>
  <g
     inkscape:label="Capa 1"
     inkscape:groupmode="layer"
     id="layer1"
     transform="translate(-246.35395,-337.67348)">
    <path
       style="fill:#dbe6f3;fill-opacity:1;fill-rule:evenodd;stroke:#000000;stroke-width:0.98431087px;stroke-linecap:butt;stroke-linejoin:miter;stroke-opacity:1;display:inline"
       d="m 410.89294,503.90964 c 0,0 7.10216,7.88885 9.16181,42.5694 0,0 8.80744,38.72034 10.45516,49.5266 l 3.07503,101.30437 c -22.96791,13.87165 -51.24479,4.8979 -59.04081,1.5008 l 0,-12.95178 c 3.00366,-21.11689 9.84013,-18.56513 9.84013,-18.56513 0,0 -12.33719,-4.41614 -11.68516,51.0274 -65.19091,22.51207 -89.79125,-8.25444 -89.79125,-8.25444 l 0.61501,-96.05155 c -50.12367,-6.8758 -35.17002,-51.3938 -32.59546,-53.27861 l 47.92349,-66.5263 112.04205,9.69924 z"
       id="path31479"
       sodipodi:nodetypes="cccccccccccc"
       inkscape:connector-curvature="0" />
    <path
       sodipodi:nodetypes="cc"
       id="path7185"
       d="m 283.74944,613.69298 c 8.08977,-0.57784 38.03958,-16.48378 47.01178,-45.47088"
       style="fill:none;stroke:#000000;stroke-width:1px;stroke-linecap:butt;stroke-linejoin:miter;stroke-opacity:1;display:inline"
       inkscape:connector-curvature="0" />
    <path
       sodipodi:nodetypes="cccccsc"
       id="path10374"
       d="m 449.67445,401.25802 c -47.39724,-9.72093 -96.46287,-8.57758 -96.46287,-8.57758 -10.53273,0.62048 -14.10543,10.72198 -14.10543,10.72198 -4.60806,65.35778 -29.29185,93.49571 -29.29185,93.49571 0,0 -16.05646,-0.29275 -16.2095,-0.42887 -60.75556,-54.03482 -28.74073,-154.37799 60.06179,-158.68539 41.28406,-2.0025 80.15928,23.39581 96.00786,63.47415 z"
       style="fill:#2e3436;fill-rule:evenodd;stroke:none;display:inline"
       inkscape:connector-curvature="0" />
    <path
       sodipodi:nodetypes="csssssc"
       id="path2220"
       d="m 453.17842,428.85065 c 0,40.40424 -36.73468,86.18729 -66.36902,86.18729 -32.74401,0 -51.56032,-4.41475 -74.95903,-16.47842 -8.13006,-4.19163 -17.25136,-0.95578 -18.88775,-2.51081 -19.57618,-18.60281 -28.91466,-37.3021 -29.64062,-67.19806 -1.31658,-54.21832 42.52784,-90.35313 94.9282,-90.35313 52.40038,0 94.92822,40.47821 94.92822,90.35313 z"
       style="fill:#dbe6f3;fill-opacity:1;stroke:#000000;stroke-width:0.92169404;stroke-linecap:square;stroke-linejoin:miter;stroke-miterlimit:4;stroke-opacity:1;stroke-dashoffset:0;display:inline"
       inkscape:connector-curvature="0" />
  </g>
</svg>
