<?xml version="1.0" encoding="UTF-8" standalone="no"?>
<!-- Created with Inkscape (http://www.inkscape.org/) -->

<svg
   xmlns:dc="http://purl.org/dc/elements/1.1/"
   xmlns:cc="http://creativecommons.org/ns#"
   xmlns:rdf="http://www.w3.org/1999/02/22-rdf-syntax-ns#"
   xmlns:svg="http://www.w3.org/2000/svg"
   xmlns="http://www.w3.org/2000/svg"
   xmlns:sodipodi="http://sodipodi.sourceforge.net/DTD/sodipodi-0.dtd"
   xmlns:inkscape="http://www.inkscape.org/namespaces/inkscape"
   width="200"
   height="258.25"
   id="svg4012"
   version="1.1"
   inkscape:version="0.48.3.1 r9886"
   sodipodi:docname="Nuevo documento 2">
  <defs
     id="defs4014" />
  <sodipodi:namedview
     id="base"
     pagecolor="#ffffff"
     bordercolor="#666666"
     borderopacity="1.0"
     inkscape:pageopacity="0.0"
     inkscape:pageshadow="2"
     inkscape:zoom="0.35"
     inkscape:cx="100.02143"
     inkscape:cy="128.77621"
     inkscape:document-units="px"
     inkscape:current-layer="layer1"
     showgrid="false"
     fit-margin-top="0"
     fit-margin-left="0"
     fit-margin-right="0"
     fit-margin-bottom="0"
     inkscape:window-width="469"
     inkscape:window-height="434"
     inkscape:window-x="1325"
     inkscape:window-y="24"
     inkscape:window-maximized="0" />
  <metadata
     id="metadata4017">
    <rdf:RDF>
      <cc:Work
         rdf:about="">
        <dc:format>image/svg+xml</dc:format>
        <dc:type
           rdf:resource="http://purl.org/dc/dcmitype/StillImage" />
        <dc:title></dc:title>
      </cc:Work>
    </rdf:RDF>
  </metadata>
  <g
     inkscape:label="Capa 1"
     inkscape:groupmode="layer"
     id="layer1"
     transform="translate(-249.97857,-402.88839)">
    <g
       transform="matrix(4,0,0,4,-1416.1684,-6754.657)"
       id="g15198">
      <g
         transform="translate(-82.775757,65.980097)"
         id="g5910">
        <g
           id="g7252-6-9-4-4"
           transform="translate(131.02198,568.19338)">
          <path
             d="m 311.42858,356.41592 c 0,15.28646 -12.23222,27.67858 -27.32143,27.67858 -15.08921,0 -27.32143,-12.39212 -27.32143,-27.67858 0,-15.28645 12.23222,-27.67857 27.32143,-27.67857 15.08921,0 27.32143,12.39212 27.32143,27.67857 z"
             sodipodi:ry="27.678572"
             sodipodi:rx="27.321428"
             sodipodi:cy="356.41592"
             sodipodi:cx="284.10715"
             id="path5403-8-9-1-0-74-3-3-8-5"
             style="color:#000000;fill:#808080;fill-opacity:1;fill-rule:nonzero;stroke:#000000;stroke-width:3.50162673px;stroke-linecap:butt;stroke-linejoin:miter;stroke-miterlimit:4;stroke-opacity:1;stroke-dasharray:none;stroke-dashoffset:0;marker:none;visibility:visible;display:inline;overflow:visible;enable-background:accumulate"
             sodipodi:type="arc"
             transform="matrix(0.28558156,0,0,0.28558156,320.72007,1092.4365)" />
          <g
             id="g7249-2-1-1-2">
            <path
               inkscape:connector-curvature="0"
               style="opacity:0.3218884;color:#000000;fill:#000000;fill-opacity:1;fill-rule:nonzero;stroke:none;stroke-width:1px;marker:none;visibility:visible;display:inline;overflow:visible;enable-background:accumulate"
               d="m 394.43333,1196.0123 9.28418,-0.1603 c 2.54637,3.3061 0.35246,5.0395 -3.54014,5.7024 6.19396,1.9495 7.56368,-1.5833 9.41631,-5.1415 l -0.49794,-4.2634 c -4.16659,2.9233 -9.32622,1.5471 -14.2703,1.0756 -0.59629,1.8603 -0.26229,1.8599 -0.39211,2.7872 z"
               id="path6893-5-9-7-1-0-9-0-5"
               sodipodi:nodetypes="ccccccc" />
          </g>
        </g>
        <path
           inkscape:connector-curvature="0"
           style="color:#000000;fill:#808080;fill-opacity:1;fill-rule:nonzero;stroke:#000000;stroke-width:1px;stroke-linecap:butt;stroke-linejoin:miter;stroke-miterlimit:4;stroke-opacity:1;stroke-dasharray:none;stroke-dashoffset:0;marker:none;visibility:visible;display:inline;overflow:visible;enable-background:accumulate"
           d="m 516.20105,1725.7223 c 18.70703,7.4282 21.93628,22.7378 24.46428,33.2143 -4.04643,4.0743 -9.46678,4.8511 -15.89285,3.2143 -1.40415,-12.1429 -2.96913,-24.2857 -8.57143,-36.4286 z"
           id="path5614-8-2-9-8-1-4-3-4"
           sodipodi:nodetypes="cccc" />
        <path
           inkscape:connector-curvature="0"
           style="color:#000000;fill:#808080;fill-opacity:1;fill-rule:nonzero;stroke:#000000;stroke-width:1px;stroke-linecap:butt;stroke-linejoin:miter;stroke-miterlimit:4;stroke-opacity:1;stroke-dasharray:none;stroke-dashoffset:0;marker:none;visibility:visible;display:inline;overflow:visible;enable-background:accumulate"
           d="m 525.16656,1762.0418 c 6.53004,2.4441 8.80804,0.8722 15.93869,0.1635 0.14516,-3.6237 0.26797,-7.2474 -1.71647,-10.871 -5.63025,8.4103 -11.71754,7.7939 -15.2848,7.2746 l 1.06258,3.4329 z"
           id="path6755-0-1-6-0-7"
           sodipodi:nodetypes="ccccc" />
        <path
           inkscape:connector-curvature="0"
           style="opacity:0.12446355;color:#000000;fill:#000000;fill-opacity:1;fill-rule:nonzero;stroke:none;stroke-width:1px;marker:none;visibility:visible;display:inline;overflow:visible;enable-background:accumulate"
           d="m 518.28897,1727.0012 c 8.81685,11.0434 18.33426,22.6627 16.85235,35.3518 1.95185,0.322 3.52922,0.6245 4.91138,-0.6061 -2.10752,-11.3955 -8.52386,-26.5909 -21.76373,-34.7457 z"
           id="path6260-4-2-2-5-5-8-4-4"
           sodipodi:nodetypes="cccc" />
        <path
           inkscape:connector-curvature="0"
           style="color:#000000;fill:#b3b3b3;fill-opacity:1;fill-rule:nonzero;stroke:#000000;stroke-width:0.91235232px;stroke-linecap:butt;stroke-linejoin:miter;stroke-miterlimit:4;stroke-opacity:1;stroke-dasharray:none;stroke-dashoffset:0;marker:none;visibility:visible;display:inline;overflow:visible;enable-background:accumulate"
           d="m 548.80086,1757.3635 c 0,16.6441 -10.96774,30.1368 -24.49713,30.1368 -13.17473,0 -23.98999,-12.819 -24.48016,-29.0156 l -0.0557,-34.4356 c 18.43205,6.1961 33.94213,3.6264 49.09999,0 l -0.067,33.3144 3e-5,0 z"
           id="path8947-4"
           sodipodi:nodetypes="csccccc" />
        <path
           inkscape:connector-curvature="0"
           sodipodi:nodetypes="csccccc"
           id="path8947-3-3"
           d="m 546.51855,1757.2153 c 0,15.0925 -9.94534,27.3276 -22.2135,27.3276 -11.94659,0 -21.75364,-11.6241 -22.19812,-26.3108 l -0.0506,-31.2256 c 16.71383,5.6186 30.77803,3.2883 44.52289,0 l -0.0607,30.2088 2e-5,0 z"
           style="opacity:0.28037385;color:#000000;fill:#ffffff;fill-opacity:1;fill-rule:nonzero;stroke:none;stroke-width:0.82730246px;marker:none;visibility:visible;display:inline;overflow:visible;enable-background:accumulate" />
        <path
           inkscape:connector-curvature="0"
           style="color:#000000;fill:#d45500;fill-opacity:1;fill-rule:nonzero;stroke:#000000;stroke-width:0.91235232px;stroke-linecap:butt;stroke-linejoin:miter;stroke-miterlimit:4;stroke-opacity:1;stroke-dasharray:none;stroke-dashoffset:0;marker:none;visibility:visible;display:inline;overflow:visible;enable-background:accumulate"
           d="m 544.14553,1757.0617 c 0,13.4789 -8.88228,24.4059 -19.83912,24.4059 -10.66962,0 -19.42845,-10.3814 -19.82541,-23.4982 l -0.0453,-27.8876 c 14.9273,5.0179 27.48822,2.9367 39.76389,0 l -0.0542,26.9799 2e-5,0 z"
           id="path8947-6-0"
           sodipodi:nodetypes="csccccc" />
        <g
           id="g5506-0-0-7"
           transform="matrix(0.50343186,0,0,0.50343186,579.12838,1656.3778)">
          <path
             transform="matrix(0.25,0,0,0.25,-81.440163,191.43218)"
             d="m -96.808515,255.2429 c 0,6.50502 -5.273355,11.77837 -11.778365,11.77837 -6.50502,0 -11.77837,-5.27335 -11.77837,-11.77837 0,-6.50501 5.27335,-11.77836 11.77837,-11.77836 6.50501,0 11.778365,5.27335 11.778365,11.77836 z"
             sodipodi:ry="11.778369"
             sodipodi:rx="11.778369"
             sodipodi:cy="255.2429"
             sodipodi:cx="-108.58688"
             id="path5482-6-34-8"
             style="color:#000000;fill:#000000;fill-opacity:1;fill-rule:nonzero;stroke:none;stroke-width:0.82376939px;marker:none;visibility:visible;display:inline;overflow:visible;enable-background:accumulate"
             sodipodi:type="arc" />
          <path
             d="m -96.808515,255.2429 c 0,6.50502 -5.273355,11.77837 -11.778365,11.77837 -6.50502,0 -11.77837,-5.27335 -11.77837,-11.77837 0,-6.50501 5.27335,-11.77836 11.77837,-11.77836 6.50501,0 11.778365,5.27335 11.778365,11.77836 z"
             sodipodi:ry="11.778369"
             sodipodi:rx="11.778369"
             sodipodi:cy="255.2429"
             sodipodi:cx="-108.58688"
             id="path5482-4-2-03-6"
             style="color:#000000;fill:#b3b3b3;fill-opacity:1;fill-rule:nonzero;stroke:none;stroke-width:0.82376939px;marker:none;visibility:visible;display:inline;overflow:visible;enable-background:accumulate"
             sodipodi:type="arc"
             transform="matrix(0.20698026,0,0,0.20213707,-85.797794,203.14351)" />
        </g>
        <g
           id="g5506-0-0-5-88"
           transform="matrix(0.50343186,0,0,0.50343186,591.44589,1651.0072)">
          <path
             transform="matrix(0.25,0,0,0.25,-81.440163,191.43218)"
             d="m -96.808515,255.2429 c 0,6.50502 -5.273355,11.77837 -11.778365,11.77837 -6.50502,0 -11.77837,-5.27335 -11.77837,-11.77837 0,-6.50501 5.27335,-11.77836 11.77837,-11.77836 6.50501,0 11.778365,5.27335 11.778365,11.77836 z"
             sodipodi:ry="11.778369"
             sodipodi:rx="11.778369"
             sodipodi:cy="255.2429"
             sodipodi:cx="-108.58688"
             id="path5482-6-34-9-4"
             style="color:#000000;fill:#000000;fill-opacity:1;fill-rule:nonzero;stroke:none;stroke-width:0.82376939px;marker:none;visibility:visible;display:inline;overflow:visible;enable-background:accumulate"
             sodipodi:type="arc" />
          <path
             d="m -96.808515,255.2429 c 0,6.50502 -5.273355,11.77837 -11.778365,11.77837 -6.50502,0 -11.77837,-5.27335 -11.77837,-11.77837 0,-6.50501 5.27335,-11.77836 11.77837,-11.77836 6.50501,0 11.778365,5.27335 11.778365,11.77836 z"
             sodipodi:ry="11.778369"
             sodipodi:rx="11.778369"
             sodipodi:cy="255.2429"
             sodipodi:cx="-108.58688"
             id="path5482-4-2-03-9-3"
             style="color:#000000;fill:#b3b3b3;fill-opacity:1;fill-rule:nonzero;stroke:none;stroke-width:0.82376939px;marker:none;visibility:visible;display:inline;overflow:visible;enable-background:accumulate"
             sodipodi:type="arc"
             transform="matrix(0.20698026,0,0,0.20213707,-85.797794,203.14351)" />
        </g>
        <g
           id="g5506-0-0-4-1"
           transform="matrix(0.50343186,0,0,0.50343186,567.14511,1651.6304)">
          <path
             transform="matrix(0.25,0,0,0.25,-81.440163,191.43218)"
             d="m -96.808515,255.2429 c 0,6.50502 -5.273355,11.77837 -11.778365,11.77837 -6.50502,0 -11.77837,-5.27335 -11.77837,-11.77837 0,-6.50501 5.27335,-11.77836 11.77837,-11.77836 6.50501,0 11.778365,5.27335 11.778365,11.77836 z"
             sodipodi:ry="11.778369"
             sodipodi:rx="11.778369"
             sodipodi:cy="255.2429"
             sodipodi:cx="-108.58688"
             id="path5482-6-34-91-4"
             style="color:#000000;fill:#000000;fill-opacity:1;fill-rule:nonzero;stroke:none;stroke-width:0.82376939px;marker:none;visibility:visible;display:inline;overflow:visible;enable-background:accumulate"
             sodipodi:type="arc" />
          <path
             d="m -96.808515,255.2429 c 0,6.50502 -5.273355,11.77837 -11.778365,11.77837 -6.50502,0 -11.77837,-5.27335 -11.77837,-11.77837 0,-6.50501 5.27335,-11.77836 11.77837,-11.77836 6.50501,0 11.778365,5.27335 11.778365,11.77836 z"
             sodipodi:ry="11.778369"
             sodipodi:rx="11.778369"
             sodipodi:cy="255.2429"
             sodipodi:cx="-108.58688"
             id="path5482-4-2-03-0-9"
             style="color:#000000;fill:#b3b3b3;fill-opacity:1;fill-rule:nonzero;stroke:none;stroke-width:0.82376939px;marker:none;visibility:visible;display:inline;overflow:visible;enable-background:accumulate"
             sodipodi:type="arc"
             transform="matrix(0.20698026,0,0,0.20213707,-85.797794,203.14351)" />
        </g>
        <g
           id="g5506-0-0-5-2-2"
           transform="matrix(0.50343186,0,0,0.50343186,600.64714,1598.9056)">
          <path
             transform="matrix(0.25,0,0,0.25,-81.440163,191.43218)"
             d="m -96.808515,255.2429 c 0,6.50502 -5.273355,11.77837 -11.778365,11.77837 -6.50502,0 -11.77837,-5.27335 -11.77837,-11.77837 0,-6.50501 5.27335,-11.77836 11.77837,-11.77836 6.50501,0 11.778365,5.27335 11.778365,11.77836 z"
             sodipodi:ry="11.778369"
             sodipodi:rx="11.778369"
             sodipodi:cy="255.2429"
             sodipodi:cx="-108.58688"
             id="path5482-6-34-9-0-0"
             style="color:#000000;fill:#000000;fill-opacity:1;fill-rule:nonzero;stroke:none;stroke-width:0.82376939px;marker:none;visibility:visible;display:inline;overflow:visible;enable-background:accumulate"
             sodipodi:type="arc" />
          <path
             d="m -96.808515,255.2429 c 0,6.50502 -5.273355,11.77837 -11.778365,11.77837 -6.50502,0 -11.77837,-5.27335 -11.77837,-11.77837 0,-6.50501 5.27335,-11.77836 11.77837,-11.77836 6.50501,0 11.778365,5.27335 11.778365,11.77836 z"
             sodipodi:ry="11.778369"
             sodipodi:rx="11.778369"
             sodipodi:cy="255.2429"
             sodipodi:cx="-108.58688"
             id="path5482-4-2-03-9-5-6"
             style="color:#000000;fill:#b3b3b3;fill-opacity:1;fill-rule:nonzero;stroke:none;stroke-width:0.82376939px;marker:none;visibility:visible;display:inline;overflow:visible;enable-background:accumulate"
             sodipodi:type="arc"
             transform="matrix(0.20698026,0,0,0.20213707,-85.797794,203.14351)" />
        </g>
        <g
           id="g5506-0-0-5-29-8"
           transform="matrix(0.50343186,0,0,0.50343186,578.96985,1601.5491)">
          <path
             transform="matrix(0.25,0,0,0.25,-81.440163,191.43218)"
             d="m -96.808515,255.2429 c 0,6.50502 -5.273355,11.77837 -11.778365,11.77837 -6.50502,0 -11.77837,-5.27335 -11.77837,-11.77837 0,-6.50501 5.27335,-11.77836 11.77837,-11.77836 6.50501,0 11.778365,5.27335 11.778365,11.77836 z"
             sodipodi:ry="11.778369"
             sodipodi:rx="11.778369"
             sodipodi:cy="255.2429"
             sodipodi:cx="-108.58688"
             id="path5482-6-34-9-02-9"
             style="color:#000000;fill:#000000;fill-opacity:1;fill-rule:nonzero;stroke:none;stroke-width:0.82376939px;marker:none;visibility:visible;display:inline;overflow:visible;enable-background:accumulate"
             sodipodi:type="arc" />
          <path
             d="m -96.808515,255.2429 c 0,6.50502 -5.273355,11.77837 -11.778365,11.77837 -6.50502,0 -11.77837,-5.27335 -11.77837,-11.77837 0,-6.50501 5.27335,-11.77836 11.77837,-11.77836 6.50501,0 11.778365,5.27335 11.778365,11.77836 z"
             sodipodi:ry="11.778369"
             sodipodi:rx="11.778369"
             sodipodi:cy="255.2429"
             sodipodi:cx="-108.58688"
             id="path5482-4-2-03-9-8-2"
             style="color:#000000;fill:#b3b3b3;fill-opacity:1;fill-rule:nonzero;stroke:none;stroke-width:0.82376939px;marker:none;visibility:visible;display:inline;overflow:visible;enable-background:accumulate"
             sodipodi:type="arc"
             transform="matrix(0.20698026,0,0,0.20213707,-85.797794,203.14351)" />
        </g>
        <g
           id="g5506-0-0-5-8-6"
           transform="matrix(0.50343186,0,0,0.50343186,556.94005,1598.5531)">
          <path
             transform="matrix(0.25,0,0,0.25,-81.440163,191.43218)"
             d="m -96.808515,255.2429 c 0,6.50502 -5.273355,11.77837 -11.778365,11.77837 -6.50502,0 -11.77837,-5.27335 -11.77837,-11.77837 0,-6.50501 5.27335,-11.77836 11.77837,-11.77836 6.50501,0 11.778365,5.27335 11.778365,11.77836 z"
             sodipodi:ry="11.778369"
             sodipodi:rx="11.778369"
             sodipodi:cy="255.2429"
             sodipodi:cx="-108.58688"
             id="path5482-6-34-9-04-6"
             style="color:#000000;fill:#000000;fill-opacity:1;fill-rule:nonzero;stroke:none;stroke-width:0.82376939px;marker:none;visibility:visible;display:inline;overflow:visible;enable-background:accumulate"
             sodipodi:type="arc" />
          <path
             d="m -96.808515,255.2429 c 0,6.50502 -5.273355,11.77837 -11.778365,11.77837 -6.50502,0 -11.77837,-5.27335 -11.77837,-11.77837 0,-6.50501 5.27335,-11.77836 11.77837,-11.77836 6.50501,0 11.778365,5.27335 11.778365,11.77836 z"
             sodipodi:ry="11.778369"
             sodipodi:rx="11.778369"
             sodipodi:cy="255.2429"
             sodipodi:cx="-108.58688"
             id="path5482-4-2-03-9-0-4"
             style="color:#000000;fill:#b3b3b3;fill-opacity:1;fill-rule:nonzero;stroke:none;stroke-width:0.82376939px;marker:none;visibility:visible;display:inline;overflow:visible;enable-background:accumulate"
             sodipodi:type="arc"
             transform="matrix(0.20698026,0,0,0.20213707,-85.797794,203.14351)" />
        </g>
        <g
           transform="translate(-45.773829,-190.83037)"
           id="g6165-0-9"
           style="fill:#241f1c">
          <path
             inkscape:connector-curvature="0"
             sodipodi:nodetypes="ccc"
             id="path5365-6-6-5"
             d="m 577.31667,1948.4421 -1.04034,3.2366 1.04034,-3.2366 z"
             style="fill:#241f1c;stroke:none" />
          <path
             inkscape:connector-curvature="0"
             sodipodi:nodetypes="ccccccccccccc"
             id="path5390-2-0"
             d="m 599.22087,1654.2714 c -3.86964,1.4768 -7.13239,0.7195 -10.16595,-0.8814 l -7.60686,-13.5796 7.70453,1.9556 -10.13209,-6.2892 -0.31136,-0.5558 17.29494,-10.1876 15.52368,12.8981 -0.55327,0.7481 c -0.60485,0.7948 -9.91185,3.7142 -11.09283,4.3736 2.58154,-0.2417 5.53706,-0.3244 8.05612,-0.2676 l -8.71691,11.786 0,-2e-4 z"
             style="color:#000000;fill:#241f1c;fill-opacity:1;fill-rule:nonzero;stroke:none;stroke-width:0.91235232px;marker:none;visibility:visible;display:inline;overflow:visible;enable-background:accumulate"
             transform="matrix(0.40066729,-0.07235234,0.03836485,0.75561915,269.66364,754.62833)" />
          <path
             inkscape:connector-curvature="0"
             sodipodi:nodetypes="cccc"
             id="path5341-6-4"
             d="m 571.49831,1939.1989 6.37547,8.0103 c 11.21745,-18.5352 5.03363,-0.3585 1.71648,6.2937 11.26788,-16.97 12.80985,-31.5715 -8.09195,-14.304 z"
             style="fill:#241f1c;stroke:none" />
          <path
             inkscape:connector-curvature="0"
             sodipodi:nodetypes="cccc"
             id="path5341-3-1-8"
             d="m 570.24877,1939.0405 -6.37547,8.0103 c -11.21745,-18.5352 -5.03363,-0.3585 -1.71648,6.2937 -11.26788,-16.97 -12.80985,-31.5715 8.09195,-14.304 z"
             style="fill:#241f1c;stroke:none" />
        </g>
        <path
           inkscape:connector-curvature="0"
           sodipodi:nodetypes="ccccc"
           id="path8947-9-7"
           d="m 524.30505,1786.1776 c -11.94659,0 -21.75364,-11.6241 -22.19812,-26.3107 l -0.0506,-31.2257 c 8.0623,2.7103 15.50806,3.5709 22.59884,3.3667 -0.15827,8.449 -0.0371,59.9841 -0.35012,54.1697 z"
           style="opacity:0.25751074;color:#000000;fill:#000000;fill-opacity:1;fill-rule:nonzero;stroke:#000000;stroke-width:0.82730246px;stroke-linecap:butt;stroke-linejoin:miter;stroke-miterlimit:4;stroke-opacity:1;stroke-dasharray:none;stroke-dashoffset:0;marker:none;visibility:visible;display:inline;overflow:visible;enable-background:accumulate" />
        <path
           inkscape:connector-curvature="0"
           style="opacity:0.78969954;fill:#000000;stroke:none"
           d="m 533.23743,1786.131 -1.66442,-11.9976 2.42729,11.0267 -0.76287,0.9709 z"
           id="path11353-1" />
        <path
           inkscape:connector-curvature="0"
           style="opacity:0.78969954;fill:#000000;stroke:none"
           d="m 519.33162,1731.7685 1.66442,11.9976 -2.42729,-11.0267 0.76287,-0.9709 z"
           id="path11353-4-7" />
      </g>
      <path
         inkscape:connector-curvature="0"
         id="path5662"
         d="m 423.1915,1832.0011 29.09832,-30.0791 -5.23116,9.1545 14.05874,-14.3857 -0.6539,17.3282 -21.57853,21.5785 4.90421,-10.4623 -17.00126,16.0204 -3.92337,-10.7892 0.32695,1.6347 z"
         style="opacity:0.11587985;color:#000000;fill:#ffffff;fill-opacity:1;fill-rule:nonzero;stroke:none;stroke-width:1px;marker:none;visibility:visible;display:inline;overflow:visible;enable-background:accumulate" />
    </g>
  </g>
</svg>
