<?xml version="1.0" encoding="UTF-8" standalone="no"?>
<!-- Created with Inkscape (http://www.inkscape.org/) -->

<svg
   xmlns:dc="http://purl.org/dc/elements/1.1/"
   xmlns:cc="http://creativecommons.org/ns#"
   xmlns:rdf="http://www.w3.org/1999/02/22-rdf-syntax-ns#"
   xmlns:svg="http://www.w3.org/2000/svg"
   xmlns="http://www.w3.org/2000/svg"
   xmlns:sodipodi="http://sodipodi.sourceforge.net/DTD/sodipodi-0.dtd"
   xmlns:inkscape="http://www.inkscape.org/namespaces/inkscape"
   width="141.60774"
   height="227.8027"
   id="svg4196"
   version="1.1"
   inkscape:version="0.48.3.1 r9886"
   sodipodi:docname="garrote.svg">
  <defs
     id="defs4198" />
  <sodipodi:namedview
     id="base"
     pagecolor="#ffffff"
     bordercolor="#666666"
     borderopacity="1.0"
     inkscape:pageopacity="0.0"
     inkscape:pageshadow="2"
     inkscape:zoom="0.35"
     inkscape:cx="70.803871"
     inkscape:cy="113.90135"
     inkscape:document-units="px"
     inkscape:current-layer="layer1"
     showgrid="false"
     inkscape:window-width="469"
     inkscape:window-height="434"
     inkscape:window-x="1325"
     inkscape:window-y="24"
     inkscape:window-maximized="0"
     fit-margin-top="0"
     fit-margin-left="0"
     fit-margin-right="0"
     fit-margin-bottom="0" />
  <metadata
     id="metadata4201">
    <rdf:RDF>
      <cc:Work
         rdf:about="">
        <dc:format>image/svg+xml</dc:format>
        <dc:type
           rdf:resource="http://purl.org/dc/dcmitype/StillImage" />
        <dc:title />
      </cc:Work>
    </rdf:RDF>
  </metadata>
  <g
     inkscape:label="Capa 1"
     inkscape:groupmode="layer"
     id="layer1"
     transform="translate(-279.19613,-418.46083)">
    <path
       sodipodi:nodetypes="ccccccccccc"
       id="path10953-8"
       d="m 372.77669,423.26414 -38.7776,28.2792 -9.5436,73.8156 -16.1576,13.2412 4.298,21.6632 -31.9332,67.9648 c 0.4152,7.1528 -1.4388,15.7428 11.8076,14.7696 l 34.708,-53.3332 4.0992,-26.0312 c 23.9064,4.3124 94.3116,-58.8392 80.5684,-132.81 -11.8392,-8.28 -24.45,-12.8076 -39.0692,-7.5592 z"
       style="fill:#c87137;stroke:#000000;stroke-width:0.98437774px;stroke-linecap:butt;stroke-linejoin:miter;stroke-opacity:1"
       inkscape:connector-curvature="0" />
    <path
       sodipodi:nodetypes="ccccccccccccccccccccccc"
       id="path10943-7"
       d="m 281.86429,623.88054 27.9748,-65.1032 -2.0352,-21.3388 13.6908,-11.7924 10.602,-73.5224 35.2492,-31.8736 c 20.0552,-4.252 33.3656,2.9872 48.6796,6.8136 11.9348,32.2876 -1.7688,68.1032 -32.2256,106.2236 -15.7288,13.028 -28.574,34.0104 -49.5764,32.494 l -3.8936,20.8036 -37.3464,59.1864 c -10.1244,-5.2128 -16.616,-10.9252 -11.5164,-18.2328 -0.264,7.97 1.0908,18.994 11.2124,16.0228 l 34.374,-57.8764 4.092,-22.6328 c 19.1016,1.3436 35.5904,-16.3016 52.168,-33.3012 21.8,-29.8736 38.0364,-61.0532 27.894,-98.4212 -11.2208,-7.0384 -23.07,-12.9356 -41.4856,-6.9028 l -32.0072,29.5816 -11.7996,71.0292 -17.3488,11.3952 6.8204,23.3828 -33.5224,64.0648 z"
       style="color:#000000;fill:#000000;fill-opacity:1;fill-rule:nonzero;stroke:#000000;stroke-width:0.98437774px;stroke-linecap:butt;stroke-linejoin:miter;stroke-miterlimit:4;stroke-opacity:1;stroke-dasharray:none;stroke-dashoffset:0;marker:none;visibility:visible;display:inline;overflow:visible;enable-background:accumulate"
       inkscape:connector-curvature="0" />
    <path
       sodipodi:nodetypes="cccc"
       id="path10955-2"
       d="m 287.10029,642.51894 33.2868,-62.7648 -30.1696,63.5616 -3.1172,-0.7968 z"
       style="fill:#000000;stroke:none"
       inkscape:connector-curvature="0" />
    <path
       sodipodi:nodetypes="cccc"
       id="path10957-8"
       d="m 329.84269,570.99454 1.4604,-32.198 2.3172,30.162 -3.7776,2.036 z"
       style="color:#000000;fill:#000000;fill-opacity:1;fill-rule:nonzero;stroke:none;stroke-width:1px;marker:none;visibility:visible;display:inline;overflow:visible;enable-background:accumulate"
       inkscape:connector-curvature="0" />
    <path
       sodipodi:nodetypes="cccc"
       id="path10957-6-2"
       d="m 337.75429,448.09654 c -0.5592,22.0104 -4.548,44.8128 4.702,64.5564 -11.4564,-12.9184 -10.0748,-37.6212 -8.4796,-62.52 l 3.7776,-2.0364 z"
       style="color:#000000;fill:#000000;fill-opacity:1;fill-rule:nonzero;stroke:none;stroke-width:1px;marker:none;visibility:visible;display:inline;overflow:visible;enable-background:accumulate"
       inkscape:connector-curvature="0" />
    <path
       sodipodi:nodetypes="cccc"
       id="path11010-9"
       d="m 409.99149,429.58294 -21.496,32.3776 25.0796,-28.9068 -3.5836,-3.4708 z"
       style="color:#000000;fill:#000000;fill-opacity:1;fill-rule:nonzero;stroke:none;stroke-width:1px;marker:none;visibility:visible;display:inline;overflow:visible;enable-background:accumulate"
       inkscape:connector-curvature="0" />
    <path
       sodipodi:nodetypes="ccccccccccccc"
       id="path11020-9"
       d="m 409.64349,433.48574 -32.4752,40.8324 17.4108,-9.4588 c -10.2636,43.932 -36.9504,59.6892 -57.2916,86.3324 l -8.9128,-8.2392 -8.9828,37.2636 -25.5572,49.104 0.132,-16.766 -12.7788,24.552 11.0852,6.8076 36.3872,-58.258 6.4704,-19.6612 c 68.4576,-30.3824 97.4324,-108.422 74.514,-132.5088 z"
       style="opacity:0.30901292;color:#000000;fill:#000000;fill-opacity:1;fill-rule:nonzero;stroke:none;stroke-width:1px;marker:none;visibility:visible;display:inline;overflow:visible;enable-background:accumulate"
       inkscape:connector-curvature="0" />
    <path
       sodipodi:nodetypes="ccc"
       id="path11043-60"
       d="m 323.24069,525.30214 c 3.6152,0.7332 6.1808,-3.4216 8.9208,-6.9164 -2.6972,2.8804 -5.1172,6.3364 -8.9208,6.9164 z"
       style="color:#000000;fill:#000000;fill-opacity:1;fill-rule:nonzero;stroke:none;stroke-width:1px;marker:none;visibility:visible;display:inline;overflow:visible;enable-background:accumulate"
       inkscape:connector-curvature="0" />
    <path
       sodipodi:nodetypes="ccc"
       id="path11043-7-2"
       d="m 338.09069,514.96654 c 3.3316,-1.5828 2.8916,-6.446 2.9868,-10.8856 -0.4296,3.9224 -0.292,8.1392 -2.9868,10.8856 z"
       style="color:#000000;fill:#000000;fill-opacity:1;fill-rule:nonzero;stroke:none;stroke-width:1px;marker:none;visibility:visible;display:inline;overflow:visible;enable-background:accumulate"
       inkscape:connector-curvature="0" />
    <path
       sodipodi:nodetypes="ccc"
       id="path11043-6-7"
       d="m 385.64949,449.14534 c 0.104,5.6772 7.2056,8.1448 13.372,11.0956 -5.2288,-3.0912 -11.23,-5.5736 -13.372,-11.0956 z"
       style="color:#000000;fill:#000000;fill-opacity:1;fill-rule:nonzero;stroke:none;stroke-width:1px;marker:none;visibility:visible;display:inline;overflow:visible;enable-background:accumulate"
       inkscape:connector-curvature="0" />
    <path
       sodipodi:nodetypes="cccc"
       id="path11193"
       d="m 337.88389,549.24734 c 39.4272,-34.2268 53.6112,-60.8216 56.41,-83.9744 -10.648,38.3948 -36.4952,59.6908 -60.2564,83.3332 l 3.8464,0.6412 z"
       style="color:#000000;fill:#000000;fill-opacity:1;fill-rule:nonzero;stroke:none;stroke-width:0.24609444px;marker:none;visibility:visible;display:inline;overflow:visible;enable-background:accumulate"
       inkscape:connector-curvature="0" />
    <path
       sodipodi:nodetypes="ccccc"
       id="path11226"
       d="m 404.22189,428.30094 c -30.2388,-2.654 -48.4048,26.4616 -67.538,53.0328 l 1.36,-26.5164 c 12.0092,-10.8772 24.664,-26.4224 35.582,-30.8224 6.7128,-4.1024 32.574,2.5304 30.596,4.306 z"
       style="opacity:0.13733903;fill:#ffffff;stroke:none"
       inkscape:connector-curvature="0" />
  </g>
</svg>
