<?xml version="1.0" encoding="UTF-8" standalone="no"?>
<!-- Created with Inkscape (http://www.inkscape.org/) -->

<svg
   xmlns:dc="http://purl.org/dc/elements/1.1/"
   xmlns:cc="http://creativecommons.org/ns#"
   xmlns:rdf="http://www.w3.org/1999/02/22-rdf-syntax-ns#"
   xmlns:svg="http://www.w3.org/2000/svg"
   xmlns="http://www.w3.org/2000/svg"
   xmlns:xlink="http://www.w3.org/1999/xlink"
   xmlns:sodipodi="http://sodipodi.sourceforge.net/DTD/sodipodi-0.dtd"
   xmlns:inkscape="http://www.inkscape.org/namespaces/inkscape"
   width="666.89093"
   height="681.48041"
   id="svg7493"
   version="1.1"
   inkscape:version="0.47 r22583"
   sodipodi:docname="Documento nuevo 67">
  <defs
     id="defs7495">
    <inkscape:perspective
       sodipodi:type="inkscape:persp3d"
       inkscape:vp_x="0 : 526.18109 : 1"
       inkscape:vp_y="0 : 1000 : 0"
       inkscape:vp_z="744.09448 : 526.18109 : 1"
       inkscape:persp3d-origin="372.04724 : 350.78739 : 1"
       id="perspective7501" />
    <inkscape:perspective
       id="perspective7440"
       inkscape:persp3d-origin="0.5 : 0.33333333 : 1"
       inkscape:vp_z="1 : 0.5 : 1"
       inkscape:vp_y="0 : 1000 : 0"
       inkscape:vp_x="0 : 0.5 : 1"
       sodipodi:type="inkscape:persp3d" />
    <radialGradient
       inkscape:collect="always"
       xlink:href="#linearGradient4356"
       id="radialGradient4362"
       cx="236.3757"
       cy="503.07849"
       fx="236.3757"
       fy="503.07849"
       r="72.225906"
       gradientTransform="matrix(1,0,0,0.82016541,-437.82614,1917.1396)"
       gradientUnits="userSpaceOnUse" />
    <linearGradient
       inkscape:collect="always"
       id="linearGradient4356">
      <stop
         style="stop-color:#ffffff;stop-opacity:1;"
         offset="0"
         id="stop4358" />
      <stop
         style="stop-color:#ffffff;stop-opacity:0;"
         offset="1"
         id="stop4360" />
    </linearGradient>
    <radialGradient
       inkscape:collect="always"
       xlink:href="#linearGradient4283"
       id="radialGradient4289"
       cx="203.54575"
       cy="526.96033"
       fx="203.54575"
       fy="526.96033"
       r="46.972095"
       gradientTransform="matrix(1,0,0,1.2795698,0,-147.3222)"
       gradientUnits="userSpaceOnUse" />
    <linearGradient
       inkscape:collect="always"
       id="linearGradient4283">
      <stop
         style="stop-color:#ffffff;stop-opacity:1;"
         offset="0"
         id="stop4285" />
      <stop
         style="stop-color:#ffffff;stop-opacity:0;"
         offset="1"
         id="stop4287" />
    </linearGradient>
    <radialGradient
       inkscape:collect="always"
       xlink:href="#linearGradient4293"
       id="radialGradient4299"
       cx="361.78571"
       cy="614.466"
       fx="361.78571"
       fy="614.466"
       r="18.214285"
       gradientTransform="matrix(1,0,0,1.6862745,0,-421.69239)"
       gradientUnits="userSpaceOnUse" />
    <linearGradient
       inkscape:collect="always"
       id="linearGradient4293">
      <stop
         style="stop-color:#ffffff;stop-opacity:1;"
         offset="0"
         id="stop4295" />
      <stop
         style="stop-color:#ffffff;stop-opacity:0;"
         offset="1"
         id="stop4297" />
    </linearGradient>
    <radialGradient
       r="18.214285"
       fy="614.466"
       fx="361.78571"
       cy="614.466"
       cx="361.78571"
       gradientTransform="matrix(1,0,0,1.6862745,0,-421.69239)"
       gradientUnits="userSpaceOnUse"
       id="radialGradient7491"
       xlink:href="#linearGradient4293"
       inkscape:collect="always" />
  </defs>
  <sodipodi:namedview
     id="base"
     pagecolor="#ffffff"
     bordercolor="#666666"
     borderopacity="1.0"
     inkscape:pageopacity="0.0"
     inkscape:pageshadow="2"
     inkscape:zoom="0.35"
     inkscape:cx="432.01689"
     inkscape:cy="312.16878"
     inkscape:document-units="px"
     inkscape:current-layer="layer1"
     showgrid="false"
     inkscape:window-width="589"
     inkscape:window-height="485"
     inkscape:window-x="0"
     inkscape:window-y="0"
     inkscape:window-maximized="0" />
  <metadata
     id="metadata7498">
    <rdf:RDF>
      <cc:Work
         rdf:about="">
        <dc:format>image/svg+xml</dc:format>
        <dc:type
           rdf:resource="http://purl.org/dc/dcmitype/StillImage" />
        <dc:title></dc:title>
      </cc:Work>
    </rdf:RDF>
  </metadata>
  <g
     inkscape:label="Capa 1"
     inkscape:groupmode="layer"
     id="layer1"
     transform="translate(82.016892,-163.05058)">
    <g
       transform="matrix(2,0,0,2,618.12351,-4356.5763)"
       id="g5188">
      <path
         id="path2860-6-6-1"
         d="m -202.66209,2592.2633 c -30.087,3.358 -54.16834,-2.0523 -76.65762,-17.2219 -14.71176,-9.9238 -24.23391,-20.7464 -34.29791,-38.982 -9.39898,-17.0308 -15.26312,-33.9094 -19.42775,-55.9186 -7.24866,-38.3077 -6.78143,-69.5861 1.57022,-105.1087 6.80757,-28.9551 16.28979,-51.9661 32.70421,-79.3643 4.98879,-8.3272 13.1522,-17.3287 21.85241,-24.0967 l 6.7011,-5.2126 9.54746,-1.8065 9.54743,-1.8067 9.86273,2.7796 c 12.49149,3.5203 21.44701,7.9473 33.4138,16.5182 23.34966,16.7236 43.60511,36.9137 61.70101,61.5022 12.34189,16.77 21.515,33.3447 28.64592,51.7592 13.29827,34.3411 19.257118,68.7175 16.6765,96.2061 -2.30312,24.5332 -6.82324,37.7361 -18.46436,53.9335 -14.91966,20.7591 -34.07731,33.8868 -62.72952,42.9848 -7.08272,2.249 -8.0458,2.428 -20.64597,3.8325 l 0,0 z"
         style="color:#000000;fill:#784421;fill-opacity:1;fill-rule:evenodd;stroke:#000000;stroke-width:5.86372471px;stroke-linecap:butt;stroke-linejoin:miter;stroke-miterlimit:4;stroke-opacity:1;stroke-dasharray:none;stroke-dashoffset:0;marker:none;visibility:visible;display:inline;overflow:visible;enable-background:accumulate"
         sodipodi:nodetypes="cssssscccccsssssscc" />
      <path
         sodipodi:nodetypes="ccc"
         id="path4354"
         d="m -273.67635,2278.8778 c -65.91587,216.0311 265.96949,411.3391 144.45182,110.1066 -13.78811,-60.9795 -107.6121,-145.4913 -144.45182,-110.1066 z"
         style="opacity:0.19327734;fill:url(#radialGradient4362);fill-opacity:1;stroke:none" />
      <path
         sodipodi:nodetypes="ccccc"
         id="path37985"
         d="m -312.70543,2315.2227 c 75.62386,81.8722 112.0922,176.0342 141.04256,272.5558 l 42.91479,-23.6387 c -30.61982,-101.7416 -57.02777,-204.704 -161.60968,-285.0077 l -22.34767,36.0906 z"
         style="color:#000000;fill:#d4aa00;fill-opacity:1;fill-rule:evenodd;stroke:#000000;stroke-width:5.86372471px;stroke-linecap:butt;stroke-linejoin:miter;stroke-miterlimit:4;stroke-opacity:1;stroke-dasharray:none;stroke-dashoffset:0;marker:none;visibility:visible;display:inline;overflow:visible;enable-background:accumulate" />
      <path
         sodipodi:nodetypes="ccccc"
         id="path38008"
         d="m -328.36573,2522.7594 c 70.57977,-45.4713 143.90405,-82.853 206.03363,-153.2316 l 19.95211,53.3222 c -61.7698,76.4553 -132.92052,99.6767 -201.16641,139.3822 l -24.81933,-39.4728 z"
         style="color:#000000;fill:#d4aa00;fill-opacity:1;fill-rule:nonzero;stroke:#000000;stroke-width:7.06386185;stroke-linecap:butt;stroke-linejoin:miter;stroke-miterlimit:4;stroke-opacity:1;stroke-dasharray:none;stroke-dashoffset:0;marker:none;visibility:visible;display:inline;overflow:visible;enable-background:accumulate" />
      <path
         id="path2860-6-6-1-6"
         transform="translate(-437.82614,1831.7195)"
         d="m 170.28125,434.125 -2.6875,0.5 -6.6875,5.21875 c -8.70021,6.768 -16.85496,15.76665 -21.84375,24.09375 -16.41442,27.3983 -25.91118,50.4199 -32.71875,79.375 -8.35165,35.5226 -8.81116,66.78615 -1.5625,105.09375 4.16463,22.0093 10.03852,38.9067 19.4375,55.9375 10.064,18.2355 19.56949,29.04495 34.28125,38.96875 22.48928,15.1697 46.56925,20.57675 76.65625,17.21875 12.60017,-1.4045 13.57353,-1.5636 20.65625,-3.8125 28.65221,-9.098 47.79909,-22.241 62.71875,-43 2.92563,-4.07073 5.39607,-7.95518 7.5,-11.875 -9.45695,5.96671 -20.33615,10.82405 -33.09375,14.875 -7.08272,2.2489 -8.02483,2.408 -20.625,3.8125 -30.087,3.358 -54.16697,-2.04905 -76.65625,-17.21875 -14.71176,-9.9238 -24.2485,-20.73325 -34.3125,-38.96875 -9.39898,-17.0308 -15.24162,-33.9282 -19.40625,-55.9375 -7.24866,-38.3076 -6.78915,-69.57115 1.5625,-105.09375 5.94813,-25.29959 13.90919,-46.07223 26.78125,-69.1875 z"
         style="opacity:0.28151263;color:#000000;fill:#000000;fill-opacity:1;fill-rule:evenodd;stroke:none;stroke-width:5.86372471px;marker:none;visibility:visible;display:inline;overflow:visible;enable-background:accumulate" />
      <path
         id="path38018"
         d="m -296.48557,2289.9725 62.21686,72.8622 -64.21611,-67.9166 1.99925,-4.9456 z"
         style="fill:#000000;stroke:none" />
      <path
         id="path38018-9"
         d="m -112.80193,2384.2041 -72.86221,62.2168 67.91667,-64.2161 4.94554,1.9993 z"
         style="fill:#000000;stroke:none" />
      <path
         id="path38018-9-6"
         d="m -320.40864,2541.9346 72.86221,-62.2168 -67.91667,64.2161 -4.94554,-1.9993 z"
         style="fill:#000000;stroke:none" />
      <path
         id="path16686-1-7-9"
         d="m -207.88825,2475.3079 -138.65002,72.1388 71.11485,45.4273 77.83892,-104.3002"
         style="color:#000000;fill:#d4aa00;fill-opacity:1;fill-rule:nonzero;stroke:#000000;stroke-width:7.06386185;stroke-linecap:butt;stroke-linejoin:miter;stroke-miterlimit:4;stroke-opacity:1;stroke-dasharray:none;stroke-dashoffset:0;marker:none;visibility:visible;display:inline;overflow:visible;enable-background:accumulate" />
      <path
         sodipodi:nodetypes="cccc"
         id="path16547-6-7-6"
         d="m -183.10063,2462.2832 c 26.20061,-56.8417 69.09252,-74.2906 103.193582,-62.8215 15.829825,22.1065 27.956063,46.5537 31.387968,76.4958 -40.810057,15.4035 -86.08196,18.7715 -136.57518,8.0555"
         style="color:#000000;fill:#d4aa00;fill-opacity:1;fill-rule:nonzero;stroke:#000000;stroke-width:7.06386185;stroke-linecap:butt;stroke-linejoin:miter;stroke-miterlimit:4;stroke-opacity:1;stroke-dasharray:none;stroke-dashoffset:0;marker:none;visibility:visible;display:inline;overflow:visible;enable-background:accumulate" />
      <path
         id="path16686-0-8-9-2"
         d="m -156.44731,2477.3714 136.290645,76.503 -72.520821,43.1473 -74.489444,-106.718"
         style="color:#000000;fill:#d4aa00;fill-opacity:1;fill-rule:nonzero;stroke:#000000;stroke-width:7.06386185;stroke-linecap:butt;stroke-linejoin:miter;stroke-miterlimit:4;stroke-opacity:1;stroke-dasharray:none;stroke-dashoffset:0;marker:none;visibility:visible;display:inline;overflow:visible;enable-background:accumulate" />
      <path
         id="path16763-2-7-5-7-1"
         d="m -176.38977,2465.9401 40.17447,47.7098 -40.93156,-43.1441 0.75709,-4.5657 z"
         style="fill:#000000;stroke:none" />
      <path
         sodipodi:nodetypes="ccccc"
         id="path16549-6-2-2-6-7"
         d="m -173.14652,2456.7392 c 64.43525,-93.9744 161.605693,-51.9669 -2.37603,10.547 l -0.7769,-0.3324 c 157.579562,-72.555 67.84961,-88.5534 3.15294,-10.2146 l -1e-5,0 z"
         style="color:#000000;fill:#000000;fill-opacity:1;fill-rule:nonzero;stroke:none;stroke-width:7.07420301;marker:none;visibility:visible;display:inline;overflow:visible;enable-background:accumulate" />
      <path
         transform="translate(-437.82614,1831.7195)"
         id="path4344"
         d="m 126.77414,487.56439 -4.54568,5.05076 106.57109,119.70307 -102.02541,-124.75383 z"
         style="opacity:0.28151263;color:#000000;fill:#000000;fill-opacity:1;fill-rule:evenodd;stroke:none;stroke-width:5.86372471px;marker:none;visibility:visible;display:inline;overflow:visible;enable-background:accumulate" />
      <path
         sodipodi:nodetypes="cccc"
         id="path16547-7-1-2-8"
         d="m -191.9316,2462.4107 c -12.99152,-61.2264 -50.96677,-87.7225 -86.75937,-84.073 -20.32371,18.0618 -37.55273,39.2248 -47.51667,67.6681 36.39709,24.0413 79.80536,37.3306 131.41834,38.0381"
         style="color:#000000;fill:#d4aa00;fill-opacity:1;fill-rule:nonzero;stroke:#000000;stroke-width:7.06386185;stroke-linecap:butt;stroke-linejoin:miter;stroke-miterlimit:4;stroke-opacity:1;stroke-dasharray:none;stroke-dashoffset:0;marker:none;visibility:visible;display:inline;overflow:visible;enable-background:accumulate" />
      <path
         sodipodi:nodetypes="cccc"
         id="path16549-6-9-7-5"
         d="m -199.76911,2452.0899 c -43.06393,-105.1274 -147.36854,-74.6524 -1.53557,15.474 l -0.45955,-0.102 c -135.21918,-100.0271 -47.43752,-103.7507 1.99513,-15.372 z"
         style="color:#000000;fill:#000000;fill-opacity:1;fill-rule:nonzero;stroke:none;stroke-width:7.07420301;marker:none;visibility:visible;display:inline;overflow:visible;enable-background:accumulate" />
      <path
         id="path16763-2-9-1-7"
         d="m -165.37301,2474.3277 50.04203,37.2292 -49.73222,-32.6115 -0.30981,-4.6177 z"
         style="fill:#000000;stroke:none" />
      <path
         id="path16763-2-7-3-6-5-4"
         d="m -200.10982,2473.9853 -55.41019,-28.6345 54.3567,24.1279 1.05349,4.5066 z"
         style="fill:#000000;stroke:none" />
      <path
         id="path16763-2-7-3-2-0-8-1"
         d="m -179.75672,2471.8119 -62.37136,-0.176 59.35659,3.6874 3.01477,-3.5114 z"
         style="fill:#000000;stroke:none" />
      <path
         id="path16763-2-7-3-0-6-8-8"
         d="m -176.20954,2470.9119 62.37132,0.1759 -59.35655,-3.6874 -3.01477,3.5115 z"
         style="fill:#000000;stroke:none" />
      <path
         style="opacity:0.28151263;color:#000000;fill:#000000;fill-opacity:1;fill-rule:evenodd;stroke:none;stroke-width:5.86372471px;marker:none;visibility:visible;display:inline;overflow:visible;enable-background:accumulate"
         d="m -173.14651,2456.7392 c 64.43524,-93.9744 161.60569,-51.9669 -2.37604,10.547 l -0.7769,-0.3324 c 14.67982,14.3056 29.67494,-65.3492 3.15294,-10.2146 l 0,0 z"
         id="path16549-6-2-2-6-7-0"
         sodipodi:nodetypes="ccccc" />
      <path
         style="opacity:0.28151263;color:#000000;fill:#000000;fill-opacity:1;fill-rule:evenodd;stroke:none;stroke-width:5.86372471px;marker:none;visibility:visible;display:inline;overflow:visible;enable-background:accumulate"
         d="m -199.76911,2452.09 c -43.06393,-105.1275 -147.36854,-74.6524 -1.53557,15.4739 l -0.45955,-0.102 c -27.94413,-2.5042 9.51179,-51.9786 1.99513,-15.372 l -1e-5,1e-4 z"
         id="path16549-6-9-7-5-6"
         sodipodi:nodetypes="ccccc" />
      <path
         sodipodi:nodetypes="ccccc"
         id="path16652-4-4-5"
         d="m -205.20824,2439.522 38.03128,-10.3195 c 7.43866,17.5036 12.78382,38.609 4.66325,62.11 l -39.09368,7.0228 c -7.38697,-17.1642 -9.75435,-44.3438 -3.60085,-58.8133 z"
         style="color:#000000;fill:#d4aa00;fill-opacity:1;fill-rule:nonzero;stroke:#000000;stroke-width:7.06386185;stroke-linecap:butt;stroke-linejoin:miter;stroke-miterlimit:4;stroke-opacity:1;stroke-dasharray:none;stroke-dashoffset:0;marker:none;visibility:visible;display:inline;overflow:visible;enable-background:accumulate" />
      <path
         id="path16739-9-5-9"
         d="m -200.00389,2497.7697 5.38194,-23.9122 -1.77606,18.7207 -3.60588,5.1915 z"
         style="color:#000000;fill:#000000;fill-opacity:1;fill-rule:nonzero;stroke:none;stroke-width:1px;marker:none;visibility:visible;display:inline;overflow:visible;enable-background:accumulate" />
      <path
         sodipodi:nodetypes="cccc"
         id="path16739-4-9-6-7"
         d="m -166.91356,2429.4775 -7.28551,32.3694 4.33707,-27.8422 2.94844,-4.5272 z"
         style="fill:#000000;stroke:none" />
      <path
         id="path16763-0-5-5"
         d="m -207.9295,2488.8465 -49.11544,38.4433 48.91878,-33.8194 0.19666,-4.6239 z"
         style="fill:#000000;stroke:none" />
      <path
         sodipodi:nodetypes="cccc"
         id="path19066-3"
         d="m -280.80264,2383.9206 c -3.60904,7.982 -6.27765,19.5737 9.03473,34.4393 -7.8154,-5.7384 -19.88437,-18.8616 -10.65291,-33.3 l 1.61818,-1.1393 z"
         style="color:#000000;fill:#000000;fill-opacity:1;fill-rule:nonzero;stroke:none;stroke-width:7.07420301;marker:none;visibility:visible;display:inline;overflow:visible;enable-background:accumulate" />
      <path
         id="path38018-9-3"
         d="m -164.04331,2588.3201 -16.36511,-81.5156 19.9703,78.6121 -3.60519,2.9035 z"
         style="fill:#000000;stroke:none" />
      <path
         transform="translate(-437.82614,1831.7195)"
         id="path4241"
         d="M 224.28571,628.21603 202.5,611.07317 l 8.92857,16.78572 -53.57143,-23.21429 51.78572,33.57143 -45.35715,-1.42857 68.21429,16.07143 -8.21429,-24.64286 z"
         style="opacity:0.28151263;color:#000000;fill:#000000;fill-opacity:1;fill-rule:evenodd;stroke:none;stroke-width:5.86372471px;marker:none;visibility:visible;display:inline;overflow:visible;enable-background:accumulate" />
      <path
         transform="translate(-437.82614,1831.7195)"
         id="path4251"
         d="m 281.78571,627.1446 46.78572,-25 -39.64286,35 48.92857,3.92857 -40.35714,2.85715 18.92857,13.21428 -15.35714,-0.35714 41.07143,23.92857 -33.92857,-11.78571 47.5,35.71428 -64.28572,-35 40,46.07143 -34.28571,-32.85714 9.64285,22.14285 -31.07142,-36.42857 -32.5,15.35715 -7.14286,-2.85715 1.31442,-17.23717 -53.03301,63.63962 17.67767,-36.3655 -29.29442,13.63706 44.44671,-36.87056 -25.75889,-4.54569 -22.22336,-7.57615 8.5863,-10.6066 54.04316,5.55584 0,-8.58629 9.59645,8.58629 5.05076,-21.2132 2.02031,22.72843 1.51523,-8.5863 27.27411,-7.07106 4.49884,-9.41729 z"
         style="opacity:0.28151263;color:#000000;fill:#000000;fill-opacity:1;fill-rule:evenodd;stroke:none;stroke-width:5.86372471px;marker:none;visibility:visible;display:inline;overflow:visible;enable-background:accumulate" />
      <path
         transform="translate(-437.82614,1831.7195)"
         id="path4261"
         d="m 241.42646,682.52383 -18.68782,13.13198 -38.89088,59.09392 -12.12183,-5.55584 51.01271,-67.68022 11.11167,-12.6269 39.39595,-7.07107 2.52539,7.07107 -34.34519,13.63706 z"
         style="opacity:0.28151263;color:#000000;fill:#000000;fill-opacity:1;fill-rule:evenodd;stroke:none;stroke-width:5.86372471px;marker:none;visibility:visible;display:inline;overflow:visible;enable-background:accumulate" />
      <path
         transform="translate(-437.82614,1831.7195)"
         id="path4271"
         d="m 274.25642,749.69897 -17.1726,-79.80205 0.50508,38.89087 -14.64721,-36.36549 -7.57615,5.55584 20.70813,79.29698 8.5863,-4.54569 0.50507,5.05076 9.09138,-8.08122 z"
         style="opacity:0.28151263;color:#000000;fill:#000000;fill-opacity:1;fill-rule:evenodd;stroke:none;stroke-width:5.86372471px;marker:none;visibility:visible;display:inline;overflow:visible;enable-background:accumulate" />
      <path
         sodipodi:nodetypes="cccc"
         transform="translate(-437.82614,1831.7195)"
         id="path4281"
         d="m 160.10918,466.85626 c 39.71226,31.96658 68.17189,73.45461 90.40865,120.20815 -28.39256,-41.97176 -58.84101,-81.06527 -93.94419,-113.64216 l 3.53554,-6.56599 z"
         style="opacity:0.29411765;fill:url(#radialGradient4289);fill-opacity:1;stroke:none" />
      <path
         sodipodi:nodetypes="ccccc"
         transform="translate(-437.82614,1831.7195)"
         id="path4291"
         d="m 357.67857,583.75174 -14.10714,15.71429 c 7.3522,14.92144 -3.51859,35.33069 -1.25,50.71428 l 41.25,-9.99999 c -1.17795,-20.58438 -11.39152,-40.12671 -25.89286,-56.42858 z"
         style="opacity:0.3739496;fill:url(#radialGradient7491);fill-opacity:1;stroke:none" />
    </g>
  </g>
</svg>
