<?xml version="1.0" encoding="UTF-8" standalone="no"?>
<!-- Created with Inkscape (http://www.inkscape.org/) -->

<svg
   xmlns:dc="http://purl.org/dc/elements/1.1/"
   xmlns:cc="http://creativecommons.org/ns#"
   xmlns:rdf="http://www.w3.org/1999/02/22-rdf-syntax-ns#"
   xmlns:svg="http://www.w3.org/2000/svg"
   xmlns="http://www.w3.org/2000/svg"
   xmlns:xlink="http://www.w3.org/1999/xlink"
   xmlns:sodipodi="http://sodipodi.sourceforge.net/DTD/sodipodi-0.dtd"
   xmlns:inkscape="http://www.inkscape.org/namespaces/inkscape"
   width="525.36267"
   height="684.83093"
   id="svg7318"
   version="1.1"
   inkscape:version="0.47 r22583"
   sodipodi:docname="huevo_pascua_2.svg">
  <defs
     id="defs7320">
    <inkscape:perspective
       sodipodi:type="inkscape:persp3d"
       inkscape:vp_x="0 : 526.18109 : 1"
       inkscape:vp_y="0 : 1000 : 0"
       inkscape:vp_z="744.09448 : 526.18109 : 1"
       inkscape:persp3d-origin="372.04724 : 350.78739 : 1"
       id="perspective7326" />
    <inkscape:perspective
       id="perspective7288"
       inkscape:persp3d-origin="0.5 : 0.33333333 : 1"
       inkscape:vp_z="1 : 0.5 : 1"
       inkscape:vp_y="0 : 1000 : 0"
       inkscape:vp_x="0 : 0.5 : 1"
       sodipodi:type="inkscape:persp3d" />
    <radialGradient
       r="52.527931"
       fy="190.21362"
       fx="259.60919"
       cy="190.21362"
       cx="259.60919"
       gradientTransform="matrix(1,0,0,1.6180341,0,-117.5585)"
       gradientUnits="userSpaceOnUse"
       id="radialGradient4854"
       xlink:href="#linearGradient4629-4"
       inkscape:collect="always" />
    <linearGradient
       inkscape:collect="always"
       id="linearGradient4629-4">
      <stop
         style="stop-color:#ffffff;stop-opacity:1;"
         offset="0"
         id="stop4631-8" />
      <stop
         style="stop-color:#ffffff;stop-opacity:0;"
         offset="1"
         id="stop4633-7" />
    </linearGradient>
  </defs>
  <sodipodi:namedview
     id="base"
     pagecolor="#ffffff"
     bordercolor="#666666"
     borderopacity="1.0"
     inkscape:pageopacity="0.0"
     inkscape:pageshadow="2"
     inkscape:zoom="0.35"
     inkscape:cx="204.10991"
     inkscape:cy="205.27259"
     inkscape:document-units="px"
     inkscape:current-layer="layer1"
     showgrid="false"
     inkscape:window-width="589"
     inkscape:window-height="485"
     inkscape:window-x="0"
     inkscape:window-y="0"
     inkscape:window-maximized="0" />
  <metadata
     id="metadata7323">
    <rdf:RDF>
      <cc:Work
         rdf:about="">
        <dc:format>image/svg+xml</dc:format>
        <dc:type
           rdf:resource="http://purl.org/dc/dcmitype/StillImage" />
        <dc:title />
      </cc:Work>
    </rdf:RDF>
  </metadata>
  <g
     inkscape:label="Capa 1"
     inkscape:groupmode="layer"
     id="layer1"
     transform="translate(-145.89009,-281.37528)">
    <g
       transform="matrix(2,0,0,2,334.89431,-3895.0058)"
       id="g5165">
      <path
         sodipodi:nodetypes="cssssscccccsssssscc"
         style="color:#000000;fill:#784421;fill-opacity:1;fill-rule:evenodd;stroke:#000000;stroke-width:5.86372471px;stroke-linecap:butt;stroke-linejoin:miter;stroke-miterlimit:4;stroke-opacity:1;stroke-dasharray:none;stroke-dashoffset:0;marker:none;visibility:visible;display:inline;overflow:visible;enable-background:accumulate"
         d="m 14.098663,2419.2112 c -29.23847,-7.8496 -49.686383,-21.6723 -65.091607,-44.0009 -10.077498,-14.6068 -14.995157,-28.1573 -17.712966,-48.8077 -2.538124,-19.2859 -1.840564,-37.1405 2.311111,-59.1522 7.226066,-38.3119 19.07193,-67.2642 39.807109,-97.2918 16.9016309,-24.4761 34.1250541,-42.4418 59.403462,-61.9636 7.682818,-5.9332 18.56752,-11.3363 29.137171,-14.4639 l 8.140872,-2.4087 9.548509,1.801 9.548508,1.801 8.168974,6.186 c 10.346344,7.8347 17.069594,15.2238 25.084864,27.5696 15.63941,24.0893 27.13323,50.2774 35.01175,79.7728 5.37336,20.1168 7.86758,38.8957 7.78916,58.6425 -0.14634,36.8257 -7.13915,71.0068 -19.57015,95.6595 -11.09445,22.0021 -20.11963,32.646 -36.8675,43.4803 -21.464601,13.8855 -44.091101,19.1194 -74.087684,17.1377 -7.415038,-0.4899 -8.377055,-0.6745 -20.621231,-3.9635 l 0,0 z"
         id="path2860-6-6" />
      <path
         id="path36790-7"
         d="m 40.46996,2326.9632 c -22.337714,-4.2131 -43.9847346,3.2098 -57.861259,17.8104 -8.953001,-14.3497 -24.190953,-25.2558 -42.832121,-28.7717 -3.22261,-0.6079 -6.438435,-0.9497 -9.613603,-1.0833 0.246971,3.7974 0.621456,7.6239 1.130431,11.4912 0.595884,4.5277 1.31334,8.6844 2.151935,12.6154 3.048668,7.3379 6.991323,14.0537 12.171029,21.0252 16.743666,22.5348 38.783855,36.6296 70.106077,44.8667 13.116843,3.4512 14.111241,3.6432 22.034784,4.2318 32.054099,2.3786 56.162837,-2.5554 78.897407,-16.1588 8.95701,-5.3594 15.81742,-10.7112 21.90314,-17.4933 2.34092,-3.8591 4.68443,-8.098 7.12124,-12.9306 1.00019,-1.9836 1.94363,-4.0512 2.87267,-6.1546 -3.55349,-1.3358 -7.26708,-2.4027 -11.14018,-3.1332 -18.38073,-3.4668 -36.28609,0.9647 -49.787426,10.7739 -7.726885,-18.3804 -25.047118,-32.9192 -47.154168,-37.0888 z"
         style="color:#000000;fill:#deaa87;fill-opacity:1;fill-rule:evenodd;stroke:#000000;stroke-width:6.05887461px;stroke-linecap:butt;stroke-linejoin:miter;stroke-miterlimit:4;stroke-opacity:1;stroke-dasharray:none;stroke-dashoffset:0;marker:none;visibility:visible;display:inline;overflow:visible;enable-background:accumulate" />
      <path
         sodipodi:nodetypes="ccscscsccscscsccc"
         id="path36790-7-7"
         d="m 40.469957,2334.9632 c -22.33771,-4.2131 -43.9847297,3.2098 -57.86126,17.8104 -8.953,-14.3497 -24.19095,-25.2558 -42.83212,-28.7717 -3.22261,-0.6079 -6.43843,-0.9497 -9.6136,-1.0833 0.24697,3.7974 0.62145,7.6239 1.13043,11.4912 0.59588,4.5277 1.31334,8.6844 2.15193,12.6154 3.04867,7.3379 6.99133,14.0537 12.17103,21.0252 16.74367,22.5348 38.78386,36.6296 70.10608,44.8667 13.11684,3.4512 14.11124,3.6432 22.03478,4.2318 32.0541,2.3786 56.16284,-2.5554 78.897413,-16.1588 8.95701,-5.3594 15.81742,-10.7112 21.90314,-17.4933 2.34092,-3.8591 4.68443,-8.098 7.12124,-12.9306 1.00019,-1.9836 1.94363,-4.0512 2.87267,-6.1546 -3.55349,-1.3358 -7.26708,-2.4027 -11.14018,-3.1332 -18.38073,-3.4668 -36.28609,0.9647 -49.787433,10.7739 -7.72688,-18.3804 -25.04711,-32.9192 -47.15416,-37.0888 l 4e-5,-3e-4 z"
         style="opacity:0.28991597;color:#000000;fill:#000000;fill-opacity:1;fill-rule:evenodd;stroke:none;stroke-width:5.86372471px;marker:none;visibility:visible;display:inline;overflow:visible;enable-background:accumulate" />
      <path
         id="path36790"
         d="m 38.260581,2340.9461 c -20.872229,-3.9367 -41.2437238,3.7612 -54.423079,18.5344 -8.20886,-14.2395 -22.341779,-24.9574 -39.759973,-28.2427 -4.107968,-0.7748 -8.204564,-1.0885 -12.222929,-0.9963 2.817944,18.5275 7.706671,31.2922 17.14492,44.9725 15.405238,22.3285 35.870458,36.1501 65.108913,43.9997 12.244191,3.2889 13.185539,3.4711 20.600533,3.9612 29.996584,1.9818 52.633303,-3.2539 74.097904,-17.1394 14.7063,-9.5136 23.47705,-18.8712 32.90386,-35.9104 -4.06956,-1.8125 -8.41139,-3.1976 -12.97946,-4.0592 -17.17485,-3.2394 -33.989366,1.4189 -46.757944,11.3958 -7.010386,-18.2857 -23.056099,-32.6193 -43.712789,-36.5154 z"
         style="color:#000000;fill:#a05a2c;fill-opacity:1;fill-rule:evenodd;stroke:#000000;stroke-width:5.86372471px;stroke-linecap:butt;stroke-linejoin:miter;stroke-miterlimit:4;stroke-opacity:1;stroke-dasharray:none;stroke-dashoffset:0;marker:none;visibility:visible;display:inline;overflow:visible;enable-background:accumulate" />
      <path
         id="path36990"
         d="m -48.877444,2345.4055 c -5.408164,-1.0201 -10.7593,0.7393 -14.866763,4.3454 2.939153,9.1441 7.002455,17.1414 12.743727,25.4631 2.064084,2.9916 4.219506,5.8291 6.473656,8.5214 4.896363,-2.9223 8.667853,-8.1838 9.887324,-14.6493 2.112605,-11.2009 -4.264578,-21.7995 -14.237944,-23.6806 z"
         style="color:#000000;fill:#a0892c;fill-opacity:1;fill-rule:evenodd;stroke:#000000;stroke-width:5.86372471px;stroke-linecap:butt;stroke-linejoin:miter;stroke-miterlimit:4;stroke-opacity:1;stroke-dasharray:none;stroke-dashoffset:0;marker:none;visibility:visible;display:inline;overflow:visible;enable-background:accumulate" />
      <path
         id="path2860-6-6-4"
         transform="translate(-437.82614,1831.7195)"
         d="m 473.875,273.9375 c -1.1319,0.76932 -2.19269,1.55136 -3.21875,2.34375 -25.27841,19.5218 -42.50462,37.49255 -59.40625,61.96875 -20.73518,30.0275 -32.58644,58.96935 -39.8125,97.28125 -4.15167,22.0117 -4.85063,39.87025 -2.3125,59.15625 2.71781,20.6503 7.64126,34.2056 17.71875,48.8125 15.40523,22.3286 35.85528,36.1504 65.09375,44 12.24418,3.289 13.17872,3.47885 20.59375,3.96875 29.99659,1.9817 52.62915,-3.27075 74.09375,-17.15625 16.74787,-10.8343 25.78055,-21.46665 36.875,-43.46875 0.8321,-1.65018 1.65456,-3.36025 2.4375,-5.09375 -16.04559,6.33314 -33.58552,8.52734 -54.8125,7.125 -7.41503,-0.4899 -8.38082,-0.67975 -20.625,-3.96875 -29.23847,-7.8496 -49.68852,-21.6714 -65.09375,-44 -10.07749,-14.6069 -15.00094,-28.13095 -17.71875,-48.78125 -2.53813,-19.286 -1.83917,-37.14455 2.3125,-59.15625 7.22606,-38.3119 19.07732,-67.285 39.8125,-97.3125 1.34913,-1.95376 2.70533,-3.84386 4.0625,-5.71875 z"
         style="opacity:0.28991597;color:#000000;fill:#000000;fill-opacity:1;fill-rule:evenodd;stroke:none;stroke-width:5.86372471px;marker:none;visibility:visible;display:inline;overflow:visible;enable-background:accumulate" />
      <path
         transform="matrix(0.8562765,0.16150386,-0.16150386,0.8562765,38.886518,436.86793)"
         d="m 426.42858,2192.0051 c 0,14.3989 -10.39339,26.0715 -23.21429,26.0715 -12.82089,0 -23.21428,-11.6726 -23.21428,-26.0715 0,-14.3988 10.39339,-26.0714 23.21428,-26.0714 12.8209,0 23.21429,11.6726 23.21429,26.0714 z"
         sodipodi:ry="26.071428"
         sodipodi:rx="23.214285"
         sodipodi:cy="2192.0051"
         sodipodi:cx="403.21429"
         id="path36990-7"
         style="color:#000000;fill:#a0892c;fill-opacity:1;fill-rule:evenodd;stroke:#000000;stroke-width:6.72928476px;stroke-linecap:butt;stroke-linejoin:miter;stroke-miterlimit:4;stroke-opacity:1;stroke-dasharray:none;stroke-dashoffset:0;marker:none;visibility:visible;display:inline;overflow:visible;enable-background:accumulate"
         sodipodi:type="arc" />
      <path
         id="path36990-1"
         d="m 114.08991,2379.8939 c -9.97337,-1.8811 -19.773141,5.6665 -21.885761,16.8674 -1.166344,6.1838 0.24904,12.1802 3.433252,16.633 4.473579,-2.108 8.841309,-4.5591 13.169509,-7.3591 7.29879,-4.7216 13.13986,-9.418 18.31566,-15.0232 -2.32607,-5.6905 -7.0229,-9.9845 -13.03266,-11.1181 z"
         style="color:#000000;fill:#a0892c;fill-opacity:1;fill-rule:evenodd;stroke:#000000;stroke-width:5.86372471px;stroke-linecap:butt;stroke-linejoin:miter;stroke-miterlimit:4;stroke-opacity:1;stroke-dasharray:none;stroke-dashoffset:0;marker:none;visibility:visible;display:inline;overflow:visible;enable-background:accumulate" />
      <path
         id="rect37180-9"
         d="m 67.224378,2154.6828 c -24.323811,-4.5563 -49.078056,-7.9057 -74.2831368,-9.9072 -6.8279972,7.7655 -13.1974072,16.0228 -19.5286222,25.1914 -12.944004,18.7448 -22.419967,37.0568 -29.474407,57.5019 75.52941,3.8037 149.388723,16.5517 221.293328,39.5736 1.6e-4,-0.05 0.003,-0.1002 0.003,-0.1504 0.0784,-19.7469 -2.39742,-38.5194 -7.77078,-58.6362 -3.19818,-11.9732 -7.01888,-23.3921 -11.44401,-34.3562 -25.80328,-7.7418 -52.050826,-14.207 -78.795581,-19.2169 z"
         style="color:#000000;fill:#a05a2c;fill-opacity:1;fill-rule:evenodd;stroke:#000000;stroke-width:5.86372471px;stroke-linecap:butt;stroke-linejoin:miter;stroke-miterlimit:4;stroke-opacity:1;stroke-dasharray:none;stroke-dashoffset:0;marker:none;visibility:visible;display:inline;overflow:visible;enable-background:accumulate" />
      <path
         id="rect37180"
         d="m 65.362071,2166.6921 c -26.64814,-4.9988 -53.788199,-8.7115 -81.480513,-10.9879 -3.547165,4.5273 -7.014653,9.2604 -10.468939,14.2628 -10.541349,15.2654 -18.795708,30.2503 -25.303145,46.3309 73.798637,5.092 146.16994,17.7476 216.883736,39.195 -0.75092,-15.6813 -3.1988,-31.0246 -7.52924,-47.237 -1.90428,-7.1291 -4.03203,-14.0768 -6.3662,-20.8366 -28.05211,-8.2771 -56.604546,-15.2631 -85.735699,-20.7272 z"
         style="color:#000000;fill:#784421;fill-opacity:1;fill-rule:evenodd;stroke:#000000;stroke-width:5.86372471px;stroke-linecap:butt;stroke-linejoin:miter;stroke-miterlimit:4;stroke-opacity:1;stroke-dasharray:none;stroke-dashoffset:0;marker:none;visibility:visible;display:inline;overflow:visible;enable-background:accumulate" />
      <path
         id="path37403"
         d="m 65.362071,2166.6921 c -7.791271,-1.4615 -15.630699,-2.7931 -23.50757,-4.031 -0.252966,1.1639 -0.489222,2.3268 -0.71344,3.5156 -5.730128,30.3806 0.324632,57.0304 13.520156,59.5192 13.195525,2.4888 28.541888,-20.1245 34.272016,-50.505 0.22733,-1.2053 0.434821,-2.3904 0.625374,-3.5826 -8.025571,-1.753 -16.082878,-3.3943 -24.196536,-4.9162 z m 30.694477,6.3684 c -0.183294,4.1682 -0.156405,8.4914 0.103131,12.9337 1.803147,30.8634 14.134391,55.2434 27.539741,54.4601 13.04936,-0.7623 22.30074,-25.0881 21.11961,-54.8485 -16.08501,-4.6229 -32.33175,-8.8213 -48.762482,-12.5453 z M 35.691895,2161.7 c -16.476991,-2.4578 -33.1548286,-4.4101 -50.027947,-5.836 -12.061723,27.3873 -12.354471,53.5692 -0.438755,59.0513 12.1990395,5.6124 32.563827,-12.6006 45.485532,-40.6866 1.941274,-4.2195 3.598019,-8.4145 4.98117,-12.5287 z"
         style="color:#000000;fill:#deaa87;fill-opacity:1;fill-rule:evenodd;stroke:#000000;stroke-width:6.05887461px;stroke-linecap:butt;stroke-linejoin:miter;stroke-miterlimit:4;stroke-opacity:1;stroke-dasharray:none;stroke-dashoffset:0;marker:none;visibility:visible;display:inline;overflow:visible;enable-background:accumulate" />
      <path
         transform="matrix(0.29600459,0.05582996,-0.05582996,0.29600459,28.955554,1538.6966)"
         d="m 426.42858,2192.0051 c 0,14.3989 -10.39339,26.0715 -23.21429,26.0715 -12.82089,0 -23.21428,-11.6726 -23.21428,-26.0715 0,-14.3988 10.39339,-26.0714 23.21428,-26.0714 12.8209,0 23.21429,11.6726 23.21429,26.0714 z"
         sodipodi:ry="26.071428"
         sodipodi:rx="23.214285"
         sodipodi:cy="2192.0051"
         sodipodi:cx="403.21429"
         id="path36990-7-1"
         style="color:#000000;fill:#a0892c;fill-opacity:1;fill-rule:evenodd;stroke:#000000;stroke-width:19.46634674px;stroke-linecap:butt;stroke-linejoin:miter;stroke-miterlimit:4;stroke-opacity:1;stroke-dasharray:none;stroke-dashoffset:0;marker:none;visibility:visible;display:inline;overflow:visible;enable-background:accumulate"
         sodipodi:type="arc" />
      <path
         transform="matrix(0.29600459,0.05582996,-0.05582996,0.29600459,91.033463,1550.4054)"
         d="m 426.42858,2192.0051 c 0,14.3989 -10.39339,26.0715 -23.21429,26.0715 -12.82089,0 -23.21428,-11.6726 -23.21428,-26.0715 0,-14.3988 10.39339,-26.0714 23.21428,-26.0714 12.8209,0 23.21429,11.6726 23.21429,26.0714 z"
         sodipodi:ry="26.071428"
         sodipodi:rx="23.214285"
         sodipodi:cy="2192.0051"
         sodipodi:cx="403.21429"
         id="path36990-7-1-0"
         style="color:#000000;fill:#a0892c;fill-opacity:1;fill-rule:evenodd;stroke:#000000;stroke-width:19.46634674px;stroke-linecap:butt;stroke-linejoin:miter;stroke-miterlimit:4;stroke-opacity:1;stroke-dasharray:none;stroke-dashoffset:0;marker:none;visibility:visible;display:inline;overflow:visible;enable-background:accumulate"
         sodipodi:type="arc" />
      <path
         transform="matrix(0.29600459,0.05582996,-0.05582996,0.29600459,153.52667,1564.2267)"
         d="m 426.42858,2192.0051 c 0,14.3989 -10.39339,26.0715 -23.21429,26.0715 -12.82089,0 -23.21428,-11.6726 -23.21428,-26.0715 0,-14.3988 10.39339,-26.0714 23.21428,-26.0714 12.8209,0 23.21429,11.6726 23.21429,26.0714 z"
         sodipodi:ry="26.071428"
         sodipodi:rx="23.214285"
         sodipodi:cy="2192.0051"
         sodipodi:cx="403.21429"
         id="path36990-7-1-4"
         style="color:#000000;fill:#a0892c;fill-opacity:1;fill-rule:evenodd;stroke:#000000;stroke-width:19.46634674px;stroke-linecap:butt;stroke-linejoin:miter;stroke-miterlimit:4;stroke-opacity:1;stroke-dasharray:none;stroke-dashoffset:0;marker:none;visibility:visible;display:inline;overflow:visible;enable-background:accumulate"
         sodipodi:type="arc" />
      <path
         transform="matrix(0.29600459,0.05582996,-0.05582996,0.29600459,-33.715256,1530.1313)"
         d="m 426.42858,2192.0051 c 0,14.3989 -10.39339,26.0715 -23.21429,26.0715 -12.82089,0 -23.21428,-11.6726 -23.21428,-26.0715 0,-14.3988 10.39339,-26.0714 23.21428,-26.0714 12.8209,0 23.21429,11.6726 23.21429,26.0714 z"
         sodipodi:ry="26.071428"
         sodipodi:rx="23.214285"
         sodipodi:cy="2192.0051"
         sodipodi:cx="403.21429"
         id="path36990-7-1-7"
         style="color:#000000;fill:#a0892c;fill-opacity:1;fill-rule:evenodd;stroke:#000000;stroke-width:19.46634674px;stroke-linecap:butt;stroke-linejoin:miter;stroke-miterlimit:4;stroke-opacity:1;stroke-dasharray:none;stroke-dashoffset:0;marker:none;visibility:visible;display:inline;overflow:visible;enable-background:accumulate"
         sodipodi:type="arc" />
      <path
         transform="matrix(0.9527493,-0.30375775,0.30375775,0.9527493,-201.54609,2097.0331)"
         d="m 312.13712,190.21362 c 0,46.93978 -23.51755,84.99198 -52.52793,84.99198 -29.01037,0 -52.52793,-38.0522 -52.52793,-84.99198 0,-46.93977 23.51756,-84.99198 52.52793,-84.99198 29.01038,0 52.52793,38.05221 52.52793,84.99198 z"
         sodipodi:ry="84.991982"
         sodipodi:rx="52.527931"
         sodipodi:cy="190.21362"
         sodipodi:cx="259.60919"
         id="path4627-1"
         style="opacity:0.3487395;color:#000000;fill:url(#radialGradient4854);fill-opacity:1;fill-rule:evenodd;stroke:none;stroke-width:6.05887461px;marker:none;visibility:visible;display:inline;overflow:visible;enable-background:accumulate"
         sodipodi:type="arc" />
      <path
         transform="translate(-437.82614,1831.7195)"
         id="path37403-7"
         d="m 423.5,324.15625 c -12.06173,27.3873 -12.35321,53.54915 -0.4375,59.03125 12.19904,5.6124 32.54705,-12.6015 45.46875,-40.6875 1.94128,-4.2195 3.61685,-8.41705 5,-12.53125 -0.21795,-0.0325 -0.43823,-0.0614 -0.65625,-0.0937 -12.91995,24.88305 -31.37569,40.35797 -42.75,35.125 -9.20813,-4.23641 -11.10777,-20.81826 -5.9375,-40.78125 -0.22967,-0.0196 -0.45776,-0.0431 -0.6875,-0.0625 z m 56.1875,6.78125 c -0.25297,1.1639 -0.49453,2.34245 -0.71875,3.53125 -5.73013,30.3806 0.33573,57.0112 13.53125,59.5 11.41668,2.15329 24.42169,-14.48689 31.4375,-38.6875 -7.05472,13.82336 -16.12779,22.0555 -24.375,20.5 -10.90351,-2.0565 -16.93648,-20.60165 -15.46875,-44.125 -1.46999,-0.23823 -2.93357,-0.48731 -4.40625,-0.71875 z m 54.1875,10.40625 c -0.1833,4.1682 -0.13454,8.4952 0.125,12.9375 1.80314,30.8634 14.1259,55.25205 27.53125,54.46875 8.49436,-0.49621 15.36666,-11.00401 18.8125,-26.46875 -3.30223,5.01501 -7.30315,8.02148 -11.75,8.28125 -12.36503,0.72251 -23.78831,-19.96996 -26.90625,-47.40625 -2.60261,-0.61574 -5.20069,-1.22054 -7.8125,-1.8125 z"
         style="opacity:0.28991597;color:#000000;fill:#000000;fill-opacity:1;fill-rule:evenodd;stroke:none;stroke-width:5.86372471px;marker:none;visibility:visible;display:inline;overflow:visible;enable-background:accumulate" />
      <path
         id="path36990-7-6"
         transform="translate(-437.82614,1831.7195)"
         d="m 461.875,525.9375 c -6.76499,2.69005 -12.20671,9.18322 -13.78125,17.53125 -2.32547,12.3294 4.67802,24.02313 15.65625,26.09375 8.56824,1.61607 17.00344,-3.11708 21.40625,-11.125 -3.22535,1.28176 -6.76884,1.69963 -10.3125,1.03125 -10.97823,-2.07062 -17.98172,-13.76435 -15.65625,-26.09375 0.50961,-2.70188 1.4524,-5.18814 2.6875,-7.4375 z"
         style="opacity:0.28991597;color:#000000;fill:#000000;fill-opacity:1;fill-rule:evenodd;stroke:none;stroke-width:5.86372471px;marker:none;visibility:visible;display:inline;overflow:visible;enable-background:accumulate" />
      <path
         sodipodi:nodetypes="ccscscccc"
         id="path36990-15"
         transform="translate(-437.82614,1831.7195)"
         d="m 381.03125,514.125 c -2.52724,0.7631 -4.88376,2.1032 -6.9375,3.90625 2.93916,9.1441 6.97748,17.14705 12.71875,25.46875 2.06408,2.9916 4.24585,5.83895 6.5,8.53125 4.89636,-2.9223 8.65553,-8.19075 9.875,-14.65625 0.0513,-0.27185 0.0837,-0.54148 0.125,-0.8125 -1.55378,1.96824 -5.93789,3.61652 -7.99413,4.84375 -9.85766,-9.41777 -10.32654,-17.80024 -14.25587,-27.28125 -0.01,0.003 -0.0214,-0.003 -0.0313,0 z"
         style="opacity:0.28991597;color:#000000;fill:#000000;fill-opacity:1;fill-rule:evenodd;stroke:none;stroke-width:5.86372471px;marker:none;visibility:visible;display:inline;overflow:visible;enable-background:accumulate" />
      <path
         id="path36990-1-0"
         transform="translate(-437.82614,1831.7195)"
         d="m 541.375,549.625 c -5.59327,2.6971 -10.00623,8.31485 -11.34375,15.40625 -1.16635,6.1838 0.25329,12.20345 3.4375,16.65625 4.47358,-2.108 8.82805,-4.575 13.15625,-7.375 7.29879,-4.7216 13.1367,-9.42605 18.3125,-15.03125 -0.25573,-0.62562 -0.53211,-1.22298 -0.84375,-1.8125 -2.22168,1.67762 -4.55196,3.32446 -7.09375,4.96875 -4.3282,2.8 -8.71392,5.267 -13.1875,7.375 -3.18421,-4.4528 -4.60385,-10.4412 -3.4375,-16.625 0.23264,-1.23343 0.59096,-2.42538 1,-3.5625 z"
         style="opacity:0.28991597;color:#000000;fill:#000000;fill-opacity:1;fill-rule:evenodd;stroke:none;stroke-width:5.86372471px;marker:none;visibility:visible;display:inline;overflow:visible;enable-background:accumulate" />
    </g>
  </g>
</svg>
