<?xml version="1.0" encoding="UTF-8" standalone="no"?>
<!-- Created with Inkscape (http://www.inkscape.org/) -->

<svg
   xmlns:dc="http://purl.org/dc/elements/1.1/"
   xmlns:cc="http://creativecommons.org/ns#"
   xmlns:rdf="http://www.w3.org/1999/02/22-rdf-syntax-ns#"
   xmlns:svg="http://www.w3.org/2000/svg"
   xmlns="http://www.w3.org/2000/svg"
   xmlns:xlink="http://www.w3.org/1999/xlink"
   xmlns:sodipodi="http://sodipodi.sourceforge.net/DTD/sodipodi-0.dtd"
   xmlns:inkscape="http://www.inkscape.org/namespaces/inkscape"
   width="389.3125"
   height="493.70697"
   id="svg3266"
   version="1.1"
   inkscape:version="0.48.3.1 r9886"
   sodipodi:docname="lámpara.svg">
  <defs
     id="defs3268">
    <linearGradient
       inkscape:collect="always"
       xlink:href="#linearGradient6669"
       id="linearGradient6675"
       x1="-409.63589"
       y1="2405.2412"
       x2="207.06407"
       y2="2405.2412"
       gradientUnits="userSpaceOnUse" />
    <linearGradient
       inkscape:collect="always"
       id="linearGradient6669">
      <stop
         style="stop-color:#000000;stop-opacity:1;"
         offset="0"
         id="stop6671" />
      <stop
         style="stop-color:#000000;stop-opacity:0;"
         offset="1"
         id="stop6673" />
    </linearGradient>
    <linearGradient
       inkscape:collect="always"
       xlink:href="#linearGradient6669"
       id="linearGradient3288"
       x1="-409.63589"
       y1="2405.2412"
       x2="207.06407"
       y2="2405.2412"
       gradientUnits="userSpaceOnUse" />
    <linearGradient
       inkscape:collect="always"
       xlink:href="#linearGradient6669"
       id="linearGradient3296"
       x1="-409.63589"
       y1="2405.2412"
       x2="207.06407"
       y2="2405.2412"
       gradientUnits="userSpaceOnUse" />
    <linearGradient
       gradientUnits="userSpaceOnUse"
       xlink:href="#linearGradient5325-92-2-4"
       id="linearGradient6131-4-4"
       y2="746.78821"
       x2="-630.68909"
       y1="746.78821"
       x1="-654.87616" />
    <linearGradient
       id="linearGradient5325-92-2-4">
      <stop
         offset="0"
         style="stop-color:#000000;stop-opacity:1"
         id="stop5327-2-9-0" />
      <stop
         offset="1"
         style="stop-color:#000000;stop-opacity:0"
         id="stop5329-47-9-3" />
    </linearGradient>
    <linearGradient
       gradientTransform="translate(897.43131,-162.73819)"
       gradientUnits="userSpaceOnUse"
       xlink:href="#linearGradient5325-9-5-2-3"
       id="linearGradient6133-8-8"
       y2="746.78821"
       x2="-630.68909"
       y1="746.78821"
       x1="-654.87616" />
    <linearGradient
       id="linearGradient5325-9-5-2-3">
      <stop
         offset="0"
         style="stop-color:#000000;stop-opacity:1"
         id="stop5327-6-4-1-0" />
      <stop
         offset="1"
         style="stop-color:#000000;stop-opacity:0"
         id="stop5329-4-8-3-9" />
    </linearGradient>
    <filter
       color-interpolation-filters="sRGB"
       inkscape:collect="always"
       id="filter6585-8-9">
      <feGaussianBlur
         inkscape:collect="always"
         stdDeviation="2.0134725"
         id="feGaussianBlur6587-8-4" />
    </filter>
    <filter
       color-interpolation-filters="sRGB"
       inkscape:collect="always"
       id="filter6686-0-3"
       x="-0.14261886"
       width="1.2852377"
       y="-0.1093168"
       height="1.2186337">
      <feGaussianBlur
         inkscape:collect="always"
         stdDeviation="2.7933996"
         id="feGaussianBlur6688-8-8" />
    </filter>
    <filter
       color-interpolation-filters="sRGB"
       inkscape:collect="always"
       id="filter6748-2-2"
       x="-0.11093106"
       width="1.2218621"
       y="-0.077832296"
       height="1.1556646">
      <feGaussianBlur
         inkscape:collect="always"
         stdDeviation="2.0831602"
         id="feGaussianBlur6750-3-9" />
    </filter>
    <filter
       color-interpolation-filters="sRGB"
       inkscape:collect="always"
       id="filter6821-0-6"
       x="-0.11781558"
       width="1.2356312"
       y="-0.090305179"
       height="1.1806104">
      <feGaussianBlur
         inkscape:collect="always"
         stdDeviation="2.307591"
         id="feGaussianBlur6823-5-4" />
    </filter>
    <inkscape:path-effect
       effect="spiro"
       id="path-effect7421-0-04"
       is_visible="true" />
    <inkscape:path-effect
       effect="spiro"
       id="path-effect7421-3-4-10"
       is_visible="true" />
    <inkscape:path-effect
       effect="spiro"
       id="path-effect7421-3-0-8-8"
       is_visible="true" />
    <inkscape:path-effect
       effect="spiro"
       id="path-effect7421-3-3-4-06"
       is_visible="true" />
  </defs>
  <sodipodi:namedview
     id="base"
     pagecolor="#ffffff"
     bordercolor="#666666"
     borderopacity="1.0"
     inkscape:pageopacity="0.0"
     inkscape:pageshadow="2"
     inkscape:zoom="0.35"
     inkscape:cx="195.01932"
     inkscape:cy="246.85116"
     inkscape:document-units="px"
     inkscape:current-layer="layer1"
     showgrid="false"
     fit-margin-top="0"
     fit-margin-left="0"
     fit-margin-right="0"
     fit-margin-bottom="0"
     inkscape:window-width="597"
     inkscape:window-height="586"
     inkscape:window-x="65"
     inkscape:window-y="24"
     inkscape:window-maximized="0" />
  <metadata
     id="metadata3271">
    <rdf:RDF>
      <cc:Work
         rdf:about="">
        <dc:format>image/svg+xml</dc:format>
        <dc:type
           rdf:resource="http://purl.org/dc/dcmitype/StillImage" />
        <dc:title></dc:title>
      </cc:Work>
    </rdf:RDF>
  </metadata>
  <g
     inkscape:label="Capa 1"
     inkscape:groupmode="layer"
     id="layer1"
     transform="translate(-154.98068,-285.50638)">
    <g
       transform="translate(-146.64646,298.31339)"
       id="layer1-0"
       inkscape:label="Capa 1">
      <g
         transform="translate(206.15942,-101.75712)"
         id="layer1-5"
         inkscape:label="Layer 1">
        <g
           id="g3153"
           transform="matrix(1.1823924,0,0,1.1823924,-34.247148,-69.395081)">
          <g
             transform="matrix(0.84574292,0,0,0.84574292,-41.268792,26.063476)"
             id="layer1-9"
             inkscape:label="Layer 1">
            <g
               id="g3006"
               transform="matrix(5.582782,0,0,5.582782,-3159.9323,-1053.8796)">
              <g
                 transform="matrix(0.17912217,0,0,0.17912217,591.64151,193.52672)"
                 id="layer1-8"
                 inkscape:label="Layer 1">
                <path
                   inkscape:connector-curvature="0"
                   style="fill:#a05a2c;fill-rule:evenodd;stroke:#000000;stroke-width:4;stroke-linecap:butt;stroke-linejoin:miter;stroke-miterlimit:4;stroke-opacity:1;stroke-dasharray:none"
                   d="m 186.53667,104.76679 c 69.3535,154.06666 156.04387,295.85386 236.11972,442.32603 -1.41245,18.99674 -42.15494,60.74646 -88.0119,39.96836 C 269.30916,431.68269 202.7995,268.66957 138.93091,122.82678 c 10.04981,-3.42937 26.21991,-9.58361 47.60576,-18.05999 z"
                   id="path2170"
                   sodipodi:nodetypes="ccccc" />
                <path
                   inkscape:connector-curvature="0"
                   style="opacity:0.37000002;fill:#000000;fill-rule:evenodd;stroke:#000000;stroke-width:0.96788919;stroke-linecap:butt;stroke-linejoin:miter;stroke-miterlimit:4;stroke-opacity:1;stroke-dasharray:none"
                   d="m 178.43857,110.31548 71.08393,163.4477 -73.18452,-163.57056 2.10059,0.12286 z"
                   id="path3173"
                   sodipodi:nodetypes="cccc" />
                <path
                   inkscape:connector-curvature="0"
                   style="opacity:0.29499996;fill:#000000;fill-rule:evenodd;stroke:#000000;stroke-width:5.19999981;stroke-linecap:butt;stroke-linejoin:miter;stroke-miterlimit:4;stroke-opacity:1;stroke-dasharray:none"
                   d="m 169.20229,112.78302 c 69.3535,154.06666 145.94552,314.08631 226.02136,460.55848 -1.41244,18.99675 -23.4007,21.04169 -60.57916,13.71968 C 269.30916,431.68269 202.7995,268.66957 138.93091,122.82678 c 10.04981,-3.42937 8.88553,-1.56738 30.27138,-10.04376 z"
                   id="path3280"
                   sodipodi:nodetypes="ccccc" />
                <path
                   inkscape:connector-curvature="0"
                   style="opacity:0.175;fill:#000000;fill-rule:evenodd;stroke:#000000;stroke-width:2px;stroke-linecap:butt;stroke-linejoin:miter;stroke-opacity:1"
                   d="m 169.23603,113.82906 c 25.4482,79.60775 166.93814,522.02869 254.62667,434.3735 -20.34011,37.86648 -47.62505,56.70835 -88.42611,38.52438 l -195.06277,-460.89248 28.86221,-12.0054 z"
                   id="path3149"
                   sodipodi:nodetypes="ccccc" />
                <path
                   inkscape:connector-curvature="0"
                   style="fill:#808080;fill-rule:evenodd;stroke:#000000;stroke-width:4;stroke-linecap:butt;stroke-linejoin:miter;stroke-miterlimit:4;stroke-opacity:1;stroke-dasharray:none"
                   d="m 123.08354,138.35145 c 6.38914,-3.2533 12.61119,-6.28701 18.69046,-9.09912 1.8352,-0.8489 1.23113,-0.62401 3.19697,-0.87809 14.09157,-1.82135 37.76095,-11.68897 41.60105,-15.08179 2.17937,-1.92553 1.56126,-1.88033 4.29333,-2.64661 55.92789,-15.686372 104.15023,-7.55082 170.74087,26.53355 -51.33379,-14.84805 -80.21617,-25.96367 -129.25424,5.42693 l -3.10435,33.51597 -59.74013,27.77308 -22.65398,-13.0347 c -18.7269,9.89315 -30.91713,22.65937 -36.65157,38.26306 L 77.64726,251.06335 C 64.813088,230.91002 51.938515,210.22513 38.050919,176.20962 l 29.544149,-11.97801 53.501752,-6.57745 1.98672,-19.30271 z"
                   id="path2168"
                   sodipodi:nodetypes="cssssccccccccccc" />
                <path
                   inkscape:connector-curvature="0"
                   style="opacity:0.37000002;fill:#000000;fill-rule:evenodd;stroke:#000000;stroke-width:1.20000005;stroke-linecap:butt;stroke-linejoin:miter;stroke-miterlimit:4;stroke-opacity:1;stroke-dasharray:none"
                   d="m 363.36407,590.74228 -88.13077,-202.64422 90.73509,202.79667 -2.60432,-0.15245 z"
                   id="path3171"
                   sodipodi:nodetypes="cccc" />
                <path
                   inkscape:connector-curvature="0"
                   style="opacity:0.47000002;fill:#1a1a1a;fill-rule:evenodd;stroke:none"
                   d="m 124.30395,147.73243 c 90.02604,-45.8407 148.86985,-45.26996 237.30227,-10.55304 -51.33379,-14.84805 -80.21617,-25.96367 -129.25424,5.42693 l -3.10435,33.51597 -59.74013,27.77308 -22.65398,-13.0347 c -18.7269,9.89315 -30.91713,22.65937 -36.65157,38.26306 L 77.64726,251.06335 C 64.813088,230.91002 56.884576,212.04251 39.355132,178.90187 l 29.360117,-8.83431 53.610411,-5.14775 c 2.4375,-11.321 0.46046,-11.25204 1.97829,-17.18738 z"
                   id="path3274"
                   sodipodi:nodetypes="cccccccccccc" />
                <path
                   inkscape:connector-curvature="0"
                   style="opacity:0.47000002;fill:#1a1a1a;fill-rule:evenodd;stroke:none"
                   d="m 124.58743,157.75928 c 90.02604,-45.84071 148.58637,-55.29681 237.01879,-20.57989 -51.33379,-14.84805 -80.21617,-25.96367 -129.25424,5.42693 l -3.10435,33.51597 -59.74013,27.77308 -22.65398,-13.0347 c -18.7269,9.89315 -30.91713,22.65937 -36.65157,38.26306 L 77.64726,251.06335 C 64.813088,230.91002 64.806105,232.85317 47.92701,198.82575 L 78.280528,184.174 121.46209,178.74215 c 2.4375,-11.32099 1.60752,-15.04753 3.12534,-20.98287 z"
                   id="path3276"
                   sodipodi:nodetypes="cccccccccccc" />
                <path
                   inkscape:connector-curvature="0"
                   style="opacity:0.47000002;fill:#1a1a1a;fill-rule:evenodd;stroke:none"
                   d="m 123.30995,174.00555 c 90.02604,-45.8407 149.86385,-71.54308 238.29627,-36.82616 -51.33379,-14.84805 -80.21617,-25.96367 -129.25424,5.42693 l -3.10435,33.51597 -59.74013,27.77308 -22.65398,-13.0347 c -18.7269,9.89315 -30.91713,22.65937 -36.65157,38.26306 l -32.55469,21.93962 c -12.834172,-20.15333 3.321739,4.0078 -16.714423,-29.06195 l 40.132013,-13.48087 21.14167,-13.68576 c -0.152,-10.76533 -0.4144,-14.89389 1.10343,-20.82922 z"
                   id="path3278"
                   sodipodi:nodetypes="cccccccccccc" />
              </g>
            </g>
          </g>
        </g>
      </g>
    </g>
  </g>
</svg>
