<?xml version="1.0" encoding="UTF-8" standalone="no"?>
<!-- Created with Inkscape (http://www.inkscape.org/) -->

<svg
   xmlns:dc="http://purl.org/dc/elements/1.1/"
   xmlns:cc="http://creativecommons.org/ns#"
   xmlns:rdf="http://www.w3.org/1999/02/22-rdf-syntax-ns#"
   xmlns:svg="http://www.w3.org/2000/svg"
   xmlns="http://www.w3.org/2000/svg"
   xmlns:sodipodi="http://sodipodi.sourceforge.net/DTD/sodipodi-0.dtd"
   xmlns:inkscape="http://www.inkscape.org/namespaces/inkscape"
   width="369.44312"
   height="570.98901"
   id="svg12026"
   sodipodi:version="0.32"
   inkscape:version="0.48.3.1 r9886"
   sodipodi:docname="matrioska.svg"
   inkscape:output_extension="org.inkscape.output.svg.inkscape"
   inkscape:export-filename="/home/vhzc/Docs/FOCA/nuevodiseno/misc/matrioska.png"
   inkscape:export-xdpi="90"
   inkscape:export-ydpi="90"
   version="1.0"
   sodipodi:modified="true">
  <defs
     id="defs12028" />
  <sodipodi:namedview
     id="base"
     pagecolor="#ffffff"
     bordercolor="#666666"
     borderopacity="1.0"
     inkscape:pageopacity="0.0"
     inkscape:pageshadow="2"
     inkscape:zoom="0.77472525"
     inkscape:cx="98.593535"
     inkscape:cy="284.20853"
     inkscape:current-layer="layer1"
     inkscape:document-units="px"
     showgrid="true"
     showguides="true"
     inkscape:guide-bbox="true"
     inkscape:window-width="1264"
     inkscape:window-height="715"
     inkscape:window-x="0"
     inkscape:window-y="48"
     width="480px"
     height="640px"
     inkscape:window-maximized="1"
     fit-margin-top="0"
     fit-margin-left="0"
     fit-margin-right="0"
     fit-margin-bottom="0">
    <sodipodi:guide
       orientation="vertical"
       position="62.154601,-31.53817"
       id="guide12034" />
    <sodipodi:guide
       orientation="vertical"
       position="166.66098,-31.53817"
       id="guide12036" />
    <sodipodi:guide
       orientation="horizontal"
       position="-34.593655,328.98599"
       id="guide12038" />
    <sodipodi:guide
       orientation="horizontal"
       position="-34.593655,122.71006"
       id="guide12040" />
    <sodipodi:guide
       orientation="vertical"
       position="45.434714,-31.53817"
       id="guide12042" />
    <sodipodi:guide
       orientation="vertical"
       position="186.12976,-31.53817"
       id="guide12044" />
    <sodipodi:guide
       orientation="horizontal"
       position="-34.593655,345.36963"
       id="guide12046" />
    <sodipodi:guide
       orientation="horizontal"
       position="-34.593655,259.16296"
       id="guide12048" />
    <sodipodi:guide
       orientation="horizontal"
       position="-34.593655,193.90352"
       id="guide12052" />
  </sodipodi:namedview>
  <metadata
     id="metadata12031">
    <rdf:RDF>
      <cc:Work
         rdf:about="">
        <dc:format>image/svg+xml</dc:format>
        <dc:type
           rdf:resource="http://purl.org/dc/dcmitype/StillImage" />
        <dc:title></dc:title>
      </cc:Work>
    </rdf:RDF>
  </metadata>
  <g
     id="layer1"
     inkscape:label="Layer 1"
     inkscape:groupmode="layer"
     transform="translate(-34.593655,-37.472805)">
    <g
       id="g3216">
      <path
         inkscape:export-ydpi="90"
         inkscape:export-xdpi="90"
         inkscape:export-filename="/home/vladimir/vectorizados/path3255.png"
         sodipodi:nodetypes="ccccccc"
         id="path12050"
         d="m 87.531881,576.49209 c -36.409382,-31.6463 -94.7954591,-174.45166 0,-314.79235 -3.097608,-67.47652 -11.756987,-166.214537 0,-170.371458 0.765515,-30.541759 169.494069,-100.2165916 263.721009,-0.960656 12.98703,11.227004 0.28775,114.973614 0.28075,172.460404 66.17832,119.23241 66.21708,221.26667 0,312.29854 -90.05932,41.1572 -178.44826,43.24575 -264.001759,1.36552 z"
         style="color:#000000;fill:#000080;fill-opacity:1;fill-rule:evenodd;stroke:#000000;stroke-width:3;stroke-linecap:butt;stroke-linejoin:miter;stroke-miterlimit:4;stroke-opacity:1;stroke-dasharray:none;stroke-dashoffset:0;marker:none;visibility:visible;display:inline;overflow:visible;enable-background:accumulate"
         inkscape:connector-curvature="0" />
      <path
         inkscape:export-ydpi="90"
         inkscape:export-xdpi="90"
         inkscape:export-filename="/home/vladimir/vectorizados/path3255.png"
         transform="matrix(2.7929029,0,0,2.2798824,-203.19302,-181.92196)"
         d="m 192.58379,159.6355 c 0,23.69181 -17.98009,42.89781 -40.15966,42.89781 -22.17956,0 -40.15965,-19.206 -40.15965,-42.89781 0,-23.69181 17.98009,-42.89781 40.15965,-42.89781 22.17957,0 40.15966,19.206 40.15966,42.89781 z"
         sodipodi:ry="42.897812"
         sodipodi:rx="40.159653"
         sodipodi:cy="159.6355"
         sodipodi:cx="152.42413"
         id="path12178"
         style="fill:#ffe680;fill-opacity:1;fill-rule:nonzero;stroke:none"
         sodipodi:type="arc" />
      <path
         inkscape:export-ydpi="90"
         inkscape:export-xdpi="90"
         inkscape:export-filename="/home/vladimir/vectorizados/path3255.png"
         sodipodi:nodetypes="ccc"
         id="path12270"
         d="M 112.49578,195.80497 C 117.30446,90.753905 198.08612,84.890715 227.3742,86.852878 242.13447,103.64594 124.65174,163.54795 112.49578,195.80497 z"
         style="fill:#ff2a2a;fill-rule:evenodd;stroke:none"
         inkscape:connector-curvature="0" />
      <g
         inkscape:export-ydpi="90"
         inkscape:export-xdpi="90"
         inkscape:export-filename="/home/vladimir/vectorizados/path3255.png"
         transform="matrix(2.6221646,0,0,2.2105713,-17.315397,-135.54894)"
         id="g12198">
        <path
           sodipodi:type="arc"
           style="fill:#000000;fill-opacity:1;fill-rule:nonzero;stroke:#000000;stroke-width:1;stroke-linejoin:round;stroke-miterlimit:4;stroke-opacity:1;stroke-dasharray:none"
           id="path12180"
           sodipodi:cx="74.614807"
           sodipodi:cy="145.37425"
           sodipodi:rx="5.2481365"
           sodipodi:ry="4.9058666"
           d="m 79.862944,145.37425 c 0,2.70944 -2.349671,4.90587 -5.248137,4.90587 -2.898466,0 -5.248136,-2.19643 -5.248136,-4.90587 0,-2.70943 2.34967,-4.90586 5.248136,-4.90586 2.898466,0 5.248137,2.19643 5.248137,4.90586 z" />
        <path
           style="fill:none;stroke:#000000;stroke-width:1px;stroke-linecap:butt;stroke-linejoin:miter;stroke-opacity:1"
           d="m 84.426544,145 c -11.226534,-11.02998 -15.87672,0.28838 -25.099783,0"
           id="path12182"
           sodipodi:nodetypes="cc"
           inkscape:connector-curvature="0" />
        <path
           sodipodi:type="arc"
           style="fill:#ffffff;fill-opacity:1;fill-rule:nonzero;stroke:none"
           id="path12184"
           sodipodi:cx="71.192116"
           sodipodi:cy="116.16723"
           sodipodi:rx="1.3690791"
           sodipodi:ry="1.4831691"
           d="m 72.561195,116.16723 c 0,0.81913 -0.612958,1.48317 -1.369079,1.48317 -0.756122,0 -1.369079,-0.66404 -1.369079,-1.48317 0,-0.81913 0.612957,-1.48317 1.369079,-1.48317 0.756121,0 1.369079,0.66404 1.369079,1.48317 z"
           transform="translate(5.1769633,26.697042)" />
        <path
           style="fill:none;stroke:#000000;stroke-width:1px;stroke-linecap:butt;stroke-linejoin:miter;stroke-opacity:1"
           d="M 64.118538,143.6629 C 62.445546,143.34237 61.064534,142.1459 60,140"
           id="path12186"
           sodipodi:nodetypes="cc"
           inkscape:connector-curvature="0" />
        <path
           style="fill:none;stroke:#000000;stroke-width:0.89013016px;stroke-linecap:butt;stroke-linejoin:miter;stroke-opacity:1"
           d="m 67.510836,142.16884 c -4.616383,-1.77003 -4.541875,-4.06586 -5.044492,-6.29701"
           id="path12188"
           sodipodi:nodetypes="cc"
           inkscape:connector-curvature="0" />
        <path
           style="fill:none;stroke:#000000;stroke-width:0.89013016px;stroke-linecap:butt;stroke-linejoin:miter;stroke-opacity:1"
           d="m 71.867445,140.72004 c -3.874471,-1.79198 -1.934199,-4.23575 -1.885826,-6.46745"
           id="path12190"
           sodipodi:nodetypes="cc"
           inkscape:connector-curvature="0" />
        <path
           style="fill:none;stroke:#000000;stroke-width:0.89013016px;stroke-linecap:butt;stroke-linejoin:miter;stroke-opacity:1"
           d="m 77.141232,140.54961 c -2.352799,-2.03904 -0.45035,-4.07807 0.687885,-6.1171"
           id="path12192"
           sodipodi:nodetypes="cc"
           inkscape:connector-curvature="0" />
        <path
           style="fill:none;stroke:#000000;stroke-width:0.89013016px;stroke-linecap:butt;stroke-linejoin:miter;stroke-opacity:1"
           d="m 82.185725,142.34875 c -0.898674,-2.89895 1.526462,-2.53789 2.86921,-3.23845"
           id="path12194"
           sodipodi:nodetypes="cc"
           inkscape:connector-curvature="0" />
        <path
           style="fill:none;stroke:#000000;stroke-width:1px;stroke-linecap:butt;stroke-linejoin:miter;stroke-opacity:1"
           d="m 84.426544,135 c -7.546775,-3.80411 -15.1303,-6.94672 -23.274344,0 l 0,0"
           id="path12196"
           sodipodi:nodetypes="ccc"
           inkscape:connector-curvature="0" />
      </g>
      <g
         inkscape:export-ydpi="90"
         inkscape:export-xdpi="90"
         inkscape:export-filename="/home/vladimir/vectorizados/path3255.png"
         transform="matrix(2.6221646,0,0,2.2105713,-170.46786,-154.71643)"
         id="g12262">
        <path
           sodipodi:type="arc"
           style="fill:#000000;fill-opacity:1;fill-rule:nonzero;stroke:none"
           id="path12258"
           sodipodi:cx="147.74646"
           sodipodi:cy="166.70906"
           sodipodi:rx="1.0268093"
           sodipodi:ry="1.3690791"
           d="m 148.77327,166.70906 c 0,0.75612 -0.45972,1.36908 -1.02681,1.36908 -0.56709,0 -1.02681,-0.61296 -1.02681,-1.36908 0,-0.75612 0.45972,-1.36908 1.02681,-1.36908 0.56709,0 1.02681,0.61296 1.02681,1.36908 z"
           transform="translate(0,-0.3399816)" />
        <path
           sodipodi:type="arc"
           style="fill:#000000;fill-opacity:1;fill-rule:nonzero;stroke:none"
           id="path12260"
           sodipodi:cx="147.74646"
           sodipodi:cy="166.70906"
           sodipodi:rx="1.0268093"
           sodipodi:ry="1.3690791"
           d="m 148.77327,166.70906 c 0,0.75612 -0.45972,1.36908 -1.02681,1.36908 -0.56709,0 -1.02681,-0.61296 -1.02681,-1.36908 0,-0.75612 0.45972,-1.36908 1.02681,-1.36908 0.56709,0 1.02681,0.61296 1.02681,1.36908 z"
           transform="translate(4.9058593,-0.3399816)" />
      </g>
      <path
         inkscape:export-ydpi="90"
         inkscape:export-xdpi="90"
         inkscape:export-filename="/home/vladimir/vectorizados/path3255.png"
         sodipodi:nodetypes="cc"
         id="path12266"
         d="m 195.68836,241.5483 c 17.09947,3.46014 34.56676,5.05982 53.25092,0.50438"
         style="fill:none;stroke:#f11414;stroke-width:2.40758824px;stroke-linecap:butt;stroke-linejoin:miter;stroke-opacity:1"
         inkscape:connector-curvature="0" />
      <path
         inkscape:export-ydpi="90"
         inkscape:export-xdpi="90"
         inkscape:export-filename="/home/vladimir/vectorizados/path3255.png"
         sodipodi:nodetypes="ccc"
         id="path12268"
         d="M 329.71317,195.64717 C 329.1086,88.824031 237.38447,86.315531 208.06547,88.290708 193.3052,105.08375 317.55721,163.39017 329.71317,195.64717 z"
         style="fill:#ff2a2a;fill-rule:evenodd;stroke:none"
         inkscape:connector-curvature="0" />
      <g
         inkscape:export-ydpi="90"
         inkscape:export-xdpi="90"
         inkscape:export-filename="/home/vladimir/vectorizados/path3255.png"
         transform="matrix(2.6221646,0,0,2.2105713,-176.46988,-154.71643)"
         id="g12247">
        <path
           sodipodi:type="arc"
           style="fill:#000000;fill-opacity:1;fill-rule:nonzero;stroke:#000000;stroke-width:1;stroke-linejoin:round;stroke-miterlimit:4;stroke-opacity:1;stroke-dasharray:none"
           id="path12220"
           sodipodi:cx="74.614807"
           sodipodi:cy="145.37425"
           sodipodi:rx="5.2481365"
           sodipodi:ry="4.9058666"
           d="m 79.862944,145.37425 c 0,2.70944 -2.349671,4.90587 -5.248137,4.90587 -2.898466,0 -5.248136,-2.19643 -5.248136,-4.90587 0,-2.70943 2.34967,-4.90586 5.248136,-4.90586 2.898466,0 5.248137,2.19643 5.248137,4.90586 z"
           transform="matrix(-1,0,0,1,243.29827,8.784497)" />
        <path
           style="fill:none;stroke:#000000;stroke-width:1px;stroke-linecap:butt;stroke-linejoin:miter;stroke-opacity:1"
           d="m 158.87173,153.7845 c 11.22653,-11.02998 15.87672,0.28838 25.09978,0"
           id="path12222"
           sodipodi:nodetypes="cc"
           inkscape:connector-curvature="0" />
        <path
           sodipodi:type="arc"
           style="fill:#ffffff;fill-opacity:1;fill-rule:nonzero;stroke:none"
           id="path12224"
           sodipodi:cx="71.192116"
           sodipodi:cy="116.16723"
           sodipodi:rx="1.3690791"
           sodipodi:ry="1.4831691"
           d="m 72.561195,116.16723 c 0,0.81913 -0.612958,1.48317 -1.369079,1.48317 -0.756122,0 -1.369079,-0.66404 -1.369079,-1.48317 0,-0.81913 0.612957,-1.48317 1.369079,-1.48317 0.756121,0 1.369079,0.66404 1.369079,1.48317 z"
           transform="matrix(-1,0,0,1,241.77219,35.31594)" />
        <path
           style="fill:none;stroke:#000000;stroke-width:1px;stroke-linecap:butt;stroke-linejoin:miter;stroke-opacity:1"
           d="m 179.17973,152.4474 c 1.67299,-0.32053 3.05401,-1.517 4.11854,-3.6629"
           id="path12226"
           sodipodi:nodetypes="cc"
           inkscape:connector-curvature="0" />
        <path
           style="fill:none;stroke:#000000;stroke-width:0.89013016px;stroke-linecap:butt;stroke-linejoin:miter;stroke-opacity:1"
           d="m 175.78743,150.95334 c 4.61639,-1.77003 4.54188,-4.06586 5.0445,-6.29701"
           id="path12228"
           sodipodi:nodetypes="cc"
           inkscape:connector-curvature="0" />
        <path
           style="fill:none;stroke:#000000;stroke-width:0.89013016px;stroke-linecap:butt;stroke-linejoin:miter;stroke-opacity:1"
           d="m 171.43082,149.50454 c 3.87448,-1.79198 1.9342,-4.23575 1.88583,-6.46745"
           id="path12230"
           sodipodi:nodetypes="cc"
           inkscape:connector-curvature="0" />
        <path
           style="fill:none;stroke:#000000;stroke-width:0.89013016px;stroke-linecap:butt;stroke-linejoin:miter;stroke-opacity:1"
           d="m 166.15704,149.33411 c 2.3528,-2.03904 0.45035,-4.07807 -0.68789,-6.1171"
           id="path12232"
           sodipodi:nodetypes="cc"
           inkscape:connector-curvature="0" />
        <path
           style="fill:none;stroke:#000000;stroke-width:0.89013016px;stroke-linecap:butt;stroke-linejoin:miter;stroke-opacity:1"
           d="m 161.11255,151.13325 c 0.89867,-2.89895 -1.52647,-2.53789 -2.86921,-3.23845"
           id="path12234"
           sodipodi:nodetypes="cc"
           inkscape:connector-curvature="0" />
        <path
           style="fill:none;stroke:#000000;stroke-width:1px;stroke-linecap:butt;stroke-linejoin:miter;stroke-opacity:1"
           d="m 158.87173,143.7845 c 7.54677,-3.80411 15.1303,-6.94672 23.27434,0 l 0,0"
           id="path12236"
           sodipodi:nodetypes="ccc"
           inkscape:connector-curvature="0" />
      </g>
      <path
         inkscape:export-ydpi="90"
         inkscape:export-xdpi="90"
         inkscape:export-filename="/home/vladimir/vectorizados/path3255.png"
         sodipodi:nodetypes="ccccccc"
         id="path3187"
         d="m 209.45071,244.26495 8.08337,-9.1457 c 4.75328,1.97652 6.5348,4.90634 6.15876,8.5283 -0.0745,-4.4845 2.52121,-6.82746 6.54369,-8.02624 l 8.26947,8.02624 -15.39266,13.58289 -13.66263,-12.96549 z"
         style="fill:#d40000;fill-rule:evenodd;stroke:none"
         inkscape:connector-curvature="0" />
      <path
         inkscape:export-ydpi="90"
         inkscape:export-xdpi="90"
         inkscape:export-filename="/home/vladimir/vectorizados/path3255.png"
         transform="matrix(2.4123914,0,0,2.0603044,284.65324,-112.2436)"
         d="m -44.531917,164.40425 c 0,5.34659 -3.611887,9.68085 -8.067376,9.68085 -4.455489,0 -8.067376,-4.33426 -8.067376,-9.68085 0,-5.34659 3.611887,-9.68085 8.067376,-9.68085 4.455489,0 8.067376,4.33426 8.067376,9.68085 z"
         sodipodi:ry="9.680851"
         sodipodi:rx="8.0673761"
         sodipodi:cy="164.40425"
         sodipodi:cx="-52.599293"
         id="path3253"
         style="opacity:0.59183673;fill:#ff5555;fill-opacity:1;fill-rule:nonzero;stroke:none"
         sodipodi:type="arc" />
      <path
         inkscape:export-ydpi="90"
         inkscape:export-xdpi="90"
         transform="matrix(2.4123914,0,0,2.0603044,405.23096,-111.44578)"
         d="m -44.531917,164.40425 c 0,5.34659 -3.611887,9.68085 -8.067376,9.68085 -4.455489,0 -8.067376,-4.33426 -8.067376,-9.68085 0,-5.34659 3.611887,-9.68085 8.067376,-9.68085 4.455489,0 8.067376,4.33426 8.067376,9.68085 z"
         sodipodi:ry="9.680851"
         sodipodi:rx="8.0673761"
         sodipodi:cy="164.40425"
         sodipodi:cx="-52.599293"
         id="path3255"
         style="opacity:0.59183673;fill:#ff5555;fill-opacity:1;fill-rule:nonzero;stroke:none"
         sodipodi:type="arc" />
      <path
         sodipodi:nodetypes="cccc"
         id="path3383"
         d="m 71.441623,371.12008 c 17.950684,15.35461 24.380257,34.15939 60.341807,43.0841 13.34841,0.0837 9.07754,-4.026 8.35502,-7.29116 -19.0239,-4.55288 -42.249229,-17.10528 -68.696827,-35.79294 z"
         style="fill:#00d4aa;fill-rule:evenodd;stroke:none"
         inkscape:connector-curvature="0" />
      <path
         sodipodi:nodetypes="cccc"
         id="path3390"
         d="m 65.903014,410.67253 c 22.896841,9.56733 35.568866,26.60274 74.101866,23.43543 13.21789,-4.47831 7.61679,-7.22151 5.80568,-10.31415 -20.32765,1.84772 -47.494791,-3.05003 -79.907546,-13.12128 z"
         style="fill:#00aa88;fill-rule:evenodd;stroke:none"
         inkscape:connector-curvature="0" />
      <path
         sodipodi:nodetypes="cccc"
         id="path3392"
         d="m 104.40679,480.74835 c 17.95069,-15.35458 24.38026,-34.15938 60.34181,-43.08407 13.34841,-0.0837 9.07754,4.026 8.35503,7.29116 -19.02391,4.55288 -42.24924,17.10528 -68.69684,35.79291 z"
         style="fill:#d5fff6;fill-rule:evenodd;stroke:none"
         inkscape:connector-curvature="0" />
      <path
         sodipodi:nodetypes="cccc"
         id="path3394"
         d="m 87.021948,466.72617 c 22.896842,-9.56733 35.568872,-26.60277 74.101872,-23.43543 13.21789,4.47828 7.61679,7.2215 5.80568,10.31413 -20.32765,-1.84772 -47.49479,3.05005 -79.907552,13.1213 z"
         style="fill:#00d4aa;fill-rule:evenodd;stroke:none"
         inkscape:connector-curvature="0" />
      <path
         sodipodi:nodetypes="cccc"
         id="path3400"
         d="m 382.77951,447.25178 c -23.64602,5.0151 -39.07224,18.38728 -75.02642,9.43623 -11.65736,-6.13183 -5.79273,-7.72223 -3.4569,-10.22719 18.93197,4.88165 45.70196,4.75634 78.48332,0.79096 z"
         style="fill:#00aa88;fill-rule:evenodd;stroke:none"
         inkscape:connector-curvature="0" />
      <path
         sodipodi:nodetypes="cccc"
         id="path3402"
         d="m 354.52058,411.77513 c -22.89685,9.56733 -35.56888,26.60274 -74.10188,23.43543 -13.21788,-4.47831 -7.61678,-7.22151 -5.80568,-10.31415 20.32765,1.84772 47.4948,-3.05003 79.90756,-13.12128 z"
         style="fill:#d5fff6;fill-rule:evenodd;stroke:none"
         inkscape:connector-curvature="0" />
      <path
         sodipodi:nodetypes="cccc"
         id="path3404"
         d="M 72.322857,453.26177 C 63.496496,443.025 60.33507,430.48803 42.65276,424.53801 c -6.563425,-0.0558 -4.463433,2.6841 -4.108171,4.86095 9.354066,3.03538 20.77397,11.40394 33.778268,23.86281 z"
         style="fill:#d5fff6;fill-rule:evenodd;stroke:none"
         inkscape:connector-curvature="0" />
      <path
         sodipodi:nodetypes="cccc"
         id="path3406"
         d="m 365.55569,421.68753 c -22.89684,-9.56733 -35.56887,-26.60274 -74.10187,-23.43543 -13.21789,4.47829 -7.61679,7.2215 -5.80568,10.31415 20.32765,-1.84772 47.49479,3.05003 79.90755,13.12128 z"
         style="fill:#00aa88;fill-rule:evenodd;stroke:none"
         inkscape:connector-curvature="0" />
      <path
         sodipodi:nodetypes="ccc"
         id="path3408"
         d="m 216.36237,433.11461 c 5.65459,-55.33085 -38.48221,-54.32538 -76.15438,-60.63436 8.59137,38.92441 18.94496,75.8852 76.15438,60.63436 z"
         style="fill:#b7c8c4;fill-rule:evenodd;stroke:none"
         inkscape:connector-curvature="0" />
      <path
         sodipodi:nodetypes="ccc"
         id="path3412"
         d="m 226.57441,443.82502 c -55.21159,-19.4923 -65.62292,20.96112 -81.85089,53.63158 42.09872,2.26645 82.64287,2.41908 81.85089,-53.63158 z"
         style="fill:#b7c8c4;fill-rule:evenodd;stroke:none"
         inkscape:connector-curvature="0" />
      <path
         sodipodi:nodetypes="ccc"
         id="path3414"
         d="m 225.38222,435.0781 c 58.76512,4.4591 57.00342,-37.13527 63.10024,-72.75029 -41.14231,8.71287 -80.17452,19.05616 -63.10024,72.75029 z"
         style="fill:#b7c8c4;fill-rule:evenodd;stroke:none"
         inkscape:connector-curvature="0" />
      <path
         sodipodi:nodetypes="ccc"
         id="path3410"
         d="m 222.31507,433.53714 c 56.93415,14.4296 63.19876,-26.77668 76.04207,-60.75953 -42.13583,1.53626 -82.50998,5.03658 -76.04207,60.75953 z"
         style="opacity:0.57653061;fill:#eeaaff;fill-rule:evenodd;stroke:none"
         inkscape:connector-curvature="0" />
      <path
         sodipodi:nodetypes="ccc"
         id="path3416"
         d="m 229.32567,447.34987 c 9.66692,54.83475 52.03651,43.13357 90.16019,40.07108 -18.94485,-35.5198 -39.05541,-68.71395 -90.16019,-40.07108 z"
         style="fill:#b7c8c4;fill-rule:evenodd;stroke:none"
         inkscape:connector-curvature="0" />
      <path
         sodipodi:nodetypes="ccc"
         id="path3418"
         d="m 225.90096,436.49878 c -58.15953,9.10133 -45.75968,49.05328 -42.52091,84.99976 37.67654,-17.85391 72.88681,-36.8075 42.52091,-84.99976 z"
         style="opacity:0.57653061;fill:#eeaaff;fill-rule:evenodd;stroke:none"
         inkscape:connector-curvature="0" />
      <path
         sodipodi:nodetypes="cccc"
         id="path3420"
         d="m 354.18942,427.75966 c 14.02347,6.74288 22.66492,21.21133 44.82022,14.93814 7.34554,-5.25375 3.88489,-7.27159 2.60053,-9.94107 -11.67453,3.47108 -27.82951,1.37274 -47.42075,-4.99707 z"
         style="fill:#00d4aa;fill-rule:evenodd;stroke:none"
         inkscape:connector-curvature="0" />
      <path
         inkscape:export-ydpi="90"
         inkscape:export-xdpi="90"
         inkscape:export-filename="/home/vladimir/vectorizados/path3255.png"
         transform="matrix(2.6966881,0,0,2.4703816,-189.4623,-205.80769)"
         sodipodi:open="true"
         sodipodi:end="2.9629802"
         sodipodi:start="0.35563588"
         d="m 219.52819,251.60915 c -13.58974,10.19112 -54.26667,15.38409 -90.85445,11.59881 -23.41627,-2.42258 -40.501582,-8.10841 -44.939519,-14.95544"
         sodipodi:ry="19.684399"
         sodipodi:rx="70.670212"
         sodipodi:cy="244.75531"
         sodipodi:cx="153.28015"
         id="path3506"
         style="opacity:0.85714285;fill:none;stroke:#170d0d;stroke-width:1.16231513;stroke-linejoin:round;stroke-miterlimit:4;stroke-opacity:1;stroke-dasharray:none"
         sodipodi:type="arc" />
      <path
         inkscape:export-ydpi="90"
         inkscape:export-xdpi="90"
         inkscape:export-filename="/home/vladimir/vectorizados/path3255.png"
         sodipodi:nodetypes="ccccccc"
         id="path3214"
         d="m 97.175585,574.62381 c -33.731231,-29.31845 -87.8226316,-161.61961 0,-291.63733 -2.869758,-62.51317 0.724836,-182.3855 11.617025,-186.236654 18.77374,17.618934 120.39715,37.130264 201.72685,2.982401 12.03174,10.401123 28.6637,71.665473 22.20343,184.299593 62.60109,97.55424 54.89244,216.60806 9.03546,289.32685 -83.43487,38.12984 -165.32221,40.06488 -244.582765,1.26514 z"
         style="opacity:0.23500001;fill:#000000;fill-rule:evenodd;stroke:#000000;stroke-width:2.77933073;stroke-linecap:butt;stroke-linejoin:miter;stroke-miterlimit:4;stroke-opacity:1;stroke-dasharray:none"
         inkscape:connector-curvature="0" />
      <path
         id="path3635"
         d="m 227.99437,88.056124 -16.92319,24.533206 0,0"
         style="opacity:0.16326527;fill:none;stroke:#000000;stroke-width:2.42142773px;stroke-linecap:butt;stroke-linejoin:miter;stroke-opacity:1"
         inkscape:connector-curvature="0" />
      <path
         transform="matrix(1.7481098,0,0,1.3975363,295.50113,199.95619)"
         sodipodi:open="true"
         sodipodi:end="5.1971918"
         sodipodi:start="0"
         d="m 34.851066,165.69502 c 0,2.85152 -2.600559,5.16312 -5.808511,5.16312 -3.207952,0 -5.808511,-2.3116 -5.808511,-5.16312 0,-2.85151 2.600559,-5.16312 5.808511,-5.16312 0.943284,0 1.872376,0.20421 2.706963,0.59496"
         sodipodi:ry="5.1631207"
         sodipodi:rx="5.8085108"
         sodipodi:cy="165.69502"
         sodipodi:cx="29.042555"
         id="path3707"
         style="opacity:0.62244897;fill:#ffffff;fill-opacity:1;fill-rule:nonzero;stroke:none"
         sodipodi:type="arc" />
      <path
         transform="matrix(1.7481098,0,0,1.3975363,274.35647,243.25009)"
         sodipodi:open="true"
         sodipodi:end="5.1971918"
         sodipodi:start="0"
         d="m 34.851066,165.69502 c 0,2.85152 -2.600559,5.16312 -5.808511,5.16312 -3.207952,0 -5.808511,-2.3116 -5.808511,-5.16312 0,-2.85151 2.600559,-5.16312 5.808511,-5.16312 0.943284,0 1.872376,0.20421 2.706963,0.59496"
         sodipodi:ry="5.1631207"
         sodipodi:rx="5.8085108"
         sodipodi:cy="165.69502"
         sodipodi:cx="29.042555"
         id="path3709"
         style="opacity:0.62244897;fill:#ffffff;fill-opacity:1;fill-rule:nonzero;stroke:none"
         sodipodi:type="arc" />
      <path
         transform="matrix(1.7481098,0,0,1.3975363,89.2242,244.69322)"
         sodipodi:open="true"
         sodipodi:end="5.1971918"
         sodipodi:start="0"
         d="m 34.851066,165.69502 c 0,2.85152 -2.600559,5.16312 -5.808511,5.16312 -3.207952,0 -5.808511,-2.3116 -5.808511,-5.16312 0,-2.85151 2.600559,-5.16312 5.808511,-5.16312 0.943284,0 1.872376,0.20421 2.706963,0.59496"
         sodipodi:ry="5.1631207"
         sodipodi:rx="5.8085108"
         sodipodi:cy="165.69502"
         sodipodi:cx="29.042555"
         id="path3711"
         style="opacity:0.62244897;fill:#ffffff;fill-opacity:1;fill-rule:nonzero;stroke:none"
         sodipodi:type="arc" />
      <path
         transform="matrix(1.7481098,0,0,1.3975363,43.531586,175.42298)"
         sodipodi:open="true"
         sodipodi:end="5.1971918"
         sodipodi:start="0"
         d="m 34.851066,165.69502 c 0,2.85152 -2.600559,5.16312 -5.808511,5.16312 -3.207952,0 -5.808511,-2.3116 -5.808511,-5.16312 0,-2.85151 2.600559,-5.16312 5.808511,-5.16312 0.943284,0 1.872376,0.20421 2.706963,0.59496"
         sodipodi:ry="5.1631207"
         sodipodi:rx="5.8085108"
         sodipodi:cy="165.69502"
         sodipodi:cx="29.042555"
         id="path3713"
         style="opacity:0.62244897;fill:#ffffff;fill-opacity:1;fill-rule:nonzero;stroke:none"
         sodipodi:type="arc" />
      <path
         sodipodi:nodetypes="ccc"
         id="path3212"
         d="M 312.25532,96.581549 C 105.11577,116.00408 109.83536,80.065679 147.14894,60.4397 12.303098,124.70736 292.57167,123.85113 312.25532,96.581549 z"
         style="opacity:0.38500001;fill:#ffffff;fill-rule:evenodd;stroke:none"
         inkscape:connector-curvature="0" />
    </g>
  </g>
</svg>
