<?xml version="1.0" encoding="UTF-8" standalone="no"?>
<!-- Created with Inkscape (http://www.inkscape.org/) -->

<svg
   xmlns:dc="http://purl.org/dc/elements/1.1/"
   xmlns:cc="http://creativecommons.org/ns#"
   xmlns:rdf="http://www.w3.org/1999/02/22-rdf-syntax-ns#"
   xmlns:svg="http://www.w3.org/2000/svg"
   xmlns="http://www.w3.org/2000/svg"
   xmlns:xlink="http://www.w3.org/1999/xlink"
   xmlns:sodipodi="http://sodipodi.sourceforge.net/DTD/sodipodi-0.dtd"
   xmlns:inkscape="http://www.inkscape.org/namespaces/inkscape"
   width="492.58572"
   height="511.06573"
   id="svg3266"
   version="1.1"
   inkscape:version="0.48.3.1 r9886"
   sodipodi:docname="regalo.svg">
  <defs
     id="defs3268">
    <linearGradient
       inkscape:collect="always"
       xlink:href="#linearGradient6669"
       id="linearGradient6675"
       x1="-409.63589"
       y1="2405.2412"
       x2="207.06407"
       y2="2405.2412"
       gradientUnits="userSpaceOnUse" />
    <linearGradient
       inkscape:collect="always"
       id="linearGradient6669">
      <stop
         style="stop-color:#000000;stop-opacity:1;"
         offset="0"
         id="stop6671" />
      <stop
         style="stop-color:#000000;stop-opacity:0;"
         offset="1"
         id="stop6673" />
    </linearGradient>
    <linearGradient
       inkscape:collect="always"
       xlink:href="#linearGradient6669"
       id="linearGradient3288"
       x1="-409.63589"
       y1="2405.2412"
       x2="207.06407"
       y2="2405.2412"
       gradientUnits="userSpaceOnUse" />
    <linearGradient
       inkscape:collect="always"
       xlink:href="#linearGradient6669"
       id="linearGradient3296"
       x1="-409.63589"
       y1="2405.2412"
       x2="207.06407"
       y2="2405.2412"
       gradientUnits="userSpaceOnUse" />
    <linearGradient
       gradientUnits="userSpaceOnUse"
       xlink:href="#linearGradient5325-92-2-4"
       id="linearGradient6131-4-4"
       y2="746.78821"
       x2="-630.68909"
       y1="746.78821"
       x1="-654.87616" />
    <linearGradient
       id="linearGradient5325-92-2-4">
      <stop
         offset="0"
         style="stop-color:#000000;stop-opacity:1"
         id="stop5327-2-9-0" />
      <stop
         offset="1"
         style="stop-color:#000000;stop-opacity:0"
         id="stop5329-47-9-3" />
    </linearGradient>
    <linearGradient
       gradientTransform="translate(897.43131,-162.73819)"
       gradientUnits="userSpaceOnUse"
       xlink:href="#linearGradient5325-9-5-2-3"
       id="linearGradient6133-8-8"
       y2="746.78821"
       x2="-630.68909"
       y1="746.78821"
       x1="-654.87616" />
    <linearGradient
       id="linearGradient5325-9-5-2-3">
      <stop
         offset="0"
         style="stop-color:#000000;stop-opacity:1"
         id="stop5327-6-4-1-0" />
      <stop
         offset="1"
         style="stop-color:#000000;stop-opacity:0"
         id="stop5329-4-8-3-9" />
    </linearGradient>
    <filter
       color-interpolation-filters="sRGB"
       inkscape:collect="always"
       id="filter7638"
       x="-0.29884088"
       width="1.5976818"
       y="-0.065629415"
       height="1.1312588">
      <feGaussianBlur
         inkscape:collect="always"
         stdDeviation="2.8405448"
         id="feGaussianBlur7640" />
    </filter>
    <filter
       color-interpolation-filters="sRGB"
       inkscape:collect="always"
       id="filter7652"
       x="-0.61929715"
       width="2.2385943"
       y="-0.14227428"
       height="1.2845486">
      <feGaussianBlur
         inkscape:collect="always"
         stdDeviation="6.845463"
         id="feGaussianBlur7654" />
    </filter>
    <filter
       color-interpolation-filters="sRGB"
       inkscape:collect="always"
       id="filter7025-3">
      <feGaussianBlur
         inkscape:collect="always"
         stdDeviation="7.956438"
         id="feGaussianBlur7027-0" />
    </filter>
    <filter
       color-interpolation-filters="sRGB"
       inkscape:collect="always"
       id="filter6987-2">
      <feGaussianBlur
         inkscape:collect="always"
         stdDeviation="9.7245353"
         id="feGaussianBlur6989-9" />
    </filter>
    <filter
       color-interpolation-filters="sRGB"
       inkscape:collect="always"
       id="filter5937-60">
      <feGaussianBlur
         inkscape:collect="always"
         stdDeviation="7.277745"
         id="feGaussianBlur5939-93" />
    </filter>
    <filter
       color-interpolation-filters="sRGB"
       inkscape:collect="always"
       id="filter5937-6-5">
      <feGaussianBlur
         inkscape:collect="always"
         stdDeviation="7.277745"
         id="feGaussianBlur5939-9-43" />
    </filter>
    <filter
       color-interpolation-filters="sRGB"
       inkscape:collect="always"
       id="filter7228-6"
       x="-0.27631354"
       width="1.5526271"
       y="-0.37308449"
       height="1.746169">
      <feGaussianBlur
         inkscape:collect="always"
         stdDeviation="12.515689"
         id="feGaussianBlur7230-43" />
    </filter>
    <filter
       color-interpolation-filters="sRGB"
       inkscape:collect="always"
       id="filter5937-6-2-1">
      <feGaussianBlur
         inkscape:collect="always"
         stdDeviation="7.277745"
         id="feGaussianBlur5939-9-4-9" />
    </filter>
    <filter
       color-interpolation-filters="sRGB"
       inkscape:collect="always"
       id="filter7088-5"
       x="-0.14407653"
       width="1.2881531"
       y="-0.21395741"
       height="1.4279149">
      <feGaussianBlur
         inkscape:collect="always"
         stdDeviation="2.4102922"
         id="feGaussianBlur7090-6" />
    </filter>
    <linearGradient
       inkscape:collect="always"
       xlink:href="#linearGradient6093-5-5"
       id="linearGradient13458-1"
       gradientUnits="userSpaceOnUse"
       gradientTransform="translate(-419.3322,-2331.7599)"
       x1="551.74866"
       y1="2670.2249"
       x2="686.7168"
       y2="2670.2249" />
    <linearGradient
       inkscape:collect="always"
       id="linearGradient6093-5-5">
      <stop
         style="stop-color:#000000;stop-opacity:1;"
         offset="0"
         id="stop6095-9-1" />
      <stop
         style="stop-color:#000000;stop-opacity:0;"
         offset="1"
         id="stop6097-1-96" />
    </linearGradient>
    <filter
       color-interpolation-filters="sRGB"
       inkscape:collect="always"
       id="filter5937-8-7">
      <feGaussianBlur
         inkscape:collect="always"
         stdDeviation="7.277745"
         id="feGaussianBlur5939-1-7" />
    </filter>
    <radialGradient
       inkscape:collect="always"
       xlink:href="#linearGradient6126-1-7"
       id="radialGradient13517-281"
       gradientUnits="userSpaceOnUse"
       gradientTransform="matrix(1,0,0,0.64434741,-419.3322,-1390.0696)"
       cx="653.90381"
       cy="2647.7812"
       fx="653.90381"
       fy="2647.7812"
       r="49.226162" />
    <linearGradient
       inkscape:collect="always"
       id="linearGradient6126-1-7">
      <stop
         style="stop-color:#ffffff;stop-opacity:1;"
         offset="0"
         id="stop6128-1-35" />
      <stop
         style="stop-color:#ffffff;stop-opacity:0;"
         offset="1"
         id="stop6130-9-0" />
    </linearGradient>
    <linearGradient
       inkscape:collect="always"
       xlink:href="#linearGradient6093-6-3-9"
       id="linearGradient13462-3"
       gradientUnits="userSpaceOnUse"
       gradientTransform="translate(-419.3322,-2331.7599)"
       x1="551.74866"
       y1="2670.2249"
       x2="686.7168"
       y2="2670.2249" />
    <linearGradient
       inkscape:collect="always"
       id="linearGradient6093-6-3-9">
      <stop
         style="stop-color:#000000;stop-opacity:1;"
         offset="0"
         id="stop6095-6-8-6" />
      <stop
         style="stop-color:#000000;stop-opacity:0;"
         offset="1"
         id="stop6097-4-7-2" />
    </linearGradient>
    <filter
       color-interpolation-filters="sRGB"
       inkscape:collect="always"
       id="filter6452-4"
       x="-0.15236033"
       width="1.3047208"
       y="-0.24687412"
       height="1.4937483">
      <feGaussianBlur
         inkscape:collect="always"
         stdDeviation="2.8170839"
         id="feGaussianBlur6454-9" />
    </filter>
    <radialGradient
       inkscape:collect="always"
       xlink:href="#linearGradient6460-1-4"
       id="radialGradient13464-50"
       gradientUnits="userSpaceOnUse"
       gradientTransform="matrix(1,0,0,0.44897959,-423.92839,-887.16736)"
       cx="618.54169"
       cy="2627.4426"
       fx="618.54169"
       fy="2627.4426"
       r="8.6620579" />
    <linearGradient
       inkscape:collect="always"
       id="linearGradient6460-1-4">
      <stop
         style="stop-color:#ffffff;stop-opacity:1;"
         offset="0"
         id="stop6462-3-2" />
      <stop
         style="stop-color:#ffffff;stop-opacity:0;"
         offset="1"
         id="stop6464-8-0" />
    </linearGradient>
    <filter
       color-interpolation-filters="sRGB"
       inkscape:collect="always"
       id="filter6527-79"
       x="-0.6518051"
       width="2.3036103"
       y="-0.16849384"
       height="1.3369877">
      <feGaussianBlur
         inkscape:collect="always"
         stdDeviation="2.580062"
         id="feGaussianBlur6529-3" />
    </filter>
    <filter
       color-interpolation-filters="sRGB"
       inkscape:collect="always"
       id="filter6585-8-9">
      <feGaussianBlur
         inkscape:collect="always"
         stdDeviation="2.0134725"
         id="feGaussianBlur6587-8-4" />
    </filter>
    <filter
       color-interpolation-filters="sRGB"
       inkscape:collect="always"
       id="filter6527-7-4"
       x="-0.6518051"
       width="2.3036103"
       y="-0.16849384"
       height="1.3369877">
      <feGaussianBlur
         inkscape:collect="always"
         stdDeviation="2.580062"
         id="feGaussianBlur6529-5-0" />
    </filter>
    <filter
       color-interpolation-filters="sRGB"
       inkscape:collect="always"
       id="filter6686-0-3"
       x="-0.14261886"
       width="1.2852377"
       y="-0.1093168"
       height="1.2186337">
      <feGaussianBlur
         inkscape:collect="always"
         stdDeviation="2.7933996"
         id="feGaussianBlur6688-8-8" />
    </filter>
    <filter
       color-interpolation-filters="sRGB"
       inkscape:collect="always"
       id="filter6527-7-8-6"
       x="-0.6518051"
       width="2.3036103"
       y="-0.16849384"
       height="1.3369877">
      <feGaussianBlur
         inkscape:collect="always"
         stdDeviation="2.580062"
         id="feGaussianBlur6529-5-2-8" />
    </filter>
    <filter
       color-interpolation-filters="sRGB"
       inkscape:collect="always"
       id="filter6748-2-2"
       x="-0.11093106"
       width="1.2218621"
       y="-0.077832296"
       height="1.1556646">
      <feGaussianBlur
         inkscape:collect="always"
         stdDeviation="2.0831602"
         id="feGaussianBlur6750-3-9" />
    </filter>
    <filter
       color-interpolation-filters="sRGB"
       inkscape:collect="always"
       id="filter6527-7-8-0-8"
       x="-0.6518051"
       width="2.3036103"
       y="-0.16849384"
       height="1.3369877">
      <feGaussianBlur
         inkscape:collect="always"
         stdDeviation="2.580062"
         id="feGaussianBlur6529-5-2-2-5" />
    </filter>
    <filter
       color-interpolation-filters="sRGB"
       inkscape:collect="always"
       id="filter6821-0-6"
       x="-0.11781558"
       width="1.2356312"
       y="-0.090305179"
       height="1.1806104">
      <feGaussianBlur
         inkscape:collect="always"
         stdDeviation="2.307591"
         id="feGaussianBlur6823-5-4" />
    </filter>
    <filter
       color-interpolation-filters="sRGB"
       inkscape:collect="always"
       id="filter6527-7-8-3-9"
       x="-0.6518051"
       width="2.3036103"
       y="-0.16849384"
       height="1.3369877">
      <feGaussianBlur
         inkscape:collect="always"
         stdDeviation="2.580062"
         id="feGaussianBlur6529-5-2-21-2" />
    </filter>
    <filter
       color-interpolation-filters="sRGB"
       inkscape:collect="always"
       id="filter7228-4-6"
       x="-0.27631354"
       width="1.5526271"
       y="-0.37308449"
       height="1.746169">
      <feGaussianBlur
         inkscape:collect="always"
         stdDeviation="12.515689"
         id="feGaussianBlur7230-4-8" />
    </filter>
    <filter
       color-interpolation-filters="sRGB"
       inkscape:collect="always"
       id="filter7088-2-5"
       x="-0.14407653"
       width="1.2881531"
       y="-0.21395741"
       height="1.4279149">
      <feGaussianBlur
         inkscape:collect="always"
         stdDeviation="2.4102922"
         id="feGaussianBlur7090-3-2" />
    </filter>
    <linearGradient
       inkscape:collect="always"
       xlink:href="#linearGradient6093-8-3-04"
       id="linearGradient13466-21"
       gradientUnits="userSpaceOnUse"
       x1="551.74866"
       y1="2670.2249"
       x2="686.7168"
       y2="2670.2249" />
    <linearGradient
       inkscape:collect="always"
       id="linearGradient6093-8-3-04">
      <stop
         style="stop-color:#000000;stop-opacity:1;"
         offset="0"
         id="stop6095-7-6-7" />
      <stop
         style="stop-color:#000000;stop-opacity:0;"
         offset="1"
         id="stop6097-41-7-7" />
    </linearGradient>
    <filter
       color-interpolation-filters="sRGB"
       inkscape:collect="always"
       id="filter5937-8-6-8">
      <feGaussianBlur
         inkscape:collect="always"
         stdDeviation="7.277745"
         id="feGaussianBlur5939-1-3-7" />
    </filter>
    <radialGradient
       inkscape:collect="always"
       xlink:href="#linearGradient6126-5-6-3"
       id="radialGradient13492-84"
       gradientUnits="userSpaceOnUse"
       gradientTransform="matrix(-1,0,0,0.64434741,1123.1026,-1392.0744)"
       cx="653.90381"
       cy="2647.7812"
       fx="653.90381"
       fy="2647.7812"
       r="49.226162" />
    <linearGradient
       inkscape:collect="always"
       id="linearGradient6126-5-6-3">
      <stop
         style="stop-color:#ffffff;stop-opacity:1;"
         offset="0"
         id="stop6128-5-6-1" />
      <stop
         style="stop-color:#ffffff;stop-opacity:0;"
         offset="1"
         id="stop6130-0-2-5" />
    </linearGradient>
    <linearGradient
       inkscape:collect="always"
       xlink:href="#linearGradient6093-6-2-7-4"
       id="linearGradient13470-8"
       gradientUnits="userSpaceOnUse"
       x1="551.74866"
       y1="2670.2249"
       x2="686.7168"
       y2="2670.2249" />
    <linearGradient
       inkscape:collect="always"
       id="linearGradient6093-6-2-7-4">
      <stop
         style="stop-color:#000000;stop-opacity:1;"
         offset="0"
         id="stop6095-6-6-0-6" />
      <stop
         style="stop-color:#000000;stop-opacity:0;"
         offset="1"
         id="stop6097-4-4-3-6" />
    </linearGradient>
    <filter
       color-interpolation-filters="sRGB"
       inkscape:collect="always"
       id="filter6452-8-7"
       x="-0.15236033"
       width="1.3047208"
       y="-0.24687412"
       height="1.4937483">
      <feGaussianBlur
         inkscape:collect="always"
         stdDeviation="2.8170839"
         id="feGaussianBlur6454-5-2" />
    </filter>
    <radialGradient
       inkscape:collect="always"
       xlink:href="#linearGradient6460-2-5-5"
       id="radialGradient13472-7"
       gradientUnits="userSpaceOnUse"
       gradientTransform="matrix(-1,0,0,0.44897959,1127.6989,-889.17216)"
       cx="618.54169"
       cy="2627.4426"
       fx="618.54169"
       fy="2627.4426"
       r="8.6620579" />
    <linearGradient
       inkscape:collect="always"
       id="linearGradient6460-2-5-5">
      <stop
         style="stop-color:#ffffff;stop-opacity:1;"
         offset="0"
         id="stop6462-5-1-7" />
      <stop
         style="stop-color:#ffffff;stop-opacity:0;"
         offset="1"
         id="stop6464-2-7-6" />
    </linearGradient>
    <filter
       color-interpolation-filters="sRGB"
       inkscape:collect="always"
       id="filter7296-8"
       x="-0.12257945"
       width="1.2451589"
       y="-0.28930089"
       height="1.5786018">
      <feGaussianBlur
         inkscape:collect="always"
         stdDeviation="4.2679354"
         id="feGaussianBlur7298-9" />
    </filter>
    <radialGradient
       inkscape:collect="always"
       xlink:href="#linearGradient7337-1-6"
       id="radialGradient13474-83"
       gradientUnits="userSpaceOnUse"
       gradientTransform="matrix(1,0,0,0.54856893,0,1188.6393)"
       cx="769.57812"
       cy="2633.0471"
       fx="769.57812"
       fy="2633.0471"
       r="43.022903" />
    <linearGradient
       inkscape:collect="always"
       id="linearGradient7337-1-6">
      <stop
         style="stop-color:#ffffff;stop-opacity:1;"
         offset="0"
         id="stop7339-6-3" />
      <stop
         style="stop-color:#ffffff;stop-opacity:0;"
         offset="1"
         id="stop7341-4-22" />
    </linearGradient>
    <filter
       color-interpolation-filters="sRGB"
       inkscape:collect="always"
       id="filter7333-3"
       x="-0.15374053"
       width="1.3074811"
       y="-0.35878289"
       height="1.7175658">
      <feGaussianBlur
         inkscape:collect="always"
         stdDeviation="4.3539798"
         id="feGaussianBlur7335-5" />
    </filter>
    <filter
       color-interpolation-filters="sRGB"
       inkscape:collect="always"
       id="filter6293-1"
       x="-0.24503523"
       width="1.4900705"
       y="-0.25008351"
       height="1.500167">
      <feGaussianBlur
         inkscape:collect="always"
         stdDeviation="3.7935793"
         id="feGaussianBlur6295-0" />
    </filter>
    <filter
       color-interpolation-filters="sRGB"
       inkscape:collect="always"
       id="filter6303-9"
       x="-0.60269058"
       width="2.2053812"
       y="-0.60269058"
       height="2.2053812">
      <feGaussianBlur
         inkscape:collect="always"
         stdDeviation="2.9506726"
         id="feGaussianBlur6305-4" />
    </filter>
  </defs>
  <sodipodi:namedview
     id="base"
     pagecolor="#ffffff"
     bordercolor="#666666"
     borderopacity="1.0"
     inkscape:pageopacity="0.0"
     inkscape:pageshadow="2"
     inkscape:zoom="0.35"
     inkscape:cx="246.30795"
     inkscape:cy="255.52771"
     inkscape:document-units="px"
     inkscape:current-layer="layer1"
     showgrid="false"
     fit-margin-top="0"
     fit-margin-left="0"
     fit-margin-right="0"
     fit-margin-bottom="0"
     inkscape:window-width="597"
     inkscape:window-height="586"
     inkscape:window-x="65"
     inkscape:window-y="24"
     inkscape:window-maximized="0" />
  <metadata
     id="metadata3271">
    <rdf:RDF>
      <cc:Work
         rdf:about="">
        <dc:format>image/svg+xml</dc:format>
        <dc:type
           rdf:resource="http://purl.org/dc/dcmitype/StillImage" />
        <dc:title></dc:title>
      </cc:Work>
    </rdf:RDF>
  </metadata>
  <g
     inkscape:label="Capa 1"
     inkscape:groupmode="layer"
     id="layer1"
     transform="translate(-103.69205,-276.82416)">
    <g
       transform="translate(-4.5200463e-6,4.477817e-5)"
       id="layer1-9"
       inkscape:label="Capa 1">
      <g
         transform="translate(1385.7729,-2865.865)"
         id="use7773"
         inkscape:tile-x0="-1057.2513"
         inkscape:tile-y0="3296.4446">
        <g
           id="g13576">
          <g
             id="g13578"
             inkscape:tile-cx="-754.28572"
             inkscape:tile-cy="1835.2193"
             inkscape:tile-w="53.5"
             inkscape:tile-h="151.25"
             inkscape:tile-x0="-781.03572"
             inkscape:tile-y0="1759.5943"
             transform="translate(-276.2156,1536.8503)">
            <path
               inkscape:connector-curvature="0"
               id="path13580"
               d="m -754.06697,1759.5943 -12.3125,23.6563 -14.65625,22.2812 13.21875,-0.5625 -2,57.6563 c -6.67168,4.8419 -11,12.6885 -11,21.5625 0,14.714 11.91093,26.6562 26.625,26.6562 14.71407,0 26.65625,-11.9422 26.65625,-26.6562 0,-8.874 -4.35957,-16.7206 -11.03125,-21.5625 l -1.96875,-57.4688 12.78125,0.75 -14.34375,-22.4687 -11.96875,-23.8438 z"
               style="color:#000000;fill:#d4aa00;fill-opacity:1;fill-rule:nonzero;stroke:#000000;stroke-width:4.27659416;stroke-linecap:butt;stroke-linejoin:miter;stroke-miterlimit:4;stroke-opacity:1;stroke-dasharray:none;stroke-dashoffset:0;marker:none;visibility:visible;display:inline;overflow:visible;enable-background:accumulate" />
            <path
               inkscape:connector-curvature="0"
               id="path13582"
               d="m -744.46875,1802.375 0.5,64.8125 -0.5,0.6563 c 0.18123,0.1315 0.35437,0.2692 0.53125,0.4062 l 0,1.25 1.625,0.1875 0,-0.031 c 4.07129,3.8627 6.625,9.2896 6.625,15.3438 0,11.1792 -8.6528,20.3719 -19.625,21.1875 0.52611,0.037 1.05756,0.063 1.59375,0.063 11.71575,0 21.21875,-9.5345 21.21875,-21.25 0,-6.7685 -4.83091,-14.4162 -9.90625,-18.4375 l -2.0625,-64.1875 z"
               style="color:#000000;fill:#000000;fill-opacity:1;fill-rule:nonzero;stroke:none;stroke-width:4.27659416;marker:none;visibility:visible;display:inline;overflow:visible;filter:url(#filter7638);enable-background:accumulate" />
          </g>
          <path
             inkscape:connector-curvature="0"
             style="opacity:0.48401824;fill:#ffffff;stroke:none;filter:url(#filter7652)"
             d="m -1031.5,3318.8622 -5,88.5 c -31.3685,41.3741 45.49792,30.2641 8.5,-0.5 l -3.5,-88 z"
             id="path13584"
             sodipodi:nodetypes="cccc" />
        </g>
      </g>
      <path
         inkscape:connector-curvature="0"
         sodipodi:nodetypes="ccccc"
         id="path4933-6-7-5"
         d="m 473.91265,621.93223 46.2899,109.907 -25.0066,0.1026 -72.0101,-87.8035 50.7268,-22.2062 z"
         style="color:#000000;fill:#d40000;fill-opacity:1;fill-rule:nonzero;stroke:#000000;stroke-width:4.48294926;stroke-linecap:butt;stroke-linejoin:miter;stroke-miterlimit:4;stroke-opacity:1;stroke-dasharray:none;stroke-dashoffset:0;marker:none;visibility:visible;display:inline;overflow:visible;enable-background:accumulate" />
      <path
         inkscape:connector-curvature="0"
         sodipodi:nodetypes="ccccc"
         id="path4933-63-01"
         d="m 226.08738,621.93223 -46.28992,109.907 25.00659,0.1026 72.0101,-87.8035 -50.72677,-22.2062 z"
         style="color:#000000;fill:#d40000;fill-opacity:1;fill-rule:nonzero;stroke:#000000;stroke-width:4.48294926;stroke-linecap:butt;stroke-linejoin:miter;stroke-miterlimit:4;stroke-opacity:1;stroke-dasharray:none;stroke-dashoffset:0;marker:none;visibility:visible;display:inline;overflow:visible;enable-background:accumulate" />
      <path
         inkscape:connector-curvature="0"
         sodipodi:nodetypes="ccccc"
         id="path4933-6-7-9-5"
         d="m 473.91265,621.93223 46.2899,109.907 -25.0066,0.1026 -72.0101,-87.8035 50.7268,-22.2062 z"
         style="opacity:0.33333333;color:#000000;fill:#000000;fill-opacity:1;fill-rule:nonzero;stroke:#000000;stroke-width:4.48294926;stroke-linecap:butt;stroke-linejoin:miter;stroke-miterlimit:4;stroke-opacity:1;stroke-dasharray:none;stroke-dashoffset:0;marker:none;visibility:visible;display:inline;overflow:visible;enable-background:accumulate" />
      <path
         inkscape:connector-curvature="0"
         sodipodi:nodetypes="ccccc"
         id="path4933-63-0-7"
         d="m 226.08738,621.93223 -46.28992,109.907 25.00659,0.1026 72.0101,-87.8035 -50.72677,-22.2062 z"
         style="opacity:0.33333333;color:#000000;fill:#000000;fill-opacity:1;fill-rule:nonzero;stroke:#000000;stroke-width:4.48294926;stroke-linecap:butt;stroke-linejoin:miter;stroke-miterlimit:4;stroke-opacity:1;stroke-dasharray:none;stroke-dashoffset:0;marker:none;visibility:visible;display:inline;overflow:visible;enable-background:accumulate" />
      <path
         inkscape:connector-curvature="0"
         style="color:#000000;fill:#d40000;fill-opacity:1;fill-rule:nonzero;stroke:#000000;stroke-width:4.48294926;stroke-linecap:butt;stroke-linejoin:miter;stroke-miterlimit:4;stroke-opacity:1;stroke-dashoffset:0;marker:none;visibility:visible;display:inline;overflow:visible;enable-background:accumulate"
         d="m 586.72834,529.6074 c 0,130.74146 -105.98689,236.72827 -236.72834,236.72827 -130.74144,0 -236.72833,-105.98681 -236.72833,-236.72827 0,-130.74146 105.98689,-236.72839 236.72833,-236.72839 130.74145,0 236.72834,105.98693 236.72834,236.72839 z"
         id="path4407-6-7-1-07" />
      <path
         inkscape:connector-curvature="0"
         transform="matrix(1.1263842,0,0,1.1263842,346.78176,-1084.6554)"
         style="color:#000000;fill:none;stroke:#ffffff;stroke-width:4.83863401;stroke-linecap:butt;stroke-linejoin:miter;stroke-miterlimit:4;stroke-opacity:1;stroke-dashoffset:0;marker:none;visibility:visible;display:inline;overflow:visible;filter:url(#filter7025-3);enable-background:accumulate"
         d="m 200,1443.7908 c 0,108.879 -88.26387,197.1428 -197.1428571,197.1428 -108.8789929,0 -197.1428529,-88.2638 -197.1428529,-197.1428 0,-108.879 88.26386,-197.1429 197.1428529,-197.1429 C 111.73613,1246.6479 200,1334.9118 200,1443.7908 z"
         id="path4407-6-7-1-3-8" />
      <path
         inkscape:connector-curvature="0"
         transform="matrix(1.0042857,0,0,1.0042857,347.13066,-900.37106)"
         style="opacity:0.76712329;color:#000000;fill:#1a1a1a;fill-opacity:1;fill-rule:nonzero;stroke:#000000;stroke-width:3.73331475;stroke-linecap:butt;stroke-linejoin:miter;stroke-miterlimit:4;stroke-opacity:1;stroke-dashoffset:0;marker:none;visibility:visible;display:inline;overflow:visible;filter:url(#filter6987-2);enable-background:accumulate"
         d="m 200,1443.7908 c 0,108.879 -88.26387,197.1428 -197.1428571,197.1428 -108.8789929,0 -197.1428529,-88.2638 -197.1428529,-197.1428 0,-108.879 88.26386,-197.1429 197.1428529,-197.1429 C 111.73613,1246.6479 200,1334.9118 200,1443.7908 z"
         id="path4407-6-7-1-7-9" />
      <path
         inkscape:connector-curvature="0"
         style="color:#000000;fill:#c6e9af;fill-opacity:1;fill-rule:nonzero;stroke:#000000;stroke-width:3.5449729;stroke-linecap:butt;stroke-linejoin:miter;stroke-miterlimit:4;stroke-opacity:1;stroke-dashoffset:0;marker:none;visibility:visible;display:inline;overflow:visible;enable-background:accumulate"
         d="m 537.19736,553.60735 c 0,103.38617 -83.81104,187.19715 -187.1972,187.19715 -103.38616,0 -187.1972,-83.81098 -187.1972,-187.19715 0,-103.38616 83.81104,-187.19724 187.1972,-187.19724 103.38616,0 187.1972,83.81108 187.1972,187.19724 z"
         id="path4407-6-7-1-0-93" />
      <path
         inkscape:connector-curvature="0"
         id="path4407-1-4"
         d="m 349.98435,358.18093 c -108.879,0 -197.12497,88.2461 -197.12497,197.125 0,108.879 88.24597,197.1563 197.12497,197.1563 108.879,0 197.1563,-88.2773 197.1563,-197.1563 0,-108.8789 -88.2773,-197.125 -197.1563,-197.125 z m 0,28.6876 c 93.0346,0 168.4688,75.4029 168.4688,168.4374 0,93.0346 -75.4342,168.4688 -168.4688,168.4688 -93.0345,0 -168.43747,-75.4342 -168.43747,-168.4688 0,-93.0345 75.40297,-168.4374 168.43747,-168.4374 z"
         style="color:#000000;fill:#d4aa00;fill-opacity:1;fill-rule:nonzero;stroke:#000000;stroke-width:4.27659416;stroke-linecap:butt;stroke-linejoin:miter;stroke-miterlimit:4;stroke-opacity:1;stroke-dasharray:none;stroke-dashoffset:0;marker:none;visibility:visible;display:inline;overflow:visible;enable-background:accumulate" />
      <g
         style="font-size:99.31483459px;font-style:normal;font-variant:normal;font-weight:normal;font-stretch:normal;text-align:start;line-height:125%;writing-mode:lr-tb;text-anchor:start;color:#000000;fill:#d4aa00;fill-opacity:1;fill-rule:nonzero;stroke:#000000;stroke-width:4.27659416;stroke-linecap:butt;stroke-linejoin:miter;stroke-miterlimit:4;stroke-opacity:1;stroke-dashoffset:0;marker:none;visibility:visible;display:inline;overflow:visible;enable-background:accumulate;font-family:'Arista 2.0';-inkscape-font-specification:'Arista 2.0,'"
         id="text4462-78-6"
         transform="translate(-770.00005,-4172.0975)">
        <path
           inkscape:connector-curvature="0"
           d="m 1107.5756,4618.6122 c 0,1.7877 -0.629,3.3436 -1.8869,4.6678 -1.2581,1.258 -2.7809,1.887 -4.5685,1.887 l -1.1918,0 c -1.8539,0 -3.4098,-0.629 -4.6678,-1.887 -1.258,-1.3242 -1.887,-2.8801 -1.887,-4.6678 l 0,-23.7362 c -1.3904,0.7283 -2.8801,0.8607 -4.4692,0.3972 -1.7214,-0.4634 -3.0125,-1.4897 -3.8732,-3.0787 -0.927,-1.5228 -1.1918,-3.145 -0.7946,-4.8665 0.4635,-1.7876 1.5229,-3.1449 3.1781,-4.0719 6.9521,-4.5022 11.3219,-6.7533 13.1096,-6.7534 1.92,1e-4 3.5753,0.6953 4.9657,2.0856 1.3904,1.3905 2.0856,3.0457 2.0856,4.9658 l 0,35.0581"
           style="marker:none"
           id="path3011" />
        <path
           inkscape:connector-curvature="0"
           d="m 1139.2772,4596.465 c 1.1256,-0.7945 1.7215,-1.7545 1.7877,-2.8801 -0.066,-1.4566 -0.629,-2.5491 -1.6883,-3.2774 -0.9932,-0.7283 -2.4829,-1.0593 -4.4692,-0.9932 -1.7877,1e-4 -3.3767,0.4966 -4.7671,1.4898 -1.3904,0.9931 -2.516,2.218 -3.3767,3.6746 -0.7284,1.1256 -1.556,2.0856 -2.4829,2.8801 -0.9269,0.7284 -2.1187,1.0925 -3.5753,1.0925 -1.8539,0 -3.443,-0.6621 -4.7671,-1.9863 -1.3242,-1.3242 -1.9863,-2.9132 -1.9863,-4.7671 0,-1.7876 0.6952,-3.7408 2.0856,-5.8596 1.4566,-2.1849 3.5422,-4.0718 6.2568,-5.6609 2.7808,-1.6552 5.0982,-2.6484 6.952,-2.9795 1.8539,-0.3972 3.476,-0.5958 4.8665,-0.5959 3.5091,1e-4 6.4223,0.3642 8.7397,1.0925 2.3835,0.7284 4.5022,1.887 6.3561,3.476 1.9201,1.5229 3.4429,3.3437 4.5685,5.4623 1.1917,2.1188 1.7876,4.5686 1.7877,7.3493 -10e-5,4.1051 -1.8208,7.4818 -5.4623,10.1301 l -10.5274,7.6473 10.1301,0 c 1.7876,0 3.3436,0.629 4.6678,1.887 1.3241,1.258 1.9862,2.847 1.9863,4.7671 -10e-5,1.8539 -0.6622,3.4429 -1.9863,4.7671 -1.3242,1.3242 -2.8802,1.9863 -4.6678,1.9863 l -29.0992,0 c -1.258,-0.066 -2.4167,-0.4304 -3.4761,-1.0925 -0.9931,-0.6621 -1.8207,-1.4897 -2.4828,-2.4828 -0.5959,-0.9932 -0.8608,-2.3505 -0.7946,-4.072 0.066,-1.7214 1.1918,-3.3104 3.3767,-4.7671 l 22.0479,-16.2876"
           style="marker:none"
           id="path3013" />
      </g>
      <g
         style="font-size:99.31483459px;font-style:normal;font-variant:normal;font-weight:normal;font-stretch:normal;text-align:start;line-height:125%;writing-mode:lr-tb;text-anchor:start;color:#000000;fill:#d4aa00;fill-opacity:1;fill-rule:nonzero;stroke:#000000;stroke-width:4.27659416;stroke-linecap:butt;stroke-linejoin:miter;stroke-miterlimit:4;stroke-opacity:1;stroke-dashoffset:0;marker:none;visibility:visible;display:inline;overflow:visible;enable-background:accumulate;font-family:'Arista 2.0';-inkscape-font-specification:'Arista 2.0,'"
         id="text4462-5-7-5"
         transform="translate(-770.00005,-4172.0975)">
        <path
           inkscape:connector-curvature="0"
           d="m 1107.983,4875.6103 c -2.8471,-1.589 -5.2306,-3.6746 -7.1507,-6.2568 -1.8539,-2.6484 -3.2112,-5.4623 -4.0719,-8.4418 -0.7945,-2.9794 -1.0263,-6.0582 -0.6952,-9.2363 0.3973,-3.178 1.3904,-6.1575 2.9794,-8.9383 l 14.5993,-25.4246 c 0.9269,-1.4566 2.2511,-2.3504 3.9726,-2.6815 1.7214,-0.331 3.2774,-0.099 4.6678,0.6952 1.589,0.927 2.6153,2.2512 3.0788,3.9726 0.4634,1.7215 0.2648,3.3105 -0.5959,4.7671 l -3.6747,6.4555 c 3.7078,0.2649 7.3162,1.4235 10.8254,3.476 2.9794,1.6553 5.4291,3.774 7.3492,6.3561 1.9201,2.5823 3.2443,5.3631 3.9726,8.3425 0.7945,2.9132 0.9931,5.9589 0.5959,9.137 -0.3973,3.1118 -1.4235,6.0913 -3.0787,8.9383 -1.6553,2.9132 -3.774,5.3299 -6.3562,7.25 -2.516,1.8538 -5.2637,3.178 -8.2431,3.9726 -2.9795,0.7945 -6.0582,1.0262 -9.2363,0.6952 -3.1119,-0.3973 -6.0913,-1.4235 -8.9383,-3.0788 m 2.3835,-26.4177 c -0.7945,1.3242 -1.2911,2.7146 -1.4897,4.1712 -0.1324,1.3904 -0.033,2.7808 0.298,4.1712 0.3972,1.3242 1.0262,2.6153 1.8869,3.8733 0.8607,1.1918 1.9863,2.1849 3.3767,2.9794 1.3242,0.7284 2.6815,1.1918 4.0719,1.3904 1.4566,0.1325 2.847,0.033 4.1713,-0.2979 1.3903,-0.3973 2.6814,-1.0262 3.8733,-1.887 1.1917,-0.8607 2.1848,-1.9532 2.9794,-3.2774 0.7283,-1.3242 1.1917,-2.7146 1.3904,-4.1712 0.1986,-1.4566 0.099,-2.8801 -0.2979,-4.2705 -0.3311,-1.3904 -0.927,-2.6815 -1.7877,-3.8733 -0.7946,-1.1918 -1.887,-2.1849 -3.2774,-2.9795 -1.258,-0.7282 -2.6153,-1.1586 -4.0719,-1.2911 -1.4566,-0.1986 -2.8802,-0.1323 -4.2705,0.1987 -1.3905,0.3311 -2.6816,0.9601 -3.8733,1.887 -1.1918,0.8607 -2.185,1.9863 -2.9795,3.3767"
           style="marker:none"
           id="path3016" />
      </g>
      <g
         style="font-size:99.31483459px;font-style:normal;font-variant:normal;font-weight:normal;font-stretch:normal;text-align:start;line-height:125%;writing-mode:lr-tb;text-anchor:start;color:#000000;fill:#d4aa00;fill-opacity:1;fill-rule:nonzero;stroke:#000000;stroke-width:4.27659416;stroke-linecap:butt;stroke-linejoin:miter;stroke-miterlimit:4;stroke-opacity:1;stroke-dashoffset:0;marker:none;visibility:visible;display:inline;overflow:visible;enable-background:accumulate;font-family:'Arista 2.0';-inkscape-font-specification:'Arista 2.0,'"
         id="text4462-4-1-5"
         transform="translate(-770.00005,-4172.0975)">
        <path
           inkscape:connector-curvature="0"
           d="m 995.58861,4698.4689 c 2.84698,1.5891 5.19739,3.7078 7.05139,6.3561 1.92,2.5823 3.2773,5.3631 4.0719,8.3425 0.8606,2.9795 1.0924,6.0582 0.6952,9.2363 -0.3311,3.1781 -1.2912,6.1575 -2.8802,8.9383 l -14.59924,25.4246 c -0.92697,1.4566 -2.25116,2.3504 -3.97259,2.6815 -1.72149,0.331 -3.27742,0.099 -4.6678,-0.6952 -1.58906,-0.927 -2.61531,-2.2512 -3.07876,-3.9726 -0.46349,-1.7215 -0.26486,-3.3105 0.59589,-4.7671 l 3.67465,-6.4555 c -3.70778,-0.2648 -7.31621,-1.4235 -10.82532,-3.476 -2.97945,-1.6552 -5.42922,-3.774 -7.3493,-6.3561 -1.92009,-2.5822 -3.27739,-5.3299 -4.0719,-8.2432 -0.72831,-2.9794 -0.89384,-6.0251 -0.49658,-9.1369 0.39726,-3.1781 1.42351,-6.1906 3.07876,-9.0377 1.65524,-2.9132 3.74085,-5.2967 6.25684,-7.1507 2.58217,-1.92 5.36298,-3.2773 8.34244,-4.0719 2.97942,-0.7944 6.02508,-0.9931 9.13697,-0.5959 3.17804,0.3311 6.19059,1.3243 9.03765,2.9795 m -2.38356,26.4177 c 0.79448,-1.3241 1.25795,-2.6814 1.39041,-4.0719 0.19859,-1.4566 0.0993,-2.847 -0.29795,-4.1712 -0.33108,-1.3904 -0.92697,-2.6815 -1.78766,-3.8733 -0.86077,-1.2579 -1.98633,-2.2842 -3.37671,-3.0787 -1.32423,-0.7283 -2.71463,-1.1587 -4.17122,-1.2911 -1.39043,-0.1986 -2.78084,-0.099 -4.17122,0.2979 -1.32422,0.3311 -2.58221,0.927 -3.77397,1.7877 -1.19179,0.8607 -2.18494,1.9532 -2.97944,3.2774 -0.72833,1.3242 -1.1918,2.7146 -1.39041,4.1712 -0.19864,1.4566 -0.13243,2.8801 0.19863,4.2705 0.39724,1.3905 0.99313,2.6815 1.78767,3.8733 0.86071,1.1918 1.98627,2.1849 3.3767,2.9795 1.25797,0.7283 2.61527,1.1917 4.07191,1.3904 1.45659,0.1324 2.8801,0.033 4.27054,-0.298 1.39037,-0.331 2.68147,-0.9269 3.87328,-1.7877 1.19174,-0.9269 2.18489,-2.0855 2.97944,-3.476"
           style="marker:none"
           id="path3019" />
      </g>
      <g
         style="font-size:99.31483459px;font-style:normal;font-variant:normal;font-weight:normal;font-stretch:normal;text-align:start;line-height:125%;writing-mode:lr-tb;text-anchor:start;color:#000000;fill:#d4aa00;fill-opacity:1;fill-rule:nonzero;stroke:#000000;stroke-width:4.27659416;stroke-linecap:butt;stroke-linejoin:miter;stroke-miterlimit:4;stroke-opacity:1;stroke-dashoffset:0;marker:none;visibility:visible;display:inline;overflow:visible;enable-background:accumulate;font-family:'Arista 2.0';-inkscape-font-specification:'Arista 2.0,'"
         id="text4462-4-7-5-0"
         transform="translate(-770.00005,-4172.0975)">
        <path
           inkscape:connector-curvature="0"
           d="m 1270.1739,4697.5252 c 1.3242,1.4566 1.9863,3.1119 1.9863,4.9657 0,1.8539 -0.629,3.4429 -1.887,4.7671 l -9.6335,9.6335 c 2.5821,1.1256 4.8995,2.6485 6.952,4.5685 2.0525,1.9863 3.6746,4.3368 4.8665,7.0514 1.2579,2.6484 1.8869,5.5285 1.8869,8.6404 0,3.1118 -0.5959,5.992 -1.7876,8.6404 -1.1256,2.7146 -2.7147,5.065 -4.7671,7.0513 -1.9864,2.0525 -4.3368,3.6415 -7.0514,4.7671 -2.7146,1.1918 -5.5948,1.7877 -8.6404,1.7877 -2.4498,0 -4.7009,-0.298 -6.7534,-0.8938 -2.0525,-0.5959 -4.0057,-1.4236 -5.8596,-2.4829 -1.8538,-1.0594 -3.5422,-2.3505 -5.065,-3.8733 -1.4566,-1.4566 -2.4829,-3.1119 -3.0788,-4.9657 -0.3972,-1.0594 -0.5297,-2.1519 -0.3972,-3.2774 0.1324,-1.1256 0.4634,-2.1518 0.9931,-3.0788 0.5297,-0.9269 1.258,-1.6883 2.1849,-2.2842 0.9932,-0.5959 2.1187,-0.8938 3.3767,-0.8939 1.7215,1e-4 3.2443,0.6622 4.5685,1.9863 0.7945,0.5959 1.4235,1.258 1.887,1.9863 0.5297,0.7283 1.0925,1.4236 1.6884,2.0857 0.5958,0.662 1.291,1.1917 2.0856,1.589 0.8607,0.4635 2.3173,0.6952 4.3698,0.6952 2.516,0 4.6016,-0.8276 6.2569,-2.4829 1.7214,-1.7214 2.5821,-3.8401 2.5821,-6.3561 0,-2.4498 -0.8607,-4.5023 -2.5821,-6.1575 -1.6553,-1.7215 -3.7409,-2.5822 -6.2569,-2.5822 l -3.5753,0 c -0.3973,0.066 -0.7946,0.099 -1.1918,0.099 -0.3311,0 -0.629,-0.033 -0.8938,-0.099 l 0.099,0 -0.099,0 c -1.4567,-0.1986 -2.7146,-0.8607 -3.774,-1.9863 -1.3904,-1.3242 -2.0856,-2.8801 -2.0856,-4.6678 0,-1.8539 0.6621,-3.4429 1.9863,-4.7671 l 7.9452,-8.0445 -10.5274,0 c -1.9201,0 -3.5091,-0.6621 -4.7671,-1.9863 -1.258,-1.3242 -1.887,-2.9132 -1.887,-4.7672 0,-1.92 0.629,-3.509 1.887,-4.7671 1.258,-1.3241 2.847,-1.9862 4.7671,-1.9863 l 24.3321,0 c 0.5959,10e-5 1.1587,0.066 1.6884,0.1987 1.5228,0.1324 2.9132,0.7614 4.1712,1.887"
           style="marker:none"
           id="path3022" />
      </g>
      <g
         style="font-size:71.10926819px;font-style:normal;font-variant:normal;font-weight:normal;font-stretch:normal;text-align:start;line-height:125%;writing-mode:lr-tb;text-anchor:start;color:#000000;fill:#d4aa00;fill-opacity:1;fill-rule:nonzero;stroke:#000000;stroke-width:4.27659416;stroke-linecap:butt;stroke-linejoin:miter;stroke-miterlimit:4;stroke-opacity:1;stroke-dashoffset:0;marker:none;visibility:visible;display:inline;overflow:visible;enable-background:accumulate;font-family:'Arista 2.0';-inkscape-font-specification:'Arista 2.0,'"
         id="text4462-7-7-6"
         transform="translate(-770.00005,-4172.0975)">
        <path
           inkscape:connector-curvature="0"
           d="m 1040.3908,4633.7062 c 0,1.28 -0.4504,2.394 -1.3511,3.3421 -0.9007,0.9008 -1.9911,1.3511 -3.271,1.3511 l -0.8533,0 c -1.3274,0 -2.4415,-0.4503 -3.3422,-1.3511 -0.9007,-0.9481 -1.3511,-2.0621 -1.3511,-3.3421 l 0,-16.9951 c -0.9955,0.5215 -2.0621,0.6163 -3.1999,0.2844 -1.2325,-0.3318 -2.157,-1.0666 -2.7732,-2.2044 -0.6637,-1.0903 -0.8533,-2.2517 -0.5689,-3.4843 0.3318,-1.28 1.0903,-2.2518 2.2755,-2.9155 4.9776,-3.2236 8.1064,-4.8354 9.3864,-4.8354 1.3748,0 2.5599,0.4978 3.5555,1.4933 0.9955,0.9955 1.4933,2.1807 1.4933,3.5554 l 0,25.1016"
           style="color:#000000;fill:#d4aa00;stroke:#000000;stroke-dashoffset:0;marker:none;visibility:visible;display:inline;overflow:visible;enable-background:accumulate"
           id="path3025" />
        <path
           inkscape:connector-curvature="0"
           d="m 1060.5291,4633.7062 c 0,1.28 -0.4503,2.394 -1.351,3.3421 -0.9008,0.9008 -1.9911,1.3511 -3.2711,1.3511 l -0.8533,0 c -1.3274,0 -2.4414,-0.4503 -3.3421,-1.3511 -0.9007,-0.9481 -1.3511,-2.0621 -1.3511,-3.3421 l 0,-16.9951 c -0.9955,0.5215 -2.0622,0.6163 -3.1999,0.2844 -1.2326,-0.3318 -2.157,-1.0666 -2.7733,-2.2044 -0.6636,-1.0903 -0.8533,-2.2517 -0.5688,-3.4843 0.3318,-1.28 1.0903,-2.2518 2.2755,-2.9155 4.9776,-3.2236 8.1064,-4.8354 9.3864,-4.8354 1.3747,0 2.5599,0.4978 3.5554,1.4933 0.9956,0.9955 1.4933,2.1807 1.4933,3.5554 l 0,25.1016"
           style="color:#000000;fill:#d4aa00;stroke:#000000;stroke-dashoffset:0;marker:none;visibility:visible;display:inline;overflow:visible;enable-background:accumulate"
           id="path3027" />
      </g>
      <g
         style="font-size:71.10926819px;font-style:normal;font-variant:normal;font-weight:normal;font-stretch:normal;text-align:start;line-height:125%;writing-mode:lr-tb;text-anchor:start;color:#000000;fill:#d4aa00;fill-opacity:1;fill-rule:nonzero;stroke:#000000;stroke-width:4.27659416;stroke-linecap:butt;stroke-linejoin:miter;stroke-miterlimit:4;stroke-opacity:1;stroke-dashoffset:0;marker:none;visibility:visible;display:inline;overflow:visible;enable-background:accumulate;font-family:'Arista 2.0';-inkscape-font-specification:'Arista 2.0,'"
         id="text4462-7-2-8-9"
         transform="translate(-770.00005,-4172.0975)">
        <path
           inkscape:connector-curvature="0"
           d="m 998.15579,4669.6588 c -2e-5,1.28 -0.45038,2.3941 -1.35108,3.3422 -0.90073,0.9007 -1.99107,1.3511 -3.27102,1.3511 l -0.85331,0 c -1.32739,0 -2.44143,-0.4504 -3.34214,-1.3511 -0.90073,-0.9481 -1.35108,-2.0622 -1.35108,-3.3422 l 0,-16.9951 c -0.99553,0.5215 -2.06217,0.6163 -3.19991,0.2845 -1.23257,-0.3319 -2.15699,-1.0667 -2.77326,-2.2044 -0.66369,-1.0903 -0.85332,-2.2518 -0.56888,-3.4844 0.33184,-1.2799 1.09034,-2.2517 2.2755,-2.9155 4.97764,-3.2235 8.10644,-4.8354 9.38642,-4.8354 1.37477,0 2.55992,0.4978 3.55546,1.4933 0.99552,0.9956 1.49328,2.1807 1.4933,3.5555 l 0,25.1015"
           style="color:#000000;fill:#d4aa00;stroke:#000000;stroke-dashoffset:0;marker:none;visibility:visible;display:inline;overflow:visible;enable-background:accumulate"
           id="path3030" />
        <path
           inkscape:connector-curvature="0"
           d="m 1019.5741,4639.8641 c 2.3229,0 4.5273,0.4503 6.6132,1.351 2.0858,0.9008 3.911,2.1333 5.4754,3.6977 1.5644,1.5644 2.7969,3.3896 3.6977,5.4754 0.9481,2.0859 1.4221,4.3377 1.4222,6.7554 -10e-5,2.3703 -0.4504,4.5984 -1.3511,6.6843 -0.9008,2.0385 -2.1333,3.8399 -3.6977,5.4043 -1.517,1.5644 -3.3185,2.797 -5.4043,3.6977 -2.0859,0.9007 -4.3377,1.351 -6.7554,1.351 -2.3703,0 -4.5984,-0.4266 -6.6842,-1.2799 -2.0859,-0.8533 -3.9111,-2.0385 -5.4755,-3.5555 -1.5644,-1.5644 -2.7969,-3.3895 -3.6976,-5.4754 -0.9008,-2.0859 -1.3511,-4.3614 -1.3511,-6.8265 0,-2.3703 0.4266,-4.5747 1.2799,-6.6132 0.9008,-2.0858 2.1096,-3.8872 3.6266,-5.4043 1.5644,-1.5643 3.3896,-2.7969 5.4754,-3.6976 2.1333,-0.9481 4.4088,-1.4696 6.8265,-1.5644 m 0,9.3153 c -1.0903,0 -2.1096,0.2133 -3.0577,0.64 -0.9481,0.3792 -1.8014,0.9244 -2.5599,1.6355 -0.7111,0.7111 -1.28,1.5644 -1.7066,2.5599 -0.4267,0.9481 -0.64,1.9911 -0.64,3.1288 0,1.0904 0.2133,2.1333 0.64,3.1288 0.4266,0.9482 0.9955,1.8015 1.7066,2.5599 0.7585,0.7112 1.6118,1.28 2.5599,1.7067 0.9481,0.4266 1.9674,0.64 3.0577,0.64 1.0903,0 2.1096,-0.2134 3.0577,-0.64 0.9955,-0.4267 1.8488,-0.9955 2.56,-1.7067 0.711,-0.7584 1.2799,-1.6117 1.7066,-2.5599 0.4266,-0.9955 0.6399,-2.0384 0.64,-3.1288 -0.095,-2.1807 -0.8771,-4.0295 -2.3466,-5.5465 -1.4697,-1.517 -3.3422,-2.3229 -5.6177,-2.4177"
           style="color:#000000;fill:#d4aa00;stroke:#000000;stroke-dashoffset:0;marker:none;visibility:visible;display:inline;overflow:visible;enable-background:accumulate"
           id="path3032" />
      </g>
      <g
         style="font-size:71.10926819px;font-style:normal;font-variant:normal;font-weight:normal;font-stretch:normal;text-align:start;line-height:125%;writing-mode:lr-tb;text-anchor:start;color:#000000;fill:#d4aa00;fill-opacity:1;fill-rule:nonzero;stroke:#000000;stroke-width:4.27659416;stroke-linecap:butt;stroke-linejoin:miter;stroke-miterlimit:4;stroke-opacity:1;stroke-dashoffset:0;marker:none;visibility:visible;display:inline;overflow:visible;enable-background:accumulate;font-family:'Arista 2.0';-inkscape-font-specification:'Arista 2.0,'"
         id="text4462-7-2-6-3-9"
         transform="translate(-770.00005,-4172.0975)">
        <path
           inkscape:connector-curvature="0"
           d="m 1197.8246,4633.7062 c -10e-5,1.28 -0.4504,2.394 -1.3511,3.3421 -0.9008,0.9008 -1.9911,1.3511 -3.2711,1.3511 l -0.8533,0 c -1.3273,0 -2.4414,-0.4503 -3.3421,-1.3511 -0.9007,-0.9481 -1.3511,-2.0621 -1.3511,-3.3421 l 0,-16.9951 c -0.9955,0.5215 -2.0621,0.6163 -3.1999,0.2844 -1.2326,-0.3318 -2.157,-1.0666 -2.7733,-2.2044 -0.6636,-1.0903 -0.8533,-2.2517 -0.5688,-3.4843 0.3318,-1.28 1.0903,-2.2518 2.2755,-2.9155 4.9776,-3.2236 8.1064,-4.8354 9.3864,-4.8354 1.3748,0 2.5599,0.4978 3.5555,1.4933 0.9955,0.9955 1.4932,2.1807 1.4933,3.5554 l 0,25.1016"
           style="color:#000000;fill:#d4aa00;stroke:#000000;stroke-dashoffset:0;marker:none;visibility:visible;display:inline;overflow:visible;enable-background:accumulate"
           id="path3035" />
      </g>
      <g
         style="font-size:71.10926819px;font-style:normal;font-variant:normal;font-weight:normal;font-stretch:normal;text-align:start;line-height:125%;writing-mode:lr-tb;text-anchor:start;color:#000000;fill:#d4aa00;fill-opacity:1;fill-rule:nonzero;stroke:#000000;stroke-width:4.27659416;stroke-linecap:butt;stroke-linejoin:miter;stroke-miterlimit:4;stroke-opacity:1;stroke-dashoffset:0;marker:none;visibility:visible;display:inline;overflow:visible;enable-background:accumulate;font-family:'Arista 2.0';-inkscape-font-specification:'Arista 2.0,'"
         id="text4462-7-2-6-0-8-5"
         transform="translate(-770.00005,-4172.0975)">
        <path
           inkscape:connector-curvature="0"
           d="m 1238.9836,4653.7663 c 0.8059,-0.5688 1.2325,-1.2562 1.28,-2.0622 -0.047,-1.0429 -0.4504,-1.8251 -1.2089,-2.3466 -0.7111,-0.5214 -1.7777,-0.7584 -3.1999,-0.7111 -1.28,1e-4 -2.4177,0.3556 -3.4132,1.0667 -0.9956,0.7111 -1.8015,1.5881 -2.4178,2.631 -0.5214,0.806 -1.114,1.4933 -1.7777,2.0622 -0.6637,0.5215 -1.517,0.7822 -2.5599,0.7822 -1.3274,0 -2.4652,-0.474 -3.4133,-1.4222 -0.9481,-0.9481 -1.4222,-2.0858 -1.4222,-3.4132 0,-1.28 0.4978,-2.6785 1.4933,-4.1955 1.043,-1.5643 2.5363,-2.9154 4.4799,-4.0532 1.9911,-1.1851 3.6503,-1.8962 4.9777,-2.1333 1.3273,-0.2844 2.4888,-0.4266 3.4843,-0.4266 2.5125,0 4.5984,0.2607 6.2576,0.7822 1.7066,0.5215 3.2236,1.3511 4.551,2.4888 1.3748,1.0904 2.4651,2.394 3.2711,3.911 0.8532,1.517 1.2799,3.271 1.2799,5.2621 0,2.9392 -1.3037,5.3569 -3.911,7.2531 l -7.5376,5.4754 7.2532,0 c 1.2799,1e-4 2.394,0.4504 3.3421,1.3511 0.9481,0.9007 1.4222,2.0385 1.4222,3.4133 0,1.3273 -0.4741,2.4651 -1.4222,3.4132 -0.9481,0.9481 -2.0622,1.4222 -3.3421,1.4222 l -20.835,0 c -0.9008,-0.047 -1.7304,-0.3081 -2.4889,-0.7822 -0.7111,-0.4741 -1.3036,-1.0666 -1.7777,-1.7777 -0.4266,-0.7111 -0.6163,-1.683 -0.5689,-2.9155 0.047,-1.2326 0.8533,-2.3703 2.4177,-3.4133 l 15.7863,-11.6619"
           style="color:#000000;fill:#d4aa00;stroke:#000000;stroke-dashoffset:0;marker:none;visibility:visible;display:inline;overflow:visible;enable-background:accumulate"
           id="path3038" />
      </g>
      <g
         style="font-size:71.10926819px;font-style:normal;font-variant:normal;font-weight:normal;font-stretch:normal;text-align:start;line-height:125%;writing-mode:lr-tb;text-anchor:start;color:#000000;fill:#d4aa00;fill-opacity:1;fill-rule:nonzero;stroke:#000000;stroke-width:4.27659416;stroke-linecap:butt;stroke-linejoin:miter;stroke-miterlimit:4;stroke-opacity:1;stroke-dashoffset:0;marker:none;visibility:visible;display:inline;overflow:visible;enable-background:accumulate;font-family:'Arista 2.0';-inkscape-font-specification:'Arista 2.0,'"
         id="text4462-7-1-6-3"
         transform="translate(-770.00005,-4172.0975)">
        <path
           inkscape:connector-curvature="0"
           d="m 1008.3039,4800.2541 c -0.9482,0 -1.8015,0.1659 -2.56,0.4977 -0.7111,0.3319 -1.3748,0.7823 -1.991,1.3511 -0.5689,0.5689 -1.043,1.2563 -1.4222,2.0622 -0.3319,0.7585 -0.4978,1.5881 -0.4978,2.4888 0,0.9482 0.1659,1.8015 0.4978,2.5599 0.3792,0.7586 0.8533,1.4459 1.4222,2.0622 0.6162,0.5689 1.2799,1.043 1.991,1.4222 0.7585,0.3319 1.6118,0.4978 2.56,0.4978 0.9007,0 1.7303,-0.1659 2.4888,-0.4978 0.7585,-0.3792 1.4222,-0.8533 1.9911,-1.4222 0.5688,-0.6163 1.0192,-1.3036 1.351,-2.0622 0.3793,-0.7584 0.5689,-1.6117 0.5689,-2.5599 -0.095,-1.754 -0.7348,-3.2236 -1.9199,-4.4088 -1.1852,-1.2325 -2.6785,-1.8962 -4.4799,-1.991 m 0.071,-15.0041 c -0.9482,1e-4 -1.7541,0.3082 -2.4177,0.9244 -0.6637,0.6164 -1.0193,1.3749 -1.0667,2.2755 0,1.1378 0.3081,2.0148 0.9244,2.6311 0.6637,0.6163 1.517,0.9244 2.56,0.9244 0.9007,0 1.6592,-0.3318 2.2755,-0.9955 0.6636,-0.6637 0.9955,-1.4459 0.9955,-2.3466 0,-0.9481 -0.3319,-1.754 -0.9955,-2.4177 -0.6163,-0.6637 -1.3748,-0.9955 -2.2755,-0.9956 m -0.1422,-8.2487 c 3.1287,1e-4 5.7835,1.1615 7.9642,3.4844 2.2281,2.3229 3.3421,5.0488 3.3421,8.1776 0,1.9437 -0.4267,3.7451 -1.2799,5.4043 0.474,0.3793 0.9244,0.7822 1.351,1.2088 1.4696,1.4222 2.6311,3.1289 3.4844,5.1199 0.8533,1.9437 1.2799,4.0295 1.28,6.2576 -10e-5,2.2281 -0.4267,4.314 -1.28,6.2576 -0.8533,1.9437 -1.9911,3.6503 -3.4132,5.1199 -1.4223,1.4222 -3.1289,2.5599 -5.1199,3.4132 -1.9437,0.8534 -4.0296,1.28 -6.2576,1.28 -2.2281,0 -4.3377,-0.4029 -6.3288,-1.2088 -1.9436,-0.806 -3.65024,-1.92 -5.11982,-3.3422 -1.4222,-1.4696 -2.55994,-3.1762 -3.41325,-5.1199 -0.85331,-1.9436 -1.27997,-4.0769 -1.27997,-6.3998 0,-2.1807 0.40295,-4.2428 1.20886,-6.1865 0.85331,-1.9436 1.99106,-3.6265 3.41325,-5.0487 0.33183,-0.3319 0.66368,-0.64 0.99553,-0.9245 -0.90073,-1.754 -1.35109,-3.8872 -1.35108,-6.3998 0.14221,-3.0814 1.37477,-5.6887 3.69768,-7.822 2.3229,-2.1807 5.025,-3.271 8.1065,-3.2711"
           style="color:#000000;fill:#d4aa00;stroke:#000000;stroke-dashoffset:0;marker:none;visibility:visible;display:inline;overflow:visible;enable-background:accumulate"
           id="path3041" />
      </g>
      <g
         style="font-size:71.10926819px;font-style:normal;font-variant:normal;font-weight:normal;font-stretch:normal;text-align:start;line-height:125%;writing-mode:lr-tb;text-anchor:start;color:#000000;fill:#d4aa00;fill-opacity:1;fill-rule:nonzero;stroke:#000000;stroke-width:4.27659416;stroke-linecap:butt;stroke-linejoin:miter;stroke-miterlimit:4;stroke-opacity:1;stroke-dashoffset:0;marker:none;visibility:visible;display:inline;overflow:visible;enable-background:accumulate;font-family:'Arista 2.0';-inkscape-font-specification:'Arista 2.0,'"
         id="text4462-7-2-9-3-6"
         transform="translate(-770.00005,-4172.0975)">
        <path
           inkscape:connector-curvature="0"
           d="m 1055.8741,4860.2931 c -0.9007,1.1851 -2.0385,1.8725 -3.4132,2.0621 -1.3274,0.237 -2.5363,0 -3.6266,-0.7111 -1.0904,-0.7111 -1.7778,-1.7066 -2.0622,-2.9866 -0.237,-1.2325 0,-2.394 0.7111,-3.4843 l 15.5018,-28.5859 -15.2174,0 c -1.2799,0 -2.394,-0.4504 -3.3421,-1.3511 -0.9481,-0.9007 -1.4222,-2.0384 -1.4222,-3.4133 0,-1.3273 0.4741,-2.465 1.4222,-3.4132 0.9481,-0.9481 2.0622,-1.4222 3.3421,-1.4222 l 23.6083,0 c 0.9007,0.047 1.7066,0.3082 2.4177,0.7822 0.7585,0.4741 1.3274,1.0904 1.7067,1.8489 0.4266,0.7111 0.6399,1.4459 0.6399,2.2043 0,0.7586 -0.2607,1.7304 -0.7822,2.9155 l -19.4839,35.5547"
           style="color:#000000;fill:#d4aa00;stroke:#000000;stroke-dashoffset:0;marker:none;visibility:visible;display:inline;overflow:visible;enable-background:accumulate"
           id="path3044" />
      </g>
      <g
         style="font-size:71.10926819px;font-style:normal;font-variant:normal;font-weight:normal;font-stretch:normal;text-align:start;line-height:125%;writing-mode:lr-tb;text-anchor:start;color:#000000;fill:#d4aa00;fill-opacity:1;fill-rule:nonzero;stroke:#000000;stroke-width:4.27659416;stroke-linecap:butt;stroke-linejoin:miter;stroke-miterlimit:4;stroke-opacity:1;stroke-dashoffset:0;marker:none;visibility:visible;display:inline;overflow:visible;enable-background:accumulate;font-family:'Arista 2.0';-inkscape-font-specification:'Arista 2.0,'"
         id="text4462-7-1-9-3-3"
         transform="translate(-770.00005,-4172.0975)">
        <path
           inkscape:connector-curvature="0"
           d="m 1243.0762,4807.1875 c 0,1.28 -0.4504,2.394 -1.3511,3.3422 -0.8533,0.9007 -1.8963,1.3984 -3.1288,1.4932 l 0,7.0399 c 0,0.8533 -0.4741,1.7303 -1.4222,2.631 -0.9481,0.9481 -2.1096,1.4222 -3.4843,1.4222 -1.28,0 -2.3941,-0.4741 -3.3422,-1.4222 -0.9007,-0.9007 -1.3511,-1.7777 -1.351,-2.631 l 0,-7.0399 -12.1597,0 c -1.3274,0 -2.4652,-0.4503 -3.4133,-1.351 -0.9007,-0.9481 -1.3511,-2.1096 -1.3511,-3.4844 l 0,-0.071 7.8932,-26.8793 c 0.6162,-1.2325 1.4696,-2.1332 2.5599,-2.7021 1.0903,-0.6163 2.2518,-0.6874 3.4844,-0.2134 1.2799,0.4741 2.228,1.3511 2.8443,2.6311 0.6637,1.28 0.6637,2.5125 0,3.6977 l -6.2576,18.7728 6.3999,0 c 0.047,-1.28 0.5214,-2.3703 1.4221,-3.271 0.9481,-0.9007 2.0385,-1.3511 3.2711,-1.3511 1.3747,0 2.5125,0.4504 3.4132,1.3511 0.9481,0.9007 1.4459,1.991 1.4933,3.271 1.2325,0.095 2.2755,0.6163 3.1288,1.5644 0.9007,0.9007 1.3511,1.9674 1.3511,3.1999"
           style="color:#000000;fill:#d4aa00;stroke:#000000;stroke-dashoffset:0;marker:none;visibility:visible;display:inline;overflow:visible;enable-background:accumulate"
           id="path3047" />
      </g>
      <g
         style="font-size:71.10926819px;font-style:normal;font-variant:normal;font-weight:normal;font-stretch:normal;text-align:start;line-height:125%;writing-mode:lr-tb;text-anchor:start;color:#000000;fill:#d4aa00;fill-opacity:1;fill-rule:nonzero;stroke:#000000;stroke-width:4.27659416;stroke-linecap:butt;stroke-linejoin:miter;stroke-miterlimit:4;stroke-opacity:1;stroke-dashoffset:0;marker:none;visibility:visible;display:inline;overflow:visible;enable-background:accumulate;font-family:'Arista 2.0';-inkscape-font-specification:'Arista 2.0,'"
         id="text4462-7-1-9-9-6-0"
         transform="translate(-770.00005,-4172.0975)">
        <path
           inkscape:connector-curvature="0"
           d="m 1176.9308,4830.6405 c 2.0858,0.047 4.0769,0.4741 5.9732,1.28 1.9436,0.8059 3.6502,1.9199 5.1198,3.3421 1.4696,1.4222 2.631,3.1051 3.4844,5.0488 0.9007,1.8962 1.351,3.9584 1.3511,6.1865 -10e-5,2.4177 -0.4267,4.5747 -1.28,6.4709 -0.8059,1.9437 -1.9437,3.6266 -3.4133,5.0488 -1.4222,1.4695 -3.1051,2.6073 -5.0487,3.4132 -1.9437,0.8533 -4.0059,1.28 -6.1865,1.28 -1.517,0 -2.9629,-0.2134 -4.3377,-0.64 -1.3274,-0.4267 -2.6547,-1.0193 -3.9821,-1.7777 -1.3274,-0.7585 -2.5362,-1.683 -3.6266,-2.7733 -1.0429,-1.0429 -1.7777,-2.2281 -2.2044,-3.5555 -0.2844,-0.7585 -0.3792,-1.5407 -0.2844,-2.3466 0.095,-0.8059 0.3318,-1.5407 0.7111,-2.2044 0.3792,-0.6636 0.9007,-1.2088 1.5644,-1.6355 0.7111,-0.4266 1.517,-0.64 2.4177,-0.64 1.2326,0 2.3229,0.4741 3.271,1.4222 0.5689,0.4267 1.0193,0.9007 1.3511,1.4222 0.3792,0.5215 0.7822,1.0192 1.2089,1.4933 0.4266,0.4741 0.9244,0.8533 1.4933,1.1378 0.6162,0.3318 1.4221,0.4977 2.4177,0.4977 1.8014,0 3.2947,-0.5926 4.4799,-1.7777 1.2325,-1.2326 1.8488,-2.8444 1.8488,-4.8354 0,-1.7541 -0.6163,-3.2237 -1.8488,-4.4088 -1.1852,-1.2326 -2.6785,-1.8488 -4.4799,-1.8489 l -9.9553,0 c -1.2326,1e-4 -2.3466,-0.4503 -3.3422,-1.351 -0.9955,-0.9481 -1.4933,-2.0859 -1.4933,-3.4133 l 0,-13.653 c 0,-1.3747 0.4741,-2.5125 1.4222,-3.4132 0.9482,-0.9481 2.0859,-1.4222 3.4133,-1.4222 l 17.6351,0 c 1.3747,0 2.5125,0.4741 3.4132,1.4222 0.9481,0.9007 1.4222,2.0385 1.4222,3.4132 0,1.3274 -0.4741,2.4652 -1.4222,3.4133 -0.9007,0.9007 -2.0385,1.3511 -3.4132,1.3511 l -13.0841,0 0,4.0532 5.4043,0"
           style="color:#000000;fill:#d4aa00;stroke:#000000;stroke-dashoffset:0;marker:none;visibility:visible;display:inline;overflow:visible;enable-background:accumulate"
           id="path3050" />
      </g>
      <path
         inkscape:connector-curvature="0"
         id="path5042-4-6"
         d="m 350.00005,283.88493 c -23.0776,0 -41.7813,18.7037 -41.7813,41.7813 0,3.8357 0.5322,7.5653 1.5,11.0937 11.0953,5.9911 25.0854,9.5938 40.2813,9.5938 15.2068,0 29.1821,-3.5949 40.2812,-9.5938 0.9678,-3.5284 1.5,-7.258 1.5,-11.0937 0,-23.0776 -18.7036,-41.7813 -41.7812,-41.7813 z"
         style="color:#000000;fill:#d4aa00;fill-opacity:1;fill-rule:nonzero;stroke:#000000;stroke-width:4.27659416;stroke-linecap:butt;stroke-linejoin:miter;stroke-miterlimit:4;stroke-opacity:1;stroke-dasharray:none;stroke-dashoffset:0;marker:none;visibility:visible;display:inline;overflow:visible;enable-background:accumulate" />
      <path
         inkscape:connector-curvature="0"
         transform="matrix(0.97544391,0,0,0.97544391,-400.44049,-2260.8645)"
         id="path4407-1-5-9"
         d="m 769.31196,2706.7517 c -99.59081,0 -180.31008,80.7178 -180.31008,180.3102 0,99.5902 80.71927,180.3427 180.31008,180.3427 99.59064,0 180.34241,-80.7525 180.34241,-180.3427 0,-99.5924 -80.75177,-180.3102 -180.34241,-180.3102 z m 0,6.1397 c 96.20114,0 174.20283,77.9698 174.20283,174.1705 0,96.2014 -78.00169,174.2029 -174.20283,174.2029 -96.20113,0 -174.1705,-78.0015 -174.1705,-174.2029 0,-96.2007 77.96937,-174.1705 174.1705,-174.1705 z"
         style="color:#000000;fill:#000000;fill-opacity:1;fill-rule:nonzero;stroke:none;stroke-width:3.91176391;marker:none;visibility:visible;display:inline;overflow:visible;filter:url(#filter5937-60);enable-background:accumulate" />
      <path
         inkscape:connector-curvature="0"
         transform="matrix(1.046225,0,0,1.046225,-454.89434,-2465.2149)"
         id="path4407-1-5-2-3"
         d="m 769.31196,2706.7517 c -99.59081,0 -180.31008,80.7178 -180.31008,180.3102 0,99.5902 80.71927,180.3427 180.31008,180.3427 99.59064,0 180.34241,-80.7525 180.34241,-180.3427 0,-99.5924 -80.75177,-180.3102 -180.34241,-180.3102 z m 0,6.1397 c 96.20114,0 174.20283,77.9698 174.20283,174.1705 0,96.2014 -78.00169,174.2029 -174.20283,174.2029 -96.20113,0 -174.1705,-78.0015 -174.1705,-174.2029 0,-96.2007 77.96937,-174.1705 174.1705,-174.1705 z"
         style="opacity:0.90410958;color:#000000;fill:#ffffff;fill-opacity:1;fill-rule:nonzero;stroke:none;stroke-width:3.91176391;marker:none;visibility:visible;display:inline;overflow:visible;filter:url(#filter5937-6-5);enable-background:accumulate" />
      <path
         inkscape:connector-curvature="0"
         transform="matrix(0.83609919,-0.5485783,0.5485783,0.83609919,-1595.3425,-1722.1306)"
         style="opacity:0.55707762;color:#000000;fill:#000000;fill-opacity:1;fill-rule:nonzero;stroke:none;stroke-width:5.25099993;marker:none;visibility:visible;display:inline;overflow:visible;filter:url(#filter7228-6);enable-background:accumulate"
         d="m 434.16355,2744.4688 c 0,13.6683 -28.17584,24.7487 -62.9325,24.7487 -34.75666,0 -62.9325,-11.0804 -62.9325,-24.7487 0,-13.6684 28.17584,-24.7488 62.9325,-24.7488 34.75666,0 62.9325,11.0804 62.9325,24.7488 z"
         id="path7218-0" />
      <path
         inkscape:connector-curvature="0"
         transform="matrix(1.1068946,0,0,1.1068946,-501.56907,-2640.3724)"
         id="path4407-1-5-2-7-8"
         d="m 769.31196,2706.7517 c -99.59081,0 -180.31008,80.7178 -180.31008,180.3102 0,99.5902 80.71927,180.3427 180.31008,180.3427 99.59064,0 180.34241,-80.7525 180.34241,-180.3427 0,-99.5924 -80.75177,-180.3102 -180.34241,-180.3102 z m 0,6.1397 c 96.20114,0 174.20283,77.9698 174.20283,174.1705 0,96.2014 -78.00169,174.2029 -174.20283,174.2029 -96.20113,0 -174.1705,-78.0015 -174.1705,-174.2029 0,-96.2007 77.96937,-174.1705 174.1705,-174.1705 z"
         style="opacity:0.90410958;color:#000000;fill:#000000;fill-opacity:1;fill-rule:nonzero;stroke:none;stroke-width:3.91176391;marker:none;visibility:visible;display:inline;overflow:visible;filter:url(#filter5937-6-2-1);enable-background:accumulate" />
      <path
         inkscape:connector-curvature="0"
         style="color:#000000;fill:#b3b3b3;fill-opacity:1;fill-rule:nonzero;stroke:#000000;stroke-width:4.48294926;stroke-linecap:butt;stroke-linejoin:miter;stroke-miterlimit:4;stroke-opacity:1;stroke-dashoffset:0;marker:none;visibility:visible;display:inline;overflow:visible;enable-background:accumulate"
         d="m 244.75577,352.3169 c 3.04541,5.0976 -4.10894,14.9791 -15.97969,22.07094 -11.87076,7.09184 -23.96271,8.70848 -27.00812,3.61088 -3.04545,-5.09766 4.1089,-14.97916 15.97966,-22.071 11.87075,-7.09184 23.9627,-8.70847 27.00815,-3.61082 z"
         id="path4974-6-7-2" />
      <path
         inkscape:connector-curvature="0"
         id="path4974-6-7-8-4"
         d="m 238.01155,349.33393 c -5.3294,-0.1477 -12.83078,2.1613 -20.25,6.5937 -10.40622,6.2169 -17.19286,14.5663 -16.65625,19.9687 5.19833,1.5141 14.38034,-0.6828 23.4375,-6.0937 10.38695,-6.2054 17.16475,-14.5654 16.65625,-19.9687 -0.9472,-0.2793 -1.9986,-0.4671 -3.1875,-0.5 z"
         style="color:#000000;fill:#000000;fill-opacity:1;fill-rule:nonzero;stroke:#000000;stroke-width:4.48294926;stroke-linecap:butt;stroke-linejoin:miter;stroke-miterlimit:4;stroke-opacity:1;stroke-dasharray:none;stroke-dashoffset:0;marker:none;visibility:visible;display:inline;overflow:visible;filter:url(#filter7088-5);enable-background:accumulate" />
      <path
         inkscape:connector-curvature="0"
         sodipodi:nodetypes="ccsscc"
         id="path4969-6-0"
         d="m 181.45467,292.25363 c -23.13803,14.6368 -46.38376,51.5127 -31.92555,79.0272 9.40788,15.7475 42.56021,13.2326 74.05525,-5.5832 31.49508,-18.8158 49.42158,-46.8165 40.01368,-62.564 -1.204,-2.0153 -2.8044,-3.7587 -4.7331,-5.1807 -22.5571,-17.1964 -52.70403,-18.9242 -77.41028,-5.6993 z"
         style="color:#000000;fill:#d4aa00;fill-opacity:1;fill-rule:nonzero;stroke:#000000;stroke-width:4.27659416;stroke-linecap:butt;stroke-linejoin:miter;stroke-miterlimit:4;stroke-opacity:1;stroke-dasharray:none;stroke-dashoffset:0;marker:none;visibility:visible;display:inline;overflow:visible;enable-background:accumulate" />
      <path
         inkscape:connector-curvature="0"
         style="color:#000000;fill:#b3b3b3;fill-opacity:1;fill-rule:nonzero;stroke:#000000;stroke-width:4.48294926;stroke-linecap:butt;stroke-linejoin:miter;stroke-miterlimit:4;stroke-opacity:1;stroke-dashoffset:0;marker:none;visibility:visible;display:inline;overflow:visible;enable-background:accumulate"
         d="m 206.80362,288.7903 c 3.04541,5.0976 -4.10894,14.9791 -15.97969,22.07094 -11.87076,7.09184 -23.96271,8.70848 -27.00812,3.61088 -3.04545,-5.09766 4.1089,-14.97916 15.97965,-22.071 11.87076,-7.09184 23.96271,-8.70847 27.00816,-3.61082 z"
         id="path4974-4-0" />
      <path
         inkscape:connector-curvature="0"
         id="path4969-6-7-6"
         d="m 179.0775,299.09113 c -19.64835,14.8081 -37.4666,45.795 -25.1149,69.3007 8.58217,14.3655 38.8029,12.0903 67.53365,-5.0739 11.8948,-7.1064 21.6612,-15.6691 28.4217,-24.2598 -4.1884,3.3961 -8.8195,6.673 -13.826,9.6638 -28.73075,17.1642 -58.95148,19.4399 -67.53363,5.0744 -9.10714,-17.3312 -1.81581,-38.7212 10.51918,-54.7052 z"
         style="color:#000000;fill:url(#linearGradient13458-1);fill-opacity:1;fill-rule:nonzero;stroke:none;stroke-width:3.81570625;marker:none;visibility:visible;display:inline;overflow:visible;filter:url(#filter5937-8-7);enable-background:accumulate" />
      <path
         inkscape:connector-curvature="0"
         sodipodi:nodetypes="cccccc"
         id="path4969-6-2-8"
         d="m 205.44905,284.30263 c -8.25733,1.222 -16.39379,3.866 -24,7.9375 -4.69444,2.9696 -9.39374,6.8696 -13.78125,11.4062 20.20401,21.1317 -11.65486,95.4414 79.34375,44.0938 13.2034,-13.053 20.4366,-27.1268 18.9063,-37.9688 -14.2426,-20.4098 -37.15541,-22.2588 -60.4688,-25.4687 z"
         style="color:#000000;fill:url(#radialGradient13517-281);fill-opacity:1;fill-rule:nonzero;stroke:none;stroke-width:4.27659416;marker:none;visibility:visible;display:inline;overflow:visible;enable-background:accumulate" />
      <path
         inkscape:connector-curvature="0"
         id="path4974-4-3-5"
         d="m 207.32405,290.05263 c -2.91388,3.3898 -7.03244,6.8448 -12,9.8125 -11.87076,7.0918 -23.95457,8.6914 -27,3.5938 -0.23527,-0.3939 -0.4152,-0.8026 -0.53125,-1.25 -4.04928,4.7106 -5.73976,9.2855 -3.96875,12.25 3.04543,5.0976 15.12924,3.498 27,-3.5938 10.95369,-6.544 17.88616,-15.4683 16.5,-20.8125 z"
         style="opacity:0.68067226;color:#000000;fill:url(#linearGradient13462-3);fill-opacity:1;fill-rule:nonzero;stroke:none;stroke-width:3.81570625;marker:none;visibility:visible;display:inline;overflow:visible;filter:url(#filter6452-4);enable-background:accumulate" />
      <path
         inkscape:connector-curvature="0"
         style="opacity:0.68067226;color:#000000;fill:url(#radialGradient13464-50);fill-opacity:1;fill-rule:nonzero;stroke:none;stroke-width:3.81570625;marker:none;visibility:visible;display:inline;overflow:visible;filter:url(#filter5937-8-0);enable-background:accumulate"
         d="m 203.27535,292.50073 c 0,2.1479 -3.87813,3.8891 -8.66205,3.8891 -4.78393,0 -8.66206,-1.7412 -8.66206,-3.8891 0,-2.1479 3.87813,-3.8891 8.66206,-3.8891 4.78392,0 8.66205,1.7412 8.66205,3.8891 z"
         id="path6456-4" />
      <path
         inkscape:connector-curvature="0"
         sodipodi:nodetypes="ccc"
         id="path6505-9"
         d="m 320.91785,416.35233 9.5,-6 0,36.75"
         style="fill:none;stroke:#ffffff;stroke-width:2.5999999;stroke-linecap:butt;stroke-linejoin:miter;stroke-miterlimit:4;stroke-opacity:1;stroke-dasharray:none;filter:url(#filter6527-79)" />
      <g
         transform="matrix(0.93076381,0,0,0.93076381,-366.06658,-2140.6336)"
         style="font-size:99.31483459px;font-style:normal;font-variant:normal;font-weight:normal;font-stretch:normal;text-align:start;line-height:125%;writing-mode:lr-tb;text-anchor:start;opacity:0.74429226;color:#000000;fill:none;stroke:#000000;stroke-width:4.27659416;stroke-linecap:butt;stroke-linejoin:miter;stroke-miterlimit:4;stroke-opacity:1;stroke-dashoffset:0;marker:none;visibility:visible;display:inline;overflow:visible;filter:url(#filter6585-8-9);enable-background:accumulate;font-family:'Arista 2.0';-inkscape-font-specification:'Arista 2.0,'"
         id="text4462-78-9-4">
        <path
           inkscape:connector-curvature="0"
           d="m 756.90779,2778.2748 c -3e-5,1.7877 -0.62902,3.3436 -1.88698,4.6678 -1.25801,1.258 -2.78084,1.887 -4.56849,1.887 l -1.19177,0 c -1.8539,0 -3.40983,-0.629 -4.6678,-1.887 -1.258,-1.3242 -1.88699,-2.8801 -1.88698,-4.6678 l 0,-23.7362 c -1.39042,0.7283 -2.88014,0.8607 -4.46917,0.3972 -1.72146,-0.4634 -3.01255,-1.4897 -3.87328,-3.0787 -0.92694,-1.5228 -1.19178,-3.145 -0.79452,-4.8665 0.46347,-1.7876 1.52283,-3.1449 3.17808,-4.0719 6.95202,-4.5022 11.32187,-6.7533 13.10956,-6.7534 1.92006,10e-5 3.57531,0.6953 4.96574,2.0856 1.39038,1.3905 2.08558,3.0457 2.08561,4.9658 l 0,35.0581"
           style="marker:none"
           id="path3057" />
        <path
           inkscape:connector-curvature="0"
           d="m 788.6094,2756.1276 c 1.12553,-0.7945 1.72142,-1.7545 1.78766,-2.8801 -0.0662,-1.4566 -0.62902,-2.5491 -1.68835,-3.2774 -0.99318,-0.7283 -2.4829,-1.0593 -4.46917,-0.9932 -1.78769,10e-5 -3.37672,0.4966 -4.76711,1.4898 -1.39042,0.9931 -2.51599,2.218 -3.3767,3.6746 -0.72833,1.1256 -1.55595,2.0856 -2.48287,2.8801 -0.92696,0.7284 -2.11873,1.0925 -3.57534,1.0925 -1.85388,0 -3.44292,-0.6621 -4.76711,-1.9863 -1.3242,-1.3242 -1.9863,-2.9132 -1.9863,-4.7671 0,-1.7876 0.6952,-3.7408 2.08561,-5.8596 1.45662,-2.1849 3.54222,-4.0718 6.25684,-5.6609 2.7808,-1.6552 5.09814,-2.6484 6.95204,-2.9795 1.85385,-0.3972 3.47599,-0.5958 4.86642,-0.5959 3.5091,1e-4 6.42233,0.3642 8.73971,1.0925 2.38352,0.7284 4.50224,1.887 6.35615,3.476 1.92005,1.5229 3.44287,3.3437 4.56848,5.4623 1.19174,2.1188 1.78762,4.5686 1.78767,7.3493 -5e-5,4.1051 -1.82082,7.4818 -5.46232,10.1301 l -10.52737,7.6473 10.13011,0 c 1.78763,0 3.34356,0.629 4.6678,1.887 1.32415,1.258 1.98625,2.847 1.9863,4.7671 -5e-5,1.8539 -0.66215,3.4429 -1.9863,4.7671 -1.32424,1.3242 -2.88017,1.9863 -4.6678,1.9863 l -29.09924,0 c -1.258,-0.066 -2.41667,-0.4304 -3.47602,-1.0925 -0.99316,-0.6621 -1.82078,-1.4897 -2.48287,-2.4828 -0.5959,-0.9932 -0.86074,-2.3505 -0.79452,-4.072 0.0662,-1.7214 1.19177,-3.3104 3.3767,-4.7671 l 22.0479,-16.2876"
           style="marker:none"
           id="path3059" />
      </g>
      <path
         inkscape:connector-curvature="0"
         sodipodi:nodetypes="cccc"
         id="path6531-8"
         d="m 349.64645,417.65863 c 17.9204,-14.1645 24.8283,-6.6972 29.6985,4.7729 l -27.754,23.5113 28.6378,0"
         style="color:#000000;fill:none;stroke:#ffffff;stroke-width:2.5999999;stroke-linecap:butt;stroke-linejoin:miter;stroke-miterlimit:4;stroke-opacity:1;stroke-dasharray:none;stroke-dashoffset:0;marker:none;visibility:visible;display:inline;overflow:visible;filter:url(#filter6527-7-4);enable-background:accumulate" />
      <g
         style="font-size:87.85450745px;font-style:normal;font-variant:normal;font-weight:normal;font-stretch:normal;text-align:start;line-height:125%;writing-mode:lr-tb;text-anchor:start;opacity:0.72602743;color:#000000;fill:none;stroke:#000000;stroke-width:3.78310227;stroke-linecap:butt;stroke-linejoin:miter;stroke-miterlimit:4;stroke-opacity:1;stroke-dashoffset:0;marker:none;visibility:visible;display:inline;overflow:visible;filter:url(#filter6686-0-3);enable-background:accumulate;font-family:'Arista 2.0';-inkscape-font-specification:'Arista 2.0,'"
         id="text4462-5-7-7-3"
         transform="translate(-770.00005,-4172.0975)">
        <path
           inkscape:connector-curvature="0"
           d="m 1109.3696,4872.2697 c -2.5186,-1.4056 -4.6271,-3.2506 -6.3256,-5.5348 -1.6399,-2.3428 -2.8406,-4.832 -3.602,-7.4676 -0.7028,-2.6356 -0.9078,-5.3591 -0.615,-8.1705 0.3514,-2.8113 1.23,-5.4469 2.6356,-7.9069 l 12.9147,-22.4907 c 0.8199,-1.2885 1.9913,-2.0792 3.5141,-2.3721 1.5228,-0.2928 2.8992,-0.088 4.1292,0.615 1.4056,0.82 2.3135,1.9914 2.7235,3.5141 0.41,1.5229 0.2342,2.9286 -0.5271,4.2171 l -3.2507,5.7105 c 3.2799,0.2343 6.472,1.2593 9.5762,3.0749 2.6356,1.4643 4.8027,3.3385 6.5012,5.6227 1.6985,2.2842 2.8699,4.7442 3.5142,7.3798 0.7028,2.5771 0.8785,5.2713 0.5271,8.0826 -0.3514,2.7528 -1.2593,5.3884 -2.7235,7.9069 -1.4642,2.5771 -3.3385,4.7149 -5.6226,6.4134 -2.2257,1.6399 -4.6564,2.8113 -7.292,3.5142 -2.6356,0.7028 -5.3591,0.9078 -8.1704,0.6149 -2.7528,-0.3514 -5.3885,-1.2592 -7.9069,-2.7235 m 2.1085,-23.3693 c -0.7029,1.1715 -1.1422,2.4014 -1.3179,3.6899 -0.1171,1.23 -0.029,2.46 0.2636,3.6899 0.3514,1.1714 0.9078,2.3135 1.6692,3.4264 0.7614,1.0542 1.7571,1.9328 2.9871,2.6356 1.1714,0.6443 2.372,1.0543 3.602,1.23 1.2885,0.1171 2.5185,0.029 3.6899,-0.2636 1.23,-0.3514 2.3721,-0.9078 3.4263,-1.6692 1.0543,-0.7614 1.9328,-1.7278 2.6357,-2.8992 0.6442,-1.1714 1.0542,-2.4014 1.2299,-3.6899 0.1757,-1.2885 0.088,-2.5478 -0.2635,-3.7778 -0.2929,-1.2299 -0.82,-2.372 -1.5814,-3.4263 -0.7029,-1.0542 -1.6693,-1.9328 -2.8992,-2.6356 -1.1128,-0.6443 -2.3135,-1.025 -3.602,-1.1422 -1.2886,-0.1756 -2.5478,-0.1171 -3.7778,0.1758 -1.23,0.2928 -2.3721,0.8492 -3.4263,1.6692 -1.0543,0.7614 -1.9328,1.7571 -2.6356,2.987"
           style="marker:none"
           id="path3062" />
      </g>
      <path
         inkscape:connector-curvature="0"
         sodipodi:nodetypes="ccc"
         id="path6690-3"
         d="m 348.41785,649.85233 c -27.0359,30.2791 -11.2057,51.596 1.5,51 14.1566,3.8727 37.1111,-37.8297 -9.25,-36.25"
         style="opacity:0.70588235;color:#000000;fill:none;stroke:#ffffff;stroke-width:2.5999999;stroke-linecap:butt;stroke-linejoin:miter;stroke-miterlimit:4;stroke-opacity:1;stroke-dasharray:none;stroke-dashoffset:0;marker:none;visibility:visible;display:inline;overflow:visible;filter:url(#filter6527-7-8-6);enable-background:accumulate" />
      <g
         style="font-size:93.49293518px;font-style:normal;font-variant:normal;font-weight:normal;font-stretch:normal;text-align:start;line-height:125%;writing-mode:lr-tb;text-anchor:start;color:#000000;fill:none;stroke:#000000;stroke-width:4.02589703;stroke-linecap:butt;stroke-linejoin:miter;stroke-miterlimit:4;stroke-opacity:1;stroke-dashoffset:0;marker:none;visibility:visible;display:inline;overflow:visible;filter:url(#filter6748-2-2);enable-background:accumulate;font-family:'Arista 2.0';-inkscape-font-specification:'Arista 2.0,'"
         id="text4462-4-7-5-9-6"
         transform="translate(-770.00005,-4172.0975)">
        <path
           inkscape:connector-curvature="0"
           d="m 1269.1405,4699.2776 c 1.2466,1.3712 1.8699,2.9294 1.8699,4.6746 0,1.7452 -0.5922,3.2411 -1.7764,4.4877 l -9.0688,9.0688 c 2.4308,1.0596 4.6123,2.4931 6.5445,4.3007 1.9322,1.8698 3.4592,4.0825 4.5812,6.638 1.1842,2.4931 1.7763,5.2044 1.7763,8.1338 0,2.9295 -0.561,5.6408 -1.6828,8.1339 -1.0597,2.5555 -2.5555,4.7682 -4.4877,6.638 -1.8699,1.9322 -4.0825,3.4281 -6.638,4.4877 -2.5555,1.1219 -5.2668,1.6828 -8.1339,1.6829 -2.3062,-10e-5 -4.4253,-0.2805 -6.3575,-0.8415 -1.9322,-0.5609 -3.7709,-1.3401 -5.5161,-2.3373 -1.7452,-0.9973 -3.3346,-2.2127 -4.7681,-3.6462 -1.3712,-1.3713 -2.3373,-2.9295 -2.8983,-4.6747 -0.374,-0.9972 -0.4986,-2.0257 -0.374,-3.0852 0.1247,-1.0596 0.4363,-2.0257 0.935,-2.8983 0.4986,-0.8726 1.1842,-1.5894 2.0568,-2.1504 0.9349,-0.5609 1.9945,-0.8414 3.1788,-0.8414 1.6205,0 3.0541,0.6233 4.3006,1.8699 0.748,0.5609 1.3401,1.1842 1.7764,1.8698 0.4986,0.6856 1.0284,1.3401 1.5894,1.9634 0.5609,0.6233 1.2154,1.1219 1.9633,1.4959 0.8103,0.4363 2.1815,0.6544 4.1137,0.6544 2.3685,0 4.3318,-0.7791 5.8901,-2.3373 1.6205,-1.6206 2.4308,-3.6151 2.4308,-5.9836 0,-2.3061 -0.8103,-4.2383 -2.4308,-5.7965 -1.5583,-1.6206 -3.5216,-2.4308 -5.8901,-2.4308 l -3.3657,0 c -0.374,0.062 -0.748,0.093 -1.1219,0.093 -0.3117,0 -0.5922,-0.031 -0.8415,-0.093 l 0.094,0 -0.094,0 c -1.3712,-0.187 -2.5555,-0.8103 -3.5527,-1.8699 -1.3089,-1.2466 -1.9634,-2.7113 -1.9634,-4.3942 0,-1.7451 0.6233,-3.241 1.8699,-4.4876 l 7.4794,-7.573 -9.9102,0 c -1.8075,1e-4 -3.3034,-0.6232 -4.4877,-1.8698 -1.1842,-1.2465 -1.7763,-2.7424 -1.7763,-4.4877 0,-1.8075 0.5921,-3.3033 1.7763,-4.4876 1.1843,-1.2466 2.6802,-1.8698 4.4877,-1.8699 l 22.9058,0 c 0.5609,1e-4 1.0907,0.062 1.5893,0.187 1.4336,0.1247 2.7425,0.7168 3.9267,1.7764"
           style="marker:none"
           id="path3065" />
      </g>
      <path
         inkscape:connector-curvature="0"
         sodipodi:nodetypes="cccc"
         id="path6752-2"
         d="m 470.41785,530.10233 23.25,0 -11.75,16.5 c 36.3196,23.774 1.0545,40.8177 -13,30.25"
         style="opacity:0.70588235;color:#000000;fill:none;stroke:#ffffff;stroke-width:2.5999999;stroke-linecap:butt;stroke-linejoin:miter;stroke-miterlimit:4;stroke-opacity:1;stroke-dasharray:none;stroke-dashoffset:0;marker:none;visibility:visible;display:inline;overflow:visible;filter:url(#filter6527-7-8-0-8);enable-background:accumulate" />
      <g
         style="font-size:87.85450745px;font-style:normal;font-variant:normal;font-weight:normal;font-stretch:normal;text-align:start;line-height:125%;writing-mode:lr-tb;text-anchor:start;opacity:0.84474888;color:#000000;fill:none;stroke:#000000;stroke-width:3.78310204;stroke-linecap:butt;stroke-linejoin:miter;stroke-miterlimit:4;stroke-opacity:1;stroke-dashoffset:0;marker:none;visibility:visible;display:inline;overflow:visible;filter:url(#filter6821-0-6);enable-background:accumulate;font-family:'Arista 2.0';-inkscape-font-specification:'Arista 2.0,'"
         id="text4462-4-1-6-4"
         transform="translate(-770.00005,-4172.0975)">
        <path
           inkscape:connector-curvature="0"
           d="m 994.20199,4701.8095 c 2.51846,1.4057 4.59768,3.2799 6.23771,5.6227 1.6984,2.2842 2.8991,4.7442 3.602,7.3798 0.7614,2.6356 0.9663,5.3591 0.615,8.1704 -0.2929,2.8114 -1.1422,5.447 -2.5478,7.907 l -12.91462,22.4907 c -0.82,1.2885 -1.9914,2.0792 -3.51418,2.3721 -1.52283,0.2928 -2.89922,0.088 -4.12916,-0.615 -1.40569,-0.82 -2.31352,-1.9914 -2.72349,-3.5142 -0.41001,-1.5228 -0.2343,-2.9285 0.52713,-4.217 l 3.25061,-5.7105 c -3.27992,-0.2343 -6.47196,-1.2593 -9.57614,-3.075 -2.63564,-1.4642 -4.80272,-3.3384 -6.50123,-5.6226 -1.69853,-2.2842 -2.8992,-4.7149 -3.60204,-7.292 -0.64427,-2.6356 -0.79069,-5.3298 -0.43927,-8.0826 0.35142,-2.8113 1.25924,-5.4762 2.72349,-7.9947 1.46424,-2.5771 3.30918,-4.6856 5.53483,-6.3256 2.28421,-1.6984 4.74413,-2.8991 7.37978,-3.602 2.63562,-0.7028 5.32982,-0.8785 8.08262,-0.5271 2.81131,0.2929 5.47623,1.1714 7.99476,2.6356 m -2.10851,23.3693 c 0.7028,-1.1714 1.11279,-2.372 1.22996,-3.602 0.17568,-1.2885 0.0878,-2.5185 -0.26356,-3.6899 -0.29288,-1.23 -0.82001,-2.3721 -1.58138,-3.4263 -0.76144,-1.1128 -1.75712,-2.0207 -2.98706,-2.7235 -1.17142,-0.6443 -2.40138,-1.025 -3.68989,-1.1421 -1.22998,-0.1757 -2.45994,-0.088 -3.68988,0.2635 -1.17142,0.2929 -2.28424,0.82 -3.33848,1.5814 -1.05427,0.7614 -1.93281,1.7278 -2.63563,2.8992 -0.64428,1.1714 -1.05427,2.4014 -1.22996,3.6899 -0.17573,1.2885 -0.11716,2.5478 0.17571,3.7777 0.3514,1.23 0.87853,2.3721 1.58138,3.4264 0.76139,1.0542 1.75707,1.9328 2.98705,2.6356 1.1128,0.6443 2.31348,1.0543 3.60203,1.23 1.28851,0.1171 2.54776,0.029 3.77775,-0.2636 1.22993,-0.2928 2.37204,-0.82 3.42632,-1.5814 1.05423,-0.8199 1.93277,-1.8449 2.63564,-3.0749"
           style="marker:none"
           id="path3068" />
      </g>
      <path
         inkscape:connector-curvature="0"
         transform="matrix(-1,0,0,-1,776.66786,3439.9644)"
         sodipodi:nodetypes="ccc"
         id="path6690-5-0"
         d="m 562.98184,2860.2351 c -27.03581,30.2791 -11.20563,51.596 1.5,51 14.15667,3.8727 37.11117,-37.8297 -9.25,-36.25"
         style="opacity:0.70588235;color:#000000;fill:none;stroke:#ffffff;stroke-width:2.5999999;stroke-linecap:butt;stroke-linejoin:miter;stroke-miterlimit:4;stroke-opacity:1;stroke-dasharray:none;stroke-dashoffset:0;marker:none;visibility:visible;display:inline;overflow:visible;filter:url(#filter6527-7-8-3-9);enable-background:accumulate" />
      <path
         inkscape:connector-curvature="0"
         style="opacity:0.11243699;color:#000000;fill:#00ffff;fill-opacity:1;fill-rule:nonzero;stroke:none;stroke-width:3.73331475;marker:none;visibility:visible;display:inline;overflow:visible;enable-background:accumulate"
         d="m 518.37558,555.60753 c 0,92.99117 -75.38424,168.37535 -168.3754,168.37535 -92.99116,0 -168.3754,-75.38418 -168.3754,-168.37535 0,-92.99118 75.38424,-168.37544 168.3754,-168.37544 92.99116,0 168.3754,75.38426 168.3754,168.37544 z"
         id="path4407-6-7-1-0-9-4" />
      <path
         inkscape:connector-curvature="0"
         transform="matrix(-0.83609919,-0.5485783,-0.5485783,0.83609919,2290.3928,-1720.7164)"
         style="opacity:0.55707762;color:#000000;fill:#000000;fill-opacity:1;fill-rule:nonzero;stroke:none;stroke-width:5.25099993;marker:none;visibility:visible;display:inline;overflow:visible;filter:url(#filter7228-4-6);enable-background:accumulate"
         d="m 434.16355,2744.4688 c 0,13.6683 -28.17584,24.7487 -62.9325,24.7487 -34.75666,0 -62.9325,-11.0804 -62.9325,-24.7487 0,-13.6684 28.17584,-24.7488 62.9325,-24.7488 34.75666,0 62.9325,11.0804 62.9325,24.7488 z"
         id="path7218-6-9" />
      <path
         inkscape:connector-curvature="0"
         style="color:#000000;fill:#b3b3b3;fill-opacity:1;fill-rule:nonzero;stroke:#000000;stroke-width:4.48294926;stroke-linecap:butt;stroke-linejoin:miter;stroke-miterlimit:4;stroke-opacity:1;stroke-dashoffset:0;marker:none;visibility:visible;display:inline;overflow:visible;enable-background:accumulate"
         d="m 459.01472,350.3121 c -3.04541,5.0976 4.10894,14.9791 15.97969,22.07094 11.87076,7.09184 23.96271,8.70848 27.00812,3.61088 3.04544,-5.09766 -4.1089,-14.97916 -15.97966,-22.071 -11.87075,-7.09184 -23.9627,-8.70847 -27.00815,-3.61082 z"
         id="path4974-6-7-9-5" />
      <path
         inkscape:connector-curvature="0"
         transform="matrix(-1,0,0,1,1123.1027,-2333.7647)"
         id="path4974-6-7-8-1-4"
         d="m 657.34375,2681.0938 c -5.32941,-0.1477 -12.83078,2.1613 -20.25,6.5937 -10.40622,6.2169 -17.19286,14.5663 -16.65625,19.9687 5.19833,1.5141 14.38034,-0.6828 23.4375,-6.0937 10.38691,-6.2054 17.16477,-14.5654 16.65625,-19.9687 -0.94716,-0.2793 -1.99863,-0.4671 -3.1875,-0.5 z"
         style="color:#000000;fill:#000000;fill-opacity:1;fill-rule:nonzero;stroke:#000000;stroke-width:4.48294926;stroke-linecap:butt;stroke-linejoin:miter;stroke-miterlimit:4;stroke-opacity:1;stroke-dasharray:none;stroke-dashoffset:0;marker:none;visibility:visible;display:inline;overflow:visible;filter:url(#filter7088-2-5);enable-background:accumulate" />
      <path
         inkscape:connector-curvature="0"
         sodipodi:nodetypes="ccsscc"
         id="path4969-6-3-6"
         d="m 522.31575,290.24883 c 23.1381,14.6368 46.3838,51.5127 31.9256,79.0272 -9.4079,15.7475 -42.5602,13.2326 -74.0553,-5.5832 -31.495,-18.8158 -49.4216,-46.8165 -40.0137,-62.564 1.204,-2.0153 2.8044,-3.7587 4.7332,-5.1807 22.557,-17.1964 52.704,-18.9242 77.4102,-5.6993 z"
         style="color:#000000;fill:#d4aa00;fill-opacity:1;fill-rule:nonzero;stroke:#000000;stroke-width:4.27659416;stroke-linecap:butt;stroke-linejoin:miter;stroke-miterlimit:4;stroke-opacity:1;stroke-dasharray:none;stroke-dashoffset:0;marker:none;visibility:visible;display:inline;overflow:visible;enable-background:accumulate" />
      <path
         inkscape:connector-curvature="0"
         style="color:#000000;fill:#b3b3b3;fill-opacity:1;fill-rule:nonzero;stroke:#000000;stroke-width:4.48294926;stroke-linecap:butt;stroke-linejoin:miter;stroke-miterlimit:4;stroke-opacity:1;stroke-dashoffset:0;marker:none;visibility:visible;display:inline;overflow:visible;enable-background:accumulate"
         d="m 496.96682,286.7855 c -3.04541,5.0976 4.10894,14.9791 15.97969,22.07094 11.87076,7.09184 23.96271,8.70848 27.00812,3.61088 3.04544,-5.09766 -4.1089,-14.97916 -15.97966,-22.071 -11.87075,-7.09184 -23.9627,-8.70847 -27.00815,-3.61082 z"
         id="path4974-4-31-4" />
      <path
         inkscape:connector-curvature="0"
         transform="matrix(-1,0,0,1,1123.1027,-2333.7647)"
         id="path4969-6-7-5-2"
         d="m 598.4097,2630.851 c -19.64835,14.8081 -37.4666,45.795 -25.1149,69.3007 8.58217,14.3655 38.8029,12.0903 67.53365,-5.0739 11.89476,-7.1064 21.66121,-15.6691 28.42175,-24.2598 -4.18841,3.3961 -8.81951,6.673 -13.82605,9.6638 -28.73075,17.1642 -58.95148,19.4399 -67.53363,5.0744 -9.10714,-17.3312 -1.81581,-38.7212 10.51918,-54.7052 z"
         style="color:#000000;fill:url(#linearGradient13466-21);fill-opacity:1;fill-rule:nonzero;stroke:none;stroke-width:3.81570625;marker:none;visibility:visible;display:inline;overflow:visible;filter:url(#filter5937-8-6-8);enable-background:accumulate" />
      <path
         inkscape:connector-curvature="0"
         sodipodi:nodetypes="cccccc"
         id="path4969-6-2-2-5"
         d="m 498.32145,282.29783 c 8.2573,1.222 16.3937,3.866 24,7.9375 4.6944,2.9696 9.3937,6.8696 13.7812,11.4062 -20.204,21.1317 11.6549,95.4414 -79.3437,44.0938 -13.2034,-13.053 -20.4366,-27.1268 -18.9063,-37.9688 14.2425,-20.4098 37.1554,-22.2588 60.4688,-25.4687 z"
         style="color:#000000;fill:url(#radialGradient13492-84);fill-opacity:1;fill-rule:nonzero;stroke:none;stroke-width:4.27659416;marker:none;visibility:visible;display:inline;overflow:visible;enable-background:accumulate" />
      <path
         inkscape:connector-curvature="0"
         transform="matrix(-1,0,0,1,1123.1027,-2333.7647)"
         id="path4974-4-3-6-1"
         d="m 626.65625,2621.8125 c -2.91388,3.3898 -7.03244,6.8448 -12,9.8125 -11.87076,7.0918 -23.95457,8.6914 -27,3.5938 -0.23527,-0.3939 -0.4152,-0.8026 -0.53125,-1.25 -4.04928,4.7106 -5.73976,9.2855 -3.96875,12.25 3.04543,5.0976 15.12924,3.498 27,-3.5938 10.95369,-6.544 17.88616,-15.4683 16.5,-20.8125 z"
         style="opacity:0.68067226;color:#000000;fill:url(#linearGradient13470-8);fill-opacity:1;fill-rule:nonzero;stroke:none;stroke-width:3.81570625;marker:none;visibility:visible;display:inline;overflow:visible;filter:url(#filter6452-8-7);enable-background:accumulate" />
      <path
         inkscape:connector-curvature="0"
         style="opacity:0.68067226;color:#000000;fill:url(#radialGradient13472-7);fill-opacity:1;fill-rule:nonzero;stroke:none;stroke-width:3.81570625;marker:none;visibility:visible;display:inline;overflow:visible;filter:url(#filter5937-8-0);enable-background:accumulate"
         d="m 500.49517,290.49593 c 0,2.1479 3.87813,3.8891 8.66205,3.8891 4.78393,0 8.66206,-1.7412 8.66206,-3.8891 0,-2.1479 -3.87813,-3.8891 -8.66206,-3.8891 -4.78392,0 -8.66205,1.7412 -8.66205,3.8891 z"
         id="path6456-9-6" />
      <path
         inkscape:connector-curvature="0"
         id="path5042-4-0-1"
         d="m 310.88655,310.95893 c -1.7207,4.5749 -2.6562,9.5417 -2.6562,14.7187 0,3.8357 0.5322,7.5654 1.5,11.0937 11.0952,5.9912 25.0853,9.5938 40.2812,9.5938 15.2069,0 29.1821,-3.5948 40.2813,-9.5938 0.9677,-3.5284 1.5,-7.258 1.5,-11.0937 0,-3.5718 -0.4383,-7.0659 -1.2813,-10.375 -0.1569,2.9111 -0.6005,5.7277 -1.3437,8.4375 -10.5937,5.7257 -23.9544,9.1562 -38.4688,9.1562 -14.5039,0 -27.8475,-3.4379 -38.4375,-9.1562 -0.9237,-3.3678 -1.4375,-6.9016 -1.4375,-10.5625 0,-0.741 0.023,-1.4877 0.063,-2.2187 z"
         style="opacity:0.543379;color:#000000;fill:#000000;fill-opacity:1;fill-rule:nonzero;stroke:none;stroke-width:4.27659416;marker:none;visibility:visible;display:inline;overflow:visible;filter:url(#filter7296-8);enable-background:accumulate" />
      <path
         inkscape:connector-curvature="0"
         transform="matrix(0.86496802,0,0,0.86496802,-315.41456,-1979.0428)"
         id="path7300-3"
         d="m 769.34375,2618.4846 c -13.85602,0 -26.14909,6.7416 -33.75,17.125 9.13695,7.4647 21.19832,12 34.4375,12 12.79734,0 24.51158,-4.2561 33.53125,-11.2812 -7.55425,-10.7893 -20.04614,-17.8438 -34.21875,-17.8438 z"
         style="opacity:0.543379;color:#000000;fill:url(#radialGradient13474-83);fill-opacity:1;fill-rule:nonzero;stroke:none;stroke-width:5.25099993;marker:none;visibility:visible;display:inline;overflow:visible;filter:url(#filter7333-3);enable-background:accumulate" />
      <g
         id="g9055"
         transform="translate(-770.00005,-4172.0975)">
        <path
           inkscape:connector-curvature="0"
           transform="matrix(2,0,0,2,692.8572,3666.9805)"
           style="color:#000000;fill:#d4aa00;fill-opacity:1;fill-rule:nonzero;stroke:#000000;stroke-width:2.13829708;stroke-linecap:butt;stroke-linejoin:miter;stroke-miterlimit:4;stroke-opacity:1;stroke-dashoffset:0;marker:none;visibility:visible;display:inline;overflow:visible;enable-background:accumulate"
           d="m 222.85714,530.2193 c 0,5.12836 -4.15736,9.28571 -9.28571,9.28571 -5.12836,0 -9.28572,-4.15735 -9.28572,-9.28571 0,-5.12836 4.15736,-9.28571 9.28572,-9.28571 5.12835,0 9.28571,4.15735 9.28571,9.28571 z"
           id="path2863-9-9" />
        <path
           inkscape:connector-curvature="0"
           style="opacity:0.70319633;color:#000000;fill:#000000;fill-opacity:1;fill-rule:nonzero;stroke:none;stroke-width:4.27659416;marker:none;visibility:visible;display:inline;overflow:visible;filter:url(#filter6293-1);enable-background:accumulate"
           d="m 1114.8554,4709.5876 c -7.7489,2.2342 -13.4375,9.3756 -13.4375,17.8438 0,10.2567 8.337,18.5624 18.5937,18.5624 10.2567,0 18.5625,-8.3057 18.5625,-18.5624 0,-0.7064 -0.048,-1.4079 -0.125,-2.0938 -1.7272,6.3683 -7.5225,11.0625 -14.4375,11.0625 -8.2757,0 -15,-6.6931 -15,-14.9687 0,-4.8223 2.3052,-9.1029 5.8438,-11.8438 z"
           id="path2863-9-3-7" />
        <path
           inkscape:connector-curvature="0"
           transform="translate(350.66785,1840.3376)"
           style="opacity:0.70319633;color:#000000;fill:#ffffff;fill-opacity:1;fill-rule:nonzero;stroke:none;stroke-width:4.27659416;marker:none;visibility:visible;display:inline;overflow:visible;filter:url(#filter6303-9);enable-background:accumulate"
           d="m 780.5,2882.4873 c 0,3.2447 -2.63033,5.875 -5.875,5.875 -3.24467,0 -5.875,-2.6303 -5.875,-5.875 0,-3.2447 2.63033,-5.875 5.875,-5.875 3.24467,0 5.875,2.6303 5.875,5.875 z"
           id="path6297-6" />
      </g>
    </g>
  </g>
</svg>
