<?xml version="1.0" encoding="UTF-8" standalone="no"?>
<!-- Created with Inkscape (http://www.inkscape.org/) -->

<svg
   xmlns:dc="http://purl.org/dc/elements/1.1/"
   xmlns:cc="http://creativecommons.org/ns#"
   xmlns:rdf="http://www.w3.org/1999/02/22-rdf-syntax-ns#"
   xmlns:svg="http://www.w3.org/2000/svg"
   xmlns="http://www.w3.org/2000/svg"
   xmlns:sodipodi="http://sodipodi.sourceforge.net/DTD/sodipodi-0.dtd"
   xmlns:inkscape="http://www.inkscape.org/namespaces/inkscape"
   width="381.41104"
   height="584.65771"
   id="svg3606"
   sodipodi:version="0.32"
   inkscape:version="0.48.3.1 r9886"
   sodipodi:docname="silla_iso.svg"
   inkscape:output_extension="org.inkscape.output.svg.inkscape"
   version="1.0"
   sodipodi:modified="true">
  <defs
     id="defs3608" />
  <sodipodi:namedview
     id="base"
     pagecolor="#ffffff"
     bordercolor="#666666"
     borderopacity="1.0"
     inkscape:pageopacity="0.0"
     inkscape:pageshadow="2"
     inkscape:zoom="0.19368132"
     inkscape:cx="574.16413"
     inkscape:cy="-91.711988"
     inkscape:current-layer="layer1"
     inkscape:document-units="px"
     inkscape:window-width="822"
     inkscape:window-height="581"
     inkscape:window-x="96"
     inkscape:window-y="48"
     width="480px"
     height="640px"
     showgrid="false"
     fit-margin-top="0"
     fit-margin-left="0"
     fit-margin-right="0"
     fit-margin-bottom="0"
     inkscape:window-maximized="0" />
  <metadata
     id="metadata3611">
    <rdf:RDF>
      <cc:Work
         rdf:about="">
        <dc:format>image/svg+xml</dc:format>
        <dc:type
           rdf:resource="http://purl.org/dc/dcmitype/StillImage" />
        <dc:title></dc:title>
      </cc:Work>
    </rdf:RDF>
  </metadata>
  <g
     id="layer1"
     inkscape:label="Layer 1"
     inkscape:groupmode="layer"
     transform="translate(-57.1256,-31.487889)">
    <g
       id="g3207"
       transform="matrix(1.314853,0,0,1.314853,-179.8603,20.243868)">
      <path
         id="path4275"
         d="m 186.67278,247.42247 141.13128,-79.70338 139.67071,79.70338 -280.80199,0 z"
         style="color:#000000;fill:none;stroke:#ab0000;stroke-width:2.27757931;stroke-linecap:butt;stroke-linejoin:miter;stroke-miterlimit:4;stroke-opacity:1;stroke-dasharray:none;stroke-dashoffset:0;marker:none;visibility:visible;display:inline;overflow:visible;enable-background:accumulate"
         inkscape:connector-curvature="0" />
      <path
         id="path4267"
         d="M 326.58786,167.29194 183.88084,248.58228 325.82878,333.62564 467.77673,248.58228 326.58786,167.29194 z"
         style="fill:none;stroke:#000000;stroke-width:3.32667398px;stroke-linecap:butt;stroke-linejoin:miter;stroke-opacity:1;display:inline"
         inkscape:connector-curvature="0" />
      <path
         id="path2510"
         d="m 210.9562,385.69275 0,-139.88392 26.17521,-15.54265 0,139.06588 -26.17521,16.36069 z"
         style="fill:#ff6600;fill-rule:evenodd;stroke:#000000;stroke-width:3.32667398px;stroke-linecap:butt;stroke-linejoin:miter;stroke-opacity:1;display:inline"
         inkscape:connector-curvature="0" />
      <path
         sodipodi:nodetypes="ccccc"
         id="path2496"
         d="m 181.9009,226.176 1.22704,23.50764 143.15796,84.88195 0,-24.54104 -144.385,-83.84855 z"
         style="fill:#552200;fill-rule:evenodd;stroke:#000000;stroke-width:3.32667398px;stroke-linecap:butt;stroke-linejoin:miter;stroke-opacity:1;display:inline"
         inkscape:connector-curvature="0" />
      <path
         id="path2520"
         d="m 439.99089,383.55892 0,-139.88391 -26.1752,-15.54266 0,139.06589 26.1752,16.36068 z"
         style="fill:#552200;fill-rule:evenodd;stroke:#000000;stroke-width:3.32667398px;stroke-linecap:butt;stroke-linejoin:miter;stroke-opacity:1;display:inline"
         inkscape:connector-curvature="0" />
      <path
         sodipodi:nodetypes="ccccc"
         id="path2498"
         d="m 468.65308,227.40304 0,22.2806 -140.70384,84.88195 0,-24.54104 140.70384,-82.62151 z"
         style="fill:#ff6600;fill-rule:evenodd;stroke:#000000;stroke-width:3.32667398px;stroke-linecap:butt;stroke-linejoin:miter;stroke-opacity:1;display:inline"
         inkscape:connector-curvature="0" />
      <g
         transform="matrix(3.326674,0,0,3.326674,-179.26133,-280.59644)"
         id="g2504"
         style="display:inline">
        <path
           sodipodi:nodetypes="ccccc"
           style="fill:#ff6600;fill-rule:evenodd;stroke:#000000;stroke-width:1px;stroke-linecap:butt;stroke-linejoin:miter;stroke-opacity:1"
           d="m 152.77516,220.08197 -0.30738,-41.80328 7.86828,-4.67213 0,41.80328 -7.5609,4.67213 z"
           id="path2500"
           inkscape:connector-curvature="0" />
        <path
           style="fill:#552200;fill-rule:evenodd;stroke:#000000;stroke-width:1px;stroke-linecap:butt;stroke-linejoin:miter;stroke-opacity:1"
           d="m 151.96693,220.08196 0,-42.04918 -7.86828,-4.67213 0,41.80328 7.86828,4.91803 z"
           id="path2502"
           inkscape:connector-curvature="0" />
      </g>
      <path
         id="path2512"
         d="m 208.88102,384.87469 0,-139.88392 -26.1752,-15.54265 0,139.06588 26.1752,16.36069 z"
         style="fill:#552200;fill-rule:evenodd;stroke:#000000;stroke-width:3.32667398px;stroke-linecap:butt;stroke-linejoin:miter;stroke-opacity:1;display:inline"
         inkscape:connector-curvature="0" />
      <path
         id="path2488"
         d="M 326.58786,144.38699 183.88084,225.67733 325.82878,310.72069 467.77673,225.67733 326.58786,144.38699 z"
         style="fill:#aa4400;fill-rule:evenodd;stroke:#000000;stroke-width:3.32667398px;stroke-linecap:butt;stroke-linejoin:miter;stroke-opacity:1;display:inline"
         inkscape:connector-curvature="0" />
      <path
         id="path2518"
         d="m 441.65705,384.37698 0,-139.88391 26.1752,-15.54266 0,139.06589 -26.1752,16.36068 z"
         style="fill:#ff6600;fill-rule:evenodd;stroke:#000000;stroke-width:3.32667398px;stroke-linecap:butt;stroke-linejoin:miter;stroke-opacity:1;display:inline"
         inkscape:connector-curvature="0" />
      <g
         transform="matrix(3.326674,0,0,3.326674,-296.92865,-487.40706)"
         id="g2544"
         style="display:inline">
        <path
           style="fill:#ff6600;fill-rule:evenodd;stroke:#000000;stroke-width:1px;stroke-linecap:butt;stroke-linejoin:miter;stroke-opacity:1"
           d="m 152.46778,220.32787 0,-42.04918 7.86828,-4.67213 0,41.80328 -7.86828,4.91803 z"
           id="path2546"
           inkscape:connector-curvature="0" />
        <path
           style="fill:#552200;fill-rule:evenodd;stroke:#000000;stroke-width:1px;stroke-linecap:butt;stroke-linejoin:miter;stroke-opacity:1"
           d="m 151.96693,220.08196 0,-42.04918 -7.86828,-4.67213 0,41.80328 7.86828,4.91803 z"
           id="path2548"
           inkscape:connector-curvature="0" />
      </g>
      <path
         id="path2552"
         d="m 325.96947,178.45313 0,-139.883878 26.1752,-15.542653 0,139.065851 -26.1752,16.36068 z"
         style="fill:#ff6600;fill-rule:evenodd;stroke:#000000;stroke-width:3.32667398px;stroke-linecap:butt;stroke-linejoin:miter;stroke-opacity:1;display:inline"
         inkscape:connector-curvature="0" />
      <path
         sodipodi:nodetypes="ccccc"
         id="path2568"
         d="M 209.30507,104.69788 182.30991,88.33716 320.15065,10.214879 351.23406,21.667353 209.30507,104.69788 z"
         style="color:#000000;fill:#aa4400;fill-opacity:1;fill-rule:evenodd;stroke:#000000;stroke-width:3.32667398px;stroke-linecap:butt;stroke-linejoin:miter;stroke-miterlimit:4;stroke-opacity:1;stroke-dasharray:none;stroke-dashoffset:0;marker:none;visibility:visible;display:inline;overflow:visible;enable-background:accumulate"
         inkscape:connector-curvature="0" />
      <path
         id="path2601"
         d="M 210.53212,105.51591 352.4611,23.712459 353.27917,162.77831 211.35015,244.58179 210.53212,105.51591 z"
         style="color:#000000;fill:#ff6600;fill-opacity:1;fill-rule:evenodd;stroke:#000000;stroke-width:3.32667398px;stroke-linecap:butt;stroke-linejoin:miter;stroke-miterlimit:4;stroke-opacity:1;stroke-dasharray:none;stroke-dashoffset:0;marker:none;visibility:visible;display:inline;overflow:visible;enable-background:accumulate"
         inkscape:connector-curvature="0" />
      <path
         id="path2603"
         d="m 239.57235,226.99403 0,-75.66819 2.45409,73.21407 -2.45409,2.45412 z"
         style="fill:#000000;fill-rule:evenodd;stroke:#000000;stroke-width:0.99800223;stroke-linecap:butt;stroke-linejoin:miter;stroke-miterlimit:4;stroke-opacity:1;stroke-dasharray:none;display:inline"
         inkscape:connector-curvature="0" />
      <path
         sodipodi:nodetypes="cccc"
         id="path3574"
         d="m 255.90606,78.169115 -0.94318,43.650085 -2.02405,-40.997196 2.96723,-2.652889 z"
         style="fill:#000000;fill-rule:evenodd;stroke:#000000;stroke-width:0.56741589;stroke-linecap:butt;stroke-linejoin:miter;stroke-miterlimit:4;stroke-opacity:1;stroke-dasharray:none;display:inline"
         inkscape:connector-curvature="0" />
      <path
         id="path3576"
         d="m 333.48572,175.74672 0,-55.96803 1.81517,54.15283 -1.81517,1.8152 z"
         style="fill:#000000;fill-rule:evenodd;stroke:#000000;stroke-width:0.73817241;stroke-linecap:butt;stroke-linejoin:miter;stroke-miterlimit:4;stroke-opacity:1;stroke-dasharray:none;display:inline"
         inkscape:connector-curvature="0" />
      <path
         sodipodi:nodetypes="cccc"
         id="path3578"
         d="m 257.53177,78.008203 -26.88831,-11.746618 24.43272,12.807462 2.45559,-1.060844 z"
         style="fill:#000000;fill-rule:evenodd;stroke:#000000;stroke-width:0.38133642;stroke-linecap:butt;stroke-linejoin:miter;stroke-miterlimit:4;stroke-opacity:1;stroke-dasharray:none;display:inline"
         inkscape:connector-curvature="0" />
      <path
         id="path3584"
         d="m 300.9122,54.976974 0,75.668226 -2.45409,-73.214072 2.45409,-2.454154 z"
         style="fill:#000000;fill-rule:evenodd;stroke:#000000;stroke-width:0.99800211;stroke-linecap:butt;stroke-linejoin:miter;stroke-miterlimit:4;stroke-opacity:1;stroke-dasharray:none;display:inline"
         inkscape:connector-curvature="0" />
      <path
         sodipodi:nodetypes="cccc"
         id="path3586"
         d="m 299.72717,51.502862 -15.11777,-5.312832 12.5545,6.58096 2.56327,-1.268128 z"
         style="fill:#000000;fill-rule:evenodd;stroke:#000000;stroke-width:0.19594552;stroke-linecap:butt;stroke-linejoin:miter;stroke-miterlimit:4;stroke-opacity:1;stroke-dasharray:none;display:inline"
         inkscape:connector-curvature="0" />
      <path
         transform="matrix(3.326674,0,0,3.326674,-178.4433,-281.20995)"
         d="m 149.56967,179.50819 c 0,0.33952 -0.22019,0.61476 -0.4918,0.61476 -0.27162,0 -0.49181,-0.27524 -0.49181,-0.61476 0,-0.33952 0.22019,-0.61475 0.49181,-0.61475 0.27161,0 0.4918,0.27523 0.4918,0.61475 z"
         sodipodi:ry="0.61475408"
         sodipodi:rx="0.49180329"
         sodipodi:cy="179.50819"
         sodipodi:cx="149.07787"
         id="path3588"
         style="color:#000000;fill:#000000;fill-opacity:1;fill-rule:evenodd;stroke:#000000;stroke-width:0.30000001;stroke-linecap:butt;stroke-linejoin:miter;stroke-miterlimit:4;stroke-opacity:1;stroke-dasharray:none;stroke-dashoffset:0;marker:none;visibility:visible;display:inline;overflow:visible;enable-background:accumulate"
         sodipodi:type="arc" />
      <path
         transform="matrix(3.326674,0,0,3.326674,-189.69128,-279.16487)"
         d="m 149.56967,179.50819 c 0,0.33952 -0.22019,0.61476 -0.4918,0.61476 -0.27162,0 -0.49181,-0.27524 -0.49181,-0.61476 0,-0.33952 0.22019,-0.61475 0.49181,-0.61475 0.27161,0 0.4918,0.27523 0.4918,0.61475 z"
         sodipodi:ry="0.61475408"
         sodipodi:rx="0.49180329"
         sodipodi:cy="179.50819"
         sodipodi:cx="149.07787"
         id="path3590"
         style="color:#000000;fill:#000000;fill-opacity:1;fill-rule:evenodd;stroke:#000000;stroke-width:0.30000001;stroke-linecap:butt;stroke-linejoin:miter;stroke-miterlimit:4;stroke-opacity:1;stroke-dasharray:none;stroke-dashoffset:0;marker:none;visibility:visible;display:inline;overflow:visible;enable-background:accumulate"
         sodipodi:type="arc" />
      <path
         transform="matrix(3.326674,0,0,3.326674,-294.00427,-339.21012)"
         d="m 149.56967,179.50819 c 0,0.33952 -0.22019,0.61476 -0.4918,0.61476 -0.27162,0 -0.49181,-0.27524 -0.49181,-0.61476 0,-0.33952 0.22019,-0.61475 0.49181,-0.61475 0.27161,0 0.4918,0.27523 0.4918,0.61475 z"
         sodipodi:ry="0.61475408"
         sodipodi:rx="0.49180329"
         sodipodi:cy="179.50819"
         sodipodi:cx="149.07787"
         id="path3592"
         style="color:#000000;fill:#000000;fill-opacity:1;fill-rule:evenodd;stroke:#000000;stroke-width:0.30000001;stroke-linecap:butt;stroke-linejoin:miter;stroke-miterlimit:4;stroke-opacity:1;stroke-dasharray:none;stroke-dashoffset:0;marker:none;visibility:visible;display:inline;overflow:visible;enable-background:accumulate"
         sodipodi:type="arc" />
      <path
         transform="matrix(3.326674,0,0,3.326674,-304.81593,-352.80341)"
         d="m 149.56967,179.50819 c 0,0.33952 -0.22019,0.61476 -0.4918,0.61476 -0.27162,0 -0.49181,-0.27524 -0.49181,-0.61476 0,-0.33952 0.22019,-0.61475 0.49181,-0.61475 0.27161,0 0.4918,0.27523 0.4918,0.61475 z"
         sodipodi:ry="0.61475408"
         sodipodi:rx="0.49180329"
         sodipodi:cy="179.50819"
         sodipodi:cx="149.07787"
         id="path3594"
         style="color:#000000;fill:#000000;fill-opacity:1;fill-rule:evenodd;stroke:#000000;stroke-width:0.30000001;stroke-linecap:butt;stroke-linejoin:miter;stroke-miterlimit:4;stroke-opacity:1;stroke-dasharray:none;stroke-dashoffset:0;marker:none;visibility:visible;display:inline;overflow:visible;enable-background:accumulate"
         sodipodi:type="arc" />
      <path
         id="path3596"
         d="m 338.42151,445.90874 0,-29.63022 -0.96101,28.66918 0.96101,0.96104 z"
         style="fill:#000000;fill-rule:evenodd;stroke:#000000;stroke-width:0.39079779;stroke-linecap:butt;stroke-linejoin:miter;stroke-miterlimit:4;stroke-opacity:1;stroke-dasharray:none;display:inline"
         inkscape:connector-curvature="0" />
      <path
         id="path3598"
         d="m 345.32872,302.11605 0,36.26783 1.17624,-35.09155 -1.17624,-1.17628 z"
         style="fill:#000000;fill-rule:evenodd;stroke:#000000;stroke-width:0.47834262;stroke-linecap:butt;stroke-linejoin:miter;stroke-miterlimit:4;stroke-opacity:1;stroke-dasharray:none;display:inline"
         inkscape:connector-curvature="0" />
      <path
         id="path3600"
         d="m 454.73238,237.05988 0,49.40128 1.60219,-47.79905 -1.60219,-1.60223 z"
         style="fill:#000000;fill-rule:evenodd;stroke:#000000;stroke-width:0.65156233;stroke-linecap:butt;stroke-linejoin:miter;stroke-miterlimit:4;stroke-opacity:1;stroke-dasharray:none;display:inline"
         inkscape:connector-curvature="0" />
      <path
         sodipodi:nodetypes="cccc"
         id="path3602"
         d="m 462.40073,371.10122 -1.17591,-22.30205 -0.74821,22.32075 1.92412,-0.0187 z"
         style="fill:#000000;fill-rule:evenodd;stroke:#000000;stroke-width:0.30426016;stroke-linecap:butt;stroke-linejoin:miter;stroke-miterlimit:4;stroke-opacity:1;stroke-dasharray:none;display:inline"
         inkscape:connector-curvature="0" />
      <path
         sodipodi:nodetypes="ccccc"
         id="path3604"
         d="m 236.32968,302.09482 -25.79756,15.29203 0.81803,-50.71814 23.75988,13.85668 1.21965,21.56943 z"
         style="opacity:0.74500002;fill:#000000;fill-rule:evenodd;stroke:#000000;stroke-width:3.32667398px;stroke-linecap:butt;stroke-linejoin:miter;stroke-opacity:1;display:inline"
         inkscape:connector-curvature="0" />
      <path
         transform="matrix(-3.326674,0,0,3.326674,844.82748,-278.25844)"
         d="m 149.56967,179.50819 c 0,0.33952 -0.22019,0.61476 -0.4918,0.61476 -0.27162,0 -0.49181,-0.27524 -0.49181,-0.61476 0,-0.33952 0.22019,-0.61475 0.49181,-0.61475 0.27161,0 0.4918,0.27523 0.4918,0.61475 z"
         sodipodi:ry="0.61475408"
         sodipodi:rx="0.49180329"
         sodipodi:cy="179.50819"
         sodipodi:cx="149.07787"
         id="path3716"
         style="color:#000000;fill:#000000;fill-opacity:1;fill-rule:evenodd;stroke:#000000;stroke-width:0.30000001;stroke-linecap:butt;stroke-linejoin:miter;stroke-miterlimit:4;stroke-opacity:1;stroke-dasharray:none;stroke-dashoffset:0;marker:none;visibility:visible;display:inline;overflow:visible;enable-background:accumulate"
         sodipodi:type="arc" />
      <path
         transform="matrix(3.326674,0,0,3.326674,-159.3847,-279.86869)"
         d="m 149.56967,179.50819 c 0,0.33952 -0.22019,0.61476 -0.4918,0.61476 -0.27162,0 -0.49181,-0.27524 -0.49181,-0.61476 0,-0.33952 0.22019,-0.61475 0.49181,-0.61475 0.27161,0 0.4918,0.27523 0.4918,0.61475 z"
         sodipodi:ry="0.61475408"
         sodipodi:rx="0.49180329"
         sodipodi:cy="179.50819"
         sodipodi:cx="149.07787"
         id="path3718"
         style="color:#000000;fill:#000000;fill-opacity:1;fill-rule:evenodd;stroke:#000000;stroke-width:0.30000001;stroke-linecap:butt;stroke-linejoin:miter;stroke-miterlimit:4;stroke-opacity:1;stroke-dasharray:none;stroke-dashoffset:0;marker:none;visibility:visible;display:inline;overflow:visible;enable-background:accumulate"
         sodipodi:type="arc" />
      <path
         transform="matrix(3.326674,0,0,3.326674,-48.302281,-339.84503)"
         d="m 149.56967,179.50819 c 0,0.33952 -0.22019,0.61476 -0.4918,0.61476 -0.27162,0 -0.49181,-0.27524 -0.49181,-0.61476 0,-0.33952 0.22019,-0.61475 0.49181,-0.61475 0.27161,0 0.4918,0.27523 0.4918,0.61475 z"
         sodipodi:ry="0.61475408"
         sodipodi:rx="0.49180329"
         sodipodi:cy="179.50819"
         sodipodi:cx="149.07787"
         id="path3720"
         style="color:#000000;fill:#000000;fill-opacity:1;fill-rule:evenodd;stroke:#000000;stroke-width:0.30000001;stroke-linecap:butt;stroke-linejoin:miter;stroke-miterlimit:4;stroke-opacity:1;stroke-dasharray:none;stroke-dashoffset:0;marker:none;visibility:visible;display:inline;overflow:visible;enable-background:accumulate"
         sodipodi:type="arc" />
      <path
         transform="matrix(-3.326674,0,0,3.326674,957.42804,-355.8778)"
         d="m 149.56967,179.50819 c 0,0.33952 -0.22019,0.61476 -0.4918,0.61476 -0.27162,0 -0.49181,-0.27524 -0.49181,-0.61476 0,-0.33952 0.22019,-0.61475 0.49181,-0.61475 0.27161,0 0.4918,0.27523 0.4918,0.61475 z"
         sodipodi:ry="0.61475408"
         sodipodi:rx="0.49180329"
         sodipodi:cy="179.50819"
         sodipodi:cx="149.07787"
         id="path3722"
         style="color:#000000;fill:#000000;fill-opacity:1;fill-rule:evenodd;stroke:#000000;stroke-width:0.30000001;stroke-linecap:butt;stroke-linejoin:miter;stroke-miterlimit:4;stroke-opacity:1;stroke-dasharray:none;stroke-dashoffset:0;marker:none;visibility:visible;display:inline;overflow:visible;enable-background:accumulate"
         sodipodi:type="arc" />
    </g>
  </g>
</svg>
