<?xml version="1.0" encoding="UTF-8" standalone="no"?>
<!-- Created with Inkscape (http://www.inkscape.org/) -->

<svg
   xmlns:dc="http://purl.org/dc/elements/1.1/"
   xmlns:cc="http://creativecommons.org/ns#"
   xmlns:rdf="http://www.w3.org/1999/02/22-rdf-syntax-ns#"
   xmlns:svg="http://www.w3.org/2000/svg"
   xmlns="http://www.w3.org/2000/svg"
   xmlns:sodipodi="http://sodipodi.sourceforge.net/DTD/sodipodi-0.dtd"
   xmlns:inkscape="http://www.inkscape.org/namespaces/inkscape"
   width="605.90002"
   height="454.44836"
   id="svg3378"
   sodipodi:version="0.32"
   inkscape:version="0.48.3.1 r9886"
   sodipodi:docname="pececito.svg"
   inkscape:output_extension="org.inkscape.output.svg.inkscape"
   version="1.1">
  <defs
     id="defs3380">
    <inkscape:perspective
       sodipodi:type="inkscape:persp3d"
       inkscape:vp_x="0 : 240 : 1"
       inkscape:vp_y="0 : 1000 : 0"
       inkscape:vp_z="640 : 240 : 1"
       inkscape:persp3d-origin="320 : 160 : 1"
       id="perspective5126" />
  </defs>
  <sodipodi:namedview
     id="base"
     pagecolor="#ffffff"
     bordercolor="#666666"
     borderopacity="1.0"
     inkscape:pageopacity="0.0"
     inkscape:pageshadow="2"
     inkscape:zoom="0.77472527"
     inkscape:cx="195.97292"
     inkscape:cy="214.0157"
     inkscape:current-layer="layer1"
     inkscape:document-units="px"
     inkscape:window-width="1022"
     inkscape:window-height="693"
     inkscape:window-x="0"
     inkscape:window-y="48"
     showguides="true"
     inkscape:guide-bbox="true"
     showgrid="false"
     inkscape:window-maximized="0"
     fit-margin-top="0"
     fit-margin-left="0"
     fit-margin-right="0"
     fit-margin-bottom="0" />
  <metadata
     id="metadata3383">
    <rdf:RDF>
      <cc:Work
         rdf:about="">
        <dc:format>image/svg+xml</dc:format>
        <dc:type
           rdf:resource="http://purl.org/dc/dcmitype/StillImage" />
        <dc:title></dc:title>
        <dc:date>27/01/2008</dc:date>
        <dc:creator>
          <cc:Agent>
            <dc:title>Vladimir Zuñiga C</dc:title>
          </cc:Agent>
        </dc:creator>
        <cc:license
           rdf:resource="http://creativecommons.org/licenses/by/2.5/" />
      </cc:Work>
      <cc:License
         rdf:about="http://creativecommons.org/licenses/by/2.5/">
        <cc:permits
           rdf:resource="http://web.resource.org/cc/Reproduction" />
        <cc:permits
           rdf:resource="http://web.resource.org/cc/Distribution" />
        <cc:requires
           rdf:resource="http://web.resource.org/cc/Notice" />
        <cc:requires
           rdf:resource="http://web.resource.org/cc/Attribution" />
        <cc:permits
           rdf:resource="http://web.resource.org/cc/DerivativeWorks" />
      </cc:License>
    </rdf:RDF>
  </metadata>
  <g
     id="layer1"
     inkscape:label="Layer 1"
     inkscape:groupmode="layer"
     transform="translate(-20.390419,-3.0098589)">
    <g
       id="g5128">
      <path
         sodipodi:nodetypes="cccc"
         id="path3369"
         d="M 454.57838,228.93832 C 481.40165,63.493194 554.50984,39.33019 624.29044,5.0098589 461.70196,180.99093 541.53917,229.8925 572.71129,314.35431 485.87931,293.52938 480.20227,261.89534 454.57838,228.93832 z"
         style="fill:#37abc8;fill-rule:evenodd;stroke:#000000;stroke-width:4;stroke-linecap:butt;stroke-linejoin:miter;stroke-miterlimit:4;stroke-opacity:1;stroke-dasharray:none;display:inline"
         inkscape:connector-curvature="0" />
      <path
         sodipodi:nodetypes="cccc"
         id="path3556"
         d="m 237.37793,402.07826 c -20.69934,-36.33247 -41.39871,-39.03233 -62.09806,-53.70614 4.08863,32.99082 1.64016,68.69074 18.8994,96.22352 41.17112,22.13669 40.26727,-12.79113 43.19866,-42.51738 z"
         style="fill:#37abc8;fill-rule:evenodd;stroke:#000000;stroke-width:4;stroke-linecap:butt;stroke-linejoin:miter;stroke-miterlimit:4;stroke-opacity:1;stroke-dasharray:none;display:inline"
         inkscape:connector-curvature="0" />
      <path
         sodipodi:nodetypes="cccc"
         id="path4046"
         d="M 173.5219,62.890153 C 232.15046,13.723536 350.87042,27.597801 378.82381,58.809189 301.43979,78.787637 370.85712,134.49325 326.89598,158.38466 L 173.5219,62.890153 z"
         style="fill:#37abc8;fill-rule:evenodd;stroke:#000000;stroke-width:4;stroke-linecap:butt;stroke-linejoin:miter;stroke-miterlimit:4;stroke-opacity:1;stroke-dasharray:none;display:inline"
         inkscape:connector-curvature="0" />
      <path
         sodipodi:nodetypes="cccc"
         id="path3377"
         d="M 457.07416,226.62978 C 400.97441,333.06952 300.26631,354.7741 205.00183,376.6849 248.31006,274.19626 221.4955,171.30686 172.55688,62.723394 287.62717,61.195777 396.61858,160.55019 457.07416,226.62978 z"
         style="fill:#37abc8;fill-rule:evenodd;stroke:#000000;stroke-width:4;stroke-linecap:butt;stroke-linejoin:miter;stroke-miterlimit:4;stroke-opacity:1;stroke-dasharray:none;display:inline"
         inkscape:connector-curvature="0" />
      <path
         sodipodi:nodetypes="cccc"
         id="path3558"
         d="m 237.37793,402.07826 c -20.69934,-36.33247 -41.39871,-39.03233 -62.09806,-53.70614 4.08863,32.99082 1.64016,68.69074 18.8994,96.22352 41.17112,22.13669 40.26727,-12.79113 43.19866,-42.51738 z"
         style="opacity:0.45049504;fill:#000000;fill-rule:evenodd;stroke:#000000;stroke-width:4;stroke-linecap:butt;stroke-linejoin:miter;stroke-miterlimit:4;stroke-opacity:1;stroke-dasharray:none;display:inline"
         inkscape:connector-curvature="0" />
      <path
         sodipodi:nodetypes="ccsc"
         id="path3407"
         d="m 45.272823,308.58298 c 121.909687,-0.35071 132.914947,-46.2104 168.936057,-43.46008 -8.38745,2.12955 -9.21713,37.50503 -21.01818,43.29694 -33.65784,16.51914 -123.563558,28.43941 -147.917877,0.16314 z"
         style="fill:#004455;fill-rule:evenodd;stroke:#000000;stroke-width:4;stroke-linecap:butt;stroke-linejoin:miter;stroke-miterlimit:4;stroke-opacity:1;stroke-dasharray:none;display:inline"
         inkscape:connector-curvature="0" />
      <path
         sodipodi:nodetypes="cccccc"
         id="path3405"
         d="M 172.53167,62.552058 C 231.89449,167.02469 245.31021,273.12969 216.06271,377.60233 115.41842,379.92242 49.274492,339.85553 42.223952,308.68257 60.017361,341.35139 208.90042,332.24904 199.02654,259.53747 194.15186,296.8234 70.026656,300.97749 22.390419,269.86497 35.446171,69.667401 164.2426,63.927402 172.53167,62.552058 z"
         style="fill:#5fbcd3;fill-rule:evenodd;stroke:#000000;stroke-width:4;stroke-linecap:butt;stroke-linejoin:miter;stroke-miterlimit:4;stroke-opacity:1;stroke-dasharray:none;display:inline"
         inkscape:connector-curvature="0" />
      <path
         sodipodi:nodetypes="cccc"
         id="path3401"
         d="M 455.41032,225.47552 C 198.9962,381.68111 114.67881,376.75473 46.104758,319.04575 c 50.285361,35.68198 47.759487,48.3612 173.871662,55.33063 185.06647,-42.9616 206.1051,-101.17486 235.4339,-148.90086 z"
         style="opacity:0.2142857;fill:#000000;fill-rule:evenodd;stroke:#000000;stroke-width:4;stroke-linecap:butt;stroke-linejoin:miter;stroke-miterlimit:4;stroke-opacity:1;stroke-dasharray:none;display:inline"
         inkscape:connector-curvature="0" />
      <path
         sodipodi:nodetypes="cccc"
         id="path3365"
         d="m 295.07794,404.3874 c -25.51226,-37.48175 -51.02453,-40.26702 -76.5368,-55.40497 5.03928,34.0344 2.02153,70.86356 23.29382,99.26728 50.74402,22.83691 49.63001,-13.19577 53.24298,-43.86231 z"
         style="fill:#37abc8;fill-rule:evenodd;stroke:#000000;stroke-width:4;stroke-linecap:butt;stroke-linejoin:miter;stroke-miterlimit:4;stroke-opacity:1;stroke-dasharray:none;display:inline"
         inkscape:connector-curvature="0" />
      <path
         sodipodi:nodetypes="ccc"
         id="path4379"
         d="m 198.13475,222.19371 c -10.0577,54.98454 -83.28236,49.10601 -109.070918,12.9078 27.201038,23.8118 79.988638,49.97004 109.070918,-12.9078 z"
         style="fill:#000000;fill-rule:evenodd;stroke:#000000;stroke-width:1px;stroke-linecap:butt;stroke-linejoin:miter;stroke-opacity:1"
         inkscape:connector-curvature="0" />
      <path
         transform="matrix(-1.7618512,1.1544159,0.8297769,2.4511525,296.44335,-391.4226)"
         d="m 189.74468,161.5 c 0,14.43578 -14.44755,26.1383 -32.26951,26.1383 -17.82195,0 -32.2695,-11.70252 -32.2695,-26.1383 0,-14.43578 14.44755,-26.1383 32.2695,-26.1383 17.82196,0 32.26951,11.70252 32.26951,26.1383 z"
         sodipodi:ry="26.138298"
         sodipodi:rx="32.269505"
         sodipodi:cy="161.5"
         sodipodi:cx="157.47517"
         id="path3406"
         style="fill:#ffffff;fill-opacity:1;fill-rule:nonzero;stroke:#040411;stroke-width:1.74135816;stroke-linejoin:round;stroke-miterlimit:4;stroke-opacity:1;stroke-dasharray:none;display:inline"
         sodipodi:type="arc" />
      <path
         sodipodi:nodetypes="cccc"
         id="path4050"
         d="M 454.12077,223.68006 C 241.67852,140.77005 44.983411,61.8876 23.516225,263.79473 35.045209,102.39324 131.03807,46.923848 219.99426,68.603504 292.32389,83.825371 382.57858,138.91993 454.12077,223.68006 z"
         style="opacity:0.26020406;fill:#ffffff;fill-rule:evenodd;stroke:none;display:inline"
         inkscape:connector-curvature="0" />
      <path
         sodipodi:nodetypes="ccc"
         id="path6544"
         d="M 373.30223,57.410919 C 271.67352,33.584277 229.1129,51.949128 176.15484,62.887236 256.92801,8.3609827 353.99304,39.197476 373.30223,57.410919 z"
         style="opacity:0.37623764;fill:#ffffff;fill-rule:evenodd;stroke:none"
         inkscape:connector-curvature="0" />
      <path
         sodipodi:nodetypes="cccc"
         id="path3403"
         d="m 454.57841,224.56221 c 41.25372,36.87935 72.99379,44.44142 83.19217,13.61026 l 34.94071,73.87331 c -32.76592,-0.59229 -86.99022,-25.0865 -118.13288,-87.48357 z"
         style="opacity:0.27040818;fill:#000000;fill-rule:evenodd;stroke:none;display:inline"
         inkscape:connector-curvature="0" />
      <path
         id="path3465"
         d="m 428.78882,210.1402 -190.51013,-6.59583 15.80653,28.85677 174.7036,-22.26094 z"
         style="opacity:0.30102042;fill:#ffffff;fill-rule:evenodd;stroke:none;display:inline"
         inkscape:connector-curvature="0" />
      <path
         sodipodi:nodetypes="cccc"
         id="path3467"
         d="m 219.97642,353.21898 60.73031,96.18498 c -12.75614,9.6746 -28.00805,4.97197 -38.26841,-3.4628 -26.93831,-36.30494 -20.47973,-70.03721 -22.4619,-92.72218 z"
         style="opacity:0.09693879;fill:#000000;fill-rule:evenodd;stroke:none;display:inline"
         inkscape:connector-curvature="0" />
      <path
         sodipodi:nodetypes="ccc"
         id="path4377"
         d="m 212.97872,166.98581 c -3.6038,-56.90528 -51.65825,-67.072361 -101.97163,-46.46808 53.57532,-10.34532 86.77925,-18.65461 101.97163,46.46808 z"
         style="fill:#000000;fill-rule:evenodd;stroke:#000000;stroke-width:1px;stroke-linecap:butt;stroke-linejoin:miter;stroke-opacity:1"
         inkscape:connector-curvature="0" />
      <path
         sodipodi:nodetypes="ccc"
         id="path4381"
         d="m 186.95162,260.00889 c 9.89269,-5.51306 16.66,-10.33123 19.56184,24.04904 -1.97688,-20.11608 -6.63024,-27.30893 -19.56184,-24.04904 z"
         style="fill:#000000;fill-rule:evenodd;stroke:none"
         inkscape:connector-curvature="0" />
      <path
         transform="translate(3.6508776,9.127194)"
         d="m 175.69848,182.68166 c 0,18.77701 -9.29652,33.99879 -20.76437,33.99879 -11.46784,0 -20.76436,-15.22178 -20.76436,-33.99879 0,-18.77702 9.29652,-33.9988 20.76436,-33.9988 11.46785,0 20.76437,15.22178 20.76437,33.9988 z"
         sodipodi:ry="33.998798"
         sodipodi:rx="20.764366"
         sodipodi:cy="182.68166"
         sodipodi:cx="154.93411"
         id="path5352"
         style="fill:#000000;fill-opacity:1;fill-rule:nonzero;stroke:none"
         sodipodi:type="arc" />
      <path
         transform="matrix(0.5434782,0,0,0.6923078,68.692058,60.632916)"
         d="m 162.46406,179.25896 c 0,9.82958 -9.39869,17.79803 -20.99255,17.79803 -11.59386,0 -20.99254,-7.96845 -20.99254,-17.79803 0,-9.82958 9.39868,-17.79803 20.99254,-17.79803 11.59386,0 20.99255,7.96845 20.99255,17.79803 z"
         sodipodi:ry="17.798029"
         sodipodi:rx="20.992546"
         sodipodi:cy="179.25896"
         sodipodi:cx="141.47151"
         id="path6323"
         style="fill:#ffffff;fill-opacity:1;fill-rule:nonzero;stroke:none"
         sodipodi:type="arc" />
      <path
         sodipodi:nodetypes="ccc"
         id="path6325"
         d="m 142.38423,210.29142 c 13.01291,8.33719 21.82012,9.59604 32.40153,-2.2818 -8.84552,21.88658 -21.88252,18.89368 -32.40153,2.2818 z"
         style="fill:#ffffff;fill-rule:evenodd;stroke:#000000;stroke-width:1px;stroke-linecap:butt;stroke-linejoin:miter;stroke-opacity:1"
         inkscape:connector-curvature="0" />
      <path
         transform="matrix(1.9310345,0,0,1.5483871,-152.10941,-105.31063)"
         d="m 176.6112,199.11061 c 0,3.90663 -2.96262,7.07358 -6.61721,7.07358 -3.65459,0 -6.61722,-3.16695 -6.61722,-7.07358 0,-3.90663 2.96263,-7.07357 6.61722,-7.07357 3.65459,0 6.61721,3.16694 6.61721,7.07357 z"
         sodipodi:ry="7.0735755"
         sodipodi:rx="6.6172156"
         sodipodi:cy="199.11061"
         sodipodi:cx="169.99399"
         id="path6327"
         style="opacity:0.59405942;fill:#ffffff;fill-opacity:1;fill-rule:nonzero;stroke:none"
         sodipodi:type="arc" />
      <path
         sodipodi:nodetypes="ccc"
         id="path6329"
         d="m 250.08511,175.15172 c 28.8987,31.22569 26.32823,70.73274 9.1272,114.08993 14.82079,-31.15952 7.57381,-70.80664 -9.1272,-114.08993 z"
         style="fill:#000000;fill-rule:evenodd;stroke:#000000;stroke-width:1px;stroke-linecap:butt;stroke-linejoin:miter;stroke-opacity:1"
         inkscape:connector-curvature="0" />
      <path
         sodipodi:nodetypes="ccc"
         id="path6331"
         d="m 236.37736,184.73527 c 28.8987,31.22569 26.32823,70.73274 9.1272,114.08993 14.82079,-31.15952 7.57381,-70.80664 -9.1272,-114.08993 z"
         style="fill:#000000;fill-rule:evenodd;stroke:#000000;stroke-width:1px;stroke-linecap:butt;stroke-linejoin:miter;stroke-opacity:1"
         inkscape:connector-curvature="0" />
      <path
         sodipodi:nodetypes="cccc"
         id="path3161"
         d="m 196.23467,246.80019 20.07983,-12.32171 c 8.13011,16.09723 -1.07106,34.36086 -1.82544,51.56865 -1.69233,-18.46379 8.03726,-54.08765 -18.25439,-39.24694 z"
         style="opacity:0.25247527;fill:#ffffff;fill-rule:evenodd;stroke:none"
         inkscape:connector-curvature="0" />
    </g>
  </g>
</svg>
