<?xml version="1.0" encoding="UTF-8" standalone="no"?>
<!-- Created with Inkscape (http://www.inkscape.org/) -->

<svg
   xmlns:dc="http://purl.org/dc/elements/1.1/"
   xmlns:cc="http://creativecommons.org/ns#"
   xmlns:rdf="http://www.w3.org/1999/02/22-rdf-syntax-ns#"
   xmlns:svg="http://www.w3.org/2000/svg"
   xmlns="http://www.w3.org/2000/svg"
   xmlns:sodipodi="http://sodipodi.sourceforge.net/DTD/sodipodi-0.dtd"
   xmlns:inkscape="http://www.inkscape.org/namespaces/inkscape"
   width="403.90598"
   height="399.8909"
   id="svg16710"
   version="1.1"
   inkscape:version="0.48.3.1 r9886"
   sodipodi:docname="pez2.svg">
  <defs
     id="defs16712">
    <inkscape:perspective
       sodipodi:type="inkscape:persp3d"
       inkscape:vp_x="0 : 240 : 1"
       inkscape:vp_y="0 : 1000 : 0"
       inkscape:vp_z="640 : 240 : 1"
       inkscape:persp3d-origin="320 : 160 : 1"
       id="perspective16718" />
    <inkscape:perspective
       id="perspective16728"
       inkscape:persp3d-origin="0.5 : 0.33333333 : 1"
       inkscape:vp_z="1 : 0.5 : 1"
       inkscape:vp_y="0 : 1000 : 0"
       inkscape:vp_x="0 : 0.5 : 1"
       sodipodi:type="inkscape:persp3d" />
    <inkscape:perspective
       id="perspective16945"
       inkscape:persp3d-origin="0.5 : 0.33333333 : 1"
       inkscape:vp_z="1 : 0.5 : 1"
       inkscape:vp_y="0 : 1000 : 0"
       inkscape:vp_x="0 : 0.5 : 1"
       sodipodi:type="inkscape:persp3d" />
    <inkscape:perspective
       id="perspective17500"
       inkscape:persp3d-origin="0.5 : 0.33333333 : 1"
       inkscape:vp_z="1 : 0.5 : 1"
       inkscape:vp_y="0 : 1000 : 0"
       inkscape:vp_x="0 : 0.5 : 1"
       sodipodi:type="inkscape:persp3d" />
    <inkscape:perspective
       id="perspective18110"
       inkscape:persp3d-origin="0.5 : 0.33333333 : 1"
       inkscape:vp_z="1 : 0.5 : 1"
       inkscape:vp_y="0 : 1000 : 0"
       inkscape:vp_x="0 : 0.5 : 1"
       sodipodi:type="inkscape:persp3d" />
    <inkscape:perspective
       id="perspective18132"
       inkscape:persp3d-origin="0.5 : 0.33333333 : 1"
       inkscape:vp_z="1 : 0.5 : 1"
       inkscape:vp_y="0 : 1000 : 0"
       inkscape:vp_x="0 : 0.5 : 1"
       sodipodi:type="inkscape:persp3d" />
    <inkscape:perspective
       id="perspective18153"
       inkscape:persp3d-origin="0.5 : 0.33333333 : 1"
       inkscape:vp_z="1 : 0.5 : 1"
       inkscape:vp_y="0 : 1000 : 0"
       inkscape:vp_x="0 : 0.5 : 1"
       sodipodi:type="inkscape:persp3d" />
    <inkscape:perspective
       id="perspective18175"
       inkscape:persp3d-origin="0.5 : 0.33333333 : 1"
       inkscape:vp_z="1 : 0.5 : 1"
       inkscape:vp_y="0 : 1000 : 0"
       inkscape:vp_x="0 : 0.5 : 1"
       sodipodi:type="inkscape:persp3d" />
    <inkscape:perspective
       id="perspective18216"
       inkscape:persp3d-origin="0.5 : 0.33333333 : 1"
       inkscape:vp_z="1 : 0.5 : 1"
       inkscape:vp_y="0 : 1000 : 0"
       inkscape:vp_x="0 : 0.5 : 1"
       sodipodi:type="inkscape:persp3d" />
    <inkscape:perspective
       id="perspective18238"
       inkscape:persp3d-origin="0.5 : 0.33333333 : 1"
       inkscape:vp_z="1 : 0.5 : 1"
       inkscape:vp_y="0 : 1000 : 0"
       inkscape:vp_x="0 : 0.5 : 1"
       sodipodi:type="inkscape:persp3d" />
    <inkscape:perspective
       id="perspective18238-5"
       inkscape:persp3d-origin="0.5 : 0.33333333 : 1"
       inkscape:vp_z="1 : 0.5 : 1"
       inkscape:vp_y="0 : 1000 : 0"
       inkscape:vp_x="0 : 0.5 : 1"
       sodipodi:type="inkscape:persp3d" />
    <inkscape:perspective
       id="perspective18271"
       inkscape:persp3d-origin="0.5 : 0.33333333 : 1"
       inkscape:vp_z="1 : 0.5 : 1"
       inkscape:vp_y="0 : 1000 : 0"
       inkscape:vp_x="0 : 0.5 : 1"
       sodipodi:type="inkscape:persp3d" />
    <inkscape:perspective
       id="perspective18293"
       inkscape:persp3d-origin="0.5 : 0.33333333 : 1"
       inkscape:vp_z="1 : 0.5 : 1"
       inkscape:vp_y="0 : 1000 : 0"
       inkscape:vp_x="0 : 0.5 : 1"
       sodipodi:type="inkscape:persp3d" />
  </defs>
  <sodipodi:namedview
     id="base"
     pagecolor="#ffffff"
     bordercolor="#666666"
     borderopacity="1.0"
     inkscape:pageopacity="0.0"
     inkscape:pageshadow="2"
     inkscape:zoom="0.38736264"
     inkscape:cx="375.55845"
     inkscape:cy="199.96395"
     inkscape:current-layer="layer1"
     inkscape:document-units="px"
     showgrid="false"
     inkscape:window-width="1264"
     inkscape:window-height="715"
     inkscape:window-x="0"
     inkscape:window-y="48"
     inkscape:window-maximized="1"
     fit-margin-top="0"
     fit-margin-left="0"
     fit-margin-right="0"
     fit-margin-bottom="0" />
  <metadata
     id="metadata16715">
    <rdf:RDF>
      <cc:Work
         rdf:about="">
        <dc:format>image/svg+xml</dc:format>
        <dc:type
           rdf:resource="http://purl.org/dc/dcmitype/StillImage" />
        <dc:title></dc:title>
        <dc:title />
      </cc:Work>
    </rdf:RDF>
  </metadata>
  <g
     id="layer1"
     inkscape:label="Layer 1"
     inkscape:groupmode="layer"
     transform="translate(-107.6686,-5.9229822)">
    <g
       transform="matrix(-0.75544721,0,0,0.75544721,529.61707,80.778501)"
       id="g9138-3-1-9-3-3">
      <path
         sodipodi:nodetypes="ccc"
         id="path4379-7-9-9-9-8"
         d="m 198.13475,222.19371 c -10.0577,54.98454 -83.28236,49.10601 -109.070918,12.9078 27.201038,23.8118 79.988638,49.97004 109.070918,-12.9078 z"
         style="fill:#000000;fill-rule:evenodd;stroke:none"
         inkscape:connector-curvature="0" />
      <path
         transform="matrix(-1.7618512,1.1544159,0.8297769,2.4511525,296.44335,-391.4226)"
         d="m 189.74468,161.5 c 0,14.43578 -14.44755,26.1383 -32.26951,26.1383 -17.82195,0 -32.2695,-11.70252 -32.2695,-26.1383 0,-14.43578 14.44755,-26.1383 32.2695,-26.1383 17.82196,0 32.26951,11.70252 32.26951,26.1383 z"
         sodipodi:ry="26.138298"
         sodipodi:rx="32.269505"
         sodipodi:cy="161.5"
         sodipodi:cx="157.47517"
         id="path3406-5-7-9-2-3"
         style="color:#000000;fill:#ffffff;fill-opacity:1;fill-rule:evenodd;stroke:#000000;stroke-width:3.01265359px;stroke-linecap:butt;stroke-linejoin:miter;stroke-miterlimit:4;stroke-opacity:1;stroke-dasharray:none;stroke-dashoffset:0;marker:none;visibility:visible;display:inline;overflow:visible;enable-background:accumulate"
         sodipodi:type="arc" />
      <path
         transform="translate(3.6508776,9.127194)"
         d="m 175.69848,182.68166 c 0,18.77701 -9.29652,33.99879 -20.76437,33.99879 -11.46784,0 -20.76436,-15.22178 -20.76436,-33.99879 0,-18.77702 9.29652,-33.9988 20.76436,-33.9988 11.46785,0 20.76437,15.22178 20.76437,33.9988 z"
         sodipodi:ry="33.998798"
         sodipodi:rx="20.764366"
         sodipodi:cy="182.68166"
         sodipodi:cx="154.93411"
         id="path5352-2-1-4-4-3"
         style="fill:#000000;fill-opacity:1;fill-rule:nonzero;stroke:none"
         sodipodi:type="arc" />
      <path
         transform="matrix(0.5434782,0,0,0.6923078,68.692058,60.632916)"
         d="m 162.46406,179.25896 c 0,9.82958 -9.39869,17.79803 -20.99255,17.79803 -11.59386,0 -20.99254,-7.96845 -20.99254,-17.79803 0,-9.82958 9.39868,-17.79803 20.99254,-17.79803 11.59386,0 20.99255,7.96845 20.99255,17.79803 z"
         sodipodi:ry="17.798029"
         sodipodi:rx="20.992546"
         sodipodi:cy="179.25896"
         sodipodi:cx="141.47151"
         id="path6323-2-3-9-4-3"
         style="fill:#ffffff;fill-opacity:1;fill-rule:nonzero;stroke:none"
         sodipodi:type="arc" />
      <path
         sodipodi:nodetypes="ccc"
         id="path6325-8-1-8-4-8"
         d="m 142.38423,210.29142 c 13.01291,8.33719 21.82012,9.59604 32.40153,-2.2818 -8.84552,21.88658 -21.88252,18.89368 -32.40153,2.2818 z"
         style="fill:#ffffff;fill-rule:evenodd;stroke:#000000;stroke-width:1px;stroke-linecap:butt;stroke-linejoin:miter;stroke-opacity:1"
         inkscape:connector-curvature="0" />
      <path
         transform="matrix(1.9310345,0,0,1.5483871,-152.10941,-105.31063)"
         d="m 176.6112,199.11061 c 0,3.90663 -2.96262,7.07358 -6.61721,7.07358 -3.65459,0 -6.61722,-3.16695 -6.61722,-7.07358 0,-3.90663 2.96263,-7.07357 6.61722,-7.07357 3.65459,0 6.61721,3.16694 6.61721,7.07357 z"
         sodipodi:ry="7.0735755"
         sodipodi:rx="6.6172156"
         sodipodi:cy="199.11061"
         sodipodi:cx="169.99399"
         id="path6327-9-2-1-9-0"
         style="color:#000000;fill:#ffffff;fill-opacity:1;fill-rule:nonzero;stroke:none;marker:none;visibility:visible;display:inline;overflow:visible;enable-background:accumulate"
         sodipodi:type="arc" />
    </g>
    <path
       style="color:#000000;fill:#88aa00;fill-opacity:1;fill-rule:evenodd;stroke:#000000;stroke-width:5.22787523px;stroke-linecap:butt;stroke-linejoin:miter;stroke-miterlimit:4;stroke-opacity:1;stroke-dasharray:none;stroke-dashoffset:0;marker:none;visibility:visible;display:inline;overflow:visible;enable-background:accumulate"
       d="m 381.92382,302.47492 c 60.47088,-18.59013 93.49705,24.01646 127.03681,65.47811 -35.45917,-13.08325 -67.95758,-20.8147 -92.9339,-14.95504 l -10.434,-23.12358 -10.9644,14.1669 -14.94358,-26.48906"
       id="path3637-7-0-6-9-4"
       sodipodi:nodetypes="cccccc"
       inkscape:connector-curvature="0" />
    <path
       style="opacity:0.36480689;color:#000000;fill:#000000;fill-opacity:1;fill-rule:evenodd;stroke:#000000;stroke-width:5.22787523px;stroke-linecap:butt;stroke-linejoin:miter;stroke-miterlimit:4;stroke-opacity:1;stroke-dasharray:none;stroke-dashoffset:0;marker:none;visibility:visible;display:inline;overflow:visible;enable-background:accumulate"
       d="m 381.92382,302.47492 c 60.47088,-18.59013 93.49705,24.01646 127.03682,65.47811 -35.45917,-13.08325 -67.95759,-20.8147 -92.93391,-14.95504 l -10.434,-23.12358 -10.9644,14.1669 -14.94358,-26.48906"
       id="path3637-7-0-6-9-4-9"
       sodipodi:nodetypes="cccccc"
       inkscape:connector-curvature="0" />
    <path
       style="color:#000000;fill:#88aa00;fill-opacity:1;fill-rule:evenodd;stroke:#000000;stroke-width:5.22787523px;stroke-linecap:butt;stroke-linejoin:miter;stroke-miterlimit:4;stroke-opacity:1;stroke-dasharray:none;stroke-dashoffset:0;marker:none;visibility:visible;display:inline;overflow:visible;enable-background:accumulate"
       d="m 238.17628,281.77935 c 92.96866,-223.83812 191.7315,-212.943183 221.81575,-15.80504 17.9032,-7.67448 22.77857,-16.16616 27.27153,-27.49934 -7.23254,48.24268 -26.48161,109.41581 -51.31737,126.32378 -51.1856,34.84694 -129.85742,26.56589 -199.22323,-56.85924 l -2.18,0.72656 -75.5736,28.34013 c 8.91738,-14.97431 27.09604,-24.6564 23.98009,-46.5067 l 19.62007,-2.18025 -31.24678,-16.71317 31.97345,-10.17356 -15.98672,-12.35323 C 232.46126,177.5493 147.22017,104.96156 110.28255,79.765346 225.40538,104.7236 248.34816,183.57183 238.17628,281.77935 z"
       id="path3579-6-3-3-7"
       sodipodi:nodetypes="cccscccccccccc"
       inkscape:connector-curvature="0" />
    <path
       style="opacity:0.36480689;color:#000000;fill:#000000;fill-opacity:1;fill-rule:evenodd;stroke:#000000;stroke-width:5.22787523px;stroke-linecap:butt;stroke-linejoin:miter;stroke-miterlimit:4;stroke-opacity:1;stroke-dasharray:none;stroke-dashoffset:0;marker:none;visibility:visible;display:inline;overflow:visible;enable-background:accumulate"
       d="m 238.17627,281.77926 c 98.98636,-192.546105 133.68421,-183.289459 161.57628,2.44935 33.41942,10.57991 87.58165,-28.94423 87.511,-45.75373 -7.23253,48.24268 -26.4816,109.41581 -51.31736,126.32379 -51.1856,34.84693 -129.85742,26.56588 -199.22324,-56.85924 l -2.17999,0.72655 -75.5736,28.34014 c 8.91737,-14.97432 27.09603,-24.65641 23.98008,-46.50671 l 19.62007,-2.18025 -31.24677,-16.71317 31.97344,-10.17356 -15.98672,-12.35323 C 232.46126,177.54921 147.22016,104.96148 110.28254,79.765261 225.40537,104.72351 248.34816,183.57174 238.17627,281.77926 z"
       id="path3579-6-3-3-7-6"
       sodipodi:nodetypes="cccscccccccccc"
       inkscape:connector-curvature="0" />
    <path
       style="fill:#000000;stroke:none"
       d="m 303.46999,320.19146 -1.1561,16.05711 3.59682,-14.51565 -2.44072,-1.54146 z"
       id="path3681-7-3-3-8"
       inkscape:connector-curvature="0" />
    <path
       style="color:#000000;fill:none;stroke:#000000;stroke-width:5.22787523px;stroke-linecap:butt;stroke-linejoin:miter;stroke-miterlimit:4;stroke-opacity:1;stroke-dasharray:none;stroke-dashoffset:0;marker:none;visibility:visible;display:inline;overflow:visible;enable-background:accumulate"
       d="m 487.55055,238.74891 c -1.19236,34.42999 -205.82997,115.0493 -206.58214,-10.2314"
       id="path3705-4-3-2-9"
       sodipodi:nodetypes="cc"
       inkscape:connector-curvature="0" />
    <path
       style="fill:#000000;stroke:none"
       d="m 270.45626,239.26253 c 2.98209,-7.87072 4.36433,-16.70137 23.89321,-14.64398 l 0.51383,0.77058 c -10.30463,0.90641 -18.88933,4.76105 -24.40704,13.8734 z"
       id="path3728-9-4-9-0"
       sodipodi:nodetypes="cccc"
       inkscape:connector-curvature="0" />
    <g
       transform="matrix(-0.75544721,0,0,0.75544721,466.97169,89.840494)"
       id="g9138-2-6-5-6">
      <path
         sodipodi:nodetypes="ccc"
         id="path4379-4-1-4-8"
         d="m 198.13475,222.19371 c -10.0577,54.98454 -83.28236,49.10601 -109.070918,12.9078 27.201038,23.8118 79.988638,49.97004 109.070918,-12.9078 z"
         style="fill:#000000;fill-rule:evenodd;stroke:none"
         inkscape:connector-curvature="0" />
      <path
         transform="matrix(-1.7618512,1.1544159,0.8297769,2.4511525,296.44335,-391.4226)"
         d="m 189.74468,161.5 c 0,14.43578 -14.44755,26.1383 -32.26951,26.1383 -17.82195,0 -32.2695,-11.70252 -32.2695,-26.1383 0,-14.43578 14.44755,-26.1383 32.2695,-26.1383 17.82196,0 32.26951,11.70252 32.26951,26.1383 z"
         sodipodi:ry="26.138298"
         sodipodi:rx="32.269505"
         sodipodi:cy="161.5"
         sodipodi:cx="157.47517"
         id="path3406-4-5-3-7"
         style="color:#000000;fill:#ffffff;fill-opacity:1;fill-rule:evenodd;stroke:#000000;stroke-width:3.01265359px;stroke-linecap:butt;stroke-linejoin:miter;stroke-miterlimit:4;stroke-opacity:1;stroke-dasharray:none;stroke-dashoffset:0;marker:none;visibility:visible;display:inline;overflow:visible;enable-background:accumulate"
         sodipodi:type="arc" />
      <path
         sodipodi:nodetypes="ccc"
         id="path4377-5-6-9-9"
         d="m 212.97872,166.98581 c -3.6038,-56.90528 -51.65825,-67.072361 -101.97163,-46.46808 53.57532,-10.34532 86.77925,-18.65461 101.97163,46.46808 z"
         style="fill:#000000;fill-rule:evenodd;stroke:none"
         inkscape:connector-curvature="0" />
      <path
         transform="translate(3.6508776,9.127194)"
         d="m 175.69848,182.68166 c 0,18.77701 -9.29652,33.99879 -20.76437,33.99879 -11.46784,0 -20.76436,-15.22178 -20.76436,-33.99879 0,-18.77702 9.29652,-33.9988 20.76436,-33.9988 11.46785,0 20.76437,15.22178 20.76437,33.9988 z"
         sodipodi:ry="33.998798"
         sodipodi:rx="20.764366"
         sodipodi:cy="182.68166"
         sodipodi:cx="154.93411"
         id="path5352-9-1-4-0"
         style="fill:#000000;fill-opacity:1;fill-rule:nonzero;stroke:none"
         sodipodi:type="arc" />
      <path
         transform="matrix(0.5434782,0,0,0.6923078,68.692058,60.632916)"
         d="m 162.46406,179.25896 c 0,9.82958 -9.39869,17.79803 -20.99255,17.79803 -11.59386,0 -20.99254,-7.96845 -20.99254,-17.79803 0,-9.82958 9.39868,-17.79803 20.99254,-17.79803 11.59386,0 20.99255,7.96845 20.99255,17.79803 z"
         sodipodi:ry="17.798029"
         sodipodi:rx="20.992546"
         sodipodi:cy="179.25896"
         sodipodi:cx="141.47151"
         id="path6323-1-7-9-3"
         style="fill:#ffffff;fill-opacity:1;fill-rule:nonzero;stroke:none"
         sodipodi:type="arc" />
      <path
         sodipodi:nodetypes="ccc"
         id="path6325-2-2-5-3"
         d="m 142.38423,210.29142 c 13.01291,8.33719 21.82012,9.59604 32.40153,-2.2818 -8.84552,21.88658 -21.88252,18.89368 -32.40153,2.2818 z"
         style="fill:#ffffff;fill-rule:evenodd;stroke:#000000;stroke-width:1px;stroke-linecap:butt;stroke-linejoin:miter;stroke-opacity:1"
         inkscape:connector-curvature="0" />
      <path
         transform="matrix(1.9310345,0,0,1.5483871,-152.10941,-105.31063)"
         d="m 176.6112,199.11061 c 0,3.90663 -2.96262,7.07358 -6.61721,7.07358 -3.65459,0 -6.61722,-3.16695 -6.61722,-7.07358 0,-3.90663 2.96263,-7.07357 6.61722,-7.07357 3.65459,0 6.61721,3.16694 6.61721,7.07357 z"
         sodipodi:ry="7.0735755"
         sodipodi:rx="6.6172156"
         sodipodi:cy="199.11061"
         sodipodi:cx="169.99399"
         id="path6327-8-2-5-3"
         style="color:#000000;fill:#ffffff;fill-opacity:1;fill-rule:nonzero;stroke:none;marker:none;visibility:visible;display:inline;overflow:visible;enable-background:accumulate"
         sodipodi:type="arc" />
    </g>
    <path
       style="color:#000000;fill:#88aa00;fill-opacity:1;fill-rule:evenodd;stroke:#000000;stroke-width:5.22787523px;stroke-linecap:butt;stroke-linejoin:miter;stroke-miterlimit:4;stroke-opacity:1;stroke-dasharray:none;stroke-dashoffset:0;marker:none;visibility:visible;display:inline;overflow:visible;enable-background:accumulate"
       d="M 347.94613,124.95331 C 340.41371,37.01891 266.78905,30.500018 207.98907,8.5369198 246.26782,40.165128 289.57881,81.634834 263.48299,120.55223 l 27.747,0.51392 -25.21878,12.48243 12.88678,4.98779 -2.56918,0 c 9.48076,13.99627 9.5661,40.86515 -3.3582,70.38735"
       id="path5366-9-9-7-7"
       sodipodi:nodetypes="cccccccc"
       inkscape:connector-curvature="0" />
    <path
       style="fill:#000000;stroke:none"
       d="m 285.22812,118.4606 23.79843,-2.36182 -20.71008,9.08358 -3.08835,-6.72176 z"
       id="path5389-6-2-3-3"
       sodipodi:nodetypes="cccc"
       inkscape:connector-curvature="0" />
    <path
       style="fill:#000000;stroke:none"
       d="m 277.85281,135.39246 11.12053,3.80026 -11.11153,-0.16401 -0.009,-3.6351 z"
       id="path5389-8-0-8-9-2"
       sodipodi:nodetypes="cccc"
       inkscape:connector-curvature="0" />
    <path
       style="color:#000000;fill:#000000;fill-opacity:1;fill-rule:nonzero;stroke:none;stroke-width:1px;marker:none;visibility:visible;display:inline;overflow:visible;enable-background:accumulate"
       d="m 271.25265,207.76554 c 20.51059,-43.89944 56.59944,-75.8833 77.17428,-82.81108 -16.19696,5.67551 -39.88457,23.96207 -70.60842,80.76117 l -6.56586,2.04991 z"
       id="path5413-6-1-0-6"
       sodipodi:nodetypes="cccc"
       inkscape:connector-curvature="0" />
    <path
       style="color:#000000;fill:#000000;fill-opacity:1;fill-rule:nonzero;stroke:none;stroke-width:1px;marker:none;visibility:visible;display:inline;overflow:visible;enable-background:accumulate"
       d="m 236.72296,275.60259 c -3.22492,9.04185 -0.60712,18.5323 0.5451,26.16045 0.58013,-7.75764 -0.0115,-13.78679 4.0875,-20.43776 l -4.63252,-5.72269 -8e-5,0 z"
       id="path5423-4-2-7-5"
       sodipodi:nodetypes="ccccc"
       inkscape:connector-curvature="0" />
    <path
       style="color:#000000;fill:#88aa00;fill-opacity:1;fill-rule:evenodd;stroke:#000000;stroke-width:5.22787523px;stroke-linecap:butt;stroke-linejoin:miter;stroke-miterlimit:4;stroke-opacity:1;stroke-dasharray:none;stroke-dashoffset:0;marker:none;visibility:visible;display:inline;overflow:visible;enable-background:accumulate"
       d="m 314.44616,340.14897 c -21.08147,59.64808 -74.97718,60.80223 -128.25862,63.05096 31.62839,-20.69212 57.19424,-42.19338 67.36273,-65.74657 l 24.78957,5.39035 -4.85016,-17.24521 30.17854,3.77207"
       id="path3637-8-9-8-6"
       sodipodi:nodetypes="cccccc"
       inkscape:connector-curvature="0" />
    <path
       style="opacity:0.36480689;color:#000000;fill:#000000;fill-opacity:1;fill-rule:evenodd;stroke:#000000;stroke-width:5.22787523px;stroke-linecap:butt;stroke-linejoin:miter;stroke-miterlimit:4;stroke-opacity:1;stroke-dasharray:none;stroke-dashoffset:0;marker:none;visibility:visible;display:inline;overflow:visible;enable-background:accumulate"
       d="m 314.44617,340.14897 c -21.08147,59.64808 -74.97719,60.80223 -128.25863,63.05096 31.62839,-20.69212 57.19424,-42.19338 67.36274,-65.74657 l 24.78956,5.39035 -4.85016,-17.24521 30.17855,3.77207"
       id="path3637-8-9-8-6-5"
       sodipodi:nodetypes="cccccc"
       inkscape:connector-curvature="0" />
    <path
       transform="matrix(1.0357699,0.67866639,-0.48781531,1.441001,268.61714,-97.919882)"
       d="m 189.74468,161.5 c 0,14.43578 -14.44755,26.1383 -32.26951,26.1383 -17.82195,0 -32.2695,-11.70252 -32.2695,-26.1383 0,-14.43578 14.44755,-26.1383 32.2695,-26.1383 17.82196,0 32.26951,11.70252 32.26951,26.1383 z"
       sodipodi:ry="26.138298"
       sodipodi:rx="32.269505"
       sodipodi:cy="161.5"
       sodipodi:cx="157.47517"
       id="path3406-4-5-3-7-7"
       style="opacity:0.26609443;color:#000000;fill:#000000;fill-opacity:1;fill-rule:evenodd;stroke:#000000;stroke-width:3.01265359px;stroke-linecap:butt;stroke-linejoin:miter;stroke-miterlimit:4;stroke-opacity:1;stroke-dasharray:none;stroke-dashoffset:0;marker:none;visibility:visible;display:inline;overflow:visible;enable-background:accumulate"
       sodipodi:type="arc" />
    <path
       style="opacity:0.36480689;color:#000000;fill:#000000;fill-opacity:1;fill-rule:evenodd;stroke:#000000;stroke-width:5.22787523px;stroke-linecap:butt;stroke-linejoin:miter;stroke-miterlimit:4;stroke-opacity:1;stroke-dasharray:none;stroke-dashoffset:0;marker:none;visibility:visible;display:inline;overflow:visible;enable-background:accumulate"
       d="m 327.2099,268.40838 c -60.9386,36.61297 -72.0502,-12.48623 -88.07742,-49.28685 -2.3919,30.31992 16.52173,90.33249 88.07742,49.28685 z"
       id="path18251"
       transform="translate(63.430657,5.9229001)"
       sodipodi:nodetypes="ccc"
       inkscape:connector-curvature="0" />
    <path
       style="opacity:0.24463519;fill:#ffffff;stroke:none"
       d="m 257.84939,32.53894 58.41404,61.1522 -14.60351,3.650877 19.1671,9.127193 -9.12719,19.16711 16.42895,-5.47632 -19.16711,20.07983 29.20702,-25.55614 -19.16711,0 9.1272,-13.6908 -9.1272,-1.825434 7.30176,-10.952633 -68.45395,-55.675883 z"
       id="path18261"
       inkscape:connector-curvature="0" />
    <path
       style="opacity:0.36480689;color:#000000;fill:#000000;fill-opacity:1;fill-rule:evenodd;stroke:#000000;stroke-width:5.22787523px;stroke-linecap:butt;stroke-linejoin:miter;stroke-miterlimit:4;stroke-opacity:1;stroke-dasharray:none;stroke-dashoffset:0;marker:none;visibility:visible;display:inline;overflow:visible;enable-background:accumulate"
       d="M 311.43736,148.68401 C 303.90494,60.749615 259.48729,51.492565 207.98907,8.5369206 246.26782,40.165129 291.40425,87.111151 263.48299,120.55223 l 27.747,0.51392 -25.21877,12.48243 12.88677,4.98779 -2.56917,0 c 9.48075,13.99627 9.5661,40.86515 -3.35821,70.38735"
       id="path5366-9-9-7-7-5"
       sodipodi:nodetypes="cccccccc"
       inkscape:connector-curvature="0" />
  </g>
</svg>
