<?xml version="1.0" encoding="UTF-8" standalone="no"?>
<!-- Created with Inkscape (http://www.inkscape.org/) -->

<svg
   xmlns:dc="http://purl.org/dc/elements/1.1/"
   xmlns:cc="http://creativecommons.org/ns#"
   xmlns:rdf="http://www.w3.org/1999/02/22-rdf-syntax-ns#"
   xmlns:svg="http://www.w3.org/2000/svg"
   xmlns="http://www.w3.org/2000/svg"
   xmlns:sodipodi="http://sodipodi.sourceforge.net/DTD/sodipodi-0.dtd"
   xmlns:inkscape="http://www.inkscape.org/namespaces/inkscape"
   width="489.75818"
   height="426.25833"
   id="svg3276"
   sodipodi:version="0.32"
   inkscape:version="0.48.3.1 r9886"
   version="1.0"
   sodipodi:docname="perro.svg"
   inkscape:output_extension="org.inkscape.output.svg.inkscape"
   sodipodi:modified="true">
  <defs
     id="defs3278" />
  <sodipodi:namedview
     id="base"
     pagecolor="#ffffff"
     bordercolor="#666666"
     borderopacity="1.0"
     inkscape:pageopacity="0.0"
     inkscape:pageshadow="2"
     inkscape:zoom="0.7380427"
     inkscape:cx="520.05969"
     inkscape:cy="120.18216"
     inkscape:current-layer="layer1"
     inkscape:document-units="px"
     width="640px"
     height="480px"
     inkscape:window-width="1022"
     inkscape:window-height="703"
     inkscape:window-x="0"
     inkscape:window-y="48"
     showgrid="false"
     fit-margin-top="0"
     fit-margin-left="0"
     fit-margin-right="0"
     fit-margin-bottom="0"
     inkscape:window-maximized="0" />
  <metadata
     id="metadata3281">
    <rdf:RDF>
      <cc:Work
         rdf:about="">
        <dc:format>image/svg+xml</dc:format>
        <dc:type
           rdf:resource="http://purl.org/dc/dcmitype/StillImage" />
        <dc:title></dc:title>
      </cc:Work>
    </rdf:RDF>
  </metadata>
  <g
     id="layer1"
     inkscape:label="Layer 1"
     inkscape:groupmode="layer"
     transform="translate(-64.406721,-16.875315)">
    <path
       style="fill:#ff7f2a;fill-rule:evenodd;stroke:#000000;stroke-width:2.3474555;stroke-linecap:butt;stroke-linejoin:miter;stroke-miterlimit:4;stroke-opacity:1;stroke-dasharray:none"
       d="m 461.57904,328.59644 17.46498,104.07138 -51.33644,0 c -6.63055,-29.21347 3.6371,-38.39089 28.0498,-30.79663 l -2.6462,-79.11548"
       id="path3170"
       sodipodi:nodetypes="ccccc"
       inkscape:connector-curvature="0" />
    <path
       style="fill:#000000;fill-rule:evenodd;stroke:#000000;stroke-width:2.3474555;stroke-linecap:butt;stroke-linejoin:miter;stroke-miterlimit:4;stroke-opacity:1;stroke-dasharray:none"
       d="m 462.10829,328.06547 19.05269,106.19529 -52.92416,-2.12391 c -7.48225,-21.48914 -4.24391,-43.90405 28.04981,-28.67272 l -3.17545,-81.23939 4.23393,82.30134 c -30.51214,-6.15959 -38.23844,1.35816 -26.99133,26.01785 l 46.04402,1.06195 -14.28951,-103.54041 z"
       id="path3172"
       sodipodi:nodetypes="ccccccccc"
       inkscape:connector-curvature="0" />
    <path
       style="fill:#ff7f2a;fill-rule:evenodd;stroke:#000000;stroke-width:2.3474555;stroke-linecap:butt;stroke-linejoin:miter;stroke-miterlimit:4;stroke-opacity:1;stroke-dasharray:none"
       d="m 372.84637,327.17243 17.46497,104.07138 -51.33643,0 c -6.63055,-29.21348 3.63709,-38.3909 28.04979,-30.79663 l -2.6462,-79.11549"
       id="path3164"
       sodipodi:nodetypes="ccccc"
       inkscape:connector-curvature="0" />
    <path
       style="fill:#000000;fill-rule:evenodd;stroke:#000000;stroke-width:2.3474555;stroke-linecap:butt;stroke-linejoin:miter;stroke-miterlimit:4;stroke-opacity:1;stroke-dasharray:none"
       d="m 373.37562,326.64145 19.05269,106.19529 -52.92417,-2.1239 c -7.48224,-21.48914 -4.2439,-43.90406 28.04981,-28.67273 l -3.17545,-81.23939 4.23394,82.30134 c -30.51215,-6.15959 -38.23844,1.35816 -26.99133,26.01785 l 46.04402,1.06195 -14.28951,-103.54041 z"
       id="path3166"
       sodipodi:nodetypes="ccccccccc"
       inkscape:connector-curvature="0" />
    <path
       style="fill:#333333;fill-rule:evenodd;stroke:#000000;stroke-width:4.694911;stroke-linecap:butt;stroke-linejoin:miter;stroke-miterlimit:4;stroke-opacity:1;stroke-dasharray:none"
       d="m 314.74748,297.85204 c 8.11336,-14.63735 21.1507,-26.94858 42.52672,-35.32052 l -14.35003,-15.41898 c -17.24191,7.19092 -34.65231,14.14689 -40.53113,37.18483 l 12.35444,13.55467 z"
       id="path3973"
       sodipodi:nodetypes="ccccc"
       inkscape:connector-curvature="0" />
    <path
       sodipodi:type="arc"
       style="color:#000000;fill:#f2f2f2;fill-opacity:1;fill-rule:evenodd;stroke:#000000;stroke-width:2.61155868;stroke-linecap:round;stroke-linejoin:round;stroke-miterlimit:4;stroke-opacity:1;stroke-dasharray:none;stroke-dashoffset:0;marker:none;visibility:visible;display:inline;overflow:visible;enable-background:accumulate"
       id="path3356"
       sodipodi:cx="450.88339"
       sodipodi:cy="157.3537"
       sodipodi:rx="15.51623"
       sodipodi:ry="26.925222"
       d="m 466.39962,157.3537 c 0,14.87039 -6.94685,26.92522 -15.51623,26.92522 -8.56937,0 -15.51623,-12.05483 -15.51623,-26.92522 0,-14.87039 6.94686,-26.92522 15.51623,-26.92522 8.56938,0 15.51623,12.05483 15.51623,26.92522 z"
       transform="matrix(1.6775961,-0.1941181,0.1707905,1.9067319,-520.74547,-71.553878)" />
    <path
       sodipodi:type="arc"
       style="color:#000000;fill:#000000;fill-opacity:1;fill-rule:evenodd;stroke:none;stroke-width:4.08465385;marker:none;visibility:visible;display:inline;overflow:visible;enable-background:accumulate"
       id="path3967"
       sodipodi:cx="394.52295"
       sodipodi:cy="186.6748"
       sodipodi:rx="5.0591006"
       sodipodi:ry="8.5567446"
       d="m 399.58205,186.6748 c 0,4.72576 -2.26504,8.55675 -5.0591,8.55675 -2.79406,0 -5.0591,-3.83099 -5.0591,-8.55675 0,-4.72575 2.26504,-8.55674 5.0591,-8.55674 2.79406,0 5.0591,3.83099 5.0591,8.55674 z"
       transform="matrix(1.9924683,-1.2265017,0.7748872,2.1771357,-674.23005,229.17509)" />
    <path
       style="fill:#ff7f2a;fill-rule:evenodd;stroke:#000000;stroke-width:3.52118325;stroke-linecap:butt;stroke-linejoin:round;stroke-miterlimit:4;stroke-opacity:1;stroke-dasharray:none"
       d="m 316.27307,171.82322 c -116.42153,-17.47623 -128.58058,-25.77947 -233.655065,6.33714 4.11103,43.01831 16.15557,155.30166 217.074865,40.81979 117.40266,341.76247 317.44684,1.29617 84.32125,43.38494 -58.11848,23.85307 -57.21863,-70.40017 -67.74105,-90.54187 z"
       id="path3360"
       sodipodi:nodetypes="ccccc"
       inkscape:connector-curvature="0" />
    <path
       style="fill:#000000;fill-rule:evenodd;stroke:#000000;stroke-width:1.17372775px;stroke-linecap:butt;stroke-linejoin:miter;stroke-opacity:1"
       d="m 281.49201,182.88961 c 12.44694,0.48417 17.21362,12.05755 33.64084,0.67982 -21.9528,15.87412 -20.9423,0.34757 -33.64084,-0.67982 z"
       id="path3194"
       sodipodi:nodetypes="ccc"
       inkscape:connector-curvature="0" />
    <path
       sodipodi:type="arc"
       style="color:#000000;fill:#f2f2f2;fill-opacity:1;fill-rule:evenodd;stroke:#000000;stroke-width:2.51310825;stroke-linecap:round;stroke-linejoin:round;stroke-miterlimit:4;stroke-opacity:1;stroke-dasharray:none;stroke-dashoffset:0;marker:none;visibility:visible;display:inline;overflow:visible;enable-background:accumulate"
       id="path3364"
       sodipodi:cx="450.88339"
       sodipodi:cy="157.3537"
       sodipodi:rx="15.51623"
       sodipodi:ry="26.925222"
       d="m 466.39962,157.3537 c 0,14.87039 -6.94685,26.92522 -15.51623,26.92522 -8.56937,0 -15.51623,-12.05483 -15.51623,-26.92522 0,-14.87039 6.94686,-26.92522 15.51623,-26.92522 8.56938,0 15.51623,12.05483 15.51623,26.92522 z"
       transform="matrix(1.6377399,0.4543339,-0.3666687,2.0292999,-378.37214,-390.78937)" />
    <path
       sodipodi:type="arc"
       style="color:#000000;fill:#000000;fill-opacity:1;fill-rule:evenodd;stroke:none;stroke-width:4.08465385;marker:none;visibility:visible;display:inline;overflow:visible;enable-background:accumulate"
       id="path3366"
       sodipodi:cx="394.52295"
       sodipodi:cy="186.6748"
       sodipodi:rx="5.0591006"
       sodipodi:ry="8.5567446"
       d="m 399.58205,186.6748 c 0,4.72576 -2.26504,8.55675 -5.0591,8.55675 -2.79406,0 -5.0591,-3.83099 -5.0591,-8.55675 0,-4.72575 2.26504,-8.55674 5.0591,-8.55674 2.79406,0 5.0591,3.83099 5.0591,8.55674 z"
       transform="matrix(2.2834862,-0.5017531,0.01902029,2.3116983,-607.50514,-76.51358)" />
    <path
       style="fill:#000000;fill-rule:evenodd;stroke:#000000;stroke-width:4.694911;stroke-linecap:butt;stroke-linejoin:miter;stroke-miterlimit:4;stroke-opacity:1;stroke-dasharray:none"
       d="m 187.80498,156.09178 c -0.86119,35.43882 -7.15138,73.02374 -37.10295,108.46256 -40.93632,4.54487 -69.018115,-36.74651 -83.071125,-73.02893 2.62439,-20.08457 87.721995,-38.21636 120.174075,-35.43363 z"
       id="path3370"
       sodipodi:nodetypes="cccc"
       inkscape:connector-curvature="0" />
    <path
       style="opacity:0.13020833;fill:#000000;fill-rule:evenodd;stroke:#000000;stroke-width:1.17372775px;stroke-linecap:butt;stroke-linejoin:miter;stroke-opacity:1"
       d="m 489.37079,299.86723 c -16.31453,83.44593 -120.14192,30.068 -145.94983,-1.12637 -11.60585,-32.66309 -41.62344,-58.80663 -34.80342,-97.99428 -89.84822,47.64946 -168.6626,31.09287 -243.623955,-7.8846 35.527085,46.73092 32.4101,126.97551 235.765125,28.15928 l 38.17149,88.98332 c 61.32809,98.01221 157.5587,63.43763 150.44059,-10.13735 z"
       id="path3192"
       sodipodi:nodetypes="ccccccc"
       inkscape:connector-curvature="0" />
    <path
       sodipodi:type="arc"
       style="opacity:0.43814434;color:#000000;fill:#ffffff;fill-opacity:1;fill-rule:evenodd;stroke:none;stroke-width:2.37069154;marker:none;visibility:visible;display:inline;overflow:visible;enable-background:accumulate"
       id="path3372"
       sodipodi:cx="295.94928"
       sodipodi:cy="159.86368"
       sodipodi:rx="21.220726"
       sodipodi:ry="6.1608558"
       d="m 317.17001,159.86368 c 0,3.40254 -9.50085,6.16085 -21.22073,6.16085 -11.71988,0 -21.22073,-2.75831 -21.22073,-6.16085 0,-3.40255 9.50085,-6.16086 21.22073,-6.16086 11.71988,0 21.22073,2.75831 21.22073,6.16086 z"
       transform="matrix(1.6666578,0,0,2.3531961,-357.63901,-194.21304)" />
    <path
       sodipodi:type="arc"
       style="color:#000000;fill:#e6e6e6;fill-opacity:1;fill-rule:evenodd;stroke:none;stroke-width:4;marker:none;visibility:visible;display:inline;overflow:visible;enable-background:accumulate"
       id="path3965"
       sodipodi:cx="355.28723"
       sodipodi:cy="330.85815"
       sodipodi:rx="6.1312056"
       sodipodi:ry="6.4539008"
       d="m 361.41844,330.85815 c 0,3.5644 -2.74504,6.45391 -6.13121,6.45391 -3.38617,0 -6.1312,-2.88951 -6.1312,-6.45391 0,-3.56439 2.74503,-6.4539 6.1312,-6.4539 3.38617,0 6.13121,2.88951 6.13121,6.4539 z"
       transform="matrix(1.1718087,0,0,1.1756498,-122.80596,-239.43308)" />
    <path
       sodipodi:type="arc"
       style="color:#000000;fill:#ececec;fill-opacity:1;fill-rule:evenodd;stroke:none;stroke-width:4;marker:none;visibility:visible;display:inline;overflow:visible;enable-background:accumulate"
       id="path3969"
       sodipodi:cx="355.28723"
       sodipodi:cy="330.85815"
       sodipodi:rx="6.1312056"
       sodipodi:ry="6.4539008"
       d="m 361.41844,330.85815 c 0,3.5644 -2.74504,6.45391 -6.13121,6.45391 -3.38617,0 -6.1312,-2.88951 -6.1312,-6.45391 0,-3.56439 2.74503,-6.4539 6.1312,-6.4539 3.38617,0 6.13121,2.88951 6.13121,6.4539 z"
       transform="matrix(1.106776,-0.3862065,0.3849447,1.110404,-268.89228,-86.804188)" />
    <path
       style="fill:#800000;fill-rule:evenodd;stroke:#000000;stroke-width:4.694911;stroke-linecap:butt;stroke-linejoin:miter;stroke-miterlimit:4;stroke-opacity:1;stroke-dasharray:none"
       d="m 302.72958,285.18502 c 15.70582,-5.6761 29.91647,-16.60248 41.59506,-36.42013 l 12.85665,16.69256 c -9.85093,15.91437 -19.49787,32.03341 -43.10761,34.14387 l -11.3441,-14.4163 z"
       id="path3971"
       sodipodi:nodetypes="ccccc"
       inkscape:connector-curvature="0" />
    <path
       style="fill:#000000;fill-rule:evenodd;stroke:#000000;stroke-width:1.17372775px;stroke-linecap:butt;stroke-linejoin:miter;stroke-opacity:1"
       d="m 487.02597,279.10253 c 16.14005,-36.66838 42.96841,-65.29424 66.55208,-96.3616 -8.2347,-10.31776 -28.99412,-18.58763 -66.55208,96.3616 z"
       id="path2175"
       sodipodi:nodetypes="ccc"
       inkscape:connector-curvature="0" />
    <path
       style="fill:#000000;fill-rule:evenodd;stroke:#000000;stroke-width:1.17372775px;stroke-linecap:butt;stroke-linejoin:miter;stroke-opacity:1"
       d="M 329.7737,93.125129 C 368.79662,39.981544 405.14226,35.756494 436.32563,45.000746 434.44926,31.561505 404.54118,-30.684422 329.7737,93.125129 z"
       id="path3150"
       sodipodi:nodetypes="ccc"
       inkscape:connector-curvature="0" />
    <path
       style="fill:#000000;fill-rule:evenodd;stroke:#000000;stroke-width:0.58686388px;stroke-linecap:butt;stroke-linejoin:miter;stroke-opacity:1"
       d="M 247.45083,87.600909 C 227.93937,61.029121 209.76655,58.916596 194.17487,63.538722 c 0.93818,-6.719627 15.89222,-37.842593 53.27596,24.062187 z"
       id="path3152"
       sodipodi:nodetypes="ccc"
       inkscape:connector-curvature="0" />
    <path
       style="fill:#ff7f2a;fill-rule:evenodd;stroke:#000000;stroke-width:2.3474555;stroke-linecap:butt;stroke-linejoin:miter;stroke-miterlimit:4;stroke-opacity:1;stroke-dasharray:none"
       d="m 384.92605,334.87158 17.46498,104.07138 -51.33644,0 c -6.63055,-29.21348 3.6371,-38.39089 28.0498,-30.79663 l -2.6462,-79.11548"
       id="path3156"
       sodipodi:nodetypes="ccccc"
       inkscape:connector-curvature="0" />
    <path
       style="fill:#000000;fill-rule:evenodd;stroke:#000000;stroke-width:2.3474555;stroke-linecap:butt;stroke-linejoin:miter;stroke-miterlimit:4;stroke-opacity:1;stroke-dasharray:none"
       d="m 385.4553,334.34061 19.0527,106.19529 -52.92417,-2.12391 c -7.48225,-21.48914 -4.24391,-43.90406 28.04981,-28.67272 l -3.17545,-81.23939 4.23393,82.30134 c -30.51214,-6.1596 -38.23844,1.35816 -26.99133,26.01785 l 46.04403,1.06195 -14.28952,-103.54041 z"
       id="path3154"
       sodipodi:nodetypes="ccccccccc"
       inkscape:connector-curvature="0" />
    <path
       style="fill:#ff7f2a;fill-rule:evenodd;stroke:#000000;stroke-width:2.3474555;stroke-linecap:butt;stroke-linejoin:miter;stroke-miterlimit:4;stroke-opacity:1;stroke-dasharray:none"
       d="m 473.65871,336.29561 17.46498,104.07138 -51.33644,0 c -6.63055,-29.21348 3.6371,-38.39089 28.0498,-30.79663 l -2.6462,-79.11549"
       id="path3176"
       sodipodi:nodetypes="ccccc"
       inkscape:connector-curvature="0" />
    <path
       style="fill:#000000;fill-rule:evenodd;stroke:#000000;stroke-width:2.3474555;stroke-linecap:butt;stroke-linejoin:miter;stroke-miterlimit:4;stroke-opacity:1;stroke-dasharray:none"
       d="m 474.18796,335.76464 19.0527,106.19528 -52.92417,-2.1239 c -7.48225,-21.48914 -4.2439,-43.90406 28.04981,-28.67272 l -3.17545,-81.2394 4.23393,82.30135 c -30.51214,-6.1596 -38.23844,1.35816 -26.99132,26.01785 l 46.04402,1.06195 -14.28952,-103.54041 z"
       id="path3178"
       sodipodi:nodetypes="ccccccccc"
       inkscape:connector-curvature="0" />
    <path
       style="fill:#000000;fill-rule:evenodd;stroke:#000000;stroke-width:3.52118325;stroke-linecap:butt;stroke-linejoin:miter;stroke-miterlimit:4;stroke-opacity:1;stroke-dasharray:none"
       d="m 321.82968,75.501992 -16.93573,-12.212457 -0.52924,5.309763 17.46497,6.902694 z"
       id="path3188"
       inkscape:connector-curvature="0" />
    <path
       style="fill:#000000;fill-rule:evenodd;stroke:#000000;stroke-width:3.52118325;stroke-linecap:butt;stroke-linejoin:miter;stroke-miterlimit:4;stroke-opacity:1;stroke-dasharray:none"
       d="m 251.17593,83.732128 16.93573,-12.212458 0.52925,5.309764 -17.46498,6.902694 z"
       id="path3190"
       inkscape:connector-curvature="0" />
    <path
       style="opacity:0.68229167;fill:#ffffff;fill-rule:evenodd;stroke:none"
       d="m 339.77575,260.09269 c 4.77708,1.71032 10.02717,5.90282 10.06362,12.79174 l 4.67098,-7.82385 -9.92327,-11.94697 -4.81133,6.97908 z"
       id="path3198"
       sodipodi:nodetypes="ccccc"
       inkscape:connector-curvature="0" />
    <path
       style="opacity:0.51041667;fill:#000000;fill-rule:evenodd;stroke:#000000;stroke-width:1.17372775px;stroke-linecap:butt;stroke-linejoin:miter;stroke-opacity:1"
       d="m 324.89656,275.65025 c -1.59052,5.4559 0.28043,14.43182 10.10423,14.36124 -6.28691,3.47351 -12.42158,7.45614 -19.78743,7.32141 l -8.56052,-10.84132 c 6.32805,-2.62331 12.2797,-6.75717 18.24372,-10.84133 z"
       id="path3200"
       sodipodi:nodetypes="ccccc"
       inkscape:connector-curvature="0" />
    <path
       sodipodi:type="arc"
       style="color:#000000;fill:#808080;fill-opacity:1;fill-rule:evenodd;stroke:#000000;stroke-width:2;stroke-linecap:round;stroke-linejoin:round;stroke-miterlimit:4;stroke-opacity:1;stroke-dasharray:none;stroke-dashoffset:0;marker:none;visibility:visible;display:inline;overflow:visible;enable-background:accumulate"
       id="path3206"
       sodipodi:cx="302.3952"
       sodipodi:cy="281.67664"
       sodipodi:rx="6.1077843"
       sodipodi:ry="11.017964"
       d="m 308.50299,281.67664 c 0,6.08505 -2.73455,11.01796 -6.10779,11.01796 -3.37323,0 -6.10778,-4.93291 -6.10778,-11.01796 0,-6.08506 2.73455,-11.01797 6.10778,-11.01797 3.37324,0 6.10779,4.93291 6.10779,11.01797 z"
       transform="matrix(1.1718087,0,0,1.1756498,-42.504072,-23.401273)" />
    <path
       style="opacity:0.31770833;fill:#000000;fill-rule:evenodd;stroke:#000000;stroke-width:1.17372775px;stroke-linecap:butt;stroke-linejoin:miter;stroke-opacity:1"
       d="m 309.88057,296.84011 c -1.3755,5.93228 -4.5427,18.47116 6.87648,17.59955 -0.0231,4.46026 -4.35714,9.8221 -9.05169,2.11194 -2.12337,-6.57049 -3.94801,-13.141 2.17521,-19.71149 z"
       id="path3208"
       sodipodi:nodetypes="cccc"
       inkscape:connector-curvature="0" />
    <path
       style="opacity:0.328125;fill:#ffffff;fill-rule:evenodd;stroke:none"
       d="m 427.14877,265.06059 c 22.22266,-1.6414 24.07174,0.62589 42.07471,10.35403 l -4.36625,10.75227 C 448.61593,271.83131 447.208,272.039 426.75183,272.22876 l 0.39694,-7.16817 z"
       id="path3210"
       sodipodi:nodetypes="ccccc"
       inkscape:connector-curvature="0" />
    <path
       style="opacity:0.328125;fill:#ffffff;fill-rule:evenodd;stroke:none"
       d="m 471.60506,277.30623 -5.4578,9.9558 6.35089,6.07304 7.34324,-9.55757 -8.23633,-6.47127 z"
       id="path3212"
       inkscape:connector-curvature="0" />
  </g>
</svg>
