<?xml version="1.0" encoding="UTF-8" standalone="no"?>
<!-- Created with Inkscape (http://www.inkscape.org/) -->

<svg
   xmlns:dc="http://purl.org/dc/elements/1.1/"
   xmlns:cc="http://creativecommons.org/ns#"
   xmlns:rdf="http://www.w3.org/1999/02/22-rdf-syntax-ns#"
   xmlns:svg="http://www.w3.org/2000/svg"
   xmlns="http://www.w3.org/2000/svg"
   xmlns:xlink="http://www.w3.org/1999/xlink"
   xmlns:sodipodi="http://sodipodi.sourceforge.net/DTD/sodipodi-0.dtd"
   xmlns:inkscape="http://www.inkscape.org/namespaces/inkscape"
   width="500.45166"
   height="541.7395"
   id="svg8886"
   version="1.1"
   inkscape:version="0.48.3.1 r9886"
   sodipodi:docname="gato_chessire_rison_alicia.svg"
   inkscape:export-filename="/home/vhzc/Docs/FOCA/public_html/personajes_y_oficios/gato_chessire_rison_alicia.png"
   inkscape:export-xdpi="90"
   inkscape:export-ydpi="90">
  <title
     id="title6866">gato_chessire_rison_alicia</title>
  <defs
     id="defs8888">
    <linearGradient
       inkscape:collect="always"
       id="linearGradient5324">
      <stop
         style="stop-color:#ffffff;stop-opacity:1;"
         offset="0"
         id="stop5326" />
      <stop
         style="stop-color:#ffffff;stop-opacity:0;"
         offset="1"
         id="stop5328" />
    </linearGradient>
    <linearGradient
       inkscape:collect="always"
       id="linearGradient4940">
      <stop
         style="stop-color:#ffffff;stop-opacity:1;"
         offset="0"
         id="stop4942" />
      <stop
         style="stop-color:#ffffff;stop-opacity:0;"
         offset="1"
         id="stop4944" />
    </linearGradient>
    <inkscape:perspective
       sodipodi:type="inkscape:persp3d"
       inkscape:vp_x="0 : 526.18109 : 1"
       inkscape:vp_y="0 : 1000 : 0"
       inkscape:vp_z="744.09448 : 526.18109 : 1"
       inkscape:persp3d-origin="372.04724 : 350.78739 : 1"
       id="perspective8894" />
    <inkscape:perspective
       id="perspective8782"
       inkscape:persp3d-origin="0.5 : 0.33333333 : 1"
       inkscape:vp_z="1 : 0.5 : 1"
       inkscape:vp_y="0 : 1000 : 0"
       inkscape:vp_x="0 : 0.5 : 1"
       sodipodi:type="inkscape:persp3d" />
    <radialGradient
       inkscape:collect="always"
       xlink:href="#linearGradient4940"
       id="radialGradient4946"
       cx="339.54047"
       cy="382.56372"
       fx="339.54047"
       fy="382.56372"
       r="42.797401"
       gradientTransform="matrix(0.29902286,-1.1349154,1.5994635,0.42142011,-373.88661,606.69338)"
       gradientUnits="userSpaceOnUse" />
    <linearGradient
       inkscape:collect="always"
       id="linearGradient4940-7">
      <stop
         style="stop-color:#ffffff;stop-opacity:1;"
         offset="0"
         id="stop4942-3" />
      <stop
         style="stop-color:#ffffff;stop-opacity:0;"
         offset="1"
         id="stop4944-7" />
    </linearGradient>
    <radialGradient
       r="42.797401"
       fy="382.56372"
       fx="339.54047"
       cy="382.56372"
       cx="339.54047"
       gradientTransform="matrix(0.29902286,-1.1349154,1.5994635,0.42142011,-670.62969,294.91866)"
       gradientUnits="userSpaceOnUse"
       id="radialGradient4963"
       xlink:href="#linearGradient4940-7"
       inkscape:collect="always" />
    <radialGradient
       inkscape:collect="always"
       xlink:href="#linearGradient4940-7"
       id="radialGradient4983"
       cx="177.67857"
       cy="45.085571"
       fx="177.67857"
       fy="45.085571"
       r="48.75"
       gradientTransform="matrix(0.48605565,-1.4154916,2.175373,0.74698595,-6.7610365,262.90981)"
       gradientUnits="userSpaceOnUse" />
    <radialGradient
       inkscape:collect="always"
       xlink:href="#linearGradient5324"
       id="radialGradient5332"
       cx="132.26196"
       cy="147.79337"
       fx="132.26196"
       fy="147.79337"
       r="28.849047"
       gradientTransform="matrix(1.456475,-0.26214965,0.26697604,1.4832901,153.85334,-11.60729)"
       gradientUnits="userSpaceOnUse" />
    <linearGradient
       inkscape:collect="always"
       id="linearGradient4940-75">
      <stop
         style="stop-color:#ffffff;stop-opacity:1;"
         offset="0"
         id="stop4942-7" />
      <stop
         style="stop-color:#ffffff;stop-opacity:0;"
         offset="1"
         id="stop4944-1" />
    </linearGradient>
    <radialGradient
       r="42.797401"
       fy="382.56372"
       fx="339.54047"
       cy="382.56372"
       cx="339.54047"
       gradientTransform="matrix(0.29902286,-1.1349154,1.5994635,0.42142011,-670.62969,294.91866)"
       gradientUnits="userSpaceOnUse"
       id="radialGradient5408"
       xlink:href="#linearGradient4940-75"
       inkscape:collect="always" />
    <radialGradient
       inkscape:collect="always"
       xlink:href="#linearGradient4940-7"
       id="radialGradient10693"
       gradientUnits="userSpaceOnUse"
       gradientTransform="matrix(0.48605565,-1.4154916,2.175373,0.74698595,255.17775,300.76493)"
       cx="177.67857"
       cy="45.085571"
       fx="177.67857"
       fy="45.085571"
       r="48.75" />
  </defs>
  <sodipodi:namedview
     id="base"
     pagecolor="#ffffff"
     bordercolor="#666666"
     borderopacity="1.0"
     inkscape:pageopacity="0.0"
     inkscape:pageshadow="2"
     inkscape:zoom="0.35"
     inkscape:cx="202.25767"
     inkscape:cy="259.02075"
     inkscape:document-units="px"
     inkscape:current-layer="g6771"
     showgrid="false"
     inkscape:window-width="1018"
     inkscape:window-height="702"
     inkscape:window-x="0"
     inkscape:window-y="48"
     inkscape:window-maximized="0"
     fit-margin-top="0"
     fit-margin-left="0"
     fit-margin-right="0"
     fit-margin-bottom="0" />
  <metadata
     id="metadata8891">
    <rdf:RDF>
      <cc:Work
         rdf:about="">
        <dc:format>image/svg+xml</dc:format>
        <dc:type
           rdf:resource="http://purl.org/dc/dcmitype/StillImage" />
        <dc:title>gato_chessire_rison_alicia</dc:title>
        <cc:license
           rdf:resource="http://creativecommons.org/licenses/by/3.0/" />
        <dc:creator>
          <cc:Agent>
            <dc:title>Vladimir Zúñiga</dc:title>
          </cc:Agent>
        </dc:creator>
      </cc:Work>
      <cc:License
         rdf:about="http://creativecommons.org/licenses/by/3.0/">
        <cc:permits
           rdf:resource="http://creativecommons.org/ns#Reproduction" />
        <cc:permits
           rdf:resource="http://creativecommons.org/ns#Distribution" />
        <cc:requires
           rdf:resource="http://creativecommons.org/ns#Notice" />
        <cc:requires
           rdf:resource="http://creativecommons.org/ns#Attribution" />
        <cc:permits
           rdf:resource="http://creativecommons.org/ns#DerivativeWorks" />
      </cc:License>
    </rdf:RDF>
  </metadata>
  <g
     inkscape:label="Capa 1"
     inkscape:groupmode="layer"
     id="layer1"
     transform="translate(-148.62811,-58.585214)">
    <g
       id="g6771">
      <path
         sodipodi:nodetypes="cccc"
         inkscape:connector-curvature="0"
         id="path5150"
         d="M 490.51022,455.44069 C 399.73067,504.4739 170.09669,112.78406 214.79593,436.86926 c 1.71523,31.55218 -60.81146,35.22612 -64.28571,-24.28571 -8.26149,-337.232359 272.46728,27.07099 340,42.85714 z"
         style="color:#000000;fill:#53536c;fill-opacity:1;fill-rule:nonzero;stroke:#000000;stroke-width:3.40695953px;stroke-linecap:butt;stroke-linejoin:miter;stroke-miterlimit:4;stroke-opacity:1;stroke-dasharray:none;stroke-dashoffset:0;marker:none;visibility:visible;display:inline;overflow:visible;enable-background:accumulate" />
      <path
         transform="matrix(-5.8160312,0.60379328,1.1870371,8.899908,1537.8219,-3651.2631)"
         d="m 274.50895,450.3295 c 0,4.77695 -3.50502,8.64943 -7.82868,8.64943 -4.32366,0 -7.82869,-3.87248 -7.82869,-8.64943 0,-4.77695 3.50503,-8.64943 7.82869,-8.64943 4.32366,0 7.82868,3.87248 7.82868,8.64943 z"
         sodipodi:ry="8.6494312"
         sodipodi:rx="7.8286824"
         sodipodi:cy="450.3295"
         sodipodi:cx="266.68027"
         id="path6017-7-5-3-1-0-8-7-4-1-8-3-7-6-1-7-4-5"
         style="color:#000000;fill:#53536c;fill-opacity:1;fill-rule:nonzero;stroke:#000000;stroke-width:0.47029975px;stroke-linecap:butt;stroke-linejoin:miter;stroke-miterlimit:4;stroke-opacity:1;stroke-dasharray:none;stroke-dashoffset:0;marker:none;visibility:visible;display:inline;overflow:visible;enable-background:accumulate"
         sodipodi:type="arc" />
      <path
         transform="matrix(5.8160312,0.60379328,-1.1870371,8.899908,-606.68268,-3647.4163)"
         d="m 274.50895,450.3295 c 0,4.77695 -3.50502,8.64943 -7.82868,8.64943 -4.32366,0 -7.82869,-3.87248 -7.82869,-8.64943 0,-4.77695 3.50503,-8.64943 7.82869,-8.64943 4.32366,0 7.82868,3.87248 7.82868,8.64943 z"
         sodipodi:ry="8.6494312"
         sodipodi:rx="7.8286824"
         sodipodi:cy="450.3295"
         sodipodi:cx="266.68027"
         id="path6017-6-6-5-9-9-2-8-1-7-9-5-18-8-1-3-0"
         style="color:#000000;fill:#53536c;fill-opacity:1;fill-rule:nonzero;stroke:#000000;stroke-width:0.47029975px;stroke-linecap:butt;stroke-linejoin:miter;stroke-miterlimit:4;stroke-opacity:1;stroke-dasharray:none;stroke-dashoffset:0;marker:none;visibility:visible;display:inline;overflow:visible;enable-background:accumulate"
         sodipodi:type="arc" />
      <path
         sodipodi:nodetypes="ccccc"
         id="path6139-9-4-9-6-9-3-1-0-9-2-3-7-7-3-6-4-0"
         d="m 561.96318,498.01152 c -30.3135,12.5736 -59.8047,19.802 -88.2143,20 l 2.5,7.8572 c 31.8601,-0.4316 61.9167,-5.2432 87.1429,-21.7856 l -1.4286,-6.0716 z"
         style="opacity:0.40932641;color:#000000;fill:#000000;fill-opacity:1;fill-rule:nonzero;stroke:none;stroke-width:1px;marker:none;visibility:visible;display:inline;overflow:visible;enable-background:accumulate"
         inkscape:connector-curvature="0" />
      <path
         sodipodi:nodetypes="ccccc"
         id="rect5545-7-1-48-4-4-2-1-0-1-4-9-79-7-7-2-3"
         d="m 352.72218,392.66352 c 76.8111,31.1788 148.9328,26.7212 218.1249,0 l 0,97.5164 c -85.9839,44.7904 -158.5766,34.1224 -218.1249,0 l 0,-97.5164 z"
         style="color:#000000;fill:#cccccc;fill-opacity:1;fill-rule:nonzero;stroke:#000000;stroke-width:4px;stroke-linecap:butt;stroke-linejoin:miter;stroke-miterlimit:4;stroke-opacity:1;stroke-dasharray:none;stroke-dashoffset:0;marker:none;visibility:visible;display:inline;overflow:visible;enable-background:accumulate"
         inkscape:connector-curvature="0" />
      <path
         sodipodi:nodetypes="ccccc"
         id="path3059-3-0-7-6-2-3-7-8-2-2-9-2-2-7"
         d="m 364.50248,390.11752 -2.5612,16.2808 c 66.0956,16.6444 138.4336,27.864 206.4053,-3.3316 -1.3239,-6.178 -2.6479,-11.7304 -3.9719,-17.2476 l -199.8722,4.2984 z"
         style="color:#000000;fill:#cccccc;fill-opacity:1;fill-rule:nonzero;stroke:none;stroke-width:1px;marker:none;visibility:visible;display:inline;overflow:visible;enable-background:accumulate"
         inkscape:connector-curvature="0" />
      <path
         sodipodi:nodetypes="ccccccccccc"
         inkscape:connector-curvature="0"
         id="path6197-17-7-2-2-3-5-8-1-6-9-3-5-7-1-6-4-6"
         d="m 517.83611,510.8023 c -35.2958,24.7612 -5.07325,69.0733 19.28125,83.5625 -21.641,-0.6533 -35.9173,-10.62915 -45.125,-24.59375 -2.30839,-3.69985 -4.45561,-7.70782 -6.375,-12 -0.0615,-0.14568 -0.12643,-0.29115 -0.1875,-0.4375 -0.18168,-0.4354 -0.35724,-0.87399 -0.53125,-1.3125 l -0.0625,-0.0313 c -2.20763,-5.18126 -4.0943,-10.7454 -5.625,-16.59375 l 0.71875,-0.0313 c -1.5336,-7.1713 -3.48373,-13.41209 -3.88393,-20.38839 z"
         style="opacity:0.21028035;color:#000000;fill:#000000;fill-opacity:1;fill-rule:nonzero;stroke:none;stroke-width:1px;marker:none;visibility:visible;display:inline;overflow:visible;enable-background:accumulate" />
      <path
         id="path5403-1-1-6-9-22-2-0-9-6-8-2-2-2-1-6-4"
         d="m 462.59108,279.20912 c -60.3569,0 -109.2814,49.5729 -109.2814,110.7188 0,1.4804 0.037,2.9398 0.094,4.4062 -0.1353,-0.055 -0.2708,-0.1013 -0.4062,-0.1562 l 0,97.5 c 59.548,34.1224 138.4848,44.7904 224.4688,0 l -6,-92.2188 c 0.2653,-3.147 0.4062,-6.3147 0.4062,-9.5312 0,-61.1459 -48.9244,-110.7188 -109.2812,-110.7188 z"
         style="color:#000000;fill:#53536c;fill-opacity:1;fill-rule:nonzero;stroke:#000000;stroke-width:3.40695953px;stroke-linecap:butt;stroke-linejoin:miter;stroke-miterlimit:4;stroke-opacity:1;stroke-dasharray:none;stroke-dashoffset:0;marker:none;visibility:visible;display:inline;overflow:visible;enable-background:accumulate"
         inkscape:connector-curvature="0" />
      <path
         d="m 311.42858,356.41592 c 0,15.28646 -12.23222,27.67858 -27.32143,27.67858 -15.08921,0 -27.32143,-12.39212 -27.32143,-27.67858 0,-15.28645 12.23222,-27.67857 27.32143,-27.67857 15.08921,0 27.32143,12.39212 27.32143,27.67857 z"
         sodipodi:ry="27.678572"
         sodipodi:rx="27.321428"
         sodipodi:cy="356.41592"
         sodipodi:cx="284.10715"
         id="path5403-8-7-2-3-7-7-1-4-9-5-8-2-2-1-8-4"
         style="color:#000000;fill:#53536c;fill-opacity:1;fill-rule:nonzero;stroke:#000000;stroke-width:2.98247528px;stroke-linecap:butt;stroke-linejoin:miter;stroke-miterlimit:4;stroke-opacity:1;stroke-dasharray:none;stroke-dashoffset:0;marker:none;visibility:visible;display:inline;overflow:visible;enable-background:accumulate"
         sodipodi:type="arc"
         transform="matrix(1.1423262,0,0,1.1423262,0.11824,49.0395)" />
      <path
         sodipodi:nodetypes="cccccccscccccccccc"
         inkscape:connector-curvature="0"
         id="rect5169"
         transform="translate(261.93879,37.85512)"
         d="m 276.78125,272.65625 c -55.40124,18.81678 -130.76546,89.75261 -153.65625,1.375 -12.03752,12.27399 -21.23324,27.40346 -26.5625,44.28125 59.18133,46.87365 124.13147,-21.37151 207.25,-2.875 -5.66044,-16.36234 -15.00863,-30.95134 -27.03125,-42.78125 z m 32.5,70.65625 c -77.04308,26.49992 -163.44239,90.67356 -217.59375,0.28125 -0.209599,2.80129 -0.3125,5.6131 -0.3125,8.46875 0,1.4804 0.03675,2.93985 0.09375,4.40625 -0.1353,-0.055 -0.27085,-0.10135 -0.40625,-0.15625 l 0,37.125 c 77.84222,6.64658 141.66868,28.85737 218.21875,-0.125 z m 3.5,78.375 c -109.31737,70.31276 -75.56784,23.17349 -221.71875,2 l 0,30.125 c 58.91335,33.75873 136.80115,44.55335 221.71875,1.40625 z"
         style="color:#000000;fill:#3e3748;fill-opacity:1;fill-rule:nonzero;stroke:#000000;stroke-width:3.40695953px;stroke-linecap:butt;stroke-linejoin:miter;stroke-miterlimit:4;stroke-opacity:1;stroke-dasharray:none;stroke-dashoffset:0;marker:none;visibility:visible;display:inline;overflow:visible;enable-background:accumulate" />
      <path
         id="path5614-3-8-8-8-3-1-0-1-6-4-9-9-7-3-2"
         d="m 385.25129,309.66762 c -71.01493,30.32125 -83.64813,89.97553 -93.5625,131.0625 16.1856,16.2968 37.88975,19.39135 63.59375,12.84375 5.41605,-46.83526 11.4232,-93.66471 31.9375,-140.5 l -1.96875,-3.40625 z"
         style="color:#000000;fill:#53536c;fill-opacity:1;fill-rule:nonzero;stroke:#000000;stroke-width:3.40695953px;stroke-linecap:butt;stroke-linejoin:miter;stroke-miterlimit:4;stroke-opacity:1;stroke-dasharray:none;stroke-dashoffset:0;marker:none;visibility:visible;display:inline;overflow:visible;enable-background:accumulate"
         inkscape:connector-curvature="0" />
      <g
         transform="matrix(4,0,0,4,-1004.7989,-4321.0133)"
         id="g7252-6-9-4-2-1-9-6-4-4-1-2-3">
        <path
           transform="matrix(0.28558156,0,0,0.28558156,320.72007,1092.4365)"
           sodipodi:type="arc"
           style="color:#000000;fill:#53536c;fill-opacity:1;fill-rule:nonzero;stroke:#000000;stroke-width:2.98247504px;stroke-linecap:butt;stroke-linejoin:miter;stroke-miterlimit:4;stroke-opacity:1;stroke-dasharray:none;stroke-dashoffset:0;marker:none;visibility:visible;display:inline;overflow:visible;enable-background:accumulate"
           id="path5403-8-9-1-0-74-3-3-8-6-5-8-1-7-78-5-8-0"
           sodipodi:cx="284.10715"
           sodipodi:cy="356.41592"
           sodipodi:rx="27.321428"
           sodipodi:ry="27.678572"
           d="m 311.42858,356.41592 c 0,15.28646 -12.23222,27.67858 -27.32143,27.67858 -15.08921,0 -27.32143,-12.39212 -27.32143,-27.67858 0,-15.28645 12.23222,-27.67857 27.32143,-27.67857 15.08921,0 27.32143,12.39212 27.32143,27.67857 z" />
        <g
           id="g7249-2-1-1-7-9-4-0-8-4-9-8-3">
          <path
             sodipodi:nodetypes="ccccccc"
             id="path6893-5-9-7-1-0-9-0-5-7-8-6-4-5-7-9-2"
             d="m 394.43333,1196.0123 9.28418,-0.1603 c 2.54637,3.3061 0.35246,5.0395 -3.54014,5.7024 6.19396,1.9495 7.56368,-1.5833 9.41631,-5.1415 l -0.49794,-4.2634 c -4.16659,2.9233 -9.32622,1.5471 -14.2703,1.0756 -0.59629,1.8603 -0.26229,1.8599 -0.39211,2.7872 z"
             style="opacity:0.3218884;color:#000000;fill:#000000;fill-opacity:1;fill-rule:nonzero;stroke:none;stroke-width:1px;marker:none;visibility:visible;display:inline;overflow:visible;enable-background:accumulate"
             inkscape:connector-curvature="0" />
        </g>
      </g>
      <path
         sodipodi:nodetypes="cccc"
         id="path5614-3-8-8-8-3-1-0-1-6-4-9-9-5-7-8-7"
         d="m 536.68458,311.42952 c 74.828,29.7128 87.7452,90.9512 97.8572,132.8572 -16.1856,16.2968 -37.8672,19.4044 -63.5712,12.8568 -5.6168,-48.5712 -11.8768,-97.1428 -34.286,-145.714 z"
         style="color:#000000;fill:#53536c;fill-opacity:1;fill-rule:nonzero;stroke:#000000;stroke-width:3.40695953px;stroke-linecap:butt;stroke-linejoin:miter;stroke-miterlimit:4;stroke-opacity:1;stroke-dasharray:none;stroke-dashoffset:0;marker:none;visibility:visible;display:inline;overflow:visible;enable-background:accumulate"
         inkscape:connector-curvature="0" />
      <path
         sodipodi:nodetypes="ccccccc"
         id="path4861-3"
         d="m 543.27207,314.89508 -3.57503,4.65546 c 10.78154,34.99018 26.92822,100.28447 30.99175,135.27333 l 24.0625,3.0625 -9.625,-31.09375 -5,2.5 c -9.38605,-4.70225 -38.68026,-83.34235 -36.85422,-114.39754 z"
         style="opacity:0.21028035;color:#000000;fill:#000000;fill-opacity:1;fill-rule:nonzero;stroke:none;stroke-width:1px;marker:none;visibility:visible;display:inline;overflow:visible;enable-background:accumulate"
         inkscape:connector-curvature="0" />
      <path
         transform="matrix(0.8329669,0,0,1.8925893,296.64633,-192.3543)"
         d="m 259.10413,258.98141 c 0,5.29998 -28.71856,9.59645 -64.14469,9.59645 -35.42613,0 -64.14468,-4.29647 -64.14468,-9.59645 0,-5.29997 28.71855,-9.59644 64.14468,-9.59644 35.42613,0 64.14469,4.29647 64.14469,9.59644 z"
         sodipodi:ry="9.5964489"
         sodipodi:rx="64.144684"
         sodipodi:cy="258.98141"
         sodipodi:cx="194.95944"
         id="path4486"
         style="opacity:0.46632122;color:#000000;fill:#000000;fill-opacity:1;fill-rule:nonzero;stroke:none;stroke-width:0.84619552px;marker:none;visibility:visible;display:inline;overflow:visible;enable-background:accumulate"
         sodipodi:type="arc" />
      <path
         transform="matrix(4,0,0,4,-676.86896,-1231.9273)"
         d="m 311.42858,356.41592 c 0,15.28646 -12.23222,27.67858 -27.32143,27.67858 -15.08921,0 -27.32143,-12.39212 -27.32143,-27.67858 0,-15.28645 12.23222,-27.67857 27.32143,-27.67857 15.08921,0 27.32143,12.39212 27.32143,27.67857 z"
         sodipodi:ry="27.678572"
         sodipodi:rx="27.321428"
         sodipodi:cy="356.41592"
         sodipodi:cx="284.10715"
         id="path5403-5-2-3-2-8-5-6-9-3-4-6-6-0-8-6"
         style="color:#000000;fill:#53536c;fill-opacity:1;fill-rule:nonzero;stroke:#000000;stroke-width:0.85173988px;stroke-linecap:butt;stroke-linejoin:miter;stroke-miterlimit:4;stroke-opacity:1;stroke-dasharray:none;stroke-dashoffset:0;marker:none;visibility:visible;display:inline;overflow:visible;enable-background:accumulate"
         sodipodi:type="arc" />
      <path
         sodipodi:nodetypes="cc"
         inkscape:connector-curvature="0"
         id="path4947-3"
         d="m 539.42813,183.50179 c 72.91075,-12.54455 25.48596,62.67576 17.47287,57.14285"
         style="color:#000000;fill:#53536c;fill-opacity:1;fill-rule:nonzero;stroke:#000000;stroke-width:3.40695953px;stroke-linecap:butt;stroke-linejoin:miter;stroke-miterlimit:4;stroke-opacity:1;stroke-dasharray:none;stroke-dashoffset:0;marker:none;visibility:visible;display:inline;overflow:visible;enable-background:accumulate" />
      <path
         sodipodi:nodetypes="ccccccc"
         id="path6893-1-9-3-4-6-5-0-7-1-5-3-3-7-8-2"
         d="m 295.40308,450.76392 30.8096,12.6268 c 6.9764,15.1644 -3.4236,18.0636 -19.1928,17.1724 22.4096,13.1324 35.056,5.6536 45.4568,-6.566 0.8,-8.3792 5.2396,-21.2384 -2.0204,-19.698 -18.856,7.6776 -37.7124,-2.838 -56.5684,-9.0912 l 1.5152,5.556 z"
         style="opacity:0.3218884;color:#000000;fill:#000000;fill-opacity:1;fill-rule:nonzero;stroke:none;stroke-width:1px;marker:none;visibility:visible;display:inline;overflow:visible;enable-background:accumulate"
         inkscape:connector-curvature="0" />
      <path
         sodipodi:nodetypes="ccccccc"
         id="path4861-3-7"
         d="m 380.84522,312.21402 3.57503,4.65546 c -10.78154,34.99018 -26.92822,100.28447 -30.99175,135.27333 l -24.0625,3.0625 9.625,-31.09375 5,2.5 c 9.38605,-4.70225 38.68026,-83.34235 36.85422,-114.39754 z"
         style="opacity:0.21028035;color:#000000;fill:#000000;fill-opacity:1;fill-rule:nonzero;stroke:none;stroke-width:1px;marker:none;visibility:visible;display:inline;overflow:visible;enable-background:accumulate"
         inkscape:connector-curvature="0" />
      <path
         sodipodi:nodetypes="ccccc"
         inkscape:connector-curvature="0"
         id="path6436-8-5"
         d="m 318.19614,362.19036 33.88562,47.89653 -19.98959,-63.62975 -13.8116,19.87652 z"
         style="color:#000000;fill:#3e3748;fill-opacity:1;fill-rule:nonzero;stroke:#000000;stroke-width:3.40695953px;stroke-linecap:butt;stroke-linejoin:miter;stroke-miterlimit:4;stroke-opacity:1;stroke-dasharray:none;stroke-dashoffset:0;marker:none;visibility:visible;display:inline;overflow:visible;enable-background:accumulate" />
      <path
         sodipodi:nodetypes="cccc"
         id="path6260-6-1-8-3-2-8-6-1-5-3-9-9-1-3-1"
         d="m 382.33788,311.77472 c -35.2676,44.1732 -75.6,90.8216 -69.672,141.578 -9.4424,-4.27 -10.3944,-4.476 -15.9228,-9.3984 8.43,-45.582 32.6352,-99.5608 85.5948,-132.1796 z"
         style="opacity:0.16738197;color:#000000;fill:#ffffff;fill-opacity:1;fill-rule:nonzero;stroke:none;stroke-width:1px;marker:none;visibility:visible;display:inline;overflow:visible;enable-background:accumulate"
         inkscape:connector-curvature="0" />
      <path
         sodipodi:nodetypes="cccc"
         id="path6260-4-2-2-5-5-8-4-8-7-3-0-36-6-6-3-7"
         d="m 540.06458,314.21832 c 35.2672,44.1736 73.3368,90.6508 67.4092,141.4072 7.8076,1.288 10.4908,-5.4344 16.0196,-10.3568 -8.4304,-45.582 -30.4696,-98.4312 -83.4288,-131.0504 z"
         style="opacity:0.16738197;color:#000000;fill:#ffffff;fill-opacity:1;fill-rule:nonzero;stroke:none;stroke-width:1px;marker:none;visibility:visible;display:inline;overflow:visible;enable-background:accumulate"
         inkscape:connector-curvature="0" />
      <path
         inkscape:connector-curvature="0"
         sodipodi:nodetypes="ccccc"
         id="path11339-0-4-1-6"
         d="m 356.5886,436.87257 -4.15225,22.67176 c -24.75805,4.43303 -47.42757,1.63231 -64.7804,-19.58315 l 8.57267,-27.54105 c 19.43768,14.66466 39.75045,20.9751 60.35998,24.45244 z"
         style="color:#000000;fill:#3e3748;fill-opacity:1;fill-rule:nonzero;stroke:#000000;stroke-width:3.40695953px;stroke-linecap:butt;stroke-linejoin:miter;stroke-miterlimit:4;stroke-opacity:1;stroke-dasharray:none;stroke-dashoffset:0;marker:none;visibility:visible;display:inline;overflow:visible;enable-background:accumulate" />
      <path
         inkscape:connector-curvature="0"
         sodipodi:nodetypes="ccccc"
         id="path11339-0-4-1-6-6"
         d="m 570.80556,436.26677 4.15225,22.67176 c 24.75805,4.43303 47.42757,1.63231 64.7804,-19.58315 l -8.57267,-27.54105 c -19.43768,14.66466 -39.75045,20.9751 -60.35998,24.45244 z"
         style="color:#000000;fill:#3e3748;fill-opacity:1;fill-rule:nonzero;stroke:#000000;stroke-width:3.40695953px;stroke-linecap:butt;stroke-linejoin:miter;stroke-miterlimit:4;stroke-opacity:1;stroke-dasharray:none;stroke-dashoffset:0;marker:none;visibility:visible;display:inline;overflow:visible;enable-background:accumulate" />
      <path
         sodipodi:nodetypes="cccc"
         id="path6197-8-5-3-6-7-4-8-4-5-6-0-8-1-2-2-6-4-1"
         d="m 395.43238,597.04352 c -16.9933,-22.678 -28.0456,-75.1744 14.0234,-84.6136 l -40.3634,-8.9144 c -4.262,23.1172 -11.9483,71.9168 26.34,93.528 z"
         style="opacity:0.16309013;color:#000000;fill:#ffffff;fill-opacity:1;fill-rule:nonzero;stroke:none;stroke-width:1px;marker:none;visibility:visible;display:inline;overflow:visible;enable-background:accumulate"
         inkscape:connector-curvature="0" />
      <path
         sodipodi:nodetypes="ccccc"
         id="path6139-9-4-9-6-9-3-1-0-9-2-3-7-7-3-6-4-0-8"
         d="m 368.1888,497.22637 c 30.3135,12.5736 59.8047,19.802 88.2143,20 l -2.5,7.8572 c -31.8601,-0.4316 -61.9167,-5.2432 -87.1429,-21.7856 l 1.4286,-6.0716 z"
         style="opacity:0.40932641;color:#000000;fill:#000000;fill-opacity:1;fill-rule:nonzero;stroke:none;stroke-width:1px;marker:none;visibility:visible;display:inline;overflow:visible;enable-background:accumulate"
         inkscape:connector-curvature="0" />
      <path
         sodipodi:nodetypes="ccccccccccc"
         inkscape:connector-curvature="0"
         id="path6197-17-7-2-2-3-5-8-1-6-9-3-5-7-1-6-4"
         d="m 413.56379,513.51137 c 35.2958,24.7612 5.07325,69.0733 -19.28125,83.5625 21.641,-0.6533 35.9173,-10.62915 45.125,-24.59375 2.30839,-3.69985 4.45561,-7.70782 6.375,-12 0.0615,-0.14568 0.12643,-0.29115 0.1875,-0.4375 0.18168,-0.4354 0.35724,-0.87399 0.53125,-1.3125 l 0.0625,-0.0313 c 2.20763,-5.18126 4.0943,-10.7454 5.625,-16.59375 l -0.71875,-0.0313 c 1.5336,-7.1713 3.48373,-13.41209 3.88393,-20.38839 z"
         style="opacity:0.21028035;color:#000000;fill:#000000;fill-opacity:1;fill-rule:nonzero;stroke:none;stroke-width:1px;marker:none;visibility:visible;display:inline;overflow:visible;enable-background:accumulate" />
      <path
         id="path6197-8-2-6-8-5-2-0-3-0-7-2-8-2-0-2-1-9"
         d="m 563.46608,503.61532 -28.25,7.2813 c 25.5426,14.8931 19.4677,57.0799 6.875,77.875 34.5833,-19.7907 32.351,-55.7022 21.375,-85.1563 z"
         style="opacity:0.10280373;color:#000000;fill:#000000;fill-opacity:1;fill-rule:nonzero;stroke:none;stroke-width:1px;marker:none;visibility:visible;display:inline;overflow:visible;enable-background:accumulate"
         inkscape:connector-curvature="0" />
      <path
         sodipodi:nodetypes="cccccccccccccc"
         inkscape:connector-curvature="0"
         id="path5951-5-5-3-3-9-3-0-9-9-1-7-7-4-8-5"
         d="m 410.51288,293.94712 c -9.11896,5.81258 -18.58135,11.28172 -23.79284,21.00175 -12.09417,29.41289 -19.20989,60.9591 -24.65625,93.21875 l -0.46875,0.1875 -3.96875,25.28125 -1.84375,15.625 -0.15625,1.1875 -2.625,1.53125 0,39.6875 c 13.77271,7.89209 28.58687,14.51322 44.28125,19.5 -0.27061,-0.493 -0.55135,-0.99429 -0.8125,-1.5 33.09367,10.52911 13.93031,4.52973 -1.1875,-2.4375 -24.87582,-77.9931 5.37216,-171.49406 43.45067,-204.99847 z"
         style="opacity:0.10280373;color:#000000;fill:#000000;fill-opacity:1;fill-rule:nonzero;stroke:none;stroke-width:1px;marker:none;visibility:visible;display:inline;overflow:visible;enable-background:accumulate" />
      <path
         sodipodi:nodetypes="cccc"
         id="path5975-5-7-7-47-4-4-7-3-0-6-1-1-7-8-4"
         d="m 409.61538,510.96082 c -3.4999,-72.5027 23.6661,-191.2873 50.5485,-208.5625 40.4954,53.9629 53.7933,120.9112 54.1123,212.9598 -7.9062,8.3288 -89.5394,7.5238 -104.6608,-4.3973 z"
         style="opacity:0.16309013;color:#000000;fill:#ffffff;fill-opacity:1;fill-rule:nonzero;stroke:none;stroke-width:1px;marker:none;visibility:visible;display:inline;overflow:visible;enable-background:accumulate"
         inkscape:connector-curvature="0" />
      <path
         sodipodi:nodetypes="ccccc"
         inkscape:connector-curvature="0"
         id="path5391"
         d="m 289.43879,439.90497 10,-17.49999 c 5.2246,2.73809 16.80058,5.47619 26.96429,8.21428 -10.62633,-4.56779 -21.10463,-9.20959 -28.92858,-15.17857 z"
         style="opacity:0.352657;color:#000000;fill:#ffffff;fill-opacity:1;fill-rule:nonzero;stroke:none;stroke-width:1px;marker:none;visibility:visible;display:inline;overflow:visible;enable-background:accumulate" />
      <path
         id="path5951-5-5-3-3-9-3-0-9-9-1-7-7-4-8-5-3"
         transform="translate(261.93879,37.85512)"
         d="m 251.96875,254.3125 -28.0625,8.21875 c 38.07851,33.50441 68.34457,127.0069 43.46875,205 -15.11781,6.96723 -34.28117,12.96661 -1.1875,2.4375 -0.0176,0.0341 0.66195,0.32809 1.75,0.75 6.36224,-1.79588 13.26493,-3.00853 20.125,-4.34375 8.65992,-3.41308 17.39556,-7.39256 26.21875,-11.9375 l -4.625,-42.15625 -2.625,-1.53125 -0.15625,-1.1875 -1.84375,-15.625 -3.96875,-25.28125 -0.46875,-0.1875 C 295.14739,336.2091 288.03167,304.66289 275.9375,275.25 c -4.89688,-9.13325 -13.56455,-14.49904 -22.15625,-19.9375 -0.59916,-0.33835 -1.20647,-0.67281 -1.8125,-1 z m 15.96875,216.40625 c -0.8603,0.24284 -1.72442,0.48371 -2.5625,0.75 1.80881,0.62659 2.44277,0.84435 4.15625,1.4375 0.75429,-0.23376 1.49419,-0.47677 2.25,-0.71875 -1.62289,-0.60453 -2.89046,-1.09909 -3.84375,-1.46875 z"
         style="opacity:0.10280373;color:#000000;fill:#000000;fill-opacity:1;fill-rule:nonzero;stroke:none;stroke-width:1px;marker:none;visibility:visible;display:inline;overflow:visible;enable-background:accumulate"
         inkscape:connector-curvature="0" />
      <path
         sodipodi:nodetypes="cc"
         inkscape:connector-curvature="0"
         id="path4947"
         d="m 380.51022,185.4407 c -72.91075,-12.54455 -25.48596,62.67576 -17.47287,57.14285"
         style="color:#000000;fill:#53536c;fill-opacity:1;fill-rule:nonzero;stroke:#000000;stroke-width:3.40695953px;stroke-linecap:butt;stroke-linejoin:miter;stroke-miterlimit:4;stroke-opacity:1;stroke-dasharray:none;stroke-dashoffset:0;marker:none;visibility:visible;display:inline;overflow:visible;enable-background:accumulate" />
      <path
         sodipodi:nodetypes="ccc"
         transform="translate(261.93879,37.85512)"
         inkscape:connector-curvature="0"
         id="path4928"
         d="M 292.85714,156.87129 C 243.64239,225.13674 152.7143,229.1184 99.999999,161.157 109.84727,271.26173 291.51116,263.26041 292.85714,156.87129 z"
         style="color:#000000;fill:#e6e6e6;fill-opacity:1;fill-rule:nonzero;stroke:#000000;stroke-width:3.40695953px;stroke-linecap:butt;stroke-linejoin:miter;stroke-miterlimit:4;stroke-opacity:1;stroke-dasharray:none;stroke-dashoffset:0;marker:none;visibility:visible;display:inline;overflow:visible;enable-background:accumulate" />
      <path
         transform="translate(261.93879,37.85512)"
         inkscape:connector-curvature="0"
         id="path4990"
         d="m 120.35714,182.22843 -9.64285,11.78571 12.14285,-8.21428 z"
         style="fill:#000000;stroke:none" />
      <path
         inkscape:connector-curvature="0"
         id="path4990-1"
         d="m 537.29594,215.61927 9.64285,11.78571 -12.14285,-8.21428 z"
         style="fill:#000000;stroke:none" />
      <path
         sodipodi:nodetypes="cccc"
         inkscape:connector-curvature="0"
         id="path4990-1-8"
         d="m 399.56526,230.94099 -10.35833,19.16235 6.09827,-20.08808 z"
         style="fill:#000000;stroke:none" />
      <path
         sodipodi:nodetypes="cccc"
         inkscape:connector-curvature="0"
         id="path4990-1-8-2"
         d="m 512.47391,231.67953 10.35833,19.16235 -6.09827,-20.08808 z"
         style="fill:#000000;stroke:none" />
      <path
         sodipodi:nodetypes="cccc"
         inkscape:connector-curvature="0"
         id="path4990-1-8-28"
         d="m 419.44067,240.46568 -7.61384,21.91361 3.28105,-22.39534 z"
         style="fill:#000000;stroke:none" />
      <path
         sodipodi:nodetypes="cccc"
         inkscape:connector-curvature="0"
         id="path4990-1-8-28-7"
         d="m 495.27472,240.6176 6.89956,21.91361 -2.56677,-22.39534 z"
         style="fill:#000000;stroke:none" />
      <path
         sodipodi:nodetypes="cccc"
         inkscape:connector-curvature="0"
         id="path4990-1-8-28-7-1"
         d="m 468.29172,246.42695 2.92339,22.78737 1.42641,-22.49678 z"
         style="fill:#000000;stroke:none" />
      <path
         sodipodi:nodetypes="cccc"
         inkscape:connector-curvature="0"
         id="path4990-1-8-28-7-1-2"
         d="m 437.88768,245.63692 -0.45164,22.96969 4.71173,-22.04404 z"
         style="fill:#000000;stroke:none" />
      <path
         sodipodi:nodetypes="cc"
         transform="translate(261.93879,37.85512)"
         inkscape:connector-curvature="0"
         id="path5107"
         d="M 160.61425,57.455988 C 86.627734,-3.1993836 61.024679,22.736634 101.52033,107.45854"
         style="color:#000000;fill:#53536c;fill-opacity:1;fill-rule:nonzero;stroke:#000000;stroke-width:3.40695953px;stroke-linecap:butt;stroke-linejoin:miter;stroke-miterlimit:4;stroke-opacity:1;stroke-dasharray:none;stroke-dashoffset:0;marker:none;visibility:visible;display:inline;overflow:visible;enable-background:accumulate" />
      <path
         sodipodi:nodetypes="cccc"
         inkscape:connector-curvature="0"
         id="path6136"
         d="m 382.68508,121.586 c 11.01416,-34.435168 -25.92898,-65.387304 -30.3847,-22.376782 3.13748,15.551882 8.0363,28.755332 14.02728,40.502552 3.86734,-8.81592 7.8742,-17.38767 16.35742,-18.12577 z"
         style="opacity:0.18840577;color:#000000;fill:#000000;fill-opacity:1;fill-rule:nonzero;stroke:none;stroke-width:1px;marker:none;visibility:visible;display:inline;overflow:visible;enable-background:accumulate" />
      <path
         sodipodi:nodetypes="cc"
         inkscape:connector-curvature="0"
         id="path5107-1"
         d="m 496.06269,93.462961 c 73.98652,-60.655375 99.58958,-34.71936 59.09392,50.002539"
         style="color:#000000;fill:#53536c;fill-opacity:1;fill-rule:nonzero;stroke:#000000;stroke-width:3.40695953px;stroke-linecap:butt;stroke-linejoin:miter;stroke-miterlimit:4;stroke-opacity:1;stroke-dasharray:none;stroke-dashoffset:0;marker:none;visibility:visible;display:inline;overflow:visible;enable-background:accumulate" />
      <path
         sodipodi:nodetypes="ccc"
         transform="translate(261.93879,37.85512)"
         inkscape:connector-curvature="0"
         id="path5375"
         d="M 87.883271,62.001675 C 86.769648,32.864229 97.240068,17.384974 153.54319,58.971217 129.8659,36.79749 77.845643,-0.05042373 87.883271,62.001675 z"
         style="opacity:0.18840577;fill:#ffffff;stroke:none" />
      <path
         sodipodi:nodetypes="ccccc"
         transform="translate(261.93879,37.85512)"
         inkscape:connector-curvature="0"
         id="path5885"
         d="M 126.26907,153.42048 C 97.333765,127.23525 49.818878,125.36582 11.616754,117.56006 c 30.494962,9.19365 64.746467,7.11768 91.418806,27.7792 -22.391715,-4.43547 -44.78343,6.18037 -67.175145,10.10152 29.473179,-3.03694 63.711814,-14.21748 90.408655,-2.0203 z"
         style="fill:#000000;stroke:none" />
      <path
         sodipodi:nodetypes="ccccc"
         inkscape:connector-curvature="0"
         id="path5885-8"
         d="m 534.42744,186.47738 c 28.93531,-26.18523 76.4502,-28.05466 114.65232,-35.86042 -30.49496,9.19365 -64.74647,7.11768 -91.41881,27.7792 22.39172,-4.43547 44.78343,6.18037 67.17515,10.10152 -29.47318,-3.03694 -63.71182,-14.21748 -90.40866,-2.0203 z"
         style="fill:#000000;stroke:none" />
      <path
         sodipodi:nodetypes="cccc"
         inkscape:connector-curvature="0"
         id="path3303"
         d="m 429.31377,200.91042 c 21.54124,-5.94879 42.1953,-4.80028 62.3929,0 l -31.19646,15.96003 z"
         inkscape:transform-center-y="2.6600039"
         style="color:#000000;fill:#4d4d4d;fill-opacity:1;fill-rule:nonzero;stroke:#000000;stroke-width:2.89003539px;stroke-linecap:butt;stroke-linejoin:miter;stroke-miterlimit:4;stroke-opacity:1;stroke-dashoffset:0;marker:none;visibility:visible;display:inline;overflow:visible;enable-background:accumulate" />
      <path
         sodipodi:nodetypes="cccc"
         inkscape:connector-curvature="0"
         id="path3303-2"
         d="m 436.8268,203.7703 c 16.35348,-4.64396 32.03342,-3.74736 47.36684,0 l -23.68343,12.45933 z"
         inkscape:transform-center-y="2.0765424"
         style="color:#000000;fill:#22002b;fill-opacity:1;fill-rule:nonzero;stroke:none;stroke-width:1.91610944px;marker:none;visibility:visible;display:inline;overflow:visible;enable-background:accumulate" />
      <path
         transform="matrix(1.690914,-0.1322574,0.07797835,0.99695505,118.91069,33.751612)"
         d="m 191.42857,194.14807 c 0,1.25744 -2.0387,2.27679 -4.55357,2.27679 -2.51487,0 -4.55357,-1.01935 -4.55357,-2.27679 0,-1.25743 2.0387,-2.27678 4.55357,-2.27678 2.51487,0 4.55357,1.01935 4.55357,2.27678 z"
         sodipodi:ry="2.2767856"
         sodipodi:rx="4.5535712"
         sodipodi:cy="194.14807"
         sodipodi:cx="186.875"
         id="path3453"
         style="color:#000000;fill:#4d4d4d;fill-opacity:1;fill-rule:nonzero;stroke:none;stroke-width:2.89003539px;marker:none;visibility:visible;display:inline;overflow:visible;enable-background:accumulate"
         sodipodi:type="arc" />
      <path
         id="path4928-0"
         transform="translate(261.93879,37.85512)"
         d="m 292.84375,156.875 c -9.02906,12.52415 -19.43772,22.88179 -30.78125,31.03125 5.37736,6.20435 8.42737,13.62329 10.46875,21.59375 12.28025,-13.34401 20.03809,-30.9349 20.3125,-52.625 z M 100,161.15625 c 1.73097,19.35435 8.78245,35.05603 19.21875,47.21875 1.69479,-6.74669 5.13397,-12.84996 12.21875,-17.65625 C 120.04343,183.12766 109.41241,173.29111 100,161.15625 z"
         style="opacity:0.38164254;color:#000000;fill:#000000;fill-opacity:1;fill-rule:nonzero;stroke:none;stroke-width:3.40695953px;marker:none;visibility:visible;display:inline;overflow:visible;enable-background:accumulate"
         inkscape:connector-curvature="0" />
      <path
         sodipodi:nodetypes="ccccc"
         inkscape:connector-curvature="0"
         id="path6436-1"
         d="m 504.23055,93.746391 -26.98441,32.495649 18.75961,-40.648659 6.79623,6.367296 z"
         style="color:#000000;fill:#3e3748;fill-opacity:1;fill-rule:nonzero;stroke:#000000;stroke-width:3.40695953px;stroke-linecap:butt;stroke-linejoin:miter;stroke-miterlimit:4;stroke-opacity:1;stroke-dasharray:none;stroke-dashoffset:0;marker:none;visibility:visible;display:inline;overflow:visible;enable-background:accumulate" />
      <path
         sodipodi:nodetypes="ccccc"
         transform="translate(261.93879,37.85512)"
         inkscape:connector-curvature="0"
         id="path6099"
         d="M 164.14979,48.869692 C 188.39345,35.27815 206.07112,24.320537 230.31478,26.646336 l -14.14214,12.121831 36.36549,8.08122 -26.26396,15.152288"
         style="color:#000000;fill:#53536c;fill-opacity:1;fill-rule:nonzero;stroke:#000000;stroke-width:3.40695953px;stroke-linecap:butt;stroke-linejoin:miter;stroke-miterlimit:4;stroke-opacity:1;stroke-dasharray:none;stroke-dashoffset:0;marker:none;visibility:visible;display:inline;overflow:visible;enable-background:accumulate" />
      <path
         id="path4675-4-4-9-6-6-0-8-7-1-1-9-6-5"
         transform="translate(261.93879,37.85512)"
         d="M 289.8125,41.3125 C 280.33971,41.438777 269.11705,55.334072 267.03125,72.5 245.31033,53.370661 218.52092,42.096093 195.34375,44.5625 c 150.8952,138.47762 17.7646,247.7529 -72.875,188.5625 57.6128,64.642 147.9941,29.9762 176.3125,-36.375 17.41406,-33.33874 10.39986,-68.58131 -7.96875,-96.78125 5.18843,-11.140807 9.44154,-23.519243 12.3125,-37.75 -1.55712,-15.03067 -7.03932,-20.989875 -13.3125,-20.90625 z"
         style="opacity:0.10280373;color:#000000;fill:#000000;fill-opacity:1;fill-rule:nonzero;stroke:none;stroke-width:1px;marker:none;visibility:visible;display:inline;overflow:visible;enable-background:accumulate"
         inkscape:connector-curvature="0" />
      <path
         sodipodi:nodetypes="ccc"
         transform="translate(261.93879,37.85512)"
         inkscape:connector-curvature="0"
         id="path6174"
         d="M 244.64286,52.942717 C 268.63241,33.471343 298.52272,17.341082 307.5,32.585574 291.63215,21.938598 266.6013,42.707649 244.64286,52.942717 z"
         style="opacity:0.18840577;color:#000000;fill:#ffffff;fill-opacity:1;fill-rule:nonzero;stroke:none;stroke-width:1px;marker:none;visibility:visible;display:inline;overflow:visible;enable-background:accumulate" />
      <path
         sodipodi:nodetypes="ccc"
         transform="translate(261.93879,37.85512)"
         inkscape:connector-curvature="0"
         id="path6193"
         d="M 220.71428,29.728431 167.5,48.657003 c 18.47057,-10.22703 36.6282,-17.351025 53.21428,-18.928572 z"
         style="opacity:0.18840577;color:#000000;fill:#ffffff;fill-opacity:1;fill-rule:nonzero;stroke:none;stroke-width:1px;marker:none;visibility:visible;display:inline;overflow:visible;enable-background:accumulate" />
      <path
         transform="translate(261.93879,37.85512)"
         inkscape:connector-curvature="0"
         id="path6303"
         d="m 37.857143,373.29986 1.428571,-30 0.714286,7.14286 9.285714,-30 2.142857,20"
         style="color:#000000;fill:#53536c;fill-opacity:1;fill-rule:nonzero;stroke:#000000;stroke-width:3.40695953px;stroke-linecap:butt;stroke-linejoin:miter;stroke-miterlimit:4;stroke-opacity:1;stroke-dasharray:none;stroke-dashoffset:0;marker:none;visibility:visible;display:inline;overflow:visible;enable-background:accumulate" />
      <path
         inkscape:connector-curvature="0"
         id="path6303-6"
         d="m 624.43879,412.58355 -1.42857,-30 -0.71429,7.14286 -9.28571,-30 -2.14286,20"
         style="color:#000000;fill:#53536c;fill-opacity:1;fill-rule:nonzero;stroke:#000000;stroke-width:3.40695953px;stroke-linecap:butt;stroke-linejoin:miter;stroke-miterlimit:4;stroke-opacity:1;stroke-dasharray:none;stroke-dashoffset:0;marker:none;visibility:visible;display:inline;overflow:visible;enable-background:accumulate" />
      <path
         id="path6340"
         transform="translate(261.93879,37.85512)"
         d="m -49.84375,232.0625 c -12.328686,0.13165 -23.313049,4.01091 -32.5,12.65625 3.824117,21.70311 8.463936,42.9049 32.1875,53 2.219516,-10.68741 5.752403,-18.01136 10.40625,-22.53125 -1.723128,-12.35087 3.059369,-27.56416 10.34375,-40.375 -7.125481,-1.83545 -13.96669,-2.8191 -20.4375,-2.75 z m 64.34375,22 c -5.509637,7.72911 -9.1067075,16.30345 -7.375,27.21875 5.020349,3.07139 10.268949,6.62315 15.6875,10.59375 0.41135,-8.41854 4.849976,-17.17534 11.15625,-25.53125 C 27.406751,261.93685 20.90455,257.79495 14.5,254.0625 z M -108,306 c -1.94258,12.67871 -3.1138,27.22492 -3.46875,43.8125 17.12513,17.7969 37.767636,7.52973 58.90625,-6.78125 -0.33712,-8.11793 -0.399907,-15.47504 -0.15625,-22.09375 C -91.144868,350.96407 -98.786276,327.09512 -108,306 z"
         style="color:#000000;fill:#3e3748;fill-opacity:1;fill-rule:nonzero;stroke:#000000;stroke-width:3.40695953px;stroke-linecap:butt;stroke-linejoin:miter;stroke-miterlimit:4;stroke-opacity:1;stroke-dasharray:none;stroke-dashoffset:0;marker:none;visibility:visible;display:inline;overflow:visible;enable-background:accumulate"
         inkscape:connector-curvature="0" />
      <path
         sodipodi:nodetypes="ccccc"
         transform="translate(261.93879,37.85512)"
         inkscape:connector-curvature="0"
         id="path6436"
         d="m 157.85714,55.79986 26.98441,32.495648 -18.75961,-40.648658 -6.79623,6.367296 z"
         style="color:#000000;fill:#3e3748;fill-opacity:1;fill-rule:nonzero;stroke:#000000;stroke-width:3.40695953px;stroke-linecap:butt;stroke-linejoin:miter;stroke-miterlimit:4;stroke-opacity:1;stroke-dasharray:none;stroke-dashoffset:0;marker:none;visibility:visible;display:inline;overflow:visible;enable-background:accumulate" />
      <path
         sodipodi:nodetypes="ccccc"
         inkscape:connector-curvature="0"
         id="path6436-8"
         d="m 354.56615,169.41035 41.02848,10.03939 -39.27531,-21.4869 -1.66874,9.16224 z"
         style="color:#000000;fill:#3e3748;fill-opacity:1;fill-rule:nonzero;stroke:#000000;stroke-width:3.40695953px;stroke-linecap:butt;stroke-linejoin:miter;stroke-miterlimit:4;stroke-opacity:1;stroke-dasharray:none;stroke-dashoffset:0;marker:none;visibility:visible;display:inline;overflow:visible;enable-background:accumulate" />
      <path
         sodipodi:nodetypes="ccccc"
         inkscape:connector-curvature="0"
         id="path6436-8-8"
         d="m 563.8816,168.28761 -41.02848,10.03939 39.27531,-21.4869 1.66874,9.16224 z"
         style="color:#000000;fill:#3e3748;fill-opacity:1;fill-rule:nonzero;stroke:#000000;stroke-width:3.40695953px;stroke-linecap:butt;stroke-linejoin:miter;stroke-miterlimit:4;stroke-opacity:1;stroke-dasharray:none;stroke-dashoffset:0;marker:none;visibility:visible;display:inline;overflow:visible;enable-background:accumulate" />
      <path
         id="path4928-9"
         transform="translate(261.93879,37.85512)"
         d="M 292.84375,156.875 C 243.629,225.14045 152.7143,229.11765 100,161.15625 c 0.29867,3.33952 0.73879,6.56473 1.34375,9.6875 52.71256,65.94967 142.05097,61.74339 190.96875,-5.25 0.31407,-2.83049 0.49347,-5.73282 0.53125,-8.71875 z"
         style="opacity:0.20772944;color:#000000;fill:#000000;fill-opacity:1;fill-rule:nonzero;stroke:#000000;stroke-width:3.40695953px;stroke-linecap:butt;stroke-linejoin:miter;stroke-miterlimit:4;stroke-opacity:1;stroke-dasharray:none;stroke-dashoffset:0;marker:none;visibility:visible;display:inline;overflow:visible;enable-background:accumulate"
         inkscape:connector-curvature="0" />
      <path
         sodipodi:nodetypes="ccc"
         transform="translate(261.93879,37.85512)"
         inkscape:connector-curvature="0"
         id="path6653"
         d="M 115.15739,160.99662 C 87.610214,141.60302 98.751904,171.6925 97.984797,189.2809 97.22924,170.95033 80.468598,136.28762 115.15739,160.99662 z"
         style="fill:#000000;stroke:none" />
      <path
         sodipodi:nodetypes="ccc"
         inkscape:connector-curvature="0"
         id="path6653-0"
         d="m 540.28531,197.0189 c 27.54718,-19.3936 16.40549,10.69588 17.1726,28.28428 0.75555,-18.33057 17.51619,-52.99328 -17.1726,-28.28428 z"
         style="fill:#000000;stroke:none" />
      <path
         id="path6436-8-7"
         transform="translate(261.93879,37.85512)"
         d="m 90.8125,296.65625 15.84375,35.125 c 0.94381,-3.9854 1.94987,-7.98333 3.03125,-11.96875 l -18.875,-23.15625 z"
         style="color:#000000;fill:#3e3748;fill-opacity:1;fill-rule:nonzero;stroke:#000000;stroke-width:3.40695953px;stroke-linecap:butt;stroke-linejoin:miter;stroke-miterlimit:4;stroke-opacity:1;stroke-dasharray:none;stroke-dashoffset:0;marker:none;visibility:visible;display:inline;overflow:visible;enable-background:accumulate"
         inkscape:connector-curvature="0" />
      <path
         transform="translate(261.93879,37.85512)"
         inkscape:connector-curvature="0"
         id="path6731"
         d="m 72.857142,396.87129 -13.571428,16.42857 5,-9.28572 L 48.571428,418.29986 70,426.87129 l 22.142857,-4.28572 3.571428,-22.85714 z"
         style="opacity:0.10280373;color:#000000;fill:#000000;fill-opacity:1;fill-rule:nonzero;stroke:none;stroke-width:1px;marker:none;visibility:visible;display:inline;overflow:visible;enable-background:accumulate" />
      <path
         sodipodi:nodetypes="ccccc"
         inkscape:connector-curvature="0"
         id="path6436-8-5-8"
         d="m 609.36814,368.90336 -33.88562,47.89653 19.98959,-63.62975 13.8116,19.87652 z"
         style="color:#000000;fill:#3e3748;fill-opacity:1;fill-rule:nonzero;stroke:#000000;stroke-width:3.40695953px;stroke-linecap:butt;stroke-linejoin:miter;stroke-miterlimit:4;stroke-opacity:1;stroke-dasharray:none;stroke-dashoffset:0;marker:none;visibility:visible;display:inline;overflow:visible;enable-background:accumulate" />
      <path
         id="path6436-8-7-6"
         d="m 574.81299,341.22437 -15.84375,35.125 c -0.94381,-3.9854 -1.94987,-7.98333 -3.03125,-11.96875 l 18.875,-23.15625 z"
         style="color:#000000;fill:#3e3748;fill-opacity:1;fill-rule:nonzero;stroke:#000000;stroke-width:3.40695953px;stroke-linecap:butt;stroke-linejoin:miter;stroke-miterlimit:4;stroke-opacity:1;stroke-dasharray:none;stroke-dashoffset:0;marker:none;visibility:visible;display:inline;overflow:visible;enable-background:accumulate"
         inkscape:connector-curvature="0" />
    </g>
  </g>
</svg>
