<?xml version="1.0" encoding="UTF-8" standalone="no"?>
<!-- Created with Inkscape (http://www.inkscape.org/) -->

<svg
   xmlns:dc="http://purl.org/dc/elements/1.1/"
   xmlns:cc="http://creativecommons.org/ns#"
   xmlns:rdf="http://www.w3.org/1999/02/22-rdf-syntax-ns#"
   xmlns:svg="http://www.w3.org/2000/svg"
   xmlns="http://www.w3.org/2000/svg"
   xmlns:sodipodi="http://sodipodi.sourceforge.net/DTD/sodipodi-0.dtd"
   xmlns:inkscape="http://www.inkscape.org/namespaces/inkscape"
   width="438.72455"
   height="473.68631"
   id="svg2160"
   sodipodi:version="0.32"
   inkscape:version="0.48.3.1 r9886"
   sodipodi:docname="gato.svg"
   inkscape:output_extension="org.inkscape.output.svg.inkscape"
   version="1.0"
   sodipodi:modified="true">
  <defs
     id="defs2162" />
  <sodipodi:namedview
     id="base"
     pagecolor="#ffffff"
     bordercolor="#666666"
     borderopacity="1.0"
     inkscape:pageopacity="0.0"
     inkscape:pageshadow="2"
     inkscape:zoom="0.7625"
     inkscape:cx="88.38481"
     inkscape:cy="223.02336"
     inkscape:current-layer="layer1"
     inkscape:document-units="px"
     showguides="true"
     inkscape:guide-bbox="true"
     inkscape:window-width="958"
     inkscape:window-height="690"
     inkscape:window-x="32"
     inkscape:window-y="48"
     width="480px"
     height="640px"
     showgrid="false"
     fit-margin-top="0"
     fit-margin-left="0"
     fit-margin-right="0"
     fit-margin-bottom="0"
     inkscape:window-maximized="0" />
  <metadata
     id="metadata2165">
    <rdf:RDF>
      <cc:Work
         rdf:about="">
        <dc:format>image/svg+xml</dc:format>
        <dc:type
           rdf:resource="http://purl.org/dc/dcmitype/StillImage" />
        <dc:title></dc:title>
      </cc:Work>
    </rdf:RDF>
  </metadata>
  <g
     id="layer1"
     inkscape:label="Layer 1"
     inkscape:groupmode="layer"
     transform="translate(-20.63773,-88.897573)">
    <path
       style="color:#000000;fill:#c8ab37;fill-opacity:1;fill-rule:evenodd;stroke:#000000;stroke-width:4.1255579;stroke-linecap:butt;stroke-linejoin:miter;stroke-miterlimit:4;stroke-opacity:1;stroke-dasharray:none;stroke-dashoffset:0;marker:none;visibility:visible;display:inline;overflow:visible;enable-background:accumulate"
       d="m 193.037,416.96168 c -1.43732,26.84338 -15.98242,49.28789 -3.9027,80.66706 C 57.014826,374.30151 -4.399223,490.85975 33.992936,536.42629 77.493416,539.01861 171.89359,531.26528 213.32849,516.87913 189.86403,474.65716 195.07474,447.74426 193.037,416.96168 z"
       id="path3905"
       sodipodi:nodetypes="ccccc"
       inkscape:connector-curvature="0" />
    <path
       style="color:#000000;fill:#c8ab37;fill-opacity:1;fill-rule:evenodd;stroke:#000000;stroke-width:4.1255579;stroke-linecap:butt;stroke-linejoin:miter;stroke-miterlimit:4;stroke-opacity:1;stroke-dasharray:none;stroke-dashoffset:0;marker:none;visibility:visible;display:inline;overflow:visible;enable-background:accumulate"
       d="m 322.40589,448.53573 c 147.87375,5.8492 -34.49026,-105.4522 116.47415,-148.7715 18.3176,-2.28574 24.50471,27.80517 9.4639,32.2466 -104.83322,31.7579 43.4854,131.77018 -118.05068,135.41521 l -7.88737,-18.89031 z"
       id="path3174"
       sodipodi:nodetypes="ccccc"
       inkscape:connector-curvature="0" />
    <path
       style="color:#000000;fill:#c8ab37;fill-opacity:1;fill-rule:evenodd;stroke:#000000;stroke-width:4.1255579;stroke-linecap:butt;stroke-linejoin:miter;stroke-miterlimit:4;stroke-opacity:1;stroke-dasharray:none;stroke-dashoffset:0;marker:none;visibility:visible;display:inline;overflow:visible;enable-background:accumulate"
       d="m 260.7684,423.72457 c 1.43732,26.84337 15.9823,49.28771 3.90173,80.66745 132.12031,-123.32675 193.53441,-6.76905 155.14193,38.79784 -43.50005,2.59146 -137.90025,-5.16187 -179.3358,-19.54802 23.46511,-42.22194 18.2544,-69.1345 20.29214,-99.91727 z"
       id="path3668"
       sodipodi:nodetypes="ccccc"
       inkscape:connector-curvature="0" />
    <path
       style="opacity:0.18000004;color:#000000;fill:#000000;fill-opacity:1;fill-rule:evenodd;stroke:#000000;stroke-width:2.21406078;stroke-linecap:butt;stroke-linejoin:miter;stroke-miterlimit:4;stroke-opacity:1;stroke-dasharray:none;stroke-dashoffset:0;marker:none;visibility:visible;display:inline;overflow:visible;enable-background:accumulate"
       d="m 322.40589,448.53573 c 150.81854,22.53632 -5.04241,-96.61784 120.40053,-140.91874 18.3176,-2.28574 20.57833,19.95241 5.53752,24.39384 -107.77801,30.7763 43.4854,131.77018 -118.05068,135.41521 l -7.88737,-18.89031 z"
       id="path2429"
       sodipodi:nodetypes="ccccc"
       inkscape:connector-curvature="0" />
    <path
       style="opacity:0.62999998;color:#000000;fill:#ffffff;fill-opacity:1;fill-rule:evenodd;stroke:none;stroke-width:1.61000001;marker:none;visibility:visible;display:inline;overflow:visible;enable-background:accumulate"
       d="m 330.35035,536.86349 90.67443,3.31536 c 13.89121,-37.8263 15.54395,-70.96738 -41.50592,-89.50311 -50.04048,14.19489 -46.48163,49.9529 -49.16851,86.18775 z"
       id="path3670"
       sodipodi:nodetypes="cccc"
       inkscape:connector-curvature="0" />
    <path
       style="opacity:0.40594058;fill:#ffffff;fill-rule:evenodd;stroke:none"
       d="m 346.88562,494.25068 c -34.61764,-10.63599 -53.34483,4.68379 -70.69567,22.25162 22.0941,-9.61783 44.44779,-18.84928 70.69567,-22.25162 z"
       id="path3676"
       sodipodi:nodetypes="ccc"
       inkscape:connector-curvature="0" />
    <path
       style="opacity:0.62999998;color:#000000;fill:#ffffff;fill-opacity:1;fill-rule:evenodd;stroke:none;stroke-width:1.61000001;marker:none;visibility:visible;display:inline;overflow:visible;enable-background:accumulate"
       d="m 123.45507,530.10078 c -37.271354,5.33202 -66.125664,5.6152 -90.675074,3.31431 -14.36889,-31.60884 -13.35874,-72.93144 41.50575,-88.54643 50.040504,14.19558 46.481624,48.99727 49.169324,85.23212 z"
       id="path3907"
       sodipodi:nodetypes="cccc"
       inkscape:connector-curvature="0" />
    <path
       style="opacity:0.40594058;fill:#ffffff;fill-rule:evenodd;stroke:none"
       d="m 100.76669,501.05774 c 34.61764,-10.63599 53.34483,4.68379 70.69567,22.25162 -22.0941,-9.61783 -44.44779,-18.84928 -70.69567,-22.25162 z"
       id="path4416"
       sodipodi:nodetypes="ccc"
       inkscape:connector-curvature="0" />
    <path
       sodipodi:type="arc"
       style="color:#000000;fill:#c8ab37;fill-opacity:1;fill-rule:evenodd;stroke:#000000;stroke-width:3;stroke-linecap:butt;stroke-linejoin:miter;stroke-miterlimit:4;stroke-opacity:1;stroke-dasharray:none;stroke-dashoffset:0;marker:none;visibility:visible;display:inline;overflow:visible;enable-background:accumulate"
       id="path2180"
       sodipodi:cx="322.3959"
       sodipodi:cy="336.26517"
       sodipodi:rx="83.733383"
       sodipodi:ry="65.374725"
       d="m 406.12929,336.26517 c 0,36.10546 -37.48871,65.37472 -83.73339,65.37472 -46.24467,0 -83.73338,-29.26926 -83.73338,-65.37472 0,-36.10547 37.48871,-65.37473 83.73338,-65.37473 46.24468,0 83.73339,29.26926 83.73339,65.37473 z"
       transform="matrix(1.375187,0,0,1.375187,-221.8733,-23.659078)" />
    <path
       style="opacity:0.39500002;fill:#000000;fill-rule:evenodd;stroke:#000000;stroke-width:1.37519014px;stroke-linecap:butt;stroke-linejoin:miter;stroke-opacity:1"
       d="m 130.38352,382.69438 c 83.88144,88.59677 126.27315,20.67031 175.98924,-1.91326 l -175.98924,1.91326 z"
       id="path3694"
       sodipodi:nodetypes="ccc"
       inkscape:connector-curvature="0" />
    <path
       sodipodi:type="arc"
       style="opacity:0.12000002;color:#000000;fill:#000000;fill-opacity:1;fill-rule:evenodd;stroke:#000000;stroke-width:1.87381434;stroke-linecap:butt;stroke-linejoin:miter;stroke-miterlimit:4;stroke-opacity:1;stroke-dasharray:none;stroke-dashoffset:0;marker:none;visibility:visible;display:inline;overflow:visible;enable-background:accumulate"
       id="path2182"
       sodipodi:cx="322.3959"
       sodipodi:cy="336.26517"
       sodipodi:rx="83.733383"
       sodipodi:ry="65.374725"
       d="m 406.12929,336.26517 c 0,36.10546 -37.48871,65.37472 -83.73339,65.37472 -46.24467,0 -83.73338,-29.26926 -83.73338,-65.37472 0,-36.10547 37.48871,-65.37473 83.73338,-65.37473 46.24468,0 83.73339,29.26926 83.73339,65.37473 z"
       transform="matrix(1.181576,0,0,1.181576,-148.00878,48.369253)" />
    <path
       sodipodi:type="arc"
       style="opacity:0.49500002;color:#000000;fill:#ffffff;fill-opacity:1;fill-rule:evenodd;stroke:none;stroke-width:3;marker:none;visibility:visible;display:inline;overflow:visible;enable-background:accumulate"
       id="path3692"
       sodipodi:cx="316.45926"
       sodipodi:cy="356.19836"
       sodipodi:rx="57.727734"
       sodipodi:ry="45.90398"
       d="m 374.18699,356.19836 c 0,25.35207 -25.84558,45.90398 -57.72773,45.90398 -31.88215,0 -57.72773,-20.55191 -57.72773,-45.90398 0,-25.35206 25.84558,-45.90398 57.72773,-45.90398 31.88215,0 57.72773,20.55192 57.72773,45.90398 z"
       transform="matrix(1.375187,0,0,1.375187,-213.05555,-26.803198)" />
    <path
       sodipodi:type="arc"
       style="color:#000000;fill:#c8ab37;fill-opacity:1;fill-rule:evenodd;stroke:#000000;stroke-width:0.375;stroke-linecap:butt;stroke-linejoin:miter;stroke-miterlimit:4;stroke-opacity:1;stroke-dasharray:none;stroke-dashoffset:0;marker:none;visibility:visible;display:inline;overflow:visible;enable-background:accumulate"
       id="path3171"
       sodipodi:cx="139.3038"
       sodipodi:cy="274.75223"
       sodipodi:rx="13.120342"
       sodipodi:ry="11.066723"
       d="m 152.42414,274.75223 c 0,6.11198 -5.87417,11.06672 -13.12034,11.06672 -7.24616,0 -13.12034,-4.95474 -13.12034,-11.06672 0,-6.11198 5.87418,-11.06673 13.12034,-11.06673 7.24617,0 13.12034,4.95475 13.12034,11.06673 z"
       transform="matrix(11.001519,0,0,11.001519,-1310.7078,-2739.1842)" />
    <path
       style="opacity:0.12000002;color:#000000;fill:#000000;fill-opacity:1;fill-rule:evenodd;stroke:#000000;stroke-width:2.21406078;stroke-linecap:butt;stroke-linejoin:miter;stroke-miterlimit:4;stroke-opacity:1;stroke-dasharray:none;stroke-dashoffset:0;marker:none;visibility:visible;display:inline;overflow:visible;enable-background:accumulate"
       d="M 256.78605,166.84221 C 469.65204,325.1962 182.33527,390.566 110.3805,360.88837 325.36687,520.84043 475.11379,210.91622 256.78605,166.84221 z"
       id="path4194"
       sodipodi:nodetypes="ccc"
       inkscape:connector-curvature="0" />
    <path
       style="color:#000000;fill:#ffcc00;fill-opacity:1;fill-rule:evenodd;stroke:#000000;stroke-width:4.1255579;stroke-linecap:butt;stroke-linejoin:miter;stroke-miterlimit:4;stroke-opacity:1;stroke-dasharray:none;stroke-dashoffset:0;marker:none;visibility:visible;display:inline;overflow:visible;enable-background:accumulate"
       d="m 99.112016,94.14495 c 3.862864,41.87244 8.913974,82.00328 3.483574,123.87538 9.99777,-17.35983 23.27855,-28.15574 43.1034,-25.86212 1.95692,-39.71799 -23.05635,-71.43101 -46.586974,-98.01326 z"
       id="path3187"
       sodipodi:nodetypes="cccc"
       inkscape:connector-curvature="0" />
    <path
       sodipodi:type="arc"
       style="opacity:0.62999998;color:#000000;fill:#ffffff;fill-opacity:1;fill-rule:evenodd;stroke:none;stroke-width:2.00052547;marker:none;visibility:visible;display:inline;overflow:visible;enable-background:accumulate"
       id="path3219"
       sodipodi:cx="395.14511"
       sodipodi:cy="249.49869"
       sodipodi:rx="64.591026"
       sodipodi:ry="59.525066"
       d="m 459.73614,249.49869 c 0,32.87478 -28.91839,59.52506 -64.59103,59.52506 -35.67264,0 -64.59103,-26.65028 -64.59103,-59.52506 0,-32.87479 28.91839,-59.52507 64.59103,-59.52507 35.67264,0 64.59103,26.65028 64.59103,59.52507 z"
       transform="matrix(1.2134033,0,0,1.0094452,-270.15754,93.357509)" />
    <path
       style="color:#000000;fill:#000000;fill-opacity:1;fill-rule:evenodd;stroke:#000000;stroke-width:2.21406078;stroke-linecap:butt;stroke-linejoin:miter;stroke-miterlimit:4;stroke-opacity:1;stroke-dasharray:none;stroke-dashoffset:0;marker:none;visibility:visible;display:inline;overflow:visible;enable-background:accumulate"
       d="m 179.62499,313.76715 16.01212,17.20678 22.18855,-15.08783 c -12.42624,-9.78733 -25.77477,-8.8182 -38.20067,-2.11895 z"
       id="path3173"
       sodipodi:nodetypes="cccc"
       inkscape:connector-curvature="0" />
    <path
       style="color:#000000;fill:#c8ab37;fill-opacity:1;fill-rule:evenodd;stroke:#000000;stroke-width:4.1255579;stroke-linecap:butt;stroke-linejoin:miter;stroke-miterlimit:4;stroke-opacity:1;stroke-dasharray:none;stroke-dashoffset:0;marker:none;visibility:visible;display:inline;overflow:visible;enable-background:accumulate"
       d="M 183.15568,168.54762 C 162.58533,134.5644 124.28696,112.76813 97.629296,90.960352 124.35398,126.2646 141.62735,161.56892 148.67287,196.87313"
       id="path3185"
       sodipodi:nodetypes="ccc"
       inkscape:connector-curvature="0" />
    <path
       style="color:#000000;fill:#000000;fill-opacity:1;fill-rule:evenodd;stroke:#000000;stroke-width:2.21406078;stroke-linecap:butt;stroke-linejoin:miter;stroke-miterlimit:4;stroke-opacity:1;stroke-dasharray:none;stroke-dashoffset:0;marker:none;visibility:visible;display:inline;overflow:visible;enable-background:accumulate"
       d="m 161.89157,333.88251 c 34.5572,16.62199 70.71086,10.43158 103.44936,9.54434 10.67409,47.15237 -117.29332,144.13276 -102.83425,-9.23629"
       id="path3175"
       sodipodi:nodetypes="ccc"
       inkscape:connector-curvature="0" />
    <path
       style="color:#000000;fill:#d4aa00;fill-opacity:1;fill-rule:evenodd;stroke:#000000;stroke-width:4.1255579;stroke-linecap:butt;stroke-linejoin:miter;stroke-miterlimit:4;stroke-opacity:1;stroke-dasharray:none;stroke-dashoffset:0;marker:none;visibility:visible;display:inline;overflow:visible;enable-background:accumulate"
       d="m 366.71571,109.50757 c -9.59219,40.94171 -21.78909,81.52125 -22.17606,123.74239 -7.51269,-18.57139 -19.17964,-31.09294 -39.13229,-31.5508 14.92155,-38.02574 35.18461,-68.98537 61.30835,-92.19159 z"
       id="path3191"
       sodipodi:nodetypes="cccc"
       inkscape:connector-curvature="0" />
    <path
       style="opacity:0.45;fill:#000000;fill-rule:evenodd;stroke:#000000;stroke-width:1.37519014px;stroke-linecap:butt;stroke-linejoin:miter;stroke-opacity:1"
       d="m 361.25269,119.4391 c -17.17008,23.2174 -46.06581,59.06857 -23.7853,95.94664 -9.48668,-9.17002 -21.05224,-12.78407 -32.77774,-15.97055 17.13037,-27.24615 30.07665,-55.4711 56.56304,-79.97609 z"
       id="path3878"
       sodipodi:nodetypes="cccc"
       inkscape:connector-curvature="0" />
    <path
       style="color:#000000;fill:#c8ab37;fill-opacity:1;fill-rule:evenodd;stroke:#000000;stroke-width:2.21406078;stroke-linecap:butt;stroke-linejoin:miter;stroke-miterlimit:4;stroke-opacity:1;stroke-dasharray:none;stroke-dashoffset:0;marker:none;visibility:visible;display:inline;overflow:visible;enable-background:accumulate"
       d="m 273.76377,169.94554 c 25.05365,-30.82722 67.8823,-46.87913 97.28981,-64.80861 -31.33156,31.28816 -55.19658,63.61442 -67.03588,97.61213"
       id="path3189"
       sodipodi:nodetypes="ccc"
       inkscape:connector-curvature="0" />
    <path
       style="opacity:0.12000002;color:#000000;fill:#000000;fill-opacity:1;fill-rule:evenodd;stroke:#000000;stroke-width:2.21406078;stroke-linecap:butt;stroke-linejoin:miter;stroke-miterlimit:4;stroke-opacity:1;stroke-dasharray:none;stroke-dashoffset:0;marker:none;visibility:visible;display:inline;overflow:visible;enable-background:accumulate"
       d="m 273.76377,169.94554 c 25.05365,-30.82722 67.8823,-46.87913 97.28981,-64.80861 -31.33156,31.28816 -55.19658,63.61442 -67.03588,97.61213"
       id="path5165"
       sodipodi:nodetypes="ccc"
       inkscape:connector-curvature="0" />
    <path
       style="color:#000000;fill:#000000;fill-opacity:1;fill-rule:evenodd;stroke:#000000;stroke-width:2.21406078;stroke-linecap:butt;stroke-linejoin:miter;stroke-miterlimit:4;stroke-opacity:1;stroke-dasharray:none;stroke-dashoffset:0;marker:none;visibility:visible;display:inline;overflow:visible;enable-background:accumulate"
       d="m 224.98637,299.23201 c 11.29513,-48.86922 38.73481,-65.11983 67.73497,-51.93572 10.67435,5.78109 11.56999,17.15011 14.5671,27.3181 -19.92167,-16.79409 -56.02911,-19.75335 -82.30207,24.61762 z"
       id="path3193"
       sodipodi:nodetypes="cccc"
       inkscape:connector-curvature="0" />
    <path
       style="fill:#000000;fill-rule:evenodd;stroke:#000000;stroke-width:2.21406078;stroke-linecap:butt;stroke-linejoin:miter;stroke-miterlimit:4;stroke-opacity:1;stroke-dasharray:none"
       d="m 145.7194,325.09923 c 41.80611,27.06217 91.0139,16.59048 127.46454,14.47101 -12.67894,2.77867 -65.06912,20.77044 -126.23276,-16.31785"
       id="path3195"
       sodipodi:nodetypes="ccc"
       inkscape:connector-curvature="0" />
    <path
       style="fill:#ffffff;fill-rule:evenodd;stroke:#000000;stroke-width:2.21406078;stroke-linecap:butt;stroke-linejoin:miter;stroke-miterlimit:4;stroke-opacity:1;stroke-dasharray:none"
       d="m 160.54693,332.95046 4.23158,21.35557 12.76738,-13.63774 c -4.65982,-2.15811 -11.23947,-3.82205 -16.99896,-7.71783 z"
       id="path3197"
       sodipodi:nodetypes="cccc"
       inkscape:connector-curvature="0" />
    <path
       style="fill:#ffffff;fill-rule:evenodd;stroke:#000000;stroke-width:2.21406078;stroke-linecap:butt;stroke-linejoin:miter;stroke-miterlimit:4;stroke-opacity:1;stroke-dasharray:none"
       d="m 246.39834,343.57268 5.23387,16.626 10.46806,-18.47367 c -5.64431,1.23389 -10.365,2.02657 -15.70193,1.84767 z"
       id="path3199"
       sodipodi:nodetypes="cccc"
       inkscape:connector-curvature="0" />
    <path
       style="fill:#aa0000;fill-rule:evenodd;stroke:#000000;stroke-width:2.21406078;stroke-linecap:butt;stroke-linejoin:miter;stroke-miterlimit:4;stroke-opacity:1;stroke-dasharray:none"
       d="m 165.11605,367.06849 c 16.7547,-16.44161 31.97511,-9.13937 39.92905,-0.902 l -3.6203,9.61948 7.17792,-9.02561 c 17.11166,-8.96552 30.47289,-0.0112 45.18487,8.62112 -17.68032,34.88487 -89.08055,72.36991 -88.67154,-8.31299 z"
       id="path3201"
       sodipodi:nodetypes="cccccc"
       inkscape:connector-curvature="0" />
    <path
       style="fill:#ffffff;fill-rule:evenodd;stroke:#000000;stroke-width:2.21406078;stroke-linecap:butt;stroke-linejoin:miter;stroke-miterlimit:4;stroke-opacity:1;stroke-dasharray:none"
       d="m 182.05016,313.09171 c 8.51671,-5.76513 17.76991,-3.42667 27.09374,-0.30793 -6.50589,2.29376 -15.1322,1.05261 -19.39697,7.08136 l -7.69677,-6.77343 z"
       id="path3203"
       sodipodi:nodetypes="cccc"
       inkscape:connector-curvature="0" />
    <path
       style="fill:#000000;fill-rule:evenodd;stroke:#000000;stroke-width:2.43535781;stroke-linecap:butt;stroke-linejoin:miter;stroke-miterlimit:4;stroke-opacity:1;stroke-dasharray:none"
       d="m 154.06913,310.9415 -118.629564,-26.31285 1.65707,7.10409 116.972494,19.20876 z"
       id="path3205"
       inkscape:connector-curvature="0" />
    <path
       style="fill:#000000;fill-rule:evenodd;stroke:#000000;stroke-width:2.21406078;stroke-linecap:butt;stroke-linejoin:miter;stroke-miterlimit:4;stroke-opacity:1;stroke-dasharray:none"
       d="m 149.51397,318.30724 -91.146234,-6.7989 1.99957,5.10991 89.146664,1.68899 z"
       id="path3207"
       inkscape:connector-curvature="0" />
    <path
       style="fill:#000000;fill-rule:evenodd;stroke:#000000;stroke-width:2.43069077;stroke-linecap:butt;stroke-linejoin:miter;stroke-miterlimit:4;stroke-opacity:1;stroke-dasharray:none"
       d="m 257.32569,322.49488 121.00803,-8.11187 -2.70416,6.75982 -118.30387,1.35205 z"
       id="path3209"
       inkscape:connector-curvature="0" />
    <path
       style="fill:#000000;fill-rule:evenodd;stroke:#000000;stroke-width:2.21406078;stroke-linecap:butt;stroke-linejoin:miter;stroke-miterlimit:4;stroke-opacity:1;stroke-dasharray:none"
       d="m 256.7654,330.26425 91.12933,7.01888 -2.74759,4.75039 -88.38174,-11.76927 z"
       id="path3211"
       inkscape:connector-curvature="0" />
    <path
       style="color:#000000;fill:#000000;fill-opacity:1;fill-rule:evenodd;stroke:#000000;stroke-width:2.21406078;stroke-linecap:butt;stroke-linejoin:miter;stroke-miterlimit:4;stroke-opacity:1;stroke-dasharray:none;stroke-dashoffset:0;marker:none;visibility:visible;display:inline;overflow:visible;enable-background:accumulate"
       d="M 180.71293,293.53466 C 169.4183,244.6645 141.97785,228.41494 112.97796,241.59823 102.30411,247.37956 101.4079,258.74824 98.410496,268.9161 118.33285,252.12201 154.43991,249.16367 180.71293,293.53466 z"
       id="path3215"
       sodipodi:nodetypes="cccc"
       inkscape:connector-curvature="0" />
    <path
       style="fill:#000000;fill-rule:evenodd;stroke:#000000;stroke-width:2.21406078;stroke-linecap:butt;stroke-linejoin:miter;stroke-miterlimit:4;stroke-opacity:1;stroke-dasharray:none"
       d="m 195.28891,332.4887 -1.53949,9.54444 2.77099,0.61608 -1.2315,-10.16052 z"
       id="path4190"
       sodipodi:nodetypes="cccc"
       inkscape:connector-curvature="0" />
    <path
       style="fill:#000000;fill-rule:evenodd;stroke:#000000;stroke-width:2.21406078;stroke-linecap:butt;stroke-linejoin:miter;stroke-miterlimit:4;stroke-opacity:1;stroke-dasharray:none"
       d="m 266.10296,335.25971 c 4.11909,2.59768 8.54078,4.93616 7.08098,12.31543 3.08118,-10.04119 -1.22253,-12.02672 -7.08098,-12.31543 z"
       id="path4192"
       sodipodi:nodetypes="ccc"
       inkscape:connector-curvature="0" />
    <path
       style="opacity:0.19499996;fill:#000000;fill-rule:evenodd;stroke:#000000;stroke-width:1.37519014px;stroke-linecap:butt;stroke-linejoin:miter;stroke-opacity:1"
       d="m 201.83252,376.12827 c 7.12441,22.04529 -0.63698,31.91064 -31.78522,22.64179 25.3753,34.5213 64.63057,4.57359 81.42226,-23.51244 -16.33908,-5.06792 -32.22427,-21.96661 -49.63704,0.87065 z"
       id="path3178"
       sodipodi:nodetypes="cccc"
       inkscape:connector-curvature="0" />
    <path
       style="opacity:0.45;fill:#000000;fill-rule:evenodd;stroke:#000000;stroke-width:1.37519014px;stroke-linecap:butt;stroke-linejoin:miter;stroke-opacity:1"
       d="m 104.96911,103.88444 c 13.23524,25.6651 36.02405,65.67724 8.13026,98.51568 10.83166,-7.53391 22.82591,-9.25113 34.91036,-10.52084 -12.5512,-29.63579 -20.8155,-59.56831 -43.04062,-87.99484 z"
       id="path3876"
       sodipodi:nodetypes="cccc"
       inkscape:connector-curvature="0" />
    <path
       style="fill:#000000;fill-rule:evenodd;stroke:#000000;stroke-width:1.37519014px;stroke-linecap:butt;stroke-linejoin:miter;stroke-opacity:1"
       d="m 62.995506,535.95799 -8.75107,-33.79634 14.88961,32.70088 -6.13854,1.09546 z"
       id="path3880"
       inkscape:connector-curvature="0" />
    <path
       style="fill:#000000;fill-rule:evenodd;stroke:#000000;stroke-width:1.45562255px;stroke-linecap:butt;stroke-linejoin:miter;stroke-opacity:1"
       d="m 40.464486,538.31402 -6.50544,-34.51179 13.47282,34.09387 -6.96738,0.41792 z"
       id="path3882"
       inkscape:transform-center-y="-2.7396822"
       inkscape:transform-center-x="-0.28779249"
       inkscape:connector-curvature="0" />
    <path
       style="fill:#000000;fill-rule:evenodd;stroke:#000000;stroke-width:1.37519014px;stroke-linecap:butt;stroke-linejoin:miter;stroke-opacity:1"
       d="m 385.70051,541.86413 8.75083,-33.79642 -14.88937,32.70092 6.13854,1.0955 z"
       id="path3884"
       inkscape:connector-curvature="0" />
    <path
       style="fill:#000000;fill-rule:evenodd;stroke:#000000;stroke-width:1.45562255px;stroke-linecap:butt;stroke-linejoin:miter;stroke-opacity:1"
       d="m 408.23095,544.21966 6.50561,-34.51112 -13.47326,34.09355 6.96765,0.41757 z"
       id="path3886"
       inkscape:transform-center-y="-2.7397657"
       inkscape:transform-center-x="0.28803454"
       inkscape:connector-curvature="0" />
    <path
       style="fill:#000000;fill-rule:evenodd;stroke:#000000;stroke-width:0.26394665;stroke-linecap:butt;stroke-linejoin:miter;stroke-miterlimit:4;stroke-opacity:1;stroke-dasharray:none"
       d="m 188.5803,306.12999 c 6.2176,-1.87637 12.27971,-5.29706 19.27553,0.61167 -6.425,-2.31401 -12.85001,-1.48854 -19.27553,-0.61167 z"
       id="path3888"
       sodipodi:nodetypes="ccc"
       inkscape:connector-curvature="0" />
    <path
       sodipodi:type="arc"
       style="color:#000000;fill:#000000;fill-opacity:1;fill-rule:evenodd;stroke:#000000;stroke-width:0.30000001;stroke-linecap:butt;stroke-linejoin:miter;stroke-miterlimit:4;stroke-opacity:1;stroke-dasharray:none;stroke-dashoffset:0;marker:none;visibility:visible;display:inline;overflow:visible;enable-background:accumulate"
       id="path3890"
       sodipodi:cx="283.03278"
       sodipodi:cy="248.72951"
       sodipodi:rx="0.98360658"
       sodipodi:ry="1.1065574"
       d="m 284.01638,248.72951 c 0,0.61113 -0.44037,1.10655 -0.9836,1.10655 -0.54324,0 -0.98361,-0.49542 -0.98361,-1.10655 0,-0.61114 0.44037,-1.10656 0.98361,-1.10656 0.54323,0 0.9836,0.49542 0.9836,1.10656 z"
       transform="matrix(1.375187,0,0,1.375187,-228.35915,-24.890528)" />
    <path
       sodipodi:type="arc"
       style="color:#000000;fill:#000000;fill-opacity:1;fill-rule:evenodd;stroke:#000000;stroke-width:0.30000001;stroke-linecap:butt;stroke-linejoin:miter;stroke-miterlimit:4;stroke-opacity:1;stroke-dasharray:none;stroke-dashoffset:0;marker:none;visibility:visible;display:inline;overflow:visible;enable-background:accumulate"
       id="path3892"
       sodipodi:cx="283.03278"
       sodipodi:cy="248.72951"
       sodipodi:rx="0.98360658"
       sodipodi:ry="1.1065574"
       d="m 284.01638,248.72951 c 0,0.61113 -0.44037,1.10655 -0.9836,1.10655 -0.54324,0 -0.98361,-0.49542 -0.98361,-1.10655 0,-0.61114 0.44037,-1.10656 0.98361,-1.10656 0.54323,0 0.9836,0.49542 0.9836,1.10656 z"
       transform="matrix(1.375187,0,0,1.375187,-144.83321,-15.929335)" />
    <path
       sodipodi:type="arc"
       style="color:#000000;fill:#000000;fill-opacity:1;fill-rule:evenodd;stroke:#000000;stroke-width:0.30000001;stroke-linecap:butt;stroke-linejoin:miter;stroke-miterlimit:4;stroke-opacity:1;stroke-dasharray:none;stroke-dashoffset:0;marker:none;visibility:visible;display:inline;overflow:visible;enable-background:accumulate"
       id="path3894"
       sodipodi:cx="283.03278"
       sodipodi:cy="248.72951"
       sodipodi:rx="0.98360658"
       sodipodi:ry="1.1065574"
       d="m 284.01638,248.72951 c 0,0.61113 -0.44037,1.10655 -0.9836,1.10655 -0.54324,0 -0.98361,-0.49542 -0.98361,-1.10655 0,-0.61114 0.44037,-1.10656 0.98361,-1.10656 0.54323,0 0.9836,0.49542 0.9836,1.10656 z"
       transform="matrix(1.375187,0,0,1.375187,-150.58173,-12.885715)" />
    <path
       style="fill:#000000;fill-rule:evenodd;stroke:#000000;stroke-width:0.18077968;stroke-linecap:butt;stroke-linejoin:miter;stroke-miterlimit:4;stroke-opacity:1;stroke-dasharray:none"
       d="m 193.49095,302.29766 c 4.42812,-0.42198 8.96,-1.90194 12.86139,3.0088 -4.0026,-2.41988 -8.42836,-2.73157 -12.86139,-3.0088 z"
       id="path3408"
       sodipodi:nodetypes="ccc"
       inkscape:connector-curvature="0" />
    <path
       style="opacity:0.40594058;fill:#ffffff;fill-rule:evenodd;stroke:none"
       d="m 77.856375,407.4459 c 36.194005,-1.21193 50.262965,18.47277 62.414675,39.9673 -18.81002,-15.06231 -37.97028,-29.81841 -62.414675,-39.9673 z"
       id="path3913"
       sodipodi:nodetypes="ccc"
       inkscape:connector-curvature="0" />
    <path
       style="opacity:0.40594058;fill:#ffffff;fill-rule:evenodd;stroke:none"
       d="m 88.936355,436.53746 c 25.972065,-0.86942 36.066455,13.2556 44.786355,28.67929 -13.49725,-10.8084 -27.24581,-21.39713 -44.786355,-28.67929 z"
       id="path3961"
       sodipodi:nodetypes="ccc"
       inkscape:connector-curvature="0" />
    <path
       style="color:#000000;fill:#c8ab37;fill-opacity:1;fill-rule:evenodd;stroke:#000000;stroke-width:4.1255579;stroke-linecap:butt;stroke-linejoin:miter;stroke-miterlimit:4;stroke-opacity:1;stroke-dasharray:none;stroke-dashoffset:0;marker:none;visibility:visible;display:inline;overflow:visible;enable-background:accumulate"
       d="m 79.297549,462.72146 c 3.717063,25.10582 70.423781,51.51964 85.408391,-0.38657 2.47517,-46.75416 -90.497189,-85.51844 -85.408391,0.38657 z"
       id="path2555"
       sodipodi:nodetypes="ccc"
       inkscape:connector-curvature="0" />
    <path
       style="opacity:0.62999998;color:#000000;fill:#ffffff;fill-opacity:1;fill-rule:evenodd;stroke:none;stroke-width:1.61000001;marker:none;visibility:visible;display:inline;overflow:visible;enable-background:accumulate"
       d="m 80.430443,461.45116 c 2.999926,23.8555 66.352707,49.83094 83.341707,1.41933 4.35899,-39.0403 -75.945,-36.19888 -83.341707,-1.41933 z"
       id="path2557"
       sodipodi:nodetypes="ccc"
       inkscape:connector-curvature="0" />
    <path
       style="fill:#000000;fill-rule:evenodd;stroke:#000000;stroke-width:1.09667718px;stroke-linecap:butt;stroke-linejoin:miter;stroke-opacity:1"
       d="m 146.52844,488.03814 -5.72738,-24.13735 2.13939,24.00151 3.58799,0.13584 z"
       id="path3528"
       inkscape:connector-curvature="0" />
    <path
       style="fill:#000000;fill-rule:evenodd;stroke:#000000;stroke-width:1.09667718px;stroke-linecap:butt;stroke-linejoin:miter;stroke-opacity:1"
       d="m 105.07771,489.34827 11.21347,-22.12855 -13.86536,19.70791 2.65189,2.42064 z"
       id="path3532"
       inkscape:transform-center-x="5.6441718"
       inkscape:connector-curvature="0" />
    <path
       style="color:#000000;fill:#c8ab37;fill-opacity:1;fill-rule:evenodd;stroke:#000000;stroke-width:4.1255579;stroke-linecap:butt;stroke-linejoin:miter;stroke-miterlimit:4;stroke-opacity:1;stroke-dasharray:none;stroke-dashoffset:0;marker:none;visibility:visible;display:inline;overflow:visible;enable-background:accumulate"
       d="m 289.50121,542.63201 c -10.15441,23.25955 -81.44771,31.30581 -82.33391,-22.71278 9.84016,-45.7739 109.71511,-58.87053 82.33391,22.71278 z"
       id="path3543"
       sodipodi:nodetypes="ccc"
       inkscape:connector-curvature="0" />
    <path
       style="opacity:0.62999998;color:#000000;fill:#ffffff;fill-opacity:1;fill-rule:evenodd;stroke:none;stroke-width:1.61000001;marker:none;visibility:visible;display:inline;overflow:visible;enable-background:accumulate"
       d="m 288.74002,541.10961 c -9.1352,22.24033 -77.07666,30.74074 -80.81153,-20.42918 6.00426,-38.82132 82.76937,-15.07428 80.81153,20.42918 z"
       id="path3545"
       sodipodi:nodetypes="ccc"
       inkscape:connector-curvature="0" />
    <path
       style="fill:#000000;fill-rule:evenodd;stroke:#000000;stroke-width:1.09667718px;stroke-linecap:butt;stroke-linejoin:miter;stroke-opacity:1"
       d="m 217.98896,549.48222 11.84143,-21.79898 -8.34282,22.60635 -3.49861,-0.80737 z"
       id="path3547"
       inkscape:connector-curvature="0" />
    <path
       style="fill:#000000;fill-rule:evenodd;stroke:#000000;stroke-width:1.09667718px;stroke-linecap:butt;stroke-linejoin:miter;stroke-opacity:1"
       d="m 257.65396,561.58871 -5.03508,-24.29121 8.2278,22.64848 -3.19272,1.64273 z"
       id="path3551"
       inkscape:transform-center-x="5.6441718"
       inkscape:connector-curvature="0" />
    <path
       style="opacity:0.12000002;color:#000000;fill:#000000;fill-opacity:1;fill-rule:evenodd;stroke:#000000;stroke-width:2.21405411;stroke-linecap:butt;stroke-linejoin:miter;stroke-miterlimit:4;stroke-opacity:1;stroke-dasharray:none;stroke-dashoffset:0;marker:none;visibility:visible;display:inline;overflow:visible;enable-background:accumulate"
       d="m 287.59305,543.88041 c -9.14121,20.24275 -73.32095,27.2454 -74.11872,-19.76691 8.85832,-39.83697 98.76786,-51.23495 74.11872,19.76691 z"
       id="path5658"
       sodipodi:nodetypes="ccc"
       inkscape:connector-curvature="0" />
    <path
       style="opacity:0.12000002;color:#000000;fill:#000000;fill-opacity:1;fill-rule:evenodd;stroke:#000000;stroke-width:2.21405411;stroke-linecap:butt;stroke-linejoin:miter;stroke-miterlimit:4;stroke-opacity:1;stroke-dasharray:none;stroke-dashoffset:0;marker:none;visibility:visible;display:inline;overflow:visible;enable-background:accumulate"
       d="m 84.172232,473.4295 c 9.14121,20.24275 73.320948,27.2454 74.118718,-19.76691 -8.85832,-39.83697 -98.767858,-51.23495 -74.118718,19.76691 z"
       id="path5660"
       sodipodi:nodetypes="ccc"
       inkscape:connector-curvature="0" />
    <path
       style="opacity:0.40594058;fill:#ffffff;fill-rule:evenodd;stroke:none"
       d="m 266.33117,533.15755 c 4.62051,-16.49864 15.50767,-20.0342 26.93765,-22.44701 -9.47888,6.33398 -18.8703,12.87012 -26.93765,22.44701 z"
       id="path4424"
       sodipodi:nodetypes="ccc"
       inkscape:connector-curvature="0" />
    <path
       style="opacity:0.375;color:#000000;fill:#000000;fill-opacity:1;fill-rule:evenodd;stroke:#000000;stroke-width:2.21406078;stroke-linecap:butt;stroke-linejoin:miter;stroke-miterlimit:4;stroke-opacity:1;stroke-dasharray:none;stroke-dashoffset:0;marker:none;visibility:visible;display:inline;overflow:visible;enable-background:accumulate"
       d="m 253.11242,344.54794 c 3.29885,4.16456 0.10798,8.32911 -1.15683,12.49367 l 7.63502,-12.9564 -6.47819,0.46273 z"
       id="path4489"
       sodipodi:nodetypes="cccc"
       inkscape:connector-curvature="0" />
    <path
       style="opacity:0.18999999;color:#000000;fill:#000000;fill-opacity:1;fill-rule:evenodd;stroke:#000000;stroke-width:2.21406078;stroke-linecap:butt;stroke-linejoin:miter;stroke-miterlimit:4;stroke-opacity:1;stroke-dasharray:none;stroke-dashoffset:0;marker:none;visibility:visible;display:inline;overflow:visible;enable-background:accumulate"
       d="m 168.31745,338.53247 c 3.29885,4.16456 -1.28021,10.41139 -2.54502,14.57595 l 8.79184,-11.79958 -6.24682,-2.77637 z"
       id="path5460"
       sodipodi:nodetypes="cccc"
       inkscape:connector-curvature="0" />
  </g>
</svg>
