<?xml version="1.0" encoding="UTF-8" standalone="no"?>
<!-- Created with Inkscape (http://www.inkscape.org/) -->
<svg xmlns:dc="http://purl.org/dc/elements/1.1/" xmlns:cc="http://creativecommons.org/ns#" xmlns:rdf="http://www.w3.org/1999/02/22-rdf-syntax-ns#" xmlns:svg="http://www.w3.org/2000/svg" xmlns="http://www.w3.org/2000/svg" xmlns:xlink="http://www.w3.org/1999/xlink" xmlns:sodipodi="http://sodipodi.sourceforge.net/DTD/sodipodi-0.dtd" xmlns:inkscape="http://www.inkscape.org/namespaces/inkscape" height="259.96103" width="544.39795" id="svg4085" sodipodi:version="0.32" inkscape:version="0.45+0.46pre0+devel" version="1.0" sodipodi:docname="ruler (linijka).svg" inkscape:output_extension="org.inkscape.output.svg.inkscape">
  <defs id="defs4087">
    <inkscape:perspective sodipodi:type="inkscape:persp3d" inkscape:vp_x="-50 : 600 : 1" inkscape:vp_y="0 : 1000 : 0" inkscape:vp_z="700 : 600 : 1" inkscape:persp3d-origin="300 : 400 : 1" id="perspective128"/>
    <linearGradient inkscape:collect="always" id="linearGradient3936">
      <stop style="stop-color:#000000;stop-opacity:1;" offset="0" id="stop3938"/>
      <stop style="stop-color:#000000;stop-opacity:0;" offset="1" id="stop3940"/>
    </linearGradient>
    <linearGradient inkscape:collect="always" xlink:href="#linearGradient3936" id="linearGradient4083" gradientUnits="userSpaceOnUse" gradientTransform="matrix(1,0,0,1.3450246,0,-145.63881)" x1="308.45398" y1="422.89987" x2="341.10791" y2="417.33072"/>
    <linearGradient inkscape:collect="always" xlink:href="#linearGradient3834" id="linearGradient4079" gradientUnits="userSpaceOnUse" x1="315.89062" y1="422.16272" x2="318.2041" y2="420.47055"/>
    <linearGradient inkscape:collect="always" xlink:href="#linearGradient3834" id="linearGradient4077" gradientUnits="userSpaceOnUse" x1="315.89062" y1="422.16272" x2="318.2041" y2="420.47055"/>
    <linearGradient inkscape:collect="always" id="linearGradient3834">
      <stop style="stop-color:#fff3de;stop-opacity:1;" offset="0" id="stop3836"/>
      <stop style="stop-color:#fff3de;stop-opacity:0;" offset="1" id="stop3838"/>
    </linearGradient>
    <linearGradient inkscape:collect="always" xlink:href="#linearGradient3834" id="linearGradient4081" gradientUnits="userSpaceOnUse" x1="315.89062" y1="422.16272" x2="318.2041" y2="420.47055"/>
    <linearGradient id="linearGradient3735">
      <stop style="stop-color:#ffc789;stop-opacity:1;" offset="0" id="stop3737"/>
      <stop style="stop-color:#ffe7cd;stop-opacity:1;" offset="1" id="stop3739"/>
    </linearGradient>
    <linearGradient inkscape:collect="always" xlink:href="#linearGradient3735" id="linearGradient4075" gradientUnits="userSpaceOnUse" gradientTransform="translate(13.938485,-1.2508897)" x1="302.25095" y1="423.34338" x2="379.75198" y2="423.34338"/>
    <linearGradient inkscape:collect="always" id="linearGradient3786">
      <stop style="stop-color:#fff3de;stop-opacity:1;" offset="0" id="stop3788"/>
      <stop style="stop-color:#fff3de;stop-opacity:0;" offset="1" id="stop3790"/>
    </linearGradient>
    <linearGradient inkscape:collect="always" xlink:href="#linearGradient3786" id="linearGradient4073" gradientUnits="userSpaceOnUse" x1="349.07529" y1="406.46149" x2="348.99274" y2="412.18591"/>
    <linearGradient id="linearGradient3444">
      <stop style="stop-color:#ffbd75;stop-opacity:0.58389264;" offset="0" id="stop3446"/>
      <stop style="stop-color:#f9dbba;stop-opacity:1;" offset="1" id="stop3448"/>
    </linearGradient>
    <linearGradient inkscape:collect="always" xlink:href="#linearGradient3444" id="linearGradient4071" gradientUnits="userSpaceOnUse" gradientTransform="translate(-74.465261,91.067047)" x1="356.01794" y1="306.62802" x2="469.72247" y2="326.99695"/>
    <linearGradient id="linearGradient3458">
      <stop style="stop-color:#5f411c;stop-opacity:1;" offset="0" id="stop3460"/>
      <stop style="stop-color:#454545;stop-opacity:1;" offset="1" id="stop3462"/>
    </linearGradient>
    <linearGradient inkscape:collect="always" xlink:href="#linearGradient3458" id="linearGradient4069" gradientUnits="userSpaceOnUse" gradientTransform="translate(-74.529686,91.198322)" x1="391.58401" y1="323.46234" x2="469.93027" y2="323.46234"/>
    <linearGradient id="linearGradient2662">
      <stop style="stop-color:#fbc594;stop-opacity:1;" offset="0" id="stop2664"/>
      <stop style="stop-color:#c9884e;stop-opacity:1;" offset="1" id="stop2666"/>
    </linearGradient>
    <linearGradient inkscape:collect="always" xlink:href="#linearGradient2662" id="linearGradient4067" gradientUnits="userSpaceOnUse" gradientTransform="translate(-74.529686,91.198322)" x1="448.6561" y1="329.3609" x2="368.34616" y2="313.40134"/>
    <filter inkscape:collect="always" id="filter3976" x="-0.050001409" width="1.1000028" y="-0.26246116" height="1.5249223">
      <feGaussianBlur inkscape:collect="always" stdDeviation="1.637157" id="feGaussianBlur3978"/>
    </filter>
    <inkscape:perspective sodipodi:type="inkscape:persp3d" inkscape:vp_x="-50 : 600 : 1" inkscape:vp_y="0 : 1000 : 0" inkscape:vp_z="700 : 600 : 1" inkscape:persp3d-origin="300 : 400 : 1" id="perspective4093"/>
    <linearGradient inkscape:collect="always" xlink:href="#linearGradient3936" id="linearGradient2507" gradientUnits="userSpaceOnUse" gradientTransform="matrix(5.2869163,1.6886764,-2.2713113,7.1110325,-601.65114,-3392.2323)" x1="308.45398" y1="422.89987" x2="341.10791" y2="417.33072"/>
    <linearGradient inkscape:collect="always" xlink:href="#linearGradient3735" id="linearGradient2543" gradientUnits="userSpaceOnUse" gradientTransform="matrix(5.2869163,1.6886764,-1.6886764,5.2869163,-771.78401,-2605.3279)" x1="302.25095" y1="423.34338" x2="379.75198" y2="423.34338"/>
    <linearGradient inkscape:collect="always" xlink:href="#linearGradient3786" id="linearGradient2590" gradientUnits="userSpaceOnUse" x1="349.07529" y1="406.46149" x2="348.99274" y2="412.18591" gradientTransform="matrix(5.2869163,1.6886764,-1.6886764,5.2869163,-847.58796,-2622.2521)"/>
    <linearGradient inkscape:collect="always" xlink:href="#linearGradient3444" id="linearGradient2595" gradientUnits="userSpaceOnUse" gradientTransform="matrix(5.5500554,0,0,5.5500554,-2024.9069,-1730.0349)" x1="356.01794" y1="306.62802" x2="469.72247" y2="326.99695"/>
    <linearGradient inkscape:collect="always" xlink:href="#linearGradient2662" id="linearGradient2598" gradientUnits="userSpaceOnUse" gradientTransform="matrix(5.5500554,0,0,5.5500554,-2025.2645,-1729.3063)" x1="448.6561" y1="329.3609" x2="368.34616" y2="313.40134"/>
    <linearGradient inkscape:collect="always" xlink:href="#linearGradient3458" id="linearGradient2600" gradientUnits="userSpaceOnUse" gradientTransform="matrix(5.5500554,0,0,5.5500554,-2025.2645,-1729.3063)" x1="391.58401" y1="323.46234" x2="469.93027" y2="323.46234"/>
  </defs>
  <sodipodi:namedview id="base" pagecolor="#ffffff" bordercolor="#666666" borderopacity="1.0" inkscape:pageopacity="0.0" inkscape:pageshadow="2" inkscape:cx="375" inkscape:cy="40" inkscape:zoom="1" inkscape:document-units="px" inkscape:current-layer="layer1" showgrid="false" inkscape:window-width="1280" inkscape:window-height="968" inkscape:window-x="0" inkscape:window-y="22"/>
  <g inkscape:groupmode="layer" inkscape:label="Warstwa 1" id="layer1" transform="translate(-57.800933,-45.004231)">
    <g id="g2638">
      <rect ry="0.76011413" transform="matrix(5.1840768,1.6704088,-1.5006385,4.647297,-899.9529,-2352.72)" y="409.6326" x="318.81674" height="13.953773" width="77.746269" id="rect3747" style="fill:#000000;fill-opacity:1;fill-rule:nonzero;stroke:#000000;stroke-width:0.80000019;stroke-linecap:butt;stroke-miterlimit:4;stroke-dasharray:none;stroke-dashoffset:0;stroke-opacity:1;filter:url(#filter3976)"/>
      <rect ry="4.2186747" transform="matrix(0.9517189,0.3069709,-0.3069709,0.9517189,0,0)" y="27.20566" x="149.71359" height="77.444199" width="431.49609" id="rect2619" style="fill:url(#linearGradient2598);fill-opacity:1;fill-rule:nonzero;stroke:url(#linearGradient2600);stroke-width:4.4400444;stroke-linecap:butt;stroke-miterlimit:4;stroke-dasharray:none;stroke-dashoffset:0;stroke-opacity:1"/>
      <rect ry="4.2186747" transform="matrix(0.9517189,0.3069709,-0.3069709,0.9517189,0,0)" y="29.131445" x="151.96204" height="72.860214" width="427.59854" id="rect2670" style="fill:none;fill-opacity:1;fill-rule:nonzero;stroke:url(#linearGradient2595);stroke-width:2.77502775;stroke-linecap:butt;stroke-miterlimit:4;stroke-dasharray:none;stroke-dashoffset:0;stroke-opacity:1"/>
      <path sodipodi:nodetypes="cc" id="path3456" d="M 143.5027,80.76407 L 537.74654,208.17127" style="fill:none;fill-opacity:1;fill-rule:nonzero;stroke:#573006;stroke-width:11.10011005;stroke-linecap:butt;stroke-miterlimit:4;stroke-dasharray:2.77502757, 2.77502757;stroke-dashoffset:0;stroke-opacity:1"/>
      <path sodipodi:nodetypes="cc" id="path3475" d="M 146.36833,76.401278 L 140.05342,96.111657" style="fill:none;fill-opacity:1;fill-rule:nonzero;stroke:#573006;stroke-width:2.77502751;stroke-linecap:butt;stroke-miterlimit:0;stroke-dasharray:none;stroke-dashoffset:0;stroke-opacity:1"/>
      <path id="rect3781" d="M 139.37854,74.773053 C 137.16838,74.060239 134.85121,75.375402 134.15072,77.546791 L 130.081,90.288312 C 140.66643,95.527316 138.64965,95.165077 143.00184,91.749262 C 148.44268,87.478975 158.66319,84.327212 161.49189,88.23487 C 164.32073,92.142455 164.34425,95.123998 172.03341,96.578604 C 179.72254,98.033141 183.26304,96.545489 188.64006,97.261639 C 194.0171,97.977737 202.99888,100.411 209.67224,105.0459 C 216.34561,109.68075 216.06319,110.17387 221.78462,113.00264 C 227.50604,115.83146 224.1886,115.27256 232.94779,116.56823 C 241.70696,117.86395 257.56346,119.32389 265.54282,119.86977 C 273.52231,120.4158 281.51467,122.50047 288.04289,127.5896 C 294.57105,132.67889 290.87718,126.50982 301.44939,134.89336 C 312.0214,143.27701 306.23578,140.88068 317.13493,141.8585 C 328.03403,142.83648 325.13383,138.92101 334.43664,144.89649 C 343.73947,150.87191 342.09908,156.35859 359.76254,158.49567 C 377.426,160.63275 372.79197,154.17591 382.87457,160.9011 C 392.9572,167.62637 390.94142,172.47735 401.40516,174.81818 C 411.86894,177.15907 410.10387,173.08804 420.56764,175.42893 C 431.03138,177.76976 430.74731,177.0957 442.10884,178.22126 C 453.47038,179.34677 449.67534,175.14561 459.90309,181.41651 C 470.13073,187.68744 466.63769,185.62037 470.36421,188.31266 C 474.09077,191.00502 469.08492,193.97725 477.93502,191.79721 C 486.78513,189.61729 481.37163,184.34842 490.35717,189.72184 C 499.34272,195.09521 506.87764,202.01053 512.39973,202.27231 C 517.9219,202.53422 515.63727,195.34314 523.14456,203.74915 C 530.65193,212.15507 528.87249,213.01123 534.10442,214.18163 C 536.72033,214.76676 539.17331,213.31733 541.40523,211.71456 L 542.22949,209.13396 C 542.92994,206.96268 541.62339,204.50382 539.41328,203.79103 L 139.37854,74.773053 z" style="opacity:0.43902438;fill:url(#linearGradient2590);fill-opacity:1;fill-rule:nonzero;stroke:none;stroke-width:0.80000031;stroke-linecap:butt;stroke-miterlimit:4;stroke-dasharray:none;stroke-dashoffset:0;stroke-opacity:1"/>
      <path sodipodi:nodetypes="cc" id="path3479" d="M 188.7287,89.643762 L 182.41381,109.35409" style="fill:none;fill-opacity:1;fill-rule:nonzero;stroke:#573006;stroke-width:2.77502751;stroke-linecap:butt;stroke-miterlimit:0;stroke-dasharray:none;stroke-dashoffset:0;stroke-opacity:1"/>
      <path sodipodi:nodetypes="cc" id="path3483" d="M 231.03414,103.15873 L 224.71925,122.86906" style="fill:none;fill-opacity:1;fill-rule:nonzero;stroke:#573006;stroke-width:2.77502751;stroke-linecap:butt;stroke-miterlimit:0;stroke-dasharray:none;stroke-dashoffset:0;stroke-opacity:1"/>
      <path sodipodi:nodetypes="cc" id="path3487" d="M 273.18264,116.93907 L 266.86767,136.64943" style="fill:none;fill-opacity:1;fill-rule:nonzero;stroke:#573006;stroke-width:2.77502751;stroke-linecap:butt;stroke-miterlimit:0;stroke-dasharray:none;stroke-dashoffset:0;stroke-opacity:1"/>
      <path sodipodi:nodetypes="cc" id="path3491" d="M 315.4979,130.31659 L 309.183,150.02691" style="fill:none;fill-opacity:1;fill-rule:nonzero;stroke:#573006;stroke-width:2.77502751;stroke-linecap:butt;stroke-miterlimit:0;stroke-dasharray:none;stroke-dashoffset:0;stroke-opacity:1"/>
      <path sodipodi:nodetypes="cc" id="path3495" d="M 357.67889,144.32899 L 351.36394,164.0393" style="fill:none;fill-opacity:1;fill-rule:nonzero;stroke:#573006;stroke-width:2.77502751;stroke-linecap:butt;stroke-miterlimit:0;stroke-dasharray:none;stroke-dashoffset:0;stroke-opacity:1"/>
      <path sodipodi:nodetypes="cc" id="path3499" d="M 399.98867,157.99765 L 393.6737,177.70801" style="fill:none;fill-opacity:1;fill-rule:nonzero;stroke:#573006;stroke-width:2.77502751;stroke-linecap:butt;stroke-miterlimit:0;stroke-dasharray:none;stroke-dashoffset:0;stroke-opacity:1"/>
      <path sodipodi:nodetypes="cc" id="path3503" d="M 442.15096,171.7472 L 435.83604,191.45758" style="fill:none;fill-opacity:1;fill-rule:nonzero;stroke:#573006;stroke-width:2.77502751;stroke-linecap:butt;stroke-miterlimit:0;stroke-dasharray:none;stroke-dashoffset:0;stroke-opacity:1"/>
      <path sodipodi:nodetypes="cc" id="path3507" d="M 484.47099,185.23053 L 478.15608,204.94091" style="fill:none;fill-opacity:1;fill-rule:nonzero;stroke:#573006;stroke-width:2.77502751;stroke-linecap:butt;stroke-miterlimit:0;stroke-dasharray:none;stroke-dashoffset:0;stroke-opacity:1"/>
      <path sodipodi:nodetypes="cc" id="path3511" d="M 526.78119,198.8519 L 520.46628,218.56227" style="fill:none;fill-opacity:1;fill-rule:nonzero;stroke:#573006;stroke-width:2.77502751;stroke-linecap:butt;stroke-miterlimit:0;stroke-dasharray:none;stroke-dashoffset:0;stroke-opacity:1"/>
      <path id="text3513" d="M 159.963,48.125034 L 159.963,49.749467 C 159.96299,50.712097 159.68503,51.633812 159.12912,52.514614 C 158.5732,53.395418 157.77783,53.835819 156.74301,53.835819 C 156.14617,53.835819 155.642,53.704661 155.23048,53.442346 C 154.81895,53.18003 154.42909,52.69631 154.06089,51.991185 C 153.69268,51.286063 153.50858,50.538824 153.50858,49.749467 L 153.50858,48.125034 C 153.50858,47.167226 153.78533,46.246715 154.33885,45.363497 C 154.89235,44.480296 155.68652,44.038691 156.72135,44.038681 C 157.31336,44.038691 157.81513,44.168645 158.22666,44.428545 C 158.63817,44.688464 159.03044,45.17098 159.40347,45.876096 C 159.77648,46.581227 159.96299,47.330873 159.963,48.125034 L 159.963,48.125034 z M 158.47574,48.125034 C 158.47573,47.321246 158.25192,46.618529 157.8043,46.01688 C 157.5492,45.684782 157.19062,45.518729 156.72857,45.518721 C 156.28094,45.518729 155.91514,45.701628 155.63117,46.067418 C 155.2028,46.620936 154.98862,47.306807 154.98862,48.125034 L 154.98862,49.749467 C 154.98862,50.558077 155.21483,51.260794 155.66727,51.857621 C 155.91755,52.189728 156.27613,52.355781 156.74301,52.35578 C 157.18581,52.355781 157.5492,52.172882 157.83318,51.807083 C 158.26155,51.253574 158.47573,50.567703 158.47574,49.749467 L 158.47574,48.125034 z" style="font-size:29.57190704px;font-style:normal;font-weight:bold;fill:#000000;fill-opacity:1;stroke:none;stroke-width:1px;stroke-linecap:butt;stroke-linejoin:miter;stroke-opacity:1;font-family:Futura XBlk BT" transform="matrix(0.9525881,0.304263,-0.304263,0.9525881,0,0)"/>
      <path id="text3525" d="M 199.64367,52.247588 L 202.88532,52.247588 C 203.0634,52.103195 203.23186,52.030998 203.3907,52.030996 C 203.61691,52.030998 203.7962,52.105602 203.92857,52.254807 C 204.06092,52.404016 204.1271,52.659112 204.12711,53.020096 L 204.12711,53.727627 L 197.3839,53.727627 L 197.3839,52.160951 C 200.05038,49.961352 201.66037,48.546291 202.21389,47.915765 C 202.49304,47.593291 202.63262,47.287657 202.63263,46.998863 C 202.63262,46.637885 202.47499,46.319015 202.15974,46.042252 C 201.84447,45.765505 201.42453,45.627127 200.8999,45.627119 C 200.37045,45.627127 199.93005,45.781147 199.57869,46.08918 C 199.39579,46.252834 199.24899,46.495897 199.13829,46.81837 C 199.07091,47.020529 198.97825,47.164923 198.86033,47.251552 C 198.74241,47.338195 198.59681,47.381513 198.42354,47.381507 C 198.22139,47.381513 198.04691,47.309316 197.90011,47.164916 C 197.75331,47.020529 197.67991,46.852069 197.67991,46.659537 C 197.67991,46.370756 197.81348,46.009771 198.08061,45.576581 C 198.34773,45.143407 198.7376,44.796862 199.2502,44.536944 C 199.76279,44.277044 200.31991,44.147089 200.92156,44.14708 C 201.8553,44.147089 202.62059,44.429861 203.21743,44.995395 C 203.81425,45.560947 204.11266,46.245615 204.11267,47.049401 C 204.11266,47.458524 204.02723,47.837558 203.85637,48.186504 C 203.6855,48.535462 203.27518,49.017978 202.62541,49.634055 C 202.11521,50.120185 201.1213,50.991362 199.64367,52.247588 L 199.64367,52.247588 z" style="font-size:29.57190704px;font-style:normal;font-weight:bold;fill:#000000;fill-opacity:1;stroke:none;stroke-width:1px;stroke-linecap:butt;stroke-linejoin:miter;stroke-opacity:1;font-family:Futura XBlk BT" transform="matrix(0.9525881,0.304263,-0.304263,0.9525881,0,0)"/>
      <path id="text3557" d="M 247.8452,44.26609 L 247.8452,50.056293 C 248.15804,50.056296 248.38907,50.124883 248.53829,50.262054 C 248.68749,50.399232 248.76209,50.576114 248.7621,50.792702 C 248.76209,51.009296 248.68628,51.187382 248.53468,51.326961 C 248.38306,51.466544 248.15323,51.536334 247.8452,51.536332 L 247.8452,52.128348 C 248.15804,52.128349 248.38907,52.19814 248.53829,52.337719 C 248.68749,52.477301 248.76209,52.655387 248.7621,52.871977 C 248.76209,53.088569 248.68628,53.265451 248.53468,53.402625 C 248.38306,53.5398 248.12916,53.608387 247.773,53.608387 L 245.78758,53.608387 C 245.4314,53.608387 245.17751,53.5398 245.0259,53.402625 C 244.87428,53.265451 244.79848,53.086162 244.79848,52.864757 C 244.79848,52.648167 244.87428,52.471285 245.0259,52.334109 C 245.17751,52.196936 245.4314,52.128349 245.78758,52.128348 L 246.36516,52.128348 L 246.36516,51.536332 L 242.34378,51.536332 L 242.34378,50.301763 L 245.88866,44.26609 L 247.8452,44.26609 z M 246.36516,50.056293 L 246.36516,46.417562 L 244.2209,50.056293 L 246.36516,50.056293 z" style="font-size:29.57190704px;font-style:normal;font-weight:bold;fill:#000000;fill-opacity:1;stroke:none;stroke-width:1px;stroke-linecap:butt;stroke-linejoin:miter;stroke-opacity:1;font-family:Futura XBlk BT" transform="matrix(0.9525881,0.304263,-0.304263,0.9525881,0,0)"/>
      <path id="text3569" d="M 287.31777,48.565436 C 287.67394,48.267027 288.01327,48.049232 288.33575,47.912052 C 288.65823,47.774884 289.00236,47.706297 289.36817,47.706291 C 290.14308,47.706297 290.82173,48.014337 291.40412,48.630413 C 291.98651,49.246499 292.2777,50.019006 292.27771,50.947938 C 292.2777,51.809491 292.00696,52.506192 291.46549,53.038042 C 290.92401,53.569894 290.1888,53.835819 289.25987,53.835819 C 288.48495,53.835819 287.84721,53.655327 287.34665,53.294342 C 286.84608,52.933357 286.46825,52.377441 286.21316,51.62659 C 285.95806,50.875744 285.83051,50.038259 285.83051,49.114133 C 285.83051,48.007118 286.0832,47.086606 286.58858,46.352596 C 287.09396,45.618601 287.68838,45.049448 288.37185,44.645136 C 289.05531,44.240842 289.77728,44.038691 290.53776,44.038681 C 291.1394,44.038691 291.60627,44.156613 291.93838,44.392447 C 292.15497,44.551289 292.26326,44.753441 292.26327,44.998902 C 292.26326,45.215501 292.19106,45.397197 292.04668,45.54399 C 291.90228,45.690798 291.729,45.764198 291.52686,45.764191 C 291.41134,45.764198 291.24528,45.706441 291.0287,45.590918 C 290.89874,45.523542 290.7736,45.48985 290.65328,45.489842 C 290.18158,45.48985 289.69305,45.623414 289.18768,45.890535 C 288.68229,46.157672 288.2443,46.567991 287.87369,47.121495 C 287.61859,47.506552 287.43328,47.987865 287.31777,48.565436 L 287.31777,48.565436 z M 287.53436,50.854082 C 287.68838,51.43166 287.89655,51.826337 288.15887,52.038113 C 288.42118,52.249893 288.7954,52.355781 289.28153,52.35578 C 289.76765,52.355781 290.14187,52.228233 290.4042,51.973136 C 290.66651,51.718042 290.79766,51.371496 290.79767,50.933499 C 290.79766,50.432936 290.64725,50.0166 290.34644,49.68449 C 290.04561,49.352388 289.70749,49.186335 289.33207,49.18633 C 289.03365,49.186335 288.71478,49.333135 288.37546,49.626732 C 288.03613,49.920337 287.75576,50.329453 287.53436,50.854082 L 287.53436,50.854082 z" style="font-size:29.57190704px;font-style:normal;font-weight:bold;fill:#000000;fill-opacity:1;stroke:none;stroke-width:1px;stroke-linecap:butt;stroke-linejoin:miter;stroke-opacity:1;font-family:Futura XBlk BT" transform="matrix(0.9525881,0.304263,-0.304263,0.9525881,0,0)"/>
      <path id="text3573" d="M 335.93822,48.890322 C 336.31845,49.183928 336.60363,49.517237 336.79376,49.890251 C 336.98387,50.263273 337.07893,50.673592 337.07893,51.121211 C 337.07893,51.616966 336.95739,52.07301 336.71434,52.489345 C 336.47127,52.905682 336.08983,53.234178 335.57002,53.474834 C 335.05019,53.715491 334.47262,53.835819 333.83729,53.835819 C 333.20195,53.835819 332.62919,53.715491 332.119,53.474834 C 331.6088,53.234178 331.23217,52.904478 330.98911,52.485735 C 330.74605,52.066994 330.62452,51.612153 330.62452,51.121211 C 330.62452,50.673592 330.71958,50.263273 330.9097,49.890251 C 331.09981,49.517237 331.38499,49.183928 331.76523,48.890322 C 331.43312,48.582287 331.18284,48.254994 331.01438,47.908443 C 330.84592,47.561903 330.76169,47.196105 330.76169,46.811048 C 330.76169,46.055393 331.05048,45.404417 331.62806,44.858118 C 332.20563,44.311836 332.94685,44.038691 333.85173,44.038681 C 334.75659,44.038691 335.49781,44.311836 336.07539,44.858118 C 336.65296,45.404417 336.94175,46.055393 336.94176,46.811048 C 336.94175,47.200918 336.85873,47.569123 336.69268,47.915662 C 336.52662,48.262213 336.27513,48.5871 335.93822,48.890322 L 335.93822,48.890322 z M 335.42562,46.839926 C 335.42562,46.474135 335.28242,46.162485 334.99605,45.904975 C 334.70966,45.64748 334.32341,45.518729 333.83729,45.518721 C 333.34634,45.518729 332.95768,45.64748 332.6713,45.904975 C 332.38492,46.162485 332.24173,46.474135 332.24173,46.839926 C 332.24173,47.210544 332.38492,47.524601 332.6713,47.782098 C 332.95768,48.039606 333.34634,48.168357 333.83729,48.168352 C 334.32341,48.168357 334.70966,48.039606 334.99605,47.782098 C 335.28242,47.524601 335.42562,47.210544 335.42562,46.839926 L 335.42562,46.839926 z M 335.59889,51.193408 C 335.59889,50.803547 335.43163,50.450985 335.09712,50.135721 C 334.76261,49.820465 334.34747,49.662835 333.85173,49.662831 C 333.35597,49.662835 332.94084,49.820465 332.60633,50.135721 C 332.27181,50.450985 332.10455,50.80836 332.10456,51.207847 C 332.10455,51.51589 332.24895,51.784222 332.53774,52.012844 C 332.82652,52.24147 333.26452,52.355781 333.85173,52.35578 C 334.44374,52.355781 334.88293,52.24147 335.16932,52.012844 C 335.4557,51.784222 335.59889,51.511077 335.59889,51.193408 L 335.59889,51.193408 z" style="font-size:29.57190704px;font-style:normal;font-weight:bold;fill:#000000;fill-opacity:1;stroke:none;stroke-width:1px;stroke-linecap:butt;stroke-linejoin:miter;stroke-opacity:1;font-family:Futura XBlk BT" transform="matrix(0.9525881,0.304263,-0.304263,0.9525881,0,0)"/>
      <path id="text3585" d="M 371.92491,44.146897 L 371.92491,52.247404 L 373.41939,52.247404 C 373.77556,52.247406 374.02945,52.315993 374.18107,52.453166 C 374.33268,52.590341 374.40849,52.769631 374.40849,52.991034 C 374.40849,53.207626 374.33268,53.384508 374.18107,53.521682 C 374.02945,53.658857 373.77556,53.727444 373.41939,53.727444 L 368.9504,53.727444 C 368.59422,53.727444 368.34033,53.658857 368.18872,53.521682 C 368.0371,53.384508 367.9613,53.205219 367.9613,52.983814 C 367.9613,52.767224 368.0371,52.590341 368.18872,52.453166 C 368.34033,52.315993 368.59422,52.247406 368.9504,52.247404 L 370.44488,52.247404 L 370.44488,46.074558 L 369.12367,46.421103 C 368.91189,46.478868 368.75306,46.507747 368.64717,46.50774 C 368.45946,46.507747 368.29701,46.433144 368.15984,46.283929 C 368.02266,46.134729 367.95408,45.95183 367.95408,45.735232 C 367.95408,45.537901 368.00461,45.382678 368.10569,45.269561 C 368.20677,45.15646 368.41854,45.056588 368.74103,44.969943 L 371.92491,44.146897 z" style="font-size:29.57190704px;font-style:normal;font-weight:bold;fill:#000000;fill-opacity:1;stroke:none;stroke-width:1px;stroke-linecap:butt;stroke-linejoin:miter;stroke-opacity:1;font-family:Futura XBlk BT" transform="matrix(0.9525881,0.304263,-0.304263,0.9525881,0,0)"/>
      <path id="text3589" d="M 381.56683,48.125018 L 381.56683,49.749452 C 381.56682,50.712082 381.28887,51.633797 380.73296,52.514598 C 380.17703,53.395403 379.38166,53.835804 378.34684,53.835804 C 377.75001,53.835804 377.24584,53.704646 376.83432,53.44233 C 376.42279,53.180015 376.03293,52.696295 375.66472,51.99117 C 375.29652,51.286048 375.11241,50.538809 375.11242,49.749452 L 375.11242,48.125018 C 375.11241,47.167211 375.38917,46.2467 375.94268,45.363482 C 376.49619,44.48028 377.29036,44.038676 378.32518,44.038666 C 378.91719,44.038676 379.41896,44.16863 379.83049,44.42853 C 380.24201,44.688448 380.63428,45.170965 381.0073,45.876081 C 381.38031,46.581212 381.56682,47.330857 381.56683,48.125018 L 381.56683,48.125018 z M 380.07957,48.125018 C 380.07957,47.321231 379.85576,46.618514 379.40814,46.016865 C 379.15304,45.684766 378.79446,45.518713 378.3324,45.518705 C 377.88478,45.518713 377.51898,45.701612 377.23501,46.067403 C 376.80664,46.62092 376.59245,47.306792 376.59246,48.125018 L 376.59246,49.749452 C 376.59245,50.558062 376.81867,51.260779 377.27111,51.857605 C 377.52139,52.189713 377.87997,52.355766 378.34684,52.355765 C 378.78965,52.355766 379.15304,52.172867 379.43702,51.807067 C 379.86538,51.253559 380.07957,50.567688 380.07957,49.749452 L 380.07957,48.125018 z" style="font-size:29.57190704px;font-style:normal;font-weight:bold;fill:#000000;fill-opacity:1;stroke:none;stroke-width:1px;stroke-linecap:butt;stroke-linejoin:miter;stroke-opacity:1;font-family:Futura XBlk BT" transform="matrix(0.9525881,0.304263,-0.304263,0.9525881,0,0)"/>
      <path id="text3597" d="M 415.78585,44.146916 L 415.78585,52.247423 L 417.28032,52.247423 C 417.63649,52.247425 417.89038,52.316012 418.042,52.453185 C 418.19361,52.590361 418.26942,52.76965 418.26942,52.991053 C 418.26942,53.207645 418.19361,53.384527 418.042,53.521701 C 417.89038,53.658876 417.63649,53.727463 417.28032,53.727463 L 412.81133,53.727463 C 412.45515,53.727463 412.20126,53.658876 412.04965,53.521701 C 411.89803,53.384527 411.82223,53.205238 411.82223,52.983833 C 411.82223,52.767243 411.89803,52.590361 412.04965,52.453185 C 412.20126,52.316012 412.45515,52.247425 412.81133,52.247423 L 414.30581,52.247423 L 414.30581,46.074577 L 412.9846,46.421122 C 412.77282,46.478887 412.61399,46.507766 412.5081,46.507759 C 412.32039,46.507766 412.15794,46.433163 412.02077,46.283948 C 411.8836,46.134748 411.81501,45.951849 411.81501,45.735251 C 411.81501,45.53792 411.86555,45.382697 411.96662,45.26958 C 412.0677,45.15648 412.27948,45.056607 412.60196,44.969962 L 415.78585,44.146916 z" style="font-size:29.57190704px;font-style:normal;font-weight:bold;fill:#000000;fill-opacity:1;stroke:none;stroke-width:1px;stroke-linecap:butt;stroke-linejoin:miter;stroke-opacity:1;font-family:Futura XBlk BT" transform="matrix(0.9525881,0.304263,-0.304263,0.9525881,0,0)"/>
      <path id="text3629" d="M 421.78031,52.247423 L 425.02196,52.247423 C 425.20004,52.103031 425.3685,52.030834 425.52734,52.030832 C 425.75355,52.030834 425.93284,52.105438 426.06521,52.254643 C 426.19756,52.403852 426.26374,52.658948 426.26375,53.019932 L 426.26375,53.727463 L 419.52055,53.727463 L 419.52055,52.160787 C 422.18702,49.961188 423.79701,48.546127 424.35053,47.915601 C 424.62968,47.593127 424.76927,47.287493 424.76927,46.998699 C 424.76927,46.637721 424.61164,46.318851 424.29638,46.042088 C 423.98112,45.765341 423.56117,45.626963 423.03654,45.626955 C 422.50709,45.626963 422.06669,45.780983 421.71534,46.089016 C 421.53243,46.25267 421.38563,46.495733 421.27493,46.818206 C 421.20755,47.020365 421.1149,47.164759 420.99698,47.251388 C 420.87905,47.338031 420.73346,47.381349 420.56018,47.381343 C 420.35803,47.381349 420.18355,47.309152 420.03676,47.164752 C 419.88995,47.020365 419.81655,46.851905 419.81655,46.659373 C 419.81655,46.370592 419.95012,46.009607 420.21725,45.576417 C 420.48438,45.143243 420.87424,44.796698 421.38684,44.53678 C 421.89944,44.27688 422.45656,44.146925 423.0582,44.146916 C 423.99194,44.146925 424.75723,44.429697 425.35407,44.995231 C 425.95089,45.560783 426.2493,46.24545 426.24931,47.049237 C 426.2493,47.45836 426.16387,47.837394 425.99301,48.18634 C 425.82214,48.535298 425.41182,49.017814 424.76205,49.633891 C 424.25185,50.120021 423.25794,50.991198 421.78031,52.247423 L 421.78031,52.247423 z" style="font-size:29.57190704px;font-style:normal;font-weight:bold;fill:#000000;fill-opacity:1;stroke:none;stroke-width:1px;stroke-linecap:butt;stroke-linejoin:miter;stroke-opacity:1;font-family:Futura XBlk BT" transform="matrix(0.9525881,0.304263,-0.304263,0.9525881,0,0)"/>
      <path id="text3605" d="M 460.6501,44.146881 L 460.6501,52.247389 L 462.14458,52.247389 C 462.50075,52.247391 462.75464,52.315978 462.90626,52.453151 C 463.05787,52.590326 463.13367,52.769615 463.13368,52.991019 C 463.13367,53.20761 463.05787,53.384493 462.90626,53.521667 C 462.75464,53.658841 462.50075,53.727428 462.14458,53.727428 L 457.67559,53.727428 C 457.31941,53.727428 457.06552,53.658841 456.91391,53.521667 C 456.76229,53.384493 456.68649,53.205204 456.68649,52.983799 C 456.68649,52.767209 456.76229,52.590326 456.91391,52.453151 C 457.06552,52.315978 457.31941,52.247391 457.67559,52.247389 L 459.17006,52.247389 L 459.17006,46.074542 L 457.84886,46.421088 C 457.63708,46.478853 457.47825,46.507732 457.37236,46.507725 C 457.18464,46.507732 457.0222,46.433128 456.88503,46.283914 C 456.74785,46.134714 456.67927,45.951815 456.67927,45.735216 C 456.67927,45.537886 456.7298,45.382662 456.83088,45.269545 C 456.93196,45.156445 457.14373,45.056573 457.46621,44.969928 L 460.6501,44.146881 z" style="font-size:29.57190704px;font-style:normal;font-weight:bold;fill:#000000;fill-opacity:1;stroke:none;stroke-width:1px;stroke-linecap:butt;stroke-linejoin:miter;stroke-opacity:1;font-family:Futura XBlk BT" transform="matrix(0.9525881,0.304263,-0.304263,0.9525881,0,0)"/>
      <path id="text3637" d="M 469.55894,44.266063 L 469.55894,50.056266 C 469.87179,50.05627 470.10282,50.124857 470.25203,50.262028 C 470.40123,50.399205 470.47584,50.576088 470.47584,50.792676 C 470.47584,51.009269 470.40003,51.187355 470.24842,51.326934 C 470.0968,51.466517 469.86697,51.536307 469.55894,51.536305 L 469.55894,52.128321 C 469.87179,52.128322 470.10282,52.198113 470.25203,52.337692 C 470.40123,52.477274 470.47584,52.65536 470.47584,52.87195 C 470.47584,53.088542 470.40003,53.265425 470.24842,53.402599 C 470.0968,53.539773 469.84291,53.60836 469.48674,53.60836 L 467.50132,53.60836 C 467.14515,53.60836 466.89126,53.539773 466.73965,53.402599 C 466.58803,53.265425 466.51222,53.086136 466.51223,52.864731 C 466.51222,52.648141 466.58803,52.471258 466.73965,52.334083 C 466.89126,52.19691 467.14515,52.128322 467.50132,52.128321 L 468.0789,52.128321 L 468.0789,51.536305 L 464.05753,51.536305 L 464.05753,50.301736 L 467.6024,44.266063 L 469.55894,44.266063 z M 468.0789,50.056266 L 468.0789,46.417535 L 465.93465,50.056266 L 468.0789,50.056266 z" style="font-size:29.57190704px;font-style:normal;font-weight:bold;fill:#000000;fill-opacity:1;stroke:none;stroke-width:1px;stroke-linecap:butt;stroke-linejoin:miter;stroke-opacity:1;font-family:Futura XBlk BT" transform="matrix(0.9525881,0.304263,-0.304263,0.9525881,0,0)"/>
      <path id="text3613" d="M 504.51015,44.146981 L 504.51015,52.247488 L 506.00463,52.247488 C 506.36079,52.24749 506.61469,52.316077 506.76631,52.45325 C 506.91791,52.590425 506.99372,52.769715 506.99373,52.991118 C 506.99372,53.207709 506.91791,53.384592 506.76631,53.521766 C 506.61469,53.658941 506.36079,53.727528 506.00463,53.727528 L 501.53563,53.727528 C 501.17946,53.727528 500.92557,53.658941 500.77395,53.521766 C 500.62234,53.384592 500.54653,53.205303 500.54653,52.983898 C 500.54653,52.767308 500.62234,52.590425 500.77395,52.45325 C 500.92557,52.316077 501.17946,52.24749 501.53563,52.247488 L 503.03011,52.247488 L 503.03011,46.074642 L 501.70891,46.421187 C 501.49713,46.478952 501.33829,46.507831 501.2324,46.507824 C 501.04469,46.507831 500.88225,46.433227 500.74507,46.284013 C 500.6079,46.134813 500.53931,45.951914 500.53931,45.735315 C 500.53931,45.537985 500.58985,45.382762 500.69093,45.269645 C 500.792,45.156544 501.00378,45.056672 501.32626,44.970027 L 504.51015,44.146981 z" style="font-size:29.57190704px;font-style:normal;font-weight:bold;fill:#000000;fill-opacity:1;stroke:none;stroke-width:1px;stroke-linecap:butt;stroke-linejoin:miter;stroke-opacity:1;font-family:Futura XBlk BT" transform="matrix(0.9525881,0.304263,-0.304263,0.9525881,0,0)"/>
      <path id="text3645" d="M 509.17693,48.565333 C 509.5331,48.266924 509.87243,48.049129 510.19491,47.911949 C 510.51739,47.774781 510.86153,47.706194 511.22733,47.706188 C 512.00224,47.706194 512.68089,48.014234 513.26329,48.63031 C 513.84567,49.246396 514.13686,50.018903 514.13687,50.947835 C 514.13686,51.809388 513.86612,52.506089 513.32465,53.037939 C 512.78317,53.569791 512.04796,53.835716 511.11903,53.835716 C 510.34411,53.835716 509.70637,53.655224 509.20581,53.294239 C 508.70524,52.933254 508.32741,52.377338 508.07232,51.626487 C 507.81722,50.875641 507.68967,50.038156 507.68967,49.11403 C 507.68967,48.007015 507.94236,47.086503 508.44774,46.352493 C 508.95312,45.618498 509.54754,45.049345 510.23101,44.645033 C 510.91447,44.240739 511.63644,44.038588 512.39692,44.038578 C 512.99856,44.038588 513.46543,44.15651 513.79754,44.392344 C 514.01413,44.551186 514.12242,44.753338 514.12243,44.998799 C 514.12242,45.215398 514.05023,45.397094 513.90584,45.543887 C 513.76144,45.690695 513.58817,45.764095 513.38602,45.764088 C 513.2705,45.764095 513.10445,45.706338 512.88786,45.590815 C 512.7579,45.523439 512.63276,45.489747 512.51244,45.489739 C 512.04074,45.489747 511.55221,45.623311 511.04684,45.890432 C 510.54145,46.157569 510.10346,46.567888 509.73285,47.121392 C 509.47775,47.506449 509.29245,47.987762 509.17693,48.565333 L 509.17693,48.565333 z M 509.39352,50.853979 C 509.54754,51.431557 509.75571,51.826234 510.01803,52.03801 C 510.28034,52.24979 510.65456,52.355678 511.14069,52.355677 C 511.62681,52.355678 512.00104,52.22813 512.26336,51.973033 C 512.52567,51.717939 512.65682,51.371393 512.65683,50.933396 C 512.65682,50.432833 512.50641,50.016497 512.2056,49.684387 C 511.90477,49.352285 511.56665,49.186232 511.19123,49.186227 C 510.89281,49.186232 510.57394,49.333032 510.23462,49.626629 C 509.89529,49.920234 509.61493,50.32935 509.39352,50.853979 L 509.39352,50.853979 z" style="font-size:29.57190704px;font-style:normal;font-weight:bold;fill:#000000;fill-opacity:1;stroke:none;stroke-width:1px;stroke-linecap:butt;stroke-linejoin:miter;stroke-opacity:1;font-family:Futura XBlk BT" transform="matrix(0.9525881,0.304263,-0.304263,0.9525881,0,0)"/>
      <path id="text3621" d="M 549.23369,44.14703 L 549.23369,52.247538 L 550.72817,52.247538 C 551.08434,52.247539 551.33823,52.316127 551.48985,52.453299 C 551.64146,52.590475 551.71726,52.769764 551.71727,52.991167 C 551.71726,53.207759 551.64146,53.384642 551.48985,53.521816 C 551.33823,53.65899 551.08434,53.727577 550.72817,53.727577 L 546.25917,53.727577 C 545.903,53.727577 545.64911,53.65899 545.49749,53.521816 C 545.34588,53.384642 545.27007,53.205352 545.27007,52.983948 C 545.27007,52.767358 545.34588,52.590475 545.49749,52.453299 C 545.64911,52.316127 545.903,52.247539 546.25917,52.247538 L 547.75365,52.247538 L 547.75365,46.074691 L 546.43245,46.421237 C 546.22067,46.479002 546.06183,46.507881 545.95595,46.507873 C 545.76823,46.507881 545.60579,46.433277 545.46862,46.284063 C 545.33144,46.134863 545.26285,45.951964 545.26285,45.735365 C 545.26285,45.538035 545.31339,45.382811 545.41447,45.269694 C 545.51554,45.156594 545.72732,45.056722 546.0498,44.970076 L 549.23369,44.14703 z" style="font-size:29.57190704px;font-style:normal;font-weight:bold;fill:#000000;fill-opacity:1;stroke:none;stroke-width:1px;stroke-linecap:butt;stroke-linejoin:miter;stroke-opacity:1;font-family:Futura XBlk BT" transform="matrix(0.9525881,0.304263,-0.304263,0.9525881,0,0)"/>
      <path id="text3653" d="M 557.86727,48.890269 C 558.2475,49.183875 558.53268,49.517184 558.7228,49.890198 C 558.91291,50.263219 559.00797,50.673539 559.00798,51.121157 C 559.00797,51.616912 558.88644,52.072957 558.64339,52.489291 C 558.40031,52.905628 558.01887,53.234124 557.49906,53.474781 C 556.97924,53.715438 556.40166,53.835766 555.76633,53.835766 C 555.131,53.835766 554.55823,53.715438 554.04804,53.474781 C 553.53785,53.234124 553.16122,52.904425 552.91816,52.485681 C 552.6751,52.06694 552.55356,51.612099 552.55357,51.121157 C 552.55356,50.673539 552.64862,50.263219 552.83874,49.890198 C 553.02886,49.517184 553.31404,49.183875 553.69428,48.890269 C 553.36217,48.582233 553.11189,48.25494 552.94343,47.908389 C 552.77497,47.561849 552.69074,47.196052 552.69074,46.810994 C 552.69074,46.055339 552.97953,45.404363 553.5571,44.858064 C 554.13468,44.311783 554.8759,44.038638 555.78077,44.038628 C 556.68564,44.038638 557.42686,44.311783 558.00444,44.858064 C 558.58201,45.404363 558.8708,46.055339 558.87081,46.810994 C 558.8708,47.200865 558.78777,47.569069 558.62173,47.915609 C 558.45567,48.26216 558.20418,48.587046 557.86727,48.890269 L 557.86727,48.890269 z M 557.35467,46.839873 C 557.35466,46.474082 557.21147,46.162432 556.9251,45.904921 C 556.63871,45.647427 556.25246,45.518675 555.76633,45.518667 C 555.27539,45.518675 554.88673,45.647427 554.60035,45.904921 C 554.31397,46.162432 554.17078,46.474082 554.17078,46.839873 C 554.17078,47.210491 554.31397,47.524548 554.60035,47.782044 C 554.88673,48.039553 555.27539,48.168304 555.76633,48.168299 C 556.25246,48.168304 556.63871,48.039553 556.9251,47.782044 C 557.21147,47.524548 557.35466,47.210491 557.35467,46.839873 L 557.35467,46.839873 z M 557.52794,51.193354 C 557.52793,50.803493 557.36068,50.450931 557.02617,50.135668 C 556.69165,49.820411 556.27652,49.662781 555.78077,49.662777 C 555.28502,49.662781 554.86988,49.820411 554.53537,50.135668 C 554.20086,50.450931 554.0336,50.808306 554.0336,51.207794 C 554.0336,51.515837 554.178,51.784169 554.46679,52.012791 C 554.75557,52.241416 555.19357,52.355728 555.78077,52.355727 C 556.37278,52.355728 556.81198,52.241416 557.09837,52.012791 C 557.38474,51.784169 557.52793,51.511024 557.52794,51.193354 L 557.52794,51.193354 z" style="font-size:29.57190704px;font-style:normal;font-weight:bold;fill:#000000;fill-opacity:1;stroke:none;stroke-width:1px;stroke-linecap:butt;stroke-linejoin:miter;stroke-opacity:1;font-family:Futura XBlk BT" transform="matrix(0.9525881,0.304263,-0.304263,0.9525881,0,0)"/>
      <path sodipodi:nodetypes="cc" id="path3733" d="M 113.43506,143.41804 L 518.90953,273.9704" style="fill:#ffd3a3;fill-opacity:1;fill-rule:nonzero;stroke:url(#linearGradient2543);stroke-width:2.77502751;stroke-linecap:butt;stroke-miterlimit:0;stroke-dasharray:none;stroke-dashoffset:0;stroke-opacity:1"/>
      <path d="M 522.9271,267.64811 C 522.81174,268.86625 522.37255,269.97075 521.78888,271.03162 C 521.23268,271.94465 520.41833,272.64092 519.45546,273.09044 C 518.71541,273.47439 517.95073,273.51465 517.13846,273.47479 C 516.53796,273.47509 515.94303,273.40764 515.35041,273.31851 L 511.23012,271.31583 C 511.81094,271.42928 512.3954,271.52973 512.98949,271.53235 C 513.75951,271.53412 514.51594,271.72416 515.23192,271.31598 C 516.15889,271.02227 516.91958,270.35663 517.45322,269.55199 C 518.01828,268.54134 518.43828,267.49363 518.54068,266.32647 L 522.9271,267.64811 z" id="path3798" style="opacity:0.43902438;fill:#fff3de;fill-opacity:1;fill-rule:nonzero;stroke:none;stroke-width:0.5;stroke-linecap:butt;stroke-miterlimit:0;stroke-dasharray:none;stroke-dashoffset:0;stroke-opacity:1"/>
      <path d="M 141.01036,77.02951 C 139.94092,77.457694 138.90201,77.964847 137.87853,78.493237 C 137.14977,78.905496 136.69222,79.566409 136.47287,80.361845 C 136.36907,80.922681 136.39913,80.638869 136.38376,81.213441 L 131.9845,79.935301 C 132.02427,79.285088 131.98304,79.602214 132.10398,78.983521 C 132.35956,78.085581 132.84315,77.294085 133.63434,76.768636 C 134.65173,76.199496 135.72447,75.723599 136.7886,75.250723 L 141.01036,77.02951 z" id="path3808" style="opacity:0.43902438;fill:#fff3de;fill-opacity:1;fill-rule:nonzero;stroke:none;stroke-width:0.5;stroke-linecap:butt;stroke-miterlimit:0;stroke-dasharray:none;stroke-dashoffset:0;stroke-opacity:1"/>
      <path d="M 538.6262,204.26786 C 539.60551,204.89929 540.46236,205.6653 541.25656,206.51418 C 541.98556,207.15878 542.48991,207.90273 542.7984,208.81555 C 543.01825,209.67919 543.08276,210.56436 543.18976,211.44568 C 543.27357,212.31534 543.08228,213.16705 542.86768,214.00327 C 542.72396,214.72282 542.31346,215.30391 541.87327,215.87016 L 537.5616,214.32198 C 537.96922,213.80645 538.37461,213.30337 538.4956,212.63511 C 538.69493,211.85198 538.87227,211.05543 538.7695,210.24223 C 538.66025,209.39369 538.61459,208.53301 538.35202,207.71229 C 538.01905,206.87084 537.41476,206.22139 536.7679,205.59803 C 535.96477,204.79698 535.11143,204.0466 534.10996,203.49915 L 538.6262,204.26786 z" id="path3812" style="opacity:0.43902438;fill:#fff3de;fill-opacity:1;fill-rule:nonzero;stroke:none;stroke-width:0.5;stroke-linecap:butt;stroke-miterlimit:0;stroke-dasharray:none;stroke-dashoffset:0;stroke-opacity:1"/>
      <path d="M 540.87926,204.78014 C 541.68117,205.86955 542.32584,207.09629 542.62354,208.42084 C 542.72517,209.05795 542.61708,209.66286 542.47076,210.27928 L 538.09578,208.92039 C 538.22139,208.37025 538.30914,207.83377 538.18935,207.26957 C 537.84746,206.01078 537.19825,204.84861 536.39961,203.82118 L 540.87926,204.78014 z" id="path3814" style="opacity:0.43902438;fill:#fff3de;fill-opacity:1;fill-rule:nonzero;stroke:none;stroke-width:0.5;stroke-linecap:butt;stroke-miterlimit:0;stroke-dasharray:none;stroke-dashoffset:0;stroke-opacity:1"/>
      <path d="M 542.92612,204.38478 C 543.88657,205.14711 544.57833,206.11535 544.90633,207.29378 C 545.03673,208.26234 544.91477,209.25469 544.81024,210.22331 C 544.71664,210.85015 544.76952,210.53832 544.65176,211.15891 L 540.27086,209.8191 C 540.38147,209.22199 540.33218,209.52203 540.41869,208.91903 C 540.51117,208.01076 540.64577,207.07203 540.4651,206.17021 C 540.07373,205.07087 539.3176,204.23047 538.43483,203.48159 L 542.92612,204.38478 z" id="path3816" style="opacity:0.43902438;fill:#fff3de;fill-opacity:1;fill-rule:nonzero;stroke:none;stroke-width:0.5;stroke-linecap:butt;stroke-miterlimit:0;stroke-dasharray:none;stroke-dashoffset:0;stroke-opacity:1"/>
      <path d="M 524.44859,273.42424 C 524.3322,274.53088 523.88206,275.47959 523.18553,276.32851 C 522.54185,277.09952 521.72231,277.39364 520.74581,277.39968 C 519.94065,277.30017 519.13075,277.28263 518.32793,277.16446 C 518.19001,277.13789 518.05206,277.11136 517.91407,277.08482 L 513.8019,275.06563 C 513.93716,275.09765 514.07241,275.12966 514.20767,275.16168 C 515.00461,275.32032 515.80424,275.33173 516.60267,275.44465 C 517.48178,275.55123 518.25629,275.46961 518.87904,274.76597 C 519.54544,273.99057 519.96837,273.14072 520.06218,272.10261 L 524.44859,273.42424 z" id="path3818" style="opacity:0.43902438;fill:#fff3de;fill-opacity:1;fill-rule:nonzero;stroke:none;stroke-width:0.5;stroke-linecap:butt;stroke-miterlimit:0;stroke-dasharray:none;stroke-dashoffset:0;stroke-opacity:1"/>
      <g transform="matrix(5.2869163,1.6886764,-1.6886764,5.2869163,-847.58796,-2622.2521)" style="fill:url(#linearGradient4081);fill-opacity:1" id="g3822">
        <path style="opacity:0.43902438;fill:url(#linearGradient4077);fill-opacity:1;fill-rule:nonzero;stroke:none;stroke-width:0.5;stroke-linecap:butt;stroke-miterlimit:0;stroke-dasharray:none;stroke-dashoffset:0;stroke-opacity:1" id="path3806" d="M 317.05832,420.71135 C 317.08515,420.91581 317.12185,421.12198 317.11188,421.32871 C 317.08646,421.45334 317.07818,421.53133 317.13121,421.64559 C 317.2029,421.74812 317.27449,421.82249 317.39231,421.86925 C 317.53476,421.9469 317.6934,421.97264 317.85262,421.98823 C 318.02094,422.00048 318.18986,421.99919 318.35852,421.99906 C 317.03838,422.03832 317.58759,422.02791 317.88644,421.95285 L 318.70496,422.05946 C 318.30113,422.18632 318.0691,422.17955 317.54323,422.12805 C 317.37397,422.12734 317.20414,422.12742 317.03581,422.10728 C 316.87353,422.08293 316.71627,422.04158 316.57195,421.96064 C 316.45679,421.89211 316.37068,421.79764 316.30648,421.67966 C 316.25731,421.56119 316.25699,421.44933 316.28646,421.32448 C 316.29745,421.12387 316.25805,420.9234 316.233,420.72499 L 317.05832,420.71135 z"/>
        <path style="opacity:0.43902438;fill:url(#linearGradient4079);fill-opacity:1;fill-rule:nonzero;stroke:none;stroke-width:0.5;stroke-linecap:butt;stroke-miterlimit:0;stroke-dasharray:none;stroke-dashoffset:0;stroke-opacity:1" id="path3820" d="M 316.71833,420.47054 C 316.71833,420.69651 316.71833,420.92247 316.71833,421.14844 C 316.71833,421.33768 316.71833,421.52693 316.71833,421.71618 C 316.71453,421.81114 316.71087,421.89359 316.79761,421.94481 L 315.97488,422.01153 C 315.90538,421.92114 315.88285,421.83147 315.8929,421.71618 C 315.8929,421.52693 315.8929,421.33768 315.8929,421.14844 C 315.8929,420.92247 315.8929,420.69651 315.8929,420.47054 L 316.71833,420.47054 z"/>
      </g>
      <g transform="matrix(5.2869163,1.6886764,-1.6886764,5.2869163,-847.58796,-2622.2521)" style="opacity:0.95934957" id="g3866">
        <path sodipodi:type="arc" style="opacity:1;fill:#d9ac5d;fill-opacity:1;fill-rule:nonzero;stroke:none;stroke-width:0.5;stroke-linecap:butt;stroke-miterlimit:0;stroke-dasharray:none;stroke-dashoffset:0;stroke-opacity:1" id="path3844" sodipodi:cx="319.02954" sodipodi:cy="418.01755" sodipodi:rx="1.0730618" sodipodi:ry="1.0730618" d="M 320.1026,418.01755 A 1.0730618,1.0730618 0 1 1 317.95648,418.01755 A 1.0730618,1.0730618 0 1 1 320.1026,418.01755 z" transform="matrix(0.3846154,0,0,0.3846154,196.32588,257.15903)"/>
        <path sodipodi:type="arc" style="opacity:1;fill:#d9ac5d;fill-opacity:1;fill-rule:nonzero;stroke:none;stroke-width:0.5;stroke-linecap:butt;stroke-miterlimit:0;stroke-dasharray:none;stroke-dashoffset:0;stroke-opacity:1" id="path3846" sodipodi:cx="319.02954" sodipodi:cy="418.01755" sodipodi:rx="1.0730618" sodipodi:ry="1.0730618" d="M 320.1026,418.01755 A 1.0730618,1.0730618 0 1 1 317.95648,418.01755 A 1.0730618,1.0730618 0 1 1 320.1026,418.01755 z" transform="matrix(0.6538462,0,0,0.6538462,112.12543,145.31745)"/>
        <path sodipodi:type="arc" style="opacity:1;fill:#d9ac5d;fill-opacity:1;fill-rule:nonzero;stroke:none;stroke-width:0.5;stroke-linecap:butt;stroke-miterlimit:0;stroke-dasharray:none;stroke-dashoffset:0;stroke-opacity:1" id="path3848" sodipodi:cx="319.02954" sodipodi:cy="418.01755" sodipodi:rx="1.0730618" sodipodi:ry="1.0730618" d="M 320.1026,418.01755 A 1.0730618,1.0730618 0 1 1 317.95648,418.01755 A 1.0730618,1.0730618 0 1 1 320.1026,418.01755 z" transform="matrix(0.5769231,0,0,0.5769231,137.16143,174.83126)"/>
        <path sodipodi:type="arc" style="opacity:1;fill:#d9ac5d;fill-opacity:1;fill-rule:nonzero;stroke:none;stroke-width:0.5;stroke-linecap:butt;stroke-miterlimit:0;stroke-dasharray:none;stroke-dashoffset:0;stroke-opacity:1" id="path3850" sodipodi:cx="319.02954" sodipodi:cy="418.01755" sodipodi:rx="1.0730618" sodipodi:ry="1.0730618" d="M 320.1026,418.01755 A 1.0730618,1.0730618 0 1 1 317.95648,418.01755 A 1.0730618,1.0730618 0 1 1 320.1026,418.01755 z" transform="matrix(0.5,0,0,0.5,165.66423,209.13258)"/>
        <path sodipodi:type="arc" style="opacity:1;fill:#d9ac5d;fill-opacity:1;fill-rule:nonzero;stroke:none;stroke-width:0.5;stroke-linecap:butt;stroke-miterlimit:0;stroke-dasharray:none;stroke-dashoffset:0;stroke-opacity:1" id="path3852" sodipodi:cx="319.02954" sodipodi:cy="418.01755" sodipodi:rx="1.0730618" sodipodi:ry="1.0730618" d="M 320.1026,418.01755 A 1.0730618,1.0730618 0 1 1 317.95648,418.01755 A 1.0730618,1.0730618 0 1 1 320.1026,418.01755 z" transform="matrix(0.1923077,0,0,0.1923077,257.05863,333.79129)"/>
        <path sodipodi:type="arc" style="opacity:1;fill:#d9ac5d;fill-opacity:1;fill-rule:nonzero;stroke:none;stroke-width:0.5;stroke-linecap:butt;stroke-miterlimit:0;stroke-dasharray:none;stroke-dashoffset:0;stroke-opacity:1" id="path3854" sodipodi:cx="319.02954" sodipodi:cy="418.01755" sodipodi:rx="1.0730618" sodipodi:ry="1.0730618" d="M 320.1026,418.01755 A 1.0730618,1.0730618 0 1 1 317.95648,418.01755 A 1.0730618,1.0730618 0 1 1 320.1026,418.01755 z" transform="matrix(0.6538462,0,0,0.6538462,119.63687,140.19976)"/>
        <path sodipodi:type="arc" style="opacity:1;fill:#d9ac5d;fill-opacity:1;fill-rule:nonzero;stroke:none;stroke-width:0.5;stroke-linecap:butt;stroke-miterlimit:0;stroke-dasharray:none;stroke-dashoffset:0;stroke-opacity:1" id="path3856" sodipodi:cx="319.02954" sodipodi:cy="418.01755" sodipodi:rx="1.0730618" sodipodi:ry="1.0730618" d="M 320.1026,418.01755 A 1.0730618,1.0730618 0 1 1 317.95648,418.01755 A 1.0730618,1.0730618 0 1 1 320.1026,418.01755 z" transform="matrix(0.3846154,0,0,0.3846154,199.21488,257.24156)"/>
      </g>
      <path d="M 523.24714,234.14819 C 518.75845,236.94104 514.75619,240.63013 511.59634,244.87523 C 510.79068,245.95766 510.10296,247.12302 509.35623,248.24693 C 507.45209,251.02795 507.03343,254.30779 506.07896,257.43432 C 505.86511,258.13468 505.62622,259.59471 504.37044,259.1795 C 502.43736,258.54045 500.65429,257.5149 498.79623,256.68255 C 492.96369,250.28715 488.77621,242.60953 485.18634,234.78964 C 484.4076,232.32016 480.71784,226.95246 488.02237,231.7931 C 488.57776,232.16113 488.36063,233.08207 488.51331,233.7306 C 489.0503,236.01117 489.56835,238.51444 490.05301,240.79083 C 490.68987,244.74987 491.36625,248.74426 491.37766,252.76881 C 491.38084,253.87903 491.33468,256.44539 490.64536,257.60611 C 490.41504,257.99393 489.93092,258.15689 489.57374,258.43223 C 487.74382,257.87623 485.81119,257.58527 484.0839,256.76415 C 483.40853,256.44304 480.94733,252.96266 480.74917,252.67669 C 478.64338,249.63826 476.81916,246.41675 474.96424,243.22348 C 473.32412,240.9533 472.12661,238.04557 469.84864,236.26948 C 469.46508,235.97037 468.10168,235.41399 468.53019,235.64426 C 471.83747,237.42151 472.20275,236.28373 470.46123,238.24787 C 469.28763,239.79109 469.11398,241.81572 468.26982,243.49825 C 468.15187,243.73325 467.99987,244.14748 467.74418,244.08632 C 462.60855,242.85882 463.37348,243.48505 462.0206,240.47806 C 460.13202,236.10057 458.84291,231.50198 458.09651,226.80035 C 458.79869,224.96894 458.60281,225.10721 462.64535,228.78726 C 463.09196,229.19378 462.76241,229.98932 462.81851,230.59057 C 463.05604,233.13463 463.30719,235.67716 463.54636,238.22104 C 463.92374,240.57771 463.7708,243.73286 465.67299,245.55142 C 466.62823,246.46468 467.68784,246.66504 468.89289,247.07255 C 468.2566,246.75186 467.0577,246.81924 466.98407,246.11054 C 466.9221,245.514 468.18821,246.05702 468.774,245.92839 C 470.1285,245.63106 471.52389,244.90928 471.81625,243.48212 C 469.74978,242.55983 473.81012,244.36589 473.79987,244.44925 C 473.68874,245.35278 471.9797,244.5019 471.07092,244.55532 C 466.76076,244.80882 462.47064,245.17051 458.15531,245.36194 C 452.0088,245.17974 444.27502,246.58873 438.83758,242.77583 C 438.51455,242.54931 438.96639,241.99733 439.03082,241.60809 C 439.92121,240.26969 441.23465,239.33005 442.41184,238.26661 C 442.71552,237.99224 443.43753,237.30306 443.46898,237.31678 C 444.81498,237.90447 446.06326,238.69448 447.36047,239.38329 C 446.26276,240.71502 445.40064,242.26899 444.19537,243.51258 C 444.06831,243.6437 443.94266,243.89465 443.76516,243.8517 C 442.23174,243.48083 440.77856,242.83396 439.28528,242.32507 C 439.05198,241.69834 439.77605,240.74751 439.41429,240.16581 C 439.31858,240.01183 438.73375,239.91639 438.90017,239.98837 C 439.89175,240.41701 441.19035,240.41434 441.8911,241.23658 C 442.29423,241.70956 440.64907,241.28668 440.02809,241.31172 C 435.91277,241.96759 433.75707,242.77594 429.68022,240.26679 C 429.34177,240.05847 429.62762,238.16138 429.71526,237.32498 C 429.82594,234.59145 430.55667,230.18479 429.18221,227.67751 C 428.99664,227.33898 428.65726,227.11132 428.39479,226.82822 C 428.05856,226.74099 427.08628,226.39128 427.38617,226.56654 C 428.27426,227.08552 429.56845,227.04707 430.18206,227.8727 C 430.50956,228.31337 429.09331,228.02444 428.55699,228.14194 C 426.38559,228.61784 424.25563,229.37334 422.11773,229.97676 C 418.21228,231.30298 414.2569,232.23681 410.14291,232.53445 C 406.25278,232.62101 402.04326,231.75101 398.84743,229.428 C 397.61116,228.4216 396.40818,227.38377 395.15637,226.39612 C 394.93789,226.22373 393.46249,225.11252 393.1798,224.73837 C 393.09427,224.62512 393.12757,224.45939 393.1015,224.31991 L 397.45219,225.53104 C 398.93674,227.27121 401.20071,228.66814 403.03212,230.19516 C 405.02103,231.48193 404.10415,230.74569 401.00154,230.01624 C 400.61855,229.92619 401.74218,230.28362 402.12062,230.39098 C 403.5259,230.78962 404.95375,230.85765 406.40938,230.82596 C 410.56806,230.61292 414.58877,229.77773 418.53336,228.43075 C 422.94633,227.12645 418.85448,228.36826 422.96079,227.03394 C 423.18021,226.96262 425.92321,226.06832 426.32868,226.11387 C 430.57039,226.59033 430.29458,226.55164 432.55879,227.72254 C 432.77907,228.05275 433.06929,228.34582 433.2196,228.71322 C 434.36263,231.50712 433.54334,235.53562 433.68037,238.48228 C 433.67592,239.01717 433.61269,239.55478 433.66704,240.0869 C 433.83656,241.74747 435.66723,242.33831 430.67916,240.26798 C 430.2188,240.07689 431.67669,240.3349 432.17415,240.30257 C 433.5282,240.2146 434.98753,239.87891 436.309,239.61821 C 439.5048,239.22248 438.44038,239.13408 443.2423,240.8188 C 443.45588,240.89378 443.57116,241.15544 443.63568,241.37245 C 443.81183,241.96502 443.3447,242.65335 443.68411,243.22786 C 442.34179,242.87835 440.96942,242.62878 439.6572,242.17941 C 439.48998,242.12215 440.01775,242.12206 440.16357,242.02216 C 440.44729,241.82776 440.68739,241.57311 440.9165,241.31658 C 441.81702,240.30838 442.53833,239.14437 443.16953,237.95478 C 444.64585,238.31778 446.13601,238.62834 447.59837,239.0438 C 447.73309,239.08206 447.30481,239.0284 447.18146,239.09463 C 445.59361,239.94633 444.26878,241.49916 443.16073,242.86726 C 442.76998,244.81515 443.46225,242.60437 440.05989,243.07128 C 439.24381,243.18326 441.64437,243.54346 442.45961,243.6614 C 446.66379,244.26978 450.97131,243.94465 455.19527,244.00317 C 460.34881,243.7162 459.23635,243.84166 464.1282,243.33663 C 467.46302,242.99235 473.81954,241.37862 476.00519,244.79889 C 475.92564,245.04702 475.899,245.31887 475.76662,245.54326 C 474.91004,246.99506 472.25385,248.10878 470.63483,247.86147 C 468.68349,247.56342 466.80208,246.91453 464.88569,246.44103 C 463.54805,245.91287 462.64797,245.7419 461.64349,244.64553 C 459.85454,242.69295 460.15924,239.59076 459.81554,237.19136 C 459.59615,234.63096 459.36407,232.06417 458.88245,229.53601 C 458.76543,228.92177 457.86288,227.91796 458.45258,227.71013 C 461.71382,226.56064 462.98573,229.68561 462.21447,227.95263 C 461.92713,232.62192 464.09403,237.26229 465.97714,241.39916 C 467.34741,243.55384 468.07783,243.8122 463.66631,242.49402 C 463.43426,242.42468 464.18816,242.40266 464.33506,242.21017 C 465.50073,240.68319 465.44204,238.41537 466.56479,236.85184 C 466.88948,236.37653 466.96506,235.47172 467.53893,235.42582 C 474.10241,234.9007 475.55367,239.38345 478.408,244.01365 C 480.28675,247.23644 482.14873,250.4833 484.40703,253.46306 C 485.03355,254.28968 485.67647,255.10854 486.39273,255.85871 C 486.93762,256.42941 488.64799,256.77872 488.17832,257.41281 C 487.66525,258.10563 486.49408,257.04352 485.65197,256.85885 C 486.03444,256.69296 486.52884,256.67825 486.79934,256.36106 C 487.69806,255.30743 487.87205,252.9282 487.92363,251.79503 C 488.10547,247.80151 487.43706,243.81811 486.69225,239.91483 C 486.07542,237.54752 485.51265,235.05893 484.61652,232.76728 C 484.35608,232.10112 483.00029,231.12326 483.65983,230.84655 C 488.62804,228.76228 487.31177,231.11645 487.71409,232.83542 C 487.93437,233.77634 488.28335,234.6824 488.568,235.60583 C 491.94335,243.64316 496.28573,251.43027 502.73966,257.42124 C 501.98735,257.41236 501.22929,257.30109 500.48276,257.39451 C 500.12195,257.43972 501.24672,257.75435 501.55956,257.56896 C 502.00316,257.30613 502.17976,256.73481 502.39027,256.26417 C 503.73514,253.25703 504.08379,249.83353 506.08875,247.10225 C 506.84381,245.96975 507.55209,244.80461 508.35395,243.70471 C 511.42351,239.49439 515.18122,235.82618 519.20937,232.54179 L 523.24714,234.14819 z" id="path3864" style="opacity:0.59349593;fill:#f8d18c;fill-opacity:1;fill-rule:nonzero;stroke:none;stroke-width:0.5;stroke-linecap:butt;stroke-miterlimit:0;stroke-dasharray:none;stroke-dashoffset:0;stroke-opacity:1"/>
      <g transform="matrix(3.730012,1.1913908,-0.817689,2.5600248,-697.76102,-1307.6932)" style="opacity:0.26016259" id="g3903">
        <path style="opacity:0.95934957;fill:#f8d18c;fill-opacity:1;fill-rule:nonzero;stroke:none;stroke-width:0.5;stroke-linecap:butt;stroke-miterlimit:0;stroke-dasharray:none;stroke-dashoffset:0;stroke-opacity:1" id="path3875" d="M 334.22021,418.26551 C 333.46566,418.24789 334.83569,418.27913 334.91763,418.29129 C 334.98454,418.30123 334.78503,418.32993 334.72526,418.36857 C 334.56197,418.47411 334.59356,418.56338 334.69628,418.68667 C 335.02837,419.09926 335.14594,419.43968 334.84055,419.93074 C 334.35949,420.344 333.75113,420.3776 333.18624,420.44408 L 332.0466,420.23259 C 332.58666,420.17833 333.15656,420.14813 333.64341,419.82341 C 333.95571,419.4468 333.74585,419.10526 333.48281,418.77971 C 332.98891,417.66167 335.07572,418.05323 335.42183,418.05926 L 334.22021,418.26551 z"/>
        <path style="opacity:0.95934957;fill:#f8d18c;fill-opacity:1;fill-rule:nonzero;stroke:none;stroke-width:0.5;stroke-linecap:butt;stroke-miterlimit:0;stroke-dasharray:none;stroke-dashoffset:0;stroke-opacity:1" id="path3877" d="M 334.95149,420.63682 C 335.28802,420.23688 335.52183,419.76919 335.82525,419.34632 C 336.39775,418.66059 336.66718,418.81803 337.57529,418.8974 C 337.8907,419.2093 338.03504,419.66476 338.15545,420.08296 C 338.22433,420.38372 338.19871,420.24034 338.23663,420.5123 L 337.46293,420.52023 C 337.4461,420.2584 337.46465,420.39732 337.39843,420.10474 C 337.27666,419.70432 337.14004,419.25323 336.79799,418.987 C 337.00911,418.97098 337.22117,418.9645 337.43134,418.93896 C 337.48237,418.93276 337.32862,418.9235 337.27749,418.92874 C 336.98414,418.9588 336.76146,419.19374 336.57094,419.39377 C 336.26106,419.80262 336.0362,420.26403 335.7481,420.68815 L 334.95149,420.63682 z"/>
        <path style="opacity:0.95934957;fill:#f8d18c;fill-opacity:1;fill-rule:nonzero;stroke:none;stroke-width:0.5;stroke-linecap:butt;stroke-miterlimit:0;stroke-dasharray:none;stroke-dashoffset:0;stroke-opacity:1" id="path3879" d="M 335.48978,420.31124 C 336.03737,420.07194 336.58674,419.83483 337.14928,419.6326 C 337.501,419.52312 337.3318,419.56619 337.65553,419.49821 L 338.40767,419.60346 C 338.06755,419.65661 338.24378,419.61875 337.88038,419.72325 C 337.33227,419.91061 336.80173,420.14299 336.27932,420.39288 L 335.48978,420.31124 z"/>
        <path style="opacity:0.95934957;fill:#f8d18c;fill-opacity:1;fill-rule:nonzero;stroke:none;stroke-width:0.5;stroke-linecap:butt;stroke-miterlimit:0;stroke-dasharray:none;stroke-dashoffset:0;stroke-opacity:1" id="path3881" d="M 338.71764,418.17739 C 338.93793,418.75606 339.00475,419.37185 339.06594,419.98306 C 339.04034,420.34739 339.17552,420.72449 339.14425,421.08625 L 338.33512,421.06245 C 338.4643,420.86628 338.31546,420.22166 338.33736,419.99012 C 338.28051,419.38728 338.21204,418.76373 337.92506,418.22026 L 338.71764,418.17739 z"/>
        <path style="opacity:0.95934957;fill:#f8d18c;fill-opacity:1;fill-rule:nonzero;stroke:none;stroke-width:0.5;stroke-linecap:butt;stroke-miterlimit:0;stroke-dasharray:none;stroke-dashoffset:0;stroke-opacity:1" id="path3883" d="M 338.45901,418.53376 C 339.00308,418.54309 339.54613,418.50245 340.08214,418.60995 C 340.47714,418.76839 340.72572,419.0807 340.70503,419.51022 C 340.53222,419.90646 340.06538,419.91906 339.68893,419.9573 C 339.25772,420.04803 339.40759,420.20442 339.68517,420.34463 C 339.90192,420.42024 339.79004,420.395 340.02102,420.41944 L 339.25229,420.52942 C 339.01651,420.48342 339.13106,420.51734 338.90862,420.42778 C 338.5755,420.2295 338.46337,419.96509 338.93374,419.84482 C 339.27495,419.81635 339.71448,419.82353 339.92106,419.50467 C 339.95932,419.11229 339.69116,418.83788 339.33404,418.71425 C 338.78769,418.61881 338.23379,418.65896 337.68132,418.65694 L 338.45901,418.53376 z"/>
        <path style="opacity:0.95934957;fill:#f8d18c;fill-opacity:1;fill-rule:nonzero;stroke:none;stroke-width:0.5;stroke-linecap:butt;stroke-miterlimit:0;stroke-dasharray:none;stroke-dashoffset:0;stroke-opacity:1" id="path3885" d="M 341.52411,418.83773 C 341.7991,419.37216 342.15674,419.85846 342.47093,420.36996 C 342.67789,420.67268 342.58287,420.52773 342.75773,420.80366 L 341.9951,420.84444 C 341.8438,420.56888 341.92877,420.71438 341.7366,420.41005 C 341.42277,419.88645 341.06628,419.3908 340.73153,418.88061 L 341.52411,418.83773 z"/>
        <path style="opacity:0.95934957;fill:#f8d18c;fill-opacity:1;fill-rule:nonzero;stroke:none;stroke-width:0.5;stroke-linecap:butt;stroke-miterlimit:0;stroke-dasharray:none;stroke-dashoffset:0;stroke-opacity:1" id="path3887" d="M 340.25619,421.45674 C 340.6128,421.1265 340.8883,420.72528 341.23112,420.38121 C 341.58255,420.04053 341.98388,419.75874 342.34363,419.42726 C 342.37035,419.39343 342.39707,419.35959 342.42379,419.32575 L 343.20945,419.37966 C 343.17806,419.41696 343.14666,419.45426 343.11526,419.49156 C 342.74765,419.82358 342.33059,420.09566 341.97338,420.43946 C 341.63733,420.77734 341.37097,421.16896 341.04843,421.51909 L 340.25619,421.45674 z"/>
        <path style="opacity:0.95934957;fill:#f8d18c;fill-opacity:1;fill-rule:nonzero;stroke:none;stroke-width:0.5;stroke-linecap:butt;stroke-miterlimit:0;stroke-dasharray:none;stroke-dashoffset:0;stroke-opacity:1" id="path3889" d="M 344.66684,419.01229 C 344.32822,419.16468 344.03832,419.40375 343.82939,419.70923 C 343.66421,420.01397 343.6575,420.28019 343.93889,420.50311 C 344.09628,420.59191 344.27369,420.63252 344.45353,420.64402 C 344.53452,420.6492 344.77749,420.65266 344.69699,420.64235 C 344.25986,420.58635 343.97654,420.652 344.50592,420.5686 C 344.99068,420.49373 345.34201,420.24334 345.53869,419.79935 C 345.6231,419.41096 345.44223,419.23837 345.10458,419.10033 C 344.80327,418.99101 343.8791,419.00053 345.25134,419.0494 L 344.46499,418.9477 C 344.97994,418.92307 345.40436,418.83588 345.87596,419.01134 C 346.24246,419.19045 346.40535,419.41193 346.31253,419.8313 C 346.11114,420.29663 345.75232,420.58451 345.24446,420.67318 C 344.65791,420.77514 344.95476,420.73661 343.94865,420.75984 C 343.672,420.76622 343.38855,420.72996 343.15672,420.56937 C 342.89331,420.31115 342.87862,419.98505 343.05731,419.66386 C 343.26283,419.34659 343.5491,419.10669 343.87631,418.91774 L 344.66684,419.01229 z"/>
        <path style="opacity:0.95934957;fill:#f8d18c;fill-opacity:1;fill-rule:nonzero;stroke:none;stroke-width:0.5;stroke-linecap:butt;stroke-miterlimit:0;stroke-dasharray:none;stroke-dashoffset:0;stroke-opacity:1" id="path3891" d="M 347.52511,419.09537 C 347.15478,418.87688 346.08189,418.90753 347.40522,418.94655 C 347.08955,419.07173 347.15118,419.24734 347.41477,419.37776 C 347.73815,419.4899 348.08118,419.46341 348.35335,419.69102 C 348.54302,420.00511 348.2842,420.25624 348.04182,420.43489 C 347.78715,420.54517 347.44216,420.79589 347.15892,420.80881 C 346.85103,420.82285 346.54251,420.81271 346.23431,420.81466 C 346.10504,420.77422 346.136,420.81821 346.13869,420.68466 L 346.95444,420.71857 C 346.91623,420.65604 346.91484,420.67594 347.00872,420.6934 C 345.85577,420.71405 346.31092,420.74179 346.55169,420.67244 C 346.8009,420.60066 347.03841,420.47439 347.27009,420.36175 C 347.46112,420.22662 347.74785,420.01777 347.56797,419.76303 C 347.28833,419.56711 346.93933,419.6039 346.63538,419.45951 C 346.34638,419.26912 346.29146,419.02488 346.6246,418.83762 C 347.24911,418.81661 347.76065,418.73676 348.32133,419.00686 L 347.52511,419.09537 z"/>
        <path style="opacity:0.95934957;fill:#f8d18c;fill-opacity:1;fill-rule:nonzero;stroke:none;stroke-width:0.5;stroke-linecap:butt;stroke-miterlimit:0;stroke-dasharray:none;stroke-dashoffset:0;stroke-opacity:1" id="path3893" d="M 349.51845,420.01359 C 349.42822,420.13292 349.3745,420.2442 349.36591,420.3918 L 348.57544,420.38533 C 348.59087,420.23269 348.63486,420.10763 348.71819,419.97646 L 349.51845,420.01359 z"/>
        <path style="opacity:0.95934957;fill:#f8d18c;fill-opacity:1;fill-rule:nonzero;stroke:none;stroke-width:0.5;stroke-linecap:butt;stroke-miterlimit:0;stroke-dasharray:none;stroke-dashoffset:0;stroke-opacity:1" id="path3895" d="M 350.91813,418.3256 C 351.10989,418.75284 351.22756,419.20782 351.26598,419.67368 C 351.27805,420.04623 351.21805,420.43234 351.03398,420.76086 L 350.2375,420.71187 C 350.47833,420.43893 350.50068,420.02546 350.50793,419.67941 C 350.47627,419.21862 350.35879,418.76091 350.11787,418.36273 L 350.91813,418.3256 z"/>
        <path style="opacity:0.95934957;fill:#f8d18c;fill-opacity:1;fill-rule:nonzero;stroke:none;stroke-width:0.5;stroke-linecap:butt;stroke-miterlimit:0;stroke-dasharray:none;stroke-dashoffset:0;stroke-opacity:1" id="path3897" d="M 349.52163,418.3435 C 350.09645,418.18714 350.66306,418.00568 351.24302,417.86837 C 351.84388,417.78576 352.64304,417.48298 353.16965,417.87254 C 353.37742,418.14987 353.24509,418.52271 353.13786,418.81783 C 352.97378,419.15909 352.61389,419.26286 352.27581,419.36351 C 352.10118,419.41205 351.92155,419.43352 351.74215,419.45448 L 350.97372,419.34109 C 351.15308,419.32397 351.33274,419.30666 351.50826,419.26352 C 351.82661,419.17833 352.18276,419.08932 352.36165,418.78941 C 352.46393,418.53652 352.59198,418.17934 352.38275,417.9509 C 352.15457,417.82366 351.64061,417.80846 352.72234,417.85894 C 352.79742,417.86244 352.57272,417.87348 352.49815,417.88288 C 352.26497,417.91225 352.21592,417.92471 351.97829,417.96795 C 351.4131,418.09262 350.86424,418.26609 350.31216,418.43804 L 349.52163,418.3435 z"/>
        <path style="opacity:0.95934957;fill:#f8d18c;fill-opacity:1;fill-rule:nonzero;stroke:none;stroke-width:0.5;stroke-linecap:butt;stroke-miterlimit:0;stroke-dasharray:none;stroke-dashoffset:0;stroke-opacity:1" id="path3899" d="M 354.34445,418.529 C 354.29681,418.98084 354.16131,419.39799 353.94825,419.79706 C 353.72117,420.22211 353.88388,420.26223 354.27683,420.3266 C 354.3414,420.33265 354.40597,420.3387 354.47054,420.34475 L 353.70756,420.45725 C 353.6416,420.44929 353.57564,420.44133 353.50968,420.43336 C 353.05806,420.33613 352.93809,420.18812 353.19015,419.75937 C 353.40209,419.37445 353.54439,418.97429 353.54619,418.529 L 354.34445,418.529 z"/>
        <path style="opacity:0.95934957;fill:#f8d18c;fill-opacity:1;fill-rule:nonzero;stroke:none;stroke-width:0.5;stroke-linecap:butt;stroke-miterlimit:0;stroke-dasharray:none;stroke-dashoffset:0;stroke-opacity:1" id="path3901" d="M 339.72903,420.10341 C 340.04983,420.29732 340.3431,420.39994 340.53677,420.74081 L 339.75507,420.78242 C 339.56466,420.47096 339.23605,420.35895 338.9342,420.17733 L 339.72903,420.10341 z"/>
      </g>
      <path sodipodi:nodetypes="ccccccccccccccscccccccccccccccccccccccccsccccccccscsccccccccccccccccccccccccccccccccccccccccccsccccccscccccccccccccccccccccccccccccccccccccccccscccccccccccccccsccccccccccsccccccccccccccccccccccscccccccccccccccccccccccccccsccccccccccccccccccccccccccccccccccsscsccccccccccccscccccccccccccccccccscccccccccccccccccccccccccccccccccccccscsccccccccccccccccccccccccccccccscccccccccccccccccccccccccccccccccccccccccccccccccccccccccccccccccccccccccccccccccccccc" id="rect3919" d="M 130.17475,96.674098 C 129.66065,97.066595 127.46138,97.98821 128.19906,96.589264 C 126.4649,97.18798 126.22872,99.626935 127.59341,100.76554 C 125.37988,103.4147 121.99132,105.52442 122.60865,109.50962 C 121.85969,111.8145 123.2233,114.84426 120.71001,116.0458 C 119.10624,117.34937 121.96732,119.20935 119.71426,119.73333 C 117.58441,121.92441 118.77586,125.4669 116.63282,127.67061 C 117.8781,130.96688 112.7419,132.28744 113.88182,135.71343 C 113.61094,136.797 114.74611,139.70066 113.04439,138.9053 C 112.97037,140.30864 112.80808,141.7527 111.88342,142.54006 C 112.6778,144.7382 115.79672,143.86795 115.71791,146.49589 C 116.56458,146.2874 119.23041,147.20472 117.54909,148.17321 C 118.31726,149.67653 119.69104,150.3394 120.74097,149.01065 C 121.9235,149.18584 123.45097,153.23556 123.99252,150.23129 C 124.36668,148.56096 125.61828,151.37083 125.74332,149.88015 C 127.18488,150.07124 128.95407,151.41076 128.1964,153.03061 C 129.30678,153.29945 131.09519,152.9256 131.39518,154.41646 C 132.78836,152.06886 132.63561,157.99347 133.38468,155.59814 C 134.15928,157.24439 137.58718,155.83584 135.83531,154.19603 C 136.70589,152.25877 138.00703,156.59114 138.47186,154.49194 C 140.34626,156.06427 137.8287,152.63447 139.72011,153.43407 C 141.09947,153.72835 139.6583,151.03318 140.9225,153.08983 C 142.07346,154.87459 140.01826,155.68823 138.92164,155.36389 C 138.83282,156.89441 140.46418,156.34116 139.99332,157.70898 C 141.66069,159.2033 140.24792,155.49364 141.84276,156.47899 C 142.45741,157.25742 144.92104,158.35101 144.03644,156.45138 C 143.76571,155.32841 144.64858,152.77172 146.09006,154.0121 C 144.69254,155.22977 145.93206,157.40363 145.04845,158.41326 C 147.16836,158.73771 149.21407,156.452 151.45736,157.72924 C 151.1109,156.11592 153.35049,154.63889 154.23843,156.43267 C 152.58885,157.59454 157.12687,157.86314 154.88103,159.55107 C 154.71376,160.88523 157.20172,161.90993 157.24683,160.12465 C 154.22621,159.81687 158.98517,158.27625 158.61443,159.83318 C 156.1383,160.71024 160.34574,162.88134 160.0486,160.47334 C 162.06093,159.52377 161.5,163.69358 163.74303,162.01751 C 165.273,160.91177 168.51057,159.62811 169.22032,161.40006 C 169.84578,159.89699 174.7963,159.00909 173.1717,161.56973 C 172.79336,162.98499 171.5963,163.79942 170.2989,164.29357 C 171.09345,166.69731 174.48244,164.35549 174.67936,163.68993 C 174.86296,162.02958 178.2492,163.42649 179.49222,162.82093 C 181.40747,163.11817 183.47484,161.78102 184.75509,162.3564 C 186.46884,164.32475 188.95659,162.3101 189.56462,160.97945 C 191.45792,161.06884 190.40663,163.02826 191.0264,163.81328 C 192.39543,162.46649 192.78009,165.68579 193.66296,164.1092 C 195.01248,162.66441 195.48,164.99936 195.27615,165.89897 C 200.02256,168.40722 205.24355,170.12337 210.61407,170.62985 C 220.2505,172.87393 229.41336,176.7172 238.74742,179.93604 C 263.96501,189.06071 289.27105,197.93746 314.54394,206.90704 C 305.61206,202.42872 296.63358,198.04592 287.61126,193.75277 C 284.22115,188.49215 277.17105,189.65812 272.12488,187.21096 C 266.88415,185.07362 261.58957,182.20447 258.54955,177.24031 C 255.52433,173.66082 251.61211,178.76294 248.93688,180.30749 C 244.02395,181.53191 242.99873,174.64912 239.23696,172.80814 C 236.66414,169.92532 232.15462,170.54705 230.17772,167.21489 C 225.3649,169.09104 223.03795,161.08212 218.10314,162.26576 C 218.5324,163.80683 216.89894,163.3842 217.22429,162.16712 C 215.46417,161.87434 215.53189,158.79958 213.50915,158.9777 C 215.14533,161.29672 209.57785,159.2559 212.24019,158.39031 C 213.65331,156.80625 209.45168,157.71154 210.45488,155.99935 C 209.29642,155.85895 206.6116,156.8449 207.03811,154.72594 C 205.48165,157.15791 203.87932,152.37253 206.18442,152.26841 C 205.92561,150.68565 206.48138,146.67027 203.60509,147.80312 C 202.97381,148.58986 201.42299,151.38066 200.71158,148.8817 C 198.95677,147.89629 195.04681,151.72999 194.61239,148.02601 C 195.24655,147.19102 197.86938,146.28589 195.29841,145.8782 C 193.95714,146.34535 193.90812,149.78987 192.03551,148.11329 C 191.97255,149.04788 191.40332,150.31343 190.62204,149.1184 C 190.16081,149.30836 187.72754,150.28161 189.08232,148.80867 C 188.3833,148.60981 187.52157,147.50263 188.79086,147.44108 C 188.14641,145.13998 191.31065,144.92807 192.5287,143.71904 C 190.99226,144.63161 191.09945,140.83826 189.60759,142.60394 C 188.80139,143.56454 189.04986,146.89888 187.11799,145.26811 C 187.77242,143.89431 184.59028,142.86241 186.92516,143.02166 C 187.93129,142.92393 187.41724,140.79302 186.80581,142.25525 C 185.34581,141.08545 185.53181,138.35669 186.59228,138.36354 C 186.15676,136.43914 183.93015,137.71063 184.68316,139.21033 C 184.9723,141.0896 182.73505,139.26062 183.50046,141.11752 C 183.24038,141.29279 183.86494,143.03048 183.8916,141.68857 C 184.38961,143.27561 184.02975,141.9118 184.82322,141.622 C 185.85294,142.86993 185.71311,143.87319 184.5342,144.80697 C 183.91295,146.5001 186.29207,147.297 187.34978,146.2525 C 187.17953,147.26253 185.0328,149.46121 185.00469,147.32418 C 183.75626,147.20042 181.30692,149.22344 181.37684,146.71163 C 182.79681,144.89468 178.99571,146.81501 180.24104,147.98749 C 179.46,147.59173 177.63794,148.4757 178.72203,149.32303 C 178.95624,146.92143 181.44037,150.32838 179.33702,150.24775 C 178.71473,148.56608 176.93392,152.18201 177.13644,149.72694 C 177.10101,148.39265 179.42124,147.96062 178.68751,146.58093 C 179.49805,146.58591 181.58356,145.00973 179.81642,144.75665 C 180.35457,141.9146 176.20499,142.58068 174.97928,143.93992 C 175.22826,142.77152 172.60237,141.72899 175.05721,141.41581 C 176.98889,141.68806 172.00109,140.44357 174.277,140.43832 C 173.97508,139.26816 171.53517,139.67012 171.92501,140.96158 C 171.11042,141.55809 170.29911,141.86218 171.82637,141.84043 C 172.31489,143.50169 170.33009,142.79671 169.79791,141.92081 C 169.75143,143.47214 168.49945,144.75732 166.75299,144.04346 C 167.52066,143.59091 169.37621,142.89358 167.39314,142.60929 C 165.73806,142.58048 166.1633,141.45748 166.43391,140.48219 C 164.9357,139.08467 163.94297,142.77188 163.36138,140.41116 C 163.01106,138.82778 161.80457,142.21272 161.49813,140.54431 C 162.65875,139.27451 163.68915,135.37269 160.88759,135.61544 C 159.97273,133.37002 163.68824,134.71083 163.14784,136.51945 C 162.81963,138.20387 166.38529,139.7428 165.90375,137.58178 C 164.62742,137.47003 165.65035,135.67179 165.84407,137.19857 C 166.88822,137.88311 168.41415,137.82721 169.57747,137.48069 C 167.17905,135.99542 170.99695,133.46741 169.10956,131.60288 C 168.47903,130.70163 169.57774,128.07569 167.55101,129.00434 C 166.19709,130.00452 164.48191,129.78936 163.17746,130.1564 C 162.09172,131.08289 164.79826,134.34804 162.34002,133.34828 C 160.82214,132.83066 157.97068,128.97895 157.83332,132.6371 C 156.67542,134.47426 159.51692,134.55848 159.09537,132.67606 C 159.79353,131.07106 161.14387,133.69911 159.43271,133.33002 C 160.16791,134.31982 156.88137,135.86243 159.47412,136.62054 C 160.46242,138.17948 156.55907,136.83409 157.74403,138.61694 C 158.92387,140.83793 153.18131,139.34269 155.87388,138.20167 C 157.06113,136.77206 154.62687,133.03822 153.70536,135.87039 C 151.4029,134.44403 154.88563,137.89429 153.07901,138.4014 C 152.58827,139.85137 151.03953,138.99821 151.15609,138.15135 C 151.23776,137.6476 153.3607,134.82221 151.07571,136.12289 C 150.12475,136.27045 151.54507,132.45886 149.72637,133.50704 C 148.156,136.27441 145.30042,131.48196 148.09937,130.62044 C 146.88811,132.81676 151.0883,131.83952 149.90294,130.10408 C 152.15638,128.71537 150.41723,132.96592 151.81451,133.80987 C 152.52347,135.22587 152.33836,132.80622 153.39319,132.85753 C 153.55881,131.75677 153.90768,130.79768 154.6735,129.98919 C 152.55387,130.79425 152.64045,127.46946 154.58622,127.41231 C 154.55171,127.05008 157.05888,128.3213 155.89414,126.73764 C 158.48684,127.33428 153.58732,124.06993 154.24888,126.75834 C 151.9499,124.95718 152.3468,129.31745 149.94191,128.84203 C 148.97379,128.47582 148.71469,127.49209 149.03545,126.54971 C 148.75885,127.07091 147.29404,129.04047 147.29155,127.44927 C 148.50708,127.21271 148.30838,124.50982 149.12718,125.12244 C 149.76308,126.3374 150.55771,126.75866 151.6582,125.74879 C 154.1325,125.80679 151.52701,122.97663 150.99043,124.98928 C 150.71257,122.27503 147.22962,121.26154 146.90344,118.4038 C 144.89598,118.19334 142.24013,121.92596 140.87773,119.02815 C 140.63994,117.98463 141.88536,115.14638 142.99103,116.97207 C 140.63012,118.3616 145.39381,118.48274 143.32146,117.07762 C 144.14281,116.65217 146.92797,118.99828 145.29715,117.16245 C 145.12401,116.76474 145.8695,115.19105 144.84737,116.2905 C 142.3222,114.64496 141.65839,110.98208 139.20596,109.2292 C 137.34428,106.87119 136.35752,103.92043 135.33786,101.60052 C 134.45138,100.74908 132.8518,100.32124 134.13548,101.94476 C 134.5865,103.78817 131.16039,101.74981 130.70046,103.57866 C 130.72575,102.63449 131.90723,99.319104 129.78709,100.73793 C 128.39484,99.770612 131.54139,97.410027 130.81735,99.792497 C 131.88096,97.011074 132.55118,103.22716 132.79995,100.42575 C 132.25375,99.183856 131.9678,96.548937 130.17475,96.674098 z M 145.66099,154.78541 C 145.64968,153.11583 144.19611,155.2277 145.66099,154.78541 z M 134.42695,103.31236 C 134.94811,104.87159 132.26491,103.75238 133.9313,103.15404 L 134.42695,103.31236 z M 135.15439,104.45506 L 135.05575,105.33392 C 134.55317,105.93168 134.67523,103.30718 135.15439,104.45506 z M 133.40359,104.8062 C 133.95537,107.72704 132.3376,103.99012 133.40359,104.8062 z M 136.66895,107.12368 C 137.78413,107.22609 137.04954,109.30851 136.40509,107.94976 C 135.32732,110.33484 133.6753,106.05324 136.00808,106.9126 L 136.66895,107.12368 z M 136.25368,108.99383 C 136.18498,108.92236 136.01455,111.64905 136.03569,109.10628 L 136.08846,108.94106 L 136.25368,108.99383 z M 139.28724,110.32691 C 140.19422,112.14007 140.57933,114.16448 141.27919,116.06116 C 139.29301,115.34082 139.00041,119.56144 138.93656,115.95427 C 139.5876,114.73902 137.51432,113.63907 138.03454,115.38894 C 137.76344,116.6671 134.8266,116.30096 136.66004,115.13199 C 137.21401,114.22868 137.2986,112.85972 138.436,112.42195 C 136.50406,112.30122 139.41363,110.38669 139.28724,110.32691 z M 144.80595,112.99999 C 143.42069,111.89315 142.93198,115.4452 144.37688,113.77329 C 144.59223,113.68681 147.19333,112.03433 144.80595,112.99999 z M 155.07006,117.91705 C 154.60786,118.91447 155.29286,121.63402 153.35377,121.01029 C 153.25674,122.36386 154.29088,124.83597 155.12528,122.30441 C 155.50355,120.75623 156.48858,118.72077 155.44636,117.30896 L 155.07006,117.91705 z M 148.59457,117.66945 L 148.33071,118.49554 C 148.56721,118.3671 149.63785,116.88375 148.59457,117.66945 z M 148.22517,118.82597 C 147.42009,120.18148 149.25574,118.22415 148.22517,118.82597 z M 149.87733,119.35368 C 149.49399,121.48817 150.86925,119.34767 149.87733,119.35368 z M 137.83726,117.14664 C 138.62761,117.54847 136.51846,118.73769 137.40129,117.37153 L 137.72482,116.92866 L 137.83726,117.14664 z M 150.23538,121.6529 L 150.28815,121.48768 L 150.23538,121.6529 z M 150.51304,121.92366 C 149.63435,122.70717 151.72379,124.42398 150.96282,122.79561 L 150.73102,121.81121 L 150.51304,121.92366 z M 157.47282,125.7853 C 157.44413,127.43366 159.602,125.46128 157.90189,125.01199 L 157.47282,125.7853 z M 152.46357,124.36739 L 152.29145,123.7662 L 152.46357,124.36739 z M 153.24378,125.34488 C 154.00741,127.2212 155.02505,124.98226 153.24378,125.34488 z M 155.55681,126.08367 C 155.60072,126.66617 154.77471,125.48254 155.55681,126.08367 z M 156.56191,127.49714 C 155.34024,129.2224 158.93917,129.56743 157.66565,128.03175 C 157.02918,128.2638 157.02338,126.12842 156.56191,127.49714 z M 171.12164,133.78626 C 169.30371,133.55681 171.99361,134.47081 170.09137,134.73169 C 169.89577,136.09688 174.02153,134.06543 171.7756,133.44892 L 171.12164,133.78626 z M 155.37333,128.93822 C 155.87404,130.58484 156.2106,127.3858 155.37333,128.93822 z M 166.82602,132.41421 C 165.6026,134.25823 162.32264,130.87285 165.50779,131.88695 L 166.4498,132.26375 L 166.82602,132.41421 z M 168.42541,133.10714 C 170.0768,134.39645 165.31375,134.98818 167.2758,133.28616 C 167.59294,133.06922 168.05693,132.87099 168.42541,133.10714 z M 157.08517,129.84913 C 156.8572,130.5705 158.10109,129.40135 157.08517,129.84913 z M 174.71052,135.66086 C 173.3342,135.20348 173.13676,137.51003 171.69767,135.97303 C 170.66992,135.04034 171.49666,137.89163 170.44942,137.03091 C 169.65046,139.51879 172.82566,137.12378 173.62749,136.7715 C 174.50343,137.11165 176.39206,137.26603 175.42416,135.70673 L 174.71052,135.66086 z M 177.96207,136.8815 C 178.92289,136.67335 177.29981,136.15492 177.96207,136.8815 z M 179.5156,138.28806 C 177.69715,137.95206 177.42404,141.78953 179.37799,140.42897 C 179.19134,142.15779 182.19719,141.30718 182.20737,142.97134 C 184.83033,141.60248 181.14021,139.54062 180.80526,140.5207 C 180.48185,139.70986 181.37781,137.39914 179.5156,138.28806 z M 175.3921,137.5172 C 173.87589,137.82995 174.84088,139.97789 176.01399,138.99034 C 175.39956,140.8062 178.67199,137.80857 176.44307,138.21703 C 176.69873,137.58824 175.9067,136.53228 175.3921,137.5172 z M 148.85197,129.40425 C 148.72851,131.70081 147.42506,129.29626 148.85197,129.40425 z M 166.31211,135.16321 C 166.76033,137.44515 163.8621,134.90217 165.81646,135.0049 L 166.36488,134.99799 L 166.31211,135.16321 z M 194.34608,144.29952 C 192.79924,143.79613 193.23003,146.13082 194.35298,144.84794 C 195.29212,145.08125 194.87244,143.37539 194.34608,144.29952 z M 156.24773,133.04101 C 155.89671,134.20129 158.0998,132.28617 156.45882,132.38014 L 156.24773,133.04101 z M 168.18916,136.12689 C 168.04694,138.31637 166.00896,135.10798 168.18916,136.12689 z M 153.05585,132.20357 C 152.4593,132.80278 153.22378,131.03777 153.05585,132.20357 z M 172.67071,139.19697 L 173.04701,138.58888 L 172.67071,139.19697 z M 204.71573,148.88616 C 205.53437,150.89342 203.21209,148.51093 204.71573,148.88616 z M 171.62664,139.04556 C 172.08238,140.49989 172.10767,137.74403 171.62664,139.04556 z M 153.51254,133.62394 C 154.48264,134.43667 153.90669,132.66428 153.51254,133.62394 z M 153.51254,133.62394 C 151.9432,132.73349 153.27993,135.44937 153.51254,133.62394 z M 169.5385,138.74274 C 169.60284,139.60076 171.22772,140.00119 170.44496,141.03506 C 172.52379,140.16149 171.24925,138.50477 169.5385,138.74274 z M 168.71932,139.02731 C 166.75934,138.62605 167.61792,140.66973 168.89144,139.6285 L 169.10253,138.96763 L 168.71932,139.02731 z M 167.56971,139.20633 C 166.97394,137.48686 165.63131,140.38378 167.56971,139.20633 z M 147.74378,132.87379 C 146.48476,134.08612 149.15229,132.56183 147.74378,132.87379 z M 148.95996,133.62639 C 149.52822,134.58017 149.19237,132.90644 148.95996,133.62639 z M 164.00154,138.97699 C 162.06544,141.19698 166.11268,138.75685 164.00154,138.97699 z M 172.88424,143.08868 C 174.04234,144.43921 170.48125,143.9739 172.33582,143.09558 L 172.38169,142.38195 L 172.88424,143.08868 z M 177.12709,144.62595 C 176.86138,145.49158 178.31686,147.43402 176.59938,146.27811 C 175.61236,145.86747 176.56272,142.6573 177.12709,144.62595 z M 175.31661,144.59388 C 174.78031,146.54347 173.44813,143.00999 175.31661,144.59388 z M 170.00454,145.2641 L 170.07111,146.19573 C 169.88,146.06716 169.29385,143.36484 170.00454,145.2641 z M 267.27587,186.16508 C 267.18623,187.77678 266.60579,185.03324 267.27587,186.16508 z M 284.90123,191.97681 L 285.569,192.73632 C 285.25986,192.82949 284.22148,191.9011 284.90123,191.97681 z M 182.21718,161.18163 C 182.41888,162.86564 180.69941,161.52534 182.21718,161.18163 z M 175.23913,160.22729 C 177.15193,161.14547 173.04755,162.39714 174.80316,160.45218 L 175.07392,160.17452 L 175.23913,160.22729 z M 152.5542,157.71544 C 152.38824,160.10947 154.19079,156.55443 152.5542,157.71544 z M 147.3018,158.76886 C 145.20164,157.963 146.53278,162.68885 147.09762,159.97814 C 148.03653,160.26615 148.41202,157.70733 147.3018,158.76886 z M 134.79814,154.59303 C 135.03438,156.43834 133.13142,153.72968 134.79814,154.59303 z M 137.22361,155.54982 C 137.05797,156.21453 137.77794,157.54607 137.94415,156.14411 C 137.59423,157.45308 138.77964,158.1634 138.77023,156.40796 C 138.45536,156.20519 137.56389,154.85861 137.22361,155.54982 z M 131.40208,154.96488 C 131.39324,157.27469 133.53346,154.59238 131.50763,154.63445 L 131.40208,154.96488 z" clip-path="none" style="opacity:0.10975611;fill:url(#linearGradient2507);fill-opacity:1;fill-rule:nonzero;stroke:none;stroke-width:0.80000031;stroke-linecap:butt;stroke-miterlimit:4;stroke-dasharray:none;stroke-dashoffset:0;stroke-opacity:1"/>
    </g>
  </g>
  <metadata>
    <rdf:RDF>
      <cc:Work>
        <dc:format>image/svg+xml</dc:format>
        <dc:type rdf:resource="http://purl.org/dc/dcmitype/StillImage"/>
        <cc:license rdf:resource="http://creativecommons.org/licenses/publicdomain/"/>
        <dc:publisher>
          <cc:Agent rdf:about="http://openclipart.org/">
            <dc:title>Open Clip Art Library</dc:title>
          </cc:Agent>
        </dc:publisher>
        <dc:title>Ruller</dc:title>
        <dc:date>2008-02-10T17:14:17</dc:date>
        <dc:description>Just simple ruller in SVG</dc:description>
        <dc:source>http://openclipart.org/detail/13549/ruller-by-sarxos</dc:source>
        <dc:creator>
          <cc:Agent>
            <dc:title>sarxos</dc:title>
          </cc:Agent>
        </dc:creator>
        <dc:subject>
          <rdf:Bag>
            <rdf:li>clip art</rdf:li>
            <rdf:li>clipart</rdf:li>
            <rdf:li>edge</rdf:li>
            <rdf:li>edge</rdf:li>
            <rdf:li>geometry</rdf:li>
            <rdf:li>geometry</rdf:li>
            <rdf:li>image</rdf:li>
            <rdf:li>math</rdf:li>
            <rdf:li>math</rdf:li>
            <rdf:li>maths</rdf:li>
            <rdf:li>maths</rdf:li>
            <rdf:li>media</rdf:li>
            <rdf:li>png</rdf:li>
            <rdf:li>public domain</rdf:li>
            <rdf:li>ruler</rdf:li>
            <rdf:li>ruler</rdf:li>
            <rdf:li>straight</rdf:li>
            <rdf:li>straight</rdf:li>
            <rdf:li>svg</rdf:li>
            <rdf:li>tool</rdf:li>
            <rdf:li>tool</rdf:li>
          </rdf:Bag>
        </dc:subject>
      </cc:Work>
      <cc:License rdf:about="http://creativecommons.org/licenses/publicdomain/">
        <cc:permits rdf:resource="http://creativecommons.org/ns#Reproduction"/>
        <cc:permits rdf:resource="http://creativecommons.org/ns#Distribution"/>
        <cc:permits rdf:resource="http://creativecommons.org/ns#DerivativeWorks"/>
      </cc:License>
    </rdf:RDF>
  </metadata>
</svg>