<?xml version="1.0" encoding="UTF-8" standalone="no"?>
<!-- Created with Inkscape (http://www.inkscape.org/) -->

<svg
   xmlns:dc="http://purl.org/dc/elements/1.1/"
   xmlns:cc="http://creativecommons.org/ns#"
   xmlns:rdf="http://www.w3.org/1999/02/22-rdf-syntax-ns#"
   xmlns:svg="http://www.w3.org/2000/svg"
   xmlns="http://www.w3.org/2000/svg"
   xmlns:sodipodi="http://sodipodi.sourceforge.net/DTD/sodipodi-0.dtd"
   xmlns:inkscape="http://www.inkscape.org/namespaces/inkscape"
   width="577.40491"
   height="469.34412"
   id="svg4477"
   sodipodi:version="0.32"
   inkscape:version="0.48.3.1 r9886"
   sodipodi:docname="mariposa.svg"
   inkscape:output_extension="org.inkscape.output.svg.inkscape"
   version="1.1">
  <defs
     id="defs4479">
    <filter
       inkscape:collect="always"
       id="filter6917"
       color-interpolation-filters="sRGB">
      <feGaussianBlur
         inkscape:collect="always"
         stdDeviation="1.0680851"
         id="feGaussianBlur6919" />
    </filter>
    <filter
       inkscape:collect="always"
       id="filter6953"
       color-interpolation-filters="sRGB">
      <feGaussianBlur
         inkscape:collect="always"
         stdDeviation="0.64591762"
         id="feGaussianBlur6955" />
    </filter>
    <filter
       inkscape:collect="always"
       id="filter6973"
       color-interpolation-filters="sRGB">
      <feGaussianBlur
         inkscape:collect="always"
         stdDeviation="0.7852339"
         id="feGaussianBlur6975" />
    </filter>
    <filter
       inkscape:collect="always"
       id="filter7009"
       color-interpolation-filters="sRGB">
      <feGaussianBlur
         inkscape:collect="always"
         stdDeviation="0.69298975"
         id="feGaussianBlur7011" />
    </filter>
  </defs>
  <sodipodi:namedview
     id="base"
     pagecolor="#ffffff"
     bordercolor="#666666"
     borderopacity="1.0"
     inkscape:pageopacity="0.0"
     inkscape:pageshadow="2"
     inkscape:zoom="1.4142136"
     inkscape:cx="288.24955"
     inkscape:cy="111.30405"
     inkscape:current-layer="layer1"
     inkscape:document-units="px"
     showguides="true"
     inkscape:guide-bbox="true"
     inkscape:window-width="1022"
     inkscape:window-height="703"
     inkscape:window-x="0"
     inkscape:window-y="48"
     showgrid="false"
     fit-margin-top="0"
     fit-margin-left="0"
     fit-margin-right="0"
     fit-margin-bottom="0"
     inkscape:window-maximized="0" />
  <metadata
     id="metadata4482">
    <rdf:RDF>
      <cc:Work
         rdf:about="">
        <dc:format>image/svg+xml</dc:format>
        <dc:type
           rdf:resource="http://purl.org/dc/dcmitype/StillImage" />
        <dc:title></dc:title>
        <dc:date>01022008</dc:date>
        <dc:creator>
          <cc:Agent>
            <dc:title>Vladimir Zúñiga C</dc:title>
          </cc:Agent>
        </dc:creator>
        <cc:license
           rdf:resource="http://creativecommons.org/licenses/by/2.5/" />
      </cc:Work>
      <cc:License
         rdf:about="http://creativecommons.org/licenses/by/2.5/">
        <cc:permits
           rdf:resource="http://web.resource.org/cc/Reproduction" />
        <cc:permits
           rdf:resource="http://web.resource.org/cc/Distribution" />
        <cc:requires
           rdf:resource="http://web.resource.org/cc/Notice" />
        <cc:requires
           rdf:resource="http://web.resource.org/cc/Attribution" />
        <cc:permits
           rdf:resource="http://web.resource.org/cc/DerivativeWorks" />
      </cc:License>
    </rdf:RDF>
  </metadata>
  <g
     id="layer1"
     inkscape:label="Layer 1"
     inkscape:groupmode="layer"
     transform="translate(-30.336562,-5.7153445)">
    <g
       id="g6795"
       transform="matrix(-0.7436797,0.5028603,0.5488468,0.6813686,46.853953,-421.40174)">
      <path
         sodipodi:nodetypes="ccccc"
         id="path6797"
         d="M 314.71168,501.5923 C 238.25161,570.841 200.6232,791.36418 286.17383,896.01416 359.14812,949.9013 456.49171,996.42264 553.28155,890.23383 491.19185,869.5344 476.61392,731.3961 383.06996,823.44268 549.46441,680.88655 306.23903,661.32793 314.71168,501.5923 z"
         style="fill:#2a7fff;fill-rule:evenodd;stroke:#000000;stroke-width:4;stroke-linecap:butt;stroke-linejoin:miter;stroke-miterlimit:4;stroke-opacity:1;stroke-dasharray:none"
         inkscape:connector-curvature="0" />
      <path
         sodipodi:nodetypes="cccccssscc"
         id="path6799"
         d="m 248.25843,799.29559 c -0.13897,-95.16257 -0.7798,-166.75998 43.85352,-196.74782 l 11.65279,151.10555 c 5.90807,-109.23817 23.07439,-129.6847 28.57166,-142.56536 18.21236,-23.16994 74.22474,103.36538 11.99554,140.67338 0,0 64.10253,6.98888 94.51833,-31.81074 5.07612,-6.4753 -42.56764,-61.2978 -89.03972,-118.17054 -18.92857,-23.16486 -34.1811,-50.19824 -35.76367,-69.75125 -1.39598,-17.24761 -0.33407,-21.88256 -2.19309,-24.5748 -70.80901,74.33583 -79.73986,211.27537 -63.59536,291.84158 z"
         style="fill:#0044aa;fill-rule:evenodd;stroke:none"
         inkscape:connector-curvature="0" />
      <path
         sodipodi:nodetypes="cccc"
         id="path6801"
         d="m 432.00841,706.9156 c 12.31207,19.71856 7.98516,66.45832 -50.51536,115.01102 2.1901,-22.87937 -65.14897,9.46057 -80.86018,-4.56178 28.02153,-7.26925 130.59507,-3.58005 131.37554,-110.44924 z"
         style="fill:#0044aa;fill-rule:evenodd;stroke:none"
         inkscape:connector-curvature="0" />
      <path
         sodipodi:nodetypes="cccc"
         id="path6803"
         d="m 423.44241,765.07613 -78.09192,96.89882 67.90095,-54.95092 10.19097,-41.9479 z"
         style="fill:#0044aa;fill-rule:evenodd;stroke:none"
         inkscape:connector-curvature="0" />
      <path
         sodipodi:nodetypes="cccccscc"
         id="path6805"
         d="m 351.33816,930.09708 c 37.77489,5.45124 62.84271,34.41108 124.79051,-4.85847 86.07462,-43.51573 -43.12617,-35.2759 -101.24867,-47.83966 60.32988,-2.75984 108.16661,-7.84766 116.17433,-28.55226 -20.92034,-50.73709 -94.92294,-51.05986 -90.02426,-4.71949 -14.5954,-34.73334 30.17919,-67.75161 65.58897,-40.6171 19.35266,14.82993 41.32307,46.41763 84.06156,89.66399 -116.65994,99.83253 -179.49407,43.29073 -199.34244,36.92299 z"
         style="fill:#0044aa;fill-rule:evenodd;stroke:none"
         inkscape:connector-curvature="0" />
      <path
         sodipodi:nodetypes="ccccsc"
         id="path6807"
         d="m 315.52053,499.32608 c -76.46006,69.24869 -114.08847,289.77188 -28.53785,394.42187 72.97429,53.88712 170.31789,100.40847 267.10772,-5.78034 -62.08969,-20.69942 -78.13991,-158.73129 -170.21158,-66.79115 48.74541,-42.33405 60.12546,-74.74098 52.77523,-103.5151 C 419.70195,651.29855 303.12003,604.25933 315.52053,499.32608 z"
         style="fill:none;stroke:#000000;stroke-width:4;stroke-linecap:butt;stroke-linejoin:miter;stroke-miterlimit:4;stroke-opacity:1;stroke-dasharray:none"
         inkscape:connector-curvature="0" />
      <path
         sodipodi:nodetypes="cccc"
         id="path6809"
         d="m 268.74118,642.00827 c -12.57234,92.95019 1.10646,130.71141 5.52164,187.94796 0.24026,-77.66929 1.29884,-155.00677 18.3813,-225.84672 -9.02426,6.14983 -17.61618,14.95239 -23.90294,37.89876 z"
         style="opacity:0.37244897;fill:#ffffff;fill-rule:evenodd;stroke:none"
         inkscape:connector-curvature="0" />
      <path
         sodipodi:nodetypes="cccc"
         id="path6811"
         d="m 370.77353,690.69058 c -4.4776,80.80785 -42.70845,50.61624 -71.86392,100.06799 33.96801,-69.84807 61.72872,-39.23505 63.17977,-145.68336 5.39657,9.49394 5.93651,27.40652 8.68415,45.61537 z"
         style="opacity:0.45408164;fill:#ffffff;fill-rule:evenodd;stroke:none"
         inkscape:connector-curvature="0" />
      <path
         sodipodi:nodetypes="cccc"
         id="path6813"
         d="m 474.31915,824.68685 c 38.71722,48.06886 -137.14635,22.19359 -137.02106,65.22777 9.92051,-40.79373 139.57589,-4.80698 153.93134,-40.91211 -8.45306,-17.1654 -11.02347,-19.81079 -16.91028,-24.31566 z"
         style="opacity:0.35714285;fill:#ffffff;fill-rule:evenodd;stroke:none"
         inkscape:connector-curvature="0" />
    </g>
    <path
       style="fill:#000000;fill-rule:evenodd;stroke:#000000;stroke-width:1px;stroke-linecap:butt;stroke-linejoin:miter;stroke-opacity:1"
       d="m 266.25,259.40601 c -8.19419,-5.38991 -16.67793,-9.62162 -27.5,-4.5 6.63577,-1.66362 15.53371,-0.49954 27.5,4.5 z"
       id="path14432"
       sodipodi:nodetypes="ccc"
       inkscape:connector-curvature="0" />
    <g
       id="g6733"
       transform="matrix(0.8819324,0.2533912,-0.2765638,0.8080374,346.5966,-453.50213)">
      <path
         sodipodi:nodetypes="ccccc"
         id="path5311"
         d="M 314.71168,501.5923 C 238.25161,570.841 200.6232,791.36418 286.17383,896.01416 359.14812,949.9013 456.49171,996.42264 553.28155,890.23383 491.19185,869.5344 476.61392,731.3961 383.06996,823.44268 549.46441,680.88655 306.23903,661.32793 314.71168,501.5923 z"
         style="fill:#2a7fff;fill-rule:evenodd;stroke:#000000;stroke-width:4;stroke-linecap:butt;stroke-linejoin:miter;stroke-miterlimit:4;stroke-opacity:1;stroke-dasharray:none"
         inkscape:connector-curvature="0" />
      <path
         sodipodi:nodetypes="cccccssscc"
         id="path5323"
         d="m 248.25843,799.29559 c -0.13897,-95.16257 -0.7798,-166.75998 43.85352,-196.74782 l 11.65279,151.10555 c 5.90807,-109.23817 23.07439,-129.6847 28.57166,-142.56536 18.21236,-23.16994 74.22474,103.36538 11.99554,140.67338 0,0 64.10253,6.98888 94.51833,-31.81074 5.07612,-6.4753 -42.56764,-61.2978 -89.03972,-118.17054 -18.92857,-23.16486 -34.1811,-50.19824 -35.76367,-69.75125 -1.39598,-17.24761 -0.33407,-21.88256 -2.19309,-24.5748 -70.80901,74.33583 -79.73986,211.27537 -63.59536,291.84158 z"
         style="fill:#0044aa;fill-rule:evenodd;stroke:none"
         inkscape:connector-curvature="0" />
      <path
         sodipodi:nodetypes="cccc"
         id="path5327"
         d="m 432.00841,706.9156 c 12.31207,19.71856 7.98516,66.45832 -50.51536,115.01102 2.1901,-22.87937 -65.14897,9.46057 -80.86018,-4.56178 28.02153,-7.26925 130.59507,-3.58005 131.37554,-110.44924 z"
         style="fill:#0044aa;fill-rule:evenodd;stroke:none"
         inkscape:connector-curvature="0" />
      <path
         sodipodi:nodetypes="cccc"
         id="path5349"
         d="m 423.44241,765.07613 -78.09192,96.89882 67.90095,-54.95092 10.19097,-41.9479 z"
         style="fill:#0044aa;fill-rule:evenodd;stroke:none"
         inkscape:connector-curvature="0" />
      <path
         sodipodi:nodetypes="cccccscc"
         id="path5407"
         d="m 351.33816,930.09708 c 37.77489,5.45124 62.84271,34.41108 124.79051,-4.85847 86.07462,-43.51573 -43.12617,-35.2759 -101.24867,-47.83966 60.32988,-2.75984 108.16661,-7.84766 116.17433,-28.55226 -20.92034,-50.73709 -94.92294,-51.05986 -90.02426,-4.71949 -14.5954,-34.73334 30.17919,-67.75161 65.58897,-40.6171 19.35266,14.82993 41.32307,46.41763 84.06156,89.66399 -116.65994,99.83253 -179.49407,43.29073 -199.34244,36.92299 z"
         style="fill:#0044aa;fill-rule:evenodd;stroke:none"
         inkscape:connector-curvature="0" />
      <path
         sodipodi:nodetypes="ccccsc"
         id="path5331"
         d="m 315.52053,499.32608 c -76.46006,69.24869 -114.08847,289.77188 -28.53785,394.42187 72.97429,53.88712 170.31789,100.40847 267.10772,-5.78034 -62.08969,-20.69942 -78.13991,-158.73129 -170.21158,-66.79115 48.74541,-42.33405 60.12546,-74.74098 52.77523,-103.5151 C 419.70195,651.29855 303.12003,604.25933 315.52053,499.32608 z"
         style="fill:none;stroke:#000000;stroke-width:4;stroke-linecap:butt;stroke-linejoin:miter;stroke-miterlimit:4;stroke-opacity:1;stroke-dasharray:none"
         inkscape:connector-curvature="0" />
      <path
         sodipodi:nodetypes="cccc"
         id="path5384"
         d="m 268.74118,642.00827 c -12.57234,92.95019 1.10646,130.71141 5.52164,187.94796 0.24026,-77.66929 1.29884,-155.00677 18.3813,-225.84672 -9.02426,6.14983 -17.61618,14.95239 -23.90294,37.89876 z"
         style="opacity:0.37244897;fill:#ffffff;fill-rule:evenodd;stroke:none"
         inkscape:connector-curvature="0" />
      <path
         sodipodi:nodetypes="cccc"
         id="path5388"
         d="m 370.77353,690.69058 c -4.4776,80.80785 -42.70845,50.61624 -71.86392,100.06799 33.96801,-69.84807 61.72872,-39.23505 63.17977,-145.68336 5.39657,9.49394 5.93651,27.40652 8.68415,45.61537 z"
         style="opacity:0.45408164;fill:#ffffff;fill-rule:evenodd;stroke:none"
         inkscape:connector-curvature="0" />
      <path
         sodipodi:nodetypes="cccc"
         id="path5411"
         d="m 474.31915,824.68685 c 38.71722,48.06886 -137.14635,22.19359 -137.02106,65.22777 9.92051,-40.79373 139.57589,-4.80698 153.93134,-40.91211 -8.45306,-17.1654 -11.02347,-19.81079 -16.91028,-24.31566 z"
         style="opacity:0.35714285;fill:#ffffff;fill-rule:evenodd;stroke:none"
         inkscape:connector-curvature="0" />
    </g>
    <path
       style="fill:#de87aa;fill-rule:evenodd;stroke:#000000;stroke-width:3;stroke-linecap:butt;stroke-linejoin:miter;stroke-miterlimit:4;stroke-opacity:1;stroke-dasharray:none"
       d="m 336.38603,332.06313 c -78.31508,52.6141 15.36867,120.19103 56.82132,141.49633 27.2792,-38.7567 27.34713,-146.28874 -56.82132,-141.49633 z"
       id="path4573"
       sodipodi:nodetypes="ccc"
       inkscape:connector-curvature="0" />
    <path
       style="opacity:0.2595745;fill:#000000;fill-rule:evenodd;stroke:#000000;stroke-width:1.00032687;stroke-linecap:butt;stroke-linejoin:miter;stroke-miterlimit:4;stroke-opacity:1;stroke-dasharray:none"
       d="m 386.0803,221.19892 c -69.83192,71.55532 17.17518,135.58496 55.86143,132.22897 -7.34562,2.54943 -4.25613,31.12059 -11.32472,29.62665 -28.39213,-6.00067 -71.43008,-42.42872 -88.54974,-79.82254 -10.61495,-23.18581 -7.34818,-46.74292 3.70794,-63.6483 l 40.30509,-18.38478 z"
       id="path6839"
       sodipodi:nodetypes="ccsscc"
       transform="matrix(0.9242793,0,0,0.8468362,-2.7425173,147.24028)"
       inkscape:connector-curvature="0" />
    <path
       style="fill:#de87aa;fill-rule:evenodd;stroke:#000000;stroke-width:3;stroke-linecap:butt;stroke-linejoin:miter;stroke-miterlimit:4;stroke-opacity:1;stroke-dasharray:none"
       d="m 310.78223,306.49083 c 27.78745,-12.57082 65.57419,-1.52565 32.44691,43.5581 -31.01418,11.26047 -98.69033,-18.78396 -32.44691,-43.5581 z"
       id="path4571"
       sodipodi:nodetypes="ccc"
       inkscape:connector-curvature="0" />
    <path
       style="opacity:0.24276602;fill:#000000;fill-rule:evenodd;stroke:#000000;stroke-width:1px;stroke-linecap:butt;stroke-linejoin:miter;stroke-opacity:1;filter:url(#filter6973)"
       d="m 357.44248,185.13647 c -36.81694,24.89413 -18.97124,40.67782 17.32411,53.38657 -46.34601,10.69781 -73.16632,-11.88785 -62.57895,-31.46626 l 45.25484,-21.92031 z"
       id="path6837"
       sodipodi:nodetypes="cccc"
       transform="matrix(0.9242793,0,0,0.8468362,-2.7425173,147.24028)"
       inkscape:connector-curvature="0" />
    <path
       style="fill:#dbe3db;fill-rule:evenodd;stroke:#000000;stroke-width:2.94765282;stroke-linecap:butt;stroke-linejoin:miter;stroke-miterlimit:4;stroke-opacity:1;stroke-dasharray:none"
       d="m 278.22108,279.84332 c -5.83859,-13.77054 -36.74991,-27.68279 -44.57417,-1.52698 4.66859,26.56741 42.26997,18.82896 44.57417,1.52698 z"
       id="path4550"
       sodipodi:nodetypes="ccc"
       inkscape:connector-curvature="0" />
    <path
       style="fill:#000000;fill-rule:evenodd;stroke:#000000;stroke-width:0.77035737px;stroke-linecap:butt;stroke-linejoin:miter;stroke-opacity:1"
       d="m 273.60475,292.7786 c 9.00447,-2.6819 15.26407,-1.42632 27.21981,3.98169 l 5.72178,-3.90841 c -6.39361,9.672 -23.15927,3.63027 -32.94159,-0.0733 z"
       id="path3644"
       sodipodi:nodetypes="cccc"
       inkscape:connector-curvature="0" />
    <path
       style="fill:#de87aa;fill-rule:evenodd;stroke:#000000;stroke-width:3;stroke-linecap:butt;stroke-linejoin:miter;stroke-miterlimit:4;stroke-opacity:1;stroke-dasharray:none"
       d="m 284.9277,239.46181 c -27.57104,0.65045 -81.68546,58.81837 -23.84176,84.34247 107.45879,-2.8948 77.63056,-77.49222 23.84176,-84.34247 z"
       id="path4485"
       sodipodi:nodetypes="ccc"
       inkscape:connector-curvature="0" />
    <path
       style="fill:#dbe3db;fill-rule:evenodd;stroke:#000000;stroke-width:2.65413237;stroke-linecap:butt;stroke-linejoin:miter;stroke-miterlimit:4;stroke-opacity:1;stroke-dasharray:none"
       d="m 309.71197,278.61566 c -5.83858,-13.77054 -36.74989,-27.68279 -44.57416,-1.52698 4.66859,26.56741 42.26997,18.82896 44.57416,1.52698 z"
       id="path6248"
       sodipodi:nodetypes="ccc"
       inkscape:connector-curvature="0" />
    <g
       id="g4552"
       transform="matrix(0.9242793,0,0,0.8468362,5.6935594,89.27099)">
      <path
         sodipodi:nodetypes="ccc"
         id="path4540"
         d="m 329.82374,223.00822 c 33.23041,-26.13903 44.68807,17.76303 24.29924,13.26839 36.06951,2.56295 3.52365,-42.25237 -24.29924,-13.26839 z"
         style="fill:#000000;fill-rule:evenodd;stroke:#000000;stroke-width:1px;stroke-linecap:butt;stroke-linejoin:miter;stroke-opacity:1"
         inkscape:connector-curvature="0" />
      <path
         sodipodi:nodetypes="ccc"
         id="path4542"
         d="m 328.18848,220.15669 c 12.33205,-40.44044 42.95019,-7.53321 23.65008,0.42996 31.06416,-18.50937 -17.38137,-40.1148 -23.65008,-0.42996 z"
         style="fill:#000000;fill-rule:evenodd;stroke:#000000;stroke-width:1px;stroke-linecap:butt;stroke-linejoin:miter;stroke-opacity:1"
         inkscape:connector-curvature="0" />
      <path
         sodipodi:nodetypes="ccc"
         id="path4544"
         d="m 326.26135,216.43779 c -1.65489,-42.24655 30.93076,-20.96492 15.3235,-7.09699 23.24817,-27.69658 -22.45588,-32.44176 -15.3235,7.09699 z"
         style="fill:#000000;fill-rule:evenodd;stroke:#000000;stroke-width:1px;stroke-linecap:butt;stroke-linejoin:miter;stroke-opacity:1"
         inkscape:connector-curvature="0" />
    </g>
    <path
       sodipodi:type="arc"
       style="color:#000000;fill:#000000;fill-opacity:1;fill-rule:evenodd;stroke:none;stroke-width:3;marker:none;visibility:visible;display:inline;overflow:visible;enable-background:accumulate"
       id="path4546"
       sodipodi:cx="368.03369"
       sodipodi:cy="253.14539"
       sodipodi:rx="10.487589"
       sodipodi:ry="18.393618"
       d="m 378.52128,253.14539 c 0,10.15851 -4.69545,18.39361 -10.48759,18.39361 -5.79213,0 -10.48759,-8.2351 -10.48759,-18.39361 0,-10.15852 4.69546,-18.39362 10.48759,-18.39362 5.79214,0 10.48759,8.2351 10.48759,18.39362 z"
       transform="matrix(0.7109841,0,0,0.594271,21.707849,132.43819)" />
    <path
       sodipodi:type="arc"
       style="color:#000000;fill:#dbe3db;fill-opacity:1;fill-rule:evenodd;stroke:none;stroke-width:3;marker:none;visibility:visible;display:inline;overflow:visible;enable-background:accumulate"
       id="path4548"
       sodipodi:cx="370.1312"
       sodipodi:cy="251.04787"
       sodipodi:rx="4.1950355"
       sodipodi:ry="12.423759"
       d="m 374.32623,251.04787 c 0,6.86145 -1.87818,12.42376 -4.19503,12.42376 -2.31686,0 -4.19504,-5.56231 -4.19504,-12.42376 0,-6.86146 1.87818,-12.42376 4.19504,-12.42376 2.31685,0 4.19503,5.5623 4.19503,12.42376 z"
       transform="matrix(0.9242793,0,0,0.8468362,-54.555032,63.856896)" />
    <g
       id="g4557"
       transform="matrix(-0.9242793,0,0,0.8468362,548.45446,78.363586)">
      <path
         sodipodi:nodetypes="ccc"
         id="path4559"
         d="m 329.82374,223.00822 c 33.23041,-26.13903 44.68807,17.76303 24.29924,13.26839 36.06951,2.56295 3.52365,-42.25237 -24.29924,-13.26839 z"
         style="fill:#000000;fill-rule:evenodd;stroke:#000000;stroke-width:1px;stroke-linecap:butt;stroke-linejoin:miter;stroke-opacity:1"
         inkscape:connector-curvature="0" />
      <path
         sodipodi:nodetypes="ccc"
         id="path4561"
         d="m 328.18848,220.15669 c 12.33205,-40.44044 42.95019,-7.53321 23.65008,0.42996 31.06416,-18.50937 -17.38137,-40.1148 -23.65008,-0.42996 z"
         style="fill:#000000;fill-rule:evenodd;stroke:#000000;stroke-width:1px;stroke-linecap:butt;stroke-linejoin:miter;stroke-opacity:1"
         inkscape:connector-curvature="0" />
      <path
         sodipodi:nodetypes="ccc"
         id="path4563"
         d="m 326.26135,216.43779 c -1.65489,-42.24655 30.93076,-20.96492 15.3235,-7.09699 23.24817,-27.69658 -22.45588,-32.44176 -15.3235,7.09699 z"
         style="fill:#000000;fill-rule:evenodd;stroke:#000000;stroke-width:1px;stroke-linecap:butt;stroke-linejoin:miter;stroke-opacity:1"
         inkscape:connector-curvature="0" />
    </g>
    <path
       style="opacity:0.40851063;fill:#000000;fill-rule:evenodd;stroke:#000000;stroke-width:1px;stroke-linecap:butt;stroke-linejoin:miter;stroke-opacity:1;filter:url(#filter6953)"
       d="m 305.9149,108.25532 c 64.03674,37.60887 64.66621,119.40622 -43.40954,76.52633 6.18935,10.51729 5.13713,18.06283 24.56979,22.98717 135.23195,-4.3599 56.18493,-106.49602 18.83975,-99.5135 z"
       id="path6835"
       sodipodi:nodetypes="cccc"
       transform="matrix(0.9242793,0,0,0.8468362,-2.7425173,147.24028)"
       inkscape:connector-curvature="0" />
    <path
       style="fill:#aa0000;fill-rule:evenodd;stroke:#000000;stroke-width:0.88471079px;stroke-linecap:butt;stroke-linejoin:miter;stroke-opacity:1"
       d="m 249.07437,305.6131 c 0.37619,-6.23169 48.82782,13.75572 62.69238,-12.75217 -7.97623,16.35617 -35.50925,22.34416 -58.89615,17.00325 -4.49532,-1.04712 -3.54503,-2.7179 -3.79623,-4.25108 z"
       id="path4565"
       sodipodi:nodetypes="cccc"
       inkscape:connector-curvature="0" />
    <path
       sodipodi:type="arc"
       style="opacity:0.19148937;color:#000000;fill:#550000;fill-opacity:1;fill-rule:evenodd;stroke:none;stroke-width:3;marker:none;visibility:visible;display:inline;overflow:visible;enable-background:accumulate"
       id="path11202"
       sodipodi:cx="301.05072"
       sodipodi:cy="288.02051"
       sodipodi:rx="9.0156116"
       sodipodi:ry="8.1317282"
       d="m 310.06633,288.02051 c 0,4.49103 -4.03642,8.13173 -9.01561,8.13173 -4.97918,0 -9.01561,-3.6407 -9.01561,-8.13173 0,-4.49103 4.03643,-8.13173 9.01561,-8.13173 4.97919,0 9.01561,3.6407 9.01561,8.13173 z"
       transform="matrix(0.9665455,0,0,0.947464,21.338749,22.441267)" />
    <path
       style="fill:#d40000;fill-rule:evenodd;stroke:#000000;stroke-width:0.88471079px;stroke-linecap:butt;stroke-linejoin:miter;stroke-opacity:1"
       d="m 304.33067,301.55525 c -8.64655,14.42324 -23.31623,13.28289 -45.97662,16.42463 -7.7272,-4.05631 -3.27625,-4.92469 -4.00714,-7.14955 17.3282,1.55653 42.50146,0.94483 49.98376,-9.27508 z"
       id="path4567"
       sodipodi:nodetypes="cccc"
       inkscape:connector-curvature="0" />
    <path
       style="fill:#000000;fill-rule:evenodd;stroke:#000000;stroke-width:0.39406955px;stroke-linecap:butt;stroke-linejoin:miter;stroke-opacity:1"
       d="m 309.4575,291.93719 c 1.32603,0.66289 2.70466,0.25034 3.88495,3.89439 -0.8241,-4.69046 -2.29154,-4.74624 -3.88495,-3.89439 z"
       id="path4569"
       sodipodi:nodetypes="ccc"
       inkscape:connector-curvature="0" />
    <path
       style="opacity:0.30212767;fill:#ffffff;fill-rule:evenodd;stroke:none;filter:url(#filter7009)"
       d="m 437.11331,352.45732 c -2.82843,0 -10.14214,-3 -10.14214,-3 18.39082,-60.99013 -15.96177,-95.26802 -38.76955,-124.01576 28.39114,23.78143 55.42537,62.81822 48.91169,127.01576 z"
       id="path6841"
       sodipodi:nodetypes="cccc"
       transform="matrix(0.9242793,0,0,0.8468362,-2.7425173,147.24028)"
       inkscape:connector-curvature="0" />
    <path
       style="opacity:0.21702127;fill:#ffffff;fill-rule:evenodd;stroke:none;filter:url(#filter6917)"
       d="m 308.5,111 15,11 c -28.49957,-3.2172 -52.89866,10.82031 -63.5,51 1.54486,-23.93315 13.07367,-49.58747 48.5,-62 z"
       id="path6843"
       sodipodi:nodetypes="cccc"
       transform="matrix(0.9242793,0,0,0.8468362,-2.7425173,147.24028)"
       inkscape:connector-curvature="0" />
    <path
       style="opacity:0.32765958;fill:#ffffff;fill-rule:evenodd;stroke:none"
       d="m 287.58858,305.98277 c -12.44964,1.28349 -24.68952,3.3209 -38.05773,1.30276 -0.95884,-2.16749 0.39625,-3.20086 4.59109,-2.84239 10.55146,1.13287 22.31109,1.25228 33.46664,1.53963 z"
       id="path9258"
       sodipodi:nodetypes="cccc"
       inkscape:connector-curvature="0" />
    <path
       sodipodi:type="arc"
       style="opacity:0.64680852;color:#000000;fill:#ffffff;fill-opacity:1;fill-rule:evenodd;stroke:none;stroke-width:3;marker:none;visibility:visible;display:inline;overflow:visible;enable-background:accumulate"
       id="path10229"
       sodipodi:cx="265.78375"
       sodipodi:cy="273.78998"
       sodipodi:rx="4.3310289"
       sodipodi:ry="3.800699"
       d="m 270.11478,273.78998 c 0,2.09907 -1.93907,3.8007 -4.33103,3.8007 -2.39196,0 -4.33103,-1.70163 -4.33103,-3.8007 0,-2.09907 1.93907,-3.8007 4.33103,-3.8007 2.39196,0 4.33103,1.70163 4.33103,3.8007 z"
       transform="matrix(0.4274766,-0.866876,0.5547899,0.2735797,11.718612,441.09559)" />
    <path
       style="fill:#ffffff;fill-rule:evenodd;stroke:none"
       d="m 278.51232,289.79083 c 2.99513,3.399 6.51673,3.1854 10.42262,0.33497 -3.47421,1.19297 -6.94841,1.58132 -10.42262,-0.33497 z"
       id="path10231"
       sodipodi:nodetypes="ccc"
       inkscape:connector-curvature="0" />
    <path
       style="fill:#000000;fill-rule:evenodd;stroke:#000000;stroke-width:0.95695716px;stroke-linecap:butt;stroke-linejoin:miter;stroke-opacity:1"
       d="M 89.930024,79.894179 C 43.041983,32.098344 -12.026464,160.22703 82.680933,96.001065 -10.504129,134.94614 53.083038,49.181196 89.930024,79.894179 z"
       id="path12252"
       sodipodi:nodetypes="ccc"
       inkscape:connector-curvature="0" />
    <path
       style="fill:#000000;fill-rule:evenodd;stroke:#000000;stroke-width:0.95695716px;stroke-linecap:butt;stroke-linejoin:miter;stroke-opacity:1"
       d="M 483.94428,40.946996 C 477.9432,-25.101295 612.69513,18.289141 501.09812,46.160107 592.24084,2.8189036 484.49775,-6.4620224 483.94428,40.946996 z"
       id="path12254"
       sodipodi:nodetypes="ccc"
       inkscape:connector-curvature="0" />
    <path
       style="fill:#000000;fill-rule:evenodd;stroke:#000000;stroke-width:0.95695716px;stroke-linecap:butt;stroke-linejoin:miter;stroke-opacity:1"
       d="M 151.30566,466.45948 C 64.169947,477.68353 81.445009,359.57205 119.89293,434.2457 101.7145,390.46792 76.518159,474.02099 151.30566,466.45948 z"
       id="path12256"
       sodipodi:nodetypes="ccc"
       inkscape:connector-curvature="0" />
    <path
       style="fill:#000000;fill-rule:evenodd;stroke:#000000;stroke-width:0.95695716px;stroke-linecap:butt;stroke-linejoin:miter;stroke-opacity:1"
       d="m 562.44721,418.84042 c 85.12218,-21.43055 24.17041,-124.71272 16.89577,-41.37152 0.21743,-47.26506 55.37549,21.05537 -16.89577,41.37152 z"
       id="path12258"
       sodipodi:nodetypes="ccc"
       inkscape:connector-curvature="0" />
    <path
       style="fill:#000000;fill-rule:evenodd;stroke:#000000;stroke-width:1;stroke-linecap:butt;stroke-linejoin:miter;stroke-miterlimit:4;stroke-opacity:1;stroke-dasharray:none"
       d="M 261.13707,251.38364 C 256.77212,72.362393 44.48091,164.63794 194.9438,181.89679 51.157754,146.66218 262.63174,104.32924 261.13707,251.38364 z"
       id="path12319"
       sodipodi:nodetypes="ccc"
       inkscape:connector-curvature="0" />
    <path
       style="fill:#000000;fill-rule:evenodd;stroke:#000000;stroke-width:1;stroke-linecap:butt;stroke-linejoin:miter;stroke-miterlimit:4;stroke-opacity:1;stroke-dasharray:none"
       d="M 303.57312,256.00335 C 352.77163,86.245565 153.93397,100.29541 270.51536,168.03003 164.62737,85.685769 348.09438,118.29755 303.57312,256.00335 z"
       id="path12374"
       sodipodi:nodetypes="ccc"
       inkscape:connector-curvature="0" />
    <path
       style="fill:#000000;fill-rule:evenodd;stroke:#000000;stroke-width:1px;stroke-linecap:butt;stroke-linejoin:miter;stroke-opacity:1"
       d="m 301,260.5 c -8.19419,-5.38991 -16.67793,-9.62162 -27.5,-4.5 6.63577,-1.66362 15.53371,-0.49954 27.5,4.5 z"
       id="path14430"
       sodipodi:nodetypes="ccc"
       inkscape:connector-curvature="0" />
  </g>
</svg>
