<?xml version="1.0" encoding="UTF-8" standalone="no"?>
<!-- Created with Inkscape (http://www.inkscape.org/) -->

<svg
   xmlns:dc="http://purl.org/dc/elements/1.1/"
   xmlns:cc="http://creativecommons.org/ns#"
   xmlns:rdf="http://www.w3.org/1999/02/22-rdf-syntax-ns#"
   xmlns:svg="http://www.w3.org/2000/svg"
   xmlns="http://www.w3.org/2000/svg"
   xmlns:sodipodi="http://sodipodi.sourceforge.net/DTD/sodipodi-0.dtd"
   xmlns:inkscape="http://www.inkscape.org/namespaces/inkscape"
   width="464.81699"
   height="540.32745"
   id="svg3223"
   sodipodi:version="0.32"
   inkscape:version="0.48.3.1 r9886"
   version="1.0"
   sodipodi:docname="cerezas.svg"
   inkscape:output_extension="org.inkscape.output.svg.inkscape"
   sodipodi:modified="true">
  <defs
     id="defs3225" />
  <sodipodi:namedview
     id="base"
     pagecolor="#ffffff"
     bordercolor="#666666"
     borderopacity="1.0"
     inkscape:pageopacity="0.0"
     inkscape:pageshadow="2"
     inkscape:zoom="0.66880516"
     inkscape:cx="283.40468"
     inkscape:cy="299.84888"
     inkscape:current-layer="layer1"
     inkscape:document-units="px"
     width="480px"
     height="640px"
     inkscape:window-width="1024"
     inkscape:window-height="662"
     inkscape:window-x="0"
     inkscape:window-y="48"
     showgrid="false"
     fit-margin-top="0"
     fit-margin-left="0"
     fit-margin-right="0"
     fit-margin-bottom="0"
     inkscape:window-maximized="0" />
  <metadata
     id="metadata3228">
    <rdf:RDF>
      <cc:Work
         rdf:about="">
        <dc:format>image/svg+xml</dc:format>
        <dc:type
           rdf:resource="http://purl.org/dc/dcmitype/StillImage" />
        <dc:title></dc:title>
      </cc:Work>
    </rdf:RDF>
  </metadata>
  <g
     id="layer1"
     inkscape:label="Layer 1"
     inkscape:groupmode="layer"
     transform="translate(-6.6697568,-54.357017)">
    <path
       style="color:#000000;fill:#aa0000;fill-opacity:1;fill-rule:evenodd;stroke:#000000;stroke-width:7.53958273;stroke-linecap:butt;stroke-linejoin:miter;stroke-miterlimit:4;stroke-opacity:1;stroke-dasharray:none;stroke-dashoffset:0;marker:none;visibility:visible;display:inline;overflow:visible;enable-background:accumulate"
       d="m 467.62906,464.3739 c 0,61.24118 -52.31892,110.94416 -116.78332,110.94416 -64.46439,0 -115.05425,-49.72739 -116.78332,-110.94416 -1.86118,-65.89411 40.10767,-103.18187 114.83693,-101.21221 69.61019,1.83474 121.24231,25.6648 118.72971,101.21221 z"
       id="path3246"
       sodipodi:nodetypes="csssc"
       inkscape:connector-curvature="0" />
    <path
       style="opacity:0.11499999;fill:#000000;fill-opacity:1;fill-rule:evenodd;stroke:none"
       d="M 391.11915,372.5931 C 477.48797,483.2877 355.4342,559.57202 239.6632,504.91777 369.48561,708.85437 584.64263,419.99437 391.11915,372.5931 z"
       id="path3288"
       sodipodi:nodetypes="ccc"
       inkscape:connector-curvature="0" />
    <path
       style="fill:#000000;fill-rule:evenodd;stroke:#000000;stroke-width:1.50791645px;stroke-linecap:butt;stroke-linejoin:miter;stroke-opacity:1"
       d="m 319.81572,393.02088 c 19.56453,-25.13908 20.8074,18.69316 70.47863,1.80167 -41.96039,16.34802 -56.50912,-14.09394 -70.47863,-1.80167 z"
       id="path3248"
       sodipodi:nodetypes="ccc"
       inkscape:connector-curvature="0" />
    <path
       style="color:#000000;fill:#aa0000;fill-opacity:1;fill-rule:evenodd;stroke:#000000;stroke-width:7.53958273;stroke-linecap:butt;stroke-linejoin:miter;stroke-miterlimit:4;stroke-opacity:1;stroke-dasharray:none;stroke-dashoffset:0;marker:none;visibility:visible;display:inline;overflow:visible;enable-background:accumulate"
       d="m 297.9667,479.9705 c 0,61.24117 -52.31893,110.94415 -116.78332,110.94415 -64.4644,0 -115.054259,-49.72739 -116.783327,-110.94415 -1.861176,-65.89412 40.107667,-103.18187 114.836937,-101.21222 69.61019,1.83474 121.2423,25.6648 118.72971,101.21222 z"
       id="path3241"
       sodipodi:nodetypes="csssc"
       inkscape:connector-curvature="0" />
    <path
       style="fill:#000000;fill-rule:evenodd;stroke:#000000;stroke-width:1.63426316px;stroke-linecap:butt;stroke-linejoin:miter;stroke-opacity:1"
       d="m 153.67921,410.86323 c 19.60262,-28.41927 23.6781,18.92964 76.36987,-2.44137 -44.38252,20.30261 -62.02071,-11.72913 -76.36987,2.44137 z"
       id="path3244"
       sodipodi:nodetypes="ccc"
       inkscape:connector-curvature="0" />
    <path
       style="fill:#502d16;fill-rule:evenodd;stroke:#000000;stroke-width:6.0316658;stroke-linecap:butt;stroke-linejoin:miter;stroke-miterlimit:4;stroke-opacity:1;stroke-dasharray:none"
       d="m 182.78674,410.60055 13.73188,1.46001 c 13.39284,-111.37791 83.74184,-201.76584 157.2566,-221.42303 -21.65815,51.74967 -28.1106,128.78309 -2.10745,202.77491 l 15.30261,3.38195 c -38.99359,-84.7688 -13.22151,-174.2511 6.50549,-210.44418 22.0093,-19.11999 27.1183,-15.70309 40.97308,-26.66858 -8.9213,-24.48225 -22.80071,-19.21585 -34.67107,-26.00319 l -27.24122,34.67057 C 239.45765,228.30546 190.2903,314.35277 182.78674,410.60055 z"
       id="path3262"
       sodipodi:nodetypes="cccccccccc"
       inkscape:connector-curvature="0" />
    <path
       style="opacity:0.11499999;fill:#000000;fill-opacity:1;fill-rule:evenodd;stroke:none"
       d="M 226.50672,387.89481 C 312.87554,498.5894 190.82177,574.87372 75.050784,520.21947 204.87318,724.15607 420.0302,435.29607 226.50672,387.89481 z"
       id="path3264"
       sodipodi:nodetypes="ccc"
       inkscape:connector-curvature="0" />
    <path
       style="opacity:0.27999998;fill:#ffffff;fill-rule:evenodd;stroke:none"
       d="m 113.31334,400.25042 14.9463,10.36278 c -20.14608,1.53347 -32.8553,14.22226 -40.255386,34.87471 0.114089,-15.39322 -2.054973,-30.87258 25.309086,-45.23749 z"
       id="path3290"
       sodipodi:nodetypes="cccc"
       inkscape:connector-curvature="0" />
    <path
       style="fill:#008000;fill-rule:evenodd;stroke:#000000;stroke-width:6.0316658;stroke-linecap:butt;stroke-linejoin:miter;stroke-miterlimit:4;stroke-opacity:1;stroke-dasharray:none"
       d="M 350.86001,171.07369 C 243.41271,153.42226 106.04246,264.01328 9.6855897,126.43405 176.78172,-9.9686718 262.07357,83.069288 350.86001,171.07369 z"
       id="path3292"
       sodipodi:nodetypes="ccc"
       inkscape:connector-curvature="0" />
    <path
       style="opacity:0.81000001;fill:#000000;fill-rule:evenodd;stroke:#000000;stroke-width:1.50791645px;stroke-linecap:butt;stroke-linejoin:miter;stroke-opacity:1"
       d="M 337.30868,168.68228 C 250.80878,99.70439 129.31731,136.37185 86.210693,120.05695 151.19861,138.24002 248.68916,89.528083 341.29436,163.89946 l -3.98568,4.78282 z"
       id="path3294"
       sodipodi:nodetypes="cccc"
       inkscape:connector-curvature="0" />
  </g>
</svg>
