<?xml version="1.0" encoding="UTF-8" standalone="no"?>
<!-- Created with Inkscape (http://www.inkscape.org/) -->

<svg
   xmlns:dc="http://purl.org/dc/elements/1.1/"
   xmlns:cc="http://creativecommons.org/ns#"
   xmlns:rdf="http://www.w3.org/1999/02/22-rdf-syntax-ns#"
   xmlns:svg="http://www.w3.org/2000/svg"
   xmlns="http://www.w3.org/2000/svg"
   xmlns:sodipodi="http://sodipodi.sourceforge.net/DTD/sodipodi-0.dtd"
   xmlns:inkscape="http://www.inkscape.org/namespaces/inkscape"
   width="456.9834"
   height="532.48419"
   id="svg2160"
   sodipodi:version="0.32"
   inkscape:version="0.48.3.1 r9886"
   version="1.0"
   sodipodi:docname="manzana.svg"
   inkscape:output_extension="org.inkscape.output.svg.inkscape"
   sodipodi:modified="true">
  <defs
     id="defs2162" />
  <sodipodi:namedview
     id="base"
     pagecolor="#ffffff"
     bordercolor="#666666"
     borderopacity="1.0"
     inkscape:pageopacity="0.0"
     inkscape:pageshadow="2"
     inkscape:zoom="0.73067701"
     inkscape:cx="432.17589"
     inkscape:cy="299.54439"
     inkscape:current-layer="g3169"
     inkscape:document-units="px"
     width="480px"
     height="640px"
     inkscape:window-width="1022"
     inkscape:window-height="702"
     inkscape:window-x="0"
     inkscape:window-y="48"
     showgrid="false"
     inkscape:window-maximized="0"
     fit-margin-top="0"
     fit-margin-left="0"
     fit-margin-right="0"
     fit-margin-bottom="0" />
  <metadata
     id="metadata2165">
    <rdf:RDF>
      <cc:Work
         rdf:about="">
        <dc:format>image/svg+xml</dc:format>
        <dc:type
           rdf:resource="http://purl.org/dc/dcmitype/StillImage" />
        <dc:title></dc:title>
      </cc:Work>
    </rdf:RDF>
  </metadata>
  <g
     id="layer1"
     inkscape:label="Layer 1"
     inkscape:groupmode="layer"
     transform="translate(-15.271066,-59.301575)">
    <g
       id="g3169"
       transform="matrix(1.6210727,0,0,1.6878264,-215.7335,-52.981336)">
      <path
         sodipodi:nodetypes="ccc"
         id="path2170"
         d="M 274.94319,375.82888 C 132.03331,413.223 70.104464,79.417599 281.40331,153.64544 494.55795,74.312639 444.20123,421.87508 274.94319,375.82888 z"
         style="fill:#95ff17;fill-opacity:1;fill-rule:evenodd;stroke:#000000;stroke-width:4;stroke-linecap:butt;stroke-linejoin:miter;stroke-miterlimit:4;stroke-opacity:1;stroke-dasharray:none"
         inkscape:connector-curvature="0" />
      <path
         sodipodi:nodetypes="ccccc"
         id="path3151"
         d="m 278.77845,161.84527 c -18.36941,-41.68795 -12.35234,-75.653509 46.45162,-92.903223 5.11139,-1.972029 8.11363,2.780443 7.74193,7.741935 -31.86941,22.130641 -77.61821,27.626768 -50.08064,86.129028 -1.93483,4.18827 -2.75775,-0.51872 -4.11291,-0.96774 z"
         style="fill:#800000;fill-rule:evenodd;stroke:#000000;stroke-width:4;stroke-linecap:butt;stroke-linejoin:miter;stroke-miterlimit:4;stroke-opacity:1;stroke-dasharray:none"
         inkscape:connector-curvature="0" />
      <path
         sodipodi:nodetypes="ccc"
         id="path3153"
         d="m 258.45587,162.57108 c 21.12904,16.36515 25.56452,-5.5436 50.32259,-4.59678 -23.54074,-2.21312 -31.43085,11.81167 -50.32259,4.59678 z"
         style="fill:#000000;fill-rule:evenodd;stroke:#000000;stroke-width:1px;stroke-linecap:butt;stroke-linejoin:miter;stroke-opacity:1"
         inkscape:connector-curvature="0" />
      <path
         sodipodi:nodetypes="cccc"
         id="path3165"
         d="m 298.13329,149.7485 c 140.95885,89.26411 65.50289,234.08137 -119.03226,188.70967 30.83589,38.10682 62.47851,41.85459 97.74194,35.80645 164.70644,40.70756 204.35335,-283.4563 21.29032,-224.51612 z"
         style="opacity:0.13636367;fill:#000000;fill-rule:evenodd;stroke:#000000;stroke-width:1px;stroke-linecap:butt;stroke-linejoin:miter;stroke-opacity:1"
         inkscape:connector-curvature="0" />
      <path
         sodipodi:nodetypes="cccc"
         id="path3167"
         d="m 207.16555,155.07108 12.58065,16.45161 c -23.13236,-0.7497 -43.03445,6.03791 -50.80646,41.12903 -3.36625,-22.60202 0.79518,-48.44545 38.22581,-57.58064 z"
         style="opacity:0.31313129;fill:#ffffff;fill-rule:evenodd;stroke:none"
         inkscape:connector-curvature="0" />
    </g>
    <path
       style="opacity:0.24747476;fill:#000000;fill-rule:evenodd;stroke:#000000;stroke-width:1px;stroke-linecap:butt;stroke-linejoin:miter;stroke-opacity:1"
       d="m 318.19805,69.980695 c -47.56666,17.897737 -90.43459,40.494205 -93.06437,103.328825 13.03817,-50.37549 53.5874,-74.858207 97.17015,-96.485857 l -4.10578,-6.842968 z"
       id="path3176"
       sodipodi:nodetypes="cccc"
       inkscape:connector-curvature="0" />
  </g>
</svg>
