<?xml version="1.0" encoding="UTF-8" standalone="no"?>
<!-- Created with Inkscape (http://www.inkscape.org/) -->

<svg
   xmlns:dc="http://purl.org/dc/elements/1.1/"
   xmlns:cc="http://creativecommons.org/ns#"
   xmlns:rdf="http://www.w3.org/1999/02/22-rdf-syntax-ns#"
   xmlns:svg="http://www.w3.org/2000/svg"
   xmlns="http://www.w3.org/2000/svg"
   xmlns:xlink="http://www.w3.org/1999/xlink"
   xmlns:sodipodi="http://sodipodi.sourceforge.net/DTD/sodipodi-0.dtd"
   xmlns:inkscape="http://www.inkscape.org/namespaces/inkscape"
   width="492.27551"
   height="381.3334"
   id="svg2246"
   sodipodi:version="0.32"
   inkscape:version="0.48.3.1 r9886"
   sodipodi:docname="sandia.svg"
   inkscape:output_extension="org.inkscape.output.svg.inkscape"
   sodipodi:modified="true"
   version="1.1">
  <defs
     id="defs2248">
    <linearGradient
       inkscape:collect="always"
       id="linearGradient3550">
      <stop
         style="stop-color:#000000;stop-opacity:1;"
         offset="0"
         id="stop3552" />
      <stop
         style="stop-color:#000000;stop-opacity:0;"
         offset="1"
         id="stop3554" />
    </linearGradient>
    <linearGradient
       inkscape:collect="always"
       xlink:href="#linearGradient3550"
       id="linearGradient3556"
       x1="540.79596"
       y1="530.28986"
       x2="318.60321"
       y2="284.38821"
       gradientUnits="userSpaceOnUse" />
    <linearGradient
       inkscape:collect="always"
       xlink:href="#linearGradient3550"
       id="linearGradient3583"
       gradientUnits="userSpaceOnUse"
       x1="540.79596"
       y1="530.28986"
       x2="318.60321"
       y2="284.38821" />
    <linearGradient
       inkscape:collect="always"
       xlink:href="#linearGradient3550"
       id="linearGradient3633"
       gradientUnits="userSpaceOnUse"
       x1="540.79596"
       y1="530.28986"
       x2="318.60321"
       y2="284.38821" />
    <linearGradient
       inkscape:collect="always"
       xlink:href="#linearGradient3550"
       id="linearGradient3323"
       gradientUnits="userSpaceOnUse"
       x1="540.79596"
       y1="530.28986"
       x2="318.60321"
       y2="284.38821"
       gradientTransform="matrix(0.7823926,0,0,0.7823926,169.67683,-129.26761)" />
    <linearGradient
       inkscape:collect="always"
       xlink:href="#linearGradient3550"
       id="linearGradient3353"
       gradientUnits="userSpaceOnUse"
       gradientTransform="matrix(0.7823926,0,0,0.7823926,169.67683,-129.26761)"
       x1="540.79596"
       y1="530.28986"
       x2="318.60321"
       y2="284.38821" />
    <linearGradient
       inkscape:collect="always"
       xlink:href="#linearGradient3550"
       id="linearGradient3403"
       gradientUnits="userSpaceOnUse"
       gradientTransform="matrix(0.7823926,0,0,0.7823926,169.67683,-129.26761)"
       x1="540.79596"
       y1="530.28986"
       x2="318.60321"
       y2="284.38821" />
  </defs>
  <sodipodi:namedview
     id="base"
     pagecolor="#ffffff"
     bordercolor="#666666"
     borderopacity="1.0"
     inkscape:pageopacity="0.0"
     inkscape:pageshadow="2"
     inkscape:zoom="0.50833333"
     inkscape:cx="336.79976"
     inkscape:cy="323.25092"
     inkscape:current-layer="layer1"
     inkscape:document-units="px"
     inkscape:window-width="958"
     inkscape:window-height="690"
     inkscape:window-x="32"
     inkscape:window-y="48"
     showgrid="false"
     inkscape:window-maximized="0"
     fit-margin-top="0"
     fit-margin-left="0"
     fit-margin-right="0"
     fit-margin-bottom="0" />
  <metadata
     id="metadata2251">
    <rdf:RDF>
      <cc:Work
         rdf:about="">
        <dc:format>image/svg+xml</dc:format>
        <dc:type
           rdf:resource="http://purl.org/dc/dcmitype/StillImage" />
        <dc:title></dc:title>
      </cc:Work>
    </rdf:RDF>
  </metadata>
  <g
     id="layer1"
     inkscape:label="Layer 1"
     inkscape:groupmode="layer"
     transform="translate(-107.29789,-69.00545)">
    <g
       id="g3488"
       transform="matrix(1.6021446,-0.527321,0.527321,1.6021446,-68.870045,3.8344842)" />
    <g
       id="g3355"
       transform="matrix(0.3945061,0.9188933,-0.9188933,0.3945061,206.65648,-133.6259)">
      <path
         sodipodi:nodetypes="ccc"
         id="path3357"
         d="M 408.86521,-119.34701 C 533.91718,47.361916 394.95669,198.95736 248.79543,196.17527 492.62878,428.26323 785.75426,-30.826903 408.86521,-119.34701 z"
         style="fill:#008000;fill-rule:evenodd;stroke:#000000;stroke-width:1;stroke-linecap:butt;stroke-linejoin:miter;stroke-miterlimit:4;stroke-opacity:1;stroke-dasharray:none"
         inkscape:connector-curvature="0" />
      <path
         sodipodi:nodetypes="ccc"
         id="path3359"
         d="M 413.48266,-113.19047 C 525.45195,53.518447 399.57414,190.49213 259.56937,196.17527 501.16301,400.49475 751.19022,-26.613726 413.48266,-113.19047 z"
         style="fill:#ffffff;fill-rule:evenodd;stroke:#000000;stroke-width:1;stroke-linecap:butt;stroke-linejoin:miter;stroke-miterlimit:4;stroke-opacity:1;stroke-dasharray:none"
         inkscape:connector-curvature="0" />
      <path
         sodipodi:nodetypes="ccc"
         id="path3361"
         d="M 417.33046,-106.26437 C 518.63802,59.259909 397.25496,183.47937 269.57368,194.63614 487.34959,389.74959 734.1509,-21.76797 417.33046,-106.26437 z"
         style="fill:#800000;fill-rule:evenodd;stroke:#000000;stroke-width:1;stroke-linecap:butt;stroke-linejoin:miter;stroke-miterlimit:4;stroke-opacity:1;stroke-dasharray:none"
         inkscape:connector-curvature="0" />
      <path
         sodipodi:nodetypes="ccc"
         id="path3363"
         d="M 417.33046,-106.26437 C 518.63802,59.259909 397.25496,183.47937 269.57368,194.63614 487.34959,389.74959 734.1509,-21.76797 417.33046,-106.26437 z"
         style="opacity:0.61499999;fill:url(#linearGradient3403);fill-opacity:1;fill-rule:evenodd;stroke:none"
         inkscape:connector-curvature="0" />
      <path
         sodipodi:nodetypes="ccc"
         id="path3365"
         d="m 409.78158,-119.26325 c 102.30015,144.618106 27.73499,300.43466 -158.5307,317.0614 264.26895,-8.57084 239.06946,-245.680327 158.5307,-317.0614 z"
         style="opacity:0.28999999;fill:#000000;fill-rule:evenodd;stroke:#000000;stroke-width:1;stroke-linecap:butt;stroke-linejoin:miter;stroke-miterlimit:4;stroke-opacity:1;stroke-dasharray:none"
         inkscape:connector-curvature="0" />
      <g
         style="stroke-width:0.75777298;stroke-miterlimit:4;stroke-dasharray:none"
         transform="matrix(0.9914053,-0.8709815,0.8709815,0.9914053,58.876307,-19.807552)"
         id="g3367">
        <path
           style="fill:#000000;fill-rule:evenodd;stroke:#000000;stroke-width:0.75777298;stroke-linecap:butt;stroke-linejoin:miter;stroke-miterlimit:4;stroke-opacity:1;stroke-dasharray:none"
           d="m 142.92831,285.95135 c 0.59459,4.35446 6.00278,12.85451 0,13.56254 -5.124,-0.65319 -0.81756,-9.13375 0,-13.56254 z"
           id="path3369"
           sodipodi:nodetypes="ccc"
           inkscape:connector-curvature="0" />
        <path
           style="opacity:0.275;fill:#ffffff;fill-rule:evenodd;stroke:none"
           d="m 142.92831,286.1687 c 1.24133,5.04904 5.94928,11.67015 0.0869,13.60601 3.02321,-4.53534 0.17882,-9.07067 -0.0869,-13.60601 z"
           id="path3371"
           sodipodi:nodetypes="ccc"
           inkscape:connector-curvature="0" />
      </g>
      <g
         style="stroke-width:0.75777292;stroke-miterlimit:4;stroke-dasharray:none"
         transform="matrix(0.5665768,-1.1918406,1.1918406,0.5665768,58.267785,106.2096)"
         id="g3373">
        <path
           style="fill:#000000;fill-rule:evenodd;stroke:#000000;stroke-width:0.75777292;stroke-linecap:butt;stroke-linejoin:miter;stroke-miterlimit:4;stroke-opacity:1;stroke-dasharray:none"
           d="m 142.92831,285.95135 c 0.59459,4.35446 6.00278,12.85451 0,13.56254 -5.124,-0.65319 -0.81756,-9.13375 0,-13.56254 z"
           id="path3375"
           sodipodi:nodetypes="ccc"
           inkscape:connector-curvature="0" />
        <path
           style="opacity:0.275;fill:#ffffff;fill-rule:evenodd;stroke:none"
           d="m 142.92831,286.1687 c 1.24133,5.04904 5.94928,11.67015 0.0869,13.60601 3.02321,-4.53534 0.17882,-9.07067 -0.0869,-13.60601 z"
           id="path3377"
           sodipodi:nodetypes="ccc"
           inkscape:connector-curvature="0" />
      </g>
      <g
         style="stroke-width:0.75777298;stroke-miterlimit:4;stroke-dasharray:none"
         transform="matrix(-0.1715059,-1.3084643,1.3084643,-0.1715059,142.56221,282.2267)"
         id="g3379">
        <path
           style="fill:#000000;fill-rule:evenodd;stroke:#000000;stroke-width:0.75777298;stroke-linecap:butt;stroke-linejoin:miter;stroke-miterlimit:4;stroke-opacity:1;stroke-dasharray:none"
           d="m 142.92831,285.95135 c 0.59459,4.35446 6.00278,12.85451 0,13.56254 -5.124,-0.65319 -0.81756,-9.13375 0,-13.56254 z"
           id="path3381"
           sodipodi:nodetypes="ccc"
           inkscape:connector-curvature="0" />
        <path
           style="opacity:0.275;fill:#ffffff;fill-rule:evenodd;stroke:none"
           d="m 142.92831,286.1687 c 1.24133,5.04904 5.94928,11.67015 0.0869,13.60601 3.02321,-4.53534 0.17882,-9.07067 -0.0869,-13.60601 z"
           id="path3383"
           sodipodi:nodetypes="ccc"
           inkscape:connector-curvature="0" />
      </g>
      <g
         style="stroke-width:0.75777298;stroke-miterlimit:4;stroke-dasharray:none"
         transform="matrix(-0.6622429,-1.1414585,1.1414585,-0.6622429,256.5995,345.62418)"
         id="g3385">
        <path
           style="fill:#000000;fill-rule:evenodd;stroke:#000000;stroke-width:0.75777298;stroke-linecap:butt;stroke-linejoin:miter;stroke-miterlimit:4;stroke-opacity:1;stroke-dasharray:none"
           d="m 142.92831,285.95135 c 0.59459,4.35446 6.00278,12.85451 0,13.56254 -5.124,-0.65319 -0.81756,-9.13375 0,-13.56254 z"
           id="path3387"
           sodipodi:nodetypes="ccc"
           inkscape:connector-curvature="0" />
        <path
           style="opacity:0.275;fill:#ffffff;fill-rule:evenodd;stroke:none"
           d="m 142.92831,286.1687 c 1.24133,5.04904 5.94928,11.67015 0.0869,13.60601 3.02321,-4.53534 0.17882,-9.07067 -0.0869,-13.60601 z"
           id="path3389"
           sodipodi:nodetypes="ccc"
           inkscape:connector-curvature="0" />
      </g>
      <g
         style="stroke-width:0.75777292;stroke-miterlimit:4;stroke-dasharray:none"
         transform="matrix(1.3178856,0.06834401,-0.06834401,1.3178856,204.18617,-194.02656)"
         id="g3391">
        <path
           style="fill:#000000;fill-rule:evenodd;stroke:#000000;stroke-width:0.75777292;stroke-linecap:butt;stroke-linejoin:miter;stroke-miterlimit:4;stroke-opacity:1;stroke-dasharray:none"
           d="m 142.92831,285.95135 c 0.59459,4.35446 6.00278,12.85451 0,13.56254 -5.124,-0.65319 -0.81756,-9.13375 0,-13.56254 z"
           id="path3393"
           sodipodi:nodetypes="ccc"
           inkscape:connector-curvature="0" />
        <path
           style="opacity:0.275;fill:#ffffff;fill-rule:evenodd;stroke:none"
           d="m 142.92831,286.1687 c 1.24133,5.04904 5.94928,11.67015 0.0869,13.60601 3.02321,-4.53534 0.17882,-9.07067 -0.0869,-13.60601 z"
           id="path3395"
           sodipodi:nodetypes="ccc"
           inkscape:connector-curvature="0" />
      </g>
      <g
         style="stroke-width:0.75777298;stroke-miterlimit:4;stroke-dasharray:none"
         transform="matrix(1.2316843,-0.4737584,0.4737584,1.2316843,99.618899,-112.51006)"
         id="g3397">
        <path
           style="fill:#000000;fill-rule:evenodd;stroke:#000000;stroke-width:0.75777298;stroke-linecap:butt;stroke-linejoin:miter;stroke-miterlimit:4;stroke-opacity:1;stroke-dasharray:none"
           d="m 142.92831,285.95135 c 0.59459,4.35446 6.00278,12.85451 0,13.56254 -5.124,-0.65319 -0.81756,-9.13375 0,-13.56254 z"
           id="path3399"
           sodipodi:nodetypes="ccc"
           inkscape:connector-curvature="0" />
        <path
           style="opacity:0.275;fill:#ffffff;fill-rule:evenodd;stroke:none"
           d="m 142.92831,286.1687 c 1.24133,5.04904 5.94928,11.67015 0.0869,13.60601 3.02321,-4.53534 0.17882,-9.07067 -0.0869,-13.60601 z"
           id="path3401"
           sodipodi:nodetypes="ccc"
           inkscape:connector-curvature="0" />
      </g>
    </g>
    <g
       id="g3328"
       transform="translate(9.8360656,188.85246)">
      <path
         sodipodi:nodetypes="ccc"
         id="path3472"
         d="M 408.86521,-119.34701 C 533.91718,47.361916 394.95669,198.95736 248.79543,196.17527 492.62878,428.26323 785.75426,-30.826903 408.86521,-119.34701 z"
         style="fill:#008000;fill-rule:evenodd;stroke:#000000;stroke-width:1;stroke-linecap:butt;stroke-linejoin:miter;stroke-miterlimit:4;stroke-opacity:1;stroke-dasharray:none"
         inkscape:connector-curvature="0" />
      <path
         sodipodi:nodetypes="ccc"
         id="path3474"
         d="M 413.48266,-113.19047 C 525.45195,53.518447 399.57414,190.49213 259.56937,196.17527 501.16301,400.49475 751.19022,-26.613726 413.48266,-113.19047 z"
         style="fill:#ffffff;fill-rule:evenodd;stroke:#000000;stroke-width:1;stroke-linecap:butt;stroke-linejoin:miter;stroke-miterlimit:4;stroke-opacity:1;stroke-dasharray:none"
         inkscape:connector-curvature="0" />
      <path
         sodipodi:nodetypes="ccc"
         id="path3476"
         d="M 417.33046,-106.26437 C 518.63802,59.259909 397.25496,183.47937 269.57368,194.63614 487.34959,389.74959 734.1509,-21.76797 417.33046,-106.26437 z"
         style="fill:#800000;fill-rule:evenodd;stroke:#000000;stroke-width:1;stroke-linecap:butt;stroke-linejoin:miter;stroke-miterlimit:4;stroke-opacity:1;stroke-dasharray:none"
         inkscape:connector-curvature="0" />
      <path
         sodipodi:nodetypes="ccc"
         id="path3540"
         d="M 417.33046,-106.26437 C 518.63802,59.259909 397.25496,183.47937 269.57368,194.63614 487.34959,389.74959 734.1509,-21.76797 417.33046,-106.26437 z"
         style="opacity:0.61499999;fill:url(#linearGradient3353);fill-opacity:1;fill-rule:evenodd;stroke:none"
         inkscape:connector-curvature="0" />
      <path
         sodipodi:nodetypes="ccc"
         id="path3478"
         d="m 409.78158,-119.26325 c 102.30015,144.618106 27.73499,300.43466 -158.5307,317.0614 264.26895,-8.57084 239.06946,-245.680327 158.5307,-317.0614 z"
         style="opacity:0.28999999;fill:#000000;fill-rule:evenodd;stroke:#000000;stroke-width:1;stroke-linecap:butt;stroke-linejoin:miter;stroke-miterlimit:4;stroke-opacity:1;stroke-dasharray:none"
         inkscape:connector-curvature="0" />
      <g
         style="stroke-width:0.75777298;stroke-miterlimit:4;stroke-dasharray:none"
         transform="matrix(0.9914053,-0.8709815,0.8709815,0.9914053,58.876307,-19.807552)"
         id="g3494">
        <path
           style="fill:#000000;fill-rule:evenodd;stroke:#000000;stroke-width:0.75777298;stroke-linecap:butt;stroke-linejoin:miter;stroke-miterlimit:4;stroke-opacity:1;stroke-dasharray:none"
           d="m 142.92831,285.95135 c 0.59459,4.35446 6.00278,12.85451 0,13.56254 -5.124,-0.65319 -0.81756,-9.13375 0,-13.56254 z"
           id="path3496"
           sodipodi:nodetypes="ccc"
           inkscape:connector-curvature="0" />
        <path
           style="opacity:0.275;fill:#ffffff;fill-rule:evenodd;stroke:none"
           d="m 142.92831,286.1687 c 1.24133,5.04904 5.94928,11.67015 0.0869,13.60601 3.02321,-4.53534 0.17882,-9.07067 -0.0869,-13.60601 z"
           id="path3498"
           sodipodi:nodetypes="ccc"
           inkscape:connector-curvature="0" />
      </g>
      <g
         style="stroke-width:0.75777292;stroke-miterlimit:4;stroke-dasharray:none"
         transform="matrix(0.5665768,-1.1918406,1.1918406,0.5665768,58.267785,106.2096)"
         id="g3500">
        <path
           style="fill:#000000;fill-rule:evenodd;stroke:#000000;stroke-width:0.75777292;stroke-linecap:butt;stroke-linejoin:miter;stroke-miterlimit:4;stroke-opacity:1;stroke-dasharray:none"
           d="m 142.92831,285.95135 c 0.59459,4.35446 6.00278,12.85451 0,13.56254 -5.124,-0.65319 -0.81756,-9.13375 0,-13.56254 z"
           id="path3502"
           sodipodi:nodetypes="ccc"
           inkscape:connector-curvature="0" />
        <path
           style="opacity:0.275;fill:#ffffff;fill-rule:evenodd;stroke:none"
           d="m 142.92831,286.1687 c 1.24133,5.04904 5.94928,11.67015 0.0869,13.60601 3.02321,-4.53534 0.17882,-9.07067 -0.0869,-13.60601 z"
           id="path3504"
           sodipodi:nodetypes="ccc"
           inkscape:connector-curvature="0" />
      </g>
      <g
         style="stroke-width:0.75777298;stroke-miterlimit:4;stroke-dasharray:none"
         transform="matrix(-0.1715059,-1.3084643,1.3084643,-0.1715059,142.56221,282.2267)"
         id="g3506">
        <path
           style="fill:#000000;fill-rule:evenodd;stroke:#000000;stroke-width:0.75777298;stroke-linecap:butt;stroke-linejoin:miter;stroke-miterlimit:4;stroke-opacity:1;stroke-dasharray:none"
           d="m 142.92831,285.95135 c 0.59459,4.35446 6.00278,12.85451 0,13.56254 -5.124,-0.65319 -0.81756,-9.13375 0,-13.56254 z"
           id="path3508"
           sodipodi:nodetypes="ccc"
           inkscape:connector-curvature="0" />
        <path
           style="opacity:0.275;fill:#ffffff;fill-rule:evenodd;stroke:none"
           d="m 142.92831,286.1687 c 1.24133,5.04904 5.94928,11.67015 0.0869,13.60601 3.02321,-4.53534 0.17882,-9.07067 -0.0869,-13.60601 z"
           id="path3510"
           sodipodi:nodetypes="ccc"
           inkscape:connector-curvature="0" />
      </g>
      <g
         style="stroke-width:0.75777298;stroke-miterlimit:4;stroke-dasharray:none"
         transform="matrix(-0.6622429,-1.1414585,1.1414585,-0.6622429,256.5995,345.62418)"
         id="g3512">
        <path
           style="fill:#000000;fill-rule:evenodd;stroke:#000000;stroke-width:0.75777298;stroke-linecap:butt;stroke-linejoin:miter;stroke-miterlimit:4;stroke-opacity:1;stroke-dasharray:none"
           d="m 142.92831,285.95135 c 0.59459,4.35446 6.00278,12.85451 0,13.56254 -5.124,-0.65319 -0.81756,-9.13375 0,-13.56254 z"
           id="path3514"
           sodipodi:nodetypes="ccc"
           inkscape:connector-curvature="0" />
        <path
           style="opacity:0.275;fill:#ffffff;fill-rule:evenodd;stroke:none"
           d="m 142.92831,286.1687 c 1.24133,5.04904 5.94928,11.67015 0.0869,13.60601 3.02321,-4.53534 0.17882,-9.07067 -0.0869,-13.60601 z"
           id="path3516"
           sodipodi:nodetypes="ccc"
           inkscape:connector-curvature="0" />
      </g>
      <g
         style="stroke-width:0.75777292;stroke-miterlimit:4;stroke-dasharray:none"
         transform="matrix(1.3178856,0.06834401,-0.06834401,1.3178856,204.18617,-194.02656)"
         id="g3518">
        <path
           style="fill:#000000;fill-rule:evenodd;stroke:#000000;stroke-width:0.75777292;stroke-linecap:butt;stroke-linejoin:miter;stroke-miterlimit:4;stroke-opacity:1;stroke-dasharray:none"
           d="m 142.92831,285.95135 c 0.59459,4.35446 6.00278,12.85451 0,13.56254 -5.124,-0.65319 -0.81756,-9.13375 0,-13.56254 z"
           id="path3520"
           sodipodi:nodetypes="ccc"
           inkscape:connector-curvature="0" />
        <path
           style="opacity:0.275;fill:#ffffff;fill-rule:evenodd;stroke:none"
           d="m 142.92831,286.1687 c 1.24133,5.04904 5.94928,11.67015 0.0869,13.60601 3.02321,-4.53534 0.17882,-9.07067 -0.0869,-13.60601 z"
           id="path3522"
           sodipodi:nodetypes="ccc"
           inkscape:connector-curvature="0" />
      </g>
      <g
         style="stroke-width:0.75777298;stroke-miterlimit:4;stroke-dasharray:none"
         transform="matrix(1.2316843,-0.4737584,0.4737584,1.2316843,99.618899,-112.51006)"
         id="g3534">
        <path
           style="fill:#000000;fill-rule:evenodd;stroke:#000000;stroke-width:0.75777298;stroke-linecap:butt;stroke-linejoin:miter;stroke-miterlimit:4;stroke-opacity:1;stroke-dasharray:none"
           d="m 142.92831,285.95135 c 0.59459,4.35446 6.00278,12.85451 0,13.56254 -5.124,-0.65319 -0.81756,-9.13375 0,-13.56254 z"
           id="path3536"
           sodipodi:nodetypes="ccc"
           inkscape:connector-curvature="0" />
        <path
           style="opacity:0.275;fill:#ffffff;fill-rule:evenodd;stroke:none"
           d="m 142.92831,286.1687 c 1.24133,5.04904 5.94928,11.67015 0.0869,13.60601 3.02321,-4.53534 0.17882,-9.07067 -0.0869,-13.60601 z"
           id="path3538"
           sodipodi:nodetypes="ccc"
           inkscape:connector-curvature="0" />
      </g>
    </g>
  </g>
</svg>
