<?xml version="1.0" encoding="UTF-8" standalone="no"?>
<!-- Created with Inkscape (http://www.inkscape.org/) -->

<svg
   xmlns:dc="http://purl.org/dc/elements/1.1/"
   xmlns:cc="http://creativecommons.org/ns#"
   xmlns:rdf="http://www.w3.org/1999/02/22-rdf-syntax-ns#"
   xmlns:svg="http://www.w3.org/2000/svg"
   xmlns="http://www.w3.org/2000/svg"
   xmlns:xlink="http://www.w3.org/1999/xlink"
   xmlns:sodipodi="http://sodipodi.sourceforge.net/DTD/sodipodi-0.dtd"
   xmlns:inkscape="http://www.inkscape.org/namespaces/inkscape"
   width="628.25861"
   height="401.48898"
   id="svg2160"
   sodipodi:version="0.32"
   inkscape:version="0.48.3.1 r9886"
   sodipodi:docname="ballena.svg"
   inkscape:output_extension="org.inkscape.output.svg.inkscape"
   version="1.1">
  <defs
     id="defs2162">
    <linearGradient
       inkscape:collect="always"
       id="linearGradient4579">
      <stop
         style="stop-color:#ffffff;stop-opacity:1;"
         offset="0"
         id="stop4581" />
      <stop
         style="stop-color:#ffffff;stop-opacity:0;"
         offset="1"
         id="stop4583" />
    </linearGradient>
    <linearGradient
       inkscape:collect="always"
       xlink:href="#linearGradient4579"
       id="linearGradient4585"
       x1="-123.31207"
       y1="-118.3347"
       x2="187.32025"
       y2="212.06972"
       gradientUnits="userSpaceOnUse" />
  </defs>
  <sodipodi:namedview
     id="base"
     pagecolor="#ffffff"
     bordercolor="#666666"
     borderopacity="1.0"
     inkscape:pageopacity="0.0"
     inkscape:pageshadow="2"
     inkscape:zoom="0.5478135"
     inkscape:cx="517.46409"
     inkscape:cy="208.69035"
     inkscape:current-layer="layer1"
     inkscape:document-units="px"
     inkscape:window-width="1022"
     inkscape:window-height="703"
     inkscape:window-x="0"
     inkscape:window-y="48"
     showguides="true"
     inkscape:guide-bbox="true"
     showgrid="false"
     fit-margin-top="0"
     fit-margin-left="0"
     fit-margin-right="0"
     fit-margin-bottom="0"
     inkscape:window-maximized="0" />
  <metadata
     id="metadata2165">
    <rdf:RDF>
      <cc:Work
         rdf:about="">
        <dc:format>image/svg+xml</dc:format>
        <dc:type
           rdf:resource="http://purl.org/dc/dcmitype/StillImage" />
        <dc:title></dc:title>
        <dc:date>01022008</dc:date>
        <dc:creator>
          <cc:Agent>
            <dc:title>Vladimir Zúñiga C</dc:title>
          </cc:Agent>
        </dc:creator>
      </cc:Work>
    </rdf:RDF>
  </metadata>
  <g
     id="layer1"
     inkscape:label="Layer 1"
     inkscape:groupmode="layer"
     transform="translate(-9.9449697,-54.497405)">
    <path
       style="fill:#003380;fill-rule:evenodd;stroke:#000000;stroke-width:1.55317569px;stroke-linecap:butt;stroke-linejoin:miter;stroke-opacity:1"
       d="m 147.83863,343.38382 c 10.63921,-0.98645 33.82856,-5.02551 33.82856,-5.02551 -23.5118,76.15652 57.77775,121.24602 57.81799,101.5499 2.1734,-48.85356 16.91066,-95.33563 -35.71368,-114.93275 l 7.31306,-3.70031"
       id="path2190"
       sodipodi:nodetypes="ccccc"
       inkscape:connector-curvature="0" />
    <path
       style="opacity:0.54893619;fill:#000000;fill-rule:evenodd;stroke:#000000;stroke-width:1.55317569px;stroke-linecap:butt;stroke-linejoin:miter;stroke-opacity:1"
       d="m 147.83863,343.38382 c 10.63921,-0.98645 33.82856,-5.02551 33.82856,-5.02551 -23.5118,76.15652 57.77775,121.24602 57.81799,101.5499 2.1734,-48.85356 16.91066,-95.33563 -35.71368,-114.93275 l 7.31306,-3.70031"
       id="path3453"
       sodipodi:nodetypes="ccccc"
       inkscape:connector-curvature="0" />
    <path
       style="fill:#0044aa;fill-rule:evenodd;stroke:#000000;stroke-width:2.99507236;stroke-linecap:butt;stroke-linejoin:miter;stroke-miterlimit:4;stroke-opacity:1;stroke-dasharray:none"
       d="M 438.67891,316.81433 C 343.15579,198.63334 -53.124651,-222.8863 20.507508,348.07043 l 29.809061,6.87651 c -5.860588,2.1118 -6.67129,11.00295 0.212734,17.3879 192.882087,-29.71993 269.822197,118.3472 406.593137,0.94945 25.55669,-21.62919 44.03272,-35.14927 77.75452,-17.1337 3.5497,6.39434 0.86759,39.24185 44.98863,50.94318 31.58443,-8.75302 9.43351,-33.63854 -7.0139,-59.02334 43.16802,-46.84296 82.52238,-117.39962 54.35769,-132.94574 -27.5383,12.43317 -145.86945,149.66613 -188.53047,101.68964 z"
       id="path2178"
       sodipodi:nodetypes="cccccccccc"
       inkscape:connector-curvature="0" />
    <path
       style="fill:url(#linearGradient4585);fill-opacity:1;fill-rule:evenodd;stroke:#000000;stroke-width:2.99507236;stroke-linecap:butt;stroke-linejoin:miter;stroke-miterlimit:4;stroke-opacity:1;stroke-dasharray:none"
       d="M 438.67891,316.81433 C 343.15579,198.63334 -53.124651,-222.8863 20.507508,348.07043 l 29.809061,6.87651 c -5.860588,2.1118 -6.67129,11.00295 0.212734,17.3879 192.882087,-29.71993 269.822197,118.3472 406.593137,0.94945 25.55669,-21.62919 44.03272,-35.14927 77.75452,-17.1337 3.5497,6.39434 0.86759,39.24185 44.98863,50.94318 31.58443,-8.75302 9.43351,-33.63854 -7.0139,-59.02334 43.16802,-46.84296 82.52238,-117.39962 54.35769,-132.94574 -27.5383,12.43317 -145.86945,149.66613 -188.53047,101.68964 z"
       id="path4577"
       sodipodi:nodetypes="cccccccccc"
       inkscape:connector-curvature="0" />
    <path
       style="opacity:0.31063831;fill:#ffffff;fill-rule:evenodd;stroke:none"
       d="m 193.583,319.3827 c 75.88729,39.49667 144.04896,138.15599 289.27115,34.43027 -33.14559,23.2442 -63.94386,59.39777 -119.54332,62.44179 C 298.46926,425.43655 237.59872,390.7646 174.84709,375.35818 121.39906,367.16746 87.433491,368.8454 52.097674,372.49295 41.448283,364.9397 46.891062,359.13941 49.617885,353.04327 96.816943,364.70899 143.44783,342.60676 193.583,319.3827 z"
       id="path3353"
       sodipodi:nodetypes="ccccccc"
       inkscape:connector-curvature="0" />
    <path
       style="fill:#000000;fill-rule:evenodd;stroke:#000000;stroke-width:1.46827292px;stroke-linecap:butt;stroke-linejoin:miter;stroke-opacity:1"
       d="m 185.12631,306.90794 c 3.22056,1.30254 5.5688,2.93943 7.24987,4.8321 4.36798,4.91777 4.23164,11.56228 3.18899,18.5542 -0.40755,-15.80903 -6.36105,-17.15125 -10.43886,-23.3863 z"
       id="path2184"
       sodipodi:nodetypes="cscc"
       inkscape:connector-curvature="0" />
    <path
       style="fill:#000000;fill-rule:evenodd;stroke:#000000;stroke-width:1.55317569px;stroke-linecap:butt;stroke-linejoin:miter;stroke-opacity:1"
       d="M 45.898218,354.66406 C 97.077091,363.11623 145.53855,343.15024 193.4455,317.3855 145.03935,345.03329 95.956316,359.40805 45.898218,354.66406 z"
       id="path2186"
       sodipodi:nodetypes="ccc"
       inkscape:connector-curvature="0" />
    <g
       id="g3463"
       transform="matrix(0.9828196,0,0,1.014141,7.3618136,-8.2889754)">
      <path
         sodipodi:nodetypes="ccc"
         id="path3361"
         d="m 166.44689,295.24543 c 14.43546,-4.91567 27.02394,-1.84258 35.68252,-16.10398 -5.77653,9.01509 -10.30006,18.77718 -35.68252,16.10398 z"
         style="fill:#000000;fill-rule:evenodd;stroke:#000000;stroke-width:1.55573106px;stroke-linecap:butt;stroke-linejoin:miter;stroke-opacity:1"
         inkscape:connector-curvature="0" />
      <path
         sodipodi:nodetypes="ccc"
         id="path3355"
         d="m 173.74854,293.73659 c -29.63096,-50.66883 -5.81213,-72.06022 5.67704,-70.32112 20.97065,23.96537 39.72706,71.93645 -5.67704,70.32112 z"
         style="fill:#ffffff;fill-rule:evenodd;stroke:#000000;stroke-width:3;stroke-linecap:butt;stroke-linejoin:miter;stroke-miterlimit:4;stroke-opacity:1;stroke-dasharray:none"
         inkscape:connector-curvature="0" />
      <path
         transform="matrix(1.3822073,0,0,1.7510392,-53.648982,26.195135)"
         d="m 177.52392,137.04568 c 0,7.4352 -2.65615,13.46262 -5.93267,13.46262 -3.27653,0 -5.93268,-6.02742 -5.93268,-13.46262 0,-7.43519 2.65615,-13.46261 5.93268,-13.46261 3.27652,0 5.93267,6.02742 5.93267,13.46261 z"
         sodipodi:ry="13.462611"
         sodipodi:rx="5.9326758"
         sodipodi:cy="137.04568"
         sodipodi:cx="171.59125"
         id="path3357"
         style="color:#000000;fill:#000000;fill-opacity:1;fill-rule:evenodd;stroke:none;stroke-width:3;marker:none;visibility:visible;display:inline;overflow:visible;enable-background:accumulate"
         sodipodi:type="arc" />
      <path
         transform="matrix(0.942414,0,0,2.5469662,-43.52777,-71.65944)"
         d="m 249.62875,129.97212 c 0,2.77245 -2.24751,5.01996 -5.01995,5.01996 -2.77245,0 -5.01996,-2.24751 -5.01996,-5.01996 0,-2.77244 2.24751,-5.01995 5.01996,-5.01995 2.77244,0 5.01995,2.24751 5.01995,5.01995 z"
         sodipodi:ry="5.0199566"
         sodipodi:rx="5.0199566"
         sodipodi:cy="129.97212"
         sodipodi:cx="244.6088"
         id="path3359"
         style="color:#000000;fill:#ffffff;fill-opacity:1;fill-rule:evenodd;stroke:none;stroke-width:3;marker:none;visibility:visible;display:inline;overflow:visible;enable-background:accumulate"
         sodipodi:type="arc" />
    </g>
    <path
       style="opacity:0.16595746;fill:#000000;fill-rule:evenodd;stroke:none"
       d="m 627.9268,216.57978 c 2.85264,39.90658 -32.8584,86.83538 -56.45286,131.55783 74.80555,-88.67817 67.23335,-117.72002 56.45286,-131.55783 z"
       id="path3432"
       sodipodi:nodetypes="ccc"
       inkscape:connector-curvature="0" />
    <path
       style="opacity:0.2851064;fill:#000000;fill-rule:evenodd;stroke:#000000;stroke-width:0.99835742px;stroke-linecap:butt;stroke-linejoin:miter;stroke-opacity:1"
       d="m 49.443405,353.37374 c -1.355144,5.67247 -7.092416,11.34496 2.537207,17.01742 57.171858,-5.5836 114.938838,-1.34126 173.798738,20.94453 99.20937,37.25392 181.93435,37.21732 237.22894,-24.87163 20.10475,-8.00581 28.95757,-29.9442 72.31042,-9.16323 7.3915,24.11852 15.83259,46.97343 43.13254,47.12518 17.08944,6.95946 19.88947,-16.10199 13.95465,-26.18064 L 572.74253,347.48309 C 642.17432,266.94661 642.1939,235.11463 627.9268,213.3072 461.22083,361.9745 455.33182,325.42872 440.17344,318.02984 355.99513,229.87376 275.96067,125.48092 162.34916,71.27712 559.04412,330.23656 262.68653,326.02472 49.443405,353.37374 z"
       id="path3436"
       sodipodi:nodetypes="cccccccccccc"
       inkscape:connector-curvature="0" />
    <path
       style="opacity:0.25531915;fill:#000000;fill-rule:evenodd;stroke:#000000;stroke-width:1.55317569px;stroke-linecap:butt;stroke-linejoin:miter;stroke-opacity:1"
       d="m 198.89349,322.34233 c 9.84675,4.65666 31.20802,20.81323 32.81736,15.55383 -37.55398,65.837 43.64532,132.32015 47.5158,113.2849 7.6866,-46.67726 34.06813,-68.68025 -13.01387,-105.12676 l 7.79248,-10.31628"
       id="path3451"
       sodipodi:nodetypes="ccccc"
       inkscape:connector-curvature="0" />
    <path
       style="fill:#003380;fill-rule:evenodd;stroke:#000000;stroke-width:2.99507236;stroke-linecap:butt;stroke-linejoin:miter;stroke-miterlimit:4;stroke-opacity:1;stroke-dasharray:none"
       d="m 198.89349,322.34233 c 9.84675,4.65666 31.20802,20.81323 32.81736,15.55383 -37.55398,65.837 43.64532,132.32015 47.5158,113.2849 7.6866,-46.67726 34.06813,-68.68025 -13.01387,-105.12676 l 7.79248,-10.31628"
       id="path2182"
       sodipodi:nodetypes="ccccc"
       inkscape:connector-curvature="0" />
    <path
       style="opacity:0.09787233;fill:#ffffff;fill-rule:evenodd;stroke:none"
       d="M 18.996911,320.64792 C 16.137733,115.60475 83.595423,45.058954 219.43633,105.31199 2.699342,-29.563224 2.1168049,162.99459 18.996911,320.64792 z"
       id="path3457"
       sodipodi:nodetypes="ccc"
       inkscape:connector-curvature="0" />
    <path
       style="opacity:0.05106381;fill:#ffffff;fill-rule:evenodd;stroke:none"
       d="m 275.88921,453.51477 c -33.29814,-33.28007 -54.62832,-69.76182 -42.49823,-115.19491 -11.23779,23.99893 -27.64075,76.79661 42.49823,115.19491 z"
       id="path3478"
       sodipodi:nodetypes="ccc"
       inkscape:connector-curvature="0" />
  </g>
</svg>
