<?xml version="1.0" encoding="UTF-8" standalone="no"?>
<!-- Created with Inkscape (http://www.inkscape.org/) -->

<svg
   xmlns:dc="http://purl.org/dc/elements/1.1/"
   xmlns:cc="http://creativecommons.org/ns#"
   xmlns:rdf="http://www.w3.org/1999/02/22-rdf-syntax-ns#"
   xmlns:svg="http://www.w3.org/2000/svg"
   xmlns="http://www.w3.org/2000/svg"
   xmlns:xlink="http://www.w3.org/1999/xlink"
   xmlns:sodipodi="http://sodipodi.sourceforge.net/DTD/sodipodi-0.dtd"
   xmlns:inkscape="http://www.inkscape.org/namespaces/inkscape"
   width="357.66473"
   height="331.57944"
   id="svg5600"
   version="1.1"
   inkscape:version="0.48.3.1 r9886"
   sodipodi:docname="ballena_2.svg">
  <title
     id="title5800">ballena_2</title>
  <defs
     id="defs5602">
    <linearGradient
       inkscape:collect="always"
       xlink:href="#linearGradient5357"
       id="linearGradient5564"
       gradientUnits="userSpaceOnUse"
       x1="214.02678"
       y1="840.29077"
       x2="338.20963"
       y2="962.63672" />
    <linearGradient
       inkscape:collect="always"
       id="linearGradient5357">
      <stop
         style="stop-color:#ffffff;stop-opacity:1;"
         offset="0"
         id="stop5359" />
      <stop
         style="stop-color:#ffffff;stop-opacity:0;"
         offset="1"
         id="stop5361" />
    </linearGradient>
    <pattern
       patternUnits="userSpaceOnUse"
       width="8.5714283"
       height="8.5714283"
       patternTransform="translate(102.5,879.86218)"
       id="pattern5310">
      <rect
         id="rect5308"
         y="0"
         x="0"
         height="8.5714283"
         width="8.5714283"
         style="fill:#ffffff;stroke:none" />
    </pattern>
  </defs>
  <sodipodi:namedview
     id="base"
     pagecolor="#ffffff"
     bordercolor="#666666"
     borderopacity="1.0"
     inkscape:pageopacity="0.0"
     inkscape:pageshadow="2"
     inkscape:zoom="0.35"
     inkscape:cx="-286.63723"
     inkscape:cy="112.53704"
     inkscape:document-units="px"
     inkscape:current-layer="g5533"
     showgrid="false"
     fit-margin-top="0"
     fit-margin-left="0"
     fit-margin-right="0"
     fit-margin-bottom="0"
     inkscape:window-width="1264"
     inkscape:window-height="715"
     inkscape:window-x="0"
     inkscape:window-y="48"
     inkscape:window-maximized="1" />
  <metadata
     id="metadata5605">
    <rdf:RDF>
      <cc:Work
         rdf:about="">
        <dc:format>image/svg+xml</dc:format>
        <dc:type
           rdf:resource="http://purl.org/dc/dcmitype/StillImage" />
        <dc:title>ballena_2</dc:title>
        <dc:creator>
          <cc:Agent>
            <dc:title>Vladimir Zúñiga</dc:title>
          </cc:Agent>
        </dc:creator>
        <cc:license
           rdf:resource="http://creativecommons.org/licenses/by/3.0/" />
      </cc:Work>
      <cc:License
         rdf:about="http://creativecommons.org/licenses/by/3.0/">
        <cc:permits
           rdf:resource="http://creativecommons.org/ns#Reproduction" />
        <cc:permits
           rdf:resource="http://creativecommons.org/ns#Distribution" />
        <cc:requires
           rdf:resource="http://creativecommons.org/ns#Notice" />
        <cc:requires
           rdf:resource="http://creativecommons.org/ns#Attribution" />
        <cc:permits
           rdf:resource="http://creativecommons.org/ns#DerivativeWorks" />
      </cc:License>
    </rdf:RDF>
  </metadata>
  <g
     inkscape:label="Capa 1"
     inkscape:groupmode="layer"
     id="layer1"
     transform="translate(-112.35151,-313.31976)">
    <g
       transform="translate(2.8599929,-859.55905)"
       id="g5570">
      <g
         transform="translate(-120,405.71429)"
         id="g5533">
        <g
           id="g3017">
          <path
             sodipodi:nodetypes="sccccccccs"
             inkscape:connector-curvature="0"
             id="path2985-4"
             d="m 439.73415,870.33576 c -72.11063,-0.006 -133.45052,123.69321 -141.25068,149.73194 -5.91391,24.8649 -82.96566,12.8271 -40.97892,-33.82954 l 1.15192,0.25609 c 32.10386,13.07581 52.7524,5.94602 44.43336,-11.29537 -20.42973,-4.29802 -36.44896,-21.90637 -47.73323,-37.92296 -24.46825,2.64123 -19.60304,31.6999 -4.25134,44.5251 -118.09209,102.35748 315.47268,194.13408 334.6032,10.10927 L 555.77538,1003.965 C 518.23873,904.27677 477.50633,870.33938 439.73415,870.33576 z"
             style="color:#000000;fill:#008080;fill-opacity:1;fill-rule:nonzero;stroke:#000000;stroke-width:2.50139403;stroke-linecap:butt;stroke-linejoin:miter;stroke-miterlimit:4;stroke-opacity:1;stroke-dasharray:none;stroke-dashoffset:0;marker:none;visibility:visible;display:inline;overflow:visible;enable-background:accumulate" />
          <path
             sodipodi:nodetypes="cc"
             inkscape:connector-curvature="0"
             id="path2987-9"
             d="m 556.82687,1003.5455 c -95.54384,38.7882 -215.65147,47.0443 -173.71695,-18.31932"
             style="color:#000000;fill:none;stroke:#000000;stroke-width:2.50139403;stroke-linecap:butt;stroke-linejoin:miter;stroke-miterlimit:4;stroke-opacity:1;stroke-dasharray:none;stroke-dashoffset:0;marker:none;visibility:visible;display:inline;overflow:visible;enable-background:accumulate" />
          <path
             sodipodi:nodetypes="ccc"
             inkscape:connector-curvature="0"
             id="path2991-9"
             d="m 458.50089,998.04257 c 5.46165,1.3631 21.33362,3.30633 23.75248,-14.91454 11.31322,-187.65861 -118.41205,-19.51661 -23.75248,14.91454 z"
             style="color:#000000;fill:#ffffff;fill-opacity:1;fill-rule:nonzero;stroke:#000000;stroke-width:2.50139403;stroke-linecap:butt;stroke-linejoin:miter;stroke-miterlimit:4;stroke-opacity:1;stroke-dasharray:none;stroke-dashoffset:0;marker:none;visibility:visible;display:inline;overflow:visible;enable-background:accumulate" />
          <path
             sodipodi:nodetypes="ccc"
             inkscape:connector-curvature="0"
             id="path2991-4-0"
             d="m 498.41964,988.68034 c -3.50193,0.87411 -13.67876,2.12001 -15.22981,-9.56291 -7.25386,-120.32372 75.92392,-12.51372 15.22981,9.56291 z"
             style="color:#000000;fill:#ffffff;fill-opacity:1;fill-rule:nonzero;stroke:#000000;stroke-width:2.50139403;stroke-linecap:butt;stroke-linejoin:miter;stroke-miterlimit:4;stroke-opacity:1;stroke-dasharray:none;stroke-dashoffset:0;marker:none;visibility:visible;display:inline;overflow:visible;enable-background:accumulate" />
          <path
             sodipodi:nodetypes="ccc"
             inkscape:connector-curvature="0"
             id="path3054-8"
             d="m 373.08974,983.42965 c 4.40443,0.6962 12.61444,2.13875 15.85709,7.48186 -2.41091,-7.86522 -11.14488,-7.67076 -15.85709,-7.48186 z"
             style="fill:#000000;stroke:none" />
          <path
             sodipodi:nodetypes="ccc"
             inkscape:connector-curvature="0"
             id="path3058-3"
             d="m 448.01994,965.0042 c 4.11063,-20.60727 17.76886,-29.10349 23.67389,-2.12174 -2.81648,-34.3422 -23.92188,-20.2676 -23.67389,2.12174 z"
             style="fill:#000000;stroke:none" />
          <path
             sodipodi:nodetypes="ccc"
             inkscape:connector-curvature="0"
             id="path3058-1-1"
             d="m 487.88706,965.54984 c 4.11056,-20.60725 17.76872,-29.10358 23.67389,-2.12171 -2.81647,-34.34228 -23.92195,-20.26761 -23.67389,2.12171 z"
             style="fill:#000000;stroke:none" />
          <path
             sodipodi:nodetypes="ccc"
             inkscape:connector-curvature="0"
             id="path3877-4"
             d="m 420.05242,848.8086 c 0.92607,-38.13677 -60.31548,-86.96726 -54.94135,-29.03403 8.87751,20.41899 35.80388,-21.91093 54.94135,29.03403 z"
             style="opacity:0.83739833;color:#000000;fill:#37c8ab;fill-opacity:1;fill-rule:nonzero;stroke:#000000;stroke-width:2.50139403;stroke-linecap:butt;stroke-linejoin:miter;stroke-miterlimit:4;stroke-opacity:1;stroke-dasharray:none;stroke-dashoffset:0;marker:none;visibility:visible;display:inline;overflow:visible;enable-background:accumulate" />
          <path
             sodipodi:nodetypes="ccc"
             inkscape:connector-curvature="0"
             id="path3877-3-8"
             d="m 425.85923,824.13671 c -0.92607,-38.13683 60.31548,-86.96729 54.94135,-29.03406 -8.87749,20.41901 -35.80388,-21.91097 -54.94135,29.03406 z"
             style="opacity:0.83739833;color:#000000;fill:#37c8ab;fill-opacity:1;fill-rule:nonzero;stroke:#000000;stroke-width:2.50139403;stroke-linecap:butt;stroke-linejoin:miter;stroke-miterlimit:4;stroke-opacity:1;stroke-dasharray:none;stroke-dashoffset:0;marker:none;visibility:visible;display:inline;overflow:visible;enable-background:accumulate" />
          <path
             sodipodi:nodetypes="ccc"
             inkscape:connector-curvature="0"
             id="path3056-9"
             d="m 357.84208,1027.2341 c -113.83559,-13.931 -62.83474,81.9565 4.106,21.4777 -61.82781,53.966 -111.68891,-29.1289 -4.106,-21.4777 z"
             style="fill:#000000;stroke:none" />
          <path
             sodipodi:nodetypes="cccccccc"
             inkscape:connector-curvature="0"
             id="path4488"
             d="m 275.71875,962.375 c 8.61381,11.14059 -16.10348,20.76613 -26.0625,31.0625 l 4.53125,-3.28125 c 1.01307,-1.28145 2.10798,-2.56776 3.3125,-3.90625 l 1.15625,0.25 c 32.10386,13.07581 52.75654,5.92889 44.4375,-11.3125 -8.5795,-1.80496 -16.3752,-5.94767 -23.375,-11.34375 z"
             style="opacity:0.12195123;fill:#000000;stroke:none" />
          <path
             id="path4498"
             d="m 430.71875,869.875 c -55.23226,6.86513 -129.97531,137.5651 -130.28125,148.8438 14.29938,-21.25643 40.46419,-63.06174 72.28125,-95.68755 4.6883,6.27011 18.81196,5.64417 32.5625,-1.71875 14.43247,-7.72808 22.97309,-19.91557 19.0625,-27.21875 -1.54415,-2.88376 -4.80249,-4.54728 -9.0625,-5.0625 16.2619,-9.03705 33.12913,-13.53288 50.0625,-10.59375 l -34.625,-8.5625 z"
             style="opacity:0.06910568;fill:#ffffff;stroke:none"
             inkscape:connector-curvature="0" />
          <path
             sodipodi:nodetypes="ccc"
             inkscape:connector-curvature="0"
             id="path5450"
             d="m 358.92857,1046.6479 c -25.76279,30.1981 -79.80225,17.5158 -55,-9.6429 -8.31566,17.9364 4.31023,30.4839 55,9.6429 z"
             style="opacity:0.09051723;fill:#000000;stroke:none" />
          <path
             id="path2991-9-7"
             d="m 454.53125,910.03125 c -22.84143,5.4902 -47.00428,68.05593 3.1875,86.3125 4.63349,1.15646 18.10419,2.83314 20.15625,-12.625 1.59356,-26.43317 -0.13432,-44.52699 -3.71875,-56.21875 -2.45467,1.94897 -5.67203,3.125 -9.21875,3.125 -7.67101,0 -13.90625,-5.54082 -13.90625,-12.375 0,-3.16974 1.36258,-6.02938 3.5625,-8.21875 -0.0198,0.005 -0.0427,-0.005 -0.0625,0 z"
             style="opacity:0.10775865;color:#000000;fill:#000000;fill-opacity:1;fill-rule:nonzero;stroke:none;stroke-width:2.12211967;marker:none;visibility:visible;display:inline;overflow:visible;enable-background:accumulate"
             inkscape:connector-curvature="0" />
          <path
             transform="translate(-1.5152288,-1.2626907)"
             d="m 475.71418,778.16888 c 0,2.05723 -2.69841,3.72494 -6.02708,3.72494 -3.32866,0 -6.02707,-1.66771 -6.02707,-3.72494 0,-2.05722 2.69841,-3.72493 6.02707,-3.72493 3.32867,0 6.02708,1.66771 6.02708,3.72493 z"
             sodipodi:ry="3.7249374"
             sodipodi:rx="6.0270753"
             sodipodi:cy="778.16888"
             sodipodi:cx="469.6871"
             id="path5510"
             style="opacity:0.26293102;color:#000000;fill:#ffffff;fill-opacity:1;fill-rule:nonzero;stroke:none;stroke-width:2.50139403;marker:none;visibility:visible;display:inline;overflow:visible;enable-background:accumulate"
             sodipodi:type="arc" />
          <path
             transform="translate(-93.40528,23.928005)"
             d="m 475.71418,778.16888 c 0,2.05723 -2.69841,3.72494 -6.02708,3.72494 -3.32866,0 -6.02707,-1.66771 -6.02707,-3.72494 0,-2.05722 2.69841,-3.72493 6.02707,-3.72493 3.32867,0 6.02708,1.66771 6.02708,3.72493 z"
             sodipodi:ry="3.7249374"
             sodipodi:rx="6.0270753"
             sodipodi:cy="778.16888"
             sodipodi:cx="469.6871"
             id="path5510-0"
             style="opacity:0.26293102;color:#000000;fill:#ffffff;fill-opacity:1;fill-rule:nonzero;stroke:none;stroke-width:2.50139403;marker:none;visibility:visible;display:inline;overflow:visible;enable-background:accumulate"
             sodipodi:type="arc" />
        </g>
      </g>
    </g>
  </g>
</svg>
