<?xml version="1.0" encoding="UTF-8" standalone="no"?>
<!-- Created with Inkscape (http://www.inkscape.org/) -->

<svg
   xmlns:dc="http://purl.org/dc/elements/1.1/"
   xmlns:cc="http://creativecommons.org/ns#"
   xmlns:rdf="http://www.w3.org/1999/02/22-rdf-syntax-ns#"
   xmlns:svg="http://www.w3.org/2000/svg"
   xmlns="http://www.w3.org/2000/svg"
   xmlns:xlink="http://www.w3.org/1999/xlink"
   xmlns:sodipodi="http://sodipodi.sourceforge.net/DTD/sodipodi-0.dtd"
   xmlns:inkscape="http://www.inkscape.org/namespaces/inkscape"
   width="631.01105"
   height="398.07562"
   id="svg4724"
   version="1.1"
   inkscape:version="0.48.3.1 r9886"
   sodipodi:docname="camaleon.svg">
  <defs
     id="defs4726">
    <inkscape:perspective
       sodipodi:type="inkscape:persp3d"
       inkscape:vp_x="0 : 526.18109 : 1"
       inkscape:vp_y="0 : 1000 : 0"
       inkscape:vp_z="744.09448 : 526.18109 : 1"
       inkscape:persp3d-origin="372.04724 : 350.78739 : 1"
       id="perspective4732" />
    <inkscape:perspective
       id="perspective4659"
       inkscape:persp3d-origin="0.5 : 0.33333333 : 1"
       inkscape:vp_z="1 : 0.5 : 1"
       inkscape:vp_y="0 : 1000 : 0"
       inkscape:vp_x="0 : 0.5 : 1"
       sodipodi:type="inkscape:persp3d" />
    <linearGradient
       inkscape:collect="always"
       xlink:href="#linearGradient3893"
       id="linearGradient3899"
       x1="196.87161"
       y1="165.53909"
       x2="401.37482"
       y2="434.0986"
       gradientUnits="userSpaceOnUse"
       gradientTransform="matrix(0.9374123,0,0,0.9707726,7.6597875,-20.295775)" />
    <linearGradient
       inkscape:collect="always"
       id="linearGradient3893">
      <stop
         style="stop-color:#000000;stop-opacity:1;"
         offset="0"
         id="stop3895" />
      <stop
         style="stop-color:#000000;stop-opacity:0;"
         offset="1"
         id="stop3897" />
    </linearGradient>
    <linearGradient
       inkscape:collect="always"
       xlink:href="#linearGradient4120"
       id="linearGradient4126"
       x1="385.36819"
       y1="21.388021"
       x2="531.28687"
       y2="239.63159"
       gradientUnits="userSpaceOnUse"
       gradientTransform="matrix(0.9374124,0,0,0.9707725,7.6597877,-20.295775)" />
    <linearGradient
       inkscape:collect="always"
       id="linearGradient4120">
      <stop
         style="stop-color:#5aa02c;stop-opacity:1;"
         offset="0"
         id="stop4122" />
      <stop
         style="stop-color:#5aa02c;stop-opacity:0;"
         offset="1"
         id="stop4124" />
    </linearGradient>
  </defs>
  <sodipodi:namedview
     id="base"
     pagecolor="#ffffff"
     bordercolor="#666666"
     borderopacity="1.0"
     inkscape:pageopacity="0.0"
     inkscape:pageshadow="2"
     inkscape:zoom="0.35"
     inkscape:cx="219.79124"
     inkscape:cy="24.752101"
     inkscape:document-units="px"
     inkscape:current-layer="layer1"
     showgrid="false"
     inkscape:window-width="589"
     inkscape:window-height="485"
     inkscape:window-x="143"
     inkscape:window-y="136"
     inkscape:window-maximized="0" />
  <metadata
     id="metadata4729">
    <rdf:RDF>
      <cc:Work
         rdf:about="">
        <dc:format>image/svg+xml</dc:format>
        <dc:type
           rdf:resource="http://purl.org/dc/dcmitype/StillImage" />
        <dc:title></dc:title>
      </cc:Work>
    </rdf:RDF>
  </metadata>
  <g
     inkscape:label="Capa 1"
     inkscape:groupmode="layer"
     id="layer1"
     transform="translate(-130.20876,-159.03866)">
    <g
       transform="translate(128.21434,120.53729)"
       id="g4597">
      <path
         transform="matrix(2.3198727,0.3037253,-0.343134,2.1108306,-243.77834,-404.48257)"
         d="m 364,179.57092 c 0,9.0892 -7.94616,16.45745 -17.74823,16.45745 -9.80207,0 -17.74823,-7.36825 -17.74823,-16.45745 0,-9.08919 7.94616,-16.45744 17.74823,-16.45744 9.80207,0 17.74823,7.36825 17.74823,16.45744 z"
         sodipodi:ry="16.457447"
         sodipodi:rx="17.748226"
         sodipodi:cy="179.57092"
         sodipodi:cx="346.25177"
         id="path4100"
         style="fill:#5aa02c;fill-rule:evenodd;stroke:#000000;stroke-width:1px;stroke-linecap:butt;stroke-linejoin:miter;stroke-opacity:1"
         sodipodi:type="arc" />
      <path
         sodipodi:nodetypes="cccccccccc"
         id="path4044"
         d="m 193.01669,202.53 c 13.15826,-3.42867 68.5564,-45.49853 76.89554,-22.31012 l -16.94207,73.1111 c 11.34728,7.44498 -1.44143,-2.00777 14.88612,18.34994 -38.10805,-3.62545 -16.51465,28.65848 -1.49771,50.01637 -12.72922,-0.54396 -25.45845,-19.46161 -27.55992,-34.32624 -8.55926,2.5278 -5.86189,26.95109 -0.53361,39.63341 -16.73829,-20.5081 -34.57818,-50.76831 -5.19906,-68.50818 9.35701,-10.63848 12.97379,-34.54331 10.82999,-47.53358 -16.19047,-13.35168 -42.02521,9.78196 -60.14854,12.92112"
         style="fill:#5aa02c;fill-rule:evenodd;stroke:#000000;stroke-width:2.55320454px;stroke-linecap:butt;stroke-linejoin:miter;stroke-opacity:1" />
      <path
         sodipodi:nodetypes="cccccccccc"
         id="path4085"
         d="m 193.01669,202.53 c 13.15826,-3.42867 68.5564,-45.49853 76.89554,-22.31012 l -16.94207,73.1111 c 11.34728,7.44498 -1.44143,-2.00777 14.88612,18.34994 -38.10805,-3.62545 -16.51465,28.65848 -1.49771,50.01637 -12.72922,-0.54396 -25.45845,-19.46161 -27.55992,-34.32624 -8.55926,2.5278 -5.86189,26.95109 -0.53361,39.63341 -16.73829,-20.5081 -34.57818,-50.76831 -5.19906,-68.50818 9.35701,-10.63848 12.97379,-34.54331 10.82999,-47.53358 -16.19047,-13.35168 -42.02521,9.78196 -60.14854,12.92112"
         style="opacity:0.45876291;fill:#000000;fill-rule:evenodd;stroke:#000000;stroke-width:2.55320454px;stroke-linecap:butt;stroke-linejoin:miter;stroke-opacity:1" />
      <path
         sodipodi:nodetypes="cccssssscccccccc"
         id="path3881"
         d="m 13.296003,432.05588 131.511697,-85.60633 50.72596,-10.7008 c 40.55029,-7.4822 61.39745,-16.33846 103.46024,-16.55725 29.62242,-0.1541 121.5674,-3.53253 153.05482,61.2905 3.42798,7.05714 31.18562,8.30769 14.06594,-7.9985 -9.92652,-9.45482 -17.24801,-10.49405 -24.99029,-32.88213 -4.93449,-14.26893 0.80594,-26.48718 8.05706,-33.91002 5.8062,-5.94369 88.75846,-7.20301 98.27719,-8.04868 L 579.7357,276.40799 506.03538,262.1939 c -24.41499,14.92878 -69.19255,1.74122 -103.84047,2.5405 l -162.5109,8.7552 -108.02747,22.37438 -50.725945,9.728 -77.0282848,-3.89121"
         style="fill:#504416;fill-rule:evenodd;stroke:#000000;stroke-width:3.8157866;stroke-linecap:butt;stroke-linejoin:miter;stroke-miterlimit:4;stroke-opacity:1;stroke-dasharray:none" />
      <path
         sodipodi:nodetypes="ccsc"
         id="path3224"
         d="m 84.688073,305.59198 c -11.16532,34.07914 3.96008,54.31379 20.666127,68.09593 -17.133286,-21.70467 -23.597586,-44.38554 -17.448314,-67.24914 0.271304,-1.00874 -3.251379,0.21107 -3.217813,-0.84679 z"
         style="opacity:0.26288662;fill:#000000;fill-rule:evenodd;stroke:#000000;stroke-width:0.95394665px;stroke-linecap:butt;stroke-linejoin:miter;stroke-opacity:1" />
      <path
         sodipodi:nodetypes="cccc"
         id="path3222"
         d="m 138.93665,294.16158 c -37.58074,12.40386 -38.64943,30.15838 -9.86338,52.28797 -36.747829,-22.69939 -36.822299,-39.71976 -6.57558,-52.04477 l 16.43896,-0.2432 z"
         style="opacity:0.42783502;fill:#000000;fill-rule:evenodd;stroke:#000000;stroke-width:0.95394665px;stroke-linecap:butt;stroke-linejoin:miter;stroke-opacity:1" />
      <path
         sodipodi:nodetypes="cccssssscccccccc"
         id="path3883"
         d="m 11.710339,433.62016 139.358691,-88.58812 50.41131,-8.58073 c 38.04591,-7.01998 57.70203,-13.64368 97.07043,-16.50749 28.73226,-2.0901 121.57438,-5.25992 151.11703,55.5597 3.2162,6.62128 32.07765,16.54975 16.01541,1.25064 -9.31347,-8.87086 -26.51597,-15.6827 -33.78004,-36.68818 -4.62976,-13.38762 0.75625,-24.85131 7.55943,-31.81562 5.44767,-5.57664 83.27682,-6.75811 92.20759,-7.55159 l 30.28371,-19.92326 -65.39112,-5.55392 c -22.90711,14.00691 -65.85856,2.60648 -98.36668,3.35652 l -151.53476,4.3232 -103.23427,20.99252 -48.532523,12.04564 -88.2402587,2.18593"
         style="opacity:0.39474236;fill:url(#linearGradient3899);fill-opacity:1;fill-rule:evenodd;stroke:none" />
      <path
         sodipodi:nodetypes="ccccccccsccc"
         id="path4091"
         d="m 339.63238,169.17086 c 0.59536,26.08184 11.48373,49.40306 28.58266,75.62664 l 47.48244,-12.82381 c 8.31146,10.92847 2.67853,19.2809 26.96629,17.78942 -13.9155,-13.0956 -18.83209,-16.59692 -8.54478,-23.03951 9.53406,-6.21899 23.82126,4.79001 36.61318,10.37928 -11.05405,-11.15142 -13.35374,-27.80253 -35.45517,-22.58953 0.0245,-8.49788 21.94689,-8.3236 40.05774,-6.38732 -18.11745,-13.16238 -29.1591,-12.4101 -48.17285,-9.95013 -4.11688,0.53263 -11.29432,9.21722 -12.87461,11.16044 -9.26256,10.72677 -23.81908,6.85773 -36.51638,5.97722 -14.48039,-15.31394 -4.92863,-37.69352 -3.7659,-56.68442"
         style="fill:#5aa02c;fill-rule:evenodd;stroke:#000000;stroke-width:2.55320454px;stroke-linecap:butt;stroke-linejoin:miter;stroke-opacity:1" />
      <path
         sodipodi:nodetypes="ccccccccsccc"
         id="path4098"
         d="m 339.63238,169.17086 c 0.59536,26.08184 11.48373,49.40306 28.58266,75.62664 l 47.48244,-12.82381 c 8.31146,10.92847 2.67853,19.2809 26.96629,17.78942 -13.9155,-13.0956 -18.83209,-16.59692 -8.54478,-23.03951 9.53406,-6.21899 23.82126,4.79001 36.61318,10.37928 -11.05405,-11.15142 -13.35374,-27.80253 -35.45517,-22.58953 0.0245,-8.49788 21.94689,-8.3236 40.05774,-6.38732 -18.11745,-13.16238 -29.1591,-12.4101 -48.17285,-9.95013 -4.11688,0.53263 -11.29432,9.21722 -12.87461,11.16044 -9.26256,10.72677 -23.81908,6.85773 -36.51638,5.97722 -14.48039,-15.31394 -4.92863,-37.69352 -3.7659,-56.68442"
         style="opacity:0.37113402;fill:#000000;fill-rule:evenodd;stroke:#000000;stroke-width:2.55320454px;stroke-linecap:butt;stroke-linejoin:miter;stroke-opacity:1" />
      <path
         sodipodi:nodetypes="cscccccc"
         id="path3853"
         d="m 37.945147,365.41849 c 46.925113,72.15342 131.126613,29.90737 135.677243,-7.05319 26.78085,-217.51618 -146.638257,-21.67337 -49.9119,-12.52288 -73.469532,-61.92861 91.23118,-86.08192 16.2547,21.87087 -36.85003,50.85939 -129.225377,-87.06847 37.09483,-140.72788 72.11217,-11.40644 162.5204,-38.50534 236.40731,-41.04774 L 395.61931,112.00492 C 235.48342,-92.436814 -21.286678,186.36115 37.945147,365.41849 z"
         style="fill:#5aa02c;fill-rule:evenodd;stroke:#000000;stroke-width:3.3388133;stroke-linecap:butt;stroke-linejoin:miter;stroke-miterlimit:4;stroke-opacity:1;stroke-dasharray:none" />
      <path
         sodipodi:nodetypes="cccc"
         id="path3758"
         d="m 574.38862,172.24949 c -15.71693,-6.38486 -32.31018,-7.37956 -48.55448,-10.52085 l 10.74232,7.65232 37.81216,2.86853 z"
         style="fill:#112b00;fill-rule:evenodd;stroke:#000000;stroke-width:2.24639869;stroke-linecap:butt;stroke-linejoin:miter;stroke-miterlimit:4;stroke-opacity:1;stroke-dasharray:none" />
      <path
         sodipodi:nodetypes="cccc"
         id="path3760"
         d="m 536.30991,153.09684 c 14.80683,6.01626 15.45799,12.29026 5.45705,18.7582 -51.96901,-0.73043 -106.27198,1.88472 -129.62009,-39.87196 34.92843,31.61786 78.5191,30.27229 124.16304,21.11376 z"
         style="fill:#782121;fill-rule:evenodd;stroke:#000000;stroke-width:1.12319934px;stroke-linecap:butt;stroke-linejoin:miter;stroke-opacity:1" />
      <path
         sodipodi:nodetypes="cccc"
         id="path3808"
         d="m 532.74455,151.33493 c 12.76372,5.18641 19.86005,9.26213 11.23862,14.83781 -44.80013,-0.62963 -102.89989,8.82203 -123.02683,-27.17454 30.10996,27.25632 72.44052,20.23195 111.78821,12.33673 z"
         style="opacity:0.28350513;fill:#000000;fill-rule:evenodd;stroke:#000000;stroke-width:0.96826047px;stroke-linecap:butt;stroke-linejoin:miter;stroke-opacity:1" />
      <path
         sodipodi:nodetypes="cscccccc"
         id="path4102"
         d="m 39.73543,363.31283 c 44.42775,68.31343 123.79959,28.26781 128.45649,-6.67774 23.40391,-175.62271 -138.985284,-18.17234 -47.25553,-11.85643 -68.664454,-62.92756 94.76238,-92.57249 18.20765,23.62531 -34.88888,48.1526 -125.166073,-90.21713 32.30258,-141.0208 68.27433,-10.79938 153.87099,-37.42884 223.8257,-33.99914 L 378.3741,123.38599 C 234.75385,91.238349 -15.385781,213.13656 39.73543,363.31283 z"
         style="opacity:0.1958763;fill:#000000;fill-rule:evenodd;stroke:none" />
      <path
         sodipodi:nodetypes="cscccccc"
         id="path3901"
         d="M 39.863818,363.46567 C 84.983879,431.49862 165.59256,391.61742 170.32203,356.81535 194.09063,181.91371 29.170955,338.71762 122.33012,345.0076 51.456294,287.13711 217.40641,254.24622 140.8215,368.53591 105.38895,416.4908 13.70498,278.68919 173.62744,228.09411 242.96568,217.33907 329.89618,190.81894 400.94098,194.23456 L 383.77944,124.52392 C 229.80346,-68.242679 -17.089557,194.63385 39.863818,363.46567 z"
         style="opacity:0.1958763;fill:#000000;fill-rule:evenodd;stroke:none" />
      <path
         sodipodi:nodetypes="ccsc"
         id="path4038"
         d="m 350.85402,62.211013 c 257.51968,15.693446 -15.25759,218.445247 21.7999,67.404717 3.80761,-14.64 -1.36208,-26.56276 -18.60825,-37.654091 -21.25995,-13.67267 -38.11676,-25.39189 -3.19165,-29.750626 z"
         style="opacity:0.42268042;fill:#000000;fill-rule:evenodd;stroke:#000000;stroke-width:2.2849884px;stroke-linecap:butt;stroke-linejoin:miter;stroke-opacity:1" />
      <path
         sodipodi:nodetypes="cccccc"
         id="path2238"
         d="m 128.83843,297.80958 54.48343,-13.61919 c -10.96708,18.51602 12.08188,33.0867 17.53544,50.75247 l -54.17085,9.56108 -13.15117,8.7552 -4.69685,-55.44956 z"
         style="fill:#504416;fill-rule:evenodd;stroke:none" />
      <path
         sodipodi:nodetypes="csccscscssc"
         id="path3762"
         d="m 355.64666,47.148142 c 83.0613,6.629861 111.80375,-13.703074 149.35411,5.225805 22.81553,11.501171 74.3659,41.448902 84.07539,84.134933 -36.75658,16.79184 -175.17596,46.27494 -172.47791,-3.94439 0.0906,33.19891 63.57095,43.09161 121.37714,36.75376 14.18057,-1.55477 24.41021,2.77913 36.08859,3.29391 4.13601,18.31397 -26.08599,26.34259 -66.5571,11.69503 -24.06637,-8.7103 -59.54281,-3.5771 -91.03158,7.80748 -4.01957,0.60373 -62.66034,14.4893 -40.18606,-61.39616 4.82108,-16.2788 4.7012,-35.266611 -18.00226,-45.926221 -26.02531,-12.21922 -41.86188,-32.749131 -2.64032,-37.644147 z"
         style="fill:#5aa02c;fill-rule:evenodd;stroke:#000000;stroke-width:3.3388133;stroke-linecap:butt;stroke-linejoin:miter;stroke-miterlimit:4;stroke-opacity:1;stroke-dasharray:none" />
      <path
         sodipodi:nodetypes="csccscscssc"
         id="path4110"
         d="m 355.64666,47.148142 c 83.0613,6.629861 111.80375,-13.703074 149.35411,5.225805 22.81553,11.501171 74.3659,41.448902 84.07539,84.134933 -36.75658,16.79184 -175.17596,46.27494 -172.47791,-3.94439 0.0906,33.19891 63.57095,43.09161 121.37714,36.75376 14.18057,-1.55477 24.41021,2.77913 36.08859,3.29391 4.13601,18.31397 -26.08599,26.34259 -66.5571,11.69503 -24.06637,-8.7103 -59.54281,-3.5771 -91.03158,7.80748 -4.01957,0.60373 -62.66034,14.4893 -40.18606,-61.39616 4.82108,-16.2788 4.7012,-35.266611 -18.00226,-45.926221 -26.02531,-12.21922 -41.86188,-32.749131 -2.64032,-37.644147 z"
         style="fill:url(#linearGradient4126);fill-opacity:1;fill-rule:evenodd;stroke:#000000;stroke-width:3.3388133;stroke-linecap:butt;stroke-linejoin:miter;stroke-miterlimit:4;stroke-opacity:1;stroke-dasharray:none" />
      <path
         sodipodi:nodetypes="csccscscssc"
         id="path3802"
         d="m 364.61797,59.687082 c 55.82451,7.260027 96.79998,-4.321093 130.877,16.996257 19.11654,11.95832 68.33569,24.565421 76.98096,62.575451 -32.73013,14.95234 -155.98556,41.20579 -153.58346,-3.51229 0.0806,29.56211 58.3886,40.50368 109.86345,34.86005 12.62689,-1.38443 26.67432,1.85011 37.07362,2.30847 3.68358,16.30779 -29.94872,21.94896 -65.98644,8.90602 -21.4301,-7.75609 -53.02082,-3.18522 -81.06064,6.95224 -3.57864,3.55344 -61.67652,11.39412 -41.66387,-56.17851 4.29205,-14.49556 7.9372,-32.06573 -9.30897,-43.157061 -21.25996,-13.67267 -38.11677,-25.391888 -3.19165,-29.750627 z"
         style="opacity:0.1958763;fill:#000000;fill-rule:evenodd;stroke:#000000;stroke-width:2.2849884px;stroke-linecap:butt;stroke-linejoin:miter;stroke-opacity:1" />
      <path
         transform="matrix(2.3198727,0.3037253,-0.343134,2.1108306,-280.87952,-387.43517)"
         d="m 364,179.57092 c 0,9.0892 -7.94616,16.45745 -17.74823,16.45745 -9.80207,0 -17.74823,-7.36825 -17.74823,-16.45745 0,-9.08919 7.94616,-16.45744 17.74823,-16.45744 9.80207,0 17.74823,7.36825 17.74823,16.45744 z"
         sodipodi:ry="16.457447"
         sodipodi:rx="17.748226"
         sodipodi:cy="179.57092"
         sodipodi:cx="346.25177"
         id="path3764"
         style="fill:#5aa02c;fill-rule:evenodd;stroke:#000000;stroke-width:1px;stroke-linecap:butt;stroke-linejoin:miter;stroke-opacity:1"
         sodipodi:type="arc" />
      <path
         transform="matrix(1.8877173,0.247146,-0.3048922,1.8755816,-267.80221,-372.24214)"
         d="m 431.12056,192.80142 c 0,3.56439 -3.32293,6.4539 -7.42198,6.4539 -4.09905,0 -7.42199,-2.88951 -7.42199,-6.4539 0,-3.56439 3.32294,-6.4539 7.42199,-6.4539 4.09905,0 7.42198,2.88951 7.42198,6.4539 z"
         sodipodi:ry="6.4539008"
         sodipodi:rx="7.4219861"
         sodipodi:cy="192.80142"
         sodipodi:cx="423.69858"
         id="path3766"
         style="fill:#b3b3b3;stroke:#000000;stroke-opacity:1"
         sodipodi:type="arc" />
      <path
         sodipodi:nodetypes="ccc"
         id="path3768"
         d="m 456.77733,98.602399 c 3.95449,11.982741 24.51372,18.066621 32.05811,1.25277 -8.56287,22.401521 -33.16171,8.900221 -32.05811,-1.25277 z"
         style="fill:#000000;fill-rule:evenodd;stroke:#000000;stroke-width:1.12319934px;stroke-linecap:butt;stroke-linejoin:miter;stroke-opacity:1" />
      <path
         transform="matrix(1.4448831,0.1891689,-0.2333685,1.4355944,-96.183712,-262.64699)"
         d="m 431.12056,192.80142 c 0,3.56439 -3.32293,6.4539 -7.42198,6.4539 -4.09905,0 -7.42199,-2.88951 -7.42199,-6.4539 0,-3.56439 3.32294,-6.4539 7.42199,-6.4539 4.09905,0 7.42198,2.88951 7.42198,6.4539 z"
         sodipodi:ry="6.4539008"
         sodipodi:rx="7.4219861"
         sodipodi:cy="192.80142"
         sodipodi:cx="423.69858"
         id="path3770"
         style="fill:#aaffcc;stroke:#000000;stroke-opacity:1"
         sodipodi:type="arc" />
      <path
         sodipodi:nodetypes="ccc"
         id="path3772"
         d="m 551.1491,111.17229 c -4.00523,0.58351 -6.12053,2.34869 -4.84134,6.23631 -2.61838,-4.40613 -1.89205,-6.97293 4.84134,-6.23631 z"
         style="fill:#000000;fill-rule:evenodd;stroke:#000000;stroke-width:1.12319934px;stroke-linecap:butt;stroke-linejoin:miter;stroke-opacity:1" />
      <path
         transform="matrix(1.1732275,0.1536027,-0.1711574,1.052896,31.011949,-228.90501)"
         d="m 415.46987,247.49823 c 0,3.11884 -1.66146,5.64716 -3.71099,5.64716 -2.04952,0 -3.71099,-2.52832 -3.71099,-5.64716 0,-3.11884 1.66147,-5.64716 3.71099,-5.64716 2.04953,0 3.71099,2.52832 3.71099,5.64716 z"
         sodipodi:ry="5.6471634"
         sodipodi:rx="3.7109931"
         sodipodi:cy="247.49823"
         sodipodi:cx="411.75888"
         id="path3774"
         style="fill:#000000;stroke:#000000;stroke-opacity:1"
         sodipodi:type="arc" />
      <path
         transform="matrix(1.1732275,0.1536027,-0.1711574,1.052896,24.465377,-229.06811)"
         d="m 418.05143,245.80408 c 0,1.64853 -1.26416,2.98493 -2.82359,2.98493 -1.55942,0 -2.82358,-1.3364 -2.82358,-2.98493 0,-1.64853 1.26416,-2.98493 2.82358,-2.98493 1.55943,0 2.82359,1.3364 2.82359,2.98493 z"
         sodipodi:ry="2.9849291"
         sodipodi:rx="2.8235817"
         sodipodi:cy="245.80408"
         sodipodi:cx="415.22784"
         id="path3776"
         style="fill:#aaffcc;stroke:none"
         sodipodi:type="arc" />
      <path
         sodipodi:nodetypes="ccc"
         id="path3778"
         d="m 410.35666,109.42395 c 32.44475,23.46062 49.22995,30.24979 87.65165,12.45709 -31.65985,13.33233 -48.37486,23.8269 -87.65165,-12.45709 z"
         style="fill:#000000;fill-rule:evenodd;stroke:#000000;stroke-width:1.12319934px;stroke-linecap:butt;stroke-linejoin:miter;stroke-opacity:1" />
      <path
         sodipodi:nodetypes="ccc"
         id="path3780"
         d="m 431.63841,129.87634 c -11.22712,-0.92738 -30.71523,3.68448 -20.29672,17.21709 -10.06863,-13.65488 11.57524,-13.83298 20.29672,-17.21709 z"
         style="fill:#000000;fill-rule:evenodd;stroke:#000000;stroke-width:1.12319934px;stroke-linecap:butt;stroke-linejoin:miter;stroke-opacity:1" />
      <path
         transform="matrix(1.9337745,0.2531761,-0.2860259,1.7595239,-159.96784,-303.07815)"
         d="m 364,179.57092 c 0,9.0892 -7.94616,16.45745 -17.74823,16.45745 -9.80207,0 -17.74823,-7.36825 -17.74823,-16.45745 0,-9.08919 7.94616,-16.45744 17.74823,-16.45744 9.80207,0 17.74823,7.36825 17.74823,16.45744 z"
         sodipodi:ry="16.457447"
         sodipodi:rx="17.748226"
         sodipodi:cy="179.57092"
         sodipodi:cx="346.25177"
         id="path3798"
         style="opacity:0.25257736;fill:#000000;fill-rule:evenodd;stroke:#000000;stroke-width:1px;stroke-linecap:butt;stroke-linejoin:miter;stroke-opacity:1"
         sodipodi:type="arc" />
      <path
         transform="matrix(0.6466888,0,0,0.4852792,-93.254457,-190.65145)"
         d="m 911.23773,562.54993 c 0,7.63112 -5.55176,13.81737 -12.40021,13.81737 -6.84844,0 -12.4002,-6.18625 -12.4002,-13.81737 0,-7.63113 5.55176,-13.81737 12.4002,-13.81737 6.84845,0 12.40021,6.18624 12.40021,13.81737 z"
         sodipodi:ry="13.817369"
         sodipodi:rx="12.400203"
         sodipodi:cy="562.54993"
         sodipodi:cx="898.83752"
         id="path3800"
         style="opacity:0.17525772;color:#000000;fill:#ffffff;fill-opacity:1;fill-rule:evenodd;stroke:none;stroke-width:2;marker:none;visibility:visible;display:inline;overflow:visible;enable-background:accumulate"
         sodipodi:type="arc" />
      <path
         sodipodi:nodetypes="ccccc"
         id="path4104"
         d="m 369.99966,197.009 -21.58762,7.91055 -3.98539,-12.38172 24.57666,-2.7515 0.99635,7.22267 z"
         style="opacity:0.42783502;fill:#000000;fill-rule:evenodd;stroke:#000000;stroke-width:0.95394665px;stroke-linecap:butt;stroke-linejoin:miter;stroke-opacity:1" />
      <path
         sodipodi:nodetypes="ccscscc"
         id="path3806"
         d="m 530.83519,170.87312 c 12.6269,-1.38444 24.59505,1.58354 34.99435,2.0419 3.68358,16.30779 -27.4284,21.19502 -63.46611,8.15207 -21.43009,-7.75611 -55.54115,-2.43127 -83.58097,7.70619 -3.57864,3.55344 -77.25626,6.01748 -41.66387,-56.17851 11.11522,-19.42316 -0.29225,-35.859081 -13.50973,-47.680831 56.608,6.88303 -18.9158,114.569481 167.22633,85.959181 z"
         style="opacity:0.07216498;fill:#000000;fill-rule:evenodd;stroke:#000000;stroke-width:2.2849884px;stroke-linecap:butt;stroke-linejoin:miter;stroke-opacity:1" />
      <path
         transform="matrix(0.9933795,0,0,1.0640414,-653.48568,-635.93886)"
         d="m 1062.5202,686.55194 c 0,2.93505 -2.9345,5.31437 -6.5544,5.31437 -3.6199,0 -6.5544,-2.37932 -6.5544,-5.31437 0,-2.93505 2.9345,-5.31437 6.5544,-5.31437 3.6199,0 6.5544,2.37932 6.5544,5.31437 z"
         sodipodi:ry="5.3143725"
         sodipodi:rx="6.5543928"
         sodipodi:cy="686.55194"
         sodipodi:cx="1055.9658"
         id="path3810"
         style="opacity:0.17525772;color:#000000;fill:#000000;fill-opacity:1;fill-rule:evenodd;stroke:none;stroke-width:2;marker:none;visibility:visible;display:inline;overflow:visible;enable-background:accumulate"
         sodipodi:type="arc" />
      <path
         transform="matrix(1.1856465,0,0,1.0640414,-857.35321,-639.3317)"
         d="m 1065.0003,702.31793 c 0,2.2502 -1.8242,4.07435 -4.0744,4.07435 -2.2502,0 -4.0743,-1.82415 -4.0743,-4.07435 0,-2.2502 1.8241,-4.07435 4.0743,-4.07435 2.2502,0 4.0744,1.82415 4.0744,4.07435 z"
         sodipodi:ry="4.0743523"
         sodipodi:rx="4.0743523"
         sodipodi:cy="702.31793"
         sodipodi:cx="1060.9259"
         id="path3812"
         style="opacity:0.17525772;color:#000000;fill:#000000;fill-opacity:1;fill-rule:evenodd;stroke:none;stroke-width:2;marker:none;visibility:visible;display:inline;overflow:visible;enable-background:accumulate"
         sodipodi:type="arc" />
      <path
         transform="matrix(1.1856465,0,0,1.0640414,-817.59122,-638.55095)"
         d="m 1028.1539,713.65527 c 0,2.83722 -2.8552,5.13723 -6.3772,5.13723 -3.5221,0 -6.3773,-2.30001 -6.3773,-5.13723 0,-2.83721 2.8552,-5.13722 6.3773,-5.13722 3.522,0 6.3772,2.30001 6.3772,5.13722 z"
         sodipodi:ry="5.1372266"
         sodipodi:rx="6.3772469"
         sodipodi:cy="713.65527"
         sodipodi:cx="1021.7767"
         id="path3814"
         style="opacity:0.17525772;color:#000000;fill:#000000;fill-opacity:1;fill-rule:evenodd;stroke:none;stroke-width:2;marker:none;visibility:visible;display:inline;overflow:visible;enable-background:accumulate"
         sodipodi:type="arc" />
      <path
         sodipodi:nodetypes="ccccccccccc"
         id="path3841"
         d="m 318.20308,176.93409 c -15.88248,20.25131 -22.20172,45.31522 -25.61179,76.75972 l 49.00309,23.68568 c -0.51872,13.90062 -13.46646,27.00451 5.9536,42.18327 -2.38931,-19.31429 -1.70959,-26.92971 10.15542,-24.92338 l 17.73501,22.05803 -11.41291,-46.98145 c 5.0051,-9.71501 4.64674,-0.98486 16.75948,-6.25434 -24.64285,-16.08078 -14.97958,-12.40786 -30.27964,-9.76781 -13.76832,1.94276 -23.06178,-6.82333 -32.17447,-16.0222 -1.42985,-21.38212 19.85701,-31.99981 32.6364,-45.67315"
         style="fill:#5aa02c;fill-rule:evenodd;stroke:#000000;stroke-width:2.55320454px;stroke-linecap:butt;stroke-linejoin:miter;stroke-opacity:1" />
      <path
         sodipodi:nodetypes="cccccc"
         id="path3214"
         d="m 129.50266,306.75194 57.80461,-13.27527 c -10.96707,18.51602 8.09647,23.80042 13.55003,41.46619 l -54.17085,9.56108 -13.15117,8.7552 -4.03262,-46.5072 z"
         style="opacity:0.2474227;fill:#000000;fill-rule:evenodd;stroke:none" />
      <path
         sodipodi:nodetypes="cccccccccc"
         id="path3879"
         d="m 157.61044,213.91239 c 13.15826,-3.42866 68.5564,-45.49851 76.89554,-22.3101 l -16.94207,73.11109 c 11.34728,7.44496 13.17174,-9.91831 29.49927,10.43939 -38.10805,-3.62544 -31.1278,36.56901 -16.11086,57.92693 -12.72923,-0.54397 -25.45845,-19.46164 -27.55991,-34.32627 -8.55927,2.52781 -5.86191,26.95112 -0.53362,39.63342 -16.73829,-20.50811 -34.57819,-50.7683 -5.19906,-68.50817 9.35701,-10.63849 12.97379,-34.54332 10.83,-47.53359 -16.19048,-13.35167 -42.02521,9.78196 -60.14856,12.92111"
         style="fill:#5aa02c;fill-rule:evenodd;stroke:#000000;stroke-width:2.55320454px;stroke-linecap:butt;stroke-linejoin:miter;stroke-opacity:1" />
      <path
         sodipodi:nodetypes="ccccccccccc"
         id="path3903"
         d="m 319.24074,177.26533 c -14.1838,18.08541 -23.58469,47.27826 -26.63006,75.35969 l 48.45896,21.63884 c -0.46322,12.41394 -12.02621,28.98034 5.31684,42.53565 -7.76994,-13.35736 -1.52675,-28.91351 9.06931,-27.12179 l 17.71696,20.67171 c -9.40943,-7.93566 -11.31626,-24.75083 -12.07107,-42.92946 3.60367,-12.93772 6.35099,-2.94634 17.31548,-4.12625 -22.00728,-14.36088 -13.84718,-4.75757 -27.5109,-2.3999 -12.29575,1.73493 -30.92832,-10.95754 -39.06637,-19.17258 -1.2769,-19.09531 16.32422,-42.68292 27.73685,-54.89389"
         style="opacity:0.38144328;fill:#000000;fill-rule:evenodd;stroke:#000000;stroke-width:2.28013277px;stroke-linecap:butt;stroke-linejoin:miter;stroke-opacity:1" />
      <path
         sodipodi:nodetypes="cccccccccc"
         id="path3905"
         d="m 155.51634,218.2618 c 11.68741,-3.04547 62.77183,-42.84466 70.17881,-22.24833 l -15.04829,64.93869 c 7.26079,16.82711 16.86598,-5.40483 31.36839,12.67725 -33.8483,2.61664 -37.04203,36.85893 -13.84027,57.28857 -11.30637,-4.37435 -28.24894,-26.52778 -30.11547,-39.73083 -7.60254,2.24525 -3.79764,28.8025 0.93508,40.06716 -14.86727,-18.2157 -26.01613,-46.0662 0.0789,-61.82304 8.3111,-9.4493 12.46296,-34.57321 10.55877,-46.1114 -14.38064,-7.96803 -44.84252,8.68852 -60.94004,11.47672"
         style="opacity:0.31958762;fill:#000000;fill-rule:evenodd;stroke:none" />
      <path
         transform="matrix(1.8532939,0,0,1.7962439,-1841.3278,-1069.6515)"
         d="m 1062.5202,686.55194 c 0,2.93505 -2.9345,5.31437 -6.5544,5.31437 -3.6199,0 -6.5544,-2.37932 -6.5544,-5.31437 0,-2.93505 2.9345,-5.31437 6.5544,-5.31437 3.6199,0 6.5544,2.37932 6.5544,5.31437 z"
         sodipodi:ry="5.3143725"
         sodipodi:rx="6.5543928"
         sodipodi:cy="686.55194"
         sodipodi:cx="1055.9658"
         id="path4028"
         style="opacity:0.17525772;color:#000000;fill:#000000;fill-opacity:1;fill-rule:evenodd;stroke:none;stroke-width:2;marker:none;visibility:visible;display:inline;overflow:visible;enable-background:accumulate"
         sodipodi:type="arc" />
      <path
         transform="matrix(0.9933795,0,0,1.0640414,-915.43964,-547.50042)"
         d="m 1062.5202,686.55194 c 0,2.93505 -2.9345,5.31437 -6.5544,5.31437 -3.6199,0 -6.5544,-2.37932 -6.5544,-5.31437 0,-2.93505 2.9345,-5.31437 6.5544,-5.31437 3.6199,0 6.5544,2.37932 6.5544,5.31437 z"
         sodipodi:ry="5.3143725"
         sodipodi:rx="6.5543928"
         sodipodi:cy="686.55194"
         sodipodi:cx="1055.9658"
         id="path4030"
         style="opacity:0.17525772;color:#000000;fill:#000000;fill-opacity:1;fill-rule:evenodd;stroke:none;stroke-width:2;marker:none;visibility:visible;display:inline;overflow:visible;enable-background:accumulate"
         sodipodi:type="arc" />
      <path
         transform="matrix(1.6383154,0,0,1.4301426,-1611.9692,-772.58238)"
         d="m 1062.5202,686.55194 c 0,2.93505 -2.9345,5.31437 -6.5544,5.31437 -3.6199,0 -6.5544,-2.37932 -6.5544,-5.31437 0,-2.93505 2.9345,-5.31437 6.5544,-5.31437 3.6199,0 6.5544,2.37932 6.5544,5.31437 z"
         sodipodi:ry="5.3143725"
         sodipodi:rx="6.5543928"
         sodipodi:cy="686.55194"
         sodipodi:cx="1055.9658"
         id="path4032"
         style="opacity:0.17525772;color:#000000;fill:#000000;fill-opacity:1;fill-rule:evenodd;stroke:none;stroke-width:2;marker:none;visibility:visible;display:inline;overflow:visible;enable-background:accumulate"
         sodipodi:type="arc" />
      <path
         transform="matrix(0.9933795,0,0,1.0640414,-733.20198,-604.89558)"
         d="m 1062.5202,686.55194 c 0,2.93505 -2.9345,5.31437 -6.5544,5.31437 -3.6199,0 -6.5544,-2.37932 -6.5544,-5.31437 0,-2.93505 2.9345,-5.31437 6.5544,-5.31437 3.6199,0 6.5544,2.37932 6.5544,5.31437 z"
         sodipodi:ry="5.3143725"
         sodipodi:rx="6.5543928"
         sodipodi:cy="686.55194"
         sodipodi:cx="1055.9658"
         id="path4034"
         style="opacity:0.17525772;color:#000000;fill:#000000;fill-opacity:1;fill-rule:evenodd;stroke:none;stroke-width:2;marker:none;visibility:visible;display:inline;overflow:visible;enable-background:accumulate"
         sodipodi:type="arc" />
      <path
         transform="matrix(2.42657,0,0,1.9792946,-2225.936,-1211.8628)"
         d="m 1062.5202,686.55194 c 0,2.93505 -2.9345,5.31437 -6.5544,5.31437 -3.6199,0 -6.5544,-2.37932 -6.5544,-5.31437 0,-2.93505 2.9345,-5.31437 6.5544,-5.31437 3.6199,0 6.5544,2.37932 6.5544,5.31437 z"
         sodipodi:ry="5.3143725"
         sodipodi:rx="6.5543928"
         sodipodi:cy="686.55194"
         sodipodi:cx="1055.9658"
         id="path4036"
         style="opacity:0.17525772;color:#000000;fill:#000000;fill-opacity:1;fill-rule:evenodd;stroke:none;stroke-width:2;marker:none;visibility:visible;display:inline;overflow:visible;enable-background:accumulate"
         sodipodi:type="arc" />
      <path
         id="path3218"
         d="m 132.83075,354.47513 13.15117,-8.51199 56.597,-11.67359"
         style="fill:none;stroke:#000000;stroke-width:3.8157866;stroke-linecap:butt;stroke-linejoin:miter;stroke-miterlimit:4;stroke-opacity:1;stroke-dasharray:none" />
      <path
         sodipodi:nodetypes="cc"
         id="path3220"
         d="M 126.70816,296.77777 184.7476,285.32294"
         style="fill:none;stroke:#000000;stroke-width:3.8157866;stroke-linecap:butt;stroke-linejoin:miter;stroke-miterlimit:4;stroke-opacity:1;stroke-dasharray:none" />
      <path
         id="path3226"
         d="m 414.17125,361.0667 c -3.99359,1.54677 -10.75455,8.09189 -12.62044,15.82107 -2.36968,9.81603 7.06902,16.50895 12.62044,16.50895 3.92343,0 -3.32117,7.6308 -3.32117,11.69384 0,9.40624 9.01675,11.54754 15.94163,15.13321 9.34649,4.83956 22.41738,0.68571 22.58396,1.37575 2.7649,11.45312 23.52113,13.06958 32.5475,13.06958 13.03581,0 11.95623,-9.23694 11.95623,-19.26044 0,-8.99441 17.16721,-7.35354 21.91972,-17.19683 2.7089,-5.61061 3.5914,-14.85336 -0.66423,-19.26043 -6.55619,-6.78952 -13.53211,0.76865 -9.29928,-12.38172 1.92515,-5.98101 4.70193,-18.53195 -0.66424,-22.69981 -6.1553,-4.78077 -14.7189,-3.43936 -21.91973,-3.43936 -6.27408,0 -1.62665,4.26786 -4.64964,-8.25448 -2.1226,-8.7925 -19.32159,-5.48776 -24.57667,-4.12723 -6.85607,1.775 -8.773,6.47655 -11.29199,11.69383 -1.81489,3.75896 -1.3516,6.87874 -5.9781,6.87874 -5.09705,0 -6.92009,1.17561 -11.292,3.43936 -2.40626,1.24595 -5.66181,7.23904 -7.30658,8.94234 -1.50735,1.561 -0.37351,0.56745 -3.98541,2.06363 z"
         style="fill:#008000;fill-rule:evenodd;stroke:#000000;stroke-width:3.8157866;stroke-linecap:butt;stroke-linejoin:miter;stroke-miterlimit:4;stroke-opacity:1;stroke-dasharray:none" />
      <path
         id="path3228"
         d="m 422.68957,371.86786 c -3.18686,1.23431 -8.58197,6.45723 -10.07094,12.62504 -1.89099,7.83318 5.64103,13.17408 10.07094,13.17408 3.13093,0 -2.65019,6.08929 -2.65019,9.33153 0,7.50617 7.19524,9.21486 12.72125,12.07625 7.45847,3.86188 17.88895,0.54716 18.02189,1.09786 2.20627,9.13949 18.76966,10.42933 25.97258,10.42933 10.40246,0 9.54101,-7.37092 9.54101,-15.36967 0,-7.17743 13.69935,-5.86804 17.49182,-13.72291 2.16161,-4.4772 2.86582,-11.85281 -0.53006,-15.36968 -5.23179,-5.41797 -10.79859,0.61342 -7.42076,-9.88054 1.53619,-4.77277 3.75206,-14.78835 -0.53006,-18.11421 -4.91193,-3.81507 -11.74558,-2.74462 -17.49182,-2.74462 -5.00669,0 -1.29807,3.40569 -3.71035,-6.58698 -1.69384,-7.01636 -15.41851,-4.37922 -19.61204,-3.29356 -5.47108,1.41648 -7.00072,5.16823 -9.01095,9.33162 -1.4482,2.9996 -1.07849,5.48914 -4.77043,5.48914 -4.06742,0 -5.52219,0.93818 -9.01095,2.74463 -1.92016,0.9943 -4.51806,5.7767 -5.83057,7.13591 -1.20281,1.24562 -0.29807,0.45285 -3.18037,1.64678 z"
         style="opacity:0.18556698;fill:#000000;fill-rule:evenodd;stroke:none" />
      <path
         id="path3230"
         d="m 526.19166,305.59198 c 1.46857,8.17061 5.24036,23.34718 22.54487,23.34718 12.10194,0 17.26039,-0.79067 30.05981,5.83679 13.19984,6.8348 13.55598,-15.71529 15.02991,-23.34718 3.47066,-17.97082 6.7118,-11.25773 22.54487,-19.45598 15.6884,-8.12336 16.43791,-23.35151 13.15117,-36.96637 -2.90402,-12.02945 -28.62662,-13.61919 -37.57478,-13.61919 -5.65176,0 -9.38348,-11.66302 -16.90865,-19.45599 -8.31872,-8.61478 -21.97773,-2.53291 -26.30233,1.9456 -8.66398,8.97229 -8.90784,6.08836 -20.66614,0 -10.31363,-5.34033 -20.66612,13.62029 -20.66612,21.40158 0,6.58309 -15.09632,7.85117 -18.78738,11.67359 -12.08519,12.51527 10.68743,27.90826 16.90864,31.12958 9.06628,4.69446 18.02256,6.55984 20.66613,17.51039 z"
         style="fill:#008000;fill-rule:evenodd;stroke:#000000;stroke-width:3.8157866;stroke-linecap:butt;stroke-linejoin:miter;stroke-miterlimit:4;stroke-opacity:1;stroke-dasharray:none" />
      <path
         id="path3232"
         d="m 528.83093,303.71703 c 1.17431,6.53344 4.19043,18.66921 18.0276,18.66921 9.67712,0 13.802,-0.63223 24.03682,4.6672 10.55501,5.46532 10.83989,-12.56641 12.01849,-18.66914 2.77517,-14.3701 5.36688,-9.00202 18.02759,-15.55767 12.54494,-6.49573 13.14423,-18.67254 10.51606,-29.55946 -2.32213,-9.61912 -22.89074,-10.89031 -30.04603,-10.89031 -4.51926,0 -7.50329,-9.32617 -13.52065,-15.55768 -6.65195,-6.88865 -17.57416,-2.02546 -21.03228,1.55575 -6.92789,7.17458 -7.123,4.86845 -16.52533,0 -8.24711,-4.27031 -16.5253,10.89125 -16.5253,17.11341 0,5.26407 -12.07141,6.27806 -15.0229,9.33457 -9.6638,10.00757 8.54595,22.3163 13.52062,24.89224 7.24972,3.75384 14.4115,5.2455 16.52531,14.00188 z"
         style="opacity:0.3041237;fill:#000000;fill-rule:evenodd;stroke:none" />
    </g>
  </g>
</svg>
