<?xml version="1.0" encoding="UTF-8" standalone="no"?>
<!-- Created with Inkscape (http://www.inkscape.org/) -->

<svg
   xmlns:dc="http://purl.org/dc/elements/1.1/"
   xmlns:cc="http://creativecommons.org/ns#"
   xmlns:rdf="http://www.w3.org/1999/02/22-rdf-syntax-ns#"
   xmlns:svg="http://www.w3.org/2000/svg"
   xmlns="http://www.w3.org/2000/svg"
   xmlns:xlink="http://www.w3.org/1999/xlink"
   xmlns:sodipodi="http://sodipodi.sourceforge.net/DTD/sodipodi-0.dtd"
   xmlns:inkscape="http://www.inkscape.org/namespaces/inkscape"
   width="496.04736"
   height="455.84653"
   id="svg3223"
   sodipodi:version="0.32"
   inkscape:version="0.48.3.1 r9886"
   sodipodi:docname="camello.svg"
   inkscape:output_extension="org.inkscape.output.svg.inkscape"
   version="1.1">
  <defs
     id="defs3225">
    <linearGradient
       inkscape:collect="always"
       id="linearGradient3803">
      <stop
         style="stop-color:#000000;stop-opacity:1;"
         offset="0"
         id="stop3805" />
      <stop
         style="stop-color:#000000;stop-opacity:0;"
         offset="1"
         id="stop3807" />
    </linearGradient>
    <linearGradient
       inkscape:collect="always"
       xlink:href="#linearGradient3803"
       id="linearGradient3809"
       x1="-650.92035"
       y1="691.68793"
       x2="-237.1364"
       y2="691.68793"
       gradientUnits="userSpaceOnUse" />
  </defs>
  <sodipodi:namedview
     id="base"
     pagecolor="#ffffff"
     bordercolor="#666666"
     borderopacity="1.0"
     inkscape:pageopacity="0.0"
     inkscape:pageshadow="2"
     inkscape:zoom="0.54781348"
     inkscape:cx="449.21151"
     inkscape:cy="304.45017"
     inkscape:current-layer="layer1"
     inkscape:document-units="px"
     showguides="true"
     inkscape:guide-bbox="true"
     inkscape:window-width="1024"
     inkscape:window-height="668"
     inkscape:window-x="0"
     inkscape:window-y="48"
     showgrid="false"
     fit-margin-top="0"
     fit-margin-left="0"
     fit-margin-right="0"
     fit-margin-bottom="0"
     inkscape:window-maximized="0" />
  <metadata
     id="metadata3228">
    <rdf:RDF>
      <cc:Work
         rdf:about="">
        <dc:format>image/svg+xml</dc:format>
        <dc:type
           rdf:resource="http://purl.org/dc/dcmitype/StillImage" />
        <dc:title></dc:title>
      </cc:Work>
    </rdf:RDF>
  </metadata>
  <g
     id="layer1"
     inkscape:label="Layer 1"
     inkscape:groupmode="layer"
     transform="translate(-112.82098,-10.950195)">
    <g
       inkscape:label="Layer 1"
       id="g3913"
       transform="translate(-779.11685,750.6758)" />
    <path
       style="fill:#ff9955;fill-rule:evenodd;stroke:#000000;stroke-width:2.78793716;stroke-linecap:butt;stroke-linejoin:miter;stroke-miterlimit:4;stroke-opacity:1;stroke-dasharray:none"
       d="m 193.8007,190.43374 c -0.5002,16.13838 0.6631,46.89265 11.8136,63.03103 -0.629,15.48716 7.005,24.28552 0.7876,48.41515 -10.1792,5.78546 -2.8795,11.57091 -1.5752,17.35637 -1.8748,20.79257 -4.09,39.08149 -15.7516,66.685 -11.3139,10.04842 -10.1664,23.75083 -11.8135,33.79925 33.8087,5.69641 48.5946,25.27595 90.5712,11.87542 -5.5014,-32.52177 -24.5979,-36.02733 -57.493,-39.28021 -1.0262,-24.05532 5.7994,-45.37017 8.6633,-69.42549 7.4457,-4.87197 3.5583,-13.3979 0.7876,-18.26987 -1.5912,-17.05188 -6.3639,-33.19025 2.3626,-50.24212 17.0065,-13.86302 36.9591,-52.30576 37.8038,-68.51199"
       id="path3251"
       sodipodi:nodetypes="cccccccccccc"
       inkscape:connector-curvature="0" />
    <path
       style="fill:#ff9955;fill-rule:evenodd;stroke:#000000;stroke-width:2.78793716;stroke-linecap:butt;stroke-linejoin:miter;stroke-miterlimit:4;stroke-opacity:1;stroke-dasharray:none"
       d="m 325.23237,214.16444 c -0.5002,16.13838 0.6631,46.89265 11.8136,63.03103 -0.629,15.48716 7.005,24.28552 0.7876,48.41515 -10.1792,5.78546 -2.8795,11.57091 -1.5752,17.35637 -1.8748,20.79257 -4.09,39.08149 -15.7516,66.685 -11.3139,10.04842 -10.1664,23.75083 -11.8135,33.79925 33.8087,5.69641 48.5946,25.27595 90.5712,11.87542 -5.5014,-32.52177 -24.5979,-36.02733 -57.493,-39.28021 -1.0262,-24.05532 5.7994,-45.37017 8.6633,-69.42549 7.4457,-4.87197 3.5583,-13.3979 0.7876,-18.26987 -1.5912,-17.05188 -6.3639,-33.19025 2.3626,-50.24212 17.0065,-13.86302 36.9591,-52.30576 37.8038,-68.51199"
       id="path3256"
       sodipodi:nodetypes="cccccccccccc"
       inkscape:connector-curvature="0" />
    <path
       style="fill:#ff9955;fill-rule:evenodd;stroke:#000000;stroke-width:2;stroke-linecap:butt;stroke-linejoin:miter;stroke-miterlimit:4;stroke-opacity:1;stroke-dasharray:none"
       d="m 144.3432,161.07862 c -15.713,39.81684 -43.2223,48.64383 -23.8794,147.79433 l 3.227,-14.19858 12.2624,7.74468 c -41.5172,-56.31629 7.0319,-140.8714 15.4893,-131.01419 1.6811,1.95924 -5.8085,-10.97163 -7.0993,-10.32624 z"
       id="path3817"
       sodipodi:nodetypes="ccccsc"
       inkscape:connector-curvature="0" />
    <path
       style="opacity:0.45531915;fill:#000000;fill-rule:evenodd;stroke:#000000;stroke-width:2.78793716;stroke-linecap:butt;stroke-linejoin:miter;stroke-miterlimit:4;stroke-opacity:1;stroke-dasharray:none"
       d="m 325.23237,214.16444 c -0.5002,16.13838 0.6631,46.89265 11.8136,63.03103 -0.629,15.48716 7.005,24.28552 0.7876,48.41515 -10.1792,5.78546 -2.8795,11.57091 -1.5752,17.35637 -1.8748,20.79257 -4.09,39.08149 -15.7516,66.685 -11.3139,10.04842 -10.1664,23.75083 -11.8135,33.79925 33.8087,5.69641 48.5946,25.27595 90.5712,11.87542 -5.5014,-32.52177 -24.5979,-36.02733 -57.493,-39.28021 -1.0262,-24.05532 5.7994,-45.37017 8.6633,-69.42549 7.4457,-4.87197 3.5583,-13.3979 0.7876,-18.26987 -1.5912,-17.05188 -6.3639,-33.19025 2.3626,-50.24212 17.0065,-13.86302 36.9591,-52.30576 37.8038,-68.51199"
       id="path3268"
       sodipodi:nodetypes="cccccccccccc"
       inkscape:connector-curvature="0" />
    <path
       style="opacity:0.35319148;fill:#000000;fill-rule:evenodd;stroke:#000000;stroke-width:2.78793716;stroke-linecap:butt;stroke-linejoin:miter;stroke-miterlimit:4;stroke-opacity:1;stroke-dasharray:none"
       d="m 193.8007,190.43374 c -0.5002,16.13838 0.6631,46.89265 11.8136,63.03103 -0.629,15.48716 7.005,24.28552 0.7876,48.41515 -10.1792,5.78546 -2.8795,11.57091 -1.5752,17.35637 -1.8748,20.79257 -4.09,39.08149 -15.7516,66.685 -11.3139,10.04842 -10.1664,23.75083 -11.8135,33.79925 33.8087,5.69641 48.5946,25.27595 90.5712,11.87542 -5.5014,-32.52177 -24.5979,-36.02733 -57.493,-39.28021 -1.0262,-24.05532 5.7994,-45.37017 8.6633,-69.42549 7.4457,-4.87197 3.5583,-13.3979 0.7876,-18.26987 -1.5912,-17.05188 -6.3639,-33.19025 2.3626,-50.24212 17.0065,-13.86302 36.9591,-52.30576 37.8038,-68.51199"
       id="path3272"
       sodipodi:nodetypes="cccccccccccc"
       inkscape:connector-curvature="0" />
    <path
       style="fill:#ff9955;fill-rule:evenodd;stroke:#000000;stroke-width:2.89096928px;stroke-linecap:butt;stroke-linejoin:miter;stroke-opacity:1"
       d="m 363.58929,216.40755 c 20.1363,5.65338 33.38868,7.63252 59.70488,-5.00651 14.4112,7.56027 5.7359,15.01511 4.1072,26.0125 15.4376,-14.94146 36.8125,-25.12173 36.0524,-47.00505 7.3662,8.67083 3.2163,17.34167 4.1073,26.0125 14.5349,-28.91992 36.7831,-57.62289 32.4015,-91.27194 -5.4732,-1.12246 -13.6846,1.39733 -20.5269,-15.13296 22.452,40.43709 41.6906,-5.33051 61.9606,-23.42889 10.7715,1.97247 19.1846,20.25036 40.1184,8.29774 19.0559,22.04688 36.3661,6.91273 18.2762,-11.71444 l -2.2288,-20.01219 c 21.5566,-63.11188 -80.883,-40.66743 -108.3197,-31.23852 -3.2646,-6.50802 3.7185,-13.01608 5.7949,-19.52411 -8.5715,7.26078 -16.5268,15.87096 -22.7338,28.30993 -2.7589,-2.9989 -0.4734,-11.5215 0,-18.05978 l -16.4931,28.79804 c -39.4927,2.64792 -22.8268,47.46254 18.7219,35.14333 -9.0668,5.09973 -19.6613,3.32554 -31.1583,-2.51052 -8.6377,1.15747 -7.1427,7.38126 -9.1272,11.86535 7.0373,-4.23297 8.5691,-1.58422 10.9526,0 -8.0583,6.94748 -11.5543,14.65534 -12.3217,22.81799 5.2628,-6.14778 11.0335,-10.51751 18.7108,-8.21448 2.3924,39.93973 -53.3743,72.12264 -68.454,19.16711 -4.6248,-27.56386 -9.191,-24.21724 -33.5871,-28.71457 C 308.05887,-12.06181 251.3183,14.028 231.3302,75.6254 159.6805,14.01671 137.0422,60.65174 152.058,116.48744 c -36.9467,24.31694 -18.0328,68.64222 -6.3622,99.26034 128.95747,-52.05526 168.12124,95.84775 217.89349,0.65977 z"
       id="path3241"
       sodipodi:nodetypes="cccccccccccccccccccccccccccc"
       inkscape:connector-curvature="0" />
    <path
       style="fill:none;stroke:#000000;stroke-width:2.89096928px;stroke-linecap:butt;stroke-linejoin:miter;stroke-opacity:1"
       d="m 439.93817,66.65044 c 19.3772,-27.04119 59.9361,10.05913 13.0916,14.26998"
       id="path3243"
       sodipodi:nodetypes="cc"
       inkscape:connector-curvature="0" />
    <path
       sodipodi:type="arc"
       style="color:#000000;fill:#ffffff;fill-opacity:1;fill-rule:evenodd;stroke:#000000;stroke-width:2.7868607;stroke-linecap:butt;stroke-linejoin:miter;stroke-miterlimit:4;stroke-opacity:1;stroke-dasharray:none;stroke-dashoffset:0;marker:none;visibility:visible;display:inline;overflow:visible;enable-background:accumulate"
       id="path4331"
       sodipodi:cx="495.37848"
       sodipodi:cy="59.008167"
       sodipodi:rx="17.113489"
       sodipodi:ry="17.113489"
       d="m 512.49197,59.008167 c 0,9.451519 -7.66197,17.113489 -17.11349,17.113489 -9.45152,0 -17.11349,-7.66197 -17.11349,-17.113489 0,-9.451519 7.66197,-17.113489 17.11349,-17.113489 9.45152,0 17.11349,7.66197 17.11349,17.113489 z"
       transform="matrix(0.9932965,0,0,1.1666298,3.3207649,-12.79886)" />
    <path
       sodipodi:type="arc"
       style="color:#000000;fill:#000000;fill-opacity:1;fill-rule:evenodd;stroke:none;stroke-width:4;marker:none;visibility:visible;display:inline;overflow:visible;enable-background:accumulate"
       id="path3245"
       sodipodi:cx="134.28384"
       sodipodi:cy="241.32388"
       sodipodi:rx="12.892161"
       sodipodi:ry="17.569849"
       d="m 147.17601,241.32388 c 0,9.70356 -5.77202,17.56985 -12.89217,17.56985 -7.12014,0 -12.89216,-7.86629 -12.89216,-17.56985 0,-9.70356 5.77202,-17.56985 12.89216,-17.56985 7.12015,0 12.89217,7.86629 12.89217,17.56985 z"
       transform="matrix(0.840708,0,0,0.8571429,383.0759,-145.81852)" />
    <path
       sodipodi:type="arc"
       style="color:#000000;fill:#ffffff;fill-opacity:1;fill-rule:evenodd;stroke:none;stroke-width:4;marker:none;visibility:visible;display:inline;overflow:visible;enable-background:accumulate"
       id="path3247"
       sodipodi:cx="124.12984"
       sodipodi:cy="236.07574"
       sodipodi:rx="10.039913"
       sodipodi:ry="8.8990145"
       d="m 134.16975,236.07574 c 0,4.91479 -4.49502,8.89902 -10.03991,8.89902 -5.54489,0 -10.03992,-3.98423 -10.03992,-8.89902 0,-4.91479 4.49503,-8.89901 10.03992,-8.89901 5.54489,0 10.03991,3.98422 10.03991,8.89901 z"
       transform="matrix(0.6477272,0,0,1.025641,411.68807,-188.17203)" />
    <path
       style="fill:#000000;fill-rule:evenodd;stroke:#000000;stroke-width:1px;stroke-linecap:butt;stroke-linejoin:miter;stroke-opacity:1"
       d="m 598.66787,82.28176 c -36.3,13.64531 -63.2779,-25.22764 -76.8014,-13.23049 14.8063,-9.29192 48.7391,25.43763 76.8014,13.23049 z"
       id="path3253"
       sodipodi:nodetypes="ccc"
       inkscape:connector-curvature="0" />
    <path
       style="fill:none;stroke:#000000;stroke-width:2;stroke-linecap:butt;stroke-linejoin:miter;stroke-miterlimit:4;stroke-opacity:1;stroke-dasharray:none"
       d="m 596.73177,64.85623 c -13.2411,6.50575 -16.0929,-16.97354 -33.5603,-12.9078 -1.9697,1.30781 -10.793,13.82605 19.3617,8.71277"
       id="path3257"
       sodipodi:nodetypes="ccc"
       inkscape:connector-curvature="0" />
    <path
       style="fill:#000000;fill-rule:evenodd;stroke:#000000;stroke-width:1px;stroke-linecap:butt;stroke-linejoin:miter;stroke-opacity:1"
       d="m 592.05267,84.37928 c 1.8013,4.59425 4.6886,14.09203 8.3901,11.29433 1.0202,-4.62451 -5.176,-7.73827 -8.3901,-11.29433 z"
       id="path3259"
       sodipodi:nodetypes="ccc"
       inkscape:connector-curvature="0" />
    <path
       style="fill:#000000;fill-rule:evenodd;stroke:none"
       d="m 580.59697,59.6931 c -3.0034,3.02956 -25.8154,4.0428 -18.2323,-4.84042 2.7984,-7.85758 15.639,1.81713 18.2323,4.84042 z"
       id="path3146"
       sodipodi:nodetypes="ccc"
       inkscape:connector-curvature="0" />
    <path
       style="fill:#000000;fill-rule:evenodd;stroke:none"
       d="m 440.54737,65.50162 c 8.2258,-19.46344 63.7743,2.60503 14.8439,15.48936 -0.536,-7.16854 3.6045,-16.46281 -14.8439,-15.48936 z"
       id="path3148"
       sodipodi:nodetypes="ccc"
       inkscape:connector-curvature="0" />
    <path
       style="opacity:0.18297873;fill:#000000;fill-rule:evenodd;stroke:#000000;stroke-width:1px;stroke-linecap:butt;stroke-linejoin:miter;stroke-opacity:1"
       d="m 194.6537,102.28885 c -15.6535,1.57721 -33.183,0.52819 -40.6595,13.55319 -5.4311,-18.62196 -16.7542,-66.46869 21.9432,-67.76596 -22.5201,6.54005 -42.4955,51.35991 18.7163,54.21277 z"
       id="path3166"
       sodipodi:nodetypes="cccc"
       inkscape:connector-curvature="0" />
    <path
       style="opacity:0.2595745;fill:#000000;fill-rule:evenodd;stroke:none"
       d="M 309.53317,100.35268 C 308.19367,95.16809 230.3612,83.2877 228.214,93.25339 c 5.7479,-41.69105 22.0241,-64.77013 53.56737,-70.34752 -18.45427,12.01048 -56.49347,42.04915 27.7518,77.44681 z"
       id="path3168"
       sodipodi:nodetypes="cccc"
       inkscape:connector-curvature="0" />
    <path
       style="opacity:0.33191492;fill:#000000;fill-rule:evenodd;stroke:none"
       d="m 539.20947,86.81483 c -28.1456,27.63246 -50.9263,28.32467 -63.434,12.32172 19.6797,52.47595 45.5697,10.1449 63.434,-12.32172 z"
       id="path3170"
       sodipodi:nodetypes="ccc"
       inkscape:connector-curvature="0" />
    <path
       style="opacity:0.11914894;fill:#000000;fill-rule:evenodd;stroke:none"
       d="m 435.61587,61.25869 c 10.6015,24.53951 26.5509,18.77806 40.616,10.95263 -3.1657,4.86784 -8.7781,9.73567 -2.7382,14.60351 -17.3614,1.23934 -42.0157,2.04268 -37.8778,-25.55614 z"
       id="path3172"
       sodipodi:nodetypes="cccc"
       inkscape:connector-curvature="0" />
    <path
       style="opacity:0.19574465;fill:#000000;fill-rule:evenodd;stroke:none"
       d="m 479.88277,112.82734 c 2.9651,45.77487 -6.03407,83.62722 -119.5663,101.59818 21.1988,5.3682 32.7512,12.401 64.8031,-3.9372 11.0668,3.28137 6.5826,15.44907 0.9127,28.2943 21.6387,-16.32336 37.5708,-33.28078 37.4215,-52.02501 l 3.6509,25.55614 c 23.9623,-30.75716 29.8175,-59.25096 34.6833,-87.62106 -11.4231,8.40911 -14.806,-7.30267 -21.9052,-11.86535 z"
       id="path3174"
       sodipodi:nodetypes="cccccccc"
       inkscape:connector-curvature="0" />
    <path
       style="opacity:0.34468085;fill:#ffffff;fill-rule:evenodd;stroke:none"
       d="m 297.33887,34.33347 c 13.8178,7.22497 25.7281,20.17232 34.6833,41.98509 l -18.2544,6.38904 c 10.562,-19.68878 -6.5268,-33.23293 -16.4289,-48.37413 z"
       id="path3176"
       sodipodi:nodetypes="cccc"
       inkscape:connector-curvature="0" />
    <path
       style="opacity:0.30638296;fill:#ffffff;fill-rule:evenodd;stroke:none"
       d="m 505.73177,32.58672 c 24.955,-8.37779 58.9456,-9.90826 83.9007,0.64539 -32.7946,-7.00001 -54.9781,-2.89539 -72.2837,9.03546 0.2385,-11.44866 -7.2396,-7.46418 -11.617,-9.68085 z"
       id="path3178"
       sodipodi:nodetypes="cccc"
       inkscape:connector-curvature="0" />
    <path
       style="opacity:0.22127662;fill:#000000;fill-rule:evenodd;stroke:none"
       d="m 598.02247,52.59382 c 2.7907,33.27869 -31.8471,-28.46582 -40.6595,2.58155 25.5003,1.53783 14.8523,1.90441 26.461,5.80852 13.3052,11.13346 14.4545,2.51346 14.1985,-8.39007 z"
       id="path3180"
       sodipodi:nodetypes="cccc"
       inkscape:connector-curvature="0" />
    <path
       sodipodi:type="arc"
       style="opacity:0.46808514;color:#000000;fill:#ffffff;fill-opacity:1;fill-rule:evenodd;stroke:none;stroke-width:2;marker:none;visibility:visible;display:inline;overflow:visible;enable-background:accumulate"
       id="path3184"
       sodipodi:cx="133.94157"
       sodipodi:cy="252.2765"
       sodipodi:rx="4.3354173"
       sodipodi:ry="4.1072373"
       d="m 138.27699,252.2765 c 0,2.26837 -1.94103,4.10724 -4.33542,4.10724 -2.39438,0 -4.33541,-1.83887 -4.33541,-4.10724 0,-2.26836 1.94103,-4.10723 4.33541,-4.10723 2.39439,0 4.33542,1.83887 4.33542,4.10723 z"
       transform="translate(367.61827,-182.80334)" />
    <path
       style="fill:#000000;fill-rule:evenodd;stroke:#000000;stroke-width:1px;stroke-linecap:butt;stroke-linejoin:miter;stroke-opacity:1"
       d="m 487.18447,72.89586 c 8.0624,5.55382 16.8093,0.10821 24.8716,0 -8.1807,-0.65052 -18.8493,8.2051 -24.8716,0 z"
       id="path3186"
       sodipodi:nodetypes="ccc"
       inkscape:connector-curvature="0" />
    <path
       style="fill:#000000;fill-rule:evenodd;stroke:#000000;stroke-width:1px;stroke-linecap:butt;stroke-linejoin:miter;stroke-opacity:1"
       d="m 479.62217,41.47862 c 7.8924,-7.33157 26.9188,-1.59721 31.7818,-12.74842 -5.5989,8.90673 -31.2998,2.12476 -31.7818,12.74842 z"
       id="path3188"
       sodipodi:nodetypes="ccc"
       inkscape:connector-curvature="0" />
    <path
       style="fill:#ff9955;fill-rule:evenodd;stroke:#000000;stroke-width:3;stroke-linecap:butt;stroke-linejoin:miter;stroke-miterlimit:4;stroke-opacity:1;stroke-dasharray:none"
       d="m 143.1407,207.89372 c -0.5796,16.12471 2.5939,40.46389 15.5162,56.5886 -0.729,15.47404 8.118,24.26494 0.9127,48.37413 -11.7966,5.78056 -3.337,11.56111 -1.8255,17.34167 -2.1727,20.77495 -4.7398,39.04838 -18.2544,66.62851 -13.1117,10.03991 -11.7818,23.73071 -13.6907,33.77062 39.1808,5.69158 56.3161,25.25453 104.9627,11.86536 -5.4629,-40.70869 -30.3318,-32.34593 -68.4539,-35.59606 -1.1892,-24.03494 8.5464,-48.98261 11.8653,-73.01756 8.6288,-4.86784 4.1237,-13.38655 0.9127,-18.25439 -1.844,-17.03743 -7.3751,-33.16213 2.7381,-50.19956 19.7087,-13.85127 42.8317,-52.26145 43.8106,-68.45395"
       id="path2278"
       sodipodi:nodetypes="cccccccccccc"
       inkscape:connector-curvature="0" />
    <path
       style="fill:#ff9955;fill-rule:evenodd;stroke:#000000;stroke-width:3;stroke-linecap:butt;stroke-linejoin:miter;stroke-miterlimit:4;stroke-opacity:1;stroke-dasharray:none"
       d="m 282.33036,219.74292 c -0.5796,16.12471 0.7685,46.85293 13.6908,62.97764 -0.729,15.47404 8.118,24.26494 0.9127,48.37413 -11.7966,5.78056 -3.337,11.56111 -1.8255,17.34167 -2.1727,20.77495 -4.7398,39.04838 -18.2544,66.62851 -13.11166,10.03991 -11.78176,23.73071 -13.69066,33.77062 39.18076,5.69158 56.31606,25.25453 104.96266,11.86536 -6.3756,-32.49422 -28.5064,-35.99681 -66.6285,-39.24694 -1.1892,-24.03494 6.721,-45.33173 10.0399,-69.36668 8.6288,-4.86784 4.1237,-13.38655 0.9127,-18.25439 -1.844,-17.03743 -7.3751,-33.16213 2.7381,-50.19956 19.7087,-13.85127 49.82026,-60.49492 50.79916,-76.68742"
       id="path3254"
       sodipodi:nodetypes="cccccccccccc"
       inkscape:connector-curvature="0" />
    <path
       style="fill:#000000;fill-rule:evenodd;stroke:#000000;stroke-width:1px;stroke-linecap:butt;stroke-linejoin:miter;stroke-opacity:1"
       d="m 228.4799,442.00624 c -6.7241,-14.06742 -17.3651,-30.31222 -32.4015,-26.0125 19.7192,1.73815 23.7838,13.63411 32.4015,26.0125 z"
       id="path3258"
       sodipodi:nodetypes="ccc"
       inkscape:connector-curvature="0" />
    <path
       style="fill:#000000;fill-rule:evenodd;stroke:#000000;stroke-width:1px;stroke-linecap:butt;stroke-linejoin:miter;stroke-opacity:1"
       d="m 363.79053,461.79487 c -6.7241,-14.06742 -16.45236,-30.76858 -31.94514,-26.92522 21.54466,3.56359 23.32744,14.54683 31.94514,26.92522 z"
       id="path3260"
       sodipodi:nodetypes="ccc"
       inkscape:connector-curvature="0" />
    <path
       style="fill:#000000;fill-rule:evenodd;stroke:#000000;stroke-width:1px;stroke-linecap:butt;stroke-linejoin:miter;stroke-opacity:1"
       d="m 242.6271,404.58475 c 8.7256,5.40928 16.1835,15.88937 23.7307,26.0125 -7.2415,-9.05298 -8.9168,-21.28662 -23.7307,-26.0125 z"
       id="path3262"
       sodipodi:nodetypes="ccc"
       inkscape:connector-curvature="0" />
    <path
       style="fill:none;stroke:#000000;stroke-width:1px;stroke-linecap:butt;stroke-linejoin:miter;stroke-opacity:1"
       d="m 395.96392,454.32796 c -5.56793,-9.16177 -6.79255,-20.80544 -20.07983,-25.55615 10.88418,6.00418 15.03461,16.0486 20.07983,25.55615 z"
       id="path3264"
       sodipodi:nodetypes="ccc"
       inkscape:connector-curvature="0" />
    <path
       style="opacity:0.32765958;fill:#ffffff;fill-rule:evenodd;stroke:none"
       d="m 143.2766,174.73049 12.9078,-0.64539 c -22.855,-27.64834 4.8667,-38.18068 18.7163,-49.69504 l -16.7802,-3.22695 c -10.9548,10.53951 -30.9485,21.23797 -14.8439,53.56738 z"
       id="path3266"
       sodipodi:nodetypes="ccccc"
       inkscape:connector-curvature="0" />
    <path
       style="opacity:0.42127662;fill:#000000;fill-rule:evenodd;stroke:#000000;stroke-width:1px;stroke-linecap:butt;stroke-linejoin:miter;stroke-opacity:1"
       d="m 216.1582,218.84635 c 5.1001,4.16943 19.261,5.10101 17.0933,20.40645 10.6705,-6.46365 8.1286,-10.444 16.41,-25.26981 l -29.3961,-7.002 -4.1072,11.86536 z"
       id="path3274"
       sodipodi:nodetypes="ccccc"
       inkscape:connector-curvature="0" />
    <path
       style="opacity:0.18297873;fill:#000000;fill-rule:evenodd;stroke:#000000;stroke-width:1px;stroke-linecap:butt;stroke-linejoin:miter;stroke-opacity:1"
       d="m 365.93614,461.28369 c -49.45388,-2.97981 -104.44434,-17.44315 -83.25532,-29.68795 11.22981,-26.76221 15.05911,-54.85816 20.65249,-83.25532 -2.21147,-6.35581 -4.8528,-12.62566 1.29078,-20.65248 l -1.93617,-47.75887 c -35.52074,-51.43183 21.72952,-83.68572 -18.71632,-59.37589 -4.43035,30.172 5.251,44.21635 12.26241,61.31206 0.97427,15.70449 9.15432,31.40899 -0.64539,47.11348 -2.89388,6.23877 -7.96858,12.47754 0.64539,18.71631 -3.38619,23.44917 -8.11209,46.89835 -20.00709,70.34752 -5.73622,7.60182 -14.87932,11.79675 -10.97162,29.04255 67.3119,22.13136 81.87473,17.33462 100.68084,14.19859 z"
       id="path3282"
       sodipodi:nodetypes="cccccccccccc"
       inkscape:connector-curvature="0" />
    <path
       style="opacity:0.18297873;fill:#000000;fill-rule:evenodd;stroke:#000000;stroke-width:1px;stroke-linecap:butt;stroke-linejoin:miter;stroke-opacity:1"
       d="m 227.7229,440.21848 c -49.4539,-2.97981 -104.4443,-17.44315 -83.2553,-29.68795 11.2298,-26.76221 15.0591,-54.85816 20.6525,-83.25532 -2.2115,-6.35581 -4.8528,-12.62566 1.2908,-20.65248 l -1.9362,-47.75887 c -34.64505,-58.14448 11.19066,-57.02743 -28.7562,-74.89212 6.9786,29.71564 9.8146,60.18894 22.3023,76.82829 0.9743,15.70449 9.1543,31.40899 -0.6454,47.11348 -2.8939,6.23877 -7.9686,12.47754 0.6454,18.71631 -3.3862,23.44917 -8.1121,46.89835 -20.0071,70.34752 -5.7362,7.60182 -14.8793,11.79675 -10.9716,29.04255 67.3119,22.13136 81.8747,17.33462 100.6808,14.19859 z"
       id="path3284"
       sodipodi:nodetypes="cccccccccccc"
       inkscape:connector-curvature="0" />
    <path
       style="opacity:0.22978725;fill:#ffffff;fill-rule:evenodd;stroke:none"
       d="m 198.78015,192.15602 18.07092,1.93617 c -1.93265,23.97818 -19.34178,43.7355 -40.01419,62.60284 17.45721,-23.62608 43.75776,-49.09453 21.94327,-64.53901 z"
       id="path3358"
       sodipodi:nodetypes="cccc"
       inkscape:connector-curvature="0" />
    <path
       style="opacity:0.28085106;fill:#ffffff;fill-rule:evenodd;stroke:none"
       d="m 339.53162,218.50588 c 18.03458,17.07768 -10.39275,37.62577 -25.55614,55.67589 13.48954,-13.13144 31.21146,-22.0305 36.96514,-42.89781 l -11.409,-12.77808 z"
       id="path4329"
       sodipodi:nodetypes="cccc"
       inkscape:connector-curvature="0" />
    <path
       style="opacity:0.2255319;fill:#000000;fill-rule:evenodd;stroke:none"
       d="m 282.94302,220.78769 c -2.2818,2.33173 -60.69584,-18.19973 -60.69584,-23.73071 l -1.36908,8.67083 c 20.74893,5.47744 41.15833,12.65254 60.69584,24.18707 l 1.36908,-9.12719 z"
       id="path4335"
       sodipodi:nodetypes="ccccc"
       inkscape:connector-curvature="0" />
  </g>
</svg>
