<?xml version="1.0" encoding="UTF-8" standalone="no"?>
<!-- Created with Inkscape (http://www.inkscape.org/) -->

<svg
   xmlns:dc="http://purl.org/dc/elements/1.1/"
   xmlns:cc="http://creativecommons.org/ns#"
   xmlns:rdf="http://www.w3.org/1999/02/22-rdf-syntax-ns#"
   xmlns:svg="http://www.w3.org/2000/svg"
   xmlns="http://www.w3.org/2000/svg"
   xmlns:sodipodi="http://sodipodi.sourceforge.net/DTD/sodipodi-0.dtd"
   xmlns:inkscape="http://www.inkscape.org/namespaces/inkscape"
   width="450.03323"
   height="449.84906"
   id="svg2160"
   sodipodi:version="0.32"
   inkscape:version="0.48.3.1 r9886"
   sodipodi:docname="caracol.svg"
   inkscape:output_extension="org.inkscape.output.svg.inkscape"
   version="1.1">
  <defs
     id="defs2162" />
  <sodipodi:namedview
     id="base"
     pagecolor="#ffffff"
     bordercolor="#666666"
     borderopacity="1.0"
     inkscape:pageopacity="0.0"
     inkscape:pageshadow="2"
     inkscape:zoom="0.77472528"
     inkscape:cx="342.55444"
     inkscape:cy="294.13947"
     inkscape:current-layer="layer1"
     inkscape:document-units="px"
     inkscape:window-width="1022"
     inkscape:window-height="703"
     inkscape:window-x="0"
     inkscape:window-y="48"
     showgrid="false"
     fit-margin-top="0"
     fit-margin-left="0"
     fit-margin-right="0"
     fit-margin-bottom="0"
     inkscape:window-maximized="0" />
  <metadata
     id="metadata2165">
    <rdf:RDF>
      <cc:Work
         rdf:about="">
        <dc:format>image/svg+xml</dc:format>
        <dc:type
           rdf:resource="http://purl.org/dc/dcmitype/StillImage" />
        <dc:title></dc:title>
      </cc:Work>
    </rdf:RDF>
  </metadata>
  <g
     id="layer1"
     inkscape:label="Layer 1"
     inkscape:groupmode="layer"
     transform="translate(-92.110182,-9.1837157)">
    <g
       id="g5183"
       transform="translate(25.815603,-2.5815603)">
      <path
         sodipodi:nodetypes="ccccc"
         id="path3162"
         d="m 471.90794,109.84952 c -1.6804,30.35273 -7.25483,58.13709 -18.70808,86.94326 l -5.7568,-2.41685 c 10.03974,-27.70536 13.69513,-56.06449 11.32996,-84.39453 l 13.13492,-0.13188 z"
         style="fill:#5d6c53;fill-rule:evenodd;stroke:#000000;stroke-width:3;stroke-linecap:butt;stroke-linejoin:miter;stroke-miterlimit:4;stroke-opacity:1;stroke-dasharray:none"
         inkscape:connector-curvature="0" />
      <path
         sodipodi:nodetypes="ccccc"
         id="path3164"
         d="m 472.1148,107.76858 -1.37201,6.34906 -10.19036,-1.16899 -1.75279,-7.10974 13.31516,1.92967 z"
         style="fill:#aade87;fill-rule:evenodd;stroke:none"
         inkscape:connector-curvature="0" />
      <path
         transform="matrix(1.4199018,0.2247004,-0.2163608,1.5696745,238.41122,-247.27842)"
         d="m 218.14184,172.47163 c 0,16.93086 -11.99146,30.65603 -26.78369,30.65603 -14.79222,0 -26.78368,-13.72517 -26.78368,-30.65603 0,-16.93085 11.99146,-30.65602 26.78368,-30.65602 14.79223,0 26.78369,13.72517 26.78369,30.65602 z"
         sodipodi:ry="30.656029"
         sodipodi:rx="26.783688"
         sodipodi:cy="172.47163"
         sodipodi:cx="191.35815"
         id="path3172"
         style="color:#000000;fill:#5d6c53;fill-opacity:1;fill-rule:evenodd;stroke:#000000;stroke-width:1.98793232;stroke-linecap:butt;stroke-linejoin:miter;stroke-miterlimit:4;stroke-opacity:1;stroke-dasharray:none;stroke-dashoffset:0;marker:none;visibility:visible;display:inline;overflow:visible;enable-background:accumulate"
         sodipodi:type="arc" />
      <path
         sodipodi:nodetypes="ccccc"
         id="path3176"
         d="m 458.73131,108.75896 0.74161,7.83704 9.88738,1.56469 3.69187,-6.95799 -14.32086,-2.44374 z"
         style="fill:#5d6c53;fill-rule:evenodd;stroke:none"
         inkscape:connector-curvature="0" />
      <path
         sodipodi:nodetypes="cccc"
         id="path3170"
         d="m 459.59053,109.57837 c 2.25537,25.62858 5.08869,44.2187 -11.19562,70.71798 16.49533,-21.34106 14.73695,-36.49399 15.51321,-68.90533 l -4.31759,-1.81265 z"
         style="opacity:0.4;fill:#ffffff;fill-rule:evenodd;stroke:none"
         inkscape:connector-curvature="0" />
      <path
         transform="matrix(1.420706,0.2248276,-0.2098271,1.5222724,234.65088,-241.53002)"
         d="m 217.81916,173.11702 c 0,15.14866 -10.40224,27.42908 -23.23405,27.42908 -12.8318,0 -23.23404,-12.28042 -23.23404,-27.42908 0,-15.14866 10.40224,-27.42908 23.23404,-27.42908 12.83181,0 23.23405,12.28042 23.23405,27.42908 z"
         sodipodi:ry="27.429079"
         sodipodi:rx="23.234043"
         sodipodi:cy="173.11702"
         sodipodi:cx="194.58511"
         id="path3174"
         style="color:#000000;fill:#e2e3db;fill-opacity:1;fill-rule:evenodd;stroke:#000000;stroke-width:2.01807475;stroke-linecap:butt;stroke-linejoin:miter;stroke-miterlimit:4;stroke-opacity:1;stroke-dasharray:none;stroke-dashoffset:0;marker:none;visibility:visible;display:inline;overflow:visible;enable-background:accumulate"
         sodipodi:type="arc" />
      <path
         sodipodi:nodetypes="ccc"
         id="path3178"
         d="m 467.43443,113.50806 c 47.89253,-2.27823 52.79303,-50.919068 30.12894,-85.2065 13.67572,46.175319 0.99859,72.60363 -30.12894,85.2065 z"
         style="opacity:0.21702127;fill:#000000;fill-rule:evenodd;stroke:#000000;stroke-width:3;stroke-linecap:butt;stroke-linejoin:miter;stroke-miterlimit:4;stroke-opacity:1;stroke-dasharray:none"
         inkscape:connector-curvature="0" />
      <path
         sodipodi:nodetypes="ccccc"
         id="path3166"
         d="m 471.08839,110.3205 -3.37846,0.72023 c -1.76109,28.58314 -5.56578,56.84288 -16.95224,83.9028 l 1.57073,0.49955 c 11.2723,-27.04331 17.15475,-55.88178 18.75997,-85.12258 z"
         style="opacity:0.44680852;fill:#000000;fill-rule:evenodd;stroke:none"
         inkscape:connector-curvature="0" />
      <path
         transform="matrix(1.4248502,0.1923759,-0.1795405,1.5267129,233.6153,-234.46157)"
         d="m 198.51648,180.74213 c 0,6.8681 -3.52451,12.4358 -7.87221,12.4358 -4.3477,0 -7.8722,-5.5677 -7.8722,-12.4358 0,-6.86811 3.5245,-12.43581 7.8722,-12.43581 4.3477,0 7.87221,5.5677 7.87221,12.43581 z"
         sodipodi:ry="12.435802"
         sodipodi:rx="7.8722048"
         sodipodi:cy="180.74213"
         sodipodi:cx="190.64427"
         id="path3180"
         style="color:#000000;fill:#000000;fill-opacity:1;fill-rule:evenodd;stroke:none;stroke-width:2.01807475;marker:none;visibility:visible;display:inline;overflow:visible;enable-background:accumulate"
         sodipodi:type="arc" />
      <path
         transform="matrix(1.420706,0.2248276,-0.2098271,1.5222724,242.21849,-244.79949)"
         d="m 196.46284,176.06444 c 0,7.05713 -2.04319,12.77807 -4.56359,12.77807 -2.52041,0 -4.5636,-5.72094 -4.5636,-12.77807 0,-7.05714 2.04319,-12.77807 4.5636,-12.77807 2.5204,0 4.56359,5.72093 4.56359,12.77807 z"
         sodipodi:ry="12.778071"
         sodipodi:rx="4.5635972"
         sodipodi:cy="176.06444"
         sodipodi:cx="191.89925"
         id="path3182"
         style="color:#000000;fill:#e2e3db;fill-opacity:1;fill-rule:evenodd;stroke:none;stroke-width:2.01807475;marker:none;visibility:visible;display:inline;overflow:visible;enable-background:accumulate"
         sodipodi:type="arc" />
      <path
         sodipodi:nodetypes="ccc"
         id="path3188"
         d="M 484.40836,21.345958 C 439.66741,18.294562 433.85113,63.835578 440.59985,94.473441 423.09341,34.564017 464.69837,13.284015 484.40836,21.345958 z"
         style="opacity:0.60851063;fill:#ffffff;fill-rule:evenodd;stroke:none"
         inkscape:connector-curvature="0" />
      <path
         transform="matrix(1.420706,0.2248276,-0.2098271,1.5222724,234.62976,-247.42013)"
         d="m 195.09378,165.56816 c 0,5.54489 -4.18855,10.03991 -9.35538,10.03991 -5.16683,0 -9.35537,-4.49502 -9.35537,-10.03991 0,-5.54489 4.18854,-10.03991 9.35537,-10.03991 5.16683,0 9.35538,4.49502 9.35538,10.03991 z"
         sodipodi:ry="10.039913"
         sodipodi:rx="9.3553734"
         sodipodi:cy="165.56816"
         sodipodi:cx="185.7384"
         id="path3184"
         style="opacity:0.66382979;color:#000000;fill:#ffffff;fill-opacity:1;fill-rule:evenodd;stroke:none;stroke-width:2.01807475;marker:none;visibility:visible;display:inline;overflow:visible;enable-background:accumulate"
         sodipodi:type="arc" />
      <path
         sodipodi:nodetypes="cccc"
         id="path3186"
         d="m 489.28591,29.476162 c 12.29533,25.373586 -9.14072,110.883718 -43.95332,56.931505 7.56373,13.241571 26.62919,42.815583 53.88311,3.203105 17.20294,-27.25586 3.99434,-54.893461 -9.92979,-60.13461 z"
         style="opacity:0.18297873;fill:#000000;fill-rule:evenodd;stroke:#000000;stroke-width:3;stroke-linecap:butt;stroke-linejoin:miter;stroke-miterlimit:4;stroke-opacity:1;stroke-dasharray:none"
         inkscape:connector-curvature="0" />
      <path
         sodipodi:nodetypes="ccccccccccc"
         id="path3167"
         d="m 212.65579,355.26627 c 47.79634,-46.67037 152.47696,51.38545 138.94186,-116.57176 -1.84974,-59.85728 175.66863,-149.047032 162.53573,15.44927 l -44.56625,5.61792 c 9.59553,56.17916 -7.62782,119.38072 30.14777,175.55989 -9.13598,16.08138 -38.77104,16.47377 -72.09248,14.04481 -37.73608,21.01723 -46.80863,5.14101 -72.09247,2.80896 -17.96952,17.94964 -67.90251,0.111 -93.06482,-7.0224 -24.91915,-7.03791 -44.96237,-0.42443 -62.91707,0 -51.64941,-8.05769 -84.97347,3.52004 -127.144888,5.61792 58.564248,-31.83487 112.758678,-63.66974 140.252618,-95.50461 z"
         style="fill:#7c916f;fill-rule:evenodd;stroke:#000000;stroke-width:3;stroke-linecap:butt;stroke-linejoin:miter;stroke-miterlimit:4;stroke-opacity:1;stroke-dasharray:none"
         inkscape:connector-curvature="0" />
      <path
         sodipodi:nodetypes="cssssc"
         id="path3253"
         d="m 332.63793,252.51867 c 9.10857,27.10118 -9.32293,73.91291 -20.71034,111.51157 -9.91286,32.73004 -10.36049,58.8187 -35.09043,54.52428 C 194.63435,404.27974 89.566419,415.55473 71.667274,320.36388 55.55476,234.67465 90.465366,151.99554 162.49326,133.27027 c 72.02791,-18.72529 161.36044,34.69798 170.14467,119.2484 z"
         style="color:#000000;fill:#a05a2c;fill-opacity:1;fill-rule:evenodd;stroke:#000000;stroke-width:3;stroke-linecap:butt;stroke-linejoin:miter;stroke-miterlimit:4;stroke-opacity:1;stroke-dasharray:none;stroke-dashoffset:0;marker:none;visibility:visible;display:inline;overflow:visible;enable-background:accumulate"
         inkscape:connector-curvature="0" />
      <path
         transform="matrix(1.4207061,0.2248276,-0.2098271,1.5222724,210.02586,-257.48804)"
         d="m 230.72695,273.31384 c 0,2.94063 -2.60056,5.32447 -5.80851,5.32447 -3.20795,0 -5.80851,-2.38384 -5.80851,-5.32447 0,-2.94062 2.60056,-5.32447 5.80851,-5.32447 3.20795,0 5.80851,2.38385 5.80851,5.32447 z"
         sodipodi:ry="5.3244681"
         sodipodi:rx="5.8085108"
         sodipodi:cy="273.31384"
         sodipodi:cx="224.91844"
         id="path3156"
         style="opacity:0.16253507;color:#000000;fill:#000000;fill-opacity:1;fill-rule:evenodd;stroke:none;stroke-width:2.01807475;marker:none;visibility:visible;display:inline;overflow:visible;enable-background:accumulate"
         sodipodi:type="arc" />
      <path
         transform="matrix(1.4207061,0.2248276,-0.2098271,1.5222724,212.21939,-249.61173)"
         d="m 241.69858,264.92377 c 0,3.11884 -2.02266,5.64716 -4.51773,5.64716 -2.49508,0 -4.51773,-2.52832 -4.51773,-5.64716 0,-3.11884 2.02265,-5.64717 4.51773,-5.64717 2.49507,0 4.51773,2.52833 4.51773,5.64717 z"
         sodipodi:ry="5.6471629"
         sodipodi:rx="4.5177302"
         sodipodi:cy="264.92377"
         sodipodi:cx="237.18085"
         id="path3158"
         style="opacity:0.16253507;color:#000000;fill:#000000;fill-opacity:1;fill-rule:evenodd;stroke:none;stroke-width:2.01807475;marker:none;visibility:visible;display:inline;overflow:visible;enable-background:accumulate"
         sodipodi:type="arc" />
      <path
         transform="matrix(1.4207061,0.2248276,-0.2098271,1.5222724,200.90896,-255.91912)"
         d="m 243.95745,281.0585 c 0,1.69309 -1.37252,3.0656 -3.0656,3.0656 -1.69309,0 -3.06561,-1.37251 -3.06561,-3.0656 0,-1.69308 1.37252,-3.0656 3.06561,-3.0656 1.69308,0 3.0656,1.37252 3.0656,3.0656 z"
         sodipodi:ry="3.0656028"
         sodipodi:rx="3.0656028"
         sodipodi:cy="281.0585"
         sodipodi:cx="240.89185"
         id="path3160"
         style="opacity:0.16253507;color:#000000;fill:#000000;fill-opacity:1;fill-rule:evenodd;stroke:none;stroke-width:2.01807475;marker:none;visibility:visible;display:inline;overflow:visible;enable-background:accumulate"
         sodipodi:type="arc" />
      <path
         transform="matrix(1.4353043,0,0,1.5867018,119.74654,-211.7538)"
         d="m 218.14184,172.47163 c 0,16.93086 -11.99146,30.65603 -26.78369,30.65603 -14.79222,0 -26.78368,-13.72517 -26.78368,-30.65603 0,-16.93085 11.99146,-30.65602 26.78368,-30.65602 14.79223,0 26.78369,13.72517 26.78369,30.65602 z"
         sodipodi:ry="30.656029"
         sodipodi:rx="26.783688"
         sodipodi:cy="172.47163"
         sodipodi:cx="191.35815"
         id="path2168"
         style="color:#000000;fill:#7c916f;fill-opacity:1;fill-rule:evenodd;stroke:#000000;stroke-width:1.98793232;stroke-linecap:butt;stroke-linejoin:miter;stroke-miterlimit:4;stroke-opacity:1;stroke-dasharray:none;stroke-dashoffset:0;marker:none;visibility:visible;display:inline;overflow:visible;enable-background:accumulate"
         sodipodi:type="arc" />
      <path
         sodipodi:nodetypes="ccccc"
         id="path3147"
         d="m 387.40091,106.74552 c -2.47649,30.29007 -0.75053,58.64896 6.65184,88.93903 l 6.02457,-1.48967 c -6.15412,-28.97979 -5.90326,-57.60685 0.29957,-85.2626 l -12.97598,-2.18676 z"
         style="fill:#7c916f;fill-rule:evenodd;stroke:#000000;stroke-width:3;stroke-linecap:butt;stroke-linejoin:miter;stroke-miterlimit:4;stroke-opacity:1;stroke-dasharray:none"
         inkscape:connector-curvature="0" />
      <path
         transform="matrix(1.4361173,0,0,1.5387854,116.8104,-205.47839)"
         d="m 217.81916,173.11702 c 0,15.14866 -10.40224,27.42908 -23.23405,27.42908 -12.8318,0 -23.23404,-12.28042 -23.23404,-27.42908 0,-15.14866 10.40224,-27.42908 23.23404,-27.42908 12.83181,0 23.23405,12.28042 23.23405,27.42908 z"
         sodipodi:ry="27.429079"
         sodipodi:rx="23.234043"
         sodipodi:cy="173.11702"
         sodipodi:cx="194.58511"
         id="path3145"
         style="color:#000000;fill:#e2e3db;fill-opacity:1;fill-rule:evenodd;stroke:#000000;stroke-width:2.01807475;stroke-linecap:butt;stroke-linejoin:miter;stroke-miterlimit:4;stroke-opacity:1;stroke-dasharray:none;stroke-dashoffset:0;marker:none;visibility:visible;display:inline;overflow:visible;enable-background:accumulate"
         sodipodi:type="arc" />
      <path
         sodipodi:nodetypes="ccccc"
         id="path3149"
         d="m 387.48003,104.65451 0.49154,6.49572 10.24041,0.4389 2.70346,-6.75906 -13.43541,-0.17556 z"
         style="fill:#7c916f;fill-rule:evenodd;stroke:none"
         inkscape:connector-curvature="0" />
      <path
         sodipodi:nodetypes="ccc"
         id="path3154"
         d="M 395.5085,109.30686 C 442.57643,99.555379 440.79172,50.669336 413.69546,20.297975 433.52083,63.8368 424.58348,91.966151 395.5085,109.30686 z"
         style="opacity:0.21702127;fill:#000000;fill-rule:evenodd;stroke:#000000;stroke-width:3;stroke-linecap:butt;stroke-linejoin:miter;stroke-miterlimit:4;stroke-opacity:1;stroke-dasharray:none"
         inkscape:connector-curvature="0" />
      <path
         transform="matrix(1.435792,-0.03275227,0.03056703,1.5384369,116.74978,-198.32368)"
         d="m 198.51648,180.74213 c 0,6.8681 -3.52451,12.4358 -7.87221,12.4358 -4.3477,0 -7.8722,-5.5677 -7.8722,-12.4358 0,-6.86811 3.5245,-12.43581 7.8722,-12.43581 4.3477,0 7.87221,5.5677 7.87221,12.43581 z"
         sodipodi:ry="12.435802"
         sodipodi:rx="7.8722048"
         sodipodi:cy="180.74213"
         sodipodi:cx="190.64427"
         id="path3151"
         style="color:#000000;fill:#000000;fill-opacity:1;fill-rule:evenodd;stroke:none;stroke-width:2.01807475;marker:none;visibility:visible;display:inline;overflow:visible;enable-background:accumulate"
         sodipodi:type="arc" />
      <path
         transform="matrix(1.4361173,0,0,1.5387854,123.85098,-209.89751)"
         d="m 196.46284,176.06444 c 0,7.05713 -2.04319,12.77807 -4.56359,12.77807 -2.52041,0 -4.5636,-5.72094 -4.5636,-12.77807 0,-7.05714 2.04319,-12.77807 4.5636,-12.77807 2.5204,0 4.56359,5.72093 4.56359,12.77807 z"
         sodipodi:ry="12.778071"
         sodipodi:rx="4.5635972"
         sodipodi:cy="176.06444"
         sodipodi:cx="191.89925"
         id="path3153"
         style="color:#000000;fill:#e2e3db;fill-opacity:1;fill-rule:evenodd;stroke:none;stroke-width:2.01807475;marker:none;visibility:visible;display:inline;overflow:visible;enable-background:accumulate"
         sodipodi:type="arc" />
      <path
         transform="matrix(1.4361173,0,0,1.5387854,115.98634,-211.30199)"
         d="m 195.09378,165.56816 c 0,5.54489 -4.18855,10.03991 -9.35538,10.03991 -5.16683,0 -9.35537,-4.49502 -9.35537,-10.03991 0,-5.54489 4.18854,-10.03991 9.35537,-10.03991 5.16683,0 9.35538,4.49502 9.35538,10.03991 z"
         sodipodi:ry="10.039913"
         sodipodi:rx="9.3553734"
         sodipodi:cy="165.56816"
         sodipodi:cx="185.7384"
         id="path3155"
         style="opacity:0.66382979;color:#000000;fill:#ffffff;fill-opacity:1;fill-rule:evenodd;stroke:none;stroke-width:2.01807475;marker:none;visibility:visible;display:inline;overflow:visible;enable-background:accumulate"
         sodipodi:type="arc" />
      <path
         sodipodi:nodetypes="cccc"
         id="path3157"
         d="m 405.66699,22.755815 c 15.62331,23.176432 6.07736,111.124805 -35.71854,63.201564 9.28818,11.915353 32.18173,38.187251 53.74165,-5.266801 13.30177,-29.656534 -3.53372,-54.9297 -18.02311,-57.934763 z"
         style="opacity:0.18297873;fill:#000000;fill-rule:evenodd;stroke:#000000;stroke-width:3;stroke-linecap:butt;stroke-linejoin:miter;stroke-miterlimit:4;stroke-opacity:1;stroke-dasharray:none"
         inkscape:connector-curvature="0" />
      <path
         sodipodi:nodetypes="ccccc"
         id="path3159"
         d="m 388.14745,107.33974 3.244,1.24142 c -2.15538,28.5521 -2.24499,57.10421 5.32942,85.65632 l -1.62199,0.24828 c -7.46374,-28.5178 -9.35068,-57.96771 -6.95143,-87.14602 z"
         style="opacity:0.44680852;fill:#ffffff;fill-rule:evenodd;stroke:none"
         inkscape:connector-curvature="0" />
      <path
         sodipodi:nodetypes="ccccc"
         id="path3286"
         d="m 400.14184,192.80142 c 19.57683,-18.34413 39.15367,-21.18821 58.7305,-31.62411 l -10.97163,-0.64539 c -19.50667,10.39641 -41.71436,18.09178 -54.85816,34.85106 l 7.09929,-2.58156 z"
         style="opacity:0.0851064;fill:#000000;fill-rule:evenodd;stroke:#000000;stroke-width:3;stroke-linecap:butt;stroke-linejoin:miter;stroke-miterlimit:4;stroke-opacity:1;stroke-dasharray:none"
         inkscape:connector-curvature="0" />
      <path
         id="path3171"
         d="m 398.34288,191.25813 2.08541,5.71041 -5.32941,2.4828 -0.69514,-7.2001 3.93914,-0.99311 z"
         style="fill:#7c916f;fill-rule:evenodd;stroke:none"
         inkscape:connector-curvature="0" />
      <path
         sodipodi:nodetypes="ccc"
         id="path2177"
         d="m 514.13337,253.44154 c -51.12012,8.78822 -95.68636,9.16674 -143.52954,-6.32015 47.84318,15.54155 95.68635,20.67626 143.52954,6.32015 z"
         style="fill:#000000;fill-rule:evenodd;stroke:#000000;stroke-width:3;stroke-linecap:butt;stroke-linejoin:miter;stroke-miterlimit:4;stroke-opacity:1;stroke-dasharray:none"
         inkscape:connector-curvature="0" />
      <path
         sodipodi:nodetypes="cccc"
         id="path2179"
         d="m 400.19658,108.58116 c -2.52239,28.63487 -11.68696,58.26284 0.69515,86.89772 -12.09999,-24.39534 -8.86523,-53.59541 -5.21358,-85.78046 l 4.51843,-1.11726 z"
         style="opacity:0.4;fill:#000000;fill-rule:evenodd;stroke:#000000;stroke-width:3;stroke-linecap:butt;stroke-linejoin:miter;stroke-miterlimit:4;stroke-opacity:1;stroke-dasharray:none"
         inkscape:connector-curvature="0" />
      <path
         sodipodi:nodetypes="ccc"
         id="path3152"
         d="m 399.73315,15.476452 c -44.6769,3.985654 -44.22083,49.948513 -33.3668,79.20107 -25.48775,-56.525851 12.76902,-84.090853 33.3668,-79.20107 z"
         style="opacity:0.60851063;fill:#ffffff;fill-rule:evenodd;stroke:none"
         inkscape:connector-curvature="0" />
      <path
         sodipodi:nodetypes="ccccccc"
         id="path3251"
         d="m 351.59763,306.10951 c -18.90181,33.0429 -42.60766,62.13005 -31.45852,116.57178 -68.92815,3.02129 -136.28511,16.14368 -208.41277,-1.40448 -19.446886,-23.52704 -7.02917,-29.98278 7.86463,-35.11197 36.49682,25.23893 100.30969,23.85219 178.26501,19.66271 -1.5254,-42.03911 18.34481,-77.7171 34.08007,-112.35834 20.26818,-3.13395 19.83851,4.82089 19.66158,12.6403 z"
         style="fill:#676c53;fill-rule:evenodd;stroke:#000000;stroke-width:3;stroke-linecap:butt;stroke-linejoin:miter;stroke-miterlimit:4;stroke-opacity:1;stroke-dasharray:none"
         inkscape:connector-curvature="0" />
      <path
         sodipodi:nodetypes="ccccccccccc"
         id="path3266"
         d="m 187.25145,130.42972 c 70.08823,-13.0496 157.83901,66.91796 148.29693,153.93311 C 313.67211,360.237 219.58117,400.26618 175.20231,380.69517 129.58265,370.95613 64.097933,334.78756 94.565862,232.72076 113.27796,197.68058 166.32727,157.87168 213.20341,219.81024 c 66.54958,117.97459 -83.47548,129.47651 -36.14738,39.72467 -61.39087,98.16711 115.85401,71.24166 35.76347,-44.1085 -31.7629,-42.70085 -91.34363,-40.59976 -118.909025,19.81243 -11.054715,47.81604 -15.606087,130.96772 85.926115,147.44256 75.63302,8.22858 130.6684,-43.74595 153.85807,-95.33922 4.6701,-85.79892 -78.84818,-172.11501 -146.44321,-156.91246 z"
         style="fill:#000000;fill-rule:evenodd;stroke:#000000;stroke-width:3;stroke-linecap:butt;stroke-linejoin:miter;stroke-miterlimit:4;stroke-opacity:1;stroke-dasharray:none"
         inkscape:connector-curvature="0" />
      <path
         sodipodi:nodetypes="ccc"
         id="path3268"
         d="m 328.69033,233.74542 c -0.16576,11.29301 -19.79553,41.56123 -54.45944,29.55518 30.23458,7.71901 43.48437,-3.52839 54.45944,-29.55518 z"
         style="fill:#000000;fill-rule:evenodd;stroke:#000000;stroke-width:3;stroke-linecap:butt;stroke-linejoin:miter;stroke-miterlimit:4;stroke-opacity:1;stroke-dasharray:none"
         inkscape:connector-curvature="0" />
      <path
         sodipodi:nodetypes="ccc"
         id="path3270"
         d="m 307.84491,193.41443 c 1.13491,10.4429 -10.63239,41.97592 -38.73172,37.308 24.20099,1.53325 33.17061,-11.28405 38.73172,-37.308 z"
         style="fill:#000000;fill-rule:evenodd;stroke:#000000;stroke-width:3;stroke-linecap:butt;stroke-linejoin:miter;stroke-miterlimit:4;stroke-opacity:1;stroke-dasharray:none"
         inkscape:connector-curvature="0" />
      <path
         sodipodi:nodetypes="ccc"
         id="path3272"
         d="m 276.03,158.3395 c 1.93057,8.94995 -4.07758,39.37246 -26.43715,41.54175 19.00832,-4.0603 24.71217,-17.36235 26.43715,-41.54175 z"
         style="fill:#000000;fill-rule:evenodd;stroke:#000000;stroke-width:3;stroke-linecap:butt;stroke-linejoin:miter;stroke-miterlimit:4;stroke-opacity:1;stroke-dasharray:none"
         inkscape:connector-curvature="0" />
      <path
         sodipodi:nodetypes="ccc"
         id="path3274"
         d="m 335.36784,288.13002 c -3.25996,10.71643 -32.08315,32.8329 -65.09202,9.44296 29.54342,17.77491 46.48882,11.60736 65.09202,-9.44296 z"
         style="fill:#000000;fill-rule:evenodd;stroke:#000000;stroke-width:3;stroke-linecap:butt;stroke-linejoin:miter;stroke-miterlimit:4;stroke-opacity:1;stroke-dasharray:none"
         inkscape:connector-curvature="0" />
      <path
         sodipodi:nodetypes="ccc"
         id="path3276"
         d="m 238.20031,137.01568 c 3.68679,6.45517 3.91572,33.68444 -17.53262,44.84999 17.78863,-11.2915 20.69991,-24.49141 17.53262,-44.84999 z"
         style="fill:#000000;fill-rule:evenodd;stroke:#000000;stroke-width:3;stroke-linecap:butt;stroke-linejoin:miter;stroke-miterlimit:4;stroke-opacity:1;stroke-dasharray:none"
         inkscape:connector-curvature="0" />
      <path
         sodipodi:nodetypes="cccc"
         id="path3278"
         d="m 460.39172,161.44814 c 69.1399,97.84297 -12.13528,88.56577 -86.51096,82.86429 10.96322,6.08377 83.49221,26.45103 138.94185,8.42687 9.98172,-74.56293 -24.42301,-84.1066 -52.43089,-91.29116 z"
         style="opacity:0.12340423;fill:#000000;fill-rule:evenodd;stroke:#000000;stroke-width:3;stroke-linecap:butt;stroke-linejoin:miter;stroke-miterlimit:4;stroke-opacity:1;stroke-dasharray:none"
         inkscape:connector-curvature="0" />
      <path
         sodipodi:nodetypes="cccc"
         id="path3280"
         d="m 372.62262,248.61063 c 112.9531,56.6552 45.21232,249.13962 126.0524,187.69907 -39.03522,-63.67902 -20.8725,-117.92927 -30.58626,-176.77479 -33.18476,0.73899 -64.74723,-3.73685 -95.46614,-10.92428 z"
         style="opacity:0.1148936;fill:#000000;fill-rule:evenodd;stroke:#000000;stroke-width:3;stroke-linecap:butt;stroke-linejoin:miter;stroke-miterlimit:4;stroke-opacity:1;stroke-dasharray:none"
         inkscape:connector-curvature="0" />
      <path
         sodipodi:nodetypes="cccc"
         id="path3288"
         d="M 70.279393,270.07454 C 111.96374,121.11608 193.68661,135.33092 278.37941,163.28637 L 243.69608,141.38111 C 151.87201,108.3732 79.277044,165.27643 70.279393,270.07454 z"
         style="opacity:0.39574465;fill:#ffffff;fill-rule:evenodd;stroke:none"
         inkscape:connector-curvature="0" />
      <path
         sodipodi:nodetypes="cccc"
         id="path3290"
         d="M 282.03029,168.76269 C 388.67376,292.85829 141.94536,489.57338 88.53378,291.06709 106.26701,398.69428 193.61411,393.57845 271.07766,365.91007 390.51461,275.00901 309.032,197.30099 282.03029,168.76269 z"
         style="opacity:0.24255317;fill:#000000;fill-rule:evenodd;stroke:#000000;stroke-width:3;stroke-linecap:butt;stroke-linejoin:miter;stroke-miterlimit:4;stroke-opacity:1;stroke-dasharray:none"
         inkscape:connector-curvature="0" />
      <path
         sodipodi:nodetypes="cccc"
         id="path3292"
         d="m 194.40923,201.62059 c 68.07273,64.87267 -10.3199,162.32958 -18.25439,61.1522 -9.82561,25.90318 -15.03352,77.38646 36.50878,49.28685 42.39969,-22.43517 18.04645,-78.24811 -18.25439,-110.43905 z"
         style="opacity:0.15319148;fill:#000000;fill-rule:evenodd;stroke:#000000;stroke-width:3;stroke-linecap:butt;stroke-linejoin:miter;stroke-miterlimit:4;stroke-opacity:1;stroke-dasharray:none"
         inkscape:connector-curvature="0" />
      <path
         sodipodi:nodetypes="ccc"
         id="path3294"
         d="M 332.22986,267.33638 C 332.49507,352.34459 228.6699,400.54143 157.90045,375.94999 263.54497,390.94938 310.83792,326.39208 332.22986,267.33638 z"
         style="opacity:0.23829789;fill:#000000;fill-rule:evenodd;stroke:#000000;stroke-width:3;stroke-linecap:butt;stroke-linejoin:miter;stroke-miterlimit:4;stroke-opacity:1;stroke-dasharray:none"
         inkscape:connector-curvature="0" />
      <path
         sodipodi:nodetypes="cccc"
         id="path3296"
         d="m 311.23731,330.31402 c -20.31308,32.68942 -62.68725,123.9322 -220.878091,32.8579 29.898061,27.70311 64.318401,58.83478 206.274581,43.81053 l 14.60351,-76.66843 z"
         style="opacity:0.27659577;fill:#000000;fill-rule:evenodd;stroke:#000000;stroke-width:3;stroke-linecap:butt;stroke-linejoin:miter;stroke-miterlimit:4;stroke-opacity:1;stroke-dasharray:none"
         inkscape:connector-curvature="0" />
      <path
         sodipodi:nodetypes="cccccc"
         id="path3306"
         d="m 101.97163,402.55319 c 51.66276,23.91257 122.63703,24.22219 205.23404,10.32624 -3.79581,-79.84343 27.86327,-74.0042 42.59575,-109.07092 -10.76609,38.70217 -42.75548,60.1604 -29.04256,118.75177 -77.0924,11.7308 -147.66061,10.12567 -207.8156,0 l -10.97163,-20.00709 z"
         style="opacity:0.31914894;fill:#000000;fill-rule:evenodd;stroke:#000000;stroke-width:3;stroke-linecap:butt;stroke-linejoin:miter;stroke-miterlimit:4;stroke-opacity:1;stroke-dasharray:none"
         inkscape:connector-curvature="0" />
      <path
         transform="matrix(1,0,0,0.7142857,0.6453901,75.277616)"
         d="m 155.53901,231.84752 c 0,6.23768 -4.76769,11.29432 -10.64893,11.29432 -5.88125,0 -10.64894,-5.05664 -10.64894,-11.29432 0,-6.23768 4.76769,-11.29433 10.64894,-11.29433 5.88124,0 10.64893,5.05665 10.64893,11.29433 z"
         sodipodi:ry="11.294326"
         sodipodi:rx="10.648936"
         sodipodi:cy="231.84752"
         sodipodi:cx="144.89008"
         id="path3308"
         style="opacity:0.31914894;color:#000000;fill:#000000;fill-opacity:1;fill-rule:evenodd;stroke:none;stroke-width:3.54964781;marker:none;visibility:visible;display:inline;overflow:visible;enable-background:accumulate"
         sodipodi:type="arc" />
      <path
         transform="translate(3.8723404,2.5815603)"
         d="m 152.95744,255.72696 c 0,2.67329 -2.74504,4.84042 -6.13121,4.84042 -3.38617,0 -6.1312,-2.16713 -6.1312,-4.84042 0,-2.67329 2.74503,-4.84043 6.1312,-4.84043 3.38617,0 6.13121,2.16714 6.13121,4.84043 z"
         sodipodi:ry="4.8404255"
         sodipodi:rx="6.1312056"
         sodipodi:cy="255.72696"
         sodipodi:cx="146.82623"
         id="path3310"
         style="opacity:0.31914894;color:#000000;fill:#000000;fill-opacity:1;fill-rule:evenodd;stroke:none;stroke-width:3;marker:none;visibility:visible;display:inline;overflow:visible;enable-background:accumulate"
         sodipodi:type="arc" />
      <path
         transform="matrix(1,0,0,0.7727273,-3.2269503,57.371696)"
         d="m 175.54609,242.49646 c 0,3.92083 -2.88951,7.09929 -6.4539,7.09929 -3.56439,0 -6.4539,-3.17846 -6.4539,-7.09929 0,-3.92083 2.88951,-7.09929 6.4539,-7.09929 3.56439,0 6.4539,3.17846 6.4539,7.09929 z"
         sodipodi:ry="7.0992908"
         sodipodi:rx="6.4539008"
         sodipodi:cy="242.49646"
         sodipodi:cx="169.09219"
         id="path3312"
         style="opacity:0.31914894;color:#000000;fill:#000000;fill-opacity:1;fill-rule:evenodd;stroke:none;stroke-width:3.41277862;marker:none;visibility:visible;display:inline;overflow:visible;enable-background:accumulate"
         sodipodi:type="arc" />
      <path
         sodipodi:nodetypes="ccc"
         id="path3327"
         d="m 389.27482,240.41117 c -4.60043,3.97799 -25.52623,-8.77903 -18.2544,23.27434 -6.68484,-21.42802 8.71162,-22.87873 18.2544,-23.27434 z"
         style="fill:#000000;fill-rule:evenodd;stroke:#000000;stroke-width:3;stroke-linecap:butt;stroke-linejoin:miter;stroke-miterlimit:4;stroke-opacity:1;stroke-dasharray:none"
         inkscape:connector-curvature="0" />
      <path
         transform="matrix(1.0904208,0.2248276,-0.1610466,1.5222724,161.91208,-236.7111)"
         d="m 230.72695,273.31384 c 0,2.94063 -2.60056,5.32447 -5.80851,5.32447 -3.20795,0 -5.80851,-2.38384 -5.80851,-5.32447 0,-2.94062 2.60056,-5.32447 5.80851,-5.32447 3.20795,0 5.80851,2.38385 5.80851,5.32447 z"
         sodipodi:ry="5.3244681"
         sodipodi:rx="5.8085108"
         sodipodi:cy="273.31384"
         sodipodi:cx="224.91844"
         id="path3329"
         style="opacity:0.16253507;color:#000000;fill:#000000;fill-opacity:1;fill-rule:evenodd;stroke:none;stroke-width:2.30352163;marker:none;visibility:visible;display:inline;overflow:visible;enable-background:accumulate"
         sodipodi:type="arc" />
      <path
         transform="matrix(0.5643673,0.1623483,-0.08335261,1.0992347,270.51611,-120.27073)"
         d="m 230.72695,273.31384 c 0,2.94063 -2.60056,5.32447 -5.80851,5.32447 -3.20795,0 -5.80851,-2.38384 -5.80851,-5.32447 0,-2.94062 2.60056,-5.32447 5.80851,-5.32447 3.20795,0 5.80851,2.38385 5.80851,5.32447 z"
         sodipodi:ry="5.3244681"
         sodipodi:rx="5.8085108"
         sodipodi:cy="273.31384"
         sodipodi:cx="224.91844"
         id="path3331"
         style="opacity:0.16253507;color:#000000;fill:#000000;fill-opacity:1;fill-rule:evenodd;stroke:none;stroke-width:3.76798725;marker:none;visibility:visible;display:inline;overflow:visible;enable-background:accumulate"
         sodipodi:type="arc" />
    </g>
  </g>
</svg>
