<?xml version="1.0" encoding="UTF-8" standalone="no"?>
<!-- Created with Inkscape (http://www.inkscape.org/) -->

<svg
   xmlns:dc="http://purl.org/dc/elements/1.1/"
   xmlns:cc="http://creativecommons.org/ns#"
   xmlns:rdf="http://www.w3.org/1999/02/22-rdf-syntax-ns#"
   xmlns:svg="http://www.w3.org/2000/svg"
   xmlns="http://www.w3.org/2000/svg"
   xmlns:sodipodi="http://sodipodi.sourceforge.net/DTD/sodipodi-0.dtd"
   xmlns:inkscape="http://www.inkscape.org/namespaces/inkscape"
   width="598.66968"
   height="396.22562"
   id="svg4140"
   sodipodi:version="0.32"
   inkscape:version="0.48.3.1 r9886"
   sodipodi:docname="cerdo.svg"
   inkscape:output_extension="org.inkscape.output.svg.inkscape"
   version="1.1">
  <defs
     id="defs4142">
    <inkscape:perspective
       sodipodi:type="inkscape:persp3d"
       inkscape:vp_x="0 : 240 : 1"
       inkscape:vp_y="0 : 1000 : 0"
       inkscape:vp_z="640 : 240 : 1"
       inkscape:persp3d-origin="320 : 160 : 1"
       id="perspective5501" />
  </defs>
  <sodipodi:namedview
     id="base"
     pagecolor="#ffffff"
     bordercolor="#666666"
     borderopacity="1.0"
     inkscape:pageopacity="0.0"
     inkscape:pageshadow="2"
     inkscape:zoom="0.77639494"
     inkscape:cx="225.4485"
     inkscape:cy="253.13752"
     inkscape:current-layer="layer1"
     inkscape:document-units="px"
     showguides="true"
     inkscape:guide-bbox="true"
     inkscape:window-width="960"
     inkscape:window-height="669"
     inkscape:window-x="0"
     inkscape:window-y="48"
     showgrid="false"
     inkscape:window-maximized="0"
     fit-margin-top="0"
     fit-margin-left="0"
     fit-margin-right="0"
     fit-margin-bottom="0" />
  <metadata
     id="metadata4145">
    <rdf:RDF>
      <cc:Work
         rdf:about="">
        <dc:format>image/svg+xml</dc:format>
        <dc:type
           rdf:resource="http://purl.org/dc/dcmitype/StillImage" />
        <dc:title></dc:title>
        <dc:date>03022008</dc:date>
        <dc:creator>
          <cc:Agent>
            <dc:title>Vladimir Zúñiga C</dc:title>
          </cc:Agent>
        </dc:creator>
        <cc:license
           rdf:resource="http://creativecommons.org/licenses/by/2.5/" />
      </cc:Work>
      <cc:License
         rdf:about="http://creativecommons.org/licenses/by/2.5/">
        <cc:permits
           rdf:resource="http://web.resource.org/cc/Reproduction" />
        <cc:permits
           rdf:resource="http://web.resource.org/cc/Distribution" />
        <cc:requires
           rdf:resource="http://web.resource.org/cc/Notice" />
        <cc:requires
           rdf:resource="http://web.resource.org/cc/Attribution" />
        <cc:permits
           rdf:resource="http://web.resource.org/cc/DerivativeWorks" />
      </cc:License>
    </rdf:RDF>
  </metadata>
  <g
     id="layer1"
     inkscape:label="Layer 1"
     inkscape:groupmode="layer"
     transform="translate(-15.282765,-60.619561)">
    <path
       style="fill:none;stroke:#000000;stroke-width:4;stroke-linecap:butt;stroke-linejoin:miter;stroke-miterlimit:4;stroke-opacity:1;stroke-dasharray:none"
       d="m 549.91929,243.05553 c 35.8194,-75.33487 54.248,55.00157 25.93745,20.9868 -19.23989,-34.12616 26.39259,-57.2537 27.72559,-26.82933 -9.03974,25.53467 -14.21419,-20.59809 8.37012,-10.37964"
       id="path3745"
       sodipodi:nodetypes="cccc"
       inkscape:connector-curvature="0" />
    <g
       id="g3767"
       transform="matrix(1.941587,0,0,1.9626218,-235.92185,-58.614072)"
       style="stroke-width:1.53682542;stroke-miterlimit:4;stroke-dasharray:none">
      <path
         sodipodi:nodetypes="cccccc"
         id="path3753"
         d="m 237.25209,230.97909 -2.2769,14.11673 12.29522,-5.46454 7.28606,9.56294 29.59958,-7.28604 c -18.42863,-20.13502 -32.08316,-17.25153 -46.90396,-10.92909 z"
         style="fill:#666666;fill-rule:evenodd;stroke:#000000;stroke-width:1.53682542;stroke-linecap:butt;stroke-linejoin:miter;stroke-miterlimit:4;stroke-opacity:1;stroke-dasharray:none"
         inkscape:connector-curvature="0" />
      <path
         sodipodi:nodetypes="cccc"
         id="path3747"
         d="m 243.94823,197.84108 c 3.21075,8.65659 -4.82137,22.77814 -8.67506,33.78953 9.43198,-4.04141 21.85928,-4.48845 48.29297,11.8722 0.34127,-17.32949 1.22508,-35.02069 -5.91991,-47.35934"
         style="fill:#d3bc5f;fill-rule:evenodd;stroke:#000000;stroke-width:1.53682542;stroke-linecap:butt;stroke-linejoin:miter;stroke-miterlimit:4;stroke-opacity:1;stroke-dasharray:none"
         inkscape:connector-curvature="0" />
    </g>
    <g
       id="g3771"
       style="opacity:0.5744681;fill:#000000;stroke-width:1.53682542;stroke-miterlimit:4;stroke-dasharray:none"
       transform="matrix(1.941587,0,0,1.9626218,-235.92185,-58.614072)">
      <path
         sodipodi:nodetypes="cccccc"
         id="path3773"
         d="m 237.25209,230.97909 -2.2769,14.11673 12.29522,-5.46454 7.28606,9.56294 29.59958,-7.28604 c -18.42863,-20.13502 -32.08316,-17.25153 -46.90396,-10.92909 z"
         style="fill:#000000;fill-rule:evenodd;stroke:#000000;stroke-width:1.53682542;stroke-linecap:butt;stroke-linejoin:miter;stroke-miterlimit:4;stroke-opacity:1;stroke-dasharray:none"
         inkscape:connector-curvature="0" />
      <path
         sodipodi:nodetypes="cccc"
         id="path3775"
         d="m 243.94823,197.84108 c 3.21075,8.65659 -4.82137,22.77814 -8.67506,33.78953 9.43198,-4.04141 21.85928,-4.48845 48.29297,11.8722 0.34127,-17.32949 1.22508,-35.02069 -5.91991,-47.35934"
         style="fill:#000000;fill-rule:evenodd;stroke:#000000;stroke-width:1.53682542;stroke-linecap:butt;stroke-linejoin:miter;stroke-miterlimit:4;stroke-opacity:1;stroke-dasharray:none"
         inkscape:connector-curvature="0" />
    </g>
    <g
       id="g3763"
       transform="matrix(1.941587,0,0,1.9626218,-235.92185,-58.614072)"
       style="stroke-width:1.53682542;stroke-miterlimit:4;stroke-dasharray:none">
      <path
         sodipodi:nodetypes="cccccc"
         id="path3759"
         d="m 305.52376,226.74773 -2.2769,14.11673 12.29522,-5.46454 7.28606,9.56294 29.59958,-7.28604 C 333.99909,217.5418 320.34456,220.42529 305.52376,226.74773 z"
         style="fill:#4d4d4d;fill-rule:evenodd;stroke:#000000;stroke-width:1.53682542;stroke-linecap:butt;stroke-linejoin:miter;stroke-miterlimit:4;stroke-opacity:1;stroke-dasharray:none"
         inkscape:connector-curvature="0" />
      <path
         sodipodi:nodetypes="cccc"
         id="path3761"
         d="m 314.47506,192.13898 c 3.21075,8.65659 -4.82137,22.77814 -8.67506,33.78953 9.43198,-4.04141 21.85928,-4.48845 48.29297,11.8722 0.34127,-17.32949 1.22508,-35.02069 -5.91991,-47.35934"
         style="fill:#d3bc5f;fill-rule:evenodd;stroke:#000000;stroke-width:1.53682542;stroke-linecap:butt;stroke-linejoin:miter;stroke-miterlimit:4;stroke-opacity:1;stroke-dasharray:none"
         inkscape:connector-curvature="0" />
    </g>
    <g
       id="g3781"
       style="opacity:0.53617021;fill:#000000;stroke-width:1.53682542;stroke-miterlimit:4;stroke-dasharray:none"
       transform="matrix(1.941587,0,0,1.9626218,-235.92185,-58.614072)">
      <path
         sodipodi:nodetypes="cccccc"
         id="path3783"
         d="m 305.52376,226.74773 -2.2769,14.11673 12.29522,-5.46454 7.28606,9.56294 29.59958,-7.28604 C 333.99909,217.5418 320.34456,220.42529 305.52376,226.74773 z"
         style="fill:#000000;fill-rule:evenodd;stroke:#000000;stroke-width:1.53682542;stroke-linecap:butt;stroke-linejoin:miter;stroke-miterlimit:4;stroke-opacity:1;stroke-dasharray:none"
         inkscape:connector-curvature="0" />
      <path
         sodipodi:nodetypes="cccc"
         id="path3785"
         d="m 314.47506,192.13898 c 3.21075,8.65659 -4.82137,22.77814 -8.67506,33.78953 9.43198,-4.04141 21.85928,-4.48845 48.29297,11.8722 0.34127,-17.32949 1.22508,-35.02069 -5.91991,-47.35934"
         style="fill:#000000;fill-rule:evenodd;stroke:#000000;stroke-width:1.53682542;stroke-linecap:butt;stroke-linejoin:miter;stroke-miterlimit:4;stroke-opacity:1;stroke-dasharray:none"
         inkscape:connector-curvature="0" />
    </g>
    <path
       style="fill:#d3bc5f;fill-rule:evenodd;stroke:#000000;stroke-width:3;stroke-linecap:butt;stroke-linejoin:miter;stroke-miterlimit:4;stroke-opacity:1;stroke-dasharray:none"
       d="m 185.53752,291.46605 c -13.33656,-372.888751 386.05295,-184.90151 375.77217,-52.2553 1.85462,210.45463 -349.58363,167.08487 -375.77217,52.2553 z"
       id="path3666"
       sodipodi:nodetypes="ccc"
       inkscape:connector-curvature="0" />
    <path
       style="fill:#4d4d4d;fill-rule:evenodd;stroke:#000000;stroke-width:3;stroke-linecap:butt;stroke-linejoin:miter;stroke-miterlimit:4;stroke-opacity:1;stroke-dasharray:none"
       d="m 319.32846,419.59576 -4.4208,27.7058 23.87224,-10.72483 14.14652,18.76844 57.47016,-14.29974 C 374.61579,401.528 348.10433,407.1872 319.32846,419.59576 z"
       id="path3751"
       sodipodi:nodetypes="cccccc"
       inkscape:connector-curvature="0" />
    <path
       style="fill:#d3bc5f;fill-rule:evenodd;stroke:#000000;stroke-width:3;stroke-linecap:butt;stroke-linejoin:miter;stroke-miterlimit:4;stroke-opacity:1;stroke-dasharray:none"
       d="m 336.70819,351.67187 c 6.23395,16.98961 -9.36111,44.70487 -16.84339,66.31607 18.31301,-7.93176 42.4417,-8.80913 93.765,23.30064 0.66261,-34.01124 2.3786,-68.73238 -11.49402,-92.94848"
       id="path3737"
       sodipodi:nodetypes="cccc"
       inkscape:connector-curvature="0" />
    <g
       id="g3777"
       transform="matrix(1.941587,0,0,1.9626218,-235.92185,-58.614072)"
       style="stroke-width:1.53682542;stroke-miterlimit:4;stroke-dasharray:none">
      <path
         sodipodi:nodetypes="cccccc"
         id="path3755"
         d="m 355.61537,229.47999 -2.2769,14.11673 12.29522,-5.46454 7.28606,9.56294 29.59958,-7.28604 C 384.0907,220.27406 370.43617,223.15755 355.61537,229.47999 z"
         style="fill:#4d4d4d;fill-rule:evenodd;stroke:#000000;stroke-width:1.53682542;stroke-linecap:butt;stroke-linejoin:miter;stroke-miterlimit:4;stroke-opacity:1;stroke-dasharray:none"
         inkscape:connector-curvature="0" />
      <path
         sodipodi:nodetypes="cccc"
         id="path3757"
         d="m 364.56667,194.87124 c -14.6879,5.67348 -6.31398,22.52937 -8.67506,33.78953 9.43198,-4.04141 21.85928,-4.48845 48.29297,11.8722 -4.38986,-18.11801 -1.15892,-35.41802 -5.91991,-47.35934"
         style="fill:#d3bc5f;fill-rule:evenodd;stroke:#000000;stroke-width:1.53682542;stroke-linecap:butt;stroke-linejoin:miter;stroke-miterlimit:4;stroke-opacity:1;stroke-dasharray:none"
         inkscape:connector-curvature="0" />
    </g>
    <path
       style="opacity:0.1744681;fill:#000000;fill-rule:evenodd;stroke:#000000;stroke-width:3;stroke-linecap:butt;stroke-linejoin:miter;stroke-miterlimit:4;stroke-opacity:1;stroke-dasharray:none"
       d="M 428.0332,94.750439 C 600.96322,259.1187 461.25742,363.43724 259.23108,361.44023 l 73.77277,24.01472 -13.75424,27.80652 c 34.91414,-1.81342 65.52004,9.43798 93.77896,27.80651 l 3.75117,-60.66877 37.51157,-6.31966 -1.25038,13.90325 c 32.09325,-4.52246 64.18648,6.25726 96.27973,25.27867 L 535.56642,320.99438 C 623.31407,178.94984 460.80858,111.99349 428.0332,94.750439 z"
       id="path3793"
       sodipodi:nodetypes="ccccccccccc"
       inkscape:connector-curvature="0" />
    <path
       style="fill:#eed6a8;fill-rule:evenodd;stroke:#000000;stroke-width:3;stroke-linecap:butt;stroke-linejoin:miter;stroke-miterlimit:4;stroke-opacity:1;stroke-dasharray:none"
       d="m 140.55624,119.15291 -16.28625,-34.873511 -34.099372,72.653141 12.214702,-3.48733 38.17092,-34.2923 z"
       id="path4324"
       inkscape:connector-curvature="0" />
    <path
       style="fill:#eed6a8;fill-rule:evenodd;stroke:#000000;stroke-width:3;stroke-linecap:butt;stroke-linejoin:miter;stroke-miterlimit:4;stroke-opacity:1;stroke-dasharray:none"
       d="m 328.41098,150.17682 -0.86272,-35.69779 -61.37038,42.73934 12.7678,2.86686 49.4653,-9.90841 z"
       id="path4330"
       inkscape:connector-curvature="0" />
    <path
       style="opacity:0.67739108;fill:#000000;fill-rule:evenodd;stroke:#000000;stroke-width:3;stroke-linecap:butt;stroke-linejoin:miter;stroke-miterlimit:4;stroke-opacity:1;stroke-dasharray:none"
       d="m 325.63117,150.51674 3.02261,-35.57585 -65.66811,35.90889 12.38376,4.21732 50.26174,-4.55036 z"
       id="path4328"
       inkscape:connector-curvature="0" />
    <path
       style="fill:#d3bc5f;fill-rule:evenodd;stroke:#000000;stroke-width:3;stroke-linecap:butt;stroke-linejoin:miter;stroke-miterlimit:4;stroke-opacity:1;stroke-dasharray:none"
       d="M 61.154766,249.78604 C 38.005768,444.00674 393.54607,415.60497 359.11552,247.99858 315.43692,28.432112 94.073616,55.562572 70.552396,222.964 c -1.205182,8.57719 -6.856559,8.04314 -9.39763,26.82204 z"
       id="path3452"
       sodipodi:nodetypes="ccsc"
       inkscape:connector-curvature="0" />
    <path
       style="opacity:0.67739108;fill:#000000;fill-rule:evenodd;stroke:#000000;stroke-width:3;stroke-linecap:butt;stroke-linejoin:miter;stroke-miterlimit:4;stroke-opacity:1;stroke-dasharray:none"
       d="m 140.55624,119.15291 -16.28625,-34.873511 -34.099372,72.653141 12.214702,-3.48733 38.17092,-34.2923 z"
       id="path4326"
       inkscape:connector-curvature="0" />
    <path
       style="fill:#d3bc5f;fill-rule:evenodd;stroke:#000000;stroke-width:3;stroke-linecap:butt;stroke-linejoin:miter;stroke-miterlimit:4;stroke-opacity:1;stroke-dasharray:none"
       d="M 152.51737,105.02981 C 146.978,108.25877 138.53081,87.497176 131.24004,76.276671 125.85516,70.741293 123.97992,54.347846 111.43012,70.980026 85.630664,87.364739 64.571202,84.196027 42.462292,85.356643 40.40951,116.96751 54.828202,149.42782 16.782765,179.18274 40.395919,179.32126 81.773682,212.81407 125.37045,83.086635 l 16.14142,34.049785 11.0055,-12.10661 z"
       id="path4318"
       sodipodi:nodetypes="cccccccc"
       inkscape:connector-curvature="0" />
    <path
       style="opacity:0.09361704;fill:#000000;fill-rule:evenodd;stroke:#000000;stroke-width:3;stroke-linecap:butt;stroke-linejoin:miter;stroke-miterlimit:4;stroke-opacity:1;stroke-dasharray:none"
       d="M 221.84887,95.667826 C 462.07602,295.03681 127.21185,495.16707 63.049813,259.97907 54.972326,377.74707 231.51281,440.18345 348.13787,321.91176 385.01691,188.22234 302.8827,99.327978 221.84887,95.667826 z"
       id="path3625"
       sodipodi:nodetypes="cccc"
       inkscape:connector-curvature="0" />
    <path
       style="opacity:0.14468085;fill:#000000;fill-rule:evenodd;stroke:#000000;stroke-width:3;stroke-linecap:butt;stroke-linejoin:miter;stroke-miterlimit:4;stroke-opacity:1;stroke-dasharray:none"
       d="m 263.52019,88.913679 c -5.70694,34.467431 -39.40831,47.030231 -79.57408,65.242671 47.63517,30.97343 86.43107,19.63153 145.88584,-37.53687 L 263.52019,88.913679 z"
       id="path3627"
       sodipodi:nodetypes="cccc"
       inkscape:connector-curvature="0" />
    <path
       style="fill:#d3bc5f;fill-rule:evenodd;stroke:#000000;stroke-width:3;stroke-linecap:butt;stroke-linejoin:miter;stroke-miterlimit:4;stroke-opacity:1;stroke-dasharray:none"
       d="m 337.98079,176.39868 c -4.41983,-0.12643 -2.8418,-23.70765 -3.0853,-42.59915 -0.11249,-8.72692 -0.23636,-16.45307 -0.79376,-20.40403 -2.50192,-7.05409 2.92961,-20.974969 -15.76881,-14.010017 -30.68097,0.205859 -48.51721,-12.736729 -69.19732,-22.768081 -15.64615,24.035168 -16.63214,56.902348 -64.31305,61.638488 21.48672,11.80604 44.65116,56.16388 140.95607,-25.05196 l -4.30324,42.0171 16.50541,21.17765 z"
       id="path4320"
       sodipodi:nodetypes="csccccccc"
       inkscape:connector-curvature="0" />
    <path
       style="opacity:0.14042556;fill:#000000;fill-rule:evenodd;stroke:none"
       d="m 191.81047,139.32429 c 38.9316,-2.24403 98.70677,29.11914 91.11577,-48.13554 l 29.55637,9.43793 c 9.57288,-0.57801 25.24007,-7.270901 15.23105,11.79909 -47.35032,40.08565 -93.95101,68.78777 -135.90319,26.89852 z"
       id="path4344"
       sodipodi:nodetypes="ccccc"
       inkscape:connector-curvature="0" />
    <path
       style="opacity:0.38695649;fill:#000000;fill-rule:evenodd;stroke:none"
       d="m 327.02822,110.91002 -3.35547,44.4512 10.74642,11.60755 c -1.80454,-21.37218 2.95391,-69.48862 -7.39095,-56.05875 z"
       id="path4346"
       sodipodi:nodetypes="cccc"
       inkscape:connector-curvature="0" />
    <path
       sodipodi:type="arc"
       style="opacity:0.06382979;color:#000000;fill:#000000;fill-opacity:1;fill-rule:evenodd;stroke:none;stroke-width:0.91440719;marker:none;visibility:visible;display:inline;overflow:visible;enable-background:accumulate"
       id="path4484"
       sodipodi:cx="250.19482"
       sodipodi:cy="121.77381"
       sodipodi:rx="10.304034"
       sodipodi:ry="11.109036"
       d="m 260.49886,121.77381 c 0,6.13535 -4.61327,11.10904 -10.30404,11.10904 -5.69076,0 -10.30403,-4.97369 -10.30403,-11.10904 0,-6.13535 4.61327,-11.10904 10.30403,-11.10904 5.69077,0 10.30404,4.97369 10.30404,11.10904 z"
       transform="matrix(3.1597022,0,0,3.4065684,-500.97162,-122.19059)" />
    <path
       style="opacity:0.32765958;fill:#ffffff;fill-rule:evenodd;stroke:none"
       d="M 17.090895,181.08762 C 58.800494,179.00008 89.168604,131.54347 113.46141,78.48258 90.757735,90.704257 66.254907,92.577599 43.551212,92.372702 42.464408,113.08023 51.100219,163.66551 17.090895,181.08762 z"
       id="path2207"
       sodipodi:nodetypes="cccc"
       inkscape:connector-curvature="0" />
    <path
       style="fill:#e6e6e6;fill-rule:evenodd;stroke:#000000;stroke-width:3;stroke-linecap:butt;stroke-linejoin:miter;stroke-miterlimit:4;stroke-opacity:1;stroke-dasharray:none"
       d="m 223.39393,190.02997 c -36.45452,-5.81913 -93.52564,68.88787 -26.68146,100.74187 86.0032,5.5702 58.34581,-80.22175 26.68146,-100.74187 z"
       id="path3597"
       sodipodi:nodetypes="ccc"
       inkscape:connector-curvature="0" />
    <path
       sodipodi:type="arc"
       style="opacity:0.10434786;color:#000000;fill:#000000;fill-opacity:1;fill-rule:evenodd;stroke:none;stroke-width:1.30479193;marker:none;visibility:visible;display:inline;overflow:visible;enable-background:accumulate"
       id="path3789"
       sodipodi:cx="250.19482"
       sodipodi:cy="121.77381"
       sodipodi:rx="10.304034"
       sodipodi:ry="11.109036"
       d="m 260.49886,121.77381 c 0,6.13535 -4.61327,11.10904 -10.30404,11.10904 -5.69076,0 -10.30403,-4.97369 -10.30403,-11.10904 0,-6.13535 4.61327,-11.10904 10.30403,-11.10904 5.69077,0 10.30404,4.97369 10.30404,11.10904 z"
       transform="matrix(1.5518254,0,0,3.4065684,-310.64621,-138.70605)" />
    <path
       style="fill:#e6e6e6;fill-rule:evenodd;stroke:#000000;stroke-width:3;stroke-linecap:butt;stroke-linejoin:miter;stroke-miterlimit:4;stroke-opacity:1;stroke-dasharray:none"
       d="m 106.89518,185.67366 c 36.45452,-5.81913 88.52409,72.67967 26.68146,100.74187 -86.003198,5.57019 -58.345815,-80.22176 -26.68146,-100.74187 z"
       id="path3599"
       sodipodi:nodetypes="ccc"
       inkscape:connector-curvature="0" />
    <path
       style="opacity:0.13191486;fill:#000000;fill-rule:evenodd;stroke:#000000;stroke-width:3;stroke-linecap:butt;stroke-linejoin:miter;stroke-miterlimit:4;stroke-opacity:1;stroke-dasharray:none"
       d="M 338.74513,177.963 C 345.9882,247.46117 403.1301,325.3935 282.07294,369.23163 345.86903,360.44417 410.7091,331.456 338.74513,177.963 z"
       id="path4002"
       sodipodi:nodetypes="ccc"
       inkscape:connector-curvature="0" />
    <path
       style="fill:#000000;fill-rule:evenodd;stroke:#000000;stroke-width:3;stroke-linecap:butt;stroke-linejoin:miter;stroke-miterlimit:4;stroke-opacity:1;stroke-dasharray:none"
       d="m 75.86786,287.20943 c 8.60754,44.84977 165.48853,69.94831 213.50188,0.57616 -57.16786,73.58288 -213.622162,30.6726 -213.50188,-0.57616 z"
       id="path3621"
       sodipodi:nodetypes="ccc"
       inkscape:connector-curvature="0" />
    <path
       style="fill:#d3bc5f;fill-rule:evenodd;stroke:#000000;stroke-width:3;stroke-linecap:butt;stroke-linejoin:miter;stroke-miterlimit:4;stroke-opacity:1;stroke-dasharray:none"
       d="m 103.1437,313.5609 c -0.83939,-63.02288 105.4944,-45.45911 104.86943,-2.72688 -2.28077,13.29809 -9.99174,44.05255 -64.59227,14.8983 -39.57821,22.20803 -38.86151,-11.7659 -40.27716,-12.17142 z"
       id="path3603"
       sodipodi:nodetypes="cccc"
       inkscape:connector-curvature="0" />
    <path
       sodipodi:type="arc"
       style="opacity:0.94468085;color:#000000;fill:#000000;fill-opacity:1;fill-rule:evenodd;stroke:none;stroke-width:1.53682542;marker:none;visibility:visible;display:inline;overflow:visible;enable-background:accumulate"
       id="path3605"
       sodipodi:cx="409.42435"
       sodipodi:cy="331.71851"
       sodipodi:rx="3.0590103"
       sodipodi:ry="5.3130178"
       d="m 412.48336,331.71851 c 0,2.93429 -1.36957,5.31301 -3.05901,5.31301 -1.68945,0 -3.05901,-2.37872 -3.05901,-5.31301 0,-2.9343 1.36956,-5.31302 3.05901,-5.31302 1.68944,0 3.05901,2.37872 3.05901,5.31302 z"
       transform="matrix(1.941587,0,0,1.9626218,-670.92686,-344.60938)" />
    <path
       sodipodi:type="arc"
       style="opacity:0.94468085;color:#000000;fill:#000000;fill-opacity:1;fill-rule:evenodd;stroke:none;stroke-width:1.53682542;marker:none;visibility:visible;display:inline;overflow:visible;enable-background:accumulate"
       id="path3607"
       sodipodi:cx="409.42435"
       sodipodi:cy="331.71851"
       sodipodi:rx="3.0590103"
       sodipodi:ry="5.3130178"
       d="m 412.48336,331.71851 c 0,2.93429 -1.36957,5.31301 -3.05901,5.31301 -1.68945,0 -3.05901,-2.37872 -3.05901,-5.31301 0,-2.9343 1.36956,-5.31302 3.05901,-5.31302 1.68944,0 3.05901,2.37872 3.05901,5.31302 z"
       transform="matrix(1.941587,0,0,1.9626218,-618.09803,-341.13356)" />
    <path
       sodipodi:type="arc"
       style="opacity:0.47234042;color:#000000;fill:#ffffff;fill-opacity:1;fill-rule:evenodd;stroke:none;stroke-width:1.58462584;marker:none;visibility:visible;display:inline;overflow:visible;enable-background:accumulate"
       id="path3609"
       sodipodi:cx="410.47086"
       sodipodi:cy="331.71851"
       sodipodi:rx="1.8515061"
       sodipodi:ry="4.8300161"
       d="m 412.32236,331.71851 c 0,2.66754 -0.82895,4.83001 -1.8515,4.83001 -1.02256,0 -1.85151,-2.16247 -1.85151,-4.83001 0,-2.66755 0.82895,-4.83002 1.85151,-4.83002 1.02255,0 1.8515,2.16247 1.8515,4.83002 z"
       transform="matrix(1.8571701,0,0,1.9299114,-635.80732,-333.60076)" />
    <path
       sodipodi:type="arc"
       style="opacity:0.47234042;color:#000000;fill:#ffffff;fill-opacity:1;fill-rule:evenodd;stroke:none;stroke-width:1.58462584;marker:none;visibility:visible;display:inline;overflow:visible;enable-background:accumulate"
       id="path3611"
       sodipodi:cx="410.47086"
       sodipodi:cy="331.71851"
       sodipodi:rx="1.8515061"
       sodipodi:ry="4.8300161"
       d="m 412.32236,331.71851 c 0,2.66754 -0.82895,4.83001 -1.8515,4.83001 -1.02256,0 -1.85151,-2.16247 -1.85151,-4.83001 0,-2.66755 0.82895,-4.83002 1.85151,-4.83002 1.02255,0 1.8515,2.16247 1.8515,4.83002 z"
       transform="matrix(1.8571701,0,0,1.9299114,-583.29106,-330.59889)" />
    <path
       sodipodi:type="arc"
       style="color:#000000;fill:#000000;fill-opacity:1;fill-rule:evenodd;stroke:none;stroke-width:1.90399575;marker:none;visibility:visible;display:inline;overflow:visible;enable-background:accumulate"
       id="path3613"
       sodipodi:cx="350.01517"
       sodipodi:cy="334.77753"
       sodipodi:rx="9.3380308"
       sodipodi:ry="15.13405"
       d="m 359.3532,334.77753 c 0,8.3583 -4.18078,15.13405 -9.33803,15.13405 -5.15725,0 -9.33803,-6.77575 -9.33803,-15.13405 0,-8.35831 4.18078,-15.13405 9.33803,-15.13405 5.15725,0 9.33803,6.77574 9.33803,15.13405 z"
       transform="matrix(1.6068306,0,0,1.5450426,-446.84903,-264.21812)" />
    <path
       sodipodi:type="arc"
       style="color:#000000;fill:#e6e6e6;fill-opacity:1;fill-rule:evenodd;stroke:none;stroke-width:1.53682542;marker:none;visibility:visible;display:inline;overflow:visible;enable-background:accumulate"
       id="path3615"
       sodipodi:cx="331.98309"
       sodipodi:cy="267.15729"
       sodipodi:rx="4.8300161"
       sodipodi:ry="5.4740181"
       d="m 336.81311,267.15729 c 0,3.02321 -2.16247,5.47402 -4.83002,5.47402 -2.66754,0 -4.83001,-2.45081 -4.83001,-5.47402 0,-3.02322 2.16247,-5.47402 4.83001,-5.47402 2.66755,0 4.83002,2.4508 4.83002,5.47402 z"
       transform="matrix(1.941587,0,0,1.9626218,-523.3813,-272.56522)" />
    <path
       sodipodi:type="arc"
       style="color:#000000;fill:#000000;fill-opacity:1;fill-rule:evenodd;stroke:none;stroke-width:1.90399575;marker:none;visibility:visible;display:inline;overflow:visible;enable-background:accumulate"
       id="path3617"
       sodipodi:cx="350.01517"
       sodipodi:cy="334.77753"
       sodipodi:rx="9.3380308"
       sodipodi:ry="15.13405"
       d="m 359.3532,334.77753 c 0,8.3583 -4.18078,15.13405 -9.33803,15.13405 -5.15725,0 -9.33803,-6.77575 -9.33803,-15.13405 0,-8.35831 4.18078,-15.13405 9.33803,-15.13405 5.15725,0 9.33803,6.77574 9.33803,15.13405 z"
       transform="matrix(1.6068306,0,0,1.5450426,-353.07009,-258.5304)" />
    <path
       sodipodi:type="arc"
       style="color:#000000;fill:#e6e6e6;fill-opacity:1;fill-rule:evenodd;stroke:none;stroke-width:1.53682542;marker:none;visibility:visible;display:inline;overflow:visible;enable-background:accumulate"
       id="path3619"
       sodipodi:cx="331.98309"
       sodipodi:cy="267.15729"
       sodipodi:rx="4.8300161"
       sodipodi:ry="5.4740181"
       d="m 336.81311,267.15729 c 0,3.02321 -2.16247,5.47402 -4.83002,5.47402 -2.66754,0 -4.83001,-2.45081 -4.83001,-5.47402 0,-3.02322 2.16247,-5.47402 4.83001,-5.47402 2.66755,0 4.83002,2.4508 4.83002,5.47402 z"
       transform="matrix(1.941587,0,0,1.9626218,-429.60236,-266.87751)" />
    <path
       style="fill:#000000;fill-rule:evenodd;stroke:#000000;stroke-width:3;stroke-linecap:butt;stroke-linejoin:miter;stroke-miterlimit:4;stroke-opacity:1;stroke-dasharray:none"
       d="m 275.61548,280.20198 c 15.56368,-2.21279 21.73074,5.80348 15.62981,27.17456 3.00515,-24.48005 -7.53072,-23.54009 -15.62981,-27.17456 z"
       id="path3623"
       sodipodi:nodetypes="ccc"
       inkscape:connector-curvature="0" />
    <path
       style="fill:#000000;fill-rule:evenodd;stroke:#000000;stroke-width:3;stroke-linecap:butt;stroke-linejoin:miter;stroke-miterlimit:4;stroke-opacity:1;stroke-dasharray:none"
       d="m 77.069585,178.28721 c 2.392016,-10.41308 47.947145,-28.54293 65.427575,1.78748 -36.15223,-27.92122 -51.184306,-16.06875 -65.427575,-1.78748 z"
       id="path3629"
       sodipodi:nodetypes="ccc"
       inkscape:connector-curvature="0" />
    <path
       style="fill:#000000;fill-rule:evenodd;stroke:#000000;stroke-width:3;stroke-linecap:butt;stroke-linejoin:miter;stroke-miterlimit:4;stroke-opacity:1;stroke-dasharray:none"
       d="m 254.67863,182.28721 c -2.39201,-10.41308 -47.94714,-28.54293 -65.42758,1.78748 36.15224,-27.92122 51.18431,-16.06875 65.42758,-1.78748 z"
       id="path3631"
       sodipodi:nodetypes="ccc"
       inkscape:connector-curvature="0" />
    <path
       style="opacity:0.08936169;fill:#000000;fill-rule:evenodd;stroke:#000000;stroke-width:3;stroke-linecap:butt;stroke-linejoin:miter;stroke-miterlimit:4;stroke-opacity:1;stroke-dasharray:none"
       d="m 206.21904,292.84131 c 13.2483,0.30077 23.14418,3.99028 23.13215,17.69506 -14.46869,-3.09936 -23.49956,15.78817 -35.01082,24.6467 9.96815,-12.89918 18.3246,-26.12421 11.87867,-42.34176 z"
       id="path3633"
       sodipodi:nodetypes="cccc"
       inkscape:connector-curvature="0" />
    <path
       sodipodi:nodetypes="ccc"
       id="path3787"
       d="m 84.513513,283.01844 c -10.032995,-1.96387 -14.00853,5.15065 -10.075613,24.1177 -1.937257,-21.7263 4.854608,-20.89207 10.075613,-24.1177 z"
       style="fill:#000000;fill-rule:evenodd;stroke:#000000;stroke-width:3;stroke-linecap:butt;stroke-linejoin:miter;stroke-miterlimit:4;stroke-opacity:1;stroke-dasharray:none"
       inkscape:connector-curvature="0" />
    <path
       style="opacity:0.19574465;fill:#ffffff;fill-rule:evenodd;stroke:none"
       d="m 362.65212,421.38323 -8.84156,32.17448 c 0,0 31.70108,-24.30784 29.17716,-26.81206 -3.53662,-3.50903 -17.68312,-7.18752 -20.3356,-5.36242 z"
       id="path3829"
       sodipodi:nodetypes="ccsc"
       inkscape:connector-curvature="0" />
    <path
       style="opacity:0.19574465;fill:#ffffff;fill-rule:evenodd;stroke:none"
       d="m 487.68873,389.45067 -7.9574,27.7058 c 0,0 30.81692,-19.83916 28.293,-22.34339 -3.53662,-3.50903 -17.68312,-7.18751 -20.3356,-5.36241 z"
       id="path3831"
       sodipodi:nodetypes="ccsc"
       inkscape:connector-curvature="0" />
    <path
       style="opacity:0.25106381;fill:#ffffff;fill-rule:evenodd;stroke:none"
       d="m 189.20945,99.174209 c -20.60198,-0.06946 -54.74004,25.337271 -70.64682,58.772851 l 23.13214,8.21557 c -4.54183,-28.18794 21.94516,-57.08075 47.51468,-66.988421 z"
       id="path3837"
       sodipodi:nodetypes="cccc"
       inkscape:connector-curvature="0" />
    <path
       style="opacity:0.34893619;fill:#000000;fill-rule:evenodd;stroke:#000000;stroke-width:3;stroke-linecap:butt;stroke-linejoin:miter;stroke-miterlimit:4;stroke-opacity:1;stroke-dasharray:none"
       d="m 109.74617,293.29491 c 27.1709,-35.54257 98.05812,-15.06407 94.2633,20.49201 -22.43152,-44.13211 -79.5371,-40.32015 -94.2633,-20.49201 z"
       id="path3841"
       sodipodi:nodetypes="ccc"
       inkscape:connector-curvature="0" />
    <path
       style="opacity:0.16595746;fill:#ffffff;fill-rule:evenodd;stroke:none"
       d="m 107.0139,321.52836 c 14.85793,22.73984 23.89051,2.76054 35.5195,1.82151 36.96979,15.49936 45.51733,4.66458 57.83304,1.82152 -6.41169,13.1218 -23.52655,15.07506 -57.83304,-0.91076 -12.63074,1.72559 -26.3136,6.95825 -35.5195,-2.73227 z"
       id="path3843"
       sodipodi:nodetypes="ccccc"
       inkscape:connector-curvature="0" />
    <path
       style="fill:#000000;fill-rule:evenodd;stroke:#000000;stroke-width:3;stroke-linecap:butt;stroke-linejoin:miter;stroke-miterlimit:4;stroke-opacity:1;stroke-dasharray:none"
       d="m 186.76062,103.25875 c 1.12423,-46.54298 -23.33347,-3.01741 -39.92814,-9.660033 30.58705,-0.471394 37.92908,-45.422694 39.92814,9.660033 z"
       id="path4022"
       sodipodi:nodetypes="ccc"
       inkscape:connector-curvature="0" />
    <path
       style="fill:#000000;fill-rule:evenodd;stroke:#000000;stroke-width:3;stroke-linecap:butt;stroke-linejoin:miter;stroke-miterlimit:4;stroke-opacity:1;stroke-dasharray:none"
       d="m 186.76062,100.79324 c 5.88114,-18.591412 9.89609,-40.21538 28.9801,-37.352129 -22.18783,-7.593764 -22.86585,19.228158 -28.9801,37.352129 z"
       id="path4026"
       sodipodi:nodetypes="ccc"
       inkscape:connector-curvature="0" />
    <path
       sodipodi:type="arc"
       style="opacity:0.13191486;color:#000000;fill:#000000;fill-opacity:1;fill-rule:evenodd;stroke:none;stroke-width:6.97038651;marker:none;visibility:visible;display:inline;overflow:visible;enable-background:accumulate"
       id="path4028"
       sodipodi:cx="-90.804298"
       sodipodi:cy="96.818726"
       sodipodi:rx="27.692091"
       sodipodi:ry="27.692091"
       d="m -63.112207,96.818726 c 0,15.293924 -12.398172,27.692094 -27.692091,27.692094 -15.293922,0 -27.692092,-12.39817 -27.692092,-27.692094 0,-15.29392 12.39817,-27.692091 27.692092,-27.692091 15.293919,0 27.692091,12.398171 27.692091,27.692091 z"
       transform="matrix(0.3500059,0,0,0.5292409,561.76344,148.83962)" />
    <path
       sodipodi:type="arc"
       style="opacity:0.13191486;color:#000000;fill:#000000;fill-opacity:1;fill-rule:evenodd;stroke:none;stroke-width:5.55127573;marker:none;visibility:visible;display:inline;overflow:visible;enable-background:accumulate"
       id="path4030"
       sodipodi:cx="-90.804298"
       sodipodi:cy="96.818726"
       sodipodi:rx="27.692091"
       sodipodi:ry="27.692091"
       d="m -63.112207,96.818726 c 0,15.293924 -12.398172,27.692094 -27.692091,27.692094 -15.293922,0 -27.692092,-12.39817 -27.692092,-27.692094 0,-15.29392 12.39817,-27.692091 27.692092,-27.692091 15.293919,0 27.692091,12.398171 27.692091,27.692091 z"
       transform="matrix(0.4651163,0,0,0.627907,545.84423,165.47)" />
    <path
       sodipodi:type="arc"
       style="opacity:0.13191486;color:#000000;fill:#000000;fill-opacity:1;fill-rule:evenodd;stroke:none;stroke-width:5.55127573;marker:none;visibility:visible;display:inline;overflow:visible;enable-background:accumulate"
       id="path4032"
       sodipodi:cx="-90.804298"
       sodipodi:cy="96.818726"
       sodipodi:rx="27.692091"
       sodipodi:ry="27.692091"
       d="m -63.112207,96.818726 c 0,15.293924 -12.398172,27.692094 -27.692091,27.692094 -15.293922,0 -27.692092,-12.39817 -27.692092,-27.692094 0,-15.29392 12.39817,-27.692091 27.692092,-27.692091 15.293919,0 27.692091,12.398171 27.692091,27.692091 z"
       transform="matrix(0.4651163,0,0,0.627907,538.05149,116.74682)" />
    <path
       style="opacity:0.09361704;fill:#000000;fill-rule:evenodd;stroke:#000000;stroke-width:3;stroke-linecap:butt;stroke-linejoin:miter;stroke-miterlimit:4;stroke-opacity:1;stroke-dasharray:none"
       d="m 398.00061,343.38652 c 11.25868,26.38592 17.84214,57.44707 14.57211,98.3617 l -50.09161,-28.23345 c 33.04079,-24.00016 16.77608,-44.71329 16.39362,-66.48523 l 19.12588,-3.64302 z"
       id="path4034"
       sodipodi:nodetypes="ccccc"
       inkscape:connector-curvature="0" />
    <path
       style="opacity:0.09787233;fill:#000000;fill-rule:evenodd;stroke:#000000;stroke-width:3;stroke-linecap:butt;stroke-linejoin:miter;stroke-miterlimit:4;stroke-opacity:1;stroke-dasharray:none"
       d="m 537.34637,323.34987 -39.16253,8.19681 c -5.14802,12.77323 -12.2962,22.04617 -8.19681,51.00237 l 61.02069,27.3227 -13.66135,-86.52188 z"
       id="path4040"
       sodipodi:nodetypes="ccccc"
       inkscape:connector-curvature="0" />
  </g>
</svg>
