<?xml version="1.0" encoding="UTF-8" standalone="no"?>
<!-- Created with Inkscape (http://www.inkscape.org/) -->

<svg
   xmlns:dc="http://purl.org/dc/elements/1.1/"
   xmlns:cc="http://creativecommons.org/ns#"
   xmlns:rdf="http://www.w3.org/1999/02/22-rdf-syntax-ns#"
   xmlns:svg="http://www.w3.org/2000/svg"
   xmlns="http://www.w3.org/2000/svg"
   xmlns:sodipodi="http://sodipodi.sourceforge.net/DTD/sodipodi-0.dtd"
   xmlns:inkscape="http://www.inkscape.org/namespaces/inkscape"
   width="471.01785"
   height="528.83167"
   id="svg3346"
   version="1.1"
   inkscape:version="0.48.3.1 r9886"
   sodipodi:docname="conejo4.svg">
  <defs
     id="defs3348">
    <inkscape:perspective
       sodipodi:type="inkscape:persp3d"
       inkscape:vp_x="0 : 240 : 1"
       inkscape:vp_y="0 : 1000 : 0"
       inkscape:vp_z="640 : 240 : 1"
       inkscape:persp3d-origin="320 : 160 : 1"
       id="perspective3354" />
    <inkscape:perspective
       id="perspective3304"
       inkscape:persp3d-origin="0.5 : 0.33333333 : 1"
       inkscape:vp_z="1 : 0.5 : 1"
       inkscape:vp_y="0 : 1000 : 0"
       inkscape:vp_x="0 : 0.5 : 1"
       sodipodi:type="inkscape:persp3d" />
    <inkscape:perspective
       id="perspective3494"
       inkscape:persp3d-origin="0.5 : 0.33333333 : 1"
       inkscape:vp_z="1 : 0.5 : 1"
       inkscape:vp_y="0 : 1000 : 0"
       inkscape:vp_x="0 : 0.5 : 1"
       sodipodi:type="inkscape:persp3d" />
    <inkscape:perspective
       id="perspective3802"
       inkscape:persp3d-origin="0.5 : 0.33333333 : 1"
       inkscape:vp_z="1 : 0.5 : 1"
       inkscape:vp_y="0 : 1000 : 0"
       inkscape:vp_x="0 : 0.5 : 1"
       sodipodi:type="inkscape:persp3d" />
    <inkscape:perspective
       id="perspective3994"
       inkscape:persp3d-origin="0.5 : 0.33333333 : 1"
       inkscape:vp_z="1 : 0.5 : 1"
       inkscape:vp_y="0 : 1000 : 0"
       inkscape:vp_x="0 : 0.5 : 1"
       sodipodi:type="inkscape:persp3d" />
    <inkscape:perspective
       id="perspective3994-8"
       inkscape:persp3d-origin="0.5 : 0.33333333 : 1"
       inkscape:vp_z="1 : 0.5 : 1"
       inkscape:vp_y="0 : 1000 : 0"
       inkscape:vp_x="0 : 0.5 : 1"
       sodipodi:type="inkscape:persp3d" />
    <inkscape:perspective
       id="perspective3994-2"
       inkscape:persp3d-origin="0.5 : 0.33333333 : 1"
       inkscape:vp_z="1 : 0.5 : 1"
       inkscape:vp_y="0 : 1000 : 0"
       inkscape:vp_x="0 : 0.5 : 1"
       sodipodi:type="inkscape:persp3d" />
    <inkscape:perspective
       id="perspective4031"
       inkscape:persp3d-origin="0.5 : 0.33333333 : 1"
       inkscape:vp_z="1 : 0.5 : 1"
       inkscape:vp_y="0 : 1000 : 0"
       inkscape:vp_x="0 : 0.5 : 1"
       sodipodi:type="inkscape:persp3d" />
    <inkscape:perspective
       id="perspective4825"
       inkscape:persp3d-origin="0.5 : 0.33333333 : 1"
       inkscape:vp_z="1 : 0.5 : 1"
       inkscape:vp_y="0 : 1000 : 0"
       inkscape:vp_x="0 : 0.5 : 1"
       sodipodi:type="inkscape:persp3d" />
    <inkscape:perspective
       id="perspective4856"
       inkscape:persp3d-origin="0.5 : 0.33333333 : 1"
       inkscape:vp_z="1 : 0.5 : 1"
       inkscape:vp_y="0 : 1000 : 0"
       inkscape:vp_x="0 : 0.5 : 1"
       sodipodi:type="inkscape:persp3d" />
    <inkscape:perspective
       id="perspective4877"
       inkscape:persp3d-origin="0.5 : 0.33333333 : 1"
       inkscape:vp_z="1 : 0.5 : 1"
       inkscape:vp_y="0 : 1000 : 0"
       inkscape:vp_x="0 : 0.5 : 1"
       sodipodi:type="inkscape:persp3d" />
    <inkscape:perspective
       id="perspective4899"
       inkscape:persp3d-origin="0.5 : 0.33333333 : 1"
       inkscape:vp_z="1 : 0.5 : 1"
       inkscape:vp_y="0 : 1000 : 0"
       inkscape:vp_x="0 : 0.5 : 1"
       sodipodi:type="inkscape:persp3d" />
    <inkscape:perspective
       id="perspective4996"
       inkscape:persp3d-origin="0.5 : 0.33333333 : 1"
       inkscape:vp_z="1 : 0.5 : 1"
       inkscape:vp_y="0 : 1000 : 0"
       inkscape:vp_x="0 : 0.5 : 1"
       sodipodi:type="inkscape:persp3d" />
    <inkscape:perspective
       id="perspective5018"
       inkscape:persp3d-origin="0.5 : 0.33333333 : 1"
       inkscape:vp_z="1 : 0.5 : 1"
       inkscape:vp_y="0 : 1000 : 0"
       inkscape:vp_x="0 : 0.5 : 1"
       sodipodi:type="inkscape:persp3d" />
    <inkscape:perspective
       id="perspective5039"
       inkscape:persp3d-origin="0.5 : 0.33333333 : 1"
       inkscape:vp_z="1 : 0.5 : 1"
       inkscape:vp_y="0 : 1000 : 0"
       inkscape:vp_x="0 : 0.5 : 1"
       sodipodi:type="inkscape:persp3d" />
    <inkscape:perspective
       id="perspective5061"
       inkscape:persp3d-origin="0.5 : 0.33333333 : 1"
       inkscape:vp_z="1 : 0.5 : 1"
       inkscape:vp_y="0 : 1000 : 0"
       inkscape:vp_x="0 : 0.5 : 1"
       sodipodi:type="inkscape:persp3d" />
    <inkscape:perspective
       id="perspective5083"
       inkscape:persp3d-origin="0.5 : 0.33333333 : 1"
       inkscape:vp_z="1 : 0.5 : 1"
       inkscape:vp_y="0 : 1000 : 0"
       inkscape:vp_x="0 : 0.5 : 1"
       sodipodi:type="inkscape:persp3d" />
    <inkscape:perspective
       id="perspective5104"
       inkscape:persp3d-origin="0.5 : 0.33333333 : 1"
       inkscape:vp_z="1 : 0.5 : 1"
       inkscape:vp_y="0 : 1000 : 0"
       inkscape:vp_x="0 : 0.5 : 1"
       sodipodi:type="inkscape:persp3d" />
    <inkscape:perspective
       id="perspective5104-1"
       inkscape:persp3d-origin="0.5 : 0.33333333 : 1"
       inkscape:vp_z="1 : 0.5 : 1"
       inkscape:vp_y="0 : 1000 : 0"
       inkscape:vp_x="0 : 0.5 : 1"
       sodipodi:type="inkscape:persp3d" />
    <inkscape:perspective
       id="perspective5104-5"
       inkscape:persp3d-origin="0.5 : 0.33333333 : 1"
       inkscape:vp_z="1 : 0.5 : 1"
       inkscape:vp_y="0 : 1000 : 0"
       inkscape:vp_x="0 : 0.5 : 1"
       sodipodi:type="inkscape:persp3d" />
    <inkscape:perspective
       id="perspective5104-8"
       inkscape:persp3d-origin="0.5 : 0.33333333 : 1"
       inkscape:vp_z="1 : 0.5 : 1"
       inkscape:vp_y="0 : 1000 : 0"
       inkscape:vp_x="0 : 0.5 : 1"
       sodipodi:type="inkscape:persp3d" />
    <inkscape:perspective
       id="perspective5104-81"
       inkscape:persp3d-origin="0.5 : 0.33333333 : 1"
       inkscape:vp_z="1 : 0.5 : 1"
       inkscape:vp_y="0 : 1000 : 0"
       inkscape:vp_x="0 : 0.5 : 1"
       sodipodi:type="inkscape:persp3d" />
    <inkscape:perspective
       id="perspective5157"
       inkscape:persp3d-origin="0.5 : 0.33333333 : 1"
       inkscape:vp_z="1 : 0.5 : 1"
       inkscape:vp_y="0 : 1000 : 0"
       inkscape:vp_x="0 : 0.5 : 1"
       sodipodi:type="inkscape:persp3d" />
    <inkscape:perspective
       id="perspective5179"
       inkscape:persp3d-origin="0.5 : 0.33333333 : 1"
       inkscape:vp_z="1 : 0.5 : 1"
       inkscape:vp_y="0 : 1000 : 0"
       inkscape:vp_x="0 : 0.5 : 1"
       sodipodi:type="inkscape:persp3d" />
    <inkscape:perspective
       id="perspective5200"
       inkscape:persp3d-origin="0.5 : 0.33333333 : 1"
       inkscape:vp_z="1 : 0.5 : 1"
       inkscape:vp_y="0 : 1000 : 0"
       inkscape:vp_x="0 : 0.5 : 1"
       sodipodi:type="inkscape:persp3d" />
    <inkscape:perspective
       id="perspective5234"
       inkscape:persp3d-origin="0.5 : 0.33333333 : 1"
       inkscape:vp_z="1 : 0.5 : 1"
       inkscape:vp_y="0 : 1000 : 0"
       inkscape:vp_x="0 : 0.5 : 1"
       sodipodi:type="inkscape:persp3d" />
    <inkscape:perspective
       id="perspective5255"
       inkscape:persp3d-origin="0.5 : 0.33333333 : 1"
       inkscape:vp_z="1 : 0.5 : 1"
       inkscape:vp_y="0 : 1000 : 0"
       inkscape:vp_x="0 : 0.5 : 1"
       sodipodi:type="inkscape:persp3d" />
  </defs>
  <sodipodi:namedview
     id="base"
     pagecolor="#ffffff"
     bordercolor="#666666"
     borderopacity="1.0"
     inkscape:pageopacity="0.0"
     inkscape:pageshadow="2"
     inkscape:zoom="0.54781349"
     inkscape:cx="171.4302"
     inkscape:cy="286.39632"
     inkscape:current-layer="layer1"
     inkscape:document-units="px"
     showgrid="false"
     inkscape:window-width="1264"
     inkscape:window-height="715"
     inkscape:window-x="0"
     inkscape:window-y="48"
     inkscape:window-maximized="1" />
  <metadata
     id="metadata3351">
    <rdf:RDF>
      <cc:Work
         rdf:about="">
        <dc:format>image/svg+xml</dc:format>
        <dc:type
           rdf:resource="http://purl.org/dc/dcmitype/StillImage" />
        <dc:title></dc:title>
      </cc:Work>
    </rdf:RDF>
  </metadata>
  <g
     id="layer1"
     inkscape:label="Layer 1"
     inkscape:groupmode="layer"
     transform="translate(-25.455842,108.402)">
    <g
       id="g5281">
      <path
         sodipodi:nodetypes="cccccc"
         inkscape:connector-curvature="0"
         id="path3285-7-5"
         d="m 138.70486,310.01819 c -7.63721,-10.01809 -30.55802,-3.08659 -18.34345,18.64918 -24.112948,0.79597 -14.32546,36.03791 4.28012,22.31788 -9.05982,15.63949 8.41418,27.75648 15.89767,10.39463 17.07512,22.52916 32.41732,-1.78939 24.15224,-4.58587 l 2.14006,-16.81485"
         style="color:#000000;fill:#aca793;fill-opacity:1;fill-rule:nonzero;stroke:#000000;stroke-width:5.57499266px;stroke-linecap:butt;stroke-linejoin:miter;stroke-miterlimit:4;stroke-opacity:1;stroke-dasharray:none;stroke-dashoffset:0;marker:none;visibility:visible;display:inline;overflow:visible;enable-background:accumulate" />
      <g
         transform="matrix(-2.421214,0,0,2.421214,1038.2926,-884.07972)"
         id="g3224-2-9-6">
        <path
           transform="translate(2.5253814,1.2626907)"
           style="color:#000000;fill:#aca793;fill-opacity:1;fill-rule:nonzero;stroke:#000000;stroke-width:2.30256081px;stroke-linecap:butt;stroke-linejoin:miter;stroke-miterlimit:4;stroke-opacity:1;stroke-dashoffset:0;marker:none;visibility:visible;display:inline;overflow:visible;enable-background:accumulate"
           d="m 320.4709,507.7637 c 0,9.69337 -6.72109,15.40854 -16.55394,15.40854 -2.4015,0 -4.69756,-5.26999 -6.42521,-3.81845 -6.6472,5.58488 -12.62873,-4.26416 -12.62873,-11.59009 0,-9.69337 7.9711,-17.5514 17.80394,-17.5514 9.83285,0 17.80394,7.85803 17.80394,17.5514 z"
           id="path3163-0-2-9"
           inkscape:connector-curvature="0"
           sodipodi:nodetypes="ssssss" />
        <path
           style="color:#000000;fill:#000000;fill-opacity:1;fill-rule:nonzero;stroke:none;stroke-width:2.30256081px;marker:none;visibility:visible;display:inline;overflow:visible;enable-background:accumulate"
           d="m 299.73214,519.7729 c 0.14727,-5.93152 2.4354,-10.90335 9.46429,-13.75 -6.72361,5.08019 -7.41729,9.97765 -6.33929,14.82142 z"
           id="path3198-2-0-8"
           inkscape:connector-curvature="0"
           sodipodi:nodetypes="cccc" />
        <path
           style="color:#000000;fill:#aca793;fill-opacity:1;fill-rule:nonzero;stroke:#000000;stroke-width:2.30256081px;stroke-linecap:butt;stroke-linejoin:miter;stroke-miterlimit:4;stroke-opacity:1;stroke-dasharray:none;stroke-dashoffset:0;marker:none;visibility:visible;display:inline;overflow:visible;enable-background:accumulate"
           d="m 294.375,495.21932 c -17.82746,9.04379 -14.28227,25.93489 -3.03572,23.39287"
           id="path3190-3-2-7"
           inkscape:connector-curvature="0"
           sodipodi:nodetypes="cc" />
        <path
           style="color:#000000;fill:#000000;fill-opacity:1;fill-rule:nonzero;stroke:none;stroke-width:2.30256081px;marker:none;visibility:visible;display:inline;overflow:visible;enable-background:accumulate"
           d="m 288.125,517.98718 c 0.14727,-5.93152 2.4354,-10.90335 9.46429,-13.75 -6.72361,5.08019 -7.41729,9.97765 -6.33929,14.82142 z"
           id="path3198-9-7-3-2"
           inkscape:connector-curvature="0"
           sodipodi:nodetypes="cccc" />
      </g>
      <path
         sodipodi:nodetypes="cccccc"
         inkscape:connector-curvature="0"
         id="path3285-7-5-8"
         d="m 147.92013,312.50363 c -6.34489,-8.32291 -25.38728,-2.56429 -15.23953,15.49354 -20.03277,0.66127 -11.90143,29.93987 3.55586,18.54142 -7.52676,12.99313 6.99044,23.0598 13.20763,8.63577 14.18582,18.71696 26.93194,-1.48661 20.0654,-3.8099 l 1.77796,-13.9696"
         style="opacity:0.21030046;color:#000000;fill:#000000;fill-opacity:1;fill-rule:nonzero;stroke:none;stroke-width:5.57499266px;marker:none;visibility:visible;display:inline;overflow:visible;enable-background:accumulate" />
      <g
         style="opacity:0.21030046;color:#000000;fill:#000000;fill-opacity:1;fill-rule:nonzero;stroke:none;stroke-width:2.54506779px;marker:none;visibility:visible;display:inline;overflow:visible;enable-background:accumulate"
         transform="matrix(-1.7519412,0,0,1.7519412,833.70972,-532.4552)"
         id="g3224-3-5-4-3">
        <path
           transform="translate(2.5253814,1.2626907)"
           style="color:#000000;fill:#000000;fill-opacity:1;fill-rule:nonzero;stroke:none;stroke-width:2.54506779px;marker:none;visibility:visible;display:inline;overflow:visible;enable-background:accumulate"
           d="m 320.4709,507.7637 c 0,9.69337 -6.72109,15.40854 -16.55394,15.40854 -2.4015,0 -6.13024,-6.50731 -7.85789,-5.05577 -6.6472,5.58488 -11.19605,-3.02684 -11.19605,-10.35277 0,-9.69337 7.9711,-17.5514 17.80394,-17.5514 9.83285,0 17.80394,7.85803 17.80394,17.5514 z"
           id="path3163-6-8-4-1"
           inkscape:connector-curvature="0"
           sodipodi:nodetypes="csssss" />
        <path
           style="color:#000000;fill:#000000;fill-opacity:1;fill-rule:nonzero;stroke:none;stroke-width:2.54506779px;marker:none;visibility:visible;display:inline;overflow:visible;enable-background:accumulate"
           d="m 299.73214,519.7729 c 0.14727,-5.93152 2.4354,-10.90335 9.46429,-13.75 -6.72361,5.08019 -7.41729,9.97765 -6.33929,14.82142 z"
           id="path3198-1-7-4-7"
           inkscape:connector-curvature="0"
           sodipodi:nodetypes="cccc" />
        <path
           style="color:#000000;fill:#000000;fill-opacity:1;fill-rule:nonzero;stroke:none;stroke-width:2.54506779px;marker:none;visibility:visible;display:inline;overflow:visible;enable-background:accumulate"
           d="m 294.375,495.21932 c -17.82746,9.04379 -14.28227,25.93489 -3.03572,23.39287"
           id="path3190-0-0-4-5"
           inkscape:connector-curvature="0"
           sodipodi:nodetypes="cc" />
        <path
           style="color:#000000;fill:#000000;fill-opacity:1;fill-rule:nonzero;stroke:none;stroke-width:2.54506779px;marker:none;visibility:visible;display:inline;overflow:visible;enable-background:accumulate"
           d="m 288.125,517.98718 c 0.14727,-5.93152 2.4354,-10.90335 9.46429,-13.75 -6.72361,5.08019 -7.41729,9.97765 -6.33929,14.82142 z"
           id="path3198-9-6-4-7-9"
           inkscape:connector-curvature="0"
           sodipodi:nodetypes="cccc" />
      </g>
      <path
         sodipodi:nodetypes="cccc"
         inkscape:connector-curvature="0"
         id="path4224-7-8"
         d="m 173.61717,205.5115 c -37.29943,36.63141 -49.23154,94.84362 -19.36971,145.27284 42.65537,28.71509 109.93442,46.15562 151.32587,-19.36972 -7.2256,-79.80369 -57.21554,-55.11559 -63.81627,-129.70789"
         style="color:#000000;fill:#aca793;fill-opacity:1;fill-rule:nonzero;stroke:#000000;stroke-width:5.57499266px;stroke-linecap:butt;stroke-linejoin:miter;stroke-miterlimit:4;stroke-opacity:1;stroke-dasharray:none;stroke-dashoffset:0;marker:none;visibility:visible;display:inline;overflow:visible;enable-background:accumulate" />
      <path
         sodipodi:nodetypes="cccc"
         inkscape:connector-curvature="0"
         id="path4224-9-5-2"
         d="m 198.6254,208.16754 c -31.2892,30.72884 -47.35165,97.28768 -22.3017,139.59105 35.78208,24.08801 85.34135,54.92164 130.15209,-13.80288 14.44874,-62.84244 -66.88725,-64.87374 -73.60534,-127.68279"
         style="color:#000000;fill:#f4eed7;fill-opacity:1;fill-rule:nonzero;stroke:#000000;stroke-width:5.57499266px;stroke-linecap:butt;stroke-linejoin:miter;stroke-miterlimit:4;stroke-opacity:1;stroke-dasharray:none;stroke-dashoffset:0;marker:none;visibility:visible;display:inline;overflow:visible;enable-background:accumulate" />
      <path
         sodipodi:nodetypes="ccccc"
         inkscape:connector-curvature="0"
         id="path4152-9-9"
         d="m 251.09602,46.921979 85.95309,-148.904659 c 53.26671,19.416415 99.26978,-2.41349 156.16831,-3.63182 7.96373,28.183558 -87.44067,97.4094072 -141.64102,59.31974 z"
         style="color:#000000;fill:#aca793;fill-opacity:1;fill-rule:nonzero;stroke:#000000;stroke-width:5.57499266px;stroke-linecap:butt;stroke-linejoin:miter;stroke-miterlimit:4;stroke-opacity:1;stroke-dasharray:none;stroke-dashoffset:0;marker:none;visibility:visible;display:inline;overflow:visible;enable-background:accumulate" />
      <path
         sodipodi:nodetypes="ccc"
         inkscape:connector-curvature="0"
         id="path2985-2-9"
         d="M 256.80316,10.257899 C -246.8771,278.90876 610.17157,254.9055 234.32047,36.199464 l 0,0"
         style="color:#000000;fill:#aca793;fill-opacity:1;fill-rule:nonzero;stroke:#000000;stroke-width:5.57499266px;stroke-linecap:butt;stroke-linejoin:miter;stroke-miterlimit:4;stroke-opacity:1;stroke-dasharray:none;stroke-dashoffset:0;marker:none;visibility:visible;display:inline;overflow:visible;enable-background:accumulate" />
      <path
         sodipodi:nodetypes="cccc"
         inkscape:connector-curvature="0"
         id="path3293-8-2-6"
         d="M 300.16095,61.276316 C 289.08571,50.881536 279.98694,36.698548 255.6279,51.764407 l 3.02652,-31.129887 c 22.40303,1.864262 43.94239,4.906299 41.50653,40.641796 z"
         style="color:#000000;fill:#aca793;fill-opacity:1;fill-rule:nonzero;stroke:#000000;stroke-width:5.57499266px;stroke-linecap:butt;stroke-linejoin:miter;stroke-miterlimit:4;stroke-opacity:1;stroke-dasharray:none;stroke-dashoffset:0;marker:none;visibility:visible;display:inline;overflow:visible;enable-background:accumulate" />
      <path
         sodipodi:nodetypes="ccccccc"
         inkscape:connector-curvature="0"
         id="path2987-8-0"
         d="m 197.70968,44.802231 92.94023,-54.2660887 -40.35563,43.4128757 39.74418,0 -30.87818,11.923244 24.15224,8.560275 -40.66136,6.725938"
         style="color:#000000;fill:#aca793;fill-opacity:1;fill-rule:nonzero;stroke:#000000;stroke-width:5.57499266px;stroke-linecap:butt;stroke-linejoin:miter;stroke-miterlimit:4;stroke-opacity:1;stroke-dasharray:none;stroke-dashoffset:0;marker:none;visibility:visible;display:inline;overflow:visible;enable-background:accumulate" />
      <g
         transform="matrix(2.421214,0,0,2.421214,-561.09838,-853.34989)"
         id="g2995-9-2">
        <path
           style="color:#000000;fill:#aca793;fill-opacity:1;fill-rule:nonzero;stroke:#000000;stroke-width:2.30256081px;stroke-linecap:butt;stroke-linejoin:miter;stroke-miterlimit:4;stroke-opacity:1;stroke-dasharray:none;stroke-dashoffset:0;marker:none;visibility:visible;display:inline;overflow:visible;enable-background:accumulate"
           d="m 301.78571,374.1479 -16.07142,-40.71429 c -3.08435,-3.97789 -19.49867,-6.22894 -31.07143,-0.71429 -28.21404,31.24923 3.21168,83.6317 23.21428,20.71429 6.19214,3.77695 19.72862,16.92622 23.92857,20.71429 z"
           id="path2989-7-7"
           inkscape:connector-curvature="0"
           sodipodi:nodetypes="ccccc" />
        <path
           style="fill:#000000;stroke:#000000;stroke-width:0.1;stroke-miterlimit:4;stroke-dasharray:none"
           d="m 299.00515,371.26683 c -3.07379,-9.26057 -10.35044,-25.29796 -20.01813,-33.71516 0.75904,5.43396 -0.86669,9.74353 -1.94888,15.29256 l 2.01016,0.42989 c 0.73675,-4.72112 1.57105,-8.63075 1.34432,-12.7182 9.54738,9.78664 14.02735,20.27689 18.61253,30.71091 z"
           id="path2993-3-6"
           inkscape:connector-curvature="0"
           sodipodi:nodetypes="cccccc" />
      </g>
      <path
         sodipodi:nodetypes="cccc"
         inkscape:connector-curvature="0"
         id="path2999-6-1"
         d="m 214.77781,139.53341 c 24.22921,1.78492 54.84689,-1.5501 77.47885,-15.73789 l -25.42275,36.92352 z"
         style="color:#000000;fill:#6c6753;fill-opacity:1;fill-rule:nonzero;stroke:#000000;stroke-width:5.57499266px;stroke-linecap:butt;stroke-linejoin:miter;stroke-miterlimit:4;stroke-opacity:1;stroke-dasharray:none;stroke-dashoffset:0;marker:none;visibility:visible;display:inline;overflow:visible;enable-background:accumulate" />
      <path
         transform="matrix(2.4000545,-0.31939888,0.31939888,2.4000545,-683.20207,-758.95794)"
         d="m 325,401.11218 c 0,6.48935 -2.91015,11.75 -6.5,11.75 -3.58985,0 -6.5,-5.26065 -6.5,-11.75 0,-6.48934 2.91015,-11.75 6.5,-11.75 3.58985,0 6.5,5.26066 6.5,11.75 z"
         sodipodi:ry="11.75"
         sodipodi:rx="6.5"
         sodipodi:cy="401.11218"
         sodipodi:cx="318.5"
         id="path4067-1-3"
         style="color:#000000;fill:#000000;fill-opacity:1;fill-rule:nonzero;stroke:none;stroke-width:2.30256081px;marker:none;visibility:visible;display:inline;overflow:visible;enable-background:accumulate"
         sodipodi:type="arc" />
      <path
         transform="matrix(-1.9890638,-0.26470428,-0.26470428,1.9890638,1013.1852,-616.97252)"
         d="m 325,401.11218 c 0,6.48935 -2.91015,11.75 -6.5,11.75 -3.58985,0 -6.5,-5.26065 -6.5,-11.75 0,-6.48934 2.91015,-11.75 6.5,-11.75 3.58985,0 6.5,5.26066 6.5,11.75 z"
         sodipodi:ry="11.75"
         sodipodi:rx="6.5"
         sodipodi:cy="401.11218"
         sodipodi:cx="318.5"
         id="path4067-9-2-2"
         style="color:#000000;fill:#000000;fill-opacity:1;fill-rule:nonzero;stroke:none;stroke-width:2.30256081px;marker:none;visibility:visible;display:inline;overflow:visible;enable-background:accumulate"
         sodipodi:type="arc" />
      <path
         transform="matrix(2.421214,0,0,2.421214,-575.74856,-867.35791)"
         d="m 331.125,398.48718 c 0,2.83046 -1.51104,5.125 -3.375,5.125 -1.86396,0 -3.375,-2.29454 -3.375,-5.125 0,-2.83046 1.51104,-5.125 3.375,-5.125 1.86396,0 3.375,2.29454 3.375,5.125 z"
         sodipodi:ry="5.125"
         sodipodi:rx="3.375"
         sodipodi:cy="398.48718"
         sodipodi:cx="327.75"
         id="path4087-9-1"
         style="color:#000000;fill:#ffffff;fill-opacity:1;fill-rule:nonzero;stroke:none;stroke-width:2.30256081px;marker:none;visibility:visible;display:inline;overflow:visible;enable-background:accumulate"
         sodipodi:type="arc" />
      <path
         transform="matrix(1.948782,0,0,1.948782,-357.95741,-683.63959)"
         d="m 331.125,398.48718 c 0,2.83046 -1.51104,5.125 -3.375,5.125 -1.86396,0 -3.375,-2.29454 -3.375,-5.125 0,-2.83046 1.51104,-5.125 3.375,-5.125 1.86396,0 3.375,2.29454 3.375,5.125 z"
         sodipodi:ry="5.125"
         sodipodi:rx="3.375"
         sodipodi:cy="398.48718"
         sodipodi:cx="327.75"
         id="path4087-2-3-5"
         style="color:#000000;fill:#ffffff;fill-opacity:1;fill-rule:nonzero;stroke:none;stroke-width:2.30256081px;marker:none;visibility:visible;display:inline;overflow:visible;enable-background:accumulate"
         sodipodi:type="arc" />
      <path
         sodipodi:nodetypes="cc"
         inkscape:connector-curvature="0"
         id="path4107-1-9"
         d="m 311.80605,138.8125 c -25.10732,54.05726 -120.93248,46.21708 -166.92554,10.27234"
         style="color:#000000;fill:none;stroke:#000000;stroke-width:5.57499266px;stroke-linecap:butt;stroke-linejoin:miter;stroke-miterlimit:4;stroke-opacity:1;stroke-dasharray:none;stroke-dashoffset:0;marker:none;visibility:visible;display:inline;overflow:visible;enable-background:accumulate" />
      <path
         inkscape:connector-curvature="0"
         id="path4126-9-9"
         d="m 150.97969,140.31055 -11.98438,16.26453 11.87739,-11.44939 z"
         style="color:#000000;fill:#ffffff;fill-opacity:1;fill-rule:nonzero;stroke:#000000;stroke-width:5.57499266px;stroke-linecap:butt;stroke-linejoin:miter;stroke-miterlimit:4;stroke-opacity:1;stroke-dasharray:none;stroke-dashoffset:0;marker:none;visibility:visible;display:inline;overflow:visible;enable-background:accumulate" />
      <path
         inkscape:connector-curvature="0"
         id="path4126-6-4-1"
         d="m 307.5259,131.53627 11.98438,16.26453 -11.87739,-11.44939 z"
         style="color:#000000;fill:#ffffff;fill-opacity:1;fill-rule:nonzero;stroke:#000000;stroke-width:5.57499266px;stroke-linecap:butt;stroke-linejoin:miter;stroke-miterlimit:4;stroke-opacity:1;stroke-dasharray:none;stroke-dashoffset:0;marker:none;visibility:visible;display:inline;overflow:visible;enable-background:accumulate" />
      <path
         sodipodi:nodetypes="cccccc"
         inkscape:connector-curvature="0"
         id="path4160-7-4"
         d="m 354.58456,-47.471809 c -8.14808,-8.180991 -13.04831,-15.380084 -16.93014,-23.845495 l -72.93907,100.38283 72.31541,-92.828594 c 2.58915,7.660648 7.62801,12.599392 12.72973,17.468308 z"
         style="color:#000000;fill:#000000;fill-opacity:1;fill-rule:nonzero;stroke:#000000;stroke-width:0.2421214;stroke-linecap:butt;stroke-linejoin:miter;stroke-miterlimit:4;stroke-opacity:1;stroke-dasharray:none;stroke-dashoffset:0;marker:none;visibility:visible;display:inline;overflow:visible;enable-background:accumulate" />
      <path
         inkscape:connector-curvature="0"
         id="path4179-8-9"
         d="m 129.04398,120.40788 -50.933703,-11.12836 30.389023,16.26453 -49.64966,20.54468 48.79361,-7.27623 c 0,0 -27.820909,41.08936 -25.252824,39.80531 2.568085,-1.28404 32.529084,-30.81701 32.529084,-30.81701"
         style="color:#000000;fill:#aca793;fill-opacity:1;fill-rule:nonzero;stroke:#000000;stroke-width:5.57499266px;stroke-linecap:butt;stroke-linejoin:miter;stroke-miterlimit:4;stroke-opacity:1;stroke-dasharray:none;stroke-dashoffset:0;marker:none;visibility:visible;display:inline;overflow:visible;enable-background:accumulate" />
      <path
         sodipodi:nodetypes="cccccsc"
         inkscape:connector-curvature="0"
         id="path4179-1-4-1"
         d="m 318.22623,105.84065 41.08939,-7.276234 -30.38902,16.264534 49.64965,20.54467 -48.79361,-7.27623 c 0,0 27.82091,41.08936 25.25283,39.80532 -2.56809,-1.28405 -22.68477,-22.68474 -22.68477,-22.68474"
         style="color:#000000;fill:#aca793;fill-opacity:1;fill-rule:nonzero;stroke:#000000;stroke-width:5.57499266px;stroke-linecap:butt;stroke-linejoin:miter;stroke-miterlimit:4;stroke-opacity:1;stroke-dasharray:none;stroke-dashoffset:0;marker:none;visibility:visible;display:inline;overflow:visible;enable-background:accumulate" />
      <path
         sodipodi:nodetypes="cssscc"
         inkscape:connector-curvature="0"
         id="path2985-2-9-5"
         d="M 256.80316,10.257901 C -67.934141,183.46492 172.95033,235.02277 284.36895,191.18222 328.1493,173.95571 166.1231,217.6093 131.02811,169.92474 85.956288,108.68438 183.5727,63.537052 213.21875,42.643265 c 7.18315,-5.062506 27.55862,-3.546324 21.10172,-6.443803 l 0,0"
         style="opacity:0.21030046;color:#000000;fill:#000000;fill-opacity:1;fill-rule:nonzero;stroke:none;stroke-width:5.57499266px;marker:none;visibility:visible;display:inline;overflow:visible;enable-background:accumulate" />
      <path
         sodipodi:nodetypes="cccc"
         inkscape:connector-curvature="0"
         id="path4224-7-8-3"
         d="m 173.61717,205.5115 c -37.29943,36.63141 -49.23154,94.84362 -19.36971,145.27284 42.65537,28.71509 94.41818,45.2429 135.80963,-20.28244 -7.2256,-79.80369 -72.73177,-56.02831 -48.30004,-128.79517"
         style="opacity:0.21030046;color:#000000;fill:#000000;fill-opacity:1;fill-rule:nonzero;stroke:none;stroke-width:5.57499266px;marker:none;visibility:visible;display:inline;overflow:visible;enable-background:accumulate" />
      <path
         sodipodi:nodetypes="ccccccc"
         inkscape:connector-curvature="0"
         id="path3069-5-0"
         d="m 223.42641,180.16511 -10.0515,31.33712 31.30128,-3.71462 0.0717,7.05936 33.07509,-11.0312 -12.96754,-29.37867 c -14.46147,5.82009 -27.69527,4.27429 -41.429,5.72801 z"
         style="color:#000000;fill:#ffffff;fill-opacity:1;fill-rule:nonzero;stroke:#000000;stroke-width:5.57499266px;stroke-linecap:butt;stroke-linejoin:miter;stroke-miterlimit:4;stroke-opacity:1;stroke-dasharray:none;stroke-dashoffset:0;marker:none;visibility:visible;display:inline;overflow:visible;enable-background:accumulate" />
      <g
         transform="matrix(-2.421214,0,0,2.421214,930.51837,-852.127)"
         id="g3224-3-5">
        <path
           transform="translate(2.5253814,1.2626907)"
           style="color:#000000;fill:#aca793;fill-opacity:1;fill-rule:nonzero;stroke:#000000;stroke-width:2.30256081px;stroke-linecap:butt;stroke-linejoin:miter;stroke-miterlimit:4;stroke-opacity:1;stroke-dashoffset:0;marker:none;visibility:visible;display:inline;overflow:visible;enable-background:accumulate"
           d="m 320.4709,507.7637 c 0,9.69337 -6.72109,15.40854 -16.55394,15.40854 -2.4015,0 -4.69756,-5.26999 -6.42521,-3.81845 -6.6472,5.58488 -12.62873,-4.26416 -12.62873,-11.59009 0,-9.69337 7.9711,-17.5514 17.80394,-17.5514 9.83285,0 17.80394,7.85803 17.80394,17.5514 z"
           id="path3163-6-8"
           inkscape:connector-curvature="0"
           sodipodi:nodetypes="ssssss" />
        <path
           style="color:#000000;fill:#000000;fill-opacity:1;fill-rule:nonzero;stroke:none;stroke-width:2.30256081px;marker:none;visibility:visible;display:inline;overflow:visible;enable-background:accumulate"
           d="m 299.73214,519.7729 c 0.14727,-5.93152 2.4354,-10.90335 9.46429,-13.75 -6.72361,5.08019 -7.41729,9.97765 -6.33929,14.82142 z"
           id="path3198-1-7"
           inkscape:connector-curvature="0"
           sodipodi:nodetypes="cccc" />
        <path
           style="color:#000000;fill:#aca793;fill-opacity:1;fill-rule:nonzero;stroke:#000000;stroke-width:2.30256081px;stroke-linecap:butt;stroke-linejoin:miter;stroke-miterlimit:4;stroke-opacity:1;stroke-dasharray:none;stroke-dashoffset:0;marker:none;visibility:visible;display:inline;overflow:visible;enable-background:accumulate"
           d="m 294.375,495.21932 c -17.82746,9.04379 -14.28227,25.93489 -3.03572,23.39287"
           id="path3190-0-0"
           inkscape:connector-curvature="0"
           sodipodi:nodetypes="cc" />
        <path
           style="color:#000000;fill:#000000;fill-opacity:1;fill-rule:nonzero;stroke:none;stroke-width:2.30256081px;marker:none;visibility:visible;display:inline;overflow:visible;enable-background:accumulate"
           d="m 288.125,517.98718 c 0.14727,-5.93152 2.4354,-10.90335 9.46429,-13.75 -6.72361,5.08019 -7.41729,9.97765 -6.33929,14.82142 z"
           id="path3198-9-6-4"
           inkscape:connector-curvature="0"
           sodipodi:nodetypes="cccc" />
      </g>
      <path
         sodipodi:nodetypes="ccccccccc"
         inkscape:connector-curvature="0"
         id="path3260-32-8"
         d="m 83.135482,262.556 84.617238,-29.61476 -66.38012,56.88945 c 13.61739,24.0466 -8.048044,29.18393 -16.153203,26.48808 -9.663622,20.28916 -30.085521,11.81053 -38.100417,7.91683 -4.433098,-7.1717 -10.685084,-13.86137 1.764895,-25.50686 -9.450846,-3.94674 -10.500805,-15.74859 -3.193654,-21.19012 -2.985308,-10.40057 4.661031,-20.85954 12.65726,-21.0013 10.753991,-9.11691 16.649986,-2.47426 24.788001,6.01868 z"
         style="color:#000000;fill:#aca793;fill-opacity:1;fill-rule:nonzero;stroke:#000000;stroke-width:5.57499266px;stroke-linecap:butt;stroke-linejoin:miter;stroke-miterlimit:4;stroke-opacity:1;stroke-dasharray:none;stroke-dashoffset:0;marker:none;visibility:visible;display:inline;overflow:visible;enable-background:accumulate" />
      <path
         sodipodi:nodetypes="cccc"
         inkscape:connector-curvature="0"
         id="path3293-0-0"
         d="m 178.54606,70.355868 c 11.07524,-10.39478 20.17401,-24.577767 44.53305,-9.511908 l -3.02652,-31.129888 c -22.40303,1.864262 -43.94239,4.9063 -41.50653,40.641796 z"
         style="color:#000000;fill:#aca793;fill-opacity:1;fill-rule:nonzero;stroke:#000000;stroke-width:5.57499266px;stroke-linecap:butt;stroke-linejoin:miter;stroke-miterlimit:4;stroke-opacity:1;stroke-dasharray:none;stroke-dashoffset:0;marker:none;visibility:visible;display:inline;overflow:visible;enable-background:accumulate" />
      <path
         sodipodi:nodetypes="ccccc"
         inkscape:connector-curvature="0"
         id="path3450-5-2"
         d="m 225.67327,129.37298 -36.96676,7.5663 C 174.74093,106.90966 180.99761,33.8443 223.34774,75.911368 206.94181,59.652819 175.12149,59.218817 190.77876,132.28154 z"
         style="color:#000000;fill:#000000;fill-opacity:1;fill-rule:nonzero;stroke:none;stroke-width:1px;marker:none;visibility:visible;display:inline;overflow:visible;enable-background:accumulate" />
      <path
         sodipodi:nodetypes="ccccc"
         inkscape:connector-curvature="0"
         id="path3450-1-6-2"
         d="m 260.64223,119.74469 30.21632,2.2803 C 298.94,96.686425 286.54903,39.113685 257.07547,76.919198 268.49697,62.303806 293.78006,59.623377 288.71318,119.4154 z"
         style="color:#000000;fill:#000000;fill-opacity:1;fill-rule:nonzero;stroke:none;stroke-width:1px;marker:none;visibility:visible;display:inline;overflow:visible;enable-background:accumulate" />
      <path
         sodipodi:nodetypes="ccccccccc"
         inkscape:connector-curvature="0"
         id="path3260-32-8-5"
         d="m 335.22986,228.88103 -89.6262,-2.06285 80.69391,33.63366 c -5.5339,27.07487 16.6596,25.27709 23.53756,20.21206 15.45205,16.31779 32.26171,1.952 38.68425,-4.22461 2.00413,-8.18956 5.88713,-16.48181 -9.54847,-23.71795 7.77207,-6.67008 5.12958,-18.22012 -3.49999,-21.14167 -0.36923,-10.81424 -10.86946,-18.40382 -18.51933,-16.07156 -13.04221,-5.3542 -16.60108,2.7835 -21.72173,13.37292 z"
         style="color:#000000;fill:#aca793;fill-opacity:1;fill-rule:nonzero;stroke:#000000;stroke-width:5.57499266px;stroke-linecap:butt;stroke-linejoin:miter;stroke-miterlimit:4;stroke-opacity:1;stroke-dasharray:none;stroke-dashoffset:0;marker:none;visibility:visible;display:inline;overflow:visible;enable-background:accumulate" />
      <path
         id="path3484"
         d="m 245.21116,206.80555 2.09752,-22.75 0.96808,29.04255 -3.0656,-6.29255 z"
         style="fill:#000000;stroke:#000000;stroke-width:1px;stroke-linecap:butt;stroke-linejoin:miter;stroke-opacity:1" />
      <path
         style="opacity:0.21030046;color:#000000;fill:#000000;fill-opacity:1;fill-rule:nonzero;stroke:none;stroke-width:5.57499266px;marker:none;visibility:visible;display:inline;overflow:visible;enable-background:accumulate"
         d="m 169.5894,52.542247 -50.32133,-82.149063 c -7.46787,-9.631328 -0.20541,-13.712519 -28.225537,-0.36037 C 86.771739,11.262293 78.7618,84.651183 44.840346,62.151182 34.175777,55.077405 59.616461,73.726303 67.383157,71.364867 79.515751,67.675996 88.184282,50.930131 111.65322,2.3885148 126.64571,11.533319 159.42043,43.370517 169.5894,52.542247 z"
         id="path2989-7-7-3"
         inkscape:connector-curvature="0"
         sodipodi:nodetypes="cccsscc" />
      <path
         sodipodi:nodetypes="ccccc"
         inkscape:connector-curvature="0"
         id="path4152-9-9-9"
         d="M 251.09602,46.921981 338.3399,-74.876297 c 53.2667,19.416415 109.59601,18.238993 154.87752,-30.738203 7.96373,28.183558 -87.44067,97.4094114 -141.64102,59.31974 L 251.09602,46.921981 z"
         style="opacity:0.21030046;color:#000000;fill:#000000;fill-opacity:1;fill-rule:nonzero;stroke:none;stroke-width:5.57499266px;marker:none;visibility:visible;display:inline;overflow:visible;enable-background:accumulate" />
      <path
         sodipodi:nodetypes="ccccccccc"
         inkscape:connector-curvature="0"
         id="path3260-32-8-9"
         d="m 81.844702,285.79004 85.908008,-52.8488 -66.38011,56.88945 c 13.61739,24.0466 -8.048044,29.18393 -16.153203,26.48808 -9.663622,20.28916 -30.085521,11.81053 -38.100417,7.91683 -4.433098,-7.1717 -10.685085,-13.86137 1.764895,-25.50686 -9.450847,-3.94674 -4.046905,-2.1954 3.260247,-7.63693 -2.985308,-10.40057 6.597201,-13.11486 7.494139,-18.41974 10.753991,-9.11691 14.068426,4.62503 22.206441,13.11797 z"
         style="opacity:0.21030046;color:#000000;fill:#000000;fill-opacity:1;fill-rule:nonzero;stroke:none;stroke-width:5.57499266px;marker:none;visibility:visible;display:inline;overflow:visible;enable-background:accumulate" />
      <path
         sodipodi:nodetypes="ccccccccc"
         inkscape:connector-curvature="0"
         id="path3260-32-8-9-3"
         d="m 341.30662,250.79245 -93.51868,-23.38276 76.41091,33.62923 c -4.93831,27.1898 17.21039,24.90533 23.97554,19.69055 15.80646,15.97471 32.29677,1.24342 38.5822,-5.07265 1.82389,-8.23159 5.52395,-16.60707 -10.06676,-23.50266 7.62381,-6.83907 3.09812,-3.40572 -5.59348,-6.13718 -0.60651,-10.80352 -10.54835,-10.21052 -13.14234,-14.92406 -13.15658,-5.06663 -11.7604,9.00024 -16.64739,19.69953 z"
         style="opacity:0.21030046;color:#000000;fill:#000000;fill-opacity:1;fill-rule:nonzero;stroke:none;stroke-width:5.57499266px;marker:none;visibility:visible;display:inline;overflow:visible;enable-background:accumulate" />
      <g
         style="opacity:0.21030046;color:#000000;fill:#000000;fill-opacity:1;fill-rule:nonzero;stroke:none;stroke-width:2.54506779px;marker:none;visibility:visible;display:inline;overflow:visible;enable-background:accumulate"
         transform="matrix(-1.7519412,0,0,1.7519412,733.24325,-502.48569)"
         id="g3224-3-5-4">
        <path
           transform="translate(2.5253814,1.2626907)"
           style="color:#000000;fill:#000000;fill-opacity:1;fill-rule:nonzero;stroke:none;stroke-width:2.54506779px;marker:none;visibility:visible;display:inline;overflow:visible;enable-background:accumulate"
           d="m 320.4709,507.7637 c 0,9.69337 -6.72109,15.40854 -16.55394,15.40854 -2.4015,0 -4.69756,-5.26999 -6.42521,-3.81845 -6.6472,5.58488 -12.62873,-4.26416 -12.62873,-11.59009 0,-9.69337 7.9711,-17.5514 17.80394,-17.5514 9.83285,0 17.80394,7.85803 17.80394,17.5514 z"
           id="path3163-6-8-4"
           inkscape:connector-curvature="0"
           sodipodi:nodetypes="ssssss" />
        <path
           style="color:#000000;fill:#000000;fill-opacity:1;fill-rule:nonzero;stroke:none;stroke-width:2.54506779px;marker:none;visibility:visible;display:inline;overflow:visible;enable-background:accumulate"
           d="m 299.73214,519.7729 c 0.14727,-5.93152 2.4354,-10.90335 9.46429,-13.75 -6.72361,5.08019 -7.41729,9.97765 -6.33929,14.82142 z"
           id="path3198-1-7-4"
           inkscape:connector-curvature="0"
           sodipodi:nodetypes="cccc" />
        <path
           style="color:#000000;fill:#000000;fill-opacity:1;fill-rule:nonzero;stroke:none;stroke-width:2.54506779px;marker:none;visibility:visible;display:inline;overflow:visible;enable-background:accumulate"
           d="m 294.375,495.21932 c -17.82746,9.04379 -14.28227,25.93489 -3.03572,23.39287"
           id="path3190-0-0-4"
           inkscape:connector-curvature="0"
           sodipodi:nodetypes="cc" />
        <path
           style="color:#000000;fill:#000000;fill-opacity:1;fill-rule:nonzero;stroke:none;stroke-width:2.54506779px;marker:none;visibility:visible;display:inline;overflow:visible;enable-background:accumulate"
           d="m 288.125,517.98718 c 0.14727,-5.93152 2.4354,-10.90335 9.46429,-13.75 -6.72361,5.08019 -7.41729,9.97765 -6.33929,14.82142 z"
           id="path3198-9-6-4-7"
           inkscape:connector-curvature="0"
           sodipodi:nodetypes="cccc" />
      </g>
    </g>
  </g>
</svg>
