<?xml version="1.0" encoding="UTF-8" standalone="no"?>
<!-- Created with Inkscape (http://www.inkscape.org/) -->

<svg
   xmlns:dc="http://purl.org/dc/elements/1.1/"
   xmlns:cc="http://creativecommons.org/ns#"
   xmlns:rdf="http://www.w3.org/1999/02/22-rdf-syntax-ns#"
   xmlns:svg="http://www.w3.org/2000/svg"
   xmlns="http://www.w3.org/2000/svg"
   xmlns:sodipodi="http://sodipodi.sourceforge.net/DTD/sodipodi-0.dtd"
   xmlns:inkscape="http://www.inkscape.org/namespaces/inkscape"
   width="387.74319"
   height="501.00641"
   id="svg3316"
   sodipodi:version="0.32"
   inkscape:version="0.48.3.1 r9886"
   sodipodi:docname="conejo3.svg"
   inkscape:output_extension="org.inkscape.output.svg.inkscape"
   version="1.0"
   sodipodi:modified="true">
  <defs
     id="defs3318" />
  <sodipodi:namedview
     id="base"
     pagecolor="#ffffff"
     bordercolor="#666666"
     borderopacity="1.0"
     inkscape:pageopacity="0.0"
     inkscape:pageshadow="2"
     inkscape:zoom="0.7625"
     inkscape:cx="186.55246"
     inkscape:cy="287.40808"
     inkscape:current-layer="layer1"
     inkscape:document-units="px"
     inkscape:window-width="958"
     inkscape:window-height="690"
     inkscape:window-x="64"
     inkscape:window-y="48"
     width="480px"
     height="640px"
     showguides="true"
     inkscape:guide-bbox="true"
     showgrid="false"
     fit-margin-top="0"
     fit-margin-left="0"
     fit-margin-right="0"
     fit-margin-bottom="0"
     inkscape:window-maximized="0" />
  <metadata
     id="metadata3321">
    <rdf:RDF>
      <cc:Work
         rdf:about="">
        <dc:format>image/svg+xml</dc:format>
        <dc:type
           rdf:resource="http://purl.org/dc/dcmitype/StillImage" />
        <dc:title></dc:title>
      </cc:Work>
    </rdf:RDF>
  </metadata>
  <g
     id="layer1"
     inkscape:label="Layer 1"
     inkscape:groupmode="layer"
     transform="translate(-53.447541,-53.942636)">
    <path
       style="color:#000000;fill:#87cdde;fill-opacity:1;fill-rule:evenodd;stroke:#000000;stroke-width:3;stroke-linecap:butt;stroke-linejoin:miter;stroke-miterlimit:4;stroke-opacity:1;stroke-dasharray:none;stroke-dashoffset:0;marker:none;visibility:visible;display:inline;overflow:visible;enable-background:accumulate"
       d="m 337.60637,436.6059 c 5.53322,-34.73208 55.15769,-1.18771 28.19587,22.78114 55.53785,-4.42798 11.56692,78.50329 -11.22206,40.12986 15.59171,42.30656 -49.10177,29.07211 -40.61161,1.69449"
       id="path3605"
       sodipodi:nodetypes="cccc"
       inkscape:connector-curvature="0" />
    <path
       style="color:#000000;fill:#87cdde;fill-opacity:1;fill-rule:evenodd;stroke:#000000;stroke-width:3;stroke-linecap:butt;stroke-linejoin:miter;stroke-miterlimit:4;stroke-opacity:1;stroke-dasharray:none;stroke-dashoffset:0;marker:none;visibility:visible;display:inline;overflow:visible;enable-background:accumulate"
       d="m 212.56708,365.29424 c -95.13559,-34.5264 -142.17551,41.48701 -8.43906,43.88324 -92.45576,127.42955 179.86256,161.7619 133.3374,-1.68784 123.76752,-57.51789 44.20675,-81.71206 -33.75634,-52.32244 l 0.39664,0.62194 c -30.51283,1.55946 -61.02573,2.51916 -91.53864,9.5051 z"
       id="path2544"
       sodipodi:nodetypes="cccccc"
       inkscape:connector-curvature="0" />
    <path
       style="opacity:0.29499996;fill:#ffffff;fill-rule:evenodd;stroke:none"
       d="m 215.7377,396.72131 c -13.91754,26.91955 -27.70386,53.85982 -9.18033,85.90164 l -21.63934,-12.45901 c -2.98822,-25.93904 10.07612,-52.8747 30.81967,-73.44263 z"
       id="path3603"
       sodipodi:nodetypes="cccc"
       inkscape:connector-curvature="0" />
    <path
       style="color:#000000;fill:#87cdde;fill-opacity:1;fill-rule:evenodd;stroke:#000000;stroke-width:3;stroke-linecap:butt;stroke-linejoin:miter;stroke-miterlimit:4;stroke-opacity:1;stroke-dasharray:none;stroke-dashoffset:0;marker:none;visibility:visible;display:inline;overflow:visible;enable-background:accumulate"
       d="m 206.25139,178.85596 c -44.94921,-249.191371 -261.116556,-43.58753 -78.71128,-45.64143 33.05574,-1.74486 58.87977,4.82678 78.71128,45.64143 z"
       id="path3362"
       sodipodi:nodetypes="ccc"
       inkscape:connector-curvature="0" />
    <path
       style="opacity:0.36499999;fill:#000000;fill-rule:evenodd;stroke:#000000;stroke-width:0.91001797px;stroke-linecap:butt;stroke-linejoin:miter;stroke-opacity:1"
       d="m 215.91736,365.91609 c 59.66375,38.38682 88.57159,32.48517 91.98597,-10.12695 -36.56707,-12.8635 -64.18719,-1.12246 -91.98597,10.12695 z"
       id="path3591"
       sodipodi:nodetypes="ccc"
       inkscape:connector-curvature="0" />
    <path
       sodipodi:type="arc"
       style="color:#000000;fill:#87cdde;fill-opacity:1;fill-rule:evenodd;stroke:#000000;stroke-width:1.07200706;stroke-linecap:butt;stroke-linejoin:miter;stroke-miterlimit:4;stroke-opacity:1;stroke-dasharray:none;stroke-dashoffset:0;marker:none;visibility:visible;display:inline;overflow:visible;enable-background:accumulate"
       id="path3324"
       sodipodi:cx="203.99278"
       sodipodi:cy="138.64294"
       sodipodi:rx="36.508778"
       sodipodi:ry="35.596058"
       d="m 240.50156,138.64294 c 0,19.65916 -16.34554,35.59606 -36.50878,35.59606 -20.16324,0 -36.50878,-15.9369 -36.50878,-35.59606 0,-19.65916 16.34554,-35.59605 36.50878,-35.59605 20.16324,0 36.50878,15.93689 36.50878,35.59605 z"
       transform="matrix(2.9209085,0.2096777,-0.2298367,2.6647013,-312.43587,-140.10893)" />
    <path
       style="opacity:0.20499998;fill:#000000;fill-rule:evenodd;stroke:#000000;stroke-width:3.70088291;stroke-linecap:butt;stroke-linejoin:miter;stroke-miterlimit:4;stroke-opacity:1;stroke-dasharray:none"
       d="m 294.59873,187.82198 c 71.05184,71.40697 -17.51644,246.70126 -134.9396,127.62967 14.57612,44.33267 125.2271,89.03578 187.19754,-2.38334 14.4158,-48.98119 22.64102,-80.36114 -52.25794,-125.24633 z"
       id="path3627"
       sodipodi:nodetypes="cccc"
       inkscape:connector-curvature="0" />
    <path
       sodipodi:type="arc"
       style="opacity:0.25499998;color:#000000;fill:#ffffff;fill-opacity:1;fill-rule:evenodd;stroke:none;stroke-width:3;marker:none;visibility:visible;display:inline;overflow:visible;enable-background:accumulate"
       id="path4929"
       sodipodi:cx="219.67213"
       sodipodi:cy="257.70493"
       sodipodi:rx="53.114754"
       sodipodi:ry="51.80328"
       d="m 272.78689,257.70493 c 0,28.61016 -23.78029,51.80328 -53.11476,51.80328 -29.33446,0 -53.11475,-23.19312 -53.11475,-51.80328 0,-28.61017 23.78029,-51.80328 53.11475,-51.80328 29.33447,0 53.11476,23.19311 53.11476,51.80328 z"
       transform="matrix(1.4691358,0,0,1.4810126,-83.383932,-113.46752)" />
    <path
       sodipodi:type="arc"
       style="color:#000000;fill:#000000;fill-opacity:1;fill-rule:evenodd;stroke:#000000;stroke-width:1.26409161;stroke-linecap:butt;stroke-linejoin:miter;stroke-miterlimit:4;stroke-opacity:1;stroke-dasharray:none;stroke-dashoffset:0;marker:none;visibility:visible;display:inline;overflow:visible;enable-background:accumulate"
       id="path3326"
       sodipodi:cx="189.27519"
       sodipodi:cy="149.42444"
       sodipodi:rx="6.0372329"
       sodipodi:ry="4.8488216"
       d="m 195.31243,149.42444 c 0,2.67793 -2.70297,4.84882 -6.03724,4.84882 -3.33427,0 -6.03723,-2.17089 -6.03723,-4.84882 0,-2.67793 2.70296,-4.84882 6.03723,-4.84882 3.33427,0 6.03724,2.17089 6.03724,4.84882 z"
       transform="matrix(2.9186768,0.2296606,-0.2296606,2.9186768,-306.4661,-195.39836)" />
    <path
       style="fill:none;stroke:#000000;stroke-width:2.46725321;stroke-linecap:butt;stroke-linejoin:miter;stroke-miterlimit:4;stroke-opacity:1;stroke-dasharray:none"
       d="m 185.63353,306.53432 c 29.6198,7.01751 99.43498,2.17483 110.00124,-29.04351 15.90878,72.93087 -10.88332,83.1302 -58.49336,67.79357 -12.01502,-3.87036 -26.60348,-4.44331 -42.6963,-5.45591 3.48458,3.80252 5.51986,10.87782 3.53606,14.25016"
       id="path3336"
       sodipodi:nodetypes="ccscc"
       inkscape:connector-curvature="0" />
    <path
       style="opacity:0.85353537;fill:#000000;fill-rule:evenodd;stroke:none"
       d="m 228.49115,308.30512 -19.96512,33.05718 c 66.44558,22.0481 107.42714,14.91427 86.55128,-60.83313 -20.01066,15.31243 -39.37898,28.19901 -66.58616,27.77595 z"
       id="path3383"
       sodipodi:nodetypes="cccc"
       inkscape:connector-curvature="0" />
    <path
       style="fill:#ffffff;fill-rule:evenodd;stroke:#000000;stroke-width:3.70088291;stroke-linecap:butt;stroke-linejoin:miter;stroke-miterlimit:4;stroke-opacity:1;stroke-dasharray:none"
       d="m 208.51947,308.52507 c -1.59678,27.4673 38.4957,30.90514 43.15156,0.43162 -12.57892,1.70506 -29.90346,3.46363 -43.15156,-0.43162 z"
       id="path3338"
       sodipodi:nodetypes="ccc"
       inkscape:connector-curvature="0" />
    <path
       style="fill:#000000;fill-rule:evenodd;stroke:#000000;stroke-width:3.70088291;stroke-linecap:butt;stroke-linejoin:miter;stroke-miterlimit:4;stroke-opacity:1;stroke-dasharray:none"
       d="m 225.09893,310.35896 c 0.0836,5.99753 -1.0165,11.93926 2.33864,18.70715 -2.30424,-6.77498 -1.64786,-12.58259 -1.39174,-18.63272 l -0.9469,-0.0744 z"
       id="path3342"
       sodipodi:nodetypes="cccc"
       inkscape:connector-curvature="0" />
    <path
       style="fill:#000000;fill-rule:evenodd;stroke:#000000;stroke-width:1.2336266;stroke-linecap:butt;stroke-linejoin:miter;stroke-miterlimit:4;stroke-opacity:1;stroke-dasharray:none"
       d="m 242.49254,277.44834 c 9.90812,-1.0187 19.31252,0.59302 28.54688,3.09305 -9.03038,-3.29612 -18.26852,-5.62287 -28.54688,-3.09305 z"
       id="path3344"
       sodipodi:nodetypes="ccc"
       inkscape:connector-curvature="0" />
    <path
       style="fill:#000000;fill-rule:evenodd;stroke:#000000;stroke-width:1.2336266;stroke-linecap:butt;stroke-linejoin:miter;stroke-miterlimit:4;stroke-opacity:1;stroke-dasharray:none"
       d="m 184.45298,273.66774 c 9.90812,-1.0187 19.31252,0.59302 28.54688,3.09305 -9.03022,-3.29612 -18.26826,-5.62261 -28.54688,-3.09305 z"
       id="path3346"
       sodipodi:nodetypes="ccc"
       inkscape:connector-curvature="0" />
    <path
       style="fill:#000000;fill-rule:evenodd;stroke:#000000;stroke-width:3.70088291;stroke-linecap:butt;stroke-linejoin:miter;stroke-miterlimit:4;stroke-opacity:1;stroke-dasharray:none"
       d="m 282.14934,217.30468 c -16.9418,-11.65587 -29.15038,-7.06037 -41.09926,-1.5738 17.37178,-24.80579 29.1331,-10.72957 41.09926,1.5738 z"
       id="path3352"
       sodipodi:nodetypes="ccc"
       inkscape:connector-curvature="0" />
    <path
       style="fill:#000000;fill-rule:evenodd;stroke:#000000;stroke-width:3.70088291;stroke-linecap:butt;stroke-linejoin:miter;stroke-miterlimit:4;stroke-opacity:1;stroke-dasharray:none"
       d="m 211.6729,213.0463 c -16.94216,-11.65587 -29.15038,-7.06036 -41.09952,-1.57353 17.37204,-24.80606 29.13336,-10.72984 41.09952,1.57353 z"
       id="path3354"
       sodipodi:nodetypes="ccc"
       inkscape:connector-curvature="0" />
    <path
       style="fill:#ffffff;fill-rule:evenodd;stroke:none"
       d="m 195.91018,288.62924 c 4.62066,-13.84827 19.98714,-19.54684 27.84558,-12.20401 -6.2941,-11.08317 -32.23948,-8.61977 -27.84558,12.20401 z"
       id="path3356"
       sodipodi:nodetypes="ccc"
       inkscape:connector-curvature="0" />
    <path
       style="color:#000000;fill:#87cdde;fill-opacity:1;fill-rule:evenodd;stroke:#000000;stroke-width:3;stroke-linecap:butt;stroke-linejoin:miter;stroke-miterlimit:4;stroke-opacity:1;stroke-dasharray:none;stroke-dashoffset:0;marker:none;visibility:visible;display:inline;overflow:visible;enable-background:accumulate"
       d="m 287.52706,174.16272 c 14.56152,-36.87056 88.90574,-104.422326 126.50292,-63.55462 57.02512,82.95763 10.19474,143.20558 -54.52191,58.2769 -11.9496,-15.6817 -58.76467,-4.69186 -71.98101,5.27772 z"
       id="path3366"
       sodipodi:nodetypes="ccsc"
       inkscape:connector-curvature="0" />
    <path
       style="fill:#000000;fill-rule:evenodd;stroke:#000000;stroke-width:0.69999999;stroke-linecap:butt;stroke-linejoin:miter;stroke-miterlimit:4;stroke-opacity:1;stroke-dasharray:none"
       d="m 369.55524,177.27667 c -9.4306,-13.55086 -27.2692,-24.41917 -22.4632,-35.6185 -5.3579,13.32068 12.0451,25.02009 21.443,35.90561 l 1.0202,-0.28711 z"
       id="path3368"
       sodipodi:nodetypes="cccc"
       inkscape:connector-curvature="0" />
    <path
       style="fill:#000000;fill-rule:evenodd;stroke:#000000;stroke-width:3.70088291;stroke-linecap:butt;stroke-linejoin:miter;stroke-miterlimit:4;stroke-opacity:1;stroke-dasharray:none"
       d="m 320.90141,271.70108 38.16766,-3.93644 c 45.13718,2.42144 31.96538,14.99238 18.01522,11.025 -18.96766,-10.07934 -37.48418,-5.65692 -56.18288,-7.08856 z"
       id="path3372"
       sodipodi:nodetypes="cccc"
       inkscape:connector-curvature="0" />
    <path
       style="fill:#000000;fill-rule:evenodd;stroke:#000000;stroke-width:3.70088291;stroke-linecap:butt;stroke-linejoin:miter;stroke-miterlimit:4;stroke-opacity:1;stroke-dasharray:none"
       d="m 327.01937,282.668 31.1916,9.82318 c 34.49496,17.153 19.94024,22.53511 10.36762,14.71559 -11.43248,-14.29789 -27.41424,-17.0974 -41.55922,-24.53877 z"
       id="path3374"
       sodipodi:nodetypes="cccc"
       inkscape:connector-curvature="0" />
    <path
       style="fill:#000000;fill-rule:evenodd;stroke:#000000;stroke-width:3.70088291;stroke-linecap:butt;stroke-linejoin:miter;stroke-miterlimit:4;stroke-opacity:1;stroke-dasharray:none"
       d="m 181.80006,284.45815 -29.4549,-7.82976 c -35.71248,-3.70794 -26.94048,7.79047 -15.50348,6.411 16.13332,-5.55097 30.11078,0.21907 44.95838,1.41876 z"
       id="path3376"
       sodipodi:nodetypes="cccc"
       inkscape:connector-curvature="0" />
    <path
       style="fill:#000000;fill-rule:evenodd;stroke:#000000;stroke-width:3.70088291;stroke-linecap:butt;stroke-linejoin:miter;stroke-miterlimit:4;stroke-opacity:1;stroke-dasharray:none"
       d="m 164.19761,291.15803 -25.69118,3.83164 c -29.19344,9.17155 -18.44354,15.20228 -9.96176,10.25679 10.74532,-9.7968 23.63128,-10.00776 35.65294,-14.08843 z"
       id="path3378"
       sodipodi:nodetypes="cccc"
       inkscape:connector-curvature="0" />
    <path
       style="fill:#000000;fill-rule:evenodd;stroke:#000000;stroke-width:3.70088291;stroke-linecap:butt;stroke-linejoin:miter;stroke-miterlimit:4;stroke-opacity:1;stroke-dasharray:none"
       d="m 309.01781,285.03367 c -3.66288,-6.75324 -5.92274,-15.91225 -18.82064,-6.82891 8.82876,-2.10565 14.7991,0.69087 18.82064,6.82891 z"
       id="path3381"
       sodipodi:nodetypes="ccc"
       inkscape:connector-curvature="0" />
    <path
       style="fill:#aa0000;fill-rule:evenodd;stroke:#000000;stroke-width:3.70088291;stroke-linecap:butt;stroke-linejoin:miter;stroke-miterlimit:4;stroke-opacity:1;stroke-dasharray:none"
       d="m 228.80539,342.35945 c 16.7558,2.73026 34.97924,11.49801 52.1697,-0.98438 -8.2095,0.34812 0.61186,-29.56577 -34.2403,-2.39504 21.84642,-19.70936 -8.76646,-8.37459 -17.9294,3.37942 z"
       id="path3385"
       sodipodi:nodetypes="cccc"
       inkscape:connector-curvature="0" />
    <path
       style="opacity:0.18686871;fill:#000000;fill-rule:evenodd;stroke:none"
       d="m 345.81034,146.39683 c -22.1243,0.6961 -36.9141,12.92148 -53.892,24.88139 19.8389,-6.93268 38.9927,-15.55541 65.1054,-7.01121 -3.5739,-5.55247 -6.6491,-9.87458 -11.2134,-17.87018 z"
       id="path3404"
       sodipodi:nodetypes="cccc"
       inkscape:connector-curvature="0" />
    <path
       style="opacity:0.12626265;fill:#000000;fill-rule:evenodd;stroke:#000000;stroke-width:3;stroke-linecap:butt;stroke-linejoin:miter;stroke-miterlimit:4;stroke-opacity:1;stroke-dasharray:none"
       d="m 346.29165,147.55134 c 26.37115,24.00524 112.79815,66.36914 83.43592,-5.56884 22.30127,38.45082 3.54567,101.91901 -56.62974,41.16842 -14.80213,-15.12255 -28.10999,-25.55325 -26.80618,-35.59958 z"
       id="path3406"
       sodipodi:nodetypes="cccc"
       inkscape:connector-curvature="0" />
    <path
       style="opacity:0.14141415;fill:#000000;fill-rule:evenodd;stroke:#000000;stroke-width:3;stroke-linecap:butt;stroke-linejoin:miter;stroke-miterlimit:4;stroke-opacity:1;stroke-dasharray:none"
       d="M 76.845878,69.620071 C 46.772078,141.45349 157.53952,89.350002 199.34048,159.82965 163.26238,116.46551 118.56683,141.89153 69.331927,121.93378 40.952377,97.391415 60.590477,76.589972 76.845878,69.620071 z"
       id="path3410"
       sodipodi:nodetypes="cccc"
       inkscape:connector-curvature="0" />
    <path
       style="fill:none;stroke:#000000;stroke-width:1.2336266;stroke-linecap:butt;stroke-linejoin:miter;stroke-miterlimit:4;stroke-opacity:1;stroke-dasharray:none"
       d="m 211.73762,265.01748 c 7.72688,-0.453 14.9719,2.1994 22.12526,5.44353 -2.34644,-5.46335 -8.8753,-7.09194 -14.61304,-9.44589 5.1556,0.18839 9.93058,-2.66793 15.70076,2.4367 -4.3523,-2.7905 -9.22132,-2.25248 -14.01866,-2.17566 6.96574,0.73891 10.7012,4.32314 13.2549,8.94812 -7.04154,-4.58117 -14.47992,-6.6039 -22.44922,-5.2068 z"
       id="path2232"
       sodipodi:nodetypes="ccccccc"
       inkscape:connector-curvature="0" />
    <path
       style="fill:#000000;fill-rule:evenodd;stroke:#000000;stroke-width:1.85044146;stroke-linecap:butt;stroke-linejoin:miter;stroke-miterlimit:4;stroke-opacity:1;stroke-dasharray:none"
       d="m 276.44121,232.15458 17.48652,-7.89245 c 21.79636,-5.97629 17.5318,2.06697 10.28718,2.38685 -10.58968,-1.7877 -18.67654,3.2333 -27.7737,5.5056 z"
       id="path4223"
       sodipodi:nodetypes="cccc"
       inkscape:connector-curvature="0" />
    <path
       style="fill:#000000;fill-rule:evenodd;stroke:#000000;stroke-width:0.92522073;stroke-linecap:butt;stroke-linejoin:miter;stroke-miterlimit:4;stroke-opacity:1;stroke-dasharray:none"
       d="m 279.47947,242.0334 9.5419,-0.98385 c 11.28414,0.60536 7.99136,3.74803 4.50396,2.75605 -4.74194,-2.5197 -9.37116,-1.41416 -14.04586,-1.7722 z"
       id="path4225"
       sodipodi:nodetypes="cccc"
       inkscape:connector-curvature="0" />
    <path
       style="fill:#000000;fill-rule:evenodd;stroke:#000000;stroke-width:1.85044146;stroke-linecap:butt;stroke-linejoin:miter;stroke-miterlimit:4;stroke-opacity:1;stroke-dasharray:none"
       d="m 182.84754,230.5984 -17.48642,-7.89245 c -21.79672,-5.97629 -17.53216,2.06671 -10.28754,2.38659 10.59004,-1.7877 18.67664,3.23356 27.77396,5.50586 z"
       id="path4227"
       sodipodi:nodetypes="cccc"
       inkscape:connector-curvature="0" />
    <path
       style="fill:#000000;fill-rule:evenodd;stroke:#000000;stroke-width:0.92522073;stroke-linecap:butt;stroke-linejoin:miter;stroke-miterlimit:4;stroke-opacity:1;stroke-dasharray:none"
       d="m 181.12076,233.91984 -9.5418,-0.98411 c -11.2845,0.60536 -7.99146,3.74803 -4.50396,2.75631 4.74194,-2.51996 9.37106,-1.41416 14.04576,-1.7722 z"
       id="path4229"
       sodipodi:nodetypes="cccc"
       inkscape:connector-curvature="0" />
    <path
       style="opacity:0.65;fill:#ffffff;fill-rule:evenodd;stroke:#000000;stroke-width:1px;stroke-linecap:butt;stroke-linejoin:miter;stroke-opacity:1"
       d="m 194.71686,496.8421 c -22.99102,-125.64636 106.24476,-150.12431 123.33797,0.92735 -42.38032,27.57949 -83.43026,25.89068 -123.33797,-0.92735 z"
       id="path3912"
       sodipodi:nodetypes="ccc"
       inkscape:connector-curvature="0" />
    <path
       style="opacity:0.18500001;color:#000000;fill:#000000;fill-opacity:1;fill-rule:evenodd;stroke:#000000;stroke-width:2.50001049;stroke-linecap:butt;stroke-linejoin:miter;stroke-miterlimit:4;stroke-opacity:1;stroke-dasharray:none;stroke-dashoffset:0;marker:none;visibility:visible;display:inline;overflow:visible;enable-background:accumulate"
       d="m 340.16561,442.86657 c 4.61108,-28.94355 38.09615,0.32176 15.62785,20.29588 46.28171,-3.68999 17.50797,64.10823 -1.48292,32.13021 12.99314,35.2556 -40.91834,24.22687 -33.84316,1.41207"
       id="path3928"
       sodipodi:nodetypes="cccc"
       inkscape:connector-curvature="0" />
    <path
       style="opacity:0.17000002;fill:#000000;fill-rule:evenodd;stroke:#000000;stroke-width:0.91001797px;stroke-linecap:butt;stroke-linejoin:miter;stroke-opacity:1"
       d="M 335.33037,408.11147 C 389.29531,525.39116 200.46974,558.07096 186.01569,461.74529 230.5683,523.00164 341.412,477.6604 335.33037,408.11147 z"
       id="path3593"
       sodipodi:nodetypes="ccc"
       inkscape:connector-curvature="0" />
    <path
       style="fill:#000000;fill-rule:evenodd;stroke:#000000;stroke-width:0.91001797px;stroke-linecap:butt;stroke-linejoin:miter;stroke-opacity:1"
       d="m 201.52924,413.51347 c 1.1414,-7.97064 5.24818,-8.39591 14.17476,-18.39907 l -14.17476,18.39907 z"
       id="path3595"
       sodipodi:nodetypes="ccc"
       inkscape:connector-curvature="0" />
    <path
       style="opacity:0.51499999;fill:#ffffff;fill-rule:evenodd;stroke:none"
       d="m 168.28729,357.27545 c -38.46623,-1.1378 -68.501083,23.28664 -20.86545,43.12192 -7.62175,-16.61095 -5.03291,-35.14145 20.86545,-43.12192 z"
       id="path3597"
       sodipodi:nodetypes="ccc"
       inkscape:connector-curvature="0" />
    <path
       style="opacity:0.51499999;fill:#ffffff;fill-rule:evenodd;stroke:none"
       d="m 350.24636,345.34298 c 37.60983,-8.15148 71.60399,10.36994 28.39781,38.5802 -25.37226,-6.05243 -28.49727,-24.8961 -28.39781,-38.5802 z"
       id="path3599"
       sodipodi:nodetypes="ccc"
       inkscape:connector-curvature="0" />
    <path
       style="color:#000000;fill:#87cdde;fill-opacity:1;fill-rule:evenodd;stroke:#000000;stroke-width:3;stroke-linecap:butt;stroke-linejoin:miter;stroke-miterlimit:4;stroke-opacity:1;stroke-dasharray:none;stroke-dashoffset:0;marker:none;visibility:visible;display:inline;overflow:visible;enable-background:accumulate"
       d="m 178.97966,549.94511 c -111.515514,-87.47472 -22.63906,-141.79155 45.4403,-50.07699 8.87728,26.85456 -8.44847,65.44922 -45.4403,50.07699 z"
       id="path3517"
       sodipodi:nodetypes="ccc"
       inkscape:connector-curvature="0" />
    <path
       style="color:#000000;fill:#87cdde;fill-opacity:1;fill-rule:evenodd;stroke:#000000;stroke-width:3;stroke-linecap:butt;stroke-linejoin:miter;stroke-miterlimit:4;stroke-opacity:1;stroke-dasharray:none;stroke-dashoffset:0;marker:none;visibility:visible;display:inline;overflow:visible;enable-background:accumulate"
       d="M 336.82295,522.14734 C 385.08983,388.88878 277.97799,390.18286 268.80119,504.03422 l -0.98224,-1.57328 c 8.77392,37.32464 47.29456,42.17968 69.004,19.6864 z"
       id="path3519"
       sodipodi:nodetypes="cccc"
       inkscape:connector-curvature="0" />
    <path
       sodipodi:type="arc"
       style="color:#000000;fill:#ffffff;fill-opacity:1;fill-rule:evenodd;stroke:#000000;stroke-width:3;stroke-linecap:butt;stroke-linejoin:miter;stroke-miterlimit:4;stroke-opacity:1;stroke-dasharray:none;stroke-dashoffset:0;marker:none;visibility:visible;display:inline;overflow:visible;enable-background:accumulate"
       id="path3934"
       sodipodi:cx="268.96317"
       sodipodi:cy="210.81177"
       sodipodi:rx="17.330681"
       sodipodi:ry="26.248903"
       d="m 286.29385,210.81177 c 0,14.49687 -7.75921,26.2489 -17.33068,26.2489 -9.57148,0 -17.33069,-11.75203 -17.33069,-26.2489 0,-14.49687 7.75921,-26.24891 17.33069,-26.24891 9.57147,0 17.33068,11.75204 17.33068,26.24891 z"
       transform="matrix(-1.1215702,-0.2292213,-0.1253979,1.0318273,519.57182,90.688118)" />
    <path
       sodipodi:type="arc"
       style="color:#000000;fill:#000000;fill-opacity:1;fill-rule:evenodd;stroke:none;stroke-width:3;marker:none;visibility:visible;display:inline;overflow:visible;enable-background:accumulate"
       id="path3936"
       sodipodi:cx="270.53867"
       sodipodi:cy="216.66368"
       sodipodi:rx="6.7522135"
       sodipodi:ry="17.105606"
       d="m 277.29088,216.66368 c 0,9.44717 -3.02307,17.10561 -6.75221,17.10561 -3.72915,0 -6.75222,-7.65844 -6.75222,-17.10561 0,-9.44716 3.02307,-17.10561 6.75222,-17.10561 3.72914,0 6.75221,7.65845 6.75221,17.10561 z"
       transform="matrix(-1.4163556,0.120163,0.06527626,1.0683225,562.89387,-13.211433)" />
    <path
       sodipodi:type="arc"
       style="color:#000000;fill:#ffffff;fill-opacity:1;fill-rule:evenodd;stroke:none;stroke-width:3;marker:none;visibility:visible;display:inline;overflow:visible;enable-background:accumulate"
       id="path3938"
       sodipodi:cx="315.11935"
       sodipodi:cy="265.54376"
       sodipodi:rx="1.7506632"
       sodipodi:ry="1.9893899"
       d="m 316.87002,265.54376 c 0,1.09871 -0.7838,1.98939 -1.75067,1.98939 -0.96686,0 -1.75066,-0.89068 -1.75066,-1.98939 0,-1.09871 0.7838,-1.98939 1.75066,-1.98939 0.96687,0 1.75067,0.89068 1.75067,1.98939 z"
       transform="matrix(-2.8784234,0,0,3.8530599,1104.8215,-777.41996)" />
    <path
       sodipodi:type="arc"
       style="color:#000000;fill:#ffffff;fill-opacity:1;fill-rule:evenodd;stroke:#000000;stroke-width:3;stroke-linecap:butt;stroke-linejoin:miter;stroke-miterlimit:4;stroke-opacity:1;stroke-dasharray:none;stroke-dashoffset:0;marker:none;visibility:visible;display:inline;overflow:visible;enable-background:accumulate"
       id="path3944"
       sodipodi:cx="268.96317"
       sodipodi:cy="210.81177"
       sodipodi:rx="17.330681"
       sodipodi:ry="26.248903"
       d="m 286.29385,210.81177 c 0,14.49687 -7.75921,26.2489 -17.33068,26.2489 -9.57148,0 -17.33069,-11.75203 -17.33069,-26.2489 0,-14.49687 7.75921,-26.24891 17.33069,-26.24891 9.57147,0 17.33068,11.75204 17.33068,26.24891 z"
       transform="matrix(-1.072701,-0.3997184,-0.2832786,1.0000727,604.40325,144.55128)" />
    <path
       sodipodi:type="arc"
       style="color:#000000;fill:#000000;fill-opacity:1;fill-rule:evenodd;stroke:none;stroke-width:3;marker:none;visibility:visible;display:inline;overflow:visible;enable-background:accumulate"
       id="path3946"
       sodipodi:cx="270.53867"
       sodipodi:cy="216.66368"
       sodipodi:rx="6.7522135"
       sodipodi:ry="17.105606"
       d="m 277.29088,216.66368 c 0,9.44717 -3.02307,17.10561 -6.75221,17.10561 -3.72915,0 -6.75222,-7.65844 -6.75222,-17.10561 0,-9.44716 3.02307,-17.10561 6.75222,-17.10561 3.72914,0 6.75221,7.65845 6.75221,17.10561 z"
       transform="matrix(-1.4179174,-0.1000629,-0.1005304,1.0655832,663.25459,48.590694)" />
    <path
       sodipodi:type="arc"
       style="color:#000000;fill:#ffffff;fill-opacity:1;fill-rule:evenodd;stroke:none;stroke-width:3;marker:none;visibility:visible;display:inline;overflow:visible;enable-background:accumulate"
       id="path3948"
       sodipodi:cx="315.11935"
       sodipodi:cy="265.54376"
       sodipodi:rx="1.7506632"
       sodipodi:ry="1.9893899"
       d="m 316.87002,265.54376 c 0,1.09871 -0.7838,1.98939 -1.75067,1.98939 -0.96686,0 -1.75066,-0.89068 -1.75066,-1.98939 0,-1.09871 0.7838,-1.98939 1.75066,-1.98939 0.96687,0 1.75067,0.89068 1.75067,1.98939 z"
       transform="matrix(-2.8438753,-0.4446284,-0.5951799,3.8068138,1316.7246,-622.73423)" />
    <path
       style="fill:#000000;fill-rule:evenodd;stroke:#000000;stroke-width:1px;stroke-linecap:butt;stroke-linejoin:miter;stroke-opacity:1"
       d="m 218.82804,538.57299 c 7.41407,-33.48546 -36.24476,-59.58782 -53.78648,-64.91472 33.28397,8.64987 70.28349,49.99908 53.78648,64.91472 z"
       id="path3950"
       sodipodi:nodetypes="ccc"
       inkscape:connector-curvature="0" />
    <path
       style="opacity:0.325;fill:#ffffff;fill-rule:evenodd;stroke:none"
       d="m 220.21907,528.37211 c -1.07806,22.89861 -25.68591,26.25972 -43.12192,21.32912 -116.07955,-109.65488 27.42871,-91.26748 43.12192,-21.32912 z"
       id="path3954"
       sodipodi:nodetypes="ccc"
       inkscape:connector-curvature="0" />
    <path
       style="opacity:0.325;fill:#ffffff;fill-rule:evenodd;stroke:none"
       d="m 315.38953,536.28286 c -20.96525,9.27185 -34.9721,-11.23794 -38.35586,-29.03894 46.19861,-152.85399 93.90209,-16.26302 38.35586,29.03894 z"
       id="path4925"
       sodipodi:nodetypes="ccc"
       inkscape:connector-curvature="0" />
  </g>
</svg>
