<?xml version="1.0" encoding="UTF-8" standalone="no"?>
<!-- Created with Inkscape (http://www.inkscape.org/) -->

<svg
   xmlns:dc="http://purl.org/dc/elements/1.1/"
   xmlns:cc="http://creativecommons.org/ns#"
   xmlns:rdf="http://www.w3.org/1999/02/22-rdf-syntax-ns#"
   xmlns:svg="http://www.w3.org/2000/svg"
   xmlns="http://www.w3.org/2000/svg"
   xmlns:sodipodi="http://sodipodi.sourceforge.net/DTD/sodipodi-0.dtd"
   xmlns:inkscape="http://www.inkscape.org/namespaces/inkscape"
   width="477.51199"
   height="519.65552"
   id="svg2160"
   sodipodi:version="0.32"
   inkscape:version="0.48.3.1 r9886"
   sodipodi:docname="conejo2.svg"
   inkscape:output_extension="org.inkscape.output.svg.inkscape"
   version="1.0"
   sodipodi:modified="true">
  <defs
     id="defs2162" />
  <sodipodi:namedview
     id="base"
     pagecolor="#ffffff"
     bordercolor="#666666"
     borderopacity="1.0"
     inkscape:pageopacity="0.0"
     inkscape:pageshadow="2"
     inkscape:zoom="0.7640625"
     inkscape:cx="238.19493"
     inkscape:cy="257.36261"
     inkscape:current-layer="layer1"
     inkscape:document-units="px"
     showguides="true"
     inkscape:guide-bbox="true"
     inkscape:window-width="958"
     inkscape:window-height="690"
     inkscape:window-x="32"
     inkscape:window-y="48"
     width="480px"
     height="640px"
     showgrid="false"
     fit-margin-top="0"
     fit-margin-left="0"
     fit-margin-right="0"
     fit-margin-bottom="0"
     inkscape:window-maximized="0" />
  <metadata
     id="metadata2165">
    <rdf:RDF>
      <cc:Work
         rdf:about="">
        <dc:format>image/svg+xml</dc:format>
        <dc:type
           rdf:resource="http://purl.org/dc/dcmitype/StillImage" />
        <dc:title></dc:title>
      </cc:Work>
    </rdf:RDF>
  </metadata>
  <g
     id="layer1"
     inkscape:label="Layer 1"
     inkscape:groupmode="layer"
     transform="translate(-1.80507,-57.707123)">
    <path
       style="color:#000000;fill:#ffaaaa;fill-opacity:1;fill-rule:evenodd;stroke:#000000;stroke-width:3.35590386;stroke-linecap:butt;stroke-linejoin:miter;stroke-miterlimit:4;stroke-opacity:1;stroke-dasharray:none;stroke-dashoffset:0;marker:none;visibility:visible;display:inline;overflow:visible;enable-background:accumulate"
       d="m 342.52921,449.16427 c 2.2563,-19.50119 38.19712,-22.75681 21.37107,11.50752 27.76658,-17.81466 35.07567,34.05813 7.12366,27.39888 l -23.01497,19.72716 -5.47976,-58.63356 z"
       id="path3611"
       sodipodi:nodetypes="ccccc"
       inkscape:connector-curvature="0" />
    <path
       style="color:#000000;fill:#ffaaaa;fill-opacity:1;fill-rule:evenodd;stroke:#000000;stroke-width:3.35590386;stroke-linecap:butt;stroke-linejoin:miter;stroke-miterlimit:4;stroke-opacity:1;stroke-dasharray:none;stroke-dashoffset:0;marker:none;visibility:visible;display:inline;overflow:visible;enable-background:accumulate"
       d="m 208.55796,448.96204 c -1.43732,26.84338 -15.98242,49.28789 -3.9027,80.66706 C 72.535793,406.30187 11.121744,522.86011 49.513903,568.42665 93.014383,571.01897 187.41455,563.26564 228.84945,548.87949 205.38499,506.65752 210.5957,479.74462 208.55796,448.96204 z"
       id="path3905"
       sodipodi:nodetypes="ccccc"
       inkscape:connector-curvature="0" />
    <path
       style="opacity:0.37999998;color:#000000;fill:#000000;fill-opacity:1;fill-rule:evenodd;stroke:#000000;stroke-width:3.35590386;stroke-linecap:butt;stroke-linejoin:miter;stroke-miterlimit:4;stroke-opacity:1;stroke-dasharray:none;stroke-dashoffset:0;marker:none;visibility:visible;display:inline;overflow:visible;enable-background:accumulate"
       d="m 336.9157,453.21606 c 2.2563,-19.50119 38.19712,-22.75681 21.37107,11.50752 27.76658,-17.81466 35.07567,34.05813 7.12366,27.39888 l -23.01497,19.72716 -5.47976,-58.63356 z"
       id="path3613"
       sodipodi:nodetypes="ccccc"
       inkscape:connector-curvature="0" />
    <path
       style="color:#000000;fill:#ffaaaa;fill-opacity:1;fill-rule:evenodd;stroke:#000000;stroke-width:3.35590386;stroke-linecap:butt;stroke-linejoin:miter;stroke-miterlimit:4;stroke-opacity:1;stroke-dasharray:none;stroke-dashoffset:0;marker:none;visibility:visible;display:inline;overflow:visible;enable-background:accumulate"
       d="m 276.28936,455.72493 c 1.43732,26.84337 15.9823,49.28771 3.90173,80.66745 132.12031,-123.32675 193.53441,-6.76905 155.14193,38.79784 -43.50005,2.59146 -137.90025,-5.16187 -179.3358,-19.54802 23.46511,-42.22194 18.2544,-69.1345 20.29214,-99.91727 z"
       id="path3668"
       sodipodi:nodetypes="ccccc"
       inkscape:connector-curvature="0" />
    <path
       style="opacity:0.62999998;color:#000000;fill:#ffffff;fill-opacity:1;fill-rule:evenodd;stroke:none;stroke-width:1.61000001;marker:none;visibility:visible;display:inline;overflow:visible;enable-background:accumulate"
       d="m 345.87131,568.86385 90.67443,3.31536 c 13.89121,-37.8263 15.54395,-70.96738 -41.50592,-89.50311 -50.04048,14.19489 -46.48163,49.9529 -49.16851,86.18775 z"
       id="path3670"
       sodipodi:nodetypes="cccc"
       inkscape:connector-curvature="0" />
    <path
       style="opacity:0.40594058;fill:#ffffff;fill-rule:evenodd;stroke:none"
       d="m 362.40658,526.25104 c -34.61764,-10.63599 -53.34483,4.68379 -70.69567,22.25162 22.0941,-9.61783 44.44779,-18.84928 70.69567,-22.25162 z"
       id="path3676"
       sodipodi:nodetypes="ccc"
       inkscape:connector-curvature="0" />
    <path
       style="opacity:0.62999998;color:#000000;fill:#ffffff;fill-opacity:1;fill-rule:evenodd;stroke:none;stroke-width:1.61000001;marker:none;visibility:visible;display:inline;overflow:visible;enable-background:accumulate"
       d="m 138.97603,562.10114 c -37.27135,5.33202 -66.125657,5.6152 -90.675067,3.31431 -14.36889,-31.60884 -13.35874,-72.93144 41.50575,-88.54643 50.040497,14.19558 46.481617,48.99727 49.169317,85.23212 z"
       id="path3907"
       sodipodi:nodetypes="cccc"
       inkscape:connector-curvature="0" />
    <path
       sodipodi:type="arc"
       style="color:#000000;fill:#ffaaaa;fill-opacity:1;fill-rule:evenodd;stroke:#000000;stroke-width:2.4403255;stroke-linecap:butt;stroke-linejoin:miter;stroke-miterlimit:4;stroke-opacity:1;stroke-dasharray:none;stroke-dashoffset:0;marker:none;visibility:visible;display:inline;overflow:visible;enable-background:accumulate"
       id="path2180"
       sodipodi:cx="322.3959"
       sodipodi:cy="336.26517"
       sodipodi:rx="83.733383"
       sodipodi:ry="65.374725"
       d="m 406.12929,336.26517 c 0,36.10546 -37.48871,65.37472 -83.73339,65.37472 -46.24467,0 -83.73338,-29.26926 -83.73338,-65.37472 0,-36.10547 37.48871,-65.37473 83.73338,-65.37473 46.24468,0 83.73339,29.26926 83.73339,65.37473 z"
       transform="matrix(1.375187,0,0,1.375187,-206.35234,8.3412765)" />
    <path
       style="opacity:0.39500002;fill:#000000;fill-rule:evenodd;stroke:#000000;stroke-width:1.37519014px;stroke-linecap:butt;stroke-linejoin:miter;stroke-opacity:1"
       d="m 145.90448,414.69474 c 83.88144,88.59677 126.27315,20.67031 175.98924,-1.91326 l -175.98924,1.91326 z"
       id="path3694"
       sodipodi:nodetypes="ccc"
       inkscape:connector-curvature="0" />
    <path
       sodipodi:type="arc"
       style="opacity:0.12000002;color:#000000;fill:#000000;fill-opacity:1;fill-rule:evenodd;stroke:#000000;stroke-width:1.87381434;stroke-linecap:butt;stroke-linejoin:miter;stroke-miterlimit:4;stroke-opacity:1;stroke-dasharray:none;stroke-dashoffset:0;marker:none;visibility:visible;display:inline;overflow:visible;enable-background:accumulate"
       id="path2182"
       sodipodi:cx="322.3959"
       sodipodi:cy="336.26517"
       sodipodi:rx="83.733383"
       sodipodi:ry="65.374725"
       d="m 406.12929,336.26517 c 0,36.10546 -37.48871,65.37472 -83.73339,65.37472 -46.24467,0 -83.73338,-29.26926 -83.73338,-65.37472 0,-36.10547 37.48871,-65.37473 83.73338,-65.37473 46.24468,0 83.73339,29.26926 83.73339,65.37473 z"
       transform="matrix(1.181576,0,0,1.181576,-132.48781,80.369608)" />
    <path
       sodipodi:type="arc"
       style="color:#000000;fill:#ffaaaa;fill-opacity:1;fill-rule:evenodd;stroke:#000000;stroke-width:0.30504006;stroke-linecap:butt;stroke-linejoin:miter;stroke-miterlimit:4;stroke-opacity:1;stroke-dasharray:none;stroke-dashoffset:0;marker:none;visibility:visible;display:inline;overflow:visible;enable-background:accumulate"
       id="path3171"
       sodipodi:cx="139.3038"
       sodipodi:cy="274.75223"
       sodipodi:rx="13.120342"
       sodipodi:ry="11.066723"
       d="m 152.42414,274.75223 c 0,6.11198 -5.87417,11.06672 -13.12034,11.06672 -7.24616,0 -13.12034,-4.95474 -13.12034,-11.06672 0,-6.11198 5.87418,-11.06673 13.12034,-11.06673 7.24617,0 13.12034,4.95475 13.12034,11.06673 z"
       transform="matrix(11.001519,0,0,11.001519,-1295.1868,-2707.1838)" />
    <path
       style="opacity:0.12000002;color:#000000;fill:#000000;fill-opacity:1;fill-rule:evenodd;stroke:#000000;stroke-width:2.21406078;stroke-linecap:butt;stroke-linejoin:miter;stroke-miterlimit:4;stroke-opacity:1;stroke-dasharray:none;stroke-dashoffset:0;marker:none;visibility:visible;display:inline;overflow:visible;enable-background:accumulate"
       d="M 272.30701,198.84257 C 485.173,357.19656 197.85623,422.56636 125.90146,392.88873 340.88783,552.84079 490.63475,242.91658 272.30701,198.84257 z"
       id="path4194"
       sodipodi:nodetypes="ccc"
       inkscape:connector-curvature="0" />
    <path
       sodipodi:type="arc"
       style="opacity:0.49500002;color:#000000;fill:#ffffff;fill-opacity:1;fill-rule:evenodd;stroke:none;stroke-width:3;marker:none;visibility:visible;display:inline;overflow:visible;enable-background:accumulate"
       id="path3692"
       sodipodi:cx="316.45926"
       sodipodi:cy="356.19836"
       sodipodi:rx="57.727734"
       sodipodi:ry="45.90398"
       d="m 374.18699,356.19836 c 0,25.35207 -25.84558,45.90398 -57.72773,45.90398 -31.88215,0 -57.72773,-20.55191 -57.72773,-45.90398 0,-25.35206 25.84558,-45.90398 57.72773,-45.90398 31.88215,0 57.72773,20.55192 57.72773,45.90398 z"
       transform="matrix(1.375187,0,0,1.375187,-197.53459,5.1971565)" />
    <path
       sodipodi:type="arc"
       style="opacity:0.62999998;color:#000000;fill:#ffffff;fill-opacity:1;fill-rule:evenodd;stroke:none;stroke-width:2.00052547;marker:none;visibility:visible;display:inline;overflow:visible;enable-background:accumulate"
       id="path3219"
       sodipodi:cx="395.14511"
       sodipodi:cy="249.49869"
       sodipodi:rx="64.591026"
       sodipodi:ry="59.525066"
       d="m 459.73614,249.49869 c 0,32.87478 -28.91839,59.52506 -64.59103,59.52506 -35.67264,0 -64.59103,-26.65028 -64.59103,-59.52506 0,-32.87479 28.91839,-59.52507 64.59103,-59.52507 35.67264,0 64.59103,26.65028 64.59103,59.52507 z"
       transform="matrix(1.2134033,0,0,1.0094452,-254.63658,125.35787)" />
    <path
       style="color:#000000;fill:#000000;fill-opacity:1;fill-rule:evenodd;stroke:#000000;stroke-width:2.21406078;stroke-linecap:butt;stroke-linejoin:miter;stroke-miterlimit:4;stroke-opacity:1;stroke-dasharray:none;stroke-dashoffset:0;marker:none;visibility:visible;display:inline;overflow:visible;enable-background:accumulate"
       d="m 195.14595,345.76751 16.01212,17.20678 22.18855,-15.08783 c -12.42624,-9.78733 -25.77477,-8.8182 -38.20067,-2.11895 z"
       id="path3173"
       sodipodi:nodetypes="cccc"
       inkscape:connector-curvature="0" />
    <path
       style="color:#000000;fill:#000000;fill-opacity:1;fill-rule:evenodd;stroke:#000000;stroke-width:2.21406078;stroke-linecap:butt;stroke-linejoin:miter;stroke-miterlimit:4;stroke-opacity:1;stroke-dasharray:none;stroke-dashoffset:0;marker:none;visibility:visible;display:inline;overflow:visible;enable-background:accumulate"
       d="m 177.41253,365.88287 c 34.5572,16.62199 70.71086,10.43158 103.44936,9.54434 10.67409,47.15237 -117.29332,144.13276 -102.83425,-9.23629"
       id="path3175"
       sodipodi:nodetypes="ccc"
       inkscape:connector-curvature="0" />
    <path
       style="color:#000000;fill:#000000;fill-opacity:1;fill-rule:evenodd;stroke:#000000;stroke-width:2.21406078;stroke-linecap:butt;stroke-linejoin:miter;stroke-miterlimit:4;stroke-opacity:1;stroke-dasharray:none;stroke-dashoffset:0;marker:none;visibility:visible;display:inline;overflow:visible;enable-background:accumulate"
       d="m 240.50733,331.23237 c 11.29513,-48.86922 38.73481,-65.11983 67.73497,-51.93572 10.67435,5.78109 11.56999,17.15011 14.5671,27.3181 -19.92167,-16.79409 -56.02911,-19.75335 -82.30207,24.61762 z"
       id="path3193"
       sodipodi:nodetypes="cccc"
       inkscape:connector-curvature="0" />
    <path
       style="fill:#000000;fill-rule:evenodd;stroke:#000000;stroke-width:2.21406078;stroke-linecap:butt;stroke-linejoin:miter;stroke-miterlimit:4;stroke-opacity:1;stroke-dasharray:none"
       d="m 161.24036,357.09959 c 41.80611,27.06217 91.0139,16.59048 127.46454,14.47101 -12.67894,2.77867 -65.06912,20.77044 -126.23276,-16.31785"
       id="path3195"
       sodipodi:nodetypes="ccc"
       inkscape:connector-curvature="0" />
    <path
       style="fill:#aa0000;fill-rule:evenodd;stroke:#000000;stroke-width:2.21406078;stroke-linecap:butt;stroke-linejoin:miter;stroke-miterlimit:4;stroke-opacity:1;stroke-dasharray:none"
       d="m 180.63701,399.06885 c 16.7547,-16.44161 31.97511,-9.13937 39.92905,-0.902 l -3.6203,9.61948 7.17792,-9.02561 c 17.11166,-8.96552 30.47289,-0.0112 45.18487,8.62112 -17.68032,34.88487 -89.08055,72.36991 -88.67154,-8.31299 z"
       id="path3201"
       sodipodi:nodetypes="cccccc"
       inkscape:connector-curvature="0" />
    <path
       style="fill:#ffffff;fill-rule:evenodd;stroke:#000000;stroke-width:2.21406078;stroke-linecap:butt;stroke-linejoin:miter;stroke-miterlimit:4;stroke-opacity:1;stroke-dasharray:none"
       d="m 197.57112,345.09207 c 8.51671,-5.76513 17.76991,-3.42667 27.09374,-0.30793 -6.50589,2.29376 -15.1322,1.05261 -19.39697,7.08136 l -7.69677,-6.77343 z"
       id="path3203"
       sodipodi:nodetypes="cccc"
       inkscape:connector-curvature="0" />
    <path
       style="color:#000000;fill:#000000;fill-opacity:1;fill-rule:evenodd;stroke:#000000;stroke-width:2.21406078;stroke-linecap:butt;stroke-linejoin:miter;stroke-miterlimit:4;stroke-opacity:1;stroke-dasharray:none;stroke-dashoffset:0;marker:none;visibility:visible;display:inline;overflow:visible;enable-background:accumulate"
       d="m 196.23389,325.53502 c -11.29463,-48.87016 -38.73508,-65.11972 -67.73497,-51.93643 -10.67385,5.78133 -11.57006,17.15001 -14.56746,27.31787 19.92235,-16.79409 56.02941,-19.75243 82.30243,24.61856 z"
       id="path3215"
       sodipodi:nodetypes="cccc"
       inkscape:connector-curvature="0" />
    <path
       style="fill:#000000;fill-rule:evenodd;stroke:#000000;stroke-width:2.21406078;stroke-linecap:butt;stroke-linejoin:miter;stroke-miterlimit:4;stroke-opacity:1;stroke-dasharray:none"
       d="m 281.62392,367.26007 c 4.11909,2.59768 8.54078,4.93616 7.08098,12.31543 3.08118,-10.04119 -1.22253,-12.02672 -7.08098,-12.31543 z"
       id="path4192"
       sodipodi:nodetypes="ccc"
       inkscape:connector-curvature="0" />
    <path
       style="opacity:0.19499996;fill:#000000;fill-rule:evenodd;stroke:#000000;stroke-width:1.37519014px;stroke-linecap:butt;stroke-linejoin:miter;stroke-opacity:1"
       d="m 217.35348,408.12863 c 7.12441,22.04529 -0.63698,31.91064 -31.78522,22.64179 25.3753,34.5213 64.63057,4.57359 81.42226,-23.51244 -16.33908,-5.06792 -32.22427,-21.96661 -49.63704,0.87065 z"
       id="path3178"
       sodipodi:nodetypes="cccc"
       inkscape:connector-curvature="0" />
    <path
       style="fill:#000000;fill-rule:evenodd;stroke:#000000;stroke-width:0.26394665;stroke-linecap:butt;stroke-linejoin:miter;stroke-miterlimit:4;stroke-opacity:1;stroke-dasharray:none"
       d="m 204.10126,338.13035 c 6.2176,-1.87637 12.27971,-5.29706 19.27553,0.61167 -6.425,-2.31401 -12.85001,-1.48854 -19.27553,-0.61167 z"
       id="path3888"
       sodipodi:nodetypes="ccc"
       inkscape:connector-curvature="0" />
    <path
       style="fill:#000000;fill-rule:evenodd;stroke:#000000;stroke-width:0.18077968;stroke-linecap:butt;stroke-linejoin:miter;stroke-miterlimit:4;stroke-opacity:1;stroke-dasharray:none"
       d="m 209.01191,334.29802 c 4.42812,-0.42198 8.96,-1.90194 12.86139,3.0088 -4.0026,-2.41988 -8.42836,-2.73157 -12.86139,-3.0088 z"
       id="path3408"
       sodipodi:nodetypes="ccc"
       inkscape:connector-curvature="0" />
    <path
       style="color:#000000;fill:#ffaaaa;fill-opacity:1;fill-rule:evenodd;stroke:#000000;stroke-width:3.35590386;stroke-linecap:butt;stroke-linejoin:miter;stroke-miterlimit:4;stroke-opacity:1;stroke-dasharray:none;stroke-dashoffset:0;marker:none;visibility:visible;display:inline;overflow:visible;enable-background:accumulate"
       d="m 191.80442,212.83959 c -55.89073,-309.849316 -324.67751,-54.19767 -97.871263,-56.75145 41.102373,-2.1696 73.212393,6.00165 97.871263,56.75145 z"
       id="path3362"
       sodipodi:nodetypes="ccc"
       inkscape:connector-curvature="0" />
    <path
       style="color:#000000;fill:#ffaaaa;fill-opacity:1;fill-rule:evenodd;stroke:#000000;stroke-width:3.35590386;stroke-linecap:butt;stroke-linejoin:miter;stroke-miterlimit:4;stroke-opacity:1;stroke-dasharray:none;stroke-dashoffset:0;marker:none;visibility:visible;display:inline;overflow:visible;enable-background:accumulate"
       d="m 288.49035,212.0794 c 18.10091,-45.83243 110.51548,-129.803311 157.25091,-79.00236 70.8856,103.12137 12.67276,178.01319 -67.77394,72.4418 -14.85406,-19.49331 -73.04797,-5.83228 -89.47697,6.56056 z"
       id="path3366"
       sodipodi:nodetypes="ccsc"
       inkscape:connector-curvature="0" />
    <path
       style="fill:#000000;fill-rule:evenodd;stroke:#000000;stroke-width:0.87014169;stroke-linecap:butt;stroke-linejoin:miter;stroke-miterlimit:4;stroke-opacity:1;stroke-dasharray:none"
       d="m 389.4154,216.99133 c -11.7228,-16.84457 -33.89731,-30.35453 -27.9232,-44.27589 -6.66,16.55832 14.97279,31.10145 26.65507,44.63285 l 1.26813,-0.35696 z"
       id="path3368"
       sodipodi:nodetypes="cccc"
       inkscape:connector-curvature="0" />
    <path
       style="opacity:0.18686871;fill:#000000;fill-rule:evenodd;stroke:none"
       d="m 360.94009,177.56468 c -27.50187,0.86531 -45.8863,16.06214 -66.99083,30.92908 24.66101,-8.61773 48.47014,-19.33633 80.92985,-8.71533 -4.44253,-6.90202 -8.26515,-12.27476 -13.93902,-22.21375 z"
       id="path3404"
       sodipodi:nodetypes="cccc"
       inkscape:connector-curvature="0" />
    <path
       style="opacity:0.12626265;fill:#000000;fill-rule:evenodd;stroke:#000000;stroke-width:3.72918081;stroke-linecap:butt;stroke-linejoin:miter;stroke-miterlimit:4;stroke-opacity:1;stroke-dasharray:none"
       d="m 361.53864,178.6726 c 32.78076,29.83996 140.21462,82.50079 103.71569,-6.92235 27.72178,47.79664 4.40753,126.69157 -70.39417,51.17476 -18.40001,-18.79817 -34.94241,-31.76425 -33.32152,-44.25241 z"
       id="path3406"
       sodipodi:nodetypes="cccc"
       inkscape:connector-curvature="0" />
    <path
       style="opacity:0.14141415;fill:#000000;fill-rule:evenodd;stroke:#000000;stroke-width:3.73025846;stroke-linecap:butt;stroke-linejoin:miter;stroke-miterlimit:4;stroke-opacity:1;stroke-dasharray:none"
       d="M 30.899053,77.013511 C -6.4952343,166.33264 131.23503,101.54611 183.21118,189.18183 138.35095,135.26213 82.775723,166.87734 21.555991,142.06143 -13.731613,111.54495 10.686681,85.680051 30.899053,77.013511 z"
       id="path3410"
       sodipodi:nodetypes="cccc"
       inkscape:connector-curvature="0" />
    <path
       style="fill:#ffffff;fill-rule:evenodd;stroke:#000000;stroke-width:1px;stroke-linecap:butt;stroke-linejoin:miter;stroke-opacity:1"
       d="m 190.59015,370.95691 c 15.38572,5.52073 30.77144,6.73701 46.15716,4.85865 -10.37363,24.03184 -40.73212,30.6444 -46.15716,-4.85865 z"
       id="path2272"
       sodipodi:nodetypes="ccc"
       inkscape:connector-curvature="0" />
    <path
       style="fill:#000000;fill-rule:evenodd;stroke:#000000;stroke-width:1px;stroke-linecap:butt;stroke-linejoin:miter;stroke-opacity:1"
       d="m 208.63656,374.42738 1.38819,18.7405 1.73522,-17.69936 -3.12341,-1.04114 z"
       id="path2274"
       sodipodi:nodetypes="cccc"
       inkscape:connector-curvature="0" />
    <path
       style="fill:#000000;fill-rule:evenodd;stroke:#000000;stroke-width:3.70088291;stroke-linecap:butt;stroke-linejoin:miter;stroke-miterlimit:4;stroke-opacity:1;stroke-dasharray:none"
       d="m 328.21776,357.1662 38.16766,-3.93644 c 45.13718,2.42144 31.96538,14.99238 18.01522,11.025 -18.96766,-10.07934 -37.48418,-5.65692 -56.18288,-7.08856 z"
       id="path3372"
       sodipodi:nodetypes="cccc"
       inkscape:connector-curvature="0" />
    <path
       style="fill:#000000;fill-rule:evenodd;stroke:#000000;stroke-width:3.70088291;stroke-linecap:butt;stroke-linejoin:miter;stroke-miterlimit:4;stroke-opacity:1;stroke-dasharray:none"
       d="m 328.08889,368.13312 31.1916,9.82318 c 34.49496,17.153 19.94024,22.53511 10.36762,14.71559 -11.43248,-14.29789 -27.41424,-17.0974 -41.55922,-24.53877 z"
       id="path3374"
       sodipodi:nodetypes="cccc"
       inkscape:connector-curvature="0" />
    <path
       style="fill:#000000;fill-rule:evenodd;stroke:#000000;stroke-width:3.70088291;stroke-linecap:butt;stroke-linejoin:miter;stroke-miterlimit:4;stroke-opacity:1;stroke-dasharray:none"
       d="m 129.35093,356.23392 -38.167659,-3.93644 c -45.137178,2.42144 -31.965378,14.99238 -18.01522,11.025 18.96766,-10.07934 37.484179,-5.65692 56.182879,-7.08856 z"
       id="path2351"
       sodipodi:nodetypes="cccc"
       inkscape:connector-curvature="0" />
    <path
       style="fill:#000000;fill-rule:evenodd;stroke:#000000;stroke-width:3.70088291;stroke-linecap:butt;stroke-linejoin:miter;stroke-miterlimit:4;stroke-opacity:1;stroke-dasharray:none"
       d="m 123.23297,367.20084 -31.191599,9.82318 c -34.494958,17.153 -19.940238,22.53511 -10.36762,14.71559 11.43248,-14.29789 27.414239,-17.0974 41.559219,-24.53877 z"
       id="path2353"
       sodipodi:nodetypes="cccc"
       inkscape:connector-curvature="0" />
    <path
       style="fill:#000000;fill-rule:evenodd;stroke:#000000;stroke-width:2;stroke-linecap:butt;stroke-linejoin:miter;stroke-miterlimit:4;stroke-opacity:1;stroke-dasharray:none"
       d="m 70.040713,570.25408 c 1.13397,-16.54873 10.76866,-28.34502 23.2169,-38.56835 -13.7526,7.34695 -24.23893,17.68617 -23.2169,38.56835 z"
       id="path3909"
       sodipodi:nodetypes="ccc"
       inkscape:connector-curvature="0" />
    <path
       style="fill:#000000;fill-rule:evenodd;stroke:#000000;stroke-width:2;stroke-linecap:butt;stroke-linejoin:miter;stroke-miterlimit:4;stroke-opacity:1;stroke-dasharray:none"
       d="m 54.253213,569.77198 c -7.08524,-21.06966 5.69441,-41.41017 18.10918,-46.28202 -17.08305,4.1584 -26.72891,25.35384 -18.10918,46.28202 z"
       id="path3911"
       sodipodi:nodetypes="ccc"
       inkscape:connector-curvature="0" />
    <path
       style="fill:#000000;fill-rule:evenodd;stroke:#000000;stroke-width:2;stroke-linecap:butt;stroke-linejoin:miter;stroke-miterlimit:4;stroke-opacity:1;stroke-dasharray:none"
       d="m 409.96514,576.14365 c -1.13397,-16.54873 -10.76866,-28.34502 -23.2169,-38.56835 13.7526,7.34695 24.23893,17.68617 23.2169,38.56835 z"
       id="path2471"
       sodipodi:nodetypes="ccc"
       inkscape:connector-curvature="0" />
    <path
       style="fill:#000000;fill-rule:evenodd;stroke:#000000;stroke-width:2;stroke-linecap:butt;stroke-linejoin:miter;stroke-miterlimit:4;stroke-opacity:1;stroke-dasharray:none"
       d="m 425.75264,575.66155 c 7.08524,-21.06966 -5.69441,-41.41017 -18.10918,-46.28202 17.08305,4.1584 26.72891,25.35384 18.10918,46.28202 z"
       id="path2473"
       sodipodi:nodetypes="ccc"
       inkscape:connector-curvature="0" />
    <g
       id="g3534"
       transform="matrix(1.0966772,0,0,1.0966772,242.55514,35.843484)">
      <path
         sodipodi:nodetypes="ccc"
         id="path2555"
         d="m -107.4985,460.33853 c 9.259259,21.20911 74.267723,28.54606 75.075798,-20.71054 -8.972705,-41.73872 -100.043218,-53.68082 -75.075798,20.71054 z"
         style="color:#000000;fill:#ffaaaa;fill-opacity:1;fill-rule:evenodd;stroke:#000000;stroke-width:3.35590386;stroke-linecap:butt;stroke-linejoin:miter;stroke-miterlimit:4;stroke-opacity:1;stroke-dasharray:none;stroke-dashoffset:0;marker:none;visibility:visible;display:inline;overflow:visible;enable-background:accumulate"
         inkscape:connector-curvature="0" />
      <path
         sodipodi:nodetypes="ccc"
         id="path2557"
         d="m -106.80441,458.95034 c 8.329888,20.27974 70.281998,28.0308 73.687615,-18.62826 -5.474952,-35.39904 -75.472865,-13.74541 -73.687615,18.62826 z"
         style="opacity:0.62999998;color:#000000;fill:#ffffff;fill-opacity:1;fill-rule:evenodd;stroke:none;stroke-width:1.61000001;marker:none;visibility:visible;display:inline;overflow:visible;enable-background:accumulate"
         inkscape:connector-curvature="0" />
      <path
         id="path3528"
         d="m -42.290388,466.58486 -10.797546,-19.8773 7.607362,20.6135 3.190184,-0.7362 z"
         style="fill:#000000;fill-rule:evenodd;stroke:#000000;stroke-width:1px;stroke-linecap:butt;stroke-linejoin:miter;stroke-opacity:1"
         inkscape:connector-curvature="0" />
      <path
         id="path3530"
         d="m -57.774868,474.40907 -4.141429,-22.23832 0.879696,21.95483 3.261733,0.28349 z"
         style="fill:#000000;fill-rule:evenodd;stroke:#000000;stroke-width:1px;stroke-linecap:butt;stroke-linejoin:miter;stroke-opacity:1"
         inkscape:connector-curvature="0" />
      <path
         inkscape:transform-center-x="5.6441718"
         id="path3532"
         d="m -78.458727,477.62411 4.591216,-22.14983 -7.502485,20.65191 2.911269,1.49792 z"
         style="fill:#000000;fill-rule:evenodd;stroke:#000000;stroke-width:1px;stroke-linecap:butt;stroke-linejoin:miter;stroke-opacity:1"
         inkscape:connector-curvature="0" />
    </g>
    <g
       id="g3541"
       transform="matrix(-1.0966772,0,0,1.0966772,190.51963,38.013185)">
      <path
         sodipodi:nodetypes="ccc"
         id="path3543"
         d="m -107.4985,460.33853 c 9.259259,21.20911 74.267723,28.54606 75.075798,-20.71054 -8.972705,-41.73872 -100.043218,-53.68082 -75.075798,20.71054 z"
         style="color:#000000;fill:#ffaaaa;fill-opacity:1;fill-rule:evenodd;stroke:#000000;stroke-width:3.35590386;stroke-linecap:butt;stroke-linejoin:miter;stroke-miterlimit:4;stroke-opacity:1;stroke-dasharray:none;stroke-dashoffset:0;marker:none;visibility:visible;display:inline;overflow:visible;enable-background:accumulate"
         inkscape:connector-curvature="0" />
      <path
         sodipodi:nodetypes="ccc"
         id="path3545"
         d="m -106.80441,458.95034 c 8.329888,20.27974 70.281998,28.0308 73.687615,-18.62826 -5.474952,-35.39904 -75.472865,-13.74541 -73.687615,18.62826 z"
         style="opacity:0.62999998;color:#000000;fill:#ffffff;fill-opacity:1;fill-rule:evenodd;stroke:none;stroke-width:1.61000001;marker:none;visibility:visible;display:inline;overflow:visible;enable-background:accumulate"
         inkscape:connector-curvature="0" />
      <path
         id="path3547"
         d="m -42.290388,466.58486 -10.797546,-19.8773 7.607362,20.6135 3.190184,-0.7362 z"
         style="fill:#000000;fill-rule:evenodd;stroke:#000000;stroke-width:1px;stroke-linecap:butt;stroke-linejoin:miter;stroke-opacity:1"
         inkscape:connector-curvature="0" />
      <path
         id="path3549"
         d="m -57.774868,474.40907 -4.141429,-22.23832 0.879696,21.95483 3.261733,0.28349 z"
         style="fill:#000000;fill-rule:evenodd;stroke:#000000;stroke-width:1px;stroke-linecap:butt;stroke-linejoin:miter;stroke-opacity:1"
         inkscape:connector-curvature="0" />
      <path
         inkscape:transform-center-x="5.6441718"
         id="path3551"
         d="m -78.458727,477.62411 4.591216,-22.14983 -7.502485,20.65191 2.911269,1.49792 z"
         style="fill:#000000;fill-rule:evenodd;stroke:#000000;stroke-width:1px;stroke-linecap:butt;stroke-linejoin:miter;stroke-opacity:1"
         inkscape:connector-curvature="0" />
    </g>
    <path
       style="opacity:0.40594058;fill:#ffffff;fill-rule:evenodd;stroke:none"
       d="m 282.3185,524.27054 c 4.62051,-16.49864 15.50767,-20.0342 26.93765,-22.44701 -9.47888,6.33398 -18.8703,12.87012 -26.93765,22.44701 z"
       id="path4424"
       sodipodi:nodetypes="ccc"
       inkscape:connector-curvature="0" />
  </g>
</svg>
