<?xml version="1.0" encoding="UTF-8" standalone="no"?>
<!-- Created with Inkscape (http://www.inkscape.org/) -->

<svg
   xmlns:dc="http://purl.org/dc/elements/1.1/"
   xmlns:cc="http://creativecommons.org/ns#"
   xmlns:rdf="http://www.w3.org/1999/02/22-rdf-syntax-ns#"
   xmlns:svg="http://www.w3.org/2000/svg"
   xmlns="http://www.w3.org/2000/svg"
   xmlns:sodipodi="http://sodipodi.sourceforge.net/DTD/sodipodi-0.dtd"
   xmlns:inkscape="http://www.inkscape.org/namespaces/inkscape"
   width="343.97964"
   height="412.65308"
   id="svg6780"
   version="1.1"
   inkscape:version="0.48.3.1 r9886"
   sodipodi:docname="conejo5.svg"
   inkscape:export-filename="/home/vhzc/Docs/FOCA/public_html/animales/conejo5.png"
   inkscape:export-xdpi="90"
   inkscape:export-ydpi="90">
  <defs
     id="defs6782" />
  <sodipodi:namedview
     id="base"
     pagecolor="#ffffff"
     bordercolor="#666666"
     borderopacity="1.0"
     inkscape:pageopacity="0.0"
     inkscape:pageshadow="2"
     inkscape:zoom="0.35"
     inkscape:cx="249.74871"
     inkscape:cy="17.321288"
     inkscape:document-units="px"
     inkscape:current-layer="g6507"
     showgrid="false"
     fit-margin-top="0"
     fit-margin-left="0"
     fit-margin-right="0"
     fit-margin-bottom="0"
     inkscape:window-width="1264"
     inkscape:window-height="715"
     inkscape:window-x="0"
     inkscape:window-y="48"
     inkscape:window-maximized="1" />
  <metadata
     id="metadata6785">
    <rdf:RDF>
      <cc:Work
         rdf:about="">
        <dc:format>image/svg+xml</dc:format>
        <dc:type
           rdf:resource="http://purl.org/dc/dcmitype/StillImage" />
        <dc:title></dc:title>
      </cc:Work>
    </rdf:RDF>
  </metadata>
  <g
     inkscape:label="Capa 1"
     inkscape:groupmode="layer"
     id="layer1"
     transform="translate(-100.25129,-137.03039)">
    <g
       transform="matrix(2,0,0,2,-422.85714,-1158.0765)"
       id="g6507">
      <path
         transform="matrix(0.08006178,1.3511399,-0.83523109,0.04949162,686.73963,434.48941)"
         d="m 280.35715,506.91574 c 0,7.93909 -6.43591,14.375 -14.375,14.375 -7.9391,0 -14.375,-6.43591 -14.375,-14.375 0,-7.93909 6.4359,-14.375 14.375,-14.375 7.93909,0 14.375,6.43591 14.375,14.375 z"
         sodipodi:ry="14.375"
         sodipodi:rx="14.375"
         sodipodi:cy="506.91574"
         sodipodi:cx="265.98215"
         id="path4103-4-9"
         style="color:#000000;fill:#c8b7b7;fill-opacity:1;fill-rule:nonzero;stroke:#000000;stroke-width:0.93969172px;stroke-linecap:butt;stroke-linejoin:miter;stroke-miterlimit:4;stroke-opacity:1;stroke-dasharray:none;stroke-dashoffset:0;marker:none;visibility:visible;display:inline;overflow:visible;enable-background:accumulate"
         sodipodi:type="arc" />
      <path
         id="path4016-7"
         d="m 401.07961,767.06598 c -6.06512,-1.45574 -11.87006,3.82928 -12.97997,11.78421 -0.87596,6.2782 1.44669,12.34728 5.44004,15.34758 -0.11738,0.51409 -0.24141,1.03584 -0.31677,1.57596 -1.10991,7.95492 2.91957,15.56862 8.98469,17.02436 6.06511,1.45574 11.86577,-3.79854 12.97567,-11.75346 0.0462,-0.33131 0.0851,-0.65956 0.11377,-0.9893 4.67109,-0.80918 8.6319,-5.44584 9.52556,-11.85087 1.10991,-7.95493 -2.91528,-15.59936 -8.9804,-17.0551 -2.75583,-0.66146 -5.45337,0.0718 -7.68835,1.80808 -1.62641,-2.97561 -4.11156,-5.18036 -7.07428,-5.89147 z"
         style="color:#000000;fill:#c8b7b7;fill-opacity:1;fill-rule:nonzero;stroke:#000000;stroke-width:1px;stroke-linecap:butt;stroke-linejoin:miter;stroke-miterlimit:4;stroke-opacity:1;stroke-dasharray:none;stroke-dashoffset:0;marker:none;visibility:visible;display:inline;overflow:visible;enable-background:accumulate"
         inkscape:connector-curvature="0" />
      <path
         sodipodi:nodetypes="sscssscsscssssscssscsss"
         inkscape:connector-curvature="0"
         id="path4016-6-7"
         d="m 401.07961,767.06598 c -6.06512,-1.45574 -11.87006,3.82928 -12.97997,11.78421 -0.87596,6.2782 1.44669,12.34728 5.44004,15.34758 -0.11738,0.51409 -0.24141,1.03584 -0.31677,1.57596 -1.10991,7.95492 2.91957,15.56862 8.98469,17.02436 6.06511,1.45574 11.86577,-3.79854 12.97567,-11.75346 0.0462,-0.33131 0.0851,-0.65956 0.11377,-0.9893 4.67109,-0.80918 8.6319,-5.44584 9.52556,-11.85087 1.10991,-7.95493 -2.91528,-15.59936 -8.9804,-17.0551 -2.75583,-0.66146 -5.45337,0.0718 -7.68835,1.80808 -1.62641,-2.97561 -4.11156,-5.18036 -7.07428,-5.89147 z m 0.34145,1.89279 c 2.726,0.65429 5.01135,2.69995 6.50782,5.43781 2.0564,-1.59758 4.55162,-2.27503 7.08726,-1.66643 5.58052,1.33943 9.274,8.35389 8.25277,15.67323 -0.82225,5.89328 -2.95299,7.39882 -7.25085,8.14333 -0.027,0.30327 -0.47933,-6.338 -0.52186,-6.03317 -1.02123,7.31932 -7.44019,21.87745 -13.0207,20.53802 -5.5805,-1.33943 -7.62504,-10.52545 -6.60382,-17.84477 0.0693,-0.49696 -1.4807,1.18594 -1.37277,0.71291 -3.67428,-2.76057 -5.8145,-8.32376 -5.00852,-14.10033 1.02122,-7.31932 6.35016,-12.20003 11.93067,-10.8606 z"
         style="color:#000000;fill:#000000;fill-opacity:1;fill-rule:nonzero;stroke:none;stroke-width:1px;marker:none;visibility:visible;display:inline;overflow:visible;enable-background:accumulate" />
      <path
         transform="matrix(0.08006178,1.3511399,-0.83523109,0.04949162,686.73963,434.48941)"
         d="m 280.35715,506.91574 c 0,7.93909 -6.43591,14.375 -14.375,14.375 -7.9391,0 -14.375,-6.43591 -14.375,-14.375 0,-7.93909 6.4359,-14.375 14.375,-14.375 7.93909,0 14.375,6.43591 14.375,14.375 z"
         sodipodi:ry="14.375"
         sodipodi:rx="14.375"
         sodipodi:cy="506.91574"
         sodipodi:cx="265.98215"
         id="path4103-4-9-2"
         style="opacity:0.40598294;color:#000000;fill:#000000;fill-opacity:1;fill-rule:nonzero;stroke:#000000;stroke-width:0.93969172px;stroke-linecap:butt;stroke-linejoin:miter;stroke-miterlimit:4;stroke-opacity:1;stroke-dasharray:none;stroke-dashoffset:0;marker:none;visibility:visible;display:inline;overflow:visible;enable-background:accumulate"
         sodipodi:type="arc" />
      <path
         id="path4103-4-7-1"
         d="m 283.49107,799.52298 c -6.63098,0.39292 -11.47937,9.42942 -10.84375,20.15625 0.63562,10.72683 6.52527,19.08042 13.15625,18.6875 6.63098,-0.39292 11.47937,-9.39817 10.84375,-20.125 -0.63562,-10.72683 -6.52527,-19.11167 -13.15625,-18.71875 z m 0.1875,2.9375 c 5.63474,-0.33389 10.61613,6.79103 11.15625,15.90625 0.54012,9.11522 -3.58401,16.75986 -9.21875,17.09375 -5.63474,0.33389 -10.64738,-6.79103 -11.1875,-15.90625 -0.54012,-9.11522 3.61526,-16.75986 9.25,-17.09375 z"
         style="color:#000000;fill:#000000;fill-opacity:1;fill-rule:nonzero;stroke:#000000;stroke-width:1.06417871px;stroke-linecap:butt;stroke-linejoin:miter;stroke-miterlimit:4;stroke-opacity:1;stroke-dasharray:none;stroke-dashoffset:0;marker:none;visibility:visible;display:inline;overflow:visible;enable-background:accumulate"
         inkscape:connector-curvature="0" />
      <path
         id="path2985-1"
         d="m 333.67857,722.42924 c -28.98526,0.62359 -58.11889,29.45551 -64.03125,91.15624 2.68051,11.43948 23.50607,19.17426 47.625,22.25 1.47556,9.17741 6.84293,15.94748 12.8125,15.59375 5.33096,-0.31589 9.51866,-6.22327 10.625,-14.09375 12.77608,0.0119 25.18538,-1.28654 35.15625,-4.0625 0.0278,0.0962 0.0649,0.18498 0.0937,0.28125 3.08053,10.29462 10.72995,17.12304 17.09375,15.21875 6.3638,-1.90429 9.01803,-11.79913 5.9375,-22.09375 -0.67242,-2.2471 -1.57759,-4.32746 -2.625,-6.1875 1.52859,-2.86037 2.00101,-6.10254 1.125,-9.75 -2.28472,-57.66077 -32.95723,-88.97631 -63.8125,-88.31249 z"
         style="fill:#c8b7b7;stroke:#000000;stroke-width:1px;stroke-linecap:butt;stroke-linejoin:miter;stroke-opacity:1"
         inkscape:connector-curvature="0" />
      <path
         sodipodi:nodetypes="sccscccssccssscsccsccss"
         inkscape:connector-curvature="0"
         id="path4103-5"
         d="m 333.67857,722.42924 c -28.98526,0.62359 -58.11889,29.45551 -64.03125,91.15624 2.67355,11.40978 23.40076,19.12442 47.4375,22.21875 0.8321,10.40938 6.59894,18.44735 13.09375,18.0625 5.87556,-0.34816 10.34025,-7.45164 10.84375,-16.53125 12.6728,-0.008 24.95052,-1.3364 34.84375,-4.09375 0.0305,0.10596 0.062,0.20644 0.0937,0.3125 3.08053,10.29462 10.72995,17.12304 17.09375,15.21875 6.3638,-1.90429 9.01803,-11.79913 5.9375,-22.09375 -0.67242,-2.2471 -1.57759,-4.32746 -2.625,-6.1875 1.53276,-2.86275 2.00193,-6.09868 1.125,-9.75 -2.28472,-57.66077 -32.95723,-88.97631 -63.8125,-88.31249 z m 0,3.5625 c 28.94622,-0.62275 57.73164,28.75051 59.875,82.84374 0.64177,2.67218 0.51107,5.10449 -0.28125,7.3125 -3.4477,-3.86085 15.67097,22.77067 -0.13705,28.42625 -9.60507,3.43637 -19.40177,-24.0299 -18.17545,-15.48875 -9.42831,2.81504 -21.44595,4.16393 -33.96875,4.1875 -0.77671,-10.50108 -1.84766,19.14231 -11.6875,15.3125 -9.22559,-3.59074 -11.85201,-25.99771 -12.3125,-16.84375 -23.2467,-3.0365 -43.37769,-10.42773 -45.90625,-21.21875 5.54654,-57.88323 35.40184,-83.94623 62.59375,-84.53124 z"
         style="color:#000000;fill:#000000;fill-opacity:1;fill-rule:nonzero;stroke:none;stroke-width:1.06417871px;marker:none;visibility:visible;display:inline;overflow:visible;enable-background:accumulate" />
      <path
         transform="matrix(0.98386241,0.17892667,-0.17892667,0.98386241,101.65375,275.05828)"
         d="m 311.86642,470.26178 c 0,8.2289 -10.79366,14.89975 -24.1083,14.89975 -13.31465,0 -24.1083,-6.67085 -24.1083,-14.89975 0,-8.2289 10.79365,-14.89975 24.1083,-14.89975 13.31464,0 24.1083,6.67085 24.1083,14.89975 z"
         sodipodi:ry="14.89975"
         sodipodi:rx="24.108301"
         sodipodi:cy="470.26178"
         sodipodi:cx="287.75812"
         id="path3013-9"
         style="color:#000000;fill:#000000;fill-opacity:1;fill-rule:evenodd;stroke:none;stroke-width:3;marker:none;visibility:visible;display:inline;overflow:visible;enable-background:accumulate"
         sodipodi:type="arc" />
      <path
         id="path3787-77"
         d="m 327.64732,750.27298 c -2.10817,0.0678 -5.57698,5.44518 -8,12.5625 -2.58455,7.59181 -3.01524,14.30329 -0.96875,15 2.04649,0.69671 5.79045,-4.87694 8.375,-12.46875 0.19405,-0.56998 0.36157,-1.12953 0.53125,-1.6875 -3.07712,-0.84304 -5.21706,-2.37086 -5,-3.75 0.22808,-1.44917 2.95493,-2.25173 6.375,-2 0.67214,-4.11846 0.42207,-7.14154 -0.90625,-7.59375 -0.12791,-0.0435 -0.26571,-0.067 -0.40625,-0.0625 z"
         style="color:#000000;fill:#000000;fill-opacity:1;fill-rule:evenodd;stroke:none;stroke-width:3;marker:none;visibility:visible;display:inline;overflow:visible;enable-background:accumulate"
         inkscape:connector-curvature="0" />
      <path
         id="path3787-7-6"
         d="m 303.89732,745.42924 c -1.79025,0.2878 -4.14777,5.22918 -5.4375,11.56249 -1.37571,6.75553 -1.00856,12.53541 0.8125,12.90625 1.82106,0.37084 4.40554,-4.80697 5.78125,-11.5625 0.0689,-0.33849 0.12725,-0.66698 0.1875,-1 -2.58748,-0.87376 -4.28925,-2.22661 -4.09375,-3.46875 0.18912,-1.2016 2.12232,-1.94955 4.71875,-2.03125 0.13114,-3.61262 -0.40608,-6.16438 -1.59375,-6.40624 -0.11382,-0.0232 -0.25565,-0.0192 -0.375,0 z"
         style="color:#000000;fill:#000000;fill-opacity:1;fill-rule:evenodd;stroke:none;stroke-width:3;marker:none;visibility:visible;display:inline;overflow:visible;enable-background:accumulate"
         inkscape:connector-curvature="0" />
      <path
         transform="matrix(0.9816734,0.19057107,-0.19057107,0.9816734,113.78264,278.68001)"
         d="m 294.77783,458.88004 c 0,2.61349 -3.42805,4.73214 -7.65677,4.73214 -4.22871,0 -7.65676,-2.11865 -7.65676,-4.73214 0,-2.61349 3.42805,-4.73215 7.65676,-4.73215 4.22872,0 7.65677,2.11866 7.65677,4.73215 z"
         sodipodi:ry="4.7321429"
         sodipodi:rx="7.6567678"
         sodipodi:cy="458.88004"
         sodipodi:cx="287.12106"
         id="path3987-7"
         style="color:#000000;fill:#ffffff;fill-opacity:1;fill-rule:nonzero;stroke:none;stroke-width:1px;marker:none;visibility:visible;display:inline;overflow:visible;enable-background:accumulate"
         sodipodi:type="arc" />
      <path
         sodipodi:nodetypes="ccccc"
         inkscape:connector-curvature="0"
         id="path4250-3"
         d="m 279.2468,801.22066 c 3.82805,6.61859 14.07394,0.78427 17.7408,-0.94701 2.71983,3.44017 10.55621,16.7733 19.12976,10.41719 -6.31252,6.6067 -17.54265,-3.78013 -20.45558,-6.69226 -3.56576,1.43527 -14.45288,3.1478 -16.41498,-2.77792 z"
         style="fill:#000000;stroke:none" />
      <path
         sodipodi:nodetypes="sssss"
         inkscape:connector-curvature="0"
         id="path3897-5"
         d="m 398.83273,698.74926 c -20.34798,15.36913 -35.05033,30.56154 -40.1234,25.98224 -5.07307,-4.57929 7.44363,-31.71765 24.53011,-50.64653 17.08646,-18.92888 42.879,-29.55138 47.95206,-24.97209 5.07308,4.5793 1.39521,24.14151 -32.35877,49.63638 z"
         style="color:#000000;fill:#c8b7b7;fill-opacity:1;fill-rule:nonzero;stroke:#000000;stroke-width:1px;stroke-linecap:butt;stroke-linejoin:miter;stroke-miterlimit:4;stroke-opacity:1;stroke-dasharray:none;stroke-dashoffset:0;marker:none;visibility:visible;display:inline;overflow:visible;enable-background:accumulate" />
      <path
         id="path3897-8-6"
         d="m 427.41964,648.05423 c -9.13739,0.002 -29.7708,10.06001 -44.1875,26.03125 -17.08647,18.92888 -29.60432,46.07696 -24.53125,50.65625 5.07307,4.5793 19.77702,-10.63087 40.125,-26 33.75398,-25.49487 37.44808,-45.0457 32.375,-49.625 -0.79267,-0.71551 -2.08914,-1.06296 -3.78125,-1.0625 z m -3.28125,3.9375 c 1.51968,-4.1e-4 2.69436,0.32615 3.40625,0.96875 4.55612,4.11266 1.25192,21.66563 -29.0625,44.5625 -18.27446,13.80301 -31.47514,27.45641 -36.03125,23.34375 -4.55614,-4.11265 6.68594,-28.50003 22.03125,-45.5 12.94761,-14.34375 31.44998,-23.37278 39.65625,-23.375 z"
         style="color:#000000;fill:#000000;fill-opacity:1;fill-rule:evenodd;stroke:none;stroke-width:3;marker:none;visibility:visible;display:inline;overflow:visible;enable-background:accumulate"
         inkscape:connector-curvature="0" />
      <path
         sodipodi:nodetypes="sssss"
         inkscape:connector-curvature="0"
         id="path3897-1-94"
         d="m 287.17209,685.20155 c 16.51244,19.43167 27.55324,37.46134 33.50184,34.09678 5.94859,-3.36455 0.35688,-31.506 -12.19708,-53.70168 -12.55395,-22.19567 -37.19972,37.89106 -43.14831,41.25561 -5.9486,3.36455 -5.54789,-53.88467 21.84355,-21.65071 z"
         style="color:#000000;fill:#ffffff;fill-opacity:1;fill-rule:nonzero;stroke:#000000;stroke-width:1px;stroke-linecap:butt;stroke-linejoin:miter;stroke-miterlimit:4;stroke-opacity:1;stroke-dashoffset:0;marker:none;visibility:visible;display:inline;overflow:visible;enable-background:accumulate" />
      <path
         id="path3897-1-9-8"
         d="m 301.83928,660.67477 c -4.3048,0.0342 -9.20171,4.71385 -13.96875,11.0625 7.01582,-8.01459 14.1919,-12.36134 19.0625,-3.75 11.33548,20.04135 16.40248,45.462 11.03125,48.5 -5.37122,3.03798 -15.34028,-13.26687 -30.25,-30.8125 -1.04342,-1.22788 -2.06802,-2.28577 -3.03125,-3.25 0.8039,0.83712 1.64402,1.77394 2.5,2.78125 16.51244,19.43167 27.5514,37.45831 33.5,34.09375 5.94859,-3.36455 0.33521,-31.49182 -12.21875,-53.6875 -1.96155,-3.46807 -4.19048,-4.95686 -6.625,-4.9375 z m -28.96875,14.65625 c -12.94587,-0.20894 -12.17859,34.1598 -7.53125,31.53125 2.70849,-1.53193 9.28919,-14.82064 16.84375,-26.75 -0.17124,-0.14258 -0.33158,-0.27231 -0.5,-0.40625 -6.88839,9.62491 -12.84788,20.15904 -15.21875,21.5 -4.89762,2.77013 -3.76875,-36.60002 15.21875,-21.5 0.017,-0.0238 0.0455,-0.0387 0.0625,-0.0625 -3.49555,-2.99608 -6.42701,-4.27299 -8.875,-4.3125 z"
         style="color:#000000;fill:#000000;fill-opacity:1;fill-rule:nonzero;stroke:#000000;stroke-width:1px;stroke-linecap:butt;stroke-linejoin:miter;stroke-miterlimit:4;stroke-opacity:1;stroke-dasharray:none;stroke-dashoffset:0;marker:none;visibility:visible;display:inline;overflow:visible;enable-background:accumulate"
         inkscape:connector-curvature="0" />
      <path
         sodipodi:nodetypes="sssss"
         inkscape:connector-curvature="0"
         id="path3897-1-2-1"
         d="m 287.70381,685.68641 c 14.90972,17.54563 24.87889,33.82531 30.25011,30.78733 5.37123,-3.038 0.32226,-28.44801 -11.01322,-48.48936 -11.33544,-20.04134 -35.1043,30.17272 -40.47554,33.21069 -5.37122,3.038 -3.49416,-44.61398 21.23865,-15.50866 z"
         style="color:#000000;fill:#c8b7b7;fill-opacity:1;fill-rule:nonzero;stroke:#000000;stroke-width:1px;stroke-linecap:butt;stroke-linejoin:miter;stroke-miterlimit:4;stroke-opacity:1;stroke-dasharray:none;stroke-dashoffset:0;marker:none;visibility:visible;display:inline;overflow:visible;enable-background:accumulate" />
      <path
         sodipodi:nodetypes="cccc"
         inkscape:connector-curvature="0"
         id="path4320-2"
         d="m 268.03571,675.20659 c 9.6596,-12.88409 24.12083,-14.72228 35.80094,-14.59953 -17.66437,2.92659 -27.79387,34.92388 -39.37237,46.38525 -3.081,-7.39507 -4.42119,-19.52292 3.57143,-31.78572 z"
         style="color:#000000;fill:#c8b7b7;fill-opacity:1;fill-rule:nonzero;stroke:#000000;stroke-width:1px;stroke-linecap:butt;stroke-linejoin:miter;stroke-miterlimit:4;stroke-opacity:1;stroke-dasharray:none;stroke-dashoffset:0;marker:none;visibility:visible;display:inline;overflow:visible;enable-background:accumulate" />
      <path
         sodipodi:nodetypes="ccccccccc"
         inkscape:connector-curvature="0"
         id="path4320-6-9"
         d="m 301.26339,661.32655 c -11.24825,0.14799 -24.53788,2.51492 -33.59375,14.59375 -7.99262,12.2628 -6.6435,24.38618 -3.5625,31.78125 4.58544,-10.93963 23.08,-42.13921 34.30804,-45.49554 -9.00709,7.2653 -29.63881,40.75738 -34.37054,44.24554 -2.82096,-6.77089 -1.00551,-20.36599 6.3125,-31.59375 8.73374,-11.64915 21.75264,-13.44038 32.375,-13.375 0.25151,-0.0541 0.49539,-0.11407 0.75,-0.15625 -0.73001,-0.008 -1.46887,-0.01 -2.21875,0 z"
         style="fill:#000000;stroke:none" />
      <path
         sodipodi:nodetypes="cccccccc"
         inkscape:connector-curvature="0"
         id="path6301"
         d="m 394.21203,791.99536 c 5.91507,20.48198 13.2367,5.80001 20.45559,-6.31345 4.13246,13.49185 6.44831,1.55135 9.34391,-2.27284 1.94788,8.82057 -2.25474,12.51573 -8.33376,14.64721 -0.0459,7.05291 -6.16477,10.31019 -11.36421,14.14213 l -9.34391,-6.56599 0.25253,-14.89975 z"
         style="opacity:0.40598294;fill:#000000;stroke:#000000;stroke-width:1px;stroke-linecap:butt;stroke-linejoin:miter;stroke-opacity:1" />
      <path
         id="path6329"
         d="m 378.5625,750.9375 c 20.93078,96.21671 -73.41563,82.466 -102.84375,67.125 l 2.96875,6.25 c 8.82964,5.61179 23.02408,9.54575 38.59375,11.53125 1.47556,9.17741 6.84293,15.94748 12.8125,15.59375 5.33096,-0.31589 9.51866,-6.22327 10.625,-14.09375 12.77608,0.0119 25.18538,-1.28654 35.15625,-4.0625 0.0278,0.0962 0.065,0.18498 0.0937,0.28125 3.08053,10.29462 10.72995,17.12304 17.09375,15.21875 6.3638,-1.90429 9.01803,-11.79913 5.9375,-22.09375 -0.67242,-2.2471 -1.57759,-4.32746 -2.625,-6.1875 1.52859,-2.86037 2.00101,-6.10254 1.125,-9.75 -0.81543,-20.57958 -5.26587,-37.7947 -12.03125,-51.40625 -2.13756,-2.60598 -6.90625,-8.40625 -6.90625,-8.40625 z"
         style="opacity:0.40598294;color:#000000;fill:#000000;fill-opacity:1;fill-rule:nonzero;stroke:#000000;stroke-width:1px;stroke-linecap:butt;stroke-linejoin:miter;stroke-miterlimit:4;stroke-opacity:1;stroke-dasharray:none;stroke-dashoffset:0;marker:none;visibility:visible;display:inline;overflow:visible;enable-background:accumulate"
         inkscape:connector-curvature="0" />
      <path
         sodipodi:nodetypes="cccccc"
         inkscape:connector-curvature="0"
         id="path6367"
         d="m 302.03561,663.95853 c -5.56323,16.92966 -5.10391,26.03002 -4.04061,34.34519 l -14.89975,-19.1929 9.34391,-12.87945 8.5863,-3.53553 z"
         style="opacity:0.40598294;color:#000000;fill:#000000;fill-opacity:1;fill-rule:nonzero;stroke:#000000;stroke-width:1px;stroke-linecap:butt;stroke-linejoin:miter;stroke-miterlimit:4;stroke-opacity:1;stroke-dasharray:none;stroke-dashoffset:0;marker:none;visibility:visible;display:inline;overflow:visible;enable-background:accumulate" />
    </g>
  </g>
</svg>
