<?xml version="1.0" encoding="UTF-8" standalone="no"?>
<!-- Created with Inkscape (http://www.inkscape.org/) -->

<svg
   xmlns:dc="http://purl.org/dc/elements/1.1/"
   xmlns:cc="http://creativecommons.org/ns#"
   xmlns:rdf="http://www.w3.org/1999/02/22-rdf-syntax-ns#"
   xmlns:svg="http://www.w3.org/2000/svg"
   xmlns="http://www.w3.org/2000/svg"
   xmlns:sodipodi="http://sodipodi.sourceforge.net/DTD/sodipodi-0.dtd"
   xmlns:inkscape="http://www.inkscape.org/namespaces/inkscape"
   width="494.61365"
   height="386.47214"
   id="svg3387"
   version="1.1"
   inkscape:version="0.48.3.1 r9886"
   sodipodi:docname="dinosaurio_3.svg"
   inkscape:export-filename="/home/vhzc/Imagenes/svgs/dino.png"
   inkscape:export-xdpi="90"
   inkscape:export-ydpi="90">
  <defs
     id="defs3389" />
  <sodipodi:namedview
     id="base"
     pagecolor="#ffffff"
     bordercolor="#666666"
     borderopacity="1.0"
     inkscape:pageopacity="0.0"
     inkscape:pageshadow="2"
     inkscape:zoom="0.35"
     inkscape:cx="97.853658"
     inkscape:cy="542.77213"
     inkscape:document-units="px"
     inkscape:current-layer="g5322"
     showgrid="false"
     fit-margin-top="0"
     fit-margin-left="0"
     fit-margin-right="0"
     fit-margin-bottom="0"
     inkscape:window-width="1264"
     inkscape:window-height="715"
     inkscape:window-x="0"
     inkscape:window-y="48"
     inkscape:window-maximized="1" />
  <metadata
     id="metadata3392">
    <rdf:RDF>
      <cc:Work
         rdf:about="">
        <dc:format>image/svg+xml</dc:format>
        <dc:type
           rdf:resource="http://purl.org/dc/dcmitype/StillImage" />
        <dc:title></dc:title>
      </cc:Work>
    </rdf:RDF>
  </metadata>
  <g
     inkscape:label="Capa 1"
     inkscape:groupmode="layer"
     id="layer1"
     transform="translate(-227.26291,-689.94611)">
    <g
       id="g5322">
      <path
         sodipodi:nodetypes="cccc"
         inkscape:connector-curvature="0"
         id="path4369-9-6-3"
         d="m 450.75008,944.97735 c -20.18827,21.00615 -41.78902,38.31699 -50.31272,89.83975 18.57964,14.6395 39.61841,26.3337 73.88922,22.1791 1.76419,-29.1576 -2.0695,-56.1503 18.02671,-83.40433"
         style="color:#000000;fill:#8dd35f;fill-opacity:1;fill-rule:nonzero;stroke:#000000;stroke-width:2.0999999;stroke-linecap:butt;stroke-linejoin:miter;stroke-miterlimit:4;stroke-opacity:1;stroke-dasharray:none;stroke-dashoffset:0;marker:none;visibility:visible;display:inline;overflow:visible;enable-background:accumulate" />
      <path
         sodipodi:nodetypes="cccc"
         inkscape:connector-curvature="0"
         id="path4369-8-5"
         d="m 333.57984,928.61986 c -28.54623,5.82552 -56.15656,7.80729 -92.43174,45.37536 6.9793,22.60109 17.65541,44.17428 48.22321,60.21668 18.01047,-22.9979 32.65108,-48.87723 64.66964,-59.89767"
         style="color:#000000;fill:#8dd35f;fill-opacity:1;fill-rule:nonzero;stroke:#000000;stroke-width:2.0999999;stroke-linecap:butt;stroke-linejoin:miter;stroke-miterlimit:4;stroke-opacity:1;stroke-dasharray:none;stroke-dashoffset:0;marker:none;visibility:visible;display:inline;overflow:visible;enable-background:accumulate" />
      <path
         sodipodi:nodetypes="ccccccccc"
         inkscape:connector-curvature="0"
         id="path5131"
         d="m 300.35714,936.11218 -2.32143,0.89286 14.64286,44.10714 -4.64286,-9.46428 1.42858,9.82143 c -20.1346,18.39552 -36.22296,20.60607 -52.67858,24.28567 5.95565,9.7619 19.08011,19.5239 32.5,29.2858 11.62878,-17.5956 22.47641,-35.32142 45.17858,-51.07147 z"
         style="opacity:0.27896998;color:#000000;fill:#000000;fill-opacity:1;fill-rule:nonzero;stroke:#000000;stroke-width:2.0999999;stroke-linecap:butt;stroke-linejoin:miter;stroke-miterlimit:4;stroke-opacity:1;stroke-dasharray:none;stroke-dashoffset:0;marker:none;visibility:visible;display:inline;overflow:visible;enable-background:accumulate" />
      <path
         sodipodi:nodetypes="cccc"
         inkscape:connector-curvature="0"
         id="path4369-9-6-3-8"
         d="m 450.75008,944.97735 c -20.18827,21.00615 -41.78902,38.31699 -50.31272,89.83975 18.57964,14.6395 39.61841,26.3337 73.88922,22.1791 1.76419,-29.1576 -2.0695,-56.1503 18.02671,-83.40433"
         style="opacity:0.39055792;color:#000000;fill:#000000;fill-opacity:1;fill-rule:nonzero;stroke:#000000;stroke-width:2.0999999;stroke-linecap:butt;stroke-linejoin:miter;stroke-miterlimit:4;stroke-opacity:1;stroke-dasharray:none;stroke-dashoffset:0;marker:none;visibility:visible;display:inline;overflow:visible;enable-background:accumulate" />
      <path
         sodipodi:nodetypes="ssccsccccccs"
         inkscape:connector-curvature="0"
         id="path4317-3"
         d="m 292.74929,691.55406 c -47.45438,-6.4678 -64.43638,44.95566 -64.43638,68.35661 0,21.99492 47.13178,32.2628 86.29489,29.2043 -51.88628,143.37831 -0.0651,225.46063 123.8125,224.31253 62.76283,0 113.625,-36.40223 113.625,-81.31253 0,-1.871 -0.083,-3.70693 -0.25,-5.53125 20.88764,-78.61282 97.46495,-75.05651 169.03125,-37.15625 -43.95514,-72.66911 -131.60818,-81.86255 -220.30631,-23.35549 -33.42771,-24.2399 -96.19499,-38.67025 -142.53744,8.57424 -10.09228,-28.33861 -8.59212,-61.34799 13.75,-100.125 19.48236,-40.20666 -14.49432,-75.54191 -44.4375,-76.24999 -3.27438,2.21676 -28.59684,-5.90633 -34.54601,-6.71717 z"
         style="fill:#8dd35f;stroke:#000000;stroke-width:2.0999999;stroke-linecap:butt;stroke-linejoin:miter;stroke-miterlimit:4;stroke-opacity:1;stroke-dasharray:none" />
      <path
         sodipodi:nodetypes="cccc"
         inkscape:connector-curvature="0"
         id="path4475-8"
         d="m 306.60334,748.1602 c 9.42902,6.86868 11.41206,3.24061 24.70304,-8.47471 -12.49204,13.2322 -15.30388,16.39511 -23.54233,9.63542 z"
         style="color:#000000;fill:#000000;fill-opacity:1;fill-rule:nonzero;stroke:none;stroke-width:2.0999999;marker:none;visibility:visible;display:inline;overflow:visible;enable-background:accumulate" />
      <path
         transform="matrix(0.99020385,0.13962926,-0.13962926,0.99020385,67.452816,295.17488)"
         d="m 322.85714,392.43127 c 0,14.04253 -7.03553,25.42625 -15.71429,25.42625 -8.67876,0 -15.71428,-11.38372 -15.71428,-25.42625 0,-14.04252 7.03552,-25.42624 15.71428,-25.42624 8.67876,0 15.71429,11.38372 15.71429,25.42624 z"
         sodipodi:ry="25.426249"
         sodipodi:rx="15.714286"
         sodipodi:cy="392.43127"
         sodipodi:cx="307.14285"
         id="path4325-9"
         style="color:#000000;fill:#ffffff;fill-opacity:1;fill-rule:nonzero;stroke:#000000;stroke-width:2.0999999;stroke-linecap:butt;stroke-linejoin:miter;stroke-miterlimit:4;stroke-opacity:1;stroke-dasharray:none;stroke-dashoffset:0;marker:none;visibility:visible;display:inline;overflow:visible;enable-background:accumulate"
         sodipodi:type="arc" />
      <path
         sodipodi:nodetypes="ccccc"
         inkscape:connector-curvature="0"
         id="path4486-6"
         d="m 331.7708,713.80614 c -4.14838,-9.93505 -7.83695,-16.10399 -26.45337,-9.09137 l 0.75762,-2.96733 c 22.75664,-4.99545 24.61803,6.25717 26.20083,15.27856 z"
         style="color:#000000;fill:#000000;fill-opacity:1;fill-rule:nonzero;stroke:none;stroke-width:2.0999999;marker:none;visibility:visible;display:inline;overflow:visible;enable-background:accumulate" />
      <path
         inkscape:connector-curvature="0"
         id="path4327-9"
         d="m 320.26405,723.11498 c -3.30079,0.21574 -6.54076,5.30992 -7.4375,11.90625 -0.95652,7.03608 1.10696,13.11549 4.625,13.59375 2.5364,0.34481 5.14184,-2.31667 6.75,-6.46875 -0.49335,0.30788 -1.03331,0.46875 -1.59375,0.46875 -2.44078,0 -4.40625,-3.17574 -4.40625,-7.125 0,-3.94926 1.96547,-7.15625 4.40625,-7.15625 1.12886,0 2.15638,0.68561 2.9375,1.8125 -0.60254,-3.88671 -2.2943,-6.68315 -4.625,-7 -0.21988,-0.0299 -0.4362,-0.0456 -0.65625,-0.0313 z"
         style="color:#000000;fill:#000000;fill-opacity:1;fill-rule:nonzero;stroke:none;stroke-width:2.0999999;marker:none;visibility:visible;display:inline;overflow:visible;enable-background:accumulate" />
      <path
         sodipodi:nodetypes="cccc"
         inkscape:connector-curvature="0"
         id="path4334-2"
         d="m 314.20856,788.0217 c 19.7228,-2.68738 40.25756,-11.81558 35.0505,-27.36975 7.16918,15.05415 -9.23942,24.39031 -34.65637,29.19617 z"
         style="fill:#000000;stroke:none" />
      <path
         sodipodi:nodetypes="ccc"
         inkscape:connector-curvature="0"
         id="path4336-2"
         d="m 341.55665,762.41972 c 8.64287,-5.50037 11.18769,-2.13087 12.50064,3.03046 -2.10837,-4.09792 -5.69349,-5.98071 -12.50064,-3.03046 z"
         style="color:#000000;fill:#000000;fill-opacity:1;fill-rule:nonzero;stroke:none;stroke-width:2.0999999;marker:none;visibility:visible;display:inline;overflow:visible;enable-background:accumulate" />
      <path
         sodipodi:nodetypes="ccc"
         inkscape:connector-curvature="0"
         id="path4361-4"
         d="m 262.22834,735.39234 c 13.97245,-15.79704 15.46658,-5.80553 15.35714,7.5 -3.07084,-17.52016 -9.58941,-9.75702 -15.35714,-7.5 z"
         style="color:#000000;fill:#000000;fill-opacity:1;fill-rule:nonzero;stroke:none;stroke-width:2.0999999;marker:none;visibility:visible;display:inline;overflow:visible;enable-background:accumulate" />
      <path
         sodipodi:nodetypes="cccc"
         inkscape:connector-curvature="0"
         id="path4369-2"
         d="m 346.51405,966.46376 c -13.05621,26.04534 -28.55656,48.97994 -21.42857,100.71424 22.08347,8.4759 45.64273,13.4099 77.14286,-0.7143 -6.95596,-28.3706 -18.25959,-55.8718 -7.14286,-87.85708"
         style="color:#000000;fill:#8dd35f;fill-opacity:1;fill-rule:nonzero;stroke:#000000;stroke-width:2.0999999;stroke-linecap:butt;stroke-linejoin:miter;stroke-miterlimit:4;stroke-opacity:1;stroke-dasharray:none;stroke-dashoffset:0;marker:none;visibility:visible;display:inline;overflow:visible;enable-background:accumulate" />
      <path
         sodipodi:nodetypes="cccc"
         inkscape:connector-curvature="0"
         id="path4369-9-5"
         d="m 479.55571,966.29723 c -13.05621,26.04534 -28.55656,48.97997 -21.42857,100.71427 22.08347,8.4759 45.64273,13.4098 77.14286,-0.7143 -6.95596,-28.3707 -18.61673,-53.0147 -7.5,-84.99997"
         style="color:#000000;fill:#8dd35f;fill-opacity:1;fill-rule:nonzero;stroke:#000000;stroke-width:2.0999999;stroke-linecap:butt;stroke-linejoin:miter;stroke-miterlimit:4;stroke-opacity:1;stroke-dasharray:none;stroke-dashoffset:0;marker:none;visibility:visible;display:inline;overflow:visible;enable-background:accumulate" />
      <path
         sodipodi:nodetypes="cccccc"
         inkscape:connector-curvature="0"
         id="path4407-1"
         d="m 393.83205,981.37029 2.77791,-8.83884 -0.75761,4.79823 5.17704,10.85913 -5.80838,-8.9651 z"
         style="color:#000000;fill:#000000;fill-opacity:1;fill-rule:nonzero;stroke:none;stroke-width:2.0999999;marker:none;visibility:visible;display:inline;overflow:visible;enable-background:accumulate" />
      <path
         sodipodi:nodetypes="ccccssscssscccc"
         inkscape:connector-curvature="0"
         id="path4325-8-9"
         d="m 320.7953,701.55248 c 0.2418,0.0546 0.48309,0.11384 0.71875,0.1875 -0.23954,-0.0641 -0.47361,-0.14135 -0.71875,-0.1875 z m 0.71875,0.1875 c 7.06984,2.20984 12.32242,17.31604 10.63515,27.43163 -2.56882,15.40068 -9.87262,21.89644 -17.87754,21.97637 -10.36952,0.10353 -15.18396,-14.9294 -11.82011,-28.533 1.9433,-7.85884 4.62485,-14.73994 9.03125,-18.375 -4.97751,3.85185 -8.98807,11.26959 -10.25,20.21875 -1.96075,13.90497 3.40626,26.16319 12,27.375 8.59374,1.21181 17.16425,-9.09503 19.125,-23 1.86966,-13.25897 -2.94273,-24.97919 -10.84375,-27.09375 z m -10.03125,2.5 c 0.42914,-0.35402 0.86766,-0.67477 1.3125,-0.96875 -0.45324,0.28234 -0.87337,0.62893 -1.3125,0.96875 z"
         style="color:#000000;fill:#000000;fill-opacity:1;fill-rule:nonzero;stroke:none;stroke-width:2.0999999;marker:none;visibility:visible;display:inline;overflow:visible;enable-background:accumulate" />
      <path
         sodipodi:nodetypes="ccc"
         inkscape:connector-curvature="0"
         id="path4494-2"
         d="m 325.62119,1067.6245 c -1.0794,-43.0014 14.49536,-9.142 11.33929,3.3928 -2.03099,-25.5494 -11.90681,-33.1031 -11.33929,-3.3928 z"
         style="color:#000000;fill:#000000;fill-opacity:1;fill-rule:nonzero;stroke:none;stroke-width:2.0999999;marker:none;visibility:visible;display:inline;overflow:visible;enable-background:accumulate" />
      <path
         sodipodi:nodetypes="ccc"
         inkscape:connector-curvature="0"
         id="path4494-0-2"
         d="m 338.33834,1071.5881 c -1.0794,-43.0013 14.49536,-9.142 11.33929,3.3929 -2.03099,-25.5494 -11.90681,-33.1031 -11.33929,-3.3929 z"
         style="color:#000000;fill:#000000;fill-opacity:1;fill-rule:nonzero;stroke:none;stroke-width:2.0999999;marker:none;visibility:visible;display:inline;overflow:visible;enable-background:accumulate" />
      <path
         sodipodi:nodetypes="ccc"
         inkscape:connector-curvature="0"
         id="path4494-07-6"
         d="m 458.58691,1066.9277 c -1.0794,-43.0013 14.49536,-9.142 11.33929,3.3929 -2.03099,-25.5494 -11.90681,-33.1031 -11.33929,-3.3929 z"
         style="color:#000000;fill:#000000;fill-opacity:1;fill-rule:nonzero;stroke:none;stroke-width:2.0999999;marker:none;visibility:visible;display:inline;overflow:visible;enable-background:accumulate" />
      <path
         sodipodi:nodetypes="ccc"
         inkscape:connector-curvature="0"
         id="path4494-0-0-1"
         d="m 471.30406,1070.8914 c -1.0794,-43.0013 14.49536,-9.142 11.33929,3.3929 -2.03099,-25.5494 -11.90681,-33.1032 -11.33929,-3.3929 z"
         style="color:#000000;fill:#000000;fill-opacity:1;fill-rule:nonzero;stroke:none;stroke-width:2.0999999;marker:none;visibility:visible;display:inline;overflow:visible;enable-background:accumulate" />
      <path
         sodipodi:nodetypes="cccc"
         inkscape:connector-curvature="0"
         id="path4702-0"
         d="m 333.6569,984.85662 c -15.3154,-11.84528 -25.87261,-26.85715 -33.21428,-43.39286 8.79004,16.11797 20.45055,30.54369 35.71428,42.5 z"
         style="color:#000000;fill:#000000;fill-opacity:1;fill-rule:nonzero;stroke:none;stroke-width:2.0999999;marker:none;visibility:visible;display:inline;overflow:visible;enable-background:accumulate" />
      <path
         sodipodi:nodetypes="ccccccc"
         inkscape:connector-curvature="0"
         id="path5295"
         d="m 395.71429,979.1479 c 3.21648,5.65367 5.09502,11.9763 10,16.78571 l -10.35715,-1.42857 c 7.99809,21.56876 60.42205,15.90636 68.92858,3.92857 l -3.92858,12.85719 c -23.89667,2.4595 -47.04817,1.1932 -70,-1.0715 -2.4153,-13.15781 2.44546,-21.46492 5.35715,-31.0714 z"
         style="opacity:0.12875534;color:#000000;fill:#000000;fill-opacity:1;fill-rule:nonzero;stroke:#000000;stroke-width:2.0999999;stroke-linecap:butt;stroke-linejoin:miter;stroke-miterlimit:4;stroke-opacity:1;stroke-dasharray:none;stroke-dashoffset:0;marker:none;visibility:visible;display:inline;overflow:visible;enable-background:accumulate" />
    </g>
  </g>
</svg>
