<?xml version="1.0" encoding="UTF-8" standalone="no"?>
<!-- Created with Inkscape (http://www.inkscape.org/) -->

<svg
   xmlns:dc="http://purl.org/dc/elements/1.1/"
   xmlns:cc="http://creativecommons.org/ns#"
   xmlns:rdf="http://www.w3.org/1999/02/22-rdf-syntax-ns#"
   xmlns:svg="http://www.w3.org/2000/svg"
   xmlns="http://www.w3.org/2000/svg"
   xmlns:xlink="http://www.w3.org/1999/xlink"
   xmlns:sodipodi="http://sodipodi.sourceforge.net/DTD/sodipodi-0.dtd"
   xmlns:inkscape="http://www.inkscape.org/namespaces/inkscape"
   width="594.9375"
   height="435.95889"
   id="svg2160"
   sodipodi:version="0.32"
   inkscape:version="0.48.3.1 r9886"
   sodipodi:docname="foca.svg"
   inkscape:output_extension="org.inkscape.output.svg.inkscape"
   sodipodi:modified="true"
   version="1.1">
  <defs
     id="defs2162">
    <linearGradient
       inkscape:collect="always"
       id="linearGradient3511">
      <stop
         style="stop-color:#ffffff;stop-opacity:1;"
         offset="0"
         id="stop3513" />
      <stop
         style="stop-color:#ffffff;stop-opacity:0;"
         offset="1"
         id="stop3515" />
    </linearGradient>
    <linearGradient
       inkscape:collect="always"
       id="linearGradient3501">
      <stop
         style="stop-color:#ffffff;stop-opacity:1;"
         offset="0"
         id="stop3503" />
      <stop
         style="stop-color:#ffffff;stop-opacity:0;"
         offset="1"
         id="stop3505" />
    </linearGradient>
    <linearGradient
       inkscape:collect="always"
       xlink:href="#linearGradient3501"
       id="linearGradient3507"
       x1="444.00897"
       y1="126.63562"
       x2="270.72159"
       y2="335.49789"
       gradientUnits="userSpaceOnUse" />
    <linearGradient
       inkscape:collect="always"
       xlink:href="#linearGradient3511"
       id="linearGradient3517"
       x1="374.11078"
       y1="160.52139"
       x2="318.5838"
       y2="286.0304"
       gradientUnits="userSpaceOnUse"
       gradientTransform="matrix(1.3404798,0,0,1.3163998,-121.68509,-108.40831)" />
    <linearGradient
       inkscape:collect="always"
       xlink:href="#linearGradient3511"
       id="linearGradient3043"
       gradientUnits="userSpaceOnUse"
       gradientTransform="matrix(1.3404798,0,0,1.3163998,-121.68509,-108.40831)"
       x1="374.11078"
       y1="160.52139"
       x2="318.5838"
       y2="286.0304" />
  </defs>
  <sodipodi:namedview
     id="base"
     pagecolor="#ffffff"
     bordercolor="#666666"
     borderopacity="1.0"
     inkscape:pageopacity="0.0"
     inkscape:pageshadow="2"
     inkscape:zoom="0.521875"
     inkscape:cx="262.34664"
     inkscape:cy="230.30351"
     inkscape:current-layer="layer1"
     inkscape:document-units="px"
     showgrid="true"
     showguides="true"
     inkscape:guide-bbox="true"
     inkscape:window-width="1022"
     inkscape:window-height="703"
     inkscape:window-x="0"
     inkscape:window-y="48"
     fit-margin-top="0"
     fit-margin-left="0"
     fit-margin-right="0"
     fit-margin-bottom="0"
     inkscape:window-maximized="0">
    <sodipodi:guide
       orientation="horizontal"
       position="-44.28125,216.83938"
       id="guide3145" />
  </sodipodi:namedview>
  <metadata
     id="metadata2165">
    <rdf:RDF>
      <cc:Work
         rdf:about="">
        <dc:format>image/svg+xml</dc:format>
        <dc:type
           rdf:resource="http://purl.org/dc/dcmitype/StillImage" />
        <dc:title></dc:title>
      </cc:Work>
    </rdf:RDF>
  </metadata>
  <g
     id="layer1"
     inkscape:label="Layer 1"
     inkscape:groupmode="layer"
     transform="translate(-44.28125,-23.766844)">
    <g
       id="g3016">
      <g
         transform="matrix(0.8665469,0.3854717,-0.3984532,0.8383151,144.42323,-49.015694)"
         id="g3661">
        <path
           inkscape:connector-curvature="0"
           style="fill:#2c89a0;fill-rule:evenodd;stroke:#000000;stroke-width:4.24811316;stroke-linecap:butt;stroke-linejoin:miter;stroke-miterlimit:4;stroke-opacity:1;stroke-dasharray:none"
           d="m 179.6322,267.89195 c -28.74796,47.47657 -65.67835,104.46934 -24.86979,165.94604 44.31595,-41.14666 86.46199,-55.46989 103.17992,-105.622"
           id="path3159"
           sodipodi:nodetypes="ccc" />
        <path
           inkscape:connector-curvature="0"
           style="opacity:0.47395833;color:#000000;fill:#000000;fill-opacity:1;fill-rule:evenodd;stroke:#000000;stroke-width:1.4160378px;stroke-linecap:butt;stroke-linejoin:miter;stroke-miterlimit:4;stroke-opacity:1;stroke-dasharray:none;stroke-dashoffset:0;marker:none;visibility:visible;display:inline;overflow:visible;enable-background:accumulate"
           d="m 179.6322,267.89195 c -28.74796,47.47657 -65.67835,104.46934 -24.86979,165.94604 44.31595,-41.14666 86.46199,-55.46989 103.17992,-105.622"
           id="path3207"
           sodipodi:nodetypes="ccc" />
      </g>
      <path
         inkscape:connector-curvature="0"
         sodipodi:nodetypes="cccscc"
         id="path3153"
         d="M 311.1213,176.62772 C 272.20359,-13.339518 184.22739,8.7759447 73.527278,74.468801 105.06584,118.55212 190.78678,155.68185 169.84918,211.94192 136.54552,389.87959 277.98336,422.66415 408.45467,374.55244 501.52366,340.23297 489.96086,186.65428 566.69537,334.28039 559.35233,81.750151 354.8055,337.58766 311.1213,176.62772 z"
         style="fill:#2c89a0;fill-rule:evenodd;stroke:#000000;stroke-width:3.98515534;stroke-linecap:butt;stroke-linejoin:miter;stroke-miterlimit:4;stroke-opacity:1;stroke-dasharray:none" />
      <path
         inkscape:connector-curvature="0"
         sodipodi:nodetypes="ccccsc"
         id="path3161"
         d="m 544.86242,296.44375 c -8.93004,59.48123 20.54246,66.52166 72.95674,70.90817 2.63574,-18.07751 -13.40715,-25.0838 -34.42799,-43.1613 23.5348,12.17108 39.82322,-2.31234 51.15133,-13.22426 -22.849,-1.30817 -39.35898,-13.31236 -54.57648,-18.42078 -5.38863,-1.80893 -10.61519,-2.75318 -15.90376,-2.05166"
         style="color:#000000;fill:#2c89a0;fill-opacity:1;fill-rule:evenodd;stroke:#000000;stroke-width:3.98515534;stroke-linecap:butt;stroke-linejoin:miter;stroke-miterlimit:4;stroke-opacity:1;stroke-dasharray:none;stroke-dashoffset:0;marker:none;visibility:visible;display:inline;overflow:visible;enable-background:accumulate" />
      <path
         inkscape:connector-curvature="0"
         sodipodi:nodetypes="cccc"
         id="path3163"
         d="m 88.813652,69.528151 c -1.759754,-13.09853 -43.447802,-2.41017 -43.856608,4.01318 5.309037,10.81627 19.841754,14.07855 33.600867,9.80999 l 10.255741,-13.82317 z"
         style="fill:#000000;fill-rule:evenodd;stroke:#000000;stroke-width:1.32838523px;stroke-linecap:butt;stroke-linejoin:miter;stroke-opacity:1" />
      <path
         transform="matrix(1.3314443,-0.1525861,0.1553773,1.3075266,-144.1697,-86.501242)"
         d="m 145.82489,136.69331 c 0,1.12247 -3.26061,2.03241 -7.28278,2.03241 -4.02216,0 -7.28277,-0.90994 -7.28277,-2.03241 0,-1.12246 3.26061,-2.0324 7.28277,-2.0324 4.02217,0 7.28278,0.90994 7.28278,2.0324 z"
         sodipodi:ry="2.0324028"
         sodipodi:rx="7.2827764"
         sodipodi:cy="136.69331"
         sodipodi:cx="138.54211"
         id="path3165"
         style="color:#000000;fill:#ffffff;fill-opacity:1;fill-rule:evenodd;stroke:none;stroke-width:3;marker:none;visibility:visible;display:inline;overflow:visible;enable-background:accumulate"
         sodipodi:type="arc" />
      <path
         transform="matrix(1.452893,0.1814764,-0.208119,1.2668983,-129.4268,-159.27825)"
         d="m 256.76022,148.21025 c 0,14.49851 -7.65865,26.25187 -17.10606,26.25187 -9.44741,0 -17.10606,-11.75336 -17.10606,-26.25187 0,-14.49851 7.65865,-26.25187 17.10606,-26.25187 9.44741,0 17.10606,11.75336 17.10606,26.25187 z"
         sodipodi:ry="26.251869"
         sodipodi:rx="17.106056"
         sodipodi:cy="148.21025"
         sodipodi:cx="239.65416"
         id="path3167"
         style="color:#000000;fill:#ffffff;fill-opacity:1;fill-rule:evenodd;stroke:#000000;stroke-width:3;stroke-linecap:butt;stroke-linejoin:miter;stroke-miterlimit:4;stroke-opacity:1;stroke-dasharray:none;stroke-dashoffset:0;marker:none;visibility:visible;display:inline;overflow:visible;enable-background:accumulate"
         sodipodi:type="arc" />
      <path
         inkscape:connector-curvature="0"
         sodipodi:nodetypes="ccc"
         id="path3169"
         d="m 162.88552,107.27715 c 14.8204,-3.88146 28.40199,-2.65207 41.90268,7.44431 -16.89437,-13.52164 -28.50071,-5.38329 -41.90268,-7.44431 z"
         style="fill:#000000;fill-rule:evenodd;stroke:#000000;stroke-width:0.66419262;stroke-linecap:butt;stroke-linejoin:miter;stroke-miterlimit:4;stroke-opacity:1;stroke-dasharray:none" />
      <path
         transform="matrix(1.3243504,0.2035969,-0.2073211,1.3005602,-82.333717,-157.94924)"
         d="m 239.82352,144.31482 c 0,7.67018 -3.03313,13.88808 -6.77468,13.88808 -3.74155,0 -6.77467,-6.2179 -6.77467,-13.88808 0,-7.67018 3.03312,-13.88809 6.77467,-13.88809 3.74155,0 6.77468,6.21791 6.77468,13.88809 z"
         sodipodi:ry="13.888085"
         sodipodi:rx="6.7746758"
         sodipodi:cy="144.31482"
         sodipodi:cx="233.04884"
         id="path3171"
         style="color:#000000;fill:#000000;fill-opacity:1;fill-rule:evenodd;stroke:#000000;stroke-width:0.5;stroke-linecap:butt;stroke-linejoin:miter;stroke-miterlimit:4;stroke-opacity:1;stroke-dasharray:none;stroke-dashoffset:0;marker:none;visibility:visible;display:inline;overflow:visible;enable-background:accumulate"
         sodipodi:type="arc" />
      <path
         transform="matrix(1.3404798,0,0,1.3163998,-121.43818,-107.9624)"
         d="m 244.5658,138.38698 c 0,3.27385 -1.81988,5.92784 -4.06481,5.92784 -2.24493,0 -4.0648,-2.65399 -4.0648,-5.92784 0,-3.27386 1.81987,-5.92784 4.0648,-5.92784 2.24493,0 4.06481,2.65398 4.06481,5.92784 z"
         sodipodi:ry="5.9278412"
         sodipodi:rx="4.0648055"
         sodipodi:cy="138.38698"
         sodipodi:cx="240.50099"
         id="path3173"
         style="color:#000000;fill:#ffffff;fill-opacity:1;fill-rule:evenodd;stroke:none;stroke-width:0.5;marker:none;visibility:visible;display:inline;overflow:visible;enable-background:accumulate"
         sodipodi:type="arc" />
      <path
         inkscape:connector-curvature="0"
         sodipodi:nodetypes="ccc"
         id="path3175"
         d="m 140.76492,136.86042 c 19.23714,23.89206 83.89803,-3.71754 84.00217,-21.84955 -11.53369,21.88497 -46.92152,42.30545 -84.00217,21.84955 z"
         style="fill:#000000;fill-rule:evenodd;stroke:#000000;stroke-width:1.32838523px;stroke-linecap:butt;stroke-linejoin:miter;stroke-opacity:1" />
      <path
         inkscape:connector-curvature="0"
         sodipodi:nodetypes="ccc"
         id="path3177"
         d="m 217.99911,109.22016 c 6.29971,4.52079 12.59931,9.04166 6.76098,18.03245 4.60637,-7.69503 -2.6747,-12.47157 -6.76098,-18.03245 z"
         style="fill:#000000;fill-rule:evenodd;stroke:#000000;stroke-width:0.85269243px;stroke-linecap:butt;stroke-linejoin:miter;stroke-opacity:1" />
      <path
         inkscape:connector-curvature="0"
         sodipodi:nodetypes="cccc"
         id="path3179"
         d="m 543.52126,293.09363 c 6.07361,8.23688 19.25792,21.03681 25.88174,17.67132 -7.87046,3.13381 -19.37348,-6.71868 -25.88174,-14.71499 l 0,-2.95633 z"
         style="fill:#000000;fill-rule:evenodd;stroke:#000000;stroke-width:1.32838523px;stroke-linecap:butt;stroke-linejoin:miter;stroke-opacity:1" />
      <path
         inkscape:connector-curvature="0"
         sodipodi:nodetypes="cccc"
         id="path3187"
         d="M 227.03742,50.999721 C 213.74396,37.584696 193.27237,33.33362 167.88024,35.364338 l -2.59576,-10.673251 c 22.61384,-2.193477 46.39768,9.493625 61.75294,26.308634 z"
         style="fill:#000000;fill-rule:evenodd;stroke:#000000;stroke-width:1.32838523px;stroke-linecap:butt;stroke-linejoin:miter;stroke-opacity:1" />
      <path
         inkscape:connector-curvature="0"
         sodipodi:nodetypes="ccccc"
         id="path3191"
         d="m 87.6545,89.603451 c 42.02203,39.301339 107.76744,79.552129 79.62609,127.383349 -5.43794,67.10114 3.91176,132.89575 69.40775,162.92301 l 23.08528,-78.54254 C 283.69165,64.647751 182.11311,125.02893 87.6545,89.603451 z"
         style="opacity:0.234375;fill:#000000;fill-rule:evenodd;stroke:#000000;stroke-width:1.32838523px;stroke-linecap:butt;stroke-linejoin:miter;stroke-opacity:1" />
      <path
         transform="matrix(0.8138895,0,0,0.8509821,90.609722,-37.36775)"
         d="m 124.5509,187.06587 c 0,1.19056 -0.96514,2.15569 -2.15569,2.15569 -1.19055,0 -2.15569,-0.96513 -2.15569,-2.15569 0,-1.19055 0.96514,-2.15569 2.15569,-2.15569 1.19055,0 2.15569,0.96514 2.15569,2.15569 z"
         sodipodi:ry="2.1556885"
         sodipodi:rx="2.1556885"
         sodipodi:cy="187.06587"
         sodipodi:cx="122.39521"
         id="path3193"
         style="opacity:0.6875;color:#000000;fill:#000000;fill-opacity:1;fill-rule:evenodd;stroke:none;stroke-width:0.5;marker:none;visibility:visible;display:inline;overflow:visible;enable-background:accumulate"
         sodipodi:type="arc" />
      <path
         transform="matrix(0.8138895,0,0,0.8509821,96.998823,-33.03112)"
         d="m 124.5509,187.06587 c 0,1.19056 -0.96514,2.15569 -2.15569,2.15569 -1.19055,0 -2.15569,-0.96513 -2.15569,-2.15569 0,-1.19055 0.96514,-2.15569 2.15569,-2.15569 1.19055,0 2.15569,0.96514 2.15569,2.15569 z"
         sodipodi:ry="2.1556885"
         sodipodi:rx="2.1556885"
         sodipodi:cy="187.06587"
         sodipodi:cx="122.39521"
         id="path3195"
         style="opacity:0.6875;color:#000000;fill:#000000;fill-opacity:1;fill-rule:evenodd;stroke:none;stroke-width:0.5;marker:none;visibility:visible;display:inline;overflow:visible;enable-background:accumulate"
         sodipodi:type="arc" />
      <path
         transform="matrix(0.8138895,0,0,0.8509821,74.006406,-39.062522)"
         d="m 124.5509,187.06587 c 0,1.19056 -0.96514,2.15569 -2.15569,2.15569 -1.19055,0 -2.15569,-0.96513 -2.15569,-2.15569 0,-1.19055 0.96514,-2.15569 2.15569,-2.15569 1.19055,0 2.15569,0.96514 2.15569,2.15569 z"
         sodipodi:ry="2.1556885"
         sodipodi:rx="2.1556885"
         sodipodi:cy="187.06587"
         sodipodi:cx="122.39521"
         id="path3197"
         style="opacity:0.6875;color:#000000;fill:#000000;fill-opacity:1;fill-rule:evenodd;stroke:none;stroke-width:0.5;marker:none;visibility:visible;display:inline;overflow:visible;enable-background:accumulate"
         sodipodi:type="arc" />
      <path
         transform="matrix(0.8138895,0,0,0.8509821,83.211279,-33.922942)"
         d="m 124.5509,187.06587 c 0,1.19056 -0.96514,2.15569 -2.15569,2.15569 -1.19055,0 -2.15569,-0.96513 -2.15569,-2.15569 0,-1.19055 0.96514,-2.15569 2.15569,-2.15569 1.19055,0 2.15569,0.96514 2.15569,2.15569 z"
         sodipodi:ry="2.1556885"
         sodipodi:rx="2.1556885"
         sodipodi:cy="187.06587"
         sodipodi:cx="122.39521"
         id="path3199"
         style="opacity:0.6875;color:#000000;fill:#000000;fill-opacity:1;fill-rule:evenodd;stroke:none;stroke-width:0.5;marker:none;visibility:visible;display:inline;overflow:visible;enable-background:accumulate"
         sodipodi:type="arc" />
      <path
         inkscape:connector-curvature="0"
         sodipodi:nodetypes="cccccc"
         id="path3201"
         d="m 290.57262,393.5578 c 150.00134,2.40954 176.51915,-81.92588 220.89821,-123.5997 27.22556,8.57771 7.59655,-3.0372 20.70219,7.24048 -1.98349,-22.84656 -18.67217,-38.02275 -29.21926,-22.84345 -56.90554,96.22126 -204.68626,146.76562 -164.89433,87.32708 3.70624,3.36382 -24.93911,10.79227 -47.48681,51.87559 z"
         style="opacity:0.24479167;fill:#000000;fill-rule:evenodd;stroke:#000000;stroke-width:1.32838523px;stroke-linecap:butt;stroke-linejoin:miter;stroke-opacity:1" />
      <g
         transform="matrix(0.9438972,-0.1323866,0.1368449,0.9131454,-10.63898,57.385521)"
         id="g3657">
        <path
           inkscape:connector-curvature="0"
           style="fill:#2c89a0;fill-rule:evenodd;stroke:#000000;stroke-width:4.24811316;stroke-linecap:butt;stroke-linejoin:miter;stroke-miterlimit:4;stroke-opacity:1;stroke-dasharray:none"
           d="m 244.57076,303.48597 c -25.55275,49.3235 -58.64205,108.69788 -13.87109,167.26372 41.50323,-44.06563 82.61024,-61.22059 95.98349,-112.39617"
           id="path3157"
           sodipodi:nodetypes="ccc" />
        <path
           inkscape:connector-curvature="0"
           style="opacity:0.234375;color:#000000;fill:#000000;fill-opacity:1;fill-rule:evenodd;stroke:#000000;stroke-width:1.4160378px;stroke-linecap:butt;stroke-linejoin:miter;stroke-miterlimit:4;stroke-opacity:1;stroke-dasharray:none;stroke-dashoffset:0;marker:none;visibility:visible;display:inline;overflow:visible;enable-background:accumulate"
           d="m 245.61086,307.65621 c -5.18572,36.67598 -52.02962,183.82559 57.81744,92.73515 l -73.30276,68.30193 C 198.85177,428.12028 199.2681,367.93574 245.61086,307.65621 z"
           id="path3203"
           sodipodi:nodetypes="cccc" />
      </g>
      <path
         inkscape:connector-curvature="0"
         sodipodi:nodetypes="cccccc"
         id="path3509"
         d="M 163.42771,35.370934 C 301.68461,3.3194417 290.51997,186.4151 316.25846,271.21932 399.61451,272.50807 502.3971,160.62445 564.12681,287.6152 552.90782,214.34821 498.21468,202.07154 415.14893,229.59902 349.55115,249.7602 325.58321,214.43867 307.26841,171.58283 288.41049,49.406598 237.03746,13.044911 163.42771,35.370934 z"
         style="opacity:0.25520833;fill:url(#linearGradient3043);fill-opacity:1;fill-rule:evenodd;stroke:none" />
    </g>
  </g>
</svg>
