<?xml version="1.0" encoding="UTF-8" standalone="no"?>
<!-- Created with Inkscape (http://www.inkscape.org/) -->

<svg
   xmlns:dc="http://purl.org/dc/elements/1.1/"
   xmlns:cc="http://creativecommons.org/ns#"
   xmlns:rdf="http://www.w3.org/1999/02/22-rdf-syntax-ns#"
   xmlns:svg="http://www.w3.org/2000/svg"
   xmlns="http://www.w3.org/2000/svg"
   xmlns:xlink="http://www.w3.org/1999/xlink"
   xmlns:sodipodi="http://sodipodi.sourceforge.net/DTD/sodipodi-0.dtd"
   xmlns:inkscape="http://www.inkscape.org/namespaces/inkscape"
   width="582.16632"
   height="455.65015"
   id="svg3709"
   sodipodi:version="0.32"
   inkscape:version="0.48.3.1 r9886"
   sodipodi:docname="leon.svg"
   inkscape:output_extension="org.inkscape.output.svg.inkscape"
   sodipodi:modified="true"
   version="1.1">
  <defs
     id="defs3711">
    <linearGradient
       inkscape:collect="always"
       id="linearGradient4402">
      <stop
         style="stop-color:#ffffff;stop-opacity:1;"
         offset="0"
         id="stop4404" />
      <stop
         style="stop-color:#ffffff;stop-opacity:0;"
         offset="1"
         id="stop4406" />
    </linearGradient>
    <linearGradient
       inkscape:collect="always"
       id="linearGradient4392">
      <stop
         style="stop-color:#ffffff;stop-opacity:1;"
         offset="0"
         id="stop4394" />
      <stop
         style="stop-color:#ffffff;stop-opacity:0;"
         offset="1"
         id="stop4396" />
    </linearGradient>
    <linearGradient
       inkscape:collect="always"
       id="linearGradient4374">
      <stop
         style="stop-color:#1a1a1a;stop-opacity:1"
         offset="0"
         id="stop4376" />
      <stop
         style="stop-color:#000000;stop-opacity:0;"
         offset="1"
         id="stop4378" />
    </linearGradient>
    <linearGradient
       inkscape:collect="always"
       id="linearGradient4356">
      <stop
         style="stop-color:#000000;stop-opacity:1;"
         offset="0"
         id="stop4358" />
      <stop
         style="stop-color:#000000;stop-opacity:0;"
         offset="1"
         id="stop4360" />
    </linearGradient>
    <linearGradient
       inkscape:collect="always"
       id="linearGradient4338">
      <stop
         style="stop-color:#000000;stop-opacity:1;"
         offset="0"
         id="stop4340" />
      <stop
         style="stop-color:#000000;stop-opacity:0;"
         offset="1"
         id="stop4342" />
    </linearGradient>
    <linearGradient
       id="linearGradient4304">
      <stop
         style="stop-color:#000000;stop-opacity:1;"
         offset="0"
         id="stop4306" />
      <stop
         style="stop-color:#000000;stop-opacity:0"
         offset="1"
         id="stop4308" />
    </linearGradient>
    <linearGradient
       inkscape:collect="always"
       xlink:href="#linearGradient4304"
       id="linearGradient4310"
       x1="368.65393"
       y1="331.8692"
       x2="381.20319"
       y2="420.87805"
       gradientUnits="userSpaceOnUse" />
    <linearGradient
       inkscape:collect="always"
       xlink:href="#linearGradient4338"
       id="linearGradient4344"
       x1="509.08969"
       y1="411.08344"
       x2="365.8284"
       y2="322.4209"
       gradientUnits="userSpaceOnUse" />
    <linearGradient
       inkscape:collect="always"
       xlink:href="#linearGradient4356"
       id="linearGradient4362"
       x1="237.05322"
       y1="338.07361"
       x2="257.46375"
       y2="411.49728"
       gradientUnits="userSpaceOnUse" />
    <linearGradient
       inkscape:collect="always"
       xlink:href="#linearGradient4374"
       id="linearGradient4380"
       x1="554.18695"
       y1="450.95383"
       x2="160.31453"
       y2="51.972412"
       gradientUnits="userSpaceOnUse" />
    <linearGradient
       inkscape:collect="always"
       xlink:href="#linearGradient4392"
       id="linearGradient4398"
       x1="-52.59726"
       y1="-13.139135"
       x2="183.86551"
       y2="93.532974"
       gradientUnits="userSpaceOnUse" />
    <linearGradient
       inkscape:collect="always"
       xlink:href="#linearGradient4402"
       id="linearGradient4408"
       x1="142.07478"
       y1="177.11011"
       x2="164.43327"
       y2="200.62033"
       gradientUnits="userSpaceOnUse" />
  </defs>
  <sodipodi:namedview
     id="base"
     pagecolor="#ffffff"
     bordercolor="#666666"
     borderopacity="1.0"
     inkscape:pageopacity="0.0"
     inkscape:pageshadow="2"
     inkscape:zoom="0.99791667"
     inkscape:cx="292.80041"
     inkscape:cy="225.02226"
     inkscape:current-layer="layer1"
     inkscape:document-units="px"
     inkscape:window-width="1024"
     inkscape:window-height="676"
     inkscape:window-x="0"
     inkscape:window-y="48"
     showguides="true"
     inkscape:guide-bbox="true"
     showgrid="false"
     fit-margin-top="0"
     fit-margin-left="0"
     fit-margin-right="0"
     fit-margin-bottom="0"
     inkscape:window-maximized="0" />
  <metadata
     id="metadata3714">
    <rdf:RDF>
      <cc:Work
         rdf:about="">
        <dc:format>image/svg+xml</dc:format>
        <dc:type
           rdf:resource="http://purl.org/dc/dcmitype/StillImage" />
        <dc:title></dc:title>
      </cc:Work>
    </rdf:RDF>
  </metadata>
  <g
     id="layer1"
     inkscape:label="Layer 1"
     inkscape:groupmode="layer"
     transform="translate(-27.199591,-9.3721129)">
    <path
       style="fill:#d3bc5f;fill-rule:evenodd;stroke:#000000;stroke-width:3.80309224;stroke-linecap:butt;stroke-linejoin:miter;stroke-miterlimit:4;stroke-opacity:1;stroke-dasharray:none"
       d="m 229.15679,326.28625 c 12.26545,22.8864 0.0966,60.59893 -0.1429,90.95616 -47.22103,-12.24021 -45.06464,2.53562 -39.41634,28.38809 43.46463,2.13458 59.08865,1.97211 97.82775,-4.96827 -6.36796,-19.97458 -31.55472,-56.86701 -11.58561,-78.39099"
       id="path4046"
       sodipodi:nodetypes="ccccc"
       inkscape:connector-curvature="0" />
    <path
       style="fill:#d3bc5f;fill-rule:evenodd;stroke:#000000;stroke-width:3.80309224;stroke-linecap:butt;stroke-linejoin:miter;stroke-miterlimit:4;stroke-opacity:1;stroke-dasharray:none"
       d="m 369.03428,331.17059 c -43.56939,18.44884 -25.9721,48.61479 -0.14291,90.95617 -45.94402,-13.27275 -42.33707,-2.63807 -46.47689,31.12877 44.39106,4.21535 62.79435,-0.94095 98.75418,-4.55211 -7.86471,-20.08664 -49.08082,-64.24745 -12.00226,-84.49048 14.21081,-9.12336 22.99652,-33.79709 23.12496,-50.71604"
       id="path4057"
       sodipodi:nodetypes="cccccc"
       inkscape:connector-curvature="0" />
    <path
       style="fill:url(#linearGradient4310);fill-opacity:1;fill-rule:evenodd;stroke:#000000;stroke-width:3.80309224;stroke-linecap:butt;stroke-linejoin:miter;stroke-miterlimit:4;stroke-opacity:1;stroke-dasharray:none"
       d="m 369.03428,331.17059 c -43.56939,18.44884 -25.9721,48.61479 -0.14291,90.95617 -45.94402,-13.27275 -42.33707,-2.63807 -46.47689,31.12877 44.39106,4.21535 62.79435,-0.94095 98.75418,-4.55211 -7.86471,-20.08664 -49.08082,-64.24745 -12.00226,-84.49048 14.21081,-9.12336 22.99652,-33.79709 23.12496,-50.71604"
       id="path4294"
       sodipodi:nodetypes="cccccc"
       inkscape:connector-curvature="0" />
    <path
       style="fill:url(#linearGradient4362);fill-opacity:1;fill-rule:evenodd;stroke:#000000;stroke-width:3.80309224;stroke-linecap:butt;stroke-linejoin:miter;stroke-miterlimit:4;stroke-opacity:1;stroke-dasharray:none"
       d="m 229.15679,326.28625 c 12.26545,22.8864 0.0966,60.59893 -0.1429,90.95616 -47.22103,-12.24021 -45.06464,2.53562 -39.41634,28.38809 43.46463,2.13458 59.08865,1.97211 97.82775,-4.96827 -6.36796,-19.97458 -31.55472,-56.86701 -11.58561,-78.39099"
       id="path4346"
       sodipodi:nodetypes="ccccc"
       inkscape:connector-curvature="0" />
    <path
       style="fill:#d3bc5f;fill-rule:evenodd;stroke:#000000;stroke-width:3.80309224;stroke-linecap:butt;stroke-linejoin:miter;stroke-miterlimit:4;stroke-opacity:1;stroke-dasharray:none"
       d="m 444.51521,361.61624 c 39.73885,-61.4032 6.79361,-104.10975 -39.50984,-102.91013 -62.12668,24.55887 -119.84691,-45.03457 -147.33577,-85.22295 l 7.17981,-89.091615 C 227.12194,99.279126 185.84866,102.4337 152.36595,131.36713 l -15.5562,17.27838 c -36.09683,19.70887 -60.548944,32.88034 -99.608931,51.25214 20.843164,30.71817 28.463654,64.41975 80.462801,51.33821 -20.342756,4.68227 -27.893832,3.55132 -45.843313,-1.71702 0.716995,2.13441 -5.650157,1.49093 -4.691298,4.31875 6.307541,18.60191 28.53795,56.6249 58.911031,11.97689 58.26214,-52.20685 114.591,-42.51837 97.5448,-66.95369 31.32313,77.26626 -83.96377,227.98842 220.93037,162.75545 z"
       id="path3995"
       sodipodi:nodetypes="cccccscccsccc"
       inkscape:connector-curvature="0" />
    <path
       style="opacity:0.06382979;fill:#000000;fill-rule:evenodd;stroke:none"
       d="m 253.54313,234.09115 c 42.825,24.38955 69.81919,74.63827 148.04769,41.19709 32.57804,-6.72726 48.80345,8.58254 56.9918,34.72325 -4.90892,-20.6281 0.84163,-44.03651 -55.68165,-51.20209 -53.63201,19.68516 -102.02661,-36.60477 -149.35784,-24.71825 z"
       id="path4061"
       sodipodi:nodetypes="ccccc"
       inkscape:connector-curvature="0" />
    <path
       style="fill:#552200;fill-rule:evenodd;stroke:#000000;stroke-width:3.80309224;stroke-linecap:butt;stroke-linejoin:miter;stroke-miterlimit:4;stroke-opacity:1;stroke-dasharray:none"
       d="m 152.59939,132.18207 c -44.02322,-8.98172 -59.190972,-37.860488 -51.61494,-67.197106 13.53837,23.510678 20.30753,15.572118 33.84588,19.090084 -15.47494,-15.272063 7.95798,-30.544136 16.92293,-45.816206 3.59021,6.799096 -1.2746,14.869872 14.38451,19.853695 13.34918,-37.362702 80.17054,-24.044235 100.24016,-46.838878 -8.4302,14.067459 1.07476,26.120775 -25.77924,42.257253 36.72716,-18.468622 89.23314,4.59827 117.85495,13.559579 -16.88832,3.313409 -7.12204,11.0809 -8.45401,16.399856 13.54887,4.751569 22.48384,0.48056 40.03285,21.476813 -12.99272,2.25745 -16.97544,7.38898 -23.20733,21.84905 15.71106,-3.39662 37.4179,22.28201 39.72237,59.21457 -11.73647,-2.06563 -20.54795,5.80238 -30.17704,22.75498 14.10242,13.74487 -1.80727,51.62662 -12.52514,65.3715 -14.38447,-17.78068 -29.6954,-31.27944 -44.07989,-25.45799 8.8887,13.23579 -12.2878,33.13001 -23.48162,46.36583 -6.64834,-20.82323 -7.71773,-33.84766 -20.87598,-39.00462 1.12563,10.38547 -13.3486,23.89479 -32.26418,37.89747 2.82831,-12.73025 12.44246,-52.1852 -1.74226,-57.23876 -40.85392,-1.91389 -47.63495,6.76303 -46.42093,29.0935 -40.18184,-46.66523 28.49802,-55.16672 42.23363,-100.03206 -14.02137,3.19763 -27.95786,6.01223 -39.76889,-0.76359 30.11764,-2.06964 25.48188,-22.95713 35.53814,-35.88937 l -22.84597,-0.76363 c 14.71543,-7.38149 5.26519,-14.76298 5.92304,-22.14447 -18.84575,-2.11283 -37.44346,4.727 -63.46104,25.9625 z"
       id="path3981"
       sodipodi:nodetypes="cccccccccccccccccccccccccc"
       inkscape:connector-curvature="0" />
    <path
       style="opacity:0.16595746;fill:#000000;fill-rule:evenodd;stroke:#000000;stroke-width:3.80309224;stroke-linecap:butt;stroke-linejoin:miter;stroke-miterlimit:4;stroke-opacity:1;stroke-dasharray:none"
       d="m 152.59939,132.18207 c -44.02322,-8.98172 -59.190972,-37.860488 -51.61494,-67.197106 13.53837,23.510678 20.30753,15.572118 33.84588,19.090084 -15.47494,-15.272063 7.95798,-30.544136 16.92293,-45.816206 3.59021,6.799096 -1.2746,14.869872 14.38451,19.853695 13.34918,-37.362702 80.17054,-24.044235 100.24016,-46.838878 -8.4302,14.067459 1.07476,26.120775 -25.77924,42.257253 36.72716,-18.468622 89.23314,4.59827 117.85495,13.559579 -16.88832,3.313409 -7.12204,11.0809 -8.45401,16.399856 13.54887,4.751569 22.48384,0.48056 40.03285,21.476813 -12.99272,2.25745 -16.97544,7.38898 -23.20733,21.84905 15.71106,-3.39662 37.4179,22.28201 39.72237,59.21457 -11.73647,-2.06563 -20.54795,5.80238 -30.17704,22.75498 14.10242,13.74487 -1.80727,51.62662 -12.52514,65.3715 -14.38447,-17.78068 -29.6954,-31.27944 -44.07989,-25.45799 8.8887,13.23579 -12.2878,33.13001 -23.48162,46.36583 -6.64834,-20.82323 -7.71773,-33.84766 -20.87598,-39.00462 1.12563,10.38547 -13.3486,23.89479 -32.26418,37.89747 2.82831,-12.73025 12.44246,-52.1852 -1.74226,-57.23876 -40.85392,-1.91389 -47.63495,6.76303 -46.42093,29.0935 -40.18184,-46.66523 28.49802,-55.16672 42.23363,-100.03206 -14.02137,3.19763 -27.95786,6.01223 -39.76889,-0.76359 30.11764,-2.06964 25.48188,-22.95713 35.53814,-35.88937 l -22.84597,-0.76363 c 14.71543,-7.38149 5.26519,-14.76298 5.92304,-22.14447 -24.54468,-5.57163 -37.37921,5.05973 -63.46104,25.9625 z"
       id="path4050"
       sodipodi:nodetypes="cccccccccccccccccccccccccc"
       inkscape:connector-curvature="0" />
    <path
       style="opacity:0.31489366;fill:url(#linearGradient4408);fill-opacity:1;fill-rule:evenodd;stroke:#000000;stroke-width:3.80309224;stroke-linecap:butt;stroke-linejoin:miter;stroke-miterlimit:4;stroke-opacity:1;stroke-dasharray:none"
       d="m 444.51521,361.61624 c 39.73885,-61.4032 6.79361,-104.10975 -39.50984,-102.91013 -62.12668,24.55887 -119.84691,-45.03457 -147.33577,-85.22295 l 7.17981,-89.091615 C 227.12194,99.279126 185.84866,102.4337 152.36595,131.36713 l -15.5562,17.27838 c -36.09683,19.70887 -60.548944,32.88034 -99.608931,51.25214 20.843164,30.71817 28.463654,64.41975 80.462801,51.33821 -20.342756,4.68227 -27.893832,3.55132 -45.843313,-1.71702 0.716995,2.13441 -5.650157,1.49093 -4.691298,4.31875 6.307541,18.60191 28.53795,56.6249 58.911031,11.97689 58.26214,-52.20685 114.591,-42.51837 97.5448,-66.95369 31.32313,77.26626 -83.96377,227.98842 220.93037,162.75545 z"
       id="path4400"
       sodipodi:nodetypes="cccccscccsccc"
       inkscape:connector-curvature="0" />
    <path
       style="opacity:0.21276598;fill:#000000;fill-rule:evenodd;stroke:#000000;stroke-width:1.26769745px;stroke-linecap:butt;stroke-linejoin:miter;stroke-opacity:1"
       d="m 73.069072,261.45778 c 22.739563,23.28444 42.091198,4.86621 56.009198,-8.53368 44.5695,-29.00372 111.80518,-51.15636 124.46486,-104.16975 l -18.34218,85.92534 c -47.15456,-32.84302 -75.94058,17.54137 -110.70824,30.60354 -28.289634,42.09463 -43.744647,11.85969 -51.423638,-3.82545 z"
       id="path4093"
       sodipodi:nodetypes="cccccc"
       inkscape:connector-curvature="0" />
    <path
       style="fill:#552200;fill-rule:evenodd;stroke:none"
       d="m 151.94694,132.18048 c -39.3271,-14.39239 -58.018896,-34.117979 -50.53359,-63.456824 13.37623,23.512461 19.60112,11.827923 32.97733,15.346154 -7.41503,-16.105529 0.60282,-7.718275 16.72027,-45.819679 1.69437,9.29653 1.0567,16.535607 16.52827,21.519814 10.41006,-29.458622 61.60845,-25.294519 95.79725,-43.513203 -8.32924,14.068524 0.59867,23.209682 -25.93373,39.347379 36.28732,-18.470019 70.09928,9.176309 98.37831,18.138301 -16.68605,3.313661 -15.37451,17.740195 -16.69053,23.059548 13.3866,4.75193 26.84669,-10.339391 44.18553,10.65846 -12.83713,2.25762 -23.25709,18.20953 -29.41436,32.6707 15.52292,-3.39688 33.26412,-11.84089 35.54099,25.09447 -11.59591,-2.06578 -24.00757,-10.01101 -33.52134,6.94288 -3.08208,-5.36286 25.08057,56.62438 14.49107,70.37029 -14.21222,-17.78202 -32.11903,-29.61719 -46.33126,-23.7953 8.78226,13.23679 3.60851,33.96484 -7.45126,47.20165 -6.56872,-20.8248 -14.11023,-30.52099 -27.1109,-35.67835 1.11214,10.38627 -9.01986,48.44966 -27.70891,62.4534 5.1105,-13.14737 15.99913,-52.60531 1.98429,-57.65926 -40.36466,-1.91403 -51.23337,6.34739 -50.03389,28.67955 -33.21568,-46.25262 31.3992,-52.67397 44.97032,-97.54272 -12.46383,1.94942 -25.7702,5.59652 -37.43978,-1.17979 29.75695,-2.0698 23.32388,-22.95888 33.2597,-35.89211 L 211.11193,127.946 c 14.53919,-7.38205 6.12855,-14.34794 6.77852,-21.72999 -20.59619,-9.151098 -39.97638,5.27953 -65.94351,25.96447 z"
       id="path4048"
       sodipodi:nodetypes="cccccccccccccccccccccccccc"
       inkscape:connector-curvature="0" />
    <path
       style="fill:none;stroke:#000000;stroke-width:3.80309224;stroke-linecap:butt;stroke-linejoin:miter;stroke-miterlimit:4;stroke-opacity:1;stroke-dasharray:none"
       d="m 116.467,251.23586 c 49.11685,-18.58378 46.8522,-38.69232 56.78214,-67.88882"
       id="path3997"
       sodipodi:nodetypes="cc"
       inkscape:connector-curvature="0" />
    <path
       style="fill:#000000;fill-rule:evenodd;stroke:#000000;stroke-width:1.12818384;stroke-linecap:butt;stroke-linejoin:miter;stroke-miterlimit:4;stroke-opacity:1;stroke-dasharray:none"
       d="m 161.07259,183.68291 c 10.87887,-3.83528 19.81395,-3.52556 21.41814,12.41685 -4.79183,-18.37521 -13.82763,-11.01384 -21.41814,-12.41685 z"
       id="path3999"
       sodipodi:nodetypes="ccc"
       inkscape:connector-curvature="0" />
    <path
       style="fill:#784421;fill-rule:evenodd;stroke:#000000;stroke-width:3.80309224;stroke-linecap:butt;stroke-linejoin:miter;stroke-miterlimit:4;stroke-opacity:1;stroke-dasharray:none"
       d="M 60.07081,231.57848 32.178355,208.20914 c -5.02086,-4.00964 -3.240605,-8.01209 0.653706,-10.01035 19.106857,-10.26485 43.648529,-19.02641 47.865299,-17.81833 -5.623823,9.90363 -16.437813,19.34456 -22.300571,28.52082 -3.838298,6.0076 -0.552809,14.04552 1.674021,22.6772 z"
       id="path4007"
       sodipodi:nodetypes="ccccsc"
       inkscape:connector-curvature="0" />
    <path
       style="fill:#ffffff;fill-rule:evenodd;stroke:#000000;stroke-width:3.80309224;stroke-linecap:butt;stroke-linejoin:miter;stroke-miterlimit:4;stroke-opacity:1;stroke-dasharray:none"
       d="m 124.02992,249.23035 c -5.09873,4.02281 -3.10554,8.04563 -2.31606,12.06844 l -12.50668,-7.49077 14.82274,-4.57767 z"
       id="path4030"
       sodipodi:nodetypes="cccc"
       inkscape:connector-curvature="0" />
    <path
       style="opacity:0.17021275;fill:#000000;fill-rule:evenodd;stroke:#000000;stroke-width:1.26769745px;stroke-linecap:butt;stroke-linejoin:miter;stroke-opacity:1"
       d="m 397.00527,341.79209 c 22.99797,41.88951 -174.11442,60.43024 -167.70003,-29.42649 32.37884,49.64608 90.34932,83.21377 167.70003,29.42649 z"
       id="path4067"
       sodipodi:nodetypes="ccc"
       inkscape:connector-curvature="0" />
    <path
       style="fill:#d3bc5f;fill-rule:evenodd;stroke:#000000;stroke-width:3.80309224;stroke-linecap:butt;stroke-linejoin:miter;stroke-miterlimit:4;stroke-opacity:1;stroke-dasharray:none"
       d="m 389.87941,334.46191 c -43.56939,18.44884 -18.56074,53.60864 7.26846,95.95002 -45.94402,-13.27276 -42.33708,-2.63808 -46.47689,31.12876 44.39105,4.21536 62.79435,-0.94094 98.75417,-4.5521 -7.8647,-20.08665 -49.08081,-64.24745 -12.00226,-84.49048 14.21081,-9.12336 22.99653,-33.79709 23.12496,-50.71604"
       id="path4038"
       sodipodi:nodetypes="cccccc"
       inkscape:connector-curvature="0" />
    <path
       style="fill:#d3bc5f;fill-rule:evenodd;stroke:#000000;stroke-width:3.80309224;stroke-linecap:butt;stroke-linejoin:miter;stroke-miterlimit:4;stroke-opacity:1;stroke-dasharray:none"
       d="m 251.32171,337.26866 c 12.26544,22.88641 0.0966,60.59894 -0.14291,90.95617 -47.22102,-12.24021 -45.06464,2.53561 -39.41634,28.38808 43.46463,2.13459 59.08866,1.97212 97.82775,-4.96826 -6.36795,-19.97458 -33.40756,-64.77392 -5.10066,-90.87559"
       id="path4040"
       sodipodi:nodetypes="ccccc"
       inkscape:connector-curvature="0" />
    <path
       style="fill:#000000;fill-rule:evenodd;stroke:#000000;stroke-width:1.26769745px;stroke-linecap:butt;stroke-linejoin:miter;stroke-opacity:1"
       d="m 361.19357,461.05238 c -0.97119,-13.46433 1.28882,-23.28717 14.35952,-25.80151 -22.57578,3.89992 -13.37598,17.55869 -14.35952,25.80151 z"
       id="path4042"
       sodipodi:nodetypes="ccc"
       inkscape:connector-curvature="0" />
    <path
       style="fill:#000000;fill-rule:evenodd;stroke:#000000;stroke-width:1.26769745px;stroke-linecap:butt;stroke-linejoin:miter;stroke-opacity:1"
       d="m 216.96233,455.22623 c -0.9712,-13.46433 1.28882,-23.28718 14.35952,-25.80151 -22.57578,3.89991 -13.37598,17.55868 -14.35952,25.80151 z"
       id="path4044"
       sodipodi:nodetypes="ccc"
       inkscape:connector-curvature="0" />
    <path
       style="fill:url(#linearGradient4398);fill-opacity:1;fill-rule:evenodd;stroke:none"
       d="m 151.94694,132.18048 c -18.67874,-6.83579 -32.70245,-14.87467 -41.47737,-24.57522 -9.70021,-10.723451 -12.986317,-23.477491 -9.05622,-38.881604 13.37623,23.512461 19.60112,11.827923 32.97733,15.346154 -7.41503,-16.105529 0.60282,-7.718275 16.72027,-45.819679 1.69437,9.29653 1.0567,16.535607 16.52827,21.519814 10.41006,-29.458622 61.60845,-25.294519 95.79725,-43.513203 -8.32924,14.068524 0.59867,23.209682 -25.93373,39.347379 36.28732,-18.470019 70.09928,9.176309 98.37831,18.138301 -16.68605,3.313661 -15.37451,17.740195 -16.69053,23.059548 13.3866,4.75193 26.84669,-10.339391 44.18553,10.65846 -12.83713,2.25762 -23.25709,18.20953 -29.41436,32.6707 15.52292,-3.39688 33.26412,-11.84089 35.54099,25.09447 -11.59591,-2.06578 -24.00757,-10.01101 -33.52134,6.94288 -3.08208,-5.36286 25.08057,56.62438 14.49107,70.37029 -14.21222,-17.78202 -32.11903,-29.61719 -46.33126,-23.7953 8.78226,13.23679 3.60851,33.96484 -7.45126,47.20165 -6.56872,-20.8248 -14.11023,-30.52099 -27.1109,-35.67835 1.11214,10.38627 -9.01986,48.44966 -27.70891,62.4534 5.1105,-13.14737 15.99913,-52.60531 1.98429,-57.65926 -40.36466,-1.91403 -51.23337,6.34739 -50.03389,28.67955 -33.21568,-46.25262 31.3992,-52.67397 44.97032,-97.54272 -12.46383,1.94942 -25.7702,5.59652 -37.43978,-1.17979 29.75695,-2.0698 23.32388,-22.95888 33.2597,-35.89211 L 211.11193,127.946 c 14.53919,-7.38205 6.12855,-14.34794 6.77852,-21.72999 -20.59619,-9.151098 -39.97638,5.27953 -65.94351,25.96447 z"
       id="path4364"
       sodipodi:nodetypes="csccccccccccccccccccccccccc"
       inkscape:connector-curvature="0" />
    <g
       id="g4052"
       transform="matrix(1.3374514,0,0,1.2015814,-142.7792,-53.699849)">
      <path
         id="path3983"
         d="m 296.42492,130.32584 c -0.27855,-11.19432 7.76759,-20.52786 17.96015,-20.83378 10.19252,-0.30592 18.69081,8.53104 18.96934,19.72536 0.20238,8.13324 -3.66798,15.17164 -10.31638,18.76079 l 0.0928,-0.20532 -14.77732,5.42896 4.26268,-6.00043 -16.76657,-3.42882 8.52537,-0.85719 -7.95012,-12.58957 z"
         style="color:#000000;fill:#d3bc5f;fill-opacity:1;fill-rule:evenodd;stroke:#000000;stroke-width:3;stroke-linecap:butt;stroke-linejoin:miter;stroke-miterlimit:4;stroke-opacity:1;stroke-dasharray:none;stroke-dashoffset:0;marker:none;visibility:visible;display:inline;overflow:visible;enable-background:accumulate"
         inkscape:connector-curvature="0" />
      <path
         sodipodi:nodetypes="ccc"
         id="path3989"
         d="m 327.57491,137.53927 c -2.08607,-11.91906 -6.45395,-21.21863 -20.245,-19.70047 12.34642,-1.0647 19.70169,4.67471 20.245,19.70047 z"
         style="fill:none;stroke:#000000;stroke-width:1.83080065px;stroke-linecap:butt;stroke-linejoin:miter;stroke-opacity:1"
         inkscape:connector-curvature="0" />
      <path
         sodipodi:nodetypes="ccc"
         id="path3991"
         d="m 319.98305,121.0163 c -15.76102,2.92763 -8.24551,10.10637 -6.64289,16.20522 -7.80758,-11.15425 0.47536,-16.15933 6.64289,-16.20522 z"
         style="fill:none;stroke:#000000;stroke-width:1.83080065px;stroke-linecap:butt;stroke-linejoin:miter;stroke-opacity:1"
         inkscape:connector-curvature="0" />
    </g>
    <path
       style="opacity:0.24255317;fill:#000000;fill-rule:evenodd;stroke:#000000;stroke-width:1.26769745px;stroke-linecap:butt;stroke-linejoin:miter;stroke-opacity:1"
       d="m 397.00527,433.01418 c 28.45971,6.96789 11.70885,18.44884 11.7914,28.24943 l 41.26994,-5.29676 c -37.80035,-42.09073 -29.60247,-67.34423 -15.72189,-82.39416 24.94388,-18.3995 25.01599,-43.18332 26.20313,-67.68091 l -0.65507,-1.17707 c 0.80134,46.55595 -42.68552,78.03285 -53.06135,72.38915 17.75149,38.73353 18.92049,67.18507 -9.82616,55.91032 z"
       id="path4059"
       sodipodi:nodetypes="cccccccc"
       inkscape:connector-curvature="0" />
    <path
       style="opacity:0.24680852;fill:#ffffff;fill-rule:evenodd;stroke:none"
       d="m 392.69187,336.20638 c -25.17302,16.11713 -25.44818,41.18165 -7.41137,72.82684 -27.29259,-41.29163 -19.53777,-62.54608 7.41137,-72.82684 z"
       id="path4063"
       sodipodi:nodetypes="ccc"
       inkscape:connector-curvature="0" />
    <path
       style="fill:#000000;fill-rule:evenodd;stroke:#000000;stroke-width:1.26769745px;stroke-linecap:butt;stroke-linejoin:miter;stroke-opacity:1"
       d="m 373.70025,461.05238 c -1.06403,-12.4695 2.78644,-20.52378 15.28593,-20.80767 -12.47556,3.25621 -13.60093,12.16395 -15.28593,20.80767 z"
       id="path4065"
       sodipodi:nodetypes="ccc"
       inkscape:connector-curvature="0" />
    <path
       style="opacity:0.40851063;fill:#ffffff;fill-rule:evenodd;stroke:none"
       d="m 296.80734,113.98051 c 6.38547,-35.640225 -20.86789,-30.482821 -31.96151,-30.379185 14.55909,-10.52619 48.27652,1.915453 31.96151,30.379185 z"
       id="path4089"
       sodipodi:nodetypes="ccc"
       inkscape:connector-curvature="0" />
    <path
       style="opacity:0.24680852;fill:#000000;fill-rule:evenodd;stroke:#000000;stroke-width:1.26769745px;stroke-linecap:butt;stroke-linejoin:miter;stroke-opacity:1"
       d="m 283.83745,91.508235 c -11.30497,3.573732 -13.07763,10.441295 -8.33778,19.559195 -1.23395,9.82443 -8.48587,4.51036 -15.74914,-0.8323 l 7.41135,9.15537 10.19063,1.66462 -2.31605,5.40999 c 9.95937,-2.98667 20.67713,-3.88205 23.62372,-16.22998 L 283.83745,91.508235 z"
       id="path4091"
       sodipodi:nodetypes="cccccccc"
       inkscape:connector-curvature="0" />
    <path
       sodipodi:type="arc"
       style="opacity:0.21276598;color:#000000;fill:#ffffff;fill-opacity:1;fill-rule:evenodd;stroke:none;stroke-width:3;marker:none;visibility:visible;display:inline;overflow:visible;enable-background:accumulate"
       id="path4095"
       sodipodi:cx="122.08163"
       sodipodi:cy="184.04082"
       sodipodi:rx="9.5268917"
       sodipodi:ry="1.8522052"
       d="m 131.60852,184.04082 c 0,1.02294 -4.26534,1.8522 -9.52689,1.8522 -5.26156,0 -9.52689,-0.82926 -9.52689,-1.8522 0,-1.02295 4.26533,-1.85221 9.52689,-1.85221 5.26155,0 9.52689,0.82926 9.52689,1.85221 z"
       transform="matrix(1.1890426,-0.5501288,0.6123351,1.0682492,-213.44548,69.191408)" />
    <path
       style="opacity:0.3404255;fill:#000000;fill-rule:evenodd;stroke:#000000;stroke-width:1.26769745px;stroke-linecap:butt;stroke-linejoin:miter;stroke-opacity:1"
       d="m 34.167118,208.86347 c 12.435235,8.5011 26.802754,-4.69758 41.688922,-23.72074 l -19.454822,25.80151 4.632102,18.31074 -26.866202,-20.39151 z"
       id="path4097"
       sodipodi:nodetypes="ccccc"
       inkscape:connector-curvature="0" />
    <path
       style="opacity:0.1148936;fill:#000000;fill-rule:evenodd;stroke:#000000;stroke-width:1.26769745px;stroke-linecap:butt;stroke-linejoin:miter;stroke-opacity:1"
       d="m 301.69138,360.0365 c -23.33182,17.82384 -23.93641,36.44445 -22.6002,68.56371 16.9085,2.42667 17.79899,19.649 13.75665,25.01251 l 18.01464,-2.35411 c -16.12345,-31.55264 -28.3392,-62.76277 -9.17109,-91.22211 z"
       id="path4139"
       sodipodi:nodetypes="ccccc"
       inkscape:connector-curvature="0" />
    <path
       style="fill:#000000;fill-rule:evenodd;stroke:#000000;stroke-width:1.26769745px;stroke-linecap:butt;stroke-linejoin:miter;stroke-opacity:1"
       d="m 223.47268,456.05855 c -1.06403,-12.46951 2.78644,-20.52378 15.28593,-20.80768 -12.47556,3.25622 -13.60093,12.16396 -15.28593,20.80768 z"
       id="path4141"
       sodipodi:nodetypes="ccc"
       inkscape:connector-curvature="0" />
    <path
       style="color:#000000;fill:#d3bc5f;fill-opacity:1;fill-rule:evenodd;stroke:#000000;stroke-width:3.80309224;stroke-linecap:butt;stroke-linejoin:miter;stroke-miterlimit:4;stroke-opacity:1;stroke-dasharray:none;stroke-dashoffset:0;marker:none;visibility:visible;display:inline;overflow:visible;enable-background:accumulate"
       d="M 459.89277,325.90179 C 483.52647,261.3974 559.47758,90.450856 590.25336,325.31325 596.96031,260.4731 556.84751,85.489766 457.92755,293.53265"
       id="path4145"
       sodipodi:nodetypes="ccc"
       inkscape:connector-curvature="0" />
    <path
       style="fill:#552200;fill-rule:evenodd;stroke:#000000;stroke-width:3.80309224;stroke-linecap:butt;stroke-linejoin:miter;stroke-miterlimit:4;stroke-opacity:1;stroke-dasharray:none"
       d="m 588.81796,288.42577 c 12.91981,2.6785 13.40771,17.49529 18.10698,28.20021 l -3.70685,-1.17408 c 6.5949,9.18319 3.70688,21.28494 3.06175,24.05895 l -8.0137,-3.47423 c 1.91896,17.73759 -5.88813,17.22133 -9.18345,25.17278 -1.67225,-10.78416 -3.42151,-21.37214 -7.36864,-26.35912 l -1.96025,4.99543 c -4.19709,-6.47901 -5.01107,-13.08441 0.1739,-19.91397 l -7.08494,2.12422 c 2.29178,-14.20713 5.16277,-27.84194 15.9752,-33.63019 z"
       id="path4034"
       sodipodi:nodetypes="ccccccccccc"
       inkscape:connector-curvature="0" />
    <path
       style="opacity:0.08085106;fill:#ffffff;fill-rule:evenodd;stroke:none"
       d="m 182.85764,240.07496 c 1.56929,-20.20995 40.52301,-33.34525 60.21733,-61.59069 l -4.63211,-10.81997 c -10.79229,28.14118 -59.97576,54.25641 -55.58522,72.41066 z"
       id="path4152"
       sodipodi:nodetypes="cccc"
       inkscape:connector-curvature="0" />
    <path
       style="opacity:0.13191486;fill:#ffffff;fill-rule:evenodd;stroke:none"
       d="m 200.45961,165.58352 c 14.44547,0.40816 26.17756,4.57652 36.13039,-31.2115 l -2.54764,-5.20191 c -5.07052,14.52325 -15.6558,38.2525 -33.58275,36.41341 z"
       id="path4154"
       sodipodi:nodetypes="cccc"
       inkscape:connector-curvature="0" />
    <path
       style="opacity:0.20425529;fill:#ffffff;fill-rule:evenodd;stroke:none"
       d="m 262.71422,15.746651 c -29.78674,17.266454 -86.97901,13.062724 -94.98633,42.962666 9.97673,-25.58616 61.19798,-14.122166 94.98633,-42.962666 z"
       id="path4156"
       sodipodi:nodetypes="ccc"
       inkscape:connector-curvature="0" />
    <path
       style="opacity:0.1148936;fill:#ffffff;fill-rule:evenodd;stroke:none"
       d="m 140.2146,76.365209 -7.20586,6.473821 c -5.3654,-14.909415 10.61063,-29.818835 17.68711,-44.728252 -3.52357,12.766785 -18.83782,31.58664 -10.48125,38.254431 z"
       id="path4158"
       sodipodi:nodetypes="cccc"
       inkscape:connector-curvature="0" />
    <path
       style="opacity:0.20851063;fill:#ffffff;fill-rule:evenodd;stroke:none"
       d="m 100.40619,69.868259 c 1.12972,14.14921 4.90599,28.298431 13.4331,42.447641 C 99.15336,95.665455 98.404735,83.451404 100.40619,69.868259 z"
       id="path4160"
       sodipodi:nodetypes="ccc"
       inkscape:connector-curvature="0" />
    <path
       style="opacity:0.4;fill:#ffffff;fill-rule:evenodd;stroke:none"
       d="m 79.947397,188.18584 72.713693,-42.37413 11.79141,-21.7756 -24.89298,26.48384 -54.371493,29.42648 -5.24063,8.23941 z"
       id="path4164"
       sodipodi:nodetypes="cccccc"
       inkscape:connector-curvature="0" />
    <g
       id="g4243"
       transform="matrix(0.8384793,-0.1240757,0.1214227,0.6623021,-87.149633,123.84361)">
      <path
         sodipodi:nodetypes="ccc"
         id="path6248"
         d="m 310.50898,50.406899 c -17.01987,-3.10002 -56.32749,54.671161 -14.4862,68.471321 40.95849,1.7548 39.69686,-59.056661 14.4862,-68.471321 z"
         style="fill:#dbe3db;fill-rule:evenodd;stroke:#000000;stroke-width:4.57042885;stroke-linecap:butt;stroke-linejoin:miter;stroke-miterlimit:4;stroke-opacity:1;stroke-dasharray:none"
         inkscape:connector-curvature="0" />
      <path
         transform="translate(12.778072,-89.446501)"
         d="m 301.39715,177.31206 c 0,11.40605 -3.8286,20.65248 -8.55142,20.65248 -4.72281,0 -8.55141,-9.24643 -8.55141,-20.65248 0,-11.40605 3.8286,-20.65249 8.55141,-20.65249 4.72282,0 8.55142,9.24644 8.55142,20.65249 z"
         sodipodi:ry="20.652483"
         sodipodi:rx="8.5514183"
         sodipodi:cy="177.31206"
         sodipodi:cx="292.84573"
         id="path6252"
         style="fill:#000000;fill-opacity:1;fill-rule:nonzero;stroke:none"
         sodipodi:type="arc" />
      <path
         transform="translate(12.778072,-89.446501)"
         d="m 294.62057,169.08333 c 0,4.90104 -3.53965,8.87411 -7.90603,8.87411 -4.36638,0 -7.90603,-3.97307 -7.90603,-8.87411 0,-4.90104 3.53965,-8.87411 7.90603,-8.87411 4.36638,0 7.90603,3.97307 7.90603,8.87411 z"
         sodipodi:ry="8.8741131"
         sodipodi:rx="7.9060283"
         sodipodi:cy="169.08333"
         sodipodi:cx="286.71454"
         id="path6254"
         style="fill:#dbe3db;fill-opacity:1;fill-rule:nonzero;stroke:none"
         sodipodi:type="arc" />
      <path
         sodipodi:nodetypes="ccc"
         id="path6256"
         d="m 299.16991,99.321229 c 4.03355,7.100901 7.4973,11.536151 13.2305,-0.48405 -4.67908,6.204011 -8.55142,4.536181 -13.2305,0.48405 z"
         style="fill:#dbe3db;fill-rule:evenodd;stroke:#000000;stroke-width:1px;stroke-linecap:butt;stroke-linejoin:miter;stroke-opacity:1"
         inkscape:connector-curvature="0" />
      <path
         transform="translate(11.648639,-91.221324)"
         d="m 308.17376,184.97606 c 0,3.1634 -2.85339,5.72784 -6.37322,5.72784 -3.51984,0 -6.37323,-2.56444 -6.37323,-5.72784 0,-3.1634 2.85339,-5.72784 6.37323,-5.72784 3.51983,0 6.37322,2.56444 6.37322,5.72784 z"
         sodipodi:ry="5.7278371"
         sodipodi:rx="6.3732271"
         sodipodi:cy="184.97606"
         sodipodi:cx="301.80054"
         id="path6258"
         style="opacity:0.53465349;fill:#dbe3db;fill-opacity:1;fill-rule:nonzero;stroke:none"
         sodipodi:type="arc" />
      <path
         sodipodi:nodetypes="cc"
         id="path6260"
         d="m 328.05112,75.603149 c -0.48524,-15.79934 -8.54657,-36.86418 -33.88298,-26.1383"
         style="fill:none;stroke:#000000;stroke-width:4;stroke-linecap:butt;stroke-linejoin:miter;stroke-miterlimit:4;stroke-opacity:1;stroke-dasharray:none"
         inkscape:connector-curvature="0" />
      <path
         sodipodi:nodetypes="ccc"
         id="path6294"
         d="m 272.22488,108.51803 c 15.81228,13.22852 40.29744,19.71667 49.04964,-0.3227 -6.66902,14.21 -32.05437,17.50207 -49.04964,0.3227 z"
         style="fill:#000000;fill-rule:evenodd;stroke:#000000;stroke-width:1px;stroke-linecap:butt;stroke-linejoin:miter;stroke-opacity:1"
         inkscape:connector-curvature="0" />
    </g>
    <path
       style="fill:#000000;fill-rule:evenodd;stroke:#000000;stroke-width:2.53539491;stroke-linecap:butt;stroke-linejoin:miter;stroke-miterlimit:4;stroke-opacity:1;stroke-dasharray:none"
       d="m 153.6193,144.34316 c 14.0152,-8.94976 19.73182,-23.64207 27.05024,-37.22596 l -27.05024,37.22596 z"
       id="path4087"
       sodipodi:nodetypes="ccc"
       inkscape:connector-curvature="0" />
    <path
       style="opacity:0.28085106;fill:#ffffff;fill-rule:evenodd;stroke:none"
       d="m 160.16031,183.06196 c 10.60521,-3.79441 33.62944,-18.42749 22.6973,19.55921 -0.15504,-16.29809 -11.25647,-26.26993 -22.6973,-19.55921 z"
       id="path4166"
       sodipodi:nodetypes="ccc"
       inkscape:connector-curvature="0" />
    <path
       sodipodi:type="arc"
       style="color:#000000;fill:#000000;fill-opacity:1;fill-rule:evenodd;stroke:none;stroke-width:2;marker:none;visibility:visible;display:inline;overflow:visible;enable-background:accumulate"
       id="path4168"
       sodipodi:cx="182.34697"
       sodipodi:cy="226.65375"
       sodipodi:rx="0.046750475"
       sodipodi:ry="2.5975351"
       d="m 182.39372,226.65375 c 0,1.43458 -0.0209,2.59753 -0.0468,2.59753 -0.0258,0 -0.0468,-1.16295 -0.0468,-2.59753 0,-1.43458 0.0209,-2.59754 0.0468,-2.59754 0.0258,0 0.0468,1.16296 0.0468,2.59754 z"
       transform="matrix(-42.415137,0,0,0.7010354,7833.64,62.039564)" />
    <path
       sodipodi:type="arc"
       style="color:#000000;fill:#000000;fill-opacity:1;fill-rule:evenodd;stroke:none;stroke-width:2;marker:none;visibility:visible;display:inline;overflow:visible;enable-background:accumulate"
       id="path4170"
       sodipodi:cx="182.34697"
       sodipodi:cy="226.65375"
       sodipodi:rx="0.046750475"
       sodipodi:ry="2.5975351"
       d="m 182.39372,226.65375 c 0,1.43458 -0.0209,2.59753 -0.0468,2.59753 -0.0258,0 -0.0468,-1.16295 -0.0468,-2.59753 0,-1.43458 0.0209,-2.59754 0.0468,-2.59754 0.0258,0 0.0468,1.16296 0.0468,2.59754 z"
       transform="matrix(-42.415137,0,0,0.7010354,7843.7105,64.120382)" />
    <path
       sodipodi:type="arc"
       style="color:#000000;fill:#000000;fill-opacity:1;fill-rule:evenodd;stroke:none;stroke-width:2;marker:none;visibility:visible;display:inline;overflow:visible;enable-background:accumulate"
       id="path4172"
       sodipodi:cx="182.34697"
       sodipodi:cy="226.65375"
       sodipodi:rx="0.046750475"
       sodipodi:ry="2.5975351"
       d="m 182.39372,226.65375 c 0,1.43458 -0.0209,2.59753 -0.0468,2.59753 -0.0258,0 -0.0468,-1.16295 -0.0468,-2.59753 0,-1.43458 0.0209,-2.59754 0.0468,-2.59754 0.0258,0 0.0468,1.16296 0.0468,2.59754 z"
       transform="matrix(-42.415137,0,0,0.7010354,7842.0892,73.691907)" />
    <path
       style="fill:#000000;fill-rule:evenodd;stroke:#000000;stroke-width:0.73027402px;stroke-linecap:butt;stroke-linejoin:miter;stroke-opacity:1"
       d="m 97.407852,285.90308 c -1.29595,3.21398 0.331207,9.49018 -8.19415,5.13065 6.14488,2.46696 6.368382,-2.31221 8.19415,-5.13065 z"
       id="path4174"
       sodipodi:nodetypes="ccc"
       inkscape:connector-curvature="0" />
    <path
       style="fill:#000000;fill-rule:evenodd;stroke:#000000;stroke-width:0.86726171px;stroke-linecap:butt;stroke-linejoin:miter;stroke-opacity:1"
       d="m 98.596365,286.21041 c 0.110032,4.53981 4.411065,10.7099 -5.844074,11.21772 7.100944,-1.14339 5.263139,-6.78979 5.844074,-11.21772 z"
       id="path4176"
       sodipodi:nodetypes="ccc"
       inkscape:connector-curvature="0" />
    <path
       style="opacity:0.35744683;fill:#000000;fill-rule:evenodd;stroke:#000000;stroke-width:1px;stroke-linecap:butt;stroke-linejoin:miter;stroke-opacity:1"
       d="m 590.93878,357.06122 c 3.58735,-11.18367 4.00364,-22.36735 1.71428,-33.55102 2.85714,3.41476 5.71429,7.62204 8.57143,5.38776 2.27594,-8.75865 -4.38628,-14.53791 -7.34694,-21.55102 l 4.40816,0.2449 c -0.32084,-6.744 -5.84606,-12.44712 -9.06122,-18.61225 5.28789,5.40048 11.23393,6.41324 14.69388,24 l 1.71428,24.4898 c -10.22736,-2.96462 -6.6843,14.06797 -14.69387,19.59183 z"
       id="path4235"
       sodipodi:nodetypes="ccccccccc"
       inkscape:connector-curvature="0" />
    <path
       style="fill:#000000;fill-rule:evenodd;stroke:#000000;stroke-width:1px;stroke-linecap:butt;stroke-linejoin:miter;stroke-opacity:1"
       d="m 329.36745,451.94662 c 0.21622,-10.69643 -0.91569,-22.25953 11.7755,-24.93634 -10.3929,4.19628 -11.34709,14.39902 -11.7755,24.93634 z"
       id="path2239"
       sodipodi:nodetypes="ccc"
       inkscape:connector-curvature="0" />
    <path
       style="fill:#000000;fill-rule:evenodd;stroke:#000000;stroke-width:1px;stroke-linecap:butt;stroke-linejoin:miter;stroke-opacity:1"
       d="m 195.33464,444.67352 c -1.7857,-8.8009 -5.9062,-18.7692 1.03902,-23.20464 -4.97717,7.07333 -2.16649,15.25922 -1.03902,23.20464 z"
       id="path2241"
       sodipodi:nodetypes="ccc"
       inkscape:connector-curvature="0" />
    <path
       style="opacity:0.22127662;fill:#000000;fill-rule:evenodd;stroke:#000000;stroke-width:1px;stroke-linecap:butt;stroke-linejoin:miter;stroke-opacity:1"
       d="m 458.44898,320.81633 0,-11.75511 C 546.92938,126.65595 571.97793,212.08452 586.77551,287.02041 546.728,123.69379 498.32303,243.48952 458.44898,320.81633 z"
       id="path2243"
       sodipodi:nodetypes="cccc"
       inkscape:connector-curvature="0" />
    <path
       style="opacity:0.24680852;fill:#ffffff;fill-opacity:1;fill-rule:evenodd;stroke:none"
       d="m 587.02041,292.40816 c -5.50336,9.36241 -16.67694,31.88212 -3.18367,24.2449 l -9.79592,3.42857 c 5.44259,-18.69213 6.15231,-23.95622 12.97959,-27.67347 z"
       id="path3214"
       sodipodi:nodetypes="cccc"
       inkscape:connector-curvature="0" />
  </g>
</svg>
