<?xml version="1.0" encoding="UTF-8" standalone="no"?>
<!-- Created with Inkscape (http://www.inkscape.org/) -->

<svg
   xmlns:dc="http://purl.org/dc/elements/1.1/"
   xmlns:cc="http://creativecommons.org/ns#"
   xmlns:rdf="http://www.w3.org/1999/02/22-rdf-syntax-ns#"
   xmlns:svg="http://www.w3.org/2000/svg"
   xmlns="http://www.w3.org/2000/svg"
   xmlns:sodipodi="http://sodipodi.sourceforge.net/DTD/sodipodi-0.dtd"
   xmlns:inkscape="http://www.inkscape.org/namespaces/inkscape"
   width="565.95233"
   height="390.63123"
   id="svg2490"
   sodipodi:version="0.32"
   inkscape:version="0.48.3.1 r9886"
   version="1.0"
   sodipodi:docname="mapache.svg"
   inkscape:output_extension="org.inkscape.output.svg.inkscape">
  <defs
     id="defs2492">
    <inkscape:perspective
       sodipodi:type="inkscape:persp3d"
       inkscape:vp_x="0 : 300 : 1"
       inkscape:vp_y="0 : 1000 : 0"
       inkscape:vp_z="800 : 300 : 1"
       inkscape:persp3d-origin="400 : 200 : 1"
       id="perspective2498" />
  </defs>
  <sodipodi:namedview
     id="base"
     pagecolor="#ffffff"
     bordercolor="#666666"
     borderopacity="1.0"
     inkscape:pageopacity="0.0"
     inkscape:pageshadow="2"
     inkscape:zoom="0.42426407"
     inkscape:cx="404.57137"
     inkscape:cy="304.85193"
     inkscape:current-layer="layer1"
     inkscape:document-units="px"
     showgrid="false"
     inkscape:window-width="1022"
     inkscape:window-height="687"
     inkscape:window-x="2"
     inkscape:window-y="48"
     inkscape:window-maximized="0"
     fit-margin-top="0"
     fit-margin-left="0"
     fit-margin-right="0"
     fit-margin-bottom="0" />
  <metadata
     id="metadata2495">
    <rdf:RDF>
      <cc:Work
         rdf:about="">
        <dc:format>image/svg+xml</dc:format>
        <dc:type
           rdf:resource="http://purl.org/dc/dcmitype/StillImage" />
        <dc:title></dc:title>
      </cc:Work>
    </rdf:RDF>
  </metadata>
  <g
     id="layer1"
     inkscape:label="Layer 1"
     inkscape:groupmode="layer"
     transform="translate(-89.408343,-80.502708)">
    <path
       style="fill:#e6e6e6;fill-opacity:1;fill-rule:evenodd;stroke:none;stroke-width:1.16603625px;marker:none;visibility:visible;display:inline;overflow:visible;enable-background:accumulate"
       d="m 385.44658,398.37002 c 16.46936,45.69388 45.21296,-106.27287 21.90527,-47.46141 -18.72468,-37.31024 -51.08381,-65.66134 -72.45034,-88.10135 -187.0047,-196.399959 -412.109607,118.44239 -61.54311,103.98579 27.26271,-1.12425 70.23504,27.37442 112.08818,31.57697 z"
       id="path3315"
       sodipodi:nodetypes="ccssc"
       inkscape:connector-curvature="0" />
    <path
       style="fill:#e6e6e6;fill-opacity:1;fill-rule:evenodd;stroke:none;stroke-width:1.16603625px;marker:none;visibility:visible;display:inline;overflow:visible;enable-background:accumulate"
       d="m 513.18127,335.96875 c 17.12406,19.43171 50.7711,32.60109 50.48944,58.62972 2.18143,9.31004 9.87973,23.59937 24.3277,12.37911 17.70049,1.92207 26.60965,-3.45287 27.51842,-15.46836 24.85908,-6.05913 14.96058,-22.07839 8.76386,-34.2574 -24.38056,-40.90352 -61.58289,-61.83784 -94.91824,-62.16772 -30.0955,34.3832 2.28016,-9.35657 -16.18118,40.88465 z"
       id="path3307"
       sodipodi:nodetypes="ccccccc"
       inkscape:connector-curvature="0" />
    <g
       id="g3309"
       transform="matrix(-0.9701515,0.2424996,0.2424996,0.9701515,425.8243,-45.392246)">
      <path
         sodipodi:nodetypes="ccccccccccc"
         id="path3311"
         d="m 7.7304055,391.16198 c -11.90076,23.00428 -41.3499105,43.93997 -34.7647205,69.12338 0.14136,9.56114 -3.862,25.29079 -20.59963,17.90907 -16.70605,6.15706 -26.65271,3.10302 -30.44811,-8.33345 -25.586405,0.15004 -19.86803,-17.79145 -16.80967,-31.10963 13.73375,-45.59489 44.74908,-74.92591 77.00941,-83.32975 -59.52566,29.47858 -60.59153,52.21205 -72.65788,78.52291 -4.7572,14.52668 -13.110465,36.20824 13.48932,31.60777 5.36561,15.85512 17.18851,11.87558 28.55551,9.29639 15.84077,9.3242 20.73337,-3.35324 18.03121,-17.72345 0.55639,-32.03642 25.4001805,-44.02738 38.1945605,-65.96324 z"
         style="fill:#000000;fill-opacity:1;fill-rule:evenodd;stroke:none;stroke-width:1.16603625px;marker:none;visibility:visible;display:inline;overflow:visible;enable-background:accumulate"
         inkscape:connector-curvature="0" />
      <path
         sodipodi:nodetypes="cccc"
         id="path3313"
         d="m -49.623765,475.93156 c 1.85983,-8.44193 1.31319,-17.64552 9.09134,-17.43449 -8.29498,3.05481 -6.17292,11.6809 -6.57635,18.38464 l -2.51499,-0.95015 z"
         style="fill:#000000;fill-opacity:1;fill-rule:evenodd;stroke:none;stroke-width:1.16603625px;marker:none;visibility:visible;display:inline;overflow:visible;enable-background:accumulate"
         inkscape:connector-curvature="0" />
    </g>
    <path
       style="fill:#ececec;fill-opacity:1;fill-rule:evenodd;stroke:none;stroke-width:1.16603625px;marker:none;visibility:visible;display:inline;overflow:visible;enable-background:accumulate"
       d="m 581.75988,424.11522 c -163.29389,-126.4772 217.83904,-90.82168 9.67594,-1.20682 2.41494,-3.35587 -10.28413,1.5811 -9.67594,1.20682 z"
       id="path3231"
       sodipodi:nodetypes="ccc"
       inkscape:connector-curvature="0" />
    <path
       style="fill:#000000;fill-opacity:1;fill-rule:evenodd;stroke:none;stroke-width:1.16603625px;marker:none;visibility:visible;display:inline;overflow:visible;enable-background:accumulate"
       d="m 581.75988,424.11522 c -173.65816,-126.4772 217.83904,-90.82168 9.67594,-1.20682 184.98784,-100.94902 -155.62906,-108.15188 -9.67594,1.20682 z"
       id="path3233"
       sodipodi:nodetypes="ccc"
       inkscape:connector-curvature="0" />
    <path
       style="fill:#000000;fill-opacity:1;fill-rule:evenodd;stroke:none;stroke-width:1.16603625px;marker:none;visibility:visible;display:inline;overflow:visible;enable-background:accumulate"
       d="m 591.976,421.90327 c -9.71394,-4.58254 -27.47644,-1.09349 -42.4871,-0.36418 l 42.4871,0.36418 z"
       id="path3239"
       sodipodi:nodetypes="ccc"
       inkscape:connector-curvature="0" />
    <path
       style="fill:#000000;fill-opacity:1;fill-rule:evenodd;stroke:none;stroke-width:1.16603625px;marker:none;visibility:visible;display:inline;overflow:visible;enable-background:accumulate"
       d="m 385.44658,398.37002 c -44.61592,-6.1728 -72.17012,-38.04444 -109.49607,-37.57787 -359.981097,4.4997 -101.71779,-283.60711 61.46185,-104.7697 21.65288,23.73057 53.79551,52.82092 69.93949,94.88616 -18.72468,-37.31024 -51.08381,-65.66134 -72.45034,-88.10135 -187.0047,-196.399959 -412.109607,118.44239 -61.54311,103.98579 27.26271,-1.12425 70.23504,27.37442 112.08818,31.57697 z"
       id="path3213"
       sodipodi:nodetypes="csscssc"
       inkscape:connector-curvature="0" />
    <path
       style="fill:#e6e6e6;fill-rule:evenodd;stroke:none"
       d="m 417.39176,278.80378 c -40.06388,64.64609 -44.37059,101.66165 -31.03246,125.04255 111.37771,50.38004 152.13223,36.43612 194.40923,-1.82543 16.15379,-67.03268 -18.2326,-77.9096 -43.81053,-98.5737 l 0,-20.07983 -119.56624,-4.56359 z"
       id="path3207"
       sodipodi:nodetypes="cccccc"
       inkscape:connector-curvature="0" />
    <path
       style="opacity:0.18333333;color:#000000;fill:#000000;fill-opacity:1;fill-rule:evenodd;stroke:none;stroke-width:1px;marker:none;visibility:visible;display:inline;overflow:visible;enable-background:accumulate"
       d="m 405.40789,258.17707 c -170.05516,74.95847 9.14251,152.62446 95.45941,75.42472 -22.14703,45.96618 -67.72748,58.0841 -117.85113,63.63961 l -94.2809,-47.14045 c -49.63099,-122.73966 18.52269,-76.48393 32.99832,-107.24453 l 83.6743,15.32065 z"
       id="path3268"
       transform="translate(89.408343,47.059497)"
       sodipodi:nodetypes="cccccc"
       inkscape:connector-curvature="0" />
    <path
       style="fill:#000000;fill-opacity:1;fill-rule:evenodd;stroke:none;stroke-width:1.16603625px;marker:none;visibility:visible;display:inline;overflow:visible;enable-background:accumulate"
       d="M 386.3593,406.58449 C 482.29001,507.55512 702.28751,379.20704 527.83081,300.70904 692.9563,396.98217 474.66089,493.773 388.18474,402.0209 c -26.05015,-42.75972 21.40162,-92.89473 36.50878,-137.82063 -19.26445,46.33334 -69.45714,87.28786 -38.33422,142.38422 z"
       id="path3205"
       sodipodi:nodetypes="ccccc"
       inkscape:connector-curvature="0" />
    <path
       sodipodi:type="arc"
       style="fill:#e6e6e6;fill-opacity:1;fill-rule:evenodd;stroke:#000000;stroke-width:7;stroke-linecap:square;stroke-linejoin:miter;stroke-miterlimit:4;stroke-opacity:1;stroke-dasharray:none;stroke-dashoffset:0;marker:none;visibility:visible;display:inline;overflow:visible;enable-background:accumulate"
       id="path2393"
       sodipodi:cx="278.8085"
       sodipodi:cy="242.49646"
       sodipodi:rx="130.36879"
       sodipodi:ry="107.13475"
       d="m 409.17729,242.49646 c 0,59.16889 -58.36809,107.13475 -130.36879,107.13475 -72.00069,0 -130.36879,-47.96586 -130.36879,-107.13475 0,-59.16889 58.3681,-107.13475 130.36879,-107.13475 72.0007,0 130.36879,47.96586 130.36879,107.13475 z"
       transform="translate(200.11287,-45.626161)" />
    <path
       style="fill:#e6e6e6;fill-rule:evenodd;stroke:none"
       d="m 593.04809,154.20233 c 47.5197,-35.91203 3.18568,-102.237022 -38.79058,-49.28685 33.72745,29.27228 27.55442,33.16732 38.79058,49.28685 z"
       id="path3169"
       sodipodi:nodetypes="ccc"
       inkscape:connector-curvature="0" />
    <path
       style="fill:#e6e6e6;fill-rule:evenodd;stroke:none"
       d="M 359.66873,151.60968 C 308.62857,97.994165 370.10486,50.92491 407.5865,116.01362 l -47.91777,35.59606 z"
       id="path3167"
       sodipodi:nodetypes="ccc"
       inkscape:connector-curvature="0" />
    <path
       style="fill:#000000;fill-rule:evenodd;stroke:#000000;stroke-width:1px;stroke-linecap:butt;stroke-linejoin:miter;stroke-opacity:1"
       d="m 404.84834,111.90639 c -21.1684,-63.924956 -111.79835,-7.05227 -43.35417,42.44145 -47.10483,-45.70293 4.04237,-100.715472 43.35417,-42.44145 z"
       id="path3165"
       sodipodi:nodetypes="ccc"
       inkscape:connector-curvature="0" />
    <path
       style="fill:#000000;fill-rule:evenodd;stroke:#000000;stroke-width:1px;stroke-linecap:butt;stroke-linejoin:miter;stroke-opacity:1"
       d="m 551.51936,107.19728 c 23.90656,-60.730436 112.71107,-3.40139 44.26689,46.09233 47.10483,-45.70293 -0.84786,-96.151876 -44.26689,-46.09233 z"
       id="path3171"
       sodipodi:nodetypes="ccc"
       inkscape:connector-curvature="0" />
    <path
       sodipodi:type="arc"
       style="fill:#000000;fill-opacity:1;fill-rule:evenodd;stroke:none;stroke-width:7;marker:none;visibility:visible;display:inline;overflow:visible;enable-background:accumulate"
       id="path3173"
       sodipodi:cx="277.69489"
       sodipodi:cy="210.29141"
       sodipodi:rx="33.542439"
       sodipodi:ry="18.254389"
       d="m 311.23732,210.29141 c 0,10.08162 -15.01746,18.25439 -33.54243,18.25439 -18.52498,0 -33.54244,-8.17277 -33.54244,-18.25439 0,-10.08162 15.01746,-18.25439 33.54244,-18.25439 18.52497,0 33.54243,8.17277 33.54243,18.25439 z"
       transform="matrix(1.2298802,0,0,1.4309441,159.01184,-45.115059)" />
    <path
       style="fill:#000000;fill-rule:evenodd;stroke:#000000;stroke-width:1px;stroke-linecap:butt;stroke-linejoin:miter;stroke-opacity:1"
       d="m 355.56149,238.84374 c 70.64994,-18.2006 202.18681,-10.16474 247.34696,2.73816 l 9.12719,-41.98509 c -79.21198,-69.18284 -185.04047,-59.34167 -261.95046,6.38903 l 5.47631,32.8579 z"
       id="path3189"
       sodipodi:nodetypes="ccccc"
       inkscape:connector-curvature="0" />
    <path
       sodipodi:type="arc"
       style="fill:#ffffff;fill-opacity:1;fill-rule:evenodd;stroke:none;stroke-width:1px;marker:none;visibility:visible;display:inline;overflow:visible;enable-background:accumulate"
       id="path3191"
       sodipodi:cx="-52.025005"
       sodipodi:cy="203.44603"
       sodipodi:rx="24.643423"
       sodipodi:ry="24.643423"
       d="m -27.381582,203.44603 c 0,13.61019 -11.033237,24.64342 -24.643423,24.64342 -13.610187,0 -24.643423,-11.03323 -24.643423,-24.64342 0,-13.61019 11.033236,-24.64342 24.643423,-24.64342 13.610186,0 24.643423,11.03323 24.643423,24.64342 z"
       transform="matrix(1.2880805,0,0,1.0555556,522.04668,-14.760765)" />
    <path
       style="fill:#000000;fill-opacity:1;fill-rule:evenodd;stroke:none;stroke-width:1px;marker:none;visibility:visible;display:inline;overflow:visible;enable-background:accumulate"
       d="m 437.46905,207.34897 c 7.94273,-9.22619 12.20075,-26.19031 30.12317,-14.45913 l 0.40165,3.21315 c -14.09245,-7.22039 -21.43748,4.452 -30.52482,11.24598 z"
       id="path3195"
       sodipodi:nodetypes="cccc"
       inkscape:connector-curvature="0" />
    <path
       sodipodi:type="arc"
       style="fill:#ffffff;fill-opacity:1;fill-rule:evenodd;stroke:none;stroke-width:1px;marker:none;visibility:visible;display:inline;overflow:visible;enable-background:accumulate"
       id="path3199"
       sodipodi:cx="-52.025005"
       sodipodi:cy="203.44603"
       sodipodi:rx="24.643423"
       sodipodi:ry="24.643423"
       d="m -27.381582,203.44603 c 0,13.61019 -11.033237,24.64342 -24.643423,24.64342 -13.610187,0 -24.643423,-11.03323 -24.643423,-24.64342 0,-13.61019 11.033236,-24.64342 24.643423,-24.64342 13.610186,0 24.643423,11.03323 24.643423,24.64342 z"
       transform="matrix(1.2748553,0.1841071,-0.150872,1.0447178,629.03757,-3.30035)" />
    <path
       style="fill:#000000;fill-opacity:1;fill-rule:evenodd;stroke:none;stroke-width:1px;marker:none;visibility:visible;display:inline;overflow:visible;enable-background:accumulate"
       d="m 551.79905,207.59977 c -7.94273,-9.22619 -12.20075,-26.19031 -30.12317,-14.45913 l -0.40165,3.21315 c 14.09245,-7.22039 21.43748,4.452 30.52482,11.24598 z"
       id="path3197"
       sodipodi:nodetypes="cccc"
       inkscape:connector-curvature="0" />
    <path
       style="fill:#ececec;fill-opacity:1;fill-rule:evenodd;stroke:none;stroke-width:1.16603625px;marker:none;visibility:visible;display:inline;overflow:visible;enable-background:accumulate"
       d="m 442.32967,471.11044 c 187.91709,-145.54874 -250.68702,-104.51671 -11.13493,-1.3888 -2.77907,-3.86194 11.83483,1.81951 11.13493,1.3888 z"
       id="path3221"
       sodipodi:nodetypes="ccc"
       inkscape:connector-curvature="0" />
    <path
       style="fill:#000000;fill-opacity:1;fill-rule:evenodd;stroke:none;stroke-width:1.16603625px;marker:none;visibility:visible;display:inline;overflow:visible;enable-background:accumulate"
       d="M 442.32967,471.11044 C 642.17381,325.5617 176.48564,366.59373 431.19474,469.72164 218.31252,353.55047 610.29112,345.26149 442.32967,471.11044 z"
       id="path3219"
       sodipodi:nodetypes="ccc"
       inkscape:connector-curvature="0" />
    <path
       style="fill:#000000;fill-opacity:1;fill-rule:evenodd;stroke:none;stroke-width:1.16603625px;marker:none;visibility:visible;display:inline;overflow:visible;enable-background:accumulate"
       d="m 448.00386,378.37635 c -7.72389,6.86847 -11.19988,15.86088 -9.4432,27.46969 3.23212,-8.66103 5.79704,-17.82233 15.1276,-21.90947 l -5.6844,-5.56022 z"
       id="path3223"
       sodipodi:nodetypes="cccc"
       inkscape:connector-curvature="0" />
    <path
       style="fill:#000000;fill-opacity:1;fill-rule:evenodd;stroke:none;stroke-width:1.16603625px;marker:none;visibility:visible;display:inline;overflow:visible;enable-background:accumulate"
       d="m 375.14862,390.42822 c 1.70415,11.21302 5.96162,19.0215 12.40666,23.91339 -8.77251,-3.3755 -15.61815,-8.67802 -18.09106,-18.35316 l 5.6844,-5.56023 z"
       id="path3225"
       sodipodi:nodetypes="cccc"
       inkscape:connector-curvature="0" />
    <path
       style="fill:#e6e6e6;fill-opacity:1;fill-rule:evenodd;stroke:none;stroke-width:1.16603625px;marker:none;visibility:visible;display:inline;overflow:visible;enable-background:accumulate"
       d="m 425.08217,337.6773 c -29.75125,19.43171 -52.14553,32.60109 -50.48944,58.62972 -2.18143,9.31004 -9.87973,23.59937 -24.3277,12.37911 -17.70049,1.92207 -26.60965,-3.45287 -27.51842,-15.46836 -24.85908,-6.05913 -14.96058,-22.07839 -8.76386,-34.2574 24.38056,-40.90352 61.58289,-61.83784 94.91823,-62.16772 30.09551,34.3832 -2.28016,-9.35657 16.18119,40.88465 z"
       id="path3301"
       sodipodi:nodetypes="ccccccc"
       inkscape:connector-curvature="0" />
    <path
       style="fill:#000000;fill-opacity:1;fill-rule:evenodd;stroke:none;stroke-width:1.16603625px;marker:none;visibility:visible;display:inline;overflow:visible;enable-background:accumulate"
       d="m 430.57312,468.56495 c 3.73682,-5.27356 10.56999,-1.25837 16.34446,-0.4192 l -16.34446,0.4192 z"
       id="path3227"
       sodipodi:nodetypes="ccc"
       inkscape:connector-curvature="0" />
    <path
       style="fill:#000000;fill-opacity:1;fill-rule:evenodd;stroke:none;stroke-width:1.16603625px;marker:none;visibility:visible;display:inline;overflow:visible;enable-background:accumulate"
       d="m 549.55939,391.55673 7.28351,-5.46263 0,8.74021 -7.28351,-3.27758 z"
       id="path3255"
       inkscape:connector-curvature="0" />
    <path
       style="fill:#e6e6e6;fill-opacity:1;fill-rule:evenodd;stroke:none;stroke-width:1.16603625px;marker:none;visibility:visible;display:inline;overflow:visible;enable-background:accumulate"
       d="m 404.06887,233.33511 7.28351,-5.46263 0,8.74021 -7.28351,-3.27758 z"
       id="path3257"
       inkscape:connector-curvature="0" />
    <path
       style="fill:#e6e6e6;fill-opacity:1;fill-rule:evenodd;stroke:none;stroke-width:1.16603625px;marker:none;visibility:visible;display:inline;overflow:visible;enable-background:accumulate"
       d="m 382.79236,240.02151 0.39981,-9.0956 6.75514,5.54612 -7.15495,3.54948 z"
       id="path3259"
       inkscape:connector-curvature="0" />
    <path
       style="fill:#e6e6e6;fill-opacity:1;fill-rule:evenodd;stroke:none;stroke-width:1.16603625px;marker:none;visibility:visible;display:inline;overflow:visible;enable-background:accumulate"
       d="m 425.88032,231.86174 2.1888,-3.98298 1.79818,3.9752 -3.98698,0.008 z"
       id="path3261"
       inkscape:connector-curvature="0" />
    <g
       id="g3289"
       transform="matrix(0.9701515,0.2424996,-0.2424996,0.9701515,512.43914,-43.683697)">
      <path
         sodipodi:nodetypes="ccccccccccc"
         id="path3283"
         d="m 7.7304055,391.16198 c -15.3670912,16.99546 -42.6648685,41.66051 -34.7647205,69.12338 0.14136,9.56114 -3.862,25.29079 -20.59963,17.90907 -16.70605,6.15706 -26.65271,3.10302 -30.44811,-8.33345 -25.586405,0.15004 -19.86803,-17.79145 -16.80967,-31.10963 13.73375,-45.59489 44.74908,-74.92591 77.00941,-83.32975 -57.185757,32.01924 -60.333698,52.492 -72.65788,78.52291 -4.7572,14.52668 -13.110465,36.20824 13.48932,31.60777 5.36561,15.85512 17.18851,11.87558 28.55551,9.29639 15.84077,9.3242 20.73337,-3.35324 18.03121,-17.72345 -1.911683,-37.2473 21.9105646,-51.39505 38.1945605,-65.96324 z"
         style="fill:#000000;fill-opacity:1;fill-rule:evenodd;stroke:none;stroke-width:1.16603625px;marker:none;visibility:visible;display:inline;overflow:visible;enable-background:accumulate"
         inkscape:connector-curvature="0" />
      <path
         sodipodi:nodetypes="cccc"
         id="path3285"
         d="m -49.623765,475.93156 c 1.85983,-8.44193 1.31319,-17.64552 9.09134,-17.43449 -8.29498,3.05481 -6.17292,11.6809 -6.57635,18.38464 l -2.51499,-0.95015 z"
         style="fill:#000000;fill-opacity:1;fill-rule:evenodd;stroke:none;stroke-width:1.16603625px;marker:none;visibility:visible;display:inline;overflow:visible;enable-background:accumulate"
         inkscape:connector-curvature="0" />
    </g>
    <path
       style="fill:#e6e6e6;fill-opacity:1;fill-rule:evenodd;stroke:none;stroke-width:1.16603625px;marker:none;visibility:visible;display:inline;overflow:visible;enable-background:accumulate"
       d="m 387.48612,175.56976 7.47429,5.19853 -0.31272,-8.73461 -7.16157,3.53608 z"
       id="path3317"
       inkscape:connector-curvature="0" />
    <path
       style="fill:#000000;fill-opacity:1;fill-rule:evenodd;stroke:none;stroke-width:1.16603625px;marker:none;visibility:visible;display:inline;overflow:visible;enable-background:accumulate"
       d="m 269.66658,363.99658 c -28.59513,-69.08074 29.25869,-102.57763 68.49785,-99.91416 l -52.64199,-47.9702 c -67.53843,33.17956 -79.9204,82.4707 -58.08762,149.42942 l 42.23176,-1.54506 z"
       id="path3319"
       sodipodi:nodetypes="ccccc"
       inkscape:connector-curvature="0" />
    <path
       style="fill:#000000;fill-opacity:1;fill-rule:evenodd;stroke:none;stroke-width:1.16603625px;marker:none;visibility:visible;display:inline;overflow:visible;enable-background:accumulate"
       d="m 138.85113,216.18542 c 36.29344,-18.76946 76.16431,-22.92778 97.33905,-14.4206 -47.58035,-0.21771 -91.21282,116.19235 -46.86695,157.08155 L 120.31036,334.12534 C 109.64517,314.96588 99.172215,261.6633 138.85113,216.18542 z"
       id="path3321"
       sodipodi:nodetypes="ccccc"
       inkscape:connector-curvature="0" />
    <path
       style="fill:#e6e6e6;fill-opacity:1;fill-rule:evenodd;stroke:none;stroke-width:1.16603625px;marker:none;visibility:visible;display:inline;overflow:visible;enable-background:accumulate"
       d="m 530.87829,151.16996 -1.29162,9.01229 7.66542,-4.19912 -6.3738,-4.81317 z"
       id="path3325"
       inkscape:connector-curvature="0" />
    <path
       style="fill:#e6e6e6;fill-opacity:1;fill-rule:evenodd;stroke:none;stroke-width:1.16603625px;marker:none;visibility:visible;display:inline;overflow:visible;enable-background:accumulate"
       d="m 563.35432,166.02572 7.47429,11.37879 -0.31272,-8.99319 -7.16157,-2.3856 z"
       id="path3327"
       inkscape:connector-curvature="0" />
    <path
       style="fill:#e6e6e6;fill-opacity:1;fill-rule:evenodd;stroke:none;stroke-width:1.16603625px;marker:none;visibility:visible;display:inline;overflow:visible;enable-background:accumulate"
       d="m 380.91121,246.05666 1.54507,10.30043 5.66523,7.72532 11.33048,6.69528 c -8.21286,3.1624 -13.87676,8.91573 -18.02576,16.48069 l 5.15022,-19.57082 -18.54077,10.30043 c 4.19425,-6.94082 7.40747,-14.44224 13.81721,-20.11707 -16.82821,1.30681 -20.14608,6.97441 -29.26786,11.87673 6.46846,-10.2098 13.29352,-20.14223 28.32618,-23.69099 z"
       id="path3333"
       sodipodi:nodetypes="cccccccccc"
       inkscape:connector-curvature="0" />
    <path
       style="fill:#000000;fill-opacity:1;fill-rule:evenodd;stroke:none;stroke-width:1.16603625px;marker:none;visibility:visible;display:inline;overflow:visible;enable-background:accumulate"
       d="m 380.91121,246.05666 c -9.75678,5.33084 -21.19024,9.19458 -23.56222,20.98712 8.09901,-7.34348 16.52408,-10.12199 25.10729,-10.68669 -3.82047,5.96494 -9.31878,11.02456 -11.58798,18.54077 5.13635,-4.31957 10.804,-9.12161 17.25321,-10.81545 -2.30041,5.61761 -3.46419,9.25161 -5.27897,19.95708 5.27346,-10.28271 10.04781,-11.99022 15.3219,-10.42918 -9.86524,3.2659 -11.59259,6.68707 -16.73821,13.64807 -2e-5,-6.72558 -0.88078,-13.38057 4.76395,-19.44206 l -18.1545,10.17167 c 3.3699,-7.46144 4.26052,-16.92757 9.78541,-18.41202 -9.63959,0.20385 -16.04085,5.44328 -25.23606,10.17168 6.80219,-17.92849 16.6764,-24.18332 28.32618,-23.69099 z"
       id="path3329"
       sodipodi:nodetypes="ccccccccccccc"
       inkscape:connector-curvature="0" />
    <path
       style="fill:#e6e6e6;fill-opacity:1;fill-rule:evenodd;stroke:none;stroke-width:1.16603625px;marker:none;visibility:visible;display:inline;overflow:visible;enable-background:accumulate"
       d="m 582.83188,245.71441 -1.54507,10.30043 -5.66523,7.72532 -11.33048,6.69528 c 8.21286,3.1624 13.87676,8.91573 18.02576,16.48069 l -5.15022,-19.57082 18.54077,10.30043 c -4.19425,-6.94082 -7.40747,-14.44224 -13.81721,-20.11707 16.82821,1.30681 20.14608,6.97441 29.26786,11.87673 -6.46846,-10.2098 -13.29352,-20.14223 -28.32618,-23.69099 z"
       id="path3335"
       sodipodi:nodetypes="cccccccccc"
       inkscape:connector-curvature="0" />
    <path
       style="fill:#000000;fill-opacity:1;fill-rule:evenodd;stroke:none;stroke-width:1.16603625px;marker:none;visibility:visible;display:inline;overflow:visible;enable-background:accumulate"
       d="m 582.83188,245.71441 c 9.75678,5.33084 21.19024,9.19458 23.56222,20.98712 -8.09901,-7.34348 -16.52408,-10.12199 -25.10729,-10.68669 3.82047,5.96494 9.31878,11.02456 11.58798,18.54077 -5.13635,-4.31957 -10.804,-9.12161 -17.25321,-10.81545 2.30041,5.61761 3.46419,9.25161 5.27897,19.95708 -5.27346,-10.28271 -10.04781,-11.99022 -15.3219,-10.42918 9.86524,3.2659 11.59259,6.68707 16.73821,13.64807 2e-5,-6.72558 0.88078,-13.38057 -4.76395,-19.44206 l 18.1545,10.17167 c -3.3699,-7.46144 -4.26052,-16.92757 -9.78541,-18.41202 9.63959,0.20385 16.04085,5.44328 25.23606,10.17168 -6.80219,-17.92849 -16.6764,-24.18332 -28.32618,-23.69099 z"
       id="path3337"
       sodipodi:nodetypes="ccccccccccccc"
       inkscape:connector-curvature="0" />
    <path
       sodipodi:type="arc"
       style="fill:#e6e6e6;fill-opacity:1;fill-rule:evenodd;stroke:none;stroke-width:1.16603625px;marker:none;visibility:visible;display:inline;overflow:visible;enable-background:accumulate"
       id="path3339"
       sodipodi:cx="447.20709"
       sodipodi:cy="223.98486"
       sodipodi:rx="21.486336"
       sodipodi:ry="5.0984526"
       d="m 468.69343,223.98486 c 0,2.8158 -9.61976,5.09846 -21.48634,5.09846 -11.86657,0 -21.48633,-2.28266 -21.48633,-5.09846 0,-2.81579 9.61976,-5.09845 21.48633,-5.09845 11.86658,0 21.48634,2.28266 21.48634,5.09845 z"
       transform="translate(54.936315,15.732272)" />
    <path
       style="fill:#000000;fill-opacity:1;fill-rule:evenodd;stroke:none;stroke-width:1.16603625px;marker:none;visibility:visible;display:inline;overflow:visible;enable-background:accumulate"
       d="m 413.64011,261.53812 c -8.31971,-4.22961 -4.87685,-11.3489 -3.67837,-17.91682 0.27704,6.30744 -0.33682,12.9295 3.67837,17.91682 z"
       id="path3343"
       sodipodi:nodetypes="ccc"
       inkscape:connector-curvature="0" />
    <path
       style="fill:#000000;fill-opacity:1;fill-rule:evenodd;stroke:none;stroke-width:1.16603625px;marker:none;visibility:visible;display:inline;overflow:visible;enable-background:accumulate"
       d="m 560.25614,261.42167 c 8.31971,-4.22961 4.87685,-11.3489 3.67837,-17.91682 -0.27704,6.30744 0.33682,12.9295 -3.67837,17.91682 z"
       id="path3345"
       sodipodi:nodetypes="ccc"
       inkscape:connector-curvature="0" />
    <path
       style="fill:#000000;fill-rule:evenodd;stroke:#000000;stroke-width:1px;stroke-linecap:butt;stroke-linejoin:miter;stroke-opacity:1"
       d="m 410.37128,254.28413 c 59.42593,30.39066 113.80001,42.73902 152.95357,0.72835 -41.25864,41.15513 -87.83409,33.72119 -152.95357,-0.72835 z"
       id="path3347"
       sodipodi:nodetypes="ccc"
       inkscape:connector-curvature="0" />
    <path
       style="fill:#e6e6e6;fill-opacity:1;fill-rule:evenodd;stroke:none;stroke-width:1.16603625px;marker:none;visibility:visible;display:inline;overflow:visible;enable-background:accumulate"
       d="m 498.95266,94.465164 -1.54507,10.300426 -5.66523,7.72532 -11.33048,6.69528 c 8.21286,3.1624 13.87676,8.91573 18.02576,16.48069 l -3.99142,-20.72961 17.38197,11.45922 c -4.19425,-6.94082 -7.40747,-14.44224 -13.81721,-20.11707 16.82821,1.30681 20.14608,6.97441 29.26786,11.87673 -0.33991,-18.517392 -4.10354,-32.59976 -28.32618,-23.690986 z"
       id="path3355"
       sodipodi:nodetypes="cccccccccc"
       inkscape:connector-curvature="0" />
    <path
       style="fill:#000000;fill-opacity:1;fill-rule:evenodd;stroke:none;stroke-width:1.16603625px;marker:none;visibility:visible;display:inline;overflow:visible;enable-background:accumulate"
       d="m 498.56639,94.336409 c 11.84632,0.385589 26.40919,-11.345796 26.39484,20.343341 -5.4961,-10.02304 -11.64458,-14.933124 -27.93991,-10.04291 4.53942,3.868 12.40331,2.02801 11.58798,18.54076 -4.01139,-8.36941 -10.25626,-11.09346 -17.25321,-10.81544 2.89782,5.50899 8.90342,10.53343 6.56652,19.69956 -4.75843,-14.66038 -10.82034,-14.56532 -16.09443,-13.00428 10.66099,-1.90753 12.53098,8.06627 16.22319,16.48068 4.3777,-9.94446 1.65331,-14.92563 -3.99142,-20.98712 7.15991,-1.2849 11.75731,7.16772 17.38197,11.71673 0.19528,-9.40607 -1.95069,-21.2893 -11.45923,-20.60085 12.08243,-4.1636 18.4301,5.54544 26.90988,12.36052 0.67464,-31.664995 -9.38979,-37.570358 -28.32618,-23.690991 z"
       id="path3357"
       sodipodi:nodetypes="ccccccccccccc"
       inkscape:connector-curvature="0" />
    <path
       style="fill:#e6e6e6;fill-opacity:1;fill-rule:evenodd;stroke:none;stroke-width:1.16603625px;marker:none;visibility:visible;display:inline;overflow:visible;enable-background:accumulate"
       d="m 365.60147,186.00555 7.47429,5.19853 -0.31272,-8.73461 -7.16157,3.53608 z"
       id="path3363"
       inkscape:connector-curvature="0" />
    <path
       style="fill:#e6e6e6;fill-opacity:1;fill-rule:evenodd;stroke:none;stroke-width:1.16603625px;marker:none;visibility:visible;display:inline;overflow:visible;enable-background:accumulate"
       d="m 542.76885,235.8225 7.47429,-5.19853 -0.31272,8.73461 -7.16157,-3.53608 z"
       id="path3365"
       inkscape:connector-curvature="0" />
    <path
       style="fill:#e6e6e6;fill-opacity:1;fill-rule:evenodd;stroke:none;stroke-width:1.16603625px;marker:none;visibility:visible;display:inline;overflow:visible;enable-background:accumulate"
       d="m 255.08065,235.29278 8.76012,-2.47993 -6.95042,-5.29933 -1.8097,7.77926 z"
       id="path3369"
       inkscape:connector-curvature="0" />
    <path
       style="fill:#000000;fill-opacity:1;fill-rule:evenodd;stroke:none;stroke-width:1.16603625px;marker:none;visibility:visible;display:inline;overflow:visible;enable-background:accumulate"
       d="m 431.6184,443.78555 c -49.5774,2.90175 36.00994,-37.09269 -0.18209,14.93118 40.29696,-48.42642 -49.57412,-8.25093 0.18209,-14.93118 z"
       id="path3371"
       sodipodi:nodetypes="ccc"
       inkscape:connector-curvature="0" />
    <path
       style="opacity:0.17083333;fill:#000000;fill-rule:evenodd;stroke:none"
       d="M 241.59482,285.28283 C 149.87126,296.17431 70.928322,275.11421 10.606602,207.50108 -23.235751,306.16359 92.789196,319.88974 181.49074,317.10263 l 37.71236,5.89256 22.39172,-37.71236 z"
       id="path3264"
       transform="translate(89.408343,47.059497)"
       sodipodi:nodetypes="ccccc"
       inkscape:connector-curvature="0" />
    <path
       style="opacity:0.18333333;fill:#000000;fill-rule:evenodd;stroke:none"
       d="M 379.48064,47.223545 C 277.71617,95.729815 281.8166,257.41521 492.61772,235.78535 l -14.14213,-8.24958 c -42.81428,21.28857 -105.02999,59.17815 -173.24116,-2.35702 l -11.78512,11.78511 3.53554,-18.85618 -15.32065,9.42809 3.53554,-14.14213 -18.85619,3.53553 11.78512,-17.67767 c -15.3098,-20.04554 -25.22561,-45.48507 -9.42809,-96.63792 -38.56211,-32.594695 -3.0496,-89.774173 40.06938,-37.712366 24.47085,-12.015017 55.57208,-24.327166 70.71068,-17.677669 z"
       id="path3266"
       transform="translate(89.408343,47.059497)"
       sodipodi:nodetypes="ccccccccccccc"
       inkscape:connector-curvature="0" />
    <path
       style="opacity:0.18333333;color:#000000;fill:#000000;fill-opacity:1;fill-rule:evenodd;stroke:none;stroke-width:1px;marker:none;visibility:visible;display:inline;overflow:visible;enable-background:accumulate"
       d="m 425.08217,337.6773 c -36.73945,7.57289 -59.16693,38.86605 -50.48944,58.62972 -2.18143,9.31004 -9.87973,23.59937 -24.3277,12.37911 -17.70049,1.92207 -26.60965,-3.45287 -27.51842,-15.46836 -24.85908,-6.05913 -14.96058,-22.07839 -8.76386,-34.2574 24.38056,-40.90352 61.58289,-61.83784 94.91823,-62.16772 30.09551,34.3832 -2.28016,-9.35657 16.18119,40.88465 z"
       id="path3270"
       sodipodi:nodetypes="ccccccc"
       inkscape:connector-curvature="0" />
    <path
       style="opacity:0.18333333;color:#000000;fill:#000000;fill-opacity:1;fill-rule:evenodd;stroke:none;stroke-width:1px;marker:none;visibility:visible;display:inline;overflow:visible;enable-background:accumulate"
       d="m 442.32967,471.11044 c 187.91709,-145.54874 -250.68702,-104.51671 -11.13493,-1.3888 -2.77907,-3.86194 11.83483,1.81951 11.13493,1.3888 z"
       id="path3272"
       sodipodi:nodetypes="ccc"
       inkscape:connector-curvature="0" />
    <path
       style="opacity:0.18333333;color:#000000;fill:#000000;fill-opacity:1;fill-rule:evenodd;stroke:none;stroke-width:1px;marker:none;visibility:visible;display:inline;overflow:visible;enable-background:accumulate"
       d="m 287.26213,378.67985 c 16.85316,-34.71254 107.79029,-19.56977 69.23754,41.83715 l -15.61528,1.76777 c -25.96337,-11.27601 -40.20225,-26.05724 -53.62226,-43.60492 z"
       id="path3274"
       transform="translate(89.408343,47.059497)"
       sodipodi:nodetypes="cccc"
       inkscape:connector-curvature="0" />
  </g>
</svg>
