<?xml version="1.0" encoding="UTF-8" standalone="no"?>
<!-- Created with Inkscape (http://www.inkscape.org/) -->

<svg
   xmlns:dc="http://purl.org/dc/elements/1.1/"
   xmlns:cc="http://creativecommons.org/ns#"
   xmlns:rdf="http://www.w3.org/1999/02/22-rdf-syntax-ns#"
   xmlns:svg="http://www.w3.org/2000/svg"
   xmlns="http://www.w3.org/2000/svg"
   xmlns:sodipodi="http://sodipodi.sourceforge.net/DTD/sodipodi-0.dtd"
   xmlns:inkscape="http://www.inkscape.org/namespaces/inkscape"
   width="444.5502"
   height="429.83905"
   id="svg2160"
   sodipodi:version="0.32"
   inkscape:version="0.48.3.1 r9886"
   sodipodi:docname="oso.svg"
   inkscape:output_extension="org.inkscape.output.svg.inkscape"
   sodipodi:modified="true"
   version="1.1">
  <defs
     id="defs2162" />
  <sodipodi:namedview
     id="base"
     pagecolor="#ffffff"
     bordercolor="#666666"
     borderopacity="1.0"
     inkscape:pageopacity="0.0"
     inkscape:pageshadow="2"
     inkscape:zoom="1.0354167"
     inkscape:cx="146.97293"
     inkscape:cy="265.63478"
     inkscape:current-layer="layer1"
     inkscape:document-units="px"
     inkscape:window-width="1022"
     inkscape:window-height="703"
     inkscape:window-x="0"
     inkscape:window-y="48"
     showguides="true"
     inkscape:guide-bbox="true"
     showgrid="false"
     fit-margin-top="0"
     fit-margin-left="0"
     fit-margin-right="0"
     fit-margin-bottom="0"
     inkscape:window-maximized="0" />
  <metadata
     id="metadata2165">
    <rdf:RDF>
      <cc:Work
         rdf:about="">
        <dc:format>image/svg+xml</dc:format>
        <dc:type
           rdf:resource="http://purl.org/dc/dcmitype/StillImage" />
        <dc:title></dc:title>
      </cc:Work>
    </rdf:RDF>
  </metadata>
  <g
     id="layer1"
     inkscape:label="Layer 1"
     inkscape:groupmode="layer"
     transform="translate(-97.724897,-24.672955)">
    <g
       id="g2203"
       transform="translate(-8.5396813,0)">
      <path
         sodipodi:nodetypes="ccc"
         id="path5162"
         d="m 328.75698,199.64158 c 77.31994,0.0529 192.92057,204.91325 -7.04555,205.1299 -179.22537,-2.03756 -72.08762,-205.5751 7.04555,-205.1299 z"
         style="color:#000000;fill:#803300;fill-opacity:1;fill-rule:evenodd;stroke:#000000;stroke-width:4.3466897;stroke-linecap:butt;stroke-linejoin:miter;stroke-miterlimit:4;stroke-opacity:1;stroke-dasharray:none;stroke-dashoffset:0;marker:none;visibility:visible;display:inline;overflow:visible;enable-background:accumulate"
         inkscape:connector-curvature="0" />
      <path
         id="path5158"
         d="M 302.68076,85.706537 278.26922,100.21141 411.28721,125.83668 302.68076,85.706537 z"
         style="color:#000000;fill:#803300;fill-opacity:1;fill-rule:evenodd;stroke:#000000;stroke-width:4.3466897;stroke-linecap:butt;stroke-linejoin:miter;stroke-miterlimit:4;stroke-opacity:1;stroke-dasharray:none;stroke-dashoffset:0;marker:none;visibility:visible;display:inline;overflow:visible;enable-background:accumulate"
         inkscape:connector-curvature="0" />
      <path
         sodipodi:nodetypes="ccc"
         id="path5164"
         d="m 327.5777,249.45503 c 57.29333,0.0394 142.95242,151.83909 -5.22078,151.99961 -132.80449,-1.50981 -53.41633,-152.32935 5.22078,-151.99961 z"
         style="opacity:0.39583333;color:#000000;fill:#ffffff;fill-opacity:1;fill-rule:evenodd;stroke:none;stroke-width:2.22297263;marker:none;visibility:visible;display:inline;overflow:visible;enable-background:accumulate"
         inkscape:connector-curvature="0" />
      <path
         sodipodi:nodetypes="ccc"
         id="path5166"
         d="m 328.22079,221.41143 c 67.83366,0.0465 169.25145,179.77286 -6.18117,179.96291 -157.23652,-1.78757 -63.24332,-180.35339 6.18117,-179.96291 z"
         style="opacity:0.17708333;color:#000000;fill:#000000;fill-opacity:1;fill-rule:evenodd;stroke:none;stroke-width:2.66193581;marker:none;visibility:visible;display:inline;overflow:visible;enable-background:accumulate"
         inkscape:connector-curvature="0" />
      <path
         sodipodi:nodetypes="cccccccccccccccc"
         d="m 409.70274,121.71382 c 31.80479,19.63415 101.46708,-31.418327 48.48256,-75.776605 1.58155,-1.144988 6.32622,-1.889285 13.28896,0.921204 C 438.22371,10.606346 364.91482,21.293877 380.37387,97.996911 373.00614,89.415125 358.808,82.717469 343.01366,81.200741 c 5.73088,-6.998186 11.14934,-7.06326 29.23782,-5.666372 -16.79008,-14.592766 -36.12874,-6.602306 -44.12151,4.304825 -4.06368,-10.863254 6.03984,-12.68985 14.16022,-22.478143 -15.80415,7.530221 -34.52107,8.396743 -40.64547,25.32112 -6.84198,4.379647 -10.89331,5.903199 -14.12751,10.571173 m -0.073,0.08045 C 300.36295,62.645717 251.4181,2.3109446 214.30236,53.261895 c -1.15885,-1.549844 -1.86317,-6.163936 1.12428,-12.883614 -37.78917,31.788955 -25.9633,108.099279 53.39062,85.113969 -36.75004,57.45748 -57.60675,98.23264 57.4572,124.8503 114.52104,-10.44404 125.48009,-64.24198 83.39859,-128.63684"
         style="fill:#803300;fill-rule:evenodd;stroke:#000000;stroke-width:4.3466897;stroke-linecap:butt;stroke-linejoin:miter;stroke-miterlimit:4;stroke-opacity:1;stroke-dasharray:none"
         id="path2178"
         inkscape:connector-curvature="0" />
      <path
         sodipodi:nodetypes="ccccccccccc"
         id="path5232"
         d="m 253.35948,152.91246 c -10.33652,1.95756 -20.21889,5.45779 -27.89891,16.43885 4.07504,-1.4755 7.71202,-1.25046 10.46209,2.41747 -13.17991,3.99544 -13.788,14.96281 -18.43321,23.69131 3.65344,-2.5347 7.30687,-5.3691 10.9603,-2.90097 -6.85185,6.70326 -6.7411,14.25116 -2.98917,22.24079 2.8231,-13.88153 5.64621,-9.49459 8.46931,-7.25244 l 5.48014,18.85634 5.48013,-3.38447 c 0.96616,8.24877 6.76501,11.80745 12.95307,14.98838 0.60501,-6.66529 8.50494,-6.25087 16.93863,-5.31846"
         style="color:#000000;fill:#803300;fill-opacity:1;fill-rule:evenodd;stroke:#000000;stroke-width:4.3466897;stroke-linecap:butt;stroke-linejoin:miter;stroke-miterlimit:4;stroke-opacity:1;stroke-dasharray:none;stroke-dashoffset:0;marker:none;visibility:visible;display:inline;overflow:visible;enable-background:accumulate"
         inkscape:connector-curvature="0" />
      <path
         sodipodi:nodetypes="ccccccccccc"
         id="path5234"
         d="m 428.78857,162.97569 c 9.86573,3.57636 10.55342,8.11872 16.27363,20.17354 -3.77049,-2.10416 -7.39624,-2.46109 -10.72897,0.71943 12.32621,6.03924 11.07256,16.95489 14.17974,26.30458 -3.17559,-3.0819 -6.30052,-6.45945 -10.3216,-4.60628 5.62622,7.70313 4.24137,15.13119 -0.81002,22.4154 -0.43889,-14.14292 -3.96513,-10.26474 -7.12894,-8.50232 l -8.59265,17.72868 -4.83395,-4.21094 c -2.34712,7.98327 -8.66886,10.57073 -15.31071,12.72361 0.52962,-6.67133 -7.33336,-7.52 -15.81042,-7.94264"
         style="color:#000000;fill:#803300;fill-opacity:1;fill-rule:evenodd;stroke:#000000;stroke-width:4.3466897;stroke-linecap:butt;stroke-linejoin:miter;stroke-miterlimit:4;stroke-opacity:1;stroke-dasharray:none;stroke-dashoffset:0;marker:none;visibility:visible;display:inline;overflow:visible;enable-background:accumulate"
         inkscape:connector-curvature="0" />
      <path
         sodipodi:nodetypes="cccccc"
         id="path4178"
         d="m 386.31791,237.58551 c 17.94421,1.6937 13.79319,-30.56382 46.35814,12.55533 l 56.01611,77.26358 c 65.27964,33.69241 -4.37974,23.33577 -25.11067,26.07647 l -23.17908,-5.79477 -20.28169,-74.3662"
         style="color:#000000;fill:#803300;fill-opacity:1;fill-rule:evenodd;stroke:#000000;stroke-width:4.3466897;stroke-linecap:butt;stroke-linejoin:miter;stroke-miterlimit:4;stroke-opacity:1;stroke-dasharray:none;stroke-dashoffset:0;marker:none;visibility:visible;display:inline;overflow:visible;enable-background:accumulate"
         inkscape:connector-curvature="0" />
      <path
         sodipodi:nodetypes="cccccccccccccccc"
         d="m 410.87432,120.71505 c 28.2208,17.4217 90.033,-18.69139 43.01914,-58.051006 15.35287,-2.949944 3.12243,-6.994846 9.30051,-4.501073 -29.50365,-32.166892 -102.02433,-13.980785 -88.30735,54.078719 -6.53747,-7.61471 -19.13573,-13.557618 -33.15013,-14.903436 -4.67065,-4.857027 -5.05327,-6.750751 -1.95592,-13.730767 -13.40348,4.941014 -5.15488,8.163085 -11.25058,12.522648 -3.60581,-9.639091 -15.56495,-10.776356 -8.35961,-19.461627 -14.02325,6.681655 -9.70681,6.967041 -15.14105,21.984233 -6.07101,3.886119 -9.66586,5.237979 -12.53558,9.379929 m -0.0647,0.0714 C 303.89206,80.874179 260.46273,27.338434 227.5294,72.547806 c -1.02827,-1.375193 -1.65317,-5.469339 0.9976,-11.431787 -33.54904,28.174688 -41.62017,81.248721 50.36325,62.468301 -32.60872,50.98272 -54.10422,100.21736 47.9933,123.83551 101.61593,-9.26709 111.53605,-70.74087 74.1966,-127.87921"
         style="opacity:0.17708333;fill:#000000;fill-rule:evenodd;stroke:none"
         id="path5156"
         inkscape:connector-curvature="0" />
      <path
         transform="matrix(-1.1298298,0.1867609,0.174465,0.8796131,632.69482,-69.60088)"
         d="m 286.29385,210.81177 c 0,14.49687 -7.75921,26.2489 -17.33068,26.2489 -9.57148,0 -17.33069,-11.75203 -17.33069,-26.2489 0,-14.49687 7.75921,-26.24891 17.33069,-26.24891 9.57147,0 17.33068,11.75204 17.33068,26.24891 z"
         sodipodi:ry="26.248903"
         sodipodi:rx="17.330681"
         sodipodi:cy="210.81177"
         sodipodi:cx="268.96317"
         id="path5132"
         style="color:#000000;fill:#ffffff;fill-opacity:1;fill-rule:evenodd;stroke:#000000;stroke-width:3;stroke-linecap:butt;stroke-linejoin:miter;stroke-miterlimit:4;stroke-opacity:1;stroke-dasharray:none;stroke-dashoffset:0;marker:none;visibility:visible;display:inline;overflow:visible;enable-background:accumulate"
         sodipodi:type="arc" />
      <path
         transform="matrix(1.1298298,0.1867609,-0.174465,0.8796131,38.966185,-70.581354)"
         d="m 286.29385,210.81177 c 0,14.3507 -7.75921,25.98424 -17.33068,25.98424 -9.57148,0 -17.33069,-11.63354 -17.33069,-25.98424 0,-14.3507 7.75921,-25.98425 17.33069,-25.98425 9.57147,0 17.33068,11.63355 17.33068,25.98425 z"
         sodipodi:ry="25.984243"
         sodipodi:rx="17.330681"
         sodipodi:cy="210.81177"
         sodipodi:cx="268.96317"
         id="path4138"
         style="color:#000000;fill:#ffffff;fill-opacity:1;fill-rule:evenodd;stroke:#000000;stroke-width:3;stroke-linecap:butt;stroke-linejoin:miter;stroke-miterlimit:4;stroke-opacity:1;stroke-dasharray:none;stroke-dashoffset:0;marker:none;visibility:visible;display:inline;overflow:visible;enable-background:accumulate"
         sodipodi:type="arc" />
      <path
         transform="matrix(1.3935498,0,0,1.4844567,-219.43862,-228.18984)"
         d="m 418.63721,287.33685 c 0,6.21524 -9.37151,11.25369 -20.93186,11.25369 -11.56035,0 -20.93186,-5.03845 -20.93186,-11.25369 0,-6.21524 9.37151,-11.25369 20.93186,-11.25369 11.56035,0 20.93186,5.03845 20.93186,11.25369 z"
         sodipodi:ry="11.253689"
         sodipodi:rx="20.931862"
         sodipodi:cy="287.33685"
         sodipodi:cx="397.70535"
         id="path3163"
         style="color:#000000;fill:#000000;fill-opacity:1;fill-rule:evenodd;stroke:#000000;stroke-width:0.41716343;stroke-linecap:butt;stroke-linejoin:miter;stroke-miterlimit:4;stroke-opacity:1;stroke-dasharray:none;stroke-dashoffset:0;marker:none;visibility:visible;display:inline;overflow:visible;enable-background:accumulate"
         sodipodi:type="arc" />
      <path
         transform="matrix(-1.424537,0.1033941,0.06565332,0.919237,739.15543,-57.454089)"
         d="m 277.29088,216.66368 c 0,9.44717 -3.02307,17.10561 -6.75221,17.10561 -3.72915,0 -6.75222,-7.65844 -6.75222,-17.10561 0,-9.44716 3.02307,-17.10561 6.75222,-17.10561 3.72914,0 6.75221,7.65845 6.75221,17.10561 z"
         sodipodi:ry="17.105606"
         sodipodi:rx="6.7522135"
         sodipodi:cy="216.66368"
         sodipodi:cx="270.53867"
         id="path5134"
         style="color:#000000;fill:#000000;fill-opacity:1;fill-rule:evenodd;stroke:none;stroke-width:3;marker:none;visibility:visible;display:inline;overflow:visible;enable-background:accumulate"
         sodipodi:type="arc" />
      <path
         transform="matrix(1.7210974,0,0,1.097971,-103.44898,-47.646833)"
         d="m 265.58706,219.36456 c 0,3.23193 -4.73614,5.85192 -10.57847,5.85192 -5.84233,0 -10.57847,-2.61999 -10.57847,-5.85192 0,-3.23192 4.73614,-5.85192 10.57847,-5.85192 5.84233,0 10.57847,2.62 10.57847,5.85192 z"
         sodipodi:ry="5.8519182"
         sodipodi:rx="10.578467"
         sodipodi:cy="219.36456"
         sodipodi:cx="255.00859"
         id="path4134"
         style="opacity:0.64583333;color:#000000;fill:#ffffff;fill-opacity:1;fill-rule:evenodd;stroke:none;stroke-width:3;marker:none;visibility:visible;display:inline;overflow:visible;enable-background:accumulate"
         sodipodi:type="arc" />
      <path
         transform="matrix(-2.8950503,0,0,3.3153613,1284.2134,-715.01652)"
         d="m 316.87002,265.54376 c 0,1.09871 -0.7838,1.98939 -1.75067,1.98939 -0.96686,0 -1.75066,-0.89068 -1.75066,-1.98939 0,-1.09871 0.7838,-1.98939 1.75066,-1.98939 0.96687,0 1.75067,0.89068 1.75067,1.98939 z"
         sodipodi:ry="1.9893899"
         sodipodi:rx="1.7506632"
         sodipodi:cy="265.54376"
         sodipodi:cx="315.11935"
         id="path5136"
         style="color:#000000;fill:#ffffff;fill-opacity:1;fill-rule:evenodd;stroke:none;stroke-width:3;marker:none;visibility:visible;display:inline;overflow:visible;enable-background:accumulate"
         sodipodi:type="arc" />
      <path
         transform="matrix(1.424537,0.1033941,-0.06565332,0.919237,-64.147787,-57.408913)"
         d="m 277.29088,216.66368 c 0,9.44717 -3.02307,17.10561 -6.75221,17.10561 -3.72915,0 -6.75222,-7.65844 -6.75222,-17.10561 0,-9.44716 3.02307,-17.10561 6.75222,-17.10561 3.72914,0 6.75221,7.65845 6.75221,17.10561 z"
         sodipodi:ry="17.105606"
         sodipodi:rx="6.7522135"
         sodipodi:cy="216.66368"
         sodipodi:cx="270.53867"
         id="path4136"
         style="color:#000000;fill:#000000;fill-opacity:1;fill-rule:evenodd;stroke:none;stroke-width:3;marker:none;visibility:visible;display:inline;overflow:visible;enable-background:accumulate"
         sodipodi:type="arc" />
      <path
         transform="matrix(2.8950503,0,0,3.3153613,-600.73639,-714.48785)"
         d="m 316.87002,265.54376 c 0,1.09871 -0.7838,1.98939 -1.75067,1.98939 -0.96686,0 -1.75066,-0.89068 -1.75066,-1.98939 0,-1.09871 0.7838,-1.98939 1.75066,-1.98939 0.96687,0 1.75067,0.89068 1.75067,1.98939 z"
         sodipodi:ry="1.9893899"
         sodipodi:rx="1.7506632"
         sodipodi:cy="265.54376"
         sodipodi:cx="315.11935"
         id="path4144"
         style="color:#000000;fill:#ffffff;fill-opacity:1;fill-rule:evenodd;stroke:none;stroke-width:3;marker:none;visibility:visible;display:inline;overflow:visible;enable-background:accumulate"
         sodipodi:type="arc" />
      <path
         sodipodi:nodetypes="ccccc"
         id="path5117"
         d="m 443.9515,52.631814 c -32.4045,-17.426393 -52.14056,-1.71636 -47.20509,44.786702 6.44166,-6.251533 12.41366,-13.110822 24.30708,-12.307802 -7.53482,7.255524 -12.67374,14.86876 -8.10236,23.931826 16.63432,11.69416 69.19517,-13.706903 31.00037,-56.410726 z"
         style="opacity:0.41145833;fill:#ffffff;fill-rule:evenodd;stroke:#000000;stroke-width:4.3466897;stroke-linecap:butt;stroke-linejoin:miter;stroke-miterlimit:4;stroke-opacity:1;stroke-dasharray:none"
         inkscape:connector-curvature="0" />
      <path
         sodipodi:nodetypes="ccccc"
         id="path5119"
         d="m 225.70971,55.631259 c 32.40451,-17.426394 52.14057,-1.71636 47.2051,44.786701 -6.44166,-6.251532 -12.41366,-13.110822 -24.30708,-12.307801 7.53482,7.255524 12.67373,14.868761 8.10236,23.931831 -16.63432,11.69416 -69.19517,-13.706908 -31.00038,-56.410731 z"
         style="opacity:0.41666667;fill:#ffffff;fill-rule:evenodd;stroke:#000000;stroke-width:4.3466897;stroke-linecap:butt;stroke-linejoin:miter;stroke-miterlimit:4;stroke-opacity:1;stroke-dasharray:none"
         inkscape:connector-curvature="0" />
      <path
         sodipodi:nodetypes="cccccc"
         id="path5184"
         d="m 305.94789,208.37336 c -3.4558,2.10302 -10.27625,4.62811 -11.0843,11.35489 l 4.15661,-3.73516 c -5.92877,19.71166 23.51916,13.9168 33.2529,10.60786 -12.8444,5.38312 -38.62311,3.05234 -32.94501,-11.35489 2.51019,-5.62904 4.42568,-4.32876 6.6198,-6.8727 z"
         style="fill:#000000;fill-rule:evenodd;stroke:#000000;stroke-width:1.44889665px;stroke-linecap:butt;stroke-linejoin:miter;stroke-opacity:1"
         inkscape:connector-curvature="0" />
      <path
         sodipodi:nodetypes="cccccc"
         id="path5186"
         d="m 363.83254,208.30305 c 3.4558,2.10302 9.66045,3.28345 10.93035,10.30904 l -4.00267,-2.68931 c 5.92878,19.71165 -23.51917,13.91679 -33.25289,10.60786 12.84439,5.38312 38.6231,4.99462 32.945,-9.41262 -2.51018,-5.62903 -4.42568,-6.27103 -6.61979,-8.81497 z"
         style="fill:#000000;fill-rule:evenodd;stroke:#000000;stroke-width:1.44889665px;stroke-linecap:butt;stroke-linejoin:miter;stroke-opacity:1"
         inkscape:connector-curvature="0" />
      <path
         sodipodi:nodetypes="cccc"
         id="path5228"
         d="m 333.19678,225.2563 c 2.48097,-2.73872 1.64779,-7.40727 2.30923,-11.20549 0.56446,3.83476 -1.05507,8.09345 1.69343,11.50429 -1.58475,-1.80156 -2.82356,-1.253 -4.00266,-0.2988 z"
         style="fill:#000000;fill-rule:evenodd;stroke:#000000;stroke-width:1.44889665px;stroke-linecap:butt;stroke-linejoin:miter;stroke-opacity:1"
         inkscape:connector-curvature="0" />
      <path
         sodipodi:nodetypes="ccccccc"
         id="path5230"
         d="m 346.19467,181.00896 c -5.76172,-3.84418 -12.20444,-5.04466 -19.37522,-3.41884 5.31837,-3.73736 11.19531,-6.83008 16.98225,-5.56524 -4.57959,-2.27325 -10.90289,-1.53997 -15.48248,-0.6888 4.46891,-1.8089 11.68613,-3.18627 15.21568,0.93055 -6.37048,-1.59573 -14.80054,5.62357 -19.38256,7.49922 6.21974,-2.40039 15.7921,-1.70964 22.04233,1.24311 z"
         style="fill:none;stroke:#000000;stroke-width:1.44889665px;stroke-linecap:butt;stroke-linejoin:miter;stroke-opacity:1"
         inkscape:connector-curvature="0" />
      <path
         sodipodi:nodetypes="cccccccccccsc"
         id="path5238"
         d="m 322.69088,134.78159 c -2.20417,-3.36583 -3.95805,-6.96807 -10.22589,-8.20075 l -1.0005,5.25137 c -6.73121,-8.82774 -14.74554,-12.59031 -24.68099,-8.76919 l 3.71224,5.67415 c -5.26617,-3.7289 -9.55754,-3.40957 -13.39413,-1.20161 4.02698,1.05897 8.77211,1.39477 10.00496,5.26758 l -8.76478,-5.15632 c 4.56981,-2.45375 8.64165,0.32082 12.87516,1.39783 l -2.76595,-5.10371 c 9.76572,-0.38486 15.80907,2.3033 22.99056,8.13199 0,0 -2.24179,-6.21769 -1.36525,-6.6775 5.67233,-2.9756 15.71152,7.13256 12.61457,9.38616 z"
         style="fill:#000000;fill-rule:evenodd;stroke:#000000;stroke-width:1.44889665px;stroke-linecap:butt;stroke-linejoin:miter;stroke-opacity:1"
         inkscape:connector-curvature="0" />
      <path
         sodipodi:nodetypes="cccccccccccsc"
         id="path5240"
         d="m 349.58254,136.15834 c 2.20418,-3.36583 3.95805,-6.96807 10.2259,-8.20076 l 1.0005,5.25139 c 6.73121,-8.82776 14.74554,-12.59032 24.68099,-8.76921 l -3.71225,5.67416 c 5.26617,-3.7289 9.55755,-3.40957 13.39414,-1.20162 -4.02699,1.05898 -8.77211,1.39478 -10.00496,5.26759 l 8.76478,-5.15632 c -4.56981,-2.45375 -8.64165,0.32081 -12.87516,1.39783 l 2.76595,-5.1037 c -9.76572,-0.38486 -15.80907,2.30328 -22.99056,8.13197 0,0 2.24179,-6.21768 1.36524,-6.6775 -5.67232,-2.97559 -15.71151,7.13256 -12.61457,9.38617 z"
         style="fill:#000000;fill-rule:evenodd;stroke:#000000;stroke-width:1.44889665px;stroke-linecap:butt;stroke-linejoin:miter;stroke-opacity:1"
         inkscape:connector-curvature="0" />
      <path
         sodipodi:nodetypes="ccc"
         id="path5242"
         d="m 364.20779,209.11884 c 7.84328,18.14043 -6.12873,18.98752 -26.27975,16.92235 12.79952,4.56341 48.75575,7.44343 26.27975,-16.92235 z"
         style="opacity:0.30729167;fill:#000000;fill-rule:evenodd;stroke:none"
         inkscape:connector-curvature="0" />
      <path
         sodipodi:nodetypes="cccccc"
         id="path4186"
         d="m 274.40939,232.93063 c -17.94421,1.6937 -13.79319,-30.56382 -46.35814,12.55533 l -56.01611,77.26358 c -65.27964,33.69241 4.37974,23.33577 25.11067,26.07647 l 23.17908,-5.79477 20.28169,-74.3662"
         style="color:#000000;fill:#803300;fill-opacity:1;fill-rule:evenodd;stroke:#000000;stroke-width:4.3466897;stroke-linecap:butt;stroke-linejoin:miter;stroke-miterlimit:4;stroke-opacity:1;stroke-dasharray:none;stroke-dashoffset:0;marker:none;visibility:visible;display:inline;overflow:visible;enable-background:accumulate"
         inkscape:connector-curvature="0" />
      <path
         sodipodi:nodetypes="cccccc"
         id="path3209"
         d="m 247.60273,355.36178 c -29.74805,-33.78866 -41.12461,-10.70492 -59.44994,-4.63716 -70.25286,-33.84808 -98.83162,8.8371 -67.11654,46.83685 l 23.26707,12.32549 c 37.06761,51.25046 87.80525,53.35708 101.90633,6.0901 0.0268,-15.0955 7.56723,-18.41184 13.84795,-22.08576"
         style="color:#000000;fill:#803300;fill-opacity:1;fill-rule:evenodd;stroke:#000000;stroke-width:3.79728603;stroke-linecap:butt;stroke-linejoin:miter;stroke-miterlimit:4;stroke-opacity:1;stroke-dasharray:none;stroke-dashoffset:0;marker:none;visibility:visible;display:inline;overflow:visible;enable-background:accumulate"
         inkscape:connector-curvature="0" />
      <path
         sodipodi:nodetypes="cccccc"
         id="path3235"
         d="m 253.27537,368.33571 c -22.22565,-31.8061 -49.19016,-13.89407 -64.4006,-8.85773 -58.31154,-28.09476 -98.941811,4.59993 -64.16292,40.2433 l 23.89178,10.91416 c 30.76702,42.53916 81.68741,46.68079 93.39157,7.44812 0.0223,-12.52958 10.86062,-22.1199 16.07379,-25.16937"
         style="opacity:0.171875;color:#000000;fill:#000000;fill-opacity:1;fill-rule:evenodd;stroke:#000000;stroke-width:3.15183711;stroke-linecap:butt;stroke-linejoin:miter;stroke-miterlimit:4;stroke-opacity:1;stroke-dasharray:none;stroke-dashoffset:0;marker:none;visibility:visible;display:inline;overflow:visible;enable-background:accumulate"
         inkscape:connector-curvature="0" />
      <path
         sodipodi:nodetypes="ccc"
         id="path3211"
         d="m 181.19671,384.4619 c -55.44152,-40.3626 -84.455146,2.27574 -36.69038,23.00758 43.76843,65.41241 102.2469,31.3652 36.69038,-23.00758 z"
         style="opacity:0.3125;color:#000000;fill:#000000;fill-opacity:1;fill-rule:evenodd;stroke:none;stroke-width:2.62081242;marker:none;visibility:visible;display:inline;overflow:visible;enable-background:accumulate"
         inkscape:connector-curvature="0" />
      <path
         sodipodi:nodetypes="ccc"
         id="path3213"
         d="m 178.14368,347.6763 c 14.65664,10.99501 35.57997,16.72121 41.21638,32.8208 -7.89027,-19.51121 -26.10759,-26.38205 -41.21638,-32.8208 z"
         style="fill:#000000;fill-rule:evenodd;stroke:#000000;stroke-width:1.44889665px;stroke-linecap:butt;stroke-linejoin:miter;stroke-opacity:1"
         inkscape:connector-curvature="0" />
      <path
         sodipodi:nodetypes="cccccccc"
         id="path4188"
         d="m 243.17279,257.89894 c -19.08618,22.66204 -26.39409,48.11197 -55.99944,67.26762 5.33434,2.44487 7.91371,5.17688 6.8292,12.29256 -6.21353,-7.16063 -15.92947,-13.87027 -23.9022,-11.9511 -8.8947,4.89426 -11.70859,9.78852 -15.3657,14.68278 l 34.146,12.29256 28.34118,-19.46322 25.95096,-75.1212 z"
         style="opacity:0.17708333;color:#000000;fill:#000000;fill-opacity:1;fill-rule:evenodd;stroke:none;stroke-width:2.66193581;marker:none;visibility:visible;display:inline;overflow:visible;enable-background:accumulate"
         inkscape:connector-curvature="0" />
      <path
         sodipodi:nodetypes="ccccccccc"
         id="path3215"
         d="m 236.91906,351.62923 c 10.5172,15.49316 8.78979,27.46102 -10.96029,21.27382 -2.18954,5.40245 -4.95182,6.35812 -8.46932,1.45049 l 1.9928,7.73592 c 12.00865,42.57945 -30.03149,85.46599 -74.72922,25.62529 14.69128,21.80215 75.4676,79.55128 99.63895,5.80195 l 15.44404,-19.82334 c -4.46083,-14.12692 -12.70413,-37.431 -12.45487,-40.13016 l -10.46209,-1.93397 z"
         style="opacity:0.1875;fill:#000000;fill-rule:evenodd;stroke:#000000;stroke-width:1.44889665px;stroke-linecap:butt;stroke-linejoin:miter;stroke-opacity:1"
         inkscape:connector-curvature="0" />
      <path
         sodipodi:nodetypes="ccc"
         id="path3217"
         d="m 193.13014,398.68194 c 13.91264,9.64074 20.28451,24.83446 11.36138,42.63005 6.49009,-14.92496 2.08536,-28.78206 -11.36138,-42.63005 z"
         style="fill:#000000;fill-rule:evenodd;stroke:#000000;stroke-width:1.44889665px;stroke-linecap:butt;stroke-linejoin:miter;stroke-opacity:1"
         inkscape:connector-curvature="0" />
      <path
         sodipodi:nodetypes="cccc"
         id="path3221"
         d="m 191.08514,398.28658 c -11.22361,10.31612 -22.21572,21.04411 -45.08661,10.6369 14.8858,16.3134 34.10772,46.09309 58.78696,32.87771 8.68959,-21.74158 -1.45936,-33.19913 -13.70035,-43.51461 z"
         style="opacity:0.16145833;fill:#000000;fill-rule:evenodd;stroke:#000000;stroke-width:1.44889665px;stroke-linecap:butt;stroke-linejoin:miter;stroke-opacity:1"
         inkscape:connector-curvature="0" />
      <path
         sodipodi:nodetypes="ccccccc"
         id="path3229"
         d="m 253.84301,250.51197 c -10.76118,6.21556 -28.67881,31.5776 -34.67015,45.43926 l 8.2539,-2.09902 c -4.36154,5.62209 -13.90823,14.57947 -11.39369,24.56597 2.67997,-5.84119 5.77543,-8.4618 9.38838,-7.07141 -3.83735,7.97415 -10.95267,15.67195 -6.80802,24.31906 2.62172,-2.4305 1.38318,-7.74787 7.94712,-7.2302"
         style="color:#000000;fill:#803300;fill-opacity:1;fill-rule:evenodd;stroke:#000000;stroke-width:3.79728603;stroke-linecap:butt;stroke-linejoin:miter;stroke-miterlimit:4;stroke-opacity:1;stroke-dasharray:none;stroke-dashoffset:0;marker:none;visibility:visible;display:inline;overflow:visible;enable-background:accumulate"
         inkscape:connector-curvature="0" />
      <path
         sodipodi:nodetypes="cccccccc"
         id="path4182"
         d="m 415.8983,263.51435 c 19.08618,22.66204 26.39409,48.11197 55.99944,67.26762 -5.33434,2.44487 -7.91371,5.17688 -6.8292,12.29256 6.21353,-7.16063 15.92947,-13.87027 23.9022,-11.9511 8.8947,4.89426 11.70859,9.78852 15.3657,14.68278 l -34.146,12.29256 -28.34118,-19.46322 -25.95096,-75.1212 z"
         style="opacity:0.17708333;color:#000000;fill:#000000;fill-opacity:1;fill-rule:evenodd;stroke:none;stroke-width:2.66193581;marker:none;visibility:visible;display:inline;overflow:visible;enable-background:accumulate"
         inkscape:connector-curvature="0" />
      <path
         sodipodi:nodetypes="ccccccc"
         id="path3233"
         d="m 413.45251,265.41385 c 9.73598,7.71269 23.74251,35.40225 27.63604,49.983 l -7.85931,-3.27667 c 3.49048,6.19473 11.62214,16.44235 7.66779,25.95318 -1.79434,-6.1668 -4.47267,-9.2089 -8.25191,-8.35941 2.62645,8.44467 8.53714,17.09289 3.16637,25.04189 -2.23743,-2.78515 -0.23121,-7.86383 -6.80242,-8.30675"
         style="color:#000000;fill:#803300;fill-opacity:1;fill-rule:evenodd;stroke:#000000;stroke-width:3.79728603;stroke-linecap:butt;stroke-linejoin:miter;stroke-miterlimit:4;stroke-opacity:1;stroke-dasharray:none;stroke-dashoffset:0;marker:none;visibility:visible;display:inline;overflow:visible;enable-background:accumulate"
         inkscape:connector-curvature="0" />
      <path
         sodipodi:nodetypes="cccccc"
         id="path3239"
         d="m 410.61727,355.2606 c 32.19722,-31.60348 41.8169,-7.77908 59.63995,-0.43614 72.59958,-28.80881 97.90972,15.77737 63.43564,51.44223 l -24.12774,10.65359 c -40.80374,48.50346 -91.56509,47.02959 -102.09298,-1.10621 1.10252,-15.05755 -6.16991,-18.89644 -12.15921,-23.0032"
         style="color:#000000;fill:#803300;fill-opacity:1;fill-rule:evenodd;stroke:#000000;stroke-width:3.79728603;stroke-linecap:butt;stroke-linejoin:miter;stroke-miterlimit:4;stroke-opacity:1;stroke-dasharray:none;stroke-dashoffset:0;marker:none;visibility:visible;display:inline;overflow:visible;enable-background:accumulate"
         inkscape:connector-curvature="0" />
      <path
         sodipodi:nodetypes="cccccc"
         id="path3241"
         d="m 403.98904,367.80058 c 24.54635,-30.15614 50.09973,-10.39149 64.89328,-4.29673 60.25937,-23.91204 98.33659,11.55914 60.98306,44.65797 l -24.6452,9.20197 c -33.86811,40.25907 -84.96397,40.80197 -93.7023,0.84816 0.91506,-12.49808 -9.17721,-22.82675 -14.1485,-26.23548"
         style="opacity:0.171875;color:#000000;fill:#000000;fill-opacity:1;fill-rule:evenodd;stroke:#000000;stroke-width:3.15183711;stroke-linecap:butt;stroke-linejoin:miter;stroke-miterlimit:4;stroke-opacity:1;stroke-dasharray:none;stroke-dashoffset:0;marker:none;visibility:visible;display:inline;overflow:visible;enable-background:accumulate"
         inkscape:connector-curvature="0" />
      <path
         sodipodi:nodetypes="ccc"
         id="path3243"
         d="m 474.6711,388.96283 c 58.31469,-36.34972 84.06205,8.22036 34.8724,25.53204 -48.54631,62.1559 -104.32344,24.0782 -34.8724,-25.53204 z"
         style="opacity:0.3125;color:#000000;fill:#000000;fill-opacity:1;fill-rule:evenodd;stroke:none;stroke-width:2.62081242;marker:none;visibility:visible;display:inline;overflow:visible;enable-background:accumulate"
         inkscape:connector-curvature="0" />
      <path
         sodipodi:nodetypes="ccc"
         id="path3245"
         d="m 480.46795,352.48942 c -15.44047,9.9333 -36.73696,14.17015 -43.56288,29.83012 9.32905,-18.90379 28.0123,-24.47291 43.56288,-29.83012 z"
         style="fill:#000000;fill-rule:evenodd;stroke:#000000;stroke-width:1.44889665px;stroke-linecap:butt;stroke-linejoin:miter;stroke-opacity:1"
         inkscape:connector-curvature="0" />
      <path
         sodipodi:nodetypes="ccccccccc"
         id="path3247"
         d="m 421.55198,352.29066 c -11.64849,14.71123 -10.82093,26.76923 9.33989,21.98992 1.77961,5.54248 4.46313,6.69026 8.33846,2.0434 l -2.56625,7.57511 c -15.16225,41.62095 23.55867,87.35643 72.61503,30.823 -16.28349,20.7095 -81.21955,74.02398 -99.81004,-1.23381 l -13.92034,-20.8592 c 5.50588,-13.77533 15.47075,-36.4371 15.42408,-39.1467 l 10.57917,-1.19172 z"
         style="opacity:0.1875;fill:#000000;fill-rule:evenodd;stroke:#000000;stroke-width:1.44889665px;stroke-linecap:butt;stroke-linejoin:miter;stroke-opacity:1"
         inkscape:connector-curvature="0" />
      <path
         sodipodi:nodetypes="ccc"
         id="path3249"
         d="m 461.70539,402.30453 c -14.59713,8.63502 -22.08881,23.33969 -14.52047,41.71705 -5.35645,-15.34288 0.0733,-28.85305 14.52047,-41.71705 z"
         style="fill:#000000;fill-rule:evenodd;stroke:#000000;stroke-width:1.44889665px;stroke-linecap:butt;stroke-linejoin:miter;stroke-opacity:1"
         inkscape:connector-curvature="0" />
      <path
         sodipodi:nodetypes="cccc"
         id="path3251"
         d="m 463.77456,402.0543 c 10.42227,11.07971 20.58284,22.55387 44.17191,13.78559 -16.06689,15.22152 -37.46586,43.56824 -61.09134,28.64887 -7.04021,-22.29647 3.93907,-33.0087 16.91943,-42.43446 z"
         style="opacity:0.16145833;fill:#000000;fill-rule:evenodd;stroke:#000000;stroke-width:1.44889665px;stroke-linecap:butt;stroke-linejoin:miter;stroke-opacity:1"
         inkscape:connector-curvature="0" />
      <path
         sodipodi:nodetypes="ccc"
         id="path3277"
         d="m 166.31377,354.51727 c 15.44047,9.9333 36.73696,14.17015 43.56288,29.83012 -9.32905,-18.90379 -28.0123,-24.47291 -43.56288,-29.83012 z"
         style="fill:#000000;fill-rule:evenodd;stroke:#000000;stroke-width:1.44889665px;stroke-linecap:butt;stroke-linejoin:miter;stroke-opacity:1"
         inkscape:connector-curvature="0" />
    </g>
  </g>
</svg>
