<?xml version="1.0" encoding="UTF-8" standalone="no"?>
<!-- Created with Inkscape (http://www.inkscape.org/) -->

<svg
   xmlns:dc="http://purl.org/dc/elements/1.1/"
   xmlns:cc="http://creativecommons.org/ns#"
   xmlns:rdf="http://www.w3.org/1999/02/22-rdf-syntax-ns#"
   xmlns:svg="http://www.w3.org/2000/svg"
   xmlns="http://www.w3.org/2000/svg"
   xmlns:sodipodi="http://sodipodi.sourceforge.net/DTD/sodipodi-0.dtd"
   xmlns:inkscape="http://www.inkscape.org/namespaces/inkscape"
   width="360.54968"
   height="425.80164"
   id="svg2"
   version="1.1"
   inkscape:version="0.48.3.1 r9886"
   sodipodi:docname="panda_2.svg"
   inkscape:export-filename="/home/vhzc/Imagenes/foca/PANDITA.png"
   inkscape:export-xdpi="90"
   inkscape:export-ydpi="90">
  <defs
     id="defs4" />
  <sodipodi:namedview
     id="base"
     pagecolor="#ffffff"
     bordercolor="#666666"
     borderopacity="1.0"
     inkscape:pageopacity="0.0"
     inkscape:pageshadow="2"
     inkscape:zoom="0.70710678"
     inkscape:cx="45.454528"
     inkscape:cy="229.74219"
     inkscape:document-units="px"
     inkscape:current-layer="g4923"
     showgrid="false"
     inkscape:window-width="1264"
     inkscape:window-height="715"
     inkscape:window-x="0"
     inkscape:window-y="48"
     inkscape:window-maximized="1"
     fit-margin-top="0"
     fit-margin-left="0"
     fit-margin-right="0"
     fit-margin-bottom="0" />
  <metadata
     id="metadata7">
    <rdf:RDF>
      <cc:Work
         rdf:about="">
        <dc:format>image/svg+xml</dc:format>
        <dc:type
           rdf:resource="http://purl.org/dc/dcmitype/StillImage" />
        <dc:title></dc:title>
      </cc:Work>
    </rdf:RDF>
  </metadata>
  <g
     inkscape:label="Capa 1"
     inkscape:groupmode="layer"
     id="layer1"
     transform="translate(-380.34138,-163.9068)">
    <g
       id="g4923"
       transform="matrix(1.6083869,0,0,1.6083869,139.78341,-487.44638)">
      <path
         sodipodi:nodetypes="cccsscscccsccccscc"
         inkscape:connector-curvature="0"
         id="path4056"
         d="m 368.02586,572.45981 c -3.55457,-1.98855 -7.57956,-2.21162 -11.02126,-0.97356 -0.006,-0.008 -0.0215,-0.007 -0.0273,-0.0153 -1.05717,-1.30123 -2.36257,-2.46755 -3.92989,-3.34437 -6.30512,-3.5273 -14.13231,-1.55717 -17.46895,4.40713 -3.0287,5.41384 -1.31229,12.24067 3.74343,16.09503 -2.01442,5.63599 0.49354,12.20009 6.18287,15.3829 4.48257,2.50771 9.72307,2.23084 13.58371,-0.2785 1.73342,-0.82555 3.55809,-2.09427 5.46017,-3.99952 -0.88795,0.56057 -1.78736,0.99495 -2.654,1.41569 0.38742,-0.4883 0.76581,-0.98485 1.07907,-1.5448 0.69904,-1.24954 1.11704,-2.56438 1.32889,-3.91158 0.0291,-0.004 0.0561,-0.02 0.085,-0.024 1.88278,0.0319 4.02128,-0.27146 6.51389,-1.08253 -1.07584,0.0987 -2.1234,0.14473 -3.11152,0.12131 2.31529,-1.02105 5.14321,-2.43418 5.62112,-5.05532 1.34663,-7.38573 -1.7365,-15.56265 -5.3853,-17.19259 z"
         style="color:#000000;fill:#000000;fill-opacity:1;fill-rule:nonzero;stroke:none;stroke-width:1.83934557;marker:none;visibility:visible;display:inline;overflow:visible;enable-background:accumulate" />
      <g
         transform="matrix(0.78221806,0.62300474,-0.62300474,0.78221806,335.76066,-119.4536)"
         id="g4048">
        <path
           style="fill:#000000;stroke:#000000;stroke-width:1px;stroke-linecap:butt;stroke-linejoin:miter;stroke-opacity:1"
           d="m 319.15711,568.24092 c -13.05126,2.13785 -27.1888,-4.28862 -42.93149,22.72843 -11.91126,121.9558 111.82171,82.94481 42.93149,-22.72843 z"
           id="path3809-4"
           inkscape:connector-curvature="0"
           sodipodi:nodetypes="ccc" />
        <path
           style="fill:#000000;stroke:#000000;stroke-width:1px;stroke-linecap:butt;stroke-linejoin:miter;stroke-opacity:1"
           d="m 297.60498,661.98344 c -0.19,7.5237 2.94159,14.30928 8.75,20.5 -1.84749,-6.161 -3.19709,-12.52116 -1.75,-20 -2.41403,6.9401 -0.12412,13.20821 2,19.5 -7.44789,-6.22188 -8.01598,-13.13174 -9,-20 z"
           id="path3833-31"
           inkscape:connector-curvature="0"
           sodipodi:nodetypes="ccccc" />
        <path
           style="fill:#000000;stroke:#000000;stroke-width:1px;stroke-linecap:butt;stroke-linejoin:miter;stroke-opacity:1"
           d="m 307.79283,661.21957 c 2.69094,7.02859 8.17169,12.10918 15.9007,15.61988 -4.05554,-4.99237 -7.72662,-10.35858 -9.23819,-17.82466 0.4123,7.33639 4.91769,12.25922 9.27883,17.26712 -10.36786,-2.52897 -13.30006,-8.80797 -15.94134,-15.06234 z"
           id="path3833-7-9"
           inkscape:connector-curvature="0"
           sodipodi:nodetypes="ccccc" />
        <path
           style="fill:#000000;stroke:#000000;stroke-width:1px;stroke-linecap:butt;stroke-linejoin:miter;stroke-opacity:1"
           d="m 316.07211,662.55938 c 7.23065,2.08804 14.5879,0.77583 22.04715,-3.2766 -6.428,0.228 -12.92266,-0.0761 -19.79174,-3.36894 6.10315,4.09196 12.74674,3.46305 19.37129,3.00053 -8.266,6.74993 -15.04383,5.30613 -21.6267,3.64501 z"
           id="path3833-7-2-8"
           inkscape:connector-curvature="0"
           sodipodi:nodetypes="ccccc" />
        <path
           style="fill:#000000;stroke:none"
           d="m 339.92283,634.23614 c 2.52114,-9.36696 4.00256,-20.06692 2.16474,-35.02233 l -5.39373,24.17775 z"
           id="path3915-0-7"
           inkscape:connector-curvature="0"
           sodipodi:nodetypes="cccc" />
        <path
           style="fill:#000000;stroke:none"
           d="m 336.6224,644.25308 c 4.17458,-8.75608 7.56783,-19.0113 8.46672,-34.05238 l -9.67995,22.80253 z"
           id="path3915-9-2-7"
           inkscape:connector-curvature="0"
           sodipodi:nodetypes="cccc" />
      </g>
      <path
         sodipodi:nodetypes="cscc"
         inkscape:connector-curvature="0"
         id="path3995-3"
         d="m 175.06523,606.07842 c -4.16399,7.80609 4.37937,17.50994 0.73458,23.12755 -11.25923,17.35348 25.2207,35.30558 62.36082,3.80343 z"
         style="fill:#000000;stroke:#000000;stroke-width:1px;stroke-linecap:butt;stroke-linejoin:miter;stroke-opacity:1" />
      <path
         sodipodi:nodetypes="cscc"
         inkscape:connector-curvature="0"
         id="path3995"
         d="m 253.51535,648.57813 c -17.25135,21.85145 44.77931,30.42252 74.10202,5.25567 7.57731,-6.5034 -7.52867,-7.25969 8.50842,-26.62188 z"
         style="fill:#000000;stroke:#000000;stroke-width:1px;stroke-linecap:butt;stroke-linejoin:miter;stroke-opacity:1" />
      <path
         sodipodi:nodetypes="ccccccccc"
         inkscape:connector-curvature="0"
         id="path3784-3"
         d="m 249.17049,430.76393 c -2.21146,-9.83105 -5.18306,-28.56758 -32.29684,-24.7969 -9.64051,3.00631 -15.95538,7.79416 -22.32357,12.55347 5.26596,0.87029 12.65146,1.09978 13.16602,3.40659 l -15.16719,10.91748 12.76683,-2.27693 c -6.77161,2.98891 -5.51608,8.61234 -4.71082,14.08799 3.24074,-4.69745 4.41656,-7.49849 9.00585,-7.73553 -3.00762,10.98241 11.08636,15.7945 20.24945,12.87343 l -4.12062,7.31386 z"
         style="fill:#000000;stroke:#000000;stroke-width:1px;stroke-linecap:butt;stroke-linejoin:miter;stroke-opacity:1" />
      <path
         sodipodi:nodetypes="ccccccccccc"
         inkscape:connector-curvature="0"
         id="path3829"
         d="m 252.3361,412.43055 c -25.28264,8.71141 -45.94549,24.35252 -67.68022,38.38579 l 12.12183,0.50508 -16.16244,12.12183 14.14214,-3.53553 c -10.24566,44.07148 -22.56147,90.45698 -26.78935,133.3249 l 7.82615,35.87565 c 47.1145,29.666 153.07793,51.56815 183.61806,-45.96194 L 334.15846,457.88741 291.22698,423.03715 z"
         style="fill:#ffffff;stroke:none" />
      <path
         sodipodi:nodetypes="cccccccccc"
         inkscape:connector-curvature="0"
         id="path2985"
         d="m 189.20157,447.78589 c 19.1549,-15.7706 38.52766,-31.16775 64.14469,-35.86042 40.99731,6.29007 63.77877,24.08488 79.29697,46.46702 -23.06168,-30.31846 -51.05151,-40.92429 -80.8122,-44.44671 -28.17545,3.95461 -45.97568,22.89565 -66.16499,38.38579 l 12.6269,-0.50507 -16.66751,12.12183 11.61675,-9.59645 -11.11168,-0.50508 z"
         style="fill:#000000;stroke:none" />
      <path
         sodipodi:nodetypes="ccccccc"
         inkscape:connector-curvature="0"
         id="path2987"
         d="m 183.64573,464.4534 11.61675,-1.01015 c -13.24551,56.77877 -38.18672,117.1171 -22.72843,165.15994 49.97128,21.90593 98.91974,49.94873 160.61426,1.51523 -60.85523,39.91911 -106.83688,24.51868 -157.5838,-3.53553 -20.46488,-55.05331 11.2617,-110.10663 20.70813,-165.15994 z"
         style="fill:#000000;stroke:#000000;stroke-width:1px;stroke-linecap:butt;stroke-linejoin:miter;stroke-opacity:1" />
      <path
         sodipodi:nodetypes="cccc"
         inkscape:connector-curvature="0"
         id="path2989"
         d="m 192.23203,494.2529 c 11.17437,-4.92115 23.18152,-2.90253 35.35534,0.50508 -3.33512,4.82985 -13.02416,8.9537 -22.22335,13.13198 -9.31411,-5.32517 -10.88764,-9.60759 -13.13199,-13.63706 z"
         style="fill:#000000;stroke:#000000;stroke-width:1px;stroke-linecap:butt;stroke-linejoin:miter;stroke-opacity:1" />
      <path
         sodipodi:nodetypes="ccc"
         inkscape:connector-curvature="0"
         id="path2991"
         d="m 186.80246,500.18755 c -7.50095,52.08206 132.63291,11.84526 84.02007,-13.16245 39.71245,25.60858 -84.80029,39.9126 -84.02007,13.16245 z"
         style="fill:#000000;stroke:none" />
      <path
         transform="matrix(0.65353961,0.43763582,-0.56071553,0.8373396,307.2429,-46.133473)"
         d="m 333.92856,471.82648 c 0,7.19942 -13.27156,13.03571 -29.64285,13.03571 -16.3713,0 -29.64286,-5.83629 -29.64286,-13.03571 0,-7.19943 13.27156,-13.03572 29.64286,-13.03572 16.37129,0 29.64285,5.83629 29.64285,13.03572 z"
         sodipodi:ry="13.035714"
         sodipodi:rx="29.642857"
         sodipodi:cy="471.82648"
         sodipodi:cx="304.28571"
         id="path2993"
         style="color:#000000;fill:#000000;fill-opacity:1;fill-rule:nonzero;stroke:#000000;stroke-width:1.83934557;stroke-linecap:butt;stroke-linejoin:miter;stroke-miterlimit:4;stroke-opacity:1;stroke-dasharray:none;stroke-dashoffset:0;marker:none;visibility:visible;display:inline;overflow:visible;enable-background:accumulate"
         sodipodi:type="arc" />
      <path
         sodipodi:nodetypes="sccccsss"
         inkscape:connector-curvature="0"
         id="path2993-3"
         d="m 197.47827,461.13803 c -1.14122,-0.0102 -2.34247,2.4044 -3.58629,2.59903 2.19561,-1.47015 3.41957,-1.79563 0.87647,-1.79099 l -1.93233,10.26897 -3.53642,18.79353 c 1.8806,-0.86273 3.77163,-1.91516 5.625,-3.15625 10.69929,-7.16467 16.09933,-17.87789 12.0625,-23.90625 -1.76611,-2.63741 -5.48181,-2.77188 -9.50893,-2.80804 z"
         style="color:#000000;fill:#000000;fill-opacity:1;fill-rule:nonzero;stroke:#000000;stroke-width:1.6375587;stroke-linecap:butt;stroke-linejoin:miter;stroke-miterlimit:4;stroke-opacity:1;stroke-dasharray:none;stroke-dashoffset:0;marker:none;visibility:visible;display:inline;overflow:visible;enable-background:accumulate" />
      <path
         sodipodi:nodetypes="ccccccccc"
         inkscape:connector-curvature="0"
         id="path3784"
         d="m 289.96428,438.69452 c -0.72827,-10.05036 -3.30619,-28.8451 23.73858,-33.0825 10.09801,0.0877 17.52826,2.84315 25.00128,5.55584 -4.78876,2.35702 -11.7918,4.71405 -11.61675,7.07107 l 17.67767,6.06091 -12.87945,1.51523 c 7.34683,0.9013 7.77245,6.64745 8.5863,12.12183 -4.46151,-3.55857 -6.39763,-5.89947 -10.85914,-4.79822 6.05723,9.64204 -6.04103,18.32702 -15.65737,18.18274 l 6.06092,5.80838 z"
         style="fill:#000000;stroke:#000000;stroke-width:1px;stroke-linecap:butt;stroke-linejoin:miter;stroke-opacity:1" />
      <path
         inkscape:connector-curvature="0"
         id="path3786"
         d="m 289.96429,438.44197 27.02158,24.74874 -17.42513,-20.96066 z"
         style="fill:#000000;stroke:none" />
      <path
         sodipodi:nodetypes="ccccc"
         inkscape:connector-curvature="0"
         id="path3788"
         d="m 333.65338,457.88741 26.76905,125.76399 c -3.24188,21.57733 -12.44123,39.18302 -31.81981,50.00255 19.30914,-16.57365 27.08636,-34.10829 30.30458,-52.02285 z"
         style="fill:#000000;stroke:#000000;stroke-width:1px;stroke-linecap:butt;stroke-linejoin:miter;stroke-opacity:1" />
      <path
         sodipodi:nodetypes="ccc"
         inkscape:connector-curvature="0"
         id="path3809"
         d="m 331.63308,512.94073 c -13.05126,2.13785 -27.1888,-4.28862 -42.93149,22.72843 -11.91126,121.9558 111.82171,82.94481 42.93149,-22.72843 z"
         style="fill:#000000;stroke:#000000;stroke-width:1px;stroke-linecap:butt;stroke-linejoin:miter;stroke-opacity:1" />
      <path
         sodipodi:nodetypes="ccccccccc"
         inkscape:connector-curvature="0"
         id="path3831"
         d="m 179.60512,523.04225 c 41.89611,1.70062 86.70554,20.88115 123.74369,-6.56599 l 39.90102,-18.18275 6.06092,18.18275 -3.53554,-2.02031 3.03046,12.12183 c 11.24227,49.87277 -39.34832,22.63613 -59.09392,33.33504 C 258.76201,546.27678 189.2639,513.2736 174.04929,542.23515 z"
         style="fill:#000000;stroke:none" />
      <path
         sodipodi:nodetypes="ccccc"
         inkscape:connector-curvature="0"
         id="path3833"
         d="m 310.08095,606.68325 c -0.19,7.5237 2.94159,14.30928 8.75,20.5 -1.84749,-6.161 -3.19709,-12.52116 -1.75,-20 -2.41403,6.9401 -0.12412,13.20821 2,19.5 -7.44789,-6.22188 -8.01598,-13.13174 -9,-20 z"
         style="fill:#000000;stroke:#000000;stroke-width:1px;stroke-linecap:butt;stroke-linejoin:miter;stroke-opacity:1" />
      <path
         sodipodi:nodetypes="ccccc"
         inkscape:connector-curvature="0"
         id="path3833-7"
         d="m 320.2688,605.91938 c 2.69094,7.02859 8.17169,12.10918 15.9007,15.61988 -4.05554,-4.99237 -7.72662,-10.35858 -9.23819,-17.82466 0.4123,7.33639 4.91769,12.25922 9.27883,17.26712 -10.36786,-2.52897 -13.30006,-8.80797 -15.94134,-15.06234 z"
         style="fill:#000000;stroke:#000000;stroke-width:1px;stroke-linecap:butt;stroke-linejoin:miter;stroke-opacity:1" />
      <path
         sodipodi:nodetypes="ccc"
         inkscape:connector-curvature="0"
         id="path3853"
         d="m 187.08095,528.68325 c 123.95648,-1.94152 94.22274,77.86928 89,117.25 10.48518,-51.11851 26.11028,-113.03878 -89,-117.25 z"
         style="fill:#000000;stroke:none" />
      <path
         sodipodi:nodetypes="ccccc"
         inkscape:connector-curvature="0"
         id="path3833-7-2"
         d="m 328.54808,607.25919 c 7.23065,2.08804 14.5879,0.77583 22.04715,-3.2766 -6.428,0.228 -12.92266,-0.0761 -19.79174,-3.36894 6.10315,4.09196 12.74674,3.46305 19.37129,3.00053 -8.266,6.74993 -15.04383,5.30613 -21.6267,3.64501 z"
         style="fill:#000000;stroke:#000000;stroke-width:1px;stroke-linecap:butt;stroke-linejoin:miter;stroke-opacity:1" />
      <path
         sodipodi:nodetypes="cccc"
         inkscape:connector-curvature="0"
         id="path3915-0"
         d="m 352.3988,578.93595 c 2.52114,-9.36696 4.00256,-20.06692 2.16474,-35.02233 l -5.39373,24.17775 z"
         style="fill:#000000;stroke:none" />
      <path
         sodipodi:nodetypes="cccc"
         inkscape:connector-curvature="0"
         id="path3915-9-2"
         d="m 349.09837,588.95289 c 4.17458,-8.75608 7.56783,-19.0113 8.46672,-34.05238 l -9.67995,22.80253 z"
         style="fill:#000000;stroke:none" />
      <path
         sodipodi:nodetypes="ccc"
         inkscape:connector-curvature="0"
         id="path4662"
         d="m 194.5,495.23718 c 12.06361,-3.13379 21.10384,-1.22862 30.25,0.5 -9.77442,-1.45402 -20.35932,-6.10646 -30.25,-0.5 z"
         style="fill:#ffffff;stroke:none" />
      <path
         sodipodi:nodetypes="cccc"
         inkscape:connector-curvature="0"
         id="path4664"
         d="m 197.90151,516.02169 c 5.77851,4.79867 6.17961,1.71101 7.77818,-8.13173 -1.1496,6.97701 2.7369,13.99654 7.36135,13.89842 -7.68325,-0.48401 -10.91225,-3.3976 -15.13953,-5.76669 z"
         style="color:#000000;fill:#000000;fill-opacity:1;fill-rule:nonzero;stroke:none;stroke-width:1px;marker:none;visibility:visible;display:inline;overflow:visible;enable-background:accumulate" />
      <path
         sodipodi:nodetypes="ccc"
         inkscape:connector-curvature="0"
         id="path4683"
         d="m 268.25,493.73718 c 0.42791,-4.97805 4.76714,-7.75598 10.5,-9.75 -10.74622,1.89133 -10.0383,5.93032 -10.5,9.75 z"
         style="color:#000000;fill:#000000;fill-opacity:1;fill-rule:nonzero;stroke:none;stroke-width:1px;marker:none;visibility:visible;display:inline;overflow:visible;enable-background:accumulate" />
      <path
         sodipodi:nodetypes="cccccc"
         inkscape:connector-curvature="0"
         id="path4691"
         d="m 299.20452,439.61287 c 0.0496,-11.02103 2.59482,-17.15558 13.7801,-13.40768 l -2.73118,4.59338 c 3.82049,-2.34632 5.54602,2.4303 7.82114,5.33824 -12.14574,-3.266 4.48017,9.65927 -16.88375,6.82797 z"
         style="fill:#ffffff;stroke:none" />
      <path
         sodipodi:nodetypes="cccc"
         inkscape:connector-curvature="0"
         id="path3915-9-2-9"
         d="m 237.31705,467.31844 c 6.80055,6.70878 17.63451,9.41588 28.24723,20.8169 -4.87346,-6.29829 -7.15687,-13.76576 -17.38533,-17.64673 z"
         style="fill:#000000;stroke:none" />
      <path
         sodipodi:nodetypes="ccc"
         inkscape:connector-curvature="0"
         id="path3915-9-2-9-7"
         d="m 220.02275,479.20392 c 5.25119,13.92873 37.03118,18.87683 34.6125,18.45608 -0.084,5.01811 -23.5295,2.94063 -34.6125,-18.45608 z"
         style="fill:#000000;stroke:none" />
      <path
         sodipodi:nodetypes="ccc"
         inkscape:connector-curvature="0"
         id="path4760"
         d="m 274.5,622.36218 c 5.31488,-0.45036 8.7739,3.04296 12.25,6.5 -3.37663,-2.8027 -6.58986,-5.75246 -12.25,-6.5 z"
         style="color:#000000;fill:#000000;fill-opacity:1;fill-rule:nonzero;stroke:none;stroke-width:1px;marker:none;visibility:visible;display:inline;overflow:visible;enable-background:accumulate" />
      <path
         sodipodi:nodetypes="ccc"
         inkscape:connector-curvature="0"
         id="path4768"
         d="m 190.11244,512.5604 c 8.01664,14.25582 36.41995,13.88019 66.38756,6.17678 -22.77754,-8.67003 -44.71879,2.36842 -66.38756,-6.17678 z"
         style="fill:#ffffff;stroke:none" />
      <path
         sodipodi:nodetypes="cccc"
         inkscape:connector-curvature="0"
         id="path4770"
         d="m 220.08699,515.75652 c -3.86622,-0.27176 -4.9999,2.18903 -6.8943,3.88909 5.85156,-3.8089 13.47593,-4.57332 21.47837,-4.33103 -4.13828,-0.41508 -8.36686,-0.75993 -14.58407,0.44194 z"
         style="fill:#000000;stroke:none" />
      <path
         transform="matrix(1,0,0,0.57807294,-0.63388348,201.59026)"
         d="m 248.19448,483.16559 c 0,8.21446 -4.11557,14.87359 -9.19239,14.87359 -5.07682,0 -9.19239,-6.65913 -9.19239,-14.87359 0,-8.21446 4.11557,-14.8736 9.19239,-14.8736 5.07682,0 9.19239,6.65914 9.19239,14.8736 z"
         sodipodi:ry="14.873596"
         sodipodi:rx="9.1923885"
         sodipodi:cy="483.16559"
         sodipodi:cx="239.00209"
         id="path4772"
         style="color:#000000;fill:#ffffff;fill-opacity:1;fill-rule:nonzero;stroke:none;stroke-width:1px;marker:none;visibility:visible;display:inline;overflow:visible;enable-background:accumulate"
         sodipodi:type="arc" />
      <path
         inkscape:connector-curvature="0"
         id="path4772-7"
         d="m 237.5625,475.21875 c -3.41996,0 -6.1875,2.58242 -6.1875,5.78125 0,2.32183 1.45381,4.32637 3.5625,5.25 -0.84378,-0.71732 -1.375,-1.72448 -1.375,-2.875 0,-2.16568 1.87211,-3.9375 4.1875,-3.9375 2.31539,0 4.1875,1.77182 4.1875,3.9375 0,0.94749 -0.37068,1.79092 -0.96875,2.46875 1.67952,-1.03592 2.78125,-2.82124 2.78125,-4.84375 0,-3.19883 -2.76754,-5.78125 -6.1875,-5.78125 z"
         style="color:#000000;fill:#000000;fill-opacity:1;fill-rule:nonzero;stroke:none;stroke-width:1px;marker:none;visibility:visible;display:inline;overflow:visible;enable-background:accumulate" />
      <path
         id="path4772-74"
         d="m 195.65625,468.46875 c -0.7448,0 -1.4806,0.11594 -2.15625,0.3125 l -0.65625,3.4375 -1.5625,8.3125 c 1.21425,0.8757 2.72315,1.40625 4.375,1.40625 3.97225,0 7.1875,-3.03459 7.1875,-6.75 0,-3.71541 -3.21525,-6.71875 -7.1875,-6.71875 z"
         style="color:#000000;fill:#ffffff;fill-opacity:1;fill-rule:nonzero;stroke:none;stroke-width:1px;marker:none;visibility:visible;display:inline;overflow:visible;enable-background:accumulate"
         inkscape:connector-curvature="0" />
      <path
         id="path4772-7-6"
         d="m 195.03125,470.75 c -0.70499,0 -1.39614,0.15388 -2,0.40625 l -0.1875,1.0625 -0.6875,3.71875 c 0.49689,-1.10477 1.64128,-1.875 3,-1.875 1.81163,0 3.28125,1.36801 3.28125,3.0625 0,0.74134 -0.28205,1.40715 -0.75,1.9375 1.3141,-0.81054 2.1875,-2.19878 2.1875,-3.78125 0,-2.50285 -2.16787,-4.53125 -4.84375,-4.53125 z m -3.125,6.4375 -0.25,1.34375 c 0.38369,0.34898 0.82165,0.62875 1.3125,0.84375 -0.64462,-0.54802 -1.04344,-1.31377 -1.0625,-2.1875 z"
         style="color:#000000;fill:#000000;fill-opacity:1;fill-rule:nonzero;stroke:none;stroke-width:1px;marker:none;visibility:visible;display:inline;overflow:visible;enable-background:accumulate"
         inkscape:connector-curvature="0" />
      <path
         sodipodi:nodetypes="cccc"
         inkscape:connector-curvature="0"
         id="path4865"
         d="m 305.125,521.86218 c -6.11754,-0.43221 -13.22863,0.413 -16.25,-4 4.42961,3.37477 11.20129,2.39998 17.125,3 z"
         style="fill:#000000;stroke:none" />
      <path
         inkscape:connector-curvature="0"
         id="path4865-1"
         d="m 301.9639,519.02582 12.57247,-11.04516 -12.2523,12.33478 z"
         style="fill:#000000;stroke:none" />
      <path
         inkscape:connector-curvature="0"
         id="path4865-1-1"
         d="m 343.08209,499.38761 -16.23465,4.06188 16.54057,-5.35495 z"
         style="fill:#000000;stroke:none" />
      <path
         sodipodi:nodetypes="cccc"
         inkscape:connector-curvature="0"
         id="path4865-0"
         d="m 297.64959,521.81018 c -8.13389,5.80935 -14.13383,3.69403 -19.00774,3.6354 6.38118,-0.36473 16.43107,-1.1374 20.0959,-5.3503 z"
         style="fill:#000000;stroke:none" />
    </g>
  </g>
</svg>
