<?xml version="1.0" encoding="UTF-8" standalone="no"?>
<!-- Created with Inkscape (http://www.inkscape.org/) -->

<svg
   xmlns:dc="http://purl.org/dc/elements/1.1/"
   xmlns:cc="http://creativecommons.org/ns#"
   xmlns:rdf="http://www.w3.org/1999/02/22-rdf-syntax-ns#"
   xmlns:svg="http://www.w3.org/2000/svg"
   xmlns="http://www.w3.org/2000/svg"
   xmlns:sodipodi="http://sodipodi.sourceforge.net/DTD/sodipodi-0.dtd"
   xmlns:inkscape="http://www.inkscape.org/namespaces/inkscape"
   width="640px"
   height="480px"
   id="svg9198"
   sodipodi:version="0.32"
   inkscape:version="0.48.3.1 r9886"
   sodipodi:docname="pulpo.svg"
   inkscape:output_extension="org.inkscape.output.svg.inkscape"
   sodipodi:modified="true"
   version="1.1">
  <defs
     id="defs9200" />
  <sodipodi:namedview
     id="base"
     pagecolor="#ffffff"
     bordercolor="#666666"
     borderopacity="1.0"
     inkscape:pageopacity="0.0"
     inkscape:pageshadow="2"
     inkscape:zoom="0.54781349"
     inkscape:cx="772.97097"
     inkscape:cy="199.63389"
     inkscape:current-layer="layer1"
     inkscape:document-units="px"
     inkscape:window-width="1022"
     inkscape:window-height="703"
     inkscape:window-x="0"
     inkscape:window-y="48"
     showgrid="false"
     inkscape:window-maximized="0" />
  <metadata
     id="metadata9203">
    <rdf:RDF>
      <cc:Work
         rdf:about="">
        <dc:format>image/svg+xml</dc:format>
        <dc:type
           rdf:resource="http://purl.org/dc/dcmitype/StillImage" />
        <dc:title></dc:title>
        <dc:date>03/02/2008</dc:date>
        <dc:creator>
          <cc:Agent>
            <dc:title>Vladimir Zúñiga C</dc:title>
          </cc:Agent>
        </dc:creator>
        <cc:license
           rdf:resource="http://creativecommons.org/licenses/by/2.5/" />
      </cc:Work>
      <cc:License
         rdf:about="http://creativecommons.org/licenses/by/2.5/">
        <cc:permits
           rdf:resource="http://web.resource.org/cc/Reproduction" />
        <cc:permits
           rdf:resource="http://web.resource.org/cc/Distribution" />
        <cc:requires
           rdf:resource="http://web.resource.org/cc/Notice" />
        <cc:requires
           rdf:resource="http://web.resource.org/cc/Attribution" />
        <cc:permits
           rdf:resource="http://web.resource.org/cc/DerivativeWorks" />
      </cc:License>
    </rdf:RDF>
  </metadata>
  <g
     id="layer1"
     inkscape:label="Layer 1"
     inkscape:groupmode="layer">
    <path
       style="fill:#c83771;fill-rule:evenodd;stroke:#000000;stroke-width:3.97702909;stroke-linecap:butt;stroke-linejoin:miter;stroke-miterlimit:4;stroke-dasharray:none;stroke-opacity:1"
       d="M 294.62713,261.83211 C 330.68929,339.40129 174.71814,408.86274 346.91459,473.50543 C 217.17969,400.23821 361.82581,342.63889 332.53553,266.8244"
       id="path4335"
       sodipodi:nodetypes="ccc" />
    <path
       style="fill:#c83771;fill-rule:evenodd;stroke:#000000;stroke-width:3.97702909;stroke-linecap:butt;stroke-linejoin:miter;stroke-miterlimit:4;stroke-dasharray:none;stroke-opacity:1"
       d="M 255.41153,231.87834 C 286.49674,356.42377 23.514341,355.18693 122.07849,433.56704 C 65.115164,362.01607 328.44313,366.3338 293.31993,248.85213 L 255.41153,231.87834 z "
       id="path4327"
       sodipodi:nodetypes="cccc" />
    <path
       style="fill:#c83771;fill-rule:evenodd;stroke:#000000;stroke-width:3.97702909;stroke-linecap:butt;stroke-linejoin:miter;stroke-miterlimit:4;stroke-dasharray:none;stroke-opacity:1"
       d="M 358.67928,233.87527 C 443.32943,281.06659 518.67455,414.8479 417.5027,465.51775 C 475.08205,405.6728 417.00941,291.62511 335.14992,267.82287"
       id="path4333"
       sodipodi:nodetypes="ccc" />
    <path
       style="opacity:0.40851063;fill:#000000;fill-rule:evenodd;stroke:#000000;stroke-width:3.97702909;stroke-linecap:butt;stroke-linejoin:miter;stroke-miterlimit:4;stroke-dasharray:none;stroke-opacity:1"
       d="M 255.41153,231.87834 C 286.49674,356.42377 23.514341,355.18693 122.07849,433.56704 C 65.115164,362.01607 328.44313,366.3338 293.31993,248.85213 L 255.41153,231.87834 z "
       id="path5308"
       sodipodi:nodetypes="cccc" />
    <path
       style="opacity:0.40899999;fill:#000000;fill-rule:evenodd;stroke:#000000;stroke-width:3.97702909;stroke-linecap:butt;stroke-linejoin:miter;stroke-miterlimit:4;stroke-dasharray:none;stroke-opacity:1"
       d="M 294.62713,261.83211 C 330.68929,339.40129 174.71814,408.86274 346.91459,473.50543 C 217.17969,400.23821 361.82581,342.63889 332.53553,266.8244"
       id="path6279"
       sodipodi:nodetypes="ccc" />
    <path
       style="opacity:0.40899999;fill:#000000;fill-rule:evenodd;stroke:#000000;stroke-width:3.97702909;stroke-linecap:butt;stroke-linejoin:miter;stroke-miterlimit:4;stroke-dasharray:none;stroke-opacity:1"
       d="M 358.67928,233.87527 C 443.32943,281.06659 518.67455,414.8479 417.5027,465.51775 C 475.08205,405.6728 417.00941,291.62511 335.14992,267.82287"
       id="path6281"
       sodipodi:nodetypes="ccc" />
    <path
       style="opacity:0.6;fill:#000000;fill-rule:evenodd;stroke:#000000;stroke-width:0.99425727px;stroke-linecap:butt;stroke-linejoin:miter;stroke-opacity:1"
       d="M 291.87113,410.30421 L 273.36988,424.50333 L 280.38759,432.89372 C 287.83707,430.17605 294.28017,424.03782 295.061,418.04918 L 291.87113,410.30421 z "
       id="path11181"
       sodipodi:nodetypes="ccccc" />
    <path
       style="opacity:0.59148937;fill:#000000;fill-rule:evenodd;stroke:#000000;stroke-width:0.99425727px;stroke-linecap:butt;stroke-linejoin:miter;stroke-opacity:1"
       d="M 439.50372,429.35113 C 445.6326,426.20313 451.22059,419.22485 458.45059,423.87461 L 463.41287,409.27054 C 454.41132,407.41903 446.93076,414.79978 439.0526,419.76722 L 439.50372,429.35113 z "
       id="path11183"
       sodipodi:nodetypes="ccccc" />
    <path
       style="opacity:0.2595745;fill:#000000;fill-rule:evenodd;stroke:#000000;stroke-width:0.99425727px;stroke-linecap:butt;stroke-linejoin:miter;stroke-opacity:1"
       d="M 157.8965,353.50773 L 294.42303,289.61167 C 266.85223,322.90873 223.87039,367.50495 157.8965,353.50773 z "
       id="path11185"
       sodipodi:nodetypes="ccc" />
    <path
       style="fill:#c83771;fill-rule:evenodd;stroke:#000000;stroke-width:3.97702909;stroke-linecap:butt;stroke-linejoin:miter;stroke-miterlimit:4;stroke-dasharray:none;stroke-opacity:1"
       d="M 394.75658,231.5333 C 407.53301,202.3274 493.17466,167.4605 375.96893,40.837735 C 322.32559,3.0350859 254.2319,7.6634995 215.13717,42.249758 C 150.23353,88.741226 123.76177,176.40892 224.88335,239.93455 C 102.83161,386.77447 -8.4833455,165.75827 137.76475,246.85523 C -34.864134,100.64612 28.503754,453.90963 264.56182,252.84599 C 243.62738,388.16372 -5.4074428,265.74591 12.274803,392.63023 C 48.647694,296.02353 247.32018,413.5329 306.39182,261.83211 C 334.83255,320.40421 269.73232,436.2336 221.49486,404.3373 C 163.45839,365.96154 116.29842,424.43744 111.621,421.58556 C 128.77059,428.57457 185.17171,388.03212 208.61517,426.20986 C 256.23214,503.75426 401.95287,295.19701 336.9979,260.63748 C 339.24391,261.83246 341.23802,263.2355 342.993,264.82753 C 438.84895,286.20631 254.74781,553.72249 448.69231,416.45358 C 470.88928,400.74313 496.96279,451.40775 519.46321,435.56398 C 495.10994,451.31553 481.3204,371.08808 451.08872,390.60985 C 288.81907,495.39368 466.10076,313.58082 386.13017,259.8352 L 388.74456,260.83366 C 449.51793,326.32671 518.86726,349.68281 579.79425,222.32449 C 590.01284,200.96409 603.9161,280.20234 637.11003,239.86601 C 605.51634,248.0353 574.29282,146.71196 551.47475,208.7458 C 528.47548,271.27231 482.54467,329.7468 394.75658,231.5333 z "
       id="path2363"
       sodipodi:nodetypes="ccccccccscsscscsccscsc" />
    <path
       style="fill:#000000;fill-rule:evenodd;stroke:#000000;stroke-width:1px;stroke-linecap:butt;stroke-linejoin:miter;stroke-opacity:1"
       d="M 376.5851,216.35815 C 355.62392,235.96778 332.99356,221.61662 316.24113,220.55319 C 334.87266,222.65849 353.12629,239.19378 376.5851,216.35815 z "
       id="path13183"
       sodipodi:nodetypes="ccc" />
    <path
       style="fill:#000000;fill-rule:evenodd;stroke:#000000;stroke-width:1px;stroke-linecap:butt;stroke-linejoin:miter;stroke-opacity:1"
       d="M 244.42383,217.19221 C 265.38501,236.80184 288.01537,222.45068 304.7678,221.38725 C 286.13627,223.49255 267.88264,240.02784 244.42383,217.19221 z "
       id="path13185"
       sodipodi:nodetypes="ccc" />
    <path
       sodipodi:type="arc"
       style="opacity:1;color:#000000;fill:#ececec;fill-opacity:1;fill-rule:evenodd;stroke:#000000;stroke-width:1.31254268;stroke-linecap:butt;stroke-linejoin:miter;marker:none;marker-start:none;marker-mid:none;marker-end:none;stroke-miterlimit:4;stroke-dasharray:none;stroke-dashoffset:0;stroke-opacity:1;visibility:visible;display:inline;overflow:visible;enable-background:accumulate"
       id="path2375"
       sodipodi:cx="392.32144"
       sodipodi:cy="218.07646"
       sodipodi:rx="9.4642859"
       sodipodi:ry="11.785714"
       d="M 401.78573 218.07646 A 9.4642859 11.785714 0 1 1  382.85716,218.07646 A 9.4642859 11.785714 0 1 1  401.78573 218.07646 z"
       transform="matrix(3.0802586,-1.0646042,1.2945191,2.5331848,-1212.9776,62.399018)" />
    <path
       sodipodi:type="arc"
       style="opacity:1;color:#000000;fill:#ececec;fill-opacity:1;fill-rule:evenodd;stroke:#000000;stroke-width:1.31254268;stroke-linecap:butt;stroke-linejoin:miter;marker:none;marker-start:none;marker-mid:none;marker-end:none;stroke-miterlimit:4;stroke-dasharray:none;stroke-dashoffset:0;stroke-opacity:1;visibility:visible;display:inline;overflow:visible;enable-background:accumulate"
       id="path3346"
       sodipodi:cx="392.32144"
       sodipodi:cy="218.07646"
       sodipodi:rx="9.4642859"
       sodipodi:ry="11.785714"
       d="M 401.78573 218.07646 A 9.4642859 11.785714 0 1 1  382.85716,218.07646 A 9.4642859 11.785714 0 1 1  401.78573 218.07646 z"
       transform="matrix(-3.0802586,-1.0646042,-1.2945191,2.5331848,1834.1602,63.104989)" />
    <path
       sodipodi:type="arc"
       style="opacity:1;color:#000000;fill:#000000;fill-opacity:1;fill-rule:evenodd;stroke:#000000;stroke-width:1.75825489;stroke-linecap:butt;stroke-linejoin:miter;marker:none;marker-start:none;marker-mid:none;marker-end:none;stroke-miterlimit:4;stroke-dasharray:none;stroke-dashoffset:0;stroke-opacity:1;visibility:visible;display:inline;overflow:visible;enable-background:accumulate"
       id="path3348"
       sodipodi:cx="306.25"
       sodipodi:cy="182.18361"
       sodipodi:rx="3.75"
       sodipodi:ry="6.6071429"
       d="M 310 182.18361 A 3.75 6.6071429 0 1 1  302.5,182.18361 A 3.75 6.6071429 0 1 1  310 182.18361 z"
       transform="matrix(2.5372677,-0.3898657,0.5104137,1.9380227,-584.39254,-26.988508)" />
    <path
       sodipodi:type="arc"
       style="opacity:1;color:#000000;fill:#000000;fill-opacity:1;fill-rule:evenodd;stroke:#000000;stroke-width:1.75825489;stroke-linecap:butt;stroke-linejoin:miter;marker:none;marker-start:none;marker-mid:none;marker-end:none;stroke-miterlimit:4;stroke-dasharray:none;stroke-dashoffset:0;stroke-opacity:1;visibility:visible;display:inline;overflow:visible;enable-background:accumulate"
       id="path3350"
       sodipodi:cx="306.25"
       sodipodi:cy="182.18361"
       sodipodi:rx="3.75"
       sodipodi:ry="6.6071429"
       d="M 310 182.18361 A 3.75 6.6071429 0 1 1  302.5,182.18361 A 3.75 6.6071429 0 1 1  310 182.18361 z"
       transform="matrix(-2.5372677,-0.3898657,-0.5104137,1.9380227,1203.2644,-27.341495)" />
    <path
       sodipodi:type="arc"
       style="opacity:1;color:#000000;fill:#ffffff;fill-opacity:1;fill-rule:evenodd;stroke:none;stroke-width:2.38658357;stroke-linecap:butt;stroke-linejoin:miter;marker:none;marker-start:none;marker-mid:none;marker-end:none;stroke-miterlimit:4;stroke-dasharray:none;stroke-dashoffset:0;stroke-opacity:1;visibility:visible;display:inline;overflow:visible;enable-background:accumulate"
       id="path4323"
       sodipodi:cx="307.32144"
       sodipodi:cy="195.93361"
       sodipodi:rx="3.3928571"
       sodipodi:ry="3.5714285"
       d="M 310.7143 195.93361 A 3.3928571 3.5714285 0 1 1  303.92858,195.93361 A 3.3928571 3.5714285 0 1 1  310.7143 195.93361 z"
       transform="matrix(1.7026957,0,0,1.6308995,-183.56745,-115.50442)" />
    <path
       sodipodi:type="arc"
       style="opacity:1;color:#000000;fill:#ffffff;fill-opacity:1;fill-rule:evenodd;stroke:none;stroke-width:2.38658357;stroke-linecap:butt;stroke-linejoin:miter;marker:none;marker-start:none;marker-mid:none;marker-end:none;stroke-miterlimit:4;stroke-dasharray:none;stroke-dashoffset:0;stroke-opacity:1;visibility:visible;display:inline;overflow:visible;enable-background:accumulate"
       id="path4325"
       sodipodi:cx="307.32144"
       sodipodi:cy="195.93361"
       sodipodi:rx="3.3928571"
       sodipodi:ry="3.5714285"
       d="M 310.7143 195.93361 A 3.3928571 3.5714285 0 1 1  303.92858,195.93361 A 3.3928571 3.5714285 0 1 1  310.7143 195.93361 z"
       transform="matrix(1.7026957,0,0,1.6308995,-231.63212,-116.73997)" />
    <path
       style="opacity:0.16595746;fill:#000000;fill-rule:evenodd;stroke:#000000;stroke-width:3.97702909;stroke-linecap:butt;stroke-linejoin:miter;stroke-miterlimit:4;stroke-dasharray:none;stroke-opacity:1"
       d="M 394.75658,231.5333 C 407.53301,202.3274 496.78359,167.4605 375.96893,40.837735 C 409.41422,295.05269 214.07237,254.696 224.88335,239.93455 C 102.83161,386.77447 -8.4833455,165.75827 137.76475,246.85523 C -34.864134,100.64612 28.503754,453.90963 264.56182,252.84599 C 243.62738,388.16372 -5.4074428,265.74591 12.274803,392.63023 C 48.647694,296.02353 247.32018,413.5329 306.39182,261.83211 C 334.83255,320.40421 269.73232,436.2336 221.49486,404.3373 C 163.45839,365.96154 116.29842,424.43744 111.621,421.58556 C 128.77059,428.57457 185.17171,388.03212 208.61517,426.20986 C 256.23214,503.75426 401.95287,295.19701 336.9979,260.63748 C 339.24391,261.83246 341.23802,263.2355 342.993,264.82753 C 438.84895,286.20631 254.74781,553.72249 448.69231,416.45358 C 470.88928,400.74313 496.96279,451.40775 519.46321,435.56398 C 495.10994,451.31553 481.3204,371.08808 451.08872,390.60985 C 288.81907,495.39368 466.10076,313.58082 386.13017,259.8352 L 388.74456,260.83366 C 449.51793,326.32671 518.86726,349.68281 579.79425,222.32449 C 590.01284,200.96409 603.9161,280.20234 637.11003,239.86601 C 605.51634,248.0353 574.29282,146.71196 551.47475,208.7458 C 528.47548,271.27231 482.54467,329.7468 394.75658,231.5333 z "
       id="path10198"
       sodipodi:nodetypes="cccccccscsscscsccscsc" />
    <path
       style="opacity:0.10638296;fill:#000000;fill-rule:evenodd;stroke:none;stroke-width:4;stroke-linecap:butt;stroke-linejoin:miter;stroke-miterlimit:4;stroke-dasharray:none;stroke-opacity:1"
       d="M 307.7913,254.35867 C 302.78042,254.71873 285.91256,258.62391 280.90167,253.67303 C 297.50006,399.30427 3.3992581,280.90589 14.235597,392.13102 C 28.354007,303.38401 283.36121,421.97702 307.7913,254.35867 z "
       id="path7252"
       sodipodi:nodetypes="cccc" />
    <path
       style="opacity:0.16170211;fill:#000000;fill-rule:evenodd;stroke:#000000;stroke-width:3.97702909;stroke-linecap:butt;stroke-linejoin:miter;stroke-miterlimit:4;stroke-dasharray:none;stroke-opacity:1"
       d="M 335.14992,261.33287 C 385.28546,289.44871 314.78136,418.61274 244.30047,441.55472 C 217.2056,445.90725 211.11418,430.09054 199.70067,418.82639 C 183.01328,402.35733 140.37981,418.75285 110.31383,421.58556 C 143.10945,407.99494 203.13455,385.74419 241.03251,429.5732 C 349.23117,374.95667 359.22407,277.74332 324.69241,259.8352 L 335.14992,261.33287 z "
       id="path8223"
       sodipodi:nodetypes="ccscccc" />
    <path
       sodipodi:type="arc"
       style="opacity:0.25531915;color:#000000;fill:#000000;fill-opacity:1;fill-rule:evenodd;stroke:none;stroke-width:4;stroke-linecap:butt;stroke-linejoin:miter;marker:none;marker-start:none;marker-mid:none;marker-end:none;stroke-miterlimit:4;stroke-dasharray:none;stroke-dashoffset:0;stroke-opacity:1;visibility:visible;display:inline;overflow:visible;enable-background:accumulate"
       id="path11169"
       sodipodi:cx="64.803078"
       sodipodi:cy="70.645348"
       sodipodi:rx="9.1271944"
       sodipodi:ry="9.5835533"
       d="M 73.930272 70.645348 A 9.1271944 9.5835533 0 1 1  55.675883,70.645348 A 9.1271944 9.5835533 0 1 1  73.930272 70.645348 z"
       transform="matrix(0.9885099,0,0,1.0000381,315.89791,14.594772)" />
    <path
       sodipodi:type="arc"
       style="opacity:0.25531915;color:#000000;fill:#000000;fill-opacity:1;fill-rule:evenodd;stroke:none;stroke-width:4;stroke-linecap:butt;stroke-linejoin:miter;marker:none;marker-start:none;marker-mid:none;marker-end:none;stroke-miterlimit:4;stroke-dasharray:none;stroke-dashoffset:0;stroke-opacity:1;visibility:visible;display:inline;overflow:visible;enable-background:accumulate"
       id="path11171"
       sodipodi:cx="64.803078"
       sodipodi:cy="70.645348"
       sodipodi:rx="9.1271944"
       sodipodi:ry="9.5835533"
       d="M 73.930272 70.645348 A 9.1271944 9.5835533 0 1 1  55.675883,70.645348 A 9.1271944 9.5835533 0 1 1  73.930272 70.645348 z"
       transform="matrix(0.9885099,0,0,1.0000381,332.13809,36.044498)" />
    <path
       sodipodi:type="arc"
       style="opacity:0.25531915;color:#000000;fill:#000000;fill-opacity:1;fill-rule:evenodd;stroke:none;stroke-width:4;stroke-linecap:butt;stroke-linejoin:miter;marker:none;marker-start:none;marker-mid:none;marker-end:none;stroke-miterlimit:4;stroke-dasharray:none;stroke-dashoffset:0;stroke-opacity:1;visibility:visible;display:inline;overflow:visible;enable-background:accumulate"
       id="path11173"
       sodipodi:cx="64.803078"
       sodipodi:cy="70.645348"
       sodipodi:rx="9.1271944"
       sodipodi:ry="9.5835533"
       d="M 73.930272 70.645348 A 9.1271944 9.5835533 0 1 1  55.675883,70.645348 A 9.1271944 9.5835533 0 1 1  73.930272 70.645348 z"
       transform="matrix(0.9885099,0,0,1.0000381,314.09346,46.084794)" />
    <path
       sodipodi:type="arc"
       style="opacity:0.25531915;color:#000000;fill:#000000;fill-opacity:1;fill-rule:evenodd;stroke:none;stroke-width:4;stroke-linecap:butt;stroke-linejoin:miter;marker:none;marker-start:none;marker-mid:none;marker-end:none;stroke-miterlimit:4;stroke-dasharray:none;stroke-dashoffset:0;stroke-opacity:1;visibility:visible;display:inline;overflow:visible;enable-background:accumulate"
       id="path11175"
       sodipodi:cx="64.803078"
       sodipodi:cy="70.645348"
       sodipodi:rx="9.1271944"
       sodipodi:ry="9.5835533"
       d="M 73.930272 70.645348 A 9.1271944 9.5835533 0 1 1  55.675883,70.645348 A 9.1271944 9.5835533 0 1 1  73.930272 70.645348 z"
       transform="matrix(0.9885099,0,0,1.0000381,143.57158,122.75614)" />
    <path
       sodipodi:type="arc"
       style="opacity:0.25531915;color:#000000;fill:#000000;fill-opacity:1;fill-rule:evenodd;stroke:none;stroke-width:4;stroke-linecap:butt;stroke-linejoin:miter;marker:none;marker-start:none;marker-mid:none;marker-end:none;stroke-miterlimit:4;stroke-dasharray:none;stroke-dashoffset:0;stroke-opacity:1;visibility:visible;display:inline;overflow:visible;enable-background:accumulate"
       id="path11177"
       sodipodi:cx="64.803078"
       sodipodi:cy="70.645348"
       sodipodi:rx="9.1271944"
       sodipodi:ry="9.5835533"
       d="M 73.930272 70.645348 A 9.1271944 9.5835533 0 1 1  55.675883,70.645348 A 9.1271944 9.5835533 0 1 1  73.930272 70.645348 z"
       transform="matrix(0.9885099,0,0,1.0000381,121.91801,108.15208)" />
    <path
       sodipodi:type="arc"
       style="opacity:0.25531915;color:#000000;fill:#000000;fill-opacity:1;fill-rule:evenodd;stroke:none;stroke-width:4;stroke-linecap:butt;stroke-linejoin:miter;marker:none;marker-start:none;marker-mid:none;marker-end:none;stroke-miterlimit:4;stroke-dasharray:none;stroke-dashoffset:0;stroke-opacity:1;visibility:visible;display:inline;overflow:visible;enable-background:accumulate"
       id="path11179"
       sodipodi:cx="64.803078"
       sodipodi:cy="70.645348"
       sodipodi:rx="9.1271944"
       sodipodi:ry="9.5835533"
       d="M 73.930272 70.645348 A 9.1271944 9.5835533 0 1 1  55.675883,70.645348 A 9.1271944 9.5835533 0 1 1  73.930272 70.645348 z"
       transform="matrix(0.9885099,0,0,1.0000381,154.39837,88.071492)" />
    <path
       style="opacity:0.28085106;fill:#000000;fill-opacity:1;fill-rule:evenodd;stroke:#000000;stroke-width:0.99425727px;stroke-linecap:butt;stroke-linejoin:miter;stroke-opacity:1"
       d="M 263.16229,249.59596 C 57.2833,441.91847 -42.524848,146.85485 135.5674,246.36888 C 9.3215028,155.11261 75.532858,413.41071 234.45344,246.36888 L 263.16229,249.59596 z "
       id="path11193"
       sodipodi:nodetypes="cccc" />
    <path
       style="opacity:0.32765958;fill:#ffffff;fill-rule:evenodd;stroke:none;stroke-width:1px;stroke-linecap:butt;stroke-linejoin:miter;stroke-opacity:1"
       d="M 43.699076,227.00645 L 41.785152,234.75142 C 47.268527,211.93473 82.092486,211.3339 104.30665,225.71562 C 83.244397,209.34728 48.30785,207.97872 43.699076,227.00645 z "
       id="path11197"
       sodipodi:nodetypes="cccc" />
    <path
       style="opacity:0.16170211;fill:#000000;fill-rule:evenodd;stroke:#000000;stroke-width:0.99425727px;stroke-linecap:butt;stroke-linejoin:miter;stroke-opacity:1"
       d="M 385.0154,261.85883 C 471.35461,298.2172 279.84551,518.91736 460.29639,388.36011 C 476.03754,389.74869 484.28078,422.4936 517.71409,440.6387 C 494.84967,440.02646 478.54185,414.50374 455.19259,412.24045 C 276.57572,539.79202 451.08437,290.73354 367.15212,261.85883 L 385.0154,261.85883 z "
       id="path11199"
       sodipodi:nodetypes="cccccc" />
    <path
       style="opacity:0.18723402;fill:#000000;fill-rule:evenodd;stroke:#000000;stroke-width:0.99425727px;stroke-linecap:butt;stroke-linejoin:miter;stroke-opacity:1"
       d="M 632.54949,241.85098 C 617.30492,269.61549 600.32161,241.09123 583.42546,215.38898 C 541.12478,277.76132 509.60161,376.18687 388.84325,259.27717 C 451.0059,304.69805 515.42764,336.58354 581.51154,208.93484 C 598.52419,223.63033 615.53684,247.73672 632.54949,241.85098 z "
       id="path12172"
       sodipodi:nodetypes="ccccc" />
    <path
       style="opacity:0.14042556;fill:#ffffff;fill-rule:evenodd;stroke:none;stroke-width:1px;stroke-linecap:butt;stroke-linejoin:miter;stroke-opacity:1"
       d="M 540.04319,248.95054 C 553.02315,225.23787 567.29352,189.26439 582.14951,199.25362 C 558.11179,178.72745 552.88302,226.15955 539.40522,243.78722 L 540.04319,248.95054 z "
       id="path13143"
       sodipodi:nodetypes="cccc" />
    <path
       style="opacity:0.41702127;fill:#ffffff;fill-rule:evenodd;stroke:none;stroke-width:1px;stroke-linecap:butt;stroke-linejoin:miter;stroke-opacity:1"
       d="M 217.55462,219.87405 C 126.51022,146.83559 188.60512,51.580763 274.39524,24.544662 C 195.75666,69.278131 158.76661,151.73048 217.55462,219.87405 z "
       id="path13147"
       sodipodi:nodetypes="ccc" />
    <path
       style="fill:#000000;fill-rule:evenodd;stroke:#000000;stroke-width:1px;stroke-linecap:butt;stroke-linejoin:miter;stroke-opacity:1;opacity:0.11914894"
       d="M 250.99783,207.0969 C 264.53044,239.43765 307.0158,228.95391 308.49916,204.8151 C 283.28387,235.37071 265.1376,215.97639 250.99783,207.0969 z "
       id="path13167"
       sodipodi:nodetypes="ccc" />
    <path
       style="opacity:0.10212766;fill:#000000;fill-rule:evenodd;stroke:#000000;stroke-width:1px;stroke-linecap:butt;stroke-linejoin:miter;stroke-opacity:1"
       d="M 369.195,207.66916 C 355.66239,240.00991 313.17703,229.52617 311.69367,205.38736 C 336.90896,235.94297 355.05523,216.54865 369.195,207.66916 z "
       id="path13169"
       sodipodi:nodetypes="ccc" />
    <path
       sodipodi:type="arc"
       style="opacity:0.47234042;color:#000000;fill:#ffffff;fill-opacity:1;fill-rule:evenodd;stroke:none;stroke-width:4;stroke-linecap:butt;stroke-linejoin:miter;marker:none;marker-start:none;marker-mid:none;marker-end:none;stroke-miterlimit:4;stroke-dasharray:none;stroke-dashoffset:0;stroke-opacity:1;visibility:visible;display:inline;overflow:visible;enable-background:accumulate"
       id="path13175"
       sodipodi:cx="273.35947"
       sodipodi:cy="204.13057"
       sodipodi:rx="6.8453956"
       sodipodi:ry="6.6172156"
       d="M 280.20486 204.13057 A 6.8453956 6.6172156 0 1 1  266.51407,204.13057 A 6.8453956 6.6172156 0 1 1  280.20486 204.13057 z" />
    <path
       sodipodi:type="arc"
       style="opacity:0.47234042;color:#000000;fill:#ffffff;fill-opacity:1;fill-rule:evenodd;stroke:none;stroke-width:4;stroke-linecap:butt;stroke-linejoin:miter;marker:none;marker-start:none;marker-mid:none;marker-end:none;stroke-miterlimit:4;stroke-dasharray:none;stroke-dashoffset:0;stroke-opacity:1;visibility:visible;display:inline;overflow:visible;enable-background:accumulate"
       id="path13177"
       sodipodi:cx="273.35947"
       sodipodi:cy="204.13057"
       sodipodi:rx="6.8453956"
       sodipodi:ry="6.6172156"
       d="M 280.20486 204.13057 A 6.8453956 6.6172156 0 1 1  266.51407,204.13057 A 6.8453956 6.6172156 0 1 1  280.20486 204.13057 z"
       transform="translate(49.7432,2.0536113)" />
    <path
       sodipodi:type="arc"
       style="opacity:0.98723404;color:#000000;fill:#ffffff;fill-opacity:1;fill-rule:evenodd;stroke:none;stroke-width:4;stroke-linecap:butt;stroke-linejoin:miter;marker:none;marker-start:none;marker-mid:none;marker-end:none;stroke-miterlimit:4;stroke-dasharray:none;stroke-dashoffset:0;stroke-opacity:1;visibility:visible;display:inline;overflow:visible;enable-background:accumulate"
       id="path13179"
       sodipodi:cx="262.17865"
       sodipodi:cy="183.59438"
       sodipodi:rx="7.9862947"
       sodipodi:ry="7.5299349"
       d="M 270.16494 183.59438 A 7.9862947 7.5299349 0 1 1  254.19236,183.59438 A 7.9862947 7.5299349 0 1 1  270.16494 183.59438 z"
       transform="translate(-0.9127194,-2.7381582)" />
  </g>
</svg>
