<?xml version="1.0" encoding="UTF-8" standalone="no"?>
<!-- Created with Inkscape (http://www.inkscape.org/) -->

<svg
   xmlns:dc="http://purl.org/dc/elements/1.1/"
   xmlns:cc="http://creativecommons.org/ns#"
   xmlns:rdf="http://www.w3.org/1999/02/22-rdf-syntax-ns#"
   xmlns:svg="http://www.w3.org/2000/svg"
   xmlns="http://www.w3.org/2000/svg"
   xmlns:sodipodi="http://sodipodi.sourceforge.net/DTD/sodipodi-0.dtd"
   xmlns:inkscape="http://www.inkscape.org/namespaces/inkscape"
   width="471.79141"
   height="441.52243"
   id="svg2160"
   sodipodi:version="0.32"
   inkscape:version="0.48.3.1 r9886"
   sodipodi:docname="rana.svg"
   inkscape:output_extension="org.inkscape.output.svg.inkscape"
   sodipodi:modified="true"
   version="1.1">
  <defs
     id="defs2162" />
  <sodipodi:namedview
     id="base"
     pagecolor="#ffffff"
     bordercolor="#666666"
     borderopacity="1.0"
     inkscape:pageopacity="0.0"
     inkscape:pageshadow="2"
     inkscape:zoom="1.04375"
     inkscape:cx="230.63402"
     inkscape:cy="209.37624"
     inkscape:current-layer="layer1"
     inkscape:document-units="px"
     inkscape:window-width="1022"
     inkscape:window-height="703"
     inkscape:window-x="0"
     inkscape:window-y="48"
     showguides="true"
     inkscape:guide-bbox="true"
     showgrid="false"
     fit-margin-top="0"
     fit-margin-left="0"
     fit-margin-right="0"
     fit-margin-bottom="0"
     inkscape:window-maximized="0" />
  <metadata
     id="metadata2165">
    <rdf:RDF>
      <cc:Work
         rdf:about="">
        <dc:format>image/svg+xml</dc:format>
        <dc:type
           rdf:resource="http://purl.org/dc/dcmitype/StillImage" />
        <dc:title></dc:title>
      </cc:Work>
    </rdf:RDF>
  </metadata>
  <g
     id="layer1"
     inkscape:label="Layer 1"
     inkscape:groupmode="layer"
     transform="translate(-89.365977,-7.8538119)">
    <path
       style="color:#000000;fill:#447821;fill-opacity:1;fill-rule:evenodd;stroke:#000000;stroke-width:4.20061255;stroke-linecap:butt;stroke-linejoin:miter;stroke-miterlimit:4;stroke-opacity:1;stroke-dasharray:none;stroke-dashoffset:0;marker:none;visibility:visible;display:inline;overflow:visible;enable-background:accumulate"
       d="M 228.58061,276.53084 C 223.38794,170.41622 137.09573,105.07963 91.466283,150.13558 c 3.383483,94.31246 19.745147,158.45618 97.058457,169.68131"
       id="path3643"
       sodipodi:nodetypes="ccc"
       inkscape:connector-curvature="0" />
    <path
       style="fill:#447821;fill-rule:evenodd;stroke:#000000;stroke-width:4.20061255;stroke-linecap:butt;stroke-linejoin:miter;stroke-miterlimit:4;stroke-opacity:1;stroke-dasharray:none"
       d="m 184.80342,317.69079 c -19.42608,-9.72477 -87.565788,44.2497 -75.52658,51.17858 29.85721,-26.14086 40.58032,-23.8293 72.38656,-37.20895 -28.58182,19.07484 -35.97222,44.13147 -35.07048,71.52879 10.24005,-27.53111 25.37487,-46.87121 47.1187,-55.15169 -10.33798,23.68483 -5.93186,47.09312 19.38488,54.18829 -15.41073,-10.33655 -11.92943,-46.63468 -2.97613,-69.71698"
       id="path3645"
       sodipodi:nodetypes="ccccccc"
       inkscape:connector-curvature="0" />
    <path
       style="fill:#000000;fill-rule:evenodd;stroke:#000000;stroke-width:1.70469558px;stroke-linecap:butt;stroke-linejoin:miter;stroke-opacity:1"
       d="m 189.28744,309.14865 c -25.23719,-43.25911 -59.31536,-128.74647 -75.71161,-129.77733 32.71613,36.25469 50.7659,86.24523 75.71161,129.77733 z"
       id="path3649"
       sodipodi:nodetypes="ccc"
       inkscape:connector-curvature="0" />
    <path
       style="fill:#447821;fill-rule:evenodd;stroke:#000000;stroke-width:4.20061255;stroke-linecap:butt;stroke-linejoin:miter;stroke-miterlimit:4;stroke-opacity:1;stroke-dasharray:none"
       d="M 508.38749,285.9756 414.45702,33.60829 c -166.33761,-77.384326 -255.7439,44.481586 -237.76153,229.27487 -77.877488,222.33323 329.98439,87.55961 331.692,23.09244 z"
       id="path2168"
       sodipodi:nodetypes="cccc"
       inkscape:connector-curvature="0" />
    <path
       style="opacity:0.078125;fill:#ffffff;fill-rule:evenodd;stroke:none"
       d="M 192.16004,148.84275 C 218.82588,78.684876 259.18185,33.315345 311.99138,10.495221 254.82771,14.117738 208.53033,50.306315 181.81096,145.16981 l 10.34908,3.67294 z"
       id="path3682"
       sodipodi:nodetypes="cccc"
       inkscape:connector-curvature="0" />
    <path
       style="fill:#447821;fill-rule:evenodd;stroke:#000000;stroke-width:4.20061255;stroke-linecap:butt;stroke-linejoin:miter;stroke-miterlimit:4;stroke-opacity:1;stroke-dasharray:none"
       d="m 407.85253,137.52423 c -62.5921,34.19602 -153.57295,55.81478 -262.16714,-10.71338 18.05079,52.91544 31.02918,86.42996 31.74393,137.72177"
       id="path2170"
       sodipodi:nodetypes="ccc"
       inkscape:connector-curvature="0" />
    <path
       style="fill:#000000;fill-rule:evenodd;stroke:#000000;stroke-width:0.85234779;stroke-linecap:butt;stroke-linejoin:miter;stroke-miterlimit:4;stroke-opacity:1;stroke-dasharray:none"
       d="m 252.49267,124.3091 c -21.77808,17.59001 -49.20399,9.2605 -61.7815,-6.01278 8.42772,15.0712 44.98999,35.62011 61.7815,6.01278 z"
       id="path3686"
       sodipodi:nodetypes="ccc"
       inkscape:connector-curvature="0" />
    <path
       sodipodi:type="arc"
       style="color:#000000;fill:#eef4d7;fill-opacity:1;fill-rule:evenodd;stroke:#000000;stroke-width:2.10758185;stroke-linecap:butt;stroke-linejoin:miter;stroke-miterlimit:4;stroke-opacity:1;stroke-dasharray:none;stroke-dashoffset:0;marker:none;visibility:visible;display:inline;overflow:visible;enable-background:accumulate"
       id="path3157"
       sodipodi:cx="248.46123"
       sodipodi:cy="196.31046"
       sodipodi:rx="16.47798"
       sodipodi:ry="22.960129"
       d="m 264.93921,196.31046 c 0,12.68052 -7.37745,22.96012 -16.47798,22.96012 -9.10054,0 -16.47798,-10.2796 -16.47798,-22.96012 0,-12.68053 7.37744,-22.96013 16.47798,-22.96013 9.10053,0 16.47798,10.2796 16.47798,22.96013 z"
       transform="matrix(-1.9563672,0.3419933,0.4080345,1.9591849,629.18723,-375.76407)" />
    <path
       style="opacity:0.11979167;fill:#000000;fill-rule:evenodd;stroke:#000000;stroke-width:1.70469558px;stroke-linecap:butt;stroke-linejoin:miter;stroke-opacity:1"
       d="m 227.49351,52.470103 c 32.90982,5.228154 26.75133,124.154017 -32.35282,54.973277 7.76104,20.325 29.29314,44.2991 50.84013,21.21017 13.96621,-20.3161 14.7735,-57.123458 -18.48731,-76.183447 z"
       id="path3688"
       sodipodi:nodetypes="cccc"
       inkscape:connector-curvature="0" />
    <path
       style="fill:#000000;fill-rule:evenodd;stroke:#000000;stroke-width:0.85234779;stroke-linecap:butt;stroke-linejoin:miter;stroke-miterlimit:4;stroke-opacity:1;stroke-dasharray:none"
       d="m 258.06728,134.45706 c 18.61143,21.70153 50.82023,18.91251 65.6349,6.42764 -10.70009,13.12406 -53.85017,26.08866 -65.6349,-6.42764 z"
       id="path3684"
       sodipodi:nodetypes="ccc"
       inkscape:connector-curvature="0" />
    <path
       sodipodi:type="arc"
       style="color:#000000;fill:#eef4d7;fill-opacity:1;fill-rule:evenodd;stroke:#000000;stroke-width:2.00250292;stroke-linecap:butt;stroke-linejoin:miter;stroke-miterlimit:4;stroke-opacity:1;stroke-dasharray:none;stroke-dashoffset:0;marker:none;visibility:visible;display:inline;overflow:visible;enable-background:accumulate"
       id="path2184"
       sodipodi:cx="248.46123"
       sodipodi:cy="196.31046"
       sodipodi:rx="19.477194"
       sodipodi:ry="30.994141"
       d="m 267.93842,196.31046 c 0,17.11759 -8.72024,30.99414 -19.47719,30.99414 -10.75696,0 -19.4772,-13.87655 -19.4772,-30.99414 0,-17.1176 8.72024,-30.99415 19.4772,-30.99415 10.75695,0 19.47719,13.87655 19.47719,30.99415 z"
       transform="matrix(2.0412428,0.6464523,-0.6800832,1.9403007,-75.526379,-451.15063)" />
    <path
       sodipodi:type="arc"
       style="color:#000000;fill:#000000;fill-opacity:1;fill-rule:evenodd;stroke:#000000;stroke-width:2;stroke-linecap:butt;stroke-linejoin:miter;stroke-miterlimit:4;stroke-opacity:1;stroke-dasharray:none;stroke-dashoffset:0;marker:none;visibility:visible;display:inline;overflow:visible;enable-background:accumulate"
       id="path3159"
       sodipodi:cx="232.33533"
       sodipodi:cy="196.16766"
       sodipodi:rx="4.2856269"
       sodipodi:ry="12.934132"
       d="m 236.62095,196.16766 c 0,7.14333 -1.91874,12.93414 -4.28562,12.93414 -2.36689,0 -4.28563,-5.79081 -4.28563,-12.93414 0,-7.14332 1.91874,-12.93413 4.28563,-12.93413 2.36688,0 4.28562,5.79081 4.28562,12.93413 z"
       transform="matrix(1.5876739,0.2865182,-0.2549396,1.7843351,-20.126462,-309.58666)" />
    <path
       sodipodi:type="arc"
       style="color:#000000;fill:#eef4d7;fill-opacity:1;fill-rule:evenodd;stroke:none;stroke-width:2.54256701;marker:none;visibility:visible;display:inline;overflow:visible;enable-background:accumulate"
       id="path3161"
       sodipodi:cx="237.06587"
       sodipodi:cy="194.8503"
       sodipodi:rx="4.4910178"
       sodipodi:ry="7.6646705"
       d="m 241.55689,194.8503 c 0,4.23308 -2.0107,7.66467 -4.49102,7.66467 -2.48032,0 -4.49102,-3.43159 -4.49102,-7.66467 0,-4.23308 2.0107,-7.66467 4.49102,-7.66467 2.48032,0 4.49102,3.43159 4.49102,7.66467 z"
       transform="matrix(1.1745434,0.117771,-0.1205689,1.5187859,48.132832,-222.47794)" />
    <path
       sodipodi:type="arc"
       style="color:#000000;fill:#000000;fill-opacity:1;fill-rule:evenodd;stroke:#000000;stroke-width:2.09281278;stroke-linecap:butt;stroke-linejoin:miter;stroke-miterlimit:4;stroke-opacity:1;stroke-dasharray:none;stroke-dashoffset:0;marker:none;visibility:visible;display:inline;overflow:visible;enable-background:accumulate"
       id="path3163"
       sodipodi:cx="232.33533"
       sodipodi:cy="196.16766"
       sodipodi:rx="4.2856269"
       sodipodi:ry="12.934132"
       d="m 236.62095,196.16766 c 0,7.14333 -1.91874,12.93414 -4.28562,12.93414 -2.36689,0 -4.28563,-5.79081 -4.28563,-12.93414 0,-7.14332 1.91874,-12.93413 4.28563,-12.93413 2.36688,0 4.28562,5.79081 4.28562,12.93413 z"
       transform="matrix(1.6085796,-0.1149006,0.04706329,1.6465108,-150.03246,-192.42345)" />
    <path
       sodipodi:type="arc"
       style="color:#000000;fill:#eef4d7;fill-opacity:1;fill-rule:evenodd;stroke:none;stroke-width:2.66055799;marker:none;visibility:visible;display:inline;overflow:visible;enable-background:accumulate"
       id="path3165"
       sodipodi:cx="237.06587"
       sodipodi:cy="194.8503"
       sodipodi:rx="4.4910178"
       sodipodi:ry="7.6646705"
       d="m 241.55689,194.8503 c 0,4.23308 -2.0107,7.66467 -4.49102,7.66467 -2.48032,0 -4.49102,-3.43159 -4.49102,-7.66467 0,-4.23308 2.0107,-7.66467 4.49102,-7.66467 2.48032,0 4.49102,3.43159 4.49102,7.66467 z"
       transform="matrix(1.1742952,-0.1687846,0.1348556,1.3790153,-69.084684,-130.17552)" />
    <path
       style="opacity:0.11979167;fill:#000000;fill-opacity:1;fill-rule:evenodd;stroke:none"
       d="m 303.36856,31.259934 c 67.4561,-11.594857 11.65924,143.344396 -45.44801,98.259336 7.05753,26.89922 51.64194,36.61032 76.2602,-20.7773 22.37858,-49.474727 -3.41331,-85.538228 -30.81219,-77.482036 z"
       id="path3169"
       sodipodi:nodetypes="cccc"
       inkscape:connector-curvature="0" />
    <path
       style="opacity:0.17708333;fill:#000000;fill-rule:evenodd;stroke:#000000;stroke-width:1.70439851;stroke-linecap:butt;stroke-linejoin:miter;stroke-miterlimit:4;stroke-opacity:1;stroke-dasharray:none"
       d="M 321.47072,12.214077 C 495.47092,25.85294 511.61088,410.78982 172.03152,335.99372 223.92151,463.78101 508.91245,326.12197 509.42519,284.91619 L 413.13705,33.857104 C 383.16036,21.439216 353.42593,6.8432276 321.47072,12.214077 z"
       id="path3443"
       sodipodi:nodetypes="ccccc"
       inkscape:connector-curvature="0" />
    <path
       style="color:#000000;fill:#447821;fill-opacity:1;fill-rule:evenodd;stroke:#000000;stroke-width:4.20061255;stroke-linecap:butt;stroke-linejoin:miter;stroke-miterlimit:4;stroke-opacity:1;stroke-dasharray:none;stroke-dashoffset:0;marker:none;visibility:visible;display:inline;overflow:visible;enable-background:accumulate"
       d="m 421.94276,274.77363 c 5.19265,-106.11462 91.48486,-171.45121 137.11431,-126.39525 -3.38348,94.31246 -19.74513,158.45618 -97.05844,169.68131"
       id="path3633"
       sodipodi:nodetypes="ccc"
       inkscape:connector-curvature="0" />
    <path
       style="fill:#447821;fill-rule:evenodd;stroke:#000000;stroke-width:3.40939116;stroke-linecap:butt;stroke-linejoin:miter;stroke-miterlimit:4;stroke-opacity:1;stroke-dasharray:none"
       d="m 466.10509,315.93359 c 19.42608,-9.72479 87.56578,44.24969 75.52659,51.17858 -29.85722,-26.14086 -40.58032,-23.82929 -72.38656,-37.20896 28.58181,19.07485 35.97222,44.13148 35.07048,71.52879 -10.24006,-27.5311 -25.37487,-46.8712 -47.11871,-55.15168 10.33798,23.68483 5.93186,47.09311 -19.38487,54.18828 15.41073,-10.33655 11.92942,-46.63467 2.97613,-69.71698"
       id="path3445"
       sodipodi:nodetypes="ccccccc"
       inkscape:connector-curvature="0" />
    <path
       style="opacity:0.17708333;color:#000000;fill:#000000;fill-opacity:1;fill-rule:evenodd;stroke:#000000;stroke-width:1.70469558px;stroke-linecap:butt;stroke-linejoin:miter;stroke-miterlimit:4;stroke-opacity:1;stroke-dasharray:none;stroke-dashoffset:0;marker:none;visibility:visible;display:inline;overflow:visible;enable-background:accumulate"
       d="m 466.10509,315.93359 c 19.42608,-9.72479 87.56578,44.24969 75.52659,51.17858 -29.85722,-26.14086 -40.58032,-23.82929 -72.38656,-37.20896 28.58181,19.07485 35.97222,44.13148 35.07048,71.52879 -10.24006,-27.5311 -25.37487,-46.8712 -47.11871,-55.15168 10.33798,23.68483 5.93186,47.09311 -19.38487,54.18828 15.41073,-10.33655 11.92942,-46.63467 2.97613,-69.71698"
       id="path3453"
       sodipodi:nodetypes="ccccccc"
       inkscape:connector-curvature="0" />
    <path
       style="fill:#000000;fill-rule:evenodd;stroke:#000000;stroke-width:1.70469558px;stroke-linecap:butt;stroke-linejoin:miter;stroke-opacity:1"
       d="m 461.23592,307.39145 c 25.23719,-43.25911 59.31536,-128.74648 75.71161,-129.77734 -32.71612,36.25468 -50.7659,86.24524 -75.71161,129.77734 z"
       id="path3639"
       sodipodi:nodetypes="ccc"
       inkscape:connector-curvature="0" />
    <path
       style="opacity:0.17708333;color:#000000;fill:#000000;fill-opacity:1;fill-rule:evenodd;stroke:#000000;stroke-width:1.70439851;stroke-linecap:butt;stroke-linejoin:miter;stroke-miterlimit:4;stroke-opacity:1;stroke-dasharray:none;stroke-dashoffset:0;marker:none;visibility:visible;display:inline;overflow:visible;enable-background:accumulate"
       d="m 438.05587,292.11334 c 5.19266,-106.11463 83.07802,-169.28376 121.0012,-135.78761 -6.18576,95.03495 -20.4457,150.50883 -97.75901,161.73396"
       id="path3641"
       sodipodi:nodetypes="ccc"
       inkscape:connector-curvature="0" />
    <path
       style="opacity:0.07291667;fill:#ffffff;fill-rule:evenodd;stroke:none"
       d="m 423.10774,273.11064 9.25969,0.61218 c -1.00493,-76.4765 48.5586,-116.60541 94.77572,-138.9597 -31.55135,0.93458 -90.69561,28.39808 -104.03541,138.34752 z"
       id="path3660"
       sodipodi:nodetypes="cccc"
       inkscape:connector-curvature="0" />
    <path
       style="fill:#447821;fill-rule:evenodd;stroke:#000000;stroke-width:4.20061255;stroke-linecap:butt;stroke-linejoin:miter;stroke-miterlimit:4;stroke-opacity:1;stroke-dasharray:none"
       d="m 205.41699,319.95504 -1.36193,57.29552 10.98218,67.15751 -26.50019,-47.89315 -33.93169,43.71356 20.27317,-58.4079 -57.08889,26.22146 c 0,0 56.05054,-40.25261 58.76461,-40.50632 l 10.3594,-47.61015"
       id="path3662"
       inkscape:connector-curvature="0" />
    <path
       style="fill:#447821;fill-rule:evenodd;stroke:#000000;stroke-width:4.20061255;stroke-linecap:butt;stroke-linejoin:miter;stroke-miterlimit:4;stroke-opacity:1;stroke-dasharray:none"
       d="m 281.18157,323.40369 -0.83387,57.30829 -13.54429,66.56395 28.31004,-46.56672 32.2259,45.31463 -18.01721,-59.33455 56.03164,28.95904 c 0,0 -54.45682,-42.92696 -57.15866,-43.31174 l -8.52624,-48.06717"
       id="path3672"
       inkscape:connector-curvature="0" />
    <path
       style="fill:#000000;fill-rule:evenodd;stroke:#000000;stroke-width:0.85234779;stroke-linecap:butt;stroke-linejoin:miter;stroke-miterlimit:4;stroke-opacity:1;stroke-dasharray:none"
       d="m 450.72246,315.6429 c -11.36135,1.82255 -11.56471,6.92068 -9.26301,17.22478 2.98226,-10.48667 -0.0985,-13.58377 9.26301,-17.22478 z"
       id="path3678"
       sodipodi:nodetypes="ccc"
       inkscape:connector-curvature="0" />
    <path
       style="opacity:0.17708333;fill:#000000;fill-rule:evenodd;stroke:#000000;stroke-width:1.70469558px;stroke-linecap:butt;stroke-linejoin:miter;stroke-opacity:1"
       d="M 541.39285,365.42823 C 522.3371,345.23249 508.41071,334.74354 480.1536,326.03792 l -10.78428,3.4629 c 24.00784,7.58703 48.01568,19.11061 72.02353,35.92741 z"
       id="path3690"
       sodipodi:nodetypes="cccc"
       inkscape:connector-curvature="0" />
    <path
       style="opacity:0.19270833;fill:#000000;fill-rule:evenodd;stroke:#000000;stroke-width:1.70469558px;stroke-linecap:butt;stroke-linejoin:miter;stroke-opacity:1"
       d="m 455.50383,343.35235 16.17642,0 c 20.02796,14.80605 24.2003,32.35356 31.58249,49.34608 -11.28616,-24.63177 -29.43964,-37.13531 -47.75891,-49.34608 z"
       id="path3692"
       sodipodi:nodetypes="cccc"
       inkscape:connector-curvature="0" />
    <path
       sodipodi:type="arc"
       style="opacity:0.19270833;color:#000000;fill:#000000;fill-opacity:1;fill-rule:evenodd;stroke:none;stroke-width:0.5;marker:none;visibility:visible;display:inline;overflow:visible;enable-background:accumulate"
       id="path3694"
       sodipodi:cx="300.62625"
       sodipodi:cy="191.90691"
       sodipodi:rx="6.9440427"
       sodipodi:ry="7.2827764"
       d="m 307.57029,191.90691 c 0,4.02216 -3.10895,7.28277 -6.94404,7.28277 -3.83509,0 -6.94404,-3.26061 -6.94404,-7.28277 0,-4.02217 3.10895,-7.28278 6.94404,-7.28278 3.83509,0 6.94404,3.26061 6.94404,7.28278 z"
       transform="matrix(1.6080121,0,0,1.8071925,-82.907407,-246.63649)" />
    <path
       sodipodi:type="arc"
       style="opacity:0.19270833;color:#000000;fill:#000000;fill-opacity:1;fill-rule:evenodd;stroke:none;stroke-width:0.5;marker:none;visibility:visible;display:inline;overflow:visible;enable-background:accumulate"
       id="path3696"
       sodipodi:cx="313.49811"
       sodipodi:cy="202.06892"
       sodipodi:rx="2.8792372"
       sodipodi:ry="2.8792372"
       d="m 316.37735,202.06892 c 0,1.59016 -1.28908,2.87924 -2.87924,2.87924 -1.59016,0 -2.87924,-1.28908 -2.87924,-2.87924 0,-1.59015 1.28908,-2.87923 2.87924,-2.87923 1.59016,0 2.87924,1.28908 2.87924,2.87923 z"
       transform="matrix(1.6080121,0,0,1.8071925,-85.630848,-248.47296)" />
    <path
       sodipodi:type="arc"
       style="opacity:0.19270833;color:#000000;fill:#000000;fill-opacity:1;fill-rule:evenodd;stroke:none;stroke-width:0.5;marker:none;visibility:visible;display:inline;overflow:visible;enable-background:accumulate"
       id="path3698"
       sodipodi:cx="318.40976"
       sodipodi:cy="189.87451"
       sodipodi:rx="4.0648055"
       sodipodi:ry="4.2341723"
       d="m 322.47457,189.87451 c 0,2.33847 -1.81988,4.23417 -4.06481,4.23417 -2.24493,0 -4.06481,-1.8957 -4.06481,-4.23417 0,-2.33847 1.81988,-4.23417 4.06481,-4.23417 2.24493,0 4.06481,1.8957 4.06481,4.23417 z"
       transform="matrix(1.6080121,0,0,1.8071925,-91.077727,-253.98238)" />
    <path
       style="opacity:0.20833333;fill:#ffffff;fill-rule:evenodd;stroke:none"
       d="m 136.05717,139.04823 c -25.2555,6.30236 -50.395504,3.91923 -36.494095,81.4169 -7.453941,-23.46601 -5.228437,-46.93205 -5.991566,-70.39807 14.695141,-8.71161 26.626271,-15.78217 42.485661,-11.01883 z"
       id="path3705"
       sodipodi:nodetypes="cccc"
       inkscape:connector-curvature="0" />
    <path
       style="fill:#000000;fill-rule:evenodd;stroke:#000000;stroke-width:1.05015314px;stroke-linecap:butt;stroke-linejoin:miter;stroke-opacity:1"
       d="m 394.41568,124.05421 c 9.00362,8.28378 20.71787,14.79805 15.85209,32.18518 9.8222,-26.16755 -5.7019,-26.69957 -15.85209,-32.18518 z"
       id="path3715"
       sodipodi:nodetypes="ccc"
       inkscape:connector-curvature="0" />
    <path
       style="opacity:0.17708333;color:#000000;fill:#000000;fill-opacity:1;fill-rule:evenodd;stroke:#000000;stroke-width:1.70439851;stroke-linecap:butt;stroke-linejoin:miter;stroke-miterlimit:4;stroke-opacity:1;stroke-dasharray:none;stroke-dashoffset:0;marker:none;visibility:visible;display:inline;overflow:visible;enable-background:accumulate"
       d="m 292.36777,325.33931 9.90757,69.98999 19.31974,41.38095 -16.84285,-59.2616 40.62102,25.03291 -39.13489,-29.11992 -8.9168,-47.51146"
       id="path3783"
       inkscape:connector-curvature="0" />
    <path
       style="opacity:0.44791667;fill:#000000;fill-rule:evenodd;stroke:#000000;stroke-width:1px;stroke-linecap:butt;stroke-linejoin:miter;stroke-opacity:1"
       d="m 231.01645,141.26622 c 13.54828,1.73797 23.34266,-10.2989 23.03389,-17.61416 l -23.03389,17.61416 z"
       id="path3793"
       sodipodi:nodetypes="ccc"
       inkscape:connector-curvature="0" />
  </g>
</svg>
