<?xml version="1.0" encoding="UTF-8" standalone="no"?>
<!-- Created with Inkscape (http://www.inkscape.org/) -->

<svg
   xmlns:dc="http://purl.org/dc/elements/1.1/"
   xmlns:cc="http://creativecommons.org/ns#"
   xmlns:rdf="http://www.w3.org/1999/02/22-rdf-syntax-ns#"
   xmlns:svg="http://www.w3.org/2000/svg"
   xmlns="http://www.w3.org/2000/svg"
   xmlns:sodipodi="http://sodipodi.sourceforge.net/DTD/sodipodi-0.dtd"
   xmlns:inkscape="http://www.inkscape.org/namespaces/inkscape"
   width="515.1991"
   height="468.28607"
   id="svg2160"
   sodipodi:version="0.32"
   inkscape:version="0.48.3.1 r9886"
   sodipodi:docname="raton.svg"
   inkscape:output_extension="org.inkscape.output.svg.inkscape"
   version="1.1">
  <defs
     id="defs2162" />
  <sodipodi:namedview
     id="base"
     pagecolor="#ffffff"
     bordercolor="#666666"
     borderopacity="1.0"
     inkscape:pageopacity="0.0"
     inkscape:pageshadow="2"
     inkscape:zoom="0.69463349"
     inkscape:cx="437.26404"
     inkscape:cy="173.77431"
     inkscape:current-layer="layer1"
     inkscape:document-units="px"
     showguides="true"
     inkscape:guide-bbox="true"
     inkscape:window-width="1022"
     inkscape:window-height="703"
     inkscape:window-x="0"
     inkscape:window-y="48"
     showgrid="false"
     fit-margin-top="0"
     fit-margin-left="0"
     fit-margin-right="0"
     fit-margin-bottom="0"
     inkscape:window-maximized="0" />
  <metadata
     id="metadata2165">
    <rdf:RDF>
      <cc:Work
         rdf:about="">
        <dc:format>image/svg+xml</dc:format>
        <dc:type
           rdf:resource="http://purl.org/dc/dcmitype/StillImage" />
        <dc:title></dc:title>
        <dc:date>28/01/2008</dc:date>
        <dc:creator>
          <cc:Agent>
            <dc:title>Vladimir Zuñiga C</dc:title>
          </cc:Agent>
        </dc:creator>
        <cc:license
           rdf:resource="http://creativecommons.org/licenses/by/2.5/" />
      </cc:Work>
      <cc:License
         rdf:about="http://creativecommons.org/licenses/by/2.5/">
        <cc:permits
           rdf:resource="http://web.resource.org/cc/Reproduction" />
        <cc:permits
           rdf:resource="http://web.resource.org/cc/Distribution" />
        <cc:requires
           rdf:resource="http://web.resource.org/cc/Notice" />
        <cc:requires
           rdf:resource="http://web.resource.org/cc/Attribution" />
        <cc:permits
           rdf:resource="http://web.resource.org/cc/DerivativeWorks" />
      </cc:License>
    </rdf:RDF>
  </metadata>
  <g
     id="layer1"
     inkscape:label="Layer 1"
     inkscape:groupmode="layer"
     transform="translate(-45.115601,-7.6799966)">
    <path
       style="fill:#aa8800;fill-opacity:1;fill-rule:nonzero;stroke:#000000;stroke-width:2.4960084;stroke-linejoin:round;stroke-miterlimit:4;stroke-opacity:1"
       d="m 56.142711,190.07 c 1.966899,4.76784 -22.906728,0.75476 -0.06828,-9.04549 C 319.10844,-2.3141701 90.516935,364.47811 291.79105,381.48719 l -19.16618,6.15752 C 88.142625,352.4842 306.99026,6.9743579 56.142711,190.07 z"
       id="rect3547"
       sodipodi:nodetypes="ccccc"
       inkscape:connector-curvature="0" />
    <path
       style="fill:#aa8800;fill-rule:evenodd;stroke:#000000;stroke-width:4.16153431;stroke-linecap:butt;stroke-linejoin:miter;stroke-miterlimit:4;stroke-opacity:1;stroke-dasharray:none"
       d="m 335.61181,260.98177 c -64.50542,23.26345 -145.31365,153.55432 -5.38004,155.1825 114.66603,3.68209 100.94864,-93.83303 5.38004,-155.1825 z"
       id="path3513"
       sodipodi:nodetypes="ccc"
       inkscape:connector-curvature="0" />
    <path
       style="fill:#aa8800;fill-rule:evenodd;stroke:#000000;stroke-width:4.26360989;stroke-linecap:butt;stroke-linejoin:miter;stroke-miterlimit:4;stroke-opacity:1;stroke-dasharray:none"
       d="M 313.8061,126.82704 C 185.87825,217.75044 134.28207,78.213083 190.3677,20.268724 236.12538,-6.6593733 322.52639,21.703282 313.8061,126.82704 z"
       id="path3424"
       sodipodi:nodetypes="ccc"
       inkscape:connector-curvature="0" />
    <path
       style="fill:#aa8800;fill-rule:evenodd;stroke:#000000;stroke-width:4.26360989;stroke-linecap:butt;stroke-linejoin:miter;stroke-miterlimit:4;stroke-opacity:1;stroke-dasharray:none"
       d="M 380.91238,125.91623 C 508.84023,216.83964 560.4364,77.30228 504.35078,19.357917 458.5931,-7.5701803 372.19208,20.792475 380.91238,125.91623 z"
       id="path3428"
       sodipodi:nodetypes="ccc"
       inkscape:connector-curvature="0" />
    <path
       style="fill:#aa8800;fill-rule:evenodd;stroke:#000000;stroke-width:4.0032177;stroke-linecap:butt;stroke-linejoin:miter;stroke-miterlimit:4;stroke-opacity:1;stroke-dasharray:none"
       d="m 342.83986,106.11539 c 61.14755,7.89144 193.16046,166.75133 5.62017,171.93744 -206.08694,-15.07119 -67.96705,-161.24988 -5.62017,-171.93744 z"
       id="path3422"
       sodipodi:nodetypes="ccc"
       inkscape:connector-curvature="0" />
    <path
       sodipodi:type="arc"
       style="opacity:0.29361704;color:#000000;fill:#ffffff;fill-opacity:1;fill-rule:evenodd;stroke:none;stroke-width:3;marker:none;visibility:visible;display:inline;overflow:visible;enable-background:accumulate"
       id="path2221"
       sodipodi:cx="339.02771"
       sodipodi:cy="244.98398"
       sodipodi:rx="64.782364"
       sodipodi:ry="33.47089"
       d="m 403.81007,244.98398 c 0,18.48546 -29.00405,33.47089 -64.78236,33.47089 -35.77831,0 -64.78236,-14.98543 -64.78236,-33.47089 0,-18.48546 29.00405,-33.47089 64.78236,-33.47089 35.77831,0 64.78236,14.98543 64.78236,33.47089 z" />
    <path
       style="fill:none;stroke:#000000;stroke-width:3.09559226px;stroke-linecap:butt;stroke-linejoin:miter;stroke-opacity:1"
       d="M 296.78013,136.69356 C 301.09996,38.537129 256.20476,40.429206 226.54791,38.028429"
       id="path3426"
       sodipodi:nodetypes="cc"
       inkscape:connector-curvature="0" />
    <path
       style="fill:none;stroke:#000000;stroke-width:3.09559226px;stroke-linecap:butt;stroke-linejoin:miter;stroke-opacity:1"
       d="M 397.93834,135.78275 C 393.61851,37.626322 438.51372,39.518399 468.17056,37.117623"
       id="path3430"
       sodipodi:nodetypes="cc"
       inkscape:connector-curvature="0" />
    <path
       style="fill:#ffffff;fill-rule:evenodd;stroke:#000000;stroke-width:4.72598362px;stroke-linecap:butt;stroke-linejoin:miter;stroke-opacity:1"
       d="m 321.58928,151.72744 c 28.67065,8.20296 20.69049,62.74735 -8.43461,65.13505 -59.71066,3.93016 -20.59437,-71.56323 8.43461,-65.13505 z"
       id="path3432"
       sodipodi:nodetypes="ccc"
       inkscape:connector-curvature="0" />
    <path
       style="fill:#ffffff;fill-rule:evenodd;stroke:#000000;stroke-width:4.72598362px;stroke-linecap:butt;stroke-linejoin:miter;stroke-opacity:1"
       d="m 361.74606,154.70497 c -27.83704,10.69546 -15.08541,64.32539 14.13681,64.13945 59.8248,-1.34245 14.21348,-73.09858 -14.13681,-64.13945 z"
       id="path3436"
       sodipodi:nodetypes="ccc"
       inkscape:connector-curvature="0" />
    <path
       sodipodi:type="arc"
       style="fill:#000000;fill-opacity:1;fill-rule:nonzero;stroke:#000000;stroke-width:1;stroke-linejoin:round;stroke-miterlimit:4;stroke-opacity:1;stroke-dasharray:none"
       id="path3438"
       sodipodi:cx="424.69412"
       sodipodi:cy="268.17957"
       sodipodi:rx="3.1597524"
       sodipodi:ry="5.6173372"
       d="m 427.85387,268.17957 c 0,3.10237 -1.41466,5.61733 -3.15975,5.61733 -1.74508,0 -3.15975,-2.51496 -3.15975,-5.61733 0,-3.10237 1.41467,-5.61734 3.15975,-5.61734 1.74509,0 3.15975,2.51497 3.15975,5.61734 z"
       transform="matrix(3.2148307,0,0,2.9807766,-1053.4297,-610.89667)" />
    <path
       sodipodi:type="arc"
       style="fill:#000000;fill-opacity:1;fill-rule:nonzero;stroke:#000000;stroke-width:1;stroke-linejoin:round;stroke-miterlimit:4;stroke-opacity:1;stroke-dasharray:none"
       id="path3440"
       sodipodi:cx="424.69412"
       sodipodi:cy="268.17957"
       sodipodi:rx="3.1597524"
       sodipodi:ry="5.6173372"
       d="m 427.85387,268.17957 c 0,3.10237 -1.41466,5.61733 -3.15975,5.61733 -1.74508,0 -3.15975,-2.51496 -3.15975,-5.61733 0,-3.10237 1.41467,-5.61734 3.15975,-5.61734 1.74509,0 3.15975,2.51497 3.15975,5.61734 z"
       transform="matrix(3.2148307,0,0,2.9807766,-989.41037,-609.13801)" />
    <path
       sodipodi:type="arc"
       style="fill:#ffffff;fill-opacity:1;fill-rule:nonzero;stroke:none"
       id="path3444"
       sodipodi:cx="421.41733"
       sodipodi:cy="266.13159"
       sodipodi:rx="2.3405573"
       sodipodi:ry="1.9309597"
       d="m 423.75789,266.13159 c 0,1.06644 -1.04791,1.93096 -2.34056,1.93096 -1.29266,0 -2.34056,-0.86452 -2.34056,-1.93096 0,-1.06644 1.0479,-1.93096 2.34056,-1.93096 1.29265,0 2.34056,0.86452 2.34056,1.93096 z"
       transform="matrix(2.7326061,0,0,4.7281765,-781.43435,-1068.8836)" />
    <path
       sodipodi:type="arc"
       style="fill:#4d4d4d;fill-opacity:1;fill-rule:nonzero;stroke:#000000;stroke-width:1;stroke-linejoin:round;stroke-miterlimit:4;stroke-opacity:1;stroke-dasharray:none"
       id="path3454"
       sodipodi:cx="432.06686"
       sodipodi:cy="278.7706"
       sodipodi:rx="6.904644"
       sodipodi:ry="4.9736843"
       d="m 438.97151,278.7706 c 0,2.74689 -3.09132,4.97368 -6.90465,4.97368 -3.81333,0 -6.90464,-2.22679 -6.90464,-4.97368 0,-2.74689 3.09131,-4.97368 6.90464,-4.97368 3.81333,0 6.90465,2.22679 6.90465,4.97368 z"
       transform="matrix(3.2148307,0,0,2.9807766,-1046.9342,-610.19176)" />
    <path
       style="fill:none;stroke:#000000;stroke-width:3.09559226px;stroke-linecap:butt;stroke-linejoin:miter;stroke-opacity:1"
       d="m 397.14924,232.99566 c -45.16976,32.69306 -82.34235,20.41148 -112.11497,-2.79065"
       id="path3466"
       sodipodi:nodetypes="cc"
       inkscape:connector-curvature="0" />
    <path
       style="opacity:0.48514853;fill:#000000;fill-opacity:1;fill-rule:evenodd;stroke:none"
       d="m 360.14644,213.60998 c 0.14421,15.84149 -17.72015,15.78062 -38.37493,13.25569 9.06499,5.85711 21.81813,13.27596 34.98891,4.186 8.19807,-3.80428 9.97813,-11.54646 3.38602,-17.44169 z"
       id="path3456"
       sodipodi:nodetypes="cccc"
       inkscape:connector-curvature="0" />
    <path
       style="opacity:0.5;fill:#ffffff;fill-rule:evenodd;stroke:none"
       d="m 347.73105,209.42395 c -17.7748,-1.69507 -22.73557,5.94498 -26.71196,14.30222 1.8328,-5.30676 0.44654,-10.91199 11.66295,-15.34871 8.47182,-1.25311 12.56648,-0.47701 15.04901,1.04649 z"
       id="path3458"
       sodipodi:nodetypes="cccc"
       inkscape:connector-curvature="0" />
    <path
       style="fill:#000000;fill-rule:evenodd;stroke:#000000;stroke-width:1.06590247;stroke-linecap:butt;stroke-linejoin:miter;stroke-miterlimit:4;stroke-opacity:1;stroke-dasharray:none"
       d="m 284.27877,141.49899 c 18.43503,-7.19908 34.9889,-10.31697 55.30506,-4.18602 -13.33589,-10.27484 -32.7797,-11.74742 -55.30506,4.18602 z"
       id="path3460"
       sodipodi:nodetypes="ccc"
       inkscape:connector-curvature="0" />
    <path
       style="fill:#000000;fill-rule:evenodd;stroke:#000000;stroke-width:1.06590247;stroke-linecap:butt;stroke-linejoin:miter;stroke-miterlimit:4;stroke-opacity:1;stroke-dasharray:none"
       d="m 407.09025,141.5426 c -18.43502,-7.19908 -34.98889,-10.31698 -55.30505,-4.18602 13.33589,-10.27483 32.7797,-11.74742 55.30505,4.18602 z"
       id="path3462"
       sodipodi:nodetypes="ccc"
       inkscape:connector-curvature="0" />
    <path
       style="opacity:0.29207919;fill:#000000;fill-rule:evenodd;stroke:#000000;stroke-width:1.06590247px;stroke-linecap:butt;stroke-linejoin:miter;stroke-opacity:1"
       d="m 226.64883,38.8628 c 45.15707,2.313525 116.97795,114.29096 -6.49317,113.14762 25.47323,9.8654 50.94646,-0.80974 76.4197,-15.95033 6.50847,-68.531355 -20.54612,-96.391399 -69.92653,-97.19729 z"
       id="path3499"
       sodipodi:nodetypes="cccc"
       inkscape:connector-curvature="0" />
    <path
       style="opacity:0.29207919;fill:#000000;fill-rule:evenodd;stroke:#000000;stroke-width:1.06590247px;stroke-linecap:butt;stroke-linejoin:miter;stroke-opacity:1"
       d="m 467.29655,38.215942 c -45.15707,2.313526 -116.97794,114.290968 6.49317,113.147638 -25.47323,9.86539 -50.94646,-0.80975 -76.41969,-15.95033 -6.50848,-68.531378 20.54611,-96.391416 69.92652,-97.197308 z"
       id="path3501"
       sodipodi:nodetypes="cccc"
       inkscape:connector-curvature="0" />
    <path
       style="fill:#000000;fill-rule:evenodd;stroke:#000000;stroke-width:0.55498111px;stroke-linecap:butt;stroke-linejoin:miter;stroke-opacity:1"
       d="m 205.12646,255.65467 c 21.72486,-16.71749 45.99717,-21.0814 70.67243,-23.49129 -24.26593,4.39487 -48.18361,10.47858 -70.67243,23.49129 z"
       id="path3483"
       sodipodi:nodetypes="ccc"
       inkscape:connector-curvature="0" />
    <path
       style="fill:#000000;fill-rule:evenodd;stroke:#000000;stroke-width:1.06590247px;stroke-linecap:butt;stroke-linejoin:miter;stroke-opacity:1"
       d="m 124.8416,231.73684 c 50.61349,-18.62999 101.22696,-14.59653 151.84044,-6.97827 -50.61348,-3.97667 -101.22695,-4.85507 -151.84044,6.97827 z"
       id="path3485"
       sodipodi:nodetypes="ccc"
       inkscape:connector-curvature="0" />
    <path
       style="fill:#000000;fill-rule:evenodd;stroke:#000000;stroke-width:1.06590247px;stroke-linecap:butt;stroke-linejoin:miter;stroke-opacity:1"
       d="m 125.28502,255.15727 c 47.86764,-24.82698 98.58793,-27.17001 149.75943,-25.95664 -50.71314,2.39938 -101.03629,7.87248 -149.75943,25.95664 z"
       id="path3487"
       sodipodi:nodetypes="ccc"
       inkscape:connector-curvature="0" />
    <path
       style="fill:#000000;fill-rule:evenodd;stroke:#000000;stroke-width:0.55498111px;stroke-linecap:butt;stroke-linejoin:miter;stroke-opacity:1"
       d="m 479.49688,258.83093 c -21.72487,-16.71749 -45.99717,-21.0814 -70.67244,-23.49129 24.26594,4.39488 48.18361,10.47858 70.67244,23.49129 z"
       id="path3489"
       sodipodi:nodetypes="ccc"
       inkscape:connector-curvature="0" />
    <path
       style="fill:#000000;fill-rule:evenodd;stroke:#000000;stroke-width:1.06590247px;stroke-linecap:butt;stroke-linejoin:miter;stroke-opacity:1"
       d="m 559.78173,234.9131 c -50.61348,-18.62999 -101.22695,-14.59653 -151.84044,-6.97827 50.61349,-3.97666 101.22696,-4.85506 151.84044,6.97827 z"
       id="path3491"
       sodipodi:nodetypes="ccc"
       inkscape:connector-curvature="0" />
    <path
       style="fill:#000000;fill-rule:evenodd;stroke:#000000;stroke-width:1.06590247px;stroke-linecap:butt;stroke-linejoin:miter;stroke-opacity:1"
       d="m 559.33832,258.33353 c -47.86764,-24.82697 -98.58793,-27.17 -149.75944,-25.95664 50.71314,2.39938 101.0363,7.87248 149.75944,25.95664 z"
       id="path3493"
       sodipodi:nodetypes="ccc"
       inkscape:connector-curvature="0" />
    <path
       style="fill:#000000;fill-rule:evenodd;stroke:#000000;stroke-width:1.06590247px;stroke-linecap:butt;stroke-linejoin:miter;stroke-opacity:1"
       d="M 345.6096,109.41516 C 345.61999,83.838536 358.16671,93.701063 371.58231,81.502086 358.9766,94.026681 343.95905,77.921305 345.6096,109.41516 z"
       id="path3495"
       sodipodi:nodetypes="ccc"
       inkscape:connector-curvature="0" />
    <path
       style="fill:#000000;fill-rule:evenodd;stroke:#000000;stroke-width:1.06590247px;stroke-linecap:butt;stroke-linejoin:miter;stroke-opacity:1"
       d="m 344.11118,105.42758 c 2.21125,-28.008949 -8.08893,-25.986084 -18.98006,-30.405314 7.9916,8.142493 18.80532,5.104805 18.98006,30.405314 z"
       id="path3497"
       sodipodi:nodetypes="ccc"
       inkscape:connector-curvature="0" />
    <path
       style="opacity:0.2574257;fill:#000000;fill-rule:evenodd;stroke:none"
       d="m 346.02376,106.42447 c 125.48041,165.68401 34.90228,150.35991 -39.78295,165.18626 59.55455,13.38824 133.90467,8.93422 139.707,-49.5464 -13.93082,-64.77452 -60.26518,-98.82337 -99.92405,-115.63986 z"
       id="path3503"
       sodipodi:nodetypes="cccc"
       inkscape:connector-curvature="0" />
    <path
       style="opacity:0.19801983;fill:#000000;fill-rule:evenodd;stroke:none"
       d="m 353.60121,272.906 c 46.88693,91.36283 42.19408,147.66389 -93.90132,114.64296 11.08618,27.8881 117.35153,47.34041 144.84777,-1.99379 16.72821,-37.86995 -5.74068,-76.44067 -50.94645,-112.64917 z"
       id="path3519"
       sodipodi:nodetypes="cccc"
       inkscape:connector-curvature="0" />
    <path
       style="fill:#ffffff;fill-rule:evenodd;stroke:#000000;stroke-width:3.09559226px;stroke-linecap:butt;stroke-linejoin:miter;stroke-opacity:1"
       d="m 364.28495,250.23756 4.51468,27.90671 -28.59308,2.09301 0,-27.55787 c 8.02615,0.004 16.05225,-0.59106 24.0784,-2.44185 z"
       id="path3470"
       sodipodi:nodetypes="ccccc"
       inkscape:connector-curvature="0" />
    <path
       style="fill:#ffffff;fill-rule:evenodd;stroke:#000000;stroke-width:3.09559226px;stroke-linecap:butt;stroke-linejoin:miter;stroke-opacity:1"
       d="m 315.37571,250.23752 -4.51469,27.90672 28.59309,2.09301 0,-27.55787 c -8.02615,0.004 -16.05226,-0.59106 -24.0784,-2.44186 z"
       id="path3468"
       sodipodi:nodetypes="ccccc"
       inkscape:connector-curvature="0" />
    <path
       style="fill:#000000;fill-rule:evenodd;stroke:#000000;stroke-width:1.06590247px;stroke-linecap:butt;stroke-linejoin:miter;stroke-opacity:1"
       d="m 286.17207,241.38796 c -2.9805,-6.36543 -5.74375,-12.68268 2.99685,-16.44878 -2.44277,3.56179 -4.48891,7.65133 -2.99685,16.44878 z"
       id="path3505"
       sodipodi:nodetypes="ccc"
       inkscape:connector-curvature="0" />
    <path
       style="fill:#000000;fill-rule:evenodd;stroke:#000000;stroke-width:1.06590247px;stroke-linecap:butt;stroke-linejoin:miter;stroke-opacity:1"
       d="m 396.62479,243.62043 c 2.98049,-6.36542 5.74375,-12.68267 -2.99685,-16.44877 2.44277,3.56178 4.48891,7.65133 2.99685,16.44877 z"
       id="path3507"
       sodipodi:nodetypes="ccc"
       inkscape:connector-curvature="0" />
    <path
       style="opacity:0.14851487;fill:#000000;fill-rule:evenodd;stroke:none"
       d="m 364.09019,252.46964 c -3.25609,2.90013 2.64815,28.89039 -22.47639,26.91618 l 25.97271,-2.49224 -3.49632,-24.42394 z"
       id="path3509"
       sodipodi:nodetypes="cccc"
       inkscape:connector-curvature="0" />
    <path
       style="opacity:0.14851487;fill:#000000;fill-rule:evenodd;stroke:none"
       d="m 337.77543,254.21469 c -3.7011,2.3081 -2.29153,28.92074 -26.71841,22.72998 l 26.02057,1.93209 0.69784,-24.66207 z"
       id="path3511"
       sodipodi:nodetypes="cccc"
       inkscape:connector-curvature="0" />
    <path
       style="fill:#aa8800;fill-rule:evenodd;stroke:#000000;stroke-width:4.26360989;stroke-linecap:butt;stroke-linejoin:miter;stroke-miterlimit:4;stroke-opacity:1;stroke-dasharray:none"
       d="m 301.15632,411.47445 c -0.91988,14.59621 -10.22855,26.80054 -2.49737,43.86339 -37.84136,-12.78776 -62.91979,6.71456 -66.43019,17.44567 27.83937,1.40939 55.39611,0.84432 81.91391,-6.97827 -15.01701,-22.95856 -11.68211,-37.59249 -12.98635,-54.33079 z"
       id="path3515"
       sodipodi:nodetypes="ccccc"
       inkscape:connector-curvature="0" />
    <path
       style="fill:#aa8800;fill-rule:evenodd;stroke:#000000;stroke-width:4.26360989;stroke-linecap:butt;stroke-linejoin:miter;stroke-miterlimit:4;stroke-opacity:1;stroke-dasharray:none"
       d="m 369.58441,411.91903 c 0.91988,14.59621 10.22855,26.80054 2.49737,43.86339 37.84136,-12.78776 62.91979,6.71456 66.43019,17.44567 -27.83937,1.40938 -55.39611,0.84431 -81.91392,-6.97827 15.01702,-22.95856 11.68212,-37.59249 12.98636,-54.33079 z"
       id="path3517"
       sodipodi:nodetypes="ccccc"
       inkscape:connector-curvature="0" />
    <path
       style="opacity:0.40594058;fill:#ffffff;fill-rule:evenodd;stroke:none"
       d="m 289.41087,459.8178 c -20.28122,-8.29607 -33.74587,-1.28638 -46.62005,7.04912 14.88529,-3.65648 29.88572,-7.08313 46.62005,-7.04912 z"
       id="path3543"
       sodipodi:nodetypes="ccc"
       inkscape:connector-curvature="0" />
    <path
       style="opacity:0.40594058;fill:#ffffff;fill-rule:evenodd;stroke:none"
       d="m 381.23825,459.56343 c 20.28122,-8.29607 33.74587,-1.28639 46.62005,7.04912 -14.88528,-3.65648 -29.88572,-7.08313 -46.62005,-7.04912 z"
       id="path3545"
       sodipodi:nodetypes="ccc"
       inkscape:connector-curvature="0" />
    <g
       id="g3618"
       transform="translate(-352.70398,-214.50161)">
      <path
         transform="matrix(1.0670004,0,0,1.0648056,341.04534,174.7808)"
         sodipodi:open="true"
         sodipodi:end="10.226218"
         sodipodi:start="5.4284799"
         d="m 323.56265,375.09384 c 5.55835,4.07305 6.14334,11.16937 1.3066,15.85009 -4.83674,4.68072 -13.26363,5.17333 -18.82198,1.10029 -5.55835,-4.07305 -6.14333,-11.16937 -1.30659,-15.85009 0.24919,-0.24115 0.51049,-0.47324 0.78319,-0.69562"
         sodipodi:ry="11.234674"
         sodipodi:rx="13.341176"
         sodipodi:cy="383.56903"
         sodipodi:cx="314.80496"
         id="path3521"
         style="fill:none;stroke:#000000;stroke-width:4;stroke-linejoin:round;stroke-miterlimit:4;stroke-opacity:1;stroke-dasharray:none"
         sodipodi:type="arc" />
      <path
         id="path3527"
         d="m 654.74743,519.55736 15.25229,77.78762 77.86694,-1.62057 5.61926,-102.90656 -24.08256,3.24114 4.81651,17.82634 -10.43578,4.05143 -2.40826,13.77489 -12.04127,-4.05143 -8.83027,6.48231 -8.83027,-5.67203 -11.23852,0 0,-12.15432 -4.01376,-1.62057 -21.67431,4.86175 z"
         style="fill:#ffff00;fill-rule:evenodd;stroke:#000000;stroke-width:4;stroke-linecap:butt;stroke-linejoin:miter;stroke-miterlimit:4;stroke-opacity:1;stroke-dasharray:none"
         inkscape:connector-curvature="0" />
      <path
         sodipodi:nodetypes="ccc"
         id="path3529"
         d="m 647.52348,544.63682 c 10.7083,13.66366 24.29874,1.05757 27.95641,-11.64229 -18.31824,-12.95775 -31.19402,-0.51811 -27.95641,11.64229 z"
         style="fill:#aa8800;fill-rule:evenodd;stroke:#000000;stroke-width:4.26360989;stroke-linecap:butt;stroke-linejoin:miter;stroke-miterlimit:4;stroke-opacity:1;stroke-dasharray:none"
         inkscape:connector-curvature="0" />
      <path
         sodipodi:nodetypes="ccc"
         id="path3531"
         d="m 650.95892,563.22075 c 6.78031,15.97213 23.18761,7.32568 30.02815,-3.98844 -14.31244,-17.26493 -29.9863,-8.59379 -30.02815,3.98844 z"
         style="fill:#aa8800;fill-rule:evenodd;stroke:#000000;stroke-width:4.26360989;stroke-linecap:butt;stroke-linejoin:miter;stroke-miterlimit:4;stroke-opacity:1;stroke-dasharray:none"
         inkscape:connector-curvature="0" />
      <path
         sodipodi:nodetypes="ccc"
         id="path3533"
         d="m 653.078,585.073 c 6.78031,15.97213 23.18762,7.32568 30.02816,-3.98844 -14.31245,-17.26493 -29.98631,-8.59379 -30.02816,3.98844 z"
         style="fill:#aa8800;fill-rule:evenodd;stroke:#000000;stroke-width:4.26360989;stroke-linecap:butt;stroke-linejoin:miter;stroke-miterlimit:4;stroke-opacity:1;stroke-dasharray:none"
         inkscape:connector-curvature="0" />
      <path
         sodipodi:nodetypes="cccc"
         id="path3550"
         d="m 751.61387,493.48667 c -1.84966,64.77668 -22.14535,107.79833 -82.4134,103.67711 l 77.41865,-1.99378 4.99475,-101.68333 z"
         style="opacity:0.39158421;fill:#000000;fill-rule:evenodd;stroke:#000000;stroke-width:1.06590247px;stroke-linecap:butt;stroke-linejoin:miter;stroke-opacity:1"
         inkscape:connector-curvature="0" />
      <path
         sodipodi:nodetypes="ccc"
         id="path3535"
         d="m 769.08352,542.878 c -10.70831,13.66366 -24.29875,1.05758 -27.95641,-11.64228 18.31824,-12.95775 31.19402,-0.51812 27.95641,11.64228 z"
         style="fill:#aa8800;fill-rule:evenodd;stroke:#000000;stroke-width:4.26360989;stroke-linecap:butt;stroke-linejoin:miter;stroke-miterlimit:4;stroke-opacity:1;stroke-dasharray:none"
         inkscape:connector-curvature="0" />
      <path
         sodipodi:nodetypes="ccc"
         id="path3537"
         d="m 765.64808,561.46194 c -6.78031,15.97212 -23.18762,7.32568 -30.02816,-3.98844 14.31245,-17.26493 29.98631,-8.59379 30.02816,3.98844 z"
         style="fill:#aa8800;fill-rule:evenodd;stroke:#000000;stroke-width:4.26360989;stroke-linecap:butt;stroke-linejoin:miter;stroke-miterlimit:4;stroke-opacity:1;stroke-dasharray:none"
         inkscape:connector-curvature="0" />
      <path
         sodipodi:nodetypes="ccc"
         id="path3539"
         d="m 763.52899,583.31419 c -6.7803,15.97212 -23.18761,7.32568 -30.02815,-3.98845 14.31244,-17.26492 29.98631,-8.59379 30.02815,3.98845 z"
         style="fill:#aa8800;fill-rule:evenodd;stroke:#000000;stroke-width:4.26360989;stroke-linecap:butt;stroke-linejoin:miter;stroke-miterlimit:4;stroke-opacity:1;stroke-dasharray:none"
         inkscape:connector-curvature="0" />
      <path
         sodipodi:nodetypes="ccc"
         id="path3552"
         d="m 673.69576,533.86093 c -6.41712,6.36866 -12.13222,13.85823 -24.97377,9.96896 6.82617,7.75855 19.14656,8.81145 24.97377,-9.96896 z"
         style="opacity:0.43069308;fill:#000000;fill-rule:evenodd;stroke:#000000;stroke-width:1.06590247px;stroke-linecap:butt;stroke-linejoin:miter;stroke-opacity:1"
         inkscape:connector-curvature="0" />
      <path
         sodipodi:nodetypes="ccc"
         id="path3554"
         d="m 743.12278,532.22945 c 6.41712,6.36865 12.13222,13.85823 24.97377,9.96895 -6.82617,7.75856 -19.14656,8.81146 -24.97377,-9.96895 z"
         style="opacity:0.43069308;fill:#000000;fill-rule:evenodd;stroke:#000000;stroke-width:1.06590247px;stroke-linecap:butt;stroke-linejoin:miter;stroke-opacity:1"
         inkscape:connector-curvature="0" />
      <path
         sodipodi:nodetypes="ccc"
         id="path3556"
         d="m 739.08643,562.33668 c 8.93247,1.4522 17.94773,4.22366 26.12255,-6.39711 -1.02661,10.27378 -10.43169,18.28532 -26.12255,6.39711 z"
         style="opacity:0.43069308;fill:#000000;fill-rule:evenodd;stroke:#000000;stroke-width:1.06590247px;stroke-linecap:butt;stroke-linejoin:miter;stroke-opacity:1"
         inkscape:connector-curvature="0" />
      <path
         sodipodi:nodetypes="ccc"
         id="path3558"
         d="m 736.0293,577.78527 c 7.3939,5.20817 14.28346,11.63861 26.29253,5.66123 -5.43005,8.7884 -17.40055,11.88238 -26.29253,-5.66123 z"
         style="opacity:0.43069308;fill:#000000;fill-rule:evenodd;stroke:#000000;stroke-width:1.06590247px;stroke-linecap:butt;stroke-linejoin:miter;stroke-opacity:1"
         inkscape:connector-curvature="0" />
      <path
         sodipodi:nodetypes="ccc"
         id="path3560"
         d="m 678.23581,563.34505 c -8.93247,1.4522 -17.94773,4.22367 -26.12255,-6.39711 1.02661,10.27378 10.43169,18.28532 26.12255,6.39711 z"
         style="opacity:0.43069308;fill:#000000;fill-rule:evenodd;stroke:#000000;stroke-width:1.06590247px;stroke-linecap:butt;stroke-linejoin:miter;stroke-opacity:1"
         inkscape:connector-curvature="0" />
      <path
         sodipodi:nodetypes="ccc"
         id="path3562"
         d="m 681.29294,578.79364 c -7.3939,5.20817 -14.28347,11.63861 -26.29253,5.66123 5.43005,8.78841 17.40055,11.88238 26.29253,-5.66123 z"
         style="opacity:0.43069308;fill:#000000;fill-rule:evenodd;stroke:#000000;stroke-width:1.06590247px;stroke-linecap:butt;stroke-linejoin:miter;stroke-opacity:1"
         inkscape:connector-curvature="0" />
    </g>
    <path
       sodipodi:type="arc"
       style="fill:#ffffff;fill-opacity:1;fill-rule:nonzero;stroke:none"
       id="path3582"
       sodipodi:cx="421.41733"
       sodipodi:cy="266.13159"
       sodipodi:rx="2.3405573"
       sodipodi:ry="1.9309597"
       d="m 423.75789,266.13159 c 0,1.06644 -1.04791,1.93096 -2.34056,1.93096 -1.29266,0 -2.34056,-0.86452 -2.34056,-1.93096 0,-1.06644 1.0479,-1.93096 2.34056,-1.93096 1.29265,0 2.34056,0.86452 2.34056,1.93096 z"
       transform="matrix(2.7326061,0,0,4.7281765,-845.67159,-1070.4707)" />
    <path
       sodipodi:type="arc"
       style="opacity:0.13366334;fill:#ffffff;fill-opacity:1;fill-rule:nonzero;stroke:none"
       id="path3635"
       sodipodi:cx="275.68494"
       sodipodi:cy="228.06859"
       sodipodi:rx="17.995102"
       sodipodi:ry="17.995102"
       d="m 293.68004,228.06859 c 0,9.93842 -8.05668,17.9951 -17.9951,17.9951 -9.93842,0 -17.99511,-8.05668 -17.99511,-17.9951 0,-9.93842 8.05669,-17.9951 17.99511,-17.9951 9.93842,0 17.9951,8.05668 17.9951,17.9951 z" />
    <path
       sodipodi:type="arc"
       style="opacity:0.13366334;fill:#ffffff;fill-opacity:1;fill-rule:nonzero;stroke:none"
       id="path3637"
       sodipodi:cx="275.68494"
       sodipodi:cy="228.06859"
       sodipodi:rx="17.995102"
       sodipodi:ry="17.995102"
       d="m 293.68004,228.06859 c 0,9.93842 -8.05668,17.9951 -17.9951,17.9951 -9.93842,0 -17.99511,-8.05668 -17.99511,-17.9951 0,-9.93842 8.05669,-17.9951 17.99511,-17.9951 9.93842,0 17.9951,8.05668 17.9951,17.9951 z"
       transform="translate(128.84494,5.0386238)" />
    <path
       style="opacity:0.20297032;fill:#ffffff;fill-rule:evenodd;stroke:none"
       d="M 169.99876,80.960995 C 197.03121,-31.418566 278.42211,40.364545 300.80619,56.530036 286.06179,34.646543 255.10539,-3.8307498 192.90278,21.410531 177.02917,36.866587 170.24239,55.234835 169.99876,80.960995 z"
       id="path3639"
       sodipodi:nodetypes="cccc"
       inkscape:connector-curvature="0" />
    <path
       style="opacity:0.20297032;fill:#ffffff;fill-rule:evenodd;stroke:none"
       d="M 526.07831,80.594216 C 499.04586,-31.785345 417.65496,39.997766 395.27088,56.163257 c 14.7444,-21.883493 45.7008,-60.3607855 107.90341,-35.119505 15.87361,15.456056 22.66039,33.824304 22.90402,59.550464 z"
       id="path3641"
       sodipodi:nodetypes="cccc"
       inkscape:connector-curvature="0" />
    <path
       sodipodi:type="arc"
       style="fill:#aa8800;fill-opacity:1;fill-rule:nonzero;stroke:none"
       id="path3643"
       sodipodi:cx="133.8613"
       sodipodi:cy="311.52817"
       sodipodi:rx="8.6526318"
       sodipodi:ry="19.341177"
       d="m 142.51393,311.52817 c 0,10.68183 -3.87392,19.34117 -8.65263,19.34117 -4.77872,0 -8.65263,-8.65934 -8.65263,-19.34117 0,-10.68184 3.87391,-19.34118 8.65263,-19.34118 4.77871,0 8.65263,8.65934 8.65263,19.34118 z"
       transform="matrix(1.2009282,-0.3539021,0.5186582,0.8194434,27.33365,146.12193)" />
    <path
       sodipodi:type="arc"
       style="fill:#aa8800;fill-opacity:1;fill-rule:nonzero;stroke:none"
       id="path3645"
       sodipodi:cx="133.8613"
       sodipodi:cy="311.52817"
       sodipodi:rx="8.6526318"
       sodipodi:ry="19.341177"
       d="m 142.51393,311.52817 c 0,10.68183 -3.87392,19.34117 -8.65263,19.34117 -4.77872,0 -8.65263,-8.65934 -8.65263,-19.34117 0,-10.68184 3.87391,-19.34118 8.65263,-19.34118 4.77871,0 8.65263,8.65934 8.65263,19.34118 z"
       transform="matrix(0.7006053,0.6497273,-0.3986077,0.5994326,404.23815,59.191806)" />
  </g>
</svg>
