<?xml version="1.0" encoding="UTF-8" standalone="no"?>
<!-- Created with Inkscape (http://www.inkscape.org/) -->

<svg
   xmlns:dc="http://purl.org/dc/elements/1.1/"
   xmlns:cc="http://creativecommons.org/ns#"
   xmlns:rdf="http://www.w3.org/1999/02/22-rdf-syntax-ns#"
   xmlns:svg="http://www.w3.org/2000/svg"
   xmlns="http://www.w3.org/2000/svg"
   xmlns:sodipodi="http://sodipodi.sourceforge.net/DTD/sodipodi-0.dtd"
   xmlns:inkscape="http://www.inkscape.org/namespaces/inkscape"
   width="616.11078"
   height="383.05319"
   id="svg3171"
   sodipodi:version="0.32"
   inkscape:version="0.48.3.1 r9886"
   sodipodi:docname="tortuga.svg"
   inkscape:output_extension="org.inkscape.output.svg.inkscape"
   version="1.1">
  <defs
     id="defs3173" />
  <sodipodi:namedview
     id="base"
     pagecolor="#ffffff"
     bordercolor="#666666"
     borderopacity="1.0"
     inkscape:pageopacity="0.0"
     inkscape:pageshadow="2"
     inkscape:zoom="0.5478135"
     inkscape:cx="745.70372"
     inkscape:cy="72.730746"
     inkscape:current-layer="layer1"
     inkscape:document-units="px"
     inkscape:window-width="1022"
     inkscape:window-height="703"
     inkscape:window-x="0"
     inkscape:window-y="48"
     showgrid="false"
     fit-margin-top="0"
     fit-margin-left="0"
     fit-margin-right="0"
     fit-margin-bottom="0"
     inkscape:window-maximized="0" />
  <metadata
     id="metadata3176">
    <rdf:RDF>
      <cc:Work
         rdf:about="">
        <dc:format>image/svg+xml</dc:format>
        <dc:type
           rdf:resource="http://purl.org/dc/dcmitype/StillImage" />
        <dc:title></dc:title>
        <dc:date>03022008</dc:date>
        <dc:creator>
          <cc:Agent>
            <dc:title>Vladimir Zúñiga Concha</dc:title>
          </cc:Agent>
        </dc:creator>
        <cc:license
           rdf:resource="http://creativecommons.org/licenses/by/2.5/" />
      </cc:Work>
      <cc:License
         rdf:about="http://creativecommons.org/licenses/by/2.5/">
        <cc:permits
           rdf:resource="http://web.resource.org/cc/Reproduction" />
        <cc:permits
           rdf:resource="http://web.resource.org/cc/Distribution" />
        <cc:requires
           rdf:resource="http://web.resource.org/cc/Notice" />
        <cc:requires
           rdf:resource="http://web.resource.org/cc/Attribution" />
        <cc:permits
           rdf:resource="http://web.resource.org/cc/DerivativeWorks" />
      </cc:License>
    </rdf:RDF>
  </metadata>
  <g
     id="layer1"
     inkscape:label="Layer 1"
     inkscape:groupmode="layer"
     transform="translate(-8.8161952,-79.639685)">
    <path
       style="fill:#5aa02c;fill-rule:evenodd;stroke:#000000;stroke-width:3.89541769;stroke-linecap:butt;stroke-linejoin:miter;stroke-miterlimit:4;stroke-opacity:1;stroke-dasharray:none"
       d="m 245.43611,402.37396 c 27.29702,14.4118 50.95978,36.95779 101.54537,-0.7547 17.12863,-58.60977 -14.51833,-98.63671 -25.02075,-122.38943 -88.01954,16.09424 -68.24776,72.67604 -76.52462,123.14413 z"
       id="path3193"
       sodipodi:nodetypes="cccc"
       inkscape:connector-curvature="0" />
    <path
       style="opacity:0.33191492;fill:#000000;fill-rule:evenodd;stroke:#000000;stroke-width:0.97385442px;stroke-linecap:butt;stroke-linejoin:miter;stroke-opacity:1"
       d="m 252.84454,335.27754 c 13.5097,13.39603 28.02861,22.23076 43.90226,24.94244 0,0 13.30371,-15.58903 9.75606,-16.92523 -3.54766,-1.33621 -49.22374,-22.71544 -49.22374,-22.71544 l -4.43458,14.69823 z"
       id="path3200"
       sodipodi:nodetypes="ccscc"
       inkscape:connector-curvature="0" />
    <path
       style="opacity:0.45127659;fill:#000000;fill-rule:evenodd;stroke:#000000;stroke-width:3.89541769;stroke-linecap:butt;stroke-linejoin:miter;stroke-miterlimit:4;stroke-opacity:1;stroke-dasharray:none"
       d="m 245.43611,402.37396 c 27.29702,14.4118 50.95978,36.95779 101.54537,-0.7547 17.12863,-58.60977 -14.51833,-98.63671 -25.02075,-122.38943 -88.01954,16.09424 -68.24776,72.67604 -76.52462,123.14413 z"
       id="path3198"
       sodipodi:nodetypes="cccc"
       inkscape:connector-curvature="0" />
    <path
       style="fill:#550000;fill-rule:evenodd;stroke:#000000;stroke-width:3;stroke-linecap:butt;stroke-linejoin:miter;stroke-miterlimit:4;stroke-opacity:1;stroke-dasharray:none"
       d="m 92.18466,265.9673 c 61.85417,-1.94578 100.14778,-18.28968 118.19716,-47.00505 -40.89619,8.93122 -79.70306,27.26441 -118.19716,47.00505 z"
       id="path3232"
       sodipodi:nodetypes="ccc"
       inkscape:connector-curvature="0" />
    <path
       style="fill:#5aa02c;fill-rule:evenodd;stroke:#000000;stroke-width:3.89541769;stroke-linecap:butt;stroke-linejoin:miter;stroke-miterlimit:4;stroke-opacity:1;stroke-dasharray:none"
       d="M 223.69814,115.27291 C 23.953147,27.092292 13.802207,128.48729 10.763904,230.54069 80.617872,250.51112 196.8976,265.86164 208.24616,215.59857 c -4.52642,39.94848 -72.95074,43.05633 -117.856671,52.29745 43.247131,-1.09854 86.494241,9.91729 129.741361,-11.74025 3.52009,38.80239 52.24229,92.52943 104.53794,107.97325 36.10583,-21.75954 -74.37508,-189.03273 -100.97065,-248.85611 z"
       id="path3179"
       sodipodi:nodetypes="ccccccc"
       inkscape:connector-curvature="0" />
    <g
       id="g3194"
       transform="matrix(0.9717271,0,0,0.9759864,-179.08268,-368.36757)">
      <path
         sodipodi:nodetypes="cccc"
         id="path3192"
         d="m 621.19194,791.08197 c 28.09124,14.7664 52.44247,37.86712 104.49987,-0.77326 17.62701,-60.05185 -49.59379,-77.0054 -48.17131,-122.12008 -90.5805,16.49022 -47.81089,71.1835 -56.32856,122.89334 z"
         style="opacity:0.29787233;fill:#000000;fill-rule:evenodd;stroke:#000000;stroke-width:4;stroke-linecap:butt;stroke-linejoin:miter;stroke-miterlimit:4;stroke-opacity:1;stroke-dasharray:none"
         inkscape:connector-curvature="0" />
      <path
         sodipodi:nodetypes="cccc"
         id="path3195"
         d="m 623.01738,792.9074 c 28.09124,14.7664 52.44247,37.86712 104.49987,-0.77326 17.62701,-60.05185 -49.59379,-77.0054 -48.17131,-122.12008 -90.5805,16.49022 -47.81089,71.1835 -56.32856,122.89334 z"
         style="fill:#2d5016;fill-rule:evenodd;stroke:#000000;stroke-width:4;stroke-linecap:butt;stroke-linejoin:miter;stroke-miterlimit:4;stroke-opacity:1;stroke-dasharray:none"
         inkscape:connector-curvature="0" />
    </g>
    <path
       style="fill:#5aa02c;fill-rule:evenodd;stroke:#000000;stroke-width:3.49806857;stroke-linecap:butt;stroke-linejoin:miter;stroke-miterlimit:4;stroke-opacity:1;stroke-dasharray:none"
       d="m 623.17796,361.25966 -12.69657,-36.65606 -23.43982,13.96421 36.13639,22.69185 z"
       id="path3191"
       inkscape:connector-curvature="0" />
    <path
       style="fill:#bec8b7;fill-rule:evenodd;stroke:#000000;stroke-width:3.52120209;stroke-linecap:butt;stroke-linejoin:miter;stroke-miterlimit:4;stroke-opacity:1;stroke-dasharray:none"
       d="M 321.84633,365.001 C 349.31629,345.06964 291.56826,296.63158 294.27596,254.28078 428.87403,-80.179173 617.84483,235.65188 613.14385,322.95453 524.51022,408.00531 424.24967,384.47105 321.84633,365.001 z"
       id="path3181"
       sodipodi:nodetypes="cccc"
       inkscape:connector-curvature="0" />
    <g
       id="g4243"
       transform="matrix(1.2139856,0,0,1.2464481,-213.23263,50.563576)"
       style="stroke-width:3.16672373;stroke-miterlimit:4;stroke-dasharray:none">
      <path
         sodipodi:nodetypes="ccc"
         id="path6248"
         d="m 310.50898,50.406899 c -17.01987,-3.10002 -56.32749,54.671161 -14.4862,68.471321 40.95849,1.7548 39.69686,-59.056661 14.4862,-68.471321 z"
         style="fill:#dbe3db;fill-rule:evenodd;stroke:#000000;stroke-width:3.16672373;stroke-linecap:butt;stroke-linejoin:miter;stroke-miterlimit:4;stroke-opacity:1;stroke-dasharray:none"
         inkscape:connector-curvature="0" />
      <path
         transform="translate(12.778072,-89.446501)"
         d="m 301.39715,177.31206 c 0,11.40605 -3.8286,20.65248 -8.55142,20.65248 -4.72281,0 -8.55141,-9.24643 -8.55141,-20.65248 0,-11.40605 3.8286,-20.65249 8.55141,-20.65249 4.72282,0 8.55142,9.24644 8.55142,20.65249 z"
         sodipodi:ry="20.652483"
         sodipodi:rx="8.5514183"
         sodipodi:cy="177.31206"
         sodipodi:cx="292.84573"
         id="path6252"
         style="fill:#000000;fill-opacity:1;fill-rule:nonzero;stroke:none"
         sodipodi:type="arc" />
      <path
         transform="translate(12.778072,-89.446501)"
         d="m 294.62057,169.08333 c 0,4.90104 -3.53965,8.87411 -7.90603,8.87411 -4.36638,0 -7.90603,-3.97307 -7.90603,-8.87411 0,-4.90104 3.53965,-8.87411 7.90603,-8.87411 4.36638,0 7.90603,3.97307 7.90603,8.87411 z"
         sodipodi:ry="8.8741131"
         sodipodi:rx="7.9060283"
         sodipodi:cy="169.08333"
         sodipodi:cx="286.71454"
         id="path6254"
         style="fill:#dbe3db;fill-opacity:1;fill-rule:nonzero;stroke:none"
         sodipodi:type="arc" />
      <path
         sodipodi:nodetypes="ccc"
         id="path6256"
         d="m 299.16991,99.321229 c 4.03355,7.100901 7.4973,11.536151 13.2305,-0.48405 -4.67908,6.204011 -8.55142,4.536181 -13.2305,0.48405 z"
         style="fill:#dbe3db;fill-rule:evenodd;stroke:#000000;stroke-width:3.16672373;stroke-linecap:butt;stroke-linejoin:miter;stroke-miterlimit:4;stroke-opacity:1;stroke-dasharray:none"
         inkscape:connector-curvature="0" />
      <path
         transform="translate(11.648639,-91.221324)"
         d="m 308.17376,184.97606 c 0,3.1634 -2.85339,5.72784 -6.37322,5.72784 -3.51984,0 -6.37323,-2.56444 -6.37323,-5.72784 0,-3.1634 2.85339,-5.72784 6.37323,-5.72784 3.51983,0 6.37322,2.56444 6.37322,5.72784 z"
         sodipodi:ry="5.7278371"
         sodipodi:rx="6.3732271"
         sodipodi:cy="184.97606"
         sodipodi:cx="301.80054"
         id="path6258"
         style="opacity:0.53465349;fill:#dbe3db;fill-opacity:1;fill-rule:nonzero;stroke:none"
         sodipodi:type="arc" />
      <path
         sodipodi:nodetypes="cc"
         id="path6260"
         d="m 328.05112,75.603149 c -0.48524,-15.79934 -8.54657,-36.86418 -33.88298,-26.1383"
         style="fill:none;stroke:#000000;stroke-width:3.16672373;stroke-linecap:butt;stroke-linejoin:miter;stroke-miterlimit:4;stroke-opacity:1;stroke-dasharray:none"
         inkscape:connector-curvature="0" />
      <path
         sodipodi:nodetypes="ccc"
         id="path6294"
         d="m 272.22488,108.51803 c 15.81228,13.22852 40.29744,19.71667 49.04964,-0.3227 -6.66902,14.21 -32.05437,17.50207 -49.04964,0.3227 z"
         style="fill:#000000;fill-rule:evenodd;stroke:#000000;stroke-width:3.16672373;stroke-linecap:butt;stroke-linejoin:miter;stroke-miterlimit:4;stroke-opacity:1;stroke-dasharray:none"
         inkscape:connector-curvature="0" />
    </g>
    <path
       style="fill:#000000;fill-rule:evenodd;stroke:#000000;stroke-width:0.97385442px;stroke-linecap:butt;stroke-linejoin:miter;stroke-opacity:1"
       d="m 200.31091,210.62356 c 5.64428,1.31805 11.28857,9.12359 16.93286,17.00708 -3.13572,-13.22773 -8.78001,-18.89675 -16.93286,-17.00708 z"
       id="path3247"
       sodipodi:nodetypes="ccc"
       inkscape:connector-curvature="0" />
    <path
       style="fill:#000000;fill-rule:evenodd;stroke:#000000;stroke-width:0.97385442px;stroke-linecap:butt;stroke-linejoin:miter;stroke-opacity:1"
       d="m 74.255154,165.27134 c 8.361909,5.03913 10.870477,12.59785 7.525717,22.67612 9.125569,-19.24385 -0.662977,-19.49067 -7.525717,-22.67612 z"
       id="path3249"
       sodipodi:nodetypes="ccc"
       inkscape:connector-curvature="0" />
    <path
       style="fill:#786721;fill-rule:evenodd;stroke:#000000;stroke-width:3.49806857;stroke-linecap:butt;stroke-linejoin:miter;stroke-miterlimit:4;stroke-opacity:1;stroke-dasharray:none"
       d="m 369.37832,134.56975 c 5.77834,21.61036 9.3354,43.22073 26.23851,64.8311 30.32005,15.54002 60.6401,15.54004 90.96015,0 12.28728,-21.90501 17.07182,-45.3722 20.11619,-69.20174 -39.89682,-21.78445 -79.25996,-45.680285 -137.31485,4.37064 z"
       id="path3295"
       sodipodi:nodetypes="ccccc"
       inkscape:connector-curvature="0" />
    <path
       style="fill:#786721;fill-rule:evenodd;stroke:#000000;stroke-width:3.49806857;stroke-linecap:butt;stroke-linejoin:miter;stroke-miterlimit:4;stroke-opacity:1;stroke-dasharray:none"
       d="m 355.38445,147.68165 c 13.26529,22.33881 21.71693,34.47948 27.98774,56.81827 2.04587,24.35138 -14.20026,43.72667 -37.60853,48.80544 -24.5457,2.37779 -30.38303,-13.05196 -39.35775,-25.49538 5.05724,-29.39102 28.26704,-54.46242 48.97854,-80.12833 z"
       id="path3297"
       sodipodi:nodetypes="ccccc"
       inkscape:connector-curvature="0" />
    <path
       style="opacity:0.2595745;fill:#000000;fill-rule:evenodd;stroke:#000000;stroke-width:0.97385442px;stroke-linecap:butt;stroke-linejoin:miter;stroke-opacity:1"
       d="m 222.26092,255.34588 c 18.53656,-6.87242 20.07175,-20.57519 30.10286,-30.8647 -28.2699,37.16177 31.28445,120.87949 76.51146,112.75065 l -26.34001,17.63697 c -34.79616,-25.10102 -71.40631,-48.38009 -80.27431,-99.52292 z"
       id="path2193"
       sodipodi:nodetypes="ccccc"
       inkscape:connector-curvature="0" />
    <path
       style="opacity:0.73267362;fill:#ffffff;fill-rule:evenodd;stroke:none"
       d="M 434.09997,105.43218 C 382.49291,133.09406 272.75373,219.11772 322.14901,305.02455 313.26278,283.41418 298.67686,256.65297 300.94599,235.04261 359.28972,114.77527 407.92756,110.5168 434.09997,105.43218 z"
       id="path3278"
       sodipodi:nodetypes="cccc"
       inkscape:connector-curvature="0" />
    <path
       style="fill:#786721;fill-rule:evenodd;stroke:#000000;stroke-width:3.49806857;stroke-linecap:butt;stroke-linejoin:miter;stroke-miterlimit:4;stroke-opacity:1;stroke-dasharray:none"
       d="m 523.31089,145.49633 c -10.04935,18.70634 -21.24205,37.84266 -24.48927,64.10267 10.90248,19.14554 29.36771,30.59263 61.22318,28.40913 l 16.61772,-21.12474 c -9.65399,-30.5668 -32.72827,-49.95628 -53.35163,-71.38706 z"
       id="path3299"
       sodipodi:nodetypes="ccccc"
       inkscape:connector-curvature="0" />
    <path
       style="fill:#786721;fill-rule:evenodd;stroke:#000000;stroke-width:3.49806857;stroke-linecap:butt;stroke-linejoin:miter;stroke-miterlimit:4;stroke-opacity:1;stroke-dasharray:none"
       d="m 588.03254,242.37877 c -22.5238,4.91361 -49.32008,3.89655 -65.59626,17.48254 -16.23528,17.20358 -1.87594,28.52687 11.37001,40.06416 35.35781,13.12353 53.86899,3.79744 78.71551,2.91376 l -24.48926,-60.46046 z"
       id="path3305"
       sodipodi:nodetypes="ccccc"
       inkscape:connector-curvature="0" />
    <path
       style="fill:#786721;fill-rule:evenodd;stroke:#000000;stroke-width:3.49806857;stroke-linecap:butt;stroke-linejoin:miter;stroke-miterlimit:4;stroke-opacity:1;stroke-dasharray:none"
       d="m 392.34933,358.1954 c 3.49635,-14.99921 4.46899,-31.39971 17.31652,-41.20673 23.65921,-2.56346 46.23622,-9.76239 72.97681,-2.06034 14.28772,13.79502 14.52897,33.43945 16.07964,52.5386 L 392.34933,358.1954 z"
       id="path3311"
       sodipodi:nodetypes="ccccc"
       inkscape:connector-curvature="0" />
    <path
       style="opacity:0.41276592;fill:#000000;fill-rule:evenodd;stroke:#000000;stroke-width:0.87584883px;stroke-linecap:butt;stroke-linejoin:miter;stroke-opacity:1"
       d="m 452.95817,107.54828 c 58.68372,11.35432 141.78983,92.75272 159.48812,212.95677 -69.29807,46.16706 -178.43667,85.79258 -269.52255,9.30393 295.18388,8.61408 211.45061,-177.68035 110.03443,-222.2607 z"
       id="path3276"
       sodipodi:nodetypes="cccc"
       inkscape:connector-curvature="0" />
    <path
       style="fill:#786721;fill-rule:evenodd;stroke:#000000;stroke-width:3.49806857;stroke-linecap:butt;stroke-linejoin:miter;stroke-miterlimit:4;stroke-opacity:1;stroke-dasharray:none"
       d="m 394.7422,227.08154 c 31.19468,-13.88751 62.38935,-7.78563 93.58401,-0.72844 10.03424,19.66785 9.49113,39.33573 0.87462,59.00359 -35.60278,23.63103 -67.87269,16.72776 -98.8317,-2.18532 -12.26037,-18.69661 -3.83277,-37.39322 4.37307,-56.08983 z"
       id="path3303"
       sodipodi:nodetypes="ccccc"
       inkscape:connector-curvature="0" />
    <path
       style="fill:#786721;fill-rule:evenodd;stroke:#000000;stroke-width:3.49806857;stroke-linecap:butt;stroke-linejoin:miter;stroke-miterlimit:4;stroke-opacity:1;stroke-dasharray:none"
       d="m 305.76668,257.23888 c 22.87611,2.41446 45.8852,4.60741 65.55542,12.36202 8.84789,1.22818 13.37139,46.84013 -4.94757,45.32743 -7.38516,-0.60983 -42.05442,5.15085 -42.05442,5.15085 -25.49485,-20.94677 -17.71586,-41.89355 -18.55343,-62.8403 z"
       id="path3309"
       sodipodi:nodetypes="ccscc"
       inkscape:connector-curvature="0" />
    <path
       style="opacity:0.28936169;fill:#000000;fill-rule:evenodd;stroke:#000000;stroke-width:0.86834604px;stroke-linecap:butt;stroke-linejoin:miter;stroke-opacity:1"
       d="m 458.59006,109.05875 c 39.76197,70.97481 101.91057,153.97678 -136.38058,212.67873 81.21403,45.9628 163.42733,88.96898 290.24582,0 C 597.09792,194.46771 514.10194,129.43054 458.59006,109.05875 z"
       id="path3175"
       sodipodi:nodetypes="cccc"
       inkscape:connector-curvature="0" />
    <path
       style="fill:#5aa02c;fill-rule:evenodd;stroke:#000000;stroke-width:3.89541769;stroke-linecap:butt;stroke-linejoin:miter;stroke-miterlimit:4;stroke-opacity:1;stroke-dasharray:none"
       d="m 284.74222,440.78722 c 27.29702,14.4118 50.95978,36.9578 101.54537,-0.75469 17.12863,-58.60979 -8.30992,-103.98154 -25.02075,-122.38944 -89.60556,17.6872 -68.25519,72.68348 -76.52462,123.14413 z"
       id="path3183"
       sodipodi:nodetypes="cccc"
       inkscape:connector-curvature="0" />
    <path
       style="fill:#5aa02c;fill-rule:evenodd;stroke:#000000;stroke-width:3.89541769;stroke-linecap:butt;stroke-linejoin:miter;stroke-miterlimit:4;stroke-opacity:1;stroke-dasharray:none"
       d="m 508.10062,432.6223 c 27.29703,14.41181 50.95977,36.95781 101.54536,-0.75469 17.12864,-58.60978 -48.19163,-75.15621 -46.80937,-119.18752 -88.01953,16.09423 -46.45914,69.47412 -54.73599,119.94221 z"
       id="path3185"
       sodipodi:nodetypes="cccc"
       inkscape:connector-curvature="0" />
    <path
       style="opacity:0.27659577;fill:#000000;fill-rule:evenodd;stroke:#000000;stroke-width:0.97385442px;stroke-linecap:butt;stroke-linejoin:miter;stroke-opacity:1"
       d="m 514.0764,352.24818 c 115.02039,39.83469 78.08664,76.96431 -4.71171,79.48135 29.4167,14.23287 59.56395,35.55079 101.10822,-3.11781 11.40278,-37.18195 -32.75019,-70.44237 -44.34571,-114.46802 l -32.37237,-1.3362 -19.67843,39.44068 z"
       id="path3188"
       sodipodi:nodetypes="cccccc"
       inkscape:connector-curvature="0" />
    <path
       style="opacity:0.53617021;fill:#000000;fill-rule:evenodd;stroke:#000000;stroke-width:0.87451714px;stroke-linecap:butt;stroke-linejoin:miter;stroke-opacity:1"
       d="m 610.82582,329.39441 -11.76829,14.94797 -5.80213,-2.66096 17.05503,-13.84036 0.51539,1.55335 z"
       id="path3190"
       sodipodi:nodetypes="ccccc"
       inkscape:connector-curvature="0" />
    <g
       id="g2207">
      <path
         sodipodi:nodetypes="cccc"
         id="path3184"
         d="m 328.23225,332.60513 c 81.3576,18.92089 51.47641,122.85313 -41.68496,109.56861 28.59041,13.35051 54.05915,37.00285 98.44747,-1.7816 9.90178,-72.70201 18.84151,-144.17656 -56.76251,-107.78701 z"
         style="opacity:0.35744683;fill:#000000;fill-rule:evenodd;stroke:#000000;stroke-width:0.97385442px;stroke-linecap:butt;stroke-linejoin:miter;stroke-opacity:1"
         inkscape:connector-curvature="0" />
      <path
         transform="matrix(1.6810716,0,0,2.3102101,360.73468,154.83133)"
         d="m -11.865352,95.288773 c 0,8.317337 -6.129576,15.059867 -13.690791,15.059867 -7.561215,0 -13.690791,-6.74253 -13.690791,-15.059867 0,-8.317337 6.129576,-15.05987 13.690791,-15.05987 7.561215,0 13.690791,6.742533 13.690791,15.05987 z"
         sodipodi:ry="15.05987"
         sodipodi:rx="13.690791"
         sodipodi:cy="95.288773"
         sodipodi:cx="-25.556143"
         id="path3202"
         style="opacity:0.05957444;color:#000000;fill:#ffffff;fill-opacity:1;fill-rule:evenodd;stroke:none;stroke-width:3;marker:none;visibility:visible;display:inline;overflow:visible;enable-background:accumulate"
         sodipodi:type="arc" />
    </g>
    <path
       style="fill:#c4c8b7;fill-rule:evenodd;stroke:#000000;stroke-width:3.74876118;stroke-linecap:butt;stroke-linejoin:miter;stroke-miterlimit:4;stroke-opacity:1;stroke-dasharray:none"
       d="m 301.26821,216.8725 c 7.61096,35.71877 0.36042,61.39164 23.59859,97.11041 23.39045,-10.76669 70.97575,-2.82819 64.67763,42.69508 l 108.37873,6.69728 c 13.81975,-80.55421 61.85268,-63.7347 80.41003,-35.99782 5.26192,9.94632 28.42808,-7.55662 42.10786,-11.72024 l -43.85589,38.50931 c -48.08763,-75.28308 -54.92937,-3.82858 -72.54383,29.30055 L 386.92237,376.7698 c -18.9078,-26.20381 -12.93127,-68.31357 -59.43351,-41.02077 -44.37904,-26.43861 -24.0109,-81.21694 -46.32316,-119.71369 2.86324,-10.74818 10.26178,-8.46427 20.10251,0.83716 z"
       id="path3301"
       sodipodi:nodetypes="cccccccccccc"
       inkscape:connector-curvature="0" />
    <path
       style="opacity:0.40099009;fill:#000000;fill-rule:evenodd;stroke:none"
       d="m 485.11645,227.87906 c 14.6681,50.01754 -8.05354,74.33168 -97.09627,53.05369 24.58971,11.90357 52.10897,32.72812 100.80695,4.12068 5.12029,-19.46541 11.91844,-39.0383 -3.71068,-57.17437 z"
       id="path3313"
       sodipodi:nodetypes="cccc"
       inkscape:connector-curvature="0" />
    <path
       style="opacity:0.30693066;fill:#000000;fill-rule:evenodd;stroke:none"
       d="m 503.66987,130.01304 c -24.49235,28.16184 12.13657,87.34446 -106.99141,67.47605 11.27818,8.51261 40.73295,24.40487 88.43799,1.03017 13.86826,-22.83541 19.524,-45.67081 18.55342,-68.50622 z"
       id="path3315"
       sodipodi:nodetypes="cccc"
       inkscape:connector-curvature="0" />
    <path
       style="opacity:0.36633666;fill:#000000;fill-rule:evenodd;stroke:none"
       d="m 307.00357,226.84889 c 50.8318,45.31566 61.09415,-0.45692 74.83215,-22.66371 1.19679,29.27946 -18.1143,46.9352 -39.58065,46.87268 -15.27116,6.59151 -24.66611,-11.28741 -35.2515,-24.20897 z"
       id="path3317"
       sodipodi:nodetypes="cccc"
       inkscape:connector-curvature="0" />
    <path
       sodipodi:type="arc"
       style="opacity:0.09787233;color:#000000;fill:#000000;fill-opacity:1;fill-rule:evenodd;stroke:none;stroke-width:3;marker:none;visibility:visible;display:inline;overflow:visible;enable-background:accumulate"
       id="path2187"
       sodipodi:cx="-25.556143"
       sodipodi:cy="95.288773"
       sodipodi:rx="13.690791"
       sodipodi:ry="15.05987"
       d="m -11.865352,95.288773 c 0,8.317337 -6.129576,15.059867 -13.690791,15.059867 -7.561215,0 -13.690791,-6.74253 -13.690791,-15.059867 0,-8.317337 6.129576,-15.05987 13.690791,-15.05987 7.561215,0 13.690791,6.742533 13.690791,15.05987 z"
       transform="matrix(0.5783241,0,0,0.4839909,231.25947,99.319971)" />
    <path
       sodipodi:type="arc"
       style="opacity:0.09787233;color:#000000;fill:#000000;fill-opacity:1;fill-rule:evenodd;stroke:none;stroke-width:3;marker:none;visibility:visible;display:inline;overflow:visible;enable-background:accumulate"
       id="path2189"
       sodipodi:cx="-25.556143"
       sodipodi:cy="95.288773"
       sodipodi:rx="13.690791"
       sodipodi:ry="15.05987"
       d="m -11.865352,95.288773 c 0,8.317337 -6.129576,15.059867 -13.690791,15.059867 -7.561215,0 -13.690791,-6.74253 -13.690791,-15.059867 0,-8.317337 6.129576,-15.05987 13.690791,-15.05987 7.561215,0 13.690791,6.742533 13.690791,15.05987 z"
       transform="matrix(0.5968757,0,0,0.558293,249.29966,105.95213)" />
    <path
       sodipodi:type="arc"
       style="opacity:0.09787233;color:#000000;fill:#000000;fill-opacity:1;fill-rule:evenodd;stroke:none;stroke-width:3;marker:none;visibility:visible;display:inline;overflow:visible;enable-background:accumulate"
       id="path2191"
       sodipodi:cx="-25.556143"
       sodipodi:cy="95.288773"
       sodipodi:rx="13.690791"
       sodipodi:ry="15.05987"
       d="m -11.865352,95.288773 c 0,8.317337 -6.129576,15.059867 -13.690791,15.059867 -7.561215,0 -13.690791,-6.74253 -13.690791,-15.059867 0,-8.317337 6.129576,-15.05987 13.690791,-15.05987 7.561215,0 13.690791,6.742533 13.690791,15.05987 z"
       transform="matrix(0.4949908,0,0,0.4666564,231.44302,129.01088)" />
    <path
       sodipodi:type="arc"
       style="opacity:0.14042556;color:#000000;fill:#ffffff;fill-opacity:1;fill-rule:evenodd;stroke:none;stroke-width:3;marker:none;visibility:visible;display:inline;overflow:visible;enable-background:accumulate"
       id="path3177"
       sodipodi:cx="402.05289"
       sodipodi:cy="146.40106"
       sodipodi:rx="45.179611"
       sodipodi:ry="53.394085"
       d="m 447.2325,146.40106 c 0,29.48874 -20.2276,53.39409 -45.17961,53.39409 -24.95201,0 -45.17961,-23.90535 -45.17961,-53.39409 0,-29.48874 20.2276,-53.394083 45.17961,-53.394083 24.95201,0 45.17961,23.905343 45.17961,53.394083 z"
       transform="matrix(1.2203721,0.5608332,-0.7201392,1.0869912,3.3948923,-184.49199)" />
    <path
       style="opacity:0.14042556;fill:#ffffff;fill-rule:evenodd;stroke:none"
       d="m 22.20228,185.42788 c 16.562698,-55.8342 44.873472,-102.098527 94.6986,-79.36639 L 93.696588,85.904958 C 47.941042,91.7091 18.849065,130.92797 22.20228,185.42788 z"
       id="path3182"
       sodipodi:nodetypes="cccc"
       inkscape:connector-curvature="0" />
    <path
       style="opacity:0.35744683;fill:#000000;fill-rule:evenodd;stroke:#000000;stroke-width:0.93719029px;stroke-linecap:butt;stroke-linejoin:miter;stroke-opacity:1"
       d="m 286.7147,209.86581 c 22.24897,41.63455 1.7834,76.16558 38.93569,114.24837 24.67267,-6.56617 46.11474,-16.48677 61.18468,44.39705 l 114.95299,0.59196 c 24.93183,-66.33572 46.5533,-74.15606 74.78126,-28.41412 l 33.99148,-18.94272 -32.75542,32.55782 c -21.03726,-15.3671 -34.43956,-76.29948 -75.39928,27.23019 l -116.80709,-4.73568 c -13.99707,-29.68936 -22.24169,-66.44033 -56.85848,-41.43724 -44.3424,-29.56827 -31.39058,-80.47788 -46.97005,-120.75995 l 4.94422,-4.73568 z"
       id="path3204"
       sodipodi:nodetypes="cccccccccccc"
       inkscape:connector-curvature="0" />
    <path
       style="opacity:0.28085106;fill:#ffffff;fill-rule:evenodd;stroke:none"
       d="m 284.24258,217.26531 c 5.47608,0.82956 13.32411,8.96686 17.30477,6.21559 -8.74231,-22.03145 -22.33847,-10.13049 -17.30477,-6.21559 z"
       id="path3206"
       sodipodi:nodetypes="ccc"
       inkscape:connector-curvature="0" />
    <path
       sodipodi:type="arc"
       style="opacity:0.08936169;color:#000000;fill:#ffffff;fill-opacity:1;fill-rule:evenodd;stroke:none;stroke-width:3;marker:none;visibility:visible;display:inline;overflow:visible;enable-background:accumulate"
       id="path3210"
       sodipodi:cx="194.40923"
       sodipodi:cy="214.85501"
       sodipodi:rx="22.817986"
       sodipodi:ry="20.536186"
       d="m 217.22721,214.85501 c 0,11.34182 -10.21596,20.53619 -22.81798,20.53619 -12.60203,0 -22.81799,-9.19437 -22.81799,-20.53619 0,-11.34182 10.21596,-20.53619 22.81799,-20.53619 12.60202,0 22.81798,9.19437 22.81798,20.53619 z"
       transform="matrix(0.9717271,0,0,0.9759864,21.359936,7.5507428)" />
    <path
       style="opacity:0.31489366;fill:#000000;fill-rule:evenodd;stroke:#000000;stroke-width:0.89799577px;stroke-linecap:butt;stroke-linejoin:miter;stroke-opacity:1"
       d="m 518.33369,351.76745 c 13.47095,-44.38266 33.86701,-27.82455 47.41489,-9.76353 -20.60927,-16.66496 -34.31411,-4.70298 -47.41489,9.76353 z"
       id="path3234"
       sodipodi:nodetypes="ccc"
       inkscape:connector-curvature="0" />
  </g>
</svg>
