<?xml version="1.0" encoding="UTF-8" standalone="no"?>
<!-- Created with Inkscape (http://www.inkscape.org/) -->

<svg
   xmlns:dc="http://purl.org/dc/elements/1.1/"
   xmlns:cc="http://creativecommons.org/ns#"
   xmlns:rdf="http://www.w3.org/1999/02/22-rdf-syntax-ns#"
   xmlns:svg="http://www.w3.org/2000/svg"
   xmlns="http://www.w3.org/2000/svg"
   xmlns:sodipodi="http://sodipodi.sourceforge.net/DTD/sodipodi-0.dtd"
   xmlns:inkscape="http://www.inkscape.org/namespaces/inkscape"
   width="579.99634"
   height="389.26773"
   id="svg2160"
   sodipodi:version="0.32"
   inkscape:version="0.48.3.1 r9886"
   sodipodi:docname="vaca.svg"
   inkscape:output_extension="org.inkscape.output.svg.inkscape"
   sodipodi:modified="true"
   version="1.1">
  <defs
     id="defs2162" />
  <sodipodi:namedview
     id="base"
     pagecolor="#ffffff"
     bordercolor="#666666"
     borderopacity="1.0"
     inkscape:pageopacity="0.0"
     inkscape:pageshadow="2"
     inkscape:zoom="0.50833333"
     inkscape:cx="286.49063"
     inkscape:cy="45.817403"
     inkscape:current-layer="layer1"
     inkscape:document-units="px"
     inkscape:window-width="958"
     inkscape:window-height="690"
     inkscape:window-x="32"
     inkscape:window-y="48"
     showgrid="false"
     fit-margin-top="0"
     fit-margin-left="0"
     fit-margin-right="0"
     fit-margin-bottom="0"
     inkscape:window-maximized="0" />
  <metadata
     id="metadata2165">
    <rdf:RDF>
      <cc:Work
         rdf:about="">
        <dc:format>image/svg+xml</dc:format>
        <dc:type
           rdf:resource="http://purl.org/dc/dcmitype/StillImage" />
        <dc:title></dc:title>
      </cc:Work>
    </rdf:RDF>
  </metadata>
  <g
     id="layer1"
     inkscape:label="Layer 1"
     inkscape:groupmode="layer"
     transform="translate(-15.502022,-59.893095)">
    <path
       style="fill:#e6e6e6;fill-rule:evenodd;stroke:#000000;stroke-width:4;stroke-linecap:butt;stroke-linejoin:miter;stroke-miterlimit:4;stroke-opacity:1;stroke-dasharray:none"
       d="m 112.99269,177.75269 c -46.523324,2.05608 -90.923439,6.5428 -95.490668,56.6027 46.136598,20.3436 76.69405,13.18417 100.883528,-40.03143 l -5.39286,-16.57127 z"
       id="path3151"
       sodipodi:nodetypes="cccc"
       inkscape:connector-curvature="0" />
    <path
       style="opacity:0.23500001;color:#000000;fill:#000000;fill-opacity:1;fill-rule:evenodd;stroke:#000000;stroke-width:2.93527389px;stroke-linecap:butt;stroke-linejoin:miter;stroke-miterlimit:4;stroke-opacity:1;stroke-dasharray:none;stroke-dashoffset:0;marker:none;visibility:visible;display:inline;overflow:visible;enable-background:accumulate"
       d="m 112.99269,177.75269 c -46.523324,2.05608 -90.923439,6.5428 -95.490668,56.6027 46.136598,20.3436 76.69405,13.18417 100.883528,-40.03143 l -5.39286,-16.57127 z"
       id="path5187"
       sodipodi:nodetypes="cccc"
       inkscape:connector-curvature="0" />
    <path
       style="color:#000000;fill:#f2f2f2;fill-opacity:1;fill-rule:evenodd;stroke:#000000;stroke-width:2.93527389px;stroke-linecap:butt;stroke-linejoin:miter;stroke-miterlimit:4;stroke-opacity:1;stroke-dasharray:none;stroke-dashoffset:0;marker:none;visibility:visible;display:inline;overflow:visible;enable-background:accumulate"
       d="m 161.20603,268.52725 c 4.23942,47.55592 18.74705,112.22579 30.62284,172.50925 l 60.22497,0 37.76768,-107.18013"
       id="path3187"
       sodipodi:nodetypes="cccc"
       inkscape:connector-curvature="0" />
    <path
       style="color:#000000;fill:#e9ddaf;fill-opacity:1;fill-rule:evenodd;stroke:#000000;stroke-width:2.93527389px;stroke-linecap:butt;stroke-linejoin:miter;stroke-miterlimit:4;stroke-opacity:1;stroke-dasharray:none;stroke-dashoffset:0;marker:none;visibility:visible;display:inline;overflow:visible;enable-background:accumulate"
       d="m 187.78901,421.9245 65.3784,11.82375 -2.08654,6.25964 -59.81428,0.69551 -3.47758,-18.7789 z"
       id="path4198"
       inkscape:connector-curvature="0" />
    <path
       style="color:#000000;fill:#f2f2f2;fill-opacity:1;fill-rule:evenodd;stroke:#000000;stroke-width:2.93527389px;stroke-linecap:butt;stroke-linejoin:miter;stroke-miterlimit:4;stroke-opacity:1;stroke-dasharray:none;stroke-dashoffset:0;marker:none;visibility:visible;display:inline;overflow:visible;enable-background:accumulate"
       d="m 474.57953,265.58907 c -4.23927,47.55602 -18.74686,112.22558 -30.62297,172.50886 l -60.22446,0 -37.76873,-107.17977"
       id="path3182"
       sodipodi:nodetypes="cccc"
       inkscape:connector-curvature="0" />
    <path
       style="color:#000000;fill:#e9ddaf;fill-opacity:1;fill-rule:evenodd;stroke:#000000;stroke-width:2.93527389px;stroke-linecap:butt;stroke-linejoin:miter;stroke-miterlimit:4;stroke-opacity:1;stroke-dasharray:none;stroke-dashoffset:0;marker:none;visibility:visible;display:inline;overflow:visible;enable-background:accumulate"
       d="m 376.96906,418.44694 66.76943,11.82375 -2.08654,6.25964 -59.81428,0.69551 -4.86861,-18.7789 z"
       id="path4202"
       sodipodi:nodetypes="ccccc"
       inkscape:connector-curvature="0" />
    <path
       style="opacity:0.23500001;color:#000000;fill:#000000;fill-opacity:1;fill-rule:evenodd;stroke:#000000;stroke-width:2.93527389px;stroke-linecap:butt;stroke-linejoin:miter;stroke-miterlimit:4;stroke-opacity:1;stroke-dasharray:none;stroke-dashoffset:0;marker:none;visibility:visible;display:inline;overflow:visible;enable-background:accumulate"
       d="m 474.57953,265.58907 c -4.23927,47.55602 -18.74686,112.22558 -30.62297,172.50886 l -60.22446,0 -37.76873,-107.17977"
       id="path4184"
       sodipodi:nodetypes="cccc"
       inkscape:connector-curvature="0" />
    <path
       sodipodi:type="arc"
       style="color:#000000;fill:#f2f2f2;fill-opacity:1;fill-rule:evenodd;stroke:#000000;stroke-width:1.43572211;stroke-linecap:butt;stroke-linejoin:miter;stroke-miterlimit:4;stroke-opacity:1;stroke-dasharray:none;stroke-dashoffset:0;marker:none;visibility:visible;display:inline;overflow:visible;enable-background:accumulate"
       id="path3178"
       sodipodi:cx="229.67213"
       sodipodi:cy="235.57378"
       sodipodi:rx="71.311478"
       sodipodi:ry="60.491802"
       d="m 300.98361,235.57378 c 0,33.4087 -31.92723,60.4918 -71.31148,60.4918 -39.38424,0 -71.31147,-27.0831 -71.31147,-60.4918 0,-33.4087 31.92723,-60.49181 71.31147,-60.49181 39.38425,0 71.31148,27.08311 71.31148,60.49181 z"
       transform="matrix(2.9500746,0,0,2.6311535,-325.09929,-381.62497)" />
    <path
       style="color:#000000;fill:#f4d7d7;fill-opacity:1;fill-rule:evenodd;stroke:#000000;stroke-width:2.93527389px;stroke-linecap:butt;stroke-linejoin:miter;stroke-miterlimit:4;stroke-opacity:1;stroke-dasharray:none;stroke-dashoffset:0;marker:none;visibility:visible;display:inline;overflow:visible;enable-background:accumulate"
       d="m 396.88525,392.45902 c 44.28081,28.16687 102.33821,-1.47975 102.29508,-28.52459 -34.09836,11.77554 -68.19672,23.18319 -102.29508,28.52459 z"
       id="path4204"
       sodipodi:nodetypes="ccc"
       inkscape:connector-curvature="0" />
    <path
       style="opacity:0.12999998;color:#000000;fill:#000000;fill-opacity:1;fill-rule:evenodd;stroke:#000000;stroke-width:2.93527389px;stroke-linecap:butt;stroke-linejoin:miter;stroke-miterlimit:4;stroke-opacity:1;stroke-dasharray:none;stroke-dashoffset:0;marker:none;visibility:visible;display:inline;overflow:visible;enable-background:accumulate"
       d="m 563.38618,249.6806 c -99.3121,96.21554 -209.46043,167.92723 -453.2183,-75.57368 -13.972886,204.14623 338.04366,346.69026 453.2183,75.57368 z"
       id="path3207"
       sodipodi:nodetypes="ccc"
       inkscape:connector-curvature="0" />
    <path
       style="opacity:0.23500001;color:#000000;fill:#000000;fill-opacity:1;fill-rule:evenodd;stroke:#000000;stroke-width:2.93527389px;stroke-linecap:butt;stroke-linejoin:miter;stroke-miterlimit:4;stroke-opacity:1;stroke-dasharray:none;stroke-dashoffset:0;marker:none;visibility:visible;display:inline;overflow:visible;enable-background:accumulate"
       d="m 161.20603,268.52725 c 4.23942,47.55592 18.74705,112.22579 30.62284,172.50925 l 60.22497,0 37.76768,-107.18013"
       id="path4182"
       sodipodi:nodetypes="cccc"
       inkscape:connector-curvature="0" />
    <path
       style="color:#000000;fill:#f2f2f2;fill-opacity:1;fill-rule:evenodd;stroke:#000000;stroke-width:4;stroke-linecap:butt;stroke-linejoin:miter;stroke-miterlimit:4;stroke-opacity:1;stroke-dasharray:none;stroke-dashoffset:0;marker:none;visibility:visible;display:inline;overflow:visible;enable-background:accumulate"
       d="m 238.7836,274.65224 c 4.23991,47.55634 18.74762,112.2259 30.62297,172.50858 l 60.22511,0 37.76808,-107.17977"
       id="path3185"
       sodipodi:nodetypes="cccc"
       inkscape:connector-curvature="0" />
    <path
       style="fill:#008000;fill-rule:evenodd;stroke:#000000;stroke-width:2.87019372px;stroke-linecap:butt;stroke-linejoin:miter;stroke-opacity:1"
       d="M 98.939989,333.82774 C 180.63567,311.31835 264.63471,314.62708 352.92114,365.96713 273.21948,328.02977 188.81959,315.88613 98.939989,333.82774 z"
       id="path3168"
       sodipodi:nodetypes="ccc"
       inkscape:connector-curvature="0" />
    <path
       style="fill:#008000;fill-rule:evenodd;stroke:#000000;stroke-width:2.93527389px;stroke-linecap:butt;stroke-linejoin:miter;stroke-opacity:1"
       d="m 103.05648,365.48247 c 73.96921,-45.15321 157.47971,-65.57465 258.74064,-39.98435 -89.04467,-14.83316 -175.43854,-2.98545 -258.74064,39.98435 z"
       id="path3166"
       sodipodi:nodetypes="ccc"
       inkscape:connector-curvature="0" />
    <path
       style="fill:#008000;fill-rule:evenodd;stroke:#000000;stroke-width:2.93527389px;stroke-linecap:butt;stroke-linejoin:miter;stroke-opacity:1"
       d="M 77.217505,355.13589 C 155.12776,317.18516 240.19568,304.75841 338.58128,339.81622 251.33986,316.62334 164.21198,320.24268 77.217505,355.13589 z"
       id="path3164"
       sodipodi:nodetypes="ccc"
       inkscape:connector-curvature="0" />
    <path
       style="fill:#000000;fill-rule:evenodd;stroke:#000000;stroke-width:0.58705497;stroke-linecap:butt;stroke-linejoin:miter;stroke-miterlimit:4;stroke-opacity:1;stroke-dasharray:none"
       d="M 125.42263,196.65953 C 99.357586,189.9938 73.414749,181.17144 45.238343,211.81988 72.95363,186.48735 99.128938,192.7881 125.42263,196.65953 z"
       id="path3206"
       sodipodi:nodetypes="ccc"
       inkscape:connector-curvature="0" />
    <path
       style="opacity:0.33000004;color:#000000;fill:#000000;fill-opacity:1;fill-rule:evenodd;stroke:#000000;stroke-width:2.93527389px;stroke-linecap:butt;stroke-linejoin:miter;stroke-miterlimit:4;stroke-opacity:1;stroke-dasharray:none;stroke-dashoffset:0;marker:none;visibility:visible;display:inline;overflow:visible;enable-background:accumulate"
       d="m 325.05293,292.82077 c 3.05295,16.9292 5.72214,97.21316 116.36724,35.72711 C 483.00514,262.00016 325.4913,174.73122 325.05293,292.82077 z"
       id="path3199"
       sodipodi:nodetypes="ccc"
       inkscape:connector-curvature="0" />
    <path
       style="fill:#e6e6e6;fill-rule:evenodd;stroke:#000000;stroke-width:4;stroke-linecap:butt;stroke-linejoin:miter;stroke-miterlimit:4;stroke-opacity:1;stroke-dasharray:none"
       d="m 307.43978,179.04458 c 46.52336,2.0567 90.92281,6.54236 95.49012,56.60298 -46.13638,20.34304 -76.69397,13.18433 -100.88309,-40.03138 l 5.39297,-16.5716 z"
       id="path3145"
       sodipodi:nodetypes="cccc"
       inkscape:connector-curvature="0" />
    <path
       style="fill:#e9ddaf;fill-rule:evenodd;stroke:#000000;stroke-width:4;stroke-linecap:butt;stroke-linejoin:miter;stroke-miterlimit:4;stroke-opacity:1;stroke-dasharray:none"
       d="M 113.48812,174.41434 C 3.3961017,178.79333 13.267882,105.03424 49.859911,61.893095 41.63564,165.19364 112.44692,111.86992 148.31621,117.48401 c -17.73717,17.44484 -31.32143,35.92837 -34.82809,56.93033 z"
       id="path3147"
       sodipodi:nodetypes="cccc"
       inkscape:connector-curvature="0" />
    <path
       style="fill:#e9ddaf;fill-rule:evenodd;stroke:#000000;stroke-width:4;stroke-linecap:butt;stroke-linejoin:miter;stroke-miterlimit:4;stroke-opacity:1;stroke-dasharray:none"
       d="m 309.56225,174.41434 c 110.09163,4.37899 100.21981,-69.3801 63.62793,-112.521245 8.22404,103.300545 -62.58725,49.976825 -98.45569,55.590915 17.73632,17.44484 31.32043,35.92837 34.82776,56.93033 z"
       id="path3149"
       sodipodi:nodetypes="cccc"
       inkscape:connector-curvature="0" />
    <path
       style="opacity:0.21499999;fill:#000000;fill-rule:evenodd;stroke:#000000;stroke-width:2.52664185px;stroke-linecap:butt;stroke-linejoin:miter;stroke-opacity:1"
       d="m 310.50172,173.73716 c 94.76598,3.76978 99.52909,-60.66907 68.03134,-97.80429 7.07926,88.9192 -67.13483,43.96675 -98.01073,48.79924 15.2679,15.01635 26.96094,30.92621 29.97939,49.00505 z"
       id="path3162"
       sodipodi:nodetypes="cccc"
       inkscape:connector-curvature="0" />
    <path
       style="fill:#000000;fill-rule:evenodd;stroke:#000000;stroke-width:0.58705497;stroke-linecap:butt;stroke-linejoin:miter;stroke-miterlimit:4;stroke-opacity:1;stroke-dasharray:none"
       d="m 284.89732,197.31566 c 26.06533,-6.66621 52.00832,-15.48857 80.18485,15.15987 -27.71628,-25.3317 -53.89087,-19.03053 -80.18485,-15.15987 z"
       id="path3208"
       sodipodi:nodetypes="ccc"
       inkscape:connector-curvature="0" />
    <path
       style="fill:#000000;fill-rule:evenodd;stroke:#000000;stroke-width:0.58705497;stroke-linecap:butt;stroke-linejoin:miter;stroke-miterlimit:4;stroke-opacity:1;stroke-dasharray:none"
       d="m 164.45181,184.4518 c -26.86667,-1.41632 -54.03696,-4.97108 -75.644198,30.61462 22.199578,-30.2823 49.102558,-29.24545 75.644198,-30.61462 z"
       id="path3174"
       sodipodi:nodetypes="ccc"
       inkscape:connector-curvature="0" />
    <path
       style="fill:#000000;fill-rule:evenodd;stroke:#000000;stroke-width:0.58705497;stroke-linecap:butt;stroke-linejoin:miter;stroke-miterlimit:4;stroke-opacity:1;stroke-dasharray:none"
       d="m 260.16536,187.79021 c 26.867,-1.41636 54.03779,-4.971 75.64465,30.61556 -22.19959,-30.28335 -49.10269,-29.24629 -75.64465,-30.61556 z"
       id="path3176"
       sodipodi:nodetypes="ccc"
       inkscape:connector-curvature="0" />
    <path
       sodipodi:type="arc"
       style="color:#000000;fill:#f2f2f2;fill-opacity:1;fill-rule:evenodd;stroke:#000000;stroke-width:1.3627373;stroke-linecap:butt;stroke-linejoin:miter;stroke-miterlimit:4;stroke-opacity:1;stroke-dasharray:none;stroke-dashoffset:0;marker:none;visibility:visible;display:inline;overflow:visible;enable-background:accumulate"
       id="path2168"
       sodipodi:cx="165.21986"
       sodipodi:cy="213.4539"
       sodipodi:rx="35.496456"
       sodipodi:ry="45.822697"
       d="m 200.71632,213.4539 c 0,25.30718 -15.8923,45.8227 -35.49646,45.8227 -19.60415,0 -35.49645,-20.51552 -35.49645,-45.8227 0,-25.30717 15.8923,-45.82269 35.49645,-45.82269 19.60416,0 35.49646,20.51552 35.49646,45.82269 z"
       transform="matrix(2.9352685,0,0,2.9352685,-273.63824,-405.96294)" />
    <path
       style="opacity:0.12999998;color:#000000;fill:#000000;fill-opacity:1;fill-rule:evenodd;stroke:#000000;stroke-width:2.93527389px;stroke-linecap:butt;stroke-linejoin:miter;stroke-miterlimit:4;stroke-opacity:1;stroke-dasharray:none;stroke-dashoffset:0;marker:none;visibility:visible;display:inline;overflow:visible;enable-background:accumulate"
       d="m 237.39257,273.95672 c 4.23991,47.55634 18.74762,112.2259 30.62297,172.50858 l 60.22511,0 37.76808,-107.17977"
       id="path4180"
       sodipodi:nodetypes="cccc"
       inkscape:connector-curvature="0" />
    <path
       style="fill:#f4d7d7;fill-rule:evenodd;stroke:none"
       d="m 118.27941,275.5959 c 30.62916,91.58885 143.98316,111.87716 186.04147,-2.03495 -71.63369,-31.44046 -128.62017,-21.59704 -186.04147,2.03495 z"
       id="path3141"
       sodipodi:nodetypes="ccc"
       inkscape:connector-curvature="0" />
    <path
       style="opacity:0.33000004;fill:#000000;fill-rule:evenodd;stroke:#000000;stroke-width:2.93527389px;stroke-linecap:butt;stroke-linejoin:miter;stroke-opacity:1"
       d="M 246.43708,94.75854 C 209.9877,142.35011 181.18738,252.612 314.41887,220.33988 313.97416,165.75677 294.16675,115.2834 246.43708,94.75854 z"
       id="path3157"
       sodipodi:nodetypes="ccc"
       inkscape:connector-curvature="0" />
    <path
       sodipodi:type="arc"
       style="color:#000000;fill:#000000;fill-opacity:1;fill-rule:evenodd;stroke:#000000;stroke-width:1px;stroke-linecap:butt;stroke-linejoin:miter;stroke-miterlimit:4;stroke-opacity:1;stroke-dasharray:none;stroke-dashoffset:0;marker:none;visibility:visible;display:inline;overflow:visible;enable-background:accumulate"
       id="path3155"
       sodipodi:cx="148.60106"
       sodipodi:cy="204.33777"
       sodipodi:rx="5.1631207"
       sodipodi:ry="9.277482"
       d="m 153.76418,204.33777 c 0,5.12381 -2.31161,9.27748 -5.16312,9.27748 -2.85151,0 -5.16312,-4.15367 -5.16312,-9.27748 0,-5.12381 2.31161,-9.27748 5.16312,-9.27748 2.85151,0 5.16312,4.15367 5.16312,9.27748 z"
       transform="matrix(2.9352685,0,0,2.9352685,-180.33986,-405.72664)" />
    <path
       style="opacity:0.23500001;fill:#000000;fill-rule:evenodd;stroke:#000000;stroke-width:2.93527389px;stroke-linecap:butt;stroke-linejoin:miter;stroke-opacity:1"
       d="M 212.27324,86.079082 C 129.38747,137.30244 113.45925,398.09173 272.89364,326.66684 220.91937,375.37477 162.03865,353.28242 130.81428,302.03996 94.358829,267.99079 88.997212,99.991737 212.27324,86.079082 z"
       id="path3165"
       sodipodi:nodetypes="cccc"
       inkscape:connector-curvature="0" />
    <path
       sodipodi:type="arc"
       style="color:#000000;fill:#000000;fill-opacity:1;fill-rule:evenodd;stroke:#000000;stroke-width:1px;stroke-linecap:butt;stroke-linejoin:miter;stroke-miterlimit:4;stroke-opacity:1;stroke-dasharray:none;stroke-dashoffset:0;marker:none;visibility:visible;display:inline;overflow:visible;enable-background:accumulate"
       id="path3153"
       sodipodi:cx="148.60106"
       sodipodi:cy="204.33777"
       sodipodi:rx="5.1631207"
       sodipodi:ry="9.277482"
       d="m 153.76418,204.33777 c 0,5.12381 -2.31161,9.27748 -5.16312,9.27748 -2.85151,0 -5.16312,-4.15367 -5.16312,-9.27748 0,-5.12381 2.31161,-9.27748 5.16312,-9.27748 2.85151,0 5.16312,4.15367 5.16312,9.27748 z"
       transform="matrix(2.9352685,0,0,2.9352685,-273.63824,-405.96294)" />
    <path
       style="fill:#cccccc;fill-rule:evenodd;stroke:#000000;stroke-width:4;stroke-linecap:butt;stroke-linejoin:miter;stroke-miterlimit:4;stroke-opacity:1;stroke-dasharray:none"
       d="m 140.34135,116.33311 c 12.91915,-5.57103 25.83831,-19.525142 38.75743,-13.8791 -5.11705,8.77882 -11.65357,16.49291 -7.06721,32.54929 8.09439,-20.89614 21.57468,-25.63413 34.54457,-31.90248 13.71011,6.78388 30.27095,8.81701 36.95857,27.30573 9.61088,-10.75921 -0.93792,-21.51856 -8.20581,-32.277826 l 37.3848,9.761036 C 228.68998,70.454272 184.59162,62.94568 140.34135,116.33311 z"
       id="path3184"
       sodipodi:nodetypes="cccccccc"
       inkscape:connector-curvature="0" />
    <path
       style="color:#000000;fill:#cccccc;fill-opacity:1;fill-rule:evenodd;stroke:#000000;stroke-width:4;stroke-linecap:butt;stroke-linejoin:miter;stroke-miterlimit:4;stroke-opacity:1;stroke-dasharray:none;stroke-dashoffset:0;marker:none;visibility:visible;display:inline;overflow:visible;enable-background:accumulate"
       d="m 194.5876,80.97073 c 0.13943,-14.288137 -4.3695,-6.380541 -9.77912,-11.156241 11.4452,-2.84884 16.55256,-8.042686 21.83497,8.47714 9.60656,-16.527539 15.93893,-9.183579 27.92009,-14.629883 -6.83816,7.695753 -17.28721,9.020653 -12.8505,19.318327"
       id="path3186"
       sodipodi:nodetypes="ccccc"
       inkscape:connector-curvature="0" />
    <path
       sodipodi:type="arc"
       style="color:#000000;fill:#ffffff;fill-opacity:1;fill-rule:evenodd;stroke:none;stroke-width:0.2;marker:none;visibility:visible;display:inline;overflow:visible;enable-background:accumulate"
       id="path3210"
       sodipodi:cx="149.81117"
       sodipodi:cy="152.38387"
       sodipodi:rx="3.3076241"
       sodipodi:ry="3.4689717"
       d="m 153.1188,152.38387 c 0,1.91586 -1.48088,3.46897 -3.30763,3.46897 -1.82675,0 -3.30762,-1.55311 -3.30762,-3.46897 0,-1.91586 1.48087,-3.46898 3.30762,-3.46898 1.82675,0 3.30763,1.55312 3.30763,3.46898 z"
       transform="matrix(3.0784529,0,0,3.6861541,-293.66845,-373.80711)" />
    <path
       sodipodi:type="arc"
       style="color:#000000;fill:#ffffff;fill-opacity:1;fill-rule:evenodd;stroke:none;stroke-width:0.2;marker:none;visibility:visible;display:inline;overflow:visible;enable-background:accumulate"
       id="path3212"
       sodipodi:cx="149.81117"
       sodipodi:cy="152.38387"
       sodipodi:rx="3.3076241"
       sodipodi:ry="3.4689717"
       d="m 153.1188,152.38387 c 0,1.91586 -1.48088,3.46897 -3.30763,3.46897 -1.82675,0 -3.30762,-1.55311 -3.30762,-3.46897 0,-1.91586 1.48087,-3.46898 3.30762,-3.46898 1.82675,0 3.30763,1.55312 3.30763,3.46898 z"
       transform="matrix(3.0784529,0,0,3.6861541,-200.60601,-374.75452)" />
    <path
       style="fill:#ffffff;fill-rule:evenodd;stroke:#000000;stroke-width:1.17410994;stroke-linecap:butt;stroke-linejoin:miter;stroke-miterlimit:4;stroke-opacity:1;stroke-dasharray:none"
       d="m 152.22451,210.75751 c 3.35742,8.29414 12.35137,14.28608 22.25887,0 -9.67341,7.51284 -16.34156,5.00774 -22.25887,0 z"
       id="path3214"
       sodipodi:nodetypes="ccc"
       inkscape:connector-curvature="0" />
    <path
       style="fill:#ffffff;fill-rule:evenodd;stroke:#000000;stroke-width:1.17410994;stroke-linecap:butt;stroke-linejoin:miter;stroke-miterlimit:4;stroke-opacity:1;stroke-dasharray:none"
       d="m 266.94364,210.34162 c -3.3572,8.29347 -12.35129,14.28514 -22.2586,0 9.67336,7.51309 16.34096,5.00776 22.2586,0 z"
       id="path3216"
       sodipodi:nodetypes="ccc"
       inkscape:connector-curvature="0" />
    <path
       style="fill:#000000;fill-rule:evenodd;stroke:#000000;stroke-width:1.17410994;stroke-linecap:butt;stroke-linejoin:miter;stroke-miterlimit:4;stroke-opacity:1;stroke-dasharray:none"
       d="m 246.10252,304.39626 c 27.468,-18.86339 -17.92636,-50.17148 -2.34377,-11.38641 -9.59321,-27.66137 21.34385,-12.05353 2.34377,11.38641 z"
       id="path2185"
       sodipodi:nodetypes="ccc"
       inkscape:connector-curvature="0" />
    <path
       style="fill:#000000;fill-rule:evenodd;stroke:#000000;stroke-width:1.17410994;stroke-linecap:butt;stroke-linejoin:miter;stroke-miterlimit:4;stroke-opacity:1;stroke-dasharray:none"
       d="m 175.43925,303.9375 c -27.46833,-18.86449 17.92641,-50.17177 2.34398,-11.38688 9.59241,-27.66206 -21.3442,-12.05438 -2.34398,11.38688 z"
       id="path3158"
       sodipodi:nodetypes="ccc"
       inkscape:connector-curvature="0" />
    <path
       style="opacity:0.21499999;fill:#000000;fill-rule:evenodd;stroke:#000000;stroke-width:2.52664185px;stroke-linecap:butt;stroke-linejoin:miter;stroke-opacity:1"
       d="M 110.68208,175.11978 C 15.916618,178.88956 11.152587,114.45112 42.651191,77.315789 35.571881,166.2354 109.78617,121.28255 140.66165,126.11486 125.3941,141.13132 113.70079,157.04155 110.68208,175.11978 z"
       id="path3160"
       sodipodi:nodetypes="cccc"
       inkscape:connector-curvature="0" />
    <path
       style="opacity:0.18500001;fill:#000000;fill-rule:evenodd;stroke:#000000;stroke-width:2.93527389px;stroke-linecap:butt;stroke-linejoin:miter;stroke-opacity:1"
       d="m 206.11663,81.816738 c -15.72228,3.508436 -23.87167,29.734852 -33.62558,51.148602 -2.10152,-5.94973 -6.13496,-9.96745 7.57764,-31.73106 -18.9649,-2.287004 -26.65106,8.58399 -38.83503,14.20788 13.41231,-14.52666 28.57778,-28.176947 54.46369,-36.467092 -1.294,-4.136234 -1.98049,-8.53289 -11.83985,-8.998349 13.90247,-7.073966 20.984,-2.552659 22.25913,11.840019 z"
       id="path3172"
       sodipodi:nodetypes="ccccccc"
       inkscape:connector-curvature="0" />
    <path
       style="color:#000000;fill:#f2f2f2;fill-opacity:1;fill-rule:evenodd;stroke:#000000;stroke-width:4;stroke-linecap:butt;stroke-linejoin:miter;stroke-miterlimit:4;stroke-opacity:1;stroke-dasharray:none;stroke-dashoffset:0;marker:none;visibility:visible;display:inline;overflow:visible;enable-background:accumulate"
       d="m 558.28217,269.58448 c -4.23922,47.55619 -18.74725,112.2257 -30.62297,172.50895 l -60.22474,0 -37.76845,-107.18051"
       id="path3180"
       sodipodi:nodetypes="cccc"
       inkscape:connector-curvature="0" />
    <path
       style="opacity:0.33000004;color:#000000;fill:#000000;fill-opacity:1;fill-rule:evenodd;stroke:#000000;stroke-width:2.93527389px;stroke-linecap:butt;stroke-linejoin:miter;stroke-miterlimit:4;stroke-opacity:1;stroke-dasharray:none;stroke-dashoffset:0;marker:none;visibility:visible;display:inline;overflow:visible;enable-background:accumulate"
       d="M 417.83401,86.295444 C 485.97724,105.34615 530.13565,140.38664 552.08616,190.23253 453.99333,244.46594 398.00061,184.03754 417.83401,86.295444 z"
       id="path3193"
       sodipodi:nodetypes="ccc"
       inkscape:connector-curvature="0" />
    <path
       style="color:#000000;fill:#f2f2f2;fill-opacity:1;fill-rule:evenodd;stroke:#000000;stroke-width:4;stroke-linecap:butt;stroke-linejoin:miter;stroke-miterlimit:4;stroke-opacity:1;stroke-dasharray:none;stroke-dashoffset:0;marker:none;visibility:visible;display:inline;overflow:visible;enable-background:accumulate"
       d="m 560.38694,216.06115 c 17.74314,50.34332 -15.51349,135.98525 11.18767,158.43291 -36.33763,-15.73034 -4.70287,-95.33515 -15.87881,-97.44178"
       id="path3195"
       sodipodi:nodetypes="ccc"
       inkscape:connector-curvature="0" />
    <path
       style="opacity:0.12999998;color:#000000;fill:#000000;fill-opacity:1;fill-rule:evenodd;stroke:#000000;stroke-width:2.93527389px;stroke-linecap:butt;stroke-linejoin:miter;stroke-miterlimit:4;stroke-opacity:1;stroke-dasharray:none;stroke-dashoffset:0;marker:none;visibility:visible;display:inline;overflow:visible;enable-background:accumulate"
       d="m 556.39934,270.81399 c -4.23922,47.55619 -18.00955,110.99619 -29.88527,171.27944 l -60.22474,0 -37.76845,-107.18051"
       id="path3209"
       sodipodi:nodetypes="cccc"
       inkscape:connector-curvature="0" />
    <path
       style="opacity:0.12999998;color:#000000;fill:#000000;fill-opacity:1;fill-rule:evenodd;stroke:#000000;stroke-width:2.93527389px;stroke-linecap:butt;stroke-linejoin:miter;stroke-miterlimit:4;stroke-opacity:1;stroke-dasharray:none;stroke-dashoffset:0;marker:none;visibility:visible;display:inline;overflow:visible;enable-background:accumulate"
       d="m 557.68201,252.9464 c 24.13659,-22.44357 -11.82496,100.08361 14.8762,122.53127 -36.07355,-15.73034 -9.50511,-111.31876 -16.86242,-98.91719"
       id="path4186"
       sodipodi:nodetypes="ccc"
       inkscape:connector-curvature="0" />
    <path
       style="color:#000000;fill:#e9ddaf;fill-opacity:1;fill-rule:evenodd;stroke:#000000;stroke-width:2.93527389px;stroke-linecap:butt;stroke-linejoin:miter;stroke-miterlimit:4;stroke-opacity:1;stroke-dasharray:none;stroke-dashoffset:0;marker:none;visibility:visible;display:inline;overflow:visible;enable-background:accumulate"
       d="m 266.38219,428.5319 65.3784,11.82375 -2.08654,6.25964 -59.81428,0.69551 -3.47758,-18.7789 z"
       id="path4196"
       inkscape:connector-curvature="0" />
    <path
       style="color:#000000;fill:#e9ddaf;fill-opacity:1;fill-rule:evenodd;stroke:#000000;stroke-width:2.93527389px;stroke-linecap:butt;stroke-linejoin:miter;stroke-miterlimit:4;stroke-opacity:1;stroke-dasharray:none;stroke-dashoffset:0;marker:none;visibility:visible;display:inline;overflow:visible;enable-background:accumulate"
       d="m 460.43084,421.92452 66.76943,12.51926 -2.08654,6.25964 -59.81428,0.69551 -4.86861,-19.47441 z"
       id="path4200"
       sodipodi:nodetypes="ccccc"
       inkscape:connector-curvature="0" />
    <path
       style="color:#000000;fill:#f4d7d7;fill-opacity:1;fill-rule:evenodd;stroke:#000000;stroke-width:3.00831795px;stroke-linecap:butt;stroke-linejoin:miter;stroke-miterlimit:4;stroke-opacity:1;stroke-dasharray:none;stroke-dashoffset:0;marker:none;visibility:visible;display:inline;overflow:visible;enable-background:accumulate"
       d="m 415.07171,396.92177 c -1.79203,11.12754 -0.30577,38.17955 13.25242,3.89165"
       id="path4206"
       sodipodi:nodetypes="cc"
       inkscape:connector-curvature="0" />
    <path
       style="color:#000000;fill:#f4d7d7;fill-opacity:1;fill-rule:evenodd;stroke:#000000;stroke-width:3.00831795px;stroke-linecap:butt;stroke-linejoin:miter;stroke-miterlimit:4;stroke-opacity:1;stroke-dasharray:none;stroke-dashoffset:0;marker:none;visibility:visible;display:inline;overflow:visible;enable-background:accumulate"
       d="m 433.80081,398.90609 c 1.20581,11.20623 9.77328,36.90873 13.80957,0.25913"
       id="path4208"
       sodipodi:nodetypes="cc"
       inkscape:connector-curvature="0" />
    <path
       style="fill:#000000;fill-rule:evenodd;stroke:#000000;stroke-width:1px;stroke-linecap:butt;stroke-linejoin:miter;stroke-opacity:1"
       d="m 116.8465,274.82311 c 59.82799,-19.44657 125.18774,-25.2309 189.18004,-1.39103 C 254.5274,250.98706 195.32599,243.7442 116.8465,274.82311 z"
       id="path3188"
       sodipodi:nodetypes="ccc"
       inkscape:connector-curvature="0" />
    <path
       style="fill:#4d4d4d;fill-rule:evenodd;stroke:#000000;stroke-width:4;stroke-linecap:butt;stroke-linejoin:miter;stroke-miterlimit:4;stroke-opacity:1;stroke-dasharray:none"
       d="m 562.87546,364.98933 c 21.22898,-5.05467 10.82094,18.74477 30.62293,26.02968 -25.36298,1.31235 -35.94422,-12.27352 -30.62293,-26.02968 z"
       id="path3197"
       sodipodi:nodetypes="ccc"
       inkscape:connector-curvature="0" />
    <path
       style="opacity:0.38999999;fill:#ffffff;fill-rule:evenodd;stroke:none"
       d="m 564.06256,367.32659 c 14.24701,-7.33603 12.73022,15.6671 22.60423,23.29975 -10.95032,-13.57789 -16.73772,-21.45135 -22.60423,-23.29975 z"
       id="path3215"
       sodipodi:nodetypes="ccc"
       inkscape:connector-curvature="0" />
  </g>
</svg>
