<?xml version="1.0" encoding="UTF-8" standalone="no"?>
<!-- Created with Inkscape (http://www.inkscape.org/) -->

<svg
   xmlns:dc="http://purl.org/dc/elements/1.1/"
   xmlns:cc="http://creativecommons.org/ns#"
   xmlns:rdf="http://www.w3.org/1999/02/22-rdf-syntax-ns#"
   xmlns:svg="http://www.w3.org/2000/svg"
   xmlns="http://www.w3.org/2000/svg"
   xmlns:sodipodi="http://sodipodi.sourceforge.net/DTD/sodipodi-0.dtd"
   xmlns:inkscape="http://www.inkscape.org/namespaces/inkscape"
   width="328.45798"
   height="579.93066"
   id="svg4052"
   sodipodi:version="0.32"
   inkscape:version="0.48.3.1 r9886"
   version="1.0"
   sodipodi:docname="mujer07.svg"
   inkscape:output_extension="org.inkscape.output.svg.inkscape"
   sodipodi:modified="true">
  <defs
     id="defs4054" />
  <sodipodi:namedview
     id="base"
     pagecolor="#ffffff"
     bordercolor="#666666"
     borderopacity="1.0"
     inkscape:pageopacity="0.0"
     inkscape:pageshadow="2"
     inkscape:zoom="0.7765625"
     inkscape:cx="163.54274"
     inkscape:cy="280.33514"
     inkscape:current-layer="layer1"
     inkscape:document-units="px"
     width="480px"
     height="640px"
     inkscape:window-width="1022"
     inkscape:window-height="699"
     inkscape:window-x="0"
     inkscape:window-y="48"
     showgrid="false"
     fit-margin-top="0"
     fit-margin-left="0"
     fit-margin-right="0"
     fit-margin-bottom="0"
     inkscape:window-maximized="0" />
  <metadata
     id="metadata4057">
    <rdf:RDF>
      <cc:Work
         rdf:about="">
        <dc:format>image/svg+xml</dc:format>
        <dc:type
           rdf:resource="http://purl.org/dc/dcmitype/StillImage" />
        <dc:title></dc:title>
      </cc:Work>
    </rdf:RDF>
  </metadata>
  <g
     id="layer1"
     inkscape:label="Layer 1"
     inkscape:groupmode="layer"
     transform="translate(-76.457262,-20.40447)">
    <path
       style="color:#000000;fill:#d3bc5f;fill-opacity:1;fill-rule:evenodd;stroke:#7e6d2c;stroke-width:1.09966373px;stroke-linecap:butt;stroke-linejoin:miter;stroke-miterlimit:4;stroke-opacity:1;stroke-dasharray:none;stroke-dashoffset:0;marker:none;visibility:visible;display:inline;overflow:visible;enable-background:accumulate"
       d="m 199.51368,403.60781 -47.25435,196.1775 69.85424,-182.51339 -22.59989,-13.66411 z"
       id="path3209"
       inkscape:connector-curvature="0" />
    <path
       style="opacity:0.08999999;fill:#000000;fill-rule:evenodd;stroke:#000000;stroke-width:1.09966373px;stroke-linecap:butt;stroke-linejoin:miter;stroke-opacity:1"
       d="m 155.11255,593.25656 c 12.15899,-49.549 37.33115,-99.34379 49.8315,-148.15902 -3.57976,1.4892 -11.49756,-4.34504 -15.05389,-2.02878 l 1.33658,-4.09464 20.85544,5.14273 -56.96963,149.13971 z"
       id="path3211"
       sodipodi:nodetypes="cccccc"
       inkscape:connector-curvature="0" />
    <path
       style="color:#000000;fill:#d3bc5f;fill-opacity:1;fill-rule:evenodd;stroke:#7e6d2c;stroke-width:1.09966373px;stroke-linecap:butt;stroke-linejoin:miter;stroke-miterlimit:4;stroke-opacity:1;stroke-dasharray:none;stroke-dashoffset:0;marker:none;visibility:visible;display:inline;overflow:visible;enable-background:accumulate"
       d="M 252.41799,400.6798 299.67233,596.8573 229.81808,414.34391 252.41799,400.6798 z"
       id="path2221"
       inkscape:connector-curvature="0" />
    <path
       style="color:#000000;fill:#c83737;fill-opacity:1;fill-rule:evenodd;stroke:none;stroke-width:1px;marker:none;visibility:visible;display:inline;overflow:visible;enable-background:accumulate"
       d="m 221.15004,310.73091 c -30.34965,68.90705 -66.52573,65.45902 -72.07931,127.18186 87.87527,26.83979 113.20118,-21.43732 164.75269,0 5.27267,-33.67296 -53.94202,-78.17524 -68.99018,-124.2469 l -23.6832,-2.93496 z"
       id="path4134"
       sodipodi:nodetypes="ccccc"
       inkscape:connector-curvature="0" />
    <path
       style="opacity:0.14500002;fill:#ffffff;fill-rule:evenodd;stroke:none"
       d="m 224.44532,314.86585 c -3.32173,44.929 -76.42625,80.90084 -55.93189,125.95083 -29.62163,-33.73997 53.4973,-90.03154 51.93676,-125.60574 l 3.99513,-0.34509 z"
       id="path3201"
       sodipodi:nodetypes="cccc"
       inkscape:connector-curvature="0" />
    <path
       style="opacity:0.22448982;color:#000000;fill:#000000;fill-opacity:1;fill-rule:evenodd;stroke:none;stroke-width:1px;marker:none;visibility:visible;display:inline;overflow:visible;enable-background:accumulate"
       d="m 197.36389,353.40123 -13.20312,30.50376 2.50404,34.60128 -4.32516,-9.56088 -6.37392,21.6258 -1.59348,-4.32516 -5.46336,-2.04876 -2.73168,-8.42268 22.99164,-56.45472 8.19504,-5.91864 z"
       id="path3537"
       sodipodi:nodetypes="cccccccccc"
       inkscape:connector-curvature="0" />
    <path
       style="color:#000000;fill:#d3bc5f;fill-opacity:1;fill-rule:evenodd;stroke:#7e6d2c;stroke-width:1.02787125px;stroke-linecap:butt;stroke-linejoin:miter;stroke-miterlimit:4;stroke-opacity:1;stroke-dasharray:none;stroke-dashoffset:0;marker:none;visibility:visible;display:inline;overflow:visible;enable-background:accumulate"
       d="m 223.27375,288.123 -41.54097,96.22446 2.49227,34.76896 -3.73212,-9.99761 -7.38154,22.01657 -1.42124,-8.26136 -3.10904,-1.30538 -0.88814,-8.90923 -2.79018,7.60258 c 0.40932,-4.74574 -4.65484,-4.43403 3.72386,-16.54363 l 8.3337,-23.27655 c 0.49076,-20.94017 6.09197,-40.24877 15.15674,-58.45162 11.68006,-16.55757 10.94301,-27.70484 15.99395,-41.37402"
       id="path2266"
       sodipodi:nodetypes="ccccccccccccc"
       inkscape:connector-curvature="0" />
    <path
       style="opacity:0.08999999;color:#000000;fill:#000000;fill-opacity:1;fill-rule:evenodd;stroke:#000000;stroke-width:1.09966373px;stroke-linecap:butt;stroke-linejoin:miter;stroke-miterlimit:4;stroke-opacity:1;stroke-dasharray:none;stroke-dashoffset:0;marker:none;visibility:visible;display:inline;overflow:visible;enable-background:accumulate"
       d="m 206.92477,308.3285 -27.99972,75.34885 1.36584,20.03232 -2.2764,-1.59348 -4.5528,22.99164 -1.59348,-2.73168 1.59348,7.51212 7.05684,-21.17052 4.09752,10.01616 -3.18696,-34.146 32.09724,-73.30008 -6.60156,-2.95933 z"
       id="path3533"
       inkscape:connector-curvature="0" />
    <path
       style="color:#000000;fill:#c83737;fill-opacity:1;fill-rule:evenodd;stroke:none;stroke-width:1px;marker:none;visibility:visible;display:inline;overflow:visible;enable-background:accumulate"
       d="m 208.17869,281.18523 c -5.5089,13.64151 -12.25138,30.86211 -1.0297,31.78703 9.11701,3.34995 18.09854,-0.0841 26.98427,0.32131 -8.51335,-14.63268 -16.77101,-30.21074 -25.95457,-32.10834 z"
       id="path4138"
       sodipodi:nodetypes="cccc"
       inkscape:connector-curvature="0" />
    <path
       style="color:#000000;fill:#d3bc5f;fill-opacity:1;fill-rule:evenodd;stroke:#7e6d2c;stroke-width:1.09966373px;stroke-linecap:butt;stroke-linejoin:miter;stroke-miterlimit:4;stroke-opacity:1;stroke-dasharray:none;stroke-dashoffset:0;marker:none;visibility:visible;display:inline;overflow:visible;enable-background:accumulate"
       d="m 254.87362,297.50612 45.94141,19.12757 -14.70205,38.33141 -18.08069,-1.46216 -2.24577,20.12095 3.38838,-9.5844 3.65882,12.29617 0.99164,-12.10725 2.17755,0.77567 6.4802,11.05656 -2.80565,-10.92748 10.6384,-2.39754 24.23788,-48.3735 -60.44869,-41.84927"
       id="path2252"
       inkscape:connector-curvature="0" />
    <path
       style="opacity:0.475;color:#000000;fill:#ffffff;fill-opacity:1;fill-rule:evenodd;stroke:none;stroke-width:1px;marker:none;visibility:visible;display:inline;overflow:visible;enable-background:accumulate"
       d="m 259.7749,277.34791 47.03365,32.95425 -47.39685,-30.88383 0.3632,-2.07042 z"
       id="path3244"
       inkscape:connector-curvature="0" />
    <path
       style="color:#000000;fill:#c83737;fill-opacity:1;fill-rule:evenodd;stroke:none;stroke-width:1px;marker:none;visibility:visible;display:inline;overflow:visible;enable-background:accumulate"
       d="m 260.95259,279.91068 c 5.50891,13.6415 11.47911,32.08501 0.25743,33.00993 -9.117,3.34994 -18.09854,-0.0841 -26.98427,0.3213 8.51334,-14.63268 17.5433,-31.43364 26.72684,-33.33123 z"
       id="path4140"
       sodipodi:nodetypes="cccc"
       inkscape:connector-curvature="0" />
    <path
       style="fill:#d3bc5f;fill-rule:evenodd;stroke:#7e6d2c;stroke-width:1.09966373px;stroke-linecap:butt;stroke-linejoin:miter;stroke-opacity:1"
       d="m 229.14452,239.6961 0.7281,26.97934 c -9.99369,2.03463 -17.89396,6.05822 -21.11522,14.52734 10.13514,8.1953 20.36117,23.40927 24.75578,32.51358 8.59365,-9.98707 14.58354,-29.03037 27.66821,-33.89714 -5.21774,-9.88728 -16.03632,-10.46222 -24.75577,-14.52734 l 2.18434,-26.28756 -9.46544,0.69178 z"
       id="path4657"
       sodipodi:nodetypes="cccccccc"
       inkscape:connector-curvature="0" />
    <path
       style="fill:#6c5353;fill-rule:evenodd;stroke:none"
       d="M 242.03446,25.224157 C 168.8666,15.592749 125.18618,11.903797 155.01032,99.66549 c -77.321001,69.92034 26.07334,74.46398 37.07987,110.97273 L 242.03446,25.224157 z"
       id="path4694"
       sodipodi:nodetypes="cccc"
       inkscape:connector-curvature="0" />
    <path
       style="fill:#916f6f;fill-rule:evenodd;stroke:none"
       d="M 250.77178,30.795618 C 179.44879,21.374354 136.86974,17.765892 165.9419,103.61274 90.570481,172.0075 191.35783,176.452 202.0868,212.16418 L 250.77178,30.795618 z"
       id="path4681"
       sodipodi:nodetypes="cccc"
       inkscape:connector-curvature="0" />
    <path
       style="opacity:0.21938776;fill:#000000;fill-rule:evenodd;stroke:#000000;stroke-width:1.09966373px;stroke-linecap:butt;stroke-linejoin:miter;stroke-opacity:1"
       d="m 235.86553,264.48608 -5.64086,-14.7592 7.29312,0.69178 -1.65226,14.06742 z"
       id="path4659"
       inkscape:connector-curvature="0" />
    <path
       style="fill:#6c5353;fill-rule:evenodd;stroke:none"
       d="m 238.60996,25.244876 c 73.62908,-9.666431 117.58482,-13.368797 87.57268,74.712034 77.80841,70.17461 -26.2377,74.73477 -37.31358,111.37629 L 238.60996,25.244876 z"
       id="path4675"
       sodipodi:nodetypes="cccc"
       inkscape:connector-curvature="0" />
    <path
       style="fill:#6c5353;fill-rule:evenodd;stroke:none"
       d="m 320.48673,175.36073 -1.32297,7.60956 c -21.5746,34.05794 25.49335,58.39938 59.74777,38.73958 32.33693,-19.73976 5.48367,-50.32344 -15.66026,-56.03404 -14.26867,6.70383 -7.94933,19.85653 -5.42085,31.82179 -5.11214,-13.84444 -13.87933,-28.03872 -0.60232,-40.12312 16.59982,-5.94096 71.26778,26.71609 36.13904,74.02026 -42.38457,36.33151 -113.17604,29.71399 -127.08897,-22.82868 l 54.20856,-33.20535 z"
       id="path4677"
       sodipodi:nodetypes="ccccccccc"
       inkscape:connector-curvature="0" />
    <path
       style="fill:#916f6f;fill-rule:evenodd;stroke:none"
       d="m 317.30897,135.77639 -0.73278,15.06543 c -40.8487,-8.59472 -37.05304,60.2238 -6.536,84.8211 29.98665,22.84476 51.95818,-11.07454 50.92791,-31.93632 -11.22964,-10.7187 -22.34262,-0.84139 -33.47707,5.24358 12.18735,-9.01009 23.56066,-21.42365 39.84356,-13.31034 11.21027,13.06114 -3.97901,72.69323 -62.35806,56.10531 C 255.23718,225.15013 239.3132,159.2816 287.31342,130.03013 l 29.99555,5.74626 z"
       id="path4690"
       sodipodi:nodetypes="ccccccccc"
       inkscape:connector-curvature="0" />
    <path
       style="fill:#6c5353;fill-rule:evenodd;stroke:none"
       d="m 160.88578,174.66576 1.32297,7.60955 c 21.57459,34.05795 -25.49335,58.39939 -59.74776,38.73959 -32.336944,-19.73976 -5.483666,-50.32345 15.66024,-56.03404 14.26867,6.70383 7.94935,19.85653 5.42087,31.82179 5.11213,-13.84444 13.87931,-28.03872 0.60232,-40.12312 -16.59982,-5.94096 -71.267786,26.71609 -36.139052,74.02026 42.384572,36.3315 113.176042,29.71399 127.088982,-22.82868 l -54.20857,-33.20535 z"
       id="path4683"
       sodipodi:nodetypes="ccccccccc"
       inkscape:connector-curvature="0" />
    <path
       style="fill:#916f6f;fill-rule:evenodd;stroke:none"
       d="m 144.88684,111.07118 7.24758,3.4741 c 41.67212,3.54015 34.59281,54.00873 -2.32287,68.68991 -35.85246,13.16298 -46.00329,-25.47998 -38.38329,-45.06972 14.11475,-6.99175 21.56493,5.6153 30.24224,14.61364 -8.75021,-12.08901 -15.64155,-27.18842 -33.74411,-24.13156 -14.84162,9.23016 -19.337171,70.43478 41.58838,71.39085 55.88059,-11.08339 92.01794,-69.29618 55.57109,-110.965781 l -60.19902,21.998561 z"
       id="path4688"
       sodipodi:nodetypes="ccccccccc"
       inkscape:connector-curvature="0" />
    <path
       style="fill:#916f6f;fill-rule:evenodd;stroke:none"
       d="m 230.36747,30.999682 c 71.32298,-9.421263 113.90203,-13.029725 84.82987,72.817118 75.37142,68.39477 -25.41593,72.83927 -36.1449,108.55144 L 230.36747,30.999682 z"
       id="path4696"
       sodipodi:nodetypes="cccc"
       inkscape:connector-curvature="0" />
    <path
       style="fill:#d3bc5f;fill-rule:evenodd;stroke:#7b5d32;stroke-width:1.09966373px;stroke-linecap:butt;stroke-linejoin:miter;stroke-opacity:1"
       d="M 233.51318,252.83988 C 143.00856,201.42676 177.17357,150.76725 153.42097,101.34047 173.82244,5.5115518 299.51412,-1.5705805 320.88649,100.64869 c -15.07088,42.91464 3.54943,113.93361 -87.37331,152.19119 z"
       id="path4647"
       sodipodi:nodetypes="cccc"
       inkscape:connector-curvature="0" />
    <g
       id="g4497"
       transform="matrix(1.1281719,0,0,1.071876,97.356424,-24.380703)">
      <path
         sodipodi:nodetypes="cccc"
         id="path4403"
         d="m 123.90166,153.47464 c 2.00199,21.61471 10.70725,38.41696 33.31426,39.24356 33.57203,-4.55807 32.9513,-24.7473 34.22697,-38.7872 -22.51374,-10.11996 -45.02749,-9.80544 -67.54123,-0.45636 z"
         style="fill:#c87137;fill-rule:evenodd;stroke:none"
         inkscape:connector-curvature="0" />
      <path
         transform="matrix(0.9639629,0.3379936,-0.2726733,1.0620391,49.71168,-66.471867)"
         d="m 189.1962,161.5 c 0,16.04337 -14.20199,29.04909 -31.72103,29.04909 -17.51904,0 -31.72103,-13.00572 -31.72103,-29.04909 0,-16.04337 14.20199,-29.04909 31.72103,-29.04909 17.51904,0 31.72103,13.00572 31.72103,29.04909 z"
         sodipodi:ry="29.049093"
         sodipodi:rx="31.721029"
         sodipodi:cy="161.5"
         sodipodi:cx="157.47517"
         id="path4349"
         style="opacity:0.87244897;fill:#d7eef4;fill-opacity:1;fill-rule:nonzero;stroke:none"
         sodipodi:type="arc" />
      <path
         transform="translate(-0.2281798,-3.4226977)"
         d="m 169.73759,162.46808 c 0,5.97035 -5.05664,10.81028 -11.29432,10.81028 -6.23769,0 -11.29433,-4.83993 -11.29433,-10.81028 0,-5.97036 5.05664,-10.81029 11.29433,-10.81029 6.23768,0 11.29432,4.83993 11.29432,10.81029 z"
         sodipodi:ry="10.810284"
         sodipodi:rx="11.294327"
         sodipodi:cy="162.46808"
         sodipodi:cx="158.44327"
         id="path4355"
         style="fill:#c87137;fill-opacity:1;fill-rule:nonzero;stroke:none"
         sodipodi:type="arc" />
      <path
         transform="matrix(1.1917808,0,0,1.2153846,-32.00701,-38.894902)"
         d="m 165.7039,163.19415 c 0,2.89607 -2.63668,5.2438 -5.88919,5.2438 -3.2525,0 -5.88918,-2.34773 -5.88918,-5.2438 0,-2.89606 2.63668,-5.24379 5.88918,-5.24379 3.25251,0 5.88919,2.34773 5.88919,5.24379 z"
         sodipodi:ry="5.2437944"
         sodipodi:rx="5.8891845"
         sodipodi:cy="163.19415"
         sodipodi:cx="159.81471"
         id="path4357"
         style="fill:#502d16;fill-opacity:1;fill-rule:nonzero;stroke:none"
         sodipodi:type="arc" />
      <path
         transform="translate(8.1618912,4.9673733)"
         d="m 149.7305,147.05939 c 0,1.47031 -1.26416,2.66223 -2.82358,2.66223 -1.55942,0 -2.82358,-1.19192 -2.82358,-2.66223 0,-1.47031 1.26416,-2.66224 2.82358,-2.66224 1.55942,0 2.82358,1.19193 2.82358,2.66224 z"
         sodipodi:ry="2.6622341"
         sodipodi:rx="2.8235817"
         sodipodi:cy="147.05939"
         sodipodi:cx="146.90692"
         id="path4359"
         style="opacity:0.7091837;fill:#e9c6af;fill-opacity:1;fill-rule:nonzero;stroke:none"
         sodipodi:type="arc" />
      <path
         transform="matrix(1.4776119,0,0,1.5189068,-79.365609,-103.93754)"
         d="m 179.41845,176.50531 c 0,3.02973 -2.41997,5.48582 -5.40514,5.48582 -2.98518,0 -5.40515,-2.45609 -5.40515,-5.48582 0,-3.02973 2.41997,-5.48582 5.40515,-5.48582 2.98517,0 5.40514,2.45609 5.40514,5.48582 z"
         sodipodi:ry="5.4858155"
         sodipodi:rx="5.4051418"
         sodipodi:cy="176.50531"
         sodipodi:cx="174.01331"
         id="path4363"
         style="opacity:0.64285715;fill:#ffffff;fill-opacity:1;fill-rule:nonzero;stroke:none"
         sodipodi:type="arc" />
      <path
         sodipodi:nodetypes="cccc"
         id="path4385"
         d="m 147.176,160.77639 c 6.29991,6.67041 12.8423,11.789 22.13345,-0.68454 -1.51271,6.12146 -5.81412,8.52466 -10.95263,9.81173 -9.34299,-1.17038 -8.47744,-5.74361 -11.18082,-9.12719 z"
         style="opacity:0.06122448;fill:#000000;fill-rule:evenodd;stroke:#000000;stroke-width:1px;stroke-linecap:butt;stroke-linejoin:miter;stroke-opacity:1"
         inkscape:connector-curvature="0" />
      <path
         transform="translate(45.27182,-13.748939)"
         d="m 120.04256,179.49025 c 0,1.3812 -1.40864,2.50089 -3.14628,2.50089 -1.73764,0 -3.14628,-1.11969 -3.14628,-2.50089 0,-1.3812 1.40864,-2.50089 3.14628,-2.50089 1.73764,0 3.14628,1.11969 3.14628,2.50089 z"
         sodipodi:ry="2.5008864"
         sodipodi:rx="3.1462767"
         sodipodi:cy="179.49025"
         sodipodi:cx="116.89628"
         id="path4361"
         style="opacity:0.52040818;fill:#ffffff;fill-opacity:1;fill-rule:nonzero;stroke:none"
         sodipodi:type="arc" />
      <path
         sodipodi:nodetypes="cccc"
         id="path4401"
         d="m 123.67348,154.10724 c 21.38107,-7.45181 43.58891,-10.10833 67.99759,0 0.85077,-25.45913 -21.8265,-41.73897 -30.80427,-40.47632 -10.31102,0.21517 -35.44721,7.08921 -37.19332,40.47632 z"
         style="fill:#c87137;fill-rule:evenodd;stroke:none"
         inkscape:connector-curvature="0" />
      <path
         sodipodi:nodetypes="cc"
         id="path4491"
         d="m 186.19476,151.42102 c 11.81643,2.4109 16.06868,-1.28203 13.80524,-4.79178"
         style="fill:none;stroke:#81591d;stroke-width:1px;stroke-linecap:butt;stroke-linejoin:miter;stroke-opacity:1"
         inkscape:connector-curvature="0" />
      <path
         sodipodi:nodetypes="cc"
         id="path4493"
         d="m 188.08011,153.79646 c 10.77459,5.41745 15.84468,2.96519 14.57796,-1.01437"
         style="fill:none;stroke:#81591d;stroke-width:1px;stroke-linecap:butt;stroke-linejoin:miter;stroke-opacity:1"
         inkscape:connector-curvature="0" />
      <path
         sodipodi:nodetypes="cc"
         id="path4495"
         d="m 189.12997,156.4485 c 6.39041,6.91361 10.80742,6.54643 10.99843,3.31396"
         style="fill:none;stroke:#81591d;stroke-width:0.78116274px;stroke-linecap:butt;stroke-linejoin:miter;stroke-opacity:1"
         inkscape:connector-curvature="0" />
    </g>
    <path
       style="fill:#c87137;fill-rule:evenodd;stroke:none"
       d="m 237.42516,140.43844 c -2.25859,23.16829 -12.07961,41.17822 -37.58421,42.06423 -37.87503,-4.88569 -37.17474,-26.52604 -38.6139,-41.57507 25.39936,-10.84734 50.79874,-10.51022 76.19811,-0.48916 z"
       id="path4511"
       sodipodi:nodetypes="cccc"
       inkscape:connector-curvature="0" />
    <path
       sodipodi:type="arc"
       style="opacity:0.87244897;fill:#d7eef4;fill-opacity:1;fill-rule:nonzero;stroke:none"
       id="path4513"
       sodipodi:cx="157.47517"
       sodipodi:cy="161.5"
       sodipodi:rx="31.721029"
       sodipodi:ry="29.049093"
       d="m 189.1962,161.5 c 0,16.04337 -14.20199,29.04909 -31.72103,29.04909 -17.51904,0 -31.72103,-13.00572 -31.72103,-29.04909 0,-16.04337 14.20199,-29.04909 31.72103,-29.04909 17.51904,0 31.72103,13.00572 31.72103,29.04909 z"
       transform="matrix(-1.0875159,0.3622872,0.3076224,1.1383742,321.1242,-95.316949)" />
    <path
       sodipodi:type="arc"
       style="fill:#c87137;fill-opacity:1;fill-rule:nonzero;stroke:none"
       id="path4515"
       sodipodi:cx="158.44327"
       sodipodi:cy="162.46808"
       sodipodi:rx="11.294327"
       sodipodi:ry="10.810284"
       d="m 169.73759,162.46808 c 0,5.97035 -5.05664,10.81028 -11.29432,10.81028 -6.23769,0 -11.29433,-4.83993 -11.29433,-10.81028 0,-5.97036 5.05664,-10.81029 11.29433,-10.81029 6.23768,0 11.29432,4.83993 11.29432,10.81029 z"
       transform="matrix(-1.1281719,0,0,1.071876,377.46495,-27.736058)" />
    <path
       sodipodi:type="arc"
       style="fill:#502d16;fill-opacity:1;fill-rule:nonzero;stroke:none"
       id="path4517"
       sodipodi:cx="159.81471"
       sodipodi:cy="163.19415"
       sodipodi:rx="5.8891845"
       sodipodi:ry="5.2437944"
       d="m 165.7039,163.19415 c 0,2.89607 -2.63668,5.2438 -5.88919,5.2438 -3.2525,0 -5.88918,-2.34773 -5.88918,-5.2438 0,-2.89606 2.63668,-5.24379 5.88918,-5.24379 3.25251,0 5.88919,2.34773 5.88919,5.24379 z"
       transform="matrix(-1.3445336,0,0,1.3027416,413.31692,-65.757862)" />
    <path
       sodipodi:type="arc"
       style="opacity:0.7091837;fill:#e9c6af;fill-opacity:1;fill-rule:nonzero;stroke:none"
       id="path4519"
       sodipodi:cx="146.90692"
       sodipodi:cy="147.05939"
       sodipodi:rx="2.8235817"
       sodipodi:ry="2.6622341"
       d="m 149.7305,147.05939 c 0,1.47031 -1.26416,2.66223 -2.82358,2.66223 -1.55942,0 -2.82358,-1.19192 -2.82358,-2.66223 0,-1.47031 1.26416,-2.66224 2.82358,-2.66224 1.55942,0 2.82358,1.19193 2.82358,2.66224 z"
       transform="matrix(-1.1281719,0,0,1.071876,357.4419,-16.840553)" />
    <path
       sodipodi:type="arc"
       style="opacity:0.64285715;fill:#ffffff;fill-opacity:1;fill-rule:nonzero;stroke:none"
       id="path4521"
       sodipodi:cx="174.01331"
       sodipodi:cy="176.50531"
       sodipodi:rx="5.4051418"
       sodipodi:ry="5.4858155"
       d="m 179.41845,176.50531 c 0,3.02973 -2.41997,5.48582 -5.40514,5.48582 -2.98518,0 -5.40515,-2.45609 -5.40515,-5.48582 0,-3.02973 2.41997,-5.48582 5.40515,-5.48582 2.98517,0 5.40514,2.45609 5.40514,5.48582 z"
       transform="matrix(-1.6670002,0,0,1.6280797,511.57456,-136.84814)" />
    <path
       style="opacity:0.06122448;fill:#000000;fill-rule:evenodd;stroke:#000000;stroke-width:1.09966373px;stroke-linecap:butt;stroke-linejoin:miter;stroke-opacity:1"
       d="m 211.16771,148.26501 c -7.10738,7.14985 -14.48833,12.63635 -24.97034,-0.73374 1.70659,6.56144 6.55933,9.13738 12.35645,10.51696 10.54049,-1.25451 9.56401,-6.15644 12.61389,-9.78322 z"
       id="path4523"
       sodipodi:nodetypes="cccc"
       inkscape:connector-curvature="0" />
    <path
       sodipodi:type="arc"
       style="opacity:0.52040818;fill:#ffffff;fill-opacity:1;fill-rule:nonzero;stroke:none"
       id="path4525"
       sodipodi:cx="116.89628"
       sodipodi:cy="179.49025"
       sodipodi:rx="3.1462767"
       sodipodi:ry="2.5008864"
       d="m 120.04256,179.49025 c 0,1.3812 -1.40864,2.50089 -3.14628,2.50089 -1.73764,0 -3.14628,-1.11969 -3.14628,-2.50089 0,-1.3812 1.40864,-2.50089 3.14628,-2.50089 1.73764,0 3.14628,1.11969 3.14628,2.50089 z"
       transform="matrix(-1.1281719,0,0,1.071876,333.7783,-38.458619)" />
    <path
       style="fill:#c87137;fill-rule:evenodd;stroke:none"
       d="m 237.68259,141.11651 c -24.12152,-7.98742 -49.17578,-10.83488 -76.71297,0 -0.95983,-27.28903 24.62404,-44.739002 34.75251,-43.385598 11.6326,0.230638 39.99055,7.598758 41.96046,43.385598 z"
       id="path4527"
       sodipodi:nodetypes="cccc"
       inkscape:connector-curvature="0" />
    <path
       style="fill:none;stroke:#81591d;stroke-width:1.09966373px;stroke-linecap:butt;stroke-linejoin:miter;stroke-opacity:1"
       d="m 167.14784,138.23721 c -13.33097,2.58419 -18.12823,-1.37417 -15.57469,-5.13619"
       id="path4529"
       sodipodi:nodetypes="cc"
       inkscape:connector-curvature="0" />
    <path
       style="fill:none;stroke:#81591d;stroke-width:1.09966373px;stroke-linecap:butt;stroke-linejoin:miter;stroke-opacity:1"
       d="m 165.02084,140.78339 c -12.15559,5.80683 -17.87552,3.17832 -16.44645,-1.08728"
       id="path4531"
       sodipodi:nodetypes="cc"
       inkscape:connector-curvature="0" />
    <path
       style="fill:none;stroke:#81591d;stroke-width:0.85901636px;stroke-linecap:butt;stroke-linejoin:miter;stroke-opacity:1"
       d="m 163.83642,143.62605 c -7.20948,7.41053 -12.19263,7.01696 -12.40812,3.55215"
       id="path4533"
       sodipodi:nodetypes="cc"
       inkscape:connector-curvature="0" />
    <path
       style="fill:#ac9393;fill-rule:evenodd;stroke:none"
       d="m 217.27519,87.626541 c -11.09744,-10.246656 -26.7161,-6.532616 -43.24758,0 14.41587,-8.324868 28.83173,-17.094754 43.24758,0 z"
       id="path4559"
       sodipodi:nodetypes="ccc"
       inkscape:connector-curvature="0" />
    <path
       style="opacity:0.20408164;fill:#000000;fill-rule:evenodd;stroke:#000000;stroke-width:1.09966373px;stroke-linecap:butt;stroke-linejoin:miter;stroke-opacity:1"
       d="m 278.65605,98.22747 c 4.0032,10.123 18.39748,11.41266 5.82488,35.62657 9.82951,0.49569 19.659,2.27177 29.4885,5.53423 -3.73516,-28.9902 -24.60575,-42.022353 -35.31338,-41.1608 z"
       id="path4591"
       sodipodi:nodetypes="cccc"
       inkscape:connector-curvature="0" />
    <path
       style="opacity:0.20408164;fill:#000000;fill-rule:evenodd;stroke:#000000;stroke-width:1.09966373px;stroke-linecap:butt;stroke-linejoin:miter;stroke-opacity:1"
       d="m 201.29425,99.80397 c 4.00322,10.123 18.39749,9.68321 5.8249,33.89713 9.82949,0.49569 19.65898,2.27176 29.4885,5.53422 -3.73517,-28.99019 -24.60576,-40.2929 -35.3134,-39.43135 z"
       id="path4593"
       sodipodi:nodetypes="cccc"
       inkscape:connector-curvature="0" />
    <path
       sodipodi:type="arc"
       style="opacity:0.36734697;fill:#ff55dd;fill-opacity:1;fill-rule:nonzero;stroke:none"
       id="path4661"
       sodipodi:cx="520.18439"
       sodipodi:cy="270.24823"
       sodipodi:rx="8.0673761"
       sodipodi:ry="9.680851"
       d="m 528.25176,270.24823 c 0,5.34659 -3.61188,9.68085 -8.06737,9.68085 -4.45549,0 -8.06738,-4.33426 -8.06738,-9.68085 0,-5.34659 3.61189,-9.68085 8.06738,-9.68085 4.45549,0 8.06737,4.33426 8.06737,9.68085 z"
       transform="matrix(1.1281719,0,0,1.071876,-312.90698,-85.74634)" />
    <path
       style="fill:none;stroke:#785f2e;stroke-width:0.32989913;stroke-linecap:butt;stroke-linejoin:miter;stroke-miterlimit:4;stroke-opacity:1;stroke-dasharray:none"
       d="m 233.15532,301.53031 c 0.21662,-5.61096 -4.01535,-8.46049 -9.41445,-10.58553"
       id="path4665"
       sodipodi:nodetypes="cc"
       inkscape:connector-curvature="0" />
    <path
       style="fill:none;stroke:#785f2e;stroke-width:0.32989913;stroke-linecap:butt;stroke-linejoin:miter;stroke-miterlimit:4;stroke-opacity:1;stroke-dasharray:none"
       d="m 232.81454,301.53031 c -0.21662,-5.61096 4.01533,-8.46049 9.41444,-10.58553"
       id="path4667"
       sodipodi:nodetypes="cc"
       inkscape:connector-curvature="0" />
    <path
       style="opacity:0.11734697;fill:#000000;fill-rule:evenodd;stroke:none"
       d="m 188.68067,45.164298 10.88812,-0.676568 c 41.67213,3.540149 28.03981,53.316959 -8.87586,67.99813 -35.85248,13.16298 -46.00329,-25.479979 -38.38329,-45.069716 14.11475,-6.991751 21.56492,5.615301 30.24223,14.613636 -8.75021,-12.089004 -15.64156,-27.188414 -33.7441,-24.131563 -14.84162,9.23016 -19.33717,70.434783 41.58837,71.390853 55.8806,-11.08339 89.1055,-56.844177 52.65865,-98.513775 -52.17709,-8.802255 -48.70113,7.649615 -54.37412,14.389003 z"
       id="path4757"
       sodipodi:nodetypes="ccccccccc"
       inkscape:connector-curvature="0" />
    <path
       style="fill:#916f6f;fill-rule:evenodd;stroke:none"
       d="m 188.68067,40.876794 10.88812,-0.676568 c 41.67213,3.540149 28.03981,53.316959 -8.87586,67.998134 -35.85248,13.16298 -46.00329,-25.479986 -38.38329,-45.06972 14.11475,-6.991751 21.56492,5.615301 30.24223,14.613636 -8.75021,-12.089004 -15.64156,-27.188414 -33.7441,-24.131563 -14.84162,9.23016 -19.33717,70.434787 41.58837,71.390857 55.8806,-11.08339 89.1055,-56.844181 52.65865,-98.513779 -52.17709,-8.802255 -48.70113,7.649615 -54.37412,14.389003 z"
       id="path4700"
       sodipodi:nodetypes="ccccccccc"
       inkscape:connector-curvature="0" />
    <path
       style="opacity:0.22448982;fill:#000000;fill-rule:evenodd;stroke:none"
       d="m 236.86837,40.577033 c -45.20162,-20.814456 -33.15759,47.035069 -26.58049,56.41541 -8.58433,4.580017 -22.89312,25.196667 -3.08912,35.396387 -18.12695,9.6745 -39.28058,19.15685 -34.75252,35.16509 1.42688,9.11424 7.41744,13.90795 15.70299,12.5959 5.63576,-0.77263 -1.31221,-8.12095 -2.05941,-12.22903 0.85808,5.54383 15.9886,11.08765 2.57425,16.63148 -14.06354,0.0286 -21.35146,-7.90709 -23.16835,-18.22125 -0.57038,-6.67064 -0.30235,-18.36904 33.59411,-34.24127 -34.12673,-12.88124 5.66518,-28.08601 7.07938,-40.967243 -35.50173,-68.129768 2.59316,-58.560083 26.36707,-53.59913 l 4.33209,3.053656 z"
       id="path4751"
       sodipodi:nodetypes="cccccccccccc"
       inkscape:connector-curvature="0" />
    <path
       style="opacity:0.16326527;fill:#000000;fill-rule:evenodd;stroke:none"
       d="m 273.82349,36.26762 -8.82497,-0.606178 c -26.87897,1.892044 -16.54141,32.408793 7.26959,40.255214 23.12525,7.035012 29.67265,-13.617895 24.75765,-24.087722 -9.10416,-3.736774 -13.90961,3.001124 -19.50657,7.810321 5.64398,-6.461022 10.08897,-14.530973 21.76532,-12.89723 9.57301,4.933105 12.4727,37.64421 -26.82496,38.155184 -36.04361,-5.923573 -57.47404,-30.380643 -33.96542,-52.65115 33.6548,-4.70441 31.6702,0.419661 35.32936,4.021561 z"
       id="path4753"
       sodipodi:nodetypes="ccccccccc"
       inkscape:connector-curvature="0" />
    <path
       style="fill:#6c5353;fill-rule:evenodd;stroke:none"
       d="m 273.56605,35.648826 -7.02297,-0.361597 c -26.87897,1.892043 -18.08597,28.495502 5.72503,36.341923 23.12525,7.035012 29.67265,-13.617895 24.75765,-24.087722 -9.10416,-3.736774 -13.90961,3.001124 -19.50657,7.810321 5.64398,-6.461022 10.08897,-14.530973 21.76532,-12.89723 9.57301,4.933105 12.4727,37.64421 -26.82496,38.155184 -36.04361,-5.923573 -57.47404,-30.380643 -33.96542,-52.65115 33.6548,-4.704413 31.41277,4.088371 35.07192,7.690271 z"
       id="path4702"
       sodipodi:nodetypes="ccccccccc"
       inkscape:connector-curvature="0" />
    <path
       style="fill:#ac9393;fill-rule:evenodd;stroke:none"
       d="m 253.06816,89.984486 c 11.09744,-10.246656 26.71611,-6.532616 43.24757,0 -14.41586,-8.324879 -28.83172,-17.094754 -43.24757,0 z"
       id="path4405"
       sodipodi:nodetypes="ccc"
       inkscape:connector-curvature="0" />
    <path
       style="fill:#c83771;fill-rule:evenodd;stroke:none"
       d="m 236.53656,229.41623 c -8.11881,-1.44623 -12.73858,-6.56312 -14.16758,-10.1907 0.0867,-2.66363 0.76854,-3.88743 6.86653,-4.26237 4.43704,0.70594 7.23267,1.53292 7.68886,4.83492 0.64236,-4.16565 3.54374,-4.37315 5.94788,-4.72653 6.6913,0.17271 10.14161,1.68133 9.3604,5.13593 -1.73163,3.22878 -5.95244,8.15704 -15.69609,9.20875 z"
       id="path4733"
       sodipodi:nodetypes="ccccccc"
       inkscape:connector-curvature="0" />
    <path
       sodipodi:type="arc"
       style="fill:none;stroke:#c83771;stroke-width:0.80000001;stroke-linejoin:round;stroke-miterlimit:4;stroke-opacity:1;stroke-dasharray:none"
       id="path4735"
       sodipodi:cx="490.81485"
       sodipodi:cy="278.63129"
       sodipodi:rx="18.482569"
       sodipodi:ry="6.0467658"
       d="m 509.29742,278.63129 c 0,3.33953 -8.27493,6.04676 -18.48257,6.04676 -10.20764,0 -18.48257,-2.70723 -18.48257,-6.04676 0,-0.23298 0.0412,-0.46577 0.12327,-0.69719"
       sodipodi:start="0"
       sodipodi:end="3.2571491"
       sodipodi:open="true"
       transform="matrix(1.1281719,0,0,1.071876,-316.93871,-83.873623)" />
    <path
       style="opacity:0.46938776;fill:#ffffff;fill-rule:evenodd;stroke:none"
       d="m 223.45564,217.65753 1.79563,0.648 c -0.44002,-1.71884 1.21077,-1.48113 2.90979,-1.8102 l -1.01724,-0.82638 c -1.93433,0.48656 -3.68034,0.79273 -3.68818,1.98858 l 0,0 z"
       id="path4739"
       sodipodi:nodetypes="cccccc"
       inkscape:connector-curvature="0" />
    <path
       sodipodi:type="arc"
       style="opacity:0.36734697;fill:#ff55dd;fill-opacity:1;fill-rule:nonzero;stroke:none"
       id="path4741"
       sodipodi:cx="520.18439"
       sodipodi:cy="270.24823"
       sodipodi:rx="8.0673761"
       sodipodi:ry="9.680851"
       d="m 528.25176,270.24823 c 0,5.34659 -3.61188,9.68085 -8.06737,9.68085 -4.45549,0 -8.06738,-4.33426 -8.06738,-9.68085 0,-5.34659 3.61189,-9.68085 8.06738,-9.68085 4.45549,0 8.06737,4.33426 8.06737,9.68085 z"
       transform="matrix(1.1281719,0,0,1.071876,-383.7954,-86.016442)" />
    <path
       style="opacity:0.28061224;fill:none;stroke:#000000;stroke-width:0.4398655;stroke-linecap:butt;stroke-linejoin:miter;stroke-miterlimit:4;stroke-opacity:1;stroke-dasharray:none"
       d="m 153.05692,62.600891 c 15.4454,-7.304363 16.00434,2.173014 24.3917,9.118546"
       id="path4743"
       sodipodi:nodetypes="cc"
       inkscape:connector-curvature="0" />
    <path
       style="opacity:0.28061224;fill:none;stroke:#000000;stroke-width:0.4398655;stroke-linecap:butt;stroke-linejoin:miter;stroke-miterlimit:4;stroke-opacity:1;stroke-dasharray:none"
       d="m 147.87599,53.665765 c 14.49128,-1.411972 14.10084,2.677621 22.84716,7.406481"
       id="path4745"
       sodipodi:nodetypes="cc"
       inkscape:connector-curvature="0" />
    <path
       style="fill:#6c5353;fill-rule:evenodd;stroke:none"
       d="M 230.09932,37.809921 C 185.07976,22.1838 196.94174,87.612102 203.51884,96.992443 c -8.58432,4.580017 -22.89312,25.196667 -3.08911,35.396387 -18.12697,9.6745 -39.28057,19.15685 -34.75252,35.16509 1.42687,9.11424 7.41744,13.90795 15.70299,12.5959 5.63576,-0.77263 -1.31222,-8.12095 -2.05941,-12.22903 0.85809,5.54383 15.98859,11.08765 2.57426,16.63148 -14.06355,0.0286 -21.35147,-7.90709 -23.16835,-18.22125 -0.57039,-6.67064 -0.30236,-18.36904 33.59411,-34.24127 -34.12675,-12.88124 5.66516,-28.08601 7.07936,-40.967243 -35.50171,-68.129768 2.59315,-58.560083 26.36709,-53.59913 l 4.33206,0.286544 z"
       id="path4747"
       sodipodi:nodetypes="cccccccccccc"
       inkscape:connector-curvature="0" />
    <path
       style="opacity:0.17346939;fill:#000000;fill-rule:evenodd;stroke:none"
       d="m 273.77975,34.468927 c 17.58589,-6.72763 51.12414,5.359422 22.80956,39.234734 16.97799,10.647824 4.38474,16.701782 3.54473,24.581589 19.73396,14.44093 14.57023,23.79844 -1.92213,30.84294 -20.1848,9.76892 -23.33278,2.23715 -27.58404,-4.17424 0.61957,-7.65035 7.45109,-4.94283 12.98072,-4.40613 l -5.19229,3.47853 c 0.40767,8.01391 10.92573,8.31201 17.19946,3.47852 10.05227,-7.8129 7.3389,-17.90542 1.9471,-29.21962 4.51811,-8.688312 5.62602,-17.120121 -6.16584,-24.581589 22.94406,-37.947733 -11.15179,-36.63909 -22.42842,-37.7926 l 4.81115,-1.442134 z"
       id="path4761"
       sodipodi:nodetypes="cccccccccccc"
       inkscape:connector-curvature="0" />
    <path
       style="fill:#916f6f;fill-rule:evenodd;stroke:none"
       d="m 276.80837,34.094713 c 17.58589,-6.72763 51.12414,5.359423 22.80956,39.234735 16.978,10.647823 4.38474,16.701782 3.54474,24.581592 19.73395,14.44093 14.57023,23.79843 -1.92215,30.84293 -20.18477,9.76893 -23.33277,2.23716 -27.58402,-4.17424 0.61957,-7.65034 7.4511,-4.94282 12.98071,-4.40612 l -5.19229,3.47852 c 0.40768,8.01392 10.92574,8.31201 17.19947,3.47853 10.05226,-7.81291 7.33888,-17.90542 1.9471,-29.21962 4.5181,-8.688315 5.62601,-17.120124 -6.16585,-24.581592 C 317.3697,35.381715 283.27385,36.690357 271.99723,35.536847 l 4.81114,-1.442134 z"
       id="path4759"
       sodipodi:nodetypes="cccccccccccc"
       inkscape:connector-curvature="0" />
    <path
       style="opacity:0.35204085;fill:#000000;fill-rule:evenodd;stroke:none"
       d="m 201.73233,307.5864 c -1.00636,6.64321 19.89662,10.93177 28.39633,0.51884 -5.80141,5.02555 -23.72185,4.76402 -28.39633,-0.51884 z"
       id="path4144"
       sodipodi:nodetypes="ccc"
       inkscape:connector-curvature="0" />
    <path
       style="opacity:0.35204085;fill:#000000;fill-rule:evenodd;stroke:none"
       d="m 266.69868,307.65605 c 1.00636,6.64321 -19.89662,10.93177 -28.39632,0.51884 5.80141,5.02555 23.72183,4.76402 28.39632,-0.51884 z"
       id="path4146"
       sodipodi:nodetypes="ccc"
       inkscape:connector-curvature="0" />
    <path
       style="opacity:0.08999999;fill:#000000;fill-rule:evenodd;stroke:#000000;stroke-width:1.09966373px;stroke-linecap:butt;stroke-linejoin:miter;stroke-opacity:1"
       d="m 296.81912,590.32855 c -12.159,-49.549 -37.33115,-99.34379 -49.83149,-148.15902 3.57973,1.4892 11.49754,-4.34504 15.05386,-2.02878 l -1.33656,-4.09465 -20.85544,5.14274 56.96963,149.13971 z"
       id="path2227"
       sodipodi:nodetypes="cccccc"
       inkscape:connector-curvature="0" />
    <path
       style="opacity:0.08999999;fill:#000000;fill-rule:evenodd;stroke:#000000;stroke-width:1.09966373px;stroke-linecap:butt;stroke-linejoin:miter;stroke-opacity:1"
       d="m 235.21125,314.30314 c 7.01967,17.4868 76.65378,105.92005 45.71343,117.6089 9.74504,0.36805 17.96804,-1.25229 32.87258,5.85604 2.32592,-36.03984 -57.19745,-79.4381 -69.08378,-124.19695 l -9.50223,0.73201 z"
       id="path3199"
       sodipodi:nodetypes="ccccc"
       inkscape:connector-curvature="0" />
    <path
       style="opacity:0.08999999;color:#000000;fill:#000000;fill-opacity:1;fill-rule:evenodd;stroke:#000000;stroke-width:1.09966373px;stroke-linecap:butt;stroke-linejoin:miter;stroke-miterlimit:4;stroke-opacity:1;stroke-dasharray:none;stroke-dashoffset:0;marker:none;visibility:visible;display:inline;overflow:visible;enable-background:accumulate"
       d="m 209.27273,399.7038 15.92266,14.1521 c 12.51747,-0.30271 13.477,-11.89189 18.49082,-16.10412 -9.09463,14.4845 -26.74441,5.96705 -34.41348,1.95202 z"
       id="path3213"
       sodipodi:nodetypes="cccc"
       inkscape:connector-curvature="0" />
    <path
       style="opacity:0.475;color:#000000;fill:#ffffff;fill-opacity:1;fill-rule:evenodd;stroke:none;stroke-width:1px;marker:none;visibility:visible;display:inline;overflow:visible;enable-background:accumulate"
       d="m 195.66299,320.19806 c -6.47223,14.17552 -16.42206,40.27688 -16.97478,55.29804 0.19467,-14.85944 7.37005,-41.29406 16.97478,-55.29804 z"
       id="path3535"
       sodipodi:nodetypes="ccc"
       inkscape:connector-curvature="0" />
  </g>
</svg>
