<?xml version="1.0" encoding="UTF-8" standalone="no"?>
<!-- Created with Inkscape (http://www.inkscape.org/) -->

<svg
   xmlns:dc="http://purl.org/dc/elements/1.1/"
   xmlns:cc="http://creativecommons.org/ns#"
   xmlns:rdf="http://www.w3.org/1999/02/22-rdf-syntax-ns#"
   xmlns:svg="http://www.w3.org/2000/svg"
   xmlns="http://www.w3.org/2000/svg"
   xmlns:xlink="http://www.w3.org/1999/xlink"
   xmlns:sodipodi="http://sodipodi.sourceforge.net/DTD/sodipodi-0.dtd"
   xmlns:inkscape="http://www.inkscape.org/namespaces/inkscape"
   width="195.62444"
   height="609.73029"
   id="svg3172"
   sodipodi:version="0.32"
   inkscape:version="0.48.3.1 r9886"
   sodipodi:docname="mujer04.svg"
   inkscape:output_extension="org.inkscape.output.svg.inkscape"
   version="1.0"
   sodipodi:modified="true">
  <defs
     id="defs3174">
    <linearGradient
       inkscape:collect="always"
       id="linearGradient3308">
      <stop
         style="stop-color:#ffffff;stop-opacity:1;"
         offset="0"
         id="stop3310" />
      <stop
         style="stop-color:#ffffff;stop-opacity:0;"
         offset="1"
         id="stop3312" />
    </linearGradient>
    <linearGradient
       inkscape:collect="always"
       id="linearGradient6373">
      <stop
         style="stop-color:#2b1100;stop-opacity:1;"
         offset="0"
         id="stop6375" />
      <stop
         style="stop-color:#2b1100;stop-opacity:0;"
         offset="1"
         id="stop6377" />
    </linearGradient>
    <linearGradient
       inkscape:collect="always"
       id="linearGradient6515">
      <stop
         style="stop-color:#ffffff;stop-opacity:1;"
         offset="0"
         id="stop6517" />
      <stop
         style="stop-color:#ffffff;stop-opacity:0;"
         offset="1"
         id="stop6519" />
    </linearGradient>
    <linearGradient
       inkscape:collect="always"
       xlink:href="#linearGradient6515"
       id="linearGradient8376"
       gradientUnits="userSpaceOnUse"
       gradientTransform="matrix(-2,0,0,2,378.661,-103.46166)"
       x1="225.98802"
       y1="231.31737"
       x2="221.31737"
       y2="236.34731" />
    <linearGradient
       inkscape:collect="always"
       id="linearGradient4058">
      <stop
         style="stop-color:#ffffff;stop-opacity:1;"
         offset="0"
         id="stop4060" />
      <stop
         style="stop-color:#ffffff;stop-opacity:0;"
         offset="1"
         id="stop4062" />
    </linearGradient>
    <linearGradient
       inkscape:collect="always"
       id="linearGradient4040">
      <stop
         style="stop-color:#ffffff;stop-opacity:1;"
         offset="0"
         id="stop4042" />
      <stop
         style="stop-color:#ffffff;stop-opacity:0;"
         offset="1"
         id="stop4044" />
    </linearGradient>
    <linearGradient
       inkscape:collect="always"
       xlink:href="#linearGradient4040"
       id="linearGradient4046"
       x1="150.46881"
       y1="214.67213"
       x2="211.96722"
       y2="173.36066"
       gradientUnits="userSpaceOnUse" />
    <linearGradient
       inkscape:collect="always"
       xlink:href="#linearGradient4058"
       id="linearGradient4064"
       x1="245.62155"
       y1="58.381191"
       x2="368.76068"
       y2="151.78441"
       gradientUnits="userSpaceOnUse" />
    <linearGradient
       inkscape:collect="always"
       xlink:href="#linearGradient6373"
       id="linearGradient6667"
       gradientUnits="userSpaceOnUse"
       x1="381.3432"
       y1="194.62123"
       x2="232.44025"
       y2="128.7196"
       gradientTransform="translate(-9.8360656,4.9180328)" />
    <linearGradient
       gradientUnits="userSpaceOnUse"
       y2="112.54329"
       x2="305.59781"
       y1="128.80252"
       x1="339.35129"
       id="linearGradient3851"
       xlink:href="#linearGradient3308"
       inkscape:collect="always" />
    <linearGradient
       inkscape:collect="always"
       xlink:href="#linearGradient3308"
       id="linearGradient4140"
       gradientUnits="userSpaceOnUse"
       gradientTransform="matrix(0.9505781,-0.1176732,0.12227,0.9591399,-5.8805697,-21.221572)"
       x1="339.35129"
       y1="128.80252"
       x2="305.59781"
       y2="112.54329" />
  </defs>
  <sodipodi:namedview
     id="base"
     pagecolor="#ffffff"
     bordercolor="#666666"
     borderopacity="1.0"
     inkscape:pageopacity="0.0"
     inkscape:pageshadow="2"
     inkscape:zoom="0.38125"
     inkscape:cx="-89.611185"
     inkscape:cy="473.1164"
     inkscape:current-layer="layer1"
     inkscape:document-units="px"
     showguides="true"
     inkscape:guide-bbox="true"
     inkscape:window-width="958"
     inkscape:window-height="690"
     inkscape:window-x="32"
     inkscape:window-y="48"
     width="480px"
     height="640px"
     showgrid="false"
     fit-margin-top="0"
     fit-margin-left="0"
     fit-margin-right="0"
     fit-margin-bottom="0"
     inkscape:window-maximized="0" />
  <metadata
     id="metadata3177">
    <rdf:RDF>
      <cc:Work
         rdf:about="">
        <dc:format>image/svg+xml</dc:format>
        <dc:type
           rdf:resource="http://purl.org/dc/dcmitype/StillImage" />
        <dc:title></dc:title>
      </cc:Work>
    </rdf:RDF>
  </metadata>
  <g
     id="layer1"
     inkscape:label="Layer 1"
     inkscape:groupmode="layer"
     style="display:inline"
     transform="translate(-167.34389,-17.732976)">
    <g
       id="g3228">
      <path
         sodipodi:nodetypes="ccccc"
         id="path2784"
         d="m 196.00127,614.84396 c 7.05258,-50.33847 -6.43064,-101.16971 -10.94632,-152.59215 l 46.06649,-0.55008 -16.07514,51.01978 c 19.53997,36.53147 -10.2448,69.26549 -19.04503,102.12245 z"
         style="color:#000000;fill:#e9ddaf;fill-opacity:1;fill-rule:evenodd;stroke:#000000;stroke-width:2.14730501;stroke-linecap:butt;stroke-linejoin:miter;stroke-miterlimit:4;stroke-opacity:1;stroke-dasharray:none;stroke-dashoffset:0;marker:none;visibility:visible;display:inline;overflow:visible;enable-background:accumulate"
         inkscape:connector-curvature="0" />
      <path
         sodipodi:nodetypes="ccccc"
         id="path4164"
         d="m 196.00127,614.84396 c 15.80678,-49.58974 -3.55244,-100.92365 -10.94632,-152.59215 l 46.06649,-0.55008 -16.07514,51.01978 c 19.53997,36.53147 -10.2448,69.26549 -19.04503,102.12245 z"
         style="opacity:0.175;color:#000000;fill:#000000;fill-opacity:1;fill-rule:evenodd;stroke:#000000;stroke-width:2.14730501;stroke-linecap:butt;stroke-linejoin:miter;stroke-miterlimit:4;stroke-opacity:1;stroke-dasharray:none;stroke-dashoffset:0;marker:none;visibility:visible;display:inline;overflow:visible;enable-background:accumulate"
         inkscape:connector-curvature="0" />
      <path
         sodipodi:nodetypes="ccccc"
         id="path4085"
         d="m 234.74491,626.38962 c -3.17816,-50.68576 -26.62183,-98.20809 -41.37733,-147.90329 l 45.12754,-8.72262 -5.54563,52.95757 c 26.52112,32.40359 3.84205,69.83903 1.79542,103.66834 z"
         style="color:#000000;fill:#e9ddaf;fill-opacity:1;fill-rule:evenodd;stroke:#000000;stroke-width:2.14730501;stroke-linecap:butt;stroke-linejoin:miter;stroke-miterlimit:4;stroke-opacity:1;stroke-dasharray:none;stroke-dashoffset:0;marker:none;visibility:visible;display:inline;overflow:visible;enable-background:accumulate"
         inkscape:connector-curvature="0" />
      <path
         sodipodi:nodetypes="ccccc"
         id="path4162"
         d="m 234.74491,626.38962 c -3.17816,-50.68576 -26.62183,-98.20809 -41.37733,-147.90329 l 47.64104,-3.59915 -11.82937,54.53365 c 26.52075,32.40361 7.61229,63.13948 5.56566,96.96879 z"
         style="opacity:0.11499999;color:#000000;fill:#000000;fill-opacity:1;fill-rule:evenodd;stroke:#000000;stroke-width:2.14730501;stroke-linecap:butt;stroke-linejoin:miter;stroke-miterlimit:4;stroke-opacity:1;stroke-dasharray:none;stroke-dashoffset:0;marker:none;visibility:visible;display:inline;overflow:visible;enable-background:accumulate"
         inkscape:connector-curvature="0" />
      <path
         sodipodi:nodetypes="ccccc"
         id="path4087"
         d="m 234.90883,511.47952 c 16.22678,-54.75895 74.29292,-102.89562 51.73894,-165.37958 l -93.80938,-3.89974 c -19.54402,46.41227 -27.55505,100.42026 -7.08394,154.79054 l 49.15438,14.48878 z"
         style="color:#000000;fill:#ff0000;fill-opacity:1;fill-rule:evenodd;stroke:#000000;stroke-width:1.98286724;stroke-linecap:butt;stroke-linejoin:miter;stroke-miterlimit:4;stroke-opacity:1;stroke-dasharray:none;stroke-dashoffset:0;marker:none;visibility:visible;display:inline;overflow:visible;enable-background:accumulate"
         inkscape:connector-curvature="0" />
      <path
         sodipodi:nodetypes="ccccccc"
         id="path3743"
         d="m 241.66482,230.13298 -47.82042,57.73087 c -8.60108,4.62298 -15.83645,-6.1687 -22.31609,-25.49161 l 19.12816,-65.22822 10.36083,2.24917 -4.78192,52.48277 c 13.64558,-16.01764 30.60731,-30.51283 38.348,-50.23327"
         style="color:#000000;fill:#ffff00;fill-opacity:1;fill-rule:evenodd;stroke:#000000;stroke-width:1.98286724;stroke-linecap:butt;stroke-linejoin:miter;stroke-miterlimit:4;stroke-opacity:1;stroke-dasharray:none;stroke-dashoffset:0;marker:none;visibility:visible;display:inline;overflow:visible;enable-background:accumulate"
         inkscape:connector-curvature="0" />
      <path
         sodipodi:nodetypes="cccccccccc"
         id="path3745"
         d="m 192.29118,196.86542 1.55322,-8.71822 -25.50431,-17.24422 1.59396,-36.73798 35.0684,11.99605 -14.34598,3.74868 -3.98533,14.24531 22.31646,16.49448 -10.44304,18.07092 -6.25338,-1.85502 z"
         style="color:#000000;fill:#e9ddaf;fill-opacity:1;fill-rule:evenodd;stroke:#000000;stroke-width:1.99240649;stroke-linecap:butt;stroke-linejoin:miter;stroke-miterlimit:4;stroke-opacity:1;stroke-dasharray:none;stroke-dashoffset:0;marker:none;visibility:visible;display:inline;overflow:visible;enable-background:accumulate"
         inkscape:connector-curvature="0" />
      <path
         sodipodi:nodetypes="cccc"
         id="path3706"
         d="m 254.47159,192.08274 c 14.81298,-13.57009 -1.32973,-25.14218 -11.55555,-32.28163 l 25.56182,-7.90558 c 0.29564,9.11337 1.84843,18.22707 8.4042,27.34043 l 0.70025,0.32937 2.45109,0.98827 -32.215,45.78678 0,-33.26964 6.65319,-0.988 z"
         style="color:#000000;fill:#e9ddaf;fill-opacity:1;fill-rule:evenodd;stroke:#000000;stroke-width:1.99240649;stroke-linecap:butt;stroke-linejoin:miter;stroke-miterlimit:4;stroke-opacity:1;stroke-dasharray:none;stroke-dashoffset:0;marker:none;visibility:visible;display:inline;overflow:visible;enable-background:accumulate"
         inkscape:connector-curvature="0" />
      <path
         sodipodi:nodetypes="ccc"
         id="path3571"
         d="m 330.48309,277.34773 c 3.55478,-1.36456 9.47918,-0.33862 14.21912,4.45857 -4.73994,-3.78993 -9.47953,-3.36055 -14.21912,-4.45857 z"
         style="opacity:0.66500005;fill:#000000;fill-rule:evenodd;stroke:#000000;stroke-width:0.24785841;stroke-linecap:butt;stroke-linejoin:miter;stroke-miterlimit:4;stroke-opacity:1;stroke-dasharray:none"
         inkscape:connector-curvature="0" />
      <path
         sodipodi:nodetypes="ccccc"
         id="path3714"
         d="m 263.36003,165.86638 c 3.85303,5.33554 10.11373,11.60028 8.79762,16.74889 l 2.72283,-4.72894 c -3.14972,-3.13462 -4.0507,-6.79793 -5.027,-10.44353 l -6.49345,-1.57642 z"
         style="opacity:0.525;color:#000000;fill:#ffffff;fill-opacity:1;fill-rule:evenodd;stroke:none;stroke-width:0.5823999px;marker:none;visibility:visible;display:inline;overflow:visible;enable-background:accumulate"
         inkscape:connector-curvature="0" />
      <path
         sodipodi:nodetypes="ccccccc"
         id="path3751"
         d="m 241.66482,230.13298 -47.82042,57.73087 c -8.60108,4.62298 -15.83645,-6.1687 -22.31609,-25.49161 l 19.12816,-65.22822 4.49575,2.24917 -8.97119,66.67017 c 22.86223,-15.22948 40.66166,-43.86414 48.40235,-63.58486"
         style="opacity:0.225;color:#000000;fill:#000000;fill-opacity:1;fill-rule:evenodd;stroke:#000000;stroke-width:1.98286724;stroke-linecap:butt;stroke-linejoin:miter;stroke-miterlimit:4;stroke-opacity:1;stroke-dasharray:none;stroke-dashoffset:0;marker:none;visibility:visible;display:inline;overflow:visible;enable-background:accumulate"
         inkscape:connector-curvature="0" />
      <path
         sodipodi:nodetypes="cccccccccc"
         id="path3749"
         d="m 196.48047,197.65347 1.13418,-12.65914 -25.08503,-16.45615 1.59407,-31.22032 30.87876,8.84319 -14.34598,3.74868 -3.98533,14.24531 22.31646,16.49448 -10.44304,18.07092 -2.06409,-1.06697 z"
         style="opacity:0.15499998;color:#000000;fill:#000000;fill-opacity:1;fill-rule:evenodd;stroke:none;stroke-width:2.00477886;marker:none;visibility:visible;display:inline;overflow:visible;enable-background:accumulate"
         inkscape:connector-curvature="0" />
      <path
         sodipodi:nodetypes="ccccc"
         id="path4158"
         d="M 226.53011,509.11478 C 247.78404,458.297 299.14739,402.27854 286.64777,346.09994 l -93.80938,-3.89974 c -19.54402,46.41227 -27.55505,100.42026 -7.08394,154.79054 l 40.77566,12.12404 z"
         style="opacity:0.30500004;color:#000000;fill:#000000;fill-opacity:1;fill-rule:evenodd;stroke:#000000;stroke-width:1.98286724;stroke-linecap:butt;stroke-linejoin:miter;stroke-miterlimit:4;stroke-opacity:1;stroke-dasharray:none;stroke-dashoffset:0;marker:none;visibility:visible;display:inline;overflow:visible;enable-background:accumulate"
         inkscape:connector-curvature="0" />
      <path
         sodipodi:nodetypes="cccccccccccccccccc"
         id="path3173"
         d="m 192.96048,340.06881 42.97921,-85.91568 c -16.341,-13.50551 -19.64418,-23.16773 -18.51286,-33.35572 5.91012,-2.93481 14.75241,-13.32733 20.66158,-24.76393 l -0.53724,-7.07586 15.04308,3.53804 -4.29804,4.54802 0,16.67787 c 20.07646,-16.24715 26.77462,-38.7874 39.21854,-58.62505 29.971,37.06233 44.13404,63.87751 67.07205,100.93929 1.8743,30.63591 -13.43222,66.25793 -37.00551,97.15537 l -12.89376,-8.14676 c 14.85469,-28.71911 30.24288,-56.16722 27.33518,-86.13854 l -35.37464,-59.8403 c -2.11667,23.16761 -0.36711,48.4561 -18.80354,62.66825 -10.28457,16.5495 -31.95433,30.71893 -24.1758,51.04435 14.43232,9.87254 28.51095,17.94622 38.14406,32.85005 -33.92178,-0.53345 -76.38418,10.53745 -98.85231,-5.5594 z"
         style="color:#000000;fill:#ffff00;fill-opacity:1;fill-rule:evenodd;stroke:#000000;stroke-width:1.98286724;stroke-linecap:butt;stroke-linejoin:miter;stroke-miterlimit:4;stroke-opacity:1;stroke-dasharray:none;stroke-dashoffset:0;marker:none;visibility:visible;display:inline;overflow:visible;enable-background:accumulate"
         inkscape:connector-curvature="0" />
      <path
         sodipodi:nodetypes="cccccccccccccccccc"
         id="path3720"
         d="m 192.96048,340.06881 42.97921,-85.91568 c -16.341,-13.50551 -19.64418,-23.16773 -18.51286,-33.35572 5.91012,-2.93481 14.75241,-13.32733 20.66158,-24.76393 l -0.53724,-7.07586 15.04308,3.53804 -4.29804,4.54802 0,16.67787 c 20.07646,-16.24715 24.99706,-29.31265 37.44132,-49.15028 29.97065,37.06228 37.02412,54.40274 59.96251,91.46452 1.87394,30.63591 -6.91508,65.14338 -30.48873,96.04062 l -10.52378,-7.03201 c 14.85469,-28.71911 30.24288,-56.16722 27.33518,-86.13854 l -35.37464,-59.8403 c -2.11667,23.16761 -0.36711,48.4561 -18.80354,62.66825 -10.28457,16.5495 -31.95433,30.71893 -24.1758,51.04435 14.43232,9.87254 28.51095,17.94622 38.14406,32.85005 -33.92178,-0.53345 -76.38418,10.53745 -98.85231,-5.5594 z"
         style="opacity:0.225;fill:#000000;fill-rule:evenodd;stroke:#000000;stroke-width:1.98286724;stroke-linecap:butt;stroke-linejoin:miter;stroke-miterlimit:4;stroke-opacity:1;stroke-dasharray:none;display:inline"
         inkscape:connector-curvature="0" />
      <path
         sodipodi:nodetypes="cccccc"
         id="path3824"
         d="m 227.93169,162.51413 c -4.36102,-2.65048 -48.10128,15.25922 -45.73421,18.67584 -30.71423,-206.712397 58.04956,-140.129071 59.02744,-146.282265 65.63872,-65.007673 49.37874,84.446015 96.8991,114.951635 l -45.62866,-0.41378 -64.56367,13.06857 z"
         style="fill:#782121;fill-rule:evenodd;stroke:#000000;stroke-width:1.92470741;stroke-linecap:butt;stroke-linejoin:miter;stroke-miterlimit:4;stroke-opacity:1;stroke-dasharray:none"
         inkscape:connector-curvature="0" />
      <path
         id="path3716"
         d="m 257.49495,171.3837 11.93949,3.34978 2.09483,-4.33509 -2.51386,-2.75866 -17.80456,-0.98531 6.2841,4.72928 z"
         style="opacity:0.32178219;color:#000000;fill:#000000;fill-opacity:1;fill-rule:evenodd;stroke:#000000;stroke-width:0.48117685px;stroke-linecap:butt;stroke-linejoin:miter;stroke-miterlimit:4;stroke-opacity:1;stroke-dasharray:none;stroke-dashoffset:0;marker:none;visibility:visible;display:inline;overflow:visible;enable-background:accumulate"
         inkscape:connector-curvature="0" />
      <path
         sodipodi:nodetypes="cccccc"
         id="path3754"
         d="m 192.41677,78.474704 c 26.74957,-36.88638 61.77076,-54.562233 109.24181,-17.852634 -4.56706,29.021366 -4.33809,37.802687 3.35151,60.86033 1.94136,7.94422 -21.49529,30.8358 -36.16374,49.24034 -27.87518,-4.70491 -43.28557,-16.71764 -61.89755,-22.87061 -1.60934,-23.33918 -8.75861,-46.31292 -14.53203,-69.377426 z"
         style="fill:#e9ddaf;fill-opacity:1;fill-rule:evenodd;stroke:#000000;stroke-width:1.92470741;stroke-linecap:butt;stroke-linejoin:miter;stroke-miterlimit:4;stroke-opacity:1;stroke-dasharray:none;display:inline"
         inkscape:connector-curvature="0" />
      <g
         transform="matrix(0.4779899,-0.03154635,0.03408383,0.4821359,-11.017041,-93.293065)"
         id="g3875"
         style="fill:#000000;display:inline">
        <path
           style="opacity:0.54950496;fill:#000000;fill-rule:evenodd;stroke:none"
           d="m 662.36423,325.73056 c 4.31501,26.92768 -14.64752,66.30049 -22.80815,99.89814 -3.12063,-40.22528 12.63967,-77.42222 -11.40408,-121.0034 11.62278,5.80735 24.67781,3.57447 34.21223,21.10526 z"
           id="path3879"
           sodipodi:nodetypes="cccc"
           inkscape:connector-curvature="0" />
      </g>
      <path
         sodipodi:nodetypes="cccc"
         id="path3538"
         d="M 242.6245,42.859953 C 325.51444,14.260397 287.19324,154.98938 361.90997,133.37321 299.09853,132.99031 322.53628,83.330178 331.33138,34.524051 288.61995,11.238509 261.64761,16.862275 242.6245,42.859953 z"
         style="fill:#800000;fill-rule:evenodd;stroke:#000000;stroke-width:2.11668992;stroke-linecap:butt;stroke-linejoin:miter;stroke-miterlimit:4;stroke-opacity:1;stroke-dasharray:none"
         inkscape:connector-curvature="0" />
      <path
         sodipodi:nodetypes="cccc"
         id="path3540"
         d="m 322.34156,41.303345 c 2.9804,12.846574 -4.74149,32.427748 -7.49691,48.883877 -2.86288,-19.295513 3.40279,-37.726615 -9.57532,-57.980175 5.75347,2.433221 11.91751,0.944811 17.07223,9.096298 z"
         style="opacity:0.54950496;fill:url(#linearGradient4140);fill-opacity:1;fill-rule:evenodd;stroke:none"
         inkscape:connector-curvature="0" />
      <path
         sodipodi:nodetypes="cccc"
         id="path3885"
         d="m 242.87923,44.584481 c -42.06234,60.230789 -29.4126,90.396399 25.81681,125.025159 -16.14501,-4.21237 -87.01376,-12.62521 -64.52123,-54.94727 3.09732,-32.465375 -10.85009,-80.761946 38.70442,-70.077889 z"
         style="opacity:0.32178219;fill:#000000;fill-rule:evenodd;stroke:#000000;stroke-width:0.48117685px;stroke-linecap:butt;stroke-linejoin:miter;stroke-opacity:1"
         inkscape:connector-curvature="0" />
      <path
         sodipodi:nodetypes="cccc"
         id="path3883"
         d="m 181.66404,61.139459 54.45,-17.40251 C 196.05196,61.733847 214.53663,175.2062 186.52888,163.92288 224.7753,161.19902 183.2932,95.406657 181.66404,61.139459 z"
         style="opacity:0.32673268;fill:#000000;fill-rule:evenodd;stroke:#000000;stroke-width:0.48117685px;stroke-linecap:butt;stroke-linejoin:miter;stroke-opacity:1"
         inkscape:connector-curvature="0" />
      <path
         sodipodi:nodetypes="cccc"
         id="path3804"
         d="m 242.81032,43.61039 c -48.545,-2.675728 -10.2064,136.6261 -55.62071,112.90384 44.36029,6.73456 -7.41732,-86.230439 -4.77006,-102.557361 9.44924,-13.096111 32.4534,-26.595766 60.39077,-10.346479 z"
         style="fill:#782121;fill-rule:evenodd;stroke:#000000;stroke-width:1.92470741;stroke-linecap:butt;stroke-linejoin:miter;stroke-miterlimit:4;stroke-opacity:1;stroke-dasharray:none"
         inkscape:connector-curvature="0" />
      <path
         sodipodi:nodetypes="cccc"
         id="path3758"
         d="m 296.20606,96.361546 c -3.08897,-11.898977 -24.2698,-15.978922 -31.52689,-2.662788 2.8694,-4.677631 -2.03434,-7.336089 15.51244,-11.017226 8.90612,1.773516 12.63649,4.700265 16.01445,13.680014 z"
         style="fill:#000000;fill-rule:evenodd;stroke:#000000;stroke-width:0.481177;stroke-linecap:butt;stroke-linejoin:miter;stroke-miterlimit:4;stroke-opacity:1;stroke-dasharray:none;display:inline"
         inkscape:connector-curvature="0" />
      <path
         sodipodi:open="true"
         sodipodi:end="9.506046"
         sodipodi:start="4.1263281"
         transform="matrix(2.0770947,-0.4994318,0.628453,2.597105,-878.30003,-1569.7361)"
         d="m 342.27344,703.74482 c 1.32176,-1.52351 3.10459,-0.89817 3.98206,1.39675 0.87747,2.29492 0.5173,5.39038 -0.80446,6.9139 -1.32175,1.52352 -3.10458,0.89817 -3.98205,-1.39675 -0.35673,-0.93299 -0.52225,-2.04729 -0.46989,-3.16346"
         sodipodi:ry="4.987628"
         sodipodi:rx="2.8726213"
         sodipodi:cy="707.90015"
         sodipodi:cx="343.86224"
         id="path3760"
         style="fill:#000000;fill-opacity:1;fill-rule:nonzero;stroke:#000000;stroke-width:0.20139626;stroke-linejoin:round;stroke-miterlimit:4;stroke-opacity:1;stroke-dasharray:none"
         sodipodi:type="arc" />
      <path
         sodipodi:open="true"
         sodipodi:end="9.2001351"
         sodipodi:start="4.0168706"
         transform="matrix(1.1498181,-0.2764707,0.3753393,1.5511036,-383.73875,-907.96722)"
         d="m 342.02152,704.07104 c 1.21799,-1.7651 3.02949,-1.48164 4.0461,0.63312 1.0166,2.11476 0.85335,5.26 -0.36465,7.0251 -1.21799,1.76509 -3.02949,1.48164 -4.0461,-0.63312 -0.29026,-0.60381 -0.49417,-1.31823 -0.59507,-2.08496"
         sodipodi:ry="4.987628"
         sodipodi:rx="2.8726213"
         sodipodi:cy="707.90015"
         sodipodi:cx="343.86224"
         id="path3762"
         style="fill:#ffffff;fill-opacity:1;fill-rule:nonzero;stroke:#000000;stroke-width:0.35025901;stroke-linejoin:round;stroke-miterlimit:4;stroke-opacity:1;stroke-dasharray:none;display:inline"
         sodipodi:type="arc" />
      <path
         transform="matrix(2.0770947,-0.4994318,0.628453,2.597105,-880.09563,-1582.3175)"
         d="m 345.21962,714.75024 c 0,0.64507 -0.3392,1.16799 -0.75761,1.16799 -0.41842,0 -0.75762,-0.52292 -0.75762,-1.16799 0,-0.64506 0.3392,-1.16798 0.75762,-1.16798 0.41841,0 0.75761,0.52292 0.75761,1.16798 z"
         sodipodi:ry="1.1679889"
         sodipodi:rx="0.75761443"
         sodipodi:cy="714.75024"
         sodipodi:cx="344.46201"
         id="path3764"
         style="fill:#ffffff;fill-opacity:1;fill-rule:nonzero;stroke:#000000;stroke-width:0.20139626;stroke-linejoin:round;stroke-miterlimit:4;stroke-opacity:1;stroke-dasharray:none"
         sodipodi:type="arc" />
      <path
         sodipodi:nodetypes="ccc"
         id="path3766"
         d="m 276.65823,104.07557 c 5.05672,6.25357 8.71708,4.45625 11.108,-2.13422 0.38249,8.79113 -6.81501,11.67325 -11.108,2.13422 z"
         style="opacity:0.87128709;fill:#ffffff;fill-rule:evenodd;stroke:none"
         inkscape:connector-curvature="0" />
      <path
         sodipodi:nodetypes="cccccccc"
         id="path3768"
         d="m 296.50254,95.189608 c 3.16791,-0.347088 5.44554,-2.10855 7.04406,-4.948888 -3.15441,4.803476 -5.48778,3.351339 -7.90715,2.554472 3.4244,-2.0244 5.91635,-4.572229 5.90747,-8.523893 -0.6012,5.214764 -4.24504,5.595751 -7.91351,5.937621 3.93985,-4.244648 3.08254,-9.590078 3.202,-14.711376 0.0751,6.100553 -0.63271,12.819325 -4.91325,12.731974 l 4.58038,6.96009 z"
         style="fill:#000000;fill-rule:evenodd;stroke:#000000;stroke-width:0.481177;stroke-linecap:butt;stroke-linejoin:miter;stroke-miterlimit:4;stroke-opacity:1;stroke-dasharray:none"
         inkscape:connector-curvature="0" />
      <path
         sodipodi:nodetypes="ccccc"
         id="path3770"
         d="m 274.60968,116.34964 c 4.76423,-2.96434 10.61725,-5.21562 18.3339,-3.40349 l 2.14273,-5.53942 -0.0373,7.04287 c -8.51752,-3.48683 -15.34205,-1.02171 -20.43929,1.90004 z"
         style="fill:#000000;fill-rule:evenodd;stroke:#000000;stroke-width:0.481177px;stroke-linecap:butt;stroke-linejoin:miter;stroke-opacity:1"
         inkscape:connector-curvature="0" />
      <path
         sodipodi:nodetypes="cccc"
         id="path3790"
         d="m 299.97242,76.476476 c -15.17123,-3.604625 -30.5404,-4.793198 -43.66283,3.370959 7.40202,-2.527281 1.34923,-4.166573 23.71176,-7.681218 l 19.95107,4.310259 z"
         style="fill:#000000;fill-rule:evenodd;stroke:#000000;stroke-width:0.481177px;stroke-linecap:butt;stroke-linejoin:miter;stroke-opacity:1;display:inline"
         inkscape:connector-curvature="0" />
      <path
         sodipodi:nodetypes="cccc"
         id="path3792"
         d="m 200.98449,90.537604 c 13.62084,-7.518044 28.09329,-12.762695 42.96142,-8.403021 -7.81821,-0.458544 -2.43902,-3.651671 -24.93154,-1.069613 l -18.02988,9.472634 z"
         style="fill:#000000;fill-rule:evenodd;stroke:#000000;stroke-width:0.481177px;stroke-linecap:butt;stroke-linejoin:miter;stroke-opacity:1;display:inline"
         inkscape:connector-curvature="0" />
      <path
         sodipodi:nodetypes="cccc"
         id="path3774"
         d="m 216.13569,111.34524 c -1.52408,-12.194676 16.66989,-23.714884 28.34128,-13.975477 -4.39768,-3.304439 -0.81883,-7.565772 -18.50068,-4.590106 -7.62877,4.897948 -10.01705,8.980883 -9.8406,18.565583 z"
         style="fill:#000000;fill-rule:evenodd;stroke:#000000;stroke-width:0.481177;stroke-linecap:butt;stroke-linejoin:miter;stroke-miterlimit:4;stroke-opacity:1;stroke-dasharray:none;display:inline"
         inkscape:connector-curvature="0" />
      <path
         sodipodi:open="true"
         sodipodi:end="9.506046"
         sodipodi:start="4.1263281"
         transform="matrix(2.1166166,-0.2930118,0.3752115,2.6449574,-762.66964,-1665.2763)"
         d="m 342.27344,703.74482 c 1.32176,-1.52351 3.10459,-0.89817 3.98206,1.39675 0.87747,2.29492 0.5173,5.39038 -0.80446,6.9139 -1.32175,1.52352 -3.10458,0.89817 -3.98205,-1.39675 -0.35673,-0.93299 -0.52225,-2.04729 -0.46989,-3.16346"
         sodipodi:ry="4.987628"
         sodipodi:rx="2.8726213"
         sodipodi:cy="707.90015"
         sodipodi:cx="343.86224"
         id="path3778"
         style="fill:#000000;fill-opacity:1;fill-rule:nonzero;stroke:#000000;stroke-width:0.20139626;stroke-linejoin:round;stroke-miterlimit:4;stroke-opacity:1;stroke-dasharray:none"
         sodipodi:type="arc" />
      <path
         sodipodi:open="true"
         sodipodi:end="9.2001351"
         sodipodi:start="4.0168706"
         transform="matrix(1.1716963,-0.1622027,0.2240925,1.5796832,-334.03323,-958.5065)"
         d="m 342.02152,704.07104 c 1.21799,-1.7651 3.02949,-1.48164 4.0461,0.63312 1.0166,2.11476 0.85335,5.26 -0.36465,7.0251 -1.21799,1.76509 -3.02949,1.48164 -4.0461,-0.63312 -0.29026,-0.60381 -0.49417,-1.31823 -0.59507,-2.08496"
         sodipodi:ry="4.987628"
         sodipodi:rx="2.8726213"
         sodipodi:cy="707.90015"
         sodipodi:cx="343.86224"
         id="path3780"
         style="fill:#ffffff;fill-opacity:1;fill-rule:nonzero;stroke:#000000;stroke-width:0.35025901;stroke-linejoin:round;stroke-miterlimit:4;stroke-opacity:1;stroke-dasharray:none;display:inline"
         sodipodi:type="arc" />
      <path
         transform="matrix(2.1166166,-0.2930118,0.3752115,2.6449574,-763.24364,-1677.967)"
         d="m 345.21962,714.75024 c 0,0.64507 -0.3392,1.16799 -0.75761,1.16799 -0.41842,0 -0.75762,-0.52292 -0.75762,-1.16799 0,-0.64506 0.3392,-1.16798 0.75762,-1.16798 0.41841,0 0.75761,0.52292 0.75761,1.16798 z"
         sodipodi:ry="1.1679889"
         sodipodi:rx="0.75761443"
         sodipodi:cy="714.75024"
         sodipodi:cx="344.46201"
         id="path3782"
         style="opacity:0.86138611;fill:#ffffff;fill-opacity:1;fill-rule:nonzero;stroke:#000000;stroke-width:0.20139626;stroke-linejoin:round;stroke-miterlimit:4;stroke-opacity:1;stroke-dasharray:none"
         sodipodi:type="arc" />
      <path
         sodipodi:nodetypes="ccc"
         id="path3784"
         d="m 225.90196,112.58526 c 4.37445,7.10236 8.20449,5.55265 11.27453,-1.19024 -0.54186,9.33779 -8.00457,11.69521 -11.27453,1.19024 z"
         style="opacity:0.86138611;fill:#ffffff;fill-rule:evenodd;stroke:none"
         inkscape:connector-curvature="0" />
      <path
         sodipodi:nodetypes="cccccccc"
         id="path3786"
         d="m 215.42683,110.36327 c -3.07496,0.83257 -5.84451,0.0248 -8.38107,-2.03415 4.7093,3.31755 6.34307,1.11578 8.29901,-0.50785 -3.9334,-0.63407 -7.1929,-2.0951 -8.645,-5.77406 2.48636,4.63134 6.01655,3.65673 9.55518,2.63674 -5.23336,-2.51128 -6.41136,-7.796107 -8.41509,-12.51621 2.1846,5.70195 5.326,11.69337 9.27535,10.0509 l -1.68838,8.14463 z"
         style="fill:#000000;fill-rule:evenodd;stroke:#000000;stroke-width:0.481177;stroke-linecap:butt;stroke-linejoin:miter;stroke-miterlimit:4;stroke-opacity:1;stroke-dasharray:none"
         inkscape:connector-curvature="0" />
      <path
         sodipodi:nodetypes="ccccc"
         id="path3788"
         d="m 243.61071,122.06081 c -5.52702,-1.01972 -11.8033,-0.97904 -18.31139,3.521 l -4.04024,-4.37108 2.63748,6.53743 c 6.63415,-6.34989 13.89311,-6.54599 19.71415,-5.68735 z"
         style="fill:#000000;fill-rule:evenodd;stroke:#000000;stroke-width:0.481177px;stroke-linecap:butt;stroke-linejoin:miter;stroke-opacity:1"
         inkscape:connector-curvature="0" />
      <path
         sodipodi:nodetypes="cccc"
         id="path3881"
         d="m 325.04574,139.28115 c -35.768,-35.89897 -14.08376,-91.547736 -74.83214,-97.819744 59.79999,-10.754965 53.24548,61.251054 76.22212,98.074304 l -1.38998,-0.25456 z"
         style="opacity:0.38118813;fill:#000000;fill-rule:evenodd;stroke:#000000;stroke-width:0.48117685px;stroke-linecap:butt;stroke-linejoin:miter;stroke-opacity:1"
         inkscape:connector-curvature="0" />
      <path
         sodipodi:nodetypes="ccc"
         id="path3887"
         d="M 190.45136,156.81379 C 225.83716,171.27192 201.08117,48.542274 237.80021,42.972793 170.65056,19.616303 230.23197,163.02386 190.45136,156.81379 z"
         style="opacity:0.14851487;fill:#ffffff;fill-rule:evenodd;stroke:#000000;stroke-width:0.48117685px;stroke-linecap:butt;stroke-linejoin:miter;stroke-opacity:1"
         inkscape:connector-curvature="0" />
      <path
         sodipodi:nodetypes="cccc"
         id="path3893"
         d="m 299.3454,119.3907 c -5.61929,-2.91431 -11.7357,-0.51322 -17.69269,0.18903 6.89204,0.79442 15.60575,0.0794 14.36346,7.61491 l 3.32923,-7.80394 z"
         style="opacity:0.675;fill:#ffffff;fill-rule:evenodd;stroke:none"
         inkscape:connector-curvature="0" />
      <path
         sodipodi:nodetypes="cccc"
         id="path3914"
         d="m 275.95658,121.76169 c -5.02512,1.58003 -11.96467,7.11535 -13.93791,4.20675 1.33973,1.80322 1.07388,3.98632 4.8283,5.21743 1.89655,-2.6495 4.38657,-7.971 9.10961,-9.42418 z"
         style="opacity:0.66336634;fill:#000000;fill-rule:evenodd;stroke:#000000;stroke-width:0.48117685px;stroke-linecap:butt;stroke-linejoin:miter;stroke-opacity:1"
         inkscape:connector-curvature="0" />
      <path
         sodipodi:nodetypes="ccc"
         id="path3916"
         d="m 267.39532,131.66829 c 1.16799,-2.71423 4.06805,-8.18236 9.42695,-9.79076 -4.94932,-1.17384 -9.67368,-7.46928 -9.91207,-11.62823"
         style="fill:none;stroke:#000000;stroke-width:1.34729195;stroke-linecap:butt;stroke-linejoin:miter;stroke-miterlimit:4;stroke-opacity:1;stroke-dasharray:none;display:inline"
         inkscape:connector-curvature="0" />
      <path
         sodipodi:nodetypes="cccc"
         id="path3921"
         d="m 228.77081,127.37437 c 5.15647,-3.62555 11.554,-2.05005 17.55465,-2.13722 -6.71604,1.69278 -15.44971,2.12915 -13.15846,9.43119 l -4.39619,-7.29397 z"
         style="opacity:0.82999998;fill:#ffffff;fill-rule:evenodd;stroke:none;display:inline"
         inkscape:connector-curvature="0" />
      <path
         sodipodi:nodetypes="ccc"
         id="path8806"
         d="m 253.89388,146.2687 22.04374,-5.81844 c -2.16252,13.98923 -20.98612,9.63585 -22.04374,5.81844 z"
         style="fill:#ffffff;fill-rule:evenodd;stroke:#000000;stroke-width:0.41370687px;stroke-linecap:butt;stroke-linejoin:miter;stroke-opacity:1"
         inkscape:connector-curvature="0" />
      <path
         sodipodi:nodetypes="cccc"
         id="path8802"
         d="m 248.76416,146.65261 c 5.53728,0.0276 10.55122,-3.53492 15.68422,-6.2786 6.20087,1.68936 4.19107,-2.61782 12.32441,-2.3368 -1.68853,6.73714 -13.95739,8.12673 -28.00863,8.6154 z"
         style="fill:#d40000;fill-rule:evenodd;stroke:#000000;stroke-width:1.26039553px;stroke-linecap:butt;stroke-linejoin:miter;stroke-opacity:1"
         inkscape:connector-curvature="0" />
      <path
         sodipodi:nodetypes="ccc"
         id="path8804"
         d="m 249.36985,146.77553 c 10.9935,2.08406 21.58596,6.44989 28.22344,-8.68311 -3.66262,20.77483 -14.741,18.4704 -28.22344,8.68311 z"
         style="fill:#d40000;fill-rule:evenodd;stroke:#000000;stroke-width:1.26039553px;stroke-linecap:butt;stroke-linejoin:miter;stroke-opacity:1"
         inkscape:connector-curvature="0" />
      <path
         sodipodi:nodetypes="cccc"
         id="path8810"
         d="m 264.80728,140.72047 c -5.93206,4.61334 -10.5351,7.29098 -0.71066,13.19946 -5.79078,-0.89994 -9.17506,-3.85292 -13.53881,-7.06462 l 14.24947,-6.13484 z"
         style="opacity:0.29702968;fill:#000000;fill-rule:evenodd;stroke:#000000;stroke-width:0.48117685px;stroke-linecap:butt;stroke-linejoin:miter;stroke-opacity:1"
         inkscape:connector-curvature="0" />
      <path
         sodipodi:nodetypes="cccc"
         id="path8812"
         d="m 270.96199,139.42998 c 6.85861,4.18057 1.70657,7.91147 0.21667,12.36465 3.25867,-3.17882 5.26125,-7.99965 6.5923,-13.69823 -2.30356,-0.0347 -4.60659,-0.0639 -6.80897,1.33358 z"
         style="opacity:0.35643562;fill:#000000;fill-rule:evenodd;stroke:none"
         inkscape:connector-curvature="0" />
      <path
         sodipodi:nodetypes="cccc"
         id="path2211"
         d="m 272.3992,140.38511 c -1.50487,0.46196 -1.7333,-0.15261 -4.60835,1.46452 -5.20796,-0.0407 -4.46886,1.69348 -7.33895,2.36344 7.01208,-1.33514 8.31901,0.0526 11.9473,-3.82796 z"
         style="opacity:0.30198017;fill:#ffffff;fill-rule:evenodd;stroke:none"
         inkscape:connector-curvature="0" />
      <path
         sodipodi:nodetypes="cccccc"
         id="path3708"
         d="m 218.3242,222.22206 c 11.04017,19.44235 42.22397,15.29218 59.69852,10.64058 -39.88034,43.4898 -67.07644,82.41745 12.56786,111.92325 -34.53974,1.17414 -73.17884,9.20386 -98.44959,-5.12328 l 43.5691,-85.51871 c -7.19055,-10.17647 -19.85261,-19.46086 -17.38589,-31.92184 z"
         style="opacity:0.15499998;color:#000000;fill:#000000;fill-opacity:1;fill-rule:evenodd;stroke:#000000;stroke-width:0.48117685px;stroke-linecap:butt;stroke-linejoin:miter;stroke-miterlimit:4;stroke-opacity:1;stroke-dasharray:none;stroke-dashoffset:0;marker:none;visibility:visible;display:inline;overflow:visible;enable-background:accumulate"
         inkscape:connector-curvature="0" />
      <path
         sodipodi:nodetypes="cccc"
         id="path3710"
         d="m 327.94011,255.66313 c 7.21983,-2.04101 12.4502,0.99079 18.09753,2.96002 -5.86412,-1.81856 -11.92109,-2.68424 -18.37459,-1.5913 l 0.27706,-1.36872 z"
         style="fill:#000000;fill-rule:evenodd;stroke:#000000;stroke-width:0.49571681;stroke-linecap:butt;stroke-linejoin:miter;stroke-miterlimit:4;stroke-opacity:1;stroke-dasharray:none"
         inkscape:connector-curvature="0" />
      <path
         sodipodi:nodetypes="cccc"
         id="path3712"
         d="m 328.50032,260.58293 c 6.52683,-3.54877 12.35853,-1.72987 18.33557,-1.03556 -6.15138,-0.50108 -12.25743,-0.0326 -18.27077,2.42778 l -0.0648,-1.39222 z"
         style="fill:#000000;fill-rule:evenodd;stroke:#000000;stroke-width:0.49571681;stroke-linecap:butt;stroke-linejoin:miter;stroke-miterlimit:4;stroke-opacity:1;stroke-dasharray:none;display:inline"
         inkscape:connector-curvature="0" />
      <path
         sodipodi:nodetypes="cccccccccccccc"
         id="path3732"
         d="m 307.45877,346.99566 -5.27114,6.33106 -25.67836,-15.82617 c -11.21755,-2.17654 -22.58857,1.77642 -21.25115,7.08006 6.9359,-1.68723 16.3829,-3.69105 23.31919,-1.55958 -9.89339,-0.58349 -19.21317,4.43925 -19.33472,9.05623 1.94327,-1.46456 15.33176,-4.6852 24.35029,-4.16484 -9.09843,2.15927 -17.72451,4.56098 -21.251,9.57915 6.74751,-0.79177 11.32132,-4.3099 20.80799,-1.66608 -9.79265,-0.0965 -13.88804,6.50625 -19.92251,10.82861 7.27375,-2.52202 13.77432,-6.64396 23.46445,-4.16497 l 17.26655,7.91306 9.74004,-19.55216 -6.23963,-3.85437 z"
         style="color:#000000;fill:#e9ddaf;fill-opacity:1;fill-rule:evenodd;stroke:#000000;stroke-width:1.99240649;stroke-linecap:butt;stroke-linejoin:miter;stroke-miterlimit:4;stroke-opacity:1;stroke-dasharray:none;stroke-dashoffset:0;marker:none;visibility:visible;display:inline;overflow:visible;enable-background:accumulate"
         inkscape:connector-curvature="0" />
      <path
         sodipodi:nodetypes="cccccccccccc"
         id="path3734"
         d="m 312.15899,349.23331 -11.71095,10.84711 -17.57668,-14.33932 c -9.32512,-1.80927 -20.87279,-2.46388 -19.76098,1.945 35.73134,-4.51293 -12.95804,3.78455 23.55536,2.77005 -7.56382,1.79491 -18.92423,1.03288 -21.85601,5.20438 5.60938,-0.65817 13.60124,-0.8241 21.48776,1.374 -8.14096,-0.0804 -13.64032,4.22627 -18.65679,7.81961 6.04689,-2.09659 13.54539,-4.34094 21.60122,-2.28017 l 14.35418,6.57832 8.09716,-15.92645 0.46573,-3.99253 z"
         style="opacity:0.25;color:#000000;fill:#000000;fill-opacity:1;fill-rule:evenodd;stroke:#000000;stroke-width:1.65634048;stroke-linecap:butt;stroke-linejoin:miter;stroke-miterlimit:4;stroke-opacity:1;stroke-dasharray:none;stroke-dashoffset:0;marker:none;visibility:visible;display:inline;overflow:visible;enable-background:accumulate"
         inkscape:connector-curvature="0" />
      <path
         sodipodi:nodetypes="ccc"
         id="path3747"
         d="m 192.14099,173.74817 c 6.41224,2.7387 9.0863,6.06324 8.7977,9.85241 -1.03039,-3.28412 -4.42965,-6.56815 -8.7977,-9.85241 z"
         style="fill:#000000;fill-rule:evenodd;stroke:#000000;stroke-width:0.8261953px;stroke-linecap:butt;stroke-linejoin:miter;stroke-opacity:1"
         inkscape:connector-curvature="0" />
      <path
         sodipodi:nodetypes="ccc"
         id="path3753"
         d="m 195.99908,247.64786 c -1.03761,7.88034 1.87175,16.79378 -6.21592,23.18288 4.55747,-4.39056 5.56008,-12.51722 6.21592,-23.18288 z"
         style="fill:#000000;fill-rule:evenodd;stroke:#000000;stroke-width:0.8261953px;stroke-linecap:butt;stroke-linejoin:miter;stroke-opacity:1"
         inkscape:connector-curvature="0" />
      <path
         sodipodi:nodetypes="ccccccc"
         id="path3755"
         d="m 247.44024,214.34006 -10.89208,21.28126 7.95955,19.70481 -37.28527,89.06557 c 0.90822,-0.85587 26.25351,-59.11447 39.38009,-88.67138 l -8.3787,-20.09901 9.21641,-21.28125 z"
         style="fill:#000000;fill-rule:evenodd;stroke:#000000;stroke-width:0.8261953px;stroke-linecap:butt;stroke-linejoin:miter;stroke-opacity:1"
         inkscape:connector-curvature="0" />
      <path
         id="path3759"
         d="m 245.90877,213.95073 -1.77755,4.1801 3.25873,1.67185 1.33302,-4.73739 -2.8142,-1.11456 z"
         style="fill:#808080;fill-rule:evenodd;stroke:#000000;stroke-width:0.8261953px;stroke-linecap:butt;stroke-linejoin:miter;stroke-opacity:1"
         inkscape:connector-curvature="0" />
      <path
         id="path3757"
         d="m 245.46437,216.31943 -8.14636,6.13074 6.22078,3.76206 3.55478,-7.66341 -1.6292,-2.22939 z"
         style="fill:#808080;fill-rule:evenodd;stroke:#000000;stroke-width:0.8261953px;stroke-linecap:butt;stroke-linejoin:miter;stroke-opacity:1"
         inkscape:connector-curvature="0" />
      <path
         id="path3761"
         d="m 240.87279,220.91737 -1.48118,1.39322 3.70278,2.36869 0.59278,-2.36869 -2.81438,-1.39322 z"
         style="fill:#ffff00;fill-rule:evenodd;stroke:#000000;stroke-width:0.8261953px;stroke-linecap:butt;stroke-linejoin:miter;stroke-opacity:1"
         inkscape:connector-curvature="0" />
      <path
         sodipodi:nodetypes="ccc"
         id="path3769"
         d="m 289.54328,211.5814 c -0.50072,-6.83854 2.18503,-11.67868 6.70303,-15.36973 -4.15816,4.51993 -5.87963,9.80415 -6.70303,15.36973 z"
         style="fill:none;stroke:#000000;stroke-width:0.8261953px;stroke-linecap:butt;stroke-linejoin:miter;stroke-opacity:1"
         inkscape:connector-curvature="0" />
      <path
         sodipodi:nodetypes="cccc"
         id="path3771"
         d="m 196.8705,251.13257 c 4.84814,5.43093 3.95617,11.14902 4.26663,16.80703 -0.54311,-5.78579 -2.0933,-11.36148 -5.71272,-16.50524 l 1.44609,-0.30179 z"
         style="fill:#000000;fill-rule:evenodd;stroke:#000000;stroke-width:0.49571681;stroke-linecap:butt;stroke-linejoin:miter;stroke-miterlimit:4;stroke-opacity:1;stroke-dasharray:none;display:inline"
         inkscape:connector-curvature="0" />
      <path
         sodipodi:nodetypes="ccccc"
         id="path4160"
         d="m 212.28646,501.23299 c 21.25393,-50.8179 70.10342,-93.43713 57.6038,-149.61573 -25.68396,-2.87708 -51.36792,0.9677 -77.05187,-9.41706 -19.54402,46.41227 -27.55505,100.42026 -7.08394,154.79054 l 26.53201,4.24225 z"
         style="opacity:0.16000001;color:#000000;fill:#000000;fill-opacity:1;fill-rule:evenodd;stroke:#000000;stroke-width:1.98286724;stroke-linecap:butt;stroke-linejoin:miter;stroke-miterlimit:4;stroke-opacity:1;stroke-dasharray:none;stroke-dashoffset:0;marker:none;visibility:visible;display:inline;overflow:visible;enable-background:accumulate"
         inkscape:connector-curvature="0" />
      <path
         id="path4188"
         d="m 240.87279,220.91737 -1.48118,1.39322 3.70278,2.36869 0.59278,-2.36869 -2.81438,-1.39322 z"
         style="opacity:0.225;color:#000000;fill:#000000;fill-opacity:1;fill-rule:evenodd;stroke:none;stroke-width:1.98286724;marker:none;visibility:visible;display:inline;overflow:visible;enable-background:accumulate"
         inkscape:connector-curvature="0" />
      <path
         sodipodi:nodetypes="ccccc"
         id="path4190"
         d="m 247.17357,215.22425 -0.46368,1.39102 1.15919,0.11592 0.23184,-1.15919 -0.92735,-0.34775 z"
         style="opacity:0.55;fill:#ffffff;fill-rule:evenodd;stroke:none"
         inkscape:connector-curvature="0" />
      <path
         id="path4221"
         d="m 245.98361,217.95082 -5.65574,5.81967 3.19672,1.88525 3.03279,-6.88525 -0.57377,-0.81967 z"
         style="opacity:0.4;fill:#ffffff;fill-rule:evenodd;stroke:none"
         inkscape:connector-curvature="0" />
      <path
         id="path2249"
         d="m 269.7541,148.60656 1.22951,2.37705 1.72131,-2.13115 -0.40984,-1.72131 -2.54098,1.47541 z"
         style="opacity:0.51499999;fill:#ffffff;fill-rule:evenodd;stroke:none"
         inkscape:connector-curvature="0" />
    </g>
  </g>
</svg>
