<?xml version="1.0" encoding="UTF-8" standalone="no"?>
<!-- Created with Inkscape (http://www.inkscape.org/) -->

<svg
   xmlns:dc="http://purl.org/dc/elements/1.1/"
   xmlns:cc="http://creativecommons.org/ns#"
   xmlns:rdf="http://www.w3.org/1999/02/22-rdf-syntax-ns#"
   xmlns:svg="http://www.w3.org/2000/svg"
   xmlns="http://www.w3.org/2000/svg"
   xmlns:sodipodi="http://sodipodi.sourceforge.net/DTD/sodipodi-0.dtd"
   xmlns:inkscape="http://www.inkscape.org/namespaces/inkscape"
   width="480"
   height="640"
   id="svg2160"
   sodipodi:version="0.32"
   inkscape:version="0.48.3.1 r9886"
   sodipodi:docname="nina.svg"
   inkscape:output_extension="org.inkscape.output.svg.inkscape"
   version="1.0"
   sodipodi:modified="true">
  <defs
     id="defs2162">
    <inkscape:perspective
       sodipodi:type="inkscape:persp3d"
       inkscape:vp_x="0 : 320 : 1"
       inkscape:vp_y="0 : 1000 : 0"
       inkscape:vp_z="480 : 320 : 1"
       inkscape:persp3d-origin="240 : 213.33333 : 1"
       id="perspective107" />
  </defs>
  <sodipodi:namedview
     id="base"
     pagecolor="#ffffff"
     bordercolor="#666666"
     borderopacity="1.0"
     inkscape:pageopacity="0.0"
     inkscape:pageshadow="2"
     inkscape:zoom="0.54800776"
     inkscape:cx="372.40307"
     inkscape:cy="269.6489"
     inkscape:current-layer="g3012"
     inkscape:document-units="px"
     inkscape:window-width="1022"
     inkscape:window-height="663"
     inkscape:window-x="0"
     inkscape:window-y="48"
     width="480px"
     height="640px"
     showguides="true"
     inkscape:guide-bbox="true"
     showgrid="false"
     inkscape:window-maximized="0" />
  <metadata
     id="metadata2165">
    <rdf:RDF>
      <cc:Work
         rdf:about="">
        <dc:format>image/svg+xml</dc:format>
        <dc:type
           rdf:resource="http://purl.org/dc/dcmitype/StillImage" />
        <dc:title></dc:title>
      </cc:Work>
    </rdf:RDF>
  </metadata>
  <g
     id="layer1"
     inkscape:label="Layer 1"
     inkscape:groupmode="layer">
    <g
       id="g3012"
       transform="matrix(1.0089839,0,0,1.0444288,-10.423961,-24.914098)">
      <path
         sodipodi:nodetypes="ccc"
         id="path3803"
         d="m 152.76825,599.95974 c 0.76957,29.04983 74.15102,7.54469 61.36687,-18.82824 -17.7475,28.16597 -51.29077,27.72809 -61.36687,18.82824 z"
         style="fill:#4d4d4d;fill-rule:evenodd;stroke:#000000;stroke-width:2.66893077;stroke-linecap:butt;stroke-linejoin:miter;stroke-miterlimit:4;stroke-opacity:1;stroke-dasharray:none" />
      <path
         sodipodi:nodetypes="cccc"
         id="path3785"
         d="m 279.59226,570.86325 c 2.29734,-2.81969 1.62163,-5.3375 -1.48358,-7.60865 12.75984,-33.65458 -55.44144,-28.73523 -39.80276,1.74587 -1.03088,2.69422 -3.53015,5.53752 0.53267,7.71455"
         style="fill:#ffffff;fill-rule:evenodd;stroke:#000000;stroke-width:2.66893077;stroke-linecap:butt;stroke-linejoin:miter;stroke-miterlimit:4;stroke-opacity:1;stroke-dasharray:none" />
      <path
         sodipodi:nodetypes="cccc"
         id="path3763"
         d="m 168.79787,572.94218 c -2.29734,-2.81968 -1.62163,-5.3375 1.48358,-7.60864 -12.75985,-33.65459 55.44143,-28.73524 39.80274,1.74586 1.03088,2.69422 3.53015,5.53752 -0.53265,7.71456"
         style="fill:#ffffff;fill-rule:evenodd;stroke:#000000;stroke-width:2.66893077;stroke-linecap:butt;stroke-linejoin:miter;stroke-miterlimit:4;stroke-opacity:1;stroke-dasharray:none" />
      <path
         sodipodi:nodetypes="ccccc"
         id="path3761"
         d="m 261.7242,492.88446 10.17281,58.18545 c -11.24974,6.4143 -22.73571,3.66421 -28.95337,-0.20575 l -6.2602,-65.00285 25.04076,7.02315 z"
         style="color:#000000;fill:#e9ddaf;fill-opacity:1;fill-rule:evenodd;stroke:#000000;stroke-width:2.66893077;stroke-linecap:butt;stroke-linejoin:miter;stroke-miterlimit:4;stroke-opacity:1;stroke-dasharray:none;stroke-dashoffset:0;marker:none;visibility:visible;display:inline;overflow:visible;enable-background:accumulate" />
      <path
         sodipodi:nodetypes="ccccc"
         id="path3759"
         d="m 186.72913,492.25259 -10.17281,60.65446 c 9.65111,3.71417 19.30225,5.52084 28.95337,0 l 6.2602,-67.67762 -25.04076,7.02316 z"
         style="color:#000000;fill:#e9ddaf;fill-opacity:1;fill-rule:evenodd;stroke:#000000;stroke-width:2.66893077;stroke-linecap:butt;stroke-linejoin:miter;stroke-miterlimit:4;stroke-opacity:1;stroke-dasharray:none;stroke-dashoffset:0;marker:none;visibility:visible;display:inline;overflow:visible;enable-background:accumulate" />
      <path
         sodipodi:nodetypes="ccccccc"
         id="path3779"
         d="m 183.65517,514.70359 c 4.35177,2.26169 8.70354,2.34946 13.05531,3.20075 1.86149,11.83304 -2.47484,24.83001 -6.36845,36.66305 6.12745,1.76414 10.83574,-0.36224 15.28426,-3.20074 l 4.13949,-40.44576 -25.79218,-1.74586 -0.31843,5.52856 z"
         style="opacity:0.14141415;fill:#000000;fill-rule:evenodd;stroke:#000000;stroke-width:1.33446538px;stroke-linecap:butt;stroke-linejoin:miter;stroke-opacity:1" />
      <path
         sodipodi:nodetypes="ccccccccc"
         id="path3839"
         d="m 241.28957,517.61336 5.09474,-2.32781 9.87109,2.90977 c 3.35078,9.62139 9.91289,23.67649 2.22896,34.62622 l 12.41845,-3.20074 -6.68686,-36.37209 -17.51321,-1.45488 -6.68686,2.32781 1.27369,3.49172 z"
         style="opacity:0.22222224;fill:#000000;fill-rule:evenodd;stroke:#000000;stroke-width:1.33446538px;stroke-linecap:butt;stroke-linejoin:miter;stroke-opacity:1" />
      <path
         sodipodi:nodetypes="ccccccccc"
         id="path3747"
         d="m 174.28312,431.73072 c -9.14279,21.88288 -11.70135,43.76575 -27.98659,65.64861 6.3366,15.24479 18.18337,10.01063 30.49869,11.85815 11.31373,3.84238 24.87902,11.17245 36.19274,2.55253 21.3621,11.25834 23.96724,1.50112 33.94118,0 13.63374,5.43501 23.67922,3.63339 30.96387,-3.7361 16.31568,2.745 25.15868,-0.26621 30.36844,-11.74203 -14.44513,-23.58286 -16.41602,-44.92947 -23.81839,-67.24979 l -110.15994,2.66863 z"
         style="color:#000000;fill:#ffd5d5;fill-opacity:1;fill-rule:evenodd;stroke:#000000;stroke-width:2.66893077;stroke-linecap:butt;stroke-linejoin:miter;stroke-miterlimit:4;stroke-opacity:1;stroke-dasharray:none;stroke-dashoffset:0;marker:none;visibility:visible;display:inline;overflow:visible;enable-background:accumulate" />
      <path
         sodipodi:nodetypes="ccc"
         id="path3638"
         d="m 336.99117,143.36002 c 24.51359,-84.119364 76.84526,-71.323554 139.59817,-22.22117 -46.40773,-2.22242 -74.25896,76.682 -139.59817,22.22117 z"
         style="color:#000000;fill:#552200;fill-opacity:1;fill-rule:evenodd;stroke:#000000;stroke-width:2.66893077;stroke-linecap:butt;stroke-linejoin:miter;stroke-miterlimit:4;stroke-opacity:1;stroke-dasharray:none;stroke-dashoffset:0;marker:none;visibility:visible;display:inline;overflow:visible;enable-background:accumulate" />
      <path
         sodipodi:nodetypes="cccc"
         id="path3652"
         d="m 150.08341,132.78204 -21.21092,21.26173 c 9.88297,9.9526 21.53866,10.66875 33.73688,8.55814 l -4.60404,-27.89954"
         style="color:#000000;fill:#800000;fill-opacity:1;fill-rule:evenodd;stroke:#000000;stroke-width:2.66893077px;stroke-linecap:butt;stroke-linejoin:miter;stroke-miterlimit:4;stroke-opacity:1;stroke-dasharray:none;stroke-dashoffset:0;marker:none;visibility:visible;display:inline;overflow:visible;enable-background:accumulate" />
      <path
         id="path3654"
         d="m 152.86908,134.53918 -6.37857,10.17887 6.37857,-10.17887 z"
         style="fill:none;stroke:#000000;stroke-width:1.33446538px;stroke-linecap:butt;stroke-linejoin:miter;stroke-opacity:1" />
      <path
         id="path3656"
         d="m 154.61338,136.68714 -1.07133,15.70513 1.07133,-15.70513 z"
         style="fill:none;stroke:#000000;stroke-width:1.33446538px;stroke-linecap:butt;stroke-linejoin:miter;stroke-opacity:1" />
      <path
         id="path3658"
         d="m 151.1285,133.59094 7.03302,1.6756 -7.03302,-1.6756 z"
         style="fill:none;stroke:#000000;stroke-width:1.33446538px;stroke-linecap:butt;stroke-linejoin:miter;stroke-opacity:1" />
      <path
         sodipodi:nodetypes="cccc"
         id="path3335"
         d="m 189.81655,337.6326 c -76.77526,36.92826 -70.41237,66.35309 -1.35097,90.1192 l 35.12468,-4.32082 C 192.42531,409.69253 148.01783,416.17339 201.9751,333.3118"
         style="fill:#800000;fill-rule:evenodd;stroke:#000000;stroke-width:2.66893077px;stroke-linecap:butt;stroke-linejoin:miter;stroke-opacity:1" />
      <path
         sodipodi:nodetypes="cccc"
         id="path3329"
         d="m 277.30514,339.20973 c 76.77526,36.92826 70.41237,66.35308 1.35096,90.11919 l -35.12468,-4.32082 c 31.16495,-13.73844 75.57243,-7.25759 21.61516,-90.11918"
         style="fill:#800000;fill-rule:evenodd;stroke:#000000;stroke-width:2.66893077px;stroke-linecap:butt;stroke-linejoin:miter;stroke-opacity:1" />
      <path
         sodipodi:nodetypes="ccccc"
         id="path3327"
         d="m 186.07214,339.05991 c 22.64315,-14.32764 61.96953,-18.64274 93.9675,1.16734 6.12613,34.62625 18.98228,69.25246 17.19481,103.87865 -25.2821,9.12672 -94.55157,20.74642 -135.64778,-3.92816 0.75511,-33.76166 15.5384,-68.42557 24.48547,-101.11783 z"
         style="fill:#800000;fill-rule:evenodd;stroke:#000000;stroke-width:2.66893077px;stroke-linecap:butt;stroke-linejoin:miter;stroke-opacity:1" />
      <path
         sodipodi:nodetypes="csccc"
         id="path3323"
         d="m 253.79385,346.26904 c 0.47865,-8.47342 6.21465,-14.73923 10.61029,-20.90599 3.71308,-5.20915 6.46979,-10.34757 4.29359,-16.68625 -22.58166,-13.87598 -45.16333,-11.57881 -67.74499,-2.40976 -4.75182,11.18208 12.17506,22.49109 10.16177,37.59223"
         style="fill:#800000;fill-rule:evenodd;stroke:#000000;stroke-width:2.36178732px;stroke-linecap:butt;stroke-linejoin:miter;stroke-opacity:1" />
      <path
         sodipodi:nodetypes="ccccccc"
         id="path3835"
         d="m 205.86469,305.77462 3.61308,4.81952 c 8.45944,10.92424 12.16215,22.49108 8.12936,33.73663 11.21087,7.04249 22.76923,3.9998 34.32414,1.60651 l 10.83919,-19.59937 c 5.98237,-5.29637 5.20117,-11.5551 5.4196,-17.67159 -21.3783,-10.83334 -42.15143,-11.76482 -62.32537,-2.8917 z"
         style="opacity:0.13131313;fill:#000000;fill-rule:evenodd;stroke:#000000;stroke-width:1.18089366px;stroke-linecap:butt;stroke-linejoin:miter;stroke-opacity:1" />
      <path
         sodipodi:nodetypes="ccscccc"
         id="path2229"
         d="m 158.38479,181.47014 c -44.57961,16.1975 -51.79154,97.13418 65.82389,120.32047 2.86568,10.39127 -0.38947,16.98495 1.74738,22.25149 1.02599,2.52872 16.57321,1.4518 19.06766,-0.71198 0.14541,-5.11967 -2.64566,-6.85227 0.80783,-19.89294 82.7657,-11.63815 136.76456,-62.85083 82.88765,-108.67534 C 318.93828,31.86561 199.90012,31.242731 158.38479,181.47014 z"
         style="fill:#e9ddaf;fill-rule:evenodd;stroke:#000000;stroke-width:3;stroke-linecap:butt;stroke-linejoin:miter;stroke-miterlimit:4;stroke-opacity:1;stroke-dasharray:none" />
      <path
         sodipodi:nodetypes="ccccccccc"
         id="path3570"
         d="m 243.7756,322.38692 -17.56236,0 0,-20.98666 c -31.02913,-4.13942 -32.47622,-5.03611 -45.93229,-17.28312 213.04176,45.36356 133.84368,-134.62389 77.67963,-222.828961 33.05574,4.788545 84.7458,29.639609 74.97773,102.464281 l -6.07928,28.39372 c 41.19962,35.91369 29.70042,93.47596 -82.40795,109.87133 l -0.67548,20.36941 z"
         style="opacity:0.10606061;fill:#000000;fill-rule:evenodd;stroke:#000000;stroke-width:1.33446538px;stroke-linecap:butt;stroke-linejoin:miter;stroke-opacity:1" />
      <path
         sodipodi:nodetypes="ccc"
         id="path3563"
         d="m 263.42926,207.96716 c 8.79475,-1.64263 17.60385,-3.42903 25.7303,1.64588 -8.57676,-6.70842 -17.15355,-4.10245 -25.7303,-1.64588 z"
         style="fill:none;stroke:#000000;stroke-width:1.01665413px;stroke-linecap:butt;stroke-linejoin:miter;stroke-opacity:1" />
      <path
         sodipodi:nodetypes="cccccccsssc"
         id="path3557"
         d="m 155.96384,148.93836 82.40796,-1.23451 14.18497,-31.48 -6.07927,32.71449 14.18497,-38.88704 -2.70189,38.26979 77.67963,12.96236 C 335.84514,99.248074 299.92785,48.9725 262.43473,61.296598 c -1.72322,0.566418 -9.37772,1.399462 -12.28984,-1.180125 -24.98254,-22.129852 -63.22579,15.677883 -82.40162,53.322967 -5.27242,10.35053 -9.3246,22.18552 -11.77943,35.49892 z"
         style="fill:#552200;fill-rule:evenodd;stroke:#000000;stroke-width:2.66893077;stroke-linecap:butt;stroke-linejoin:miter;stroke-miterlimit:4;stroke-opacity:1;stroke-dasharray:none" />
      <path
         sodipodi:nodetypes="ccscccc"
         id="path3576"
         d="m 166.52107,187.74208 c -42.70389,15.49831 -48.26142,92.94127 64.40522,115.12668 2.7451,9.94272 0.64012,16.25177 0.32291,21.29097 -0.1622,2.5766 9.7966,1.38913 12.18608,-0.68124 0.13928,-4.89867 -2.53434,-9.23125 0.77384,-21.709 79.28324,-11.13577 135.0629,-61.16657 83.45291,-105.01299 C 311.15823,33.279079 206.28958,43.99943 166.52107,187.74208 z"
         style="opacity:0.11616163;fill:#ffffff;fill-rule:evenodd;stroke:none" />
      <path
         sodipodi:nodetypes="ccc"
         id="path3636"
         d="M 155.51353,126.51142 C 130.99992,42.39206 78.668255,55.187871 15.915335,104.29026 c 46.407729,-2.22243 74.258964,76.682 139.598195,22.22116 z"
         style="color:#000000;fill:#552200;fill-opacity:1;fill-rule:evenodd;stroke:#000000;stroke-width:2.66893077;stroke-linecap:butt;stroke-linejoin:miter;stroke-miterlimit:4;stroke-opacity:1;stroke-dasharray:none;stroke-dashoffset:0;marker:none;visibility:visible;display:inline;overflow:visible;enable-background:accumulate" />
      <path
         id="path3640"
         d="m 154.38773,118.69287 -5.62896,16.66587 9.45665,2.67477 5.4038,-16.87161 -9.23149,-2.46903 z"
         style="color:#000000;fill:#800000;fill-opacity:1;fill-rule:evenodd;stroke:#000000;stroke-width:2.66893077px;stroke-linecap:butt;stroke-linejoin:miter;stroke-miterlimit:4;stroke-opacity:1;stroke-dasharray:none;stroke-dashoffset:0;marker:none;visibility:visible;display:inline;overflow:visible;enable-background:accumulate" />
      <path
         sodipodi:nodetypes="cc"
         id="path2231"
         d="m 159.82611,175.99465 c -58.38191,-36.02816 7.13062,-63.12679 12.74135,-24.45073"
         style="fill:#e9ddaf;fill-rule:evenodd;stroke:#000000;stroke-width:2.66893077px;stroke-linecap:butt;stroke-linejoin:miter;stroke-opacity:1" />
      <path
         sodipodi:nodetypes="ccc"
         id="path3565"
         d="m 215.78445,204.41562 c -8.79476,-1.64263 -17.60385,-3.42903 -25.73031,1.64588 8.57676,-6.70842 17.15356,-4.10245 25.73031,-1.64588 z"
         style="fill:none;stroke:#000000;stroke-width:1.01665413px;stroke-linecap:butt;stroke-linejoin:miter;stroke-opacity:1" />
      <path
         transform="matrix(3.6807501,-0.1689,0.1521694,2.3775384,-1626.2214,-176.75026)"
         d="m 499.71386,180.28577 c 0,8.00228 -3.2691,14.48942 -7.30175,14.48942 -4.03265,0 -7.30176,-6.48714 -7.30176,-14.48942 0,-8.00229 3.26911,-14.48942 7.30176,-14.48942 4.03265,0 7.30175,6.48713 7.30175,14.48942 z"
         sodipodi:ry="14.489421"
         sodipodi:rx="7.301755"
         sodipodi:cy="180.28577"
         sodipodi:cx="492.41211"
         id="path2235"
         style="color:#000000;fill:#ffffff;fill-opacity:1;fill-rule:evenodd;stroke:#000000;stroke-width:1px;stroke-linecap:butt;stroke-linejoin:miter;stroke-miterlimit:4;stroke-opacity:1;stroke-dasharray:none;stroke-dashoffset:0;marker:none;visibility:visible;display:inline;overflow:visible;enable-background:accumulate"
         sodipodi:type="arc" />
      <path
         transform="matrix(-3.5686908,-0.1452572,-0.1475366,2.0447284,2051.6746,-119.65893)"
         d="m 499.71386,180.28577 c 0,8.00228 -3.2691,14.48942 -7.30175,14.48942 -4.03265,0 -7.30176,-6.48714 -7.30176,-14.48942 0,-8.00229 3.26911,-14.48942 7.30176,-14.48942 4.03265,0 7.30175,6.48713 7.30175,14.48942 z"
         sodipodi:ry="14.489421"
         sodipodi:rx="7.301755"
         sodipodi:cy="180.28577"
         sodipodi:cx="492.41211"
         id="path3209"
         style="color:#000000;fill:#ffffff;fill-opacity:1;fill-rule:evenodd;stroke:#000000;stroke-width:1px;stroke-linecap:butt;stroke-linejoin:miter;stroke-miterlimit:4;stroke-opacity:1;stroke-dasharray:none;stroke-dashoffset:0;marker:none;visibility:visible;display:inline;overflow:visible;enable-background:accumulate"
         sodipodi:type="arc" />
      <path
         sodipodi:nodetypes="ccc"
         id="path3211"
         d="m 215.88825,204.52044 c 15.74968,-14.58514 29.11403,-5.49132 43.32072,2.91079 -20.4928,8.70884 -36.38588,10.0619 -43.32072,-2.91079 z"
         style="fill:#e9ddaf;fill-rule:evenodd;stroke:#000000;stroke-width:2.66893077px;stroke-linecap:butt;stroke-linejoin:miter;stroke-opacity:1" />
      <path
         sodipodi:nodetypes="ccccccc"
         id="path3213"
         d="m 196.77614,237.70357 c 7.8572,-6.88837 15.7144,-2.4726 23.5716,1.16431 7.8572,-1.84797 15.7144,-4.47971 23.5716,1.16432 8.20552,-1.66142 16.38921,-3.24298 22.93446,1.16432 -5.26653,-4.92874 -14.42752,-2.73996 -22.93446,-1.74648 -8.06957,-6.41662 -16.13912,-2.52101 -24.20868,0 -7.64484,-3.17241 -15.28969,-6.16725 -22.93452,-1.74647 z"
         style="fill:none;stroke:#000000;stroke-width:1.60135853;stroke-linecap:butt;stroke-linejoin:miter;stroke-miterlimit:4;stroke-opacity:1;stroke-dasharray:none" />
      <path
         transform="matrix(2.7665043,-0.3437605,0.3761844,2.5280545,-1215.0039,-100.73182)"
         d="m 497.2039,175.72217 c 0,3.08749 -1.78779,5.5904 -3.99315,5.5904 -2.20535,0 -3.99314,-2.50291 -3.99314,-5.5904 0,-3.0875 1.78779,-5.59041 3.99314,-5.59041 2.20536,0 3.99315,2.50291 3.99315,5.59041 z"
         sodipodi:ry="5.5904064"
         sodipodi:rx="3.9931474"
         sodipodi:cy="175.72217"
         sodipodi:cx="493.21075"
         id="path3219"
         style="color:#000000;fill:#000000;fill-opacity:1;fill-rule:evenodd;stroke:#000000;stroke-width:1px;stroke-linecap:butt;stroke-linejoin:miter;stroke-miterlimit:4;stroke-opacity:1;stroke-dasharray:none;stroke-dashoffset:0;marker:none;visibility:visible;display:inline;overflow:visible;enable-background:accumulate"
         sodipodi:type="arc" />
      <path
         transform="matrix(2.7540326,0.4191228,-0.4586551,2.5166578,-1059.6641,-487.35627)"
         d="m 514.54555,179.60123 c 0,2.70943 -1.17484,4.90586 -2.62407,4.90586 -1.44923,0 -2.62407,-2.19643 -2.62407,-4.90586 0,-2.70944 1.17484,-4.90587 2.62407,-4.90587 1.44923,0 2.62407,2.19643 2.62407,4.90587 z"
         sodipodi:ry="4.9058666"
         sodipodi:rx="2.6240683"
         sodipodi:cy="179.60123"
         sodipodi:cx="511.92148"
         id="path3221"
         style="color:#000000;fill:#000000;fill-opacity:1;fill-rule:evenodd;stroke:#000000;stroke-width:1px;stroke-linecap:butt;stroke-linejoin:miter;stroke-miterlimit:4;stroke-opacity:1;stroke-dasharray:none;stroke-dashoffset:0;marker:none;visibility:visible;display:inline;overflow:visible;enable-background:accumulate"
         sodipodi:type="arc" />
      <path
         transform="matrix(3.5896679,0,0,3.4017594,-1343.0217,-351.13454)"
         d="m 437.64896,153.58873 c 0,1.32321 -0.71512,2.39589 -1.59726,2.39589 -0.88214,0 -1.59726,-1.07268 -1.59726,-2.39589 0,-1.32321 0.71512,-2.39589 1.59726,-2.39589 0.88214,0 1.59726,1.07268 1.59726,2.39589 z"
         sodipodi:ry="2.3958883"
         sodipodi:rx="1.5972589"
         sodipodi:cy="153.58873"
         sodipodi:cx="436.0517"
         id="path3223"
         style="color:#000000;fill:#ffffff;fill-opacity:1;fill-rule:evenodd;stroke:none;stroke-width:1px;marker:none;visibility:visible;display:inline;overflow:visible;enable-background:accumulate"
         sodipodi:type="arc" />
      <path
         transform="matrix(3.5896679,0,0,3.0372851,-1293.3302,-289.04272)"
         d="m 437.64896,153.58873 c 0,1.32321 -0.71512,2.39589 -1.59726,2.39589 -0.88214,0 -1.59726,-1.07268 -1.59726,-2.39589 0,-1.32321 0.71512,-2.39589 1.59726,-2.39589 0.88214,0 1.59726,1.07268 1.59726,2.39589 z"
         sodipodi:ry="2.3958883"
         sodipodi:rx="1.5972589"
         sodipodi:cy="153.58873"
         sodipodi:cx="436.0517"
         id="path3225"
         style="color:#000000;fill:#ffffff;fill-opacity:1;fill-rule:evenodd;stroke:none;stroke-width:1px;marker:none;visibility:visible;display:inline;overflow:visible;enable-background:accumulate"
         sodipodi:type="arc" />
      <path
         sodipodi:nodetypes="cccc"
         id="path3229"
         d="m 164.46569,157.77521 c -2.64958,-4.0245 -6.32073,-6.38003 -11.50255,-2.08514 7.31421,-6.06224 9.03389,-0.88816 12.13319,1.51482 l -0.63064,0.57032 z"
         style="fill:none;stroke:#000000;stroke-width:0.88994777;stroke-linecap:butt;stroke-linejoin:miter;stroke-miterlimit:4;stroke-opacity:1;stroke-dasharray:none" />
      <path
         sodipodi:nodetypes="ccc"
         id="path3232"
         d="m 164.84299,165.44299 c 2.76243,-18.6755 -8.08328,-22.39812 -13.21916,-22.5587 7.19126,1.68999 14.9226,8.29448 13.21916,22.5587 z"
         style="fill:#000000;fill-rule:evenodd;stroke:#000000;stroke-width:0.80067927;stroke-linecap:butt;stroke-linejoin:miter;stroke-miterlimit:4;stroke-opacity:1;stroke-dasharray:none" />
      <path
         sodipodi:nodetypes="cccc"
         id="path3574"
         d="m 260.32473,60.362304 c 54.62479,74.512006 32.98966,86.305746 -1.35095,87.650156 l 76.66643,12.96234 C 331.74361,109.97481 314.65062,56.095057 260.32473,60.362304 z"
         style="opacity:0.17676769;fill:#000000;fill-rule:evenodd;stroke:#000000;stroke-width:1.33446538px;stroke-linecap:butt;stroke-linejoin:miter;stroke-opacity:1" />
      <g
         transform="matrix(1.3153212,-0.4273414,0.4676489,1.2019514,-279.45401,108.95495)"
         id="g3728">
        <path
           style="color:#000000;fill:#800000;fill-opacity:1;fill-rule:evenodd;stroke:#000000;stroke-width:2px;stroke-linecap:butt;stroke-linejoin:miter;stroke-miterlimit:4;stroke-opacity:1;stroke-dasharray:none;stroke-dashoffset:0;marker:none;visibility:visible;display:inline;overflow:visible;enable-background:accumulate"
           d="m 405.49094,173.56745 -15.19427,16.66724 c 7.07958,7.80192 15.42904,8.36332 24.16713,6.7088 l -3.29807,-21.87068"
           id="path3704"
           sodipodi:nodetypes="cccc" />
        <path
           style="fill:none;stroke:#000000;stroke-width:1px;stroke-linecap:butt;stroke-linejoin:miter;stroke-opacity:1"
           d="m 407.48643,174.94488 -4.56924,7.97931 4.56924,-7.97931 z"
           id="path3706" />
        <path
           style="fill:none;stroke:#000000;stroke-width:1px;stroke-linecap:butt;stroke-linejoin:miter;stroke-opacity:1"
           d="m 408.73594,176.62869 -0.76744,12.31138 0.76744,-12.31138 z"
           id="path3708" />
        <path
           style="fill:none;stroke:#000000;stroke-width:1px;stroke-linecap:butt;stroke-linejoin:miter;stroke-opacity:1"
           d="m 406.23958,174.20155 5.03804,1.31352 -5.03804,-1.31352 z"
           id="path3710" />
        <path
           style="color:#000000;fill:#800000;fill-opacity:1;fill-rule:evenodd;stroke:#000000;stroke-width:2px;stroke-linecap:butt;stroke-linejoin:miter;stroke-miterlimit:4;stroke-opacity:1;stroke-dasharray:none;stroke-dashoffset:0;marker:none;visibility:visible;display:inline;overflow:visible;enable-background:accumulate"
           d="m 408.5743,162.52283 -4.03226,13.06452 6.77419,2.09677 3.87097,-13.2258 -6.6129,-1.93549 z"
           id="path3712" />
        <path
           style="color:#000000;fill:#800000;fill-opacity:1;fill-rule:evenodd;stroke:#000000;stroke-width:2px;stroke-linecap:butt;stroke-linejoin:miter;stroke-miterlimit:4;stroke-opacity:1;stroke-dasharray:none;stroke-dashoffset:0;marker:none;visibility:visible;display:inline;overflow:visible;enable-background:accumulate"
           d="m 408.09043,166.71638 -4.51613,-22.09677 c 10.07611,-3.07612 17.53528,0.71721 24.19355,6.6129 l -14.03226,17.09677"
           id="path3720"
           sodipodi:nodetypes="cccc" />
        <path
           style="fill:none;stroke:#000000;stroke-width:1px;stroke-linecap:butt;stroke-linejoin:miter;stroke-opacity:1"
           d="m 410.50978,166.55509 0.16129,-9.19355 -0.16129,9.19355 z"
           id="path3722" />
        <path
           style="fill:none;stroke:#000000;stroke-width:1px;stroke-linecap:butt;stroke-linejoin:miter;stroke-opacity:1"
           d="m 412.44527,165.74864 5.64516,-10.96774 -5.64516,10.96774 z"
           id="path3724" />
        <path
           style="fill:none;stroke:#000000;stroke-width:1px;stroke-linecap:butt;stroke-linejoin:miter;stroke-opacity:1"
           d="m 409.05817,166.55509 5,1.45161 -5,-1.45161 z"
           id="path3726" />
      </g>
      <path
         sodipodi:nodetypes="cc"
         id="path3236"
         d="m 328.5107,191.22699 c 65.89565,-22.76542 8.97923,-62.92951 -6.23301,-26.47561"
         style="fill:#e9ddaf;fill-rule:evenodd;stroke:#000000;stroke-width:2.66893077px;stroke-linecap:butt;stroke-linejoin:miter;stroke-opacity:1" />
      <path
         sodipodi:nodetypes="cccc"
         id="path3238"
         d="m 328.59016,172.52097 c 3.59308,-3.3583 7.75942,-4.87745 11.71881,0.39296 -5.58873,-7.43924 -8.5668,-2.76651 -12.1887,-1.0808 l 0.46989,0.68784 z"
         style="fill:none;stroke:#000000;stroke-width:0.88994777;stroke-linecap:butt;stroke-linejoin:miter;stroke-miterlimit:4;stroke-opacity:1;stroke-dasharray:none" />
      <path
         sodipodi:nodetypes="ccc"
         id="path3240"
         d="m 326.28953,179.90291 c 2.0211,-18.7546 13.51365,-20.09333 18.55181,-19.16817 -7.42389,0.13032 -16.61257,4.92915 -18.55181,19.16817 z"
         style="fill:#000000;fill-rule:evenodd;stroke:#000000;stroke-width:0.80067927;stroke-linecap:butt;stroke-linejoin:miter;stroke-miterlimit:4;stroke-opacity:1;stroke-dasharray:none" />
      <path
         sodipodi:nodetypes="ccc"
         id="path3325"
         d="m 260.69552,317.53664 c -17.1521,11.46829 -32.7556,11.14115 -46.09158,1.09115 10.64112,8.81297 27.20919,6.3312 46.09158,-1.09115 z"
         style="fill:#000000;fill-rule:evenodd;stroke:#000000;stroke-width:1.60135853;stroke-linecap:butt;stroke-linejoin:miter;stroke-miterlimit:4;stroke-opacity:1;stroke-dasharray:none" />
      <path
         sodipodi:nodetypes="cccc"
         id="path3331"
         d="m 274.09667,339.20973 c 4.03947,0.80132 8.68518,3.53746 12.66512,7.71565 l 3.71511,31.01706 c -4.16931,-2.07321 -11.80794,-29.66272 -16.38023,-38.73271 z"
         style="fill:#800000;fill-rule:evenodd;stroke:none" />
      <path
         sodipodi:nodetypes="cccc"
         id="path3337"
         d="m 191.27177,338.91618 c -4.07497,0.63384 -8.85113,3.17548 -13.03349,7.18518 l -5.24404,30.83213 c 4.26752,-1.89905 13.26172,-29.14525 18.27753,-38.01731 z"
         style="fill:#800000;fill-rule:evenodd;stroke:none" />
      <path
         sodipodi:nodetypes="cc"
         id="path3572"
         d="m 328.5107,191.22699 c 65.89565,-22.76542 8.97923,-62.92951 -6.23301,-26.47561"
         style="opacity:0.10606061;color:#000000;fill:#000000;fill-opacity:1;fill-rule:evenodd;stroke:#000000;stroke-width:1.33446538px;stroke-linecap:butt;stroke-linejoin:miter;stroke-miterlimit:4;stroke-opacity:1;stroke-dasharray:none;stroke-dashoffset:0;marker:none;visibility:visible;display:inline;overflow:visible;enable-background:accumulate" />
      <path
         sodipodi:nodetypes="cccc"
         id="path3626"
         d="m 229.56373,250.43899 c -1.07931,-3.24444 2.2111,-4.77756 3.42013,-7.12578 -0.70869,2.36013 -3.33581,4.46982 -1.77847,7.12578 l -1.64166,0 z"
         style="fill:#000000;fill-rule:evenodd;stroke:#000000;stroke-width:0.81081438px;stroke-linecap:butt;stroke-linejoin:miter;stroke-opacity:1" />
      <path
         sodipodi:nodetypes="cccc"
         id="path3644"
         d="m 153.71226,124.04241 -6.30444,-28.18796 c 14.06607,-3.924083 24.47894,0.914915 33.77375,8.43581 l -19.58877,21.80966"
         style="color:#000000;fill:#800000;fill-opacity:1;fill-rule:evenodd;stroke:#000000;stroke-width:2.66893077px;stroke-linecap:butt;stroke-linejoin:miter;stroke-miterlimit:4;stroke-opacity:1;stroke-dasharray:none;stroke-dashoffset:0;marker:none;visibility:visible;display:inline;overflow:visible;enable-background:accumulate" />
      <path
         id="path3646"
         d="m 157.08962,123.83665 0.22516,-11.72784 -0.22516,11.72784 z"
         style="fill:none;stroke:#000000;stroke-width:1.33446538px;stroke-linecap:butt;stroke-linejoin:miter;stroke-opacity:1" />
      <path
         id="path3648"
         d="m 159.79154,122.8079 7.88053,-13.9911 -7.88053,13.9911 z"
         style="fill:none;stroke:#000000;stroke-width:1.33446538px;stroke-linecap:butt;stroke-linejoin:miter;stroke-opacity:1" />
      <path
         id="path3650"
         d="m 155.0632,123.83665 6.97992,1.85176 -6.97992,-1.85176 z"
         style="fill:none;stroke:#000000;stroke-width:1.33446538px;stroke-linecap:butt;stroke-linejoin:miter;stroke-opacity:1" />
      <path
         sodipodi:nodetypes="ccc"
         id="path3739"
         d="M 151.14983,115.50189 C 122.08409,47.489151 79.5548,60.303931 20.279013,101.65052 66.779487,99.85363 85.680029,159.53493 151.14983,115.50189 z"
         style="opacity:0.09595959;color:#000000;fill:#ffffff;fill-opacity:1;fill-rule:evenodd;stroke:none;stroke-width:1.80015826;marker:none;visibility:visible;display:inline;overflow:visible;enable-background:accumulate" />
      <path
         sodipodi:nodetypes="ccc"
         id="path3741"
         d="m 341.35485,132.48554 c 29.06575,-68.012741 71.59503,-55.197961 130.87081,-13.85136 -46.50048,-1.7969 -65.40101,57.8844 -130.87081,13.85136 z"
         style="opacity:0.09595959;color:#000000;fill:#ffffff;fill-opacity:1;fill-rule:evenodd;stroke:none;stroke-width:1.80015826;marker:none;visibility:visible;display:inline;overflow:visible;enable-background:accumulate" />
      <path
         id="path3745"
         d="m 252.10646,59.64217 -5.17864,-15.225612 9.00633,11.93358 11.70823,-1.85176 -8.78117,6.58405 -6.75475,-1.440258 z"
         style="color:#000000;fill:#552200;fill-opacity:1;fill-rule:evenodd;stroke:#000000;stroke-width:2.66893077;stroke-linecap:butt;stroke-linejoin:miter;stroke-miterlimit:4;stroke-opacity:1;stroke-dasharray:none;stroke-dashoffset:0;marker:none;visibility:visible;display:inline;overflow:visible;enable-background:accumulate" />
      <path
         id="path3751"
         d="m 211.80246,511.31448 3.39008,-26.06074 -1.59937,26.4336 -1.79071,-0.37286 z"
         style="fill:#000000;fill-rule:evenodd;stroke:#000000;stroke-width:0;stroke-linecap:butt;stroke-linejoin:miter;stroke-miterlimit:4;stroke-opacity:1;stroke-dasharray:none" />
      <path
         id="path3753"
         d="m 246.07769,512.31623 -0.98625,-18.5874 2.28641,18.65554 -1.30016,-0.0681 z"
         style="fill:#000000;fill-rule:evenodd;stroke:#000000;stroke-width:0;stroke-linecap:butt;stroke-linejoin:miter;stroke-miterlimit:4;stroke-opacity:1;stroke-dasharray:none" />
      <path
         sodipodi:nodetypes="cccc"
         id="path3755"
         d="m 278.56892,508.62928 c -2.81493,-8.68691 -4.17465,-17.37383 -3.39009,-26.06075 -1.24305,8.8112 -0.13583,17.62242 1.59938,26.43362 l 1.79071,-0.37287 z"
         style="fill:#000000;fill-rule:evenodd;stroke:#000000;stroke-width:0;stroke-linecap:butt;stroke-linejoin:miter;stroke-miterlimit:4;stroke-opacity:1;stroke-dasharray:none" />
      <path
         sodipodi:nodetypes="cccc"
         id="path3757"
         d="m 173.96838,509.01928 c 6.43587,-11.33164 7.47346,-23.36797 9.99969,-35.20998 -1.87162,12.00955 -1.37989,24.0191 -7.61695,36.02865 l -2.38274,-0.81867 z"
         style="fill:#000000;fill-rule:evenodd;stroke:#000000;stroke-width:0;stroke-linecap:butt;stroke-linejoin:miter;stroke-miterlimit:4;stroke-opacity:1;stroke-dasharray:none" />
      <path
         sodipodi:nodetypes="ccc"
         id="path3765"
         d="m 172.68092,551.72522 c 12.17261,3.24722 22.34896,6.70551 35.02312,-0.32628 -14.9133,7.2562 -23.42391,2.89896 -35.02312,0.32628 z"
         style="fill:none;stroke:#000000;stroke-width:0.80067927;stroke-linecap:butt;stroke-linejoin:miter;stroke-miterlimit:4;stroke-opacity:1;stroke-dasharray:none" />
      <path
         sodipodi:nodetypes="ccccc"
         id="path3767"
         d="m 173.65303,552.36703 c 13.17791,4.44255 27.55582,4.47213 34.65299,-1.13164 l -0.44318,2.5719 c -8.66353,5.16319 -18.20305,8.38666 -32.9857,0 l -1.22411,-1.44026 z"
         style="fill:#ffffff;fill-rule:evenodd;stroke:none" />
      <path
         sodipodi:nodetypes="ccc"
         id="path3769"
         d="m 170.62411,564.25068 c 2.47293,3.39737 10.85639,4.09119 17.31221,4.16497 -5.69206,-0.005 -13.91302,0.37555 -17.31221,-4.16497 z"
         style="fill:none;stroke:#000000;stroke-width:0.80067927;stroke-linecap:butt;stroke-linejoin:miter;stroke-miterlimit:4;stroke-opacity:1;stroke-dasharray:none" />
      <path
         sodipodi:nodetypes="ccc"
         id="path3771"
         d="m 211.57581,564.41194 c -2.47293,3.39737 -4.32874,4.09119 -10.78456,4.16497 5.69206,-0.005 7.38537,0.37556 10.78456,-4.16497 z"
         style="fill:none;stroke:#000000;stroke-width:0.80067927;stroke-linecap:butt;stroke-linejoin:miter;stroke-miterlimit:4;stroke-opacity:1;stroke-dasharray:none" />
      <path
         sodipodi:nodetypes="ccccc"
         id="path4055"
         d="m 210.09171,573.71743 0.32258,3.22581 c -24.86861,16.5678 -41.02036,18.55164 -43.54839,-2.25807 l 1.6129,-2.90322 c 13.65673,3.8588 27.52608,4.52828 41.61291,1.93548 z"
         style="fill:#ffffff;fill-rule:evenodd;stroke:#000000;stroke-width:1px;stroke-linecap:butt;stroke-linejoin:miter;stroke-opacity:1" />
      <path
         sodipodi:nodetypes="ccc"
         id="path3783"
         d="m 168.18438,571.16769 c -59.0108,53.74144 61.52831,46.12545 44.56309,1.74586 -16.71296,19.37863 -51.90459,10.71086 -44.56309,-1.74586 z"
         style="color:#000000;fill:#800000;fill-opacity:1;fill-rule:evenodd;stroke:#000000;stroke-width:2.66893077px;stroke-linecap:butt;stroke-linejoin:miter;stroke-miterlimit:4;stroke-opacity:1;stroke-dasharray:none;stroke-dashoffset:0;marker:none;visibility:visible;display:inline;overflow:visible;enable-background:accumulate" />
      <path
         sodipodi:nodetypes="ccc"
         id="path3787"
         d="m 275.70919,549.64629 c -12.1726,3.24722 -22.34896,6.70551 -35.0231,-0.32628 14.9133,7.25619 23.42391,2.89896 35.0231,0.32628 z"
         style="fill:none;stroke:#000000;stroke-width:0.80067927;stroke-linecap:butt;stroke-linejoin:miter;stroke-miterlimit:4;stroke-opacity:1;stroke-dasharray:none" />
      <path
         sodipodi:nodetypes="ccccc"
         id="path3789"
         d="m 274.73708,550.28809 c -13.17789,4.44256 -27.55581,4.47214 -34.65298,-1.13162 l 0.44318,2.57188 c 8.66353,5.1632 18.20304,8.38667 32.9857,0 l 1.2241,-1.44026 z"
         style="fill:#ffffff;fill-rule:evenodd;stroke:none" />
      <path
         sodipodi:nodetypes="cccc"
         id="path3797"
         d="m 164.86828,580.46433 4.77634,3.78268 c -6.57735,-0.30674 -10.48361,6.0989 -13.69216,14.25786 0.67335,-7.58887 1.58936,-15.01143 8.91582,-18.04054 z"
         style="opacity:0.47474748;fill:#ffffff;fill-rule:evenodd;stroke:none" />
      <path
         sodipodi:nodetypes="cccc"
         id="path3799"
         d="m 153.08666,597.04999 c 25.86621,15.35739 62.46283,-3.93735 55.01638,-18.33154 2.54508,-1.52465 5.04289,-5.36831 6.78013,2.70402 -0.24096,30.80771 -56.87463,35.04014 -61.79651,15.62752 z"
         style="opacity:0.25252524;fill:#000000;fill-rule:evenodd;stroke:#000000;stroke-width:1.33446538px;stroke-linecap:butt;stroke-linejoin:miter;stroke-opacity:1" />
      <path
         sodipodi:nodetypes="ccccc"
         id="path3801"
         d="m 168.79787,571.91342 c 5.99489,10.35743 27.31004,7.055 41.20398,2.67478 l 1.33964,-3.86364 c -14.39015,2.86557 -32.45711,6.93779 -42.09331,-2.92616 l -0.45031,4.11502 z"
         style="color:#000000;fill:#800000;fill-opacity:1;fill-rule:evenodd;stroke:#000000;stroke-width:2.66893077px;stroke-linecap:butt;stroke-linejoin:miter;stroke-miterlimit:4;stroke-opacity:1;stroke-dasharray:none;stroke-dashoffset:0;marker:none;visibility:visible;display:inline;overflow:visible;enable-background:accumulate" />
      <path
         sodipodi:nodetypes="ccccc"
         id="path3805"
         d="m 172.28782,572.0163 c 1.79557,0.73858 3.28875,1.54624 5.62896,2.1604 -2.04475,-0.1851 -1.74746,1.35407 -0.22515,2.46901 -1.98021,-0.69776 -3.8362,-1.56578 -5.5164,-2.67477 -0.56828,-0.96789 -0.36418,-1.53245 0.11259,-1.95464 z"
         style="opacity:0.46969694;fill:#ffffff;fill-rule:evenodd;stroke:none" />
      <path
         sodipodi:nodetypes="ccc"
         id="path3809"
         d="m 297.70386,597.32681 c -0.76956,29.04982 -74.15103,7.54468 -61.36688,-18.82824 17.74752,28.16596 51.29078,27.72808 61.36688,18.82824 z"
         style="fill:#4d4d4d;fill-rule:evenodd;stroke:#000000;stroke-width:2.66893077;stroke-linecap:butt;stroke-linejoin:miter;stroke-miterlimit:4;stroke-opacity:1;stroke-dasharray:none" />
      <path
         sodipodi:nodetypes="ccc"
         id="path3811"
         d="m 279.84801,561.61775 c -2.47294,3.39736 -10.85639,4.09118 -17.31223,4.16496 5.69208,-0.005 13.91303,0.37556 17.31223,-4.16496 z"
         style="fill:none;stroke:#000000;stroke-width:0.80067927;stroke-linecap:butt;stroke-linejoin:miter;stroke-miterlimit:4;stroke-opacity:1;stroke-dasharray:none" />
      <path
         sodipodi:nodetypes="ccccc"
         id="path4053"
         d="m 240.25299,571.29032 -0.32258,3.22581 c 24.86861,16.5678 41.02036,18.55164 43.54839,-2.25807 l -1.6129,-2.90322 c -13.65673,3.8588 -27.52608,4.52828 -41.61291,1.93548 z"
         style="fill:#ffffff;fill-rule:evenodd;stroke:#000000;stroke-width:1px;stroke-linecap:butt;stroke-linejoin:miter;stroke-opacity:1" />
      <path
         sodipodi:nodetypes="ccc"
         id="path3815"
         d="m 282.28772,568.53475 c 59.01081,53.74145 -61.52829,46.12545 -44.56309,1.74586 16.71298,19.37865 51.90461,10.71086 44.56309,-1.74586 z"
         style="color:#000000;fill:#800000;fill-opacity:1;fill-rule:evenodd;stroke:#000000;stroke-width:2.66893077px;stroke-linecap:butt;stroke-linejoin:miter;stroke-miterlimit:4;stroke-opacity:1;stroke-dasharray:none;stroke-dashoffset:0;marker:none;visibility:visible;display:inline;overflow:visible;enable-background:accumulate" />
      <path
         sodipodi:nodetypes="cccc"
         id="path3819"
         d="m 297.38545,594.41705 c -25.8662,15.35739 -62.46282,-3.93735 -55.01637,-18.33153 -2.54508,-1.52466 -5.0429,-5.36832 -6.78013,2.70401 0.24096,30.80771 56.87461,35.04014 61.7965,15.62752 z"
         style="opacity:0.25252524;fill:#000000;fill-rule:evenodd;stroke:#000000;stroke-width:1.33446538px;stroke-linecap:butt;stroke-linejoin:miter;stroke-opacity:1" />
      <path
         sodipodi:nodetypes="ccccc"
         id="path3821"
         d="m 281.67425,569.28048 c -5.99489,10.35743 -27.31004,7.05501 -41.20398,2.67478 l -1.33964,-3.86364 c 14.39015,2.86557 30.65584,6.93779 40.29204,-2.92616 l 2.25158,4.11502 z"
         style="color:#000000;fill:#800000;fill-opacity:1;fill-rule:evenodd;stroke:#000000;stroke-width:2.66893077px;stroke-linecap:butt;stroke-linejoin:miter;stroke-miterlimit:4;stroke-opacity:1;stroke-dasharray:none;stroke-dashoffset:0;marker:none;visibility:visible;display:inline;overflow:visible;enable-background:accumulate" />
      <path
         sodipodi:nodetypes="ccccc"
         id="path3823"
         d="m 278.1843,569.38337 c -1.79558,0.73857 -3.28876,1.54624 -5.62897,2.16039 2.04475,-0.1851 1.74747,1.35407 0.22516,2.46901 1.9802,-0.69776 3.8362,-1.56578 5.51639,-2.67477 0.56829,-0.96789 0.36419,-1.53245 -0.11258,-1.95463 z"
         style="opacity:0.46969694;fill:#ffffff;fill-rule:evenodd;stroke:none" />
      <path
         sodipodi:nodetypes="ccccccccc"
         id="path3825"
         d="m 207.53684,549.91178 -0.95527,2.03683 c -7.56457,1.2817 -8.07032,6.31402 -24.5185,1.74587 6.05886,6.89702 3.64447,10.05497 -1.27369,13.09394 l 3.82106,0.58194 c -1.19113,1.71353 0.50037,5.00757 -4.45789,4.65564 6.57011,2.91946 16.59371,0.93724 29.93166,-2.32782 l -1.27369,-2.03684 c 2.29059,-6.16464 4.71077,-12.34112 -1.27368,-17.74956 z"
         style="opacity:0.36363639;fill:#000000;fill-rule:evenodd;stroke:#000000;stroke-width:1.33446538px;stroke-linecap:butt;stroke-linejoin:miter;stroke-opacity:1" />
      <path
         sodipodi:nodetypes="ccc"
         id="path3827"
         d="m 251.20583,584.25851 c 5.52463,4.04426 8.05259,8.79573 25.44289,12.55085 -8.40206,0.40316 -23.33809,-2.1522 -25.44289,-12.55085 z"
         style="opacity:0.47474748;color:#000000;fill:#ffffff;fill-opacity:1;fill-rule:evenodd;stroke:none;stroke-width:1px;marker:none;visibility:visible;display:inline;overflow:visible;enable-background:accumulate" />
      <path
         sodipodi:nodetypes="cccccccc"
         id="path3829"
         d="m 265.84113,552.57278 c 4.41611,3.48026 8.99997,6.93134 1.12578,12.55084 2.41611,1.64601 2.91192,3.29203 1.12579,4.93805 l 10.80761,-4.52655 -2.02643,-1.85176 c 4.04776,-13.7225 0.45516,-14.222 -4.278,-19.34064 l 0.22515,5.76104 -6.9799,2.46902 z"
         style="opacity:0.42929293;fill:#000000;fill-rule:evenodd;stroke:#000000;stroke-width:1.33446538px;stroke-linecap:butt;stroke-linejoin:miter;stroke-opacity:1" />
      <path
         sodipodi:nodetypes="ccccccc"
         id="path3831"
         d="m 248.27876,552.77852 c -4.02684,4.01018 -3.15587,7.64738 0,11.11059 -1.46213,1.2434 -3.19797,2.42428 0,4.73229 l -9.23149,-1.44026 0.45032,-1.85176 c -4.20716,-5.82964 -3.44601,-11.65927 1.35095,-17.48889 l 7.43022,4.93803 z"
         style="opacity:0.35858585;fill:#000000;fill-rule:evenodd;stroke:#000000;stroke-width:1.33446538px;stroke-linecap:butt;stroke-linejoin:miter;stroke-opacity:1" />
      <path
         sodipodi:nodetypes="ccc"
         id="path3837"
         d="m 220.00397,346.21661 c 14.87725,7.17595 29.90671,2.26014 34.88659,-0.75954 -15.10861,4.79507 -29.11063,4.21113 -34.88659,0.75954 z"
         style="fill:#000000;fill-rule:evenodd;stroke:#000000;stroke-width:1.18089366px;stroke-linecap:butt;stroke-linejoin:miter;stroke-opacity:1" />
      <path
         sodipodi:nodetypes="ccccccc"
         id="path3841"
         d="m 227.91584,515.28555 c 1.71681,-19.35328 17.93803,-38.15431 1.5921,-58.19533 13.02091,-0.54722 55.21421,-9.63906 59.54492,-9.02028 l 17.83164,47.4292 c -4.91943,14.27603 -16.52473,14.29633 -28.9764,12.512 -9.93008,9.84954 -20.77547,5.48027 -31.52379,2.61879 -6.1541,1.56314 -11.48923,7.61657 -18.46847,4.65562 z"
         style="opacity:0.08585857;fill:#000000;fill-rule:evenodd;stroke:#000000;stroke-width:1.33446538px;stroke-linecap:butt;stroke-linejoin:miter;stroke-opacity:1" />
      <path
         sodipodi:nodetypes="ccc"
         id="path3843"
         d="m 291.60024,388.41972 c 3.64405,-1.97266 7.82686,-1.48374 12.10003,-0.58195 -4.80691,-1.74997 -8.98866,-1.92889 -12.10003,0.58195 z"
         style="fill:none;stroke:#000000;stroke-width:1.33446538px;stroke-linecap:butt;stroke-linejoin:miter;stroke-opacity:1" />
      <path
         sodipodi:nodetypes="ccc"
         id="path3845"
         d="m 291.60024,390.16559 c 3.56707,1.0914 7.21678,1.12554 10.58753,4.72836 -3.52917,-5.62937 -7.05835,-3.59303 -10.58753,-4.72836 z"
         style="fill:none;stroke:#000000;stroke-width:0.80067927;stroke-linecap:butt;stroke-linejoin:miter;stroke-miterlimit:4;stroke-opacity:1;stroke-dasharray:none" />
      <path
         sodipodi:nodetypes="ccc"
         id="path3847"
         d="m 169.64459,388.58418 c -3.64405,-1.97267 -7.82686,-1.48375 -12.10003,-0.58196 4.80691,-1.74996 8.98866,-1.92889 12.10003,0.58196 z"
         style="fill:none;stroke:#000000;stroke-width:1.33446538px;stroke-linecap:butt;stroke-linejoin:miter;stroke-opacity:1" />
      <path
         sodipodi:nodetypes="ccc"
         id="path3849"
         d="m 169.64459,390.33005 c -3.56706,1.0914 -7.21677,1.12554 -10.58753,4.72836 3.52917,-5.62938 7.05835,-3.59302 10.58753,-4.72836 z"
         style="fill:none;stroke:#000000;stroke-width:0.80067927;stroke-linecap:butt;stroke-linejoin:miter;stroke-miterlimit:4;stroke-opacity:1;stroke-dasharray:none" />
      <path
         sodipodi:nodetypes="cccccccc"
         id="path3851"
         d="m 216.7566,343.94068 c 24.24286,28.7529 33.42111,74.68656 -5.40381,110.69435 28.68107,-0.75329 57.16645,-2.75829 84.65955,-11.11058 l 0.45032,-20.98666 c 30.42345,-14.36828 62.39979,-38.95935 -17.11203,-78.18561 l -22.06553,-14.4026 -2.70191,15.22562 c -11.49669,6.19453 -23.93087,6.82061 -37.82659,-1.23452 z"
         style="opacity:0.15656565;fill:#000000;fill-rule:evenodd;stroke:#000000;stroke-width:1.33446538px;stroke-linecap:butt;stroke-linejoin:miter;stroke-opacity:1" />
      <path
         id="path3853"
         d="m 173.52618,387.14851 -9.00632,30.03974 9.00632,-30.03974 z"
         style="fill:none;stroke:#000000;stroke-width:1.33446538px;stroke-linecap:butt;stroke-linejoin:miter;stroke-opacity:1" />
    </g>
  </g>
</svg>
