<?xml version="1.0" encoding="UTF-8" standalone="no"?>
<!-- Created with Inkscape (http://www.inkscape.org/) -->

<svg
   xmlns:dc="http://purl.org/dc/elements/1.1/"
   xmlns:cc="http://creativecommons.org/ns#"
   xmlns:rdf="http://www.w3.org/1999/02/22-rdf-syntax-ns#"
   xmlns:svg="http://www.w3.org/2000/svg"
   xmlns="http://www.w3.org/2000/svg"
   xmlns:xlink="http://www.w3.org/1999/xlink"
   xmlns:sodipodi="http://sodipodi.sourceforge.net/DTD/sodipodi-0.dtd"
   xmlns:inkscape="http://www.inkscape.org/namespaces/inkscape"
   width="339.4144"
   height="415.33533"
   id="svg5020"
   version="1.1"
   inkscape:version="0.48.3.1 r9886"
   sodipodi:docname="niño pupa.svg"
   inkscape:export-filename="/home/vhzc/Docs/FOCA/public_html/personajes_y_oficios_2/dolor_de_muelas_cara_hinchada.png"
   inkscape:export-xdpi="90"
   inkscape:export-ydpi="90">
  <title
     id="title5217">dolor_de_muelas</title>
  <defs
     id="defs5022">
    <filter
       color-interpolation-filters="sRGB"
       inkscape:collect="always"
       id="filter4459"
       x="-0.19958583"
       width="1.3991716"
       y="-0.28035864"
       height="1.5607173">
      <feGaussianBlur
         inkscape:collect="always"
         stdDeviation="4.9688969"
         id="feGaussianBlur4461" />
    </filter>
    <filter
       color-interpolation-filters="sRGB"
       inkscape:collect="always"
       id="filter4610-2"
       x="-0.2408625"
       width="1.481725"
       y="-0.19123361"
       height="1.3824672">
      <feGaussianBlur
         inkscape:collect="always"
         stdDeviation="4.269857"
         id="feGaussianBlur4612-4" />
    </filter>
    <filter
       color-interpolation-filters="sRGB"
       inkscape:collect="always"
       id="filter4610-2-2"
       x="-0.2408625"
       width="1.481725"
       y="-0.19123361"
       height="1.3824672">
      <feGaussianBlur
         inkscape:collect="always"
         stdDeviation="4.269857"
         id="feGaussianBlur4612-4-7" />
    </filter>
    <filter
       color-interpolation-filters="sRGB"
       inkscape:collect="always"
       id="filter4489"
       x="-0.12067736"
       width="1.2413547"
       y="-0.16697825"
       height="1.3339565">
      <feGaussianBlur
         inkscape:collect="always"
         stdDeviation="8.0502649"
         id="feGaussianBlur4491" />
    </filter>
    <filter
       color-interpolation-filters="sRGB"
       inkscape:collect="always"
       id="filter4722"
       x="-0.16025814"
       width="1.3205163"
       y="-0.37965918"
       height="1.7593184">
      <feGaussianBlur
         inkscape:collect="always"
         stdDeviation="6.6440355"
         id="feGaussianBlur4724" />
    </filter>
    <filter
       color-interpolation-filters="sRGB"
       inkscape:collect="always"
       id="filter4863"
       x="-0.13123341"
       width="1.2624668"
       y="-0.17357104"
       height="1.3471421">
      <feGaussianBlur
         inkscape:collect="always"
         stdDeviation="4.0983821"
         id="feGaussianBlur4865" />
    </filter>
    <filter
       color-interpolation-filters="sRGB"
       inkscape:collect="always"
       id="filter4412"
       x="-0.13059641"
       width="1.2611928"
       y="-0.13760714"
       height="1.2752143">
      <feGaussianBlur
         inkscape:collect="always"
         stdDeviation="10.679403"
         id="feGaussianBlur4414" />
    </filter>
    <filter
       color-interpolation-filters="sRGB"
       inkscape:collect="always"
       id="filter4365"
       x="-0.41987815"
       width="1.8397563"
       y="-0.33323666"
       height="1.6664733">
      <feGaussianBlur
         inkscape:collect="always"
         stdDeviation="6.1853895"
         id="feGaussianBlur4367" />
    </filter>
    <filter
       color-interpolation-filters="sRGB"
       inkscape:collect="always"
       id="filter4692"
       x="-0.16300459"
       width="1.3260092"
       y="-0.19196476"
       height="1.3839295">
      <feGaussianBlur
         inkscape:collect="always"
         stdDeviation="5.570978"
         id="feGaussianBlur4694" />
    </filter>
    <radialGradient
       inkscape:collect="always"
       xlink:href="#linearGradient4422"
       id="radialGradient4428"
       cx="1168.8475"
       cy="496.22269"
       fx="1168.8475"
       fy="496.22269"
       r="111.45415"
       gradientTransform="matrix(1,0,0,0.48293367,0,256.58005)"
       gradientUnits="userSpaceOnUse" />
    <linearGradient
       inkscape:collect="always"
       id="linearGradient4422">
      <stop
         style="stop-color:#ffffff;stop-opacity:1;"
         offset="0"
         id="stop4424" />
      <stop
         style="stop-color:#ffffff;stop-opacity:0;"
         offset="1"
         id="stop4426" />
    </linearGradient>
    <filter
       color-interpolation-filters="sRGB"
       inkscape:collect="always"
       id="filter4418"
       x="-0.083777778"
       width="1.1675556"
       y="-0.21140186"
       height="1.4228038">
      <feGaussianBlur
         inkscape:collect="always"
         stdDeviation="6.6644805"
         id="feGaussianBlur4420" />
    </filter>
    <filter
       color-interpolation-filters="sRGB"
       inkscape:collect="always"
       id="filter4512"
       x="-0.22293895"
       width="1.4458779"
       y="-0.057163652"
       height="1.1143273">
      <feGaussianBlur
         inkscape:collect="always"
         stdDeviation="2.0210404"
         id="feGaussianBlur4514" />
    </filter>
    <filter
       color-interpolation-filters="sRGB"
       inkscape:collect="always"
       id="filter4512-5"
       x="-0.22293895"
       width="1.4458779"
       y="-0.057163652"
       height="1.1143273">
      <feGaussianBlur
         inkscape:collect="always"
         stdDeviation="2.0210404"
         id="feGaussianBlur4514-6" />
    </filter>
    <filter
       color-interpolation-filters="sRGB"
       inkscape:collect="always"
       id="filter4663"
       x="-0.37062266"
       width="1.7412453"
       y="-0.17009482"
       height="1.3401896">
      <feGaussianBlur
         inkscape:collect="always"
         stdDeviation="2.7560122"
         id="feGaussianBlur4665" />
    </filter>
    <linearGradient
       inkscape:collect="always"
       xlink:href="#linearGradient4744"
       id="linearGradient4752"
       x1="146.38084"
       y1="621.0813"
       x2="149.05365"
       y2="557.50012"
       gradientUnits="userSpaceOnUse" />
    <linearGradient
       inkscape:collect="always"
       id="linearGradient4744">
      <stop
         style="stop-color:#000000;stop-opacity:1;"
         offset="0"
         id="stop4746" />
      <stop
         style="stop-color:#000000;stop-opacity:0;"
         offset="1"
         id="stop4748" />
    </linearGradient>
    <linearGradient
       y2="557.50012"
       x2="149.05365"
       y1="621.0813"
       x1="146.38084"
       gradientUnits="userSpaceOnUse"
       id="linearGradient4769"
       xlink:href="#linearGradient4744-4"
       inkscape:collect="always" />
    <linearGradient
       inkscape:collect="always"
       id="linearGradient4744-4">
      <stop
         style="stop-color:#000000;stop-opacity:1;"
         offset="0"
         id="stop4746-3" />
      <stop
         style="stop-color:#000000;stop-opacity:0;"
         offset="1"
         id="stop4748-5" />
    </linearGradient>
    <filter
       color-interpolation-filters="sRGB"
       inkscape:collect="always"
       id="filter4806"
       x="-0.083663963"
       width="1.1673279"
       y="-0.15252753"
       height="1.305055">
      <feGaussianBlur
         inkscape:collect="always"
         stdDeviation="0.88974384"
         id="feGaussianBlur4808" />
    </filter>
  </defs>
  <sodipodi:namedview
     id="base"
     pagecolor="#ffffff"
     bordercolor="#666666"
     borderopacity="1.0"
     inkscape:pageopacity="0.0"
     inkscape:pageshadow="2"
     inkscape:zoom="0.92"
     inkscape:cx="196.46465"
     inkscape:cy="185.7419"
     inkscape:document-units="px"
     inkscape:current-layer="g4867"
     showgrid="false"
     fit-margin-top="0"
     fit-margin-left="0"
     fit-margin-right="0"
     fit-margin-bottom="0"
     inkscape:window-width="1264"
     inkscape:window-height="715"
     inkscape:window-x="0"
     inkscape:window-y="48"
     inkscape:window-maximized="1" />
  <metadata
     id="metadata5025">
    <rdf:RDF>
      <cc:Work
         rdf:about="">
        <dc:format>image/svg+xml</dc:format>
        <dc:type
           rdf:resource="http://purl.org/dc/dcmitype/StillImage" />
        <dc:title>dolor_de_muelas</dc:title>
        <dc:creator>
          <cc:Agent>
            <dc:title>Vladimir Zúñiga</dc:title>
          </cc:Agent>
        </dc:creator>
        <cc:license
           rdf:resource="http://creativecommons.org/licenses/by/3.0/" />
      </cc:Work>
      <cc:License
         rdf:about="http://creativecommons.org/licenses/by/3.0/">
        <cc:permits
           rdf:resource="http://creativecommons.org/ns#Reproduction" />
        <cc:permits
           rdf:resource="http://creativecommons.org/ns#Distribution" />
        <cc:requires
           rdf:resource="http://creativecommons.org/ns#Notice" />
        <cc:requires
           rdf:resource="http://creativecommons.org/ns#Attribution" />
        <cc:permits
           rdf:resource="http://creativecommons.org/ns#DerivativeWorks" />
      </cc:License>
    </rdf:RDF>
  </metadata>
  <g
     inkscape:label="Capa 1"
     inkscape:groupmode="layer"
     id="layer1"
     transform="translate(-171.03196,-157.01494)">
    <g
       transform="translate(-812.80225,-276.26593)"
       id="g4867">
      <path
         id="path3188-1"
         d="m 1234.1843,751.84159 -162,4.5 3.375,7.5625 c -0.4081,-0.12714 -1.875,-0.5625 -1.875,-0.5625 l 25,56 19.3125,-20.3125 c 22.7033,5.16955 44.3758,4.07539 65.2812,-1.53125 l 19.3438,20.34375 24.3125,-54.46875 7.25,-11.53125 z"
         style="color:#000000;fill:#008080;fill-opacity:1;fill-rule:nonzero;stroke:#000000;stroke-width:5.7001152;stroke-linecap:butt;stroke-linejoin:miter;stroke-miterlimit:4;stroke-opacity:1;stroke-dasharray:none;stroke-dashoffset:0;marker:none;visibility:visible;display:inline;overflow:visible;enable-background:accumulate"
         inkscape:connector-curvature="0" />
      <path
         sodipodi:nodetypes="ccccc"
         inkscape:connector-curvature="0"
         id="path3324-7"
         d="m 1227.4091,736.58016 c 16.5949,-16.74474 33.9412,0.8986 49.7848,-50.23422 l -14.331,-25.29078 c -19.4481,19.12132 -43.2859,17.28231 -57.0064,7.6801 z"
         style="color:#000000;fill:#e9ddaf;fill-opacity:1;fill-rule:nonzero;stroke:#000000;stroke-width:5.7001152;stroke-linecap:butt;stroke-linejoin:miter;stroke-miterlimit:4;stroke-opacity:1;stroke-dasharray:none;stroke-dashoffset:0;marker:none;visibility:visible;display:inline;overflow:visible;enable-background:accumulate" />
      <path
         sodipodi:nodetypes="cccccccc"
         inkscape:connector-curvature="0"
         id="path4430"
         d="m 1227.8909,712.95093 -11.6672,-19.44544 14.1421,10.96016 30.4056,-14.84925 -7.4246,-16.26345 22.6274,14.14213 c -8.4229,12.40434 -18.7715,29.944 -21.9203,28.28427 z"
         style="opacity:0.4300518;color:#000000;fill:#554400;fill-opacity:1;fill-rule:nonzero;stroke:none;stroke-width:5.37994099;marker:none;visibility:visible;display:inline;overflow:visible;filter:url(#filter4459);enable-background:accumulate" />
      <path
         sodipodi:nodetypes="ccccc"
         inkscape:connector-curvature="0"
         id="path3332-9"
         d="m 1105.1843,668.82877 -87,45 21,28 39,4 c 4.0495,-21.42338 5.0736,-40.2536 27,-77 z"
         style="color:#000000;fill:#e9ddaf;fill-opacity:1;fill-rule:nonzero;stroke:#000000;stroke-width:5.7001152;stroke-linecap:butt;stroke-linejoin:miter;stroke-miterlimit:4;stroke-opacity:1;stroke-dasharray:none;stroke-dashoffset:0;marker:none;visibility:visible;display:inline;overflow:visible;enable-background:accumulate" />
      <path
         sodipodi:nodetypes="ccccc"
         inkscape:connector-curvature="0"
         id="path3293-1"
         d="m 1111.1843,659.82877 c -34.2591,40.65182 -38.4941,75.29881 -33,108 37.7798,8.84913 92.8067,13.36875 158,-5 1.1784,-28.72476 -7.9171,-55.67724 -27,-92 z"
         style="color:#000000;fill:#800000;fill-opacity:1;fill-rule:nonzero;stroke:#000000;stroke-width:5.7001152;stroke-linecap:butt;stroke-linejoin:miter;stroke-miterlimit:4;stroke-opacity:1;stroke-dasharray:none;stroke-dashoffset:0;marker:none;visibility:visible;display:inline;overflow:visible;enable-background:accumulate" />
      <path
         sodipodi:nodetypes="ccc"
         inkscape:connector-curvature="0"
         id="path3279-2-5"
         d="m 1197.7206,669.79908 36.2711,3.06824 -6.905,36.62953"
         style="color:#000000;fill:#800000;fill-opacity:1;fill-rule:nonzero;stroke:#000000;stroke-width:5.7001152;stroke-linecap:butt;stroke-linejoin:miter;stroke-miterlimit:4;stroke-opacity:1;stroke-dasharray:none;stroke-dashoffset:0;marker:none;visibility:visible;display:inline;overflow:visible;enable-background:accumulate" />
      <path
         transform="matrix(-0.98016193,-0.19819839,-0.19819839,0.98016193,1676.8646,187.20332)"
         d="m 350,480.36218 c 0,14.91169 -9.40202,27 -21,27 -11.59798,0 -21,-12.08831 -21,-27 0,-14.91169 9.40202,-27 21,-27 11.59798,0 21,12.08831 21,27 z"
         sodipodi:ry="27"
         sodipodi:rx="21"
         sodipodi:cy="480.36218"
         sodipodi:cx="329"
         id="path3116-9-4"
         style="color:#000000;fill:#e9ddaf;fill-opacity:1;fill-rule:nonzero;stroke:#000000;stroke-width:5.7001152;stroke-linecap:butt;stroke-linejoin:miter;stroke-miterlimit:4;stroke-opacity:1;stroke-dasharray:none;stroke-dashoffset:0;marker:none;visibility:visible;display:inline;overflow:visible;enable-background:accumulate"
         sodipodi:type="arc" />
      <path
         transform="matrix(0.75961633,-0.1536019,0.1536019,0.75961633,936.36597,279.09395)"
         d="m 350,480.36218 c 0,14.91169 -9.40202,27 -21,27 -11.59798,0 -21,-12.08831 -21,-27 0,-14.91169 9.40202,-27 21,-27 11.59798,0 21,12.08831 21,27 z"
         sodipodi:ry="27"
         sodipodi:rx="21"
         sodipodi:cy="480.36218"
         sodipodi:cx="329"
         id="path3116-92-9-5"
         style="opacity:0.26943006;color:#000000;fill:#554400;fill-opacity:1;fill-rule:nonzero;stroke:none;stroke-width:6.94194317;marker:none;visibility:visible;display:inline;overflow:visible;filter:url(#filter4610-2);enable-background:accumulate"
         sodipodi:type="arc" />
      <path
         transform="matrix(0.98016193,-0.19819839,0.19819839,0.98016193,642.50399,189.20332)"
         d="m 350,480.36218 c 0,14.91169 -9.40202,27 -21,27 -11.59798,0 -21,-12.08831 -21,-27 0,-14.91169 9.40202,-27 21,-27 11.59798,0 21,12.08831 21,27 z"
         sodipodi:ry="27"
         sodipodi:rx="21"
         sodipodi:cy="480.36218"
         sodipodi:cx="329"
         id="path3116-92"
         style="color:#000000;fill:#e9ddaf;fill-opacity:1;fill-rule:nonzero;stroke:#000000;stroke-width:5.7001152;stroke-linecap:butt;stroke-linejoin:miter;stroke-miterlimit:4;stroke-opacity:1;stroke-dasharray:none;stroke-dashoffset:0;marker:none;visibility:visible;display:inline;overflow:visible;enable-background:accumulate"
         sodipodi:type="arc" />
      <path
         transform="matrix(0.75961633,-0.1536019,0.1536019,0.75961633,740.48599,286.47284)"
         d="m 350,480.36218 c 0,14.91169 -9.40202,27 -21,27 -11.59798,0 -21,-12.08831 -21,-27 0,-14.91169 9.40202,-27 21,-27 11.59798,0 21,12.08831 21,27 z"
         sodipodi:ry="27"
         sodipodi:rx="21"
         sodipodi:cy="480.36218"
         sodipodi:cx="329"
         id="path3116-92-9"
         style="opacity:0.26943006;color:#000000;fill:#554400;fill-opacity:1;fill-rule:nonzero;stroke:none;stroke-width:6.94194317;marker:none;visibility:visible;display:inline;overflow:visible;filter:url(#filter4610-2-2);enable-background:accumulate"
         sodipodi:type="arc" />
      <path
         inkscape:connector-curvature="0"
         id="path3293-1-3"
         d="m 1111.1875,659.84375 c -34.2591,40.65182 -38.4941,75.29881 -33,108 37.7798,8.84913 92.8067,13.36875 158,-5 1.1784,-28.72476 -7.9171,-55.67724 -27,-92 l -7.375,-0.8125 c 15.4292,29.69541 22.8174,51.98963 21.8437,75.71875 -54.9701,15.48823 -101.3632,11.68018 -133.2187,4.21875 -4.56,-27.14235 -1.1604,-55.88223 26.5,-89.46875 l -5.75,-0.65625 z"
         style="opacity:0.37823833;color:#000000;fill:#000000;fill-opacity:1;fill-rule:nonzero;stroke:none;stroke-width:5.7001152;marker:none;visibility:visible;display:inline;overflow:visible;filter:url(#filter4489);enable-background:accumulate" />
      <path
         transform="translate(721.18427,116.46659)"
         d="m 485.5,562.86218 c 0,11.59798 -22.27383,21 -49.75,21 -27.47617,0 -49.75,-9.40202 -49.75,-21 0,-11.59798 22.27383,-21 49.75,-21 27.47617,0 49.75,9.40202 49.75,21 z"
         sodipodi:ry="21"
         sodipodi:rx="49.75"
         sodipodi:cy="562.86218"
         sodipodi:cx="435.75"
         id="path3344-5"
         style="color:#000000;fill:#e9ddaf;fill-opacity:1;fill-rule:nonzero;stroke:#000000;stroke-width:5.7001152;stroke-linecap:butt;stroke-linejoin:miter;stroke-miterlimit:4;stroke-opacity:1;stroke-dasharray:none;stroke-dashoffset:0;marker:none;visibility:visible;display:inline;overflow:visible;enable-background:accumulate"
         sodipodi:type="arc" />
      <path
         transform="matrix(0.90494306,0,0,0.90494306,762.60531,169.97054)"
         d="m 485.5,562.86218 c 0,11.59798 -22.27383,21 -49.75,21 -27.47617,0 -49.75,-9.40202 -49.75,-21 0,-11.59798 22.27383,-21 49.75,-21 27.47617,0 49.75,9.40202 49.75,21 z"
         sodipodi:ry="21"
         sodipodi:rx="49.75"
         sodipodi:cy="562.86218"
         sodipodi:cx="435.75"
         id="path3344-5-3"
         style="opacity:0.38860103;color:#000000;fill:#000000;fill-opacity:1;fill-rule:nonzero;stroke:#000000;stroke-width:5.7001152;stroke-linecap:butt;stroke-linejoin:miter;stroke-miterlimit:4;stroke-opacity:1;stroke-dasharray:none;stroke-dashoffset:0;marker:none;visibility:visible;display:inline;overflow:visible;filter:url(#filter4722);enable-background:accumulate"
         sodipodi:type="arc" />
      <path
         d="m 544.47223,458.89755 c 0,58.02075 -46.69592,105.05586 -104.29825,105.05586 -57.60233,0 -104.29825,-47.03511 -104.29825,-105.05586 0,-58.02075 46.69592,-105.05586 104.29825,-105.05586 57.60233,0 104.29825,47.03511 104.29825,105.05586 z"
         sodipodi:ry="105.05586"
         sodipodi:rx="104.29825"
         sodipodi:cy="458.89755"
         sodipodi:cx="440.17398"
         id="path2985-7"
         style="color:#000000;fill:#e9ddaf;fill-opacity:1;fill-rule:nonzero;stroke:#000000;stroke-width:5.7001152;stroke-linecap:butt;stroke-linejoin:miter;stroke-miterlimit:4;stroke-opacity:1;stroke-dasharray:none;stroke-dashoffset:0;marker:none;visibility:visible;display:inline;overflow:visible;enable-background:accumulate"
         sodipodi:type="arc"
         transform="translate(721.18427,122.46659)" />
      <path
         sodipodi:nodetypes="cccc"
         inkscape:connector-curvature="0"
         id="path3250-4-4"
         d="m 1261.9992,545.2496 c 13.8254,42.65338 -9.1964,82.31365 -9.8995,79.90306 7.6016,-15.86674 12.6686,-68.11249 -14.1421,-94.75231 z"
         style="color:#000000;fill:#000000;fill-opacity:1;fill-rule:nonzero;stroke:#000000;stroke-width:1px;stroke-linecap:butt;stroke-linejoin:miter;stroke-miterlimit:4;stroke-opacity:1;stroke-dasharray:none;stroke-dashoffset:0;marker:none;visibility:visible;display:inline;overflow:visible;enable-background:accumulate" />
      <path
         inkscape:connector-curvature="0"
         id="path2985-7-3"
         d="m 1208.4071,494.60488 c 23.2567,17.02082 38.3727,44.62976 38.3727,75.80134 0,51.71681 -41.6238,93.64565 -92.9674,93.64565 -43.6588,0 -80.2666,-30.32847 -90.2538,-71.20018 5.4947,49.51945 47.1754,88.01218 97.8044,88.01218 54.3671,0 98.4534,-44.36996 98.4534,-99.13169 0,-37.60145 -20.786,-70.31758 -51.4093,-87.1273 z"
         style="opacity:0.4300518;color:#000000;fill:#554400;fill-opacity:1;fill-rule:nonzero;stroke:none;stroke-width:5.37994099;marker:none;visibility:visible;display:inline;overflow:visible;filter:url(#filter4412);enable-background:accumulate" />
      <path
         sodipodi:nodetypes="ccccccccccc"
         inkscape:connector-curvature="0"
         id="path3248-0"
         d="m 1243.7362,496.71337 c -11.5417,-47.01669 -92.4053,-25.47055 -111.7229,-62.9325 5.0806,6.70283 -3.3607,8.38666 18.3848,25.45584 -46.8924,-20.12799 -64.8484,39.9022 -110.3087,51.61879 l 25.4559,0 -29.6985,55.15433 c 40.3263,-57.03445 80.282,-33.23078 129.4005,-47.37615 l -26.87,22.62742 c 46.4018,-15.90769 91.5699,-24.90968 124.4508,19.09187 24.4269,-21.87043 0.3138,-59.21379 -10.6066,-86.26702 z"
         style="fill:#000000;stroke:#000000;stroke-width:1px;stroke-linecap:butt;stroke-linejoin:miter;stroke-opacity:1" />
      <path
         sodipodi:nodetypes="cccc"
         inkscape:connector-curvature="0"
         id="path3250-8"
         d="m 1058.4742,539.13978 c -13.8253,42.65338 9.1964,82.31365 9.8995,79.90306 -7.6015,-15.86674 -12.6685,-68.11249 14.1421,-94.75231 z"
         style="color:#000000;fill:#000000;fill-opacity:1;fill-rule:nonzero;stroke:#000000;stroke-width:1px;stroke-linecap:butt;stroke-linejoin:miter;stroke-miterlimit:4;stroke-opacity:1;stroke-dasharray:none;stroke-dashoffset:0;marker:none;visibility:visible;display:inline;overflow:visible;enable-background:accumulate" />
      <path
         transform="translate(730.39856,133.32373)"
         d="m 590,524.36218 c 0,16.01626 -14.10303,29 -31.5,29 -17.39697,0 -31.5,-12.98374 -31.5,-29 0,-16.01626 14.10303,-29 31.5,-29 17.39697,0 31.5,12.98374 31.5,29 z"
         sodipodi:ry="29"
         sodipodi:rx="31.5"
         sodipodi:cy="524.36218"
         sodipodi:cx="558.5"
         id="path3006-7-1"
         style="color:#000000;fill:#e9ddaf;fill-opacity:1;fill-rule:nonzero;stroke:#000000;stroke-width:5.7001152;stroke-linecap:butt;stroke-linejoin:miter;stroke-miterlimit:4;stroke-opacity:1;stroke-dasharray:none;stroke-dashoffset:0;marker:none;visibility:visible;display:inline;overflow:visible;enable-background:accumulate"
         sodipodi:type="arc" />
      <path
         sodipodi:nodetypes="ccccccccc"
         inkscape:connector-curvature="0"
         id="path4667"
         d="m 1068.4383,688.9093 3.182,18.73833 -21.2132,1.41421 c -15.4541,13.28913 -29.2236,33.42608 -50.91166,28.28427 l 26.87006,21.2132 31.4662,-40.65864 18.7384,6.36397 4.9497,-16.26346 z"
         style="opacity:0.4300518;color:#000000;fill:#554400;fill-opacity:1;fill-rule:nonzero;stroke:none;stroke-width:5.37994099;marker:none;visibility:visible;display:inline;overflow:visible;filter:url(#filter4692);enable-background:accumulate" />
      <path
         sodipodi:type="arc"
         style="color:#000000;fill:#e9ddaf;fill-opacity:1;fill-rule:nonzero;stroke:#000000;stroke-width:5.7001152;stroke-linecap:butt;stroke-linejoin:miter;stroke-miterlimit:4;stroke-opacity:1;stroke-dasharray:none;stroke-dashoffset:0;marker:none;visibility:visible;display:inline;overflow:visible;enable-background:accumulate"
         id="path3385"
         sodipodi:cx="558.5"
         sodipodi:cy="524.36218"
         sodipodi:rx="31.5"
         sodipodi:ry="29"
         d="m 590,524.36218 c 0,16.01626 -14.10303,29 -31.5,29 -17.39697,0 -31.5,-12.98374 -31.5,-29 0,-16.01626 14.10303,-29 31.5,-29 17.39697,0 31.5,12.98374 31.5,29 z"
         transform="translate(459.68427,206.89516)" />
      <path
         transform="matrix(0.96626637,-0.25754475,0.25754475,0.96626637,764.02714,266.8697)"
         d="m 199,572.86218 c 0,35.07008 -17.68475,63.5 -39.5,63.5 -21.81525,0 -39.5,-28.42992 -39.5,-63.5 0,-35.07008 17.68475,-63.5 39.5,-63.5 21.81525,0 39.5,28.42992 39.5,63.5 z"
         sodipodi:ry="63.5"
         sodipodi:rx="39.5"
         sodipodi:cy="572.86218"
         sodipodi:cx="159.5"
         id="path3151-8"
         style="color:#000000;fill:#333333;fill-opacity:1;fill-rule:nonzero;stroke:#000000;stroke-width:5.7001152;stroke-linecap:butt;stroke-linejoin:miter;stroke-miterlimit:4;stroke-opacity:1;stroke-dasharray:none;stroke-dashoffset:0;marker:none;visibility:visible;display:inline;overflow:visible;enable-background:accumulate"
         sodipodi:type="arc" />
      <path
         transform="matrix(0.98015385,0.19823833,-0.19823833,0.98015385,1191.413,180.71669)"
         d="m 199,572.86218 c 0,35.07008 -17.68475,63.5 -39.5,63.5 -21.81525,0 -39.5,-28.42992 -39.5,-63.5 0,-35.07008 17.68475,-63.5 39.5,-63.5 21.81525,0 39.5,28.42992 39.5,63.5 z"
         sodipodi:ry="63.5"
         sodipodi:rx="39.5"
         sodipodi:cy="572.86218"
         sodipodi:cx="159.5"
         id="path3151-4-2"
         style="color:#000000;fill:#333333;fill-opacity:1;fill-rule:nonzero;stroke:#000000;stroke-width:5.7001152;stroke-linecap:butt;stroke-linejoin:miter;stroke-miterlimit:4;stroke-opacity:1;stroke-dasharray:none;stroke-dashoffset:0;marker:none;visibility:visible;display:inline;overflow:visible;enable-background:accumulate"
         sodipodi:type="arc" />
      <path
         transform="matrix(0.74811357,-0.31809583,0.29307821,0.89794785,770.06636,319.66468)"
         d="m 199,572.86218 c 0,35.07008 -17.68475,63.5 -39.5,63.5 -21.81525,0 -39.5,-28.42992 -39.5,-63.5 0,-35.07008 17.68475,-63.5 39.5,-63.5 21.81525,0 39.5,28.42992 39.5,63.5 z"
         sodipodi:ry="63.5"
         sodipodi:rx="39.5"
         sodipodi:cy="572.86218"
         sodipodi:cx="159.5"
         id="path3151-40-5"
         style="color:#000000;fill:#4d4d4d;fill-opacity:1;fill-rule:nonzero;stroke:#000000;stroke-width:5.7001152;stroke-linecap:butt;stroke-linejoin:miter;stroke-miterlimit:4;stroke-opacity:1;stroke-dasharray:none;stroke-dashoffset:0;marker:none;visibility:visible;display:inline;overflow:visible;enable-background:accumulate"
         sodipodi:type="arc" />
      <path
         transform="matrix(-0.74811357,-0.31809583,-0.29307821,0.89794785,1528.9018,316.16469)"
         d="m 199,572.86218 c 0,35.07008 -17.68475,63.5 -39.5,63.5 -21.81525,0 -39.5,-28.42992 -39.5,-63.5 0,-35.07008 17.68475,-63.5 39.5,-63.5 21.81525,0 39.5,28.42992 39.5,63.5 z"
         sodipodi:ry="63.5"
         sodipodi:rx="39.5"
         sodipodi:cy="572.86218"
         sodipodi:cx="159.5"
         id="path3151-40-4-3"
         style="color:#000000;fill:#4d4d4d;fill-opacity:1;fill-rule:nonzero;stroke:#000000;stroke-width:5.7001152;stroke-linecap:butt;stroke-linejoin:miter;stroke-miterlimit:4;stroke-opacity:1;stroke-dasharray:none;stroke-dashoffset:0;marker:none;visibility:visible;display:inline;overflow:visible;enable-background:accumulate"
         sodipodi:type="arc" />
      <path
         sodipodi:nodetypes="ccc"
         inkscape:connector-curvature="0"
         id="path3260-4"
         d="m 1112.3911,793.34466 c 25.1612,5.26402 50.3224,8.33483 75.4837,-1.76776 -33.489,22.69417 -58.9331,10.97212 -75.4837,1.76776 z"
         style="color:#000000;fill:#000000;fill-opacity:1;fill-rule:nonzero;stroke:#000000;stroke-width:0.5px;stroke-linecap:butt;stroke-linejoin:miter;stroke-miterlimit:4;stroke-opacity:1;stroke-dasharray:none;stroke-dashoffset:0;marker:none;visibility:visible;display:inline;overflow:visible;enable-background:accumulate" />
      <path
         sodipodi:nodetypes="ccc"
         inkscape:connector-curvature="0"
         id="path3279-9"
         d="m 1102.6843,669.82877 -35,10 14.5,32.5"
         style="color:#000000;fill:#800000;fill-opacity:1;fill-rule:nonzero;stroke:#000000;stroke-width:5.7001152;stroke-linecap:butt;stroke-linejoin:miter;stroke-miterlimit:4;stroke-opacity:1;stroke-dasharray:none;stroke-dashoffset:0;marker:none;visibility:visible;display:inline;overflow:visible;enable-background:accumulate" />
      <path
         sodipodi:nodetypes="cccccccccccc"
         inkscape:connector-curvature="0"
         id="path4416"
         d="m 1088.2373,513.54682 c 33.4697,-8.99094 66.9395,-13.80228 100.4092,-7.77818 l -16.9706,14.14214 46.6691,-5.65686 45.9619,19.79899 -10.6066,-43.13351 -9.8995,20.50609 -89.0954,-53.033 12.7279,20.50609 c -35.1441,-18.79152 -64.3767,3.7973 -94.0452,23.33453 l 21.9203,2.82842 z"
         style="opacity:0.30917873;fill:url(#radialGradient4428);fill-opacity:1;stroke:none;filter:url(#filter4418)" />
      <path
         sodipodi:nodetypes="cccccc"
         inkscape:connector-curvature="0"
         id="path4493"
         d="m 1217.6379,831.74487 c -12.9956,-16.38444 -16.8801,-36.67366 -3.5356,-64.34672 l -11.3137,-10.6066 9.8995,2.12132 -13.435,-12.02082 c -3.1448,34.46635 -11.067,72.11755 18.3848,84.85282 z"
         style="opacity:0.34782607;color:#000000;fill:#000000;fill-opacity:1;fill-rule:nonzero;stroke:none;stroke-width:5.22946405;marker:none;visibility:visible;display:inline;overflow:visible;filter:url(#filter4512);enable-background:accumulate" />
      <path
         transform="matrix(-1,0,0,1,2224.5579,69.296465)"
         sodipodi:nodetypes="cccccc"
         inkscape:connector-curvature="0"
         id="path4493-4"
         d="m 1142.9565,774.46922 c -12.9956,-16.38444 -16.8801,-36.67366 -3.5356,-64.34672 l -11.3137,-10.6066 9.8995,2.12132 -13.435,-12.02082 c -3.1448,34.46635 -11.067,72.11755 18.3848,84.85282 z"
         style="opacity:0.34782607;color:#000000;fill:#000000;fill-opacity:1;fill-rule:nonzero;stroke:none;stroke-width:5.22946405;marker:none;visibility:visible;display:inline;overflow:visible;filter:url(#filter4512-5);enable-background:accumulate" />
      <path
         transform="matrix(-0.74811357,-0.31809583,-0.29307821,0.89794785,1528.9018,316.16469)"
         d="m 199,572.86218 c 0,35.07008 -17.68475,63.5 -39.5,63.5 -21.81525,0 -39.5,-28.42992 -39.5,-63.5 0,-35.07008 17.68475,-63.5 39.5,-63.5 21.81525,0 39.5,28.42992 39.5,63.5 z"
         sodipodi:ry="63.5"
         sodipodi:rx="39.5"
         sodipodi:cy="572.86218"
         sodipodi:cx="159.5"
         id="path3151-40-4-3-5"
         style="opacity:0.6956522;color:#000000;fill:url(#linearGradient4752);fill-opacity:1;fill-rule:nonzero;stroke:#000000;stroke-width:5.7001152;stroke-linecap:butt;stroke-linejoin:miter;stroke-miterlimit:4;stroke-opacity:1;stroke-dasharray:none;stroke-dashoffset:0;marker:none;visibility:visible;display:inline;overflow:visible;enable-background:accumulate"
         sodipodi:type="arc" />
      <path
         transform="matrix(0.74811357,-0.31809583,0.29307821,0.89794785,768.78243,319.6981)"
         d="m 199,572.86218 c 0,35.07008 -17.68475,63.5 -39.5,63.5 -21.81525,0 -39.5,-28.42992 -39.5,-63.5 0,-35.07008 17.68475,-63.5 39.5,-63.5 21.81525,0 39.5,28.42992 39.5,63.5 z"
         sodipodi:ry="63.5"
         sodipodi:rx="39.5"
         sodipodi:cy="572.86218"
         sodipodi:cx="159.5"
         id="path3151-40-4-3-5-7"
         style="opacity:0.6956522;color:#000000;fill:url(#linearGradient4769);fill-opacity:1;fill-rule:nonzero;stroke:#000000;stroke-width:5.7001152;stroke-linecap:butt;stroke-linejoin:miter;stroke-miterlimit:4;stroke-opacity:1;stroke-dasharray:none;stroke-dashoffset:0;marker:none;visibility:visible;display:inline;overflow:visible;enable-background:accumulate"
         sodipodi:type="arc" />
    </g>
  </g>
</svg>
