<?xml version="1.0" encoding="UTF-8" standalone="no"?>
<!-- Created with Inkscape (http://www.inkscape.org/) -->

<svg
   xmlns:dc="http://purl.org/dc/elements/1.1/"
   xmlns:cc="http://creativecommons.org/ns#"
   xmlns:rdf="http://www.w3.org/1999/02/22-rdf-syntax-ns#"
   xmlns:svg="http://www.w3.org/2000/svg"
   xmlns="http://www.w3.org/2000/svg"
   xmlns:xlink="http://www.w3.org/1999/xlink"
   xmlns:sodipodi="http://sodipodi.sourceforge.net/DTD/sodipodi-0.dtd"
   xmlns:inkscape="http://www.inkscape.org/namespaces/inkscape"
   width="411.41513"
   height="551.11963"
   id="svg7305"
   version="1.1"
   inkscape:version="0.48.3.1 r9886"
   sodipodi:docname="preso.svg">
  <defs
     id="defs7307">
    <inkscape:perspective
       sodipodi:type="inkscape:persp3d"
       inkscape:vp_x="0 : 240 : 1"
       inkscape:vp_y="0 : 1000 : 0"
       inkscape:vp_z="640 : 240 : 1"
       inkscape:persp3d-origin="320 : 160 : 1"
       id="perspective7313" />
    <inkscape:perspective
       id="perspective7230"
       inkscape:persp3d-origin="0.5 : 0.33333333 : 1"
       inkscape:vp_z="1 : 0.5 : 1"
       inkscape:vp_y="0 : 1000 : 0"
       inkscape:vp_x="0 : 0.5 : 1"
       sodipodi:type="inkscape:persp3d" />
    <inkscape:perspective
       id="perspective7570"
       inkscape:persp3d-origin="0.5 : 0.33333333 : 1"
       inkscape:vp_z="1 : 0.5 : 1"
       inkscape:vp_y="0 : 1000 : 0"
       inkscape:vp_x="0 : 0.5 : 1"
       sodipodi:type="inkscape:persp3d" />
    <inkscape:perspective
       id="perspective8532"
       inkscape:persp3d-origin="0.5 : 0.33333333 : 1"
       inkscape:vp_z="1 : 0.5 : 1"
       inkscape:vp_y="0 : 1000 : 0"
       inkscape:vp_x="0 : 0.5 : 1"
       sodipodi:type="inkscape:persp3d" />
    <linearGradient
       inkscape:collect="always"
       xlink:href="#linearGradient7005"
       id="linearGradient7011"
       x1="278.42331"
       y1="336.56107"
       x2="286.88333"
       y2="336.56107"
       gradientUnits="userSpaceOnUse" />
    <linearGradient
       inkscape:collect="always"
       id="linearGradient7005">
      <stop
         style="stop-color:#ffffff;stop-opacity:1;"
         offset="0"
         id="stop7007" />
      <stop
         style="stop-color:#ffffff;stop-opacity:0;"
         offset="1"
         id="stop7009" />
    </linearGradient>
    <linearGradient
       y2="336.56107"
       x2="286.88333"
       y1="336.56107"
       x1="278.42331"
       gradientUnits="userSpaceOnUse"
       id="linearGradient7036"
       xlink:href="#linearGradient7005-3"
       inkscape:collect="always" />
    <linearGradient
       inkscape:collect="always"
       id="linearGradient7005-3">
      <stop
         style="stop-color:#ffffff;stop-opacity:1;"
         offset="0"
         id="stop7007-3" />
      <stop
         style="stop-color:#ffffff;stop-opacity:0;"
         offset="1"
         id="stop7009-7" />
    </linearGradient>
    <linearGradient
       inkscape:collect="always"
       xlink:href="#linearGradient7005"
       id="linearGradient6757"
       gradientUnits="userSpaceOnUse"
       x1="278.42331"
       y1="336.56107"
       x2="286.88333"
       y2="336.56107" />
    <linearGradient
       inkscape:collect="always"
       xlink:href="#linearGradient7005-3"
       id="linearGradient6759"
       gradientUnits="userSpaceOnUse"
       x1="278.42331"
       y1="336.56107"
       x2="286.88333"
       y2="336.56107" />
    <inkscape:perspective
       id="perspective6818"
       inkscape:persp3d-origin="0.5 : 0.33333333 : 1"
       inkscape:vp_z="1 : 0.5 : 1"
       inkscape:vp_y="0 : 1000 : 0"
       inkscape:vp_x="0 : 0.5 : 1"
       sodipodi:type="inkscape:persp3d" />
    <inkscape:perspective
       id="perspective6858"
       inkscape:persp3d-origin="0.5 : 0.33333333 : 1"
       inkscape:vp_z="1 : 0.5 : 1"
       inkscape:vp_y="0 : 1000 : 0"
       inkscape:vp_x="0 : 0.5 : 1"
       sodipodi:type="inkscape:persp3d" />
    <inkscape:perspective
       id="perspective6858-4"
       inkscape:persp3d-origin="0.5 : 0.33333333 : 1"
       inkscape:vp_z="1 : 0.5 : 1"
       inkscape:vp_y="0 : 1000 : 0"
       inkscape:vp_x="0 : 0.5 : 1"
       sodipodi:type="inkscape:persp3d" />
    <inkscape:perspective
       id="perspective6889"
       inkscape:persp3d-origin="0.5 : 0.33333333 : 1"
       inkscape:vp_z="1 : 0.5 : 1"
       inkscape:vp_y="0 : 1000 : 0"
       inkscape:vp_x="0 : 0.5 : 1"
       sodipodi:type="inkscape:persp3d" />
    <inkscape:perspective
       id="perspective13690"
       inkscape:persp3d-origin="0.5 : 0.33333333 : 1"
       inkscape:vp_z="1 : 0.5 : 1"
       inkscape:vp_y="0 : 1000 : 0"
       inkscape:vp_x="0 : 0.5 : 1"
       sodipodi:type="inkscape:persp3d" />
    <inkscape:perspective
       id="perspective15424"
       inkscape:persp3d-origin="0.5 : 0.33333333 : 1"
       inkscape:vp_z="1 : 0.5 : 1"
       inkscape:vp_y="0 : 1000 : 0"
       inkscape:vp_x="0 : 0.5 : 1"
       sodipodi:type="inkscape:persp3d" />
    <inkscape:perspective
       id="perspective8783"
       inkscape:persp3d-origin="0.5 : 0.33333333 : 1"
       inkscape:vp_z="1 : 0.5 : 1"
       inkscape:vp_y="0 : 1000 : 0"
       inkscape:vp_x="0 : 0.5 : 1"
       sodipodi:type="inkscape:persp3d" />
  </defs>
  <sodipodi:namedview
     id="base"
     pagecolor="#ffffff"
     bordercolor="#666666"
     borderopacity="1.0"
     inkscape:pageopacity="0.0"
     inkscape:pageshadow="2"
     inkscape:zoom="0.38736264"
     inkscape:cx="-42.091636"
     inkscape:cy="374.56837"
     inkscape:current-layer="g11421"
     inkscape:document-units="px"
     showgrid="false"
     inkscape:window-width="1264"
     inkscape:window-height="715"
     inkscape:window-x="0"
     inkscape:window-y="48"
     inkscape:window-maximized="1"
     fit-margin-top="0"
     fit-margin-left="0"
     fit-margin-right="0"
     fit-margin-bottom="0" />
  <metadata
     id="metadata7310">
    <rdf:RDF>
      <cc:Work
         rdf:about="">
        <dc:format>image/svg+xml</dc:format>
        <dc:type
           rdf:resource="http://purl.org/dc/dcmitype/StillImage" />
        <dc:title></dc:title>
      </cc:Work>
    </rdf:RDF>
  </metadata>
  <g
     id="layer1"
     inkscape:label="Layer 1"
     inkscape:groupmode="layer"
     transform="translate(-24.15202,139.79176)">
    <g
       transform="matrix(4,0,0,4,-6801.7393,-5783.0642)"
       id="g11421">
      <rect
         transform="matrix(0.98058729,-0.19608306,-0.19608306,-0.98058729,0,0)"
         ry="1.3031615"
         y="-1861.9733"
         x="1448.1935"
         height="3.7259614"
         width="4.8878207"
         id="rect10149-1"
         style="color:#000000;fill:#666666;fill-opacity:1;fill-rule:nonzero;stroke:#000000;stroke-width:0.85173982px;stroke-linecap:butt;stroke-linejoin:miter;stroke-miterlimit:4;stroke-opacity:1;stroke-dasharray:none;stroke-dashoffset:0;marker:none;visibility:visible;display:inline;overflow:visible;enable-background:accumulate" />
      <rect
         transform="matrix(0.61436457,0.78902229,0.78902229,-0.61436457,0,0)"
         y="455.52557"
         x="2301.4343"
         height="3.125"
         width="3.4455128"
         id="rect9935"
         style="color:#000000;fill:#666666;fill-opacity:1;fill-rule:nonzero;stroke:#000000;stroke-width:0.85173982px;stroke-linecap:butt;stroke-linejoin:miter;stroke-miterlimit:4;stroke-opacity:1;stroke-dasharray:none;stroke-dashoffset:0;marker:none;visibility:visible;display:inline;overflow:visible;enable-background:accumulate" />
      <path
         id="path10027"
         d="m 1774.7644,1537.2792 2.0566,-1.7624 -0.7555,-1.0126 -2.0956,1.9745 0.7945,0.8005 z"
         style="opacity:0.21028035;color:#000000;fill:#000000;fill-opacity:1;fill-rule:nonzero;stroke:none;stroke-width:0.85173982px;marker:none;visibility:visible;display:inline;overflow:visible;enable-background:accumulate"
         inkscape:connector-curvature="0" />
      <path
         sodipodi:nodetypes="ccccc"
         id="rect9844-9"
         d="m 1779.1872,1535.1987 c -7.6274,0.062 -15.411,0.9712 -24.0836,6.7069 l -2.8805,-10.3436 c 6.7503,-4.5991 14.3259,-7.6713 24.0836,-6.7069 l 2.8805,10.3436 z"
         style="color:#000000;fill:#666666;fill-opacity:1;fill-rule:nonzero;stroke:#000000;stroke-width:0.85173982px;stroke-linecap:butt;stroke-linejoin:miter;stroke-miterlimit:4;stroke-opacity:1;stroke-dashoffset:0;marker:none;visibility:visible;display:inline;overflow:visible;enable-background:accumulate"
         inkscape:connector-curvature="0" />
      <rect
         transform="matrix(0.83267905,0.5537559,0.5537559,-0.83267905,0,0)"
         ry="1.3031615"
         y="-296.72275"
         x="2332.6995"
         height="3.7259614"
         width="4.8878207"
         id="rect10149"
         style="color:#000000;fill:#666666;fill-opacity:1;fill-rule:nonzero;stroke:#000000;stroke-width:0.85173982px;stroke-linecap:butt;stroke-linejoin:miter;stroke-miterlimit:4;stroke-opacity:1;stroke-dasharray:none;stroke-dashoffset:0;marker:none;visibility:visible;display:inline;overflow:visible;enable-background:accumulate" />
      <rect
         transform="matrix(0.97573567,0.21895184,0.21895184,-0.97573567,0,0)"
         ry="1.2620193"
         y="-1112.8788"
         x="2075.1118"
         height="2.5240386"
         width="4.6073718"
         id="rect10173"
         style="color:#000000;fill:#666666;fill-opacity:1;fill-rule:nonzero;stroke:#000000;stroke-width:0.85173982px;stroke-linecap:butt;stroke-linejoin:miter;stroke-miterlimit:4;stroke-opacity:1;stroke-dasharray:none;stroke-dashoffset:0;marker:none;visibility:visible;display:inline;overflow:visible;enable-background:accumulate" />
      <path
         transform="matrix(-1.4540078,0.15094832,0.29675927,2.224977,2018.4285,485.27201)"
         d="m 274.50895,450.3295 c 0,4.77695 -3.50502,8.64943 -7.82868,8.64943 -4.32366,0 -7.82869,-3.87248 -7.82869,-8.64943 0,-4.77695 3.50503,-8.64943 7.82869,-8.64943 4.32366,0 7.82868,3.87248 7.82868,8.64943 z"
         sodipodi:ry="8.6494312"
         sodipodi:rx="7.8286824"
         sodipodi:cy="450.3295"
         sodipodi:cx="266.68027"
         id="path6017-7-5-3-1-0-8-7-4-1-8-3-7-6-1-7-1"
         style="color:#000000;fill:#b3b3b3;fill-opacity:1;fill-rule:nonzero;stroke:#000000;stroke-width:0.47029972px;stroke-linecap:butt;stroke-linejoin:miter;stroke-miterlimit:4;stroke-opacity:1;stroke-dasharray:none;stroke-dashoffset:0;marker:none;visibility:visible;display:inline;overflow:visible;enable-background:accumulate"
         sodipodi:type="arc" />
      <path
         transform="matrix(1.4540078,0.15094832,-0.29675927,2.224977,1482.3024,486.23369)"
         d="m 274.50895,450.3295 c 0,4.77695 -3.50502,8.64943 -7.82868,8.64943 -4.32366,0 -7.82869,-3.87248 -7.82869,-8.64943 0,-4.77695 3.50503,-8.64943 7.82869,-8.64943 4.32366,0 7.82868,3.87248 7.82868,8.64943 z"
         sodipodi:ry="8.6494312"
         sodipodi:rx="7.8286824"
         sodipodi:cy="450.3295"
         sodipodi:cx="266.68027"
         id="path6017-6-6-5-9-9-2-8-1-7-9-5-18-8-1-8"
         style="color:#000000;fill:#b3b3b3;fill-opacity:1;fill-rule:nonzero;stroke:#000000;stroke-width:0.47029972px;stroke-linecap:butt;stroke-linejoin:miter;stroke-miterlimit:4;stroke-opacity:1;stroke-dasharray:none;stroke-dashoffset:0;marker:none;visibility:visible;display:inline;overflow:visible;enable-background:accumulate"
         sodipodi:type="arc" />
      <path
         sodipodi:nodetypes="ccccc"
         id="rect5545-7-1-48-4-4-2-1-0-1-4-9-79-7-7-7"
         d="m 1722.1536,1496.2536 c 19.2028,7.7947 37.2332,6.6803 54.5312,0 l 0,24.3792 c -21.496,11.1976 -39.6441,8.5306 -54.5312,0 l 0,-24.3792 z"
         style="color:#000000;fill:#cccccc;fill-opacity:1;fill-rule:nonzero;stroke:#000000;stroke-width:1px;stroke-linecap:butt;stroke-linejoin:miter;stroke-miterlimit:4;stroke-opacity:1;stroke-dasharray:none;stroke-dashoffset:0;marker:none;visibility:visible;display:inline;overflow:visible;enable-background:accumulate"
         inkscape:connector-curvature="0" />
      <path
         sodipodi:nodetypes="ccccc"
         id="path3059-3-0-7-6-2-3-7-8-2-2-9-2-9"
         d="m 1725.0987,1495.6172 -0.6403,4.0702 c 16.5239,4.1611 34.6084,6.9659 51.6013,-0.833 -0.331,-1.5445 -0.662,-2.9326 -0.993,-4.3119 l -49.968,1.0746 z"
         style="color:#000000;fill:#cccccc;fill-opacity:1;fill-rule:nonzero;stroke:none;stroke-width:1px;marker:none;visibility:visible;display:inline;overflow:visible;enable-background:accumulate"
         inkscape:connector-curvature="0" />
      <path
         sodipodi:nodetypes="ccccc"
         transform="translate(0,308.2677)"
         id="path10243"
         d="m 1725.3205,1220.2162 c 8.3328,4.3924 15.3175,5.0773 21.9551,4.8078 l -3.2051,7.0513 c -6.4103,-0.4784 -12.1795,-0.2907 -18.5898,-4.0065 -0.4458,-2.6175 -0.2126,-5.2351 -0.1602,-7.8526 z"
         style="color:#000000;fill:#333333;fill-opacity:1;fill-rule:nonzero;stroke:none;stroke-width:0.85173982px;marker:none;visibility:visible;display:inline;overflow:visible;enable-background:accumulate"
         inkscape:connector-curvature="0" />
      <g
         transform="translate(918.0011,-281.08555)"
         id="g5345-1-9-4-2-1-2-0-2-7-2">
        <path
           style="opacity:0.10280373;color:#000000;fill:#000000;fill-opacity:1;fill-rule:nonzero;stroke:none;stroke-width:1px;marker:none;visibility:visible;display:inline;overflow:visible;enable-background:accumulate"
           d="m 851.49762,1826.3689 c 3.6698,-6.0601 5.12801,-19.3924 -5.57041,-20.7057 l 9.82257,-3.2109 c 3.56449,7.7256 5.45336,18.3625 -4.25216,23.9166 z"
           id="path6197-8-2-6-8-5-2-0-3-0-7-2-8-2-0-2-0"
           sodipodi:nodetypes="cccc"
           inkscape:connector-curvature="0" />
        <path
           style="opacity:0.21028035;color:#000000;fill:#000000;fill-opacity:1;fill-rule:nonzero;stroke:none;stroke-width:1px;marker:none;visibility:visible;display:inline;overflow:visible;enable-background:accumulate"
           d="m 808.02524,1804.0691 c 7.57838,3.1434 14.95118,4.9505 22.05357,5 l -0.625,1.9643 c -7.96503,-0.1079 -15.47917,-1.3108 -21.78572,-5.4464 l 0.35715,-1.5179 z"
           id="path6139-0-8-9-6-1-6-9-3-2-9-9-3-2-2-2"
           sodipodi:nodetypes="ccccc"
           inkscape:connector-curvature="0" />
        <path
           style="opacity:0.21028035;color:#000000;fill:#000000;fill-opacity:1;fill-rule:nonzero;stroke:none;stroke-width:1px;marker:none;visibility:visible;display:inline;overflow:visible;enable-background:accumulate"
           d="m 856.46273,1803.1762 c -7.57838,3.1434 -14.95118,4.9505 -22.05357,5 l 0.625,1.9643 c 7.96503,-0.1079 15.47917,-1.3108 21.78572,-5.4464 l -0.35715,-1.5179 z"
           id="path6139-9-4-9-6-9-3-1-0-9-2-3-7-7-3-6-3"
           sodipodi:nodetypes="ccccc"
           inkscape:connector-curvature="0" />
        <path
           style="opacity:0.21028035;color:#000000;fill:#000000;fill-opacity:1;fill-rule:nonzero;stroke:none;stroke-width:1px;marker:none;visibility:visible;display:inline;overflow:visible;enable-background:accumulate"
           d="m 814.54309,1828.4441 c 6.08859,-3.6223 13.64534,-14.7026 4.82143,-20.8929 l 10.17857,1.7857 c -0.4874,8.4943 -3.8227,18.7698 -15,19.1072 z"
           id="path6197-17-7-2-2-3-5-8-1-6-9-3-5-7-1-7"
           sodipodi:nodetypes="cccc"
           inkscape:connector-curvature="0" />
        <path
           style="opacity:0.21028035;color:#000000;fill:#000000;fill-opacity:1;fill-rule:nonzero;stroke:none;stroke-width:1px;marker:none;visibility:visible;display:inline;overflow:visible;enable-background:accumulate"
           d="m 849.90811,1827.8852 c -6.08859,-3.6223 -13.64534,-14.7026 -4.82143,-20.8929 l -10.17857,1.7857 c 0.4874,8.4943 3.8227,18.7698 15,19.1072 z"
           id="path6197-1-9-3-1-2-3-9-8-9-1-0-6-9-59-0-5"
           sodipodi:nodetypes="cccc"
           inkscape:connector-curvature="0" />
        <path
           style="opacity:0.16309013;color:#000000;fill:#ffffff;fill-opacity:1;fill-rule:nonzero;stroke:none;stroke-width:1px;marker:none;visibility:visible;display:inline;overflow:visible;enable-background:accumulate"
           d="m 814.83004,1828.4342 c -4.24833,-5.6695 -7.01141,-18.7936 3.50584,-21.1534 l -10.09085,-2.2286 c -1.0655,5.7793 -2.98708,17.9792 6.58501,23.382 z"
           id="path6197-8-5-3-6-7-4-8-4-5-6-0-8-1-2-2-6-9"
           sodipodi:nodetypes="cccc"
           inkscape:connector-curvature="0" />
      </g>
      <path
         d="m 311.42858,356.41592 c 0,15.28646 -12.23222,27.67858 -27.32143,27.67858 -15.08921,0 -27.32143,-12.39212 -27.32143,-27.67858 0,-15.28645 12.23222,-27.67857 27.32143,-27.67857 15.08921,0 27.32143,12.39212 27.32143,27.67857 z"
         sodipodi:ry="27.678572"
         sodipodi:rx="27.321428"
         sodipodi:cy="356.41592"
         sodipodi:cx="284.10715"
         id="path5403-1-1-6-9-22-2-0-9-6-8-2-2-2-1-2"
         style="color:#000000;fill:#b3b3b3;fill-opacity:1;fill-rule:nonzero;stroke:#000000;stroke-width:0.85173982px;stroke-linecap:butt;stroke-linejoin:miter;stroke-miterlimit:4;stroke-opacity:1;stroke-dasharray:none;stroke-dashoffset:0;marker:none;visibility:visible;display:inline;overflow:visible;enable-background:accumulate"
         sodipodi:type="arc"
         transform="translate(1465.5117,1139.1513)" />
      <path
         sodipodi:nodetypes="ccccc"
         id="rect8785-0-6-1"
         d="m 1736.469,1470.6446 c 10.4357,5.0087 15.5532,4.4575 26.0163,-0.8179 0.4183,1.4372 3.9014,3.0818 3.9452,4.5188 -10.116,6.9284 -23.3248,8.8572 -34.163,0.4065 l 4.2015,-4.1074 z"
         style="color:#000000;fill:#333333;fill-opacity:1;fill-rule:nonzero;stroke:none;stroke-width:0.85173982px;marker:none;visibility:visible;display:inline;overflow:visible;enable-background:accumulate"
         inkscape:connector-curvature="0" />
      <path
         sodipodi:nodetypes="ccccc"
         id="rect5545-7-1-48-8-3-9-3-1-5-9-8-8-5-28"
         d="m 1722.2224,1496.6313 c 19.2028,7.7946 37.2332,6.6802 54.5312,0 l 1.5865,24.3791 c -21.496,11.1976 -41.2307,8.5306 -56.1177,0 l 0,-24.3791 z"
         style="color:#000000;fill:#b3b3b3;fill-opacity:1;fill-rule:nonzero;stroke:#000000;stroke-width:0.85173982px;stroke-linecap:butt;stroke-linejoin:miter;stroke-miterlimit:4;stroke-opacity:1;stroke-dasharray:none;stroke-dashoffset:0;marker:none;visibility:visible;display:inline;overflow:visible;enable-background:accumulate"
         inkscape:connector-curvature="0" />
      <path
         sodipodi:nodetypes="ccccc"
         id="rect8785"
         d="m 1722.2756,1512.6187 c 18.3291,9.9493 36.412,10.7601 55.1683,0.2003 l 0.5609,7.8125 c -17.9395,9.5497 -36.5089,10.9433 -55.7292,0 l 0,-8.0128 z"
         style="color:#000000;fill:#333333;fill-opacity:1;fill-rule:nonzero;stroke:none;stroke-width:0.85173982px;marker:none;visibility:visible;display:inline;overflow:visible;enable-background:accumulate"
         inkscape:connector-curvature="0" />
      <path
         sodipodi:nodetypes="ccccc"
         id="path3059-3-9-7-6-38-5-0-3-9-9-9-9"
         d="m 1725.1675,1495.9948 -0.6404,4.0702 c 16.524,4.1611 34.6084,6.966 51.6014,-0.8329 -0.331,-1.5445 -0.662,-2.9326 -0.993,-4.3119 l -49.968,1.0746 z"
         style="color:#000000;fill:#b3b3b3;fill-opacity:1;fill-rule:nonzero;stroke:none;stroke-width:0.85173982px;marker:none;visibility:visible;display:inline;overflow:visible;enable-background:accumulate"
         inkscape:connector-curvature="0" />
      <path
         sodipodi:nodetypes="ccccc"
         id="rect8785-0"
         d="m 1725.3071,1496.7503 c 17.6713,9.5923 32.2263,9.3326 50.3094,-0.8483 0.7146,2.4573 1.2537,7.2943 1.3283,9.7516 -17.2957,9.207 -34.467,10.7889 -52.9975,0.2384 l 1.3598,-9.1417 z"
         style="color:#000000;fill:#333333;fill-opacity:1;fill-rule:nonzero;stroke:none;stroke-width:0.85173982px;marker:none;visibility:visible;display:inline;overflow:visible;enable-background:accumulate"
         inkscape:connector-curvature="0" />
      <path
         sodipodi:nodetypes="ccccc"
         id="rect8785-0-6"
         d="m 1729.2512,1481.0588 c 15.6706,8.5063 26.0775,8.7473 42.1134,-0.281 0.6336,2.1792 2.8371,6.6248 2.9033,8.8037 -15.3376,8.1648 -31.1315,9.6809 -47.5641,0.3248 l 2.5474,-8.8475 z"
         style="color:#000000;fill:#333333;fill-opacity:1;fill-rule:nonzero;stroke:none;stroke-width:0.85173982px;marker:none;visibility:visible;display:inline;overflow:visible;enable-background:accumulate"
         inkscape:connector-curvature="0" />
      <rect
         y="1493.5037"
         x="1755.2137"
         height="9.6818666"
         width="16.674925"
         id="rect9740"
         style="color:#000000;fill:#b3b3b3;fill-opacity:1;fill-rule:nonzero;stroke:#000000;stroke-width:0.85173982px;stroke-linecap:butt;stroke-linejoin:miter;stroke-miterlimit:4;stroke-opacity:1;stroke-dasharray:none;stroke-dashoffset:0;marker:none;visibility:visible;display:inline;overflow:visible;enable-background:accumulate" />
      <path
         sodipodi:nodetypes="cccccc"
         id="path5975-5-7-7-47-4-4-7-3-0-6-1-1-7-0"
         d="m 1762.4889,1526.1819 c -3.3075,-0.044 3.9242,0.7161 -12.2883,1.339 -0.5109,0.024 -1.3155,0.261 -0.8194,0.1168 -12.1363,1.43 -10.1891,-1.3243 -11.7847,-0.6478 -4.491,-13.3796 3.5123,-48.8227 11.4175,-53.3025 11.0239,12.9543 13.9857,29.303 13.4749,52.4945 z"
         style="opacity:0.16309013;color:#000000;fill:#ffffff;fill-opacity:1;fill-rule:nonzero;stroke:none;stroke-width:1px;marker:none;visibility:visible;display:inline;overflow:visible;enable-background:accumulate"
         inkscape:connector-curvature="0" />
      <path
         sodipodi:nodetypes="cccccccc"
         id="path5951-5-5-3-3-9-3-0-9-9-1-7-7-4-7"
         d="m 1741.2658,1473.1831 c -10.7767,15.1409 -14.3255,42.4202 -7.6146,53.3269 l -11.8074,-5.5795 1.1263,-10.8729 c 1.779,-12.3923 3.704,-24.7221 8.75,-35.7144 l 4.2731,-2.8013 5.2726,1.6411 0,10e-5 z"
         style="opacity:0.21028035;fill:#000000;stroke:none"
         inkscape:connector-curvature="0" />
      <g
         id="text10277"
         style="font-size:8.28174019px;font-style:normal;font-weight:normal;line-height:125%;fill:#000000;fill-opacity:1;stroke:none;font-family:Seabird Light SF;-inkscape-font-specification:Seabird Light SF"
         transform="scale(1.1992303,0.83386822)">
        <path
           id="path10282"
           style="font-variant:normal;font-stretch:normal;text-align:start;line-height:125%;writing-mode:lr-tb;text-anchor:start;font-family:Skyscraper SF;-inkscape-font-specification:Skyscraper SF"
           d="m 1465.5522,1794.2446 -0.6211,0 0,-0.5135 1.234,0 0,6.4846 -0.6129,0 0,-5.9711"
           inkscape:connector-curvature="0" />
        <path
           id="path10284"
           style="font-variant:normal;font-stretch:normal;text-align:start;line-height:125%;writing-mode:lr-tb;text-anchor:start;font-family:Skyscraper SF;-inkscape-font-specification:Skyscraper SF"
           d="m 1468.8839,1800.2157 -1.8468,0 0,-2.9731 c 0.028,-0.099 0.086,-0.254 0.1739,-0.4638 0.088,-0.2098 0.2871,-0.3147 0.5963,-0.3147 l 0.4638,0 0,-2.2527 -0.6128,0 0,1.3665 -0.6212,0 0,-1.0766 c 0,-0.2816 0.066,-0.4886 0.1988,-0.6211 0.1325,-0.1325 0.3533,-0.1988 0.6625,-0.1988 0.077,0 0.1574,0 0.2402,0 0.077,0.017 0.2208,0.041 0.4306,0.075 0.2098,0.033 0.3147,0.2761 0.3147,0.7288 l 0,1.7144 c -0.028,0.099 -0.086,0.2539 -0.1739,0.4637 -0.088,0.2098 -0.2843,0.3147 -0.588,0.3147 l -0.4637,0 0,2.7247 0.6128,0 0,-1.648 0.6128,0 0,2.1615"
           inkscape:connector-curvature="0" />
        <path
           id="path10286"
           style="font-variant:normal;font-stretch:normal;text-align:start;line-height:125%;writing-mode:lr-tb;text-anchor:start;font-family:Skyscraper SF;-inkscape-font-specification:Skyscraper SF"
           d="m 1469.3581,1799.4703 0,-2.1781 c 0.039,-0.1159 0.086,-0.2318 0.1408,-0.3478 0.061,-0.1215 0.1435,-0.196 0.2484,-0.2236 -0.2595,-0.061 -0.3892,-0.2512 -0.3892,-0.5714 l 0,-1.6481 c 0,-0.2816 0.066,-0.4886 0.1987,-0.6211 0.1325,-0.1325 0.3506,-0.1988 0.6543,-0.1988 0.083,0 0.1656,0 0.2485,0 0.077,0.017 0.2208,0.041 0.4306,0.075 0.2098,0.033 0.3147,0.2761 0.3147,0.7288 l 0,1.6647 c -0.033,0.1214 -0.077,0.2401 -0.1325,0.3561 -0.055,0.1159 -0.138,0.1877 -0.2485,0.2153 0.254,0.066 0.381,0.2567 0.381,0.5714 l 0,2.1616 c 0,0.5466 -0.2788,0.8199 -0.8364,0.8199 -0.105,0 -0.301,-0.019 -0.5881,-0.058 -0.2815,-0.039 -0.4223,-0.2871 -0.4223,-0.7454 m 0.6211,0.2651 0.6129,0 0,-2.7579 -0.6129,0 0,2.7579 m 0,-3.2713 0.6129,0 0,-2.2527 -0.6129,0 0,2.2527"
           inkscape:connector-curvature="0" />
        <path
           id="path10288"
           style="font-variant:normal;font-stretch:normal;text-align:start;line-height:125%;writing-mode:lr-tb;text-anchor:start;font-family:Skyscraper SF;-inkscape-font-specification:Skyscraper SF"
           d="m 1472.5076,1794.2446 -0.6211,0 0,-0.5135 1.2339,0 0,6.4846 -0.6128,0 0,-5.9711"
           inkscape:connector-curvature="0" />
        <path
           id="path10290"
           style="font-variant:normal;font-stretch:normal;text-align:start;line-height:125%;writing-mode:lr-tb;text-anchor:start;font-family:Skyscraper SF;-inkscape-font-specification:Skyscraper SF"
           d="m 1474.5805,1800.2323 c -0.392,-0.05 -0.588,-0.3037 -0.588,-0.762 l 0.01,-4.969 c 0,-0.2816 0.066,-0.4886 0.1987,-0.6211 0.1325,-0.1325 0.3506,-0.1988 0.6543,-0.1988 0.066,0 0.1187,0 0.1573,0 0.044,0 0.1933,0.022 0.4473,0.066 0.2539,0.039 0.3809,0.2843 0.3809,0.737 l 0,1.0932 -0.6128,0 0,-1.3665 -0.6212,0 0,2.2527 0.4804,0 c 0.1656,0.05 0.3312,0.127 0.4969,0.2319 0.1711,0.099 0.2567,0.2815 0.2567,0.5466 l 0,2.2112 c 0,0.2705 -0.066,0.4748 -0.1987,0.6128 -0.1326,0.1381 -0.3424,0.2071 -0.6295,0.2071 -0.072,0 -0.1325,0 -0.1822,-0.01 -0.05,-0.01 -0.1325,-0.017 -0.2484,-0.033 m 0.025,-0.4969 0.6212,0 0,-2.7579 -0.6212,0 0,2.7579"
           inkscape:connector-curvature="0" />
      </g>
      <path
         sodipodi:nodetypes="ccccccc"
         id="path5951-4-9-9-1-1-2-8-5-4-6-9-3-3-9-3"
         d="m 1756.4258,1473.6052 c 10.7767,15.141 17.4032,40.5353 10.6923,51.442 l 10.7484,-4.3059 0.083,-10.9447 c 1.1697,-9.3035 -3.8022,-24.7842 -10.3365,-36.1675 l -5.2307,-2.4092 -5.9565,2.3852 z"
         style="opacity:0.21028035;fill:#000000;stroke:none"
         inkscape:connector-curvature="0" />
      <path
         transform="translate(1464.7558,1090.106)"
         d="m 311.42858,356.41592 c 0,15.28646 -12.23222,27.67858 -27.32143,27.67858 -15.08921,0 -27.32143,-12.39212 -27.32143,-27.67858 0,-15.28645 12.23222,-27.67857 27.32143,-27.67857 15.08921,0 27.32143,12.39212 27.32143,27.67857 z"
         sodipodi:ry="27.678572"
         sodipodi:rx="27.321428"
         sodipodi:cy="356.41592"
         sodipodi:cx="284.10715"
         id="path5403-5-2-3-2-8-5-6-9-3-4-6-6-0-6"
         style="color:#000000;fill:#d3bc5f;fill-opacity:1;fill-rule:nonzero;stroke:#000000;stroke-width:0.85173982px;stroke-linecap:butt;stroke-linejoin:miter;stroke-miterlimit:4;stroke-opacity:1;stroke-dasharray:none;stroke-dashoffset:0;marker:none;visibility:visible;display:inline;overflow:visible;enable-background:accumulate"
         sodipodi:type="arc" />
      <path
         sodipodi:nodetypes="cccc"
         id="path4675-4-4-9-6-6-0-8-7-1-1-9-1"
         d="m 1748.2925,1418.6887 c 37.7238,34.6194 4.4456,61.9404 -18.2143,47.1428 14.4032,16.1605 36.9969,7.4934 44.0765,-9.0944 9.729,-18.6259 -11.0213,-39.6277 -25.8622,-38.0484 z"
         style="opacity:0.3218884;color:#000000;fill:#000000;fill-opacity:1;fill-rule:nonzero;stroke:none;stroke-width:1px;marker:none;visibility:visible;display:inline;overflow:visible;enable-background:accumulate"
         inkscape:connector-curvature="0" />
      <path
         d="m 311.42858,356.41592 c 0,15.28646 -12.23222,27.67858 -27.32143,27.67858 -15.08921,0 -27.32143,-12.39212 -27.32143,-27.67858 0,-15.28645 12.23222,-27.67857 27.32143,-27.67857 15.08921,0 27.32143,12.39212 27.32143,27.67857 z"
         sodipodi:ry="27.678572"
         sodipodi:rx="27.321428"
         sodipodi:cy="356.41592"
         sodipodi:cx="284.10715"
         id="path5403-8-7-2-3-7-7-1-4-9-5-8-2-2-1-2"
         style="color:#000000;fill:#d3bc5f;fill-opacity:1;fill-rule:nonzero;stroke:#000000;stroke-width:2.9824748px;stroke-linecap:butt;stroke-linejoin:miter;stroke-miterlimit:4;stroke-opacity:1;stroke-dasharray:none;stroke-dashoffset:0;marker:none;visibility:visible;display:inline;overflow:visible;enable-background:accumulate"
         sodipodi:type="arc"
         transform="matrix(0.28558156,0,0,0.28558156,1634.0026,1410.3477)" />
      <path
         sodipodi:nodetypes="cccc"
         id="path5614-3-8-8-8-3-1-0-1-6-4-9-9-7-9"
         d="m 1731.363,1475.0557 c -18.707,7.4282 -21.9363,22.7378 -24.4643,33.2143 4.0464,4.0742 9.4668,4.8511 15.8928,3.2142 1.4042,-12.1428 2.9692,-24.2857 8.5715,-36.4285 z"
         style="color:#000000;fill:#b3b3b3;fill-opacity:1;fill-rule:nonzero;stroke:#000000;stroke-width:0.85173982px;stroke-linecap:butt;stroke-linejoin:miter;stroke-miterlimit:4;stroke-opacity:1;stroke-dasharray:none;stroke-dashoffset:0;marker:none;visibility:visible;display:inline;overflow:visible;enable-background:accumulate"
         inkscape:connector-curvature="0" />
      <path
         sodipodi:nodetypes="ccccc"
         id="path9670-5-4"
         d="m 1724.4504,1497.8569 c -2.7888,-0.5661 -10.0156,-4.7154 -11.239,-6.7973 -1.919,1.9248 -2.5166,5.2214 -3.2064,7.2246 2.6045,3.9363 10.1161,6.4934 13.4441,7.9359 l 1.0013,-8.3632 z"
         style="color:#000000;fill:#333333;fill-opacity:1;fill-rule:nonzero;stroke:none;stroke-width:0.85173982px;marker:none;visibility:visible;display:inline;overflow:visible;enable-background:accumulate"
         inkscape:connector-curvature="0" />
      <path
         sodipodi:nodetypes="ccccccc"
         id="path6893-1-9-3-4-6-5-0-7-1-5-3-3-7-3"
         d="m 1707.8238,1510.7788 7.7024,3.1567 c 1.7441,3.791 -0.8559,4.5159 -4.7982,4.2931 5.6024,3.2831 8.764,1.4134 11.3642,-1.6415 0.2,-2.0948 1.3099,-5.3096 -0.5051,-4.9245 -4.714,1.9194 -9.4281,-0.7095 -14.1421,-2.2728 l 0.3788,1.389 z"
         style="opacity:0.3218884;color:#000000;fill:#000000;fill-opacity:1;fill-rule:nonzero;stroke:none;stroke-width:1px;marker:none;visibility:visible;display:inline;overflow:visible;enable-background:accumulate"
         inkscape:connector-curvature="0" />
      <path
         sodipodi:nodetypes="ccccc"
         id="path9670-7"
         d="m 1727.8156,1484.9005 c -2.641,-1.0597 -4.3848,-2.7176 -5.2127,-4.986 -2.2346,1.5472 -4.2862,3.1401 -5.3259,4.986 1.852,4.3415 5.0323,6.0266 8.0456,8.0456 l 2.493,-8.0456 z"
         style="color:#000000;fill:#333333;fill-opacity:1;fill-rule:nonzero;stroke:none;stroke-width:0.85173982px;marker:none;visibility:visible;display:inline;overflow:visible;enable-background:accumulate"
         inkscape:connector-curvature="0" />
      <path
         sodipodi:nodetypes="cccc"
         id="path6260-6-1-8-3-2-8-6-1-5-3-9-9-1-1"
         d="m 1729.5575,1476.0315 c -8.8169,11.0433 -18.9,22.7054 -17.418,35.3945 -2.3606,-1.0675 -2.5986,-1.119 -3.9807,-2.3496 2.1075,-11.3955 8.1588,-24.8902 21.3987,-33.0449 z"
         style="opacity:0.16738197;color:#000000;fill:#ffffff;fill-opacity:1;fill-rule:nonzero;stroke:none;stroke-width:1px;marker:none;visibility:visible;display:inline;overflow:visible;enable-background:accumulate"
         inkscape:connector-curvature="0" />
      <g
         transform="translate(1384.1424,317.83445)"
         id="g7252-6-9-4-2-1-9-6-4-4-1-9">
        <path
           transform="matrix(0.28558156,0,0,0.28558156,320.72007,1092.4365)"
           sodipodi:type="arc"
           style="color:#000000;fill:#d3bc5f;fill-opacity:1;fill-rule:nonzero;stroke:#000000;stroke-width:2.9824748px;stroke-linecap:butt;stroke-linejoin:miter;stroke-miterlimit:4;stroke-opacity:1;stroke-dasharray:none;stroke-dashoffset:0;marker:none;visibility:visible;display:inline;overflow:visible;enable-background:accumulate"
           id="path5403-8-9-1-0-74-3-3-8-6-5-8-1-7-78-5-4"
           sodipodi:cx="284.10715"
           sodipodi:cy="356.41592"
           sodipodi:rx="27.321428"
           sodipodi:ry="27.678572"
           d="m 311.42858,356.41592 c 0,15.28646 -12.23222,27.67858 -27.32143,27.67858 -15.08921,0 -27.32143,-12.39212 -27.32143,-27.67858 0,-15.28645 12.23222,-27.67857 27.32143,-27.67857 15.08921,0 27.32143,12.39212 27.32143,27.67857 z" />
        <g
           id="g7249-2-1-1-7-9-4-0-8-4-9-7">
          <path
             sodipodi:nodetypes="ccccccc"
             id="path6893-5-9-7-1-0-9-0-5-7-8-6-4-5-7-8"
             d="m 394.43333,1196.0123 9.28418,-0.1603 c 2.54637,3.3061 0.35246,5.0395 -3.54014,5.7024 6.19396,1.9495 7.56368,-1.5833 9.41631,-5.1415 l -0.49794,-4.2634 c -4.16659,2.9233 -9.32622,1.5471 -14.2703,1.0756 -0.59629,1.8603 -0.26229,1.8599 -0.39211,2.7872 z"
             style="opacity:0.3218884;color:#000000;fill:#000000;fill-opacity:1;fill-rule:nonzero;stroke:none;stroke-width:1px;marker:none;visibility:visible;display:inline;overflow:visible;enable-background:accumulate"
             inkscape:connector-curvature="0" />
        </g>
      </g>
      <path
         sodipodi:nodetypes="cccc"
         id="path5614-3-8-8-8-3-1-0-1-6-4-9-9-5-7-4"
         d="m 1769.919,1476.5906 c 18.707,7.4282 21.9363,22.7378 24.4643,33.2143 -4.0464,4.0742 -9.4668,4.8511 -15.8928,3.2142 -1.4042,-12.1428 -2.9692,-24.2857 -8.5715,-36.4285 z"
         style="color:#000000;fill:#b3b3b3;fill-opacity:1;fill-rule:nonzero;stroke:#000000;stroke-width:0.85173982px;stroke-linecap:butt;stroke-linejoin:miter;stroke-miterlimit:4;stroke-opacity:1;stroke-dasharray:none;stroke-dashoffset:0;marker:none;visibility:visible;display:inline;overflow:visible;enable-background:accumulate"
         inkscape:connector-curvature="0" />
      <path
         sodipodi:nodetypes="ccccc"
         id="path9670-5"
         d="m 1777.138,1499.8946 c 2.7888,-0.5661 10.0156,-4.7154 11.239,-6.7973 1.919,1.9248 2.5166,5.2214 3.2064,7.2246 -2.6045,3.9363 -10.1161,6.4934 -13.4441,7.9359 l -1.0013,-8.3632 z"
         style="color:#000000;fill:#333333;fill-opacity:1;fill-rule:nonzero;stroke:none;stroke-width:0.85173982px;marker:none;visibility:visible;display:inline;overflow:visible;enable-background:accumulate"
         inkscape:connector-curvature="0" />
      <path
         sodipodi:nodetypes="ccccc"
         transform="translate(0,308.2677)"
         id="path9670"
         d="m 1773.7728,1178.6705 c 2.641,-1.0597 4.3848,-2.7176 5.2127,-4.986 2.2346,1.5472 4.2862,3.1401 5.3259,4.986 -1.852,4.3415 -5.0323,6.0266 -8.0456,8.0456 l -2.493,-8.0456 z"
         style="color:#000000;fill:#333333;fill-opacity:1;fill-rule:nonzero;stroke:none;stroke-width:0.85173982px;marker:none;visibility:visible;display:inline;overflow:visible;enable-background:accumulate"
         inkscape:connector-curvature="0" />
      <path
         sodipodi:nodetypes="cccc"
         id="path6260-4-2-2-5-5-8-4-8-7-3-0-36-6-6-5"
         d="m 1771.4094,1476.6424 c 8.8168,11.0434 18.3342,22.6627 16.8523,35.3518 1.9519,0.3219 2.6227,-1.3586 4.0049,-2.5892 -2.1076,-11.3955 -7.6174,-24.6078 -20.8572,-32.7626 z"
         style="opacity:0.12446355;color:#000000;fill:#000000;fill-opacity:1;fill-rule:nonzero;stroke:none;stroke-width:1px;marker:none;visibility:visible;display:inline;overflow:visible;enable-background:accumulate"
         inkscape:connector-curvature="0" />
      <rect
         y="1494.056"
         x="1756.1652"
         height="8.4637327"
         width="7.4064231"
         id="rect9740-8"
         style="opacity:0.42060086;color:#000000;fill:#ffffff;fill-opacity:1;fill-rule:nonzero;stroke:none;stroke-width:0.75454623px;marker:none;visibility:visible;display:inline;overflow:visible;enable-background:accumulate" />
      <rect
         transform="matrix(0.97573567,0.21895184,0.21895184,-0.97573567,0,0)"
         ry="1.2620193"
         y="-1112.2521"
         x="2069.2805"
         height="2.5240386"
         width="4.6073718"
         id="rect10173-2"
         style="color:#000000;fill:#666666;fill-opacity:1;fill-rule:nonzero;stroke:#000000;stroke-width:0.85173982px;stroke-linecap:butt;stroke-linejoin:miter;stroke-miterlimit:4;stroke-opacity:1;stroke-dasharray:none;stroke-dashoffset:0;marker:none;visibility:visible;display:inline;overflow:visible;enable-background:accumulate" />
      <path
         transform="matrix(0.96334206,-0.26827613,0.26827613,0.96334206,0,0)"
         sodipodi:nodetypes="ccccc"
         id="rect9844"
         d="m 1276.8738,1945.7778 c 7.3643,1.9869 15.1066,3.1988 25,0 l 0,10.7372 c -7.7367,2.6196 -15.8588,3.5468 -25,0 l 0,-10.7372 z"
         style="color:#000000;fill:#666666;fill-opacity:1;fill-rule:nonzero;stroke:#000000;stroke-width:0.85173982px;stroke-linecap:butt;stroke-linejoin:miter;stroke-miterlimit:4;stroke-opacity:1;stroke-dashoffset:0;marker:none;visibility:visible;display:inline;overflow:visible;enable-background:accumulate"
         inkscape:connector-curvature="0" />
      <path
         sodipodi:nodetypes="ccccccc"
         transform="translate(0,308.2677)"
         id="path9868"
         d="m 1758.3615,1225.131 2.0398,6.5725 -0.7933,-5.8925 2.3797,8.0456 -6.5724,0.2266 -2.2665,-8.7255 5.2127,-0.2267 z"
         style="opacity:0.21028035;color:#000000;fill:#000000;fill-opacity:1;fill-rule:nonzero;stroke:none;stroke-width:1px;marker:none;visibility:visible;display:inline;overflow:visible;enable-background:accumulate"
         inkscape:connector-curvature="0" />
      <path
         sodipodi:nodetypes="ccccccc"
         id="path9868-1"
         d="m 1773.4826,1538.5204 -3.4493,-7.1879 1.2742,5.8132 -2.4668,-6.1957 7.3271,-3.7686 2.5372,8.3545 -5.2224,2.9845 z"
         style="opacity:0.21028035;color:#000000;fill:#ffffff;fill-opacity:1;fill-rule:nonzero;stroke:none;stroke-width:1px;marker:none;visibility:visible;display:inline;overflow:visible;enable-background:accumulate"
         inkscape:connector-curvature="0" />
      <g
         transform="translate(0.88791373,-5.7925812)"
         id="g10022">
        <path
           sodipodi:type="arc"
           style="color:#000000;fill:#666666;fill-opacity:1;fill-rule:nonzero;stroke:#000000;stroke-width:0.85173982px;stroke-linecap:butt;stroke-linejoin:miter;stroke-miterlimit:4;stroke-opacity:1;stroke-dasharray:none;stroke-dashoffset:0;marker:none;visibility:visible;display:inline;overflow:visible;enable-background:accumulate"
           id="path9953"
           sodipodi:cx="1813.4615"
           sodipodi:cy="1227.9086"
           sodipodi:rx="12.980769"
           sodipodi:ry="12.980769"
           d="m 1826.4423,1227.9086 c 0,7.1691 -5.8117,12.9807 -12.9808,12.9807 -7.169,0 -12.9807,-5.8116 -12.9807,-12.9807 0,-7.1691 5.8117,-12.9808 12.9807,-12.9808 7.1691,0 12.9808,5.8117 12.9808,12.9808 z"
           transform="translate(-18.429487,313.07539)" />
        <path
           sodipodi:type="arc"
           style="opacity:0.36480689;color:#000000;fill:#000000;fill-opacity:1;fill-rule:nonzero;stroke:none;stroke-width:1.17533648px;marker:none;visibility:visible;display:inline;overflow:visible;enable-background:accumulate"
           id="path9953-9"
           sodipodi:cx="1813.4615"
           sodipodi:cy="1227.9086"
           sodipodi:rx="12.980769"
           sodipodi:ry="12.980769"
           d="m 1826.4423,1227.9086 c 0,7.1691 -5.8117,12.9807 -12.9808,12.9807 -7.169,0 -12.9807,-5.8116 -12.9807,-12.9807 0,-7.1691 5.8117,-12.9808 12.9807,-12.9808 7.1691,0 12.9808,5.8117 12.9808,12.9808 z"
           transform="matrix(0.85082018,0,0,0.85082018,252.78226,497.84103)" />
        <path
           sodipodi:type="arc"
           style="color:#000000;fill:#666666;fill-opacity:1;fill-rule:nonzero;stroke:none;stroke-width:0.85173982px;marker:none;visibility:visible;display:inline;overflow:visible;enable-background:accumulate"
           id="path9953-6"
           sodipodi:cx="1813.4615"
           sodipodi:cy="1227.9086"
           sodipodi:rx="12.980769"
           sodipodi:ry="12.980769"
           d="m 1826.4423,1227.9086 c 0,7.1691 -5.8117,12.9807 -12.9808,12.9807 -7.169,0 -12.9807,-5.8116 -12.9807,-12.9807 0,-7.1691 5.8117,-12.9808 12.9807,-12.9808 7.1691,0 12.9808,5.8117 12.9808,12.9808 z"
           transform="matrix(0.38974522,0,0,0.3722858,1084.4925,1077.6824)" />
      </g>
      <path
         transform="translate(0,308.2677)"
         id="path10219"
         d="m 1762.101,1233.6866 -2.153,-7.5357 1.6998,7.3657 0.4532,0.17 z"
         style="fill:#000000;stroke:none"
         inkscape:connector-curvature="0" />
      <path
         sodipodi:nodetypes="cccc"
         id="path10219-2"
         d="m 1768.7302,1530.7075 2.3796,6.3459 -1.9264,-6.1759 -0.4532,-0.17 z"
         style="fill:#000000;stroke:none"
         inkscape:connector-curvature="0" />
      <path
         transform="translate(0,308.2677)"
         id="path10292"
         d="m 1778.8862,1228.4695 -0.7211,1.0817 2.1634,0.1603 0.5609,1.3221 0.7212,0 1.1218,0.3205 0.08,-1.242 0.8814,2.5241 -1.7227,-0.2404 -0.8815,0 -2.2035,-1.4423 -3.125,-1.4423 2.484,-1.4023 0.641,0.3606 z"
         style="opacity:0.36480689;color:#000000;fill:#000000;fill-opacity:1;fill-rule:nonzero;stroke:none;stroke-width:1px;marker:none;visibility:visible;display:inline;overflow:visible;enable-background:accumulate"
         inkscape:connector-curvature="0" />
      <path
         sodipodi:nodetypes="ccccc"
         transform="translate(0,308.2677)"
         id="path10315"
         d="m 1774.359,1231.2339 0.4407,-1.0817 c -5.2083,2.0766 -10.4167,3.9224 -15.625,4.2067 l 0.5609,0.7212 c 5.289,0.035 9.728,-0.8768 14.6234,-3.8462 z"
         style="opacity:0.36480689;color:#000000;fill:#000000;fill-opacity:1;fill-rule:nonzero;stroke:none;stroke-width:1px;marker:none;visibility:visible;display:inline;overflow:visible;enable-background:accumulate"
         inkscape:connector-curvature="0" />
      <path
         id="path10219-1"
         d="m 1733.2475,1526.4221 0.7775,-13.8249 -1.4351,13.2782 0.6576,0.5467 z"
         style="fill:#000000;stroke:none"
         inkscape:connector-curvature="0" />
      <path
         id="path10219-9"
         d="m 1756.4556,1473.2738 2.153,7.5357 -1.6998,-7.3657 -0.4532,-0.17 z"
         style="fill:#000000;stroke:none"
         inkscape:connector-curvature="0" />
      <path
         sodipodi:nodetypes="ccccc"
         id="rect6592-5-1"
         d="m 1723.3033,1415.4728 c 16.7351,-5.5753 33.6807,-5.7012 50.8514,0 l 0,21.9943 c -14.0931,3.4433 -28.6367,6.3434 -50.8514,0 l 0,-21.9943 z"
         style="color:#000000;fill:#b3b3b3;fill-opacity:1;fill-rule:nonzero;stroke:#000000;stroke-width:0.85173982px;stroke-linecap:butt;stroke-linejoin:miter;stroke-miterlimit:4;stroke-opacity:1;stroke-dasharray:none;stroke-dashoffset:0;marker:none;visibility:visible;display:inline;overflow:visible;enable-background:accumulate"
         inkscape:connector-curvature="0" />
      <path
         sodipodi:nodetypes="ccccc"
         id="rect11350"
         d="m 1723.7331,1427.7552 c 16.1557,2.9693 32.5648,3.5032 49.9264,-0.1602 l 0,8.3305 c -15.9378,3.5363 -32.3456,4.5585 -50.0867,-0.3205 l 0.1603,-7.8498 z"
         style="color:#000000;fill:#333333;fill-opacity:1;fill-rule:nonzero;stroke:none;stroke-width:0.85173982px;marker:none;visibility:visible;display:inline;overflow:visible;enable-background:accumulate"
         inkscape:connector-curvature="0" />
      <path
         sodipodi:nodetypes="ccccc"
         id="rect11350-8"
         d="m 1723.6621,1416.0319 c 16.1557,2.9693 32.5648,3.5032 49.9264,-0.1602 l 0,8.3305 c -15.9378,3.5363 -32.3456,4.5585 -50.0867,-0.3205 l 0.1603,-7.8498 z"
         style="color:#000000;fill:#333333;fill-opacity:1;fill-rule:nonzero;stroke:none;stroke-width:0.85173982px;marker:none;visibility:visible;display:inline;overflow:visible;enable-background:accumulate"
         inkscape:connector-curvature="0" />
      <path
         sodipodi:nodetypes="ccccc"
         id="rect6592-8-3-7"
         d="m 1725.9873,1419.5588 c 15.1198,-4.7092 30.43,-4.8157 45.9435,0 l 0,18.5782 c -12.7328,2.9084 -25.8729,5.3581 -45.9435,0 l 0,-18.5782 z"
         style="opacity:0.15450643;color:#000000;fill:#000000;fill-opacity:1;fill-rule:nonzero;stroke:none;stroke-width:0.75115097px;marker:none;visibility:visible;display:inline;overflow:visible;enable-background:accumulate"
         inkscape:connector-curvature="0" />
      <path
         sodipodi:nodetypes="ccccc"
         id="rect6592-8-4-2-5"
         d="m 1748.9963,1415.9868 c 7.5959,0.01 15.2401,1.1835 22.9345,3.572 l 0,18.5782 c -7.2144,1.6479 -14.5595,3.1485 -23.222,3.1651 0.8272,-0.2538 -0.6479,-23.7612 0.2876,-25.3153 z"
         style="opacity:0.25321889;color:#000000;fill:#000000;fill-opacity:1;fill-rule:nonzero;stroke:none;stroke-width:0.75115097px;marker:none;visibility:visible;display:inline;overflow:visible;enable-background:accumulate"
         inkscape:connector-curvature="0" />
    </g>
  </g>
</svg>
