<?xml version="1.0" encoding="UTF-8" standalone="no"?>
<!-- Created with Inkscape (http://www.inkscape.org/) -->

<svg
   xmlns:dc="http://purl.org/dc/elements/1.1/"
   xmlns:cc="http://creativecommons.org/ns#"
   xmlns:rdf="http://www.w3.org/1999/02/22-rdf-syntax-ns#"
   xmlns:svg="http://www.w3.org/2000/svg"
   xmlns="http://www.w3.org/2000/svg"
   xmlns:sodipodi="http://sodipodi.sourceforge.net/DTD/sodipodi-0.dtd"
   xmlns:inkscape="http://www.inkscape.org/namespaces/inkscape"
   width="664.95453"
   height="607.3454"
   id="svg12433"
   version="1.1"
   inkscape:version="0.48.3.1 r9886"
   sodipodi:docname="tenista.svg"
   inkscape:export-filename="/home/vhzc/Docs/FOCA/public_html/personajes_y_oficios/tenista.png"
   inkscape:export-xdpi="90"
   inkscape:export-ydpi="90">
  <defs
     id="defs12435" />
  <sodipodi:namedview
     id="base"
     pagecolor="#ffffff"
     bordercolor="#666666"
     borderopacity="1.0"
     inkscape:pageopacity="0.0"
     inkscape:pageshadow="2"
     inkscape:zoom="0.35"
     inkscape:cx="558.01633"
     inkscape:cy="366.09285"
     inkscape:document-units="px"
     inkscape:current-layer="g12236"
     showgrid="false"
     fit-margin-top="0"
     fit-margin-left="0"
     fit-margin-right="0"
     fit-margin-bottom="0"
     inkscape:window-width="1264"
     inkscape:window-height="715"
     inkscape:window-x="0"
     inkscape:window-y="48"
     inkscape:window-maximized="1" />
  <metadata
     id="metadata12438">
    <rdf:RDF>
      <cc:Work
         rdf:about="">
        <dc:format>image/svg+xml</dc:format>
        <dc:type
           rdf:resource="http://purl.org/dc/dcmitype/StillImage" />
        <dc:title></dc:title>
      </cc:Work>
    </rdf:RDF>
  </metadata>
  <g
     inkscape:label="Capa 1"
     inkscape:groupmode="layer"
     id="layer1"
     transform="translate(-117.95383,-222.06524)">
    <g
       transform="translate(209.7695,-695.12574)"
       id="g12236">
      <path
         inkscape:connector-curvature="0"
         id="rect11933"
         transform="translate(-70.25146,70.721507)"
         d="m 105.09375,890.5 c -9.403958,0.42951 -18.996857,1.89084 -28.5625,4.46875 L 199.4375,938.125 c -3.96032,-7.36205 -8.94226,-13.93461 -14.75,-19.6875 L 105.09375,890.5 z M 59.625,900.71875 c -2.091391,0.86145 -4.174976,1.77735 -6.25,2.75 -3.76833,1.76638 -7.387911,3.68187 -10.90625,5.71875 L 208.75,967.59375 c -0.63547,-5.30366 -1.80524,-10.57256 -3.46875,-15.71875 L 59.625,900.71875 z M 30.71875,916.75 c -4.398596,3.17446 -8.527414,6.5536 -12.40625,10.125 l 189.65625,66.59375 c 0.80588,-4.66413 1.26031,-9.35832 1.34375,-14.03125 L 30.71875,916.75 z M 9.75,935.53125 c -3.2683878,3.6304 -6.2755162,7.42714 -9.03125,11.3125 l 200.0625,70.28125 c 1.85268,-4.2201 3.42384,-8.5127 4.6875,-12.8438 L 9.75,935.53125 z m -15.15625,20.875 c -2.3149881,4.03297 -4.363599,8.15509 -6.125,12.34375 l 199.71875,70.1562 c 2.80492,-3.8358 5.34916,-7.8027 7.625,-11.8437 L -5.40625,956.40625 z m -9.875,22.71875 c -1.338542,4.43411 -2.368809,8.91052 -3.0625,13.40625 l 188.5,66.21875 c 3.82224,-3.4155 7.4086,-7.0136 10.71875,-10.75 L -15.28125,979.125 z m -4.09375,24.7188 c -0.14469,4.9481 0.114065,9.895 0.8125,14.7812 l 164.09375,57.625 c 5.13879,-2.8672 9.99961,-5.9997 14.59375,-9.375 l -179.5,-63.0312 z m 3.65625,27.4687 c 1.121738,3.643 2.503822,7.256 4.15625,10.7813 1.02027,2.1766 2.1255402,4.2932 3.3125,6.3437 l 118.65625,41.6563 c 7.09545,-1.7435 14.20895,-4.0606 21.21875,-7.0313 l -147.34375,-51.75 z m 19.40625,33 c 20.09924,20.9607 50.869458,31.5071 83.625,29.375 l -83.625,-29.375 z"
         style="color:#000000;fill:none;stroke:#000000;stroke-width:4.28284693px;marker:none;visibility:visible;display:inline;overflow:visible;enable-background:accumulate" />
      <path
         inkscape:connector-curvature="0"
         id="rect11933-4"
         transform="translate(-70.25146,70.721507)"
         d="m 109.1875,890.34375 c -4.35821,0.059 -8.75708,0.38973 -13.1875,0.90625 l -67.21875,191.375 c 4.050889,2.0227 8.283903,3.7877 12.65625,5.2812 l 69.375,-197.56245 c -0.54523,3.1e-4 -1.07827,-0.007 -1.625,0 z m 13.125,0.53125 -70.25,200.0312 c 4.463797,1.0365 9.022027,1.8364 13.6875,2.3438 L 136.0625,893 c -4.48031,-0.9632 -9.07673,-1.68953 -13.75,-2.125 z m -38.71875,2.40625 c -5.354905,1.14209 -10.726164,2.60381 -16.0625,4.4375 l -59.875,170.46875 c 3.541819,3.246 7.350861,6.1854 11.40625,8.8437 L 83.59375,893.28125 z m 63.125,2.5625 -69.5625,198.09375 c 4.857536,0.073 9.790326,-0.1252 14.75,-0.625 l 67.5625,-192.4375 c -4.08198,-1.94281 -8.35744,-3.61545 -12.75,-5.03125 z M 53.9375,903.1875 c -0.188851,0.0875 -0.373801,0.1928 -0.5625,0.28125 -6.150402,2.88296 -11.962896,6.13628 -17.4375,9.71875 L -10.25,1044.75 c 2.665424,5.1958 5.804705,10.0112 9.40625,14.4375 l 54.78125,-156 z M 169.25,906.25 104.1875,1091.4688 c 5.32141,-1.045 10.65588,-2.399 15.96875,-4.125 L 180.75,914.78125 c -3.58298,-3.13413 -7.4238,-5.97609 -11.5,-8.53125 z m 20.125,17.25 -55.71875,158.6875 c 0.96545,-0.4268 1.91332,-0.893 2.875,-1.3437 5.21817,-2.446 10.20301,-5.1696 14.9375,-8.125 L 199,937.375 c -2.75627,-4.99724 -5.98261,-9.62435 -9.625,-13.875 z M 19.96875,925.375 C 9.5713301,934.6289 1.0185318,945.18073 -5.4375,956.4375 l -13.09375,37.25 c -0.0043,0.0305 0.0043,0.0633 0,0.0937 -1.661353,11.8113 -1.027268,23.7056 2.125,35.1563 l 36.375,-103.56255 z m 185.46875,26.9375 -38.28125,109.0313 c 9.35717,-7.8757 17.33348,-16.7758 23.75,-26.3126 l 18.28125,-52.0937 c 0.59094,-10.34734 -0.5966,-20.67904 -3.75,-30.625 z"
         style="color:#000000;fill:none;stroke:#000000;stroke-width:4.28284693px;marker:none;visibility:visible;display:inline;overflow:visible;enable-background:accumulate" />
      <path
         sodipodi:nodetypes="scccccccs"
         inkscape:connector-curvature="0"
         id="path9024-5"
         d="m 352.32636,917.21285 c -21.58158,0.74979 -42.53161,21.14006 -62.03125,74.8125 l 22.21875,46.46875 c 33.91932,-7.246 74.34796,9.8878 113.125,28.9688 l -0.84375,0.031 c 31.53138,22.7567 77.77506,56.3566 110.5,44.5 -26.38468,4.3341 -51.78203,-8.3554 -72.46875,-26.0313 59.02662,28.7796 106.9975,43.7748 110.3125,-47.4687 -58.35319,123.8075 -143.73542,-123.95917 -220.8125,-121.28135 z"
         style="color:#000000;fill:#000000;fill-opacity:1;fill-rule:nonzero;stroke:none;stroke-width:3.56324148px;marker:none;visibility:visible;display:inline;overflow:visible;enable-background:accumulate" />
      <path
         inkscape:transform-center-y="-1.6163402"
         inkscape:transform-center-x="-51.511593"
         d="m 311.42858,356.41592 c 0,15.28646 -12.23222,27.67858 -27.32143,27.67858 -15.08921,0 -27.32143,-12.39212 -27.32143,-27.67858 0,-15.28645 12.23222,-27.67857 27.32143,-27.67857 15.08921,0 27.32143,12.39212 27.32143,27.67857 z"
         sodipodi:ry="27.678572"
         sodipodi:rx="27.321428"
         sodipodi:cy="356.41592"
         sodipodi:cx="284.10715"
         id="path5403-8-9-1-0-74-3-3-8-6-5-8-1-7-78-5-8-6-1"
         style="color:#000000;fill:#d3bc5f;fill-opacity:1;fill-rule:nonzero;stroke:#000000;stroke-width:2.9824748px;stroke-linecap:butt;stroke-linejoin:miter;stroke-miterlimit:4;stroke-opacity:1;stroke-dasharray:none;stroke-dashoffset:0;marker:none;visibility:visible;display:inline;overflow:visible;enable-background:accumulate"
         sodipodi:type="arc"
         transform="matrix(-0.18604328,1.1270747,1.1270747,0.18604328,150.42397,887.45168)" />
      <g
         inkscape:transform-center-y="-0.063063838"
         inkscape:transform-center-x="-54.619643"
         transform="matrix(-0.65145398,3.9465945,3.9465945,0.65145398,-3952.0458,-1089.9725)"
         id="g7249-2-1-1-7-9-4-0-8-4-9-4-0-3">
        <path
           inkscape:connector-curvature="0"
           style="opacity:0.3218884;color:#000000;fill:#000000;fill-opacity:1;fill-rule:nonzero;stroke:none;stroke-width:1px;marker:none;visibility:visible;display:inline;overflow:visible;enable-background:accumulate"
           d="m 394.43333,1196.0123 c 3.4165,-2.1521 6.87955,-4.1506 11.33584,-2.872 2.54637,3.3061 -1.6992,7.7512 -5.5918,8.4141 6.19396,1.9495 7.56368,-1.5833 9.41631,-5.1415 l -0.49794,-4.2634 c -1.50625,-6.3546 -8.65071,-2.8714 -14.2703,1.0756 -0.59629,1.8603 -0.26229,1.8599 -0.39211,2.7872 z"
           id="path6893-5-9-7-1-0-9-0-5-7-8-6-4-5-7-7-4-2"
           sodipodi:nodetypes="ccccccc" />
      </g>
      <path
         id="path3428-0-1-6"
         d="m 319.70136,1196.8691 c -4.59503,0.072 -9.23949,0.4496 -13.90625,1.125 -59.73447,8.6452 -93.9145,58.1097 -85.15625,118.625 0.46073,3.1834 0.34913,11.9547 1.0625,15.0313 l 0.84375,93.0625 c 91.51296,32.0125 168.10981,10.1436 222.15625,-32.1563 l -12.375,-85.5625 54.09375,-4.375 c -30.3177,-16.2172 4.78057,-38.9338 16.5,-56.5 l -123.75,-32.4687 c -17.42046,-10.9895 -37.94339,-17.1181 -59.46875,-16.7813 z"
         style="color:#000000;fill:#d3bc5f;fill-opacity:1;fill-rule:nonzero;stroke:#000000;stroke-width:3.4069593px;stroke-linecap:butt;stroke-linejoin:miter;stroke-miterlimit:4;stroke-opacity:1;stroke-dasharray:none;stroke-dashoffset:0;marker:none;visibility:visible;display:inline;overflow:visible;enable-background:accumulate"
         inkscape:connector-curvature="0" />
      <path
         transform="matrix(3.1184809,-4.9462978,7.4524289,5.0078661,-3758.5429,494.76123)"
         d="m 274.50895,450.3295 c 0,4.77695 -3.50502,8.64943 -7.82868,8.64943 -4.32366,0 -7.82869,-3.87248 -7.82869,-8.64943 0,-4.77695 3.50503,-8.64943 7.82869,-8.64943 4.32366,0 7.82868,3.87248 7.82868,8.64943 z"
         sodipodi:ry="8.6494312"
         sodipodi:rx="7.8286824"
         sodipodi:cy="450.3295"
         sodipodi:cx="266.68027"
         id="path6017-7-5-3-1-0-8-7-4-1-8-3-7-6-1-7-0-0-0"
         style="color:#000000;fill:#d3bc5f;fill-opacity:1;fill-rule:nonzero;stroke:#000000;stroke-width:0.47029972px;stroke-linecap:butt;stroke-linejoin:miter;stroke-miterlimit:4;stroke-opacity:1;stroke-dasharray:none;stroke-dashoffset:0;marker:none;visibility:visible;display:inline;overflow:visible;enable-background:accumulate"
         sodipodi:type="arc" />
      <path
         transform="matrix(0.54777581,-0.83662517,0.83662517,0.54777581,-240.64253,1498.6933)"
         d="m 446.07143,560.02856 c 0,10.94708 -11.67258,19.82143 -26.07143,19.82143 -14.39885,0 -26.07143,-8.87435 -26.07143,-19.82143 0,-10.94707 11.67258,-19.82142 26.07143,-19.82142 14.39885,0 26.07143,8.87435 26.07143,19.82142 z"
         sodipodi:ry="19.821428"
         sodipodi:rx="26.071428"
         sodipodi:cy="560.02856"
         sodipodi:cx="420"
         id="path8386-0-6"
         style="color:#000000;fill:#cccccc;fill-opacity:1;fill-rule:nonzero;stroke:#000000;stroke-width:3.4069593px;stroke-linecap:butt;stroke-linejoin:miter;stroke-miterlimit:4;stroke-opacity:1;stroke-dasharray:none;stroke-dashoffset:0;marker:none;visibility:visible;display:inline;overflow:visible;enable-background:accumulate"
         sodipodi:type="arc" />
      <path
         inkscape:connector-curvature="0"
         id="path8386-0-8-9"
         d="m 452.2223,1438.235 c -2.88591,1.8212 -5.55296,4.3814 -7.68079,7.6312 -6.25349,9.551 -5.4527,21.162 1.8087,25.9164 7.26145,4.7543 18.22586,0.8544 24.47935,-8.6966 0.80316,-1.2267 1.48523,-2.4907 2.05645,-3.7661 -4.5574,2.406 -9.59387,3.2112 -13.9988,1.8583 -8.7786,-2.6963 -11.75577,-12.9646 -6.66491,-22.9432 z"
         style="opacity:0.21028035;color:#000000;fill:#000000;fill-opacity:1;fill-rule:nonzero;stroke:none;stroke-width:1px;marker:none;visibility:visible;display:inline;overflow:visible;enable-background:accumulate" />
      <path
         id="path6017-7-5-3-1-0-8-7-4-1-8-3-7-6-1-7-0-6-2-6"
         d="m 418.54877,1477.7072 c 31.53918,15.9508 63.29066,15.1311 75.04672,-3.5155 11.5763,-18.3615 -0.017,-48.0324 -26.05447,-71.1983 5.30678,13.8306 6.22363,28.281 1.60015,41.2626 -7.3819,20.7266 -27.06449,32.6106 -50.5924,33.4512 z"
         style="color:#000000;fill:#cccccc;fill-opacity:1;fill-rule:nonzero;stroke:#000000;stroke-width:3.4069593px;stroke-linecap:butt;stroke-linejoin:miter;stroke-miterlimit:4;stroke-opacity:1;stroke-dasharray:none;stroke-dashoffset:0;marker:none;visibility:visible;display:inline;overflow:visible;enable-background:accumulate"
         inkscape:connector-curvature="0" />
      <path
         sodipodi:nodetypes="cccc"
         id="path6197-8-2-6-8-5-2-0-3-0-7-2-8-2-0-2-5-2-8"
         d="m 483.72055,1480.9882 c -28.23526,2.4179 -78.62752,-18.4844 -64.37405,-59.1752 l -48.20986,11.3167 c 22.4713,38.4263 75.56224,73.8874 112.58391,47.8585 z"
         style="opacity:0.21028035;color:#000000;fill:#000000;fill-opacity:1;fill-rule:nonzero;stroke:none;stroke-width:1px;marker:none;visibility:visible;display:inline;overflow:visible;enable-background:accumulate"
         inkscape:connector-curvature="0" />
      <path
         sodipodi:nodetypes="cccc"
         id="path6197-1-9-3-1-2-3-9-8-9-1-0-6-9-59-0-6-9-0"
         d="m 491.97515,1477.9761 c -2.1971,-28.2533 -32.8209,-83.5617 -70.6586,-62.8927 l 28.7303,-24.7622 c 29.59537,16.8037 60.53,46.9767 41.9283,87.6549 z"
         style="opacity:0.10280373;color:#000000;fill:#000000;fill-opacity:1;fill-rule:nonzero;stroke:none;stroke-width:1px;marker:none;visibility:visible;display:inline;overflow:visible;enable-background:accumulate"
         inkscape:connector-curvature="0" />
      <path
         transform="matrix(0.36511951,-0.73866074,0.73866074,0.36511951,-98.242391,1565.8746)"
         d="m 407.34402,567.68591 c 0,2.1967 -1.78077,3.97748 -3.97747,3.97748 -2.1967,0 -3.97748,-1.78078 -3.97748,-3.97748 0,-2.1967 1.78078,-3.97747 3.97748,-3.97747 2.1967,0 3.97747,1.78077 3.97747,3.97747 z"
         sodipodi:ry="3.9774756"
         sodipodi:rx="3.9774756"
         sodipodi:cy="567.68591"
         sodipodi:cx="403.36655"
         id="path8431-1-0-8"
         style="color:#000000;fill:#d3bc5f;fill-opacity:1;fill-rule:nonzero;stroke:#000000;stroke-width:3.4069593px;stroke-linecap:butt;stroke-linejoin:miter;stroke-miterlimit:4;stroke-opacity:1;stroke-dasharray:none;stroke-dashoffset:0;marker:none;visibility:visible;display:inline;overflow:visible;enable-background:accumulate"
         sodipodi:type="arc" />
      <path
         transform="matrix(0.36511951,-0.73866074,0.73866074,0.36511951,-84.251284,1544.4086)"
         d="m 407.34402,567.68591 c 0,2.1967 -1.78077,3.97748 -3.97747,3.97748 -2.1967,0 -3.97748,-1.78078 -3.97748,-3.97748 0,-2.1967 1.78078,-3.97747 3.97748,-3.97747 2.1967,0 3.97747,1.78077 3.97747,3.97747 z"
         sodipodi:ry="3.9774756"
         sodipodi:rx="3.9774756"
         sodipodi:cy="567.68591"
         sodipodi:cx="403.36655"
         id="path8431-1-5-3-6"
         style="color:#000000;fill:#d3bc5f;fill-opacity:1;fill-rule:nonzero;stroke:#000000;stroke-width:3.4069593px;stroke-linecap:butt;stroke-linejoin:miter;stroke-miterlimit:4;stroke-opacity:1;stroke-dasharray:none;stroke-dashoffset:0;marker:none;visibility:visible;display:inline;overflow:visible;enable-background:accumulate"
         sodipodi:type="arc" />
      <path
         sodipodi:nodetypes="ccc"
         inkscape:connector-curvature="0"
         id="path8487-5-7"
         d="m 470.78805,1487.1008 7.26349,-16.9741 -17.10671,-11.5546 4.37462,-6.5705 17.78329,11.3256 12.69946,-13.7238"
         style="color:#000000;fill:none;stroke:#000000;stroke-width:2.80724335px;stroke-linecap:butt;stroke-linejoin:miter;stroke-miterlimit:4;stroke-opacity:1;stroke-dasharray:none;stroke-dashoffset:0;marker:none;visibility:visible;display:inline;overflow:visible;enable-background:accumulate" />
      <rect
         ry="2.1183965"
         transform="matrix(0.53337497,-0.84587892,0.84587892,0.53337497,0,0)"
         y="1181.2201"
         x="-1000.1251"
         height="4.236793"
         width="29.657551"
         id="rect8405-5-5"
         style="color:#000000;fill:#999999;fill-opacity:1;fill-rule:nonzero;stroke:#000000;stroke-width:3.4069593px;stroke-linecap:butt;stroke-linejoin:miter;stroke-miterlimit:4;stroke-opacity:1;stroke-dasharray:none;stroke-dashoffset:0;marker:none;visibility:visible;display:inline;overflow:visible;enable-background:accumulate" />
      <path
         transform="matrix(0.36511951,-0.73866074,0.73866074,0.36511951,-106.15291,1560.649)"
         d="m 407.34402,567.68591 c 0,2.1967 -1.78077,3.97748 -3.97747,3.97748 -2.1967,0 -3.97748,-1.78078 -3.97748,-3.97748 0,-2.1967 1.78078,-3.97747 3.97748,-3.97747 2.1967,0 3.97747,1.78077 3.97747,3.97747 z"
         sodipodi:ry="3.9774756"
         sodipodi:rx="3.9774756"
         sodipodi:cy="567.68591"
         sodipodi:cx="403.36655"
         id="path8431-8-4"
         style="color:#000000;fill:#d3bc5f;fill-opacity:1;fill-rule:nonzero;stroke:#000000;stroke-width:3.4069593px;stroke-linecap:butt;stroke-linejoin:miter;stroke-miterlimit:4;stroke-opacity:1;stroke-dasharray:none;stroke-dashoffset:0;marker:none;visibility:visible;display:inline;overflow:visible;enable-background:accumulate"
         sodipodi:type="arc" />
      <path
         transform="matrix(0.36511951,-0.73866074,0.73866074,0.36511951,-92.041537,1538.7972)"
         d="m 407.34402,567.68591 c 0,2.1967 -1.78077,3.97748 -3.97747,3.97748 -2.1967,0 -3.97748,-1.78078 -3.97748,-3.97748 0,-2.1967 1.78078,-3.97747 3.97748,-3.97747 2.1967,0 3.97747,1.78077 3.97747,3.97747 z"
         sodipodi:ry="3.9774756"
         sodipodi:rx="3.9774756"
         sodipodi:cy="567.68591"
         sodipodi:cx="403.36655"
         id="path8431-1-5-2-7-4"
         style="color:#000000;fill:#d3bc5f;fill-opacity:1;fill-rule:nonzero;stroke:#000000;stroke-width:3.4069593px;stroke-linecap:butt;stroke-linejoin:miter;stroke-miterlimit:4;stroke-opacity:1;stroke-dasharray:none;stroke-dashoffset:0;marker:none;visibility:visible;display:inline;overflow:visible;enable-background:accumulate"
         sodipodi:type="arc" />
      <rect
         ry="2.1183965"
         transform="matrix(0.53337497,-0.84587892,0.84587892,0.53337497,0,0)"
         y="1171.7958"
         x="-999.83466"
         height="4.236793"
         width="29.657551"
         id="rect8405-3-1-6"
         style="color:#000000;fill:#999999;fill-opacity:1;fill-rule:nonzero;stroke:#000000;stroke-width:3.4069593px;stroke-linecap:butt;stroke-linejoin:miter;stroke-miterlimit:4;stroke-opacity:1;stroke-dasharray:none;stroke-dashoffset:0;marker:none;visibility:visible;display:inline;overflow:visible;enable-background:accumulate" />
      <path
         transform="matrix(5.8160312,0.60379328,-1.1870371,8.899908,-746.98643,-2723.2046)"
         d="m 274.50895,450.3295 c 0,4.77695 -3.50502,8.64943 -7.82868,8.64943 -4.32366,0 -7.82869,-3.87248 -7.82869,-8.64943 0,-4.77695 3.50503,-8.64943 7.82869,-8.64943 4.32366,0 7.82868,3.87248 7.82868,8.64943 z"
         sodipodi:ry="8.6494312"
         sodipodi:rx="7.8286824"
         sodipodi:cy="450.3295"
         sodipodi:cx="266.68027"
         id="path6017-7-5-3-1-0-8-7-4-1-8-3-7-6-1-7-0-05"
         style="color:#000000;fill:#d3bc5f;fill-opacity:1;fill-rule:nonzero;stroke:#000000;stroke-width:0.47029972px;stroke-linecap:butt;stroke-linejoin:miter;stroke-miterlimit:4;stroke-opacity:1;stroke-dasharray:none;stroke-dashoffset:0;marker:none;visibility:visible;display:inline;overflow:visible;enable-background:accumulate"
         sodipodi:type="arc" />
      <path
         transform="matrix(0.99273342,0.12033438,-0.12033438,0.99273342,-88.119368,875.32226)"
         d="m 446.07143,560.02856 c 0,10.94708 -11.67258,19.82143 -26.07143,19.82143 -14.39885,0 -26.07143,-8.87435 -26.07143,-19.82143 0,-10.94707 11.67258,-19.82142 26.07143,-19.82142 14.39885,0 26.07143,8.87435 26.07143,19.82142 z"
         sodipodi:ry="19.821428"
         sodipodi:rx="26.071428"
         sodipodi:cy="560.02856"
         sodipodi:cx="420"
         id="path8386-5"
         style="color:#000000;fill:#cccccc;fill-opacity:1;fill-rule:nonzero;stroke:#000000;stroke-width:3.4069593px;stroke-linecap:butt;stroke-linejoin:miter;stroke-miterlimit:4;stroke-opacity:1;stroke-dasharray:none;stroke-dashoffset:0;marker:none;visibility:visible;display:inline;overflow:visible;enable-background:accumulate"
         sodipodi:type="arc" />
      <path
         sodipodi:nodetypes="ccsc"
         inkscape:connector-curvature="0"
         id="path11009"
         d="m 264.70136,1467.1816 c 8.45644,12.037 -1.90544,22.4376 -3.21875,33.625 11.3515,0.5675 21.0313,-5.5475 22.09375,-14.3125 1.0889,-8.9832 -7.27818,-17.4129 -18.875,-19.3125 z"
         style="opacity:0.21028035;color:#000000;fill:#000000;fill-opacity:1;fill-rule:nonzero;stroke:none;stroke-width:1px;marker:none;visibility:visible;display:inline;overflow:visible;enable-background:accumulate" />
      <path
         id="path6017-7-5-3-1-0-8-7-4-1-8-3-7-6-1-7-0-6-3"
         d="m 222.79511,1456.9629 c -0.32369,35.3418 14.48094,63.4425 36.40625,65.7187 21.59003,2.2414 43.05165,-21.2994 52.28125,-54.9062 -10.047,10.8859 -22.59495,18.1111 -36.28125,19.7187 -21.85168,2.5668 -41.22697,-9.8119 -52.40625,-30.5312 z"
         style="color:#000000;fill:#cccccc;fill-opacity:1;fill-rule:nonzero;stroke:#000000;stroke-width:3.4069593px;stroke-linecap:butt;stroke-linejoin:miter;stroke-miterlimit:4;stroke-opacity:1;stroke-dasharray:none;stroke-dashoffset:0;marker:none;visibility:visible;display:inline;overflow:visible;enable-background:accumulate"
         inkscape:connector-curvature="0" />
      <path
         sodipodi:nodetypes="cccc"
         id="path6197-8-2-6-8-5-2-0-3-0-7-2-8-2-0-2-5-9"
         d="m 248.73277,1516.8407 c -14.6792,-24.2404 -20.51204,-77.5696 22.28164,-82.8228 l -39.29028,-12.8436 c -14.25796,30.9024 -21.81344,73.45 17.00864,95.6664 z"
         style="opacity:0.10280373;color:#000000;fill:#000000;fill-opacity:1;fill-rule:nonzero;stroke:none;stroke-width:1px;marker:none;visibility:visible;display:inline;overflow:visible;enable-background:accumulate"
         inkscape:connector-curvature="0" />
      <path
         sodipodi:nodetypes="ccccc"
         id="path6139-9-4-9-6-9-3-1-0-9-2-3-7-7-3-6-6-1"
         d="m 238.49836,1426.7834 c 31.80193,8.1019 62.0244,11.0316 90.16938,7.1583 l -1.34879,8.1343 c -31.59342,4.1363 -62.02925,3.6795 -89.36479,-9.079 l 0.5442,-6.2136 z"
         style="opacity:0.21028035;color:#000000;fill:#000000;fill-opacity:1;fill-rule:nonzero;stroke:none;stroke-width:1px;marker:none;visibility:visible;display:inline;overflow:visible;enable-background:accumulate"
         inkscape:connector-curvature="0" />
      <path
         sodipodi:nodetypes="cccc"
         id="path6197-1-9-3-1-2-3-9-8-9-1-0-6-9-59-0-6-5"
         d="m 255.09081,1522.9059 c 24.35436,-14.4892 54.58136,-58.8104 19.28572,-83.5716 l 41.42857,1.4286 c -1.9496,33.9772 -16.00509,80.7934 -60.71429,82.143 z"
         style="opacity:0.21028035;color:#000000;fill:#000000;fill-opacity:1;fill-rule:nonzero;stroke:none;stroke-width:1px;marker:none;visibility:visible;display:inline;overflow:visible;enable-background:accumulate"
         inkscape:connector-curvature="0" />
      <path
         sodipodi:nodetypes="ccccc"
         id="rect5545-7-1-48-4-4-2-1-0-1-4-9-79-7-7-5-0"
         d="m 429.51597,1305.3894 c -71.55314,41.8594 -135.87397,35.988 -208.18001,19.4531 l 7.53483,97.4419 c 91.51281,32.0126 161.82896,11.0567 215.87568,-31.2432 z"
         style="color:#000000;fill:#cccccc;fill-opacity:1;fill-rule:nonzero;stroke:#000000;stroke-width:4px;stroke-linecap:butt;stroke-linejoin:miter;stroke-miterlimit:4;stroke-opacity:1;stroke-dasharray:none;stroke-dashoffset:0;marker:none;visibility:visible;display:inline;overflow:visible;enable-background:accumulate"
         inkscape:connector-curvature="0" />
      <path
         d="m 311.42858,356.41592 c 0,15.28646 -12.23222,27.67858 -27.32143,27.67858 -15.08921,0 -27.32143,-12.39212 -27.32143,-27.67858 0,-15.28645 12.23222,-27.67857 27.32143,-27.67857 15.08921,0 27.32143,12.39212 27.32143,27.67857 z"
         sodipodi:ry="27.678572"
         sodipodi:rx="27.321428"
         sodipodi:cy="356.41592"
         sodipodi:cx="284.10715"
         id="path5403-8-9-1-0-74-3-3-8-6-5-8-1-7-78-5-8-4"
         style="color:#000000;fill:#d3bc5f;fill-opacity:1;fill-rule:nonzero;stroke:#000000;stroke-width:2.9824748px;stroke-linecap:butt;stroke-linejoin:miter;stroke-miterlimit:4;stroke-opacity:1;stroke-dasharray:none;stroke-dashoffset:0;marker:none;visibility:visible;display:inline;overflow:visible;enable-background:accumulate"
         sodipodi:type="arc"
         transform="matrix(-0.17133727,1.1294038,-1.1294038,-0.17133727,568.68175,982.78788)" />
      <g
         transform="matrix(-0.59995918,3.9547502,-3.9547502,-0.59995918,5081.4142,369.83742)"
         id="g7249-2-1-1-7-9-4-0-8-4-9-4-9">
        <path
           inkscape:connector-curvature="0"
           style="opacity:0.3218884;color:#000000;fill:#000000;fill-opacity:1;fill-rule:nonzero;stroke:none;stroke-width:1px;marker:none;visibility:visible;display:inline;overflow:visible;enable-background:accumulate"
           d="m 394.43333,1196.0123 c 3.4165,-2.1521 6.87955,-4.1506 11.33584,-2.872 2.54637,3.3061 -1.6992,7.7512 -5.5918,8.4141 6.19396,1.9495 7.56368,-1.5833 9.41631,-5.1415 l -0.49794,-4.2634 c -1.50625,-6.3546 -8.65071,-2.8714 -14.2703,1.0756 -0.59629,1.8603 -0.26229,1.8599 -0.39211,2.7872 z"
           id="path6893-5-9-7-1-0-9-0-5-7-8-6-4-5-7-7-6"
           sodipodi:nodetypes="ccccccc" />
      </g>
      <path
         sodipodi:nodetypes="cccc"
         id="path3428-0-7"
         d="m 253.1572,1222.5126 -130.54937,-7.5486 c 5.71779,20.3278 32.0734,52.7881 -1.7718,58.8433 l 99.22597,41.3682"
         style="color:#000000;fill:#d3bc5f;fill-opacity:1;fill-rule:nonzero;stroke:#000000;stroke-width:3.4069593px;stroke-linecap:butt;stroke-linejoin:miter;stroke-miterlimit:4;stroke-opacity:1;stroke-dasharray:none;stroke-dashoffset:0;marker:none;visibility:visible;display:inline;overflow:visible;enable-background:accumulate"
         inkscape:connector-curvature="0" />
      <path
         id="path5403-1-1-6-9-22-2-0-9-6-8-2-2-2-1-8-4-4-3-4"
         d="m 277.38886,1368.5879 c -23.93732,-0.4288 -47.17763,30.2 -53.15625,70.4062 28.65673,6.3608 60.10662,8.7297 91.21875,7.75 4.30473,-40.9231 -11.30239,-75.4964 -35.71875,-78.0312 -0.78583,-0.082 -1.55883,-0.111 -2.34375,-0.125 z m 120.46875,4.1875 c -14.73972,-0.1147 -26.86722,4.7565 -33.1875,14.7812 -8.74867,13.8765 -4.26487,34.2086 9.6875,53.3125 39.09754,-6.664 74.01648,-18.4986 97.4375,-33.9062 -5.38933,-5.2683 -11.49556,-10.2737 -18.25,-14.8125 -18.91243,-12.7088 -38.98249,-19.2451 -55.6875,-19.375 z"
         style="opacity:0.5;color:#000000;fill:#000000;fill-opacity:1;fill-rule:nonzero;stroke:#000000;stroke-width:3.4069593px;stroke-linecap:butt;stroke-linejoin:miter;stroke-miterlimit:4;stroke-opacity:1;stroke-dasharray:none;stroke-dashoffset:0;marker:none;visibility:visible;display:inline;overflow:visible;enable-background:accumulate"
         inkscape:connector-curvature="0" />
      <path
         sodipodi:nodetypes="cccccccccccccsssc"
         inkscape:connector-curvature="0"
         id="path5403-1-1-6-9-22-2-0-9-6-8-2-2-2-1-8-4-3"
         d="m 261.30394,1214.6599 c -5.41247,3.654 -10.33794,7.8129 -14.78234,12.4015 1.40467,47.4525 -7.66322,76.8184 -25.00914,91.8417 l -0.65803,0.2531 c 0.23189,3.9744 0.29222,10.0455 0.86261,12.5054 -4.47994,31.5411 -4.38348,60.8987 -29.16729,90.2561 91.51296,32.0126 229.75585,12.9637 283.80229,-29.3363 -23.50185,-7.3406 -50.28305,-73.6144 -54.6584,-95.5566 -21.38711,-9.7132 -36.01187,-38.728 -48.16636,-86.7027 -2.24596,-1.237 -4.51671,-2.3833 -6.84761,-3.4612 l -8.49128,-0.855 2.26384,-1.8117 c -2.25965,-0.8789 -4.56365,-1.686 -6.88547,-2.4137 8.09648,7.2907 13.65558,16.9024 15.25405,27.947 4.01184,27.72 -18.35845,53.9042 -49.98258,58.4811 -31.62414,4.5769 -60.53111,-14.1861 -64.54296,-41.906 -1.62767,-11.2465 1.09219,-22.2428 7.00867,-31.6427 z"
         style="color:#000000;fill:#d3bc5f;fill-opacity:1;fill-rule:nonzero;stroke:#000000;stroke-width:3.4069593px;stroke-linecap:butt;stroke-linejoin:miter;stroke-miterlimit:4;stroke-opacity:1;stroke-dasharray:none;stroke-dashoffset:0;marker:none;visibility:visible;display:inline;overflow:visible;enable-background:accumulate" />
      <path
         transform="matrix(0.98968863,-0.1432355,0.1432355,0.98968863,776.25014,1099.7484)"
         d="m -426,52.25 c 0,8.974627 -22.83348,16.25 -51,16.25 -28.16652,0 -51,-7.275373 -51,-16.25 0,-8.974627 22.83348,-16.25 51,-16.25 28.16652,0 51,7.275373 51,16.25 z"
         sodipodi:ry="16.25"
         sodipodi:rx="51"
         sodipodi:cy="52.25"
         sodipodi:cx="-477"
         id="path4278-0"
         style="opacity:0.3218884;color:#000000;fill:#000000;fill-opacity:1;fill-rule:nonzero;stroke:none;stroke-width:1px;marker:none;visibility:visible;display:inline;overflow:visible;enable-background:accumulate"
         sodipodi:type="arc" />
      <path
         sodipodi:nodetypes="cccccccccccccsssc"
         inkscape:connector-curvature="0"
         id="path5403-1-1-6-9-22-2-0-9-6-8-2-2-2-1-8-4-4-9"
         d="m 261.30394,1214.6599 c -5.41247,3.654 -10.33794,7.8129 -14.78235,12.4015 1.40468,47.4525 -7.66321,76.8184 -25.00913,91.8417 l -0.65803,0.2531 c 0.23189,3.9744 0.29222,10.0455 0.86261,12.5054 -4.47994,31.5411 -4.38347,60.8987 -29.16729,90.2561 91.51296,32.0126 229.75585,12.9637 283.80229,-29.3363 -23.50185,-7.3406 -44.97975,-67.806 -49.3551,-89.7483 -21.38711,-9.7131 -41.31517,-44.5363 -53.46966,-92.511 -2.24596,-1.237 -4.51671,-2.3833 -6.84761,-3.4612 l -8.49128,-0.855 2.26384,-1.8117 c -2.25965,-0.8789 -4.56365,-1.686 -6.88547,-2.4137 8.09648,7.2907 13.65557,16.9024 15.25404,27.947 4.01185,27.72 -18.35844,53.9042 -49.98257,58.4811 -31.62414,4.5769 -60.53111,-14.1861 -64.54296,-41.906 -1.62767,-11.2465 1.09218,-22.2428 7.00867,-31.6427 z"
         style="color:#000000;fill:#cccccc;fill-opacity:1;fill-rule:nonzero;stroke:#000000;stroke-width:3.4069593px;stroke-linecap:butt;stroke-linejoin:miter;stroke-miterlimit:4;stroke-opacity:1;stroke-dasharray:none;stroke-dashoffset:0;marker:none;visibility:visible;display:inline;overflow:visible;enable-background:accumulate" />
      <path
         sodipodi:nodetypes="cccccccc"
         inkscape:connector-curvature="0"
         id="path8574-6"
         d="m 221.02207,1321.4054 -0.0614,0.2299 c 0.15706,3.7206 0.28986,8.0142 0.75642,10.0263 -5.54663,5.0654 -6.49129,10.2775 -2.02183,15.7015 76.94504,12.1165 153.46701,8.1092 214.77973,-27.8174 1.83218,-10.9896 -1.58987,-15.9103 -7.98253,-18.1569 -49.43469,41.9501 -143.78103,50.2948 -206.18463,27.8737 z"
         style="color:#000000;fill:#800080;fill-opacity:1;fill-rule:nonzero;stroke:#000000;stroke-width:3.4069593px;stroke-linecap:butt;stroke-linejoin:miter;stroke-miterlimit:4;stroke-opacity:1;stroke-dasharray:none;stroke-dashoffset:0;marker:none;visibility:visible;display:inline;overflow:visible;enable-background:accumulate" />
      <path
         sodipodi:nodetypes="cccc"
         inkscape:connector-curvature="0"
         id="path5975-5-7-7-47-4-4-7-3-0-6-1-1-7-3-6"
         d="m 316.3844,1218.32 c -40.41287,47.4896 -39.43648,134.7126 -39.80804,218.3304 35.50508,-0.2871 71.15172,0.1335 104.8125,-9.375 C 383.19683,1358.33 342.5347,1233.1391 316.3844,1218.32 z"
         style="opacity:0.12393165;color:#000000;fill:#ffffff;fill-opacity:1;fill-rule:nonzero;stroke:none;stroke-width:1px;marker:none;visibility:visible;display:inline;overflow:visible;enable-background:accumulate" />
      <path
         transform="matrix(0.82397327,0,0,0.82397327,-85.244425,1032.748)"
         d="m 407.34402,567.68591 c 0,2.1967 -1.78077,3.97748 -3.97747,3.97748 -2.1967,0 -3.97748,-1.78078 -3.97748,-3.97748 0,-2.1967 1.78078,-3.97747 3.97748,-3.97747 2.1967,0 3.97747,1.78077 3.97747,3.97747 z"
         sodipodi:ry="3.9774756"
         sodipodi:rx="3.9774756"
         sodipodi:cy="567.68591"
         sodipodi:cx="403.36655"
         id="path8431-1-04"
         style="color:#000000;fill:#d3bc5f;fill-opacity:1;fill-rule:nonzero;stroke:#000000;stroke-width:3.4069593px;stroke-linecap:butt;stroke-linejoin:miter;stroke-miterlimit:4;stroke-opacity:1;stroke-dasharray:none;stroke-dashoffset:0;marker:none;visibility:visible;display:inline;overflow:visible;enable-background:accumulate"
         sodipodi:type="arc" />
      <path
         transform="matrix(0.82397327,0,0,0.82397327,-59.801208,1035.7785)"
         d="m 407.34402,567.68591 c 0,2.1967 -1.78077,3.97748 -3.97747,3.97748 -2.1967,0 -3.97748,-1.78078 -3.97748,-3.97748 0,-2.1967 1.78078,-3.97747 3.97748,-3.97747 2.1967,0 3.97747,1.78077 3.97747,3.97747 z"
         sodipodi:ry="3.9774756"
         sodipodi:rx="3.9774756"
         sodipodi:cy="567.68591"
         sodipodi:cx="403.36655"
         id="path8431-1-5-5"
         style="color:#000000;fill:#d3bc5f;fill-opacity:1;fill-rule:nonzero;stroke:#000000;stroke-width:3.4069593px;stroke-linecap:butt;stroke-linejoin:miter;stroke-miterlimit:4;stroke-opacity:1;stroke-dasharray:none;stroke-dashoffset:0;marker:none;visibility:visible;display:inline;overflow:visible;enable-background:accumulate"
         sodipodi:type="arc" />
      <path
         sodipodi:nodetypes="ccc"
         inkscape:connector-curvature="0"
         id="path8487-8"
         d="m 237.52237,1507.9559 18.43528,-1.0102 2.77792,-20.4555 7.82869,1.0101 -2.27285,20.9607 17.93021,5.3033"
         style="color:#000000;fill:none;stroke:#000000;stroke-width:2.80724335px;stroke-linecap:butt;stroke-linejoin:miter;stroke-miterlimit:4;stroke-opacity:1;stroke-dasharray:none;stroke-dashoffset:0;marker:none;visibility:visible;display:inline;overflow:visible;enable-background:accumulate" />
      <rect
         ry="2.1183965"
         transform="matrix(0.99464775,0.10332405,-0.10332405,0.99464775,0,0)"
         y="1465.1512"
         x="398.73474"
         height="4.236793"
         width="29.657551"
         id="rect8405-2"
         style="color:#000000;fill:#999999;fill-opacity:1;fill-rule:nonzero;stroke:#000000;stroke-width:3.4069593px;stroke-linecap:butt;stroke-linejoin:miter;stroke-miterlimit:4;stroke-opacity:1;stroke-dasharray:none;stroke-dashoffset:0;marker:none;visibility:visible;display:inline;overflow:visible;enable-background:accumulate" />
      <path
         transform="matrix(0.82397327,0,0,0.82397327,-84.065164,1023.3409)"
         d="m 407.34402,567.68591 c 0,2.1967 -1.78077,3.97748 -3.97747,3.97748 -2.1967,0 -3.97748,-1.78078 -3.97748,-3.97748 0,-2.1967 1.78078,-3.97747 3.97748,-3.97747 2.1967,0 3.97747,1.78077 3.97747,3.97747 z"
         sodipodi:ry="3.9774756"
         sodipodi:rx="3.9774756"
         sodipodi:cy="567.68591"
         sodipodi:cx="403.36655"
         id="path8431-86"
         style="color:#000000;fill:#d3bc5f;fill-opacity:1;fill-rule:nonzero;stroke:#000000;stroke-width:3.4069593px;stroke-linecap:butt;stroke-linejoin:miter;stroke-miterlimit:4;stroke-opacity:1;stroke-dasharray:none;stroke-dashoffset:0;marker:none;visibility:visible;display:inline;overflow:visible;enable-background:accumulate"
         sodipodi:type="arc" />
      <path
         transform="matrix(0.82397327,0,0,0.82397327,-58.222844,1026.3083)"
         d="m 407.34402,567.68591 c 0,2.1967 -1.78077,3.97748 -3.97747,3.97748 -2.1967,0 -3.97748,-1.78078 -3.97748,-3.97748 0,-2.1967 1.78078,-3.97747 3.97748,-3.97747 2.1967,0 3.97747,1.78077 3.97747,3.97747 z"
         sodipodi:ry="3.9774756"
         sodipodi:rx="3.9774756"
         sodipodi:cy="567.68591"
         sodipodi:cx="403.36655"
         id="path8431-1-5-2-8"
         style="color:#000000;fill:#d3bc5f;fill-opacity:1;fill-rule:nonzero;stroke:#000000;stroke-width:3.4069593px;stroke-linecap:butt;stroke-linejoin:miter;stroke-miterlimit:4;stroke-opacity:1;stroke-dasharray:none;stroke-dashoffset:0;marker:none;visibility:visible;display:inline;overflow:visible;enable-background:accumulate"
         sodipodi:type="arc" />
      <rect
         ry="2.1183965"
         transform="matrix(0.99464775,0.10332405,-0.10332405,0.99464775,0,0)"
         y="1455.7269"
         x="399.02521"
         height="4.236793"
         width="29.657551"
         id="rect8405-3-5"
         style="color:#000000;fill:#999999;fill-opacity:1;fill-rule:nonzero;stroke:#000000;stroke-width:3.4069593px;stroke-linecap:butt;stroke-linejoin:miter;stroke-miterlimit:4;stroke-opacity:1;stroke-dasharray:none;stroke-dashoffset:0;marker:none;visibility:visible;display:inline;overflow:visible;enable-background:accumulate" />
      <path
         inkscape:connector-curvature="0"
         id="path8601-3-34"
         d="m 261.30394,1214.6599 c -5.41247,3.654 -10.33794,7.8129 -14.78234,12.4015 0.48847,16.5016 -0.27139,30.8221 -2.22352,43.1067 15.40168,27.7245 46.35211,44.4756 79.10098,39.7359 31.43147,-4.549 55.69374,-27.6201 63.70349,-56.8356 -4.93624,-11.9967 -9.39716,-26.255 -13.57527,-42.7463 -2.24596,-1.237 -4.51671,-2.3833 -6.84761,-3.4612 l -8.49128,-0.855 2.26384,-1.8117 c -2.25965,-0.8789 -4.56365,-1.686 -6.88547,-2.4137 8.09648,7.2907 13.65557,16.9024 15.25405,27.947 4.01184,27.72 -18.35845,53.9042 -49.98258,58.4811 -31.62414,4.5769 -60.53111,-14.1861 -64.54296,-41.906 -1.62767,-11.2465 1.09219,-22.2428 7.00867,-31.6427 z"
         style="color:#000000;fill:#b3b3b3;stroke:#000000;stroke-width:3.4069593px;stroke-linecap:butt;stroke-linejoin:miter;stroke-miterlimit:4;stroke-opacity:1;stroke-dasharray:none;stroke-dashoffset:0;marker:none;visibility:visible;display:inline;overflow:visible;enable-background:accumulate" />
      <path
         sodipodi:nodetypes="ccccc"
         inkscape:connector-curvature="0"
         id="path8808-01"
         d="m 471.08082,1232.0003 -15.71428,77.8572 32.14286,0.7143 23.57142,-70.7143 z"
         style="color:#000000;fill:#cccccc;fill-opacity:1;fill-rule:nonzero;stroke:#000000;stroke-width:3.4069593px;stroke-linecap:butt;stroke-linejoin:miter;stroke-miterlimit:4;stroke-opacity:1;stroke-dasharray:none;stroke-dashoffset:0;marker:none;visibility:visible;display:inline;overflow:visible;enable-background:accumulate" />
      <path
         sodipodi:nodetypes="ccccc"
         inkscape:connector-curvature="0"
         id="path8808-0-7"
         d="m 117.90751,1288.1186 9.61828,-78.8427 30.73061,9.4501 0.0893,74.5393 z"
         style="color:#000000;fill:#cccccc;fill-opacity:1;fill-rule:nonzero;stroke:#000000;stroke-width:3.4069593px;stroke-linecap:butt;stroke-linejoin:miter;stroke-miterlimit:4;stroke-opacity:1;stroke-dasharray:none;stroke-dashoffset:0;marker:none;visibility:visible;display:inline;overflow:visible;enable-background:accumulate" />
      <path
         sodipodi:nodetypes="ccccc"
         inkscape:connector-curvature="0"
         id="path9043-7"
         d="m 285.25207,990.00017 40.40611,36.87053 23.73858,-23.7385 c -0.89741,-12.74063 -13.41224,-39.9187 -51.51778,-42.93153 -6.90708,8.734 -17.14119,15.98933 -12.62691,29.7995 z"
         style="color:#000000;fill:#cccccc;fill-opacity:1;fill-rule:nonzero;stroke:#000000;stroke-width:3.4069593px;stroke-linecap:butt;stroke-linejoin:miter;stroke-miterlimit:4;stroke-opacity:1;stroke-dasharray:none;stroke-dashoffset:0;marker:none;visibility:visible;display:inline;overflow:visible;enable-background:accumulate" />
      <path
         transform="matrix(-3.9587545,0.57294199,0.57294199,3.9587545,1217.0541,-460.78273)"
         d="m 311.42858,356.41592 c 0,15.28646 -12.23222,27.67858 -27.32143,27.67858 -15.08921,0 -27.32143,-12.39212 -27.32143,-27.67858 0,-15.28645 12.23222,-27.67857 27.32143,-27.67857 15.08921,0 27.32143,12.39212 27.32143,27.67857 z"
         sodipodi:ry="27.678572"
         sodipodi:rx="27.321428"
         sodipodi:cy="356.41592"
         sodipodi:cx="284.10715"
         id="path5403-5-2-3-2-8-5-6-9-3-4-6-6-0-9-8"
         style="color:#000000;fill:#d3bc5f;fill-opacity:1;fill-rule:nonzero;stroke:#000000;stroke-width:0.85173982px;stroke-linecap:butt;stroke-linejoin:miter;stroke-miterlimit:4;stroke-opacity:1;stroke-dasharray:none;stroke-dashoffset:0;marker:none;visibility:visible;display:inline;overflow:visible;enable-background:accumulate"
         sodipodi:type="arc" />
      <path
         sodipodi:nodetypes="ccscssccc"
         id="path4675-4-4-9-6-6-0-8-7-1-1-9-6-0"
         d="m 265.76293,1041.5743 c -96.97843,102.8233 5.98634,201.4141 93.19359,160.9142 -15.46026,12.9982 -33.53799,17.6232 -49.91067,20.4367 -0.0779,0.013 -0.15198,0.048 -0.22991,0.061 -9.0249,1.0247 -18.3229,0.9162 -27.72224,-0.4441 -59.73447,-8.6453 -101.05381,-64.7148 -92.29556,-125.2301 0.40449,-2.7948 0.91356,-5.5619 1.51335,-8.2748 7.80855,-19.4782 39.14497,-37.4411 75.45145,-47.4633 l -1e-5,0 z"
         style="opacity:0.24786323;color:#000000;fill:#000000;fill-opacity:1;fill-rule:nonzero;stroke:none;stroke-width:1px;marker:none;visibility:visible;display:inline;overflow:visible;enable-background:accumulate"
         inkscape:connector-curvature="0" />
      <path
         id="path8601-3-3-8"
         d="m 358.04511,1203.3066 -1.65625,1.2188 c 6.55946,6.8894 11.03224,15.4779 12.4375,25.1875 1.72247,11.9014 -1.44532,23.5345 -8.09375,33.2812 l 16.71875,11.7813 c 4.24394,-6.6555 7.53101,-13.967 9.65625,-21.7188 -4.93624,-11.9967 -9.41564,-26.2587 -13.59375,-42.75 -2.24596,-1.2369 -4.51285,-2.3597 -6.84375,-3.4375 l -8.46875,-0.875 2.25,-1.8125 c -0.79727,-0.3101 -1.60079,-0.5843 -2.40625,-0.875 z m -98.875,12.8438 c -4.5801,3.2842 -8.80301,6.928 -12.65625,10.9062 0.48847,16.5016 -0.26662,30.8404 -2.21875,43.125 4.14207,7.4561 9.40822,14.1189 15.53125,19.7813 l 12.75,-13.1875 c -9.73753,-7.5251 -16.49033,-18.0944 -18.28125,-30.4688 -1.5067,-10.4106 0.72008,-20.6154 5.75,-29.5312 l -0.875,-0.625 z m 98.0625,51.4687 c -9.04424,10.6004 -22.5775,18.3029 -38.40625,20.5938 -15.22764,2.2038 -29.82376,-1.0177 -41.3125,-8.0313 l -9.65625,16.2813 c 15.63832,11.0597 35.23785,16.3745 55.53125,13.4375 19.3562,-2.8014 35.98405,-12.6346 47.78125,-26.5938 l -13.9375,-15.6875 z"
         style="color:#000000;fill:#800080;stroke:#000000;stroke-width:3.4069593px;stroke-linecap:butt;stroke-linejoin:miter;stroke-miterlimit:4;stroke-opacity:1;stroke-dasharray:none;stroke-dashoffset:0;marker:none;visibility:visible;display:inline;overflow:visible;enable-background:accumulate"
         inkscape:connector-curvature="0" />
      <path
         sodipodi:nodetypes="csccc"
         inkscape:connector-curvature="0"
         id="path5403-5-2-3-2-8-5-6-9-3-4-6-6-0-9-3-9"
         d="m 294.56676,1000.0889 c -4.80587,0.075 -6.6056,-8.93413 -11.51369,-8.45255 -64.84039,6.36209 -94.17995,58.28175 -99.77356,108.16985 l 224.43745,-10.7202 c -12.53777,-52.8617 -59.87095,-113.85657 -113.1502,-88.9971 z"
         style="color:#000000;fill:#000000;fill-opacity:1;fill-rule:nonzero;stroke:#000000;stroke-width:3.56324148px;stroke-linecap:butt;stroke-linejoin:miter;stroke-miterlimit:4;stroke-opacity:1;stroke-dasharray:none;stroke-dashoffset:0;marker:none;visibility:visible;display:inline;overflow:visible;enable-background:accumulate" />
      <path
         sodipodi:nodetypes="ccccc"
         inkscape:connector-curvature="0"
         id="path8923-7"
         d="m 405.96531,1090.5104 c -86.04646,-15.9832 -173.60896,-30.3185 -225.24879,17.2182 l 10.59137,-53.0787 c 48.0375,-42.169 119.24053,-31.0808 202.03051,-9.0913 z"
         style="color:#000000;fill:#cccccc;fill-opacity:1;fill-rule:nonzero;stroke:#000000;stroke-width:3.4069593px;stroke-linecap:butt;stroke-linejoin:miter;stroke-miterlimit:4;stroke-opacity:1;stroke-dasharray:none;stroke-dashoffset:0;marker:none;visibility:visible;display:inline;overflow:visible;enable-background:accumulate" />
      <path
         sodipodi:nodetypes="ccc"
         inkscape:connector-curvature="0"
         id="path8942-8"
         d="m 398.93797,1088.4289 c -97.49374,0.644 -316.073827,59.9368 -217.14286,12.8571 106.06885,-53.064 145.40786,-9.905 217.14286,-12.8571 z"
         style="color:#000000;fill:#cccccc;fill-opacity:1;fill-rule:nonzero;stroke:#000000;stroke-width:3.4069593px;stroke-linecap:butt;stroke-linejoin:miter;stroke-miterlimit:4;stroke-opacity:1;stroke-dasharray:none;stroke-dashoffset:0;marker:none;visibility:visible;display:inline;overflow:visible;enable-background:accumulate" />
      <path
         sodipodi:nodetypes="cccc"
         inkscape:connector-curvature="0"
         id="path8982-3"
         d="m 290.36654,1004.1432 c 5.71166,-13.35668 22.06461,-17.32397 43.92857,-16.42859 -20.19886,2.5218 -38.1515,6.29149 -41.42857,18.21429 z"
         style="fill:#000000;stroke:none" />
      <path
         sodipodi:nodetypes="cccc"
         inkscape:connector-curvature="0"
         id="path8982-6-9"
         d="m 295.90225,1007.2391 c -5.71166,-13.3567 -22.06461,-17.32399 -43.92857,-16.42861 20.19886,2.5218 39.58007,0.5772 42.85714,12.50001 z"
         style="fill:#000000;stroke:none" />
      <path
         sodipodi:nodetypes="cccccccccccc"
         inkscape:connector-curvature="0"
         id="path9002-7"
         d="m 487.15225,1308.786 6.78572,-20.3571 -25,-9.6429 7.14286,6.7858 -16.07143,-5.7143 c -43.52845,3.9102 -56.97737,-16.8877 -75,-33.9286 10.05829,18.2475 11.83816,37.4148 37.5,53.9286 l 5.71428,2.5 3.57143,3.9285 22.85714,-3.2142 0.71429,6.0714 z"
         style="opacity:0.3218884;color:#000000;fill:#000000;fill-opacity:1;fill-rule:nonzero;stroke:none;stroke-width:4px;marker:none;visibility:visible;display:inline;overflow:visible;enable-background:accumulate" />
      <path
         sodipodi:nodetypes="ccccccccccccccccccc"
         inkscape:connector-curvature="0"
         id="path5951-4-9-9-1-1-2-8-5-4-6-9-3-3-9-6-2"
         d="m 257.17011,1218.4629 c -20.95641,15.7794 -7.1518,56.5855 -32.4375,65.1562 -10.57366,8.206 -23.80429,13.0288 -66.40625,-19.5625 l 0.0313,26.9375 3.0625,1.1563 7.25,2.6562 -0.0625,0.4688 54.71875,23.8437 c -0.89306,12.0317 -8.69476,19.2843 -2.8606,30.6235 l 0.14185,4.4703 -12.125,47.3437 -12.90625,21.375 c 24.50563,8.7328 48.24141,12.8119 70.84375,10.125 -17.89683,-54.4306 -12.58425,-153.5669 15.6875,-208.5625 z m -137.78125,57.5312 c -0.20122,0.081 -0.3904,0.1707 -0.59375,0.25 l 0.53125,0.2188 z"
         style="opacity:0.28151263;fill:#000000;stroke:none" />
      <path
         inkscape:connector-curvature="0"
         id="path9109-5"
         d="m 122.61752,1254.1551 24.24366,9.5964 -11.61676,-13.637 22.72844,10.1015 0.50507,32.8299 -40.4061,-5.0507 z"
         style="opacity:0.28151263;color:#000000;fill:#000000;fill-opacity:1;fill-rule:nonzero;stroke:none;stroke-width:3.4069593px;marker:none;visibility:visible;display:inline;overflow:visible;enable-background:accumulate" />
      <path
         sodipodi:nodetypes="ccccccccc"
         inkscape:connector-curvature="0"
         id="path9134-0"
         d="m 243.29511,1225.286 -85.35714,-3.2142 0.28571,9.9285 -31.07143,-8.2143 -2.85714,18.2143 32.5,0 2.14286,7.1429 c 43.86868,-9.3137 64.62286,0.018 82.38796,11.7603 z"
         style="opacity:0.11538463;fill:#ffffff;stroke:none" />
      <path
         inkscape:connector-curvature="0"
         id="path9136-2"
         d="m 254.66433,1351.0072 0,34.8502 3.283,-34.3452 z"
         style="fill:#000000;stroke:none" />
      <path
         inkscape:connector-curvature="0"
         id="path9136-9-4"
         d="m 391.52577,1338.8815 13.56286,32.1028 -16.39047,-30.3599 z"
         style="fill:#000000;stroke:none" />
      <path
         inkscape:connector-curvature="0"
         id="path9136-9-7-8"
         d="m 369.83165,1343.7609 6.69448,34.2013 -9.81931,-33.075 z"
         style="fill:#000000;stroke:none" />
      <path
         inkscape:connector-curvature="0"
         id="path9136-9-0-0"
         d="m 277.07029,1352.2906 -0.40892,34.8479 3.68576,-34.3043 z"
         style="fill:#000000;stroke:none" />
      <path
         sodipodi:nodetypes="cccccccccccccc"
         inkscape:connector-curvature="0"
         id="path9181-6"
         d="m 357.5094,1207.0003 c 17.47317,20.0083 19.79798,44.6776 20,70 l 28.45591,39.7842 -1.51523,6.566 -4.04061,-7.0711 c 20.41485,30.3816 35.95024,61.5763 32.32488,95.9645 l 45.45686,-20.7081 c -27.6503,-20.1511 -34.2303,-45.5697 -47.98224,-69.1954 l 2.52538,-2.5254 c 3.62771,-6.6586 0.69078,-13.0046 -5.55584,-19.1929 l -13.63706,-6.566 -29.7995,-47.4772 -8.08122,-36.8705 z"
         style="opacity:0.23504274;color:#000000;fill:#000000;fill-opacity:1;fill-rule:nonzero;stroke:none;stroke-width:4px;marker:none;visibility:visible;display:inline;overflow:visible;enable-background:accumulate" />
      <path
         sodipodi:nodetypes="cccccc"
         inkscape:connector-curvature="0"
         id="path9250-2"
         d="m 244.54511,1034.0003 -18,47.5 c -18.60753,11.9177 -40.94291,22.6667 -50.25,37.5 -28.09601,0.6656 -10.97186,-7.0911 8,-19.5 l 7,-43 c 15.85277,-11.5701 32.09258,-20.213 53.25,-22.5 z"
         style="opacity:0.24786323;color:#000000;fill:#000000;fill-opacity:1;fill-rule:nonzero;stroke:none;stroke-width:1px;marker:none;visibility:visible;display:inline;overflow:visible;enable-background:accumulate" />
      <path
         sodipodi:nodetypes="ccccccccc"
         inkscape:connector-curvature="0"
         id="path9297-6"
         d="m 393.3384,1045.003 13.43503,48.4368 c -28.87353,-14.8303 -57.74705,1.2438 -86.62058,2.1213 l 35.35534,-11.3137 -35.00179,0.5303 49.85103,0.8839 6.71751,0.7071 c 18.12007,-15.1253 1.0076,-51.2493 -11.66726,-47.7297 z"
         style="opacity:0.24786323;color:#000000;fill:#000000;fill-opacity:1;fill-rule:nonzero;stroke:none;stroke-width:1px;marker:none;visibility:visible;display:inline;overflow:visible;enable-background:accumulate" />
      <path
         inkscape:connector-curvature="0"
         id="path9322-5"
         d="m 332.17366,974.64585 c -0.7071,0.53033 -16.26345,10.25305 -16.26345,10.25305 l 7.95495,-3.35876 -15.9099,12.55115 41.7193,9.89951 -1.76777,-15.02604 z"
         style="opacity:0.24786323;color:#000000;fill:#000000;fill-opacity:1;fill-rule:nonzero;stroke:none;stroke-width:1px;marker:none;visibility:visible;display:inline;overflow:visible;enable-background:accumulate" />
      <path
         inkscape:connector-curvature="0"
         id="path9330-6"
         d="m 331.113,974.11552 -16.79378,11.31371 18.56155,-10.6066 z"
         style="fill:#000000;stroke:none" />
      <path
         sodipodi:nodetypes="cccccc"
         inkscape:connector-curvature="0"
         id="path9332-6"
         d="m 209.49064,1105.1071 58.68986,-31.8198 c 3.61026,-15.9215 7.82303,-30.0354 12.37437,-43.1336 l 42.77996,4.2427 c -4.35361,9.2992 -10.08394,23.2108 -21.92031,41.0122 -16.53311,18.1292 -53.10918,24.5668 -91.92388,29.6985 z"
         style="opacity:0.1837607;fill:#ffffff;stroke:none" />
      <path
         inkscape:connector-curvature="0"
         id="path8601-3-9-3"
         d="m 353.57636,1203.7754 c 8.09648,7.5751 13.65152,17.5519 15.25,29.0275 0.16769,1.2039 0.267,2.4073 0.34375,3.6041 0.20818,-3.2301 0.11642,-6.5346 -0.34375,-9.8382 -0.91028,-6.535 -3.12752,-12.5566 -6.34375,-17.9555 l -4.28125,-0.4546 2.25,-1.8832 c -2.25965,-0.9131 -4.55318,-1.7441 -6.875,-2.5001 z m -92.28125,13.3773 c -1.57635,1.1057 -3.09987,2.2814 -4.59375,3.4742 -2.19887,6.2014 -3.17983,12.7977 -2.75,19.5466 0.53676,-8.1789 3.1082,-16.0289 7.34375,-23.0208 z m -14.65625,12.7604 c -0.0412,0.044 -0.0838,0.086 -0.125,0.1299 0.0718,2.5194 0.10695,4.981 0.125,7.403 0.0302,-2.4642 0.0292,-4.9613 0,-7.5329 z m 139.4375,24.4494 c -8.90718,28.6645 -32.48899,50.9815 -62.6875,55.5226 -32.27594,4.8535 -62.78722,-11.9713 -78.40625,-40.0347 -0.20983,1.6945 -0.43888,3.3747 -0.6875,5.0003 15.40168,28.8062 46.34488,46.1931 79.09375,41.2685 31.43147,-4.7265 55.709,-28.7062 63.71875,-59.0617 -0.34794,-0.8786 -0.68797,-1.793 -1.03125,-2.695 z"
         style="opacity:0.55128204;color:#000000;fill:#000000;stroke:none;stroke-width:3.4069593px;marker:none;visibility:visible;display:inline;overflow:visible;enable-background:accumulate" />
      <path
         sodipodi:nodetypes="cccsccccccccccccccccscc"
         inkscape:connector-curvature="0"
         id="path8601-3-30-4"
         d="m 353.57636,1201.7754 c 8.09648,7.2906 13.65152,16.8928 15.25,27.9375 0.003,0.021 -0.003,0.042 0,0.063 1.20997,-5.3222 1.50014,-10.8851 0.6875,-16.5 -0.27772,-1.919 -0.67813,-3.766 -1.1875,-5.5938 -0.55287,-0.2668 -1.09694,-0.5539 -1.65625,-0.8125 l -8.46875,-0.875 2.25,-1.8125 c -2.25965,-0.8788 -4.55318,-1.6786 -6.875,-2.4062 z m -92.28125,12.875 c -2.29022,1.5461 -4.47747,3.2162 -6.59375,4.9375 -0.2848,3.3239 -0.19996,6.7163 0.28125,10.125 1.21854,-5.3083 3.36529,-10.3801 6.3125,-15.0625 z m -14,11.625 c -0.26042,0.2626 -0.52405,0.5157 -0.78125,0.7812 0.12715,4.2953 0.19727,8.4352 0.15625,12.4375 0.32796,-4.2014 0.52386,-8.6253 0.625,-13.2187 z m 137.1875,20.0312 c -30.68529,72.2849 -110.56817,70.592 -138.5,9.125 -0.39397,5.2095 -0.95259,10.1253 -1.6875,14.75 15.40168,27.7245 46.34488,44.4584 79.09375,39.7188 31.43147,-4.549 55.709,-27.6282 63.71875,-56.8438 -0.89279,-2.1698 -1.76217,-4.4324 -2.625,-6.75 z"
         style="opacity:0.3675214;color:#000000;fill:#000000;stroke:none;stroke-width:3.4069593px;marker:none;visibility:visible;display:inline;overflow:visible;enable-background:accumulate" />
      <path
         sodipodi:nodetypes="cccccccccccccc"
         inkscape:connector-curvature="0"
         id="path8574-7-1"
         d="m 433.68696,1309.6522 c -62.84285,38.3435 -142.21628,47.481 -212.64185,27.1232 -10.62907,1.3723 -0.91569,7.0919 -1.34375,10.5937 76.94504,12.1165 153.46853,8.1141 214.78125,-27.8125 -1.23984,-3.3264 0.0735,-7.243 -0.79565,-9.9044 z m -212.6731,11.7482 -0.0625,0.25 c 0.004,0.093 -0.004,0.1878 0,0.2812 z m -0.0625,0.5312 -0.65625,7.3438 c 0.17532,0.063 0.35539,0.125 0.53125,0.1875 0.11514,-0.9123 0.25594,-1.8343 0.375,-2.75 -0.0883,-1.555 -0.18366,-3.1885 -0.25,-4.7813 z"
         style="opacity:0.3675214;color:#000000;fill:#000000;fill-opacity:1;fill-rule:nonzero;stroke:none;stroke-width:3.4069593px;marker:none;visibility:visible;display:inline;overflow:visible;enable-background:accumulate" />
      <path
         inkscape:connector-curvature="0"
         id="path9522-7"
         d="m 226.10765,1023.4362 71.06423,-19.0919 -3.53554,7.4247 17.32412,-9.8995 6.36396,1.7677 -6.01041,8.8389 10.6066,-5.3033 26.87006,12.7279 -29.69848,-6.7175 -10.96016,7.071 -10.96015,-2.8284 3.53553,-5.3033 -9.54594,4.5962 -1.06066,-6.0104 z"
         style="opacity:0.18803418;fill:#ffffff;stroke:none" />
      <path
         sodipodi:nodetypes="cccc"
         inkscape:connector-curvature="0"
         id="path9524-1"
         d="m 337.29511,966.50032 c 47.93402,-93.49045 98.96992,46.57488 143,82.99998 -42.30101,-26.9808 -96.56332,-150.14247 -136.5,-65.99998 z"
         style="opacity:0.10256407;fill:#ffffff;stroke:#000000;stroke-width:1px;stroke-linecap:butt;stroke-linejoin:miter;stroke-opacity:1" />
      <path
         sodipodi:nodetypes="ccccc"
         inkscape:connector-curvature="0"
         id="path9526-3"
         d="m 296.46477,994.79839 c 6.44871,-8.94635 11.10552,-18.60947 21.92031,-25.8094 l -15.55635,-4.94974 c -8.45227,7.66032 -10.36979,15.32064 -13.43503,22.98097 0.18239,4.22369 3.13786,6.36759 7.07107,7.77817 z"
         style="opacity:0.26495726;color:#000000;fill:#ffffff;fill-opacity:1;fill-rule:nonzero;stroke:none;stroke-width:1px;marker:none;visibility:visible;display:inline;overflow:visible;enable-background:accumulate" />
      <path
         inkscape:connector-curvature="0"
         id="path9545-0"
         d="m 380.79511,1218.5003 84.5,27 3.5,-7.5 40,9.5 -9,19 -34.5,-15 -2.5,7.5 -80.5,-30 z"
         style="opacity:0.14957263;color:#000000;fill:#ffffff;fill-opacity:1;fill-rule:nonzero;stroke:none;stroke-width:1px;marker:none;visibility:visible;display:inline;overflow:visible;enable-background:accumulate" />
      <rect
         transform="matrix(0.90546123,-0.42442899,0.42442899,0.90546123,0,0)"
         ry="1.3271558"
         y="1131.2247"
         x="-441.4296"
         height="78.853271"
         width="29.98922"
         id="rect9837-2"
         style="color:#000000;fill:#aa8800;fill-opacity:1;fill-rule:nonzero;stroke:#000000;stroke-width:3.4069593px;stroke-linecap:butt;stroke-linejoin:miter;stroke-miterlimit:4;stroke-opacity:1;stroke-dasharray:none;stroke-dashoffset:0;marker:none;visibility:visible;display:inline;overflow:visible;enable-background:accumulate" />
      <path
         id="path9776-9"
         d="m 41.670113,961.0566 c -19.11978,-0.15836 -39.2264946,4.07602 -58.531245,13.125 -58.833527,27.5778 -87.931378,89.6374 -64.96875,138.625 10.924887,23.3068 31.67461,39.4459 56.75,47 l -3.5,0 c 38.892315,15.3379 78.482535,29.6234 113.593745,50.75 l -3.90625,-19.1875 c -14.34897,-10.3204 -28.07678,-21.3139 -44.09375,-29.8125 9.80859,-2.1648 19.65025,-5.4543 29.28125,-9.9687 11.28174,-5.2883 21.43837,-11.8862 30.375,-19.375 -4.33318,18.7543 -4.62113,37.3259 -5.9375,55.9375 l 12.249997,15.25 c 6.22334,-40.5018 21.20973,-85.5676 32.09375,-123.1875 l -3.09375,4.125 c 9.33893,-23.4715 9.83081,-48.8336 -0.75,-71.4063 -15.42802,-32.91357 -50.412477,-51.55075 -89.562497,-51.875 z m -4.09375,9.6875 c 36.42385,-0.49353 69.244447,16.45856 83.531247,46.9375 20.7808,44.333 -5.53779,100.5112 -58.781247,125.4688 -53.2434596,24.9575 -113.250445,9.2392 -134.031245,-35.0938 -20.780803,-44.333 5.537787,-100.48 58.78125,-125.4375 16.6385804,-7.79923 33.943705,-11.65067 50.499995,-11.875 z"
         style="color:#000000;fill:#803300;fill-opacity:1;fill-rule:nonzero;stroke:#000000;stroke-width:3.4069593px;stroke-linecap:butt;stroke-linejoin:miter;stroke-miterlimit:4;stroke-opacity:1;stroke-dasharray:none;stroke-dashoffset:0;marker:none;visibility:visible;display:inline;overflow:visible;enable-background:accumulate"
         inkscape:connector-curvature="0" />
      <path
         sodipodi:nodetypes="ccccc"
         inkscape:connector-curvature="0"
         id="path9829-1"
         d="m 80.418793,1214.4627 -0.56152,-26.6597 9.18924,-3.9361 21.579167,16.2508 z"
         style="color:#000000;fill:#aa4400;fill-opacity:1;fill-rule:nonzero;stroke:#000000;stroke-width:3.4069593px;stroke-linecap:butt;stroke-linejoin:miter;stroke-miterlimit:4;stroke-opacity:1;stroke-dasharray:none;stroke-dashoffset:0;marker:none;visibility:visible;display:inline;overflow:visible;enable-background:accumulate" />
      <path
         inkscape:connector-curvature="0"
         id="path10842-0"
         d="m 80.137403,1213.9793 7.11969,15.1635 36.693647,0.9242 -6.77739,-14.5132 -37.035947,-1.5745 z m 12.21982,26.0484 7.11968,15.1635 36.693647,0.9241 -6.77739,-14.5131 -37.035937,-1.5745 z m 12.356717,26.3564 7.08542,15.1293 12.04869,0.308 18.6891,-8.7626 c 0.72922,-0.3419 1.0264,-1.1876 0.68458,-1.9169 l -1.50607,-3.1833 -37.00172,-1.5745 z"
         style="fill:#000000;stroke:#000000;stroke-width:1.0953325px;stroke-linecap:butt;stroke-linejoin:miter;stroke-opacity:1" />
      <rect
         transform="matrix(0.90546123,-0.42442899,0.42442899,0.90546123,0,0)"
         ry="1.3271558"
         y="1205.8815"
         x="-447.48514"
         height="18.783066"
         width="40.370102"
         id="rect9839-8"
         style="color:#000000;fill:#aa8800;fill-opacity:1;fill-rule:nonzero;stroke:#000000;stroke-width:3.4069593px;stroke-linecap:butt;stroke-linejoin:miter;stroke-miterlimit:4;stroke-opacity:1;stroke-dasharray:none;stroke-dashoffset:0;marker:none;visibility:visible;display:inline;overflow:visible;enable-background:accumulate" />
      <path
         sodipodi:nodetypes="cccc"
         inkscape:connector-curvature="0"
         id="path10303-4"
         d="m 115.29511,1211.0003 c -28.320847,18.6258 -16.094657,51.7871 10.5,24 l 3.5,-24 z"
         style="color:#000000;fill:#d3bc5f;fill-opacity:1;fill-rule:nonzero;stroke:#000000;stroke-width:3.4069593px;stroke-linecap:butt;stroke-linejoin:miter;stroke-miterlimit:4;stroke-opacity:1;stroke-dasharray:none;stroke-dashoffset:0;marker:none;visibility:visible;display:inline;overflow:visible;enable-background:accumulate" />
      <path
         sodipodi:nodetypes="ccccccccc"
         inkscape:connector-curvature="0"
         id="path10889-9"
         d="m 81.795113,1197.0003 -57,-36 c 26.00895,-4.0715 52.83372,-14.6697 81.499997,-40 l -10.999997,71.5 4.5,1.5 22.499997,-105 c -20.40028,42.2244 -57.567247,70.3294 -128.4999916,70 l 87.9999946,43.5 z"
         style="opacity:0.11267604;fill:#ffffff;stroke:none" />
      <path
         inkscape:connector-curvature="0"
         id="path10891-8"
         d="m 83.545113,1187.2503 16.999997,19 8,-4.5 1.5,5 -14.999997,7.25 29.749997,59.75 -13.25,5.5 -29.999997,-64.75 -2,0.5 -0.75,-9 -144.369007,-67.3057 140.714247,55.8615 -0.70711,-8.4853 z"
         style="opacity:0.28151263;color:#000000;fill:#000000;fill-opacity:1;fill-rule:nonzero;stroke:none;stroke-width:1px;marker:none;visibility:visible;display:inline;overflow:visible;enable-background:accumulate" />
    </g>
    <path
       style="opacity:0.28151263;color:#000000;fill:#000000;fill-opacity:1;fill-rule:nonzero;stroke:none;stroke-width:1px;marker:none;visibility:visible;display:inline;overflow:visible;enable-background:accumulate"
       d="m 220.08929,364.61174 c 0.69589,0.0307 6.64386,16.81354 7.23214,16.60714 3.76781,-1.32192 14.64285,-6.78572 14.64285,-6.78572 l -10.17857,-14.37499 z"
       id="path3075"
       inkscape:connector-curvature="0"
       transform="translate(97.091633,222.06524)"
       sodipodi:nodetypes="csccc" />
  </g>
</svg>
