<?xml version="1.0" encoding="UTF-8" standalone="no"?>
<!-- Created with Inkscape (http://www.inkscape.org/) -->

<svg
   xmlns:dc="http://purl.org/dc/elements/1.1/"
   xmlns:cc="http://creativecommons.org/ns#"
   xmlns:rdf="http://www.w3.org/1999/02/22-rdf-syntax-ns#"
   xmlns:svg="http://www.w3.org/2000/svg"
   xmlns="http://www.w3.org/2000/svg"
   xmlns:xlink="http://www.w3.org/1999/xlink"
   xmlns:sodipodi="http://sodipodi.sourceforge.net/DTD/sodipodi-0.dtd"
   xmlns:inkscape="http://www.inkscape.org/namespaces/inkscape"
   width="490.09494"
   height="477.58981"
   id="svg7499"
   version="1.1"
   inkscape:version="0.48.3.1 r9886"
   sodipodi:docname="buho_2.svg"
   inkscape:export-filename="/home/vladimir/Documentos/mis_sitios/pagina_mirror/animales/buho_2.png"
   inkscape:export-xdpi="90"
   inkscape:export-ydpi="90">
  <defs
     id="defs7501">
    <inkscape:perspective
       sodipodi:type="inkscape:persp3d"
       inkscape:vp_x="0 : 526.18109 : 1"
       inkscape:vp_y="0 : 1000 : 0"
       inkscape:vp_z="744.09448 : 526.18109 : 1"
       inkscape:persp3d-origin="372.04724 : 350.78739 : 1"
       id="perspective7507" />
    <inkscape:perspective
       id="perspective7517"
       inkscape:persp3d-origin="0.5 : 0.33333333 : 1"
       inkscape:vp_z="1 : 0.5 : 1"
       inkscape:vp_y="0 : 1000 : 0"
       inkscape:vp_x="0 : 0.5 : 1"
       sodipodi:type="inkscape:persp3d" />
    <inkscape:perspective
       id="perspective7755"
       inkscape:persp3d-origin="0.5 : 0.33333333 : 1"
       inkscape:vp_z="1 : 0.5 : 1"
       inkscape:vp_y="0 : 1000 : 0"
       inkscape:vp_x="0 : 0.5 : 1"
       sodipodi:type="inkscape:persp3d" />
    <radialGradient
       inkscape:collect="always"
       xlink:href="#linearGradient6488"
       id="radialGradient6496"
       cx="-338.64062"
       cy="1193.1094"
       fx="-338.64062"
       fy="1193.1094"
       r="158.54688"
       gradientTransform="matrix(-1.136143e-7,0.79853046,-0.58975192,-7.9480073e-8,364.99788,1463.5243)"
       gradientUnits="userSpaceOnUse" />
    <linearGradient
       inkscape:collect="always"
       id="linearGradient6488">
      <stop
         style="stop-color:#ffffff;stop-opacity:1;"
         offset="0"
         id="stop6490" />
      <stop
         style="stop-color:#ffffff;stop-opacity:0;"
         offset="1"
         id="stop6492" />
    </linearGradient>
    <radialGradient
       inkscape:collect="always"
       xlink:href="#linearGradient5994"
       id="radialGradient6000"
       cx="-372.75092"
       cy="1176.424"
       fx="-372.75092"
       fy="1176.424"
       r="7.6897101"
       gradientTransform="matrix(1,0,0,2.4160908,0,-1665.9232)"
       gradientUnits="userSpaceOnUse" />
    <linearGradient
       inkscape:collect="always"
       id="linearGradient5994">
      <stop
         style="stop-color:#ffffff;stop-opacity:1;"
         offset="0"
         id="stop5996" />
      <stop
         style="stop-color:#ffffff;stop-opacity:0;"
         offset="1"
         id="stop5998" />
    </linearGradient>
  </defs>
  <sodipodi:namedview
     id="base"
     pagecolor="#ffffff"
     bordercolor="#666666"
     borderopacity="1.0"
     inkscape:pageopacity="0.0"
     inkscape:pageshadow="2"
     inkscape:zoom="0.45254834"
     inkscape:cx="49.438187"
     inkscape:cy="260.31717"
     inkscape:document-units="px"
     inkscape:current-layer="g6950"
     showgrid="false"
     inkscape:window-width="1264"
     inkscape:window-height="715"
     inkscape:window-x="0"
     inkscape:window-y="48"
     inkscape:window-maximized="1"
     fit-margin-top="0"
     fit-margin-left="0"
     fit-margin-right="0"
     fit-margin-bottom="0" />
  <metadata
     id="metadata7504">
    <rdf:RDF>
      <cc:Work
         rdf:about="">
        <dc:format>image/svg+xml</dc:format>
        <dc:type
           rdf:resource="http://purl.org/dc/dcmitype/StillImage" />
        <dc:title></dc:title>
      </cc:Work>
    </rdf:RDF>
  </metadata>
  <g
     inkscape:label="Capa 1"
     inkscape:groupmode="layer"
     id="layer1"
     transform="translate(-254.28511,-553.72944)">
    <g
       transform="matrix(1.5,0,0,1.5,1001.0368,-987.37867)"
       id="g6950">
      <path
         transform="translate(28.726213,-22.097087)"
         d="m -208.81747,1208.6991 c 0,87.5629 -70.98374,158.5466 -158.5466,158.5466 -87.56287,0 -158.54661,-70.9837 -158.54661,-158.5466 0,-87.5629 70.98374,-158.5466 158.54661,-158.5466 87.56286,0 158.5466,70.9837 158.5466,158.5466 z"
         sodipodi:ry="158.5466"
         sodipodi:rx="158.5466"
         sodipodi:cy="1208.6991"
         sodipodi:cx="-367.36407"
         id="path6424"
         style="color:#000000;fill:#004455;fill-opacity:1;fill-rule:nonzero;stroke:#000000;stroke-width:1.29999995;stroke-miterlimit:4;stroke-dasharray:none;marker:none;visibility:visible;display:inline;overflow:visible;enable-background:accumulate"
         sodipodi:type="arc" />
      <path
         id="path9287-2"
         d="m -231.21548,1069.1554 c -2.90333,0 -5.75496,0.2483 -8.52509,0.7041 18.96381,3.5659 33.28219,19.8295 33.28219,39.3524 0,22.1347 -18.41021,40.0758 -41.12224,40.0758 -12.77561,0 -24.17904,-5.6883 -31.7219,-14.5957 6.83186,19.4866 25.77807,33.5107 48.08704,33.5107 28.06086,0 50.80816,-22.1667 50.80816,-49.5141 0,-27.3475 -22.7473,-49.5332 -50.80816,-49.5332 z"
         style="color:#000000;fill:#d4aa00;fill-opacity:1;fill-rule:nonzero;stroke:#000000;stroke-width:1px;stroke-linecap:butt;stroke-linejoin:miter;stroke-miterlimit:4;stroke-opacity:1;stroke-dasharray:none;stroke-dashoffset:0;marker:none;visibility:visible;display:inline;overflow:visible;enable-background:accumulate"
         inkscape:connector-curvature="0" />
      <path
         sodipodi:nodetypes="cccc"
         id="path9251-2"
         d="m -171.22951,1227.4669 c -7.35661,6.0784 -10.10457,13.4887 -3.25,7.75 -6.50115,4.4697 -2.89842,-2.3889 3.375,-7 l -0.125,-0.75 z"
         style="fill:#000000;stroke:none"
         inkscape:connector-curvature="0" />
      <path
         id="path9253-1"
         d="m -176.85451,1233.5294 c 0,0 -27.75,10.1875 -27.5,10.1875 0.25,0 27.0625,-9.4375 27.0625,-9.4375 l 0.4375,-0.75 z"
         style="fill:#000000;stroke:none"
         inkscape:connector-curvature="0" />
      <path
         sodipodi:nodetypes="ccc"
         id="path9255-4"
         d="m -173.82803,1232.0857 c 4.39734,-4.491 -2.15878,4.3928 -0.99061,0.9718 -1.12118,4.948 5.54792,-6.3782 0.99061,-0.9718 z"
         style="fill:#000000;stroke:none"
         inkscape:connector-curvature="0" />
      <path
         transform="translate(-664.9002,696.17827)"
         d="m 450,521.36218 -12.76839,-0.36325 -7.53783,10.31237 -3.60018,-12.25571 -12.13696,-3.98221 10.54336,-7.2112 0.0368,-12.7735 10.11633,7.79895 12.15969,-3.91226 -4.29112,12.03121 z"
         inkscape:randomized="0"
         inkscape:rounded="0"
         inkscape:flatsided="false"
         sodipodi:arg2="1.1152178"
         sodipodi:arg1="0.48689923"
         sodipodi:r2="9.617692"
         sodipodi:r1="19.235384"
         sodipodi:cy="512.36218"
         sodipodi:cx="433"
         sodipodi:sides="5"
         id="path9341-0"
         style="color:#000000;fill:#d4aa00;fill-opacity:1;fill-rule:nonzero;stroke:#000000;stroke-width:1px;stroke-linecap:butt;stroke-linejoin:miter;stroke-miterlimit:4;stroke-opacity:1;stroke-dasharray:none;stroke-dashoffset:0;marker:none;visibility:visible;display:inline;overflow:visible;enable-background:accumulate"
         sodipodi:type="star" />
      <path
         transform="matrix(-1,0,0,1,178.07812,591.34046)"
         d="m 450,521.36218 -12.76839,-0.36325 -7.53783,10.31237 -3.60018,-12.25571 -12.13696,-3.98221 10.54336,-7.2112 0.0368,-12.7735 10.11633,7.79895 12.15969,-3.91226 -4.29112,12.03121 z"
         inkscape:randomized="0"
         inkscape:rounded="0"
         inkscape:flatsided="false"
         sodipodi:arg2="1.1152178"
         sodipodi:arg1="0.48689923"
         sodipodi:r2="9.617692"
         sodipodi:r1="19.235384"
         sodipodi:cy="512.36218"
         sodipodi:cx="433"
         sodipodi:sides="5"
         id="path9341-8-3"
         style="color:#000000;fill:#d4aa00;fill-opacity:1;fill-rule:nonzero;stroke:#000000;stroke-width:1px;stroke-linecap:butt;stroke-linejoin:miter;stroke-miterlimit:4;stroke-opacity:1;stroke-dasharray:none;stroke-dashoffset:0;marker:none;visibility:visible;display:inline;overflow:visible;enable-background:accumulate"
         sodipodi:type="star" />
      <path
         id="path9341-0-3"
         d="m -240.375,1191.2812 -0.0312,12.75 -10.53125,7.2188 8.6875,2.8438 c 0.021,0 0.0415,0 0.0625,0 8.1826,0 15.48203,-3.2156 20.28125,-8.2188 l 3.8125,-10.7188 -12.15625,3.9063 -10.125,-7.7813 z"
         style="opacity:0.256;color:#000000;fill:#ffffff;fill-opacity:1;fill-rule:nonzero;stroke:none;stroke-width:1px;marker:none;visibility:visible;display:inline;overflow:visible;enable-background:accumulate"
         inkscape:connector-curvature="0" />
      <path
         id="path6614"
         d="m -246.46875,1086.4375 -10.09375,7.7813 -10.5,-3.375 c -0.24582,0.8969 -0.40948,1.7981 -0.5,2.75 l 3.125,8.75 -0.875,1.2187 c 2.82874,4.7272 7.93871,7.9063 13.8125,7.9063 1.12596,0 2.22022,-0.091 3.28125,-0.3126 l 0.21875,-0.75 5.78125,-1.9062 c 1.4717,-1.0448 2.75894,-2.3417 3.8125,-3.8125 l -8.03125,-5.5 -0.0312,-12.75 z"
         style="opacity:0.20400002;color:#000000;fill:#ffffff;fill-opacity:1;fill-rule:nonzero;stroke:none;stroke-width:1.29999995;marker:none;visibility:visible;display:inline;overflow:visible;enable-background:accumulate"
         inkscape:connector-curvature="0" />
    </g>
  </g>
</svg>
