<?xml version="1.0" encoding="UTF-8" standalone="no"?>
<!-- Created with Inkscape (http://www.inkscape.org/) -->

<svg
   xmlns:dc="http://purl.org/dc/elements/1.1/"
   xmlns:cc="http://creativecommons.org/ns#"
   xmlns:rdf="http://www.w3.org/1999/02/22-rdf-syntax-ns#"
   xmlns:svg="http://www.w3.org/2000/svg"
   xmlns="http://www.w3.org/2000/svg"
   xmlns:sodipodi="http://sodipodi.sourceforge.net/DTD/sodipodi-0.dtd"
   xmlns:inkscape="http://www.inkscape.org/namespaces/inkscape"
   width="712.23486"
   height="613.29968"
   id="svg3387"
   version="1.1"
   inkscape:version="0.48.3.1 r9886"
   sodipodi:docname="dinosaurio_3.svg"
   inkscape:export-filename="/home/vhzc/Imagenes/svgs/dino.png"
   inkscape:export-xdpi="90"
   inkscape:export-ydpi="90">
  <defs
     id="defs3389" />
  <sodipodi:namedview
     id="base"
     pagecolor="#ffffff"
     bordercolor="#666666"
     borderopacity="1.0"
     inkscape:pageopacity="0.0"
     inkscape:pageshadow="2"
     inkscape:zoom="0.35"
     inkscape:cx="307.47755"
     inkscape:cy="340.70294"
     inkscape:document-units="px"
     inkscape:current-layer="g5322"
     showgrid="false"
     fit-margin-top="0"
     fit-margin-left="0"
     fit-margin-right="0"
     fit-margin-bottom="0"
     inkscape:window-width="1264"
     inkscape:window-height="715"
     inkscape:window-x="0"
     inkscape:window-y="48"
     inkscape:window-maximized="1" />
  <metadata
     id="metadata3392">
    <rdf:RDF>
      <cc:Work
         rdf:about="">
        <dc:format>image/svg+xml</dc:format>
        <dc:type
           rdf:resource="http://purl.org/dc/dcmitype/StillImage" />
        <dc:title></dc:title>
      </cc:Work>
    </rdf:RDF>
  </metadata>
  <g
     inkscape:label="Capa 1"
     inkscape:groupmode="layer"
     id="layer1"
     transform="translate(-17.639018,-511.35697)">
    <g
       id="g5322">
      <path
         inkscape:connector-curvature="0"
         id="path4809-8-3"
         d="m 208.34278,1013.6952 -7.57614,-16.66755 11.61675,12.87945 1.76777,-23.73859 3.53553,21.71829 2.27285,-5.5558 0.25254,4.7982 12.87944,-8.33378 -6.81853,13.88958"
         style="color:#000000;fill:#5aa02c;fill-opacity:1;fill-rule:nonzero;stroke:#000000;stroke-width:2.0999999;stroke-linecap:butt;stroke-linejoin:miter;stroke-miterlimit:4;stroke-opacity:1;stroke-dasharray:none;stroke-dashoffset:0;marker:none;visibility:visible;display:inline;overflow:visible;enable-background:accumulate" />
      <path
         transform="translate(-14.648394,664.14662)"
         d="m 743.47226,153.32642 c 0,168.48333 -144.72342,305.06607 -323.24881,305.06607 -178.52539,0 -323.24881,-136.58274 -323.24881,-305.06607 0,-168.483342 144.72342,-305.06607 323.24881,-305.06607 178.52539,0 323.24881,136.582728 323.24881,305.06607 z"
         sodipodi:ry="305.06607"
         sodipodi:rx="323.24881"
         sodipodi:cy="153.32642"
         sodipodi:cx="420.22345"
         id="path4859-8"
         style="color:#000000;fill:#5fd3bc;fill-opacity:1;fill-rule:nonzero;stroke:#000000;stroke-width:2.0999999;stroke-linecap:butt;stroke-linejoin:miter;stroke-miterlimit:4;stroke-opacity:1;stroke-dasharray:none;stroke-dashoffset:0;marker:none;visibility:visible;display:inline;overflow:visible;enable-background:accumulate"
         sodipodi:type="arc" />
      <path
         transform="translate(11.514047,312.67301)"
         d="m 698.57144,732.36218 c 0,43.3938 -133.67499,78.57143 -298.57144,78.57143 -164.89645,0 -298.57144,-35.17763 -298.57144,-78.57143 0,-43.3938 133.67499,-78.57142 298.57144,-78.57142 164.89645,0 298.57144,35.17762 298.57144,78.57142 z"
         sodipodi:ry="78.571426"
         sodipodi:rx="298.57144"
         sodipodi:cy="732.36218"
         sodipodi:cx="400"
         id="path4757-1"
         style="color:#000000;fill:#5aa02c;fill-opacity:1;fill-rule:nonzero;stroke:#000000;stroke-width:2.0999999;stroke-linecap:butt;stroke-linejoin:miter;stroke-miterlimit:4;stroke-opacity:1;stroke-dasharray:none;stroke-dashoffset:0;marker:none;visibility:visible;display:inline;overflow:visible;enable-background:accumulate"
         sodipodi:type="arc" />
      <path
         sodipodi:nodetypes="ccccc"
         inkscape:connector-curvature="0"
         id="path4776-1"
         d="M 211.51405,1010.7495 C 195.78624,924.56576 173.81323,841.50464 112.94262,777.89233 l 30,-24.2857 c 43.30601,76.38612 70.02181,163.14112 82.85714,258.57147 z"
         style="color:#000000;fill:#a0892c;fill-opacity:1;fill-rule:nonzero;stroke:#000000;stroke-width:2.0999999;stroke-linecap:butt;stroke-linejoin:miter;stroke-miterlimit:4;stroke-opacity:1;stroke-dasharray:none;stroke-dashoffset:0;marker:none;visibility:visible;display:inline;overflow:visible;enable-background:accumulate" />
      <path
         inkscape:connector-curvature="0"
         id="path4809-8"
         d="m 208.34278,1013.6952 -7.57614,-16.66755 11.61675,12.87945 1.76777,-23.73859 3.53553,21.71829 2.27285,-5.5558 0.25254,4.7982 12.87944,-8.33378 -6.81853,13.88958"
         style="color:#000000;fill:#5aa02c;fill-opacity:1;fill-rule:nonzero;stroke:#000000;stroke-width:2.0999999;stroke-linecap:butt;stroke-linejoin:miter;stroke-miterlimit:4;stroke-opacity:1;stroke-dasharray:none;stroke-dashoffset:0;marker:none;visibility:visible;display:inline;overflow:visible;enable-background:accumulate" />
      <path
         id="path5274"
         d="M 709.71875,713.9375 C 475.95208,877.19999 234.84655,668.40015 95.65625,730.5625 87.447576,756.67107 82.833762,784.23023 82.375,812.75 c 155.24046,-97.02715 456.44612,89.47166 645.65625,25.875 0.50747,-6.99085 0.78125,-14.04383 0.78125,-21.15625 0,-36.35282 -6.73286,-71.20018 -19.09375,-103.53125 z"
         style="opacity:0.27038628;fill:#ffffff;stroke:none"
         inkscape:connector-curvature="0" />
      <path
         id="path4795-0"
         d="m 238.87652,688.16851 -104.03125,54.53125 c -5.9686,-13.68322 3.25785,-34.9614 7.0625,-53.53125 -21.01169,17.50931 -32.48759,35.02194 -29.28125,52.53125 -29.809141,-34.6672 -62.420223,-15.97503 -93.937502,-18.1875 16.647614,7.45863 37.153592,13.31663 53.5625,20.875 l 13.093751,-2.9375 -8.25,5.3125 c 10.60293,5.4302 18.9195,11.79243 22.40625,20.1875 -28.130963,16.03013 -51.662476,38.22445 -51.531251,91.9375 7.045862,-21.49218 17.683642,-34.54593 29.843751,-44.09375 l 7.53125,-19.3125 -1.46875,14.90625 c 7.94152,-5.37917 16.340851,-9.68466 24.687501,-14.125 -27.437241,64.01244 -0.75848,92.8148 21.21875,123.21875 -2.08562,-21.79745 -3.58424,-42.60236 -2.84375,-64.46875 l -11.28125,-28.46875 11.90625,16.15625 c 0.2662,-3.62193 0.62181,-7.29447 1.03125,-11 l -4.875,-28.875 7.0625,13 c 1.41106,-8.55787 3.22771,-17.42828 5.5625,-26.65625 20.46224,-1.76231 40.12081,0.56094 59.75,5.25 l -7.71875,-12.0625 17.34375,14.53125 c 2.48974,0.68756 4.97481,1.40418 7.46875,2.15625 l 0.1875,-9.875 5.75,11.71875 c 14.11259,4.50772 28.35081,9.89635 43,15.5625 -13.10742,-13.39074 -32.63973,-51.48173 -99,-53.53125 l 75.75,-74.75 z"
         style="color:#000000;fill:#44aa00;fill-opacity:1;fill-rule:nonzero;stroke:#000000;stroke-width:2.0999999;stroke-linecap:butt;stroke-linejoin:miter;stroke-miterlimit:4;stroke-opacity:1;stroke-dasharray:none;stroke-dashoffset:0;marker:none;visibility:visible;display:inline;overflow:visible;enable-background:accumulate"
         inkscape:connector-curvature="0" />
      <path
         sodipodi:nodetypes="cccc"
         inkscape:connector-curvature="0"
         id="path4831-6"
         d="m 148.2387,823.53395 c 5.33685,4.21332 19.7905,-7.74066 20.58186,-13.63706 0.19979,4.74006 -10.10429,14.4936 -20.07678,17.42513 z"
         style="fill:#000000;stroke:none" />
      <path
         sodipodi:nodetypes="cccc"
         inkscape:connector-curvature="0"
         id="path4831-3-3"
         d="m 162.62756,848.86909 c 3.93131,3.94005 16.83408,-4.38139 18.04659,-9.09788 -0.29522,3.87226 -9.61256,10.80567 -18.00174,12.22578 z"
         style="fill:#000000;stroke:none" />
      <path
         inkscape:connector-curvature="0"
         id="path4851-6"
         d="m 222.27384,1005.5039 -3.92857,-24.64285 5,23.75005 z"
         style="color:#000000;fill:#000000;fill-opacity:1;fill-rule:nonzero;stroke:none;stroke-width:2.0999999;marker:none;visibility:visible;display:inline;overflow:visible;enable-background:accumulate" />
      <path
         inkscape:connector-curvature="0"
         id="path4817-2"
         d="m 674.27565,1020.0086 10.10152,-29.79948 0.50508,19.19288 8.58629,-6.566 -1.51522,7.0711 14.14213,-8.5863 -7.57614,15.6574 13.13198,-3.5356 -8.5863,13.132"
         style="color:#000000;fill:#5aa02c;fill-opacity:1;fill-rule:nonzero;stroke:#000000;stroke-width:2.0999999;stroke-linecap:butt;stroke-linejoin:miter;stroke-miterlimit:4;stroke-opacity:1;stroke-dasharray:none;stroke-dashoffset:0;marker:none;visibility:visible;display:inline;overflow:visible;enable-background:accumulate" />
      <path
         sodipodi:nodetypes="ccccccc"
         inkscape:connector-curvature="0"
         id="path5314"
         d="m 162.85714,793.88004 -17.64771,1.65086 c 36.12386,59.40391 35.89051,87.6445 45.7094,124.5013 -16.67471,-43.2556 -31.14986,-90.36046 -58.08377,-115.66247 l 4.54569,-15.65736 23.73858,0 z"
         style="opacity:0.09871246;color:#000000;fill:#000000;fill-opacity:1;fill-rule:nonzero;stroke:#000000;stroke-width:2.0999999;stroke-linecap:butt;stroke-linejoin:miter;stroke-miterlimit:4;stroke-opacity:1;stroke-dasharray:none;stroke-dashoffset:0;marker:none;visibility:visible;display:inline;overflow:visible;enable-background:accumulate" />
    </g>
  </g>
</svg>
