<?xml version="1.0" encoding="UTF-8" standalone="no"?>
<!-- Created with Inkscape (http://www.inkscape.org/) -->

<svg
   xmlns:dc="http://purl.org/dc/elements/1.1/"
   xmlns:cc="http://creativecommons.org/ns#"
   xmlns:rdf="http://www.w3.org/1999/02/22-rdf-syntax-ns#"
   xmlns:svg="http://www.w3.org/2000/svg"
   xmlns="http://www.w3.org/2000/svg"
   xmlns:xlink="http://www.w3.org/1999/xlink"
   xmlns:sodipodi="http://sodipodi.sourceforge.net/DTD/sodipodi-0.dtd"
   xmlns:inkscape="http://www.inkscape.org/namespaces/inkscape"
   width="697.1427"
   height="626.86426"
   id="svg12756"
   version="1.1"
   inkscape:version="0.48.3.1 r9886"
   sodipodi:docname="tucan.svg"
   inkscape:export-filename="/home/vladimir/Documentos/mis_sitios/pagina_mirror/animales/tucan.png"
   inkscape:export-xdpi="90"
   inkscape:export-ydpi="90">
  <defs
     id="defs12758">
    <inkscape:perspective
       sodipodi:type="inkscape:persp3d"
       inkscape:vp_x="0 : 526.18109 : 1"
       inkscape:vp_y="0 : 1000 : 0"
       inkscape:vp_z="744.09448 : 526.18109 : 1"
       inkscape:persp3d-origin="372.04724 : 350.78739 : 1"
       id="perspective12764" />
    <inkscape:perspective
       id="perspective12579"
       inkscape:persp3d-origin="0.5 : 0.33333333 : 1"
       inkscape:vp_z="1 : 0.5 : 1"
       inkscape:vp_y="0 : 1000 : 0"
       inkscape:vp_x="0 : 0.5 : 1"
       sodipodi:type="inkscape:persp3d" />
    <inkscape:perspective
       id="perspective12792"
       inkscape:persp3d-origin="0.5 : 0.33333333 : 1"
       inkscape:vp_z="1 : 0.5 : 1"
       inkscape:vp_y="0 : 1000 : 0"
       inkscape:vp_x="0 : 0.5 : 1"
       sodipodi:type="inkscape:persp3d" />
    <linearGradient
       inkscape:collect="always"
       id="linearGradient12108">
      <stop
         style="stop-color:#000000;stop-opacity:1;"
         offset="0"
         id="stop12110" />
      <stop
         style="stop-color:#000000;stop-opacity:0;"
         offset="1"
         id="stop12112" />
    </linearGradient>
    <linearGradient
       inkscape:collect="always"
       id="linearGradient12193">
      <stop
         style="stop-color:#000000;stop-opacity:1;"
         offset="0"
         id="stop12195" />
      <stop
         style="stop-color:#000000;stop-opacity:0;"
         offset="1"
         id="stop12197" />
    </linearGradient>
    <filter
       color-interpolation-filters="sRGB"
       inkscape:collect="always"
       id="filter12145"
       x="-0.24290334"
       width="1.4858067"
       y="-0.25049406"
       height="1.5009881">
      <feGaussianBlur
         inkscape:collect="always"
         stdDeviation="11.928289"
         id="feGaussianBlur12147" />
    </filter>
    <filter
       color-interpolation-filters="sRGB"
       inkscape:collect="always"
       id="filter12267"
       x="-0.091709279"
       width="1.1834186"
       y="-0.13460198"
       height="1.269204">
      <feGaussianBlur
         inkscape:collect="always"
         stdDeviation="4.4036946"
         id="feGaussianBlur12269" />
    </filter>
    <filter
       color-interpolation-filters="sRGB"
       inkscape:collect="always"
       id="filter12000"
       x="-0.10027417"
       width="1.2005483"
       y="-0.19658472"
       height="1.3931694">
      <feGaussianBlur
         inkscape:collect="always"
         stdDeviation="28.446227"
         id="feGaussianBlur12002" />
    </filter>
    <filter
       color-interpolation-filters="sRGB"
       inkscape:collect="always"
       id="filter12082"
       x="-0.20415524"
       width="1.4083105"
       y="-0.088341445"
       height="1.1766829">
      <feGaussianBlur
         inkscape:collect="always"
         stdDeviation="7.3540287"
         id="feGaussianBlur12084" />
    </filter>
    <linearGradient
       inkscape:collect="always"
       id="linearGradient12066">
      <stop
         style="stop-color:#000000;stop-opacity:1;"
         offset="0"
         id="stop12068" />
      <stop
         style="stop-color:#000000;stop-opacity:0;"
         offset="1"
         id="stop12070" />
    </linearGradient>
    <filter
       color-interpolation-filters="sRGB"
       inkscape:collect="always"
       id="filter11938"
       x="-0.047722384"
       width="1.0954448"
       y="-0.10911646"
       height="1.2182329">
      <feGaussianBlur
         inkscape:collect="always"
         stdDeviation="16.4984"
         id="feGaussianBlur11940" />
    </filter>
    <filter
       color-interpolation-filters="sRGB"
       inkscape:collect="always"
       id="filter11829"
       x="-0.2411155"
       width="1.482231"
       y="-0.1321777"
       height="1.2643554">
      <feGaussianBlur
         inkscape:collect="always"
         stdDeviation="13.060423"
         id="feGaussianBlur11831" />
    </filter>
    <linearGradient
       inkscape:collect="always"
       id="linearGradient11956">
      <stop
         style="stop-color:#ffffff;stop-opacity:1;"
         offset="0"
         id="stop11958" />
      <stop
         style="stop-color:#ffffff;stop-opacity:0;"
         offset="1"
         id="stop11960" />
    </linearGradient>
    <filter
       color-interpolation-filters="sRGB"
       inkscape:collect="always"
       id="filter11952"
       x="-0.14408375"
       width="1.2881675"
       y="-0.542207"
       height="2.084414">
      <feGaussianBlur
         inkscape:collect="always"
         stdDeviation="12.26427"
         id="feGaussianBlur11954" />
    </filter>
    <linearGradient
       inkscape:collect="always"
       id="linearGradient11982">
      <stop
         style="stop-color:#ffffff;stop-opacity:1;"
         offset="0"
         id="stop11984" />
      <stop
         style="stop-color:#ffffff;stop-opacity:0;"
         offset="1"
         id="stop11986" />
    </linearGradient>
    <filter
       color-interpolation-filters="sRGB"
       inkscape:collect="always"
       id="filter11978"
       x="-0.7090351"
       width="2.4180703"
       y="-0.53810698"
       height="2.0762141">
      <feGaussianBlur
         inkscape:collect="always"
         stdDeviation="25.366588"
         id="feGaussianBlur11980" />
    </filter>
    <linearGradient
       inkscape:collect="always"
       id="linearGradient12018">
      <stop
         style="stop-color:#ffffff;stop-opacity:1;"
         offset="0"
         id="stop12020" />
      <stop
         style="stop-color:#ffffff;stop-opacity:0;"
         offset="1"
         id="stop12022" />
    </linearGradient>
    <filter
       color-interpolation-filters="sRGB"
       inkscape:collect="always"
       id="filter12014"
       x="-0.25284946"
       width="1.5056989"
       y="-0.44522452"
       height="1.890449">
      <feGaussianBlur
         inkscape:collect="always"
         stdDeviation="33.204148"
         id="feGaussianBlur12016" />
    </filter>
    <filter
       color-interpolation-filters="sRGB"
       inkscape:collect="always"
       id="filter12062">
      <feGaussianBlur
         inkscape:collect="always"
         stdDeviation="8.1553196"
         id="feGaussianBlur12064" />
    </filter>
    <filter
       color-interpolation-filters="sRGB"
       inkscape:collect="always"
       id="filter12121"
       x="-0.072541453"
       width="1.145083"
       y="-0.10372686"
       height="1.2074537">
      <feGaussianBlur
         inkscape:collect="always"
         stdDeviation="8.4958704"
         id="feGaussianBlur12123" />
    </filter>
    <filter
       color-interpolation-filters="sRGB"
       inkscape:collect="always"
       id="filter12135"
       x="-0.21087675"
       width="1.4217535"
       y="-0.16474846"
       height="1.3294969">
      <feGaussianBlur
         inkscape:collect="always"
         stdDeviation="3.3283995"
         id="feGaussianBlur12137" />
    </filter>
    <filter
       color-interpolation-filters="sRGB"
       inkscape:collect="always"
       id="filter12155">
      <feGaussianBlur
         inkscape:collect="always"
         stdDeviation="2.8656174"
         id="feGaussianBlur12157" />
    </filter>
    <linearGradient
       inkscape:collect="always"
       id="linearGradient12369">
      <stop
         style="stop-color:#000000;stop-opacity:1;"
         offset="0"
         id="stop12371" />
      <stop
         style="stop-color:#000000;stop-opacity:0;"
         offset="1"
         id="stop12373" />
    </linearGradient>
    <filter
       color-interpolation-filters="sRGB"
       inkscape:collect="always"
       id="filter12217">
      <feGaussianBlur
         inkscape:collect="always"
         stdDeviation="2.8368109"
         id="feGaussianBlur12219" />
    </filter>
    <filter
       color-interpolation-filters="sRGB"
       inkscape:collect="always"
       id="filter12251">
      <feGaussianBlur
         inkscape:collect="always"
         stdDeviation="4.7847491"
         id="feGaussianBlur12253" />
    </filter>
    <filter
       color-interpolation-filters="sRGB"
       inkscape:collect="always"
       id="filter12257"
       x="-0.33493802"
       width="1.669876"
       y="-0.4251835"
       height="1.850367">
      <feGaussianBlur
         inkscape:collect="always"
         stdDeviation="7.4716436"
         id="feGaussianBlur12259" />
    </filter>
    <linearGradient
       inkscape:collect="always"
       id="linearGradient12281">
      <stop
         style="stop-color:#ffffff;stop-opacity:1;"
         offset="0"
         id="stop12283" />
      <stop
         style="stop-color:#ffffff;stop-opacity:0;"
         offset="1"
         id="stop12285" />
    </linearGradient>
    <filter
       color-interpolation-filters="sRGB"
       inkscape:collect="always"
       id="filter12383"
       x="-0.3554292"
       width="1.7108583"
       y="-0.42941004"
       height="1.8588201">
      <feGaussianBlur
         inkscape:collect="always"
         stdDeviation="8.6522738"
         id="feGaussianBlur12385" />
    </filter>
    <filter
       color-interpolation-filters="sRGB"
       inkscape:collect="always"
       id="filter12365"
       x="-0.15104362"
       width="1.3020873"
       y="-0.36366722"
       height="1.7273344">
      <feGaussianBlur
         inkscape:collect="always"
         stdDeviation="4.4261956"
         id="feGaussianBlur12367" />
    </filter>
    <filter
       color-interpolation-filters="sRGB"
       inkscape:collect="always"
       id="filter12393"
       x="-0.27860594"
       width="1.5572119"
       y="-0.16085181"
       height="1.3217036">
      <feGaussianBlur
         inkscape:collect="always"
         stdDeviation="18.76986"
         id="feGaussianBlur12395" />
    </filter>
    <linearGradient
       inkscape:collect="always"
       xlink:href="#linearGradient12610"
       id="linearGradient12616"
       x1="1950.0336"
       y1="11913.791"
       x2="2066.395"
       y2="11913.791"
       gradientUnits="userSpaceOnUse" />
    <linearGradient
       inkscape:collect="always"
       id="linearGradient12610">
      <stop
         style="stop-color:#000000;stop-opacity:1;"
         offset="0"
         id="stop12612" />
      <stop
         style="stop-color:#000000;stop-opacity:0;"
         offset="1"
         id="stop12614" />
    </linearGradient>
    <inkscape:perspective
       id="perspective17279"
       inkscape:persp3d-origin="0.5 : 0.33333333 : 1"
       inkscape:vp_z="1 : 0.5 : 1"
       inkscape:vp_y="0 : 1000 : 0"
       inkscape:vp_x="0 : 0.5 : 1"
       sodipodi:type="inkscape:persp3d" />
    <linearGradient
       inkscape:collect="always"
       xlink:href="#linearGradient12108"
       id="linearGradient3448"
       gradientUnits="userSpaceOnUse"
       gradientTransform="matrix(1.4178827,0,0,1.0272655,-833.66562,-314.49159)"
       x1="1667.4899"
       y1="12766.527"
       x2="1657.0527"
       y2="12233.171" />
    <linearGradient
       inkscape:collect="always"
       xlink:href="#linearGradient12193"
       id="linearGradient3450"
       gradientUnits="userSpaceOnUse"
       gradientTransform="matrix(1.4178827,0,0,1.0272655,-833.66562,-314.49159)"
       x1="2154.4272"
       y1="12766.035"
       x2="2164.1174"
       y2="12341.35" />
    <linearGradient
       inkscape:collect="always"
       xlink:href="#linearGradient12066"
       id="linearGradient3452"
       gradientUnits="userSpaceOnUse"
       x1="2124.2065"
       y1="12350.469"
       x2="2255.635"
       y2="12189.186" />
    <linearGradient
       inkscape:collect="always"
       xlink:href="#linearGradient11956"
       id="linearGradient3454"
       gradientUnits="userSpaceOnUse"
       x1="1983.4229"
       y1="12202.362"
       x2="2246.5769"
       y2="12202.362" />
    <radialGradient
       inkscape:collect="always"
       xlink:href="#linearGradient11982"
       id="radialGradient3456"
       gradientUnits="userSpaceOnUse"
       gradientTransform="matrix(1,0,0,1.1313639,0,-1577.48)"
       cx="1834.9421"
       cy="12008.477"
       fx="1834.9421"
       fy="12008.477"
       r="103.81126" />
    <radialGradient
       inkscape:collect="always"
       xlink:href="#linearGradient12018"
       id="radialGradient3458"
       gradientUnits="userSpaceOnUse"
       gradientTransform="matrix(1,0,0,0.71303325,0,3616.8904)"
       cx="1810.1934"
       cy="12603.866"
       fx="1810.1934"
       fy="12603.866"
       r="237.27374" />
    <linearGradient
       inkscape:collect="always"
       xlink:href="#linearGradient12369"
       id="linearGradient3460"
       gradientUnits="userSpaceOnUse"
       x1="2106.4053"
       y1="12687.062"
       x2="1990.691"
       y2="12774.409" />
    <radialGradient
       inkscape:collect="always"
       xlink:href="#linearGradient12281"
       id="radialGradient3462"
       gradientUnits="userSpaceOnUse"
       gradientTransform="matrix(1,0,0,0.87566439,0,1573.9606)"
       cx="2062.614"
       cy="12658.969"
       fx="2062.614"
       fy="12658.969"
       r="43.600201" />
  </defs>
  <sodipodi:namedview
     id="base"
     pagecolor="#ffffff"
     bordercolor="#666666"
     borderopacity="1.0"
     inkscape:pageopacity="0.0"
     inkscape:pageshadow="2"
     inkscape:zoom="0.35"
     inkscape:cx="667.66584"
     inkscape:cy="92.494966"
     inkscape:document-units="px"
     inkscape:current-layer="g3338"
     showgrid="false"
     inkscape:window-width="1264"
     inkscape:window-height="715"
     inkscape:window-x="0"
     inkscape:window-y="48"
     inkscape:window-maximized="1"
     fit-margin-top="0"
     fit-margin-left="0"
     fit-margin-right="0"
     fit-margin-bottom="0" />
  <metadata
     id="metadata12761">
    <rdf:RDF>
      <cc:Work
         rdf:about="">
        <dc:format>image/svg+xml</dc:format>
        <dc:type
           rdf:resource="http://purl.org/dc/dcmitype/StillImage" />
        <dc:title></dc:title>
      </cc:Work>
    </rdf:RDF>
  </metadata>
  <g
     inkscape:label="Capa 1"
     inkscape:groupmode="layer"
     id="layer1"
     transform="translate(-37.558018,-206.52179)">
    <g
       transform="matrix(0.5,0,0,0.5,-442.12658,-5561.6127)"
       id="g12618">
      <g
         id="g3228"
         transform="matrix(1.0517242,0,0,1.0091997,-49.622555,-106.13055)">
        <g
           id="g3338"
           transform="translate(-7.606557,0)">
          <rect
             y="11537.548"
             x="970.27838"
             height="1262.0691"
             width="1361.1674"
             id="rect8827-9-2"
             style="color:#000000;fill:#5fbcd3;fill-opacity:1;fill-rule:nonzero;stroke:#000000;stroke-width:2.46473932;stroke-linecap:butt;stroke-linejoin:miter;stroke-miterlimit:4;stroke-opacity:1;stroke-dasharray:none;stroke-dashoffset:0;marker:none;visibility:visible;display:inline;overflow:visible;filter:url(#filter5039-2-2);enable-background:accumulate" />
          <path
             id="rect8827-9"
             d="m 2331.4472,11650.133 c -346.2752,681.312 -1090.0715,-281.355 -1361.16736,360.571 l 0,276.591 c 284.10486,-459.362 1064.58986,11.386 1361.16736,-219.417 l 0,-417.745 z"
             style="opacity:0.34939761;color:#000000;fill:#ffffff;stroke:none;stroke-width:17.40953255;marker:none;visibility:visible;display:inline;overflow:visible;filter:url(#filter5039-2-2);enable-background:accumulate"
             inkscape:connector-curvature="0" />
          <path
             id="path5013-0-0-0-3"
             d="m 1579.1691,12064.456 c 24.5935,56 32.3425,105.941 34.1124,148.182 -8.6188,-11.502 -18.1202,-22.37 -28.3976,-32.852 8.6156,19.615 15.1193,38.402 20.0689,56.476 -0.073,0.133 -0.1921,0.298 -0.2658,0.413 -21.0196,-39.991 -55.5275,-44.689 -95.692,-34.677 -7.7272,-9.9 -16.1118,-19.37 -25.0748,-28.514 9.007,20.508 15.6671,40.143 20.6888,58.956 -17.8037,1.618 -37.5336,11.53 -58.434,26.138 31.5552,2.147 53.6025,18.207 70.0855,38.5 0.648,6.656 1.128,13.197 1.4618,19.525 -1.0162,0.232 -2.0318,0.47 -3.0567,0.724 -7.7296,-9.903 -16.1426,-19.36 -25.1192,-28.515 5.3004,12.069 9.7599,23.762 13.6007,35.23 -2.6004,0.572 -5.1404,1.181 -7.6641,1.859 -7.0579,-7.292 -15.0889,-12.278 -23.7459,-15.394 0.1471,-0.164 0.3393,-0.263 0.4874,-0.413 -0.2414,0.134 -0.5127,0.299 -0.7533,0.413 -11.7815,-4.183 -24.8475,-4.944 -38.8969,-3.203 -9.2057,-67.472 -45.8719,-99.174 -92.7237,-117.601 31.7106,40.39 46.4141,84.113 54.2254,123.699 -9.9373,-6.36 -20.6489,-11.536 -32.0302,-16.014 0.6959,0.886 1.3142,1.794 1.9935,2.685 -8.1595,-4.711 -16.7803,-8.804 -25.828,-12.363 4.5435,5.786 8.7113,11.62 12.5817,17.529 -8.2959,0.103 -16.3283,0.63 -23.9673,1.757 9.768,-83.459 -23.0086,-140.675 -70.3512,-188.958 23.1158,52.639 31.2953,99.966 33.6693,140.539 -10.2791,-15.11 -22.197,-29.158 -35.3085,-42.53 10.209,23.249 17.4611,45.446 22.6382,66.498 -22.1297,-34.158 -56.3661,-36.586 -95.692,-25.829 39.7199,18.917 61.4017,54.471 75.5348,89.228 -1.3114,4.168 -2.4082,8.367 -3.4558,12.568 -0.9359,-0.572 -1.8778,-1.137 -2.8352,-1.653 -2.1301,-4.87 -4.4394,-9.579 -6.9112,-14.222 -7.9271,-23.5 -17.7938,-38.791 -29.2392,-47.523 2.6571,-1.816 5.3908,-3.584 8.2404,-5.338 -4.7038,0.469 -9.3303,0.95 -13.8667,1.654 -0.9677,-0.543 -1.937,-0.983 -2.9239,-1.447 -3.4107,-3.771 -6.9091,-7.497 -10.4994,-11.157 1.2867,2.93 2.4811,5.783 3.677,8.678 -14.0768,-3.909 -29.8292,-0.789 -46.7384,7.196 3.9665,-4.931 8.2011,-9.858 12.759,-14.842 -13.3511,6.813 -25.9843,14.403 -37.4797,22.799 -2.7016,-85.421 -42.4198,-122.501 -94.8501,-143.122 31.7107,40.391 46.3699,84.148 54.1813,123.733 -9.9376,-6.356 -20.6932,-11.637 -32.0746,-16.117 9.2477,11.782 17.0159,23.768 23.6128,35.918 -3.6785,-1.04 -7.2659,-2.084 -10.8096,-2.789 -3.4881,-1.6 -7.1204,-2.554 -10.8097,-3.1 -4.2268,-4.791 -8.551,-9.507 -13.0691,-14.12 4.7329,-2.729 9.7812,-5.316 15.1514,-7.747 -13.8016,-0.714 -27.0473,-0.366 -39.2959,1.446 8.2749,-70.704 -13.9406,-122.566 -49.70656,-166.123 l 0,35.469 c 8.82632,32.84 12.38222,62.985 13.51213,89.95 -4.28271,-5.716 -8.79271,-11.273 -13.51213,-16.702 l 0,23.142 c 1.87685,5.809 3.6319,11.552 5.18335,17.218 -0.0751,0.132 -0.14874,0.179 -0.22162,0.31 -1.57753,-3.003 -3.23574,-5.791 -4.96173,-8.403 l 0,546.447 1263.53306,0 c 0.7035,-0.501 1.4333,-1.078 2.1265,-1.551 6.717,-2.976 14.4091,-5.162 23.2583,-5.682 4.2957,2.368 9.1618,4.691 14.3095,7.233 l 57.7253,0 0,-313.998 c -5.6162,-1.065 -11.4713,-1.574 -17.5434,-1.411 7e-4,-0.417 5e-4,-0.828 0,-1.241 5.3016,-6.21 11.1485,-12.223 17.5434,-17.907 l 0,-1.824 c -6.1826,0.514 -12.2362,1.36 -18.0751,2.479 -0.3243,-5.172 -0.7674,-10.269 -1.3732,-15.084 5.6939,-3.219 12.0913,-6.108 19.4483,-7.886 l 0,-75.761 c -14.0903,6.406 -26.3539,15.347 -36.1059,27.688 -0.5787,-1.097 -1.1699,-2.237 -1.772,-3.307 9.1835,-15.42 20.7155,-31.527 35.53,-47.729 -13.3508,6.813 -25.9399,14.436 -37.435,22.832 -2.7016,-85.421 -42.4201,-122.601 -94.8502,-143.223 31.7103,40.39 46.3695,84.113 54.1811,123.698 -9.9377,-6.358 -20.649,-11.5 -32.0303,-15.978 9.2478,11.779 16.9715,23.766 23.5687,35.916 -3.6789,-1.037 -7.3105,-2.082 -10.8541,-2.789 -12.3299,-5.658 -25.955,-4.38 -40.5362,1.756 1.7748,-4.021 3.721,-7.935 5.715,-11.984 7.7288,-5.333 16.3342,-10.351 26.0937,-14.772 -6.2334,-0.331 -12.2952,-0.445 -18.2524,-0.276 1.9756,-3.526 3.9966,-7.006 6.158,-10.54 -5.4927,3.521 -10.8081,7.19 -15.9487,11.056 -3.815,0.298 -7.5096,0.702 -11.1639,1.24 9.7679,-83.46 -23.0089,-140.675 -70.3514,-188.955 24.5546,55.913 32.3266,105.847 34.1124,148.042 -0.053,0 -0.1262,-0.103 -0.1772,-0.103 -8.5777,-11.425 -18.0494,-22.091 -28.2647,-32.51 5.3004,12.072 9.8044,23.729 13.6451,35.194 -2.6005,0.576 -5.2285,1.184 -7.7529,1.861 -7.0575,-7.295 -15.0002,-12.243 -23.6571,-15.36 0.147,-0.165 0.2952,-0.353 0.4429,-0.516 -0.241,0.133 -0.468,0.298 -0.7087,0.412 -11.7815,-4.182 -24.8474,-4.944 -38.897,-3.202 -9.2058,-67.472 -45.8716,-99.071 -92.7239,-117.497 31.7109,40.388 46.3695,84.111 54.1812,123.697 -9.9378,-6.359 -20.693,-11.536 -32.0746,-16.013 9.2266,11.752 16.9811,23.691 23.5686,35.813 -3.5155,-0.991 -6.9302,-1.891 -10.3222,-2.583 -12.2381,-5.782 -25.8386,-4.604 -40.3148,1.345 -3.0005,1.071 -5.9094,2.298 -8.6831,3.926 -0.3965,-1.367 -0.7728,-2.781 -1.1961,-4.133 11.0468,-9.814 24.4585,-18.805 41.0234,-26.31 -13.8012,-0.713 -27.0471,-0.365 -39.2958,1.446 9.768,-83.461 -22.92,-140.676 -70.2625,-188.955 24.593,56.001 32.3424,106.014 34.1124,148.252 -8.6192,-11.505 -18.2091,-22.339 -28.4862,-32.819 8.6158,19.615 15.1635,38.401 20.1131,56.476 -0.076,0.131 -0.1488,0.265 -0.2216,0.413 -21.8145,-41.504 -58.1835,-45.197 -100.2993,-33.678 39.72,18.919 61.4902,54.467 75.6234,89.226 -5.7324,22.947 -5.4272,11.776 -13.2023,-3.204 -7.9275,-23.495 -17.8375,-38.756 -29.2833,-47.487 2.6574,-1.817 5.435,-3.719 8.2846,-5.477 -4.7039,0.473 -9.3746,1.055 -13.9111,1.756 -0.9674,-0.542 -1.937,-1.091 -2.9238,-1.549 -3.4104,-3.774 -6.9092,-7.392 -10.4995,-11.054 1.2865,2.931 2.5256,5.78 3.7214,8.678 -14.0768,-3.912 -29.8735,-0.754 -46.7828,7.232 3.9665,-4.929 8.2454,-9.891 12.8033,-14.877 -13.3509,6.817 -26.0288,14.439 -37.5238,22.832 -2.702,-85.421 -42.4201,-122.604 -94.8501,-143.224 31.7103,40.392 46.3694,84.118 54.1811,123.697 -9.9378,-6.357 -20.6485,-11.539 -32.0302,-16.013 9.2476,11.78 17.016,23.799 23.6128,35.953 -3.679,-1.042 -7.3103,-2.083 -10.8539,-2.789 -3.488,-1.601 -7.0766,-2.655 -10.7654,-3.202 -4.2273,-4.79 -8.5954,-9.545 -13.1133,-14.155 4.7326,-2.733 9.781,-5.21 15.1512,-7.644 -13.8013,-0.714 -27.0032,-0.364 -39.2515,1.444 9.7677,-83.459 -23.0087,-140.673 -70.3513,-188.954 z m -65.6553,143.532 c 29.2098,16.964 47.7288,43.42 60.6048,70.838 1.8635,5.438 3.5232,10.673 5.0948,15.978 -2.0509,6.821 -3.7328,13.741 -5.0948,20.662 -9.6559,-42.978 -23.8434,-66.755 -41.2892,-77.035 -5.6073,-10.689 -12.1404,-20.719 -19.3156,-30.443 z m 160.0183,51.621 c 2.0251,4.618 3.9121,9.206 5.7148,13.741 -7.2088,0.198 -14.7466,2.168 -22.5497,5.476 -2.6673,1.011 -5.2238,2.155 -7.7084,3.616 -0.3961,-1.368 -0.8168,-2.782 -1.2405,-4.132 7.4539,-6.621 15.937,-13.014 25.7838,-18.701 z m -629.3521,23.453 c 2.0253,4.614 3.8236,9.173 5.6264,13.706 -7.2089,0.199 -14.6581,2.059 -22.4611,5.372 -2.6673,1.011 -5.3129,2.159 -7.7971,3.616 -0.3968,-1.364 -0.7727,-2.781 -1.1963,-4.133 7.4536,-6.623 15.9818,-12.871 25.8281,-18.561 z m 723.5378,7.954 c 2.6385,0.6 5.1736,1.332 7.6642,2.135 -5.1998,4.178 -9.9737,8.83 -14.2652,14.258 -0.5787,-1.096 -1.1701,-2.239 -1.7721,-3.306 2.5871,-4.346 5.3894,-8.662 8.3731,-13.087 z m 296.1578,13.809 c 1.0711,0.872 2.1091,1.79 3.1454,2.687 -0.9662,0.683 -1.9291,1.269 -2.8795,1.964 -0.049,-1.581 -0.1905,-3.101 -0.2659,-4.651 z m -259.6531,3.824 c 2.0796,1.64 4.0812,3.379 6.025,5.164 -2.3515,-1.467 -4.7035,-2.774 -6.9996,-3.925 0.3074,-0.39 0.6619,-0.847 0.9746,-1.239 z m -449.6638,2.581 c 3.3025,5.36 6.3513,10.811 9.1704,16.222 -9.0695,-1.253 -18.7383,0.393 -28.8404,4.543 -3.0007,1.072 -5.8209,2.401 -8.5946,4.031 -0.3964,-1.367 -0.8169,-2.785 -1.2405,-4.132 8.3744,-7.442 18.0722,-14.442 29.5051,-20.663 z m 781.8391,1.655 c 0.9033,3.013 1.7986,6.112 2.6137,9.09 -0.073,0.132 -0.1487,0.178 -0.2215,0.31 -1.4096,-2.683 -2.9011,-5.271 -4.4302,-7.646 0.6844,-0.585 1.3381,-1.174 2.038,-1.754 z m -998.0765,1.444 c 2.6384,0.602 5.1736,1.368 7.6643,2.17 -5.2,4.18 -10.0181,8.932 -14.3095,14.36 -0.5787,-1.096 -1.1256,-2.239 -1.7278,-3.306 2.5874,-4.345 5.3896,-8.796 8.373,-13.224 z m 938.8449,2.893 c 1.8201,1.942 3.5726,3.867 5.2719,5.89 -2.6617,2.121 -5.1869,4.28 -7.6198,6.715 -1.3028,-1.162 -2.6861,-2.216 -4.0316,-3.202 2.0225,-3.159 4.1428,-6.209 6.3795,-9.403 z m -902.3844,14.773 c 2.0796,1.643 4.0811,3.385 6.0252,5.166 -2.3518,-1.463 -4.7033,-2.774 -6.9999,-3.925 0.3076,-0.389 0.662,-0.85 0.9747,-1.241 z m 332.2639,4.339 c 0.9032,3.017 1.7984,6.013 2.6138,8.989 -0.075,0.132 -0.1488,0.297 -0.2215,0.413 -1.4098,-2.682 -2.946,-5.275 -4.4747,-7.644 0.6837,-0.584 1.3827,-1.175 2.0824,-1.757 z m -62.1112,8.37 c 1.6803,1.458 3.3262,2.918 4.9175,4.441 -1.5221,1.318 -3.0256,2.652 -4.4746,4.099 -1.3027,-1.164 -2.5974,-2.188 -3.9427,-3.169 1.1439,-1.786 2.3015,-3.596 3.4998,-5.371 z m 538.0017,33.644 c 6.0297,1.827 12.5729,4.864 19.7144,9.402 -0.9663,7.582 -1.6023,14.895 -1.9051,22.212 -5.7273,-13.316 -11.6666,-23.685 -17.8093,-31.614 z m 129.2727,6.096 c -1.5454,5.514 -2.8878,11.047 -3.9872,16.633 -1.0376,-4.62 -2.1369,-8.933 -3.2783,-13.12 0.8676,-0.975 1.808,-1.93 2.7024,-2.893 1.4807,-0.265 3.0056,-0.449 4.5631,-0.621 z m -758.669,17.251 c 1.457,0.44 3.0013,1.069 4.5187,1.653 -1.1339,-0.03 -2.2861,-0.205 -3.4113,-0.205 -0.3559,-0.481 -0.7498,-0.983 -1.1074,-1.448 z m 8.1071,3.101 c 2.8904,1.298 5.92,2.894 9.0376,4.753 0.7986,1.174 1.6199,2.329 2.3923,3.512 -0.6089,5.052 -1.148,10.03 -1.4618,14.946 -1.0754,-0.44 -2.1399,-0.798 -3.2343,-1.138 -3.6275,-7.729 -7.2855,-14.292 -11.0754,-19.904 1.4197,-0.726 2.8716,-1.47 4.3416,-2.169 z m 848.8235,29.099 c 5.9994,1.827 12.4835,4.684 19.5813,9.194 -0.9659,7.587 -1.602,15.001 -1.905,22.315 -5.6905,-13.229 -11.5754,-23.597 -17.6763,-31.509 z m -97.73,77.036 c 2.4737,0.467 4.832,0.666 6.9998,0.31 0.419,1.008 0.8472,1.986 1.2847,2.995 0.4712,-0.581 0.8135,-1.259 1.2405,-1.859 0.9027,1.136 1.8802,2.273 2.7466,3.409 -0.5324,1.2 -1.0433,2.497 -1.5505,3.719 -2.8193,-2.702 -5.8115,-5.092 -8.949,-7.232 -0.5883,-0.443 -1.1858,-0.921 -1.7721,-1.342 z m 164.1827,76.931 c 0.1434,0.264 0.3011,0.47 0.443,0.724 -0.3381,-0.03 -0.6791,0 -1.0191,0 0.1889,-0.231 0.3856,-0.476 0.5761,-0.724 z M 982.689,12729.638 c 1.52848,0.565 3.02605,1.2 4.60741,1.861 -0.25763,2.634 -0.44507,5.217 -0.62018,7.817 -1.65211,-1.215 -3.34606,-2.454 -5.05049,-3.617 -0.48945,-0.988 -0.9697,-1.91 -1.46184,-2.858 0.84576,-1.088 1.68288,-2.171 2.5251,-3.203 z"
             style="color:#000000;fill:#447821;fill-opacity:1;fill-rule:nonzero;stroke:#000000;stroke-width:4.82749128;stroke-linecap:butt;stroke-linejoin:miter;stroke-miterlimit:4;stroke-opacity:1;stroke-dasharray:none;stroke-dashoffset:0;marker:none;visibility:visible;display:inline;overflow:visible;enable-background:accumulate"
             inkscape:connector-curvature="0" />
          <path
             id="path5013-0-0-0-3-9"
             d="m 1579.1691,12064.456 c 24.5935,56 32.3425,105.941 34.1124,148.182 -8.6188,-11.502 -18.1202,-22.37 -28.3976,-32.852 8.6156,19.615 15.1193,38.402 20.0689,56.476 -0.073,0.133 -0.1921,0.298 -0.2658,0.413 -21.0196,-39.991 -55.5275,-44.689 -95.692,-34.677 -7.7272,-9.9 -16.1118,-19.37 -25.0748,-28.514 9.007,20.508 15.6671,40.143 20.6888,58.956 -17.8037,1.618 -37.5336,11.53 -58.434,26.138 31.5552,2.147 53.6025,18.207 70.0855,38.5 0.648,6.656 1.128,13.197 1.4618,19.525 -1.0162,0.232 -2.0318,0.47 -3.0567,0.724 -7.7296,-9.903 -16.1426,-19.36 -25.1192,-28.515 5.3004,12.069 9.7599,23.762 13.6007,35.23 -2.6004,0.572 -5.1404,1.181 -7.6641,1.859 -7.0579,-7.292 -15.0889,-12.278 -23.7459,-15.394 0.1471,-0.164 0.3393,-0.263 0.4874,-0.413 -0.2414,0.134 -0.5127,0.299 -0.7533,0.413 -11.7815,-4.183 -24.8475,-4.944 -38.8969,-3.203 -9.2057,-67.472 -45.8719,-99.174 -92.7237,-117.601 31.7106,40.39 46.4141,84.113 54.2254,123.699 -9.9373,-6.36 -20.6489,-11.536 -32.0302,-16.014 0.6959,0.886 1.3142,1.794 1.9935,2.685 -8.1595,-4.711 -16.7803,-8.804 -25.828,-12.363 4.5435,5.786 8.7113,11.62 12.5817,17.529 -8.2959,0.103 -16.3283,0.63 -23.9673,1.757 9.768,-83.459 -23.0086,-140.675 -70.3512,-188.958 23.1158,52.639 31.2953,99.966 33.6693,140.539 -10.2791,-15.11 -22.197,-29.158 -35.3085,-42.53 10.209,23.249 17.4611,45.446 22.6382,66.498 -22.1297,-34.158 -56.3661,-36.586 -95.692,-25.829 39.7199,18.917 61.4017,54.471 75.5348,89.228 -1.3114,4.168 -2.4082,8.367 -3.4558,12.568 -0.9359,-0.572 -1.8778,-1.137 -2.8352,-1.653 -2.1301,-4.87 -4.4394,-9.579 -6.9112,-14.222 -7.9271,-23.5 -17.7938,-38.791 -29.2392,-47.523 2.6571,-1.816 5.3908,-3.584 8.2404,-5.338 -4.7038,0.469 -9.3303,0.95 -13.8667,1.654 -0.9677,-0.543 -1.937,-0.983 -2.9239,-1.447 -3.4107,-3.771 -6.9091,-7.497 -10.4994,-11.157 1.2867,2.93 2.4811,5.783 3.677,8.678 -14.0768,-3.909 -29.8292,-0.789 -46.7384,7.196 3.9665,-4.931 8.2011,-9.858 12.759,-14.842 -13.3511,6.813 -25.9843,14.403 -37.4797,22.799 -2.7016,-85.421 -42.4198,-122.501 -94.8501,-143.122 31.7107,40.391 46.3699,84.148 54.1813,123.733 -9.9376,-6.356 -20.6932,-11.637 -32.0746,-16.117 9.2477,11.782 17.0159,23.768 23.6128,35.918 -3.6785,-1.04 -7.2659,-2.084 -10.8096,-2.789 -3.4881,-1.6 -7.1204,-2.554 -10.8097,-3.1 -4.2268,-4.791 -8.551,-9.507 -13.0691,-14.12 4.7329,-2.729 9.7812,-5.316 15.1514,-7.747 -13.8016,-0.714 -27.0473,-0.366 -39.2959,1.446 8.2749,-70.704 -13.9406,-122.566 -49.70656,-166.123 l 0,35.469 c 8.82632,32.84 12.38222,62.985 13.51213,89.95 -4.28271,-5.716 -8.79271,-11.273 -13.51213,-16.702 l 0,23.142 c 1.87685,5.809 3.6319,11.552 5.18335,17.218 -0.0751,0.132 -0.14874,0.179 -0.22162,0.31 -1.57753,-3.003 -3.23574,-5.791 -4.96173,-8.403 l 0,546.447 1263.53306,0 c 0.7035,-0.501 1.4333,-1.078 2.1265,-1.551 6.717,-2.976 14.4091,-5.162 23.2583,-5.682 4.2957,2.368 9.1618,4.691 14.3095,7.233 l 57.7253,0 0,-313.998 c -5.6162,-1.065 -11.4713,-1.574 -17.5434,-1.411 7e-4,-0.417 5e-4,-0.828 0,-1.241 5.3016,-6.21 11.1485,-12.223 17.5434,-17.907 l 0,-1.824 c -6.1826,0.514 -12.2362,1.36 -18.0751,2.479 -0.3243,-5.172 -0.7674,-10.269 -1.3732,-15.084 5.6939,-3.219 12.0913,-6.108 19.4483,-7.886 l 0,-75.761 c -14.0903,6.406 -26.3539,15.347 -36.1059,27.688 -0.5787,-1.097 -1.1699,-2.237 -1.772,-3.307 9.1835,-15.42 20.7155,-31.527 35.53,-47.729 -13.3508,6.813 -25.9399,14.436 -37.435,22.832 -2.7016,-85.421 -42.4201,-122.601 -94.8502,-143.223 31.7103,40.39 46.3695,84.113 54.1811,123.698 -9.9377,-6.358 -20.649,-11.5 -32.0303,-15.978 9.2478,11.779 16.9715,23.766 23.5687,35.916 -3.6789,-1.037 -7.3105,-2.082 -10.8541,-2.789 -12.3299,-5.658 -25.955,-4.38 -40.5362,1.756 1.7748,-4.021 3.721,-7.935 5.715,-11.984 7.7288,-5.333 16.3342,-10.351 26.0937,-14.772 -6.2334,-0.331 -12.2952,-0.445 -18.2524,-0.276 1.9756,-3.526 3.9966,-7.006 6.158,-10.54 -5.4927,3.521 -10.8081,7.19 -15.9487,11.056 -3.815,0.298 -7.5096,0.702 -11.1639,1.24 9.7679,-83.46 -23.0089,-140.675 -70.3514,-188.955 24.5546,55.913 32.3266,105.847 34.1124,148.042 -0.053,0 -0.1262,-0.103 -0.1772,-0.103 -8.5777,-11.425 -18.0494,-22.091 -28.2647,-32.51 5.3004,12.072 9.8044,23.729 13.6451,35.194 -2.6005,0.576 -5.2285,1.184 -7.7529,1.861 -7.0575,-7.295 -15.0002,-12.243 -23.6571,-15.36 0.147,-0.165 0.2952,-0.353 0.4429,-0.516 -0.241,0.133 -0.468,0.298 -0.7087,0.412 -11.7815,-4.182 -24.8474,-4.944 -38.897,-3.202 -9.2058,-67.472 -45.8716,-99.071 -92.7239,-117.497 31.7109,40.388 46.3695,84.111 54.1812,123.697 -9.9378,-6.359 -20.693,-11.536 -32.0746,-16.013 9.2266,11.752 16.9811,23.691 23.5686,35.813 -3.5155,-0.991 -6.9302,-1.891 -10.3222,-2.583 -12.2381,-5.782 -25.8386,-4.604 -40.3148,1.345 -3.0005,1.071 -5.9094,2.298 -8.6831,3.926 -0.3965,-1.367 -0.7728,-2.781 -1.1961,-4.133 11.0468,-9.814 24.4585,-18.805 41.0234,-26.31 -13.8012,-0.713 -27.0471,-0.365 -39.2958,1.446 9.768,-83.461 -22.92,-140.676 -70.2625,-188.955 24.593,56.001 32.3424,106.014 34.1124,148.252 -8.6192,-11.505 -18.2091,-22.339 -28.4862,-32.819 8.6158,19.615 15.1635,38.401 20.1131,56.476 -0.076,0.131 -0.1488,0.265 -0.2216,0.413 -21.8145,-41.504 -58.1835,-45.197 -100.2993,-33.678 39.72,18.919 61.4902,54.467 75.6234,89.226 -5.7324,22.947 -5.4272,11.776 -13.2023,-3.204 -7.9275,-23.495 -17.8375,-38.756 -29.2833,-47.487 2.6574,-1.817 5.435,-3.719 8.2846,-5.477 -4.7039,0.473 -9.3746,1.055 -13.9111,1.756 -0.9674,-0.542 -1.937,-1.091 -2.9238,-1.549 -3.4104,-3.774 -6.9092,-7.392 -10.4995,-11.054 1.2865,2.931 2.5256,5.78 3.7214,8.678 -14.0768,-3.912 -29.8735,-0.754 -46.7828,7.232 3.9665,-4.929 8.2454,-9.891 12.8033,-14.877 -13.3509,6.817 -26.0288,14.439 -37.5238,22.832 -2.702,-85.421 -42.4201,-122.604 -94.8501,-143.224 31.7103,40.392 46.3694,84.118 54.1811,123.697 -9.9378,-6.357 -20.6485,-11.539 -32.0302,-16.013 9.2476,11.78 17.016,23.799 23.6128,35.953 -3.679,-1.042 -7.3103,-2.083 -10.8539,-2.789 -3.488,-1.601 -7.0766,-2.655 -10.7654,-3.202 -4.2273,-4.79 -8.5954,-9.545 -13.1133,-14.155 4.7326,-2.733 9.781,-5.21 15.1512,-7.644 -13.8013,-0.714 -27.0032,-0.364 -39.2515,1.444 9.7677,-83.459 -23.0087,-140.673 -70.3513,-188.954 z m -65.6553,143.532 c 29.2098,16.964 47.7288,43.42 60.6048,70.838 1.8635,5.438 3.5232,10.673 5.0948,15.978 -2.0509,6.821 -3.7328,13.741 -5.0948,20.662 -9.6559,-42.978 -23.8434,-66.755 -41.2892,-77.035 -5.6073,-10.689 -12.1404,-20.719 -19.3156,-30.443 z m 160.0183,51.621 c 2.0251,4.618 3.9121,9.206 5.7148,13.741 -7.2088,0.198 -14.7466,2.168 -22.5497,5.476 -2.6673,1.011 -5.2238,2.155 -7.7084,3.616 -0.3961,-1.368 -0.8168,-2.782 -1.2405,-4.132 7.4539,-6.621 15.937,-13.014 25.7838,-18.701 z m -629.3521,23.453 c 2.0253,4.614 3.8236,9.173 5.6264,13.706 -7.2089,0.199 -14.6581,2.059 -22.4611,5.372 -2.6673,1.011 -5.3129,2.159 -7.7971,3.616 -0.3968,-1.364 -0.7727,-2.781 -1.1963,-4.133 7.4536,-6.623 15.9818,-12.871 25.8281,-18.561 z m 723.5378,7.954 c 2.6385,0.6 5.1736,1.332 7.6642,2.135 -5.1998,4.178 -9.9737,8.83 -14.2652,14.258 -0.5787,-1.096 -1.1701,-2.239 -1.7721,-3.306 2.5871,-4.346 5.3894,-8.662 8.3731,-13.087 z m 296.1578,13.809 c 1.0711,0.872 2.1091,1.79 3.1454,2.687 -0.9662,0.683 -1.9291,1.269 -2.8795,1.964 -0.049,-1.581 -0.1905,-3.101 -0.2659,-4.651 z m -259.6531,3.824 c 2.0796,1.64 4.0812,3.379 6.025,5.164 -2.3515,-1.467 -4.7035,-2.774 -6.9996,-3.925 0.3074,-0.39 0.6619,-0.847 0.9746,-1.239 z m -449.6638,2.581 c 3.3025,5.36 6.3513,10.811 9.1704,16.222 -9.0695,-1.253 -18.7383,0.393 -28.8404,4.543 -3.0007,1.072 -5.8209,2.401 -8.5946,4.031 -0.3964,-1.367 -0.8169,-2.785 -1.2405,-4.132 8.3744,-7.442 18.0722,-14.442 29.5051,-20.663 z m 781.8391,1.655 c 0.9033,3.013 1.7986,6.112 2.6137,9.09 -0.073,0.132 -0.1487,0.178 -0.2215,0.31 -1.4096,-2.683 -2.9011,-5.271 -4.4302,-7.646 0.6844,-0.585 1.3381,-1.174 2.038,-1.754 z m -998.0765,1.444 c 2.6384,0.602 5.1736,1.368 7.6643,2.17 -5.2,4.18 -10.0181,8.932 -14.3095,14.36 -0.5787,-1.096 -1.1256,-2.239 -1.7278,-3.306 2.5874,-4.345 5.3896,-8.796 8.373,-13.224 z m 938.8449,2.893 c 1.8201,1.942 3.5726,3.867 5.2719,5.89 -2.6617,2.121 -5.1869,4.28 -7.6198,6.715 -1.3028,-1.162 -2.6861,-2.216 -4.0316,-3.202 2.0225,-3.159 4.1428,-6.209 6.3795,-9.403 z m -902.3844,14.773 c 2.0796,1.643 4.0811,3.385 6.0252,5.166 -2.3518,-1.463 -4.7033,-2.774 -6.9999,-3.925 0.3076,-0.389 0.662,-0.85 0.9747,-1.241 z m 332.2639,4.339 c 0.9032,3.017 1.7984,6.013 2.6138,8.989 -0.075,0.132 -0.1488,0.297 -0.2215,0.413 -1.4098,-2.682 -2.946,-5.275 -4.4747,-7.644 0.6837,-0.584 1.3827,-1.175 2.0824,-1.757 z m -62.1112,8.37 c 1.6803,1.458 3.3262,2.918 4.9175,4.441 -1.5221,1.318 -3.0256,2.652 -4.4746,4.099 -1.3027,-1.164 -2.5974,-2.188 -3.9427,-3.169 1.1439,-1.786 2.3015,-3.596 3.4998,-5.371 z m 538.0017,33.644 c 6.0297,1.827 12.5729,4.864 19.7144,9.402 -0.9663,7.582 -1.6023,14.895 -1.9051,22.212 -5.7273,-13.316 -11.6666,-23.685 -17.8093,-31.614 z m 129.2727,6.096 c -1.5454,5.514 -2.8878,11.047 -3.9872,16.633 -1.0376,-4.62 -2.1369,-8.933 -3.2783,-13.12 0.8676,-0.975 1.808,-1.93 2.7024,-2.893 1.4807,-0.265 3.0056,-0.449 4.5631,-0.621 z m -758.669,17.251 c 1.457,0.44 3.0013,1.069 4.5187,1.653 -1.1339,-0.03 -2.2861,-0.205 -3.4113,-0.205 -0.3559,-0.481 -0.7498,-0.983 -1.1074,-1.448 z m 8.1071,3.101 c 2.8904,1.298 5.92,2.894 9.0376,4.753 0.7986,1.174 1.6199,2.329 2.3923,3.512 -0.6089,5.052 -1.148,10.03 -1.4618,14.946 -1.0754,-0.44 -2.1399,-0.798 -3.2343,-1.138 -3.6275,-7.729 -7.2855,-14.292 -11.0754,-19.904 1.4197,-0.726 2.8716,-1.47 4.3416,-2.169 z m 848.8235,29.099 c 5.9994,1.827 12.4835,4.684 19.5813,9.194 -0.9659,7.587 -1.602,15.001 -1.905,22.315 -5.6905,-13.229 -11.5754,-23.597 -17.6763,-31.509 z m -97.73,77.036 c 2.4737,0.467 4.832,0.666 6.9998,0.31 0.419,1.008 0.8472,1.986 1.2847,2.995 0.4712,-0.581 0.8135,-1.259 1.2405,-1.859 0.9027,1.136 1.8802,2.273 2.7466,3.409 -0.5324,1.2 -1.0433,2.497 -1.5505,3.719 -2.8193,-2.702 -5.8115,-5.092 -8.949,-7.232 -0.5883,-0.443 -1.1858,-0.921 -1.7721,-1.342 z m 164.1827,76.931 c 0.1434,0.264 0.3011,0.47 0.443,0.724 -0.3381,-0.03 -0.6791,0 -1.0191,0 0.1889,-0.231 0.3856,-0.476 0.5761,-0.724 z M 982.689,12729.638 c 1.52848,0.565 3.02605,1.2 4.60741,1.861 -0.25763,2.634 -0.44507,5.217 -0.62018,7.817 -1.65211,-1.215 -3.34606,-2.454 -5.05049,-3.617 -0.48945,-0.988 -0.9697,-1.91 -1.46184,-2.858 0.84576,-1.088 1.68288,-2.171 2.5251,-3.203 z"
             style="color:#000000;fill:url(#linearGradient3448);fill-opacity:1;fill-rule:nonzero;stroke:#000000;stroke-width:4.82749128;stroke-linecap:butt;stroke-linejoin:miter;stroke-miterlimit:4;stroke-opacity:1;stroke-dasharray:none;stroke-dashoffset:0;marker:none;visibility:visible;display:inline;overflow:visible;enable-background:accumulate"
             inkscape:connector-curvature="0" />
          <path
             sodipodi:nodetypes="ccc"
             id="path3864-2-4-6-8-9"
             d="m 988.88005,12718.297 c 12.04765,4.283 8.02068,10.753 9.06765,16.532 -1.61285,-5.448 0.36198,-10.741 -9.06765,-16.532 z"
             style="color:#000000;fill:#000000;fill-opacity:1;fill-rule:nonzero;stroke:none;stroke-width:4;marker:none;visibility:visible;display:inline;overflow:visible;enable-background:accumulate"
             inkscape:connector-curvature="0" />
          <path
             id="path5057-4-3-1"
             d="m 1335.9163,12398.561 c -111.9466,0.02 -237.2795,42.605 -347.73569,170.173 l 0,23.98 1.72811,0.289 -0.5317,-1.284 c 183.84388,98.068 340.14518,-182.845 660.11298,-59.838 -27.1021,-50.424 -157.2705,-133.348 -313.5737,-133.32 z"
             style="color:#000000;fill:#5aa02c;fill-opacity:1;fill-rule:nonzero;stroke:#000000;stroke-width:4.82749128;stroke-linecap:butt;stroke-linejoin:miter;stroke-miterlimit:4;stroke-opacity:1;stroke-dasharray:none;stroke-dashoffset:0;marker:none;visibility:visible;display:inline;overflow:visible;enable-background:accumulate"
             inkscape:connector-curvature="0" />
          <path
             sodipodi:nodetypes="ccccc"
             id="path5067-1-6-5"
             d="m 988.32764,12588.524 c 107.02156,-110.408 306.19466,-178.073 533.20766,-120.596 -124.8832,-33.183 -332.6453,-52.935 -531.26687,100.099 l -12.5698,14.82 10.62901,5.677 z"
             style="fill:#000000;stroke:none"
             inkscape:connector-curvature="0" />
          <path
             sodipodi:nodetypes="ccc"
             id="path5069-1-3-9"
             d="m 1230.6436,12443.371 c 13.9726,7.581 26.3773,17.089 36.5257,29.375 -5.834,-15.115 -19.73,-23.462 -36.5257,-29.375 z"
             style="color:#000000;fill:#000000;fill-opacity:1;fill-rule:nonzero;stroke:none;stroke-width:4;marker:none;visibility:visible;display:inline;overflow:visible;enable-background:accumulate"
             inkscape:connector-curvature="0" />
          <path
             style="color:#000000;fill:#445016;fill-opacity:1;fill-rule:nonzero;stroke:#000000;stroke-width:4.82749128;stroke-linecap:butt;stroke-linejoin:miter;stroke-miterlimit:4;stroke-opacity:1;stroke-dasharray:none;stroke-dashoffset:0;marker:none;visibility:visible;display:inline;overflow:visible;enable-background:accumulate"
             d="m 1096.4572,12630.08 c -56.3798,13.334 -102.72842,30.432 -126.19154,56.082 l 0,90.913 c 3.80148,6.309 8.29802,12.873 13.51426,19.712 57.32428,-11.586 -16.70378,-88.264 112.67728,-166.707 z"
             id="path5013-1-8-6-3"
             inkscape:connector-curvature="0" />
          <path
             sodipodi:nodetypes="ccccc"
             id="path5036-3-7-0-8"
             d="m 987.07877,12795.161 c -6.52778,-37.793 -28.56707,-72.042 35.88123,-125.345 -77.53125,56.303 -41.53078,88.8 -38.32084,128.109 l 2.44571,-4.903 0,2.139 z"
             style="fill:#000000;stroke:none"
             inkscape:connector-curvature="0" />
          <path
             sodipodi:nodetypes="ccc"
             id="path5013-0-9"
             d="m 1002.1536,12799.321 c 5.1387,-111.25 97.7492,-120.456 214.708,-101.259 -166.5933,19.289 -157.2935,112.606 -214.708,101.259 z"
             style="color:#000000;fill:#445016;fill-opacity:1;fill-rule:nonzero;stroke:#000000;stroke-width:4.82749128;stroke-linecap:butt;stroke-linejoin:miter;stroke-miterlimit:4;stroke-opacity:1;stroke-dasharray:none;stroke-dashoffset:0;marker:none;visibility:visible;display:inline;overflow:visible;enable-background:accumulate"
             inkscape:connector-curvature="0" />
          <path
             sodipodi:nodetypes="ccccc"
             id="path5036-9-8"
             d="m 1006.1485,12799.162 c 21.139,-34.872 26.4536,-72.464 119.5072,-94.289 -106.409,19.541 -98.4966,60.814 -123.5583,95.757 l 5.5702,-3.303 -1.5191,1.835 z"
             style="fill:#000000;stroke:none"
             inkscape:connector-curvature="0" />
          <path
             style="color:#000000;fill:#445016;fill-opacity:1;fill-rule:nonzero;stroke:#000000;stroke-width:4.82749128;stroke-linecap:butt;stroke-linejoin:miter;stroke-miterlimit:4;stroke-opacity:1;stroke-dasharray:none;stroke-dashoffset:0;marker:none;visibility:visible;display:inline;overflow:visible;enable-background:accumulate"
             d="m 1122.1744,12743.595 c 47.1609,0.359 87.3433,25.609 124.3305,62.149 l -18.9641,0 c -119.7034,-43.898 -191.0935,14.653 -219.5947,-19.196 42.6392,-30.598 80.2656,-43.211 114.2283,-42.953 z"
             id="path5013-1-0-4"
             inkscape:connector-curvature="0" />
          <path
             sodipodi:nodetypes="ccccc"
             id="path5036-3-4-8"
             d="m 1011.0226,12788.448 c 48.4142,-14.839 87.9005,-39.529 176.2401,-9.112 -95.8856,-38.721 -129.2428,-4.776 -180.5763,8.164 l 7.1791,0.37 -2.8429,0.578 z"
             style="fill:#000000;stroke:none"
             inkscape:connector-curvature="0" />
          <path
             id="path4189-4-9"
             d="m 2271.0192,12435.579 c 21.2905,0.735 38.8576,11.022 55.4746,23.949 l 0,338.033 -1153.8906,0 62.4754,-37.367 c -0.8438,-20.582 -40.8551,-47.459 20.0277,-58.103 40.4705,-18.152 78.4076,-63.575 126.0142,-4.174 3.6764,-36.032 -56.4511,-81.79 80.2877,-97.525 62.6953,-54.269 133.2769,-17.066 203.3775,14.51 -22.5006,-42.287 -79.7034,-86.551 80.199,-118.264 89.0803,-18.402 87.5836,-105.508 320.796,-14.51 15.5075,-16.109 8.2059,-38.444 140.3703,-22.857 25.4397,-17.883 46.5282,-24.325 64.8682,-23.692 z"
             style="color:#000000;fill:#217844;fill-opacity:1;fill-rule:nonzero;stroke:#000000;stroke-width:4.82749128;stroke-linecap:butt;stroke-linejoin:miter;stroke-miterlimit:4;stroke-opacity:1;stroke-dasharray:none;stroke-dashoffset:0;marker:none;visibility:visible;display:inline;overflow:visible;enable-background:accumulate"
             inkscape:connector-curvature="0" />
          <path
             id="path4189-4-9-6"
             d="m 2271.0192,12435.579 c 21.2905,0.735 38.8576,11.022 55.4746,23.949 l 0,338.033 -1153.8906,0 62.4754,-37.367 c -0.8438,-20.582 -40.8551,-47.459 20.0277,-58.103 40.4705,-18.152 78.4076,-63.575 126.0142,-4.174 3.6764,-36.032 -56.4511,-81.79 80.2877,-97.525 62.6953,-54.269 133.2769,-17.066 203.3775,14.51 -22.5006,-42.287 -79.7034,-86.551 80.199,-118.264 89.0803,-18.402 87.5836,-105.508 320.796,-14.51 15.5075,-16.109 8.2059,-38.444 140.3703,-22.857 25.4397,-17.883 46.5282,-24.325 64.8682,-23.692 z"
             style="opacity:0.37751004;color:#000000;fill:url(#linearGradient3450);fill-opacity:1;fill-rule:nonzero;stroke:#000000;stroke-width:4.82749128;stroke-linecap:butt;stroke-linejoin:miter;stroke-miterlimit:4;stroke-opacity:1;stroke-dasharray:none;stroke-dashoffset:0;marker:none;visibility:visible;display:inline;overflow:visible;enable-background:accumulate"
             inkscape:connector-curvature="0" />
          <path
             sodipodi:nodetypes="ccc"
             id="path3860-1-2-0"
             d="m 1533.1642,12644.841 c 76.0639,-53.284 92.3575,-105.73 67.2128,-157.595 -115.4016,36.949 -131.29,90.572 -67.2128,157.595 z"
             style="color:#000000;fill:#217844;fill-opacity:1;fill-rule:nonzero;stroke:#000000;stroke-width:4.82749128;stroke-linecap:butt;stroke-linejoin:miter;stroke-miterlimit:4;stroke-opacity:1;stroke-dasharray:none;stroke-dashoffset:0;marker:none;visibility:visible;display:inline;overflow:visible;enable-background:accumulate"
             inkscape:connector-curvature="0" />
          <path
             sodipodi:nodetypes="ccc"
             id="path3862-7-8-3"
             d="m 1531.1753,12644.712 c -12.0567,-55.634 -3.7749,-112.373 63.6153,-151.499 -85.9765,53.426 -74.4363,105.887 -63.6153,151.499 z"
             style="fill:#000000;stroke:none"
             inkscape:connector-curvature="0" />
          <path
             sodipodi:nodetypes="ccc"
             id="path3864-5-8-9-9"
             d="m 1514.2436,12555.7 c 24.323,-8.22 33.1781,4.441 46.9159,10.51 -13.7373,-5.016 -22.6358,-13.885 -46.9159,-10.51 z"
             style="color:#000000;fill:#000000;fill-opacity:1;fill-rule:nonzero;stroke:none;stroke-width:4;marker:none;visibility:visible;display:inline;overflow:visible;enable-background:accumulate"
             inkscape:connector-curvature="0" />
          <path
             style="color:#000000;fill:#217844;fill-opacity:1;fill-rule:nonzero;stroke:#000000;stroke-width:4.82749128;stroke-linecap:butt;stroke-linejoin:miter;stroke-miterlimit:4;stroke-opacity:1;stroke-dasharray:none;stroke-dashoffset:0;marker:none;visibility:visible;display:inline;overflow:visible;enable-background:accumulate"
             d="m 2326.4938,12380.428 0,76.274 c -29.3915,11.476 -66.1334,18.561 -111.3924,20.61 8.3968,-60.414 43.8846,-94.309 111.3924,-96.884 z"
             id="path3860-7-29-3"
             inkscape:connector-curvature="0" />
          <path
             style="fill:#000000;stroke:none"
             d="m 2326.4938,12398.598 0,1.156 c -48.4069,14.039 -84.5653,43.184 -112.8102,76.531 24.5601,-29.961 52.2635,-63.059 112.8102,-77.687 z"
             id="path3862-77-5-6"
             inkscape:connector-curvature="0" />
          <path
             sodipodi:nodetypes="ccc"
             id="path3864-0-7-6"
             d="m 2251.6275,12418.533 c 26.7159,1.865 25.4719,16.03 33.0535,26.313 -8.3191,-9.375 -9.7708,-20.289 -33.0535,-26.313 z"
             style="color:#000000;fill:#000000;fill-opacity:1;fill-rule:nonzero;stroke:none;stroke-width:4;marker:none;visibility:visible;display:inline;overflow:visible;enable-background:accumulate"
             inkscape:connector-curvature="0" />
          <path
             sodipodi:nodetypes="ccccc"
             id="path4382-6-1-13-6"
             d="m 2230.3569,12400.856 -11.0337,65.182 c -14.469,20.695 -25.7223,10.448 -33.9754,4.316 l -38.5374,-49.961 83.5465,-19.537 z"
             style="color:#000000;fill:#ffcc00;fill-opacity:1;fill-rule:nonzero;stroke:#000000;stroke-width:4.82749128;stroke-linecap:butt;stroke-linejoin:miter;stroke-miterlimit:4;stroke-opacity:1;stroke-dasharray:none;stroke-dashoffset:0;marker:none;visibility:visible;display:inline;overflow:visible;enable-background:accumulate"
             inkscape:connector-curvature="0" />
          <path
             style="color:#000000;fill:#ffcc00;fill-opacity:1;fill-rule:nonzero;stroke:#000000;stroke-width:4.82749128;stroke-linecap:butt;stroke-linejoin:miter;stroke-miterlimit:4;stroke-opacity:1;stroke-dasharray:none;stroke-dashoffset:0;marker:none;visibility:visible;display:inline;overflow:visible;enable-background:accumulate"
             d="m 2235.6609,12324.57 c 19.5143,0.46 41.2395,6.196 63.8047,18.813 -48.5075,-12.366 -75.2073,-15.943 -65.134,41.09 52.579,-10.175 77.4996,-3.631 92.1624,12.006 l 0,37.88 c -24.9819,-19.984 -46.1432,-28.376 -107.4047,-4.109 -98.3989,16.806 -46.987,38.972 -83.5664,93.032 23.4948,-44.064 -116.2201,-67.194 -3.2789,-97.655 -16.047,-48.531 -90.3585,-37.114 -108.1135,-10.272 -0.8856,-50.132 52.6362,-70.97 129.6476,-34.542 6.6943,-32.73 38.9513,-57.255 81.8828,-56.243 z"
             id="path4357-7-4-3-1"
             inkscape:connector-curvature="0" />
          <path
             sodipodi:nodetypes="ccc"
             id="path4380-4-9-5-0"
             d="m 2151.0785,12402.336 c 85.0552,-19.439 94.0685,16.421 9.5891,17.218 85.558,5.637 89.0162,-47.56 -9.5891,-17.218 z"
             style="fill:#000000;stroke:none"
             inkscape:connector-curvature="0" />
          <path
             sodipodi:nodetypes="cccc"
             id="path4392-7-7-7-1"
             d="m 2189.1058,12413.904 c -0.3088,-31.708 -17.4226,-65.235 -58.3272,-87.823 38.7273,24.492 50.6046,55.882 52.1936,90.922 4.9951,2.11 5.5242,-0.537 6.1336,-3.099 z"
             style="color:#000000;fill:#ffffff;fill-opacity:1;fill-rule:nonzero;stroke:#000000;stroke-width:4.82749128;stroke-linecap:butt;stroke-linejoin:miter;stroke-miterlimit:4;stroke-opacity:1;stroke-dasharray:none;stroke-dashoffset:0;marker:none;visibility:visible;display:inline;overflow:visible;enable-background:accumulate"
             inkscape:connector-curvature="0" />
          <path
             id="path2843-3-0"
             d="m 1859.3901,12330.992 c 257.0399,0.701 394.1416,144.005 426.8713,396.909 l 35.4471,69.66 -21.9772,0 -15.5081,-15.023 c -147.5345,-291.575 -490.427,-214.629 -718.4234,-222.466 l -7.0008,-64.461 -9.6594,63.753 c -96.4135,-5.34 -169.7535,-28.801 -194.6043,-107.412 202.685,-82.608 370.215,-121.329 504.8548,-120.96 z m 424.8331,451.546 c 0.685,1.353 1.3617,2.675 2.0382,4.046 l -3.9877,-5.907 1.9495,1.861 z"
             style="color:#000000;fill:#5aa02c;fill-opacity:1;fill-rule:nonzero;stroke:#000000;stroke-width:4.82749128;stroke-linecap:butt;stroke-linejoin:miter;stroke-miterlimit:4;stroke-opacity:1;stroke-dasharray:none;stroke-dashoffset:0;marker:none;visibility:visible;display:inline;overflow:visible;filter:url(#filter5039-2-2);enable-background:accumulate"
             inkscape:connector-curvature="0" />
          <path
             sodipodi:nodetypes="ccc"
             id="path3860-1-0-5-1"
             d="m 1390.2308,12689.753 c 105.1171,8.724 171.3787,-15.467 210.7024,-62.478 -112.6853,-41.115 -179.9451,-15.949 -210.7024,62.478 z"
             style="color:#000000;fill:#217844;fill-opacity:1;fill-rule:nonzero;stroke:#000000;stroke-width:4.82749128;stroke-linecap:butt;stroke-linejoin:miter;stroke-miterlimit:4;stroke-opacity:1;stroke-dasharray:none;stroke-dashoffset:0;marker:none;visibility:visible;display:inline;overflow:visible;enable-background:accumulate"
             inkscape:connector-curvature="0" />
          <path
             sodipodi:nodetypes="ccc"
             id="path3862-7-1-3-1"
             d="m 1389.1041,12688.559 c 51.6558,-42.083 117.4054,-73.483 201.9189,-60.621 -111.5636,-14.181 -160.1631,25.596 -201.9189,60.621 z"
             style="fill:#000000;stroke:none"
             inkscape:connector-curvature="0" />
          <path
             sodipodi:nodetypes="ccc"
             id="path3864-5-8-2-1-8"
             d="m 1473.2471,12622.55 c 24.2127,8.391 16.3385,21.387 18.5927,32.93 -3.3765,-10.873 0.4261,-21.486 -18.5927,-32.93 z"
             style="color:#000000;fill:#000000;fill-opacity:1;fill-rule:nonzero;stroke:none;stroke-width:4;marker:none;visibility:visible;display:inline;overflow:visible;enable-background:accumulate"
             inkscape:connector-curvature="0" />
          <path
             sodipodi:nodetypes="ccc"
             id="path3860-1-0-0-4-7"
             d="m 1385.5108,12705.508 c 76.4139,53.02 149.3747,62.801 219.9414,42.604 -55.3948,-82.128 -129.964,-91.57 -219.9414,-42.604 z"
             style="color:#000000;fill:#217844;fill-opacity:1;fill-rule:nonzero;stroke:#000000;stroke-width:4.82749128;stroke-linecap:butt;stroke-linejoin:miter;stroke-miterlimit:4;stroke-opacity:1;stroke-dasharray:none;stroke-dashoffset:0;marker:none;visibility:visible;display:inline;overflow:visible;enable-background:accumulate"
             inkscape:connector-curvature="0" />
          <path
             sodipodi:nodetypes="ccc"
             id="path3862-7-1-8-7-9"
             d="m 1385.6108,12704.063 c 76.27,-10.867 154.8433,-7.052 211.396,40.234 -76.9901,-60.191 -148.9014,-49.821 -211.396,-40.234 z"
             style="fill:#000000;stroke:none"
             inkscape:connector-curvature="0" />
          <path
             style="color:#000000;fill:#217844;fill-opacity:1;fill-rule:nonzero;stroke:#000000;stroke-width:4.82749128;stroke-linecap:butt;stroke-linejoin:miter;stroke-miterlimit:4;stroke-opacity:1;stroke-dasharray:none;stroke-dashoffset:0;marker:none;visibility:visible;display:inline;overflow:visible;enable-background:accumulate"
             d="m 1416.4791,12711.914 c 78.1876,0.02 123.1565,26.957 128.8501,85.648 l -96.2387,0 c -27.2919,-19.315 -48.5578,-46.903 -62.6527,-84.429 10.4941,-0.784 20.5205,-1.222 30.0413,-1.219 z"
             id="path3860-1-0-08-6-1"
             inkscape:connector-curvature="0" />
          <path
             sodipodi:nodetypes="ccc"
             id="path3864-5-8-2-0-6-5"
             d="m 1507.7274,12688.385 c 12.2734,17.293 -4.849,24.191 -12.6926,34.369 6.3913,-10.138 18.2803,-16.921 12.6926,-34.369 z"
             style="color:#000000;fill:#000000;fill-opacity:1;fill-rule:nonzero;stroke:none;stroke-width:4;marker:none;visibility:visible;display:inline;overflow:visible;enable-background:accumulate"
             inkscape:connector-curvature="0" />
          <path
             id="path2843-5-41-2"
             d="m 1792.9269,12514.678 c 145.7071,0.489 321.0099,82.875 523.4646,274.731 l 10.1023,4.685 0,3.467 -25.1674,0 c -339.7261,-196.352 -450.9414,-112.209 -546.6823,0 l -344.0139,0 c 85.5056,-175.035 214.2089,-283.446 382.2967,-282.883 z"
             style="color:#000000;fill:#5aa02c;fill-opacity:1;fill-rule:nonzero;stroke:#000000;stroke-width:4.82749128;stroke-linecap:butt;stroke-linejoin:miter;stroke-miterlimit:4;stroke-opacity:1;stroke-dasharray:none;stroke-dashoffset:0;marker:none;visibility:visible;display:inline;overflow:visible;filter:url(#filter5039-2-2);enable-background:accumulate"
             inkscape:connector-curvature="0" />
          <path
             sodipodi:nodetypes="ccc"
             id="path3660-8-7"
             d="m 1447.723,12438.772 c 384.7626,-106.922 722.2301,-117.295 834.5253,294.972 -94.7163,-251.211 -240.5513,-455.732 -834.5253,-294.972 z"
             style="fill:#000000;stroke:none"
             inkscape:connector-curvature="0" />
          <path
             sodipodi:nodetypes="ccc"
             id="path3662-6-6"
             d="m 1900.4327,12360.259 c -5.7771,16.634 -15.2192,33.264 -34.4342,49.896 26.504,-14.455 34.8611,-31.537 34.4342,-49.896 z"
             style="fill:#000000;stroke:none"
             inkscape:connector-curvature="0" />
          <path
             style="color:#000000;fill:#217844;fill-opacity:1;fill-rule:nonzero;stroke:#000000;stroke-width:4.82749128;stroke-linecap:butt;stroke-linejoin:miter;stroke-miterlimit:4;stroke-opacity:1;stroke-dasharray:none;stroke-dashoffset:0;marker:none;visibility:visible;display:inline;overflow:visible;enable-background:accumulate"
             d="m 2214.0382,12712.556 c 54.461,0.433 92.7689,25.191 112.4558,77.814 l 0,7.191 -89.238,0 c -37.5342,-12.395 -71.9526,-35.737 -102.6193,-72.294 29.3528,-8.576 55.8876,-12.899 79.4015,-12.712 z"
             id="path3860-1-5-64-6"
             inkscape:connector-curvature="0" />
          <path
             id="path3667-1-3"
             d="m 1815.2586,12533.811 c 114.3697,0.883 255.0072,57.519 433.872,195.246 -500.8724,-364.198 -666.6555,-122.464 -789.7606,68.504 l -8.4188,0 c 91.0566,-152.371 200.8421,-265.013 364.3074,-263.75 z"
             style="color:#000000;fill:#000000;fill-opacity:1;fill-rule:nonzero;stroke:none;stroke-width:4;marker:none;visibility:visible;display:inline;overflow:visible;enable-background:accumulate"
             inkscape:connector-curvature="0" />
          <path
             sodipodi:nodetypes="ccc"
             id="path3662-5-9-5"
             d="m 1579.5612,12603.321 c 22.5024,5.325 46.9581,8.402 76.6238,5.489 -31.0083,8.542 -55.4141,4.558 -76.6238,-5.489 z"
             style="fill:#000000;stroke:none"
             inkscape:connector-curvature="0" />
          <path
             sodipodi:nodetypes="ccc"
             id="path3662-5-0-8-5"
             d="m 1497.6522,12692.577 c 6.6743,16.455 17.0107,32.804 37.1124,48.876 -27.2671,-13.688 -36.5439,-30.521 -37.1124,-48.876 z"
             style="fill:#000000;stroke:none"
             inkscape:connector-curvature="0" />
          <path
             style="color:#000000;fill:#217844;fill-opacity:1;fill-rule:nonzero;stroke:#000000;stroke-width:4.82749128;stroke-linecap:butt;stroke-linejoin:miter;stroke-miterlimit:4;stroke-opacity:1;stroke-dasharray:none;stroke-dashoffset:0;marker:none;visibility:visible;display:inline;overflow:visible;enable-background:accumulate"
             d="m 1335.5709,12705.943 c 14.8177,-0.06 30.8229,1.047 48.1194,3.338 -20.8655,42.25 -49.759,70.858 -85.3387,88.281 l -84.0982,0 c 6.769,-62.47 49.0071,-91.325 121.3175,-91.619 z"
             id="path3860-6-9-6"
             inkscape:connector-curvature="0" />
          <path
             sodipodi:nodetypes="ccc"
             id="path3862-8-5-4"
             d="m 1382.7449,12708.042 c -74.9308,14.979 -142.864,43.837 -164.2804,104.45 31.7359,-78.777 102.462,-92.788 164.2804,-104.45 z"
             style="fill:#000000;stroke:none"
             inkscape:connector-curvature="0" />
          <path
             sodipodi:nodetypes="ccc"
             id="path3864-8-3-6"
             d="m 1295.6249,12718.43 c -4.941,19.113 14.1879,22.179 25.719,30.309 -10.1231,-8.392 -24.1919,-12.432 -25.719,-30.309 z"
             style="color:#000000;fill:#000000;fill-opacity:1;fill-rule:nonzero;stroke:none;stroke-width:4;marker:none;visibility:visible;display:inline;overflow:visible;enable-background:accumulate"
             inkscape:connector-curvature="0" />
          <path
             sodipodi:nodetypes="ccc"
             id="path3860-68-7"
             d="m 1373.2591,12706.589 c -76.2201,53.167 -149.1448,63.087 -219.785,43.025 55.0947,-82.234 129.6294,-91.818 219.785,-43.025 z"
             style="color:#000000;fill:#217844;fill-opacity:1;fill-rule:nonzero;stroke:#000000;stroke-width:4.82749128;stroke-linecap:butt;stroke-linejoin:miter;stroke-miterlimit:4;stroke-opacity:1;stroke-dasharray:none;stroke-dashoffset:0;marker:none;visibility:visible;display:inline;overflow:visible;enable-background:accumulate"
             inkscape:connector-curvature="0" />
          <path
             sodipodi:nodetypes="ccc"
             id="path3862-3-6"
             d="m 1373.1538,12705.144 c -76.3093,-10.72 -154.8685,-6.755 -211.2484,40.639 76.7701,-60.34 148.7192,-50.106 211.2484,-40.639 z"
             style="fill:#000000;stroke:none"
             inkscape:connector-curvature="0" />
          <path
             sodipodi:nodetypes="ccc"
             id="path3864-5-7"
             d="m 1288.7435,12686.385 c -16.1552,15.529 -0.902,24.436 4.437,35.433 -3.9173,-10.777 -14.0405,-18.927 -4.437,-35.433 z"
             style="color:#000000;fill:#000000;fill-opacity:1;fill-rule:nonzero;stroke:none;stroke-width:4;marker:none;visibility:visible;display:inline;overflow:visible;enable-background:accumulate"
             inkscape:connector-curvature="0" />
          <path
             sodipodi:nodetypes="ccc"
             id="path3860-19-4-4"
             d="m 1339.0191,12678.865 c -105.8041,0.224 -167.9533,-29.144 -199.8369,-79.026 118.2844,-31.804 181.2763,-1.388 199.8369,79.026 z"
             style="color:#000000;fill:#217844;fill-opacity:1;fill-rule:nonzero;stroke:#000000;stroke-width:4.82749128;stroke-linecap:butt;stroke-linejoin:miter;stroke-miterlimit:4;stroke-opacity:1;stroke-dasharray:none;stroke-dashoffset:0;marker:none;visibility:visible;display:inline;overflow:visible;enable-background:accumulate"
             inkscape:connector-curvature="0" />
          <path
             d="m 1600,12688.79 c 0,31.559 -26.3832,57.143 -58.9286,57.143 -32.5453,0 -58.9286,-25.584 -58.9286,-57.143 0,-31.559 26.3833,-57.143 58.9286,-57.143 32.5454,0 58.9286,25.584 58.9286,57.143 z"
             sodipodi:ry="57.142857"
             sodipodi:rx="58.92857"
             sodipodi:cy="12688.79"
             sodipodi:cx="1541.0714"
             id="path12139"
             style="opacity:0.52208832;color:#000000;fill:#000000;fill-opacity:1;fill-rule:nonzero;stroke:none;stroke-width:4;marker:none;visibility:visible;display:inline;overflow:visible;filter:url(#filter12145);enable-background:accumulate"
             sodipodi:type="arc"
             transform="matrix(1.4178827,0,0,1.0272655,-833.66564,-314.49159)" />
          <path
             sodipodi:nodetypes="ccc"
             id="path3862-2-11-4"
             d="m 1340.3219,12677.769 c -44.8946,-45.974 -105.4312,-82.465 -191.3924,-76.473 113.0464,-5.129 155.2563,38.308 191.3924,76.473 z"
             style="fill:#000000;stroke:none"
             inkscape:connector-curvature="0" />
          <path
             sodipodi:nodetypes="ccc"
             id="path3864-6-8-4"
             d="m 1297.2467,12621.93 c -26.4908,3.125 -23.9732,17.2 -30.6121,27.82 7.4567,-9.749 7.9217,-20.708 30.6121,-27.82 z"
             style="color:#000000;fill:#000000;fill-opacity:1;fill-rule:nonzero;stroke:none;stroke-width:4;marker:none;visibility:visible;display:inline;overflow:visible;enable-background:accumulate"
             inkscape:connector-curvature="0" />
          <path
             sodipodi:nodetypes="ccc"
             id="path3860-4-5-7"
             d="m 2084.0403,12745.711 c -83.0939,53.167 -162.5951,63.088 -239.6057,43.026 60.0632,-82.234 141.3194,-91.819 239.6057,-43.026 z"
             style="color:#000000;fill:#217844;fill-opacity:1;fill-rule:nonzero;stroke:#000000;stroke-width:4.82749128;stroke-linecap:butt;stroke-linejoin:miter;stroke-miterlimit:4;stroke-opacity:1;stroke-dasharray:none;stroke-dashoffset:0;marker:none;visibility:visible;display:inline;overflow:visible;enable-background:accumulate"
             inkscape:connector-curvature="0" />
          <path
             sodipodi:nodetypes="ccc"
             id="path3862-1-5-6"
             d="m 2083.9253,12744.267 c -83.191,-10.721 -168.8347,-6.755 -230.299,40.638 83.6934,-60.338 162.1309,-50.106 230.299,-40.638 z"
             style="fill:#000000;stroke:none"
             inkscape:connector-curvature="0" />
          <path
             sodipodi:nodetypes="ccccscc"
             id="path12261"
             d="m 1961.2111,12689.319 21.2132,20.708 c -36.8567,-0.127 -66.5608,21.204 -95.4594,44.952 25.9923,3.933 48.1476,12.799 82.8325,5.556 0,0 34.3452,-51.518 32.3249,-53.538 -2.0203,-2.02 -30.3046,-22.223 -30.3046,-22.223 l -10.6066,4.545 z"
             style="opacity:0.42168675;fill:#000000;stroke:#000000;stroke-width:1px;stroke-linecap:butt;stroke-linejoin:miter;stroke-opacity:1;filter:url(#filter12267)"
             inkscape:connector-curvature="0"
             transform="matrix(1.4178827,0,0,1.0272655,-833.66564,-314.49159)" />
          <path
             sodipodi:nodetypes="ccc"
             id="path3864-3-6-3"
             d="m 1991.9027,12725.508 c -17.6121,15.528 -0.9833,24.435 4.8371,35.433 -4.2705,-10.778 -15.3066,-18.928 -4.8371,-35.433 z"
             style="color:#000000;fill:#000000;fill-opacity:1;fill-rule:nonzero;stroke:none;stroke-width:4;marker:none;visibility:visible;display:inline;overflow:visible;enable-background:accumulate"
             inkscape:connector-curvature="0" />
          <path
             sodipodi:nodetypes="ccccc"
             id="path4382-6-0-0"
             d="m 1372.4941,12627.111 19.8121,64.083 c -4.0385,23.014 -19.3875,16.098 -30.0033,12.33 l -59.4524,-37.687 69.6436,-38.726 z"
             style="color:#000000;fill:#d45500;fill-opacity:1;fill-rule:nonzero;stroke:#000000;stroke-width:4.82749128;stroke-linecap:butt;stroke-linejoin:miter;stroke-miterlimit:4;stroke-opacity:1;stroke-dasharray:none;stroke-dashoffset:0;marker:none;visibility:visible;display:inline;overflow:visible;enable-background:accumulate"
             inkscape:connector-curvature="0" />
          <path
             sodipodi:nodetypes="ccccccccc"
             id="path4357-7-6-5"
             d="m 1291.592,12674.309 c -37.605,-41.811 -102.3408,-12.957 -106.6268,16.646 -24.0647,-47.006 16.7174,-79.702 106.1397,-64.121 -12.8889,-47.211 33.1215,-91.118 119.8472,-70.653 -51.4219,0.152 -78.2649,3.259 -42.3475,54.531 86.4176,-43.145 104.9312,-2.87 147.0807,39.589 -56.5415,-21.427 -78.1994,-43.15 -140.2177,7.255 -84.8996,39.766 -26.1379,48.149 -35.5428,107.97 1.7121,-47.221 -140.6031,-35.052 -48.3328,-91.217 z"
             style="color:#000000;fill:#d45500;fill-opacity:1;fill-rule:nonzero;stroke:#000000;stroke-width:4.82749128;stroke-linecap:butt;stroke-linejoin:miter;stroke-miterlimit:4;stroke-opacity:1;stroke-dasharray:none;stroke-dashoffset:0;marker:none;visibility:visible;display:inline;overflow:visible;enable-background:accumulate"
             inkscape:connector-curvature="0" />
          <path
             sodipodi:nodetypes="ccc"
             id="path4380-4-1-0"
             d="m 1298.5037,12647.79 c 71.11,-39 96.2178,-7.414 17.0111,13.887 83.2041,-15.503 61.81,-66.453 -17.0111,-13.887 z"
             style="fill:#000000;stroke:none"
             inkscape:connector-curvature="0" />
          <path
             sodipodi:nodetypes="cccc"
             id="path4392-7-4-8"
             d="m 1339.684,12649.437 c -14.9844,-29.793 -46.6413,-57.211 -95.6391,-68.538 47.8293,13.65 73.5627,40.328 91.2971,72.948 5.6828,0.772 4.9552,-1.849 4.342,-4.41 z"
             style="color:#000000;fill:#ffffff;fill-opacity:1;fill-rule:nonzero;stroke:#000000;stroke-width:4.82749128;stroke-linecap:butt;stroke-linejoin:miter;stroke-miterlimit:4;stroke-opacity:1;stroke-dasharray:none;stroke-dashoffset:0;marker:none;visibility:visible;display:inline;overflow:visible;enable-background:accumulate"
             inkscape:connector-curvature="0" />
          <g
             style="stroke-width:2;stroke-miterlimit:4;stroke-dasharray:none"
             transform="matrix(1.0574208,1.9063514,2.6312404,-0.76610844,-916.97315,13558.43)"
             id="g4578-1-9">
            <path
               style="color:#000000;fill:#800000;fill-opacity:1;fill-rule:nonzero;stroke:#000000;stroke-width:2;stroke-linecap:butt;stroke-linejoin:miter;stroke-miterlimit:4;stroke-opacity:1;stroke-dasharray:none;stroke-dashoffset:0;marker:none;visibility:visible;display:inline;overflow:visible;enable-background:accumulate"
               d="m 38.50747,1115.8326 -7.5,31.0714 c -6.22275,9.4225 -9.59357,4.0129 -12.14285,0.7143 l -10.71429,-25.7143 30.35714,-6.0714 z"
               id="path4382-2-23-0"
               sodipodi:nodetypes="ccccc"
               inkscape:connector-curvature="0" />
            <path
               style="color:#000000;fill:#800000;fill-opacity:1;fill-rule:nonzero;stroke:#000000;stroke-width:2;stroke-linecap:butt;stroke-linejoin:miter;stroke-miterlimit:4;stroke-opacity:1;stroke-dasharray:none;stroke-dashoffset:0;marker:none;visibility:visible;display:inline;overflow:visible;enable-background:accumulate"
               d="m 120.46875,672.84375 c 8.49962,11.73224 0.89977,37.44315 -22.5625,31.15625 5.95431,-42.07832 -27.440651,-4.14865 -42.34375,-21.65625 16.98052,23.88328 35.133082,13.06681 25.78125,47.46875 0.03178,9.30645 -0.96235,15.75343 -2.90625,20.34375 l 18.5625,0 c 0.475788,-1.56677 0.944898,-3.21106 1.375,-5 4.45237,1.72518 7.95175,3.39318 10.65625,5 l 18.03125,0 c 1.59644,-10.63993 -3.67134,-21.64339 -13.59375,-29.09375 28.53287,-15.41963 28.59796,-36.86073 7,-48.21875 z"
               transform="matrix(-0.37288726,-0.92787666,0.92787666,-0.37288726,-613.93872,1477.2113)"
               id="path4357-5-3-7"
               inkscape:connector-curvature="0" />
            <path
               style="fill:#000000;stroke:none"
               d="m 10.65237,1113.3459 c 30.88029,-5.9632 32.03813,11.7403 2.39912,8.7126 29.65809,6.1821 33.83593,-19.4003 -2.39912,-8.7126 z"
               id="path4380-5-1-3"
               sodipodi:nodetypes="ccc"
               inkscape:connector-curvature="0" />
          </g>
          <path
             sodipodi:nodetypes="cccc"
             id="path4392-8-9-7"
             d="m 2055.9358,12744.498 c -38.6192,14.92 -87.4563,20.004 -134.3636,4.721 48.1796,12.988 91.9261,5.589 135.198,-10.105 4.9413,2.176 1.9832,3.774 -0.8344,5.384 z"
             style="color:#000000;fill:#5aa02c;fill-opacity:1;fill-rule:nonzero;stroke:#000000;stroke-width:4.82749128;stroke-linecap:butt;stroke-linejoin:miter;stroke-miterlimit:4;stroke-opacity:1;stroke-dasharray:none;stroke-dashoffset:0;marker:none;visibility:visible;display:inline;overflow:visible;filter:url(#filter5039-2-2);enable-background:accumulate"
             inkscape:connector-curvature="0" />
          <path
             sodipodi:nodetypes="cccc"
             id="path11990"
             d="m 2204.1528,12703.461 c -80.3121,-415.56 -366.792,-381.299 -680.8428,-286.883 33.6359,70.504 85.6598,124.784 210.1117,115.157 225.2664,-131.742 330.1553,69.324 470.7311,171.726 z"
             style="opacity:0.37349399;fill:#000000;stroke:none;filter:url(#filter12000)"
             inkscape:connector-curvature="0"
             transform="matrix(1.4178827,0,0,1.0272655,-833.66564,-314.49159)" />
          <path
             sodipodi:nodetypes="ccc"
             id="path3862-7-0-8-5"
             d="m 2135.2672,12723.893 c 77.558,3.755 152.1139,22.124 189.9187,78.378 -52.9555,-72.542 -126.1258,-75.961 -189.9187,-78.378 z"
             style="fill:#000000;stroke:none"
             inkscape:connector-curvature="0" />
          <path
             sodipodi:nodetypes="ccc"
             id="path3864-5-8-7-5-0"
             d="m 2258.8335,12731.567 c 5.7014,19.001 -13.2972,22.466 -24.4993,30.834 9.7844,-8.6 23.6862,-12.932 24.4993,-30.834 z"
             style="color:#000000;fill:#000000;fill-opacity:1;fill-rule:nonzero;stroke:none;stroke-width:4;marker:none;visibility:visible;display:inline;overflow:visible;enable-background:accumulate"
             inkscape:connector-curvature="0" />
          <path
             style="color:#000000;fill:#aa4400;fill-opacity:1;fill-rule:nonzero;stroke:#000000;stroke-width:4.20919895;stroke-linecap:butt;stroke-linejoin:miter;stroke-miterlimit:4;stroke-opacity:1;stroke-dasharray:none;stroke-dashoffset:0;marker:none;visibility:visible;display:inline;overflow:visible;filter:url(#filter5039-2-2);enable-background:accumulate"
             d="m 1472.1805,11937.735 -302.8013,120.415 -2.1558,17.495 c 125.5102,-51.57 243.5501,-108.891 319.442,-103.817 104.2759,78.307 201.0868,165.999 290.7753,262.401 67.6882,-23.804 114.3237,-31.757 169.8773,-46.387 58.9889,26.524 106.317,67.557 136.1577,130.238 104.5525,14.786 177.9717,16.745 242.1332,14.959 l 0,-193.253 -0.9095,-2.055 c -56.3341,44.565 -149.5641,94.461 -231.0505,95.728 l -128.4101,-104.203 -179.444,48.314 -313.6143,-239.835 z"
             id="path5644-4-2"
             inkscape:connector-curvature="0" />
          <g
             style="stroke-width:0.75428194;stroke-miterlimit:4;stroke-dasharray:none"
             transform="matrix(-0.38109105,5.4406461,7.509449,0.27610302,-7780.5727,9406.4154)"
             id="g3917-4-0-0-6-3">
            <path
               style="color:#000000;fill:#5aa02c;fill-opacity:1;fill-rule:nonzero;stroke:#000000;stroke-width:0.75428194;stroke-linecap:butt;stroke-linejoin:miter;stroke-miterlimit:4;stroke-opacity:1;stroke-dasharray:none;stroke-dashoffset:0;marker:none;visibility:visible;display:inline;overflow:visible;filter:url(#filter5039-2-2);enable-background:accumulate"
               d="m 451.25,965.34448 c 28.14108,0.31509 44.76079,-10.32917 53.39286,-28.57143 -31.36458,-11.93666 -48.21163,-0.90921 -53.39286,28.57143 z"
               id="path3860-2-1-2-8-3"
               transform="translate(0,308.2677)"
               sodipodi:nodetypes="ccc"
               inkscape:connector-curvature="0" />
            <path
               style="fill:#000000;stroke:none"
               d="m 450.90685,964.93908 c 12.08081,-16.77887 28.29323,-30.04208 51.13897,-27.65292 -30.05247,-2.13198 -41.41151,13.72159 -51.13897,27.65292 z"
               id="path3862-13-4-3-5-4"
               transform="translate(0,308.2677)"
               sodipodi:nodetypes="ccc"
               inkscape:connector-curvature="0" />
            <path
               style="color:#000000;fill:#000000;fill-opacity:1;fill-rule:nonzero;stroke:none;stroke-width:0.75428194;marker:none;visibility:visible;display:inline;overflow:visible;enable-background:accumulate"
               d="m 462.53369,1252.8022 c 7.03656,1.2054 6.32409,6.3675 8.05762,10.2806 -1.95368,-3.5953 -2.04406,-7.6195 -8.05762,-10.2806 z"
               id="path3864-2-2-0-9-2"
               sodipodi:nodetypes="ccc"
               inkscape:connector-curvature="0" />
          </g>
          <path
             sodipodi:nodetypes="ccccc"
             id="path5917-3-0"
             d="m 2091.1972,12217.797 c 273.6695,227.803 43.656,728.182 -475.2977,-41.213 1.331,-16.347 12.3225,-6.573 19.7215,-6.513 328.4923,537.21 735.9147,469.983 473.7984,49.244 l -18.2222,-1.518 z"
             style="color:#000000;fill:#445016;fill-opacity:1;fill-rule:nonzero;stroke:#000000;stroke-width:4.82749128;stroke-linecap:butt;stroke-linejoin:miter;stroke-miterlimit:4;stroke-opacity:1;stroke-dasharray:none;stroke-dashoffset:0;marker:none;visibility:visible;display:inline;overflow:visible;filter:url(#filter5039-2-2);enable-background:accumulate"
             inkscape:connector-curvature="0" />
          <g
             style="stroke-width:1.50856388;stroke-miterlimit:4;stroke-dasharray:none"
             transform="matrix(2.38578,2.1051025,2.9055666,-1.7285136,-3149.9273,13471.051)"
             id="g3917-4-0-0-5-3-8">
            <path
               style="color:#000000;fill:#217844;fill-opacity:1;fill-rule:nonzero;stroke:#000000;stroke-width:1.50856388;stroke-linecap:butt;stroke-linejoin:miter;stroke-miterlimit:4;stroke-opacity:1;stroke-dasharray:none;stroke-dashoffset:0;marker:none;visibility:visible;display:inline;overflow:visible;filter:url(#filter5039-2-2);enable-background:accumulate"
               d="m 451.25,965.34448 c 28.14108,0.31509 44.76079,-10.32917 53.39286,-28.57143 -31.36458,-11.93666 -48.21163,-0.90921 -53.39286,28.57143 z"
               id="path3860-2-1-2-4-8-1"
               transform="translate(0,308.2677)"
               sodipodi:nodetypes="ccc"
               inkscape:connector-curvature="0" />
            <path
               style="fill:#000000;stroke:none"
               d="m 452.20873,1272.7687 c 12.08081,-16.7789 28.29323,-30.0421 51.13897,-27.6529 -30.05247,-2.132 -41.41151,13.7216 -51.13897,27.6529 z"
               id="path3862-13-4-3-6-1-0"
               sodipodi:nodetypes="ccc"
               inkscape:connector-curvature="0" />
            <path
               style="color:#000000;fill:#000000;fill-opacity:1;fill-rule:nonzero;stroke:none;stroke-width:1.50856388;marker:none;visibility:visible;display:inline;overflow:visible;enable-background:accumulate"
               d="m 462.53369,1252.8022 c 7.03656,1.2054 6.32409,6.3675 8.05762,10.2806 -1.95368,-3.5953 -2.04406,-7.6195 -8.05762,-10.2806 z"
               id="path3864-2-2-0-6-1-5"
               sodipodi:nodetypes="ccc"
               inkscape:connector-curvature="0" />
          </g>
          <path
             style="fill:#000000;stroke:none"
             d="m 2326.6478,12299.653 -69.6534,16.983 69.6534,-15.056 0,-1.927 z"
             id="path5769-4-9-3"
             inkscape:connector-curvature="0" />
          <g
             style="stroke-width:1.50856388;stroke-miterlimit:4;stroke-dasharray:none"
             transform="matrix(-2.6252999,1.0769594,1.1300894,2.5018741,909.70509,8383.5974)"
             id="g3917-4-0-0-5-1-2-1">
            <path
               style="color:#000000;fill:#217844;fill-opacity:1;fill-rule:nonzero;stroke:#000000;stroke-width:1.50856388;stroke-linecap:butt;stroke-linejoin:miter;stroke-miterlimit:4;stroke-opacity:1;stroke-dasharray:none;stroke-dashoffset:0;marker:none;visibility:visible;display:inline;overflow:visible;filter:url(#filter5039-2-2);enable-background:accumulate"
               d="m 451.25,965.34448 c 28.14108,0.31509 44.76079,-10.32917 53.39286,-28.57143 -31.36458,-11.93666 -48.21163,-0.90921 -53.39286,28.57143 z"
               id="path3860-2-1-2-4-7-0-6"
               transform="translate(0,308.2677)"
               sodipodi:nodetypes="ccc"
               inkscape:connector-curvature="0" />
            <path
               style="fill:#000000;stroke:none"
               d="m 450.90685,964.93908 c 12.08081,-16.77887 28.29323,-30.04208 51.13897,-27.65292 -30.05247,-2.13198 -41.41151,13.72159 -51.13897,27.65292 z"
               id="path3862-13-4-3-6-6-12-3"
               transform="translate(0,308.2677)"
               sodipodi:nodetypes="ccc"
               inkscape:connector-curvature="0" />
            <path
               style="color:#000000;fill:#000000;fill-opacity:1;fill-rule:nonzero;stroke:none;stroke-width:1.50856388;marker:none;visibility:visible;display:inline;overflow:visible;enable-background:accumulate"
               d="m 462.53369,1252.8022 c 7.03656,1.2054 6.32409,6.3675 8.05762,10.2806 -1.95368,-3.5953 -2.04406,-7.6195 -8.05762,-10.2806 z"
               id="path3864-2-2-0-6-2-2-1"
               sodipodi:nodetypes="ccc"
               inkscape:connector-curvature="0" />
          </g>
          <path
             id="path12076"
             d="m 2056.4285,12210.219 52.8572,99.286 11.4285,-3.572 0.7143,17.143 8.5714,42.143 12.8572,44.286 -9.2857,-82.143 c 0,0 -55,-115.714 -58.5715,-117.143 -3.5714,-1.429 -19.2857,0.714 -18.5714,0 z"
             style="opacity:0.82329317;fill:#000000;stroke:#000000;stroke-width:1px;stroke-linecap:butt;stroke-linejoin:miter;stroke-opacity:1;filter:url(#filter12082)"
             inkscape:connector-curvature="0"
             transform="matrix(1.4178827,0,0,1.0272655,-833.66564,-314.49159)" />
          <path
             style="color:#000000;fill:#445016;fill-opacity:1;fill-rule:nonzero;stroke:#000000;stroke-width:4.82749128;stroke-linecap:butt;stroke-linejoin:miter;stroke-miterlimit:4;stroke-opacity:1;stroke-dasharray:none;stroke-dashoffset:0;marker:none;visibility:visible;display:inline;overflow:visible;filter:url(#filter5039-2-2);enable-background:accumulate"
             d="m 2096.552,12214.294 c -2.4452,-0.04 -4.817,0.381 -6.9122,1.156 -4.1906,1.548 -7.4304,4.557 -8.8618,8.571 82.3461,80.394 166.5945,210.648 250.6552,329.303 l 0,-52.648 c -87.2671,-127.736 -166.3424,-257.393 -227.3929,-284.809 -2.5159,-1.047 -5.0431,-1.534 -7.4883,-1.573 z"
             id="path5894-9-5"
             inkscape:connector-curvature="0" />
          <g
             style="stroke-width:1.50856388;stroke-miterlimit:4;stroke-dasharray:none"
             transform="matrix(2.8410075,-1.7839556,2.4623039,2.0583289,-3218.2491,10120.678)"
             id="g3917-4-0-0-5-1-6-5-8">
            <path
               style="color:#000000;fill:#217844;fill-opacity:1;fill-rule:nonzero;stroke:#000000;stroke-width:1.50856388;stroke-linecap:butt;stroke-linejoin:miter;stroke-miterlimit:4;stroke-opacity:1;stroke-dasharray:none;stroke-dashoffset:0;marker:none;visibility:visible;display:inline;overflow:visible;enable-background:accumulate"
               d="m 451.25,965.34448 c 28.14108,0.31509 44.76079,-10.32917 53.39286,-28.57143 -31.36458,-11.93666 -48.21163,-0.90921 -53.39286,28.57143 z"
               id="path3860-2-1-2-4-7-5-62-0"
               transform="translate(0,308.2677)"
               sodipodi:nodetypes="ccc"
               inkscape:connector-curvature="0" />
            <path
               style="fill:#000000;stroke:none"
               d="m 450.90685,964.93908 c 12.08081,-16.77887 28.29323,-30.04208 51.13897,-27.65292 -30.05247,-2.13198 -41.41151,13.72159 -51.13897,27.65292 z"
               id="path3862-13-4-3-6-6-3-1-8"
               transform="translate(0,308.2677)"
               sodipodi:nodetypes="ccc"
               inkscape:connector-curvature="0" />
            <path
               style="color:#000000;fill:#000000;fill-opacity:1;fill-rule:nonzero;stroke:none;stroke-width:1.50856388;marker:none;visibility:visible;display:inline;overflow:visible;enable-background:accumulate"
               d="m 462.53369,1252.8022 c 7.03656,1.2054 6.32409,6.3675 8.05762,10.2806 -1.95368,-3.5953 -2.04406,-7.6195 -8.05762,-10.2806 z"
               id="path3864-2-2-0-6-2-0-1-5"
               sodipodi:nodetypes="ccc"
               inkscape:connector-curvature="0" />
          </g>
          <path
             sodipodi:nodetypes="ccc"
             id="path4380-0-1"
             d="m 1646.5762,12206.734 c -0.5524,-2.365 -20.6677,-17.97 -5.7649,-37.516 -19.9763,20.239 0.5405,36.22 5.7649,37.516 z"
             style="fill:#000000;stroke:none"
             inkscape:connector-curvature="0" />
          <path
             sodipodi:nodetypes="cccc"
             id="path4382-21-8"
             d="m 1610.3087,12206.874 c -1.7063,7.897 10.1588,11.417 14.2836,14.989 -1.5763,-5.525 -1.763,-10.628 2.5847,-14.352 -3.7272,-0.932 -11.0955,-8.626 -16.8683,-0.637 z"
             style="color:#000000;fill:#ffffff;fill-opacity:1;fill-rule:nonzero;stroke:#000000;stroke-width:4.82749128;stroke-linecap:butt;stroke-linejoin:miter;stroke-miterlimit:4;stroke-opacity:1;stroke-dasharray:none;stroke-dashoffset:0;marker:none;visibility:visible;display:inline;overflow:visible;enable-background:accumulate"
             inkscape:connector-curvature="0" />
          <path
             sodipodi:nodetypes="cccc"
             id="path4382-2-2-5"
             d="m 1687.2058,12220.428 c 7.0561,6.144 18.5415,2.016 24.968,2.133 -6.7669,-2.793 -12.1781,-6.063 -13.1648,-10.887 -3.428,1.411 -16.2679,0.337 -11.8032,8.754 z"
             style="color:#000000;fill:#ffffff;fill-opacity:1;fill-rule:nonzero;stroke:#000000;stroke-width:4.82749128;stroke-linecap:butt;stroke-linejoin:miter;stroke-miterlimit:4;stroke-opacity:1;stroke-dasharray:none;stroke-dashoffset:0;marker:none;visibility:visible;display:inline;overflow:visible;enable-background:accumulate"
             inkscape:connector-curvature="0" />
          <path
             sodipodi:nodetypes="cccc"
             id="path4382-9-4"
             d="m 1746.3411,12211.582 c 0.3367,7.989 12.8952,9.861 17.8598,12.82 -2.958,-5.22 -4.4429,-10.209 -1.1195,-14.451 -3.9008,-0.418 -13.1042,-6.993 -16.7403,1.631 z"
             style="color:#000000;fill:#ffffff;fill-opacity:1;fill-rule:nonzero;stroke:#000000;stroke-width:4.82749128;stroke-linecap:butt;stroke-linejoin:miter;stroke-miterlimit:4;stroke-opacity:1;stroke-dasharray:none;stroke-dashoffset:0;marker:none;visibility:visible;display:inline;overflow:visible;enable-background:accumulate"
             inkscape:connector-curvature="0" />
          <path
             sodipodi:nodetypes="cccc"
             id="path4382-2-5-9"
             d="m 1825.3705,12214.61 c 8.5017,5.095 18.7365,-0.501 25.0822,-1.246 -7.3627,-1.839 -13.5144,-4.327 -15.7143,-8.938 -3.0092,1.847 -15.902,2.509 -9.3679,10.184 z"
             style="color:#000000;fill:#ffffff;fill-opacity:1;fill-rule:nonzero;stroke:#000000;stroke-width:4.82749128;stroke-linecap:butt;stroke-linejoin:miter;stroke-miterlimit:4;stroke-opacity:1;stroke-dasharray:none;stroke-dashoffset:0;marker:none;visibility:visible;display:inline;overflow:visible;enable-background:accumulate"
             inkscape:connector-curvature="0" />
          <path
             sodipodi:nodetypes="ccccccccc"
             id="path11807"
             d="m 1970,11809.505 c 1.035,59.632 -22.258,122.306 -51.4286,185.714 l 101.4285,2.857 -24.2857,11.429 50,37.143 -41.4285,-38.572 44.2857,-15.714 c -11.3365,-12.058 -47.0312,-14.982 -88.5714,-15.714 9.4751,-56.831 38.7358,-117.259 10,-167.143 z"
             style="opacity:0.17269078;fill:#ffffff;stroke:none;filter:url(#filter11829)"
             inkscape:connector-curvature="0"
             transform="matrix(1.4178827,0,0,1.0272655,-833.66564,-314.49159)" />
          <path
             id="path11942"
             d="m 2209.9999,12186.648 -105.7142,41.428 -8.5715,-11.428 -22.8571,7.142 -60,5.715 48.5714,-12.857 20,-12.858 10,7.143 114.2857,-35.714 11.4286,10 -7.1429,1.429 z"
             style="opacity:0.55020082;fill:url(#linearGradient3454);fill-opacity:1;stroke:none;filter:url(#filter11952)"
             inkscape:connector-curvature="0"
             transform="matrix(1.4178827,0,0,1.0272655,-833.66564,-314.49159)" />
          <path
             id="path11964"
             d="m 1792.0106,11972.111 35.3553,70.711 19.1929,-15.153 31.3147,37.376 -5.0507,-60.609 -21.2132,9.091 -29.2945,-61.619 -30.3045,20.203 z"
             style="opacity:0.8875502;fill:url(#radialGradient3456);fill-opacity:1;stroke:none;filter:url(#filter11978)"
             inkscape:connector-curvature="0"
             transform="matrix(1.4178827,0,0,1.0272655,-833.66564,-314.49159)" />
          <path
             sodipodi:nodetypes="ccc"
             id="path12004"
             d="m 1967.7771,12537.796 c -143.9842,-11.846 -228.8893,72.982 -315.1676,155.564 71.247,-115.913 143.877,-229.207 315.1676,-155.564 z"
             style="opacity:0.73493975;fill:url(#radialGradient3458);fill-opacity:1;stroke:none;filter:url(#filter12014)"
             inkscape:connector-curvature="0"
             transform="matrix(1.4178827,0,0,1.0272655,-833.66564,-314.49159)" />
          <path
             id="path5917-3-0-6"
             d="m 1731.9688,12150.344 c -2.2362,0.149 -3.9331,2.225 -4.3438,9.187 133.0408,272.247 239.1462,381.189 311.0625,398.907 -50.7862,-21.754 -116.2885,-86.081 -194.375,-214 -34.3581,-51.86 -69.1545,-115.347 -102.7813,-191.25 -2.9352,-0.03 -6.6873,-3.036 -9.5624,-2.844 z m 330.875,49.312 c 10.7672,12.371 20.4174,25.583 29,39.344 -3.3527,-8.356 -6.9374,-16.882 -10.7188,-25.562 -0.2318,-0.269 -0.4547,-0.545 -0.6875,-0.813 l 0.3437,0.03 c -1.6623,-3.807 -3.3475,-7.662 -5.0937,-11.531 l -12.8437,-1.469 z m 29,39.344 c 82.3241,205.175 36.9709,311.7 -57.7188,283.375 39.5297,17.87 72.1033,14.176 92.7188,-8.844 31.6104,-64.494 22.5702,-182.221 -35,-274.531 z"
             style="opacity:0.32530123;color:#000000;fill:#000000;fill-opacity:1;fill-rule:nonzero;stroke:none;stroke-width:4;marker:none;visibility:visible;display:inline;overflow:visible;filter:url(#filter12062);enable-background:accumulate"
             inkscape:connector-curvature="0"
             transform="matrix(1.4178827,0,0,1.0272655,-833.66564,-314.49159)" />
          <path
             sodipodi:nodetypes="ccccc"
             id="path12116"
             d="m 1537.1428,12372.362 29.6534,108.225 c -133.1617,60.814 -248.8184,115.943 -281.0819,73.203 110.6476,-121.314 168.8185,-114.013 247.1131,-128.152 l 4.3154,-53.276 z"
             style="opacity:0.25702808;fill:#000000;stroke:#000000;stroke-width:1px;stroke-linecap:butt;stroke-linejoin:miter;stroke-opacity:1;filter:url(#filter12121)"
             inkscape:connector-curvature="0"
             transform="matrix(1.4178827,0,0,1.0272655,-833.66564,-314.49159)" />
          <path
             sodipodi:nodetypes="ccccccccc"
             id="path12125"
             d="m 1563.7161,12633.761 -18.1827,14.647 c 9.5,14.256 19.2691,29.697 22.2233,15.152 l -3.0304,10.102 -11.1117,3.535 -23.7386,-20.708 4.5457,-11.617 c 8.9773,-7.358 17.5396,-16.377 27.7792,-18.687 l 1.5152,7.576 z"
             style="opacity:0.43775102;fill:#000000;stroke:#000000;stroke-width:1px;stroke-linecap:butt;stroke-linejoin:miter;stroke-opacity:1;filter:url(#filter12135)"
             inkscape:connector-curvature="0"
             transform="matrix(1.4178827,0,0,1.0272655,-833.66564,-314.49159)" />
          <path
             id="path12149"
             d="m 1271.4285,12753.79 1.4286,-100 10,24.286 30,-21.428 -17.1428,74.285 25.7142,-42.857 1.4286,17.143 28.5714,-21.429 -18.5714,41.429 22.8572,7.143 -27.1429,7.143 35.7143,15.714 -41.4286,8.571 -44.2857,4.286 -7.1429,-14.286 z"
             style="opacity:0.26104419;fill:#000000;fill-opacity:1;stroke:none;filter:url(#filter12155)"
             inkscape:connector-curvature="0"
             transform="matrix(1.4178827,0,0,1.0272655,-833.66564,-314.49159)" />
          <path
             id="path12203"
             d="m 2096.0665,12694.37 -38.3858,3.03 3.0304,30.305 -18.1827,16.162 -45.4569,-4.04 -10.1015,-25.254 -20.203,47.477 39.3959,4.041 c 0,0 16.1624,-18.183 19.1929,-14.142 3.0305,4.04 9.0914,15.152 9.0914,15.152 l 31.3147,-2.02 -2.0203,-34.346 35.3553,-26.264 -3.0304,-10.101 z"
             style="opacity:0.37349399;fill:url(#linearGradient3460);fill-opacity:1;stroke:#000000;stroke-width:1px;stroke-linecap:butt;stroke-linejoin:miter;stroke-opacity:1;filter:url(#filter12217)"
             inkscape:connector-curvature="0"
             transform="matrix(1.4178827,0,0,1.0272655,-833.66564,-314.49159)" />
          <path
             sodipodi:nodetypes="cccccccccc"
             id="path12237"
             d="m 2112.1428,12633.79 -40.7143,41.429 c 8.3502,38.409 65.7587,3.953 88.5714,5 l -27.8571,14.286 91.2029,69.565 -55.5584,-1.01 c -38.6395,-17.298 -54.653,-41.385 -66.6701,-66.67 l 3.0305,-11.111 -43.9267,-3.306 c -5.0335,-11.026 22.0358,-35.814 51.9218,-48.183 z"
             style="opacity:0.40963853;fill:#000000;stroke:#000000;stroke-width:1px;stroke-linecap:butt;stroke-linejoin:miter;stroke-opacity:1;filter:url(#filter12251)"
             inkscape:connector-curvature="0"
             transform="matrix(1.4178827,0,0,1.0272655,-833.66564,-314.49159)" />
          <path
             sodipodi:nodetypes="ccc"
             id="path12255"
             d="m 2160.7162,12699.421 c 29.6964,7.71 42.3832,24.531 53.5381,42.174 -8.4315,-23.211 -21.1045,-42.298 -53.5381,-42.174 z"
             style="opacity:0.6947791;fill:#ffffff;stroke:none;filter:url(#filter12257)"
             inkscape:connector-curvature="0"
             transform="matrix(1.4178827,0,0,1.0272655,-833.66564,-314.49159)" />
          <path
             sodipodi:nodetypes="cccc"
             id="path12271"
             d="m 2041.0714,12682.005 c -3.8962,-29.71 13.9686,-41.887 50,-39.286 -44.2619,-0.723 -64.5989,-35.604 -56.7857,36.429 l 6.7857,2.857 z"
             style="opacity:0.72690759;fill:url(#radialGradient3462);fill-opacity:1;stroke:none;filter:url(#filter12383)"
             inkscape:connector-curvature="0"
             transform="matrix(1.4178827,0,0,1.0272655,-833.66564,-314.49159)" />
          <path
             sodipodi:nodetypes="cccscc"
             id="path12297"
             d="m 2041.0132,12711.037 c 2.7801,19.713 8.6145,44.72 -16.1625,16.668 l -51.5178,7.071 c 0,0 4.0407,-7.071 6.061,-7.576 2.0203,-0.505 42.8448,-9.842 42.8448,-9.842 l 18.7745,-6.321 z"
             style="opacity:0.49397589;fill:#000000;stroke:#000000;stroke-width:1px;stroke-linecap:butt;stroke-linejoin:miter;stroke-opacity:1;filter:url(#filter12365)"
             inkscape:connector-curvature="0"
             transform="matrix(1.4178827,0,0,1.0272655,-833.66564,-314.49159)" />
          <path
             sodipodi:nodetypes="ccsc"
             id="path12387"
             d="m 1724.2857,12196.648 c -169.8267,99.836 -157.0925,183.445 -161.4286,268.571 14.5194,51.624 165.319,-83.151 144.2857,-158.571 -1.5825,-5.674 20,-105.715 17.1429,-110 z"
             style="opacity:0.43373497;fill:#000000;stroke:none;filter:url(#filter12393)"
             inkscape:connector-curvature="0"
             transform="matrix(1.4178827,0,0,1.0272655,-833.66564,-314.49159)" />
        </g>
      </g>
    </g>
  </g>
</svg>
