<?xml version="1.0" encoding="UTF-8" standalone="no"?>
<!-- Created with Inkscape (http://www.inkscape.org/) -->

<svg
   xmlns:dc="http://purl.org/dc/elements/1.1/"
   xmlns:cc="http://creativecommons.org/ns#"
   xmlns:rdf="http://www.w3.org/1999/02/22-rdf-syntax-ns#"
   xmlns:svg="http://www.w3.org/2000/svg"
   xmlns="http://www.w3.org/2000/svg"
   xmlns:sodipodi="http://sodipodi.sourceforge.net/DTD/sodipodi-0.dtd"
   xmlns:inkscape="http://www.inkscape.org/namespaces/inkscape"
   width="762.07153"
   height="1070.7617"
   id="svg4097"
   version="1.1"
   inkscape:version="0.48.3.1 r9886"
   sodipodi:docname="árbol2.svg">
  <defs
     id="defs4099">
    <inkscape:perspective
       id="perspective10"
       inkscape:persp3d-origin="372.04724 : 350.78739 : 1"
       inkscape:vp_z="744.09448 : 526.18109 : 1"
       inkscape:vp_y="0 : 1000 : 0"
       inkscape:vp_x="0 : 526.18109 : 1"
       sodipodi:type="inkscape:persp3d" />
  </defs>
  <sodipodi:namedview
     id="base"
     pagecolor="#ffffff"
     bordercolor="#666666"
     borderopacity="1.0"
     inkscape:pageopacity="0.0"
     inkscape:pageshadow="2"
     inkscape:zoom="0.35"
     inkscape:cx="797.42604"
     inkscape:cy="495.75972"
     inkscape:document-units="px"
     inkscape:current-layer="g3344"
     showgrid="false"
     fit-margin-top="0"
     fit-margin-left="0"
     fit-margin-right="0"
     fit-margin-bottom="0"
     inkscape:window-width="763"
     inkscape:window-height="656"
     inkscape:window-x="0"
     inkscape:window-y="48"
     inkscape:window-maximized="0" />
  <metadata
     id="metadata4102">
    <rdf:RDF>
      <cc:Work
         rdf:about="">
        <dc:format>image/svg+xml</dc:format>
        <dc:type
           rdf:resource="http://purl.org/dc/dcmitype/StillImage" />
        <dc:title></dc:title>
      </cc:Work>
    </rdf:RDF>
  </metadata>
  <g
     inkscape:label="Capa 1"
     inkscape:groupmode="layer"
     id="layer1"
     transform="translate(-122.57396,42.639824)">
    <g
       id="layer1-1"
       inkscape:label="Capa 1"
       transform="translate(124.13834,-40.40275)">
      <g
         id="g3344">
        <rect
           style="fill:#87decd;fill-opacity:1;fill-rule:evenodd;stroke:none;stroke-width:1px;marker:none;visibility:visible;display:inline;overflow:visible;enable-background:accumulate"
           id="rect3211"
           width="755.10388"
           height="1070.7617"
           x="0.49020794"
           y="-2.2370737" />
        <path
           style="fill:#447821;fill-rule:evenodd;stroke:none"
           d="M 403.05087,741.2352 26.263967,853.36213 27.274119,731.13367 C 193.68147,562.8246 310.29069,667.8421 403.05087,741.2352 z"
           id="path3340"
           sodipodi:nodetypes="cccc"
           inkscape:connector-curvature="0" />
        <path
           style="fill:#225500;fill-opacity:1;fill-rule:evenodd;stroke:none;stroke-width:1px;marker:none;visibility:visible;display:inline;overflow:visible;enable-background:accumulate"
           d="m 94.533798,745.54338 c -5.4197,-10.56081 -19.70372,-49.84177 13.319282,-76.15091 -18.899362,12.80999 -21.126162,50.09891 -13.319282,76.15091 z"
           id="path3238"
           sodipodi:nodetypes="ccc"
           inkscape:connector-curvature="0" />
        <path
           style="fill:#d7f4e3;fill-opacity:1;fill-rule:evenodd;stroke:none;stroke-width:1px;marker:none;visibility:visible;display:inline;overflow:visible;enable-background:accumulate"
           d="M -1.4285714,183.79075 C 264.67624,526.01651 510.17041,184.27369 758.57142,179.50504 l -2.85714,65.71429 C 389.2121,227.32539 -10.005336,597.01843 -1.4285714,266.6479 l 0,-82.85715 z"
           id="path3209"
           sodipodi:nodetypes="ccccc"
           inkscape:connector-curvature="0" />
        <path
           style="fill:#008033;fill-opacity:1;fill-rule:evenodd;stroke:none;stroke-width:1px;marker:none;visibility:visible;display:inline;overflow:visible;enable-background:accumulate"
           d="m 131.42857,798.07647 c 182.45062,-82.15377 374.70284,-143.21443 580,-77.14286 l -205.71428,197.14286 -374.28572,-120 z"
           id="path3199"
           sodipodi:nodetypes="cccc"
           inkscape:connector-curvature="0" />
        <path
           style="fill:#000000;fill-rule:evenodd;stroke:none"
           d="m 365.71429,860.93361 c 159.07479,-162.26201 -137.80784,-499.04762 30,-675.71428 -157.64474,231.4154 127.24601,402.83471 30.79478,676.96954 l -60.79478,-1.25526 z"
           id="path2383"
           sodipodi:nodetypes="cccc"
           inkscape:connector-curvature="0" />
        <path
           style="fill:#000000;fill-opacity:1;fill-rule:evenodd;stroke:none;stroke-width:1px;marker:none;visibility:visible;display:inline;overflow:visible;enable-background:accumulate"
           d="M 417.193,699.81894 C 270.55819,680.34142 301.7647,595.32327 311.42857,539.50504 294.15401,589.18933 333.29788,705.7944 414.28572,663.79076 l 2.90728,36.02818 z"
           id="path3155"
           sodipodi:nodetypes="cccc"
           inkscape:connector-curvature="0" />
        <path
           style="fill:#000000;fill-opacity:1;fill-rule:evenodd;stroke:none;stroke-width:1px;marker:none;visibility:visible;display:inline;overflow:visible;enable-background:accumulate"
           d="M 426.22237,680.98094 C 572.85718,661.50342 535.93638,490.77098 526.27251,434.95275 543.54707,484.63704 510.11749,686.9564 429.12965,644.95276 l -2.90728,36.02818 z"
           id="path3157"
           sodipodi:nodetypes="cccc"
           inkscape:connector-curvature="0" />
        <path
           sodipodi:type="arc"
           style="fill:#aa4400;fill-opacity:1;fill-rule:evenodd;stroke:none;stroke-width:35.29999924;marker:none;visibility:visible;display:inline;overflow:visible;enable-background:accumulate"
           id="path3240"
           sodipodi:cx="-201.52544"
           sodipodi:cy="616.48132"
           sodipodi:rx="9.5964489"
           sodipodi:ry="10.606602"
           d="m -191.92899,616.48132 c 0,5.85787 -4.29647,10.6066 -9.59645,10.6066 -5.29997,0 -9.59645,-4.74873 -9.59645,-10.6066 0,-5.85786 4.29648,-10.6066 9.59645,-10.6066 5.29998,0 9.59645,4.74874 9.59645,10.6066 z"
           transform="matrix(0.7549993,0,0,0.7069041,256.597,236.91084)" />
        <path
           style="fill:#008000;fill-opacity:1;fill-rule:evenodd;stroke:none;stroke-width:1px;marker:none;visibility:visible;display:inline;overflow:visible;enable-background:accumulate"
           d="m 303.15634,583.79978 c 3.34627,-16.48074 -20.64566,-37.0886 -41.72777,-39.53166 4.99371,20.10355 8.20485,43.83746 41.72777,39.53166 z"
           id="path3161"
           sodipodi:nodetypes="ccc"
           inkscape:connector-curvature="0" />
        <path
           style="fill:#008000;fill-opacity:1;fill-rule:evenodd;stroke:none;stroke-width:1px;marker:none;visibility:visible;display:inline;overflow:visible;enable-background:accumulate"
           d="m 310.72194,606.1581 c -3.34627,-16.48074 20.64566,-37.0886 41.72777,-39.53166 -4.99371,20.10355 -8.20485,43.83746 -41.72777,39.53166 z"
           id="path3163"
           sodipodi:nodetypes="ccc"
           inkscape:connector-curvature="0" />
        <path
           style="fill:#008000;fill-opacity:1;fill-rule:evenodd;stroke:none;stroke-width:1px;marker:none;visibility:visible;display:inline;overflow:visible;enable-background:accumulate"
           d="m 309.17657,556.70575 c 11.31109,-12.44474 1.25012,-42.42929 -15.60975,-55.31993 -6.0012,19.82614 -15.39208,41.85841 15.60975,55.31993 z"
           id="path3165"
           sodipodi:nodetypes="ccc"
           inkscape:connector-curvature="0" />
        <path
           style="fill:#008000;fill-opacity:1;fill-rule:evenodd;stroke:none;stroke-width:1px;marker:none;visibility:visible;display:inline;overflow:visible;enable-background:accumulate"
           d="m 304.82939,601.76672 c -5.33989,-15.94672 -36.42052,-21.8026 -55.90102,-13.38038 14.3741,14.91561 29.01898,33.86652 55.90102,13.38038 z"
           id="path3167"
           sodipodi:nodetypes="ccc"
           inkscape:connector-curvature="0" />
        <path
           style="fill:#008000;fill-opacity:1;fill-rule:evenodd;stroke:none;stroke-width:1px;marker:none;visibility:visible;display:inline;overflow:visible;enable-background:accumulate"
           d="m 309.29337,573.30095 c -3.34627,-16.48074 20.64566,-37.0886 41.72777,-39.53166 -4.99371,20.10355 -8.20485,43.83746 -41.72777,39.53166 z"
           id="path3169"
           sodipodi:nodetypes="ccc"
           inkscape:connector-curvature="0" />
        <path
           style="fill:#008000;fill-opacity:1;fill-rule:evenodd;stroke:none;stroke-width:1px;marker:none;visibility:visible;display:inline;overflow:visible;enable-background:accumulate"
           d="m 528.18158,470.09629 c 3.34627,-16.48074 -20.64566,-37.0886 -41.72777,-39.53166 4.99371,20.10355 8.20485,43.83746 41.72777,39.53166 z"
           id="path3171"
           sodipodi:nodetypes="ccc"
           inkscape:connector-curvature="0" />
        <path
           style="fill:#008000;fill-opacity:1;fill-rule:evenodd;stroke:none;stroke-width:1px;marker:none;visibility:visible;display:inline;overflow:visible;enable-background:accumulate"
           d="m 535.74718,492.45461 c -3.34627,-16.48074 20.64566,-37.0886 41.72777,-39.53166 -4.99371,20.10355 -8.20485,43.83746 -41.72777,39.53166 z"
           id="path3173"
           sodipodi:nodetypes="ccc"
           inkscape:connector-curvature="0" />
        <path
           style="fill:#008000;fill-opacity:1;fill-rule:evenodd;stroke:none;stroke-width:1px;marker:none;visibility:visible;display:inline;overflow:visible;enable-background:accumulate"
           d="m 534.20181,443.00226 c 11.31109,-12.44474 1.25012,-42.42929 -15.60975,-55.31993 -6.0012,19.82614 -15.39208,41.85841 15.60975,55.31993 z"
           id="path3175"
           sodipodi:nodetypes="ccc"
           inkscape:connector-curvature="0" />
        <path
           style="fill:#008000;fill-opacity:1;fill-rule:evenodd;stroke:none;stroke-width:1px;marker:none;visibility:visible;display:inline;overflow:visible;enable-background:accumulate"
           d="m 529.85463,488.06323 c -5.33989,-15.94672 -36.42052,-21.8026 -55.90102,-13.38038 14.3741,14.91561 29.01898,33.86652 55.90102,13.38038 z"
           id="path3177"
           sodipodi:nodetypes="ccc"
           inkscape:connector-curvature="0" />
        <path
           style="fill:#008000;fill-opacity:1;fill-rule:evenodd;stroke:none;stroke-width:1px;marker:none;visibility:visible;display:inline;overflow:visible;enable-background:accumulate"
           d="m 534.31861,459.59746 c -3.34627,-16.48074 20.64566,-37.0886 41.72777,-39.53166 -4.99371,20.10355 -8.20485,43.83746 -41.72777,39.53166 z"
           id="path3179"
           sodipodi:nodetypes="ccc"
           inkscape:connector-curvature="0" />
        <path
           style="fill:#008000;fill-opacity:1;fill-rule:evenodd;stroke:none;stroke-width:1px;marker:none;visibility:visible;display:inline;overflow:visible;enable-background:accumulate"
           d="m 345.32445,371.52486 c 3.34627,-16.48074 -20.64566,-37.0886 -41.72777,-39.53166 4.99371,20.10355 8.20485,43.83746 41.72777,39.53166 z"
           id="path3181"
           sodipodi:nodetypes="ccc"
           inkscape:connector-curvature="0" />
        <path
           style="fill:#008000;fill-opacity:1;fill-rule:evenodd;stroke:none;stroke-width:1px;marker:none;visibility:visible;display:inline;overflow:visible;enable-background:accumulate"
           d="m 536.57536,509.96116 c 8.92972,-14.25034 40.51698,-12.65627 57.47999,0.0984 -17.47039,11.12993 -36.15009,26.11922 -57.47999,-0.0984 z"
           id="path3183"
           sodipodi:nodetypes="ccc"
           inkscape:connector-curvature="0" />
        <path
           style="fill:#008000;fill-opacity:1;fill-rule:evenodd;stroke:none;stroke-width:1px;marker:none;visibility:visible;display:inline;overflow:visible;enable-background:accumulate"
           d="m 357.05896,247.28797 c 11.31109,-12.44474 1.25012,-42.42929 -15.60975,-55.31993 -6.0012,19.82614 -15.39208,41.85841 15.60975,55.31993 z"
           id="path3185"
           sodipodi:nodetypes="ccc"
           inkscape:connector-curvature="0" />
        <path
           style="fill:#008000;fill-opacity:1;fill-rule:evenodd;stroke:none;stroke-width:1px;marker:none;visibility:visible;display:inline;overflow:visible;enable-background:accumulate"
           d="m 369.85464,493.77752 c -5.33989,-15.94672 -36.42052,-21.8026 -55.90102,-13.38038 14.3741,14.91561 29.01898,33.86652 55.90102,13.38038 z"
           id="path3187"
           sodipodi:nodetypes="ccc"
           inkscape:connector-curvature="0" />
        <path
           style="fill:#008000;fill-opacity:1;fill-rule:evenodd;stroke:none;stroke-width:1px;marker:none;visibility:visible;display:inline;overflow:visible;enable-background:accumulate"
           d="m 347.17577,332.4546 c -3.34627,-16.48074 20.64566,-37.0886 41.72777,-39.53166 -4.99371,20.10355 -8.20485,43.83746 -41.72777,39.53166 z"
           id="path3189"
           sodipodi:nodetypes="ccc"
           inkscape:connector-curvature="0" />
        <path
           style="fill:#008000;fill-opacity:1;fill-rule:evenodd;stroke:none;stroke-width:1px;marker:none;visibility:visible;display:inline;overflow:visible;enable-background:accumulate"
           d="m 359.90663,425.05493 c 5.33989,-15.94672 36.42052,-21.8026 55.90102,-13.38038 -14.3741,14.91561 -29.01898,33.86652 -55.90102,13.38038 z"
           id="path3191"
           sodipodi:nodetypes="ccc"
           inkscape:connector-curvature="0" />
        <path
           style="fill:#008000;fill-opacity:1;fill-rule:evenodd;stroke:none;stroke-width:1px;marker:none;visibility:visible;display:inline;overflow:visible;enable-background:accumulate"
           d="m 393.55184,193.10822 c -11.31109,-12.44474 -1.25012,-42.42929 15.60975,-55.31993 6.0012,19.82614 15.39208,41.85841 -15.60975,55.31993 z"
           id="path3193"
           sodipodi:nodetypes="ccc"
           inkscape:connector-curvature="0" />
        <path
           style="fill:#008000;fill-opacity:1;fill-rule:evenodd;stroke:none;stroke-width:1px;marker:none;visibility:visible;display:inline;overflow:visible;enable-background:accumulate"
           d="m 356.89621,263.4233 c 3.84114,-16.37248 34.24642,-25.07968 54.42278,-18.49649 -12.93199,16.18189 -25.76016,36.40682 -54.42278,18.49649 z"
           id="path3195"
           sodipodi:nodetypes="ccc"
           inkscape:connector-curvature="0" />
        <path
           style="fill:#008000;fill-opacity:1;fill-rule:evenodd;stroke:none;stroke-width:1px;marker:none;visibility:visible;display:inline;overflow:visible;enable-background:accumulate"
           d="m 372.65864,469.03101 c 9.32416,-13.99544 40.8546,-11.51993 57.45482,1.7034 -17.77437,10.63775 -36.86534,25.09957 -57.45482,-1.7034 z"
           id="path3197"
           sodipodi:nodetypes="ccc"
           inkscape:connector-curvature="0" />
        <path
           style="fill:#225500;fill-opacity:1;fill-rule:evenodd;stroke:none;stroke-width:1px;marker:none;visibility:visible;display:inline;overflow:visible;enable-background:accumulate"
           d="m 90.824261,740.21366 c -3.35021,-21.94299 -0.63438,-68.60765 49.179689,-34.73466 -35.0618,-13.95905 -56.986569,8.68266 -49.179689,34.73466 z"
           id="path3205"
           sodipodi:nodetypes="ccc"
           inkscape:connector-curvature="0" />
        <path
           style="fill:#225500;fill-opacity:1;fill-rule:evenodd;stroke:none;stroke-width:1px;marker:none;visibility:visible;display:inline;overflow:visible;enable-background:accumulate"
           d="m 88.005118,742.49097 c 2.08661,-7.82862 5.19857,-35.33155 -26.42296,-42.03891 17.62866,2.49016 27.16794,24.25671 26.42296,42.03891 z"
           id="path3242"
           sodipodi:nodetypes="ccc"
           inkscape:connector-curvature="0" />
        <path
           style="fill:#002b11;fill-opacity:1;fill-rule:evenodd;stroke:none;stroke-width:1px;marker:none;visibility:visible;display:inline;overflow:visible;enable-background:accumulate"
           d="M 0,749.31642 C 198.90833,645.8258 362.67083,1038.9523 753.79551,647.23963 L 752.85715,1066.4028 0.24510402,1065.566 0,749.31642 z"
           id="path3159"
           sodipodi:nodetypes="ccccc"
           inkscape:connector-curvature="0" />
        <path
           style="fill:#225500;fill-opacity:1;fill-rule:evenodd;stroke:none;stroke-width:1px;marker:none;visibility:visible;display:inline;overflow:visible;enable-background:accumulate"
           d="m 89.588671,740.32414 c -4.61651,-21.71201 0.49753,-35.53801 -52.311099,-23.70813 33.910749,-1.8256 50.412679,-3.42216 52.311099,23.70813 z"
           id="path3207"
           sodipodi:nodetypes="ccc"
           inkscape:connector-curvature="0" />
        <path
           style="fill:#008000;fill-opacity:1;fill-rule:evenodd;stroke:none;stroke-width:1px;marker:none;visibility:visible;display:inline;overflow:visible;enable-background:accumulate"
           d="m 355.12306,405.06688 c -4.52429,-12.30699 11.53425,-31.02159 27.49421,-35.39288 -1.47586,16.08352 -1.14936,34.75466 -27.49421,35.39288 z"
           id="path3213"
           sodipodi:nodetypes="ccc"
           inkscape:connector-curvature="0" />
        <path
           style="fill:#008000;fill-opacity:1;fill-rule:evenodd;stroke:none;stroke-width:1px;marker:none;visibility:visible;display:inline;overflow:visible;enable-background:accumulate"
           d="m 360.52889,459.6634 c -1.12097,-13.06425 -23.59979,-23.20405 -39.90749,-20.39559 8.15635,13.94029 15.77758,30.98831 39.90749,20.39559 z"
           id="path3215"
           sodipodi:nodetypes="ccc"
           inkscape:connector-curvature="0" />
        <path
           style="fill:#00aa44;fill-opacity:1;fill-rule:evenodd;stroke:none;stroke-width:1px;marker:none;visibility:visible;display:inline;overflow:visible;enable-background:accumulate"
           d="m 373.42856,465.35096 c -7.83532,-14.88019 9.41197,-41.39109 28.96214,-49.6503 0.84656,20.69717 4.42255,44.37886 -28.96214,49.6503 z"
           id="path2452"
           sodipodi:nodetypes="ccc"
           inkscape:connector-curvature="0" />
        <path
           sodipodi:type="arc"
           style="fill:#ccff00;fill-opacity:1;fill-rule:evenodd;stroke:none;stroke-width:35.29999924;marker:none;visibility:visible;display:inline;overflow:visible;enable-background:accumulate"
           id="path3287"
           sodipodi:cx="52.857143"
           sodipodi:cy="102.36217"
           sodipodi:rx="152.85715"
           sodipodi:ry="151.8143"
           d="M 193.8241,43.658533 C 226.46793,120.98129 189.81793,209.94628 111.96403,242.3674 72.653003,258.7379 28.244907,258.06186 -10.542462,240.50242 L 52.857143,102.36217 z"
           transform="matrix(-0.01612091,0.6284136,-0.6284136,-0.01612091,767.43734,31.119904)"
           sodipodi:start="5.8861559"
           sodipodi:end="8.2816648" />
        <rect
           style="fill:#ccff00;fill-opacity:1;fill-rule:evenodd;stroke:none;stroke-width:35.29999924;marker:none;visibility:visible;display:inline;overflow:visible;enable-background:accumulate"
           id="rect3328"
           width="107.1428"
           height="112.85715"
           x="642.85718"
           y="10.933596" />
        <path
           style="fill:#00aa44;fill-opacity:1;fill-rule:evenodd;stroke:none;stroke-width:1px;marker:none;visibility:visible;display:inline;overflow:visible;enable-background:accumulate"
           d="m 353.78161,437.90161 c 7.83532,-14.88019 -9.41197,-41.39109 -28.96214,-49.6503 -0.84656,20.69717 -4.42255,44.37886 28.96214,49.6503 z"
           id="path2454"
           sodipodi:nodetypes="ccc"
           inkscape:connector-curvature="0" />
        <path
           style="fill:#00aa44;fill-opacity:1;fill-rule:evenodd;stroke:none;stroke-width:1px;marker:none;visibility:visible;display:inline;overflow:visible;enable-background:accumulate"
           d="m 367.73485,241.47303 c -8.19145,-11.45505 9.83977,-31.86363 30.27855,-38.22173 0.88504,15.93307 4.62357,34.16368 -30.27855,38.22173 z"
           id="path2456"
           sodipodi:nodetypes="ccc"
           inkscape:connector-curvature="0" />
        <path
           style="fill:#00aa44;fill-opacity:1;fill-rule:evenodd;stroke:none;stroke-width:1px;marker:none;visibility:visible;display:inline;overflow:visible;enable-background:accumulate"
           d="m 528.34359,513.5276 c -10.02896,-13.49934 -41.39116,-9.41165 -57.29209,4.64482 18.29604,9.71311 38.10289,23.17784 57.29209,-4.64482 z"
           id="path2458"
           sodipodi:nodetypes="ccc"
           inkscape:connector-curvature="0" />
        <path
           sodipodi:type="arc"
           style="fill:#aa4400;fill-opacity:1;fill-rule:evenodd;stroke:none;stroke-width:35.29999924;marker:none;visibility:visible;display:inline;overflow:visible;enable-background:accumulate"
           id="path3342"
           sodipodi:cx="-201.52544"
           sodipodi:cy="616.48132"
           sodipodi:rx="9.5964489"
           sodipodi:ry="10.606602"
           d="m -191.92899,616.48132 c 0,5.85787 -4.29647,10.6066 -9.59645,10.6066 -5.29997,0 -9.59645,-4.74873 -9.59645,-10.6066 0,-5.85786 4.29648,-10.6066 9.59645,-10.6066 5.29998,0 9.59645,4.74874 9.59645,10.6066 z"
           transform="matrix(0.7549993,0,0,0.7069041,216.29625,262.00546)" />
        <rect
           style="fill:none;stroke:#4d2b16;stroke-width:34.07102203;stroke-linecap:butt;stroke-linejoin:miter;stroke-miterlimit:4;stroke-opacity:1;stroke-dasharray:none;stroke-dashoffset:0;marker:none;visibility:visible;display:inline;overflow:visible;enable-background:accumulate"
           id="rect3217"
           width="727.11658"
           height="1032.6576"
           x="16.355055"
           y="17.461981" />
      </g>
    </g>
  </g>
</svg>
