<?xml version="1.0" encoding="UTF-8" standalone="no"?>
<!-- Created with Inkscape (http://www.inkscape.org/) -->

<svg
   xmlns:dc="http://purl.org/dc/elements/1.1/"
   xmlns:cc="http://creativecommons.org/ns#"
   xmlns:rdf="http://www.w3.org/1999/02/22-rdf-syntax-ns#"
   xmlns:svg="http://www.w3.org/2000/svg"
   xmlns="http://www.w3.org/2000/svg"
   xmlns:sodipodi="http://sodipodi.sourceforge.net/DTD/sodipodi-0.dtd"
   xmlns:inkscape="http://www.inkscape.org/namespaces/inkscape"
   width="494.39633"
   height="432.2869"
   id="svg43060"
   version="1.1"
   inkscape:version="0.48.3.1 r9886"
   sodipodi:docname="bam.svg">
  <defs
     id="defs43062" />
  <sodipodi:namedview
     id="base"
     pagecolor="#ffffff"
     bordercolor="#666666"
     borderopacity="1.0"
     inkscape:pageopacity="0.0"
     inkscape:pageshadow="2"
     inkscape:zoom="0.35"
     inkscape:cx="389.81773"
     inkscape:cy="-90.722931"
     inkscape:document-units="px"
     inkscape:current-layer="layer1"
     showgrid="false"
     fit-margin-top="0"
     fit-margin-left="0"
     fit-margin-right="0"
     fit-margin-bottom="0"
     inkscape:window-width="577"
     inkscape:window-height="702"
     inkscape:window-x="687"
     inkscape:window-y="48"
     inkscape:window-maximized="0" />
  <metadata
     id="metadata43065">
    <rdf:RDF>
      <cc:Work
         rdf:about="">
        <dc:format>image/svg+xml</dc:format>
        <dc:type
           rdf:resource="http://purl.org/dc/dcmitype/StillImage" />
        <dc:title></dc:title>
      </cc:Work>
    </rdf:RDF>
  </metadata>
  <g
     inkscape:label="Capa 1"
     inkscape:groupmode="layer"
     id="layer1"
     transform="translate(39.817726,-9.3523429)">
    <path
       id="path8626"
       style="fill:#9e1723;fill-opacity:1;fill-rule:nonzero;stroke:none;display:inline"
       d="m 25.146444,296.6111 c 0,0 80.726996,-55.95695 84.628216,-52.2126 3.90271,3.75155 -46.177626,39.32956 -46.177626,39.32956 l 47.136526,-33.45444 -63.220606,59.12429 71.316266,-59.89378 -55.156416,68.20388 61.631276,-62.15069 -49.008896,62.2689 43.991556,-49.37868 -48.752416,67.15291 88.413876,-99.40861 -56.57263,96.39697 60.73145,-87.74664 -36.56837,64.60763 41.88126,-58.90985 -37.01508,68.52932 41.7138,-63.26796 -21.64438,41.90509 30.44435,-41.70505 -29.09594,66.69408 37.77733,-57.15608 -4.18232,31.38243 12.1742,-26.10631 -7.34666,45.58999 15.52036,-42.5488 1.05059,93.54827 7.68839,-103.74513 18.2493,174.47189 -10.07408,-171.42315 17.54652,46.99595 -9.01137,-48.38716 L 277.0068,368.85524 241.75989,263.91137 304.4255,389.03414 251.09863,260.74439 332.17761,411.34457 260.2911,249.91861 376.55446,441.35055 260.46541,224.13661 l 86.66614,124.48024 -58.28511,-101.71743 53.53031,55.89785 -48.05946,-72.68969 67.01803,67.96141 -66.98772,-77.83093 93.83055,50.96956 -95.58092,-61.64607 91.04965,30.59665 -67.12032,-31.76736 138.05206,30.90884 -138.29454,-39.09239 68.63201,0.82972 -59.99002,-8.26691 56.12556,-5.34962 -58.84583,-4.61841 129.33808,-19.99288 -154.66165,12.62389 147.61091,-33.9807 -130.58077,20.78472 58.13735,-26.49806 -63.62337,16.42774 60.14157,-41.07691 -68.39332,34.21181 59.76649,-63.483177 -53.28026,36.109937 23.29282,-58.607147 c 0,0 -37.8982,66.480037 -45.61954,62.808797 -7.72891,-3.66744 19.80724,-83.244957 19.80724,-83.244957 0,0 -22.8647,64.570537 -30.77548,63.127047 -7.91077,-1.45864 22.77378,-92.6598371 22.77378,-92.6598371 l -36.04178,98.6686871 -1.34874,-81.990897 -12.44128,84.786947 -4.81996,-52.924117 -5.02913,46.309077 -3.45868,-61.357727 -5.16361,58.929177 -13.15052,-60.312047 2.74077,63.665037 -15.48778,-54.462327 0.73122,54.685857 -12.39012,-48.942217 c 0,0 -0.0518,46.597027 -7.25497,46.123437 -7.20304,-0.46601 -5.66826,-34.700547 -5.66826,-34.700547 0,0 -5.42237,27.19517 -9.68918,27.89229 -4.27136,0.7009 -23.30344,-58.66019 -23.30344,-58.66019 0,0 12.84743,45.03608 8.66815,46.26361 -4.18841,1.23511 -14.51106,-25.03183 -14.51106,-25.03183 l 10.10821,41.64521 -25.69218,-33.06763 16.4247,36.776747 -66.751696,-84.972597 c 0,0 60.682226,94.732247 55.779276,98.274667 -4.90029,3.54621 -28.739046,-24.899227 -28.739046,-24.899227 0,0 16.646316,24.687067 14.060926,25.653177 -2.57516,0.9699 -73.846746,-74.720417 -73.846746,-74.720417 0,0 51.0332,62.566317 47.29338,66.457297 -3.74586,3.90613 -77.3334597,-47.328237 -77.3334597,-47.328237 0,0 67.9773197,53.803097 66.1007697,55.742907 -1.8754,1.95117 -79.8154497,-30.991437 -79.8154497,-30.991437 0,0 87.8201797,41.103427 88.0747797,46.002197 0.24884,4.89119 -97.4548,5.27764 -97.4548,5.27764 0,0 93.38499,5.32689 93.80821,11.29406 0.42924,5.95582 -53.37725,12.01392 -53.37725,12.01392 0,0 55.66258,-1.42833 56.35779,2.84151 0.70166,4.27743 -45.80595,4.75859 -45.80595,4.75859 0,0 41.50543,5.80805 41.40465,8.56243 -0.0888,2.76195 -65.64465,10.7447 -65.64465,10.7447 0,0 71.13976,-3.96675 71.57658,-1.29573 0.43797,2.67103 -82.2189897,20.0232 -82.2189897,20.0232 0,0 84.5111397,-12.72619 84.9479897,-10.05517 0.43646,2.66345 -84.6581397,31.9386 -84.6581397,31.9386 0,0 86.8555797,-21.88343 87.4640397,-18.15158 0.60958,3.74322 -74.7083,35.78412 -74.7083,35.78412 0,0 77.96845,-25.90702 78.31776,-23.76641 0.34629,2.12924 -76.59354,41.02993 -76.59354,41.02993 0,0 82.00721,-38.07855 83.146836,-34.43005 1.1457,3.64699 -67.505246,36.25052 -67.505246,36.25052 0,0 68.471726,-30.38336 68.906666,-27.71952 0.43837,2.67138 -77.001956,58.64312 -77.001956,58.64312"
       inkscape:connector-curvature="0" />
    <path
       id="path8628"
       style="fill:#fff100;fill-opacity:1;fill-rule:nonzero;stroke:none;display:inline"
       d="m 268.47468,90.653713 c 0,5.68302 -4.60325,10.286267 -10.29006,10.286267 -5.68303,0 -10.28704,-4.603247 -10.28704,-10.286267 0,-5.68303 4.60401,-10.29386 10.28704,-10.29386 5.68681,0 10.29006,4.61083 10.29006,10.29386"
       inkscape:connector-curvature="0" />
    <path
       id="path8630"
       style="fill:#000000;fill-opacity:1;fill-rule:evenodd;stroke:none;display:inline"
       d="m 277.59404,192.73979 c 0.20459,-0.25763 0.40918,-0.52284 0.60241,-0.79941 7.13409,-10.2105 11.05537,-20.03077 -8.10779,-35.38631 1.05704,-3.48937 2.68615,-7.91456 4.06147,-12.54812 1.39045,-4.73585 2.59901,-9.67251 2.46643,-14.73419 -0.42815,-13.96888 -3.76216,-28.33935 -13.23766,-40.254757 -2.11408,-2.66345 -5.98233,-3.09915 -8.6382,-0.98885 -2.65777,2.11409 -3.09914,5.98612 -0.98696,8.64199 7.28755,9.145877 10.1821,20.614227 10.56855,32.988067 0.18943,3.81141 -1.61398,10.20292 -3.67503,16.22693 -0.36371,1.08735 -0.72743,2.16713 -1.08356,3.23554 -20.63772,-12.72998 -29.96737,-6.54306 -37.20563,3.8152 -0.0212,0.0303 -0.0342,0.0606 -0.0564,0.0909 -42.5621,-13.82491 -89.72364,-0.40918 -115.41431,36.36757 -31.863216,45.62106 -18.633896,109.88053 29.55173,143.53465 48.18297,33.6617 113.07442,23.96797 144.93613,-21.65157 25.12273,-35.97012 22.20545,-83.53023 -3.78113,-118.53767"
       inkscape:connector-curvature="0" />
    <path
       id="path8632"
       style="fill:#ffffff;fill-opacity:1;fill-rule:evenodd;stroke:none;display:inline"
       d="m 187.44268,168.38613 c 4.9609,9.04359 -12.48487,9.66493 -28.66215,18.54561 -16.1758,8.88825 -24.96555,22.65633 -29.92757,13.62411 -4.96394,-9.05117 4.13193,-23.56941 20.30922,-32.45766 16.17883,-8.87688 33.31996,-8.75186 38.2805,0.28794"
       inkscape:connector-curvature="0" />
    <path
       id="path8634"
       style="fill:#ffffff;fill-opacity:1;fill-rule:evenodd;stroke:none;display:inline"
       d="m 269.31198,163.57829 c -0.94717,1.5761 -6.33471,-3.3151 -13.57109,-7.67208 -7.23524,-4.36078 -13.57674,-6.54306 -12.62502,-8.11915 0.95135,-1.58367 7.5861,0.66681 14.82248,5.03137 7.23639,4.35699 12.32838,9.17619 11.37363,10.75986"
       inkscape:connector-curvature="0" />
    <path
       id="path8636"
       style="fill:#000000;fill-opacity:1;fill-rule:nonzero;stroke:none;display:inline"
       d="m 275.07836,73.994863 c -0.38645,-0.97369 0.0873,-2.06862 1.06083,-2.46264 l 0,0 c 3.81142,-1.50032 7.12651,-3.9516 9.32013,-7.08863 l 0,0 c 0.34101,-0.48874 0.65547,-1.00021 0.94717,-1.52305 l 0,0 c 0.50769,-0.92065 1.65566,-1.24647 2.57252,-0.75016 l 0,0 c 0.90931,0.51148 1.24648,1.65945 0.73879,2.56873 l 0,0 c -0.35235,0.64408 -0.73879,1.26542 -1.1593,1.86403 l 0,0 c -2.69376,3.85688 -6.62262,6.70597 -11.02507,8.45256 l 0,0 c -0.61377,0.23489 -1.28058,0.1476 -1.78447,-0.20823 l 0,0 c -0.29158,-0.20853 -0.53042,-0.49632 -0.6706,-0.85245 l 0,0"
       inkscape:connector-curvature="0" />
    <path
       id="path8638"
       style="fill:#000000;fill-opacity:1;fill-rule:nonzero;stroke:none;display:inline"
       d="m 249.00727,68.482333 c -2.0675,-5.13367 -3.21128,-10.77881 -4.31682,-15.95415 l 0,0 c -0.21338,-1.01915 0.43645,-2.02694 1.45752,-2.23911 l 0,0 c 1.02294,-0.22368 2.02767,0.42812 2.24514,1.45486 l 0,0 c 1.09987,5.19428 2.22739,10.63483 4.12324,15.32522 l 0,0 c 0.39212,0.9699 -0.077,2.07241 -1.04795,2.45886 l 0,0 c -0.61567,0.25005 -1.28436,0.15548 -1.78901,-0.20065 l 0,0 c -0.2934,-0.20853 -0.53003,-0.48874 -0.67212,-0.84488 l 0,0"
       inkscape:connector-curvature="0" />
    <path
       id="path8640"
       style="fill:#000000;fill-opacity:1;fill-rule:nonzero;stroke:none;display:inline"
       d="m 219.23089,77.044763 c 0.006,-1.03432 0.86418,-1.87919 1.91177,-1.86404 l 0,0 c 4.31719,0.0455 8.79126,1.12524 12.48522,3.69776 l 0,0 c 0,0 0.0443,0.0303 0.14337,0.11366 l 0,0 c 0.81872,0.65165 0.9502,1.8413 0.30346,2.65587 l 0,0 c -0.64217,0.80699 -1.80833,0.94717 -2.62668,0.32582 l 0,0 c -2.89647,-2.01937 -6.6302,-2.97411 -10.34957,-3.012 l 0,0 c -0.39059,0 -0.76076,-0.12488 -1.05819,-0.3334 l 0,0 c -0.49859,-0.35614 -0.81832,-0.93202 -0.80923,-1.58367 l 0,0"
       inkscape:connector-curvature="0" />
    <path
       id="path8642"
       style="fill:#000000;fill-opacity:1;fill-rule:nonzero;stroke:none;display:inline"
       d="m 233.0698,111.30582 c 0.89225,-1.3033 1.77877,-2.63313 2.6979,-3.95159 l 0,0 c 1.84246,-2.62556 3.81257,-5.2246 6.29416,-7.444767 l 0,0 c 0.77859,-0.69333 1.97278,-0.62892 2.66684,0.155487 l 0,0 c 0.69866,0.77668 0.63198,1.97769 -0.14761,2.67102 l 0,0 c -2.1209,1.89434 -3.93077,4.23954 -5.70842,6.78553 l 0,0 c -0.89074,1.28058 -1.76856,2.59904 -2.68582,3.92887 l 0.001,0 c -0.59482,0.86003 -1.76967,1.07599 -2.63425,0.48874 l 0,0 c -0.002,-0.006 -0.006,-0.006 -0.006,-0.006 l 0,0 c -0.85391,-0.59861 -1.0672,-1.76553 -0.47656,-2.62556 l 0,0"
       inkscape:connector-curvature="0" />
    <path
       id="path8644"
       style="fill:#000000;fill-opacity:1;fill-rule:nonzero;stroke:none;display:inline"
       d="m 283.5006,101.0347 c -0.15154,-0.10972 -0.31067,-0.21974 -0.46601,-0.3334 l 0.003,0 c -0.84867,-0.61377 -1.0381,-1.795837 -0.42434,-2.640717 l 0,0 c 0.61377,-0.85245 1.79584,-1.03431 2.6445,-0.42054 l 0,0 c 0.13276,0.0949 0.27279,0.19701 0.40918,0.29552 l 0,0 c 2.64071,1.8413 5.47465,3.099137 8.51696,3.803837 l 0,0 c 1.01916,0.23489 1.65187,1.25026 1.42076,2.26942 l 0,0 c -0.23854,1.01537 -1.25405,1.65186 -2.27321,1.41318 l 0,0 c -3.50074,-0.81457 -6.7969,-2.26942 -9.81648,-4.37214 l 0,0 c -0.006,-0.006 -0.006,-0.0152 -0.0152,-0.0152 l 0,0"
       inkscape:connector-curvature="0" />
    <path
       id="path8646"
       style="fill:#000000;fill-opacity:1;fill-rule:nonzero;stroke:none;display:inline"
       d="m 264.10254,65.462753 c 0.42052,-3.20144 0.48874,-6.53927 0.21611,-9.81648 l 0,0 c -0.0873,-1.04568 0.68193,-1.96254 1.72382,-2.04968 l 0,0 c 1.04189,-0.0909 1.95499,0.68575 2.04592,1.72385 l 0,0 c 0.29946,3.55 0.21974,7.14546 -0.2349,10.63105 l 0,0 c -0.12882,1.04568 -1.08356,1.76931 -2.12166,1.63671 l 0,0 c -0.30689,-0.0455 -0.59104,-0.15518 -0.8373,-0.31825 l 0,0 c -0.55709,-0.39781 -0.88671,-1.07977 -0.79199,-1.8072 l 0,0"
       inkscape:connector-curvature="0" />
    <path
       id="path8648"
       style="fill:#000000;fill-opacity:1;fill-rule:nonzero;stroke:none;display:inline"
       d="m 283.34148,84.853233 c -0.1667,-1.03052 0.53041,-2.008 1.56094,-2.17849 l 0,0 c 3.32646,-0.53799 6.77037,-1.03431 10.16503,-1.45486 l 0,0 c 1.03053,-0.12881 1.9777,0.60619 2.10651,1.64808 l 0,0 c 0.12488,1.03052 -0.60998,1.9777 -1.64429,2.1103 l 0,0 c -3.3454,0.41297 -6.74006,0.89413 -10.01349,1.43591 l 0,0 c -0.50389,0.0797 -0.99645,-0.0455 -1.38669,-0.31825 l 0,0 c -0.40914,-0.28036 -0.70087,-0.71985 -0.78801,-1.24269 l 0,0"
       inkscape:connector-curvature="0" />
    <path
       id="path8650"
       style="fill:#000000;fill-opacity:1;fill-rule:nonzero;stroke:none;display:inline"
       d="m 235.3771,72.532433 c -0.29885,-1.62913 -1.61322,-3.01958 -3.73679,-4.49338 l 0,0 c -1.32489,-0.93201 -2.8877,-1.84887 -4.45625,-2.88697 l 0.006,0 c -0.87139,-0.57588 -1.1082,-1.75037 -0.52511,-2.62556 l 0,0 c 0.577,-0.86382 1.74771,-1.10251 2.6195,-0.52663 l 0,0 c 1.44118,0.96233 3.0264,1.88677 4.52556,2.93244 l 0,0 c 2.3221,1.62535 4.6366,3.66366 5.28182,6.88025 l 0,0 c 0.20005,1.02295 -0.47055,2.01179 -1.49465,2.22017 l 0,0 c -0.52547,0.0985 -1.03885,-0.0303 -1.4503,-0.31067 l 0,0 c -0.38342,-0.26521 -0.6706,-0.68954 -0.76947,-1.18965 l 0,0"
       inkscape:connector-curvature="0" />
    <path
       id="path8652"
       style="fill:#000000;fill-opacity:1;fill-rule:nonzero;stroke:none;display:inline"
       d="m 224.61345,97.416513 c -0.71036,-0.77668 -0.65883,-1.96633 0.10184,-2.6786 l 0,0 c 2.76614,-2.55357 6.45137,-4.16755 10.25333,-4.59567 l 0,0 c 1.03583,-0.12488 1.97579,0.62134 2.08945,1.65944 l 0,0 c 0.12154,1.04189 -0.62438,1.98148 -1.66778,2.09135 l 0,0 c -3.00443,0.33341 -6.00997,1.6746 -8.10284,3.6182 l 0.003,0 c -0.66757,0.62134 -1.65454,0.6668 -2.37096,0.17064 l 0,0 c -0.10942,-0.0797 -0.21005,-0.17064 -0.30613,-0.26521 l 0,0"
       inkscape:connector-curvature="0" />
    <path
       id="path8656"
       style="fill:#231f20;fill-opacity:1;fill-rule:evenodd;stroke:none;display:inline"
       d="m 266.58034,351.25111 c 11.31301,-2.90062 15.26461,0.0815 27.10046,-3.24121 7.06968,-23.08711 -0.59862,-53.23403 10.46813,-74.41202 2.21259,24.34533 10.97582,43.45126 11.82827,68.87712 9.05117,-1.60601 18.10612,-3.21887 27.16107,-4.82487 9.07011,-25.37358 9.78239,-54.75067 25.28947,-77.0391 -0.71606,29.31796 -3.41361,51.05858 -3.12945,74.68593 11.30164,-2.70094 27.12697,-3.22605 34.64372,-7.7327 0.64029,-49.14905 7.29322,-103.10182 3.78868,-148.93353 -15.63968,2.7809 -31.27937,5.55421 -46.91906,8.33132 -10.20292,25.37281 -11.54033,54.99426 -25.35766,78.6368 -5.11472,-23.04317 -4.53126,-50.64979 -11.69188,-72.05965 -15.63968,2.7809 -31.27937,5.558 -46.92284,8.33132 -2.08378,49.79431 -4.17513,99.57985 -6.25891,149.38059"
       inkscape:connector-curvature="0" />
    <path
       id="path8658"
       style="fill:#231f20;fill-opacity:1;fill-rule:evenodd;stroke:none;display:inline"
       d="M 199.0766,222.57568 C 275.51027,171.5118 308.39604,315.62839 247.52023,352.44227 164.57,402.60559 142.68014,260.25605 199.0766,222.57568 z m 32.8816,104.55933 c 31.12519,-15.13958 9.93811,-101.82012 -22.21988,-78.69626 -23.59061,16.96763 -8.60598,93.68845 22.21988,78.69626"
       inkscape:connector-curvature="0" />
    <path
       id="path8660"
       style="fill:#f3cc35;fill-opacity:1;fill-rule:evenodd;stroke:none;display:inline"
       d="m -39.817726,285.84442 c 56.25626,-37.95352 94.09423,-33.40255 102.10654,15.62111 1.90911,11.66196 -11.02243,33.93524 9.39782,28.94024 -6.8507,-27.19402 -27.71953,-82.64065 31.758256,-94.09536 35.42419,4.73586 81.61965,104.66958 46.51064,137.42123 -19.46435,18.1588 -44.18702,10.07829 -55.505726,-6.3862 6.103196,30.25794 -25.99225,57.03751 -72.64195,74.29381 -24.5184497,-47.81734 -38.12362,-103.62656 -61.62558,-155.79483 z m 50.28302,48.73496 c 30.09048,-9.77516 20.69721,-36.80667 4.42821,-38.15316 -5.5083497,2.92295 -11.0212797,5.84554 -16.5372097,8.75373 5.23632,9.41261 2.67745,23.9604 12.1089997,29.39943 z m 115.628746,17.88526 c 15.93329,-22.41386 -6.33241,-80.91644 -33.125616,-80.44285 -14.00334,25.25536 7.355346,75.81799 33.125616,80.44285 z M 21.134224,366.6131 c 4.45625,10.82578 8.91668,21.66633 13.37445,32.49211 8.53778,-4.33613 17.06687,-8.67229 22.09863,-13.60061 5.04538,-11.78054 1.63823,-26.55792 -10.03546,-30.48715 -7.283,2.20502 -22.11797,8.11764 -25.43762,11.59565"
       inkscape:connector-curvature="0" />
    <path
       id="path8664"
       style="fill:#f3cc35;fill-opacity:1;fill-rule:evenodd;stroke:none;display:inline"
       d="m 252.85961,338.8712 c 11.30734,-2.90061 15.25894,0.0885 27.09478,-3.23362 7.07348,-23.0947 -0.59482,-53.24162 10.47193,-74.41202 2.2088,24.34493 10.97581,43.44407 11.82448,68.86954 9.05495,-1.60565 18.10991,-3.21165 27.16107,-4.82451 9.07011,-25.37394 9.78238,-54.74382 25.28947,-77.03907 -0.71228,29.31796 -3.41361,51.05818 -3.12567,74.69311 11.29786,-2.70093 27.12698,-3.22604 34.64373,-7.74028 0.64028,-49.14186 7.28942,-103.09196 3.78868,-148.92746 -15.64347,2.7809 -31.28316,5.55042 -46.92285,8.32374 -10.20292,25.38039 -11.53654,55.00411 -25.35766,78.63832 -5.11472,-23.04317 -4.53126,-50.64374 -11.68809,-72.05359 -15.63968,2.78469 -31.28316,5.55042 -46.92285,8.33511 -2.08756,49.79203 -4.17513,99.57758 -6.25702,149.37073"
       inkscape:connector-curvature="0" />
    <path
       id="path8666"
       style="fill:#231f20;fill-opacity:1;fill-rule:nonzero;stroke:none;display:inline"
       d="m 249.36114,338.72308 c 2.08074,-49.79279 4.16906,-99.57873 6.25854,-149.37795 l 0,0 0.11002,-2.80741 2.77708,-0.48496 c 15.6435,-2.78468 31.2794,-5.55799 46.9153,-8.3351 l 0,0 2.97412,-0.53042 0.95853,2.86425 c 6.33089,19.07602 6.76659,42.08849 9.92256,62.40077 l 0,0 c 9.2406,-21.06623 11.47593,-46.36706 20.56119,-69.17494 l 0,0 0.71985,-1.81099 1.91329,-0.3334 c 15.64347,-2.77332 31.28316,-5.54285 46.92285,-8.33132 l 0,0 3.80759,-0.68196 0.29158,3.86446 c 0.72746,9.55885 1.01919,19.44731 1.01919,29.55931 l 0,0 c 0,38.8431 -4.29637,80.89597 -4.79272,119.68564 l 0,0 -0.0303,1.95345 -1.67084,1.00627 c -9.10042,5.23181 -24.78557,5.43146 -35.63257,8.13242 l 0,0 -4.23575,1.00628 -0.0758,-4.34374 c -0.0212,-1.22829 -0.0212,-2.43422 -0.0212,-3.61098 l 0,0 c 0.003,-18.46226 1.66323,-35.8815 2.62932,-56.77115 l 0,0 c -8.49799,19.26924 -10.44537,42.51166 -17.97349,63.84538 l 0,0 -0.68575,1.9091 -1.99664,0.36259 c -9.05874,1.60565 -18.1099,3.21887 -27.16865,4.82451 l 0,0 -3.97054,0.69561 -0.13275,-4.0255 c -0.61756,-19.60907 -6.2627,-35.64469 -9.71419,-54.01826 l 0,0 c -3.46289,18.2406 -0.0121,41.05415 -5.7361,60.46357 l 0,0 -0.56451,1.82048 -1.84127,0.52548 c -12.8891,3.49998 -16.98846,0.51035 -27.16944,3.25563 l 0,0 -0.87024,-3.39657 0.87024,3.39657 -4.56536,1.16918 0.19822,-4.7063 0,0 z m 7.17916,-4.17325 c 8.40333,-1.34686 12.54057,0.19247 20.61426,-1.79089 l 0,0 c 5.92171,-21.49624 -1.22375,-50.7623 10.16504,-73.16894 l 0,0 5.50874,-10.52991 1.08354,11.84722 c 1.97769,22.39148 10.01349,40.83934 11.62747,65.04372 l 0,0 c 7.07729,-1.25784 14.15831,-2.50847 21.24315,-3.76631 l 0,0 c 8.28206,-24.21196 9.24063,-53.034 25.05077,-75.95135 l 0,0 6.63778,-9.53081 -0.26885,11.6104 c -0.68196,27.71195 -3.10293,48.57926 -3.14839,70.31985 l 0,0 c 10.03243,-1.86479 21.69779,-2.90819 27.69527,-5.572 l 0,0 c 0.63271,-38.61957 4.76996,-79.84348 4.76996,-117.51739 l 0,0 c 0,-8.6041 -0.21581,-17.02635 -0.73501,-25.16444 l 0,0 c -13.7264,2.43991 -27.44143,4.86846 -41.16405,7.30458 l 0,0 c -9.3391,24.23242 -10.88489,53.19691 -24.87271,77.29637 l 0,0 -4.50095,7.71072 -1.93223,-8.717 c -4.9556,-22.53964 -4.71312,-48.64785 -10.68788,-68.82638 l 0,0 c -13.71124,2.43612 -27.4187,4.86846 -41.12992,7.297 l 0,0 c -1.98906,47.37371 -3.97433,94.73944 -5.95581,142.10556 l 0,0"
       inkscape:connector-curvature="0" />
    <path
       id="path8668"
       style="fill:#f3cc35;fill-opacity:1;fill-rule:evenodd;stroke:none;display:inline"
       d="m 185.35169,210.20562 c 76.43218,-51.07524 109.31795,93.05044 48.44326,129.86432 -82.94717,50.16293 -104.84009,-92.1938 -48.44326,-129.86432 z m 32.88465,104.54985 c 31.12328,-15.13276 9.93469,-101.81442 -22.22178,-78.68941 -23.59022,16.96042 -8.60598,93.68124 22.22178,78.68941"
       inkscape:connector-curvature="0" />
    <path
       id="path8670"
       style="fill:#231f20;fill-opacity:1;fill-rule:nonzero;stroke:none;display:inline"
       d="m 163.07538,331.0794 c -8.37945,-13.66009 -12.54433,-31.58247 -12.55155,-49.85981 l 0,0 c 0.0397,-28.71862 10.27228,-58.72348 32.88314,-73.93125 l 0,0 c 11.70628,-7.82742 22.72301,-11.42667 32.79712,-11.42667 l 0,0 c 16.89829,-0.0121 30.33639,10.15367 39.1428,24.58477 l 0,0 c 8.8731,14.46519 13.5597,33.38664 13.57486,52.4335 l 0,0 c -0.006,27.66039 -9.9794,55.97929 -33.31848,70.17967 l 0,0 c -12.58522,7.60692 -24.06835,11.07735 -34.36448,11.07735 l 0,0 c -0.0427,0.009 -0.0824,0.009 -0.12578,0.009 l 0,0 c -16.74256,-0.009 -29.73966,-9.45695 -38.03763,-23.06515 l 0,0 z m -5.55421,-49.85981 c -0.0152,17.21918 4.00464,34.01668 11.51381,46.19691 l 0,0 c 7.58191,12.19465 18.13985,19.69055 32.20381,19.72767 l 0,0 c 8.68897,0 18.94645,-2.94492 30.74632,-10.07108 l 0,0 c 20.38767,-12.2613 29.94652,-38.06451 29.93894,-64.19315 l 0,0 c 0.006,-17.87768 -4.50475,-35.71101 -12.54206,-48.77364 l 0,0 c -8.09681,-13.09747 -19.26473,-21.22041 -33.1779,-21.25072 l 0,0 c -8.38248,0 -18.03604,2.98927 -28.91069,10.25596 l 0,0 c -19.78565,13.08991 -29.81391,40.94355 -29.77223,68.10805 l 0,0 z m 30.80085,21.29656 c -4.80405,-9.89341 -7.37466,-22.43619 -7.39248,-34.40883 l 0,0 c 0.0724,-14.1708 3.47649,-27.83052 13.02816,-34.88277 l 0,0 c 4.19559,-3.04877 8.5556,-4.5794 12.77317,-4.57182 l 0,0 c 9.95742,0.10972 17.38057,7.88691 22.35778,17.69921 l 0,0 c 5.01697,9.9453 7.85849,22.59156 7.87476,34.7195 l 0,0 c -0.0327,15.33999 -4.54187,30.50951 -17.19683,36.82864 l 0,0 -1.52912,-3.13739 1.51436,3.14497 c -3.12,1.50223 -6.24718,2.26451 -9.29289,2.26451 l 0,0 c -10.06805,-0.0961 -17.38778,-7.88843 -22.13691,-17.65602 l 0,0 z m 18.40885,-66.86421 c -2.53197,0.006 -5.37348,0.87291 -8.67382,3.24842 l 0,0 c -6.47334,4.46195 -10.20141,16.12388 -10.13018,29.20696 l 0,0 c -0.006,10.94399 2.45204,22.6874 6.68627,31.3453 l 0,0 c 4.29031,8.79086 9.98091,13.81542 15.84579,13.7264 l 0,0 c 1.87501,-0.006 3.93226,-0.45843 6.26042,-1.57609 l 0,0 c 8.76702,-4.11415 13.27061,-16.33872 13.24827,-30.53149 l 0,0 c 0.006,-11.01067 -2.68314,-22.82834 -7.12272,-31.55974 l 0,0 c -4.42367,-8.76889 -10.28134,-13.86734 -15.93333,-13.86734 l 0,0 c -0.0576,0 -0.11972,0 -0.18064,0.009 l 0,0"
       inkscape:connector-curvature="0" />
    <path
       id="path8672"
       style="fill:#070002;fill-opacity:1;fill-rule:nonzero;stroke:none;display:inline"
       d="m -28.610046,289.54445 c 0,-0.96954 0.78311,-1.7538 1.75377,-1.7538 l 0,0 c 0.38645,0 0.77404,0 1.16919,0.006 l 0,0 c 0.96196,0 1.74507,0.78462 1.74507,1.74658 l 0,0 c 0,0.96193 -0.78311,1.74619 -1.74507,1.74619 l 0,0 c -0.39515,0 -0.78274,0 -1.16919,0 l 0,0.006 c -0.97066,0 -1.75377,-0.79183 -1.75377,-1.75377 l 0,0"
       inkscape:connector-curvature="0" />
    <path
       id="path8674"
       style="fill:#070002;fill-opacity:1;fill-rule:nonzero;stroke:none;display:inline"
       d="m -28.229656,324.59696 c -0.26945,-0.31067 -0.80057,-0.49556 -0.92635,-1.73143 l 0,0 c 0.18943,-1.6799 1.38514,-1.83524 1.60564,-1.92389 l 0,0 c 0.39518,-0.0964 0.69561,-0.11851 1.00364,-0.15519 l 0,0 c 0.0212,0 0.0397,-0.006 0.0606,-0.006 l 0,0 c 1.00779,-0.73991 2.07771,-1.6352 3.42609,-2.41982 l 0,0 c 0.83921,-0.4808 1.9061,-0.19974 2.38878,0.64408 l 0,0 c 0.47359,0.83615 0.19065,1.9091 -0.64674,2.38269 l 0,0 c -0.48571,0.26642 -0.96496,0.60658 -1.4681,0.98393 l 0,0 c -0.0624,0.6365 -0.47359,1.2135 -1.10442,1.45789 l 0,0 c -0.4497,0.16125 -0.91722,0.2646 -1.33777,0.33134 l 0,0 c -0.33455,0.21459 -0.68348,0.42928 -1.05819,0.6365 l 0,0 c -0.26036,0.14064 -0.54442,0.20702 -0.82857,0.20702 l 0,0 c -0.39972,0 -0.79487,-0.14064 -1.11463,-0.40691 l 0,0"
       inkscape:connector-curvature="0" />
    <path
       id="path8676"
       style="fill:#070002;fill-opacity:1;fill-rule:nonzero;stroke:none;display:inline"
       d="m -20.119236,334.66086 c -1.26845,-0.0594 -2.66684,-0.88049 -3.02373,-1.95384 l 0,0 c -0.32395,-0.92481 -0.26036,-1.02825 -0.4808,-1.33171 l 0,0.006 c -0.55503,-0.79144 -0.36408,-1.88676 0.42624,-2.449 l 0,0 c 0.78274,-0.55503 1.875,-0.37014 2.43573,0.42169 l 0,0 c 0.33152,0.47359 0.52853,0.93959 0.65129,1.30973 l 0,0 c 1.38514,-1.33928 3.08702,-2.86385 3.40678,-3.49998 l 0,0 c 0.47359,-0.83615 1.55109,-1.12485 2.37966,-0.64408 l 0,0 c 0.83921,0.48229 1.12487,1.55524 0.64977,2.39142 l 0,0 c -1.19571,1.93865 -3.8834,3.98115 -4.90446,5.17989 l 0,0 c -0.33301,0.37735 -0.80963,0.59179 -1.30367,0.59179 l 0,0 c -0.08,-0.006 -0.15973,-0.006 -0.23672,-0.0212 l 0,0"
       inkscape:connector-curvature="0" />
    <path
       id="path8678"
       style="fill:#070002;fill-opacity:1;fill-rule:nonzero;stroke:none;display:inline"
       d="m -21.109596,346.76682 c -0.6793,-0.6956 -0.66454,-1.79811 0.0242,-2.47892 l 0,0 c 2.85631,-2.7972 5.13558,-6.21571 6.59913,-9.8934 l 0,0 c 0.35653,-0.89565 1.37796,-1.33968 2.2717,-0.97709 l 0,0 c 0.89225,0.35538 1.33628,1.36923 0.97975,2.26448 l 0,0 c -1.65299,4.15128 -4.19292,7.95472 -7.39702,11.10691 l 0,0 c -0.33871,0.33304 -0.78123,0.50353 -1.22072,0.50353 l 0,0 c -0.45579,0 -0.91043,-0.17762 -1.25672,-0.52551 l 0,0"
       inkscape:connector-curvature="0" />
    <path
       id="path8680"
       style="fill:#070002;fill-opacity:1;fill-rule:nonzero;stroke:none;display:inline"
       d="m -16.862086,347.22565 c -0.29279,-0.9252 0.22216,-1.90914 1.14721,-2.19026 l 0,0 c 0.19065,0.0515 3.82845,-2.56797 5.01697,-4.11451 l 0,0 c 0.61716,-0.74749 1.7166403,-0.84336 2.4596203,-0.22217 l 0,0 c 0.73688,0.60695 0.84069,1.71667 0.22186,2.45698 l 0,0 c -1.93868,2.19744 -4.8112603,4.52102 -6.6540803,5.21662 l 0,0.006 c -0.17307,0.0515 -0.3478,0.0815 -0.51941,0.0815 l 0,0 c -0.74865,0 -1.44122,-0.48116 -1.67233,-1.23587 l 0,0"
       inkscape:connector-curvature="0" />
    <path
       id="path8682"
       style="fill:#070002;fill-opacity:1;fill-rule:nonzero;stroke:none;display:inline"
       d="m 89.767384,273.32397 c -0.51223,0.0303 -1.03319,-0.15518 -1.40181,-0.56224 l 0,0 c -0.63917,-0.6956 -0.6081,-1.76855 0.0636,-2.42703 l 0,0 c 0.0309,-0.0303 0.0621,-0.0594 0.0961,-0.0891 l -0.002,0 c 0.003,-0.006 0.0121,-0.0152 0.0182,-0.0152 l 0,0 c 0.44252,-0.42927 0.882,-0.76228 1.31731,-1.02107 l 0,0 c 3.51477,-2.41981 6.26005,-1.85 9.94984,-2.22017 l 0,0 c 0.0958,-0.0212 0.198216,-0.0367 0.312186,-0.0443 l 0,0 c 1.12751,0.0667 1.44273,0.76229 1.53896,0.91044 l 0,0 c 0.12578,0.23672 0.14064,0.34022 0.16458,0.42888 l 0,0 c 0.0397,0.15579 0.0397,0.22186 0.0473,0.28854 l 0,0 c 0.0152,0.12579 0.0152,0.20732 0.0243,0.31068 l 0,0 c 0.006,0.20004 0.006,0.42924 0.006,0.68838 l 0,0 c -0.0403,1.11009 0.0382,1.91632 -0.157,2.88586 l 0,0 c -0.22944,0.0151 0.36977,0.73991 -1.69163,1.25784 l 0,0 c -0.716456,-0.0739 -1.108566,-0.34022 -1.330586,-0.59937 l 0,0 c -1.03582,-0.88049 -1.50374,-0.95438 -1.8663,-0.96914 l 0,0 c -0.70282,-0.16307 -2.46986,1.2135 -5.7141,1.63519 l 0,0.006 c -0.0636,0 -0.12578,0.006 -0.18792,0.006 l 0,0 c -0.45427,0 -0.87594,-0.17762 -1.18964,-0.47359 l 0,0"
       inkscape:connector-curvature="0" />
    <path
       id="path8684"
       style="fill:#070002;fill-opacity:1;fill-rule:nonzero;stroke:none;display:inline"
       d="m 122.06288,357.62216 c -5.31174,-0.16246 -8.7511,-3.69245 -11.46835,-7.77702 l 0,0 c -0.79602,-0.60695 -1.53896,-1.25066 -2.20804,-1.91671 l 0,0.0152 c -0.5831,-0.5918 -0.66605,-1.48708 -0.24854,-2.16071 l 0,0 c -0.80511,-1.41317 -1.57043,-2.7824 -2.33989,-4.0107 l 0,0 c -0.49859,-0.82857 -0.23823,-1.90152 0.58458,-2.40466 l 0,0 c 0.83314,-0.49595 1.90913,-0.23672 2.40657,0.59179 l 0,0 c 1.456,2.50129 2.91692,5.17232 4.47368,7.51827 l 0,0 c 2.71724,1.9091 6.18201,3.35941 8.72306,3.32228 l 0,0 c 1.74774,-0.0367 2.85479,-0.52511 3.67163,-1.72385 l 0,0 c 0.43531,-0.66605 1.25784,-0.95475 2.0114,-0.71036 l 0,0 c 0.74297,0.23671 1.24005,0.96193 1.20177,1.7534 l 0,0 c -0.009,0.11093 -0.009,0.18519 -0.009,0.24429 l 0,0 c -0.009,0.65099 0.11851,1.53148 0.11851,2.54533 l 0,0 c 0,0.73992 -0.0727,1.56852 -0.40424,2.41946 l 0,0 c -0.16549,0.42205 -0.48232,0.75506 -0.89528,0.94717 l 0,0 c -1.96103,0.9104 -3.81975,1.34686 -5.57201,1.34686 l 0,0 c -0.0152,0 -0.0312,0 -0.0473,0 l 0,0"
       inkscape:connector-curvature="0" />
    <path
       id="path8686"
       style="fill:#070002;fill-opacity:1;fill-rule:nonzero;stroke:none;display:inline"
       d="m -0.56771571,322.95419 c -0.90852999,-0.006 -1.66059999,-0.71037 -1.72272999,-1.61323 l 0,0 c -0.28279,-4.04025 -1.75074,-8.05095 -2.93623,-12.29806 l 0,0 c -0.21763,-0.26673 -0.44707,-0.5183 -0.685,-0.74031 l 0,0 c -0.67059,-0.65848 -0.70924,-1.70906 -0.10941,-2.39748 l 0,0 c -0.15428,-0.68803 -0.29158,-1.39121 -0.40576,-2.09399 l 0,0 c -0.14942,-0.94717 0.50617,-1.85003 1.45637,-1.99815 l 0,0 c 0.95587,-0.15519 1.85,0.49592 2.00685,1.45067 l 0,0 c 0.21308,1.39842 0.54748,2.79681 0.93808,4.22514 l 0,0 c 2.31906999,3.24123 3.30337,7.56261 3.32419,11.65475 l 0,0 c 0,0.74713 -0.0309,1.49465 -0.10366,2.22738 l 0,0 c -0.084,0.90246 -0.83614001,1.58328 -1.73142001,1.58328 l 0,0 c -0.009,0 -0.0212,0 -0.0312,0 l 0,0"
       inkscape:connector-curvature="0" />
    <path
       id="path8688"
       style="fill:#070002;fill-opacity:1;fill-rule:nonzero;stroke:none;display:inline"
       d="m 179.43492,304.65448 c -0.6172,-0.73995 -0.51375,-1.84964 0.23671,-2.4638 l 0,0 c 2.93017,-2.42739 6.49532,-4.24029 10.07523,-5.02455 l 0,0 c 0.93999,-0.20732 1.8724,0.38457 2.07811,1.33174 l 0,0 c 0.20429,0.93996 -0.38796,1.87237 -1.32755,2.07959 l 0,0 c -2.93926,0.64371 -6.08423,2.21981 -8.58971,4.31419 l 0,0 c -0.32849,0.27339 -0.72212,0.39933 -1.11463,0.39933 l 0,0 c -0.50883,0 -1.01197,-0.21459 -1.35826,-0.6365 l 0,0"
       inkscape:connector-curvature="0" />
    <path
       id="path8690"
       style="fill:#070002;fill-opacity:1;fill-rule:nonzero;stroke:none;display:inline"
       d="m 180.52112,310.38221 c -0.55352,-0.79941 -0.36408,-1.88716 0.42775,-2.44218 l 0,0 c 2.25842,-1.59807 4.81997,-3.29276 7.06363,-4.71352 l 0.009,0 c 0.81229,-0.51071 1.88828,-0.274 2.40924,0.54027 l 0,0 c 0.51486,0.81381 0.27096,1.89434 -0.5433,2.41945 l 0,0 c -2.19744,1.38402 -4.72676,3.06353 -6.92459,4.61765 l 0,0 c -0.30652,0.21429 -0.65999,0.31825 -1.01234,0.31825 l 0,0 c -0.54899,0 -1.09078,-0.25915 -1.42948,-0.73992 l 0,0"
       inkscape:connector-curvature="0" />
    <path
       id="path8692"
       style="fill:#070002;fill-opacity:1;fill-rule:nonzero;stroke:none;display:inline"
       d="m 185.1384,316.14668 c -0.5149,-0.82139 -0.26945,-1.9095 0.54481,-2.41982 l 0,0 c 2.29367,-1.48744 3.07526,-2.82675 3.09005,-4.3585 l 0,0 c 0,-0.99151 -0.36256,-2.23496 -1.3037,-3.73679 l 0,0 c -0.51523,-0.82139 -0.26793,-1.89435 0.55315,-2.41264 l 0,0 c 0.8229,-0.51032 1.89737,-0.26642 2.40963,0.55506 l 0,0 c 1.17222,1.87955 1.83676,3.73716 1.83676,5.59437 l 0,0 c 0.0152,3.0264 -1.86785,5.54966 -4.7124,7.31822 l 0,0 c -0.29006,0.17762 -0.61716,0.26642 -0.93692,0.26642 l 0,0 c -0.57855,0 -1.14685,-0.28097 -1.48138,-0.80623 l 0,0"
       inkscape:connector-curvature="0" />
    <path
       id="path8694"
       style="fill:#070002;fill-opacity:1;fill-rule:nonzero;stroke:none;display:inline"
       d="m 191.86483,316.36833 c 0,-0.39214 0,-0.77668 0,-1.16161 l 0.009,0 c 0,-0.96196 0.78274,-1.74622 1.74622,-1.74622 l 0,0 c 0.96345,0 1.74619,0.78426 1.74619,1.74622 l 0,0 c 0,0.38493 0,0.76947 0,1.16161 l 0,0 c 0,0.96951 -0.78274,1.75377 -1.74619,1.75377 l 0,0 c -0.97217,0 -1.75531,-0.78426 -1.75531,-1.75377 l 0,0"
       inkscape:connector-curvature="0" />
    <path
       id="path8696"
       style="fill:#070002;fill-opacity:1;fill-rule:nonzero;stroke:none;display:inline"
       d="m 244.81926,307.61456 c -0.96344,-0.0667 -1.69014,-0.91004 -1.61928,-1.87197 l 0,0 c 0.15124,-3.12303 1.45485,-6.48244 4.96242,-6.59346 l 0,0 c 0.6956,0 1.3912,0.16306 2.07923,0.42206 l 0,0 c 0.90134,0.34743 1.35144,1.36129 1.00363,2.26411 l 0,0 c -0.3478,0.89529 -1.36013,1.3469 -2.25996,0.9991 l 0,0 c -0.37166,-0.14064 -0.64105,-0.17762 -0.8229,-0.17762 l 0,0 c -0.46637,-0.0373 -1.19307,0.47359 -1.46965,3.33747 l 0,0 c -0.0682,0.9248 -0.83311,1.62798 -1.74204,1.62798 l 0,0 c -0.0442,0 -0.087,0 -0.13154,-0.006 l 0,0"
       inkscape:connector-curvature="0" />
    <path
       id="path8698"
       style="fill:#070002;fill-opacity:1;fill-rule:nonzero;stroke:none;display:inline"
       d="m 226.86733,323.36867 c 0,-0.96951 0.78274,-1.74619 1.74773,-1.74619 l 0,0 c 0.38796,0 0.77556,0 1.16919,0 l 0,0 c 0.9589,0 1.74204,0.77668 1.74204,1.74619 l 0,0 c 0,0.96196 -0.78314,1.74622 -1.74204,1.74622 l 0,0 c -0.39363,0 -0.78123,0 -1.16919,0.006 l 0,0 c -0.96499,0 -1.74773,-0.79184 -1.74773,-1.7538 l 0,0"
       inkscape:connector-curvature="0" />
    <path
       id="path8700"
       style="fill:#070002;fill-opacity:1;fill-rule:nonzero;stroke:none;display:inline"
       d="m 369.06803,193.15655 c -0.89035,-0.39403 -1.29195,-1.42076 -0.9055,-2.30352 l 0,0 c 1.6064,-3.67124 2.39821,-8.1381 2.39821,-12.6239 l 0,0 c 0,-0.0455 0,-0.0873 0,-0.13275 l 0,0 c -0.0152,-0.006 -0.034,-0.006 -0.053,-0.0152 l 0,0 c -0.93581,-0.22732 -1.50411,-1.18207 -1.27676,-2.11787 l 0,0 c 0.0797,-0.3031 0.0873,-0.55315 0.0949,-0.90171 l 0,0 c 0,-0.20853 -0.0152,-0.45843 -0.0152,-0.78426 l 0,0 c -0.0418,-0.84487 0.20459,-2.23532 1.18965,-3.33025 l 0,0 c 0.43949,-0.52284 1.14797,-0.74637 1.81099,-0.56072 l 0,0 c 0.66302,0.18549 1.15176,0.73121 1.25784,1.42075 l 0,0 c 0.3258,2.09893 0.48874,4.26227 0.48874,6.42182 l 0,0 c 0,4.88361 -0.84111,9.79754 -2.68238,14.02192 l 0,0 c -0.29552,0.65923 -0.93581,1.05325 -1.60641,1.05325 l 0,0 c -0.23489,0 -0.47358,-0.053 -0.7009,-0.14791 l 0,0"
       inkscape:connector-curvature="0" />
    <path
       id="path8702"
       style="fill:#070002;fill-opacity:1;fill-rule:nonzero;stroke:none;display:inline"
       d="m 359.85395,221.88235 c 0,-0.96991 0.78044,-1.74659 1.75034,-1.74659 l 0,0 c 0.38644,0 0.77289,0 1.15934,0 l 0,0 c 0.9699,0 1.75037,0.77668 1.75037,1.74659 l 0,0 c 0,0.95853 -0.78047,1.74658 -1.75037,1.74658 l 0,0 c -0.38645,0 -0.7729,0 -1.15934,0 l 0,0.003 c -0.9699,0 -1.75034,-0.79183 -1.75034,-1.75037 l 0,0"
       inkscape:connector-curvature="0" />
    <path
       id="path8704"
       style="fill:#070002;fill-opacity:1;fill-rule:nonzero;stroke:none;display:inline"
       d="m 362.18778,310.53755 c 0,-0.38493 0,-0.77708 0,-1.16919 l 0,0 c 0,-0.96196 0.78046,-1.74622 1.74655,-1.74622 l 0,0 c 0.96232,0 1.74658,0.78426 1.74658,1.74622 l 0,0 c 0,0.39211 0,0.78426 0,1.16919 l 0.006,0 c 0,0.96914 -0.79183,1.75376 -1.75416,1.75376 l 0,0 c -0.96611,0 -1.74658,-0.78462 -1.74658,-1.75376 l 0,0"
       inkscape:connector-curvature="0" />
    <path
       id="path8706"
       style="fill:#070002;fill-opacity:1;fill-rule:nonzero;stroke:none;display:inline"
       d="m 371.51552,312.86835 c 0,-0.96197 0.78425,-1.74622 1.75416,-1.74622 l 0,0 c 0.38644,0 0.77289,0 1.15933,0 l 0,0 c 0.96612,0 1.74659,0.78425 1.74659,1.74622 l 0,0 c 0,0.96193 -0.78047,1.74658 -1.74659,1.74658 l 0,0 c -0.38644,0 -0.77289,0 -1.15933,0.006 l 0,0 c -0.96991,0 -1.75416,-0.79183 -1.75416,-1.75377 l 0,0"
       inkscape:connector-curvature="0" />
    <path
       id="path8708"
       style="fill:#070002;fill-opacity:1;fill-rule:nonzero;stroke:none;display:inline"
       d="m 312.01045,299.46019 0,-0.006 c -0.0797,-0.30349 -0.0721,-0.61416 0.0121,-0.90286 l 0,0 c 0.0303,-0.17003 0.0418,-0.0591 0.0909,-0.31825 l 0,0 c 0.053,-0.20731 0.13276,-0.48834 0.2349,-0.82857 l 0,0 c 0.19701,-0.68084 0.45843,-1.58367 0.74258,-2.54563 l 0,0 c 0.18186,-0.59937 0.3675,-1.22108 0.54557,-1.81287 l 0,0 c -0.006,-0.006 -0.0151,-0.0151 -0.0212,-0.0212 l 0,0 c -0.56451,-0.6509 -0.56072,-1.60565 -0.0303,-2.24933 l 0,0 c 0.0121,-0.0591 0.0212,-0.14064 0.0303,-0.23672 l 0,0 c 0.0949,-0.4069 -0.0797,-0.58458 0.29158,-1.59843 l 0,0 c 0.0873,-0.28885 0.69712,-1.08017 1.6746,-1.07295 l 0,0 c 1.25784,0.14063 1.35256,0.64368 1.6064,0.84372 l 0,0 c 0.21217,0.26642 0.37887,0.52511 0.58346,0.88049 l 0,0 c 0.24641,0.42927 0.29946,0.94717 0.14761,1.42076 l 0,0 c -0.45086,1.39842 -1.99664,6.62262 -2.40582,8.04337 l 0,0 c -0.0151,0.15579 -0.053,0.31107 -0.11366,0.45883 l 0,0 c -0.0151,0.0303 -0.0212,0.0443 -0.0303,0.0594 l 0,0 c 0,0.006 0,0.0151 -0.003,0.0212 l 0,0 c -0.003,0.0212 0.0121,0.0152 -0.0606,0.15519 l 0,0 c -0.0491,0.11093 -0.10972,0.21489 -0.17822,0.31106 l -0.003,0 0,0 c -0.0491,0.0664 -0.10214,0.13306 -0.15912,0.19216 l 0,0 c -0.0643,0.0815 -0.15913,0.17762 -0.33341,0.26673 l 0,0 c -0.20822,0.13306 -0.44706,0.22156 -0.70848,0.25157 l 0,0 c -0.0718,0.006 -0.14397,0.0151 -0.21611,0.0151 l 0,0 c -0.79183,0 -1.49653,-0.54784 -1.69354,-1.32452 l 0,0"
       inkscape:connector-curvature="0" />
    <path
       id="path8710"
       style="fill:#070002;fill-opacity:1;fill-rule:nonzero;stroke:none;display:inline"
       d="m 312.02181,307.03756 c 0,-0.38493 0,-0.77707 0,-1.16919 l 0.006,0 c 0,-0.96196 0.78046,-1.74658 1.74655,-1.74658 l 0,0 c 0.96232,0 1.74658,0.78462 1.74658,1.74658 l 0,0 c 0,0.39212 0,0.78426 0,1.16919 l 0,0 c 0,0.96915 -0.78426,1.7534 -1.74658,1.7534 l 0,0 c -0.97366,0 -1.75416,-0.78425 -1.75416,-1.7534 l 0,0"
       inkscape:connector-curvature="0" />
    <path
       id="path8712"
       style="fill:#070002;fill-opacity:1;fill-rule:nonzero;stroke:none;display:inline"
       d="m 271.92238,208.88716 c -0.59103,-0.59103 -0.74637,-1.36014 -0.74258,-1.9398 l 0,0 c 0,-0.16307 0.006,-0.29552 0.0273,-0.42813 l 0,0.006 c 0.10972,-0.96233 0.97748,-1.65945 1.93599,-1.54579 l 0,0 c 0.7123,0.0797 1.2806,0.58346 1.47383,1.22754 l 0,0 c 0.68954,0.2161 1.2048,0.8373 1.2389,1.59882 l 0,0 c 0.0379,0.9699 -0.71231,1.78068 -1.67084,1.81857 l 0,0 c -0.1364,0.009 -0.24612,0.009 -0.31822,0.009 l 0,0 c -0.0121,0 -0.0273,0 -0.0379,0 l 0,0 c -0.57588,0 -1.32225,-0.17064 -1.90571,-0.74637 l 0,0"
       inkscape:connector-curvature="0" />
    <path
       id="path8714"
       style="fill:#070002;fill-opacity:1;fill-rule:nonzero;stroke:none;display:inline"
       d="m 264.37533,220.13576 c -1.21241,0.0342 -2.49675,-0.5342 -3.19007,-1.53441 l 0,0 c -0.69336,-0.97369 -0.8828,-2.08378 -0.89038,-3.23175 l 0,0 c 0,-1.01537 0.16671,-2.09514 0.4471,-3.24311 l 0,0.006 c 0.23096,-0.93959 1.18204,-1.51547 2.12163,-1.28815 l 0,0 c 0.93584,0.23095 1.50414,1.18585 1.27682,2.12545 l 0,0 c -0.23884,0.94717 -0.3448,1.77689 -0.3448,2.39823 l 0,0 c 0.22732,1.56094 0.053,1.13282 0.57967,1.273 l 0,0 c 0.17064,0 0.23884,0 0.26157,0 l 0,0 c 0.9699,-0.0833 1.80341,0.6365 1.88297,1.59883 l 0,0 c 0.0721,0.9699 -0.64786,1.80341 -1.6064,1.88676 l 0,0 c -0.12487,0.006 -0.2349,0.006 -0.3258,0.006 l 0,0 c -0.0909,0 -0.16276,0 -0.21216,0 l 0,0"
       inkscape:connector-curvature="0" />
    <path
       id="path8716"
       style="fill:#070002;fill-opacity:1;fill-rule:nonzero;stroke:none;display:inline"
       d="m 266.55761,251.53183 c -0.33719,-0.26642 -1.26163,-0.0212 -1.6405,-1.94623 l 0,0 c 0.30688,-1.77614 1.14418,-1.6352 1.37908,-1.87201 l 0,0 c 0.35614,-0.14821 0.67439,-0.23671 1.01158,-0.32582 l 0,0 c 0.66302,-0.16307 1.37908,-0.28855 1.72006,-0.37736 l 0,0 c 0.93959,-0.22914 1.88676,0.3478 2.11409,1.2874 l 0,0 c 0.22732,0.93999 -0.34856,1.88716 -1.28437,2.11636 l 0,0 c -0.3334,0.0743 -0.78426,0.17034 -1.18964,0.25914 l 0,0 c -0.3031,0.58461 -0.90553,0.94717 -1.55336,0.94717 l 0,0 c -0.1858,0 -0.3713,-0.0303 -0.55694,-0.0885 l 0,0"
       inkscape:connector-curvature="0" />
    <path
       id="path8718"
       style="fill:#070002;fill-opacity:1;fill-rule:nonzero;stroke:none;display:inline"
       d="m 263.32965,262.52774 c -0.54557,-0.79905 -0.33719,-1.89434 0.46601,-2.42703 l 0,0 c 2.67481,-1.8129 5.47843,-3.41891 8.39951,-4.79496 l 0,0 c 0.87519,-0.42206 1.91329,-0.0518 2.32625,0.82139 l 0,0 c 0.41676,0.87291 0.0418,1.91631 -0.82972,2.3308 l 0,0 c -2.76195,1.30215 -5.40645,2.81914 -7.92971,4.53617 l 0,0 c -0.3031,0.20702 -0.64408,0.3031 -0.98506,0.3031 l 0,0 c -0.56073,0 -1.11388,-0.26642 -1.44728,-0.76947 l 0,0"
       inkscape:connector-curvature="0" />
    <path
       id="path8720"
       style="fill:#070002;fill-opacity:1;fill-rule:nonzero;stroke:none;display:inline"
       d="m 265.36417,268.6548 c -0.0646,-0.96954 0.66681,-1.80569 1.6405,-1.85721 l 0,0 c 2.22396,-0.14064 4.23575,-0.81421 6.14904,-2.05726 l 0,0 c 0.81078,-0.5255 1.89434,-0.29582 2.42475,0.5179 l 0,0 c 0.51905,0.80663 0.29946,1.88716 -0.51526,2.41227 l 0,0 c -2.38308,1.55412 -5.02758,2.44937 -7.84636,2.6195 l 0.006,0 c -0.0379,0.009 -0.0758,0.009 -0.11366,0.009 l 0,0 c -0.92065,0 -1.69733,-0.72515 -1.74658,-1.64277 l 0,0"
       inkscape:connector-curvature="0" />
    <path
       id="path8722"
       style="fill:#070002;fill-opacity:1;fill-rule:nonzero;stroke:none;display:inline"
       d="m 190.40997,225.92866 c -1.59236,-0.82214 -1.89852,-2.55357 -1.84396,-3.40224 l 0,0 c 0,-0.39402 0.0242,-0.71985 0.04,-0.9358 l 0,0 c -0.29492,-0.50011 -0.33035,-1.14418 -0.04,-1.69354 l 0,0 c 0.44858,-0.84867 1.51399,-1.18207 2.37247,-0.73122 l 0,0 c 0.23672,0.14761 0.42473,0.31067 0.57552,0.47359 l 0,0 c 0.48834,-0.33341 1.07901,-0.56452 1.75679,-0.57967 l 0,0 c 0.58461,-0.0567 1.16049,0.17822 1.53027,0.6365 l 0,0 c 0.37014,0.46222 0.48835,1.06841 0.30649,1.63671 l 0,0 c -0.65884,2.1103 -1.45031,2.69375 -2.09439,3.53105 l 0,0 c -0.0664,0.12488 -0.15094,0.25005 -0.25884,0.3675 l 0,0 c -0.0212,0.0303 -0.0385,0.0682 -0.0591,0.0985 l 0,0 c -0.32886,0.51526 -0.89413,0.79941 -1.46962,0.79941 l 0,0 c -0.27854,0 -0.55809,-0.0606 -0.81572,-0.20095 l 0,0 z m -1.10402,-3.66366 c -0.002,-0.006 -0.003,-0.006 -0.003,-0.006 l -0.001,0 -0.003,0.006 0.006,0 0,0"
       inkscape:connector-curvature="0" />
    <path
       id="path8724"
       style="fill:#070002;fill-opacity:1;fill-rule:nonzero;stroke:none;display:inline"
       d="m 115.40313,288.4567 c -5.05865,-4.98742 -9.4865,-10.95193 -12.89062,-16.90128 l 0,0 c -1.42076,-0.14064 -3.018816,-0.31825 -4.438456,-0.31825 l 0,0 c -0.7888,0 -1.51396,0.0667 -2.07468,0.18519 l 0,0 c -0.9502,0.19974 -1.87955,-0.39972 -2.08529,-1.34689 l 0,0 c -0.2058,-0.94718 0.40123,-1.87955 1.35104,-2.07923 l 0,0 c 0.91459,-0.19247 1.85458,-0.25915 2.80893,-0.25915 l 0,0 c 2.047036,0 4.148606,0.28855 5.687576,0.43646 l 0,0 c 0.56981,0.0445 1.07447,0.37774 1.35862,0.88088 l 0,0 c 3.30903,5.94178 7.73119,11.97261 12.73946,16.91572 l 0,0 c 0.68687,0.67323 0.68687,1.78331 0.0152,2.47173 l 0,0 c -0.34174,0.34023 -0.79335,0.5179 -1.2446,0.5179 l 0,0 c -0.44555,0 -0.88958,-0.17003 -1.22829,-0.50314 l 0,0"
       inkscape:connector-curvature="0" />
    <path
       id="path8726"
       style="fill:#070002;fill-opacity:1;fill-rule:nonzero;stroke:none;display:inline"
       d="m 116.65946,283.87619 c -5.4167,-4.69152 -8.44159,-9.48647 -14.23712,-10.1006 l 0,0.006 c -0.9559,-0.11821 -1.64277,-0.9843 -1.53481,-1.94626 l 0,0 c 0.12003,-0.96194 0.98885,-1.64278 1.94475,-1.53175 l 0,0 c 7.73118,0.9843 11.23002,6.87455 16.09317,10.90762 l 0,0 c 0.73389,0.62134 0.82139,1.72385 0.19823,2.46376 l 0,0 c -0.34629,0.39972 -0.8407,0.61416 -1.33626,0.61416 l 0,0 c -0.39972,0 -0.80092,-0.14063 -1.1279,-0.41412 l 0,0"
       inkscape:connector-curvature="0" />
    <path
       id="path8728"
       style="fill:#070002;fill-opacity:1;fill-rule:nonzero;stroke:none;display:inline"
       d="m 23.324844,381.85649 c -4.65742,-4.04025 -7.57319,-10.58901 -7.58949,-17.14531 l 0,0 c 0,-0.96196 0.0727,-1.93147 0.20731,-2.88586 l 0,0 c 0.0712,-0.48116 0.34062,-0.91762 0.73692,-1.19152 l 0,0 c 5.36932,-3.52196 9.80623,-12.11318 19.06502,-12.28331 l 0,0 c 0.57854,0 1.17337,0.0367 1.78335,0.11821 l 0,0 c 0.95738,0.12578 1.63216,1.00627 1.50371,1.96102 l 0,0 c -0.12578,0.95439 -1.00512,1.62801 -1.96254,1.49465 l 0,0 c -0.46031,-0.0518 -0.90434,-0.0815 -1.32452,-0.0815 l 0,0 c -6.39188,-0.17004 -10.48102,6.59346 -16.4247,11.18116 l 0,0 c -0.0546,0.56224 -0.0831,1.12488 -0.0831,1.68712 l 0,0 c -0.0242,5.49056 2.58276,11.25503 6.3775,14.49626 l 0,0 c 0.72931,0.62892 0.80775,1.73901 0.18035,2.46416 l 0,0 c -0.34781,0.39933 -0.83618,0.60655 -1.32756,0.60655 l 0,0 c -0.40539,0 -0.80966,-0.14063 -1.1423,-0.42166 l 0,0"
       inkscape:connector-curvature="0" />
    <path
       id="path8730"
       style="fill:#070002;fill-opacity:1;fill-rule:nonzero;stroke:none;display:inline"
       d="m 41.384744,287.20608 c 0,-0.96954 0.78122,-1.74659 1.7534,-1.74659 l 0,0 c 0.37775,0 0.77404,0 1.16049,0 l 0,0 c 0.96344,0 1.74619,0.78462 1.74619,1.74659 l 0,0 c 0,0.96914 -0.78275,1.74618 -1.74619,1.74618 l 0,0 c -0.38645,0 -0.77405,0 -1.16049,0 l 0,0.006 c -0.97218,0 -1.7534,-0.78462 -1.7534,-1.75377 l 0,0"
       inkscape:connector-curvature="0" />
    <path
       id="path8732"
       style="fill:#070002;fill-opacity:1;fill-rule:nonzero;stroke:none;display:inline"
       d="m 88.556524,269.77965 c -0.38609,-0.39212 -0.77556,-0.77705 -1.16919,-1.16919 l 0,0 c -0.67933,-0.68839 -0.67933,-1.79811 0.006,-2.47892 l 0,0 c 0.68802,-0.68842 1.79962,-0.68084 2.47892,0.0151 l 0,0 c 0.37887,0.37735 0.76647,0.76228 1.1601,1.16161 l 0,0 c 0.67932,0.68081 0.67932,1.7909 0,2.47174 l 0,0 c -0.34326,0.34022 -0.79032,0.51032 -1.24003,0.51032 l 0,0 c -0.44706,0 -0.89528,-0.17004 -1.23738,-0.51032 l 0,0"
       inkscape:connector-curvature="0" />
    <path
       id="path8734"
       style="fill:#070002;fill-opacity:1;fill-rule:nonzero;stroke:none;display:inline"
       d="m 72.945994,287.70164 c -0.26794,-0.93241 0.26945,-1.90914 1.20177,-2.17547 l 0,0 c 1.16919,-0.32546 2.14894,-1.02864 2.52629,-1.62801 l 0,0 c 0.53875,-0.79902 1.62801,-1.01346 2.43309,-0.48077 l 0,0 c 0.79905,0.54027 1.01234,1.62798 0.47511,2.42703 l 0,0 c -1.0271,1.51699 -2.65511,2.50847 -4.46344,3.04874 l 0,0 c -0.16306,0.0443 -0.32582,0.0667 -0.48722,0.0667 l 0,0 c -0.76192,0 -1.46359,-0.49592 -1.6856,-1.2582 l 0,0"
       inkscape:connector-curvature="0" />
    <path
       id="path8736"
       style="fill:#070002;fill-opacity:1;fill-rule:nonzero;stroke:none;display:inline"
       d="m 78.128914,300.61423 c -0.96497,0 -1.74619,-0.77668 -1.74619,-1.73864 l 0,0 c 0,-0.97709 0.78122,-1.76135 1.74619,-1.76135 l 0,0 c 0.38608,0 0.77971,0 1.16918,0.0152 l 0,0 c 0.96348,0 1.74622,0.77707 1.74622,1.74658 l 0,0 c 0,0.96196 -0.78274,1.73864 -1.74622,1.73864 l 0,0 c -0.38947,0 -0.77552,0 -1.16918,0 l 0,0"
       inkscape:connector-curvature="0" />
    <path
       id="path8738"
       style="fill:#070002;fill-opacity:1;fill-rule:nonzero;stroke:none;display:inline"
       d="m 108.35693,137.9289 c -0.66756,-0.69333 -0.63649,-1.80341 0.0621,-2.47022 l 0,0 c 1.54806,-1.48895 3.4424,-2.49295 5.62847,-2.79605 l 0,0 c 0.94981,-0.14791 1.83787,0.52284 1.97996,1.47001 l 0,0 c 0.13488,0.96233 -0.52662,1.85267 -1.4844,1.99285 l 0,0 c -1.45486,0.21217 -2.56458,0.78426 -3.71179,1.86403 l 0,0 0.006,0.006 c -0.34174,0.31825 -0.77856,0.47359 -1.2135,0.47359 l 0,0 c -0.46186,0 -0.9252,-0.17822 -1.26845,-0.54178 l 0,0"
       inkscape:connector-curvature="0" />
    <path
       id="path8740"
       style="fill:#070002;fill-opacity:1;fill-rule:nonzero;stroke:none;display:inline"
       d="m 108.92069,162.93422 c -0.11821,-0.25763 -0.13306,-0.38645 -0.1567,-0.48874 l 0,0 c -0.0327,-0.20096 -0.0327,-0.31068 -0.0327,-0.42812 l 0,0 c 0.006,-0.86761 0.25914,-2.69376 0.32279,-3.32268 l 0,0 c 0.11094,-0.96233 0.97521,-1.65944 1.93563,-1.54578 l 0,0 c 0.95929,0.10244 1.65186,0.9699 1.54238,1.93601 l 0,0 c -0.0312,0.26915 -0.0979,0.82215 -0.16124,1.37908 l 0,0 c 0.16549,0.34477 0.21883,0.74638 0.13033,1.14419 l 0,0 c -0.14215,0.57967 -0.18216,0.81456 -0.35538,1.2389 l 0,0 c -0.25915,0.057 0.33907,0.60619 -1.6352,1.08735 l 0,0 c -1.14266,-0.0606 -1.49501,-0.81457 -1.58973,-1.00021 l 0,0"
       inkscape:connector-curvature="0" />
    <path
       id="path8742"
       style="fill:#070002;fill-opacity:1;fill-rule:nonzero;stroke:none;display:inline"
       d="m 180.95039,127.26755 c -0.46337,-0.16276 -0.83921,-0.51905 -1.02864,-0.96991 l 0,0 c -0.18792,-0.45843 -0.17156,-0.97748 0.0312,-1.42075 l 0,0 c 0.80056,-1.86403 2.56912,-3.28479 4.6131,-3.23175 l 0,0 c 0.10184,0 0.20277,0 0.30464,0.006 l 0,0 c -0.006,-0.0758 -0.006,-0.15154 0.001,-0.23126 l 0,0 c 0.077,-0.96232 0.91917,-1.68596 1.88565,-1.6064 l 0,0 c 3.47346,0.0985 6.30285,2.47022 6.46728,5.84594 l 0,0 c 0.0621,0.69712 -0.30498,1.37529 -0.92632,1.70112 l 0,0 c -2.45243,1.273 -3.95466,1.90949 -5.57203,1.93223 l 0,0 c -2.41264,-0.10972 -3.30034,-1.20481 -5.77623,-2.02695 l 0,0 z m 5.77623,-1.46622 c 0.39517,0.0151 1.21198,-0.1855 2.73921,-0.92444 l 0,0 c -0.2058,-0.54178 -0.52095,-0.87898 -1.10099,-1.13282 l 0,0 c 0.0212,0.28036 -0.0212,0.57967 -0.14669,0.85246 l 0,0 c -0.38493,0.87897 -1.41318,1.28057 -2.30125,0.89412 l 0,0 c -0.37166,-0.16276 -0.68954,-0.25763 -0.94869,-0.31067 l 0,0 c 0.93393,0.4357 1.42076,0.68197 1.75832,0.62135 l 0,0"
       inkscape:connector-curvature="0" />
    <path
       id="path10210"
       style="fill:#000000;fill-opacity:1;fill-rule:nonzero;stroke:none;display:inline"
       d="m 145.90203,128.71104 c 0,3.40981 -3.03852,6.17934 -6.78553,6.17934 -3.7474,0 -6.78441,-2.76953 -6.78441,-6.17934 0,-3.42119 3.03701,-6.18692 6.78441,-6.18692 3.74701,0 6.78553,2.76573 6.78553,6.18692"
       inkscape:connector-curvature="0" />
    <path
       id="path10212"
       style="fill:#ffffff;fill-opacity:1;fill-rule:nonzero;stroke:none;display:inline"
       d="m 143.46591,128.71104 c 0,2.18986 -1.94778,3.95917 -4.34941,3.95917 -2.40202,0 -4.3498,-1.76931 -4.3498,-3.95917 0,-2.18986 1.94778,-3.96676 4.3498,-3.96676 2.40163,0 4.34941,1.7769 4.34941,3.96676"
       inkscape:connector-curvature="0" />
    <path
       id="path10214"
       style="fill:#000000;fill-opacity:1;fill-rule:nonzero;stroke:none;display:inline"
       d="m 83.384204,349.66025 c 0,3.41852 -3.037,6.18617 -6.78553,6.18617 -3.74588,0 -6.78402,-2.76765 -6.78402,-6.18617 0,-3.4189 3.03814,-6.18655 6.78402,-6.18655 3.74853,0 6.78553,2.76765 6.78553,6.18655"
       inkscape:connector-curvature="0" />
    <path
       id="path10216"
       style="fill:#ffffff;fill-opacity:1;fill-rule:nonzero;stroke:none;display:inline"
       d="m 80.949604,349.66025 c 0,2.19023 -1.94739,3.966 -4.35093,3.966 -2.40202,0 -4.3498,-1.77577 -4.3498,-3.966 0,-2.19061 1.94778,-3.96638 4.3498,-3.96638 2.40354,0 4.35093,1.77577 4.35093,3.96638"
       inkscape:connector-curvature="0" />
    <path
       id="path10218"
       style="fill:#000000;fill-opacity:1;fill-rule:nonzero;stroke:none;display:inline"
       d="m 40.443264,416.77603 c 0,3.41133 -3.03664,6.17895 -6.78553,6.17895 -3.74589,0 -6.78402,-2.76762 -6.78402,-6.17895 0,-3.41854 3.03813,-6.18616 6.78402,-6.18616 3.74889,0 6.78553,2.76762 6.78553,6.18616"
       inkscape:connector-curvature="0" />
    <path
       id="path10220"
       style="fill:#ffffff;fill-opacity:1;fill-rule:nonzero;stroke:none;display:inline"
       d="m 38.008654,416.77603 c 0,2.19022 -1.94738,3.95878 -4.35092,3.95878 -2.40203,0 -4.34941,-1.76856 -4.34941,-3.95878 0,-2.19025 1.94738,-3.96639 4.34941,-3.96639 2.40354,0 4.35092,1.77614 4.35092,3.96639"
       inkscape:connector-curvature="0" />
    <path
       id="path10222"
       style="fill:#000000;fill-opacity:1;fill-rule:nonzero;stroke:none;display:inline"
       d="m 358.69461,200.99155 c 0,3.41739 -3.03852,6.18692 -6.78556,6.18692 -3.74701,0 -6.78175,-2.76953 -6.78175,-6.18692 0,-3.4174 3.03474,-6.18693 6.78175,-6.18693 3.74704,0 6.78556,2.76953 6.78556,6.18693"
       inkscape:connector-curvature="0" />
    <path
       id="path10224"
       style="fill:#ffffff;fill-opacity:1;fill-rule:nonzero;stroke:none;display:inline"
       d="m 356.25846,200.99155 c 0,2.18985 -1.94739,3.96675 -4.34941,3.96675 -2.402,0 -4.34938,-1.7769 -4.34938,-3.96675 0,-2.18986 1.94738,-3.96676 4.34938,-3.96676 2.40202,0 4.34941,1.7769 4.34941,3.96676"
       inkscape:connector-curvature="0" />
    <path
       id="path10226"
       style="fill:#000000;fill-opacity:1;fill-rule:nonzero;stroke:none;display:inline"
       d="m 300.23522,127.94193 c 0,2.31489 -2.06483,4.19408 -4.60704,4.19408 -2.54221,0 -4.60325,-1.87919 -4.60325,-4.19408 0,-2.31867 2.06104,-4.19786 4.60325,-4.19786 2.54221,0 4.60704,1.87919 4.60704,4.19786"
       inkscape:connector-curvature="0" />
    <path
       id="path10228"
       style="fill:#ffffff;fill-opacity:1;fill-rule:nonzero;stroke:none;display:inline"
       d="m 298.58335,127.94193 c 0,1.48517 -1.32225,2.69376 -2.95517,2.69376 -1.62913,0 -2.95139,-1.20859 -2.95139,-2.69376 0,-1.48895 1.32226,-2.69375 2.95139,-2.69375 1.63292,0 2.95517,1.2048 2.95517,2.69375"
       inkscape:connector-curvature="0" />
    <path
       id="path11670"
       style="fill:#ffffff;fill-opacity:1;fill-rule:nonzero;stroke:none;display:inline"
       d="m 218.04539,171.76943 c -1.05968,2.07241 -5.3428,2.07241 -9.56224,0.16306 -4.17628,-1.25026 -7.22805,-4.19407 -6.85337,-6.47486 0.37281,-2.28079 4.86164,-2.88698 9.98809,-1.26542 4.65139,2.08757 7.47508,5.54285 6.42752,7.57737"
       inkscape:connector-curvature="0" />
  </g>
</svg>
