<?xml version="1.0" encoding="UTF-8" standalone="no"?>
<!-- Created with Inkscape (http://www.inkscape.org/) -->

<svg
   xmlns:dc="http://purl.org/dc/elements/1.1/"
   xmlns:cc="http://creativecommons.org/ns#"
   xmlns:rdf="http://www.w3.org/1999/02/22-rdf-syntax-ns#"
   xmlns:svg="http://www.w3.org/2000/svg"
   xmlns="http://www.w3.org/2000/svg"
   xmlns:sodipodi="http://sodipodi.sourceforge.net/DTD/sodipodi-0.dtd"
   xmlns:inkscape="http://www.inkscape.org/namespaces/inkscape"
   width="186.10635"
   height="507.26746"
   id="svg2"
   version="1.1"
   inkscape:version="0.48.3.1 r9886"
   sodipodi:docname="interroga.svg">
  <defs
     id="defs4" />
  <sodipodi:namedview
     id="base"
     pagecolor="#ffffff"
     bordercolor="#666666"
     borderopacity="1.0"
     inkscape:pageopacity="0.0"
     inkscape:pageshadow="2"
     inkscape:zoom="0.35"
     inkscape:cx="17.748578"
     inkscape:cy="353.52583"
     inkscape:document-units="px"
     inkscape:current-layer="text3011"
     showgrid="false"
     fit-margin-top="0"
     fit-margin-left="0"
     fit-margin-right="0"
     fit-margin-bottom="0"
     inkscape:window-width="1047"
     inkscape:window-height="909"
     inkscape:window-x="65"
     inkscape:window-y="24"
     inkscape:window-maximized="0" />
  <metadata
     id="metadata7">
    <rdf:RDF>
      <cc:Work
         rdf:about="">
        <dc:format>image/svg+xml</dc:format>
        <dc:type
           rdf:resource="http://purl.org/dc/dcmitype/StillImage" />
        <dc:title></dc:title>
      </cc:Work>
    </rdf:RDF>
  </metadata>
  <g
     inkscape:label="Capa 1"
     inkscape:groupmode="layer"
     id="layer1"
     transform="translate(-332.25142,-378.62052)">
    <g
       style="font-size:459.84744263px;font-style:normal;font-variant:normal;font-weight:normal;font-stretch:normal;line-height:125%;letter-spacing:0px;word-spacing:0px;fill:#000000;fill-opacity:1;stroke:none;font-family:Agent Orange;-inkscape-font-specification:Agent Orange"
       id="text2985">
      <g
         style="font-size:464.10562134px;line-height:125%;fill:#000000;font-family:Agent Orange;-inkscape-font-specification:Agent Orange"
         id="text3011">
        <path
           d="m 482.62164,790.28221 c -1.3e-4,16.39835 -8.66343,30.78561 -25.98991,43.16182 -15.77969,11.13845 -32.17807,16.70771 -49.1952,16.70781 -17.63605,-10e-5 -32.33272,-5.25995 -44.09003,-15.7796 -11.44795,-10.51979 -17.17191,-24.44294 -17.17191,-41.7695 0,-15.47021 7.58039,-31.24978 22.74118,-47.33877 15.47015,-16.08897 30.94032,-24.13346 46.41056,-24.1335 20.42056,4e-5 36.66424,6.49751 48.73109,19.49244 12.37602,12.68556 18.56409,29.23864 18.56422,49.6593 M 450.59836,393.4719 c 12.99484,64.04688 19.49231,140.62423 19.49243,229.73229 -1.2e-4,1.3e-4 -0.30953,9.59164 -0.92821,28.77455 l -0.4641,19.95654 c -0.30953,10.2104 -0.46423,14.54205 -0.46411,12.99495 -14.54208,3.40352 -27.69173,5.10524 -39.44898,5.10517 3.40336,7e-5 -9.43689,-1.08285 -38.52076,-3.24874 -4.3317,-0.30933 -7.88984,-0.46404 -10.67443,-0.46411 -7.42572,7e-5 -13.61379,0.61888 -18.56423,1.85642 -4.64107,-47.33865 -6.96159,-79.20721 -6.96158,-95.60575 -10e-6,-23.2051 3.40343,-89.57213 10.21032,-199.10132 21.65822,-0.61844 43.78057,-0.92784 66.3671,-0.92821 7.73501,3.7e-4 14.38718,0.30977 19.95655,0.92821 m 1.39231,-13.92316 c -5.56936,-0.61843 -12.68564,-0.92784 -21.34886,-0.92822 -8.97278,3.8e-4 -22.27713,0.30979 -39.91308,0.92822 -17.63604,0.30978 -30.78569,0.46448 -39.44898,0.4641 -7.42568,110.76681 -11.13853,181.6202 -11.13853,212.56038 0,18.56437 2.78463,56.31159 8.3539,113.24177 l 1.39232,0 c 0.3094,-0.30935 0.6188,-0.46405 0.92821,-0.46411 l 19.95654,19.95654 c -2.78466,2.16586 -6.6522,5.724 -11.60264,10.67443 -17.94541,18.87364 -26.91811,37.74725 -26.91813,56.62089 2e-5,25.37105 9.90093,44.86346 29.70276,58.47731 l 13.92317,13.92317 c 13.92313,13.92304 32.17793,20.88462 54.76446,20.88475 19.49234,-1.3e-4 38.36595,-6.4976 56.62089,-19.49244 20.72989,-14.85147 31.0949,-32.48747 31.09508,-52.90804 -1.8e-4,-25.37113 -7.58056,-45.32766 -22.74118,-59.86962 l -12.99496,-12.53086 c -2.47536,-4.33163 -7.27111,-9.74619 -14.38727,-16.24369 11.1384,-1.23758 23.05043,-3.55811 35.73613,-6.96159 l 0,-13.45906 c -1.6e-4,-5.56921 0.30925,-13.7684 0.92821,-24.5976 0.61865,-10.82904 0.92806,-19.02823 0.92821,-24.5976 l 0,-8.818 c -1.5e-4,-90.6551 -6.65233,-168.00596 -19.95654,-232.05281 L 464.52152,393.0078 c -0.30952,-0.30904 -0.46422,-1.08255 -0.4641,-2.32053 l -12.06675,-11.13853"
           style=""
           id="path3016" />
      </g>
    </g>
  </g>
</svg>
