<?xml version="1.0" encoding="UTF-8" standalone="no"?>
<!-- Created with Inkscape (http://www.inkscape.org/) -->

<svg
   xmlns:dc="http://purl.org/dc/elements/1.1/"
   xmlns:cc="http://creativecommons.org/ns#"
   xmlns:rdf="http://www.w3.org/1999/02/22-rdf-syntax-ns#"
   xmlns:svg="http://www.w3.org/2000/svg"
   xmlns="http://www.w3.org/2000/svg"
   xmlns:sodipodi="http://sodipodi.sourceforge.net/DTD/sodipodi-0.dtd"
   xmlns:inkscape="http://www.inkscape.org/namespaces/inkscape"
   width="326.03183"
   height="508.13144"
   id="svg2"
   version="1.1"
   inkscape:version="0.48.3.1 r9886"
   sodipodi:docname="Nuevo documento 1">
  <defs
     id="defs4" />
  <sodipodi:namedview
     id="base"
     pagecolor="#ffffff"
     bordercolor="#666666"
     borderopacity="1.0"
     inkscape:pageopacity="0.0"
     inkscape:pageshadow="2"
     inkscape:zoom="0.35"
     inkscape:cx="89.87428"
     inkscape:cy="351.01264"
     inkscape:document-units="px"
     inkscape:current-layer="text2985"
     showgrid="false"
     fit-margin-top="0"
     fit-margin-left="0"
     fit-margin-right="0"
     fit-margin-bottom="0"
     inkscape:window-width="1047"
     inkscape:window-height="909"
     inkscape:window-x="65"
     inkscape:window-y="24"
     inkscape:window-maximized="0" />
  <metadata
     id="metadata7">
    <rdf:RDF>
      <cc:Work
         rdf:about="">
        <dc:format>image/svg+xml</dc:format>
        <dc:type
           rdf:resource="http://purl.org/dc/dcmitype/StillImage" />
        <dc:title></dc:title>
      </cc:Work>
    </rdf:RDF>
  </metadata>
  <g
     inkscape:label="Capa 1"
     inkscape:groupmode="layer"
     id="layer1"
     transform="translate(-260.12572,-375.24334)">
    <g
       style="font-size:459.84744263px;font-style:normal;font-variant:normal;font-weight:normal;font-stretch:normal;line-height:125%;letter-spacing:0px;word-spacing:0px;fill:#000000;fill-opacity:1;stroke:none;font-family:Agent Orange;-inkscape-font-specification:Agent Orange"
       id="text2985">
      <path
         d="m 455.10103,774.39093 c -1.8e-4,19.62012 -7.97086,36.78774 -23.91206,51.50291 -15.94152,14.71503 -33.87555,22.07259 -53.80215,22.07268 -19.31368,-9e-5 -36.4813,-5.82482 -51.50292,-17.47421 -16.24798,-12.26266 -24.37194,-27.89745 -24.37191,-46.90444 -3e-5,-20.84642 7.81737,-37.09434 23.45222,-48.74382 13.79536,-10.42318 31.57611,-15.63478 53.3423,-15.63482 l 14.25527,0 c 1.83927,0.30661 2.91225,0.45989 3.21893,0.45985 l 0.45985,0 c 15.94124,4e-5 29.73665,5.21164 41.38627,15.63481 11.6493,10.11666 17.47402,23.14566 17.4742,39.08704 M 442.22531,525.61346 c -1.7e-4,-29.12341 -17.16779,-43.68523 -51.50292,-43.68551 -9.50362,2.8e-4 -18.24071,4.44547 -26.2113,13.33558 -7.97077,8.89064 -11.95611,18.24086 -11.95603,28.05069 -8e-5,3.37245 -0.61321,8.43076 -1.83939,15.17497 -0.91978,6.74464 -1.37962,11.80296 -1.37955,15.17496 -7e-5,3.06585 0.15321,5.21181 0.45985,6.43787 -26.97776,3.37241 -43.37897,5.05851 -49.20368,5.05832 -15.63482,1.9e-4 -24.52519,-0.45966 -26.67115,-1.37954 0,-57.94053 9.81007,-100.39973 29.43024,-127.37775 23.29888,-31.57583 62.84572,-47.36391 118.64064,-47.36428 28.2038,3.7e-4 56.71431,13.33593 85.53162,40.00673 28.81685,26.67145 43.22539,53.9557 43.22566,81.85284 -2.7e-4,23.60573 -9.65706,43.37915 -28.97039,59.32032 -31.5764,20.84659 -49.35715,32.95589 -53.3423,36.32795 -19.9269,17.16777 -29.89025,34.94852 -29.89008,53.3423 -1.7e-4,10.11673 -0.46001,17.93413 -1.37955,23.45222 l -112.66262,0 c -5e-5,-37.70738 10.11658,-67.44415 30.34993,-89.2104 10.42312,-11.34273 29.43013,-24.21845 57.02109,-38.62719 20.23312,-10.72956 30.34976,-20.69291 30.34993,-29.89008 M 332.78162,855.78392 c 18.39382,18.39378 40.92632,27.59072 67.59757,27.59085 23.29879,-1.3e-4 44.14518,-8.58394 62.53925,-25.75146 18.39369,-17.16772 27.59063,-37.2477 27.59085,-60.24001 -2.2e-4,-18.08736 -6.28479,-33.26231 -18.85375,-45.5249 l -12.87573,-12.41588 c -5.51834,-8.89036 -12.26277,-15.78806 -20.23328,-20.69314 l 32.18932,0 c 2.14575,-11.34285 3.21873,-23.29887 3.21893,-35.8681 -2e-4,-16.55441 8.12376,-30.65639 24.37191,-42.30596 22.07244,-15.94125 39.54662,-28.05055 52.42261,-36.32795 23.6052,-19.92655 35.40794,-43.37874 35.40826,-70.35666 -3.2e-4,-31.57593 -14.10229,-59.93316 -42.30597,-85.07177 l -4.13863,-3.67878 c -7.05125,-9.19663 -14.86865,-17.78044 -23.45222,-25.75146 -31.26983,-29.42987 -62.69271,-44.14497 -94.26872,-44.14536 -61.00652,3.9e-4 -104.23213,17.47457 -129.67698,52.42261 -21.45954,29.43054 -32.18931,77.86776 -32.18932,145.3118 0.91971,0.30675 2.14597,0.76659 3.67878,1.37954 l 20.69313,20.69313 c 9.5035,3.67894 22.5325,5.51833 39.08704,5.51817 l 9.19695,0 c -14.71517,23.29907 -22.07272,55.48836 -22.07268,96.56796 l 2.75908,0 17.47421,18.3939 c -4.59853,2.146 -8.58387,4.44523 -11.95604,6.89771 l 0,-0.45984 c -20.84644,15.63483 -31.26964,36.17466 -31.26962,61.61955 -2e-5,25.13828 10.57646,44.75842 31.72947,58.86048 l 13.33558,13.33557 m 95.64826,-330.17046 c -1.5e-4,3.98557 -7.66427,9.8103 -22.99237,17.4742 -2.14608,1.22648 -8.12409,4.59869 -17.93405,10.11665 -1.1e-4,-7.97048 2.29912,-15.6346 6.89771,-22.99238 5.21148,-8.58358 11.64934,-12.87548 19.3136,-12.87573 4.90489,2.5e-4 9.50336,0.46009 13.79542,1.37955 0.61297,3.06588 0.91954,5.36512 0.91969,6.89771 m -6.89771,-21.61283 0,0"
         id="path2990"
         inkscape:connector-curvature="0" />
    </g>
  </g>
</svg>
