<?xml version="1.0" encoding="UTF-8" standalone="no"?>
<!-- Created with Inkscape (http://www.inkscape.org/) -->

<svg
   xmlns:dc="http://purl.org/dc/elements/1.1/"
   xmlns:cc="http://creativecommons.org/ns#"
   xmlns:rdf="http://www.w3.org/1999/02/22-rdf-syntax-ns#"
   xmlns:svg="http://www.w3.org/2000/svg"
   xmlns="http://www.w3.org/2000/svg"
   xmlns:sodipodi="http://sodipodi.sourceforge.net/DTD/sodipodi-0.dtd"
   xmlns:inkscape="http://www.inkscape.org/namespaces/inkscape"
   width="118.54255"
   height="154.51375"
   id="svg43060"
   version="1.1"
   inkscape:version="0.48.3.1 r9886"
   sodipodi:docname="rec.svg">
  <defs
     id="defs43062" />
  <sodipodi:namedview
     id="base"
     pagecolor="#ffffff"
     bordercolor="#666666"
     borderopacity="1.0"
     inkscape:pageopacity="0.0"
     inkscape:pageshadow="2"
     inkscape:zoom="0.35"
     inkscape:cx="59.271278"
     inkscape:cy="-122.74312"
     inkscape:document-units="px"
     inkscape:current-layer="layer1"
     showgrid="false"
     fit-margin-top="0"
     fit-margin-left="0"
     fit-margin-right="0"
     fit-margin-bottom="0"
     inkscape:window-width="577"
     inkscape:window-height="702"
     inkscape:window-x="687"
     inkscape:window-y="48"
     inkscape:window-maximized="0" />
  <metadata
     id="metadata43065">
    <rdf:RDF>
      <cc:Work
         rdf:about="">
        <dc:format>image/svg+xml</dc:format>
        <dc:type
           rdf:resource="http://purl.org/dc/dcmitype/StillImage" />
        <dc:title></dc:title>
      </cc:Work>
    </rdf:RDF>
  </metadata>
  <g
     inkscape:label="Capa 1"
     inkscape:groupmode="layer"
     id="layer1"
     transform="translate(-290.72873,-255.10528)">
    <path
       id="path5540"
       style="fill:#231f20;fill-opacity:1;fill-rule:nonzero;stroke:none"
       d="m 409.27123,312.70403 -2.4675,10.6375 -11.3625,7.4375 -4.2,7.8225 2.80875,13.22125 -12.11,2.1325 -4.72875,9.53 -7.91763,6.82125 -10.248,1.53375 -6.40537,-2.655 -12.166,40.43375 -11.4995,-43.605 -8.12013,-1.54875 -9.29487,-3.76375 -0.4385,-13.09875 -12.27825,-2.11125 -4.84325,-8.63875 -1.07575,-9.89 3.00825,-9.68625 -4.07275,-9.45125 -1.13075,-10.4475 0.90475,-11.04875 15.49462,-1.66375 -0.35162,-13.28625 8.5215,-5.78875 7.94537,-7.50875 11.89988,4.23375 9.33637,-1.95875 10.32675,-5.25125 8.32275,8.59875 9.86225,1.415 3.90238,11.01625 13.2275,-0.43625 0.0188,12.05875 11.15875,5.065 4.08875,9.60375 3.88375,10.2775"
       inkscape:connector-curvature="0" />
    <path
       id="path5542"
       style="fill:#ffffff;fill-opacity:1;fill-rule:nonzero;stroke:none"
       d="m 399.45123,313.43278 -2.075,8.9525 -9.56375,6.25875 -3.535,6.58625 2.3625,11.12625 -10.1925,1.795 -3.97863,8.02125 -6.664,5.74125 -8.6275,1.2925 -6.33099,-2.235 -10.23976,34.0325 -8.73725,-36.7025 -6.835,-1.30375 -7.82325,-3.1675 -0.36862,-11.02625 -10.3345,-1.775 -4.07663,-7.27125 -0.90537,-8.32375 2.53175,-8.1525 -3.42775,-7.95625 -0.95213,-8.79375 0.76175,-9.29875 13.0415,-1.4 -0.29587,-11.18375 7.17287,-4.87125 6.687,-6.32125 10.01663,3.56375 7.85737,-1.64875 8.69188,-4.42 7.00387,7.23875 8.30175,1.19125 3.28475,9.27125 11.13363,-0.36625 0.015,10.14875 9.3925,4.26375 3.44125,8.0825 3.2675,8.65125"
       inkscape:connector-curvature="0" />
    <path
       id="path5544"
       style="fill:#231f20;fill-opacity:1;fill-rule:nonzero;stroke:none"
       d="m 371.02023,300.69278 c 0,7.645 -8.21,15.1675 -24.629,22.57 0,0.29875 0.417,2.5675 1.25437,6.80625 l -9.8515,1.79125 c -0.061,-0.29625 -0.20462,-4.42875 -1.93549,-13.89625 17.07562,-7.26375 23.35937,-12.62375 23.35937,-16.07875 l -0.0904,-0.4475 c -0.96638,-3.45875 -3.45363,-3.91375 -8.52688,-3.91375 -8.18113,0 -14.32613,3.28875 -19.9375,8.36375 l -6.80613,-7.5225 c 7.5225,-6.8075 16.32375,-10.21 27.90776,-10.21 4.71474,0 8.86712,0.89625 12.44912,2.68625 4.53662,2.27 6.80625,5.5525 6.80625,9.85125"
       inkscape:connector-curvature="0" />
    <path
       id="path5546"
       style="fill:#231f20;fill-opacity:1;fill-rule:nonzero;stroke:none"
       d="m 349.82973,342.17903 c 0,3.29375 -2.47112,5.96 -5.5205,5.96 -3.04975,0 -5.522,-2.66625 -5.522,-5.96 0,-3.29125 2.47225,-5.95875 5.522,-5.95875 3.04938,0 5.5205,2.6675 5.5205,5.95875"
       inkscape:connector-curvature="0" />
  </g>
</svg>
