<?xml version="1.0" encoding="UTF-8" standalone="no"?>
<!-- Created with Inkscape (http://www.inkscape.org/) -->

<svg
   xmlns:dc="http://purl.org/dc/elements/1.1/"
   xmlns:cc="http://creativecommons.org/ns#"
   xmlns:rdf="http://www.w3.org/1999/02/22-rdf-syntax-ns#"
   xmlns:svg="http://www.w3.org/2000/svg"
   xmlns="http://www.w3.org/2000/svg"
   xmlns:sodipodi="http://sodipodi.sourceforge.net/DTD/sodipodi-0.dtd"
   xmlns:inkscape="http://www.inkscape.org/namespaces/inkscape"
   width="265.43463"
   height="255.1503"
   id="svg43060"
   version="1.1"
   inkscape:version="0.48.3.1 r9886"
   sodipodi:docname="lloviendo.svg">
  <defs
     id="defs43062" />
  <sodipodi:namedview
     id="base"
     pagecolor="#ffffff"
     bordercolor="#666666"
     borderopacity="1.0"
     inkscape:pageopacity="0.0"
     inkscape:pageshadow="2"
     inkscape:zoom="0.35"
     inkscape:cx="88.640005"
     inkscape:cy="85.205626"
     inkscape:document-units="px"
     inkscape:current-layer="layer1"
     showgrid="false"
     fit-margin-top="0"
     fit-margin-left="0"
     fit-margin-right="0"
     fit-margin-bottom="0"
     inkscape:window-width="577"
     inkscape:window-height="702"
     inkscape:window-x="687"
     inkscape:window-y="48"
     inkscape:window-maximized="0" />
  <metadata
     id="metadata43065">
    <rdf:RDF>
      <cc:Work
         rdf:about="">
        <dc:format>image/svg+xml</dc:format>
        <dc:type
           rdf:resource="http://purl.org/dc/dcmitype/StillImage" />
        <dc:title></dc:title>
      </cc:Work>
    </rdf:RDF>
  </metadata>
  <g
     inkscape:label="Capa 1"
     inkscape:groupmode="layer"
     id="layer1"
     transform="translate(-261.36,-362.41749)">
    <path
       id="path2862"
       style="fill:#231f20;fill-opacity:1;fill-rule:nonzero;stroke:none"
       d="m 526.79462,482.29016 -48.92304,14.74055 31.36764,34.91989 -61.09577,-11.13027 13.58765,33.36087 -37.68235,-14.52345 -1.71249,55.65511 -31.43128,-45.93039 -25.21014,19.38581 -4.5311,-28.15602 -43.40749,23.01854 18.99277,-46.23546 -43.73315,5.13749 29.67386,-22.43648 -61.32973,-17.80619 65.91509,-10.27496 -45.33522,-35.10705 59.43756,10.29741 -17.4169,-36.47704 35.88188,13.33686 0.93954,-61.64789 32.87051,50.51575 24.70857,-26.61571 8.98545,37.76657 38.65743,-20.56864 -5.99279,37.67485 66.7835,-17.98024 -50.53446,44.98524 50.53446,14.09485"
       inkscape:connector-curvature="0" />
    <path
       id="path2864"
       style="fill:#ffffff;fill-opacity:1;fill-rule:nonzero;stroke:none"
       d="m 497.94425,481.85408 -36.44897,10.91317 23.36664,25.85397 -47.38834,-8.24055 10.12149,26.57453 -28.07367,-12.62754 -1.27454,41.20653 -21.54373,-34.00657 -18.78128,14.35313 -3.37633,-20.8475 -32.33711,17.04633 14.14912,-34.23303 -32.58229,3.80118 22.10708,-16.61026 -45.68896,-13.18339 49.10645,-7.60609 -33.77448,-25.99434 44.27965,7.62294 -12.97377,-27.00687 26.73361,9.87632 -1.17535,-45.64404 24.48772,37.40161 20.28229,-19.70585 6.69276,27.96138 28.80171,-15.22903 -4.46746,27.89399 49.75776,-13.31253 -37.65052,33.3066 37.65052,10.43591"
       inkscape:connector-curvature="0" />
    <path
       id="path2866"
       style="fill:#231f20;fill-opacity:1;fill-rule:evenodd;stroke:none"
       d="m 389.56681,616.65446 c 0.15159,0 0.30506,0 0.45666,0 -0.0412,0.19464 0.0898,0.2171 0.22834,0.22834 0,0.15159 0,0.30319 0,0.45666 -0.19464,-0.0412 -0.21524,0.088 -0.22834,0.22833 -0.1516,0 -0.30507,0 -0.45666,0 0.0449,-0.19464 -0.0879,-0.2171 -0.22833,-0.22833 0,-0.15347 0,-0.30507 0,-0.45666 0.19464,0.0412 0.2171,-0.0898 0.22833,-0.22834"
       inkscape:connector-curvature="0" />
    <path
       id="path2868"
       style="fill:#231f20;fill-opacity:1;fill-rule:evenodd;stroke:none"
       d="m 398.69262,616.65446 c 0.1516,0 0.30506,0 0.4548,0 -0.0412,0.19464 0.0898,0.2171 0.2302,0.22834 0,0.15159 0,0.30319 0,0.45666 -0.19464,-0.0412 -0.2171,0.088 -0.2302,0.22833 -0.14974,0 -0.3032,0 -0.4548,0 0.0431,-0.19464 -0.0898,-0.2171 -0.22646,-0.22833 0,-0.15347 0,-0.30507 0,-0.45666 0.19464,0.0412 0.21336,-0.0898 0.22646,-0.22834"
       inkscape:connector-curvature="0" />
    <path
       id="path2870"
       style="fill:#231f20;fill-opacity:1;fill-rule:evenodd;stroke:none"
       d="m 380.44099,617.33946 c 0.008,-0.22272 0.28074,-0.17593 0.45854,-0.22834 -0.008,0.22272 -0.27887,0.17593 -0.45854,0.22834"
       inkscape:connector-curvature="0" />
    <path
       id="path2872"
       style="fill:#231f20;fill-opacity:1;fill-rule:evenodd;stroke:none"
       d="m 407.81843,617.33946 c 0.003,-0.22272 0.28074,-0.17593 0.45292,-0.22834 -0.006,0.22272 -0.27699,0.17593 -0.45292,0.22834"
       inkscape:connector-curvature="0" />
  </g>
</svg>
