<?xml version="1.0" encoding="UTF-8" standalone="no"?>
<!-- Created with Inkscape (http://www.inkscape.org/) -->

<svg
   xmlns:dc="http://purl.org/dc/elements/1.1/"
   xmlns:cc="http://creativecommons.org/ns#"
   xmlns:rdf="http://www.w3.org/1999/02/22-rdf-syntax-ns#"
   xmlns:svg="http://www.w3.org/2000/svg"
   xmlns="http://www.w3.org/2000/svg"
   xmlns:sodipodi="http://sodipodi.sourceforge.net/DTD/sodipodi-0.dtd"
   xmlns:inkscape="http://www.inkscape.org/namespaces/inkscape"
   width="224.71275"
   height="179.1725"
   id="svg43060"
   version="1.1"
   inkscape:version="0.48.3.1 r9886"
   sodipodi:docname="ein.svg">
  <defs
     id="defs43062" />
  <sodipodi:namedview
     id="base"
     pagecolor="#ffffff"
     bordercolor="#666666"
     borderopacity="1.0"
     inkscape:pageopacity="0.0"
     inkscape:pageshadow="2"
     inkscape:zoom="1.4"
     inkscape:cx="113.15251"
     inkscape:cy="93.974375"
     inkscape:document-units="px"
     inkscape:current-layer="layer1"
     showgrid="false"
     fit-margin-top="0"
     fit-margin-left="0"
     fit-margin-right="0"
     fit-margin-bottom="0"
     inkscape:window-width="577"
     inkscape:window-height="702"
     inkscape:window-x="687"
     inkscape:window-y="48"
     inkscape:window-maximized="0" />
  <metadata
     id="metadata43065">
    <rdf:RDF>
      <cc:Work
         rdf:about="">
        <dc:format>image/svg+xml</dc:format>
        <dc:type
           rdf:resource="http://purl.org/dc/dcmitype/StillImage" />
        <dc:title></dc:title>
      </cc:Work>
    </rdf:RDF>
  </metadata>
  <g
     inkscape:label="Capa 1"
     inkscape:groupmode="layer"
     id="layer1"
     transform="translate(-237.64363,-442.7759)">
    <path
       id="path5776"
       style="fill:#231f20;fill-opacity:1;fill-rule:nonzero;stroke:none"
       d="m 285.56063,576.8534 c 0,0 14.38137,44.89 23.45162,45.095 -4.92337,-24.04125 1.30613,-45.095 1.30613,-45.095 l -24.75775,0"
       inkscape:connector-curvature="0" />
    <path
       id="path5778"
       style="fill:#231f20;fill-opacity:1;fill-rule:nonzero;stroke:none"
       d="m 462.35638,535.5284 c 0,35.22125 -30.3275,53.99875 -92.38,53.99875 -62.054,0 -132.33275,-2.28125 -132.33275,-49.29625 0,-47.01375 26.80275,-97.455 88.855,-97.455 62.0515,0 135.85775,66.91875 135.85775,92.7525"
       inkscape:connector-curvature="0" />
    <path
       id="path5780"
       style="fill:#ffffff;fill-opacity:1;fill-rule:nonzero;stroke:none"
       d="m 456.59763,535.2984 c 0,33.4425 -28.795,51.27125 -87.7175,51.27125 -58.92163,0 -125.653,-2.16625 -125.653,-46.8075 0,-44.64125 25.44875,-92.53625 84.36962,-92.53625 58.92088,0 129.00088,63.54 129.00088,88.0725"
       inkscape:connector-curvature="0" />
    <path
       id="path5782"
       style="fill:#e9e9e9;fill-opacity:1;fill-rule:nonzero;stroke:none"
       d="m 441.31263,509.7109 c 0.0913,0.69875 0.145,1.3775 0.145,2.02 0,32.6475 -25.7325,50.0525 -78.38625,50.0525 -52.65238,0 -112.28425,-2.115 -112.28425,-45.69375 0,-4.24875 0.21875,-8.5275 0.65775,-12.79 -3.91212,11.415 -5.7915,23.625 -5.7915,35.59625 0,43.57875 65.145,45.695 122.66425,45.695 57.5225,0 85.63125,-17.405 85.63125,-50.05375 0,-6.26625 -4.69125,-15.14 -12.63625,-24.82625"
       inkscape:connector-curvature="0" />
    <path
       id="path5784"
       style="fill:#e9e9e9;fill-opacity:1;fill-rule:nonzero;stroke:none"
       d="m 288.30625,573.82465 c 0,0 9.63425,35.4725 16.3495,38.3625 -1.748,-19.34125 3.17775,-35.60625 3.17775,-35.60625 l -19.52725,-2.75625"
       inkscape:connector-curvature="0" />
  </g>
</svg>
