<?xml version="1.0" encoding="UTF-8" standalone="no"?>
<!-- Created with Inkscape (http://www.inkscape.org/) -->

<svg
   xmlns:dc="http://purl.org/dc/elements/1.1/"
   xmlns:cc="http://creativecommons.org/ns#"
   xmlns:rdf="http://www.w3.org/1999/02/22-rdf-syntax-ns#"
   xmlns:svg="http://www.w3.org/2000/svg"
   xmlns="http://www.w3.org/2000/svg"
   xmlns:sodipodi="http://sodipodi.sourceforge.net/DTD/sodipodi-0.dtd"
   xmlns:inkscape="http://www.inkscape.org/namespaces/inkscape"
   width="170.675"
   height="108.24875"
   id="svg43060"
   version="1.1"
   inkscape:version="0.48.3.1 r9886"
   sodipodi:docname="huevo.svg">
  <defs
     id="defs43062" />
  <sodipodi:namedview
     id="base"
     pagecolor="#ffffff"
     bordercolor="#666666"
     borderopacity="1.0"
     inkscape:pageopacity="0.0"
     inkscape:pageshadow="2"
     inkscape:zoom="1.4"
     inkscape:cx="85.337496"
     inkscape:cy="54.124374"
     inkscape:document-units="px"
     inkscape:current-layer="layer1"
     showgrid="false"
     fit-margin-top="0"
     fit-margin-left="0"
     fit-margin-right="0"
     fit-margin-bottom="0"
     inkscape:window-width="577"
     inkscape:window-height="702"
     inkscape:window-x="687"
     inkscape:window-y="48"
     inkscape:window-maximized="0" />
  <metadata
     id="metadata43065">
    <rdf:RDF>
      <cc:Work
         rdf:about="">
        <dc:format>image/svg+xml</dc:format>
        <dc:type
           rdf:resource="http://purl.org/dc/dcmitype/StillImage" />
        <dc:title></dc:title>
      </cc:Work>
    </rdf:RDF>
  </metadata>
  <g
     inkscape:label="Capa 1"
     inkscape:groupmode="layer"
     id="layer1"
     transform="translate(-265.45864,-473.84965)">
    <path
       id="path5748"
       style="fill:#d3d2d2;fill-opacity:1;fill-rule:nonzero;stroke:none"
       d="m 428.26364,540.2134 c 0,22.8725 -31.57,41.415 -70.51375,41.415 -38.9425,0 -70.51125,-18.5425 -70.51125,-41.415 0,-22.8725 31.56875,-41.41625 70.51125,-41.41625 38.94375,0 70.51375,18.54375 70.51375,41.41625"
       inkscape:connector-curvature="0" />
    <path
       id="path5750"
       style="fill:#231f20;fill-opacity:1;fill-rule:nonzero;stroke:none"
       d="m 419.22114,525.5409 c 0,28.54875 -34.42125,51.69125 -76.88125,51.69125 -42.46125,0 -76.88125,-23.1425 -76.88125,-51.69125 0,-28.54875 34.42,-51.69125 76.88125,-51.69125 42.46,0 76.88125,23.1425 76.88125,51.69125"
       inkscape:connector-curvature="0" />
    <path
       id="path5752"
       style="fill:#ffffff;fill-opacity:1;fill-rule:nonzero;stroke:none"
       d="m 415.60739,523.12965 c 0,26.70125 -32.19125,48.345 -71.9025,48.345 -39.71125,0 -71.90375,-21.64375 -71.90375,-48.345 0,-26.69875 32.1925,-48.345 71.90375,-48.345 39.71125,0 71.9025,21.64625 71.9025,48.345"
       inkscape:connector-curvature="0" />
    <path
       id="path5754"
       style="fill:#231f20;fill-opacity:1;fill-rule:nonzero;stroke:none"
       d="m 427.30864,559.23465 c 0,5.10875 -4.14375,9.25125 -9.2525,9.25125 -5.10875,0 -9.25125,-4.1425 -9.25125,-9.25125 0,-5.11 4.1425,-9.25125 9.25125,-9.25125 5.10875,0 9.2525,4.14125 9.2525,9.25125"
       inkscape:connector-curvature="0" />
    <path
       id="path5756"
       style="fill:#ffffff;fill-opacity:1;fill-rule:nonzero;stroke:none"
       d="m 425.81114,558.3159 c 0,4.0675 -3.295,7.36 -7.36125,7.36 -4.065,0 -7.36125,-3.2925 -7.36125,-7.36 0,-4.065 3.29625,-7.3625 7.36125,-7.3625 4.06625,0 7.36125,3.2975 7.36125,7.3625"
       inkscape:connector-curvature="0" />
    <path
       id="path5758"
       style="fill:#231f20;fill-opacity:1;fill-rule:nonzero;stroke:none"
       d="m 433.56739,571.92215 c 0,3.10375 -2.515,5.61875 -5.6175,5.61875 -3.10125,0 -5.61625,-2.515 -5.61625,-5.61875 0,-3.10125 2.515,-5.61625 5.61625,-5.61625 3.1025,0 5.6175,2.515 5.6175,5.61625"
       inkscape:connector-curvature="0" />
    <path
       id="path5760"
       style="fill:#ffffff;fill-opacity:1;fill-rule:nonzero;stroke:none"
       d="m 431.97989,571.4759 c 0,2.22375 -1.80375,4.02875 -4.02875,4.02875 -2.225,0 -4.03,-1.805 -4.03,-4.02875 0,-2.225 1.805,-4.03 4.03,-4.03 2.225,0 4.02875,1.805 4.02875,4.03"
       inkscape:connector-curvature="0" />
    <path
       id="path5762"
       style="fill:#231f20;fill-opacity:1;fill-rule:nonzero;stroke:none"
       d="m 436.13364,578.88715 c 0,1.77375 -1.4375,3.21125 -3.21125,3.21125 -1.775,0 -3.2125,-1.4375 -3.2125,-3.21125 0,-1.775 1.4375,-3.21375 3.2125,-3.21375 1.77375,0 3.21125,1.43875 3.21125,3.21375"
       inkscape:connector-curvature="0" />
    <path
       id="path5764"
       style="fill:#ffffff;fill-opacity:1;fill-rule:nonzero;stroke:none"
       d="m 435.22239,578.37965 c 0,1.035 -0.83875,1.87375 -1.875,1.87375 -1.03375,0 -1.87375,-0.83875 -1.87375,-1.87375 0,-1.035 0.84,-1.875 1.87375,-1.875 1.03625,0 1.875,0.84 1.875,1.875"
       inkscape:connector-curvature="0" />
  </g>
</svg>
