<?xml version="1.0" encoding="UTF-8" standalone="no"?>
<!-- Created with Inkscape (http://www.inkscape.org/) -->

<svg
   xmlns:dc="http://purl.org/dc/elements/1.1/"
   xmlns:cc="http://creativecommons.org/ns#"
   xmlns:rdf="http://www.w3.org/1999/02/22-rdf-syntax-ns#"
   xmlns:svg="http://www.w3.org/2000/svg"
   xmlns="http://www.w3.org/2000/svg"
   xmlns:sodipodi="http://sodipodi.sourceforge.net/DTD/sodipodi-0.dtd"
   xmlns:inkscape="http://www.inkscape.org/namespaces/inkscape"
   width="261.38922"
   height="161.63586"
   id="svg43060"
   version="1.1"
   inkscape:version="0.48.3.1 r9886"
   sodipodi:docname="perspec.svg">
  <defs
     id="defs43062" />
  <sodipodi:namedview
     id="base"
     pagecolor="#ffffff"
     bordercolor="#666666"
     borderopacity="1.0"
     inkscape:pageopacity="0.0"
     inkscape:pageshadow="2"
     inkscape:zoom="0.35"
     inkscape:cx="132.95023"
     inkscape:cy="96.153757"
     inkscape:document-units="px"
     inkscape:current-layer="layer1"
     showgrid="false"
     fit-margin-top="0"
     fit-margin-left="0"
     fit-margin-right="0"
     fit-margin-bottom="0"
     inkscape:window-width="577"
     inkscape:window-height="702"
     inkscape:window-x="687"
     inkscape:window-y="48"
     inkscape:window-maximized="0" />
  <metadata
     id="metadata43065">
    <rdf:RDF>
      <cc:Work
         rdf:about="">
        <dc:format>image/svg+xml</dc:format>
        <dc:type
           rdf:resource="http://purl.org/dc/dcmitype/StillImage" />
        <dc:title />
      </cc:Work>
    </rdf:RDF>
  </metadata>
  <g
     inkscape:label="Capa 1"
     inkscape:groupmode="layer"
     id="layer1"
     transform="translate(-217.04978,-466.88005)">
    <path
       id="path5766"
       style="fill:#231f20;fill-opacity:1;fill-rule:nonzero;stroke:none"
       d="m 478.43899,577.03966 c 0,14.08875 -9.87,24.02125 -22.04875,22.1825 l -219.96375,-33.1925 c -12.175,-1.8375 -20.7675,-10.63375 -19.19,-19.6475 l 9.56375,-54.6525 c 1.5775,-9.0125 12.155,-16.6675 23.6275,-17.095 l 207.24,-7.7425 c 11.4725,-0.43 20.77125,10.64375 20.77125,24.73 l 0,85.4175"
       inkscape:connector-curvature="0" />
    <path
       id="path5768"
       style="fill:#231f20;fill-opacity:1;fill-rule:nonzero;stroke:none"
       d="m 269.53649,558.02841 29.71375,70.4875 9.64,-62.44125 -39.35375,-8.04625"
       inkscape:connector-curvature="0" />
    <path
       id="path5770"
       style="fill:#e9e9e9;fill-opacity:1;fill-rule:nonzero;stroke:none"
       d="m 465.09024,568.10591 c 0,12.14625 -8.51,20.71 -19.01,19.12625 l -207.1675,-28.62 c -10.4975,-1.58375 -17.905,-9.16875 -16.545,-16.94 l 8.245,-47.12 c 1.36,-7.77125 10.48,-14.37125 20.37125,-14.74 l 196.1975,-6.675 c 9.89125,-0.37125 17.90875,9.17625 17.90875,21.3225 l 0,73.64625"
       inkscape:connector-curvature="0" />
    <path
       id="path5772"
       style="fill:#e9e9e9;fill-opacity:1;fill-rule:nonzero;stroke:none"
       d="m 265.93524,533.16091 29.715,70.48625 9.63875,-62.44125 -39.35375,-8.045"
       inkscape:connector-curvature="0" />
  </g>
</svg>
