<?xml version="1.0" encoding="UTF-8" standalone="no"?>
<!-- Created with Inkscape (http://www.inkscape.org/) -->

<svg
   xmlns:dc="http://purl.org/dc/elements/1.1/"
   xmlns:cc="http://creativecommons.org/ns#"
   xmlns:rdf="http://www.w3.org/1999/02/22-rdf-syntax-ns#"
   xmlns:svg="http://www.w3.org/2000/svg"
   xmlns="http://www.w3.org/2000/svg"
   xmlns:sodipodi="http://sodipodi.sourceforge.net/DTD/sodipodi-0.dtd"
   xmlns:inkscape="http://www.inkscape.org/namespaces/inkscape"
   width="233.11409"
   height="75.869057"
   id="svg2"
   version="1.1"
   inkscape:version="0.48.3.1 r9886"
   sodipodi:docname="bigote4.svg">
  <defs
     id="defs4">
    <linearGradient
       gradientTransform="translate(168.81267,-92.436077)"
       y2="202.92909"
       x2="488.72571"
       y1="202.92909"
       x1="452.133"
       gradientUnits="userSpaceOnUse"
       id="path1930_4_">
      <stop
         id="stop664"
         style="stop-color:#EBF4F7"
         offset="0.0056" />
      <stop
         id="stop666"
         style="stop-color:#CFD2E2"
         offset="1" />
    </linearGradient>
  </defs>
  <sodipodi:namedview
     id="base"
     pagecolor="#ffffff"
     bordercolor="#666666"
     borderopacity="1.0"
     inkscape:pageopacity="0.0"
     inkscape:pageshadow="2"
     inkscape:zoom="0.35"
     inkscape:cx="116.99423"
     inkscape:cy="36.448958"
     inkscape:document-units="px"
     inkscape:current-layer="layer1"
     showgrid="false"
     fit-margin-top="0"
     fit-margin-left="0"
     fit-margin-right="0"
     fit-margin-bottom="0"
     inkscape:window-width="552"
     inkscape:window-height="752"
     inkscape:window-x="65"
     inkscape:window-y="24"
     inkscape:window-maximized="0" />
  <metadata
     id="metadata7">
    <rdf:RDF>
      <cc:Work
         rdf:about="">
        <dc:format>image/svg+xml</dc:format>
        <dc:type
           rdf:resource="http://purl.org/dc/dcmitype/StillImage" />
        <dc:title></dc:title>
      </cc:Work>
    </rdf:RDF>
  </metadata>
  <g
     inkscape:label="Capa 1"
     inkscape:groupmode="layer"
     id="layer1"
     transform="translate(-233.00575,-492.94203)">
    <g
       transform="translate(3.1282907,-441.16733)"
       inkscape:label="Layer 1"
       id="layer1-87">
      <g
         inkscape:export-ydpi="90"
         inkscape:export-xdpi="90"
         id="g6846">
        <g
           inkscape:label="Capa 1"
           id="layer1-4"
           transform="translate(608.2923,-216.81779)">
          <g
             inkscape:label="Capa 1"
             id="layer1-0"
             transform="translate(-464.26829,9.26096)">
            <g
               transform="matrix(2,0,0,2,-125.03069,-1240.877)"
               id="g7230">
              <g
                 inkscape:label="Capa 1"
                 id="layer1-5"
                 transform="matrix(0.5,0,0,0.5,198.03499,723.12882)">
                <g
                   id="g3815">
                  <g
                     inkscape:label="Capa 1"
                     id="layer1-8"
                     transform="translate(-509.47265,-858.01422)">
                    <g
                       id="g4403">
                      <g
                         id="g5615">
                        <g
                           inkscape:label="Capa 1"
                           id="layer1-9"
                           transform="translate(34.810242,624.88049)">
                          <g
                             id="g4728"
                             transform="matrix(0.86372251,0,0,0.75945223,-6.6412836,551.71009)">
                            <g
                               inkscape:label="Capa 1"
                               id="layer1-42"
                               transform="matrix(1.1577793,0,0,1.3167385,-36.133084,-705.63507)">
                              <g
                                 id="g5224"
                                 transform="matrix(0.88307479,0,0,0.70910051,43.988222,438.13275)">
                                <g
                                   inkscape:label="Capa 1"
                                   id="layer1-02"
                                   transform="matrix(1.1324069,0,0,1.4102373,58.462682,-691.18829)">
                                <g
                                   id="g5286"
                                   transform="matrix(1.127305,0,0,1.127305,-48.449071,-93.350364)">
                                <g
                                   inkscape:label="Layer 1"
                                   id="layer1-7"
                                   transform="matrix(0.88707135,0,0,0.8870714,15.021825,628.39384)">
                                <g
                                   id="g5030"
                                   transform="matrix(1.5713649,0,0,1.5551129,-182.98344,-134.01333)">
                                <g
                                   inkscape:label="Capa 1"
                                   id="layer1-72"
                                   transform="matrix(0.63638942,0,0,0.64304013,66.223794,-101.46956)">
                                <g
                                   transform="translate(66.411606,232.19706)"
                                   id="layer1-06"
                                   inkscape:label="Layer 1">
                                <g
                                   inkscape:label="Capa 1"
                                   id="layer1-85"
                                   transform="translate(-63.980856,-142.78077)">
                                <g
                                   id="g11416">
                                <g
                                   id="layer1-1"
                                   inkscape:label="Layer 1"
                                   transform="translate(-1051.8062,-2761.3737)">
                                <g
                                   id="g12903">
                                <g
                                   transform="matrix(2,0,0,2,-1689.5,-3023.4999)"
                                   id="g12881">
                                <g
                                   id="layer1-41"
                                   inkscape:label="Layer 1"
                                   transform="matrix(0.5,0,0,0.5,1445.6768,3035.6911)">
                                <g
                                   id="g36550"
                                   transform="matrix(1.5803703,0,0,1.5783361,-185.78827,-139.12469)">
                                <g
                                   transform="matrix(0.6327631,0,0,0.63357861,253.98729,172.72975)"
                                   id="g16139">
                                <g
                                   transform="translate(32.646514,64.302354)"
                                   id="g17122"
                                   style="display:inline">
                                <g
                                   transform="translate(230.67166,48.649982)"
                                   id="g17985"
                                   style="display:inline">
                                <g
                                   id="layer51"
                                   inkscape:label="glasses04"
                                   style="display:none">
                                <g
                                   id="g3293">
                                <g
                                   id="g3286">
                                <path
                                   inkscape:connector-curvature="0"
                                   style="fill:#555753;fill-opacity:1;stroke:none"
                                   d="m 264.4181,212.78125 c -32.31852,0 -58.5431,20.04591 -58.5431,44.75 0,24.70409 26.22459,44.75001 58.5431,44.75 32.31853,0 58.54309,-20.0459 58.54311,-44.75 0,-24.70409 -26.22457,-44.75 -58.54311,-44.75 z"
                                   id="path3274" />
                                <path
                                   sodipodi:type="arc"
                                   style="fill:none;stroke:#555753;stroke-width:31.03476334;stroke-linecap:round;stroke-linejoin:round;stroke-miterlimit:4;stroke-opacity:1;stroke-dasharray:none"
                                   id="path3253"
                                   sodipodi:cx="-100"
                                   sodipodi:cy="152.10728"
                                   sodipodi:rx="27.969349"
                                   sodipodi:ry="12.643678"
                                   d="m -72.030651,152.10728 c 0,6.98291 -12.522304,12.64368 -27.969349,12.64368 -15.44704,0 -27.96935,-5.66077 -27.96935,-12.64368 0,0 0,0 0,0"
                                   sodipodi:start="0"
                                   sodipodi:end="3.1415927"
                                   sodipodi:open="true"
                                   transform="matrix(0.298049,0,0,-0.1549048,229.03861,284.77197)" />
                                <path
                                   inkscape:connector-curvature="0"
                                   style="fill:#555753;fill-opacity:1;stroke:none"
                                   d="m 136.41811,212.78125 c 32.31852,0 58.5431,20.04591 58.5431,44.75 0,24.70409 -26.22459,44.75001 -58.5431,44.75 -32.31853,0 -58.54309,-20.0459 -58.54311,-44.75 0,-24.70409 26.22457,-44.75 58.54311,-44.75 z"
                                   id="path3270" />
                                </g>
                                <path
                                   inkscape:connector-curvature="0"
                                   style="fill:#d3d7cf;fill-opacity:1;stroke:none"
                                   d="m 157.8581,226.57435 c 10.73549,0 19.4467,6.6588 19.4467,14.86494 0,8.20615 -8.71122,14.86495 -19.4467,14.86495 -10.73548,0 -19.44669,-6.6588 -19.4467,-14.86495 0,-8.20614 8.71121,-14.86494 19.4467,-14.86494 z"
                                   id="path3284" />
                                <path
                                   inkscape:connector-curvature="0"
                                   id="path3291"
                                   d="m 287.36002,228.10692 c 10.73549,0 19.4467,6.6588 19.4467,14.86494 0,8.20615 -8.71122,14.86495 -19.4467,14.86495 -10.73548,0 -19.44669,-6.6588 -19.4467,-14.86495 0,-8.20614 8.71121,-14.86494 19.4467,-14.86494 z"
                                   style="fill:#d3d7cf;fill-opacity:1;stroke:none" />
                                </g>
                                </g>
                                </g>
                                <g
                                   transform="translate(-141.0602,79.923369)"
                                   inkscape:label="Layer 1"
                                   id="layer1-3">
                                <g
                                   style="overflow:visible"
                                   id="g3350"
                                   transform="matrix(6.2215604,0,0,6.2215604,-1677.0559,-1569.5047)">
                                <g
                                   inkscape:label="Layer 1"
                                   id="g3352">
                                <linearGradient
                                   gradientTransform="matrix(1,0,0,-1,-103.7402,669.2354)"
                                   y2="356.91599"
                                   x2="350.96329"
                                   y1="356.91599"
                                   x1="344.9473"
                                   gradientUnits="userSpaceOnUse"
                                   id="linearGradient3354">
                                <stop
                                   id="stop3356"
                                   style="stop-color:#C17D11"
                                   offset="0" />
                                <stop
                                   id="stop3358"
                                   style="stop-color:#E9B96E"
                                   offset="1" />
                                </linearGradient>
                                <linearGradient
                                   gradientTransform="matrix(0.4187,0,0,-0.4187,62.6646,711.7626)"
                                   y2="1042.7896"
                                   x2="378.0538"
                                   y1="1107.4297"
                                   x1="319.35059"
                                   gradientUnits="userSpaceOnUse"
                                   id="linearGradient3360">
                                <stop
                                   id="stop3362"
                                   style="stop-color:#F0DAD4"
                                   offset="0" />
                                <stop
                                   id="stop3364"
                                   style="stop-color:#E4B8AD"
                                   offset="1" />
                                </linearGradient>
                                <linearGradient
                                   gradientTransform="matrix(0.4187,0,0,-0.4187,59.8071,601.9989)"
                                   y2="901.81659"
                                   x2="373.60489"
                                   y1="966.45697"
                                   x1="314.9014"
                                   gradientUnits="userSpaceOnUse"
                                   id="linearGradient3366">
                                <stop
                                   id="stop3368"
                                   style="stop-color:#F0DAD4"
                                   offset="0" />
                                <stop
                                   id="stop3370"
                                   style="stop-color:#E4B8AD"
                                   offset="1" />
                                </linearGradient>
                                <linearGradient
                                   gradientTransform="matrix(0.4187,0,0,-0.4187,-57.2192,609.7821)"
                                   y2="914.51422"
                                   x2="532.32428"
                                   y1="979.1543"
                                   x1="473.62109"
                                   gradientUnits="userSpaceOnUse"
                                   id="linearGradient3372">
                                <stop
                                   id="stop3374"
                                   style="stop-color:#F0DAD4"
                                   offset="0" />
                                <stop
                                   id="stop3376"
                                   style="stop-color:#E4B8AD"
                                   offset="1" />
                                </linearGradient>
                                </g>
                                <g
                                   transform="translate(-168.81267,92.436077)"
                                   id="g5533_2_">
                                <linearGradient
                                   gradientTransform="translate(168.81267,-92.436077)"
                                   y2="202.92909"
                                   x2="488.72571"
                                   y1="202.92909"
                                   x1="452.133"
                                   gradientUnits="userSpaceOnUse"
                                   id="linearGradient68778">
                                <stop
                                   id="stop68780"
                                   style="stop-color:#EBF4F7"
                                   offset="0.0056" />
                                <stop
                                   id="stop68782"
                                   style="stop-color:#CFD2E2"
                                   offset="1" />
                                </linearGradient>
                                <path
                                   inkscape:connector-curvature="0"
                                   style="fill:url(#path1930_4_);stroke:#000000"
                                   d="m 467.577,197.078 c -0.703,0.048 -4.008,0.758 -4.898,1.604 -6.641,6.126 -8.082,7.333 -10.063,7.663 -0.172,0.028 -0.304,0.076 -0.38,0.117 -0.014,0.007 -0.033,0.021 -0.043,0.029 -0.005,0.004 -0.012,0.011 -0.015,0.014 -0.003,0.002 -0.014,0.013 -0.016,0.015 -0.003,0.004 -0.012,0.01 -0.015,0.014 -10e-4,0.002 0,0.012 0,0.015 -0.002,0.007 -0.014,0.022 -0.015,0.03 0,0.001 0,0.012 0,0.014 10e-4,0.005 0.014,0.01 0.015,0.015 0,0.002 -10e-4,0.012 0,0.014 0.003,0.007 0.01,0.022 0.015,0.03 0.002,0.002 0.013,0.012 0.016,0.015 0.386,0.474 4.227,2.738 5.912,1.96 2.143,-0.989 9.1,-6.533 11.57,-7.031 0.004,0.001 1.864,0 1.869,0 2.471,0.499 8.538,5.242 10.681,6.23 1.617,0.747 5.84,-1.434 6.428,-1.899 0.02,-0.017 0.045,-0.042 0.059,-0.059 0.002,-0.002 0.013,-0.012 0.015,-0.014 0.005,-0.007 0.012,-0.022 0.015,-0.029 0,-0.002 -10e-4,-0.013 0,-0.015 0,-0.002 0,-0.012 0,-0.015 0,-0.003 0,-0.012 0,-0.015 0,-0.002 0,-0.012 0,-0.014 -10e-4,-0.002 0,-0.012 0,-0.015 -10e-4,-0.002 0.001,-0.013 0,-0.015 -0.003,-0.003 -0.013,-0.01 -0.015,-0.014 -0.002,-0.002 -0.013,-0.013 -0.015,-0.015 -0.002,-0.002 -0.013,-0.013 -0.014,-0.015 -0.07,-0.053 -0.215,-0.111 -0.424,-0.146 -1.982,-0.331 -3.665,-1.525 -9.452,-7.119 -2.368,-2.249 -7.408,-1.125 -8.222,-0.2 -0.003,-0.003 -0.014,0.001 -0.015,0 -0.508,-0.577 -1.828,-1.229 -2.993,-1.149 z"
                                   id="path1930_2_" />
                                <path
                                   inkscape:connector-curvature="0"
                                   d="m 465.482,199.422 c -0.677,0.339 -7.34,4.641 -7.961,5.024 -0.306,0.189 -0.599,0.386 -0.89,0.586 l 0.003,0.008 -0.181,0.112 -0.231,0.157 c -0.077,0.054 -0.153,0.11 -0.229,0.165 -0.725,0.517 -1.437,1.044 -2.196,1.537 -0.128,0.083 -0.221,0.145 -0.301,0.197 l 0.054,0.069 c 2.119,-1.349 4.697,-3.111 4.961,-3.258 0.002,0 0.014,-0.003 0.015,-0.004 l 6.956,-4.593 z m 14.319,1.461 1.302,0.993 c 0.002,0.001 0.02,0.01 0.021,0.011 0.359,0.226 3.612,2.569 6.512,4.578 l 0.226,0.035 c -1.823,-1.27 -3.425,-2.574 -5.299,-3.835 -0.891,-0.6 -1.773,-1.2 -2.762,-1.782 z m -5.451,0.236 c 0.8,0.608 1.732,1.216 2.638,1.812 0.172,0.113 0.354,0.231 0.531,0.344 0.007,0.004 0.017,0.012 0.024,0.018 l 3.326,1.866 c -2.416,-1.523 -4.638,-2.904 -4.888,-3.08 l -1.631,-0.96 z m 7.212,2.617 c 0.508,0.478 1.12,0.942 1.724,1.403 1.108,0.844 2.098,1.452 2.771,1.899 l 0.375,0.124 c -1.79,-1.295 -3.569,-2.544 -3.748,-2.694 -0.001,0 -0.014,-0.006 -0.016,-0.007 l -1.106,-0.725 z m -13.901,-0.866 -1.095,0.438 c 1.166,-0.733 -6.272,3.053 -10.715,5.241 l 0.059,0.015 0.321,-0.015 c 1.061,-0.457 2.156,-0.858 3.167,-1.401 1.326,-0.712 8.339,-4.335 8.263,-4.278 z m -10.041,2.691 -1.064,0.611 c -0.091,0.069 -1.489,0.976 -2.192,1.421 l 0.471,-0.079 0.016,-0.004 c 0.055,-0.037 0.107,-0.079 0.161,-0.116 0.589,-0.402 2.088,-1.395 2.608,-1.833 z"
                                   id="path2914_2_" />
                                </g>
                                </g>
                                </g>
                                </g>
                                </g>
                                </g>
                                </g>
                                </g>
                                </g>
                                </g>
                                </g>
                                </g>
                                </g>
                                </g>
                                </g>
                                </g>
                                </g>
                                </g>
                              </g>
                            </g>
                          </g>
                        </g>
                      </g>
                    </g>
                  </g>
                </g>
              </g>
            </g>
          </g>
        </g>
      </g>
    </g>
  </g>
</svg>
