<?xml version="1.0" encoding="UTF-8" standalone="no"?>
<!-- Created with Inkscape (http://www.inkscape.org/) -->

<svg
   xmlns:dc="http://purl.org/dc/elements/1.1/"
   xmlns:cc="http://creativecommons.org/ns#"
   xmlns:rdf="http://www.w3.org/1999/02/22-rdf-syntax-ns#"
   xmlns:svg="http://www.w3.org/2000/svg"
   xmlns="http://www.w3.org/2000/svg"
   xmlns:sodipodi="http://sodipodi.sourceforge.net/DTD/sodipodi-0.dtd"
   xmlns:inkscape="http://www.inkscape.org/namespaces/inkscape"
   width="154.25722"
   height="47.795235"
   id="svg2"
   version="1.1"
   inkscape:version="0.48.3.1 r9886"
   sodipodi:docname="barba14.svg">
  <defs
     id="defs4" />
  <sodipodi:namedview
     id="base"
     pagecolor="#ffffff"
     bordercolor="#666666"
     borderopacity="1.0"
     inkscape:pageopacity="0.0"
     inkscape:pageshadow="2"
     inkscape:zoom="0.35"
     inkscape:cx="77.13105"
     inkscape:cy="23.874688"
     inkscape:document-units="px"
     inkscape:current-layer="layer1"
     showgrid="false"
     fit-margin-top="0"
     fit-margin-left="0"
     fit-margin-right="0"
     fit-margin-bottom="0"
     inkscape:window-width="552"
     inkscape:window-height="752"
     inkscape:window-x="65"
     inkscape:window-y="24"
     inkscape:window-maximized="0" />
  <metadata
     id="metadata7">
    <rdf:RDF>
      <cc:Work
         rdf:about="">
        <dc:format>image/svg+xml</dc:format>
        <dc:type
           rdf:resource="http://purl.org/dc/dcmitype/StillImage" />
        <dc:title></dc:title>
      </cc:Work>
    </rdf:RDF>
  </metadata>
  <g
     inkscape:label="Capa 1"
     inkscape:groupmode="layer"
     id="layer1"
     transform="translate(-272.86894,-508.44159)">
    <g
       transform="translate(-126.94063,-360.44543)"
       inkscape:label="Layer 1"
       id="layer1-6">
      <g
         inkscape:export-ydpi="90"
         inkscape:export-xdpi="90"
         id="g6846">
        <g
           inkscape:label="Capa 1"
           id="layer1-4"
           transform="translate(608.2923,-216.81779)">
          <g
             inkscape:label="Capa 1"
             id="layer1-0"
             transform="translate(-464.26829,9.26096)">
            <g
               transform="matrix(2,0,0,2,-125.03069,-1240.877)"
               id="g7230">
              <g
                 inkscape:label="Capa 1"
                 id="layer1-5"
                 transform="matrix(0.5,0,0,0.5,198.03499,723.12882)">
                <g
                   id="g3815">
                  <g
                     inkscape:label="Capa 1"
                     id="layer1-8"
                     transform="translate(-509.47265,-858.01422)">
                    <g
                       id="g4403">
                      <g
                         id="g5615">
                        <g
                           inkscape:label="Capa 1"
                           id="layer1-9"
                           transform="translate(34.810242,624.88049)">
                          <g
                             id="g4728"
                             transform="matrix(0.86372251,0,0,0.75945223,-6.6412836,551.71009)">
                            <g
                               inkscape:label="Capa 1"
                               id="layer1-42"
                               transform="matrix(1.1577793,0,0,1.3167385,-36.133084,-705.63507)">
                              <g
                                 id="g5224"
                                 transform="matrix(0.88307479,0,0,0.70910051,43.988222,438.13275)">
                                <g
                                   inkscape:label="Capa 1"
                                   id="layer1-02"
                                   transform="matrix(1.1324069,0,0,1.4102373,58.462682,-691.18829)">
                                <g
                                   id="g5286"
                                   transform="matrix(1.127305,0,0,1.127305,-48.449071,-93.350364)">
                                <g
                                   inkscape:label="Layer 1"
                                   id="layer1-7"
                                   transform="matrix(0.88707135,0,0,0.8870714,15.021825,628.39384)">
                                <g
                                   id="g5030"
                                   transform="matrix(1.5713649,0,0,1.5551129,-182.98344,-134.01333)">
                                <g
                                   inkscape:label="Capa 1"
                                   id="layer1-72"
                                   transform="matrix(0.63638942,0,0,0.64304013,66.223794,-101.46956)">
                                <g
                                   transform="translate(66.411606,232.19706)"
                                   id="layer1-06"
                                   inkscape:label="Layer 1">
                                <g
                                   inkscape:label="Capa 1"
                                   id="layer1-85"
                                   transform="translate(-63.980856,-142.78077)">
                                <g
                                   id="g11416">
                                <g
                                   id="layer1-1"
                                   inkscape:label="Layer 1"
                                   transform="translate(-1051.8062,-2761.3737)">
                                <g
                                   id="g12903">
                                <g
                                   transform="matrix(2,0,0,2,-1689.5,-3023.4999)"
                                   id="g12881">
                                <g
                                   id="layer1-41"
                                   inkscape:label="Layer 1"
                                   transform="matrix(0.5,0,0,0.5,1445.6768,3035.6911)">
                                <g
                                   id="g36550"
                                   transform="matrix(1.5803703,0,0,1.5783361,-185.78827,-139.12469)">
                                <g
                                   transform="matrix(0.6327631,0,0,0.63357861,253.98729,172.72975)"
                                   id="g16139">
                                <g
                                   transform="translate(32.646514,64.302354)"
                                   id="g17122"
                                   style="display:inline">
                                <g
                                   transform="translate(230.67166,48.649982)"
                                   id="g17985"
                                   style="display:inline">
                                <g
                                   id="layer51"
                                   inkscape:label="glasses04"
                                   style="display:none">
                                <g
                                   id="g3293">
                                <g
                                   id="g3286">
                                <path
                                   inkscape:connector-curvature="0"
                                   style="fill:#555753;fill-opacity:1;stroke:none"
                                   d="m 264.4181,212.78125 c -32.31852,0 -58.5431,20.04591 -58.5431,44.75 0,24.70409 26.22459,44.75001 58.5431,44.75 32.31853,0 58.54309,-20.0459 58.54311,-44.75 0,-24.70409 -26.22457,-44.75 -58.54311,-44.75 z"
                                   id="path3274" />
                                <path
                                   sodipodi:type="arc"
                                   style="fill:none;stroke:#555753;stroke-width:31.03476334;stroke-linecap:round;stroke-linejoin:round;stroke-miterlimit:4;stroke-opacity:1;stroke-dasharray:none"
                                   id="path3253"
                                   sodipodi:cx="-100"
                                   sodipodi:cy="152.10728"
                                   sodipodi:rx="27.969349"
                                   sodipodi:ry="12.643678"
                                   d="m -72.030651,152.10728 c 0,6.98291 -12.522304,12.64368 -27.969349,12.64368 -15.44704,0 -27.96935,-5.66077 -27.96935,-12.64368 0,0 0,0 0,0"
                                   sodipodi:start="0"
                                   sodipodi:end="3.1415927"
                                   sodipodi:open="true"
                                   transform="matrix(0.298049,0,0,-0.1549048,229.03861,284.77197)" />
                                <path
                                   inkscape:connector-curvature="0"
                                   style="fill:#555753;fill-opacity:1;stroke:none"
                                   d="m 136.41811,212.78125 c 32.31852,0 58.5431,20.04591 58.5431,44.75 0,24.70409 -26.22459,44.75001 -58.5431,44.75 -32.31853,0 -58.54309,-20.0459 -58.54311,-44.75 0,-24.70409 26.22457,-44.75 58.54311,-44.75 z"
                                   id="path3270" />
                                </g>
                                <path
                                   inkscape:connector-curvature="0"
                                   style="fill:#d3d7cf;fill-opacity:1;stroke:none"
                                   d="m 157.8581,226.57435 c 10.73549,0 19.4467,6.6588 19.4467,14.86494 0,8.20615 -8.71122,14.86495 -19.4467,14.86495 -10.73548,0 -19.44669,-6.6588 -19.4467,-14.86495 0,-8.20614 8.71121,-14.86494 19.4467,-14.86494 z"
                                   id="path3284" />
                                <path
                                   inkscape:connector-curvature="0"
                                   id="path3291"
                                   d="m 287.36002,228.10692 c 10.73549,0 19.4467,6.6588 19.4467,14.86494 0,8.20615 -8.71122,14.86495 -19.4467,14.86495 -10.73548,0 -19.44669,-6.6588 -19.4467,-14.86495 0,-8.20614 8.71121,-14.86494 19.4467,-14.86494 z"
                                   style="fill:#d3d7cf;fill-opacity:1;stroke:none" />
                                </g>
                                </g>
                                </g>
                                <g
                                   transform="translate(-11.367232,8.8931338)"
                                   inkscape:label="Layer 1"
                                   id="layer1-54">
                                <g
                                   id="g5533"
                                   transform="matrix(2.9574504,0,0,2.9574504,-1551.7502,-1046.3861)">
                                <path
                                   inkscape:connector-curvature="0"
                                   id="path1930"
                                   d="m 586.82867,433.47637 c -1.50475,0.10305 -3.25038,0.84567 -5.15625,2.65625 -7.07107,6.71753 -9.88236,9.88665 -14.125,10.59375 -0.3646,0.0608 -0.64922,0.16239 -0.8125,0.25 -0.0281,0.0161 -0.0717,0.0457 -0.0937,0.0625 -0.0103,0.008 -0.0225,0.0226 -0.0313,0.0313 -0.004,0.004 -0.0276,0.0269 -0.0313,0.0313 -0.007,0.009 -0.0261,0.0222 -0.0313,0.0313 -0.002,0.005 0.002,0.0267 0,0.0313 -0.004,0.0138 -0.0299,0.0484 -0.0313,0.0625 -1.1e-4,0.005 -2.3e-4,0.0265 0,0.0313 10e-4,0.01 0.0288,0.0216 0.0313,0.0313 0.002,0.005 -0.002,0.0264 0,0.0313 0.007,0.0148 0.0217,0.0475 0.0313,0.0625 0.004,0.005 0.0274,0.0262 0.0313,0.0313 0.82895,1.0146 7.92252,2.41557 11.53125,0.75 4.58774,-2.11742 8.83533,-5.30852 14.125,-6.375 0.01,0.002 0.0215,-0.002 0.0313,0 5.28967,1.06648 9.53726,4.25758 14.125,6.375 3.4651,1.59928 10.14612,0.37239 11.40625,-0.625 0.0437,-0.0361 0.0961,-0.0897 0.125,-0.125 0.004,-0.005 0.0277,-0.0262 0.0313,-0.0313 0.01,-0.015 0.0246,-0.0477 0.0313,-0.0625 0.002,-0.005 -0.002,-0.0264 0,-0.0313 0.001,-0.005 -9e-4,-0.0264 0,-0.0313 2.3e-4,-0.005 1.1e-4,-0.0265 0,-0.0313 -4.5e-4,-0.005 8e-4,-0.0266 0,-0.0313 -10e-4,-0.005 0.001,-0.0266 0,-0.0313 -0.002,-0.005 0.002,-0.0267 0,-0.0313 -0.005,-0.009 -0.0247,-0.0224 -0.0313,-0.0313 -0.004,-0.004 -0.0272,-0.0269 -0.0313,-0.0313 -0.004,-0.004 -0.0265,-0.027 -0.0313,-0.0313 -0.14862,-0.11348 -0.45878,-0.23792 -0.90625,-0.3125 -4.24264,-0.7071 -7.05393,-3.87622 -14.125,-10.59375 -5.06852,-4.81509 -8.84966,-1.98029 -10.59375,0 -0.005,-0.005 -0.0265,0.005 -0.0313,0 -1.08828,-1.23566 -2.94049,-2.82726 -5.4375,-2.65625 z"
                                   style="fill:#c17d11;fill-opacity:1;fill-rule:evenodd;stroke:#000000;stroke-width:0.67625815;stroke-linecap:butt;stroke-linejoin:miter;stroke-miterlimit:4;stroke-opacity:1;stroke-dasharray:none" />
                                <path
                                   inkscape:connector-curvature="0"
                                   id="path2914"
                                   d="m 580.68866,440.35137 c -1.4832,0.43218 -2.91223,1.08453 -4.3125,1.71875 -0.6922,0.31352 -1.36108,0.66815 -2.03125,1.03125 l 0,0.0313 -0.40625,0.1875 -0.53125,0.28125 c -0.17707,0.10054 -0.3548,0.21055 -0.53125,0.3125 -1.67625,0.96853 -3.33394,1.98993 -5.0625,2.84375 -0.29354,0.145 -0.5047,0.25444 -0.6875,0.34375 l 0.0625,0.28125 c 4.80534,-2.3013 10.7265,-5.49974 11.3125,-5.71875 0.003,0 0.0279,-1.6e-4 0.0313,0 l 2.15625,-1.3125 z m 23.71875,0.75 2.15625,1.3125 c 0.003,-1.6e-4 0.0284,0 0.0313,0 0.55101,0.20593 5.816,3.03089 10.4375,5.28125 l 0.25,-0.21875 c -2.91125,-1.43802 -5.64035,-3.31856 -8.59375,-4.65625 -1.40028,-0.63422 -2.79805,-1.28657 -4.28125,-1.71875 z m -6.625,0.8125 c 1.02512,1.15577 2.23398,2.16187 3.40625,3.15625 0.22214,0.18843 0.45919,0.3809 0.6875,0.5625 0.01,0.008 0.0213,0.0234 0.0313,0.0313 l 4.34375,2.5625 c -3.13458,-2.43086 -6.02149,-4.59292 -6.34375,-4.90625 l -2.125,-1.40625 z m 7.0625,1.40625 c 1.24362,0.91654 2.61488,1.64698 3.96875,2.375 1.90248,1.02301 3.95643,1.7909 5.96875,2.625 l 0.65625,-0.0937 c -3.93563,-1.92214 -7.80287,-3.70743 -8.21875,-3.96875 -0.003,5e-5 -0.0278,-3.3e-4 -0.0313,0 l -2.34375,-0.9375 z m -21.1875,0.28125 -2.34375,0.9375 c -0.45033,0.28309 -4.95945,2.33888 -9.21875,4.4375 l 0.125,0.0313 0.6875,-0.0313 c 2.27359,-0.97894 4.61934,-1.83748 6.78125,-3 1.35388,-0.72802 2.72512,-1.45845 3.96875,-2.375 z m -8.78125,2.46875 -2.375,0.9375 c -0.21494,0.13522 -1.37618,0.68338 -2.96875,1.4375 l 0.9375,0.21875 0.0313,0 c 0.12598,-0.0653 0.25007,-0.15157 0.375,-0.21875 1.35388,-0.72802 2.75637,-1.45845 4,-2.375 z"
                                   style="fill:#000000;fill-opacity:1;fill-rule:nonzero;stroke:none" />
                                </g>
                                </g>
                                </g>
                                </g>
                                </g>
                                </g>
                                </g>
                                </g>
                                </g>
                                </g>
                                </g>
                                </g>
                                </g>
                                </g>
                                </g>
                                </g>
                                </g>
                              </g>
                            </g>
                          </g>
                        </g>
                      </g>
                    </g>
                  </g>
                </g>
              </g>
            </g>
          </g>
        </g>
      </g>
    </g>
  </g>
</svg>
