<?xml version="1.0" encoding="UTF-8" standalone="no"?>
<!-- Created with Inkscape (http://www.inkscape.org/) -->

<svg
   xmlns:dc="http://purl.org/dc/elements/1.1/"
   xmlns:cc="http://creativecommons.org/ns#"
   xmlns:rdf="http://www.w3.org/1999/02/22-rdf-syntax-ns#"
   xmlns:svg="http://www.w3.org/2000/svg"
   xmlns="http://www.w3.org/2000/svg"
   xmlns:sodipodi="http://sodipodi.sourceforge.net/DTD/sodipodi-0.dtd"
   xmlns:inkscape="http://www.inkscape.org/namespaces/inkscape"
   width="204.96989"
   height="55.470467"
   id="svg2"
   version="1.1"
   inkscape:version="0.48.3.1 r9886"
   sodipodi:docname="boca2.svg">
  <defs
     id="defs4">
    <linearGradient
       gradientTransform="translate(168.81267,-92.436077)"
       y2="202.92909"
       x2="488.72571"
       y1="202.92909"
       x1="452.133"
       gradientUnits="userSpaceOnUse"
       id="path1930_4_">
      <stop
         id="stop664"
         style="stop-color:#EBF4F7"
         offset="0.0056" />
      <stop
         id="stop666"
         style="stop-color:#CFD2E2"
         offset="1" />
    </linearGradient>
    <linearGradient
       gradientTransform="matrix(-1,0,0,1,2199.1117,-92.436077)"
       y2="235.85139"
       x2="1577.5187"
       y1="235.85139"
       x1="1544.0988"
       gradientUnits="userSpaceOnUse"
       id="path1930_5_">
      <stop
         id="stop672"
         style="stop-color:#EBF4F7"
         offset="0.0056" />
      <stop
         id="stop674"
         style="stop-color:#CFD2E2"
         offset="1" />
    </linearGradient>
  </defs>
  <sodipodi:namedview
     id="base"
     pagecolor="#ffffff"
     bordercolor="#666666"
     borderopacity="1.0"
     inkscape:pageopacity="0.0"
     inkscape:pageshadow="2"
     inkscape:zoom="0.35"
     inkscape:cx="102.44102"
     inkscape:cy="27.756867"
     inkscape:document-units="px"
     inkscape:current-layer="layer1"
     showgrid="false"
     fit-margin-top="0"
     fit-margin-left="0"
     fit-margin-right="0"
     fit-margin-bottom="0"
     inkscape:window-width="552"
     inkscape:window-height="752"
     inkscape:window-x="65"
     inkscape:window-y="24"
     inkscape:window-maximized="0" />
  <metadata
     id="metadata7">
    <rdf:RDF>
      <cc:Work
         rdf:about="">
        <dc:format>image/svg+xml</dc:format>
        <dc:type
           rdf:resource="http://purl.org/dc/dcmitype/StillImage" />
        <dc:title></dc:title>
      </cc:Work>
    </rdf:RDF>
  </metadata>
  <g
     inkscape:label="Capa 1"
     inkscape:groupmode="layer"
     id="layer1"
     transform="translate(-247.55896,-504.64853)">
    <g
       transform="translate(96.086774,-386.84489)"
       inkscape:label="Layer 1"
       id="layer1-16">
      <g
         inkscape:export-ydpi="90"
         inkscape:export-xdpi="90"
         id="g6846">
        <g
           inkscape:label="Capa 1"
           id="layer1-4"
           transform="translate(608.2923,-216.81779)">
          <g
             inkscape:label="Capa 1"
             id="layer1-0"
             transform="translate(-464.26829,9.26096)">
            <g
               transform="matrix(2,0,0,2,-125.03069,-1240.877)"
               id="g7230">
              <g
                 inkscape:label="Capa 1"
                 id="layer1-5"
                 transform="matrix(0.5,0,0,0.5,198.03499,723.12882)">
                <g
                   id="g3815">
                  <g
                     inkscape:label="Capa 1"
                     id="layer1-8"
                     transform="translate(-509.47265,-858.01422)">
                    <g
                       id="g4403">
                      <g
                         id="g5615">
                        <g
                           inkscape:label="Capa 1"
                           id="layer1-9"
                           transform="translate(34.810242,624.88049)">
                          <g
                             id="g4728"
                             transform="matrix(0.86372251,0,0,0.75945223,-6.6412836,551.71009)">
                            <g
                               inkscape:label="Capa 1"
                               id="layer1-42"
                               transform="matrix(1.1577793,0,0,1.3167385,-36.133084,-705.63507)">
                              <g
                                 id="g5224"
                                 transform="matrix(0.88307479,0,0,0.70910051,43.988222,438.13275)">
                                <g
                                   inkscape:label="Capa 1"
                                   id="layer1-02"
                                   transform="matrix(1.1324069,0,0,1.4102373,58.462682,-691.18829)">
                                <g
                                   id="g5286"
                                   transform="matrix(1.127305,0,0,1.127305,-48.449071,-93.350364)">
                                <g
                                   inkscape:label="Layer 1"
                                   id="layer1-7"
                                   transform="matrix(0.88707135,0,0,0.8870714,15.021825,628.39384)">
                                <g
                                   id="g5030"
                                   transform="matrix(1.5713649,0,0,1.5551129,-182.98344,-134.01333)">
                                <g
                                   inkscape:label="Capa 1"
                                   id="layer1-72"
                                   transform="matrix(0.63638942,0,0,0.64304013,66.223794,-101.46956)">
                                <g
                                   transform="translate(66.411606,232.19706)"
                                   id="layer1-06"
                                   inkscape:label="Layer 1">
                                <g
                                   inkscape:label="Capa 1"
                                   id="layer1-85"
                                   transform="translate(-63.980856,-142.78077)">
                                <g
                                   id="g11416">
                                <g
                                   id="layer1-1"
                                   inkscape:label="Layer 1"
                                   transform="translate(-1051.8062,-2761.3737)">
                                <g
                                   id="g12903">
                                <g
                                   transform="matrix(2,0,0,2,-1689.5,-3023.4999)"
                                   id="g12881">
                                <g
                                   id="layer1-41"
                                   inkscape:label="Layer 1"
                                   transform="matrix(0.5,0,0,0.5,1445.6768,3035.6911)">
                                <g
                                   id="g36550"
                                   transform="matrix(1.5803703,0,0,1.5783361,-185.78827,-139.12469)">
                                <g
                                   transform="matrix(0.6327631,0,0,0.63357861,253.98729,172.72975)"
                                   id="g16139">
                                <g
                                   transform="matrix(2.5256205,0,0,2.5256205,-507.17734,-396.09504)"
                                   id="g16354">
                                <path
                                   inkscape:connector-curvature="0"
                                   style="fill:#cb6262;fill-opacity:1;fill-rule:evenodd;stroke:#000000;stroke-width:0.80000001;stroke-linecap:round;stroke-linejoin:miter;stroke-miterlimit:4;stroke-opacity:0.74853803;stroke-dasharray:none"
                                   d="m 160.65116,296.11022 c 10.17991,-0.50054 22.89068,-7.52115 29.96672,-7.56403 7.21173,-0.0429 6.84574,2.04837 9.76271,2.49831 3.14957,-0.59047 3.7966,-3.38214 10.69637,-2.99719 6.90863,0.38545 18.83918,7.3197 28.49948,6.68778 -19.94511,18.85502 -27.37979,14.02494 -39.01992,13.19095 -9.60224,1.06555 -19.7074,5.29056 -39.90536,-11.81582 z"
                                   sodipodi:nodetypes="czczccc"
                                   id="path2270" />
                                <path
                                   inkscape:connector-curvature="0"
                                   style="fill:#cb6262;fill-opacity:1;fill-rule:evenodd;stroke:#000000;stroke-width:0.80000001;stroke-linecap:round;stroke-linejoin:miter;stroke-miterlimit:4;stroke-opacity:0.74853803;stroke-dasharray:none"
                                   id="path2272"
                                   sodipodi:nodetypes="cszc"
                                   d="m 160.54503,295.97825 c 11.80127,2.83344 21.46734,-3.0833 31.65977,-0.0622 7.48126,2.2175 8.65981,2.37076 15.57852,0.25889 6.79469,-2.07402 19.57157,3.28549 30.4356,-0.87274" />
                                <path
                                   inkscape:connector-curvature="0"
                                   style="opacity:0.83425413;fill:#df4e4e;fill-opacity:1;fill-rule:evenodd;stroke:#000000;stroke-width:0.80000001;stroke-linecap:round;stroke-linejoin:miter;stroke-miterlimit:4;stroke-opacity:0.74853803;stroke-dasharray:none"
                                   d="m 238.78125,295.4375 c -0.57317,0.1203 -1.14533,0.23493 -1.71875,0.375 -1.81416,0.44315 -3.65602,0.90092 -5.53125,0.875 -2.06018,0.24226 -4.09615,0.23606 -6.15625,0.125 -2.0601,-0.11106 -4.12945,-0.3377 -6.1875,-0.53125 -2.05805,-0.19355 -4.13348,-0.3698 -6.1875,-0.375 -2.05402,-0.005 -4.07698,0.17102 -6.125,0.625 -0.95788,0.33278 -1.94705,0.56131 -2.9375,0.71875 -0.99045,0.15744 -1.99709,0.25287 -3,0.25 -2.00583,-0.006 -4.00243,-0.31819 -5.9375,-0.875 -1.1615,-0.43497 -2.36,-0.76944 -3.5625,-1 -1.2025,-0.23056 -2.43221,-0.38236 -3.65625,-0.4375 -2.44808,-0.11027 -4.89511,0.11371 -7.3125,0.53125 -1.87376,0.40608 -3.78717,0.712 -5.6875,0.90625 -1.90033,0.19425 -3.80864,0.28457 -5.71875,0.28125 -1.91011,-0.003 -3.81565,-0.0946 -5.71875,-0.28125 -0.84696,-0.0831 -1.68808,-0.25769 -2.53125,-0.375 20.08552,16.94015 30.17455,12.75009 39.75,11.6875 11.47462,0.82213 18.90461,5.42848 38.21875,-12.5 z"
                                   id="path4119" />
                                <path
                                   inkscape:connector-curvature="0"
                                   style="opacity:0.83425413;fill:#c03737;fill-opacity:1;fill-rule:evenodd;stroke:#000000;stroke-width:0.80000001;stroke-linecap:round;stroke-linejoin:miter;stroke-miterlimit:4;stroke-opacity:0.74853803;stroke-dasharray:none"
                                   d="m 211.0625,288.0625 c -6.89977,-0.38495 -7.53792,2.37829 -10.6875,2.96875 -2.91697,-0.44994 -2.53826,-2.54288 -9.75,-2.5 -7.07604,0.0429 -19.78883,7.0932 -29.96875,7.59375 0.0564,0.0477 0.10006,0.0776 0.15625,0.125 0.84317,0.11731 1.68429,0.29195 2.53125,0.375 1.9031,0.18661 3.80864,0.27793 5.71875,0.28125 1.91011,0.003 3.81842,-0.087 5.71875,-0.28125 1.90033,-0.19425 3.81374,-0.50017 5.6875,-0.90625 2.41739,-0.41754 4.86442,-0.64152 7.3125,-0.53125 1.22404,0.0551 2.45375,0.20694 3.65625,0.4375 1.2025,0.23056 2.401,0.56503 3.5625,1 1.93507,0.55681 3.93167,0.86926 5.9375,0.875 1.00291,0.003 2.00955,-0.0926 3,-0.25 0.99045,-0.15744 1.97962,-0.38597 2.9375,-0.71875 2.04802,-0.45398 4.07098,-0.6302 6.125,-0.625 2.05402,0.005 4.12945,0.18145 6.1875,0.375 2.05805,0.19355 4.1274,0.42019 6.1875,0.53125 2.0601,0.11106 4.09607,0.11726 6.15625,-0.125 1.87523,0.0259 3.71709,-0.43185 5.53125,-0.875 0.57342,-0.14007 1.14558,-0.2547 1.71875,-0.375 0.27859,-0.2586 0.49765,-0.4194 0.78125,-0.6875 -9.6603,0.63192 -21.59138,-6.30204 -28.5,-6.6875 z"
                                   id="path3134" />
                                </g>
                                </g>
                                </g>
                                </g>
                                </g>
                                </g>
                                </g>
                                </g>
                                </g>
                                </g>
                                </g>
                                </g>
                                </g>
                                </g>
                                </g>
                              </g>
                            </g>
                          </g>
                        </g>
                      </g>
                    </g>
                  </g>
                </g>
              </g>
            </g>
          </g>
        </g>
      </g>
    </g>
  </g>
</svg>
