<?xml version="1.0" encoding="UTF-8" standalone="no"?>
<!-- Created with Inkscape (http://www.inkscape.org/) -->

<svg
   xmlns:dc="http://purl.org/dc/elements/1.1/"
   xmlns:cc="http://creativecommons.org/ns#"
   xmlns:rdf="http://www.w3.org/1999/02/22-rdf-syntax-ns#"
   xmlns:svg="http://www.w3.org/2000/svg"
   xmlns="http://www.w3.org/2000/svg"
   xmlns:sodipodi="http://sodipodi.sourceforge.net/DTD/sodipodi-0.dtd"
   xmlns:inkscape="http://www.inkscape.org/namespaces/inkscape"
   width="127.15708"
   height="18.376226"
   id="svg2"
   version="1.1"
   inkscape:version="0.48.3.1 r9886"
   sodipodi:docname="boca19.svg">
  <defs
     id="defs4">
    <linearGradient
       gradientTransform="translate(168.81267,-92.436077)"
       y2="202.92909"
       x2="488.72571"
       y1="202.92909"
       x1="452.133"
       gradientUnits="userSpaceOnUse"
       id="path1930_4_">
      <stop
         id="stop664"
         style="stop-color:#EBF4F7"
         offset="0.0056" />
      <stop
         id="stop666"
         style="stop-color:#CFD2E2"
         offset="1" />
    </linearGradient>
    <linearGradient
       gradientTransform="matrix(-1,0,0,1,2199.1117,-92.436077)"
       y2="235.85139"
       x2="1577.5187"
       y1="235.85139"
       x1="1544.0988"
       gradientUnits="userSpaceOnUse"
       id="path1930_5_">
      <stop
         id="stop672"
         style="stop-color:#EBF4F7"
         offset="0.0056" />
      <stop
         id="stop674"
         style="stop-color:#CFD2E2"
         offset="1" />
    </linearGradient>
  </defs>
  <sodipodi:namedview
     id="base"
     pagecolor="#ffffff"
     bordercolor="#666666"
     borderopacity="1.0"
     inkscape:pageopacity="0.0"
     inkscape:pageshadow="2"
     inkscape:zoom="0.35"
     inkscape:cx="63.578545"
     inkscape:cy="9.1881106"
     inkscape:document-units="px"
     inkscape:current-layer="layer1"
     showgrid="false"
     fit-margin-top="0"
     fit-margin-left="0"
     fit-margin-right="0"
     fit-margin-bottom="0"
     inkscape:window-width="552"
     inkscape:window-height="752"
     inkscape:window-x="65"
     inkscape:window-y="24"
     inkscape:window-maximized="0" />
  <metadata
     id="metadata7">
    <rdf:RDF>
      <cc:Work
         rdf:about="">
        <dc:format>image/svg+xml</dc:format>
        <dc:type
           rdf:resource="http://purl.org/dc/dcmitype/StillImage" />
        <dc:title></dc:title>
      </cc:Work>
    </rdf:RDF>
  </metadata>
  <g
     inkscape:label="Capa 1"
     inkscape:groupmode="layer"
     id="layer1"
     transform="translate(-286.42144,-523.174)">
    <g
       transform="translate(109.21148,-270.99113)"
       inkscape:label="Layer 1"
       id="layer1-025">
      <g
         inkscape:export-ydpi="90"
         inkscape:export-xdpi="90"
         id="g6846">
        <g
           inkscape:label="Capa 1"
           id="layer1-4"
           transform="translate(608.2923,-216.81779)">
          <g
             inkscape:label="Capa 1"
             id="layer1-0"
             transform="translate(-464.26829,9.26096)">
            <g
               transform="matrix(2,0,0,2,-125.03069,-1240.877)"
               id="g7230">
              <g
                 inkscape:label="Capa 1"
                 id="layer1-5"
                 transform="matrix(0.5,0,0,0.5,198.03499,723.12882)">
                <g
                   id="g3815">
                  <g
                     inkscape:label="Capa 1"
                     id="layer1-8"
                     transform="translate(-509.47265,-858.01422)">
                    <g
                       id="g4403">
                      <g
                         id="g5615">
                        <g
                           inkscape:label="Capa 1"
                           id="layer1-9"
                           transform="translate(34.810242,624.88049)">
                          <g
                             id="g4728"
                             transform="matrix(0.86372251,0,0,0.75945223,-6.6412836,551.71009)">
                            <g
                               inkscape:label="Capa 1"
                               id="layer1-42"
                               transform="matrix(1.1577793,0,0,1.3167385,-36.133084,-705.63507)">
                              <g
                                 id="g5224"
                                 transform="matrix(0.88307479,0,0,0.70910051,43.988222,438.13275)">
                                <g
                                   inkscape:label="Capa 1"
                                   id="layer1-02"
                                   transform="matrix(1.1324069,0,0,1.4102373,58.462682,-691.18829)">
                                <g
                                   id="g5286"
                                   transform="matrix(1.127305,0,0,1.127305,-48.449071,-93.350364)">
                                <g
                                   inkscape:label="Layer 1"
                                   id="layer1-7"
                                   transform="matrix(0.88707135,0,0,0.8870714,15.021825,628.39384)">
                                <g
                                   id="g5030"
                                   transform="matrix(1.5713649,0,0,1.5551129,-182.98344,-134.01333)">
                                <g
                                   inkscape:label="Capa 1"
                                   id="layer1-72"
                                   transform="matrix(0.63638942,0,0,0.64304013,66.223794,-101.46956)">
                                <g
                                   transform="translate(66.411606,232.19706)"
                                   id="layer1-06"
                                   inkscape:label="Layer 1">
                                <g
                                   inkscape:label="Capa 1"
                                   id="layer1-85"
                                   transform="translate(-63.980856,-142.78077)">
                                <g
                                   id="g11416">
                                <g
                                   id="layer1-1"
                                   inkscape:label="Layer 1"
                                   transform="translate(-1051.8062,-2761.3737)">
                                <g
                                   id="g12903">
                                <g
                                   transform="matrix(2,0,0,2,-1689.5,-3023.4999)"
                                   id="g12881">
                                <g
                                   id="layer1-41"
                                   inkscape:label="Layer 1"
                                   transform="matrix(0.5,0,0,0.5,1445.6768,3035.6911)">
                                <g
                                   id="g36550"
                                   transform="matrix(1.5803703,0,0,1.5783361,-185.78827,-139.12469)">
                                <g
                                   transform="matrix(0.6327631,0,0,0.63357861,253.98729,172.72975)"
                                   id="g16139">
                                <g
                                   transform="translate(32.646514,64.302354)"
                                   id="g17122"
                                   style="display:inline">
                                <g
                                   transform="translate(230.67166,48.649982)"
                                   id="g17985"
                                   style="display:inline">
                                <g
                                   id="layer51"
                                   inkscape:label="glasses04"
                                   style="display:none">
                                <g
                                   id="g3293">
                                <g
                                   id="g3286">
                                <path
                                   inkscape:connector-curvature="0"
                                   style="fill:#555753;fill-opacity:1;stroke:none"
                                   d="m 264.4181,212.78125 c -32.31852,0 -58.5431,20.04591 -58.5431,44.75 0,24.70409 26.22459,44.75001 58.5431,44.75 32.31853,0 58.54309,-20.0459 58.54311,-44.75 0,-24.70409 -26.22457,-44.75 -58.54311,-44.75 z"
                                   id="path3274" />
                                <path
                                   sodipodi:type="arc"
                                   style="fill:none;stroke:#555753;stroke-width:31.03476334;stroke-linecap:round;stroke-linejoin:round;stroke-miterlimit:4;stroke-opacity:1;stroke-dasharray:none"
                                   id="path3253"
                                   sodipodi:cx="-100"
                                   sodipodi:cy="152.10728"
                                   sodipodi:rx="27.969349"
                                   sodipodi:ry="12.643678"
                                   d="m -72.030651,152.10728 c 0,6.98291 -12.522304,12.64368 -27.969349,12.64368 -15.44704,0 -27.96935,-5.66077 -27.96935,-12.64368 0,0 0,0 0,0"
                                   sodipodi:start="0"
                                   sodipodi:end="3.1415927"
                                   sodipodi:open="true"
                                   transform="matrix(0.298049,0,0,-0.1549048,229.03861,284.77197)" />
                                <path
                                   inkscape:connector-curvature="0"
                                   style="fill:#555753;fill-opacity:1;stroke:none"
                                   d="m 136.41811,212.78125 c 32.31852,0 58.5431,20.04591 58.5431,44.75 0,24.70409 -26.22459,44.75001 -58.5431,44.75 -32.31853,0 -58.54309,-20.0459 -58.54311,-44.75 0,-24.70409 26.22457,-44.75 58.54311,-44.75 z"
                                   id="path3270" />
                                </g>
                                <path
                                   inkscape:connector-curvature="0"
                                   style="fill:#d3d7cf;fill-opacity:1;stroke:none"
                                   d="m 157.8581,226.57435 c 10.73549,0 19.4467,6.6588 19.4467,14.86494 0,8.20615 -8.71122,14.86495 -19.4467,14.86495 -10.73548,0 -19.44669,-6.6588 -19.4467,-14.86495 0,-8.20614 8.71121,-14.86494 19.4467,-14.86494 z"
                                   id="path3284" />
                                <path
                                   inkscape:connector-curvature="0"
                                   id="path3291"
                                   d="m 287.36002,228.10692 c 10.73549,0 19.4467,6.6588 19.4467,14.86494 0,8.20615 -8.71122,14.86495 -19.4467,14.86495 -10.73548,0 -19.44669,-6.6588 -19.4467,-14.86495 0,-8.20614 8.71121,-14.86494 19.4467,-14.86494 z"
                                   style="fill:#d3d7cf;fill-opacity:1;stroke:none" />
                                </g>
                                </g>
                                </g>
                                <g
                                   transform="translate(-243.63048,-43.815254)"
                                   id="g26992">
                                <g
                                   transform="translate(-2.3770089,-50.326121)"
                                   inkscape:label="Layer 1"
                                   id="layer1-87">
                                <g
                                   id="g5507"
                                   transform="matrix(2.4183449,0,0,2.4183449,-1344.8325,-355.90839)">
                                <path
                                   inkscape:connector-curvature="0"
                                   d="m 614.25617,258.84876 c 13.08055,4.71512 27.73706,5.68977 40.96888,1.2484 2.21986,-0.73357 4.22651,-1.79084 6.01406,-3.26144 l 2.46122,-0.18869 c -1.89914,1.53717 -4.02761,2.6279 -6.37832,3.38266 -14.80932,4.8999 -30.73545,4.35365 -45.50259,-0.46351 l 2.43675,-0.71742 z"
                                   id="path3343"
                                   style="fill:#000000;fill-opacity:1;fill-rule:nonzero;stroke:none" />
                                <path
                                   inkscape:connector-curvature="0"
                                   d="m 661.07635,257.04478 c 3.81029,-1.24821 2.08554,0.58385 1.12667,2.70997 l -2.51005,0.28064 c 1.13654,-2.40668 0.70179,-3.52958 3.8278,-3.78485 l -2.44442,0.79424 z"
                                   id="path3345"
                                   style="fill:#000000;fill-opacity:1;fill-rule:nonzero;stroke:none" />
                                <path
                                   inkscape:connector-curvature="0"
                                   d="m 661.07635,256.79478 c 5.11814,-0.9349 -1.06869,0.42401 -2.76156,0.49016 -0.002,0.003 -0.56476,0.006 -0.57129,0.006 l 2.4053,-0.78435 c 0.007,-1.3e-4 0.56539,-0.007 0.56795,-0.0109 2.22266,-0.15303 -4.3633,0.70515 2.80402,-0.4954 l -2.44442,0.79424 z"
                                   id="path3347"
                                   style="fill:#000000;fill-opacity:1;fill-rule:nonzero;stroke:none" />
                                <path
                                   inkscape:connector-curvature="0"
                                   d="m 661.70587,256.34502 c 0.0912,0.061 0.19606,0.0934 0.3011,0.12123 0.1352,0.0166 0.27074,0.0342 0.40485,0.06 0.16398,0.0327 0.27485,0.13692 0.38025,0.25767 0.044,0.0502 0.058,0.11476 0.0786,0.17632 l -0.31173,0.0582 c -0.0204,-0.0583 -0.0349,-0.11839 -0.0767,-0.16618 -0.10478,-0.11398 -0.21327,-0.20935 -0.37329,-0.23297 -0.13475,-0.0229 -0.26972,-0.0434 -0.40522,-0.0607 -0.11301,-0.0361 -0.24255,-0.0671 -0.31517,-0.16327 l 0.31732,-0.0503 z"
                                   id="path3349"
                                   style="fill:#000000;fill-opacity:1;fill-rule:nonzero;stroke:none" />
                                <path
                                   inkscape:connector-curvature="0"
                                   d="m 664.39963,256.22464 c -0.42768,0.3488 -0.94935,0.5688 -1.43587,0.82666 -0.52518,0.43717 -1.16516,0.67278 -1.77621,0.96051 -0.0443,0.0198 -0.0886,0.0397 -0.13289,0.0595 l -1.25877,0.11768 c 0.0448,-0.0179 0.0897,-0.0358 0.13448,-0.0537 0.60651,-0.28771 1.25348,-0.51295 1.77529,-0.94499 0.46944,-0.26793 0.97747,-0.49181 1.42199,-0.78951 l 1.27198,-0.17615 z"
                                   id="path3351"
                                   style="fill:#000000;fill-opacity:1;fill-rule:nonzero;stroke:none" />
                                <path
                                   inkscape:connector-curvature="0"
                                   d="m 663.02095,256.25923 c -0.38994,0.41539 -0.86558,0.67738 -1.30916,0.98447 -0.47884,0.52063 -1.06235,0.80122 -1.61947,1.14387 -0.0404,0.0236 -0.0808,0.0473 -0.12117,0.0709 l -1.14769,0.14015 c 0.0409,-0.0213 0.0817,-0.0426 0.12261,-0.064 0.55299,-0.34264 1.14287,-0.61088 1.61864,-1.12539 0.42801,-0.31908 0.89121,-0.5857 1.2965,-0.94023 l 1.15974,-0.20978 z"
                                   id="path3353"
                                   style="fill:#000000;fill-opacity:1;fill-rule:nonzero;stroke:none" />
                                <path
                                   inkscape:connector-curvature="0"
                                   d="m 662.22413,256.34448 c -0.30232,0.48291 -0.71837,0.83187 -1.09425,1.21889 -0.36921,0.60334 -0.8875,0.9914 -1.36791,1.43524 -0.0351,0.031 -0.0701,0.062 -0.10519,0.093 l -1.09898,0.35928 c 0.036,-0.0288 0.072,-0.0576 0.10794,-0.0864 0.47636,-0.44304 1.00329,-0.82021 1.37067,-1.41696 0.35828,-0.39577 0.76123,-0.74687 1.09038,-1.17304 l 1.09734,-0.42992 z"
                                   id="path3355"
                                   style="fill:#000000;fill-opacity:1;fill-rule:nonzero;stroke:none" />
                                <path
                                   inkscape:connector-curvature="0"
                                   d="m 663.67721,256.00923 c -0.38994,0.41539 -0.86558,0.67738 -1.30916,0.98447 -0.47884,0.52063 -1.06235,0.80122 -1.61947,1.14387 -0.0404,0.0236 -0.0808,0.0473 -0.12117,0.0709 l -1.14769,0.14015 c 0.0409,-0.0213 0.0817,-0.0426 0.12261,-0.064 0.55299,-0.34264 1.14287,-0.61088 1.61864,-1.12539 0.42801,-0.31908 0.89121,-0.5857 1.2965,-0.94023 l 1.15974,-0.20978 z"
                                   id="path3357"
                                   style="fill:#000000;fill-opacity:1;fill-rule:nonzero;stroke:none" />
                                <path
                                   inkscape:connector-curvature="0"
                                   d="m 664.32565,255.85298 c -0.38994,0.41539 -0.86558,0.67738 -1.30916,0.98447 -0.47884,0.52063 -1.06235,0.80122 -1.61947,1.14387 -0.0404,0.0236 -0.0808,0.0473 -0.12117,0.0709 l -1.14769,0.14015 c 0.0409,-0.0213 0.0817,-0.0426 0.12261,-0.064 0.55299,-0.34264 1.14287,-0.61088 1.61864,-1.12539 0.42801,-0.31908 0.89121,-0.5857 1.2965,-0.94023 l 1.15974,-0.20978 z"
                                   id="path3359"
                                   style="fill:#000000;fill-opacity:1;fill-rule:nonzero;stroke:none" />
                                </g>
                                </g>
                                </g>
                                </g>
                                </g>
                                </g>
                                </g>
                                </g>
                                </g>
                                </g>
                                </g>
                                </g>
                                </g>
                                </g>
                                </g>
                                </g>
                                </g>
                                </g>
                              </g>
                            </g>
                          </g>
                        </g>
                      </g>
                    </g>
                  </g>
                </g>
              </g>
            </g>
          </g>
        </g>
      </g>
    </g>
  </g>
</svg>
