<?xml version="1.0" encoding="UTF-8" standalone="no"?>
<!-- Created with Inkscape (http://www.inkscape.org/) -->

<svg
   xmlns:dc="http://purl.org/dc/elements/1.1/"
   xmlns:cc="http://creativecommons.org/ns#"
   xmlns:rdf="http://www.w3.org/1999/02/22-rdf-syntax-ns#"
   xmlns:svg="http://www.w3.org/2000/svg"
   xmlns="http://www.w3.org/2000/svg"
   xmlns:sodipodi="http://sodipodi.sourceforge.net/DTD/sodipodi-0.dtd"
   xmlns:inkscape="http://www.inkscape.org/namespaces/inkscape"
   width="113.05907"
   height="43.563583"
   id="svg2"
   version="1.1"
   inkscape:version="0.48.3.1 r9886"
   sodipodi:docname="boca15.svg">
  <defs
     id="defs4">
    <linearGradient
       gradientTransform="translate(168.81267,-92.436077)"
       y2="202.92909"
       x2="488.72571"
       y1="202.92909"
       x1="452.133"
       gradientUnits="userSpaceOnUse"
       id="path1930_4_">
      <stop
         id="stop664"
         style="stop-color:#EBF4F7"
         offset="0.0056" />
      <stop
         id="stop666"
         style="stop-color:#CFD2E2"
         offset="1" />
    </linearGradient>
    <linearGradient
       gradientTransform="matrix(-1,0,0,1,2199.1117,-92.436077)"
       y2="235.85139"
       x2="1577.5187"
       y1="235.85139"
       x1="1544.0988"
       gradientUnits="userSpaceOnUse"
       id="path1930_5_">
      <stop
         id="stop672"
         style="stop-color:#EBF4F7"
         offset="0.0056" />
      <stop
         id="stop674"
         style="stop-color:#CFD2E2"
         offset="1" />
    </linearGradient>
  </defs>
  <sodipodi:namedview
     id="base"
     pagecolor="#ffffff"
     bordercolor="#666666"
     borderopacity="1.0"
     inkscape:pageopacity="0.0"
     inkscape:pageshadow="2"
     inkscape:zoom="0.35"
     inkscape:cx="56.529542"
     inkscape:cy="21.831142"
     inkscape:document-units="px"
     inkscape:current-layer="layer1"
     showgrid="false"
     fit-margin-top="0"
     fit-margin-left="0"
     fit-margin-right="0"
     fit-margin-bottom="0"
     inkscape:window-width="552"
     inkscape:window-height="752"
     inkscape:window-x="65"
     inkscape:window-y="24"
     inkscape:window-maximized="0" />
  <metadata
     id="metadata7">
    <rdf:RDF>
      <cc:Work
         rdf:about="">
        <dc:format>image/svg+xml</dc:format>
        <dc:type
           rdf:resource="http://purl.org/dc/dcmitype/StillImage" />
        <dc:title></dc:title>
      </cc:Work>
    </rdf:RDF>
  </metadata>
  <g
     inkscape:label="Capa 1"
     inkscape:groupmode="layer"
     id="layer1"
     transform="translate(-293.47044,-510.62967)">
    <g
       transform="translate(100.36506,-327.89004)"
       inkscape:label="Layer 1"
       id="layer1-55">
      <g
         inkscape:export-ydpi="90"
         inkscape:export-xdpi="90"
         id="g6846">
        <g
           inkscape:label="Capa 1"
           id="layer1-4"
           transform="translate(608.2923,-216.81779)">
          <g
             inkscape:label="Capa 1"
             id="layer1-0"
             transform="translate(-464.26829,9.26096)">
            <g
               transform="matrix(2,0,0,2,-125.03069,-1240.877)"
               id="g7230">
              <g
                 inkscape:label="Capa 1"
                 id="layer1-5"
                 transform="matrix(0.5,0,0,0.5,198.03499,723.12882)">
                <g
                   id="g3815">
                  <g
                     inkscape:label="Capa 1"
                     id="layer1-8"
                     transform="translate(-509.47265,-858.01422)">
                    <g
                       id="g4403">
                      <g
                         id="g5615">
                        <g
                           inkscape:label="Capa 1"
                           id="layer1-9"
                           transform="translate(34.810242,624.88049)">
                          <g
                             id="g4728"
                             transform="matrix(0.86372251,0,0,0.75945223,-6.6412836,551.71009)">
                            <g
                               inkscape:label="Capa 1"
                               id="layer1-42"
                               transform="matrix(1.1577793,0,0,1.3167385,-36.133084,-705.63507)">
                              <g
                                 id="g5224"
                                 transform="matrix(0.88307479,0,0,0.70910051,43.988222,438.13275)">
                                <g
                                   inkscape:label="Capa 1"
                                   id="layer1-02"
                                   transform="matrix(1.1324069,0,0,1.4102373,58.462682,-691.18829)">
                                <g
                                   id="g5286"
                                   transform="matrix(1.127305,0,0,1.127305,-48.449071,-93.350364)">
                                <g
                                   inkscape:label="Layer 1"
                                   id="layer1-7"
                                   transform="matrix(0.88707135,0,0,0.8870714,15.021825,628.39384)">
                                <g
                                   id="g5030"
                                   transform="matrix(1.5713649,0,0,1.5551129,-182.98344,-134.01333)">
                                <g
                                   inkscape:label="Capa 1"
                                   id="layer1-72"
                                   transform="matrix(0.63638942,0,0,0.64304013,66.223794,-101.46956)">
                                <g
                                   transform="translate(66.411606,232.19706)"
                                   id="layer1-06"
                                   inkscape:label="Layer 1">
                                <g
                                   inkscape:label="Capa 1"
                                   id="layer1-85"
                                   transform="translate(-63.980856,-142.78077)">
                                <g
                                   id="g11416">
                                <g
                                   id="layer1-1"
                                   inkscape:label="Layer 1"
                                   transform="translate(-1051.8062,-2761.3737)">
                                <g
                                   id="g12903">
                                <g
                                   transform="matrix(2,0,0,2,-1689.5,-3023.4999)"
                                   id="g12881">
                                <g
                                   id="layer1-41"
                                   inkscape:label="Layer 1"
                                   transform="matrix(0.5,0,0,0.5,1445.6768,3035.6911)">
                                <g
                                   id="g36550"
                                   transform="matrix(1.5803703,0,0,1.5783361,-185.78827,-139.12469)">
                                <g
                                   transform="matrix(0.6327631,0,0,0.63357861,253.98729,172.72975)"
                                   id="g16139">
                                <g
                                   transform="translate(32.646514,64.302354)"
                                   id="g17122"
                                   style="display:inline">
                                <g
                                   transform="translate(230.67166,48.649982)"
                                   id="g17985"
                                   style="display:inline">
                                <g
                                   id="layer51"
                                   inkscape:label="glasses04"
                                   style="display:none">
                                <g
                                   id="g3293">
                                <g
                                   id="g3286">
                                <path
                                   inkscape:connector-curvature="0"
                                   style="fill:#555753;fill-opacity:1;stroke:none"
                                   d="m 264.4181,212.78125 c -32.31852,0 -58.5431,20.04591 -58.5431,44.75 0,24.70409 26.22459,44.75001 58.5431,44.75 32.31853,0 58.54309,-20.0459 58.54311,-44.75 0,-24.70409 -26.22457,-44.75 -58.54311,-44.75 z"
                                   id="path3274" />
                                <path
                                   sodipodi:type="arc"
                                   style="fill:none;stroke:#555753;stroke-width:31.03476334;stroke-linecap:round;stroke-linejoin:round;stroke-miterlimit:4;stroke-opacity:1;stroke-dasharray:none"
                                   id="path3253"
                                   sodipodi:cx="-100"
                                   sodipodi:cy="152.10728"
                                   sodipodi:rx="27.969349"
                                   sodipodi:ry="12.643678"
                                   d="m -72.030651,152.10728 c 0,6.98291 -12.522304,12.64368 -27.969349,12.64368 -15.44704,0 -27.96935,-5.66077 -27.96935,-12.64368 0,0 0,0 0,0"
                                   sodipodi:start="0"
                                   sodipodi:end="3.1415927"
                                   sodipodi:open="true"
                                   transform="matrix(0.298049,0,0,-0.1549048,229.03861,284.77197)" />
                                <path
                                   inkscape:connector-curvature="0"
                                   style="fill:#555753;fill-opacity:1;stroke:none"
                                   d="m 136.41811,212.78125 c 32.31852,0 58.5431,20.04591 58.5431,44.75 0,24.70409 -26.22459,44.75001 -58.5431,44.75 -32.31853,0 -58.54309,-20.0459 -58.54311,-44.75 0,-24.70409 26.22457,-44.75 58.54311,-44.75 z"
                                   id="path3270" />
                                </g>
                                <path
                                   inkscape:connector-curvature="0"
                                   style="fill:#d3d7cf;fill-opacity:1;stroke:none"
                                   d="m 157.8581,226.57435 c 10.73549,0 19.4467,6.6588 19.4467,14.86494 0,8.20615 -8.71122,14.86495 -19.4467,14.86495 -10.73548,0 -19.44669,-6.6588 -19.4467,-14.86495 0,-8.20614 8.71121,-14.86494 19.4467,-14.86494 z"
                                   id="path3284" />
                                <path
                                   inkscape:connector-curvature="0"
                                   id="path3291"
                                   d="m 287.36002,228.10692 c 10.73549,0 19.4467,6.6588 19.4467,14.86494 0,8.20615 -8.71122,14.86495 -19.4467,14.86495 -10.73548,0 -19.44669,-6.6588 -19.4467,-14.86495 0,-8.20614 8.71121,-14.86494 19.4467,-14.86494 z"
                                   style="fill:#d3d7cf;fill-opacity:1;stroke:none" />
                                </g>
                                </g>
                                </g>
                                <g
                                   transform="translate(-243.63048,-43.815254)"
                                   id="g26992">
                                <g
                                   transform="translate(4.2673622,6.1511922)"
                                   inkscape:label="Layer 1"
                                   id="layer1-53">
                                <g
                                   id="g5500"
                                   transform="matrix(2.4183449,0,0,2.4183449,-1333.4645,-271.16608)">
                                <path
                                   inkscape:connector-curvature="0"
                                   id="path4608"
                                   d="m 614.11518,220.25136 16.03617,13.00572 7.57615,-6.69226 8.08122,-5.42957 4.54569,-2.27285 -5.93465,-1.13642 -15.02602,1.26269 -10.35407,0.63135 -4.92449,0.63134 z"
                                   style="fill:#ffffff;fill-opacity:1;fill-rule:evenodd;stroke:#000000;stroke-width:0.82701194;stroke-linecap:butt;stroke-linejoin:miter;stroke-miterlimit:4;stroke-opacity:1;stroke-dasharray:none" />
                                <path
                                   inkscape:connector-curvature="0"
                                   id="path4533"
                                   d="m 653.78775,215.80122 c -6.9111,0.51688 -13.81421,1.17527 -20.71875,1.78125 -6.61203,0.43245 -13.2213,0.51525 -19.84375,0.46875 -0.0133,-3.3e-4 -0.0804,3.3e-4 -0.0937,0 -0.73261,0.15858 -1.45492,0.32688 -2.1875,0.5 0.61563,0.72199 1.24038,1.42462 1.84375,2.15625 0.0228,0.0276 0.0398,0.0661 0.0625,0.0937 3.56007,2.80062 7.03347,5.7707 10.4375,8.78125 2.55907,2.38375 4.06649,4.25499 5.90625,4.1875 0.002,3.6e-4 0.0536,1.3e-4 0.0625,0 0.009,-3e-5 0.0302,-1.8e-4 0.0313,0 0.44641,-0.034 0.89984,-0.15206 1.40625,-0.4375 l 0.28125,0.125 c 0.2746,-0.29784 0.49973,-0.58628 0.78125,-0.875 0.11669,-0.0971 0.25371,-0.20255 0.375,-0.3125 0.007,-0.007 0.0246,-0.0242 0.0313,-0.0313 0.0392,-0.0429 0.0833,-0.0835 0.125,-0.125 0.0541,-0.051 0.10117,-0.13397 0.15625,-0.1875 0.004,1e-5 0.0268,8e-5 0.0313,0 0.007,-0.008 0.0263,-0.0259 0.0313,-0.0313 0.01,-0.0112 0.0477,-0.0464 0.0625,-0.0625 0.007,-0.007 0.0263,-0.0264 0.0313,-0.0313 0.007,-0.007 0.0246,-0.024 0.0313,-0.0313 0.10117,-0.10143 0.208,-0.20255 0.3125,-0.3125 8e-5,-0.005 -4e-5,-0.0221 0,-0.0313 0.008,-0.009 0.0571,-0.0567 0.0625,-0.0625 0.009,-6e-5 0.0291,-2e-4 0.0313,0 0.005,-0.006 0.0231,-0.0224 0.0313,-0.0313 0.006,-0.007 0.0248,-0.024 0.0313,-0.0313 0.16353,-0.15449 0.36577,-0.28564 0.53125,-0.4375 1.50548,-1.24379 3.00769,-2.50165 4.53125,-3.71875 0.18166,-0.14511 0.38067,-0.26141 0.5625,-0.40625 0.0403,-0.0288 0.0856,-0.0926 0.125,-0.125 0.007,-0.005 0.0245,-0.0265 0.0313,-0.0313 0.009,-3e-5 0.0268,6e-5 0.0313,0 4.47597,-3.17271 9.37758,-5.73357 14.21875,-8.1875 0.002,-0.003 0.0205,-0.0195 0.0313,-0.0313 0.10847,-0.005 0.20403,0.005 0.3125,0 l 0.625,-0.53125 c 0.49306,-0.2487 1.00876,-0.47153 1.5,-0.71875 1.37071,-0.73255 1.76254,-0.91754 2.09375,-1.09375 -1.18523,-0.0531 -2.34719,-0.14942 -3.53125,-0.21875 -0.0918,0.007 -0.18942,-0.007 -0.28125,0 -0.0132,1.1e-4 -0.0805,-9e-5 -0.0937,0 z m -5.6875,2.8125 c -0.62012,0.49753 -1.2219,1.00498 -1.84375,1.5 -0.0254,0.0138 -0.0684,0.0174 -0.0937,0.0313 -5.9588,3.25005 -11.75173,6.84389 -16.71875,11.65625 -0.87426,-0.93962 -2.84407,-1.93509 -4.46875,-3.375 -3.08898,-2.66838 -6.18848,-5.32455 -9.34375,-7.90625 4.80247,-0.0547 9.60974,-0.16729 14.40625,-0.46875 6.02611,-0.48483 12.03009,-1.06143 18.0625,-1.4375 z m -18.21875,14.3125 0.21875,0.125 c -0.008,0.009 -0.028,0.0277 -0.0313,0.0313 -0.0662,0.0341 -0.15241,0.091 -0.21875,0.125 -0.009,9e-5 -0.0605,3e-4 -0.0625,0 6e-5,-0.01 6e-5,-0.0294 0,-0.0313 0.0308,-0.0797 0.0747,-0.17617 0.0937,-0.25 z"
                                   style="fill:#000000;fill-opacity:1;fill-rule:nonzero;stroke:none" />
                                <path
                                   transform="translate(532.11699,67.32466)"
                                   d="m 98.303575,165.57646 c 0,0.17259 -0.309803,0.3125 -0.691965,0.3125 -0.382161,0 -0.691964,-0.13991 -0.691964,-0.3125 0,-0.17259 0.309803,-0.3125 0.691964,-0.3125 0.382162,0 0.691965,0.13991 0.691965,0.3125 z"
                                   sodipodi:ry="0.3125"
                                   sodipodi:rx="0.69196427"
                                   sodipodi:cy="165.57646"
                                   sodipodi:cx="97.61161"
                                   id="path4606"
                                   style="fill:#ffffff;fill-opacity:1;stroke:#000000;stroke-width:0.82701194;stroke-linecap:butt;stroke-linejoin:round;stroke-miterlimit:4;stroke-opacity:1;stroke-dasharray:none"
                                   sodipodi:type="arc" />
                                <path
                                   inkscape:connector-curvature="0"
                                   d="m 620.80728,224.14411 c 3.2285,0.4421 6.56546,0.31832 9.83264,0.27332 l -2.34796,0.76282 c -3.31551,-0.0518 -6.64479,0.0152 -9.94932,-0.23533 l 2.46464,-0.80081 z"
                                   id="path4624"
                                   style="fill:#000000;fill-opacity:1;fill-rule:nonzero;stroke:none" />
                                <path
                                   inkscape:connector-curvature="0"
                                   d="m 634.33088,224.52366 c 2.0136,0.0572 4.02947,0.0716 6.0383,-0.0949 l -2.29876,0.76508 c -2.06458,0.12234 -4.13299,0.0751 -6.19959,0.12913 l 2.46005,-0.79932 z"
                                   id="path4626"
                                   style="fill:#000000;fill-opacity:1;fill-rule:nonzero;stroke:none" />
                                </g>
                                </g>
                                </g>
                                </g>
                                </g>
                                </g>
                                </g>
                                </g>
                                </g>
                                </g>
                                </g>
                                </g>
                                </g>
                                </g>
                                </g>
                                </g>
                                </g>
                                </g>
                              </g>
                            </g>
                          </g>
                        </g>
                      </g>
                    </g>
                  </g>
                </g>
              </g>
            </g>
          </g>
        </g>
      </g>
    </g>
  </g>
</svg>
