<?xml version="1.0" encoding="UTF-8" standalone="no"?>
<!-- Created with Inkscape (http://www.inkscape.org/) -->

<svg
   xmlns:dc="http://purl.org/dc/elements/1.1/"
   xmlns:cc="http://creativecommons.org/ns#"
   xmlns:rdf="http://www.w3.org/1999/02/22-rdf-syntax-ns#"
   xmlns:svg="http://www.w3.org/2000/svg"
   xmlns="http://www.w3.org/2000/svg"
   xmlns:sodipodi="http://sodipodi.sourceforge.net/DTD/sodipodi-0.dtd"
   xmlns:inkscape="http://www.inkscape.org/namespaces/inkscape"
   width="449.80899"
   height="594.38226"
   id="svg3431"
   sodipodi:version="0.32"
   inkscape:version="0.48.3.1 r9886"
   version="1.0"
   sodipodi:docname="casa.svg"
   inkscape:output_extension="org.inkscape.output.svg.inkscape">
  <defs
     id="defs3433" />
  <sodipodi:namedview
     id="base"
     pagecolor="#ffffff"
     bordercolor="#666666"
     borderopacity="1.0"
     inkscape:pageopacity="0.0"
     inkscape:pageshadow="2"
     inkscape:zoom="0.5478135"
     inkscape:cx="544.38811"
     inkscape:cy="109.06078"
     inkscape:current-layer="layer1"
     inkscape:document-units="px"
     width="480px"
     height="640px"
     inkscape:window-width="1022"
     inkscape:window-height="703"
     inkscape:window-x="0"
     inkscape:window-y="48"
     showgrid="false"
     fit-margin-top="0"
     fit-margin-left="0"
     fit-margin-right="0"
     fit-margin-bottom="0"
     inkscape:window-maximized="0" />
  <metadata
     id="metadata3436">
    <rdf:RDF>
      <cc:Work
         rdf:about="">
        <dc:format>image/svg+xml</dc:format>
        <dc:type
           rdf:resource="http://purl.org/dc/dcmitype/StillImage" />
        <dc:title></dc:title>
      </cc:Work>
    </rdf:RDF>
  </metadata>
  <g
     id="layer1"
     inkscape:label="Layer 1"
     inkscape:groupmode="layer"
     transform="translate(-17.308398,-24.879429)">
    <path
       style="fill:#803300;fill-rule:evenodd;stroke:#000000;stroke-width:4;stroke-linecap:butt;stroke-linejoin:miter;stroke-miterlimit:4;stroke-opacity:1;stroke-dasharray:none"
       d="M 41.325425,301.11639 99.467146,297.33965 72.584407,258.81698 41.325425,301.11639 z"
       id="path3519"
       inkscape:connector-curvature="0" />
    <path
       style="opacity:0.3744681;color:#000000;fill:#000000;fill-opacity:1;fill-rule:evenodd;stroke:none;stroke-width:4;marker:none;visibility:visible;display:inline;overflow:visible;enable-background:accumulate"
       d="m 451.77303,557.39005 c -5.61308,10.34994 -33.32372,9.41336 -53.45519,21.88249 -11.42636,7.07732 -0.50365,27.13627 -24.95767,36.98809 -19.44971,7.83572 -96.28553,-5.94859 -119.72189,-5.94859 -32.30754,0 -82.95532,12.00859 -110.77489,8.20524 -66.357725,-9.0721 -93.630721,-41.52214 -87.359855,-61.12723 3.85366,-12.048 29.41627,-37.28677 80.074525,-46.20383 32.34793,-5.694 83.3377,9.02755 118.06022,-6.71815 31.68178,-14.36681 66.25457,13.35192 99.81803,21.37729 48.70772,11.64651 92.43451,11.79858 98.31672,31.54469 z"
       id="path3218"
       sodipodi:nodetypes="cssssssssc"
       inkscape:connector-curvature="0" />
    <path
       style="fill:#008000;fill-rule:evenodd;stroke:#000000;stroke-width:4;stroke-linecap:butt;stroke-linejoin:miter;stroke-miterlimit:4;stroke-opacity:1;stroke-dasharray:none"
       d="m 404.33469,441.02717 c 7.35738,-0.96945 16.84547,-11.88228 17.34167,19.16711 13.82304,4.34608 10.65549,10.58 2.73816,17.34167 16.6109,0.0959 16.42962,7.38839 16.42895,14.60351 l 0,11.86535 c 15.93333,-3.15526 16.43444,9.12171 18.25439,20.07983 13.39159,16.73697 0.91074,14.06961 -3.65088,17.34167 l -60.23948,1.82543 9.12719,-102.22457 z"
       id="path3711"
       sodipodi:nodetypes="ccccccccc"
       inkscape:connector-curvature="0" />
    <path
       style="opacity:0.3744681;fill:#000000;fill-rule:evenodd;stroke:#000000;stroke-width:4;stroke-linecap:butt;stroke-linejoin:miter;stroke-miterlimit:4;stroke-opacity:1;stroke-dasharray:none"
       d="m 405.70377,448.32893 c 4.33793,1.70758 11.53847,-0.87875 9.1272,10.95263 3.58829,6.01856 10.20488,10.8258 2.28179,21.44891 11.26673,3.29793 19.20786,10.19859 15.97259,29.20702 6.70877,3.41037 17.25237,-5.64244 19.62347,11.86535 3.71869,6.0848 8.91094,12.16959 0.91272,18.25439 l -47.00505,1.82543 -0.91272,-93.55373 z"
       id="path3713"
       sodipodi:nodetypes="cccccccc"
       inkscape:connector-curvature="0" />
    <path
       style="fill:#a02c2c;fill-rule:evenodd;stroke:#000000;stroke-width:4;stroke-linecap:butt;stroke-linejoin:miter;stroke-miterlimit:4;stroke-opacity:1;stroke-dasharray:none"
       d="m 290.22834,581.03719 c 43.49926,-16.84307 78.42685,-28.22096 126.83033,-35.18847 -33.82945,-74.989 0.42328,-187.32987 5.00144,-273.43553 L 297.3643,292.93718 c -6.27217,94.16656 -21.57685,190.72876 -7.13596,288.10001 z"
       id="path3489"
       sodipodi:nodetypes="ccccc"
       inkscape:connector-curvature="0" />
    <path
       style="opacity:0.3744681;fill:#000000;fill-rule:evenodd;stroke:#000000;stroke-width:4;stroke-linecap:butt;stroke-linejoin:miter;stroke-miterlimit:4;stroke-opacity:1;stroke-dasharray:none"
       d="m 290.22834,581.03719 c 43.49926,-16.84307 78.42685,-28.22096 126.83033,-35.18847 -33.82945,-74.989 0.42328,-187.32987 5.00144,-273.43553 L 297.3643,292.93718 c -6.27217,94.16656 -21.57685,190.72876 -7.13596,288.10001 z"
       id="path3535"
       sodipodi:nodetypes="ccccc"
       inkscape:connector-curvature="0" />
    <path
       style="opacity:0.70212761;fill:#000000;fill-rule:evenodd;stroke:#000000;stroke-width:4;stroke-linecap:butt;stroke-linejoin:miter;stroke-miterlimit:4;stroke-opacity:1;stroke-dasharray:none"
       d="M 41.325425,301.11639 99.467146,297.33965 72.584407,258.81698 41.325425,301.11639 z"
       id="path3768"
       inkscape:connector-curvature="0" />
    <path
       style="fill:#c83737;fill-rule:evenodd;stroke:#000000;stroke-width:4;stroke-linecap:butt;stroke-linejoin:miter;stroke-miterlimit:4;stroke-opacity:1;stroke-dasharray:none"
       d="m 83.264523,573.04125 c 89.575177,-8.45323 122.477327,4.70644 207.633447,6.92772 -13.9788,-109.94353 -0.41804,-206.34454 7.71667,-295.57758 L 169.48735,76.023049 56.792468,279.85934 c 9.007344,96.71537 31.918888,169.2337 26.472055,293.18191 z"
       id="path3487"
       sodipodi:nodetypes="cccccc"
       inkscape:connector-curvature="0" />
    <path
       style="opacity:0.13191486;fill:#000000;fill-rule:evenodd;stroke:#000000;stroke-width:4;stroke-linecap:butt;stroke-linejoin:miter;stroke-miterlimit:4;stroke-opacity:1;stroke-dasharray:none"
       d="M 161.34752,93.999997 C 254.5474,332.11039 330.34401,558.84834 82.60993,574.17021 l 202.65248,6.4539 L 295.58865,292.78014 161.34752,93.999997 z"
       id="path3764"
       sodipodi:nodetypes="ccccc"
       inkscape:connector-curvature="0" />
    <path
       style="opacity:0.20425529;fill:#000000;fill-rule:evenodd;stroke:#000000;stroke-width:4;stroke-linecap:butt;stroke-linejoin:miter;stroke-miterlimit:4;stroke-opacity:1;stroke-dasharray:none"
       d="m 418.93421,297.33965 -123.78564,15.10692 2.50072,-18.12832 124.41082,-12.08554 -3.1259,15.10694 z"
       id="path3537"
       sodipodi:nodetypes="ccccc"
       inkscape:connector-curvature="0" />
    <path
       style="fill:#6f916f;fill-rule:evenodd;stroke:#000000;stroke-width:4;stroke-linecap:butt;stroke-linejoin:miter;stroke-miterlimit:4;stroke-opacity:1;stroke-dasharray:none"
       d="M 456.85721,279.32194 302.23268,295.52856 C 232.99517,256.86634 204.48229,160.79978 160.77054,86.157118 121.41643,158.56464 94.850386,242.56008 38.759453,299.80145 L 19.308398,289.11922 C 87.428315,221.13903 118.89158,126.58553 166.07537,43.428269 212.55737,124.71293 246.7965,220.78947 314.61058,276.30056 l 145.78318,-20.47945 -3.53655,23.50083 z"
       id="path3491"
       sodipodi:nodetypes="ccccccccc"
       inkscape:connector-curvature="0" />
    <path
       style="fill:#374837;fill-rule:evenodd;stroke:#000000;stroke-width:4;stroke-linecap:butt;stroke-linejoin:miter;stroke-miterlimit:4;stroke-opacity:1;stroke-dasharray:none"
       d="m 169.61193,45.564714 c 63.35154,43.412767 177.62106,20.986251 193.70946,-9.215867 33.43054,75.487663 21.47122,147.890913 84.56881,223.378583 L 312.84231,276.30056 C 251.03508,215.99955 213.26726,133.27973 169.61193,45.564714 z"
       id="path3493"
       sodipodi:nodetypes="ccccc"
       inkscape:connector-curvature="0" />
    <path
       style="fill:#d45500;fill-rule:evenodd;stroke:#000000;stroke-width:4;stroke-linecap:butt;stroke-linejoin:miter;stroke-miterlimit:4;stroke-opacity:1;stroke-dasharray:none"
       d="m 148.23121,571.53053 -9.37769,-176.75115 c 28.11521,-2.57922 55.91483,-1.738 85.20762,-8.58375 l -12.06154,188.35628 -63.76839,-3.02138 z"
       id="path3495"
       sodipodi:nodetypes="ccccc"
       inkscape:connector-curvature="0" />
    <path
       style="fill:#87decd;fill-rule:evenodd;stroke:#000000;stroke-width:4;stroke-linecap:butt;stroke-linejoin:miter;stroke-miterlimit:4;stroke-opacity:1;stroke-dasharray:none"
       d="m 227.62912,398.55613 5.00143,80.06676 38.76115,0 10.62807,-90.64164 -54.39065,10.57488 z"
       id="path3497"
       sodipodi:nodetypes="ccccc"
       inkscape:connector-curvature="0" />
    <path
       style="fill:#87decd;fill-rule:evenodd;stroke:#000000;stroke-width:4;stroke-linecap:butt;stroke-linejoin:miter;stroke-miterlimit:4;stroke-opacity:1;stroke-dasharray:none"
       d="m 81.723887,403.95328 9.615563,81.19515 38.67729,-3.07906 3.82903,-88.77641 -52.121883,10.66032 z"
       id="path3499"
       sodipodi:nodetypes="ccccc"
       inkscape:connector-curvature="0" />
    <rect
       style="color:#000000;fill:#d45500;fill-opacity:1;fill-rule:evenodd;stroke:#000000;stroke-width:4.00078917;stroke-linecap:butt;stroke-linejoin:miter;stroke-miterlimit:4;stroke-opacity:1;stroke-dasharray:none;stroke-dashoffset:0;marker:none;visibility:visible;display:inline;overflow:visible;enable-background:accumulate"
       id="rect3513"
       width="7.9672623"
       height="32.552643"
       x="229.33836"
       y="452.37421"
       transform="matrix(0.9960026,0.08932395,-0.06132068,0.9981181,0,0)" />
    <path
       sodipodi:type="arc"
       style="color:#000000;fill:#d45500;fill-opacity:1;fill-rule:evenodd;stroke:#000000;stroke-width:0.93917489;stroke-linecap:butt;stroke-linejoin:miter;stroke-miterlimit:4;stroke-opacity:1;stroke-dasharray:none;stroke-dashoffset:0;marker:none;visibility:visible;display:inline;overflow:visible;enable-background:accumulate"
       id="path3515"
       sodipodi:cx="191.78516"
       sodipodi:cy="62.088604"
       sodipodi:rx="2.1677086"
       sodipodi:ry="1.8254387"
       d="m 193.95286,62.088604 c 0,1.008162 -0.97051,1.825439 -2.1677,1.825439 -1.1972,0 -2.16771,-0.817277 -2.16771,-1.825439 0,-1.008162 0.97051,-1.825439 2.16771,-1.825439 1.19719,0 2.1677,0.817277 2.1677,1.825439 z"
       transform="matrix(3.8747431,0,0,4.68149,-539.46697,197.6754)" />
    <path
       style="opacity:0.4851064;fill:#000000;fill-rule:evenodd;stroke:#000000;stroke-width:4;stroke-linecap:butt;stroke-linejoin:miter;stroke-miterlimit:4;stroke-opacity:1;stroke-dasharray:none"
       d="m 163.86073,94.15137 c -32.3266,67.97345 -65.497999,135.69177 -104.405112,201.6776 l -2.50072,-15.10693 C 102.02355,217.27287 127.66195,153.82375 160.73482,90.374625 l 3.12591,3.776745 z"
       id="path3521"
       sodipodi:nodetypes="ccccc"
       inkscape:connector-curvature="0" />
    <path
       style="opacity:0.39148937;fill:#ffffff;fill-rule:evenodd;stroke:none"
       d="m 231.8924,416.44149 22.10461,-14.68263 -2.25886,14.35993 -20.16844,10.32624 0.32269,-10.00354 z"
       id="path3679"
       sodipodi:nodetypes="ccccc"
       inkscape:connector-curvature="0" />
    <path
       transform="matrix(0.9997256,0.02342368,-0.01326153,0.9999121,0,0)"
       style="color:#000000;fill:#803300;fill-opacity:1;fill-rule:evenodd;stroke:#000000;stroke-width:4.00010347;stroke-linecap:butt;stroke-linejoin:miter;stroke-miterlimit:4;stroke-opacity:1;stroke-dasharray:none;stroke-dashoffset:0;marker:none;visibility:visible;display:inline;overflow:visible;enable-background:accumulate"
       d="m 254.983,390.10858 6.61786,-1.44802 1.00015,82.12691 -6.62856,0.64146 -0.98945,-81.32035 z"
       id="rect3531"
       sodipodi:nodetypes="ccccc"
       inkscape:connector-curvature="0" />
    <path
       style="fill:#87decd;fill-rule:evenodd;stroke:#000000;stroke-width:4;stroke-linecap:butt;stroke-linejoin:miter;stroke-miterlimit:4;stroke-opacity:1;stroke-dasharray:none"
       d="m 331.40898,468.80338 -2.50071,-71.75797 48.13887,-7.55345 -8.1273,70.24726 -37.51086,9.06416 z"
       id="path3539"
       inkscape:connector-curvature="0" />
    <rect
       style="color:#000000;fill:#803300;fill-opacity:1;fill-rule:evenodd;stroke:#000000;stroke-width:4.00004911;stroke-linecap:butt;stroke-linejoin:miter;stroke-miterlimit:4;stroke-opacity:1;stroke-dasharray:none;stroke-dashoffset:0;marker:none;visibility:visible;display:inline;overflow:visible;enable-background:accumulate"
       id="rect3545"
       width="4.4518147"
       height="80.310791"
       x="357.7012"
       y="393.03876"
       transform="matrix(0.9999879,0.00491194,-0.01191422,0.999929,0,0)" />
    <path
       style="opacity:0.37872338;fill:#ffffff;fill-rule:evenodd;stroke:none"
       d="m 354.77248,395.13371 0.28092,66.53249 -2.2744,0.0379 0.75558,-66.38865 1.2379,-0.18172 z"
       id="path3581"
       inkscape:connector-curvature="0" />
    <path
       style="opacity:0.09361704;fill:#000000;fill-rule:evenodd;stroke:#000000;stroke-width:4;stroke-linecap:butt;stroke-linejoin:miter;stroke-miterlimit:4;stroke-opacity:1;stroke-dasharray:none"
       d="m 365.29078,26.879429 c 3.83517,89.301951 38.13224,190.158421 -51.6312,243.957451 L 446.60993,255.34752 C 394.77796,186.60917 384.66338,105.35559 365.29078,26.879429 z"
       id="path3555"
       sodipodi:nodetypes="cccc"
       inkscape:connector-curvature="0" />
    <path
       style="opacity:0.4255319;fill:#000000;fill-rule:evenodd;stroke:#000000;stroke-width:4;stroke-linecap:butt;stroke-linejoin:miter;stroke-miterlimit:4;stroke-opacity:1;stroke-dasharray:none"
       d="m 144.66602,395.84756 10.03992,173.41669 -5.47632,0.91272 -10.49627,-174.32941 5.93267,0 z"
       id="path3557"
       inkscape:connector-curvature="0" />
    <path
       sodipodi:type="arc"
       style="opacity:0.61276598;color:#000000;fill:#ffffff;fill-opacity:1;fill-rule:evenodd;stroke:none;stroke-width:1.15568459;marker:none;visibility:visible;display:inline;overflow:visible;enable-background:accumulate"
       id="path3559"
       sodipodi:cx="178.66483"
       sodipodi:cy="481.58615"
       sodipodi:rx="0.91271937"
       sodipodi:ry="0.85567445"
       d="m 179.57754,481.58615 c 0,0.47258 -0.40863,0.85568 -0.91271,0.85568 -0.50409,0 -0.91272,-0.3831 -0.91272,-0.85568 0,-0.47257 0.40863,-0.85567 0.91272,-0.85567 0.50408,0 0.91271,0.3831 0.91271,0.85567 z"
       transform="matrix(3.351246,0,0,3.5746624,-397.09585,-1235.9286)" />
    <path
       style="opacity:0.49361704;fill:#000000;fill-rule:evenodd;stroke:#000000;stroke-width:4;stroke-linecap:butt;stroke-linejoin:miter;stroke-miterlimit:4;stroke-opacity:1;stroke-dasharray:none"
       d="m 207.64366,484.15316 c 0.41033,5.50113 -2.76829,8.03746 -9.35537,7.75812 5.82103,6.57695 17.29855,1.13731 9.35537,-7.75812 z"
       id="path3561"
       sodipodi:nodetypes="ccc"
       inkscape:connector-curvature="0" />
    <g
       id="g3741"
       style="stroke-width:4;stroke-miterlimit:4;stroke-dasharray:none">
      <path
         id="path3503"
         d="m 85.176705,481.93323 49.953845,-2.67056 0.88414,14.95511 -49.069705,0.53412 -1.76828,-12.81867 z"
         style="fill:#d45500;fill-rule:evenodd;stroke:#000000;stroke-width:4;stroke-linecap:butt;stroke-linejoin:miter;stroke-miterlimit:4;stroke-opacity:1;stroke-dasharray:none"
         inkscape:connector-curvature="0" />
      <path
         id="path3565"
         d="m 130.29069,482.09954 c 0,0 1.1409,7.75812 0.22818,7.75812 -0.91272,0 -43.810527,0 -43.810527,0 l 0,4.79178 49.515027,-0.45636 c 0,0 0.91272,-13.69079 -1.59726,-13.69079 -2.50998,0 -4.5636,1.82543 -4.33542,1.59725 z"
         style="opacity:0.59574465;fill:#000000;fill-rule:evenodd;stroke:#000000;stroke-width:4;stroke-linecap:butt;stroke-linejoin:miter;stroke-miterlimit:4;stroke-opacity:1;stroke-dasharray:none"
         inkscape:connector-curvature="0" />
      <path
         id="path3571"
         d="m 91.645391,488.97872 -0.322695,-2.58156 38.400714,-0.96808 0,-3.22695 -43.24114,1.29078 0.322695,6.4539 4.840426,-0.96809 z"
         style="opacity:0.1744681;fill:#ffffff;fill-rule:evenodd;stroke:none"
         inkscape:connector-curvature="0" />
    </g>
    <g
       id="g3728"
       style="stroke-width:4;stroke-miterlimit:4;stroke-dasharray:none">
      <path
         id="path3501"
         d="m 224.87057,479.26267 51.72208,0 0.88414,16.55745 -52.16415,-2.13644 -0.44207,-14.42101 z"
         style="fill:#d45500;fill-rule:evenodd;stroke:#000000;stroke-width:4;stroke-linecap:butt;stroke-linejoin:miter;stroke-miterlimit:4;stroke-opacity:1;stroke-dasharray:none"
         inkscape:connector-curvature="0" />
      <path
         id="path3567"
         d="m 270.65448,482.55589 c 0,0 1.1409,7.75812 0.22818,7.75812 -0.91272,0 -43.81053,0 -43.81053,0 l 0,4.79178 49.51503,-0.45636 c 0,0 0.91272,-13.69079 -1.59726,-13.69079 -2.50998,0 -4.5636,1.82543 -4.33542,1.59725 z"
         style="opacity:0.59574465;fill:#000000;fill-rule:evenodd;stroke:#000000;stroke-width:4;stroke-linecap:butt;stroke-linejoin:miter;stroke-miterlimit:4;stroke-opacity:1;stroke-dasharray:none"
         inkscape:connector-curvature="0" />
      <path
         sodipodi:nodetypes="ccccccc"
         id="path3573"
         d="m 231.1997,489.30273 0.0877,-5.17393 38.98221,0.53075 0.11539,-3.22473 -43.90309,-0.39712 0.25782,9.20496 4.45995,-0.93993 z"
         style="opacity:0.1744681;fill:#ffffff;fill-rule:evenodd;stroke:none"
         inkscape:connector-curvature="0" />
    </g>
    <g
       id="g3715"
       style="stroke-width:4;stroke-miterlimit:4;stroke-dasharray:none">
      <path
         sodipodi:nodetypes="ccccc"
         id="path3541"
         d="m 323.82599,470.42402 57.59744,-12.95083 -2.50071,18.12832 -55.0159,12.84086 -0.0808,-18.01835 z"
         style="fill:#d45500;fill-rule:evenodd;stroke:#000000;stroke-width:4;stroke-linecap:butt;stroke-linejoin:miter;stroke-miterlimit:4;stroke-opacity:1;stroke-dasharray:none"
         inkscape:connector-curvature="0" />
      <path
         id="path3569"
         d="m 331.4078,484.78369 -5.48581,1.45212 -0.16135,-14.35992 52.92199,-11.45568 -0.3227,3.87234 -46.62943,10.97163 -0.3227,9.51951 z"
         style="opacity:0.21702127;fill:#ffffff;fill-rule:evenodd;stroke:none"
         inkscape:connector-curvature="0" />
      <path
         id="path3575"
         d="m 373.03546,466.71276 0.3227,4.84043 -41.62766,8.71277 -0.64539,4.51773 47.11347,-10.64894 0,-8.71277 -5.16312,1.29078 z"
         style="opacity:0.39148937;fill:#000000;fill-rule:evenodd;stroke:#000000;stroke-width:4;stroke-linecap:butt;stroke-linejoin:miter;stroke-miterlimit:4;stroke-opacity:1;stroke-dasharray:none"
         inkscape:connector-curvature="0" />
    </g>
    <g
       id="g3583"
       style="stroke-width:4;stroke-miterlimit:4;stroke-dasharray:none">
      <rect
         transform="matrix(0.02357172,0.9997221,-0.9763502,0.2161949,0,0)"
         y="-369.0278"
         x="504.32086"
         height="41.541088"
         width="4.8079553"
         id="rect3547"
         style="color:#000000;fill:#803300;fill-opacity:1;fill-rule:evenodd;stroke:#000000;stroke-width:4.03819036;stroke-linecap:butt;stroke-linejoin:miter;stroke-miterlimit:4;stroke-opacity:1;stroke-dasharray:none;stroke-dashoffset:0;marker:none;visibility:visible;display:inline;overflow:visible;enable-background:accumulate" />
      <path
         id="path3577"
         d="m 332.18389,436.80219 38.84098,-8.93841 -0.1165,-2.47972 0.80443,0.0407 0.0703,3.39362 -39.57421,9.08456 -0.025,-1.10074 z"
         style="opacity:0.36170211;fill:none;stroke:#000000;stroke-width:4;stroke-linecap:butt;stroke-linejoin:miter;stroke-miterlimit:4;stroke-opacity:1;stroke-dasharray:none"
         inkscape:connector-curvature="0" />
      <path
         id="path3579"
         d="m 333.19544,435.93713 -0.25244,-1.38712 37.59737,-8.26834 -0.18124,-1.20027 -38.10313,8.70087 -0.0397,2.38019 0.97919,-0.22533 z"
         style="opacity:0.23404254;fill:#ffffff;fill-rule:evenodd;stroke:none"
         inkscape:connector-curvature="0" />
    </g>
    <path
       style="opacity:0.39148937;fill:#ffffff;fill-rule:evenodd;stroke:none"
       d="m 250.76966,477.07959 2.05361,-0.22818 0.22818,-80.77567 -2.50997,0.45636 0.22818,80.54749 z"
       id="path3597"
       sodipodi:nodetypes="ccccc"
       inkscape:connector-curvature="0" />
    <path
       style="fill:#803300;fill-rule:evenodd;stroke:#000000;stroke-width:4;stroke-linecap:butt;stroke-linejoin:miter;stroke-miterlimit:4;stroke-opacity:1;stroke-dasharray:none"
       d="m 231.60255,439.20173 42.89781,-4.33541 -0.91272,5.93267 -41.30055,4.10724 -0.68454,-5.7045 z"
       id="path3599"
       sodipodi:nodetypes="ccccc"
       inkscape:connector-curvature="0" />
    <path
       style="opacity:0.39148937;fill:#ffffff;fill-rule:evenodd;stroke:none"
       d="m 232.28709,441.14126 1.71135,-0.34227 39.5892,-3.53679 0.11409,-1.93953 -41.64282,4.5636 0.79863,5.01996 -0.57045,-3.76497 z"
       id="path3601"
       sodipodi:nodetypes="ccccccc"
       inkscape:connector-curvature="0" />
    <path
       style="opacity:0.15319148;fill:#000000;fill-rule:evenodd;stroke:none"
       d="m 234.22662,443.08079 37.19331,-3.30861 0,-2.16771 2.50998,-0.11409 -0.68454,2.85225 -39.24693,3.99315 0.22818,-1.25499 z"
       id="path3603"
       sodipodi:nodetypes="ccccccc"
       inkscape:connector-curvature="0" />
    <path
       style="opacity:0.4317022;fill:#000000;fill-rule:evenodd;stroke:#000000;stroke-width:4;stroke-linecap:butt;stroke-linejoin:miter;stroke-miterlimit:4;stroke-opacity:1;stroke-dasharray:none"
       d="m 250.69681,443.46525 5.51439,-0.2356 0,1.02095 -5.74904,0.39267 0.23465,-1.17802 z"
       id="path3605"
       inkscape:connector-curvature="0" />
    <path
       style="opacity:0.39148937;fill:#ffffff;fill-rule:evenodd;stroke:none"
       d="m 109.588,419.17965 22.10461,-14.68263 -2.25886,14.35993 -20.16844,10.32624 0.32269,-10.00354 z"
       id="path3681"
       sodipodi:nodetypes="ccccc"
       inkscape:connector-curvature="0" />
    <path
       style="color:#000000;fill:#803300;fill-opacity:1;fill-rule:evenodd;stroke:#000000;stroke-width:4;stroke-linecap:butt;stroke-linejoin:miter;stroke-miterlimit:4;stroke-opacity:1;stroke-dasharray:none;stroke-dashoffset:0;marker:none;visibility:visible;display:inline;overflow:visible;enable-background:accumulate"
       d="m 105.28807,400.93468 6.66298,-1.23619 -0.0896,78.54165 -6.66298,0.46483 0.0896,-77.77029 z"
       id="path3615"
       sodipodi:nodetypes="ccccc"
       inkscape:connector-curvature="0" />
    <path
       style="opacity:0.39148937;fill:#ffffff;fill-rule:evenodd;stroke:none"
       d="m 106.33182,478.3872 2.05361,-0.21918 0.22818,-77.59015 -2.50997,0.43836 0.22818,77.37097 z"
       id="path3617"
       sodipodi:nodetypes="ccccc"
       inkscape:connector-curvature="0" />
    <path
       style="fill:#803300;fill-rule:evenodd;stroke:#000000;stroke-width:4;stroke-linecap:butt;stroke-linejoin:miter;stroke-miterlimit:4;stroke-opacity:1;stroke-dasharray:none"
       d="m 87.164707,440.50934 42.897813,-4.33541 -0.91272,5.93267 -41.300553,4.10724 -0.68454,-5.7045 z"
       id="path3619"
       sodipodi:nodetypes="ccccc"
       inkscape:connector-curvature="0" />
    <path
       style="opacity:0.39148937;fill:#ffffff;fill-rule:evenodd;stroke:none"
       d="m 87.735158,442.56296 1.825439,-0.45636 39.589203,-3.53679 0.11409,-1.93953 -41.642823,4.5636 0.79863,5.01996 -0.684539,-3.65088 z"
       id="path3621"
       sodipodi:nodetypes="ccccccc"
       inkscape:connector-curvature="0" />
    <path
       style="opacity:0.15319148;fill:#000000;fill-rule:evenodd;stroke:none"
       d="m 89.446507,444.16022 37.535583,-3.08043 0,-2.16771 2.50998,-0.11409 -0.68454,2.85225 -39.246933,3.99315 -0.11409,-1.48317 z"
       id="path3623"
       sodipodi:nodetypes="ccccccc"
       inkscape:connector-curvature="0" />
    <path
       style="opacity:0.4317022;fill:#000000;fill-rule:evenodd;stroke:#000000;stroke-width:4;stroke-linecap:butt;stroke-linejoin:miter;stroke-miterlimit:4;stroke-opacity:1;stroke-dasharray:none"
       d="m 106.25897,444.77286 5.51439,-0.2356 0,1.02095 -5.74904,0.39267 0.23465,-1.17802 z"
       id="path3625"
       inkscape:connector-curvature="0" />
    <path
       style="fill:#87decd;fill-rule:evenodd;stroke:#000000;stroke-width:4;stroke-linecap:butt;stroke-linejoin:miter;stroke-miterlimit:4;stroke-opacity:1;stroke-dasharray:none"
       d="m 151.7476,251.27204 9.61556,81.19515 38.67729,-3.07906 3.82903,-88.77641 -52.12188,10.66032 z"
       id="path3627"
       sodipodi:nodetypes="ccccc"
       inkscape:connector-curvature="0" />
    <path
       style="fill:#d45500;fill-rule:evenodd;stroke:#000000;stroke-width:4;stroke-linecap:butt;stroke-linejoin:miter;stroke-miterlimit:4;stroke-opacity:1;stroke-dasharray:none"
       d="m 155.20042,329.25199 49.95384,-2.67056 0.88414,14.95511 -49.0697,0.53412 -1.76828,-12.81867 z"
       id="path3629"
       inkscape:connector-curvature="0" />
    <path
       style="opacity:0.59574465;fill:#000000;fill-rule:evenodd;stroke:#000000;stroke-width:4;stroke-linecap:butt;stroke-linejoin:miter;stroke-miterlimit:4;stroke-opacity:1;stroke-dasharray:none"
       d="m 200.3144,329.4183 c 0,0 1.1409,7.75812 0.22818,7.75812 -0.91272,0 -43.81052,0 -43.81052,0 l 0,4.79178 49.51502,-0.45636 c 0,0 0.91272,-13.69079 -1.59726,-13.69079 -2.50998,0 -4.5636,1.82543 -4.33542,1.59725 z"
       id="path3631"
       inkscape:connector-curvature="0" />
    <path
       style="opacity:0.1744681;fill:#ffffff;fill-rule:evenodd;stroke:none"
       d="m 161.66911,336.29748 -0.3227,-2.58156 38.40071,-0.96808 0,-3.22695 -43.24114,1.29078 0.3227,6.4539 4.84043,-0.96809 z"
       id="path3633"
       inkscape:connector-curvature="0" />
    <path
       style="opacity:0.42127662;fill:#ffffff;fill-rule:evenodd;stroke:none"
       d="m 182.3157,277.42222 18.25439,-9.35537 -0.22818,4.56359 -17.56985,7.9863 -0.45636,-3.19452 z"
       id="path3677"
       inkscape:connector-curvature="0" />
    <path
       style="opacity:0.45978729;fill:#ffffff;fill-rule:evenodd;stroke:none"
       d="m 156.53138,273.0868 44.49507,-23.95888 -0.68454,12.54989 -42.89781,20.30801 -0.91272,-8.89902 z"
       id="path3665"
       inkscape:connector-curvature="0" />
    <path
       style="color:#000000;fill:#803300;fill-opacity:1;fill-rule:evenodd;stroke:#000000;stroke-width:4;stroke-linecap:butt;stroke-linejoin:miter;stroke-miterlimit:4;stroke-opacity:1;stroke-dasharray:none;stroke-dashoffset:0;marker:none;visibility:visible;display:inline;overflow:visible;enable-background:accumulate"
       d="m 175.31178,248.25344 6.66298,-1.23619 -0.0896,78.54165 -6.66298,0.46483 0.0896,-77.77029 z"
       id="path3635"
       sodipodi:nodetypes="ccccc"
       inkscape:connector-curvature="0" />
    <path
       style="opacity:0.39148937;fill:#ffffff;fill-rule:evenodd;stroke:none"
       d="m 176.35553,325.70596 2.05361,-0.21918 0.22818,-77.59015 -2.50997,0.43836 0.22818,77.37097 z"
       id="path3637"
       sodipodi:nodetypes="ccccc"
       inkscape:connector-curvature="0" />
    <path
       style="fill:#803300;fill-rule:evenodd;stroke:#000000;stroke-width:4;stroke-linecap:butt;stroke-linejoin:miter;stroke-miterlimit:4;stroke-opacity:1;stroke-dasharray:none"
       d="m 157.18842,287.8281 42.89781,-4.33541 -0.91272,5.93267 -41.30055,4.10724 -0.68454,-5.7045 z"
       id="path3639"
       sodipodi:nodetypes="ccccc"
       inkscape:connector-curvature="0" />
    <path
       style="opacity:0.39148937;fill:#ffffff;fill-rule:evenodd;stroke:none"
       d="m 157.75887,289.88172 1.82544,-0.45636 39.5892,-3.53679 0.11409,-1.93953 -41.64282,4.5636 0.79863,5.01996 -0.68454,-3.65088 z"
       id="path3641"
       sodipodi:nodetypes="ccccccc"
       inkscape:connector-curvature="0" />
    <path
       style="opacity:0.15319148;fill:#000000;fill-rule:evenodd;stroke:none"
       d="m 159.47022,291.47898 37.53558,-3.08043 0,-2.16771 2.50998,-0.11409 -0.68454,2.85225 -39.24693,3.99315 -0.11409,-1.48317 z"
       id="path3643"
       sodipodi:nodetypes="ccccccc"
       inkscape:connector-curvature="0" />
    <path
       style="opacity:0.4317022;fill:#000000;fill-rule:evenodd;stroke:#000000;stroke-width:4;stroke-linecap:butt;stroke-linejoin:miter;stroke-miterlimit:4;stroke-opacity:1;stroke-dasharray:none"
       d="m 176.28268,292.09162 5.51439,-0.2356 0,1.02095 -5.74904,0.39267 0.23465,-1.17802 z"
       id="path3645"
       inkscape:connector-curvature="0" />
    <path
       style="opacity:0.39148937;fill:#ffffff;fill-rule:evenodd;stroke:none"
       d="m 256.86524,415.24292 22.10461,-14.68263 -2.25886,14.35993 -20.16844,10.32624 0.32269,-10.00354 z"
       id="path3663"
       sodipodi:nodetypes="ccccc"
       inkscape:connector-curvature="0" />
    <path
       style="opacity:0.14042556;fill:#000000;fill-rule:evenodd;stroke:#000000;stroke-width:4;stroke-linecap:butt;stroke-linejoin:miter;stroke-miterlimit:4;stroke-opacity:1;stroke-dasharray:none"
       d="m 209.01274,573.37148 -14.60351,0 C 233.34625,368.4869 200.81114,398.79236 141.47151,395.3912 l 81.23202,-7.30175 -13.69079,185.28203 z"
       id="path3687"
       sodipodi:nodetypes="ccccc"
       inkscape:connector-curvature="0" />
    <path
       style="opacity:0.28936169;fill:#000000;fill-rule:evenodd;stroke:#000000;stroke-width:4;stroke-linecap:butt;stroke-linejoin:miter;stroke-miterlimit:4;stroke-opacity:1;stroke-dasharray:none"
       d="m 141.34043,394.75177 1.29078,11.61702 c 21.2288,-6.55949 51.06235,-6.66541 78.73759,-8.39007 l 1.29078,-9.03546 -81.31915,5.80851 z"
       id="path3689"
       sodipodi:nodetypes="ccccc"
       inkscape:connector-curvature="0" />
    <g
       id="g3720"
       transform="translate(1.6944411,-87.241469)"
       style="stroke-width:4;stroke-miterlimit:4;stroke-dasharray:none">
      <path
         sodipodi:nodetypes="ccccc"
         id="path3722"
         d="m 323.82599,470.42402 57.59744,-12.95083 -2.50071,18.12832 -55.0159,12.84086 -0.0808,-18.01835 z"
         style="fill:#d45500;fill-rule:evenodd;stroke:#000000;stroke-width:4;stroke-linecap:butt;stroke-linejoin:miter;stroke-miterlimit:4;stroke-opacity:1;stroke-dasharray:none"
         inkscape:connector-curvature="0" />
      <path
         id="path3724"
         d="m 331.4078,484.78369 -5.48581,1.45212 -0.16135,-14.35992 52.92199,-11.45568 -0.3227,3.87234 -46.62943,10.97163 -0.3227,9.51951 z"
         style="opacity:0.21702127;fill:#ffffff;fill-rule:evenodd;stroke:none"
         inkscape:connector-curvature="0" />
      <path
         id="path3726"
         d="m 373.03546,466.71276 0.3227,4.84043 -41.62766,8.71277 -0.64539,4.51773 47.11347,-10.64894 0,-8.71277 -5.16312,1.29078 z"
         style="opacity:0.39148937;fill:#000000;fill-rule:evenodd;stroke:#000000;stroke-width:4;stroke-linecap:butt;stroke-linejoin:miter;stroke-miterlimit:4;stroke-opacity:1;stroke-dasharray:none"
         inkscape:connector-curvature="0" />
    </g>
    <g
       id="g3733"
       transform="matrix(1.0714663,-0.1054003,0.1135654,0.9944299,-69.24024,-70.699453)"
       style="stroke-width:3.85352182;stroke-miterlimit:4;stroke-dasharray:none">
      <path
         id="path3735"
         d="m 224.87057,479.26267 51.72208,0 0.88414,16.55745 -52.16415,-2.13644 -0.44207,-14.42101 z"
         style="fill:#d45500;fill-rule:evenodd;stroke:#000000;stroke-width:3.85352182;stroke-linecap:butt;stroke-linejoin:miter;stroke-miterlimit:4;stroke-opacity:1;stroke-dasharray:none"
         inkscape:connector-curvature="0" />
      <path
         id="path3737"
         d="m 270.65448,482.55589 c 0,0 1.1409,7.75812 0.22818,7.75812 -0.91272,0 -43.81053,0 -43.81053,0 l 0,4.79178 49.51503,-0.45636 c 0,0 0.91272,-13.69079 -1.59726,-13.69079 -2.50998,0 -4.5636,1.82543 -4.33542,1.59725 z"
         style="opacity:0.59574465;fill:#000000;fill-rule:evenodd;stroke:#000000;stroke-width:3.85352182;stroke-linecap:butt;stroke-linejoin:miter;stroke-miterlimit:4;stroke-opacity:1;stroke-dasharray:none"
         inkscape:connector-curvature="0" />
      <path
         sodipodi:nodetypes="ccccccc"
         id="path3739"
         d="m 231.1997,489.30273 0.0877,-5.17393 38.98221,0.53075 0.11539,-3.22473 -43.90309,-0.39712 0.25782,9.20496 4.45995,-0.93993 z"
         style="opacity:0.1744681;fill:#ffffff;fill-rule:evenodd;stroke:none"
         inkscape:connector-curvature="0" />
    </g>
    <g
       id="g3746"
       transform="matrix(1.1078379,-0.1024202,0.1218139,0.9948651,-74.084899,-75.205831)"
       style="stroke-width:3.78874612;stroke-miterlimit:4;stroke-dasharray:none">
      <path
         id="path3748"
         d="m 85.176705,481.93323 49.953845,-2.67056 0.88414,14.95511 -49.069705,0.53412 -1.76828,-12.81867 z"
         style="fill:#d45500;fill-rule:evenodd;stroke:#000000;stroke-width:3.78874612;stroke-linecap:butt;stroke-linejoin:miter;stroke-miterlimit:4;stroke-opacity:1;stroke-dasharray:none"
         inkscape:connector-curvature="0" />
      <path
         id="path3750"
         d="m 130.29069,482.09954 c 0,0 1.1409,7.75812 0.22818,7.75812 -0.91272,0 -43.810527,0 -43.810527,0 l 0,4.79178 49.515027,-0.45636 c 0,0 0.91272,-13.69079 -1.59726,-13.69079 -2.50998,0 -4.5636,1.82543 -4.33542,1.59725 z"
         style="opacity:0.59574465;fill:#000000;fill-rule:evenodd;stroke:#000000;stroke-width:3.78874612;stroke-linecap:butt;stroke-linejoin:miter;stroke-miterlimit:4;stroke-opacity:1;stroke-dasharray:none"
         inkscape:connector-curvature="0" />
      <path
         id="path3752"
         d="m 91.645391,488.97872 -0.322695,-2.58156 38.400714,-0.96808 0,-3.22695 -43.24114,1.29078 0.322695,6.4539 4.840426,-0.96809 z"
         style="opacity:0.1744681;fill:#ffffff;fill-rule:evenodd;stroke:none"
         inkscape:connector-curvature="0" />
    </g>
    <g
       id="g3754"
       transform="matrix(1.1307861,-0.1024202,0.1243372,0.9948651,-8.9091375,-231.33972)"
       style="stroke-width:3.75010467;stroke-miterlimit:4;stroke-dasharray:none">
      <path
         id="path3756"
         d="m 85.176705,481.93323 49.953845,-2.67056 0.88414,14.95511 -49.069705,0.53412 -1.76828,-12.81867 z"
         style="fill:#d45500;fill-rule:evenodd;stroke:#000000;stroke-width:3.75010467;stroke-linecap:butt;stroke-linejoin:miter;stroke-miterlimit:4;stroke-opacity:1;stroke-dasharray:none"
         inkscape:connector-curvature="0" />
      <path
         id="path3758"
         d="m 130.29069,482.09954 c 0,0 1.1409,7.75812 0.22818,7.75812 -0.91272,0 -43.810527,0 -43.810527,0 l 0,4.79178 49.515027,-0.45636 c 0,0 0.91272,-13.69079 -1.59726,-13.69079 -2.50998,0 -4.5636,1.82543 -4.33542,1.59725 z"
         style="opacity:0.59574465;fill:#000000;fill-rule:evenodd;stroke:#000000;stroke-width:3.75010467;stroke-linecap:butt;stroke-linejoin:miter;stroke-miterlimit:4;stroke-opacity:1;stroke-dasharray:none"
         inkscape:connector-curvature="0" />
      <path
         id="path3760"
         d="m 91.645391,488.97872 -0.322695,-2.58156 38.400714,-0.96808 0,-3.22695 -43.24114,1.29078 0.322695,6.4539 4.840426,-0.96809 z"
         style="opacity:0.1744681;fill:#ffffff;fill-rule:evenodd;stroke:none"
         inkscape:connector-curvature="0" />
    </g>
    <path
       style="opacity:0.46808514;fill:#000000;fill-rule:evenodd;stroke:#000000;stroke-width:4;stroke-linecap:butt;stroke-linejoin:miter;stroke-miterlimit:4;stroke-opacity:1;stroke-dasharray:none"
       d="m 311.07802,277.29078 -10.32624,16.13475 155.539,-13.55319 1.93617,-24.52482 -147.14893,21.94326 z"
       id="path3766"
       inkscape:connector-curvature="0" />
    <path
       style="opacity:0.31489366;fill:#000000;fill-rule:evenodd;stroke:#000000;stroke-width:1px;stroke-linecap:butt;stroke-linejoin:miter;stroke-opacity:1"
       d="m 305.91489,296.65248 c -22.32192,94.22695 -25.37726,225.56383 -14.19858,282.68085 -12.65145,-93.79669 2.04033,-187.59338 6.4539,-281.39007 l 7.74468,-1.29078 z"
       id="path3221"
       sodipodi:nodetypes="cccc"
       inkscape:connector-curvature="0" />
  </g>
</svg>
