<?xml version="1.0" encoding="UTF-8" standalone="no"?>
<!-- Created with Inkscape (http://www.inkscape.org/) -->

<svg
   xmlns:dc="http://purl.org/dc/elements/1.1/"
   xmlns:cc="http://creativecommons.org/ns#"
   xmlns:rdf="http://www.w3.org/1999/02/22-rdf-syntax-ns#"
   xmlns:svg="http://www.w3.org/2000/svg"
   xmlns="http://www.w3.org/2000/svg"
   xmlns:xlink="http://www.w3.org/1999/xlink"
   xmlns:sodipodi="http://sodipodi.sourceforge.net/DTD/sodipodi-0.dtd"
   xmlns:inkscape="http://www.inkscape.org/namespaces/inkscape"
   width="631.01105"
   height="220.90585"
   id="svg4724"
   version="1.1"
   inkscape:version="0.48.3.1 r9886"
   sodipodi:docname="camaleon.svg">
  <defs
     id="defs4726">
    <inkscape:perspective
       sodipodi:type="inkscape:persp3d"
       inkscape:vp_x="0 : 526.18109 : 1"
       inkscape:vp_y="0 : 1000 : 0"
       inkscape:vp_z="744.09448 : 526.18109 : 1"
       inkscape:persp3d-origin="372.04724 : 350.78739 : 1"
       id="perspective4732" />
    <inkscape:perspective
       id="perspective4659"
       inkscape:persp3d-origin="0.5 : 0.33333333 : 1"
       inkscape:vp_z="1 : 0.5 : 1"
       inkscape:vp_y="0 : 1000 : 0"
       inkscape:vp_x="0 : 0.5 : 1"
       sodipodi:type="inkscape:persp3d" />
    <linearGradient
       inkscape:collect="always"
       xlink:href="#linearGradient3893"
       id="linearGradient3899"
       x1="196.87161"
       y1="165.53909"
       x2="401.37482"
       y2="434.0986"
       gradientUnits="userSpaceOnUse"
       gradientTransform="matrix(0.9374123,0,0,0.9707726,7.6597875,-20.295775)" />
    <linearGradient
       inkscape:collect="always"
       id="linearGradient3893">
      <stop
         style="stop-color:#000000;stop-opacity:1;"
         offset="0"
         id="stop3895" />
      <stop
         style="stop-color:#000000;stop-opacity:0;"
         offset="1"
         id="stop3897" />
    </linearGradient>
    <linearGradient
       inkscape:collect="always"
       xlink:href="#linearGradient4120"
       id="linearGradient4126"
       x1="385.36819"
       y1="21.388021"
       x2="531.28687"
       y2="239.63159"
       gradientUnits="userSpaceOnUse"
       gradientTransform="matrix(0.9374124,0,0,0.9707725,7.6597877,-20.295775)" />
    <linearGradient
       inkscape:collect="always"
       id="linearGradient4120">
      <stop
         style="stop-color:#5aa02c;stop-opacity:1;"
         offset="0"
         id="stop4122" />
      <stop
         style="stop-color:#5aa02c;stop-opacity:0;"
         offset="1"
         id="stop4124" />
    </linearGradient>
  </defs>
  <sodipodi:namedview
     id="base"
     pagecolor="#ffffff"
     bordercolor="#666666"
     borderopacity="1.0"
     inkscape:pageopacity="0.0"
     inkscape:pageshadow="2"
     inkscape:zoom="0.35"
     inkscape:cx="219.79124"
     inkscape:cy="24.752102"
     inkscape:document-units="px"
     inkscape:current-layer="g4597"
     showgrid="false"
     inkscape:window-width="589"
     inkscape:window-height="485"
     inkscape:window-x="143"
     inkscape:window-y="136"
     inkscape:window-maximized="0"
     fit-margin-top="0"
     fit-margin-left="0"
     fit-margin-right="0"
     fit-margin-bottom="0" />
  <metadata
     id="metadata4729">
    <rdf:RDF>
      <cc:Work
         rdf:about="">
        <dc:format>image/svg+xml</dc:format>
        <dc:type
           rdf:resource="http://purl.org/dc/dcmitype/StillImage" />
        <dc:title></dc:title>
      </cc:Work>
    </rdf:RDF>
  </metadata>
  <g
     inkscape:label="Capa 1"
     inkscape:groupmode="layer"
     id="layer1"
     transform="translate(-130.20876,-336.20843)">
    <g
       transform="translate(128.21434,120.53729)"
       id="g4597">
      <path
         sodipodi:nodetypes="cccssssscccccccc"
         id="path3881"
         d="m 13.296003,432.05588 131.511697,-85.60633 50.72596,-10.7008 c 40.55029,-7.4822 61.39745,-16.33846 103.46024,-16.55725 29.62242,-0.1541 121.5674,-3.53253 153.05482,61.2905 3.42798,7.05714 31.18562,8.30769 14.06594,-7.9985 -9.92652,-9.45482 -17.24801,-10.49405 -24.99029,-32.88213 -4.93449,-14.26893 0.80594,-26.48718 8.05706,-33.91002 5.8062,-5.94369 88.75846,-7.20301 98.27719,-8.04868 L 579.7357,276.40799 506.03538,262.1939 c -24.41499,14.92878 -69.19255,1.74122 -103.84047,2.5405 l -162.5109,8.7552 -108.02747,22.37438 -50.725945,9.728 -77.0282848,-3.89121"
         style="fill:#504416;fill-rule:evenodd;stroke:#000000;stroke-width:3.8157866;stroke-linecap:butt;stroke-linejoin:miter;stroke-miterlimit:4;stroke-opacity:1;stroke-dasharray:none"
         inkscape:connector-curvature="0" />
      <path
         sodipodi:nodetypes="ccsc"
         id="path3224"
         d="m 84.688073,305.59198 c -11.16532,34.07914 3.96008,54.31379 20.666127,68.09593 -17.133286,-21.70467 -23.597586,-44.38554 -17.448314,-67.24914 0.271304,-1.00874 -3.251379,0.21107 -3.217813,-0.84679 z"
         style="opacity:0.26288662;fill:#000000;fill-rule:evenodd;stroke:#000000;stroke-width:0.95394665px;stroke-linecap:butt;stroke-linejoin:miter;stroke-opacity:1"
         inkscape:connector-curvature="0" />
      <path
         sodipodi:nodetypes="cccc"
         id="path3222"
         d="m 138.93665,294.16158 c -37.58074,12.40386 -38.64943,30.15838 -9.86338,52.28797 -36.747829,-22.69939 -36.822299,-39.71976 -6.57558,-52.04477 l 16.43896,-0.2432 z"
         style="opacity:0.42783502;fill:#000000;fill-rule:evenodd;stroke:#000000;stroke-width:0.95394665px;stroke-linecap:butt;stroke-linejoin:miter;stroke-opacity:1"
         inkscape:connector-curvature="0" />
      <path
         sodipodi:nodetypes="cccssssscccccccc"
         id="path3883"
         d="m 11.710339,433.62016 139.358691,-88.58812 50.41131,-8.58073 c 38.04591,-7.01998 57.70203,-13.64368 97.07043,-16.50749 28.73226,-2.0901 121.57438,-5.25992 151.11703,55.5597 3.2162,6.62128 32.07765,16.54975 16.01541,1.25064 -9.31347,-8.87086 -26.51597,-15.6827 -33.78004,-36.68818 -4.62976,-13.38762 0.75625,-24.85131 7.55943,-31.81562 5.44767,-5.57664 83.27682,-6.75811 92.20759,-7.55159 l 30.28371,-19.92326 -65.39112,-5.55392 c -22.90711,14.00691 -65.85856,2.60648 -98.36668,3.35652 l -151.53476,4.3232 -103.23427,20.99252 -48.532523,12.04564 -88.2402587,2.18593"
         style="opacity:0.39474236;fill:url(#linearGradient3899);fill-opacity:1;fill-rule:evenodd;stroke:none"
         inkscape:connector-curvature="0" />
      <path
         sodipodi:nodetypes="cccccc"
         id="path2238"
         d="m 128.83843,297.80958 54.48343,-13.61919 c -10.96708,18.51602 12.08188,33.0867 17.53544,50.75247 l -54.17085,9.56108 -13.15117,8.7552 -4.69685,-55.44956 z"
         style="fill:#504416;fill-rule:evenodd;stroke:none"
         inkscape:connector-curvature="0" />
      <path
         sodipodi:nodetypes="cccccc"
         id="path3214"
         d="m 129.50266,306.75194 57.80461,-13.27527 c -10.96707,18.51602 8.09647,23.80042 13.55003,41.46619 l -54.17085,9.56108 -13.15117,8.7552 -4.03262,-46.5072 z"
         style="opacity:0.2474227;fill:#000000;fill-rule:evenodd;stroke:none"
         inkscape:connector-curvature="0" />
      <path
         id="path3218"
         d="m 132.83075,354.47513 13.15117,-8.51199 56.597,-11.67359"
         style="fill:none;stroke:#000000;stroke-width:3.8157866;stroke-linecap:butt;stroke-linejoin:miter;stroke-miterlimit:4;stroke-opacity:1;stroke-dasharray:none"
         inkscape:connector-curvature="0" />
      <path
         id="path3226"
         d="m 414.17125,361.0667 c -3.99359,1.54677 -10.75455,8.09189 -12.62044,15.82107 -2.36968,9.81603 7.06902,16.50895 12.62044,16.50895 3.92343,0 -3.32117,7.6308 -3.32117,11.69384 0,9.40624 9.01675,11.54754 15.94163,15.13321 9.34649,4.83956 22.41738,0.68571 22.58396,1.37575 2.7649,11.45312 23.52113,13.06958 32.5475,13.06958 13.03581,0 11.95623,-9.23694 11.95623,-19.26044 0,-8.99441 17.16721,-7.35354 21.91972,-17.19683 2.7089,-5.61061 3.5914,-14.85336 -0.66423,-19.26043 -6.55619,-6.78952 -13.53211,0.76865 -9.29928,-12.38172 1.92515,-5.98101 4.70193,-18.53195 -0.66424,-22.69981 -6.1553,-4.78077 -14.7189,-3.43936 -21.91973,-3.43936 -6.27408,0 -1.62665,4.26786 -4.64964,-8.25448 -2.1226,-8.7925 -19.32159,-5.48776 -24.57667,-4.12723 -6.85607,1.775 -8.773,6.47655 -11.29199,11.69383 -1.81489,3.75896 -1.3516,6.87874 -5.9781,6.87874 -5.09705,0 -6.92009,1.17561 -11.292,3.43936 -2.40626,1.24595 -5.66181,7.23904 -7.30658,8.94234 -1.50735,1.561 -0.37351,0.56745 -3.98541,2.06363 z"
         style="fill:#008000;fill-rule:evenodd;stroke:#000000;stroke-width:3.8157866;stroke-linecap:butt;stroke-linejoin:miter;stroke-miterlimit:4;stroke-opacity:1;stroke-dasharray:none"
         inkscape:connector-curvature="0" />
      <path
         id="path3228"
         d="m 422.68957,371.86786 c -3.18686,1.23431 -8.58197,6.45723 -10.07094,12.62504 -1.89099,7.83318 5.64103,13.17408 10.07094,13.17408 3.13093,0 -2.65019,6.08929 -2.65019,9.33153 0,7.50617 7.19524,9.21486 12.72125,12.07625 7.45847,3.86188 17.88895,0.54716 18.02189,1.09786 2.20627,9.13949 18.76966,10.42933 25.97258,10.42933 10.40246,0 9.54101,-7.37092 9.54101,-15.36967 0,-7.17743 13.69935,-5.86804 17.49182,-13.72291 2.16161,-4.4772 2.86582,-11.85281 -0.53006,-15.36968 -5.23179,-5.41797 -10.79859,0.61342 -7.42076,-9.88054 1.53619,-4.77277 3.75206,-14.78835 -0.53006,-18.11421 -4.91193,-3.81507 -11.74558,-2.74462 -17.49182,-2.74462 -5.00669,0 -1.29807,3.40569 -3.71035,-6.58698 -1.69384,-7.01636 -15.41851,-4.37922 -19.61204,-3.29356 -5.47108,1.41648 -7.00072,5.16823 -9.01095,9.33162 -1.4482,2.9996 -1.07849,5.48914 -4.77043,5.48914 -4.06742,0 -5.52219,0.93818 -9.01095,2.74463 -1.92016,0.9943 -4.51806,5.7767 -5.83057,7.13591 -1.20281,1.24562 -0.29807,0.45285 -3.18037,1.64678 z"
         style="opacity:0.18556698;fill:#000000;fill-rule:evenodd;stroke:none"
         inkscape:connector-curvature="0" />
      <path
         id="path3230"
         d="m 526.19166,305.59198 c 1.46857,8.17061 5.24036,23.34718 22.54487,23.34718 12.10194,0 17.26039,-0.79067 30.05981,5.83679 13.19984,6.8348 13.55598,-15.71529 15.02991,-23.34718 3.47066,-17.97082 6.7118,-11.25773 22.54487,-19.45598 15.6884,-8.12336 16.43791,-23.35151 13.15117,-36.96637 -2.90402,-12.02945 -28.62662,-13.61919 -37.57478,-13.61919 -5.65176,0 -9.38348,-11.66302 -16.90865,-19.45599 -8.31872,-8.61478 -21.97773,-2.53291 -26.30233,1.9456 -8.66398,8.97229 -8.90784,6.08836 -20.66614,0 -10.31363,-5.34033 -20.66612,13.62029 -20.66612,21.40158 0,6.58309 -15.09632,7.85117 -18.78738,11.67359 -12.08519,12.51527 10.68743,27.90826 16.90864,31.12958 9.06628,4.69446 18.02256,6.55984 20.66613,17.51039 z"
         style="fill:#008000;fill-rule:evenodd;stroke:#000000;stroke-width:3.8157866;stroke-linecap:butt;stroke-linejoin:miter;stroke-miterlimit:4;stroke-opacity:1;stroke-dasharray:none"
         inkscape:connector-curvature="0" />
      <path
         id="path3232"
         d="m 528.83093,303.71703 c 1.17431,6.53344 4.19043,18.66921 18.0276,18.66921 9.67712,0 13.802,-0.63223 24.03682,4.6672 10.55501,5.46532 10.83989,-12.56641 12.01849,-18.66914 2.77517,-14.3701 5.36688,-9.00202 18.02759,-15.55767 12.54494,-6.49573 13.14423,-18.67254 10.51606,-29.55946 -2.32213,-9.61912 -22.89074,-10.89031 -30.04603,-10.89031 -4.51926,0 -7.50329,-9.32617 -13.52065,-15.55768 -6.65195,-6.88865 -17.57416,-2.02546 -21.03228,1.55575 -6.92789,7.17458 -7.123,4.86845 -16.52533,0 -8.24711,-4.27031 -16.5253,10.89125 -16.5253,17.11341 0,5.26407 -12.07141,6.27806 -15.0229,9.33457 -9.6638,10.00757 8.54595,22.3163 13.52062,24.89224 7.24972,3.75384 14.4115,5.2455 16.52531,14.00188 z"
         style="opacity:0.3041237;fill:#000000;fill-rule:evenodd;stroke:none"
         inkscape:connector-curvature="0" />
    </g>
  </g>
</svg>
