<?xml version="1.0" encoding="UTF-8" standalone="no"?>
<!-- Created with Inkscape (http://www.inkscape.org/) -->

<svg
   xmlns:dc="http://purl.org/dc/elements/1.1/"
   xmlns:cc="http://creativecommons.org/ns#"
   xmlns:rdf="http://www.w3.org/1999/02/22-rdf-syntax-ns#"
   xmlns:svg="http://www.w3.org/2000/svg"
   xmlns="http://www.w3.org/2000/svg"
   xmlns:sodipodi="http://sodipodi.sourceforge.net/DTD/sodipodi-0.dtd"
   xmlns:inkscape="http://www.inkscape.org/namespaces/inkscape"
   width="496.8317"
   height="454.51477"
   id="svg4097"
   version="1.1"
   inkscape:version="0.48.3.1 r9886"
   sodipodi:docname="árbol1.svg">
  <defs
     id="defs4099" />
  <sodipodi:namedview
     id="base"
     pagecolor="#ffffff"
     bordercolor="#666666"
     borderopacity="1.0"
     inkscape:pageopacity="0.0"
     inkscape:pageshadow="2"
     inkscape:zoom="0.35"
     inkscape:cx="26.390283"
     inkscape:cy="43.236007"
     inkscape:document-units="px"
     inkscape:current-layer="layer1"
     showgrid="false"
     fit-margin-top="0"
     fit-margin-left="0"
     fit-margin-right="0"
     fit-margin-bottom="0"
     inkscape:window-width="703"
     inkscape:window-height="656"
     inkscape:window-x="0"
     inkscape:window-y="48"
     inkscape:window-maximized="0" />
  <metadata
     id="metadata4102">
    <rdf:RDF>
      <cc:Work
         rdf:about="">
        <dc:format>image/svg+xml</dc:format>
        <dc:type
           rdf:resource="http://purl.org/dc/dcmitype/StillImage" />
        <dc:title></dc:title>
      </cc:Work>
    </rdf:RDF>
  </metadata>
  <g
     inkscape:label="Capa 1"
     inkscape:groupmode="layer"
     id="layer1"
     transform="translate(-323.60972,-121.08341)">
    <g
       inkscape:label="Layer 1"
       id="layer1-0"
       transform="translate(232.1148,109.81679)">
      <path
         sodipodi:nodetypes="cccccc"
         id="path3167"
         d="m 228.46895,462.34869 c -9.97425,-7.14854 -20.16631,-15.41511 -5.34656,-25.68014 0.45264,-15.41308 2.3495,-29.29459 27.55534,-18.4576 9.37706,-19.35807 23.89496,-1.93521 36.19208,-0.40125 l 15.62839,43.73648 -74.02925,0.80251 z"
         style="fill:#71c837;fill-rule:evenodd;stroke:none"
         inkscape:connector-curvature="0" />
      <path
         sodipodi:nodetypes="cccccc"
         id="path3209"
         d="m 234.24421,462.34869 c -9.19613,-5.81579 -18.59308,-12.54118 -4.92946,-20.89243 0.41733,-12.53953 2.16621,-23.83302 25.40566,-15.01644 8.64553,-15.74903 22.03084,-1.57442 33.36862,-0.32644 l 14.40917,35.58242 -68.25399,0.65289 z"
         style="opacity:0.21212122;fill:#000000;fill-rule:evenodd;stroke:none"
         inkscape:connector-curvature="0" />
      <path
         sodipodi:nodetypes="ccccccccc"
         id="path3165"
         d="m 228.88023,461.94744 c -22.17805,-10.99103 -10.07351,-18.07178 -4.52401,-26.0814 -5.81248,-32.11589 17.46722,-23.65467 27.14406,-18.05634 5.29442,-25.1912 36.23684,15.17245 68.27142,-2.40752 l 20.56368,32.90269 -20.56368,-32.50143 c -37.49604,20.80384 -54.93569,-31.38825 -70.32778,2.80876 -32.76091,-12.60779 -20.76656,9.09238 -25.91024,17.6551 -12.40254,6.15254 -12.61701,17.12009 5.34655,25.68014 z"
         style="fill:#000000;fill-rule:evenodd;stroke:#000000;stroke-width:3.56189251;stroke-linecap:butt;stroke-linejoin:miter;stroke-miterlimit:4;stroke-opacity:1;stroke-dasharray:none"
         inkscape:connector-curvature="0" />
      <path
         sodipodi:nodetypes="ccccccccccc"
         id="path2168"
         d="m 250.87633,462.02727 c 29.0439,-33.78729 56.50608,-80.54796 53.33686,-122.19229 0.86837,-47.03226 -46.72919,-88.1539 -111.71231,-127.15529 l 58.00605,28.23258 c -14.78747,-25.73381 6.56453,-55.48014 28.80703,-81.21394 -41.87464,67.62908 -0.52296,106.05777 48.45253,154.10236 72.6633,-45.22875 49.35209,-99.32856 61.40575,-138.1991 l 2.90985,71.73393 c 36.72025,-1.82732 56.56826,-57.33536 93.28851,-77.41333 L 405.06459,274.74358 C 360.15356,334.42812 325.78539,406.7752 350.75998,462.449"
         style="fill:#806600;fill-rule:evenodd;stroke:#000000;stroke-width:4.74918985;stroke-linecap:butt;stroke-linejoin:miter;stroke-miterlimit:4;stroke-opacity:1;stroke-dasharray:none"
         inkscape:connector-curvature="0" />
      <path
         sodipodi:nodetypes="cccccccccccc"
         id="path2170"
         d="M 245.77546,50.526288 C 174.47422,38.584106 80.054924,73.621127 95.48674,148.46692 c 0,17.55061 44.00677,38.30828 59.80878,42.18979 14.50363,31.11362 15.4141,40.99018 58.27521,40.68304 24.87256,0 41.51131,-27.90127 62.87589,-33.14914 40.01512,96.53137 117.45317,31.58453 139.55382,24.10847 14.53187,14.27811 35.80732,25.61524 56.74165,25.61524 31.44425,-16.15687 27.05669,-48.1453 75.14437,-33.14913 51.15591,-17.95805 46.73684,-71.59568 10.73491,-102.46096 C 498.69159,99.13761 520.75793,46.151769 446.67161,36.965287 352.4833,112.60577 353.46178,-57.106127 258.04392,50.526288 c -6.05705,1.487824 -2.36067,1.946965 -12.26846,0 z"
         style="fill:#44aa00;fill-rule:evenodd;stroke:#000000;stroke-width:4.71066952;stroke-linecap:butt;stroke-linejoin:miter;stroke-miterlimit:4;stroke-opacity:1;stroke-dasharray:none"
         inkscape:connector-curvature="0" />
      <path
         sodipodi:nodetypes="cccccccccccc"
         id="path3157"
         d="m 249.6211,68.50133 c -68.82859,-10.473838 -159.973522,20.255218 -145.07686,85.8984 0,15.3927 42.48066,33.59813 57.73466,37.00239 14.00069,27.28805 14.87957,35.95025 56.2543,35.68087 24.01,0 40.07174,-24.47067 60.69543,-29.07331 38.62742,84.66243 113.38,27.70107 134.71423,21.14423 14.02791,12.52254 34.56553,22.46573 54.77391,22.46573 30.35378,-14.17032 26.1184,-42.22564 72.53843,-29.07329 49.38188,-15.75004 45.11607,-62.7927 10.36264,-89.86295 C 493.76637,111.13567 515.06747,64.664678 443.55038,56.607711 352.62844,122.94787 353.57299,-25.897222 261.46411,68.50133 c -5.84701,1.304888 -2.27882,1.707573 -11.84301,0 z"
         style="opacity:0.35353537;fill:#000000;fill-rule:evenodd;stroke:#000000;stroke-width:4.33440638;stroke-linecap:butt;stroke-linejoin:miter;stroke-miterlimit:4;stroke-opacity:1;stroke-dasharray:none"
         inkscape:connector-curvature="0" />
      <path
         sodipodi:nodetypes="ccccccccc"
         id="path3159"
         d="m 292.17968,280.72843 c 11.26434,17.40199 39.20476,41.22402 33.84637,58.62602 -3.74216,40.85685 -8.7889,81.7137 -38.3875,122.57055 l 61.07102,0 c -14.32253,-55.2757 1.87667,-123.79408 55.25472,-186.69311 8.43859,-15.11332 33.47356,-37.42308 24.08771,-44.80745 l -33.64679,18.48123 c -6.31151,29.44937 -17.27486,55.27891 -47.44052,82.50439 l -54.78501,-50.68163 z"
         style="opacity:0.40909089;fill:#000000;fill-rule:evenodd;stroke:#000000;stroke-width:1.18729746px;stroke-linecap:butt;stroke-linejoin:miter;stroke-opacity:1"
         inkscape:connector-curvature="0" />
      <path
         sodipodi:nodetypes="cccc"
         id="path3171"
         d="m 281.82227,462.02236 c 17.21171,-21.37419 29.77578,-48.42293 36.06098,-72.6344 -4.85798,24.40062 -12.85942,48.80124 -31.98958,73.20186 l -4.0714,-0.56746 z"
         style="fill:#000000;fill-rule:evenodd;stroke:#000000;stroke-width:1.18729746px;stroke-linecap:butt;stroke-linejoin:miter;stroke-opacity:1"
         inkscape:connector-curvature="0" />
      <path
         sodipodi:nodetypes="cccccc"
         id="path3175"
         d="m 329.38658,461.852 34.60692,0.85119 c 14.84329,0.71505 17.51371,-4.50803 12.2142,-13.61896 1.55086,-8.95882 -6.81438,-10.00214 -13.37747,-12.48404 -8.13934,-1.77058 -16.02537,-2.99751 -20.357,3.40474 -29.90585,2.32277 -20.15066,13.80646 -13.08665,21.84707 z"
         style="fill:#338000;fill-rule:evenodd;stroke:none"
         inkscape:connector-curvature="0" />
      <path
         sodipodi:nodetypes="ccccccccc"
         id="path3173"
         d="m 329.6774,461.56827 c -12.28375,-10.37133 -5.85356,-20.87031 11.05094,-20.99588 5.34862,-12.6016 12.69403,-5.72208 19.48456,-4.25592 8.00011,0.72769 17.38974,-0.31743 15.70398,12.76776 10.27338,12.72359 -3.63878,14.85712 -12.79583,13.90268 12.7943,1.59443 19.02315,-6.25199 12.2142,-14.47014 2.36155,-10.3377 -8.79216,-9.51808 -15.70398,-12.2003 -6.30098,-0.86064 -12.60195,-4.33827 -18.90293,4.82338 -31.96114,-0.81042 -17.27241,17.14413 -11.05094,20.42842 z"
         style="fill:#000000;fill-rule:evenodd;stroke:#000000;stroke-width:2.37459493;stroke-linecap:butt;stroke-linejoin:miter;stroke-miterlimit:4;stroke-opacity:1;stroke-dasharray:none"
         inkscape:connector-curvature="0" />
      <path
         transform="translate(46.451619,21.290323)"
         d="m 219.79839,390.7258 c 0,3.74128 -3.46618,6.77419 -7.74193,6.77419 -4.27576,0 -7.74194,-3.03291 -7.74194,-6.77419 0,-3.74128 3.46618,-6.77419 7.74194,-6.77419 4.27575,0 7.74193,3.03291 7.74193,6.77419 z"
         sodipodi:ry="6.7741938"
         sodipodi:rx="7.7419357"
         sodipodi:cy="390.7258"
         sodipodi:cx="212.05646"
         id="path3179"
         style="color:#000000;fill:#ff0000;fill-opacity:1;fill-rule:evenodd;stroke:none;stroke-width:2;marker:none;visibility:visible;display:inline;overflow:visible;enable-background:accumulate"
         sodipodi:type="arc" />
      <path
         sodipodi:nodetypes="cccc"
         id="path3177"
         d="m 262.74194,403.06451 c -15.72581,-0.48387 -12.09678,14.51613 -12.09678,14.51613 12.84034,13.26121 26.1565,-18.30702 7.25807,-6.53226 19.75701,12.20475 -25.99503,8.31945 4.83871,-7.98387 z"
         style="fill:#ff0000;fill-rule:evenodd;stroke:#000000;stroke-width:2;stroke-linecap:butt;stroke-linejoin:miter;stroke-miterlimit:4;stroke-opacity:1;stroke-dasharray:none"
         inkscape:connector-curvature="0" />
      <path
         transform="matrix(0.8841552,0.4671932,-0.4671932,0.8841552,234.77796,-5.762673)"
         d="m 219.79839,390.7258 c 0,3.74128 -3.46618,6.77419 -7.74193,6.77419 -4.27576,0 -7.74194,-3.03291 -7.74194,-6.77419 0,-3.74128 3.46618,-6.77419 7.74194,-6.77419 4.27575,0 7.74193,3.03291 7.74193,6.77419 z"
         sodipodi:ry="6.7741938"
         sodipodi:rx="7.7419357"
         sodipodi:cy="390.7258"
         sodipodi:cx="212.05646"
         id="path3187"
         style="color:#000000;fill:#ff0000;fill-opacity:1;fill-rule:evenodd;stroke:none;stroke-width:2;marker:none;visibility:visible;display:inline;overflow:visible;enable-background:accumulate"
         sodipodi:type="arc" />
      <path
         sodipodi:nodetypes="cccc"
         id="path3189"
         d="m 247.64987,432.83433 c -13.678,-7.77481 -17.47727,7.18298 -17.47727,7.18298 5.1573,17.72388 31.67932,-3.96611 9.46909,-2.38461 11.76628,20.02123 -26.87044,-4.78902 8.00818,-4.79837 z"
         style="fill:#ff0000;fill-rule:evenodd;stroke:#000000;stroke-width:1.99999988;stroke-linecap:butt;stroke-linejoin:miter;stroke-miterlimit:4;stroke-opacity:1;stroke-dasharray:none"
         inkscape:connector-curvature="0" />
      <path
         sodipodi:nodetypes="cccccc"
         id="path3211"
         d="m 330.1794,461.75469 31.50462,0.71683 c 13.51268,0.60217 15.94371,-3.79641 11.11927,-11.46911 1.41184,-7.54461 -6.20351,-8.42323 -12.17826,-10.51334 -7.4097,-1.49108 -14.5888,-2.52434 -18.53212,2.86727 -27.22498,1.95611 -18.34428,11.62701 -11.91351,18.39835 z"
         style="opacity:0.34848483;fill:#000000;fill-rule:evenodd;stroke:none"
         inkscape:connector-curvature="0" />
      <path
         sodipodi:nodetypes="ccc"
         id="path3213"
         d="m 175.8643,462.55043 c 8.85696,2.33258 195.13866,0.0103 241.21465,2.73718 C 336.3736,458.78998 256.73229,462.311 175.8643,462.55043 z"
         style="fill:#000000;fill-rule:evenodd;stroke:#000000;stroke-width:1px;stroke-linecap:butt;stroke-linejoin:miter;stroke-opacity:1"
         inkscape:connector-curvature="0" />
    </g>
  </g>
</svg>
