<?xml version="1.0" encoding="UTF-8" standalone="no"?>
<!-- Created with Inkscape (http://www.inkscape.org/) -->

<svg
   xmlns:dc="http://purl.org/dc/elements/1.1/"
   xmlns:cc="http://creativecommons.org/ns#"
   xmlns:rdf="http://www.w3.org/1999/02/22-rdf-syntax-ns#"
   xmlns:svg="http://www.w3.org/2000/svg"
   xmlns="http://www.w3.org/2000/svg"
   xmlns:sodipodi="http://sodipodi.sourceforge.net/DTD/sodipodi-0.dtd"
   xmlns:inkscape="http://www.inkscape.org/namespaces/inkscape"
   width="472.03064"
   height="443.63406"
   id="svg4097"
   version="1.1"
   inkscape:version="0.48.3.1 r9886"
   sodipodi:docname="alfombra.svg">
  <defs
     id="defs4099" />
  <sodipodi:namedview
     id="base"
     pagecolor="#ffffff"
     bordercolor="#666666"
     borderopacity="1.0"
     inkscape:pageopacity="0.0"
     inkscape:pageshadow="2"
     inkscape:zoom="0.35"
     inkscape:cx="212.27456"
     inkscape:cy="-52.589047"
     inkscape:document-units="px"
     inkscape:current-layer="layer1"
     showgrid="false"
     fit-margin-top="0"
     fit-margin-left="0"
     fit-margin-right="0"
     fit-margin-bottom="0"
     inkscape:window-width="703"
     inkscape:window-height="656"
     inkscape:window-x="0"
     inkscape:window-y="48"
     inkscape:window-maximized="0" />
  <metadata
     id="metadata4102">
    <rdf:RDF>
      <cc:Work
         rdf:about="">
        <dc:format>image/svg+xml</dc:format>
        <dc:type
           rdf:resource="http://purl.org/dc/dcmitype/StillImage" />
        <dc:title></dc:title>
      </cc:Work>
    </rdf:RDF>
  </metadata>
  <g
     inkscape:label="Capa 1"
     inkscape:groupmode="layer"
     id="layer1"
     transform="translate(-137.72544,-36.139054)">
    <g
       inkscape:label="Layer 1"
       id="layer1-8"
       transform="translate(76.544813,15.58907)">
      <path
         sodipodi:nodetypes="ccccc"
         id="path4787"
         d="m 264.80548,460.13533 c -21.68152,-4.5804 -8.50502,-30.89358 14.82071,-18.16732 2.2664,-12.77003 15.92379,-27.16905 38.7251,-12.19124 l -9.56175,32.98805 -43.98406,-2.62949 z"
         style="fill:#445500;fill-rule:evenodd;stroke:none"
         inkscape:connector-curvature="0" />
      <path
         sodipodi:nodetypes="ccccccc"
         id="path4785"
         d="m 317.63416,447.70506 c -1.50042,-9.96941 0.84872,-21.83044 -12.19124,-23.90438 -13.80528,-2.77371 -21.9988,5.96527 -26.29482,18.40637 -13.46342,-11.93292 -41.41896,9.19883 -14.10358,18.16733 -24.88675,-7.89134 -5.76868,-28.34744 14.10358,-18.64542 4.0517,-9.74068 10.44726,-19.92117 25.81674,-19.6016 15.2116,-1.77383 11.19666,14.80728 12.66932,25.5777 z"
         style="fill:#000000;fill-rule:evenodd;stroke:#000000;stroke-width:2;stroke-linecap:butt;stroke-linejoin:miter;stroke-miterlimit:4;stroke-opacity:1;stroke-dasharray:none"
         inkscape:connector-curvature="0" />
      <path
         sodipodi:nodetypes="ccccc"
         id="path3766"
         d="m 383.75079,461.76902 c -1.80059,0 -50.86668,-3.15103 -50.86668,-3.15103 l 10.12832,-18.9062 c 6.82578,-4.09437 20.33312,0.34321 19.58142,7.42744 8.74828,1.626 19.22984,-0.0701 21.15694,14.62979 z"
         style="fill:#89a02c;fill-rule:evenodd;stroke:none"
         inkscape:connector-curvature="0" />
      <path
         sodipodi:nodetypes="ccccc"
         id="path3768"
         d="m 382.15928,461.76902 c -1.80059,0 -50.86668,-2.81139 -50.86668,-2.81139 l 10.12832,-16.86833 c 6.82578,-3.65305 20.33312,0.30621 19.58142,6.62685 8.74828,1.45073 19.22984,-0.0626 21.15694,13.05287 z"
         style="opacity:0.39583333;fill:#000000;fill-rule:evenodd;stroke:none"
         inkscape:connector-curvature="0" />
      <path
         sodipodi:nodetypes="ccccccc"
         id="path3764"
         d="m 329.27364,452.01201 c 7.29993,-7.43264 13.17323,-18.32998 26.1008,-12.09549 5.83624,-0.0123 9.41265,1.73299 7.63926,7.63926 11.27524,-0.78164 18.32233,3.16064 20.37135,14.96021 -1.19579,-9.36739 -7.64906,-15.21776 -20.68966,-15.27851 0.0992,-5.19205 -4.28435,-5.90132 -7.32095,-7.95756 -14.83603,-8.02749 -19.24519,4.79874 -26.1008,12.73209 z"
         style="fill:#000000;fill-rule:evenodd;stroke:#000000;stroke-width:2;stroke-linecap:butt;stroke-linejoin:miter;stroke-miterlimit:4;stroke-opacity:1;stroke-dasharray:none"
         inkscape:connector-curvature="0" />
      <path
         sodipodi:nodetypes="ccccc"
         id="path4789"
         d="m 266.66481,460.30436 c -21.68152,-4.5804 -6.13861,-25.65366 14.98974,-15.29381 2.2664,-12.77003 17.78311,-28.85935 40.58442,-13.88154 l -8.7166,27.74814 -46.85756,1.42721 z"
         style="opacity:0.38020833;fill:#000000;fill-rule:evenodd;stroke:none"
         inkscape:connector-curvature="0" />
      <path
         sodipodi:nodetypes="cccccccccccccccccccccccccccccccccccc"
         id="path2507"
         d="m 348.28406,461.19184 c -13.27537,-25.22358 -5.36417,-56.67906 -6.9337,-81.90265 3.50989,-27.47676 15.98155,-52.93995 40.61175,-75.671 12.00215,-12.2438 34.33831,-20.77238 51.50756,-31.1587 l -50.98741,25.45772 1.74069,-37.13888 c -3.16538,14.5474 -3.08025,28.2882 -9.19456,43.72994 l -21.79168,23.14665 c 7.6157,-19.67424 16.39582,-40.13354 27.73487,-62.31739 l -17.70936,28.33519 -9.03499,-25.66441 c 1.98107,10.38606 6.10739,24.6286 5.94319,31.15869 -4.58765,18.56154 -16.90694,32.95395 -25.64399,49.2782 l -4.07191,-71.53451 37.64016,-53.41471 -0.99054,-1.78069 -39.62123,48.96379 c 5.13183,-51.43941 16.00132,-99.01119 31.69698,-143.32987 l -5.94316,1.78049 -11.88637,40.06122 -12.87691,-50.74417 -2.97159,2.67075 10.89583,48.96352 -13.8674,99.70771 -1.98107,82.79298 C 297.34328,281.36191 287.19224,210.14213 271.0227,138.92244 l -12.87692,0 c 29.03283,48.75735 27.0599,105.47678 39.62123,158.46387 C 251.74324,247.42927 188.04513,193.50104 161.07382,147.82491 l 0.99054,16.02446 25.75377,29.3781 c -19.15034,-8.90067 -38.30066,-4.11506 -57.45079,-4.4513 l -0.99053,1.78069 c 20.15278,2.0229 41.66992,-2.08456 59.43186,10.68285 52.88288,38.56151 121.05197,111.54402 125.79736,172.70794 1.44987,28.48791 -10.39342,57.86609 -16.83902,86.35386"
         style="fill:#784421;fill-rule:evenodd;stroke:#000000;stroke-width:3.61580038;stroke-linecap:butt;stroke-linejoin:miter;stroke-miterlimit:4;stroke-opacity:1;stroke-dasharray:none"
         inkscape:connector-curvature="0" />
      <path
         sodipodi:nodetypes="cssssssssssssssssssssssssssc"
         id="path3490"
         d="M 464.16413,73.709478 C 464.017,64.801447 464.28418,49.414454 456.39077,38.805945 446.18781,25.093472 435.63806,23.318901 420.48801,23.318901 c -12.94121,0 -32.56037,22.464778 -37.25297,23.869217 -4.08933,1.22389 -6.31296,-13.11812 -18.99926,-18.004505 -14.30261,-5.50894 -27.76522,-5.091709 -43.94564,-4.538641 -7.04616,0.240847 -19.08397,14.205008 -21.83794,19.89101 -4.44934,9.185988 -0.0571,26.662965 -10.27685,29.173496 -17.36815,4.266559 -20.13002,10.698919 -29.54552,14.58673 -5.04821,2.084536 -3.85375,20.682812 -3.85375,25.195282 0,10.88514 6.95608,16.38196 15.41501,18.56497 9.08302,2.34404 -2.47325,14.19045 -3.85375,19.89103 -3.5725,14.75206 2.30737,28.26965 14.13043,33.15161 8.21152,3.39068 19.44596,1.32622 28.26111,1.32622 3.06158,0 26.74337,30.29917 34.68379,37.12981 9.28532,7.98761 34.09918,6.63022 46.2453,6.63022 3.84457,0 7.7075,-23.66019 7.7075,-9.28229 0,11.53324 4.93273,16.1912 14.13045,18.56483 12.92067,3.33449 48.61943,8.35906 55.23738,-5.30413 4.4852,-9.26005 3.85376,-18.99211 3.85376,-29.17361 0,-1.99564 45.10814,-12.52945 52.08636,-18.13916 8.26491,-6.64406 10.58009,-27.36084 6.10449,-35.32931 -5.61253,-9.99272 -9.02625,-21.76395 -15.7993,-26.09558 -10.40129,-6.65203 -8.31433,-11.3084 0,-19.89101 5.33291,-5.5052 3.63372,-16.480332 1.28458,-22.543144 -2.47353,-6.383303 -12.11933,-10.233532 -17.98443,-13.260678 -4.74975,-2.451578 -18.67931,0.179415 -23.12253,1.326069 -3.0201,0.779422 -5.79395,1.82681 -8.9921,2.652141 z"
         style="color:#000000;fill:#668000;fill-opacity:1;fill-rule:evenodd;stroke:none;stroke-width:4.04457235;marker:none;visibility:visible;display:inline;overflow:visible;enable-background:accumulate"
         inkscape:connector-curvature="0" />
      <path
         sodipodi:nodetypes="ccccccccccc"
         id="path3770"
         d="m 245.78056,250.8749 57.61889,62.57051 0.90029,-10.80355 15.30502,51.31683 4.05133,-75.17465 5.85192,83.2773 4.95162,-2.25074 -5.40177,45.01476 9.00295,55.8183 -40.06313,-6.75222 C 339.78351,368.74967 298.4554,308.85923 245.78056,250.8749 z"
         style="opacity:0.38020833;fill:#000000;fill-rule:evenodd;stroke:#000000;stroke-width:1px;stroke-linecap:butt;stroke-linejoin:miter;stroke-opacity:1"
         inkscape:connector-curvature="0" />
      <path
         id="path4773"
         d="m 337.05179,453.70518 -6.21514,-41.35458 8.60558,42.5498 -2.39044,-1.19522 z"
         style="fill:#000000;fill-rule:evenodd;stroke:#000000;stroke-width:0.60000002;stroke-linecap:butt;stroke-linejoin:miter;stroke-miterlimit:4;stroke-opacity:1;stroke-dasharray:none"
         inkscape:connector-curvature="0" />
      <path
         id="path4775"
         d="m 318.82938,451.05167 5.49801,-15.29881 -4.30279,15.29881 -1.19522,0 z"
         style="fill:#000000;fill-rule:evenodd;stroke:#000000;stroke-width:0.60000002;stroke-linecap:butt;stroke-linejoin:miter;stroke-miterlimit:4;stroke-opacity:1;stroke-dasharray:none"
         inkscape:connector-curvature="0" />
      <path
         sodipodi:nodetypes="ccccsc"
         id="path3754"
         d="m 264.80884,461.6703 c 2.57021,-23.41022 23.7696,-17.01373 42.65252,-14.32361 7.07201,1.14812 15.30878,-1.5863 20.05305,7.32096 12.40773,-6.16146 22.96539,1.55267 33.74005,7.63925 -16.03196,-0.90847 -31.37374,1.87891 -42.99754,1.87716 -18.98466,-0.003 -34.94389,-3.50465 -53.44808,-2.51376 z"
         style="fill:#808000;fill-rule:evenodd;stroke:none"
         inkscape:connector-curvature="0" />
      <path
         sodipodi:nodetypes="cssssssssssssssssssssssssssc"
         id="path3492"
         d="M 450.0031,88.01769 C 449.86914,80.0016 452.53117,64.345236 444.15671,55.798795 434.05007,45.484683 424.0375,42.672567 410.24735,42.672567 c -11.77963,0 -28.86798,19.274425 -33.90914,21.479265 -7.09287,3.102252 -8.88351,-14.796045 -16.3699,-16.706094 -13.14173,-3.352862 -26.3087,-2.677014 -40.92496,-3.579875 -8.52348,-0.526504 -18.61131,12.472637 -19.8778,17.899382 -2.09204,8.96415 -0.0792,23.886076 -9.35435,26.252445 -9.43508,2.407207 -18.3231,9.627637 -26.89353,13.12625 -4.59505,1.87578 -3.50778,18.61186 -3.50778,22.67252 0,9.79525 6.33167,14.74168 14.03131,16.70612 8.26769,2.10938 -2.25124,12.76959 -3.50778,17.89936 -3.25183,13.27498 2.10018,25.43909 12.86205,29.8323 7.47442,3.05116 17.70047,1.19339 25.72435,1.19339 2.78679,0 24.34287,27.26542 31.57051,33.41213 8.45192,7.18787 31.03841,5.9664 42.09428,5.9664 3.49947,0 7.01565,-21.29121 7.01565,-8.35293 0,10.37847 4.48997,14.57007 12.86217,16.70599 11.76086,3.00067 44.25531,7.52213 50.27919,-4.77303 4.08256,-8.33285 3.50788,-17.09049 3.50788,-26.25257 0,-1.79582 35.69634,-13.54541 41.36673,-19.33237 5.06459,-5.16872 12.42035,-22.14773 12.42035,-29.59259 0,-9.93355 -7.56172,-18.77464 -15.20067,-22.67259 -9.98648,-5.09576 -7.56805,-10.17607 0,-17.89937 4.85418,-4.95397 3.30754,-14.83025 1.16926,-20.285923 -2.25152,-5.744212 -11.03147,-9.208923 -16.37007,-11.932963 -4.32344,-2.20611 -17.00269,0.161447 -21.04708,1.193292 -2.74906,0.701382 -5.27384,1.643895 -8.18492,2.386584 z"
         style="opacity:0.19791667;color:#000000;fill:#000000;fill-opacity:1;fill-rule:evenodd;stroke:#000000;stroke-width:3.6605041;stroke-linecap:butt;stroke-linejoin:miter;stroke-miterlimit:4;stroke-opacity:1;stroke-dasharray:none;stroke-dashoffset:0;marker:none;visibility:visible;display:inline;overflow:visible;enable-background:accumulate"
         inkscape:connector-curvature="0" />
      <path
         sodipodi:nodetypes="cssssssssssssssssssssc"
         id="path3486"
         d="m 129.48614,92.367683 c -17.95281,6.408552 -26.72468,21.957017 -34.787401,38.082477 -7.871448,15.74288 -2.070389,23.59918 10.501201,36.17084 3.02233,3.02221 -42.004815,34.67552 -42.004815,49.00551 0,24.36771 58.601735,23.44254 71.174875,23.44254 1.08128,0 -6.92306,11.90493 -2.33368,18.5623 4.20749,6.10339 21.84286,10.50127 26.83637,10.50127 11.37555,0 15.73272,-18.10448 22.16933,-11.66805 13.74586,13.74611 14.54318,16.93319 36.2536,16.93319 7.66104,0 6.68073,-5.21376 11.58513,-11.09904 18.25035,-21.90051 9.41077,-18.89495 39.35199,-3.92434 25.29048,12.64537 34.15573,4.35208 42.96072,-22.06266 6.58261,-19.74806 -2.74877,-20.26262 16.86536,-24.18555 18.5013,-3.70016 47.1219,0.0841 51.33932,-21.00229 3.56908,-17.84566 -25.34893,-41.68419 -37.33771,-53.67292 -7.09971,-7.0998 -1.16678,-14.4488 -1.16678,-25.66961 0,-8.39305 -31.01197,-14.022002 -36.17094,-15.168416 -15.7183,-3.492972 -20.43614,0.918034 -25.66941,14.001616 -0.3439,0.85964 -12.78595,-19.8193 -33.83738,-26.836423 -15.93353,-5.311161 -17.63787,-9.334391 -33.83712,-9.334391 -15.01183,0 -31.0057,7.669649 -40.83805,17.502002 -6.43501,6.435003 -24.03412,-10.366764 -41.05461,0.421945 z"
         style="fill:#668000;fill-rule:evenodd;stroke:none"
         inkscape:connector-curvature="0" />
      <path
         sodipodi:nodetypes="cssssssssssccsssssssc"
         id="path3496"
         d="m 147.22928,110.68987 c -14.9398,3.40996 -29.6102,24.84936 -36.31285,38.25457 -6.54364,13.08743 -1.72114,19.61844 8.72979,30.06938 2.5125,2.51245 -34.919181,28.82624 -34.919181,40.73892 0,20.25723 48.716361,18.42983 59.168651,18.42983 5.5345,0 -1.94002,10.95523 -1.94002,16.4894 0,6.16275 18.15832,8.73004 22.30955,8.73004 9.45666,0 13.07882,-15.05051 18.42956,-9.69999 11.4271,11.42735 13.96108,22.30962 32.00922,22.30962 6.36882,0 7.28384,-8.96587 11.36093,-13.85844 15.17181,-18.2061 7.39752,-20.89648 32.288,-8.45118 21.02448,10.51237 40.17901,5.47582 47.49873,-16.48311 16.29643,-4.08876 36.67167,-2.09406 41.73949,-37.83537 2.96698,-14.83543 -21.07294,-34.65281 -31.03942,-44.61907 -5.902,-5.90229 -0.96995,-12.01145 -0.96995,-21.33956 0,-6.97717 -25.78072,-11.65678 -30.06948,-12.60965 -13.0669,-2.90382 -16.98878,0.76308 -21.3394,11.63968 -0.28587,0.71465 -10.62894,-16.47611 -28.12933,-22.30952 -13.24594,-4.41525 -14.66274,-7.75981 -28.12932,-7.75981 -12.4795,0 -25.77553,6.37589 -33.94927,14.54966 -5.34961,5.34948 -18.937,-7.8052 -26.7357,-6.2454 z"
         style="opacity:0.26041667;fill:#000000;fill-rule:evenodd;stroke:#000000;stroke-width:3.00586605;stroke-linecap:butt;stroke-linejoin:miter;stroke-miterlimit:4;stroke-opacity:1;stroke-dasharray:none"
         inkscape:connector-curvature="0" />
      <path
         sodipodi:nodetypes="ccccccccccccccccccccc"
         id="path4765"
         d="M 275.64987,108.85942 C 244.69626,70.78072 210.39016,68.570114 168.06366,94.217506 101.64602,79.454656 80.282411,143.75863 105.03979,165.51724 c -5.965488,26.42208 -97.5364332,63.54484 30.55703,73.20955 -13.95857,26.98102 27.91266,37.07723 40.1061,13.3687 16.70513,3.94833 37.46376,35.42024 50.29178,11.45889 l 15.91511,-18.46154 c 40.36514,20.41042 70.03321,20.88538 73.20955,-28.01061 116.34017,-17.18328 44.70579,-58.78382 24.19099,-82.12202 7.89246,-46.233655 -14.87299,-25.57733 -23.55438,-35.649865 -25.00482,-11.467089 -25.57906,-13.847182 -34.37666,4.456245 5.45027,-14.57705 19.95456,-8.216676 33.74005,-4.456245 11.74605,6.041395 30.75116,1.194215 23.55438,35.649865 20.25481,19.56977 83.92781,59.32636 -24.19098,81.48541 0.1362,39.87234 -12.3363,64.75055 -74.48276,30.55703 l -12.7321,17.82494 c -12.81514,29.51523 -36.89998,-4.36639 -50.29177,-10.18568 -22.36665,28.07253 -58.49993,10.34373 -40.74271,-15.91512 -131.7468824,-0.0613 -51.884235,-46.25224 -30.55703,-70.66313 -48.812,-43.96884 27.822,-97.059135 63.02388,-71.936339 31.17956,-36.134177 83.19699,-29.007816 106.9496,12.732099 z"
         style="fill:#000000;fill-rule:evenodd;stroke:#000000;stroke-width:2;stroke-linecap:butt;stroke-linejoin:miter;stroke-miterlimit:4;stroke-opacity:1;stroke-dasharray:none"
         inkscape:connector-curvature="0" />
      <path
         sodipodi:nodetypes="csssssssssssssssssc"
         id="path3488"
         d="m 417.36746,189.90022 c -5.07095,5.07091 15.93135,-0.40403 21.0025,4.66712 6.5136,6.5138 4.08652,16.91578 -1.16678,22.16933 -5.62911,5.62885 26.15309,25.39134 26.83644,38.50424 0.6366,12.21583 -13.3367,7.03418 -16.54717,12.94126 -2.54471,4.68211 -4.459,9.91255 -9.12249,12.7284 -5.6134,3.38941 -21.11309,1.14474 -26.83644,0 -6.46599,-1.29309 -9.89868,1.16678 -17.50195,1.16678 -5.61304,0 -9.07079,-6.73697 -12.83484,-10.50127 -2.73706,-2.73681 -19.54872,1.16682 -24.50288,1.16682 -12.34337,0 -9.23061,-2.12633 -14.00161,-11.66784 -4.30209,-8.60443 -10.91515,-5.83415 -23.33585,-5.83415 -15.25834,0 -18.70901,-11.09073 -16.3353,-25.66964 1.80989,-11.11607 5.57083,-11.46887 15.19677,-14.21223 7.94559,-2.26447 11.69863,-19.34845 15.14014,-26.6256 2.18034,-4.61038 11.90985,-1.62939 15.16839,0 7.04748,3.52374 9.37311,17.46308 18.66873,8.16746 5.87463,-5.87462 12.96971,-8.16746 22.16924,-8.16746 10.62763,0 18.32145,2.78034 28.0031,1.16678 z"
         style="color:#000000;fill:#668000;fill-opacity:1;fill-rule:evenodd;stroke:none;stroke-width:3.61580038;marker:none;visibility:visible;display:inline;overflow:visible;enable-background:accumulate"
         inkscape:connector-curvature="0" />
      <path
         id="path3494"
         d="m 406.03844,201.91426 c -4.1469,4.14691 13.02839,-0.33038 17.1754,3.81662 5.32665,5.32685 3.34192,13.83343 -0.95415,18.12968 -4.60334,4.60315 21.94621,20.74991 21.94621,31.48784 0,7.64711 -8.97892,8.20847 -14.31278,9.54195 -4.28681,1.07168 -3.14429,8.79905 -6.67928,11.45011 -4.28984,3.21762 -17.26577,0.93624 -21.94629,0 -5.28774,-1.05744 -8.09492,0.95423 -14.31265,0.95423 -4.59019,0 -7.41794,-5.50937 -10.49604,-8.58772 -2.23831,-2.23806 -15.98652,0.95423 -20.03798,0.95423 -10.09412,0 -7.54851,-1.73884 -11.45011,-9.5417 -3.51819,-7.03649 -8.92615,-4.7711 -19.08363,-4.7711 -12.4779,0 -13.35857,-8.91275 -13.35857,-20.99204 0,-10.27454 1.45609,-12.40436 11.45013,-12.40436 8.28363,0 10.92782,-14.91513 13.35868,-20.99197 1.54888,-3.87225 9.73965,-1.33239 12.40434,0 5.76333,2.88174 7.66521,14.28098 15.26688,6.6792 4.80423,-4.80411 10.60637,-6.6792 18.12959,-6.6792 8.69098,0 14.9829,2.27379 22.90025,0.95423 z"
         style="opacity:0.22916667;color:#000000;fill:#000000;fill-opacity:1;fill-rule:evenodd;stroke:#000000;stroke-width:2.9569211;stroke-linecap:butt;stroke-linejoin:miter;stroke-miterlimit:4;stroke-opacity:1;stroke-dasharray:none;stroke-dashoffset:0;marker:none;visibility:visible;display:inline;overflow:visible;enable-background:accumulate"
         inkscape:connector-curvature="0" />
      <path
         sodipodi:nodetypes="ccccccc"
         id="path3752"
         d="m 306.82475,447.02839 c 7.81371,1.01783 17.58888,-1.23345 20.68966,7.63926 16.97329,-7.81136 24.59062,3.47185 34.37665,7.63926 -9.57598,-3.95539 -18.15934,-13.11373 -33.42175,-7.32096 -3.01408,-9.30636 -11.59128,-9.57265 -21.32626,-7.95756 -13.89322,-5.01735 -43.73909,-11.0508 -42.01591,14.96021 0.84746,-13.91687 8.8307,-22.95138 41.69761,-14.96021 z"
         style="fill:#000000;fill-rule:evenodd;stroke:#000000;stroke-width:2;stroke-linecap:butt;stroke-linejoin:miter;stroke-miterlimit:4;stroke-opacity:1;stroke-dasharray:none"
         inkscape:connector-curvature="0" />
      <path
         sodipodi:nodetypes="ccccsc"
         id="path3756"
         d="m 265.23453,460.52363 c 2.43022,-17.54798 24.70308,-11.79835 42.55753,-9.78187 6.68682,0.86061 14.47496,-1.18907 18.96083,5.48769 11.73193,-4.61855 21.71456,1.16386 31.90236,5.72628 -15.15876,-0.68098 -29.66493,1.4084 -40.65562,1.40709 -17.95064,-0.002 -35.26876,-3.58195 -52.7651,-2.83919 z"
         style="opacity:0.16666667;fill:#000000;fill-rule:evenodd;stroke:none"
         inkscape:connector-curvature="0" />
      <path
         sodipodi:nodetypes="cccccccccccsccccc"
         id="path4763"
         d="m 363.17922,200.36818 c 18.70109,-23.55356 36.17528,-9.07298 54.1114,-8.91247 12.07696,1.6746 34.92819,3.91172 18.77984,27.37401 8.73682,17.35758 55.67334,42.62933 9.86738,47.10875 1.31699,18.15857 -19.10631,17.39537 -36.92308,14.32361 -9.16523,-2.8537 -17.01748,9.39186 -27.69231,-10.82228 -37.2574,12.04587 -36.65213,-3.80707 -43.28912,-14.32361 -44.95311,2.91257 -40.42345,-39.18861 -16.55173,-40.4244 11.50436,-26.88895 18.19038,-44.62134 38.51459,-15.27852 -12.62599,-17.55466 -28.75331,-16.4637 -37.87798,15.27852 -29.3586,-2.16456 -30.49095,52.91084 18.46154,43.28913 11.33945,18.53141 31.40028,15.87382 42.92202,6.2479 0.79836,-0.667 1.70856,18.71574 26.14959,16.66986 14.1102,0.49137 35.01721,13.23754 36.60478,-13.687 42.81045,-5.97128 -3.77596,-31.24135 -9.86738,-47.74535 19.12962,-28.0185 -6.16958,-26.68448 -19.41644,-27.69231 -18.51325,-1.79304 -37.68498,-8.85388 -53.7931,8.59416 z"
         style="fill:#000000;fill-rule:evenodd;stroke:#000000;stroke-width:2;stroke-linecap:butt;stroke-linejoin:miter;stroke-miterlimit:4;stroke-opacity:1;stroke-dasharray:none"
         inkscape:connector-curvature="0" />
      <path
         sodipodi:nodetypes="ccccccccccccc"
         id="path4769"
         d="m 261.83141,90.918048 c -7.38452,-8.001108 21.97502,-13.795721 32.86077,-21.002469 -2.74985,-51.566436 59.3215,-66.7900917 87.03295,-21.607083 60.59634,-48.76851457 88.60808,-7.530826 81.4767,25.658411 61.35615,-17.018364 62.33158,25.890454 41.86372,43.214163 9.756,4.44603 72.78174,80.14356 -35.11151,86.42833 -1.38205,15.37699 2.9964,43.71106 -18.90619,33.31092 17.62385,4.71178 17.97926,-19.12457 19.35635,-36.46195 78.33141,-4.87801 66.89933,-59.9075 31.51032,-81.92686 C 539.26515,64.596717 484.59339,68.693154 465.00242,72.166317 463.42158,-3.7346426 400.20203,24.508719 381.27498,48.53357 359.64601,5.5642598 290.68192,21.005419 295.14233,69.651889 284.24798,76.951913 261.42825,80.141866 261.83141,90.918048 z"
         style="fill:#000000;fill-rule:evenodd;stroke:#000000;stroke-width:2;stroke-linecap:butt;stroke-linejoin:miter;stroke-miterlimit:4;stroke-opacity:1;stroke-dasharray:none"
         inkscape:connector-curvature="0" />
    </g>
  </g>
</svg>
