<?xml version="1.0" encoding="UTF-8" standalone="no"?>
<!-- Created with Inkscape (http://www.inkscape.org/) -->

<svg
   xmlns:dc="http://purl.org/dc/elements/1.1/"
   xmlns:cc="http://creativecommons.org/ns#"
   xmlns:rdf="http://www.w3.org/1999/02/22-rdf-syntax-ns#"
   xmlns:svg="http://www.w3.org/2000/svg"
   xmlns="http://www.w3.org/2000/svg"
   xmlns:xlink="http://www.w3.org/1999/xlink"
   xmlns:sodipodi="http://sodipodi.sourceforge.net/DTD/sodipodi-0.dtd"
   xmlns:inkscape="http://www.inkscape.org/namespaces/inkscape"
   width="243.80193"
   height="340.72833"
   id="svg3266"
   version="1.1"
   inkscape:version="0.48.3.1 r9886"
   sodipodi:docname="pila de libros.svg">
  <defs
     id="defs3268">
    <linearGradient
       inkscape:collect="always"
       xlink:href="#linearGradient6669"
       id="linearGradient6675"
       x1="-409.63589"
       y1="2405.2412"
       x2="207.06407"
       y2="2405.2412"
       gradientUnits="userSpaceOnUse" />
    <linearGradient
       inkscape:collect="always"
       id="linearGradient6669">
      <stop
         style="stop-color:#000000;stop-opacity:1;"
         offset="0"
         id="stop6671" />
      <stop
         style="stop-color:#000000;stop-opacity:0;"
         offset="1"
         id="stop6673" />
    </linearGradient>
    <linearGradient
       inkscape:collect="always"
       xlink:href="#linearGradient6669"
       id="linearGradient3288"
       x1="-409.63589"
       y1="2405.2412"
       x2="207.06407"
       y2="2405.2412"
       gradientUnits="userSpaceOnUse" />
    <linearGradient
       inkscape:collect="always"
       xlink:href="#linearGradient6669"
       id="linearGradient3296"
       x1="-409.63589"
       y1="2405.2412"
       x2="207.06407"
       y2="2405.2412"
       gradientUnits="userSpaceOnUse" />
    <linearGradient
       gradientUnits="userSpaceOnUse"
       xlink:href="#linearGradient5325-92-2-4"
       id="linearGradient6131-4-4"
       y2="746.78821"
       x2="-630.68909"
       y1="746.78821"
       x1="-654.87616" />
    <linearGradient
       id="linearGradient5325-92-2-4">
      <stop
         offset="0"
         style="stop-color:#000000;stop-opacity:1"
         id="stop5327-2-9-0" />
      <stop
         offset="1"
         style="stop-color:#000000;stop-opacity:0"
         id="stop5329-47-9-3" />
    </linearGradient>
    <linearGradient
       gradientTransform="translate(897.43131,-162.73819)"
       gradientUnits="userSpaceOnUse"
       xlink:href="#linearGradient5325-9-5-2-3"
       id="linearGradient6133-8-8"
       y2="746.78821"
       x2="-630.68909"
       y1="746.78821"
       x1="-654.87616" />
    <linearGradient
       id="linearGradient5325-9-5-2-3">
      <stop
         offset="0"
         style="stop-color:#000000;stop-opacity:1"
         id="stop5327-6-4-1-0" />
      <stop
         offset="1"
         style="stop-color:#000000;stop-opacity:0"
         id="stop5329-4-8-3-9" />
    </linearGradient>
    <filter
       color-interpolation-filters="sRGB"
       inkscape:collect="always"
       id="filter6585-8-9">
      <feGaussianBlur
         inkscape:collect="always"
         stdDeviation="2.0134725"
         id="feGaussianBlur6587-8-4" />
    </filter>
    <filter
       color-interpolation-filters="sRGB"
       inkscape:collect="always"
       id="filter6686-0-3"
       x="-0.14261886"
       width="1.2852377"
       y="-0.1093168"
       height="1.2186337">
      <feGaussianBlur
         inkscape:collect="always"
         stdDeviation="2.7933996"
         id="feGaussianBlur6688-8-8" />
    </filter>
    <filter
       color-interpolation-filters="sRGB"
       inkscape:collect="always"
       id="filter6748-2-2"
       x="-0.11093106"
       width="1.2218621"
       y="-0.077832296"
       height="1.1556646">
      <feGaussianBlur
         inkscape:collect="always"
         stdDeviation="2.0831602"
         id="feGaussianBlur6750-3-9" />
    </filter>
    <filter
       color-interpolation-filters="sRGB"
       inkscape:collect="always"
       id="filter6821-0-6"
       x="-0.11781558"
       width="1.2356312"
       y="-0.090305179"
       height="1.1806104">
      <feGaussianBlur
         inkscape:collect="always"
         stdDeviation="2.307591"
         id="feGaussianBlur6823-5-4" />
    </filter>
    <inkscape:path-effect
       effect="spiro"
       id="path-effect7421-0-04"
       is_visible="true" />
    <inkscape:path-effect
       effect="spiro"
       id="path-effect7421-3-4-10"
       is_visible="true" />
    <inkscape:path-effect
       effect="spiro"
       id="path-effect7421-3-0-8-8"
       is_visible="true" />
    <inkscape:path-effect
       effect="spiro"
       id="path-effect7421-3-3-4-06"
       is_visible="true" />
  </defs>
  <sodipodi:namedview
     id="base"
     pagecolor="#ffffff"
     bordercolor="#666666"
     borderopacity="1.0"
     inkscape:pageopacity="0.0"
     inkscape:pageshadow="2"
     inkscape:zoom="0.35"
     inkscape:cx="121.89729"
     inkscape:cy="170.36182"
     inkscape:document-units="px"
     inkscape:current-layer="layer1"
     showgrid="false"
     fit-margin-top="0"
     fit-margin-left="0"
     fit-margin-right="0"
     fit-margin-bottom="0"
     inkscape:window-width="597"
     inkscape:window-height="586"
     inkscape:window-x="65"
     inkscape:window-y="24"
     inkscape:window-maximized="0" />
  <metadata
     id="metadata3271">
    <rdf:RDF>
      <cc:Work
         rdf:about="">
        <dc:format>image/svg+xml</dc:format>
        <dc:type
           rdf:resource="http://purl.org/dc/dcmitype/StillImage" />
        <dc:title></dc:title>
      </cc:Work>
    </rdf:RDF>
  </metadata>
  <g
     inkscape:label="Capa 1"
     inkscape:groupmode="layer"
     id="layer1"
     transform="translate(-228.10271,-361.99565)">
    <g
       id="layer1-5"
       transform="translate(4.1269109e-6,-1.0020653e-5)">
      <g
         id="g4729">
        <rect
           style="color:#000000;fill:#aa8800;fill-opacity:1;fill-rule:nonzero;stroke:#000000;stroke-width:3.4069593px;stroke-linecap:butt;stroke-linejoin:miter;stroke-miterlimit:4;stroke-opacity:1;stroke-dasharray:none;stroke-dashoffset:0;marker:none;visibility:visible;display:inline;overflow:visible;enable-background:accumulate"
           id="rect9837"
           transform="matrix(0.90546123,-0.42442899,0.42442899,0.90546123,0,0)"
           y="725.94366"
           x="101.38265"
           ry="1.3271558"
           height="78.853271"
           width="29.98922" />
        <path
           style="color:#000000;fill:#803300;fill-opacity:1;fill-rule:nonzero;stroke:#000000;stroke-width:3.4069593px;stroke-linecap:butt;stroke-linejoin:miter;stroke-miterlimit:4;stroke-opacity:1;stroke-dasharray:none;stroke-dashoffset:0;marker:none;visibility:visible;display:inline;overflow:visible;enable-background:accumulate"
           id="path9776"
           d="m 361.15252,363.70502 c -19.11978,-0.15836 -39.2265,4.07602 -58.53125,13.125 -58.83353,27.57783 -87.93138,89.63736 -64.96875,138.625 10.92489,23.30675 31.67461,39.44586 56.75,47 l -3.5,0 c 38.89232,15.3379 78.48254,29.62344 113.59375,50.75 l -3.90625,-19.1875 c -14.34897,-10.32036 -28.07678,-21.31392 -44.09375,-29.8125 9.80859,-2.16481 19.65025,-5.45428 29.28125,-9.96875 11.28174,-5.28824 21.43837,-11.88615 30.375,-19.375 -4.33318,18.75433 -4.62113,37.32598 -5.9375,55.9375 l 12.25,15.25 c 6.22334,-40.50175 21.20973,-85.56756 32.09375,-123.1875 l -3.09375,4.125 c 9.33893,-23.47147 9.83081,-48.83355 -0.75,-71.40625 -15.42802,-32.91357 -50.41248,-51.55075 -89.5625,-51.875 z m -4.09375,9.6875 c 36.42385,-0.49354 69.24445,16.45856 83.53125,46.9375 20.7808,44.333 -5.53779,100.51123 -58.78125,125.46875 -53.24346,24.95752 -113.25045,9.23925 -134.03125,-35.09375 -20.7808,-44.333 5.53779,-100.47998 58.78125,-125.4375 16.63858,-7.79923 33.94371,-11.65067 50.5,-11.875 z"
           inkscape:connector-curvature="0" />
        <path
           style="color:#000000;fill:#aa4400;fill-opacity:1;fill-rule:nonzero;stroke:#000000;stroke-width:3.4069593px;stroke-linecap:butt;stroke-linejoin:miter;stroke-miterlimit:4;stroke-opacity:1;stroke-dasharray:none;stroke-dashoffset:0;marker:none;visibility:visible;display:inline;overflow:visible;enable-background:accumulate"
           id="path9757-5"
           d="m 357.05877,373.39252 c -16.55629,0.22433 -33.86142,4.07577 -50.5,11.875 -53.24346,24.95752 -79.56205,81.1045 -58.78125,125.4375 20.7808,44.333 80.78779,60.05127 134.03125,35.09375 53.24346,-24.95752 79.56205,-81.13575 58.78125,-125.46875 -14.2868,-30.47894 -47.1074,-47.43104 -83.53125,-46.9375 z m -0.25,12.3125 c 3.27338,-0.12506 6.45971,1.65984 7.9375,4.8125 1.97038,4.20354 0.14105,9.21711 -4.0625,11.1875 4.20355,-1.97039 9.21712,-0.1723 11.1875,4.03125 -1.97038,-4.20355 -0.1723,-9.18587 4.03125,-11.15625 4.20355,-1.97039 9.21712,-0.1723 11.1875,4.03125 1.97038,4.20354 0.1723,9.21711 -4.03125,11.1875 4.20355,-1.97039 9.18587,-0.1723 11.15625,4.03125 1.97038,4.20354 0.1723,9.21711 -4.03125,11.1875 4.20355,-1.97039 9.21712,-0.1723 11.1875,4.03125 1.97038,4.20355 0.14105,9.21712 -4.0625,11.1875 4.20355,-1.97038 9.21712,-0.1723 11.1875,4.03125 1.97038,4.20355 0.1723,9.21712 -4.03125,11.1875 4.20355,-1.97038 9.18587,-0.1723 11.15625,4.03125 1.97038,4.20355 0.1723,9.21712 -4.03125,11.1875 4.20355,-1.97038 9.21712,-0.14105 11.1875,4.0625 1.97038,4.20355 0.14105,9.18587 -4.0625,11.15625 4.20355,-1.97038 9.21712,-0.14105 11.1875,4.0625 1.97038,4.20355 0.1723,9.18587 -4.03125,11.15625 -4.20355,1.97038 -9.21712,0.1723 -11.1875,-4.03125 1.97038,4.20355 0.1723,9.21712 -4.03125,11.1875 -4.20355,1.97038 -9.21712,0.14105 -11.1875,-4.0625 1.97038,4.20355 0.14105,9.21712 -4.0625,11.1875 -4.20355,1.97038 -9.18587,0.1723 -11.15625,-4.03125 1.97038,4.20355 0.14105,9.18587 -4.0625,11.15625 -4.20355,1.97038 -9.18587,0.1723 -11.15625,-4.03125 1.97038,4.20355 0.14105,9.21712 -4.0625,11.1875 -4.20355,1.97038 -9.21712,0.14105 -11.1875,-4.0625 1.97038,4.20355 0.1723,9.21712 -4.03125,11.1875 -4.20355,1.97038 -9.21712,0.1723 -11.1875,-4.03125 1.97038,4.20355 0.1723,9.18587 -4.03125,11.15625 -4.20355,1.97038 -9.21712,0.1723 -11.1875,-4.03125 1.97038,4.20355 0.1723,9.21712 -4.03125,11.1875 -4.20355,1.97038 -9.21712,0.14105 -11.1875,-4.0625 -1.97038,-4.20355 -0.14105,-9.18587 4.0625,-11.15625 -4.20355,1.97038 -9.21712,0.14105 -11.1875,-4.0625 -1.97038,-4.20355 -0.1723,-9.21712 4.03125,-11.1875 -4.20355,1.97038 -9.21712,0.1723 -11.1875,-4.03125 -1.97038,-4.20355 -0.14105,-9.21712 4.0625,-11.1875 -4.20355,1.97038 -9.21712,0.1723 -11.1875,-4.03125 -1.97038,-4.20355 -0.14105,-9.21712 4.0625,-11.1875 -4.20355,1.97038 -9.21712,0.1723 -11.1875,-4.03125 -1.97038,-4.20355 -0.1723,-9.21712 4.03125,-11.1875 -4.20355,1.97038 -9.21712,0.1723 -11.1875,-4.03125 -1.97038,-4.20355 -0.14105,-9.21712 4.0625,-11.1875 -4.20355,1.97038 -9.21712,0.1723 -11.1875,-4.03125 -1.97038,-4.20355 -0.14105,-9.21712 4.0625,-11.1875 -4.20355,1.97038 -9.21712,0.1723 -11.1875,-4.03125 -1.97038,-4.20355 -0.1723,-9.21712 4.03125,-11.1875 4.20355,-1.97038 9.21712,-0.1723 11.1875,4.03125 -1.97038,-4.20355 -0.1723,-9.21712 4.03125,-11.1875 4.20355,-1.97039 9.21712,-0.14105 11.1875,4.0625 -1.97038,-4.20355 -0.1723,-9.21712 4.03125,-11.1875 4.20355,-1.97039 9.21712,-0.14105 11.1875,4.0625 -1.97038,-4.20355 -0.14105,-9.21712 4.0625,-11.1875 4.20355,-1.97039 9.18587,-0.1723 11.15625,4.03125 -1.97038,-4.20355 -0.14105,-9.21712 4.0625,-11.1875 4.20355,-1.97039 9.18587,-0.14105 11.15625,4.0625 -1.97038,-4.20355 -0.14105,-9.21712 4.0625,-11.1875 4.20355,-1.97039 9.21712,-0.14105 11.1875,4.0625 -1.97038,-4.20355 -0.1723,-9.21712 4.03125,-11.1875 1.05089,-0.4926 2.15887,-0.73957 3.25,-0.78125 z m -7.28125,11.96875 c 1.97038,4.20354 0.14105,9.18586 -4.0625,11.15625 4.20355,-1.97039 9.21712,-0.14105 11.1875,4.0625 -1.97038,-4.20355 -0.1723,-9.21712 4.03125,-11.1875 -4.20355,1.97038 -9.18587,0.17229 -11.15625,-4.03125 z m 7.125,15.21875 c 1.97038,4.20354 0.14105,9.18586 -4.0625,11.15625 4.20355,-1.97039 9.21712,-0.14105 11.1875,4.0625 -1.97038,-4.20355 -0.14105,-9.21712 4.0625,-11.1875 -4.20355,1.97038 -9.21712,0.17229 -11.1875,-4.03125 z m 11.1875,4.03125 c 4.20355,-1.97039 9.18587,-0.1723 11.15625,4.03125 -1.97038,-4.20355 -0.14105,-9.18587 4.0625,-11.15625 -4.20355,1.97038 -9.21712,0.14104 -11.1875,-4.0625 1.97038,4.20354 0.1723,9.21711 -4.03125,11.1875 z m 11.15625,4.03125 c 1.97038,4.20355 0.1723,9.21712 -4.03125,11.1875 4.20355,-1.97038 9.21712,-0.14105 11.1875,4.0625 -1.97038,-4.20355 -0.1723,-9.21712 4.03125,-11.1875 -4.20355,1.97038 -9.21712,0.14105 -11.1875,-4.0625 z m 7.15625,15.25 c 1.97038,4.20355 0.14105,9.18587 -4.0625,11.15625 4.20355,-1.97038 9.21712,-0.14105 11.1875,4.0625 -1.97038,-4.20355 -0.1723,-9.21712 4.03125,-11.1875 -4.20355,1.97038 -9.18587,0.1723 -11.15625,-4.03125 z m 7.125,15.21875 c 1.97038,4.20355 0.1723,9.18587 -4.03125,11.15625 4.20355,-1.97038 9.18587,-0.14105 11.15625,4.0625 -1.97038,-4.20355 -0.14105,-9.21712 4.0625,-11.1875 -4.20355,1.97038 -9.21712,0.1723 -11.1875,-4.03125 z m 7.125,15.21875 c 1.97038,4.20355 0.1723,9.21712 -4.03125,11.1875 4.20355,-1.97038 9.21712,-0.1723 11.1875,4.03125 -1.97038,-4.20355 -0.1723,-9.21712 4.03125,-11.1875 -4.20355,1.97038 -9.21712,0.1723 -11.1875,-4.03125 z m 7.15625,15.21875 c 1.97038,4.20355 0.14105,9.21712 -4.0625,11.1875 4.20355,-1.97038 9.21712,-0.1723 11.1875,4.03125 -1.97038,-4.20355 -0.1723,-9.21712 4.03125,-11.1875 -4.20355,1.97038 -9.18587,0.1723 -11.15625,-4.03125 z m -4.0625,11.1875 c -4.20355,1.97038 -9.21712,0.14105 -11.1875,-4.0625 1.97038,4.20355 0.1723,9.21712 -4.03125,11.1875 4.20355,-1.97038 9.21712,-0.1723 11.1875,4.03125 -1.97038,-4.20355 -0.1723,-9.18587 4.03125,-11.15625 z m -15.21875,7.125 c -4.20355,1.97038 -9.21712,0.1723 -11.1875,-4.03125 1.97038,4.20355 0.1723,9.18587 -4.03125,11.15625 4.20355,-1.97038 9.21712,-0.14105 11.1875,4.0625 -1.97038,-4.20355 -0.1723,-9.21712 4.03125,-11.1875 z m -15.21875,7.125 c -4.20355,1.97038 -9.21712,0.1723 -11.1875,-4.03125 1.97038,4.20355 0.1723,9.21712 -4.03125,11.1875 4.20355,-1.97038 9.21712,-0.1723 11.1875,4.03125 -1.97038,-4.20355 -0.1723,-9.21712 4.03125,-11.1875 z m -15.21875,7.15625 c -4.20355,1.97038 -9.21712,0.14105 -11.1875,-4.0625 1.97038,4.20355 0.1723,9.21712 -4.03125,11.1875 4.20355,-1.97038 9.18587,-0.1723 11.15625,4.03125 -1.97038,-4.20355 -0.14105,-9.18587 4.0625,-11.15625 z m -15.21875,7.125 c -4.20355,1.97038 -9.21712,0.1723 -11.1875,-4.03125 1.97038,4.20355 0.1723,9.18587 -4.03125,11.15625 4.20355,-1.97038 9.18587,-0.14105 11.15625,4.0625 -1.97038,-4.20355 -0.14105,-9.21712 4.0625,-11.1875 z m -15.21875,7.125 c -4.20355,1.97038 -9.21712,0.1723 -11.1875,-4.03125 1.97038,4.20355 0.1723,9.21712 -4.03125,11.1875 4.20355,-1.97038 9.18587,-0.1723 11.15625,4.03125 -1.97038,-4.20355 -0.14105,-9.21712 4.0625,-11.1875 z m -11.1875,-4.03125 c -1.97038,-4.20355 -0.1723,-9.21712 4.03125,-11.1875 -4.20355,1.97038 -9.18587,0.1723 -11.15625,-4.03125 1.97038,4.20355 0.14105,9.18587 -4.0625,11.15625 4.20355,-1.97038 9.21712,-0.14105 11.1875,4.0625 z m -7.125,-15.21875 c -1.97038,-4.20355 -0.1723,-9.21712 4.03125,-11.1875 -4.20355,1.97038 -9.21712,0.1723 -11.1875,-4.03125 1.97038,4.20355 0.1723,9.18587 -4.03125,11.15625 4.20355,-1.97038 9.21712,-0.14105 11.1875,4.0625 z m -7.15625,-15.21875 c -1.97038,-4.20355 -0.14105,-9.21712 4.0625,-11.1875 -4.20355,1.97038 -9.21712,0.1723 -11.1875,-4.03125 1.97038,4.20355 0.1723,9.18587 -4.03125,11.15625 4.20355,-1.97038 9.18587,-0.14105 11.15625,4.0625 z m -7.125,-15.21875 c -1.97038,-4.20355 -0.1723,-9.21712 4.03125,-11.1875 -4.20355,1.97038 -9.18587,0.14105 -11.15625,-4.0625 1.97038,4.20355 0.14105,9.21712 -4.0625,11.1875 4.20355,-1.97038 9.21712,-0.14105 11.1875,4.0625 z m -7.125,-15.25 c -1.97038,-4.20355 -0.1723,-9.18587 4.03125,-11.15625 -4.20355,1.97038 -9.21712,0.14105 -11.1875,-4.0625 1.97038,4.20355 0.1723,9.21712 -4.03125,11.1875 4.20355,-1.97038 9.21712,-0.1723 11.1875,4.03125 z m -7.15625,-15.21875 c -1.97038,-4.20355 -0.14105,-9.18587 4.0625,-11.15625 -4.20355,1.97038 -9.21712,0.14105 -11.1875,-4.0625 1.97038,4.20355 0.1723,9.21712 -4.03125,11.1875 4.20355,-1.97038 9.18587,-0.1723 11.15625,4.03125 z m 4.0625,-11.15625 c 4.20355,-1.97038 9.18587,-0.1723 11.15625,4.03125 -1.97038,-4.20355 -0.14105,-9.21712 4.0625,-11.1875 -4.20355,1.97038 -9.21712,0.1723 -11.1875,-4.03125 1.97038,4.20355 0.1723,9.21712 -4.03125,11.1875 z m 15.21875,-7.15625 c 4.20355,-1.97038 9.18587,-0.14105 11.15625,4.0625 -1.97038,-4.20355 -0.14105,-9.21712 4.0625,-11.1875 -4.20355,1.97038 -9.21712,0.17229 -11.1875,-4.03125 1.97038,4.20354 0.1723,9.18587 -4.03125,11.15625 z m 15.21875,-7.125 c 4.20355,-1.97039 9.21712,-0.1723 11.1875,4.03125 -1.97038,-4.20355 -0.1723,-9.18587 4.03125,-11.15625 -4.20355,1.97038 -9.21712,0.14104 -11.1875,-4.0625 1.97038,4.20354 0.1723,9.21711 -4.03125,11.1875 z m 15.21875,-7.125 c 4.20355,-1.97039 9.21712,-0.1723 11.1875,4.03125 -1.97038,-4.20355 -0.1723,-9.21712 4.03125,-11.1875 -4.20355,1.97038 -9.21712,0.17229 -11.1875,-4.03125 1.97038,4.20354 0.1723,9.21711 -4.03125,11.1875 z m 11.1875,4.03125 c 1.97038,4.20354 0.14105,9.21712 -4.0625,11.1875 4.20355,-1.97038 9.21712,-0.1723 11.1875,4.03125 -1.97038,-4.20355 -0.1723,-9.21712 4.03125,-11.1875 -4.20355,1.97038 -9.18587,0.17229 -11.15625,-4.03125 z m 7.125,15.21875 c 1.97038,4.20355 0.1723,9.21712 -4.03125,11.1875 4.20355,-1.97038 9.18587,-0.1723 11.15625,4.03125 -1.97038,-4.20355 -0.14105,-9.21712 4.0625,-11.1875 -4.20355,1.97038 -9.21712,0.1723 -11.1875,-4.03125 z m 11.1875,4.03125 c 4.20355,-1.97038 9.21712,-0.14105 11.1875,4.0625 -1.97038,-4.20355 -0.1723,-9.21712 4.03125,-11.1875 -4.20355,1.97038 -9.21712,0.1723 -11.1875,-4.03125 1.97038,4.20355 0.1723,9.18587 -4.03125,11.15625 z m 11.1875,4.0625 c 1.97038,4.20355 0.14105,9.21712 -4.0625,11.1875 4.20355,-1.97038 9.21712,-0.1723 11.1875,4.03125 -1.97038,-4.20355 -0.1723,-9.21712 4.03125,-11.1875 -4.20355,1.97038 -9.18587,0.1723 -11.15625,-4.03125 z m 7.125,15.21875 c 1.97038,4.20355 0.14105,9.21712 -4.0625,11.1875 4.20355,-1.97038 9.21712,-0.1723 11.1875,4.03125 -1.97038,-4.20355 -0.14105,-9.21712 4.0625,-11.1875 -4.20355,1.97038 -9.21712,0.1723 -11.1875,-4.03125 z m 7.125,15.21875 c 1.97038,4.20355 0.1723,9.21712 -4.03125,11.1875 4.20355,-1.97038 9.18587,-0.1723 11.15625,4.03125 -1.97038,-4.20355 -0.14105,-9.18587 4.0625,-11.15625 -4.20355,1.97038 -9.21712,0.14105 -11.1875,-4.0625 z m -4.03125,11.1875 c -4.20355,1.97038 -9.21712,0.14105 -11.1875,-4.0625 1.97038,4.20355 0.1723,9.21712 -4.03125,11.1875 4.20355,-1.97038 9.18587,-0.14105 11.15625,4.0625 -1.97038,-4.20355 -0.14105,-9.21712 4.0625,-11.1875 z m -15.21875,7.125 c -4.20355,1.97038 -9.21712,0.1723 -11.1875,-4.03125 1.97038,4.20355 0.1723,9.21712 -4.03125,11.1875 4.20355,-1.97038 9.18587,-0.1723 11.15625,4.03125 -1.97038,-4.20355 -0.14105,-9.21712 4.0625,-11.1875 z m -15.21875,7.15625 c -4.20355,1.97038 -9.21712,0.14105 -11.1875,-4.0625 1.97038,4.20355 0.14105,9.21712 -4.0625,11.1875 4.20355,-1.97038 9.21712,-0.1723 11.1875,4.03125 -1.97038,-4.20355 -0.14105,-9.18587 4.0625,-11.15625 z m -15.25,7.125 c -4.20355,1.97038 -9.18587,0.14105 -11.15625,-4.0625 1.97038,4.20355 0.14105,9.21712 -4.0625,11.1875 4.20355,-1.97038 9.21712,-0.14105 11.1875,4.0625 -1.97038,-4.20355 -0.1723,-9.21712 4.03125,-11.1875 z m -11.15625,-4.0625 c -1.97038,-4.20355 -0.1723,-9.18587 4.03125,-11.15625 -4.20355,1.97038 -9.21712,0.14105 -11.1875,-4.0625 1.97038,4.20355 0.1723,9.21712 -4.03125,11.1875 4.20355,-1.97038 9.21712,-0.1723 11.1875,4.03125 z m -7.15625,-15.21875 c -1.97038,-4.20355 -0.14105,-9.18587 4.0625,-11.15625 -4.20355,1.97038 -9.21712,0.14105 -11.1875,-4.0625 1.97038,4.20355 0.1723,9.21712 -4.03125,11.1875 4.20355,-1.97038 9.18587,-0.1723 11.15625,4.03125 z m -7.125,-15.21875 c -1.97038,-4.20355 -0.1723,-9.21712 4.03125,-11.1875 -4.20355,1.97038 -9.18587,0.1723 -11.15625,-4.03125 1.97038,4.20355 0.14105,9.21712 -4.0625,11.1875 4.20355,-1.97038 9.21712,-0.1723 11.1875,4.03125 z m -7.125,-15.21875 c -1.97038,-4.20355 -0.1723,-9.21712 4.03125,-11.1875 -4.20355,1.97038 -9.21712,0.1723 -11.1875,-4.03125 1.97038,4.20355 0.1723,9.21712 -4.03125,11.1875 4.20355,-1.97038 9.21712,-0.1723 11.1875,4.03125 z m 4.03125,-11.1875 c 4.20355,-1.97038 9.21712,-0.14105 11.1875,4.0625 -1.97038,-4.20355 -0.1723,-9.21712 4.03125,-11.1875 -4.20355,1.97038 -9.21712,0.1723 -11.1875,-4.03125 1.97038,4.20355 0.1723,9.18587 -4.03125,11.15625 z m 15.21875,-7.125 c 4.20355,-1.97038 9.21712,-0.1723 11.1875,4.03125 -1.97038,-4.20355 -0.1723,-9.18587 4.03125,-11.15625 -4.20355,1.97038 -9.18587,0.14105 -11.15625,-4.0625 1.97038,4.20355 0.14105,9.21712 -4.0625,11.1875 z m 11.1875,4.03125 c 1.97038,4.20355 0.1723,9.21712 -4.03125,11.1875 4.20355,-1.97038 9.18587,-0.14105 11.15625,4.0625 -1.97038,-4.20355 -0.14105,-9.21712 4.0625,-11.1875 -4.20355,1.97038 -9.21712,0.14105 -11.1875,-4.0625 z m 7.125,15.25 c 1.97038,4.20355 0.1723,9.18587 -4.03125,11.15625 4.20355,-1.97038 9.21712,-0.14105 11.1875,4.0625 -1.97038,-4.20355 -0.1723,-9.21712 4.03125,-11.1875 -4.20355,1.97038 -9.21712,0.1723 -11.1875,-4.03125 z m 11.1875,4.03125 c 4.20355,-1.97038 9.21712,-0.1723 11.1875,4.03125 -1.97038,-4.20355 -0.1723,-9.18587 4.03125,-11.15625 -4.20355,1.97038 -9.21712,0.14105 -11.1875,-4.0625 1.97038,4.20355 0.1723,9.21712 -4.03125,11.1875 z m 11.1875,4.03125 c 1.97038,4.20355 0.14105,9.21712 -4.0625,11.1875 4.20355,-1.97038 9.21712,-0.1723 11.1875,4.03125 -1.97038,-4.20355 -0.1723,-9.18587 4.03125,-11.15625 -4.20355,1.97038 -9.18587,0.14105 -11.15625,-4.0625 z m -4.0625,11.1875 c -4.20355,1.97038 -9.18587,0.1723 -11.15625,-4.03125 1.97038,4.20355 0.14105,9.18587 -4.0625,11.15625 4.20355,-1.97038 9.21712,-0.14105 11.1875,4.0625 -1.97038,-4.20355 -0.1723,-9.21712 4.03125,-11.1875 z m -15.21875,7.125 c -4.20355,1.97038 -9.21712,0.1723 -11.1875,-4.03125 1.97038,4.20355 0.1723,9.21712 -4.03125,11.1875 4.20355,-1.97038 9.21712,-0.1723 11.1875,4.03125 -1.97038,-4.20355 -0.1723,-9.21712 4.03125,-11.1875 z m -11.1875,-4.03125 c -1.97038,-4.20355 -0.14105,-9.21712 4.0625,-11.1875 -4.20355,1.97038 -9.21712,0.1723 -11.1875,-4.03125 1.97038,4.20355 0.1723,9.21712 -4.03125,11.1875 4.20355,-1.97038 9.18587,-0.1723 11.15625,4.03125 z m -7.125,-15.21875 c -1.97038,-4.20355 -0.14105,-9.21712 4.0625,-11.1875 -4.20355,1.97038 -9.21712,0.1723 -11.1875,-4.03125 1.97038,4.20355 0.14105,9.18587 -4.0625,11.15625 4.20355,-1.97038 9.21712,-0.14105 11.1875,4.0625 z"
           inkscape:connector-curvature="0" />
        <path
           style="color:#000000;fill:#aa4400;fill-opacity:1;fill-rule:nonzero;stroke:#000000;stroke-width:3.4069593px;stroke-linecap:butt;stroke-linejoin:miter;stroke-miterlimit:4;stroke-opacity:1;stroke-dasharray:none;stroke-dashoffset:0;marker:none;visibility:visible;display:inline;overflow:visible;enable-background:accumulate"
           id="path9829"
           d="m 399.9012,617.11108 -0.56152,-26.65964 9.18924,-3.93609 21.57917,16.2508 z"
           inkscape:connector-curvature="0" />
        <path
           style="fill:#000000;stroke:#000000;stroke-width:1.0953325px;stroke-linecap:butt;stroke-linejoin:miter;stroke-opacity:1"
           id="path10842"
           d="m 399.61981,616.62769 7.11969,15.16351 36.69365,0.92418 -6.77739,-14.51315 -37.03595,-1.57454 z m 12.21982,26.04838 7.11968,15.16351 36.69365,0.92418 -6.77739,-14.51315 -37.03594,-1.57454 z m 12.35672,26.35645 7.08542,15.12925 12.04869,0.30808 18.6891,-8.76266 c 0.72922,-0.34183 1.0264,-1.18761 0.68458,-1.91683 l -1.50607,-3.1833 -37.00172,-1.57454 z"
           inkscape:connector-curvature="0" />
        <rect
           style="color:#000000;fill:#aa8800;fill-opacity:1;fill-rule:nonzero;stroke:#000000;stroke-width:3.4069593px;stroke-linecap:butt;stroke-linejoin:miter;stroke-miterlimit:4;stroke-opacity:1;stroke-dasharray:none;stroke-dashoffset:0;marker:none;visibility:visible;display:inline;overflow:visible;enable-background:accumulate"
           id="rect9839"
           transform="matrix(0.90546123,-0.42442899,0.42442899,0.90546123,0,0)"
           y="800.6004"
           x="95.327126"
           ry="1.3271558"
           height="18.783066"
           width="40.370102" />
        <path
           style="color:#000000;fill:#aa8800;fill-opacity:1;fill-rule:nonzero;stroke:#000000;stroke-width:3.4069593px;stroke-linecap:butt;stroke-linejoin:miter;stroke-miterlimit:4;stroke-opacity:1;stroke-dasharray:none;stroke-dashoffset:0;marker:none;visibility:visible;display:inline;overflow:visible;enable-background:accumulate"
           id="path10322"
           d="m 357.05877,373.39252 c -1.78001,0.0241 -3.57944,0.11038 -5.375,0.21875 0.97,4.19456 1.86,8.3893 2.71875,12.5625 0.79717,-0.2729 1.59749,-0.43785 2.40625,-0.46875 3.27338,-0.12505 6.45971,1.65985 7.9375,4.8125 1.97038,4.20355 0.14105,9.21711 -4.0625,11.1875 4.20355,-1.97039 9.21712,-0.1723 11.1875,4.03125 -1.97038,-4.20355 -0.1723,-9.18586 4.03125,-11.15625 4.20355,-1.97038 9.21712,-0.17229 11.1875,4.03125 1.97038,4.20355 0.1723,9.21711 -4.03125,11.1875 4.20355,-1.97039 9.18587,-0.1723 11.15625,4.03125 1.97038,4.20354 0.1723,9.21711 -4.03125,11.1875 4.20355,-1.97039 9.21712,-0.1723 11.1875,4.03125 1.97038,4.20355 0.14105,9.21712 -4.0625,11.1875 4.20355,-1.97038 9.21712,-0.1723 11.1875,4.03125 1.97038,4.20355 0.1723,9.21712 -4.03125,11.1875 2.90389,-1.36117 6.16502,-0.91132 8.5625,0.875 6.72936,-20.34668 8.83792,-41.24774 6.65625,-62.65625 -16.55704,-13.4773 -38.8286,-20.60369 -62.625,-20.28125 z m 47.40625,82.0625 c -4.20355,1.97038 -9.21712,0.1723 -11.1875,-4.03125 1.97038,4.20355 0.1723,9.18587 -4.03125,11.15625 4.20355,-1.97038 9.18587,-0.14105 11.15625,4.0625 -1.97038,-4.20355 -0.14105,-9.21712 4.0625,-11.1875 z m -4.0625,11.1875 c 1.97038,4.20355 0.1723,9.21712 -4.03125,11.1875 2.51929,-1.18089 5.32205,-1.01412 7.59375,0.21875 1.11088,-2.19752 2.15968,-4.41387 3.15625,-6.625 -2.82592,-0.30094 -5.42542,-2.0221 -6.71875,-4.78125 z m -4.03125,11.1875 c -4.20355,1.97038 -9.21712,0.14105 -11.1875,-4.0625 1.97038,4.20355 0.1723,9.21712 -4.03125,11.1875 4.20355,-1.97038 9.18587,-0.1723 11.15625,4.03125 -1.97038,-4.20355 -0.14105,-9.18587 4.0625,-11.15625 z m -4.0625,11.15625 c 1.97038,4.20355 0.1723,9.21712 -4.03125,11.1875 0.92957,-0.43573 1.90787,-0.66811 2.875,-0.75 1.56204,-2.25413 3.06636,-4.51184 4.5,-6.78125 -1.40235,-0.83347 -2.60054,-2.07072 -3.34375,-3.65625 z m -4.03125,11.1875 c -4.20355,1.97038 -9.21712,0.1723 -11.1875,-4.03125 1.97038,4.20355 0.1723,9.18587 -4.03125,11.15625 3.69135,-1.73029 8.01244,-0.53967 10.34375,2.625 0.0822,-0.10389 0.16809,-0.20858 0.25,-0.3125 -0.83424,-3.75832 0.99568,-7.73628 4.625,-9.4375 z m -15.21875,7.125 c -4.20355,1.97038 -9.21712,0.1723 -11.1875,-4.03125 1.97038,4.20355 0.1723,9.21712 -4.03125,11.1875 4.20355,-1.97038 9.21712,-0.1723 11.1875,4.03125 -1.97038,-4.20355 -0.1723,-9.21712 4.03125,-11.1875 z m -4.03125,11.1875 c 1.97038,4.20355 0.14105,9.21712 -4.0625,11.1875 -4.20355,1.97038 -9.21712,0.14105 -11.1875,-4.0625 1.97038,4.20355 0.1723,9.21712 -4.03125,11.1875 -4.20355,1.97038 -9.21712,0.1723 -11.1875,-4.03125 1.97038,4.20355 0.1723,9.18587 -4.03125,11.15625 -4.20355,1.97038 -9.21712,0.1723 -11.1875,-4.03125 1.97038,4.20355 0.1723,9.21712 -4.03125,11.1875 -4.20355,1.97038 -9.21712,0.14105 -11.1875,-4.0625 -0.95902,-2.04595 -1.02063,-4.27215 -0.34375,-6.25 -4.67631,3.49382 -9.73753,6.90499 -15.1875,10.25 12.66293,4.83013 26.81152,7.10913 41.46875,6.5625 14.91841,-11.49268 27.78713,-23.22066 38.71875,-35.1875 -1.58902,-0.81801 -2.93041,-2.15776 -3.75,-3.90625 z m -45.6875,21.40625 c -1.97038,-4.20355 -0.14105,-9.21712 4.0625,-11.1875 -1.87102,0.87702 -3.89781,0.99598 -5.75,0.5 -2.12159,1.98508 -4.35492,3.96175 -6.6875,5.90625 3.4238,-0.32242 6.82884,1.48271 8.375,4.78125 z m 4.0625,-11.1875 c 4.20355,-1.97038 9.18587,-0.14105 11.15625,4.0625 -1.97038,-4.20355 -0.14105,-9.21712 4.0625,-11.1875 -3.87184,1.81489 -8.42107,0.42059 -10.65625,-3.09375 -0.0385,0.0447 -0.0865,0.0803 -0.125,0.125 1.23142,3.94479 -0.58827,8.28945 -4.4375,10.09375 z m 15.21875,-7.125 c 4.20355,-1.97038 9.18587,-0.1723 11.15625,4.03125 -1.97038,-4.20355 -0.14105,-9.18587 4.0625,-11.15625 -4.20355,1.97038 -9.21712,0.14105 -11.1875,-4.0625 1.97038,4.20355 0.1723,9.21712 -4.03125,11.1875 z m 4.03125,-11.1875 c -1.97038,-4.20355 -0.14105,-9.18587 4.0625,-11.15625 -1.79661,0.84215 -3.73954,0.99727 -5.53125,0.5625 -1.17195,2.05695 -2.41958,4.09853 -3.75,6.125 2.21845,0.65812 4.15993,2.20989 5.21875,4.46875 z m 4.0625,-11.15625 c 4.20355,-1.97038 9.18587,-0.1723 11.15625,4.03125 -1.97038,-4.20355 -0.14105,-9.21712 4.0625,-11.1875 -4.20355,1.97038 -9.21712,0.1723 -11.1875,-4.03125 1.97038,4.20355 0.1723,9.21712 -4.03125,11.1875 z m 4.03125,-11.1875 c -1.97038,-4.20355 -0.1723,-9.21712 4.03125,-11.1875 -1.2833,0.60153 -2.64815,0.84338 -3.96875,0.78125 -0.76754,2.47016 -1.61681,4.90785 -2.5625,7.34375 1.02927,0.79403 1.91129,1.80656 2.5,3.0625 z m 4.03125,-11.1875 c 4.20355,-1.97038 9.21712,-0.1723 11.1875,4.03125 -1.97038,-4.20355 -0.1723,-9.18587 4.03125,-11.15625 -4.20355,1.97038 -9.18587,0.14105 -11.15625,-4.0625 1.97038,4.20355 0.14105,9.21712 -4.0625,11.1875 z m 4.0625,-11.1875 c -1.97038,-4.20355 -0.1723,-9.18587 4.03125,-11.15625 -2.40215,1.12599 -5.06913,0.99593 -7.28125,-0.0937 -0.26472,2.39446 -0.60728,4.75516 -1,7.125 1.80908,0.78509 3.34752,2.19967 4.25,4.125 z m 4.03125,-11.15625 c 4.20355,-1.97038 9.21712,-0.1723 11.1875,4.03125 -1.97038,-4.20355 -0.1723,-9.21712 4.03125,-11.1875 -4.20355,1.97038 -9.18587,0.1723 -11.15625,-4.03125 1.97038,4.20355 0.14105,9.21712 -4.0625,11.1875 z m 4.0625,-11.1875 c -1.97038,-4.20355 -0.1723,-9.21712 4.03125,-11.1875 -4.20355,1.97038 -9.21712,0.1723 -11.1875,-4.03125 1.84723,3.94083 0.3727,8.56369 -3.28125,10.75 -3.1e-4,0.0418 -0.0309,0.0832 -0.0313,0.125 4.03818,-1.45116 8.61133,0.38118 10.46875,4.34375 z m -7.15625,-15.21875 c -1.97038,-4.20355 -0.14105,-9.21712 4.0625,-11.1875 -2.90436,1.36139 -6.18695,0.91204 -8.59375,-0.875 0.29418,2.72725 0.55754,5.44855 0.75,8.15625 1.6026,0.82362 2.95882,2.1517 3.78125,3.90625 z m 4.0625,-11.1875 c 4.20355,-1.97039 9.18587,-0.1723 11.15625,4.03125 -1.97038,-4.20355 -0.14105,-9.18587 4.0625,-11.15625 -4.20355,1.97038 -9.21712,0.14104 -11.1875,-4.0625 1.97038,4.20354 0.1723,9.21711 -4.03125,11.1875 z m 11.15625,4.03125 c 1.97038,4.20355 0.1723,9.21712 -4.03125,11.1875 4.20355,-1.97038 9.21712,-0.14105 11.1875,4.0625 -1.97038,-4.20355 -0.1723,-9.21712 4.03125,-11.1875 -4.20355,1.97038 -9.21712,0.14105 -11.1875,-4.0625 z m 7.15625,15.25 c 1.97038,4.20355 0.14105,9.18587 -4.0625,11.15625 4.20355,-1.97038 9.21712,-0.14105 11.1875,4.0625 -1.97038,-4.20355 -0.1723,-9.21712 4.03125,-11.1875 -4.20355,1.97038 -9.18587,0.1723 -11.15625,-4.03125 z m -8.09375,22.34375 c 1.97038,4.20355 0.14105,9.21712 -4.0625,11.1875 4.20355,-1.97038 9.21712,-0.1723 11.1875,4.03125 -1.97038,-4.20355 -0.14105,-9.21712 4.0625,-11.1875 -4.20355,1.97038 -9.21712,0.1723 -11.1875,-4.03125 z m -8.09375,22.34375 c 1.97038,4.20355 0.1723,9.21712 -4.03125,11.1875 4.20355,-1.97038 9.18587,-0.14105 11.15625,4.0625 -1.97038,-4.20355 -0.14105,-9.21712 4.0625,-11.1875 -4.20355,1.97038 -9.21712,0.14105 -11.1875,-4.0625 z m -9.28125,-79.1875 c -1.05089,0.49259 -2.161,0.73841 -3.25,0.78125 0.0861,0.54074 0.167,1.08484 0.25,1.625 0.7812,-0.98937 1.78091,-1.83481 3,-2.40625 z"
           inkscape:connector-curvature="0" />
        <path
           style="color:#000000;fill:#cccccc;fill-opacity:1;fill-rule:nonzero;stroke:#000000;stroke-width:3.4069593px;stroke-linecap:butt;stroke-linejoin:miter;stroke-miterlimit:4;stroke-opacity:1;stroke-dasharray:none;stroke-dashoffset:0;marker:none;visibility:visible;display:inline;overflow:visible;enable-background:accumulate"
           id="use10009"
           transform="matrix(1.0763851,-0.50454841,0.50454841,1.0763851,-27.581982,-767.27284)"
           d="m -100.40916,1021.9389 a 7.07107,7.07107 0 1 1 -14.14214,0 7.07107,7.07107 0 1 1 14.14214,0 z"
           inkscape:connector-curvature="0" />
        <g
           style="fill:none"
           id="g10593"
           transform="translate(231.52898,254.07725)">
          <path
             style="color:#000000;fill:none;stroke:#000000;stroke-width:3.4069593px;stroke-linecap:butt;stroke-linejoin:miter;stroke-miterlimit:4;stroke-opacity:1;stroke-dasharray:none;stroke-dashoffset:0;marker:none;visibility:visible;display:inline;overflow:visible;enable-background:accumulate"
             id="path9864"
             transform="matrix(1.0763851,-0.50454841,0.50454841,1.0763851,-365.66765,-971.40236)"
             d="m -100.40916,1021.9389 a 7.07107,7.07107 0 1 1 -14.14214,0 7.07107,7.07107 0 1 1 14.14214,0 z"
             inkscape:connector-curvature="0" />
          <path
             style="color:#000000;fill:none;stroke:#000000;stroke-width:3.4069593px;stroke-linecap:butt;stroke-linejoin:miter;stroke-miterlimit:4;stroke-opacity:1;stroke-dasharray:none;stroke-dashoffset:0;marker:none;visibility:visible;display:inline;overflow:visible;enable-background:accumulate"
             id="use9897"
             transform="matrix(1.0763851,-0.50454841,0.50454841,1.0763851,-365.66765,-971.40236)"
             d="m -100.40916,1021.9389 a 7.07107,7.07107 0 1 1 -14.14214,0 7.07107,7.07107 0 1 1 14.14214,0 z"
             inkscape:connector-curvature="0" />
          <path
             style="color:#000000;fill:none;stroke:#000000;stroke-width:3.4069593px;stroke-linecap:butt;stroke-linejoin:miter;stroke-miterlimit:4;stroke-opacity:1;stroke-dasharray:none;stroke-dashoffset:0;marker:none;visibility:visible;display:inline;overflow:visible;enable-background:accumulate"
             id="use9899"
             transform="matrix(1.0763851,-0.50454841,0.50454841,1.0763851,-358.53225,-956.17997)"
             d="m -100.40916,1021.9389 a 7.07107,7.07107 0 1 1 -14.14214,0 7.07107,7.07107 0 1 1 14.14214,0 z"
             inkscape:connector-curvature="0" />
          <path
             style="color:#000000;fill:none;stroke:#000000;stroke-width:3.4069593px;stroke-linecap:butt;stroke-linejoin:miter;stroke-miterlimit:4;stroke-opacity:1;stroke-dasharray:none;stroke-dashoffset:0;marker:none;visibility:visible;display:inline;overflow:visible;enable-background:accumulate"
             id="use9901"
             transform="matrix(1.0763851,-0.50454841,0.50454841,1.0763851,-351.39686,-940.9576)"
             d="m -100.40916,1021.9389 a 7.07107,7.07107 0 1 1 -14.14214,0 7.07107,7.07107 0 1 1 14.14214,0 z"
             inkscape:connector-curvature="0" />
          <path
             style="color:#000000;fill:none;stroke:#000000;stroke-width:3.4069593px;stroke-linecap:butt;stroke-linejoin:miter;stroke-miterlimit:4;stroke-opacity:1;stroke-dasharray:none;stroke-dashoffset:0;marker:none;visibility:visible;display:inline;overflow:visible;enable-background:accumulate"
             id="use9903"
             transform="matrix(1.0763851,-0.50454841,0.50454841,1.0763851,-344.26147,-925.73521)"
             d="m -100.40916,1021.9389 a 7.07107,7.07107 0 1 1 -14.14214,0 7.07107,7.07107 0 1 1 14.14214,0 z"
             inkscape:connector-curvature="0" />
          <path
             style="color:#000000;fill:none;stroke:#000000;stroke-width:3.4069593px;stroke-linecap:butt;stroke-linejoin:miter;stroke-miterlimit:4;stroke-opacity:1;stroke-dasharray:none;stroke-dashoffset:0;marker:none;visibility:visible;display:inline;overflow:visible;enable-background:accumulate"
             id="use9905"
             transform="matrix(1.0763851,-0.50454841,0.50454841,1.0763851,-337.12608,-910.51283)"
             d="m -100.40916,1021.9389 a 7.07107,7.07107 0 1 1 -14.14214,0 7.07107,7.07107 0 1 1 14.14214,0 z"
             inkscape:connector-curvature="0" />
          <path
             style="color:#000000;fill:none;stroke:#000000;stroke-width:3.4069593px;stroke-linecap:butt;stroke-linejoin:miter;stroke-miterlimit:4;stroke-opacity:1;stroke-dasharray:none;stroke-dashoffset:0;marker:none;visibility:visible;display:inline;overflow:visible;enable-background:accumulate"
             id="use9907"
             transform="matrix(1.0763851,-0.50454841,0.50454841,1.0763851,-329.99069,-895.29044)"
             d="m -100.40916,1021.9389 a 7.07107,7.07107 0 1 1 -14.14214,0 7.07107,7.07107 0 1 1 14.14214,0 z"
             inkscape:connector-curvature="0" />
          <path
             style="color:#000000;fill:none;stroke:#000000;stroke-width:3.4069593px;stroke-linecap:butt;stroke-linejoin:miter;stroke-miterlimit:4;stroke-opacity:1;stroke-dasharray:none;stroke-dashoffset:0;marker:none;visibility:visible;display:inline;overflow:visible;enable-background:accumulate"
             id="use9909"
             transform="matrix(1.0763851,-0.50454841,0.50454841,1.0763851,-322.8553,-880.06806)"
             d="m -100.40916,1021.9389 a 7.07107,7.07107 0 1 1 -14.14214,0 7.07107,7.07107 0 1 1 14.14214,0 z"
             inkscape:connector-curvature="0" />
          <path
             style="color:#000000;fill:none;stroke:#000000;stroke-width:3.4069593px;stroke-linecap:butt;stroke-linejoin:miter;stroke-miterlimit:4;stroke-opacity:1;stroke-dasharray:none;stroke-dashoffset:0;marker:none;visibility:visible;display:inline;overflow:visible;enable-background:accumulate"
             id="use9911"
             transform="matrix(1.0763851,-0.50454841,0.50454841,1.0763851,-315.7199,-864.84567)"
             d="m -100.40916,1021.9389 a 7.07107,7.07107 0 1 1 -14.14214,0 7.07107,7.07107 0 1 1 14.14214,0 z"
             inkscape:connector-curvature="0" />
          <path
             style="color:#000000;fill:none;stroke:#000000;stroke-width:3.4069593px;stroke-linecap:butt;stroke-linejoin:miter;stroke-miterlimit:4;stroke-opacity:1;stroke-dasharray:none;stroke-dashoffset:0;marker:none;visibility:visible;display:inline;overflow:visible;enable-background:accumulate"
             id="use9913"
             transform="matrix(1.0763851,-0.50454841,0.50454841,1.0763851,-350.44526,-978.53776)"
             d="m -100.40916,1021.9389 a 7.07107,7.07107 0 1 1 -14.14214,0 7.07107,7.07107 0 1 1 14.14214,0 z"
             inkscape:connector-curvature="0" />
          <path
             style="color:#000000;fill:none;stroke:#000000;stroke-width:3.4069593px;stroke-linecap:butt;stroke-linejoin:miter;stroke-miterlimit:4;stroke-opacity:1;stroke-dasharray:none;stroke-dashoffset:0;marker:none;visibility:visible;display:inline;overflow:visible;enable-background:accumulate"
             id="use9915"
             transform="matrix(1.0763851,-0.50454841,0.50454841,1.0763851,-343.30986,-963.31537)"
             d="m -100.40916,1021.9389 a 7.07107,7.07107 0 1 1 -14.14214,0 7.07107,7.07107 0 1 1 14.14214,0 z"
             inkscape:connector-curvature="0" />
          <path
             style="color:#000000;fill:none;stroke:#000000;stroke-width:3.4069593px;stroke-linecap:butt;stroke-linejoin:miter;stroke-miterlimit:4;stroke-opacity:1;stroke-dasharray:none;stroke-dashoffset:0;marker:none;visibility:visible;display:inline;overflow:visible;enable-background:accumulate"
             id="use9917"
             transform="matrix(1.0763851,-0.50454841,0.50454841,1.0763851,-336.17448,-948.09299)"
             d="m -100.40916,1021.9389 a 7.07107,7.07107 0 1 1 -14.14214,0 7.07107,7.07107 0 1 1 14.14214,0 z"
             inkscape:connector-curvature="0" />
          <path
             style="color:#000000;fill:none;stroke:#000000;stroke-width:3.4069593px;stroke-linecap:butt;stroke-linejoin:miter;stroke-miterlimit:4;stroke-opacity:1;stroke-dasharray:none;stroke-dashoffset:0;marker:none;visibility:visible;display:inline;overflow:visible;enable-background:accumulate"
             id="use9919"
             transform="matrix(1.0763851,-0.50454841,0.50454841,1.0763851,-329.03908,-932.8706)"
             d="m -100.40916,1021.9389 a 7.07107,7.07107 0 1 1 -14.14214,0 7.07107,7.07107 0 1 1 14.14214,0 z"
             inkscape:connector-curvature="0" />
          <path
             style="color:#000000;fill:none;stroke:#000000;stroke-width:3.4069593px;stroke-linecap:butt;stroke-linejoin:miter;stroke-miterlimit:4;stroke-opacity:1;stroke-dasharray:none;stroke-dashoffset:0;marker:none;visibility:visible;display:inline;overflow:visible;enable-background:accumulate"
             id="use9921"
             transform="matrix(1.0763851,-0.50454841,0.50454841,1.0763851,-321.90369,-917.64822)"
             d="m -100.40916,1021.9389 a 7.07107,7.07107 0 1 1 -14.14214,0 7.07107,7.07107 0 1 1 14.14214,0 z"
             inkscape:connector-curvature="0" />
          <path
             style="color:#000000;fill:none;stroke:#000000;stroke-width:3.4069593px;stroke-linecap:butt;stroke-linejoin:miter;stroke-miterlimit:4;stroke-opacity:1;stroke-dasharray:none;stroke-dashoffset:0;marker:none;visibility:visible;display:inline;overflow:visible;enable-background:accumulate"
             id="use9923"
             transform="matrix(1.0763851,-0.50454841,0.50454841,1.0763851,-314.7683,-902.42584)"
             d="m -100.40916,1021.9389 a 7.07107,7.07107 0 1 1 -14.14214,0 7.07107,7.07107 0 1 1 14.14214,0 z"
             inkscape:connector-curvature="0" />
          <path
             style="color:#000000;fill:none;stroke:#000000;stroke-width:3.4069593px;stroke-linecap:butt;stroke-linejoin:miter;stroke-miterlimit:4;stroke-opacity:1;stroke-dasharray:none;stroke-dashoffset:0;marker:none;visibility:visible;display:inline;overflow:visible;enable-background:accumulate"
             id="use9925"
             transform="matrix(1.0763851,-0.50454841,0.50454841,1.0763851,-307.63291,-887.20346)"
             d="m -100.40916,1021.9389 a 7.07107,7.07107 0 1 1 -14.14214,0 7.07107,7.07107 0 1 1 14.14214,0 z"
             inkscape:connector-curvature="0" />
          <path
             style="color:#000000;fill:none;stroke:#000000;stroke-width:3.4069593px;stroke-linecap:butt;stroke-linejoin:miter;stroke-miterlimit:4;stroke-opacity:1;stroke-dasharray:none;stroke-dashoffset:0;marker:none;visibility:visible;display:inline;overflow:visible;enable-background:accumulate"
             id="use9927"
             transform="matrix(1.0763851,-0.50454841,0.50454841,1.0763851,-300.49751,-871.98107)"
             d="m -100.40916,1021.9389 a 7.07107,7.07107 0 1 1 -14.14214,0 7.07107,7.07107 0 1 1 14.14214,0 z"
             inkscape:connector-curvature="0" />
          <path
             style="color:#000000;fill:none;stroke:#000000;stroke-width:3.4069593px;stroke-linecap:butt;stroke-linejoin:miter;stroke-miterlimit:4;stroke-opacity:1;stroke-dasharray:none;stroke-dashoffset:0;marker:none;visibility:visible;display:inline;overflow:visible;enable-background:accumulate"
             id="use9929"
             transform="matrix(1.0763851,-0.50454841,0.50454841,1.0763851,-335.22288,-985.67315)"
             d="m -100.40916,1021.9389 a 7.07107,7.07107 0 1 1 -14.14214,0 7.07107,7.07107 0 1 1 14.14214,0 z"
             inkscape:connector-curvature="0" />
          <path
             style="color:#000000;fill:none;stroke:#000000;stroke-width:3.4069593px;stroke-linecap:butt;stroke-linejoin:miter;stroke-miterlimit:4;stroke-opacity:1;stroke-dasharray:none;stroke-dashoffset:0;marker:none;visibility:visible;display:inline;overflow:visible;enable-background:accumulate"
             id="use9931"
             transform="matrix(1.0763851,-0.50454841,0.50454841,1.0763851,-328.08749,-970.45076)"
             d="m -100.40916,1021.9389 a 7.07107,7.07107 0 1 1 -14.14214,0 7.07107,7.07107 0 1 1 14.14214,0 z"
             inkscape:connector-curvature="0" />
          <path
             style="color:#000000;fill:none;stroke:#000000;stroke-width:3.4069593px;stroke-linecap:butt;stroke-linejoin:miter;stroke-miterlimit:4;stroke-opacity:1;stroke-dasharray:none;stroke-dashoffset:0;marker:none;visibility:visible;display:inline;overflow:visible;enable-background:accumulate"
             id="use9933"
             transform="matrix(1.0763851,-0.50454841,0.50454841,1.0763851,-320.9521,-955.22838)"
             d="m -100.40916,1021.9389 a 7.07107,7.07107 0 1 1 -14.14214,0 7.07107,7.07107 0 1 1 14.14214,0 z"
             inkscape:connector-curvature="0" />
          <path
             style="color:#000000;fill:none;stroke:#000000;stroke-width:3.4069593px;stroke-linecap:butt;stroke-linejoin:miter;stroke-miterlimit:4;stroke-opacity:1;stroke-dasharray:none;stroke-dashoffset:0;marker:none;visibility:visible;display:inline;overflow:visible;enable-background:accumulate"
             id="use9935"
             transform="matrix(1.0763851,-0.50454841,0.50454841,1.0763851,-313.8167,-940.00599)"
             d="m -100.40916,1021.9389 a 7.07107,7.07107 0 1 1 -14.14214,0 7.07107,7.07107 0 1 1 14.14214,0 z"
             inkscape:connector-curvature="0" />
          <path
             style="color:#000000;fill:none;stroke:#000000;stroke-width:3.4069593px;stroke-linecap:butt;stroke-linejoin:miter;stroke-miterlimit:4;stroke-opacity:1;stroke-dasharray:none;stroke-dashoffset:0;marker:none;visibility:visible;display:inline;overflow:visible;enable-background:accumulate"
             id="use9937"
             transform="matrix(1.0763851,-0.50454841,0.50454841,1.0763851,-306.68131,-924.78361)"
             d="m -100.40916,1021.9389 a 7.07107,7.07107 0 1 1 -14.14214,0 7.07107,7.07107 0 1 1 14.14214,0 z"
             inkscape:connector-curvature="0" />
          <path
             style="color:#000000;fill:none;stroke:#000000;stroke-width:3.4069593px;stroke-linecap:butt;stroke-linejoin:miter;stroke-miterlimit:4;stroke-opacity:1;stroke-dasharray:none;stroke-dashoffset:0;marker:none;visibility:visible;display:inline;overflow:visible;enable-background:accumulate"
             id="use9939"
             transform="matrix(1.0763851,-0.50454841,0.50454841,1.0763851,-299.54592,-909.56122)"
             d="m -100.40916,1021.9389 a 7.07107,7.07107 0 1 1 -14.14214,0 7.07107,7.07107 0 1 1 14.14214,0 z"
             inkscape:connector-curvature="0" />
          <path
             style="color:#000000;fill:none;stroke:#000000;stroke-width:3.4069593px;stroke-linecap:butt;stroke-linejoin:miter;stroke-miterlimit:4;stroke-opacity:1;stroke-dasharray:none;stroke-dashoffset:0;marker:none;visibility:visible;display:inline;overflow:visible;enable-background:accumulate"
             id="use9941"
             transform="matrix(1.0763851,-0.50454841,0.50454841,1.0763851,-292.41053,-894.33885)"
             d="m -100.40916,1021.9389 a 7.07107,7.07107 0 1 1 -14.14214,0 7.07107,7.07107 0 1 1 14.14214,0 z"
             inkscape:connector-curvature="0" />
          <path
             style="color:#000000;fill:none;stroke:#000000;stroke-width:3.4069593px;stroke-linecap:butt;stroke-linejoin:miter;stroke-miterlimit:4;stroke-opacity:1;stroke-dasharray:none;stroke-dashoffset:0;marker:none;visibility:visible;display:inline;overflow:visible;enable-background:accumulate"
             id="use9943"
             transform="matrix(1.0763851,-0.50454841,0.50454841,1.0763851,-285.27514,-879.11646)"
             d="m -100.40916,1021.9389 a 7.07107,7.07107 0 1 1 -14.14214,0 7.07107,7.07107 0 1 1 14.14214,0 z"
             inkscape:connector-curvature="0" />
          <path
             style="color:#000000;fill:none;stroke:#000000;stroke-width:3.4069593px;stroke-linecap:butt;stroke-linejoin:miter;stroke-miterlimit:4;stroke-opacity:1;stroke-dasharray:none;stroke-dashoffset:0;marker:none;visibility:visible;display:inline;overflow:visible;enable-background:accumulate"
             id="use9945"
             transform="matrix(1.0763851,-0.50454841,0.50454841,1.0763851,-320.00049,-992.80854)"
             d="m -100.40916,1021.9389 a 7.07107,7.07107 0 1 1 -14.14214,0 7.07107,7.07107 0 1 1 14.14214,0 z"
             inkscape:connector-curvature="0" />
          <path
             style="color:#000000;fill:none;stroke:#000000;stroke-width:3.4069593px;stroke-linecap:butt;stroke-linejoin:miter;stroke-miterlimit:4;stroke-opacity:1;stroke-dasharray:none;stroke-dashoffset:0;marker:none;visibility:visible;display:inline;overflow:visible;enable-background:accumulate"
             id="use9947"
             transform="matrix(1.0763851,-0.50454841,0.50454841,1.0763851,-312.8651,-977.58615)"
             d="m -100.40916,1021.9389 a 7.07107,7.07107 0 1 1 -14.14214,0 7.07107,7.07107 0 1 1 14.14214,0 z"
             inkscape:connector-curvature="0" />
          <path
             style="color:#000000;fill:none;stroke:#000000;stroke-width:3.4069593px;stroke-linecap:butt;stroke-linejoin:miter;stroke-miterlimit:4;stroke-opacity:1;stroke-dasharray:none;stroke-dashoffset:0;marker:none;visibility:visible;display:inline;overflow:visible;enable-background:accumulate"
             id="use9949"
             transform="matrix(1.0763851,-0.50454841,0.50454841,1.0763851,-305.72971,-962.36377)"
             d="m -100.40916,1021.9389 a 7.07107,7.07107 0 1 1 -14.14214,0 7.07107,7.07107 0 1 1 14.14214,0 z"
             inkscape:connector-curvature="0" />
          <path
             style="color:#000000;fill:none;stroke:#000000;stroke-width:3.4069593px;stroke-linecap:butt;stroke-linejoin:miter;stroke-miterlimit:4;stroke-opacity:1;stroke-dasharray:none;stroke-dashoffset:0;marker:none;visibility:visible;display:inline;overflow:visible;enable-background:accumulate"
             id="use9951"
             transform="matrix(1.0763851,-0.50454841,0.50454841,1.0763851,-298.59431,-947.14139)"
             d="m -100.40916,1021.9389 a 7.07107,7.07107 0 1 1 -14.14214,0 7.07107,7.07107 0 1 1 14.14214,0 z"
             inkscape:connector-curvature="0" />
          <path
             style="color:#000000;fill:none;stroke:#000000;stroke-width:3.4069593px;stroke-linecap:butt;stroke-linejoin:miter;stroke-miterlimit:4;stroke-opacity:1;stroke-dasharray:none;stroke-dashoffset:0;marker:none;visibility:visible;display:inline;overflow:visible;enable-background:accumulate"
             id="use9953"
             transform="matrix(1.0763851,-0.50454841,0.50454841,1.0763851,-291.45893,-931.91901)"
             d="m -100.40916,1021.9389 a 7.07107,7.07107 0 1 1 -14.14214,0 7.07107,7.07107 0 1 1 14.14214,0 z"
             inkscape:connector-curvature="0" />
          <path
             style="color:#000000;fill:none;stroke:#000000;stroke-width:3.4069593px;stroke-linecap:butt;stroke-linejoin:miter;stroke-miterlimit:4;stroke-opacity:1;stroke-dasharray:none;stroke-dashoffset:0;marker:none;visibility:visible;display:inline;overflow:visible;enable-background:accumulate"
             id="use9955"
             transform="matrix(1.0763851,-0.50454841,0.50454841,1.0763851,-284.32353,-916.69662)"
             d="m -100.40916,1021.9389 a 7.07107,7.07107 0 1 1 -14.14214,0 7.07107,7.07107 0 1 1 14.14214,0 z"
             inkscape:connector-curvature="0" />
          <path
             style="color:#000000;fill:none;stroke:#000000;stroke-width:3.4069593px;stroke-linecap:butt;stroke-linejoin:miter;stroke-miterlimit:4;stroke-opacity:1;stroke-dasharray:none;stroke-dashoffset:0;marker:none;visibility:visible;display:inline;overflow:visible;enable-background:accumulate"
             id="use9957"
             transform="matrix(1.0763851,-0.50454841,0.50454841,1.0763851,-277.18814,-901.47424)"
             d="m -100.40916,1021.9389 a 7.07107,7.07107 0 1 1 -14.14214,0 7.07107,7.07107 0 1 1 14.14214,0 z"
             inkscape:connector-curvature="0" />
          <path
             style="color:#000000;fill:none;stroke:#000000;stroke-width:3.4069593px;stroke-linecap:butt;stroke-linejoin:miter;stroke-miterlimit:4;stroke-opacity:1;stroke-dasharray:none;stroke-dashoffset:0;marker:none;visibility:visible;display:inline;overflow:visible;enable-background:accumulate"
             id="use9959"
             transform="matrix(1.0763851,-0.50454841,0.50454841,1.0763851,-270.05275,-886.25185)"
             d="m -100.40916,1021.9389 a 7.07107,7.07107 0 1 1 -14.14214,0 7.07107,7.07107 0 1 1 14.14214,0 z"
             inkscape:connector-curvature="0" />
          <path
             style="color:#000000;fill:none;stroke:#000000;stroke-width:3.4069593px;stroke-linecap:butt;stroke-linejoin:miter;stroke-miterlimit:4;stroke-opacity:1;stroke-dasharray:none;stroke-dashoffset:0;marker:none;visibility:visible;display:inline;overflow:visible;enable-background:accumulate"
             id="use9961"
             transform="matrix(1.0763851,-0.50454841,0.50454841,1.0763851,-304.77811,-999.94393)"
             d="m -100.40916,1021.9389 a 7.07107,7.07107 0 1 1 -14.14214,0 7.07107,7.07107 0 1 1 14.14214,0 z"
             inkscape:connector-curvature="0" />
          <path
             style="color:#000000;fill:none;stroke:#000000;stroke-width:3.4069593px;stroke-linecap:butt;stroke-linejoin:miter;stroke-miterlimit:4;stroke-opacity:1;stroke-dasharray:none;stroke-dashoffset:0;marker:none;visibility:visible;display:inline;overflow:visible;enable-background:accumulate"
             id="use9963"
             transform="matrix(1.0763851,-0.50454841,0.50454841,1.0763851,-297.64272,-984.72154)"
             d="m -100.40916,1021.9389 a 7.07107,7.07107 0 1 1 -14.14214,0 7.07107,7.07107 0 1 1 14.14214,0 z"
             inkscape:connector-curvature="0" />
          <path
             style="color:#000000;fill:none;stroke:#000000;stroke-width:3.4069593px;stroke-linecap:butt;stroke-linejoin:miter;stroke-miterlimit:4;stroke-opacity:1;stroke-dasharray:none;stroke-dashoffset:0;marker:none;visibility:visible;display:inline;overflow:visible;enable-background:accumulate"
             id="use9965"
             transform="matrix(1.0763851,-0.50454841,0.50454841,1.0763851,-290.50733,-969.49916)"
             d="m -100.40916,1021.9389 a 7.07107,7.07107 0 1 1 -14.14214,0 7.07107,7.07107 0 1 1 14.14214,0 z"
             inkscape:connector-curvature="0" />
          <path
             style="color:#000000;fill:none;stroke:#000000;stroke-width:3.4069593px;stroke-linecap:butt;stroke-linejoin:miter;stroke-miterlimit:4;stroke-opacity:1;stroke-dasharray:none;stroke-dashoffset:0;marker:none;visibility:visible;display:inline;overflow:visible;enable-background:accumulate"
             id="use9967"
             transform="matrix(1.0763851,-0.50454841,0.50454841,1.0763851,-283.37193,-954.27678)"
             d="m -100.40916,1021.9389 a 7.07107,7.07107 0 1 1 -14.14214,0 7.07107,7.07107 0 1 1 14.14214,0 z"
             inkscape:connector-curvature="0" />
          <path
             style="color:#000000;fill:none;stroke:#000000;stroke-width:3.4069593px;stroke-linecap:butt;stroke-linejoin:miter;stroke-miterlimit:4;stroke-opacity:1;stroke-dasharray:none;stroke-dashoffset:0;marker:none;visibility:visible;display:inline;overflow:visible;enable-background:accumulate"
             id="use9969"
             transform="matrix(1.0763851,-0.50454841,0.50454841,1.0763851,-276.23655,-939.0544)"
             d="m -100.40916,1021.9389 a 7.07107,7.07107 0 1 1 -14.14214,0 7.07107,7.07107 0 1 1 14.14214,0 z"
             inkscape:connector-curvature="0" />
          <path
             style="color:#000000;fill:none;stroke:#000000;stroke-width:3.4069593px;stroke-linecap:butt;stroke-linejoin:miter;stroke-miterlimit:4;stroke-opacity:1;stroke-dasharray:none;stroke-dashoffset:0;marker:none;visibility:visible;display:inline;overflow:visible;enable-background:accumulate"
             id="use9971"
             transform="matrix(1.0763851,-0.50454841,0.50454841,1.0763851,-269.10115,-923.83201)"
             d="m -100.40916,1021.9389 a 7.07107,7.07107 0 1 1 -14.14214,0 7.07107,7.07107 0 1 1 14.14214,0 z"
             inkscape:connector-curvature="0" />
          <path
             style="color:#000000;fill:none;stroke:#000000;stroke-width:3.4069593px;stroke-linecap:butt;stroke-linejoin:miter;stroke-miterlimit:4;stroke-opacity:1;stroke-dasharray:none;stroke-dashoffset:0;marker:none;visibility:visible;display:inline;overflow:visible;enable-background:accumulate"
             id="use9973"
             transform="matrix(1.0763851,-0.50454841,0.50454841,1.0763851,-261.96576,-908.60963)"
             d="m -100.40916,1021.9389 a 7.07107,7.07107 0 1 1 -14.14214,0 7.07107,7.07107 0 1 1 14.14214,0 z"
             inkscape:connector-curvature="0" />
          <path
             style="color:#000000;fill:none;stroke:#000000;stroke-width:3.4069593px;stroke-linecap:butt;stroke-linejoin:miter;stroke-miterlimit:4;stroke-opacity:1;stroke-dasharray:none;stroke-dashoffset:0;marker:none;visibility:visible;display:inline;overflow:visible;enable-background:accumulate"
             id="use9975"
             transform="matrix(1.0763851,-0.50454841,0.50454841,1.0763851,-254.83037,-893.38724)"
             d="m -100.40916,1021.9389 a 7.07107,7.07107 0 1 1 -14.14214,0 7.07107,7.07107 0 1 1 14.14214,0 z"
             inkscape:connector-curvature="0" />
          <path
             style="color:#000000;fill:none;stroke:#000000;stroke-width:3.4069593px;stroke-linecap:butt;stroke-linejoin:miter;stroke-miterlimit:4;stroke-opacity:1;stroke-dasharray:none;stroke-dashoffset:0;marker:none;visibility:visible;display:inline;overflow:visible;enable-background:accumulate"
             id="use9977"
             transform="matrix(1.0763851,-0.50454841,0.50454841,1.0763851,-289.55573,-1007.0793)"
             d="m -100.40916,1021.9389 a 7.07107,7.07107 0 1 1 -14.14214,0 7.07107,7.07107 0 1 1 14.14214,0 z"
             inkscape:connector-curvature="0" />
          <path
             style="color:#000000;fill:none;stroke:#000000;stroke-width:3.4069593px;stroke-linecap:butt;stroke-linejoin:miter;stroke-miterlimit:4;stroke-opacity:1;stroke-dasharray:none;stroke-dashoffset:0;marker:none;visibility:visible;display:inline;overflow:visible;enable-background:accumulate"
             id="use9979"
             transform="matrix(1.0763851,-0.50454841,0.50454841,1.0763851,-282.42033,-991.85694)"
             d="m -100.40916,1021.9389 a 7.07107,7.07107 0 1 1 -14.14214,0 7.07107,7.07107 0 1 1 14.14214,0 z"
             inkscape:connector-curvature="0" />
          <path
             style="color:#000000;fill:none;stroke:#000000;stroke-width:3.4069593px;stroke-linecap:butt;stroke-linejoin:miter;stroke-miterlimit:4;stroke-opacity:1;stroke-dasharray:none;stroke-dashoffset:0;marker:none;visibility:visible;display:inline;overflow:visible;enable-background:accumulate"
             id="use9981"
             transform="matrix(1.0763851,-0.50454841,0.50454841,1.0763851,-275.28494,-976.63456)"
             d="m -100.40916,1021.9389 a 7.07107,7.07107 0 1 1 -14.14214,0 7.07107,7.07107 0 1 1 14.14214,0 z"
             inkscape:connector-curvature="0" />
          <path
             style="color:#000000;fill:none;stroke:#000000;stroke-width:3.4069593px;stroke-linecap:butt;stroke-linejoin:miter;stroke-miterlimit:4;stroke-opacity:1;stroke-dasharray:none;stroke-dashoffset:0;marker:none;visibility:visible;display:inline;overflow:visible;enable-background:accumulate"
             id="use9983"
             transform="matrix(1.0763851,-0.50454841,0.50454841,1.0763851,-268.14955,-961.41217)"
             d="m -100.40916,1021.9389 a 7.07107,7.07107 0 1 1 -14.14214,0 7.07107,7.07107 0 1 1 14.14214,0 z"
             inkscape:connector-curvature="0" />
          <path
             style="color:#000000;fill:none;stroke:#000000;stroke-width:3.4069593px;stroke-linecap:butt;stroke-linejoin:miter;stroke-miterlimit:4;stroke-opacity:1;stroke-dasharray:none;stroke-dashoffset:0;marker:none;visibility:visible;display:inline;overflow:visible;enable-background:accumulate"
             id="use9985"
             transform="matrix(1.0763851,-0.50454841,0.50454841,1.0763851,-261.01416,-946.18979)"
             d="m -100.40916,1021.9389 a 7.07107,7.07107 0 1 1 -14.14214,0 7.07107,7.07107 0 1 1 14.14214,0 z"
             inkscape:connector-curvature="0" />
          <path
             style="color:#000000;fill:none;stroke:#000000;stroke-width:3.4069593px;stroke-linecap:butt;stroke-linejoin:miter;stroke-miterlimit:4;stroke-opacity:1;stroke-dasharray:none;stroke-dashoffset:0;marker:none;visibility:visible;display:inline;overflow:visible;enable-background:accumulate"
             id="use9987"
             transform="matrix(1.0763851,-0.50454841,0.50454841,1.0763851,-253.87877,-930.9674)"
             d="m -100.40916,1021.9389 a 7.07107,7.07107 0 1 1 -14.14214,0 7.07107,7.07107 0 1 1 14.14214,0 z"
             inkscape:connector-curvature="0" />
          <path
             style="color:#000000;fill:none;stroke:#000000;stroke-width:3.4069593px;stroke-linecap:butt;stroke-linejoin:miter;stroke-miterlimit:4;stroke-opacity:1;stroke-dasharray:none;stroke-dashoffset:0;marker:none;visibility:visible;display:inline;overflow:visible;enable-background:accumulate"
             id="use9989"
             transform="matrix(1.0763851,-0.50454841,0.50454841,1.0763851,-246.74338,-915.74502)"
             d="m -100.40916,1021.9389 a 7.07107,7.07107 0 1 1 -14.14214,0 7.07107,7.07107 0 1 1 14.14214,0 z"
             inkscape:connector-curvature="0" />
          <path
             style="color:#000000;fill:none;stroke:#000000;stroke-width:3.4069593px;stroke-linecap:butt;stroke-linejoin:miter;stroke-miterlimit:4;stroke-opacity:1;stroke-dasharray:none;stroke-dashoffset:0;marker:none;visibility:visible;display:inline;overflow:visible;enable-background:accumulate"
             id="use9991"
             transform="matrix(1.0763851,-0.50454841,0.50454841,1.0763851,-239.60798,-900.52263)"
             d="m -100.40916,1021.9389 a 7.07107,7.07107 0 1 1 -14.14214,0 7.07107,7.07107 0 1 1 14.14214,0 z"
             inkscape:connector-curvature="0" />
          <path
             style="color:#000000;fill:none;stroke:#000000;stroke-width:3.4069593px;stroke-linecap:butt;stroke-linejoin:miter;stroke-miterlimit:4;stroke-opacity:1;stroke-dasharray:none;stroke-dashoffset:0;marker:none;visibility:visible;display:inline;overflow:visible;enable-background:accumulate"
             id="use9993"
             transform="matrix(1.0763851,-0.50454841,0.50454841,1.0763851,-274.33334,-1014.2147)"
             d="m -100.40916,1021.9389 a 7.07107,7.07107 0 1 1 -14.14214,0 7.07107,7.07107 0 1 1 14.14214,0 z"
             inkscape:connector-curvature="0" />
          <path
             style="color:#000000;fill:none;stroke:#000000;stroke-width:3.4069593px;stroke-linecap:butt;stroke-linejoin:miter;stroke-miterlimit:4;stroke-opacity:1;stroke-dasharray:none;stroke-dashoffset:0;marker:none;visibility:visible;display:inline;overflow:visible;enable-background:accumulate"
             id="use9995"
             transform="matrix(1.0763851,-0.50454841,0.50454841,1.0763851,-267.19795,-998.99233)"
             d="m -100.40916,1021.9389 a 7.07107,7.07107 0 1 1 -14.14214,0 7.07107,7.07107 0 1 1 14.14214,0 z"
             inkscape:connector-curvature="0" />
          <path
             style="color:#000000;fill:none;stroke:#000000;stroke-width:3.4069593px;stroke-linecap:butt;stroke-linejoin:miter;stroke-miterlimit:4;stroke-opacity:1;stroke-dasharray:none;stroke-dashoffset:0;marker:none;visibility:visible;display:inline;overflow:visible;enable-background:accumulate"
             id="use9997"
             transform="matrix(1.0763851,-0.50454841,0.50454841,1.0763851,-260.06256,-983.76995)"
             d="m -100.40916,1021.9389 a 7.07107,7.07107 0 1 1 -14.14214,0 7.07107,7.07107 0 1 1 14.14214,0 z"
             inkscape:connector-curvature="0" />
          <path
             style="color:#000000;fill:none;stroke:#000000;stroke-width:3.4069593px;stroke-linecap:butt;stroke-linejoin:miter;stroke-miterlimit:4;stroke-opacity:1;stroke-dasharray:none;stroke-dashoffset:0;marker:none;visibility:visible;display:inline;overflow:visible;enable-background:accumulate"
             id="use9999"
             transform="matrix(1.0763851,-0.50454841,0.50454841,1.0763851,-252.92717,-968.54756)"
             d="m -100.40916,1021.9389 a 7.07107,7.07107 0 1 1 -14.14214,0 7.07107,7.07107 0 1 1 14.14214,0 z"
             inkscape:connector-curvature="0" />
          <path
             style="color:#000000;fill:none;stroke:#000000;stroke-width:3.4069593px;stroke-linecap:butt;stroke-linejoin:miter;stroke-miterlimit:4;stroke-opacity:1;stroke-dasharray:none;stroke-dashoffset:0;marker:none;visibility:visible;display:inline;overflow:visible;enable-background:accumulate"
             id="use10001"
             transform="matrix(1.0763851,-0.50454841,0.50454841,1.0763851,-245.79178,-953.32518)"
             d="m -100.40916,1021.9389 a 7.07107,7.07107 0 1 1 -14.14214,0 7.07107,7.07107 0 1 1 14.14214,0 z"
             inkscape:connector-curvature="0" />
          <path
             style="color:#000000;fill:none;stroke:#000000;stroke-width:3.4069593px;stroke-linecap:butt;stroke-linejoin:miter;stroke-miterlimit:4;stroke-opacity:1;stroke-dasharray:none;stroke-dashoffset:0;marker:none;visibility:visible;display:inline;overflow:visible;enable-background:accumulate"
             id="use10003"
             transform="matrix(1.0763851,-0.50454841,0.50454841,1.0763851,-238.65638,-938.10279)"
             d="m -100.40916,1021.9389 a 7.07107,7.07107 0 1 1 -14.14214,0 7.07107,7.07107 0 1 1 14.14214,0 z"
             inkscape:connector-curvature="0" />
          <path
             style="color:#000000;fill:none;stroke:#000000;stroke-width:3.4069593px;stroke-linecap:butt;stroke-linejoin:miter;stroke-miterlimit:4;stroke-opacity:1;stroke-dasharray:none;stroke-dashoffset:0;marker:none;visibility:visible;display:inline;overflow:visible;enable-background:accumulate"
             id="use10005"
             transform="matrix(1.0763851,-0.50454841,0.50454841,1.0763851,-231.52099,-922.88042)"
             d="m -100.40916,1021.9389 a 7.07107,7.07107 0 1 1 -14.14214,0 7.07107,7.07107 0 1 1 14.14214,0 z"
             inkscape:connector-curvature="0" />
          <path
             style="color:#000000;fill:none;stroke:#000000;stroke-width:3.4069593px;stroke-linecap:butt;stroke-linejoin:miter;stroke-miterlimit:4;stroke-opacity:1;stroke-dasharray:none;stroke-dashoffset:0;marker:none;visibility:visible;display:inline;overflow:visible;enable-background:accumulate"
             id="use10007"
             transform="matrix(1.0763851,-0.50454841,0.50454841,1.0763851,-224.3856,-907.65803)"
             d="m -100.40916,1021.9389 a 7.07107,7.07107 0 1 1 -14.14214,0 7.07107,7.07107 0 1 1 14.14214,0 z"
             inkscape:connector-curvature="0" />
          <path
             style="color:#000000;fill:none;stroke:#000000;stroke-width:3.4069593px;stroke-linecap:butt;stroke-linejoin:miter;stroke-miterlimit:4;stroke-opacity:1;stroke-dasharray:none;stroke-dashoffset:0;marker:none;visibility:visible;display:inline;overflow:visible;enable-background:accumulate"
             id="use10011"
             transform="matrix(1.0763851,-0.50454841,0.50454841,1.0763851,-251.97556,-1006.1277)"
             d="m -100.40916,1021.9389 a 7.07107,7.07107 0 1 1 -14.14214,0 7.07107,7.07107 0 1 1 14.14214,0 z"
             inkscape:connector-curvature="0" />
          <path
             style="color:#000000;fill:none;stroke:#000000;stroke-width:3.4069593px;stroke-linecap:butt;stroke-linejoin:miter;stroke-miterlimit:4;stroke-opacity:1;stroke-dasharray:none;stroke-dashoffset:0;marker:none;visibility:visible;display:inline;overflow:visible;enable-background:accumulate"
             id="use10013"
             transform="matrix(1.0763851,-0.50454841,0.50454841,1.0763851,-244.84018,-990.90534)"
             d="m -100.40916,1021.9389 a 7.07107,7.07107 0 1 1 -14.14214,0 7.07107,7.07107 0 1 1 14.14214,0 z"
             inkscape:connector-curvature="0" />
          <path
             style="color:#000000;fill:none;stroke:#000000;stroke-width:3.4069593px;stroke-linecap:butt;stroke-linejoin:miter;stroke-miterlimit:4;stroke-opacity:1;stroke-dasharray:none;stroke-dashoffset:0;marker:none;visibility:visible;display:inline;overflow:visible;enable-background:accumulate"
             id="use10015"
             transform="matrix(1.0763851,-0.50454841,0.50454841,1.0763851,-237.70478,-975.68295)"
             d="m -100.40916,1021.9389 a 7.07107,7.07107 0 1 1 -14.14214,0 7.07107,7.07107 0 1 1 14.14214,0 z"
             inkscape:connector-curvature="0" />
          <path
             style="color:#000000;fill:none;stroke:#000000;stroke-width:3.4069593px;stroke-linecap:butt;stroke-linejoin:miter;stroke-miterlimit:4;stroke-opacity:1;stroke-dasharray:none;stroke-dashoffset:0;marker:none;visibility:visible;display:inline;overflow:visible;enable-background:accumulate"
             id="use10017"
             transform="matrix(1.0763851,-0.50454841,0.50454841,1.0763851,-230.56939,-960.46057)"
             d="m -100.40916,1021.9389 a 7.07107,7.07107 0 1 1 -14.14214,0 7.07107,7.07107 0 1 1 14.14214,0 z"
             inkscape:connector-curvature="0" />
          <path
             style="color:#000000;fill:none;stroke:#000000;stroke-width:3.4069593px;stroke-linecap:butt;stroke-linejoin:miter;stroke-miterlimit:4;stroke-opacity:1;stroke-dasharray:none;stroke-dashoffset:0;marker:none;visibility:visible;display:inline;overflow:visible;enable-background:accumulate"
             id="use10019"
             transform="matrix(1.0763851,-0.50454841,0.50454841,1.0763851,-223.434,-945.23819)"
             d="m -100.40916,1021.9389 a 7.07107,7.07107 0 1 1 -14.14214,0 7.07107,7.07107 0 1 1 14.14214,0 z"
             inkscape:connector-curvature="0" />
          <path
             style="color:#000000;fill:none;stroke:#000000;stroke-width:3.4069593px;stroke-linecap:butt;stroke-linejoin:miter;stroke-miterlimit:4;stroke-opacity:1;stroke-dasharray:none;stroke-dashoffset:0;marker:none;visibility:visible;display:inline;overflow:visible;enable-background:accumulate"
             id="use10021"
             transform="matrix(1.0763851,-0.50454841,0.50454841,1.0763851,-216.29861,-930.01581)"
             d="m -100.40916,1021.9389 a 7.07107,7.07107 0 1 1 -14.14214,0 7.07107,7.07107 0 1 1 14.14214,0 z"
             inkscape:connector-curvature="0" />
          <path
             style="color:#000000;fill:none;stroke:#000000;stroke-width:3.4069593px;stroke-linecap:butt;stroke-linejoin:miter;stroke-miterlimit:4;stroke-opacity:1;stroke-dasharray:none;stroke-dashoffset:0;marker:none;visibility:visible;display:inline;overflow:visible;enable-background:accumulate"
             id="use10023"
             transform="matrix(1.0763851,-0.50454841,0.50454841,1.0763851,-209.16321,-914.79342)"
             d="m -100.40916,1021.9389 a 7.07107,7.07107 0 1 1 -14.14214,0 7.07107,7.07107 0 1 1 14.14214,0 z"
             inkscape:connector-curvature="0" />
        </g>
        <path
           style="color:#000000;fill:#d3bc5f;fill-opacity:1;fill-rule:nonzero;stroke:#000000;stroke-width:3.4069593px;stroke-linecap:butt;stroke-linejoin:miter;stroke-miterlimit:4;stroke-opacity:1;stroke-dasharray:none;stroke-dashoffset:0;marker:none;visibility:visible;display:inline;overflow:visible;enable-background:accumulate"
           id="path10303"
           d="m 434.77752,613.64875 c -28.32085,18.6258 -16.09466,51.78703 10.5,24 l 3.5,-24 z"
           inkscape:connector-curvature="0" />
        <path
           style="opacity:0.11267604;fill:#ffffff;stroke:none"
           id="path10889"
           d="m 401.27752,599.64875 -57,-36 c 26.00895,-4.07157 52.83372,-14.66976 81.5,-40 l -11,71.5 4.5,1.5 22.5,-105 c -20.40028,42.22432 -57.56725,70.32934 -128.5,70 l 88,43.5 z"
           inkscape:connector-curvature="0" />
        <path
           style="opacity:0.28151263;color:#000000;fill:#000000;fill-opacity:1;fill-rule:nonzero;stroke:none;stroke-width:1px;marker:none;visibility:visible;display:inline;overflow:visible;enable-background:accumulate"
           id="path10891"
           d="m 403.02752,589.89875 17,19 8,-4.5 1.5,5 -15,7.25 29.75,59.75 -13.25,5.5 -30,-64.75 -2,0.5 -0.75,-9 -144.36901,-67.3057 140.71425,55.86143 -0.70711,-8.48528 z"
           inkscape:connector-curvature="0" />
        <path
           style="opacity:0.4225352;fill:#ffffff;stroke:none"
           id="path10958"
           d="m 448.36287,463.5613 -4.24264,-20.5061 C 417.08592,335.37734 278.11633,378.51015 255.32272,435.98414 293.80465,384.69971 425.46461,333.43863 448.36287,463.5613 z"
           inkscape:connector-curvature="0" />
        <path
           style="opacity:0.4225352;fill:#000000;stroke:none"
           id="path10958-1"
           d="m 238.70571,469.71329 4.24264,20.5061 c 27.03431,107.67785 166.0039,64.54505 188.79751,7.07106 -38.48193,51.28443 -170.14189,102.5455 -193.04015,-27.57716 z"
           inkscape:connector-curvature="0" />
        <path
           style="opacity:0.28151263;color:#000000;fill:#000000;fill-opacity:1;fill-rule:nonzero;stroke:none;stroke-width:1px;marker:none;visibility:visible;display:inline;overflow:visible;enable-background:accumulate"
           id="path3138"
           d="m 442.02755,679.00464 c 0,0 7.85714,15.53572 7.5,14.82143 -0.35714,-0.71428 -14.28571,6.78572 -14.28571,6.78572 l -8.21429,-16.42858 z"
           inkscape:connector-curvature="0" />
      </g>
    </g>
  </g>
</svg>
