<?xml version="1.0" encoding="UTF-8" standalone="no"?>
<!-- Created with Inkscape (http://www.inkscape.org/) -->

<svg
   xmlns:dc="http://purl.org/dc/elements/1.1/"
   xmlns:cc="http://creativecommons.org/ns#"
   xmlns:rdf="http://www.w3.org/1999/02/22-rdf-syntax-ns#"
   xmlns:svg="http://www.w3.org/2000/svg"
   xmlns="http://www.w3.org/2000/svg"
   xmlns:sodipodi="http://sodipodi.sourceforge.net/DTD/sodipodi-0.dtd"
   xmlns:inkscape="http://www.inkscape.org/namespaces/inkscape"
   width="80.045372"
   height="125.70409"
   id="svg2"
   version="1.1"
   inkscape:version="0.48.3.1 r9886"
   sodipodi:docname="barba10.svg">
  <defs
     id="defs4" />
  <sodipodi:namedview
     id="base"
     pagecolor="#ffffff"
     bordercolor="#666666"
     borderopacity="1.0"
     inkscape:pageopacity="0.0"
     inkscape:pageshadow="2"
     inkscape:zoom="0.35"
     inkscape:cx="39.973744"
     inkscape:cy="62.84124"
     inkscape:document-units="px"
     inkscape:current-layer="layer1"
     showgrid="false"
     fit-margin-top="0"
     fit-margin-left="0"
     fit-margin-right="0"
     fit-margin-bottom="0"
     inkscape:window-width="552"
     inkscape:window-height="752"
     inkscape:window-x="65"
     inkscape:window-y="24"
     inkscape:window-maximized="0" />
  <metadata
     id="metadata7">
    <rdf:RDF>
      <cc:Work
         rdf:about="">
        <dc:format>image/svg+xml</dc:format>
        <dc:type
           rdf:resource="http://purl.org/dc/dcmitype/StillImage" />
        <dc:title></dc:title>
      </cc:Work>
    </rdf:RDF>
  </metadata>
  <g
     inkscape:label="Capa 1"
     inkscape:groupmode="layer"
     id="layer1"
     transform="translate(-310.02625,-469.4993)">
    <g
       transform="translate(83.085729,-211.99183)"
       inkscape:label="Layer 1"
       id="layer1-6">
      <g
         inkscape:export-ydpi="90"
         inkscape:export-xdpi="90"
         id="g6846">
        <g
           inkscape:label="Capa 1"
           id="layer1-4"
           transform="translate(608.2923,-216.81779)">
          <g
             inkscape:label="Capa 1"
             id="layer1-0"
             transform="translate(-464.26829,9.26096)">
            <g
               transform="matrix(2,0,0,2,-125.03069,-1240.877)"
               id="g7230">
              <g
                 inkscape:label="Capa 1"
                 id="layer1-5"
                 transform="matrix(0.5,0,0,0.5,198.03499,723.12882)">
                <g
                   id="g3815">
                  <g
                     inkscape:label="Capa 1"
                     id="layer1-8"
                     transform="translate(-509.47265,-858.01422)">
                    <g
                       id="g4403">
                      <g
                         id="g5615">
                        <g
                           inkscape:label="Capa 1"
                           id="layer1-9"
                           transform="translate(34.810242,624.88049)">
                          <g
                             id="g4728"
                             transform="matrix(0.86372251,0,0,0.75945223,-6.6412836,551.71009)">
                            <g
                               inkscape:label="Capa 1"
                               id="layer1-42"
                               transform="matrix(1.1577793,0,0,1.3167385,-36.133084,-705.63507)">
                              <g
                                 id="g5224"
                                 transform="matrix(0.88307479,0,0,0.70910051,43.988222,438.13275)">
                                <g
                                   inkscape:label="Capa 1"
                                   id="layer1-02"
                                   transform="matrix(1.1324069,0,0,1.4102373,58.462682,-691.18829)">
                                <g
                                   id="g5286"
                                   transform="matrix(1.127305,0,0,1.127305,-48.449071,-93.350364)">
                                <g
                                   inkscape:label="Layer 1"
                                   id="layer1-7"
                                   transform="matrix(0.88707135,0,0,0.8870714,15.021825,628.39384)">
                                <g
                                   id="g5030"
                                   transform="matrix(1.5713649,0,0,1.5551129,-182.98344,-134.01333)">
                                <g
                                   inkscape:label="Capa 1"
                                   id="layer1-72"
                                   transform="matrix(0.63638942,0,0,0.64304013,66.223794,-101.46956)">
                                <g
                                   transform="translate(66.411606,232.19706)"
                                   id="layer1-06"
                                   inkscape:label="Layer 1">
                                <g
                                   inkscape:label="Capa 1"
                                   id="layer1-85"
                                   transform="translate(-63.980856,-142.78077)">
                                <g
                                   id="g11416">
                                <g
                                   id="layer1-1"
                                   inkscape:label="Layer 1"
                                   transform="translate(-1051.8062,-2761.3737)">
                                <g
                                   id="g12903">
                                <g
                                   transform="matrix(2,0,0,2,-1689.5,-3023.4999)"
                                   id="g12881">
                                <g
                                   id="layer1-41"
                                   inkscape:label="Layer 1"
                                   transform="matrix(0.5,0,0,0.5,1445.6768,3035.6911)">
                                <g
                                   id="g36550"
                                   transform="matrix(1.5803703,0,0,1.5783361,-185.78827,-139.12469)">
                                <g
                                   transform="matrix(0.6327631,0,0,0.63357861,253.98729,172.72975)"
                                   id="g16139">
                                <g
                                   transform="translate(32.646514,64.302354)"
                                   id="g17122"
                                   style="display:inline">
                                <g
                                   transform="translate(230.67166,48.649982)"
                                   id="g17985"
                                   style="display:inline">
                                <g
                                   id="layer51"
                                   inkscape:label="glasses04"
                                   style="display:none">
                                <g
                                   id="g3293">
                                <g
                                   id="g3286">
                                <path
                                   inkscape:connector-curvature="0"
                                   style="fill:#555753;fill-opacity:1;stroke:none"
                                   d="m 264.4181,212.78125 c -32.31852,0 -58.5431,20.04591 -58.5431,44.75 0,24.70409 26.22459,44.75001 58.5431,44.75 32.31853,0 58.54309,-20.0459 58.54311,-44.75 0,-24.70409 -26.22457,-44.75 -58.54311,-44.75 z"
                                   id="path3274" />
                                <path
                                   sodipodi:type="arc"
                                   style="fill:none;stroke:#555753;stroke-width:31.03476334;stroke-linecap:round;stroke-linejoin:round;stroke-miterlimit:4;stroke-opacity:1;stroke-dasharray:none"
                                   id="path3253"
                                   sodipodi:cx="-100"
                                   sodipodi:cy="152.10728"
                                   sodipodi:rx="27.969349"
                                   sodipodi:ry="12.643678"
                                   d="m -72.030651,152.10728 c 0,6.98291 -12.522304,12.64368 -27.969349,12.64368 -15.44704,0 -27.96935,-5.66077 -27.96935,-12.64368 0,0 0,0 0,0"
                                   sodipodi:start="0"
                                   sodipodi:end="3.1415927"
                                   sodipodi:open="true"
                                   transform="matrix(0.298049,0,0,-0.1549048,229.03861,284.77197)" />
                                <path
                                   inkscape:connector-curvature="0"
                                   style="fill:#555753;fill-opacity:1;stroke:none"
                                   d="m 136.41811,212.78125 c 32.31852,0 58.5431,20.04591 58.5431,44.75 0,24.70409 -26.22459,44.75001 -58.5431,44.75 -32.31853,0 -58.54309,-20.0459 -58.54311,-44.75 0,-24.70409 26.22457,-44.75 58.54311,-44.75 z"
                                   id="path3270" />
                                </g>
                                <path
                                   inkscape:connector-curvature="0"
                                   style="fill:#d3d7cf;fill-opacity:1;stroke:none"
                                   d="m 157.8581,226.57435 c 10.73549,0 19.4467,6.6588 19.4467,14.86494 0,8.20615 -8.71122,14.86495 -19.4467,14.86495 -10.73548,0 -19.44669,-6.6588 -19.4467,-14.86495 0,-8.20614 8.71121,-14.86494 19.4467,-14.86494 z"
                                   id="path3284" />
                                <path
                                   inkscape:connector-curvature="0"
                                   id="path3291"
                                   d="m 287.36002,228.10692 c 10.73549,0 19.4467,6.6588 19.4467,14.86494 0,8.20615 -8.71122,14.86495 -19.4467,14.86495 -10.73548,0 -19.44669,-6.6588 -19.4467,-14.86495 0,-8.20614 8.71121,-14.86494 19.4467,-14.86494 z"
                                   style="fill:#d3d7cf;fill-opacity:1;stroke:none" />
                                </g>
                                </g>
                                </g>
                                <g
                                   transform="translate(-83.900704,-101.88594)"
                                   inkscape:label="Layer 1"
                                   id="layer1-71">
                                <g
                                   style="fill:#d3d7cf;overflow:visible"
                                   id="g2456"
                                   transform="matrix(5.9147922,0,0,5.9147922,-1972.0015,-1478.831)">
                                <g
                                   inkscape:label="Layer 1"
                                   id="g2458"
                                   style="fill:#d3d7cf">
                                <linearGradient
                                   gradientTransform="matrix(1,0,0,-1,-103.7402,669.2354)"
                                   y2="356.91599"
                                   x2="350.96329"
                                   y1="356.91599"
                                   x1="344.9473"
                                   gradientUnits="userSpaceOnUse"
                                   id="linearGradient2460">
                                <stop
                                   id="stop2462"
                                   style="stop-color:#C17D11"
                                   offset="0" />
                                <stop
                                   id="stop2464"
                                   style="stop-color:#E9B96E"
                                   offset="1" />
                                </linearGradient>
                                <linearGradient
                                   gradientTransform="matrix(0.4187,0,0,-0.4187,62.6646,711.7626)"
                                   y2="1042.7896"
                                   x2="378.0538"
                                   y1="1107.4297"
                                   x1="319.35059"
                                   gradientUnits="userSpaceOnUse"
                                   id="linearGradient2466">
                                <stop
                                   id="stop2468"
                                   style="stop-color:#F0DAD4"
                                   offset="0" />
                                <stop
                                   id="stop2470"
                                   style="stop-color:#E4B8AD"
                                   offset="1" />
                                </linearGradient>
                                <linearGradient
                                   gradientTransform="matrix(0.4187,0,0,-0.4187,59.8071,601.9989)"
                                   y2="901.81659"
                                   x2="373.60489"
                                   y1="966.45697"
                                   x1="314.9014"
                                   gradientUnits="userSpaceOnUse"
                                   id="linearGradient2472">
                                <stop
                                   id="stop2474"
                                   style="stop-color:#F0DAD4"
                                   offset="0" />
                                <stop
                                   id="stop2476"
                                   style="stop-color:#E4B8AD"
                                   offset="1" />
                                </linearGradient>
                                <linearGradient
                                   gradientTransform="matrix(0.4187,0,0,-0.4187,-57.2192,609.7821)"
                                   y2="914.51422"
                                   x2="532.32428"
                                   y1="979.1543"
                                   x1="473.62109"
                                   gradientUnits="userSpaceOnUse"
                                   id="linearGradient2478">
                                <stop
                                   id="stop2480"
                                   style="stop-color:#F0DAD4"
                                   offset="0" />
                                <stop
                                   id="stop2482"
                                   style="stop-color:#E4B8AD"
                                   offset="1" />
                                </linearGradient>
                                </g>
                                <path
                                   inkscape:connector-curvature="0"
                                   style="fill:#d3d7cf;stroke:#000000;stroke-width:0.23154648"
                                   d="m 339.28281,276.83045 c 0,0 -1.60068,1.16537 -1.58146,2.10221 0.0183,0.90766 -0.42234,2.51853 -0.40312,2.54192 l 0.20631,0.1857 c -0.066,0.0551 -0.11114,0.14796 -0.11114,0.25354 0,0.1688 0.11276,0.3075 0.24983,0.3075 0.0113,0 0.0227,-10e-4 0.0338,-0.003 0.0285,0.0611 0.0848,0.10605 0.14888,0.1218 0.0303,0.1373 0.5358,7.62158 0.66176,7.62505 0.015,0.0479 0.0452,0.0873 0.0845,0.11508 -0.008,0.0331 -0.01,0.0683 -0.01,0.10466 0,0.19543 0.1255,0.35496 0.28388,0.35496 0.001,0 0.002,0 0.003,0 0.012,0.12596 1.16283,2.14667 1.25406,2.17631 0.0155,0.28295 0.20329,0.50685 0.436,0.50685 0.0607,0 0.11948,-0.0164 0.17227,-0.0438 0.0338,0.0319 0.0748,0.0563 0.11832,0.0743 -0.0125,0.059 -0.0204,0.1197 -0.0204,0.18269 0,0.4536 0.61175,3.38081 1.0283,3.38081 0.10674,0 0.20863,-0.0241 0.30078,-0.0676 -0.003,0.0313 -0.003,0.0627 -0.003,0.0947 0,0.51171 0.13569,0.87872 0.59484,0.87872 0.11832,0 -0.0683,0.0262 0.0338,-0.0236 0.10419,0.0618 0.22923,0.0947 0.36491,0.0947 0.3589,0 1.20312,0.21001 1.20312,-0.10142 0,-0.0861 0.27624,-0.22112 0.23641,-0.29406 0.23108,-0.12295 0.82801,0.15514 0.8551,-0.0878 0.0197,0.002 0.0405,0.003 0.0609,0.003 0.13059,0 0.24891,-0.047 0.33782,-0.12503 0.0993,0.0792 0.22576,0.12503 0.36191,0.12503 0.32162,0 0.94633,-0.53788 0.94633,-0.86505 0,-0.0243 -9.3e-4,-0.0509 -0.003,-0.0746 0.17157,-0.0468 0.66176,-3.0754 0.68491,-3.2523 0.16023,-0.022 0.28828,-0.16371 0.3075,-0.33783 0,0 0,-0.003 0,-0.003 2.3e-4,0 0.003,0 0.003,0 0.0576,-0.009 0.11207,-0.0331 0.15537,-0.0711 0.0354,0.009 0.0732,0.0134 0.1116,0.0134 0.21094,0 0.59832,-2.10128 0.59832,-2.29138 0,-0.0326 -0.004,-0.0646 -0.0137,-0.0947 0.0306,0.012 0.0658,0.0169 0.10141,0.0169 0.14241,0 0.26003,-0.9799 0.26003,-1.11189 0,-0.0382 0.8426,-7.71489 0.82523,-7.74685 0.13106,-0.006 0.23641,-0.10882 0.23641,-0.23664 0,-0.0458 -0.007,-0.0919 -0.0306,-0.12851 0.009,0.002 0.0204,0.003 0.0306,0.003 0.10536,0 0.19265,-0.10304 0.19265,-0.2297 0,-0.0546 -0.0171,-0.10604 -0.044,-0.14518 -0.0185,-0.0264 -0.0442,-0.0498 -0.0709,-0.0644 -0.002,-9.2e-4 -0.005,-0.002 -0.007,-0.003 -7e-4,-4.6e-4 -0.003,-0.003 -0.004,-0.003 0,0 -0.003,0 -0.003,0 -0.025,-0.0424 -0.063,-0.0722 -0.1079,-0.0776 0.16949,-0.33273 -0.31352,-1.55275 -0.30379,-2.0552 0.019,-0.93684 -1.3821,-1.72364 -1.3821,-1.72364 l -0.4022,0.0171 -0.46934,1.85677 c 0.006,0.0479 0.21047,0.54205 -0.25262,1.17186 -0.35172,0.47814 -0.32393,1.05701 -0.58211,1.21932 -0.0208,-0.57169 -0.63582,-0.57771 -0.63582,-0.57771 -0.002,-0.0498 -0.0496,-0.84769 -1.53122,-0.82129 -0.91994,0.0164 -1.19571,-0.0234 -1.1964,-0.0236 l -1.09823,0.0236 c 0,0 -0.84398,0.0546 -0.95304,0.68259 -0.0709,0.40753 -0.50037,0.1688 -0.5659,0.60712 -0.29939,-0.24336 -0.088,-0.72428 -0.44851,-1.12856 -0.46309,-0.51843 -0.18686,-1.34019 -0.18037,-1.38789 l -0.66755,-1.62244 -0.40197,-0.0174 z m 4.00205,3.57994 c 0.0338,-4.6e-4 0.23132,-0.0718 0.25239,-0.0722 0.0236,-4.7e-4 0.39641,-0.2165 0.39641,-0.2165 0,0 0.29059,0.44388 1.00954,0.43276 1.17278,-0.0183 0.83565,0.13615 0.83866,0.17274 0,0 -0.2158,-0.0178 -0.44225,0.33203 -0.002,0.003 -1.05215,0.32208 -1.29759,0.28851 -0.27438,-0.0368 -0.76364,0.0794 -0.8294,0.0722 -0.21626,-0.21649 -0.79305,-0.36052 -0.79305,-0.36052 0,0 -0.53973,-0.0333 -0.45336,-0.46726 0.0838,-0.42025 0.83472,0.32278 0.88589,-0.18176 0,0 0.19404,0.005 0.43276,0 z"
                                   id="path2940_3_" />
                                </g>
                                </g>
                                </g>
                                </g>
                                </g>
                                </g>
                                </g>
                                </g>
                                </g>
                                </g>
                                </g>
                                </g>
                                </g>
                                </g>
                                </g>
                                </g>
                                </g>
                              </g>
                            </g>
                          </g>
                        </g>
                      </g>
                    </g>
                  </g>
                </g>
              </g>
            </g>
          </g>
        </g>
      </g>
    </g>
  </g>
</svg>
