<?xml version="1.0" encoding="UTF-8" standalone="no"?>
<!-- Created with Inkscape (http://www.inkscape.org/) -->

<svg
   xmlns:dc="http://purl.org/dc/elements/1.1/"
   xmlns:cc="http://creativecommons.org/ns#"
   xmlns:rdf="http://www.w3.org/1999/02/22-rdf-syntax-ns#"
   xmlns:svg="http://www.w3.org/2000/svg"
   xmlns="http://www.w3.org/2000/svg"
   xmlns:sodipodi="http://sodipodi.sourceforge.net/DTD/sodipodi-0.dtd"
   xmlns:inkscape="http://www.inkscape.org/namespaces/inkscape"
   width="230.36745"
   height="92.099709"
   id="svg2"
   version="1.1"
   inkscape:version="0.48.3.1 r9886"
   sodipodi:docname="barba13.svg">
  <defs
     id="defs4" />
  <sodipodi:namedview
     id="base"
     pagecolor="#ffffff"
     bordercolor="#666666"
     borderopacity="1.0"
     inkscape:pageopacity="0.0"
     inkscape:pageshadow="2"
     inkscape:zoom="0.35"
     inkscape:cx="115.18372"
     inkscape:cy="46.049856"
     inkscape:document-units="px"
     inkscape:current-layer="layer1"
     showgrid="false"
     fit-margin-top="0"
     fit-margin-left="0"
     fit-margin-right="0"
     fit-margin-bottom="0"
     inkscape:window-width="552"
     inkscape:window-height="752"
     inkscape:window-x="65"
     inkscape:window-y="24"
     inkscape:window-maximized="0" />
  <metadata
     id="metadata7">
    <rdf:RDF>
      <cc:Work
         rdf:about="">
        <dc:format>image/svg+xml</dc:format>
        <dc:type
           rdf:resource="http://purl.org/dc/dcmitype/StillImage" />
        <dc:title></dc:title>
      </cc:Work>
    </rdf:RDF>
  </metadata>
  <g
     inkscape:label="Capa 1"
     inkscape:groupmode="layer"
     id="layer1"
     transform="translate(-234.81627,-486.31228)">
    <g
       transform="translate(-97.467063,-436.6826)"
       inkscape:label="Layer 1"
       id="layer1-16">
      <g
         inkscape:export-ydpi="90"
         inkscape:export-xdpi="90"
         id="g6846">
        <g
           inkscape:label="Capa 1"
           id="layer1-4"
           transform="translate(608.2923,-216.81779)">
          <g
             inkscape:label="Capa 1"
             id="layer1-0"
             transform="translate(-464.26829,9.26096)">
            <g
               transform="matrix(2,0,0,2,-125.03069,-1240.877)"
               id="g7230">
              <g
                 inkscape:label="Capa 1"
                 id="layer1-5"
                 transform="matrix(0.5,0,0,0.5,198.03499,723.12882)">
                <g
                   id="g3815">
                  <g
                     inkscape:label="Capa 1"
                     id="layer1-8"
                     transform="translate(-509.47265,-858.01422)">
                    <g
                       id="g4403">
                      <g
                         id="g5615">
                        <g
                           inkscape:label="Capa 1"
                           id="layer1-9"
                           transform="translate(34.810242,624.88049)">
                          <g
                             id="g4728"
                             transform="matrix(0.86372251,0,0,0.75945223,-6.6412836,551.71009)">
                            <g
                               inkscape:label="Capa 1"
                               id="layer1-42"
                               transform="matrix(1.1577793,0,0,1.3167385,-36.133084,-705.63507)">
                              <g
                                 id="g5224"
                                 transform="matrix(0.88307479,0,0,0.70910051,43.988222,438.13275)">
                                <g
                                   inkscape:label="Capa 1"
                                   id="layer1-02"
                                   transform="matrix(1.1324069,0,0,1.4102373,58.462682,-691.18829)">
                                <g
                                   id="g5286"
                                   transform="matrix(1.127305,0,0,1.127305,-48.449071,-93.350364)">
                                <g
                                   inkscape:label="Layer 1"
                                   id="layer1-7"
                                   transform="matrix(0.88707135,0,0,0.8870714,15.021825,628.39384)">
                                <g
                                   id="g5030"
                                   transform="matrix(1.5713649,0,0,1.5551129,-182.98344,-134.01333)">
                                <g
                                   inkscape:label="Capa 1"
                                   id="layer1-72"
                                   transform="matrix(0.63638942,0,0,0.64304013,66.223794,-101.46956)">
                                <g
                                   transform="translate(66.411606,232.19706)"
                                   id="layer1-06"
                                   inkscape:label="Layer 1">
                                <g
                                   inkscape:label="Capa 1"
                                   id="layer1-85"
                                   transform="translate(-63.980856,-142.78077)">
                                <g
                                   id="g11416">
                                <g
                                   id="layer1-1"
                                   inkscape:label="Layer 1"
                                   transform="translate(-1051.8062,-2761.3737)">
                                <g
                                   id="g12903">
                                <g
                                   transform="matrix(2,0,0,2,-1689.5,-3023.4999)"
                                   id="g12881">
                                <g
                                   id="layer1-41"
                                   inkscape:label="Layer 1"
                                   transform="matrix(0.5,0,0,0.5,1445.6768,3035.6911)">
                                <g
                                   id="g36550"
                                   transform="matrix(1.5803703,0,0,1.5783361,-185.78827,-139.12469)">
                                <g
                                   transform="matrix(0.6327631,0,0,0.63357861,253.98729,172.72975)"
                                   id="g16139">
                                <g
                                   transform="translate(32.646514,64.302354)"
                                   id="g17122"
                                   style="display:inline">
                                <g
                                   transform="translate(230.67166,48.649982)"
                                   id="g17985"
                                   style="display:inline">
                                <g
                                   id="layer51"
                                   inkscape:label="glasses04"
                                   style="display:none">
                                <g
                                   id="g3293">
                                <g
                                   id="g3286">
                                <path
                                   inkscape:connector-curvature="0"
                                   style="fill:#555753;fill-opacity:1;stroke:none"
                                   d="m 264.4181,212.78125 c -32.31852,0 -58.5431,20.04591 -58.5431,44.75 0,24.70409 26.22459,44.75001 58.5431,44.75 32.31853,0 58.54309,-20.0459 58.54311,-44.75 0,-24.70409 -26.22457,-44.75 -58.54311,-44.75 z"
                                   id="path3274" />
                                <path
                                   sodipodi:type="arc"
                                   style="fill:none;stroke:#555753;stroke-width:31.03476334;stroke-linecap:round;stroke-linejoin:round;stroke-miterlimit:4;stroke-opacity:1;stroke-dasharray:none"
                                   id="path3253"
                                   sodipodi:cx="-100"
                                   sodipodi:cy="152.10728"
                                   sodipodi:rx="27.969349"
                                   sodipodi:ry="12.643678"
                                   d="m -72.030651,152.10728 c 0,6.98291 -12.522304,12.64368 -27.969349,12.64368 -15.44704,0 -27.96935,-5.66077 -27.96935,-12.64368 0,0 0,0 0,0"
                                   sodipodi:start="0"
                                   sodipodi:end="3.1415927"
                                   sodipodi:open="true"
                                   transform="matrix(0.298049,0,0,-0.1549048,229.03861,284.77197)" />
                                <path
                                   inkscape:connector-curvature="0"
                                   style="fill:#555753;fill-opacity:1;stroke:none"
                                   d="m 136.41811,212.78125 c 32.31852,0 58.5431,20.04591 58.5431,44.75 0,24.70409 -26.22459,44.75001 -58.5431,44.75 -32.31853,0 -58.54309,-20.0459 -58.54311,-44.75 0,-24.70409 26.22457,-44.75 58.54311,-44.75 z"
                                   id="path3270" />
                                </g>
                                <path
                                   inkscape:connector-curvature="0"
                                   style="fill:#d3d7cf;fill-opacity:1;stroke:none"
                                   d="m 157.8581,226.57435 c 10.73549,0 19.4467,6.6588 19.4467,14.86494 0,8.20615 -8.71122,14.86495 -19.4467,14.86495 -10.73548,0 -19.44669,-6.6588 -19.4467,-14.86495 0,-8.20614 8.71121,-14.86494 19.4467,-14.86494 z"
                                   id="path3284" />
                                <path
                                   inkscape:connector-curvature="0"
                                   id="path3291"
                                   d="m 287.36002,228.10692 c 10.73549,0 19.4467,6.6588 19.4467,14.86494 0,8.20615 -8.71122,14.86495 -19.4467,14.86495 -10.73548,0 -19.44669,-6.6588 -19.4467,-14.86495 0,-8.20614 8.71121,-14.86494 19.4467,-14.86494 z"
                                   style="fill:#d3d7cf;fill-opacity:1;stroke:none" />
                                </g>
                                </g>
                                </g>
                                <path
                                   inkscape:connector-curvature="0"
                                   id="path4746"
                                   style="fill:#000000;stroke:none"
                                   d="m 67.041673,319.59393 c 2.4e-4,0.83901 -0.67984,1.51929 -1.51885,1.51929 -0.83901,0 -1.51909,-0.68028 -1.51884,-1.51929 -2.5e-4,-0.83901 0.67983,-1.51929 1.51884,-1.51929 0.83901,0 1.51909,0.68028 1.51885,1.51929 z M 76.758083,332.3 c 2.4e-4,0.83901 -0.67984,1.51929 -1.51885,1.51929 -0.83901,0 -1.51909,-0.68028 -1.51884,-1.51929 -2.5e-4,-0.83901 0.67983,-1.51929 1.51884,-1.51929 0.83901,0 1.51909,0.68028 1.51885,1.51929 z m 2.98966,-17.93798 c 2.4e-4,0.83901 -0.67984,1.51929 -1.51885,1.51929 -0.83901,0 -1.51909,-0.68028 -1.51884,-1.51929 -2.5e-4,-0.83901 0.67983,-1.51929 1.51884,-1.51929 0.83901,0 1.51909,0.68028 1.51885,1.51929 z m -18.6854,-10.46382 c 2.5e-4,0.83901 -0.67983,1.51929 -1.51884,1.51929 -0.83901,0 -1.51909,-0.68028 -1.51885,-1.51929 -2.4e-4,-0.83901 0.67984,-1.51929 1.51885,-1.51929 0.83901,0 1.51909,0.68028 1.51884,1.51929 z m 36.99709,39.98675 c 2.4e-4,0.83901 -0.67984,1.51929 -1.51885,1.51929 -0.83901,0 -1.51909,-0.68028 -1.51884,-1.51929 -2.5e-4,-0.83901 0.67983,-1.51929 1.51884,-1.51929 0.83901,0 1.51909,0.68028 1.51885,1.51929 z m -2.24225,-16.81686 c 2.4e-4,0.83901 -0.67984,1.51929 -1.51885,1.51929 -0.83901,0 -1.51909,-0.68028 -1.51884,-1.51929 -2.5e-4,-0.83901 0.67983,-1.51929 1.51884,-1.51929 0.83901,0 1.51909,0.68028 1.51885,1.51929 z M 90.958983,299.04 c 2.4e-4,0.83901 -0.67984,1.51929 -1.51885,1.51929 -0.83901,0 -1.51909,-0.68028 -1.51884,-1.51929 -2.5e-4,-0.83901 0.67983,-1.51929 1.51884,-1.51929 0.83901,0 1.51909,0.68028 1.51885,1.51929 z m 25.412137,52.31911 c 2.4e-4,0.83901 -0.67984,1.51929 -1.51885,1.51929 -0.83901,0 -1.51909,-0.68028 -1.51884,-1.51929 -2.5e-4,-0.83901 0.67983,-1.51929 1.51884,-1.51929 0.83901,0 1.51909,0.68028 1.51885,1.51929 z m 2.98966,18.6854 c 2.4e-4,0.83901 -0.67984,1.51929 -1.51885,1.51929 -0.83901,0 -1.51909,-0.68028 -1.51884,-1.51929 -2.5e-4,-0.83901 0.67983,-1.51929 1.51884,-1.51929 0.83901,0 1.51909,0.68028 1.51885,1.51929 z m 24.29102,7.84787 c 2.4e-4,0.83901 -0.67984,1.51929 -1.51885,1.51929 -0.83901,0 -1.51909,-0.68028 -1.51884,-1.51929 -2.5e-4,-0.83901 0.67983,-1.51929 1.51884,-1.51929 0.83901,0 1.51909,0.68028 1.51885,1.51929 z m 27.65438,2.61595 c 2.4e-4,0.83901 -0.67984,1.51929 -1.51885,1.51929 -0.83901,0 -1.51909,-0.68028 -1.51884,-1.51929 -2.5e-4,-0.83901 0.67983,-1.51929 1.51884,-1.51929 0.83901,0 1.51909,0.68028 1.51885,1.51929 z m -31.76517,-19.43281 c 2.4e-4,0.83901 -0.67984,1.51929 -1.51885,1.51929 -0.83901,0 -1.51909,-0.68028 -1.51884,-1.51929 -2.5e-4,-0.83901 0.67983,-1.51929 1.51884,-1.51929 0.83901,0 1.51909,0.68028 1.51885,1.51929 z m 20.55394,5.97933 c 2.4e-4,0.83901 -0.67984,1.51929 -1.51885,1.51929 -0.83901,0 -1.51909,-0.68028 -1.51884,-1.51929 -2.5e-4,-0.83901 0.67983,-1.51929 1.51884,-1.51929 0.83901,0 1.51909,0.68028 1.51885,1.51929 z m 23.16989,-5.60562 c 2.4e-4,0.83901 -0.67984,1.51929 -1.51885,1.51929 -0.83901,0 -1.51909,-0.68028 -1.51884,-1.51929 -2.5e-4,-0.83901 0.67983,-1.51929 1.51884,-1.51929 0.83901,0 1.51909,0.68028 1.51885,1.51929 z m 6.35303,13.45349 c 2.4e-4,0.83901 -0.67984,1.51929 -1.51885,1.51929 -0.83901,0 -1.51909,-0.68028 -1.51884,-1.51929 -2.5e-4,-0.83901 0.67983,-1.51929 1.51884,-1.51929 0.83901,0 1.51909,0.68028 1.51885,1.51929 z m 5.97933,-28.02809 c 2.4e-4,0.83901 -0.67984,1.51929 -1.51885,1.51929 -0.83901,0 -1.51909,-0.68028 -1.51884,-1.51929 -2.5e-4,-0.83901 0.67983,-1.51929 1.51884,-1.51929 0.83901,0 1.51909,0.68028 1.51885,1.51929 z m 11.95865,21.30135 c 2.4e-4,0.83901 -0.67984,1.51929 -1.51885,1.51929 -0.83901,0 -1.51909,-0.68028 -1.51884,-1.51929 -2.5e-4,-0.83901 0.67983,-1.51929 1.51884,-1.51929 0.83901,0 1.51909,0.68028 1.51885,1.51929 z m 11.21124,-18.31169 c 2.4e-4,0.83901 -0.67984,1.51929 -1.51885,1.51929 -0.83901,0 -1.51909,-0.68028 -1.51884,-1.51929 -2.5e-4,-0.83901 0.67983,-1.51929 1.51884,-1.51929 0.83901,0 1.51909,0.68028 1.51885,1.51929 z m -2.61596,-8.59528 c 2.4e-4,0.83901 -0.67984,1.51929 -1.51885,1.51929 -0.83901,0 -1.51909,-0.68028 -1.51884,-1.51929 -2.5e-4,-0.83901 0.67983,-1.51929 1.51884,-1.51929 0.83901,0 1.51909,0.68028 1.51885,1.51929 z m 9.3427,14.57461 c 2.4e-4,0.83901 -0.67984,1.51929 -1.51885,1.51929 -0.83901,0 -1.51909,-0.68028 -1.51884,-1.51929 -2.5e-4,-0.83901 0.67983,-1.51929 1.51884,-1.51929 0.83901,0 1.51909,0.68028 1.51885,1.51929 z m 6.72674,-13.45348 c 2.4e-4,0.83901 -0.67984,1.51929 -1.51885,1.51929 -0.83901,0 -1.51909,-0.68028 -1.51884,-1.51929 -2.5e-4,-0.83901 0.67983,-1.51929 1.51884,-1.51929 0.83901,0 1.51909,0.68028 1.51885,1.51929 z m 0.59793,-10.98702 c 2.4e-4,0.83901 -0.67984,1.51929 -1.51885,1.51929 -0.83901,0 -1.51909,-0.68028 -1.51884,-1.51929 -2.5e-4,-0.83901 0.67983,-1.51929 1.51884,-1.51929 0.83901,0 1.51909,0.68028 1.51885,1.51929 z m 22.19826,-7.69838 c 2.4e-4,0.83901 -0.67984,1.51929 -1.51885,1.51929 -0.83901,0 -1.51909,-0.68028 -1.51884,-1.51929 -2.5e-4,-0.83901 0.67983,-1.51929 1.51884,-1.51929 0.83901,0 1.51909,0.68028 1.51885,1.51929 z M 101.4228,358.08587 c 2.4e-4,0.83901 -0.67984,1.51929 -1.518847,1.51929 -0.83901,0 -1.51909,-0.68028 -1.51884,-1.51929 -2.5e-4,-0.83901 0.67983,-1.51929 1.51884,-1.51929 0.839007,0 1.519087,0.68028 1.518847,1.51929 z m 149.18422,-44.99443 c 2.4e-4,0.83901 -0.67984,1.51929 -1.51885,1.51929 -0.83901,0 -1.51909,-0.68028 -1.51884,-1.51929 -2.5e-4,-0.83901 0.67983,-1.51929 1.51884,-1.51929 0.83901,0 1.51909,0.68028 1.51885,1.51929 z m -9.79115,-6.57726 c 2.4e-4,0.83901 -0.67984,1.51929 -1.51885,1.51929 -0.83901,0 -1.51909,-0.68028 -1.51884,-1.51929 -2.5e-4,-0.83901 0.67983,-1.51929 1.51884,-1.51929 0.83901,0 1.51909,0.68028 1.51885,1.51929 z m -188.348797,8.22157 c 2.5e-4,0.83901 -0.67983,1.51929 -1.51884,1.51929 -0.83901,0 -1.51909,-0.68028 -1.51885,-1.51929 -2.4e-4,-0.83901 0.67984,-1.51929 1.51885,-1.51929 0.83901,0 1.51909,0.68028 1.51884,1.51929 z m 21.67506,-13.45349 c 2.4e-4,0.83901 -0.67984,1.51929 -1.51885,1.51929 -0.83901,0 -1.51909,-0.68028 -1.51884,-1.51929 -2.5e-4,-0.83901 0.67983,-1.51929 1.51884,-1.51929 0.83901,0 1.51909,0.68028 1.51885,1.51929 z m -27.28068,-1.12112 c 2.5e-4,0.83901 -0.67983,1.51929 -1.51884,1.51929 -0.83901,0 -1.51909,-0.68028 -1.51885,-1.51929 -2.4e-4,-0.83901 0.67984,-1.51929 1.51885,-1.51929 0.83901,0 1.51909,0.68028 1.51884,1.51929 z m 107.627887,86.32653 c 2.4e-4,0.83901 -0.67984,1.51929 -1.51885,1.51929 -0.83901,0 -1.51909,-0.68028 -1.51884,-1.51929 -2.5e-4,-0.83901 0.67983,-1.51929 1.51884,-1.51929 0.83901,0 1.51909,0.68028 1.51885,1.51929 z m -30.64405,-24.29102 c 2.4e-4,0.83901 -0.67984,1.51929 -1.51885,1.51929 -0.83901,0 -1.51909,-0.68028 -1.51884,-1.51929 -2.5e-4,-0.83901 0.67983,-1.51929 1.51884,-1.51929 0.83901,0 1.51909,0.68028 1.51885,1.51929 z m 6.35303,17.56427 c 2.4e-4,0.83901 -0.67984,1.51929 -1.51885,1.51929 -0.83901,0 -1.51909,-0.68028 -1.51884,-1.51929 -2.5e-4,-0.83901 0.67983,-1.51929 1.51884,-1.51929 0.83901,0 1.51909,0.68028 1.51885,1.51929 z M 84.979663,344.63237 c 2.4e-4,0.83901 -0.67984,1.51929 -1.51885,1.51929 -0.83901,0 -1.51909,-0.68028 -1.51884,-1.51929 -2.5e-4,-0.83901 0.67983,-1.51929 1.51884,-1.51929 0.83901,0 1.51909,0.68028 1.51885,1.51929 z m -3.61252,-21.92421 c 2.4e-4,0.83901 -0.67984,1.51929 -1.51885,1.51929 -0.83901,0 -1.51909,-0.68028 -1.51884,-1.51929 -2.5e-4,-0.83901 0.67983,-1.51929 1.51884,-1.51929 0.83901,0 1.51909,0.68028 1.51885,1.51929 z m 6.98777,12.72399 c 2.4e-4,0.83901 -0.67984,1.51929 -1.51885,1.51929 -0.83901,0 -1.51909,-0.68028 -1.51884,-1.51929 -2.5e-4,-0.83901 0.67983,-1.51929 1.51884,-1.51929 0.83901,0 1.51909,0.68028 1.51885,1.51929 z m -23.88356,-6.362 c 2.4e-4,0.83901 -0.67984,1.51929 -1.51884,1.51929 -0.83901,0 -1.5191,-0.68028 -1.51885,-1.51929 -2.5e-4,-0.83901 0.67984,-1.51929 1.51885,-1.51929 0.839,0 1.51908,0.68028 1.51884,1.51929 z m -0.73007,-18.66881 c 2.5e-4,0.83901 -0.67984,1.51929 -1.51884,1.51929 -0.83901,0 -1.5191,-0.68028 -1.51885,-1.51929 -2.5e-4,-0.83901 0.67984,-1.51929 1.51885,-1.51929 0.839,0 1.51909,0.68028 1.51884,1.51929 z m -15.22707,-2.92026 c 2.4e-4,0.83901 -0.67984,1.51929 -1.51885,1.51929 -0.83901,0 -1.51909,-0.68028 -1.51884,-1.51929 -2.5e-4,-0.83901 0.67983,-1.51929 1.51884,-1.51929 0.83901,0 1.51909,0.68028 1.51885,1.51929 z m 9.69943,15.74855 c 2.5e-4,0.83901 -0.67983,1.51929 -1.51884,1.51929 -0.83901,0 -1.51909,-0.68028 -1.51885,-1.51929 -2.4e-4,-0.83901 0.67984,-1.51929 1.51885,-1.51929 0.83901,0 1.51909,0.68028 1.51884,1.51929 z m 27.42959,-14.80989 c 2.4e-4,0.83901 -0.67984,1.51929 -1.51885,1.51929 -0.83901,0 -1.51909,-0.68028 -1.51884,-1.51929 -2.5e-4,-0.83901 0.67983,-1.51929 1.51884,-1.51929 0.83901,0 1.51909,0.68028 1.51885,1.51929 z m 4.38039,12.09822 c 2.4e-4,0.83901 -0.67984,1.51929 -1.51885,1.51929 -0.83901,0 -1.51909,-0.68028 -1.51884,-1.51929 -2.5e-4,-0.83901 0.67983,-1.51929 1.51884,-1.51929 0.83901,0 1.51909,0.68028 1.51885,1.51929 z m 19.294577,5.84052 c 2.4e-4,0.83901 -0.67984,1.51929 -1.51885,1.51929 -0.83901,0 -1.51909,-0.68028 -1.51884,-1.51929 -2.5e-4,-0.83901 0.67983,-1.51929 1.51884,-1.51929 0.83901,0 1.51909,0.68028 1.51885,1.51929 z m -8.3436,8.4479 c 2.4e-4,0.83901 -0.67984,1.51929 -1.518847,1.51929 -0.83901,0 -1.51909,-0.68028 -1.51884,-1.51929 -2.5e-4,-0.83901 0.67983,-1.51929 1.51884,-1.51929 0.839007,0 1.519087,0.68028 1.518847,1.51929 z m 14.6013,1.35584 c 2.4e-4,0.83901 -0.67984,1.51929 -1.51885,1.51929 -0.83901,0 -1.51909,-0.68028 -1.51884,-1.51929 -2.5e-4,-0.83901 0.67983,-1.51929 1.51884,-1.51929 0.83901,0 1.51909,0.68028 1.51885,1.51929 z m -10.01232,8.96937 c 2.4e-4,0.83901 -0.67984,1.51929 -1.51885,1.51929 -0.83901,0 -1.51909,-0.68028 -1.51884,-1.51929 -2.5e-4,-0.83901 0.67983,-1.51929 1.51884,-1.51929 0.83901,0 1.51909,0.68028 1.51885,1.51929 z m 0,0 c 2.4e-4,0.83901 -0.67984,1.51929 -1.51885,1.51929 -0.83901,0 -1.51909,-0.68028 -1.51884,-1.51929 -2.5e-4,-0.83901 0.67983,-1.51929 1.51884,-1.51929 0.83901,0 1.51909,0.68028 1.51885,1.51929 z m 16.06143,-1.98161 c 2.4e-4,0.83901 -0.67984,1.51929 -1.51885,1.51929 -0.83901,0 -1.51909,-0.68028 -1.51884,-1.51929 -2.5e-4,-0.83901 0.67983,-1.51929 1.51884,-1.51929 0.83901,0 1.51909,0.68028 1.51885,1.51929 z m -9.69944,18.7731 c 2.4e-4,0.83901 -0.67984,1.51929 -1.51885,1.51929 -0.83901,0 -1.51909,-0.68028 -1.51884,-1.51929 -2.5e-4,-0.83901 0.67983,-1.51929 1.51884,-1.51929 0.83901,0 1.51909,0.68028 1.51885,1.51929 z m -17.938737,-9.80373 c 2.4e-4,0.83901 -0.67984,1.51929 -1.51885,1.51929 -0.83901,0 -1.51909,-0.68028 -1.51884,-1.51929 -2.5e-4,-0.83901 0.67983,-1.51929 1.51884,-1.51929 0.83901,0 1.51909,0.68028 1.51885,1.51929 z m 12.932577,15.43566 c 2.4e-4,0.83901 -0.67984,1.51929 -1.51885,1.51929 -0.83901,0 -1.51909,-0.68028 -1.51884,-1.51929 -2.5e-4,-0.83901 0.67983,-1.51929 1.51884,-1.51929 0.83901,0 1.51909,0.68028 1.51885,1.51929 z m 20.33753,-13.66265 c 2.4e-4,0.83901 -0.67984,1.51929 -1.51885,1.51929 -0.83901,0 -1.51909,-0.68028 -1.51884,-1.51929 -2.5e-4,-0.83901 0.67983,-1.51929 1.51884,-1.51929 0.83901,0 1.51909,0.68028 1.51885,1.51929 z m 4.58898,9.49085 c 2.4e-4,0.83901 -0.67984,1.51929 -1.51885,1.51929 -0.83901,0 -1.51909,-0.68028 -1.51884,-1.51929 -2.5e-4,-0.83901 0.67983,-1.51929 1.51884,-1.51929 0.83901,0 1.51909,0.68028 1.51885,1.51929 z m -4.69328,10.01232 c 2.4e-4,0.83901 -0.67984,1.51929 -1.51885,1.51929 -0.83901,0 -1.51909,-0.68028 -1.51884,-1.51929 -2.5e-4,-0.83901 0.67983,-1.51929 1.51884,-1.51929 0.83901,0 1.51909,0.68028 1.51885,1.51929 z m 9.59514,11.78534 c 2.4e-4,0.83901 -0.67984,1.51929 -1.51885,1.51929 -0.83901,0 -1.51909,-0.68028 -1.51884,-1.51929 -2.5e-4,-0.83901 0.67983,-1.51929 1.51884,-1.51929 0.83901,0 1.51909,0.68028 1.51885,1.51929 z m 9.38655,2.50308 c 2.4e-4,0.83901 -0.67984,1.51929 -1.51885,1.51929 -0.83901,0 -1.51909,-0.68028 -1.51884,-1.51929 -2.5e-4,-0.83901 0.67983,-1.51929 1.51884,-1.51929 0.83901,0 1.51909,0.68028 1.51885,1.51929 z m -9.38655,-9.90803 c 2.4e-4,0.83901 -0.67984,1.51929 -1.51885,1.51929 -0.83901,0 -1.51909,-0.68028 -1.51884,-1.51929 -2.5e-4,-0.83901 0.67983,-1.51929 1.51884,-1.51929 0.83901,0 1.51909,0.68028 1.51885,1.51929 z m 0.52148,-7.19636 c 2.4e-4,0.83901 -0.67984,1.51929 -1.51885,1.51929 -0.83901,0 -1.51909,-0.68028 -1.51884,-1.51929 -2.5e-4,-0.83901 0.67983,-1.51929 1.51884,-1.51929 0.83901,0 1.51909,0.68028 1.51885,1.51929 z m -17.52156,6.15341 c 2.4e-4,0.83901 -0.67984,1.51929 -1.51885,1.51929 -0.83901,0 -1.51909,-0.68028 -1.51884,-1.51929 -2.5e-4,-0.83901 0.67983,-1.51929 1.51884,-1.51929 0.83901,0 1.51909,0.68028 1.51885,1.51929 z m 24.82221,-10.4295 c 2.4e-4,0.83901 -0.67984,1.51929 -1.51885,1.51929 -0.83901,0 -1.51909,-0.68028 -1.51884,-1.51929 -2.5e-4,-0.83901 0.67983,-1.51929 1.51884,-1.51929 0.83901,0 1.51909,0.68028 1.51885,1.51929 z m -9.59514,-12.72399 c 2.4e-4,0.83901 -0.67984,1.51929 -1.51885,1.51929 -0.83901,0 -1.51909,-0.68028 -1.51884,-1.51929 -2.5e-4,-0.83901 0.67983,-1.51929 1.51884,-1.51929 0.83901,0 1.51909,0.68028 1.51885,1.51929 z m 17.73015,8.96937 c 2.4e-4,0.83901 -0.67984,1.51929 -1.51885,1.51929 -0.83901,0 -1.51909,-0.68028 -1.51884,-1.51929 -2.5e-4,-0.83901 0.67983,-1.51929 1.51884,-1.51929 0.83901,0 1.51909,0.68028 1.51885,1.51929 z m 3.33744,11.26386 c 2.4e-4,0.83901 -0.67984,1.51929 -1.51885,1.51929 -0.83901,0 -1.51909,-0.68028 -1.51884,-1.51929 -2.5e-4,-0.83901 0.67983,-1.51929 1.51884,-1.51929 0.83901,0 1.51909,0.68028 1.51885,1.51929 z m -5.84052,7.71783 c 2.4e-4,0.83901 -0.67984,1.51929 -1.51885,1.51929 -0.83901,0 -1.51909,-0.68028 -1.51884,-1.51929 -2.5e-4,-0.83901 0.67983,-1.51929 1.51884,-1.51929 0.83901,0 1.51909,0.68028 1.51885,1.51929 z m 13.45406,6.57059 c 2.4e-4,0.83901 -0.67984,1.51929 -1.51885,1.51929 -0.83901,0 -1.51909,-0.68028 -1.51884,-1.51929 -2.5e-4,-0.83901 0.67983,-1.51929 1.51884,-1.51929 0.83901,0 1.51909,0.68028 1.51885,1.51929 z m -4.69328,-6.57059 c 2.4e-4,0.83901 -0.67984,1.51929 -1.51885,1.51929 -0.83901,0 -1.51909,-0.68028 -1.51884,-1.51929 -2.5e-4,-0.83901 0.67983,-1.51929 1.51884,-1.51929 0.83901,0 1.51909,0.68028 1.51885,1.51929 z m 7.19637,-8.50873 c 2.4e-4,0.83901 -0.67984,1.51929 -1.51885,1.51929 -0.83901,0 -1.51909,-0.68028 -1.51884,-1.51929 -2.5e-4,-0.83901 0.67983,-1.51929 1.51884,-1.51929 0.83901,0 1.51909,0.68028 1.51885,1.51929 z m 2.71166,-7.657 c 2.4e-4,0.83901 -0.67984,1.51929 -1.51885,1.51929 -0.83901,0 -1.51909,-0.68028 -1.51884,-1.51929 -2.5e-4,-0.83901 0.67983,-1.51929 1.51884,-1.51929 0.83901,0 1.51909,0.68028 1.51885,1.51929 z m -6.88347,-5.52764 c 2.4e-4,0.83901 -0.67984,1.51929 -1.51885,1.51929 -0.83901,0 -1.51909,-0.68028 -1.51884,-1.51929 -2.5e-4,-0.83901 0.67983,-1.51929 1.51884,-1.51929 0.83901,0 1.51909,0.68028 1.51885,1.51929 z m 10.4295,-3.54603 c 2.4e-4,0.83901 -0.67984,1.51929 -1.51885,1.51929 -0.83901,0 -1.51909,-0.68028 -1.51884,-1.51929 -2.5e-4,-0.83901 0.67983,-1.51929 1.51884,-1.51929 0.83901,0 1.51909,0.68028 1.51885,1.51929 z m 4.90187,9.49085 c 2.4e-4,0.83901 -0.67984,1.51929 -1.51885,1.51929 -0.83901,0 -1.51909,-0.68028 -1.51884,-1.51929 -2.5e-4,-0.83901 0.67983,-1.51929 1.51884,-1.51929 0.83901,0 1.51909,0.68028 1.51885,1.51929 z m 1.59035,10.25561 c 2.4e-4,0.83901 -0.67984,1.51929 -1.51885,1.51929 -0.83901,0 -1.51909,-0.68028 -1.51884,-1.51929 -2.5e-4,-0.83901 0.67983,-1.51929 1.51884,-1.51929 0.83901,0 1.51909,0.68028 1.51885,1.51929 z m -6.38793,11.22917 c 2.4e-4,0.83901 -0.67984,1.51929 -1.51885,1.51929 -0.83901,0 -1.51909,-0.68028 -1.51884,-1.51929 -2.5e-4,-0.83901 0.67983,-1.51929 1.51884,-1.51929 0.83901,0 1.51909,0.68028 1.51885,1.51929 z m 12.6197,-18.25163 c 2.4e-4,0.83901 -0.67984,1.51929 -1.51885,1.51929 -0.83901,0 -1.51909,-0.68028 -1.51884,-1.51929 -2.5e-4,-0.83901 0.67983,-1.51929 1.51884,-1.51929 0.83901,0 1.51909,0.68028 1.51885,1.51929 z m 9.80373,-1.56443 c 2.4e-4,0.83901 -0.67984,1.51929 -1.51885,1.51929 -0.83901,0 -1.51909,-0.68028 -1.51884,-1.51929 -2.5e-4,-0.83901 0.67983,-1.51929 1.51884,-1.51929 0.83901,0 1.51909,0.68028 1.51885,1.51929 z m 3.33744,8.55219 c 2.4e-4,0.83901 -0.67984,1.51929 -1.51885,1.51929 -0.83901,0 -1.51909,-0.68028 -1.51884,-1.51929 -2.5e-4,-0.83901 0.67983,-1.51929 1.51884,-1.51929 0.83901,0 1.51909,0.68028 1.51885,1.51929 z m -12.22845,6.85735 c 2.4e-4,0.83901 -0.67984,1.51929 -1.51885,1.51929 -0.83901,0 -1.51909,-0.68028 -1.51884,-1.51929 -2.5e-4,-0.83901 0.67983,-1.51929 1.51884,-1.51929 0.83901,0 1.51909,0.68028 1.51885,1.51929 z m 4.61491,-21.04147 c 2.4e-4,0.83901 -0.67984,1.51929 -1.51885,1.51929 -0.83901,0 -1.51909,-0.68028 -1.51884,-1.51929 -2.5e-4,-0.83901 0.67983,-1.51929 1.51884,-1.51929 0.83901,0 1.51909,0.68028 1.51885,1.51929 z m -6.77918,-7.40495 c 2.4e-4,0.83901 -0.67984,1.51929 -1.51885,1.51929 -0.83901,0 -1.51909,-0.68028 -1.51884,-1.51929 -2.5e-4,-0.83901 0.67983,-1.51929 1.51884,-1.51929 0.83901,0 1.51909,0.68028 1.51885,1.51929 z m 9.90803,1.46013 c 2.4e-4,0.83901 -0.67984,1.51929 -1.51885,1.51929 -0.83901,0 -1.51909,-0.68028 -1.51884,-1.51929 -2.5e-4,-0.83901 0.67983,-1.51929 1.51884,-1.51929 0.83901,0 1.51909,0.68028 1.51885,1.51929 z m 6.98777,6.88347 c 2.4e-4,0.83901 -0.67984,1.51929 -1.51885,1.51929 -0.83901,0 -1.51909,-0.68028 -1.51884,-1.51929 -2.5e-4,-0.83901 0.67983,-1.51929 1.51884,-1.51929 0.83901,0 1.51909,0.68028 1.51885,1.51929 z m 8.3659,-13.02658 c 2.4e-4,0.83901 -0.67984,1.51929 -1.51885,1.51929 -0.83901,0 -1.51909,-0.68028 -1.51884,-1.51929 -2.5e-4,-0.83901 0.67983,-1.51929 1.51884,-1.51929 0.83901,0 1.51909,0.68028 1.51885,1.51929 z m -7.42725,4.57868 c 2.4e-4,0.83901 -0.67984,1.51929 -1.51885,1.51929 -0.83901,0 -1.51909,-0.68028 -1.51884,-1.51929 -2.5e-4,-0.83901 0.67983,-1.51929 1.51884,-1.51929 0.83901,0 1.51909,0.68028 1.51885,1.51929 z m 23.15349,8.34361 c 2.4e-4,0.83901 -0.67984,1.51929 -1.51885,1.51929 -0.83901,0 -1.51909,-0.68028 -1.51884,-1.51929 -2.5e-4,-0.83901 0.67983,-1.51929 1.51884,-1.51929 0.83901,0 1.51909,0.68028 1.51885,1.51929 z m -8.56955,-4.38077 c 2.4e-4,0.83901 -0.67984,1.51929 -1.51885,1.51929 -0.83901,0 -1.51909,-0.68028 -1.51884,-1.51929 -2.5e-4,-0.83901 0.67983,-1.51929 1.51884,-1.51929 0.83901,0 1.51909,0.68028 1.51885,1.51929 z m -11.35957,-16.34801 c 2.4e-4,0.83901 -0.67984,1.51929 -1.51885,1.51929 -0.83901,0 -1.51909,-0.68028 -1.51884,-1.51929 -2.5e-4,-0.83901 0.67983,-1.51929 1.51884,-1.51929 0.83901,0 1.51909,0.68028 1.51885,1.51929 z m 6.68365,-6.80511 c 2.4e-4,0.83901 -0.67984,1.51929 -1.51885,1.51929 -0.83901,0 -1.51909,-0.68028 -1.51884,-1.51929 -2.5e-4,-0.83901 0.67983,-1.51929 1.51884,-1.51929 0.83901,0 1.51909,0.68028 1.51885,1.51929 z m 7.30065,-6.2577 c 2.4e-4,0.83901 -0.67984,1.51929 -1.51885,1.51929 -0.83901,0 -1.51909,-0.68028 -1.51884,-1.51929 -2.5e-4,-0.83901 0.67983,-1.51929 1.51884,-1.51929 0.83901,0 1.51909,0.68028 1.51885,1.51929 z m 5.73623,13.34977 c 2.4e-4,0.83901 -0.67984,1.51929 -1.51885,1.51929 -0.83901,0 -1.51909,-0.68028 -1.51884,-1.51929 -2.5e-4,-0.83901 0.67983,-1.51929 1.51884,-1.51929 0.83901,0 1.51909,0.68028 1.51885,1.51929 z m 6.93571,7.29207 c 2.4e-4,0.83901 -0.67984,1.51929 -1.51885,1.51929 -0.83901,0 -1.51909,-0.68028 -1.51884,-1.51929 -2.5e-4,-0.83901 0.67983,-1.51929 1.51884,-1.51929 0.83901,0 1.51909,0.68028 1.51885,1.51929 z m 5.33621,5.11923 c 2.4e-4,0.83901 -0.67984,1.51929 -1.51885,1.51929 -0.83901,0 -1.51909,-0.68028 -1.51884,-1.51929 -2.5e-4,-0.83901 0.67983,-1.51929 1.51884,-1.51929 0.83901,0 1.51909,0.68028 1.51885,1.51929 z m 11.6288,-8.10888 c 2.4e-4,0.83901 -0.67984,1.51929 -1.51885,1.51929 -0.83901,0 -1.51909,-0.68028 -1.51884,-1.51929 -2.5e-4,-0.83901 0.67983,-1.51929 1.51884,-1.51929 0.83901,0 1.51909,0.68028 1.51885,1.51929 z m -8.77794,-6.28402 c 2.4e-4,0.83901 -0.67984,1.51929 -1.51885,1.51929 -0.83901,0 -1.51909,-0.68028 -1.51884,-1.51929 -2.5e-4,-0.83901 0.67983,-1.51929 1.51884,-1.51929 0.83901,0 1.51909,0.68028 1.51885,1.51929 z m -15.29648,-7.82232 c 2.4e-4,0.83901 -0.67984,1.51929 -1.51885,1.51929 -0.83901,0 -1.51909,-0.68028 -1.51884,-1.51929 -2.5e-4,-0.83901 0.67983,-1.51929 1.51884,-1.51929 0.83901,0 1.51909,0.68028 1.51885,1.51929 z m 19.46827,1.04314 c 2.4e-4,0.83901 -0.67984,1.51929 -1.51885,1.51929 -0.83901,0 -1.51909,-0.68028 -1.51884,-1.51929 -2.5e-4,-0.83901 0.67983,-1.51929 1.51884,-1.51929 0.83901,0 1.51909,0.68028 1.51885,1.51929 z m 18.82496,0.66067 c 2.4e-4,0.83901 -0.67984,1.51929 -1.51885,1.51929 -0.83901,0 -1.51909,-0.68028 -1.51884,-1.51929 -2.5e-4,-0.83901 0.67983,-1.51929 1.51884,-1.51929 0.83901,0 1.51909,0.68028 1.51885,1.51929 z m -9.90888,0.77705 c 2.4e-4,0.83901 -0.67984,1.51929 -1.51885,1.51929 -0.83901,0 -1.51909,-0.68028 -1.51884,-1.51929 -2.5e-4,-0.83901 0.67983,-1.51929 1.51884,-1.51929 0.83901,0 1.51909,0.68028 1.51885,1.51929 z m -6.64257,-12.25999 c 2.4e-4,0.83901 -0.67984,1.51929 -1.51885,1.51929 -0.83901,0 -1.51909,-0.68028 -1.51884,-1.51929 -2.5e-4,-0.83901 0.67983,-1.51929 1.51884,-1.51929 0.83901,0 1.51909,0.68028 1.51885,1.51929 z m 14.75694,-14.21124 c 2.4e-4,0.83901 -0.67984,1.51929 -1.51885,1.51929 -0.83901,0 -1.51909,-0.68028 -1.51884,-1.51929 -2.5e-4,-0.83901 0.67983,-1.51929 1.51884,-1.51929 0.83901,0 1.51909,0.68028 1.51885,1.51929 z m 1.70749,9.07326 c 2.4e-4,0.83901 -0.67984,1.51929 -1.51885,1.51929 -0.83901,0 -1.51909,-0.68028 -1.51884,-1.51929 -2.5e-4,-0.83901 0.67983,-1.51929 1.51884,-1.51929 0.83901,0 1.51909,0.68028 1.51885,1.51929 z m 8.07017,5.33973 c 2.4e-4,0.83901 -0.67984,1.51929 -1.51885,1.51929 -0.83901,0 -1.51909,-0.68028 -1.51884,-1.51929 -2.5e-4,-0.83901 0.67983,-1.51929 1.51884,-1.51929 0.83901,0 1.51909,0.68028 1.51885,1.51929 z m 3.42006,-7.12991 c 2.4e-4,0.83901 -0.67984,1.51929 -1.51885,1.51929 -0.83901,0 -1.51909,-0.68028 -1.51884,-1.51929 -2.5e-4,-0.83901 0.67983,-1.51929 1.51884,-1.51929 0.83901,0 1.51909,0.68028 1.51885,1.51929 z m -35.05771,-1.92776 c 2.4e-4,0.83901 -0.67984,1.51929 -1.51885,1.51929 -0.83901,0 -1.51909,-0.68028 -1.51884,-1.51929 -2.5e-4,-0.83901 0.67983,-1.51929 1.51884,-1.51929 0.83901,0 1.51909,0.68028 1.51885,1.51929 z m -2.60439,10.1368 c 2.4e-4,0.83901 -0.67984,1.51929 -1.51885,1.51929 -0.83901,0 -1.51909,-0.68028 -1.51884,-1.51929 -2.5e-4,-0.83901 0.67983,-1.51929 1.51884,-1.51929 0.83901,0 1.51909,0.68028 1.51885,1.51929 z" />
                                </g>
                                </g>
                                </g>
                                </g>
                                </g>
                                </g>
                                </g>
                                </g>
                                </g>
                                </g>
                                </g>
                                </g>
                                </g>
                                </g>
                                </g>
                              </g>
                            </g>
                          </g>
                        </g>
                      </g>
                    </g>
                  </g>
                </g>
              </g>
            </g>
          </g>
        </g>
      </g>
    </g>
  </g>
</svg>
