<?xml version="1.0" encoding="UTF-8" standalone="no"?>
<!-- Created with Inkscape (http://www.inkscape.org/) -->

<svg
   xmlns:dc="http://purl.org/dc/elements/1.1/"
   xmlns:cc="http://creativecommons.org/ns#"
   xmlns:rdf="http://www.w3.org/1999/02/22-rdf-syntax-ns#"
   xmlns:svg="http://www.w3.org/2000/svg"
   xmlns="http://www.w3.org/2000/svg"
   xmlns:sodipodi="http://sodipodi.sourceforge.net/DTD/sodipodi-0.dtd"
   xmlns:inkscape="http://www.inkscape.org/namespaces/inkscape"
   width="174.34778"
   height="85.758995"
   id="svg2"
   version="1.1"
   inkscape:version="0.48.3.1 r9886"
   sodipodi:docname="barba6.svg">
  <defs
     id="defs4" />
  <sodipodi:namedview
     id="base"
     pagecolor="#ffffff"
     bordercolor="#666666"
     borderopacity="1.0"
     inkscape:pageopacity="0.0"
     inkscape:pageshadow="2"
     inkscape:zoom="0.35"
     inkscape:cx="87.173886"
     inkscape:cy="42.879497"
     inkscape:document-units="px"
     inkscape:current-layer="layer1"
     showgrid="false"
     fit-margin-top="0"
     fit-margin-left="0"
     fit-margin-right="0"
     fit-margin-bottom="0"
     inkscape:window-width="552"
     inkscape:window-height="752"
     inkscape:window-x="65"
     inkscape:window-y="24"
     inkscape:window-maximized="0" />
  <metadata
     id="metadata7">
    <rdf:RDF>
      <cc:Work
         rdf:about="">
        <dc:format>image/svg+xml</dc:format>
        <dc:type
           rdf:resource="http://purl.org/dc/dcmitype/StillImage" />
        <dc:title></dc:title>
      </cc:Work>
    </rdf:RDF>
  </metadata>
  <g
     inkscape:label="Capa 1"
     inkscape:groupmode="layer"
     id="layer1"
     transform="translate(-262.82612,-489.48268)">
    <g
       transform="translate(-145.57145,-335.92915)"
       inkscape:label="Layer 1"
       id="layer1-17">
      <g
         inkscape:export-ydpi="90"
         inkscape:export-xdpi="90"
         id="g6846">
        <g
           inkscape:label="Capa 1"
           id="layer1-4"
           transform="translate(608.2923,-216.81779)">
          <g
             inkscape:label="Capa 1"
             id="layer1-0"
             transform="translate(-464.26829,9.26096)">
            <g
               transform="matrix(2,0,0,2,-125.03069,-1240.877)"
               id="g7230">
              <g
                 inkscape:label="Capa 1"
                 id="layer1-5"
                 transform="matrix(0.5,0,0,0.5,198.03499,723.12882)">
                <g
                   id="g3815">
                  <g
                     inkscape:label="Capa 1"
                     id="layer1-8"
                     transform="translate(-509.47265,-858.01422)">
                    <g
                       id="g4403">
                      <g
                         id="g5615">
                        <g
                           inkscape:label="Capa 1"
                           id="layer1-9"
                           transform="translate(34.810242,624.88049)">
                          <g
                             id="g4728"
                             transform="matrix(0.86372251,0,0,0.75945223,-6.6412836,551.71009)">
                            <g
                               inkscape:label="Capa 1"
                               id="layer1-42"
                               transform="matrix(1.1577793,0,0,1.3167385,-36.133084,-705.63507)">
                              <g
                                 id="g5224"
                                 transform="matrix(0.88307479,0,0,0.70910051,43.988222,438.13275)">
                                <g
                                   inkscape:label="Capa 1"
                                   id="layer1-02"
                                   transform="matrix(1.1324069,0,0,1.4102373,58.462682,-691.18829)">
                                <g
                                   id="g5286"
                                   transform="matrix(1.127305,0,0,1.127305,-48.449071,-93.350364)">
                                <g
                                   inkscape:label="Layer 1"
                                   id="layer1-7"
                                   transform="matrix(0.88707135,0,0,0.8870714,15.021825,628.39384)">
                                <g
                                   id="g5030"
                                   transform="matrix(1.5713649,0,0,1.5551129,-182.98344,-134.01333)">
                                <g
                                   inkscape:label="Capa 1"
                                   id="layer1-72"
                                   transform="matrix(0.63638942,0,0,0.64304013,66.223794,-101.46956)">
                                <g
                                   transform="translate(66.411606,232.19706)"
                                   id="layer1-06"
                                   inkscape:label="Layer 1">
                                <g
                                   inkscape:label="Capa 1"
                                   id="layer1-85"
                                   transform="translate(-63.980856,-142.78077)">
                                <g
                                   id="g11416">
                                <g
                                   id="layer1-1"
                                   inkscape:label="Layer 1"
                                   transform="translate(-1051.8062,-2761.3737)">
                                <g
                                   id="g12903">
                                <g
                                   transform="matrix(2,0,0,2,-1689.5,-3023.4999)"
                                   id="g12881">
                                <g
                                   id="layer1-41"
                                   inkscape:label="Layer 1"
                                   transform="matrix(0.5,0,0,0.5,1445.6768,3035.6911)">
                                <g
                                   id="g36550"
                                   transform="matrix(1.5803703,0,0,1.5783361,-185.78827,-139.12469)">
                                <g
                                   id="g2464"
                                   transform="matrix(0.47889074,0,0,0.56843571,312.31421,202.25439)">
                                <path
                                   inkscape:connector-curvature="0"
                                   id="path4746"
                                   style="fill:#000000;fill-opacity:1;stroke:none"
                                   d="m 103.03347,268.14235 c 2.4e-4,0.83901 -0.67984,1.51929 -1.51885,1.51929 -0.83901,0 -1.519088,-0.68028 -1.518842,-1.51929 -2.46e-4,-0.83901 0.679832,-1.51929 1.518842,-1.51929 0.83901,0 1.51909,0.68028 1.51885,1.51929 z m 9.71641,12.70607 c 2.4e-4,0.83901 -0.67984,1.51929 -1.51885,1.51929 -0.83901,0 -1.51909,-0.68028 -1.51884,-1.51929 -2.5e-4,-0.83901 0.67983,-1.51929 1.51884,-1.51929 0.83901,0 1.51909,0.68028 1.51885,1.51929 z m 2.98966,-17.93798 c 2.4e-4,0.83901 -0.67984,1.51929 -1.51885,1.51929 -0.83901,0 -1.51909,-0.68028 -1.51884,-1.51929 -2.5e-4,-0.83901 0.67983,-1.51929 1.51884,-1.51929 0.83901,0 1.51909,0.68028 1.51885,1.51929 z M 97.054141,252.44662 c 2.46e-4,0.83901 -0.679836,1.51929 -1.518845,1.51929 -0.839009,0 -1.519091,-0.68028 -1.518845,-1.51929 -2.46e-4,-0.83901 0.679836,-1.51929 1.518845,-1.51929 0.839009,0 1.519091,0.68028 1.518845,1.51929 z m 36.997089,39.98675 c 2.4e-4,0.83901 -0.67984,1.51929 -1.51885,1.51929 -0.83901,0 -1.51909,-0.68028 -1.51884,-1.51929 -2.5e-4,-0.83901 0.67983,-1.51929 1.51884,-1.51929 0.83901,0 1.51909,0.68028 1.51885,1.51929 z m -2.24225,-16.81686 c 2.4e-4,0.83901 -0.67984,1.51929 -1.51885,1.51929 -0.83901,0 -1.51909,-0.68028 -1.51884,-1.51929 -2.5e-4,-0.83901 0.67983,-1.51929 1.51884,-1.51929 0.83901,0 1.51909,0.68028 1.51885,1.51929 z m -4.8582,-28.02809 c 2.4e-4,0.83901 -0.67984,1.51929 -1.51885,1.51929 -0.83901,0 -1.51909,-0.68028 -1.51884,-1.51929 -2.5e-4,-0.83901 0.67983,-1.51929 1.51884,-1.51929 0.83901,0 1.51909,0.68028 1.51885,1.51929 z m 25.41214,52.31911 c 2.4e-4,0.83901 -0.67984,1.51929 -1.51885,1.51929 -0.83901,0 -1.51909,-0.68028 -1.51884,-1.51929 -2.5e-4,-0.83901 0.67983,-1.51929 1.51884,-1.51929 0.83901,0 1.51909,0.68028 1.51885,1.51929 z m 2.98966,18.6854 c 2.4e-4,0.83901 -0.67984,1.51929 -1.51885,1.51929 -0.83901,0 -1.51909,-0.68028 -1.51884,-1.51929 -2.5e-4,-0.83901 0.67983,-1.51929 1.51884,-1.51929 0.83901,0 1.51909,0.68028 1.51885,1.51929 z m 24.29102,7.84787 c 2.4e-4,0.83901 -0.67984,1.51929 -1.51885,1.51929 -0.83901,0 -1.51909,-0.68028 -1.51884,-1.51929 -2.5e-4,-0.83901 0.67983,-1.51929 1.51884,-1.51929 0.83901,0 1.51909,0.68028 1.51885,1.51929 z m 27.65438,2.61595 c 2.4e-4,0.83901 -0.67984,1.51929 -1.51885,1.51929 -0.83901,0 -1.51909,-0.68028 -1.51884,-1.51929 -2.5e-4,-0.83901 0.67983,-1.51929 1.51884,-1.51929 0.83901,0 1.51909,0.68028 1.51885,1.51929 z m -31.76517,-19.43281 c 2.4e-4,0.83901 -0.67984,1.51929 -1.51885,1.51929 -0.83901,0 -1.51909,-0.68028 -1.51884,-1.51929 -2.5e-4,-0.83901 0.67983,-1.51929 1.51884,-1.51929 0.83901,0 1.51909,0.68028 1.51885,1.51929 z m 20.55394,5.97933 c 2.4e-4,0.83901 -0.67984,1.51929 -1.51885,1.51929 -0.83901,0 -1.51909,-0.68028 -1.51884,-1.51929 -2.5e-4,-0.83901 0.67983,-1.51929 1.51884,-1.51929 0.83901,0 1.51909,0.68028 1.51885,1.51929 z m 23.16989,-5.60562 c 2.4e-4,0.83901 -0.67984,1.51929 -1.51885,1.51929 -0.83901,0 -1.51909,-0.68028 -1.51884,-1.51929 -2.5e-4,-0.83901 0.67983,-1.51929 1.51884,-1.51929 0.83901,0 1.51909,0.68028 1.51885,1.51929 z m 6.35303,13.45349 c 2.4e-4,0.83901 -0.67984,1.51929 -1.51885,1.51929 -0.83901,0 -1.51909,-0.68028 -1.51884,-1.51929 -2.5e-4,-0.83901 0.67983,-1.51929 1.51884,-1.51929 0.83901,0 1.51909,0.68028 1.51885,1.51929 z m 5.97933,-28.02809 c 2.4e-4,0.83901 -0.67984,1.51929 -1.51885,1.51929 -0.83901,0 -1.51909,-0.68028 -1.51884,-1.51929 -2.5e-4,-0.83901 0.67983,-1.51929 1.51884,-1.51929 0.83901,0 1.51909,0.68028 1.51885,1.51929 z m 11.95865,21.30135 c 2.4e-4,0.83901 -0.67984,1.51929 -1.51885,1.51929 -0.83901,0 -1.51909,-0.68028 -1.51884,-1.51929 -2.5e-4,-0.83901 0.67983,-1.51929 1.51884,-1.51929 0.83901,0 1.51909,0.68028 1.51885,1.51929 z m 11.21124,-18.31169 c 2.4e-4,0.83901 -0.67984,1.51929 -1.51885,1.51929 -0.83901,0 -1.51909,-0.68028 -1.51884,-1.51929 -2.5e-4,-0.83901 0.67983,-1.51929 1.51884,-1.51929 0.83901,0 1.51909,0.68028 1.51885,1.51929 z m -2.61596,-8.59528 c 2.4e-4,0.83901 -0.67984,1.51929 -1.51885,1.51929 -0.83901,0 -1.51909,-0.68028 -1.51884,-1.51929 -2.5e-4,-0.83901 0.67983,-1.51929 1.51884,-1.51929 0.83901,0 1.51909,0.68028 1.51885,1.51929 z m 9.3427,14.57461 c 2.4e-4,0.83901 -0.67984,1.51929 -1.51885,1.51929 -0.83901,0 -1.51909,-0.68028 -1.51884,-1.51929 -2.5e-4,-0.83901 0.67983,-1.51929 1.51884,-1.51929 0.83901,0 1.51909,0.68028 1.51885,1.51929 z m 6.72674,-13.45348 c 2.4e-4,0.83901 -0.67984,1.51929 -1.51885,1.51929 -0.83901,0 -1.51909,-0.68028 -1.51884,-1.51929 -2.5e-4,-0.83901 0.67983,-1.51929 1.51884,-1.51929 0.83901,0 1.51909,0.68028 1.51885,1.51929 z m 0.59793,-10.98702 c 2.4e-4,0.83901 -0.67984,1.51929 -1.51885,1.51929 -0.83901,0 -1.51909,-0.68028 -1.51884,-1.51929 -2.5e-4,-0.83901 0.67983,-1.51929 1.51884,-1.51929 0.83901,0 1.51909,0.68028 1.51885,1.51929 z m 22.19826,-7.69838 c 2.4e-4,0.83901 -0.67984,1.51929 -1.51885,1.51929 -0.83901,0 -1.51909,-0.68028 -1.51884,-1.51929 -2.5e-4,-0.83901 0.67983,-1.51929 1.51884,-1.51929 0.83901,0 1.51909,0.68028 1.51885,1.51929 z M 137.4146,306.63429 c 2.4e-4,0.83901 -0.67984,1.51929 -1.51885,1.51929 -0.83901,0 -1.51909,-0.68028 -1.51884,-1.51929 -2.5e-4,-0.83901 0.67983,-1.51929 1.51884,-1.51929 0.83901,0 1.51909,0.68028 1.51885,1.51929 z m 149.18422,-44.99443 c 2.4e-4,0.83901 -0.67984,1.51929 -1.51885,1.51929 -0.83901,0 -1.51909,-0.68028 -1.51884,-1.51929 -2.5e-4,-0.83901 0.67983,-1.51929 1.51884,-1.51929 0.83901,0 1.51909,0.68028 1.51885,1.51929 z m -9.79115,-6.57726 c 2.4e-4,0.83901 -0.67984,1.51929 -1.51885,1.51929 -0.83901,0 -1.51909,-0.68028 -1.51884,-1.51929 -2.5e-4,-0.83901 0.67983,-1.51929 1.51884,-1.51929 0.83901,0 1.51909,0.68028 1.51885,1.51929 z m -188.3488,8.22157 c 2.46e-4,0.83901 -0.679836,1.51929 -1.518845,1.51929 -0.839009,0 -1.519091,-0.68028 -1.518845,-1.51929 -2.46e-4,-0.83901 0.679836,-1.51929 1.518845,-1.51929 0.839009,0 1.519091,0.68028 1.518845,1.51929 z m 21.67506,-13.45349 c 2.4e-4,0.83901 -0.67984,1.51929 -1.51885,1.51929 -0.83901,0 -1.51909,-0.68028 -1.51884,-1.51929 -2.5e-4,-0.83901 0.67983,-1.51929 1.51884,-1.51929 0.83901,0 1.51909,0.68028 1.51885,1.51929 z m -27.280681,-1.12112 c 2.46e-4,0.83901 -0.679836,1.51929 -1.518845,1.51929 -0.839009,0 -1.519091,-0.68028 -1.518845,-1.51929 -2.46e-4,-0.83901 0.679836,-1.51929 1.518845,-1.51929 0.839009,0 1.519091,0.68028 1.518845,1.51929 z m 107.627891,86.32653 c 2.4e-4,0.83901 -0.67984,1.51929 -1.51885,1.51929 -0.83901,0 -1.51909,-0.68028 -1.51884,-1.51929 -2.5e-4,-0.83901 0.67983,-1.51929 1.51884,-1.51929 0.83901,0 1.51909,0.68028 1.51885,1.51929 z m -30.64405,-24.29102 c 2.4e-4,0.83901 -0.67984,1.51929 -1.51885,1.51929 -0.83901,0 -1.51909,-0.68028 -1.51884,-1.51929 -2.5e-4,-0.83901 0.67983,-1.51929 1.51884,-1.51929 0.83901,0 1.51909,0.68028 1.51885,1.51929 z m 6.35303,17.56427 c 2.4e-4,0.83901 -0.67984,1.51929 -1.51885,1.51929 -0.83901,0 -1.51909,-0.68028 -1.51884,-1.51929 -2.5e-4,-0.83901 0.67983,-1.51929 1.51884,-1.51929 0.83901,0 1.51909,0.68028 1.51885,1.51929 z m -45.21866,-35.12855 c 2.4e-4,0.83901 -0.67984,1.51929 -1.51885,1.51929 -0.83901,0 -1.51909,-0.68028 -1.51884,-1.51929 -2.5e-4,-0.83901 0.67983,-1.51929 1.51884,-1.51929 0.83901,0 1.51909,0.68028 1.51885,1.51929 z m -3.61252,-21.92421 c 2.4e-4,0.83901 -0.67984,1.51929 -1.51885,1.51929 -0.83901,0 -1.51909,-0.68028 -1.51884,-1.51929 -2.5e-4,-0.83901 0.67983,-1.51929 1.51884,-1.51929 0.83901,0 1.51909,0.68028 1.51885,1.51929 z m 6.98777,12.72399 c 2.4e-4,0.83901 -0.67984,1.51929 -1.51885,1.51929 -0.83901,0 -1.51909,-0.68028 -1.51884,-1.51929 -2.5e-4,-0.83901 0.67983,-1.51929 1.51884,-1.51929 0.83901,0 1.51909,0.68028 1.51885,1.51929 z m -23.88356,-6.362 c 2.4e-4,0.83901 -0.679838,1.51929 -1.518847,1.51929 -0.839009,0 -1.519091,-0.68028 -1.518845,-1.51929 -2.46e-4,-0.83901 0.679836,-1.51929 1.518845,-1.51929 0.839009,0 1.519087,0.68028 1.518847,1.51929 z m -0.730072,-18.66881 c 2.46e-4,0.83901 -0.679836,1.51929 -1.518845,1.51929 -0.839009,0 -1.519091,-0.68028 -1.518845,-1.51929 -2.46e-4,-0.83901 0.679836,-1.51929 1.518845,-1.51929 0.839009,0 1.519091,0.68028 1.518845,1.51929 z M 84.506004,256.0295 c 2.46e-4,0.83901 -0.679836,1.51929 -1.518845,1.51929 -0.839009,0 -1.519091,-0.68028 -1.518845,-1.51929 -2.46e-4,-0.83901 0.679836,-1.51929 1.518845,-1.51929 0.839009,0 1.519091,0.68028 1.518845,1.51929 z m 9.699437,15.74855 c 2.46e-4,0.83901 -0.679836,1.51929 -1.518845,1.51929 -0.839009,0 -1.519091,-0.68028 -1.518845,-1.51929 -2.46e-4,-0.83901 0.679836,-1.51929 1.518845,-1.51929 0.839009,0 1.519091,0.68028 1.518845,1.51929 z m 27.429589,-14.80989 c 2.4e-4,0.83901 -0.67984,1.51929 -1.51885,1.51929 -0.83901,0 -1.51909,-0.68028 -1.51884,-1.51929 -2.5e-4,-0.83901 0.67983,-1.51929 1.51884,-1.51929 0.83901,0 1.51909,0.68028 1.51885,1.51929 z m 4.38039,12.09822 c 2.4e-4,0.83901 -0.67984,1.51929 -1.51885,1.51929 -0.83901,0 -1.51909,-0.68028 -1.51884,-1.51929 -2.5e-4,-0.83901 0.67983,-1.51929 1.51884,-1.51929 0.83901,0 1.51909,0.68028 1.51885,1.51929 z M 145.31,274.9069 c 2.4e-4,0.83901 -0.67984,1.51929 -1.51885,1.51929 -0.83901,0 -1.51909,-0.68028 -1.51884,-1.51929 -2.5e-4,-0.83901 0.67983,-1.51929 1.51884,-1.51929 0.83901,0 1.51909,0.68028 1.51885,1.51929 z m -8.3436,8.4479 c 2.4e-4,0.83901 -0.67984,1.51929 -1.51885,1.51929 -0.83901,0 -1.51909,-0.68028 -1.51884,-1.51929 -2.5e-4,-0.83901 0.67983,-1.51929 1.51884,-1.51929 0.83901,0 1.51909,0.68028 1.51885,1.51929 z m 14.6013,1.35584 c 2.4e-4,0.83901 -0.67984,1.51929 -1.51885,1.51929 -0.83901,0 -1.51909,-0.68028 -1.51884,-1.51929 -2.5e-4,-0.83901 0.67983,-1.51929 1.51884,-1.51929 0.83901,0 1.51909,0.68028 1.51885,1.51929 z m -10.01232,8.96937 c 2.4e-4,0.83901 -0.67984,1.51929 -1.51885,1.51929 -0.83901,0 -1.51909,-0.68028 -1.51884,-1.51929 -2.5e-4,-0.83901 0.67983,-1.51929 1.51884,-1.51929 0.83901,0 1.51909,0.68028 1.51885,1.51929 z m 0,0 c 2.4e-4,0.83901 -0.67984,1.51929 -1.51885,1.51929 -0.83901,0 -1.51909,-0.68028 -1.51884,-1.51929 -2.5e-4,-0.83901 0.67983,-1.51929 1.51884,-1.51929 0.83901,0 1.51909,0.68028 1.51885,1.51929 z m 16.06143,-1.98161 c 2.4e-4,0.83901 -0.67984,1.51929 -1.51885,1.51929 -0.83901,0 -1.51909,-0.68028 -1.51884,-1.51929 -2.5e-4,-0.83901 0.67983,-1.51929 1.51884,-1.51929 0.83901,0 1.51909,0.68028 1.51885,1.51929 z m -9.69944,18.7731 c 2.4e-4,0.83901 -0.67984,1.51929 -1.51885,1.51929 -0.83901,0 -1.51909,-0.68028 -1.51884,-1.51929 -2.5e-4,-0.83901 0.67983,-1.51929 1.51884,-1.51929 0.83901,0 1.51909,0.68028 1.51885,1.51929 z m -17.93874,-9.80373 c 2.4e-4,0.83901 -0.67984,1.51929 -1.51885,1.51929 -0.83901,0 -1.51909,-0.68028 -1.51884,-1.51929 -2.5e-4,-0.83901 0.67983,-1.51929 1.51884,-1.51929 0.83901,0 1.51909,0.68028 1.51885,1.51929 z m 12.93258,15.43566 c 2.4e-4,0.83901 -0.67984,1.51929 -1.51885,1.51929 -0.83901,0 -1.51909,-0.68028 -1.51884,-1.51929 -2.5e-4,-0.83901 0.67983,-1.51929 1.51884,-1.51929 0.83901,0 1.51909,0.68028 1.51885,1.51929 z m 20.33753,-13.66265 c 2.4e-4,0.83901 -0.67984,1.51929 -1.51885,1.51929 -0.83901,0 -1.51909,-0.68028 -1.51884,-1.51929 -2.5e-4,-0.83901 0.67983,-1.51929 1.51884,-1.51929 0.83901,0 1.51909,0.68028 1.51885,1.51929 z m 4.58898,9.49085 c 2.4e-4,0.83901 -0.67984,1.51929 -1.51885,1.51929 -0.83901,0 -1.51909,-0.68028 -1.51884,-1.51929 -2.5e-4,-0.83901 0.67983,-1.51929 1.51884,-1.51929 0.83901,0 1.51909,0.68028 1.51885,1.51929 z m -4.69328,10.01232 c 2.4e-4,0.83901 -0.67984,1.51929 -1.51885,1.51929 -0.83901,0 -1.51909,-0.68028 -1.51884,-1.51929 -2.5e-4,-0.83901 0.67983,-1.51929 1.51884,-1.51929 0.83901,0 1.51909,0.68028 1.51885,1.51929 z m 9.59514,11.78534 c 2.4e-4,0.83901 -0.67984,1.51929 -1.51885,1.51929 -0.83901,0 -1.51909,-0.68028 -1.51884,-1.51929 -2.5e-4,-0.83901 0.67983,-1.51929 1.51884,-1.51929 0.83901,0 1.51909,0.68028 1.51885,1.51929 z m 9.38655,2.50308 c 2.4e-4,0.83901 -0.67984,1.51929 -1.51885,1.51929 -0.83901,0 -1.51909,-0.68028 -1.51884,-1.51929 -2.5e-4,-0.83901 0.67983,-1.51929 1.51884,-1.51929 0.83901,0 1.51909,0.68028 1.51885,1.51929 z m -9.38655,-9.90803 c 2.4e-4,0.83901 -0.67984,1.51929 -1.51885,1.51929 -0.83901,0 -1.51909,-0.68028 -1.51884,-1.51929 -2.5e-4,-0.83901 0.67983,-1.51929 1.51884,-1.51929 0.83901,0 1.51909,0.68028 1.51885,1.51929 z m 0.52148,-7.19636 c 2.4e-4,0.83901 -0.67984,1.51929 -1.51885,1.51929 -0.83901,0 -1.51909,-0.68028 -1.51884,-1.51929 -2.5e-4,-0.83901 0.67983,-1.51929 1.51884,-1.51929 0.83901,0 1.51909,0.68028 1.51885,1.51929 z m -17.52156,6.15341 c 2.4e-4,0.83901 -0.67984,1.51929 -1.51885,1.51929 -0.83901,0 -1.51909,-0.68028 -1.51884,-1.51929 -2.5e-4,-0.83901 0.67983,-1.51929 1.51884,-1.51929 0.83901,0 1.51909,0.68028 1.51885,1.51929 z m 24.82221,-10.4295 c 2.4e-4,0.83901 -0.67984,1.51929 -1.51885,1.51929 -0.83901,0 -1.51909,-0.68028 -1.51884,-1.51929 -2.5e-4,-0.83901 0.67983,-1.51929 1.51884,-1.51929 0.83901,0 1.51909,0.68028 1.51885,1.51929 z m -9.59514,-12.72399 c 2.4e-4,0.83901 -0.67984,1.51929 -1.51885,1.51929 -0.83901,0 -1.51909,-0.68028 -1.51884,-1.51929 -2.5e-4,-0.83901 0.67983,-1.51929 1.51884,-1.51929 0.83901,0 1.51909,0.68028 1.51885,1.51929 z m 17.73015,8.96937 c 2.4e-4,0.83901 -0.67984,1.51929 -1.51885,1.51929 -0.83901,0 -1.51909,-0.68028 -1.51884,-1.51929 -2.5e-4,-0.83901 0.67983,-1.51929 1.51884,-1.51929 0.83901,0 1.51909,0.68028 1.51885,1.51929 z m 3.33744,11.26386 c 2.4e-4,0.83901 -0.67984,1.51929 -1.51885,1.51929 -0.83901,0 -1.51909,-0.68028 -1.51884,-1.51929 -2.5e-4,-0.83901 0.67983,-1.51929 1.51884,-1.51929 0.83901,0 1.51909,0.68028 1.51885,1.51929 z m -5.84052,7.71783 c 2.4e-4,0.83901 -0.67984,1.51929 -1.51885,1.51929 -0.83901,0 -1.51909,-0.68028 -1.51884,-1.51929 -2.5e-4,-0.83901 0.67983,-1.51929 1.51884,-1.51929 0.83901,0 1.51909,0.68028 1.51885,1.51929 z m 13.45406,6.57059 c 2.4e-4,0.83901 -0.67984,1.51929 -1.51885,1.51929 -0.83901,0 -1.51909,-0.68028 -1.51884,-1.51929 -2.5e-4,-0.83901 0.67983,-1.51929 1.51884,-1.51929 0.83901,0 1.51909,0.68028 1.51885,1.51929 z m -4.69328,-6.57059 c 2.4e-4,0.83901 -0.67984,1.51929 -1.51885,1.51929 -0.83901,0 -1.51909,-0.68028 -1.51884,-1.51929 -2.5e-4,-0.83901 0.67983,-1.51929 1.51884,-1.51929 0.83901,0 1.51909,0.68028 1.51885,1.51929 z m 7.19637,-8.50873 c 2.4e-4,0.83901 -0.67984,1.51929 -1.51885,1.51929 -0.83901,0 -1.51909,-0.68028 -1.51884,-1.51929 -2.5e-4,-0.83901 0.67983,-1.51929 1.51884,-1.51929 0.83901,0 1.51909,0.68028 1.51885,1.51929 z m 2.71166,-7.657 c 2.4e-4,0.83901 -0.67984,1.51929 -1.51885,1.51929 -0.83901,0 -1.51909,-0.68028 -1.51884,-1.51929 -2.5e-4,-0.83901 0.67983,-1.51929 1.51884,-1.51929 0.83901,0 1.51909,0.68028 1.51885,1.51929 z m -6.88347,-5.52764 c 2.4e-4,0.83901 -0.67984,1.51929 -1.51885,1.51929 -0.83901,0 -1.51909,-0.68028 -1.51884,-1.51929 -2.5e-4,-0.83901 0.67983,-1.51929 1.51884,-1.51929 0.83901,0 1.51909,0.68028 1.51885,1.51929 z m 10.4295,-3.54603 c 2.4e-4,0.83901 -0.67984,1.51929 -1.51885,1.51929 -0.83901,0 -1.51909,-0.68028 -1.51884,-1.51929 -2.5e-4,-0.83901 0.67983,-1.51929 1.51884,-1.51929 0.83901,0 1.51909,0.68028 1.51885,1.51929 z m 4.90187,9.49085 c 2.4e-4,0.83901 -0.67984,1.51929 -1.51885,1.51929 -0.83901,0 -1.51909,-0.68028 -1.51884,-1.51929 -2.5e-4,-0.83901 0.67983,-1.51929 1.51884,-1.51929 0.83901,0 1.51909,0.68028 1.51885,1.51929 z m 1.59035,10.25561 c 2.4e-4,0.83901 -0.67984,1.51929 -1.51885,1.51929 -0.83901,0 -1.51909,-0.68028 -1.51884,-1.51929 -2.5e-4,-0.83901 0.67983,-1.51929 1.51884,-1.51929 0.83901,0 1.51909,0.68028 1.51885,1.51929 z m -6.38793,11.22917 c 2.4e-4,0.83901 -0.67984,1.51929 -1.51885,1.51929 -0.83901,0 -1.51909,-0.68028 -1.51884,-1.51929 -2.5e-4,-0.83901 0.67983,-1.51929 1.51884,-1.51929 0.83901,0 1.51909,0.68028 1.51885,1.51929 z m 12.6197,-18.25163 c 2.4e-4,0.83901 -0.67984,1.51929 -1.51885,1.51929 -0.83901,0 -1.51909,-0.68028 -1.51884,-1.51929 -2.5e-4,-0.83901 0.67983,-1.51929 1.51884,-1.51929 0.83901,0 1.51909,0.68028 1.51885,1.51929 z m 9.80373,-1.56443 c 2.4e-4,0.83901 -0.67984,1.51929 -1.51885,1.51929 -0.83901,0 -1.51909,-0.68028 -1.51884,-1.51929 -2.5e-4,-0.83901 0.67983,-1.51929 1.51884,-1.51929 0.83901,0 1.51909,0.68028 1.51885,1.51929 z m 3.33744,8.55219 c 2.4e-4,0.83901 -0.67984,1.51929 -1.51885,1.51929 -0.83901,0 -1.51909,-0.68028 -1.51884,-1.51929 -2.5e-4,-0.83901 0.67983,-1.51929 1.51884,-1.51929 0.83901,0 1.51909,0.68028 1.51885,1.51929 z m -12.22845,6.85735 c 2.4e-4,0.83901 -0.67984,1.51929 -1.51885,1.51929 -0.83901,0 -1.51909,-0.68028 -1.51884,-1.51929 -2.5e-4,-0.83901 0.67983,-1.51929 1.51884,-1.51929 0.83901,0 1.51909,0.68028 1.51885,1.51929 z m 4.61491,-21.04147 c 2.4e-4,0.83901 -0.67984,1.51929 -1.51885,1.51929 -0.83901,0 -1.51909,-0.68028 -1.51884,-1.51929 -2.5e-4,-0.83901 0.67983,-1.51929 1.51884,-1.51929 0.83901,0 1.51909,0.68028 1.51885,1.51929 z m -6.77918,-7.40495 c 2.4e-4,0.83901 -0.67984,1.51929 -1.51885,1.51929 -0.83901,0 -1.51909,-0.68028 -1.51884,-1.51929 -2.5e-4,-0.83901 0.67983,-1.51929 1.51884,-1.51929 0.83901,0 1.51909,0.68028 1.51885,1.51929 z m 9.90803,1.46013 c 2.4e-4,0.83901 -0.67984,1.51929 -1.51885,1.51929 -0.83901,0 -1.51909,-0.68028 -1.51884,-1.51929 -2.5e-4,-0.83901 0.67983,-1.51929 1.51884,-1.51929 0.83901,0 1.51909,0.68028 1.51885,1.51929 z m 6.98777,6.88347 c 2.4e-4,0.83901 -0.67984,1.51929 -1.51885,1.51929 -0.83901,0 -1.51909,-0.68028 -1.51884,-1.51929 -2.5e-4,-0.83901 0.67983,-1.51929 1.51884,-1.51929 0.83901,0 1.51909,0.68028 1.51885,1.51929 z m 8.3659,-13.02658 c 2.4e-4,0.83901 -0.67984,1.51929 -1.51885,1.51929 -0.83901,0 -1.51909,-0.68028 -1.51884,-1.51929 -2.5e-4,-0.83901 0.67983,-1.51929 1.51884,-1.51929 0.83901,0 1.51909,0.68028 1.51885,1.51929 z m -7.42725,4.57868 c 2.4e-4,0.83901 -0.67984,1.51929 -1.51885,1.51929 -0.83901,0 -1.51909,-0.68028 -1.51884,-1.51929 -2.5e-4,-0.83901 0.67983,-1.51929 1.51884,-1.51929 0.83901,0 1.51909,0.68028 1.51885,1.51929 z m 23.15349,8.34361 c 2.4e-4,0.83901 -0.67984,1.51929 -1.51885,1.51929 -0.83901,0 -1.51909,-0.68028 -1.51884,-1.51929 -2.5e-4,-0.83901 0.67983,-1.51929 1.51884,-1.51929 0.83901,0 1.51909,0.68028 1.51885,1.51929 z m -8.56955,-4.38077 c 2.4e-4,0.83901 -0.67984,1.51929 -1.51885,1.51929 -0.83901,0 -1.51909,-0.68028 -1.51884,-1.51929 -2.5e-4,-0.83901 0.67983,-1.51929 1.51884,-1.51929 0.83901,0 1.51909,0.68028 1.51885,1.51929 z m -11.35957,-16.34801 c 2.4e-4,0.83901 -0.67984,1.51929 -1.51885,1.51929 -0.83901,0 -1.51909,-0.68028 -1.51884,-1.51929 -2.5e-4,-0.83901 0.67983,-1.51929 1.51884,-1.51929 0.83901,0 1.51909,0.68028 1.51885,1.51929 z m 6.68365,-6.80511 c 2.4e-4,0.83901 -0.67984,1.51929 -1.51885,1.51929 -0.83901,0 -1.51909,-0.68028 -1.51884,-1.51929 -2.5e-4,-0.83901 0.67983,-1.51929 1.51884,-1.51929 0.83901,0 1.51909,0.68028 1.51885,1.51929 z m 7.30065,-6.2577 c 2.4e-4,0.83901 -0.67984,1.51929 -1.51885,1.51929 -0.83901,0 -1.51909,-0.68028 -1.51884,-1.51929 -2.5e-4,-0.83901 0.67983,-1.51929 1.51884,-1.51929 0.83901,0 1.51909,0.68028 1.51885,1.51929 z m 5.73623,13.34977 c 2.4e-4,0.83901 -0.67984,1.51929 -1.51885,1.51929 -0.83901,0 -1.51909,-0.68028 -1.51884,-1.51929 -2.5e-4,-0.83901 0.67983,-1.51929 1.51884,-1.51929 0.83901,0 1.51909,0.68028 1.51885,1.51929 z m 6.93571,7.29207 c 2.4e-4,0.83901 -0.67984,1.51929 -1.51885,1.51929 -0.83901,0 -1.51909,-0.68028 -1.51884,-1.51929 -2.5e-4,-0.83901 0.67983,-1.51929 1.51884,-1.51929 0.83901,0 1.51909,0.68028 1.51885,1.51929 z m 5.33621,5.11923 c 2.4e-4,0.83901 -0.67984,1.51929 -1.51885,1.51929 -0.83901,0 -1.51909,-0.68028 -1.51884,-1.51929 -2.5e-4,-0.83901 0.67983,-1.51929 1.51884,-1.51929 0.83901,0 1.51909,0.68028 1.51885,1.51929 z m 11.6288,-8.10888 c 2.4e-4,0.83901 -0.67984,1.51929 -1.51885,1.51929 -0.83901,0 -1.51909,-0.68028 -1.51884,-1.51929 -2.5e-4,-0.83901 0.67983,-1.51929 1.51884,-1.51929 0.83901,0 1.51909,0.68028 1.51885,1.51929 z m -8.77794,-6.28402 c 2.4e-4,0.83901 -0.67984,1.51929 -1.51885,1.51929 -0.83901,0 -1.51909,-0.68028 -1.51884,-1.51929 -2.5e-4,-0.83901 0.67983,-1.51929 1.51884,-1.51929 0.83901,0 1.51909,0.68028 1.51885,1.51929 z m -15.29648,-7.82232 c 2.4e-4,0.83901 -0.67984,1.51929 -1.51885,1.51929 -0.83901,0 -1.51909,-0.68028 -1.51884,-1.51929 -2.5e-4,-0.83901 0.67983,-1.51929 1.51884,-1.51929 0.83901,0 1.51909,0.68028 1.51885,1.51929 z m 19.46827,1.04314 c 2.4e-4,0.83901 -0.67984,1.51929 -1.51885,1.51929 -0.83901,0 -1.51909,-0.68028 -1.51884,-1.51929 -2.5e-4,-0.83901 0.67983,-1.51929 1.51884,-1.51929 0.83901,0 1.51909,0.68028 1.51885,1.51929 z m 18.82496,0.66067 c 2.4e-4,0.83901 -0.67984,1.51929 -1.51885,1.51929 -0.83901,0 -1.51909,-0.68028 -1.51884,-1.51929 -2.5e-4,-0.83901 0.67983,-1.51929 1.51884,-1.51929 0.83901,0 1.51909,0.68028 1.51885,1.51929 z m -9.90888,0.77705 c 2.4e-4,0.83901 -0.67984,1.51929 -1.51885,1.51929 -0.83901,0 -1.51909,-0.68028 -1.51884,-1.51929 -2.5e-4,-0.83901 0.67983,-1.51929 1.51884,-1.51929 0.83901,0 1.51909,0.68028 1.51885,1.51929 z m -6.64257,-12.25999 c 2.4e-4,0.83901 -0.67984,1.51929 -1.51885,1.51929 -0.83901,0 -1.51909,-0.68028 -1.51884,-1.51929 -2.5e-4,-0.83901 0.67983,-1.51929 1.51884,-1.51929 0.83901,0 1.51909,0.68028 1.51885,1.51929 z m 14.75694,-14.21124 c 2.4e-4,0.83901 -0.67984,1.51929 -1.51885,1.51929 -0.83901,0 -1.51909,-0.68028 -1.51884,-1.51929 -2.5e-4,-0.83901 0.67983,-1.51929 1.51884,-1.51929 0.83901,0 1.51909,0.68028 1.51885,1.51929 z m 1.70749,9.07326 c 2.4e-4,0.83901 -0.67984,1.51929 -1.51885,1.51929 -0.83901,0 -1.51909,-0.68028 -1.51884,-1.51929 -2.5e-4,-0.83901 0.67983,-1.51929 1.51884,-1.51929 0.83901,0 1.51909,0.68028 1.51885,1.51929 z m 8.07017,5.33973 c 2.4e-4,0.83901 -0.67984,1.51929 -1.51885,1.51929 -0.83901,0 -1.51909,-0.68028 -1.51884,-1.51929 -2.5e-4,-0.83901 0.67983,-1.51929 1.51884,-1.51929 0.83901,0 1.51909,0.68028 1.51885,1.51929 z m 3.42006,-7.12991 c 2.4e-4,0.83901 -0.67984,1.51929 -1.51885,1.51929 -0.83901,0 -1.51909,-0.68028 -1.51884,-1.51929 -2.5e-4,-0.83901 0.67983,-1.51929 1.51884,-1.51929 0.83901,0 1.51909,0.68028 1.51885,1.51929 z m -35.05771,-1.92776 c 2.4e-4,0.83901 -0.67984,1.51929 -1.51885,1.51929 -0.83901,0 -1.51909,-0.68028 -1.51884,-1.51929 -2.5e-4,-0.83901 0.67983,-1.51929 1.51884,-1.51929 0.83901,0 1.51909,0.68028 1.51885,1.51929 z m -2.60439,10.1368 c 2.4e-4,0.83901 -0.67984,1.51929 -1.51885,1.51929 -0.83901,0 -1.51909,-0.68028 -1.51884,-1.51929 -2.5e-4,-0.83901 0.67983,-1.51929 1.51884,-1.51929 0.83901,0 1.51909,0.68028 1.51885,1.51929 z" />
                                <path
                                   inkscape:connector-curvature="0"
                                   id="path7251"
                                   style="fill:#000000;fill-opacity:1;stroke:none"
                                   d="m 160.5615,256.04978 c 0.5572,-0.62727 0.50025,-1.58751 -0.12718,-2.14452 -0.62743,-0.55702 -1.58765,-0.4998 -2.14448,0.1278 -0.5572,0.62727 -0.50026,1.5875 0.12717,2.14452 0.62744,0.55701 1.58765,0.49979 2.14449,-0.1278 z m 14.11237,-5.36507 c 0.5572,-0.62727 0.50026,-1.58751 -0.12717,-2.14452 -0.62744,-0.55702 -1.58765,-0.49979 -2.14448,0.1278 -0.55721,0.62727 -0.50026,1.5875 0.12717,2.14452 0.62743,0.55701 1.58765,0.49979 2.14448,-0.1278 z m -9.67325,15.39926 c 0.5572,-0.62727 0.50025,-1.5875 -0.12718,-2.14452 -0.62743,-0.55702 -1.58764,-0.49979 -2.14447,0.12781 -0.55721,0.62726 -0.50027,1.5875 0.12716,2.14451 0.62744,0.55702 1.58765,0.49979 2.14449,-0.1278 z m -20.92028,-4.58011 c 0.5572,-0.62727 0.50026,-1.5875 -0.12717,-2.14452 -0.62743,-0.55701 -1.58765,-0.49979 -2.14449,0.1278 -0.55719,0.62727 -0.50025,1.58751 0.12718,2.14452 0.62743,0.55702 1.58765,0.4998 2.14448,-0.1278 z m 54.2144,-5.34072 c 0.5572,-0.62727 0.50025,-1.5875 -0.12718,-2.14452 -0.62743,-0.55702 -1.58764,-0.49979 -2.14447,0.1278 -0.55721,0.62727 -0.50027,1.5875 0.12717,2.14452 0.62743,0.55702 1.58764,0.49979 2.14448,-0.1278 z m -14.67952,9.55561 c 0.5572,-0.62727 0.50026,-1.5875 -0.12717,-2.14452 -0.62744,-0.55702 -1.58765,-0.49979 -2.14448,0.12781 -0.55721,0.62726 -0.50026,1.58749 0.12717,2.14451 0.62743,0.55702 1.58765,0.49979 2.14448,-0.1278 z m -20.40284,19.2665 c 0.5572,-0.62727 0.50026,-1.5875 -0.12717,-2.14452 -0.62743,-0.55701 -1.58765,-0.49979 -2.14448,0.12781 -0.5572,0.62726 -0.50026,1.5875 0.12717,2.14451 0.62743,0.55702 1.58765,0.49979 2.14448,-0.1278 z m 53.73835,-22.25436 c 0.55719,-0.62727 0.50025,-1.58751 -0.12718,-2.14452 -0.62743,-0.55702 -1.58765,-0.4998 -2.14448,0.1278 -0.5572,0.62727 -0.50026,1.5875 0.12717,2.14452 0.62743,0.55701 1.58765,0.49979 2.14449,-0.1278 z m 14.64093,-11.98855 c 0.5572,-0.62727 0.50026,-1.5875 -0.12717,-2.14452 -0.62744,-0.55702 -1.58765,-0.49979 -2.14448,0.12781 -0.55721,0.62726 -0.50026,1.58749 0.12717,2.14451 0.62743,0.55702 1.58765,0.49979 2.14448,-0.1278 z m 22.64742,13.90165 c 0.5572,-0.62727 0.50025,-1.5875 -0.12718,-2.14452 -0.62743,-0.55701 -1.58765,-0.49979 -2.14448,0.12781 -0.5572,0.62726 -0.50026,1.5875 0.12717,2.14451 0.62744,0.55702 1.58765,0.49979 2.14449,-0.1278 z m -44.7473,-14.52146 c 0.5572,-0.62727 0.50026,-1.5875 -0.12717,-2.14452 -0.62744,-0.55701 -1.58765,-0.49979 -2.14448,0.12781 -0.55721,0.62726 -0.50026,1.5875 0.12717,2.14451 0.62743,0.55702 1.58765,0.49979 2.14448,-0.1278 z m -64.64416,-2.42962 c 0.55721,-0.62727 0.50026,-1.5875 -0.12717,-2.14452 -0.62743,-0.55702 -1.58764,-0.49979 -2.14448,0.1278 -0.5572,0.62727 -0.50025,1.5875 0.12718,2.14452 0.62743,0.55702 1.58764,0.49979 2.14447,-0.1278 z m 7.27737,24.45086 c 0.55719,-0.62728 0.50025,-1.58751 -0.12718,-2.14453 -0.62743,-0.55701 -1.58765,-0.49979 -2.14448,0.12781 -0.5572,0.62727 -0.50026,1.5875 0.12717,2.14452 0.62743,0.55701 1.58765,0.49979 2.14449,-0.1278 z m -21.33663,-12.3392 c 0.5572,-0.62727 0.50025,-1.5875 -0.12718,-2.14452 -0.62743,-0.55702 -1.58764,-0.49979 -2.14447,0.1278 -0.55721,0.62727 -0.50026,1.5875 0.12717,2.14452 0.62743,0.55702 1.58764,0.49979 2.14448,-0.1278 z m 138.20978,-0.89505 c 0.5572,-0.62728 0.50026,-1.58751 -0.12717,-2.14453 -0.62743,-0.55701 -1.58765,-0.49979 -2.14448,0.12781 -0.55721,0.62726 -0.50026,1.5875 0.12717,2.14451 0.62743,0.55702 1.58765,0.4998 2.14448,-0.12779 z m -39.26304,0.67889 c 0.5572,-0.62727 0.50026,-1.5875 -0.12717,-2.14452 -0.62743,-0.55702 -1.58765,-0.49979 -2.14448,0.1278 -0.55721,0.62727 -0.50026,1.5875 0.12717,2.14452 0.62743,0.55702 1.58765,0.49979 2.14448,-0.1278 z m 16.41183,-8.9172 c 0.5572,-0.62727 0.50025,-1.58751 -0.12718,-2.14452 -0.62743,-0.55702 -1.58764,-0.49979 -2.14447,0.1278 -0.55721,0.62727 -0.50026,1.5875 0.12717,2.14452 0.62743,0.55701 1.58764,0.49979 2.14448,-0.1278 z m -75.2231,6.6243 c 0.55719,-0.62727 0.50025,-1.5875 -0.12718,-2.14452 -0.62743,-0.55702 -1.58765,-0.49979 -2.14448,0.12781 -0.5572,0.62726 -0.50026,1.58749 0.12717,2.14451 0.62743,0.55702 1.58765,0.49979 2.14449,-0.1278 z m 14.50185,-1.25398 c 0.5572,-0.62727 0.50025,-1.58751 -0.12718,-2.14452 -0.62743,-0.55702 -1.58765,-0.4998 -2.14448,0.1278 -0.5572,0.62727 -0.50026,1.5875 0.12717,2.14452 0.62743,0.55701 1.58765,0.49979 2.14449,-0.1278 z m -31.62596,4.14741 c 0.5572,-0.62727 0.50026,-1.58751 -0.12717,-2.14452 -0.62743,-0.55702 -1.58765,-0.49979 -2.14448,0.1278 -0.5572,0.62727 -0.50026,1.5875 0.12717,2.14452 0.62743,0.55701 1.58765,0.49979 2.14448,-0.1278 z m -14.07564,-5.83865 c 0.55721,-0.62727 0.50027,-1.5875 -0.12717,-2.14452 -0.62743,-0.55702 -1.58764,-0.49979 -2.14448,0.1278 -0.5572,0.62727 -0.50025,1.5875 0.12718,2.14452 0.62743,0.55702 1.58764,0.49979 2.14447,-0.1278 z m 18.43347,-9.24089 c 0.55719,-0.62728 0.50025,-1.58751 -0.12718,-2.14453 -0.62743,-0.55701 -1.58765,-0.49979 -2.14448,0.12781 -0.5572,0.62726 -0.50026,1.5875 0.12717,2.14451 0.62743,0.55702 1.58765,0.4998 2.14449,-0.12779 z m 49.49797,23.02489 c 0.5572,-0.62727 0.50025,-1.5875 -0.12718,-2.14452 -0.62743,-0.55702 -1.58765,-0.49979 -2.14448,0.1278 -0.5572,0.62727 -0.50026,1.5875 0.12717,2.14452 0.62744,0.55702 1.58765,0.49979 2.14449,-0.1278 z m -13.20799,-3.24661 c 0.55719,-0.62727 0.50025,-1.5875 -0.12718,-2.14452 -0.62743,-0.55702 -1.58765,-0.49979 -2.14448,0.1278 -0.5572,0.62727 -0.50026,1.5875 0.12717,2.14452 0.62743,0.55702 1.58765,0.49979 2.14449,-0.1278 z m 10.28663,-4.67481 c 0.5572,-0.62728 0.50025,-1.58751 -0.12718,-2.14453 -0.62743,-0.55701 -1.58765,-0.49979 -2.14448,0.12781 -0.5572,0.62726 -0.50026,1.5875 0.12717,2.14451 0.62743,0.55702 1.58765,0.4998 2.14449,-0.12779 z m 0,0 c 0.5572,-0.62728 0.50025,-1.58751 -0.12718,-2.14453 -0.62743,-0.55701 -1.58765,-0.49979 -2.14448,0.12781 -0.5572,0.62726 -0.50026,1.5875 0.12717,2.14451 0.62743,0.55702 1.58765,0.4998 2.14449,-0.12779 z m 15.90548,-8.33336 c 0.5572,-0.62727 0.50025,-1.5875 -0.12718,-2.14452 -0.62743,-0.55701 -1.58765,-0.49979 -2.14448,0.12781 -0.5572,0.62726 -0.50026,1.5875 0.12717,2.14451 0.62744,0.55702 1.58765,0.49979 2.14449,-0.1278 z m -71.50296,2.27967 c 0.5572,-0.62728 0.50025,-1.58751 -0.12718,-2.14453 -0.62743,-0.55701 -1.58764,-0.49979 -2.14447,0.12781 -0.55721,0.62726 -0.50027,1.5875 0.12717,2.14451 0.62743,0.55702 1.58764,0.4998 2.14448,-0.12779 z m 77.63653,13.90436 c 0.5572,-0.62727 0.50026,-1.58751 -0.12718,-2.14452 -0.62743,-0.55702 -1.58764,-0.49979 -2.14447,0.1278 -0.55721,0.62727 -0.50026,1.5875 0.12717,2.14452 0.62743,0.55701 1.58764,0.49979 2.14448,-0.1278 z m 9.7327,-4.05086 c 0.5572,-0.62727 0.50026,-1.58751 -0.12717,-2.14452 -0.62743,-0.55702 -1.58765,-0.4998 -2.14448,0.1278 -0.5572,0.62727 -0.50026,1.5875 0.12717,2.14452 0.62743,0.55701 1.58765,0.49979 2.14448,-0.1278 z m 2.3841,-8.77607 c 0.5572,-0.62727 0.50025,-1.5875 -0.12718,-2.14452 -0.62743,-0.55702 -1.58764,-0.49979 -2.14447,0.12781 -0.55721,0.62726 -0.50027,1.58749 0.12717,2.14451 0.62743,0.55702 1.58764,0.49979 2.14448,-0.1278 z m 15.75305,-4.27039 c 0.5572,-0.62727 0.50026,-1.58751 -0.12717,-2.14452 -0.62744,-0.55702 -1.58765,-0.49979 -2.14448,0.1278 -0.55721,0.62727 -0.50026,1.5875 0.12717,2.14452 0.62743,0.55701 1.58765,0.49979 2.14448,-0.1278 z m 8.68127,4.35985 c 0.5572,-0.62727 0.50026,-1.5875 -0.12718,-2.14452 -0.62743,-0.55702 -1.58764,-0.49979 -2.14447,0.1278 -0.55721,0.62727 -0.50026,1.5875 0.12717,2.14452 0.62743,0.55702 1.58764,0.49979 2.14448,-0.1278 z m -14.62099,2.2301 c 0.55719,-0.62727 0.50025,-1.58751 -0.12718,-2.14452 -0.62743,-0.55702 -1.58765,-0.49979 -2.14448,0.1278 -0.5572,0.62727 -0.50026,1.5875 0.12717,2.14452 0.62743,0.55701 1.58765,0.49979 2.14449,-0.1278 z m -3.85432,6.7586 c 0.5572,-0.62727 0.50026,-1.5875 -0.12717,-2.14452 -0.62744,-0.55702 -1.58765,-0.49979 -2.14448,0.12781 -0.55721,0.62726 -0.50026,1.58749 0.12717,2.14451 0.62743,0.55702 1.58765,0.49979 2.14448,-0.1278 z m -8.52755,-18.31734 c 0.55719,-0.62727 0.50025,-1.5875 -0.12718,-2.14452 -0.62743,-0.55702 -1.58765,-0.49979 -2.14448,0.12781 -0.5572,0.62726 -0.50026,1.58749 0.12717,2.14451 0.62743,0.55702 1.58765,0.49979 2.14449,-0.1278 z m 26.49996,18.1805 c 0.5572,-0.62727 0.50025,-1.58751 -0.12718,-2.14452 -0.62743,-0.55702 -1.58765,-0.49979 -2.14448,0.1278 -0.5572,0.62727 -0.50026,1.5875 0.12717,2.14452 0.62744,0.55701 1.58765,0.49979 2.14449,-0.1278 z" />
                                </g>
                                </g>
                                </g>
                                </g>
                                </g>
                                </g>
                                </g>
                                </g>
                                </g>
                                </g>
                                </g>
                                </g>
                                </g>
                                </g>
                              </g>
                            </g>
                          </g>
                        </g>
                      </g>
                    </g>
                  </g>
                </g>
              </g>
            </g>
          </g>
        </g>
      </g>
    </g>
  </g>
</svg>
