<?xml version="1.0" encoding="UTF-8" standalone="no"?>
<!-- Created with Inkscape (http://www.inkscape.org/) -->

<svg
   xmlns:dc="http://purl.org/dc/elements/1.1/"
   xmlns:cc="http://creativecommons.org/ns#"
   xmlns:rdf="http://www.w3.org/1999/02/22-rdf-syntax-ns#"
   xmlns:svg="http://www.w3.org/2000/svg"
   xmlns="http://www.w3.org/2000/svg"
   xmlns:sodipodi="http://sodipodi.sourceforge.net/DTD/sodipodi-0.dtd"
   xmlns:inkscape="http://www.inkscape.org/namespaces/inkscape"
   width="183.15024"
   height="109.81806"
   id="svg2"
   version="1.1"
   inkscape:version="0.48.3.1 r9886"
   sodipodi:docname="barba3.svg">
  <defs
     id="defs4" />
  <sodipodi:namedview
     id="base"
     pagecolor="#ffffff"
     bordercolor="#666666"
     borderopacity="1.0"
     inkscape:pageopacity="0.0"
     inkscape:pageshadow="2"
     inkscape:zoom="0.35"
     inkscape:cx="91.575118"
     inkscape:cy="54.909033"
     inkscape:document-units="px"
     inkscape:current-layer="layer1"
     showgrid="false"
     fit-margin-top="0"
     fit-margin-left="0"
     fit-margin-right="0"
     fit-margin-bottom="0"
     inkscape:window-width="552"
     inkscape:window-height="752"
     inkscape:window-x="65"
     inkscape:window-y="24"
     inkscape:window-maximized="0" />
  <metadata
     id="metadata7">
    <rdf:RDF>
      <cc:Work
         rdf:about="">
        <dc:format>image/svg+xml</dc:format>
        <dc:type
           rdf:resource="http://purl.org/dc/dcmitype/StillImage" />
        <dc:title></dc:title>
      </cc:Work>
    </rdf:RDF>
  </metadata>
  <g
     inkscape:label="Capa 1"
     inkscape:groupmode="layer"
     id="layer1"
     transform="translate(-258.42489,-477.45315)">
    <g
       id="layer1-020"
       transform="translate(2.0594335e-5,-4.203653e-5)">
      <g
         id="layer1-19"
         transform="translate(-184.65458,-200.59728)">
        <g
           id="g6846">
          <g
             id="layer1-4"
             transform="translate(608.2923,-216.81779)">
            <g
               id="layer1-0"
               transform="translate(-464.26829,9.26096)">
              <g
                 id="g7230"
                 transform="matrix(2,0,0,2,-125.03069,-1240.877)">
                <g
                   id="layer1-5"
                   transform="matrix(0.5,0,0,0.5,198.03499,723.12882)">
                  <g
                     id="g3815">
                    <g
                       id="layer1-8"
                       transform="translate(-509.47265,-858.01422)">
                      <g
                         id="g4403">
                        <g
                           id="g5615">
                          <g
                             id="layer1-9"
                             transform="translate(34.810242,624.88049)">
                            <g
                               id="g4728"
                               transform="matrix(0.86372251,0,0,0.75945223,-6.6412836,551.71009)">
                              <g
                                 id="layer1-42"
                                 transform="matrix(1.1577793,0,0,1.3167385,-36.133084,-705.63507)">
                                <g
                                   id="g5224"
                                   transform="matrix(0.88307479,0,0,0.70910051,43.988222,438.13275)">
                                <g
                                   id="layer1-02"
                                   transform="matrix(1.1324069,0,0,1.4102373,58.462682,-691.18829)">
                                <g
                                   id="g5286"
                                   transform="matrix(1.127305,0,0,1.127305,-48.449071,-93.350364)">
                                <g
                                   id="layer1-7"
                                   transform="matrix(0.88707135,0,0,0.8870714,15.021825,628.39384)">
                                <g
                                   id="g5030"
                                   transform="matrix(1.5713649,0,0,1.5551129,-182.98344,-134.01333)">
                                <g
                                   id="layer1-72"
                                   transform="matrix(0.63638942,0,0,0.64304013,66.223794,-101.46956)">
                                <g
                                   id="layer1-06"
                                   transform="translate(66.411606,232.19706)">
                                <g
                                   id="layer1-85"
                                   transform="translate(-63.980856,-142.78077)">
                                <g
                                   id="g11416">
                                <g
                                   id="layer1-1"
                                   transform="translate(-1051.8062,-2761.3737)">
                                <g
                                   id="g12903">
                                <g
                                   id="g12881"
                                   transform="matrix(2,0,0,2,-1689.5,-3023.4999)">
                                <g
                                   id="layer1-41"
                                   transform="matrix(0.5,0,0,0.5,1445.6768,3035.6911)">
                                <g
                                   id="g36550"
                                   transform="matrix(1.5803703,0,0,1.5783361,-185.78827,-139.12469)">
                                <path
                                   style="opacity:0.28176796;fill:#502d16;fill-rule:evenodd;stroke:none"
                                   id="path4511"
                                   d="m 372.48255,247.33871 c 0.32757,8.06703 -0.36848,7.4524 0.67882,15.45946 1.62309,12.41969 4.17424,14.00004 10.76122,24.72147 3.74322,9.1535 11.37825,15.73387 19.22526,21.32388 9.06305,6.491 25.18639,7.96401 36.64961,7.4093 15.05338,-2.14625 21.04225,-9.07817 30.4712,-20.19967 4.77202,-6.3919 5.72865,-7.32858 9.27084,-14.54958 4.68696,-10.88328 7.62559,-22.57672 8.83376,-34.37164 -0.60812,1.62968 -4.61354,10.2589 -7.98587,13.74073 -8.42222,11.86634 -19.49135,15.69274 -34.46415,13.22827 -9.04013,-1.80508 -16.91205,-2.16439 -26.09377,-0.73782 -9.54682,0.99636 -20.03744,2.22243 -29.00028,-3.03773 -8.58401,-6.25792 -17.59989,-27.20791 -18.34664,-22.98667 z m 58.40883,32.47899 c 5.09717,-0.19458 9.85193,3.28079 15.00556,2.09873 3.48426,-0.42851 7.57716,-1.4607 10.54925,1.04936 3.90789,3.42715 3.4157,10.16564 -0.35493,13.50314 -2.75151,3.37173 -7.89806,5.53419 -11.92952,3.1679 -2.57565,-1.67948 -5.00197,-4.19949 -8.28165,-4.21726 -4.94803,-0.89663 -10.53617,-0.13413 -14.35486,3.38569 -5.40892,3.63958 -13.597,0.67505 -15.9126,-5.30623 -1.03762,-2.13952 -1.48421,-4.60275 -0.98591,-6.94956 -0.23113,-3.40941 3.2368,-6.37442 6.54644,-5.8606 6.21386,-0.67492 10.94076,1.48385 16.98058,-0.77218 0.34315,-0.0481 2.39783,-0.086 2.73764,-0.099 z"
                                   inkscape:connector-curvature="0" />
                                </g>
                                </g>
                                </g>
                                </g>
                                </g>
                                </g>
                                </g>
                                </g>
                                </g>
                                </g>
                                </g>
                                </g>
                                </g>
                                </g>
                              </g>
                            </g>
                          </g>
                        </g>
                      </g>
                    </g>
                  </g>
                </g>
              </g>
            </g>
          </g>
        </g>
      </g>
    </g>
  </g>
</svg>
