<?xml version="1.0" encoding="UTF-8" standalone="no"?>
<!-- Created with Inkscape (http://www.inkscape.org/) -->

<svg
   xmlns:dc="http://purl.org/dc/elements/1.1/"
   xmlns:cc="http://creativecommons.org/ns#"
   xmlns:rdf="http://www.w3.org/1999/02/22-rdf-syntax-ns#"
   xmlns:svg="http://www.w3.org/2000/svg"
   xmlns="http://www.w3.org/2000/svg"
   xmlns:sodipodi="http://sodipodi.sourceforge.net/DTD/sodipodi-0.dtd"
   xmlns:inkscape="http://www.inkscape.org/namespaces/inkscape"
   width="192.91954"
   height="133.31711"
   id="svg2"
   version="1.1"
   inkscape:version="0.48.3.1 r9886"
   sodipodi:docname="barba1.svg">
  <defs
     id="defs4" />
  <sodipodi:namedview
     id="base"
     pagecolor="#ffffff"
     bordercolor="#666666"
     borderopacity="1.0"
     inkscape:pageopacity="0.0"
     inkscape:pageshadow="2"
     inkscape:zoom="0.35"
     inkscape:cx="96.459773"
     inkscape:cy="66.658552"
     inkscape:document-units="px"
     inkscape:current-layer="layer1"
     showgrid="false"
     fit-margin-top="0"
     fit-margin-left="0"
     fit-margin-right="0"
     fit-margin-bottom="0"
     inkscape:window-width="552"
     inkscape:window-height="752"
     inkscape:window-x="65"
     inkscape:window-y="24"
     inkscape:window-maximized="0" />
  <metadata
     id="metadata7">
    <rdf:RDF>
      <cc:Work
         rdf:about="">
        <dc:format>image/svg+xml</dc:format>
        <dc:type
           rdf:resource="http://purl.org/dc/dcmitype/StillImage" />
        <dc:title></dc:title>
      </cc:Work>
    </rdf:RDF>
  </metadata>
  <g
     inkscape:label="Capa 1"
     inkscape:groupmode="layer"
     id="layer1"
     transform="translate(-253.54023,-465.70363)">
    <g
       id="layer1-6"
       transform="translate(1.6029601e-5,-4.278136e-5)">
      <g
         id="layer1-47"
         transform="translate(-347.30999,-243.98677)">
        <g
           id="g6846">
          <g
             id="layer1-4"
             transform="translate(608.2923,-216.81779)">
            <g
               id="layer1-0"
               transform="translate(-464.26829,9.26096)">
              <g
                 id="g7230"
                 transform="matrix(2,0,0,2,-125.03069,-1240.877)">
                <g
                   id="layer1-5"
                   transform="matrix(0.5,0,0,0.5,198.03499,723.12882)">
                  <g
                     id="g3815">
                    <g
                       id="layer1-8"
                       transform="translate(-509.47265,-858.01422)">
                      <g
                         id="g4403">
                        <g
                           id="g5615">
                          <g
                             id="layer1-9"
                             transform="translate(34.810242,624.88049)">
                            <g
                               id="g4728"
                               transform="matrix(0.86372251,0,0,0.75945223,-6.6412836,551.71009)">
                              <g
                                 id="layer1-42"
                                 transform="matrix(1.1577793,0,0,1.3167385,-36.133084,-705.63507)">
                                <g
                                   id="g5224"
                                   transform="matrix(0.88307479,0,0,0.70910051,43.988222,438.13275)">
                                <g
                                   id="layer1-02"
                                   transform="matrix(1.1324069,0,0,1.4102373,58.462682,-691.18829)">
                                <g
                                   id="g5286"
                                   transform="matrix(1.127305,0,0,1.127305,-48.449071,-93.350364)">
                                <g
                                   id="layer1-7"
                                   transform="matrix(0.88707135,0,0,0.8870714,15.021825,628.39384)">
                                <g
                                   id="g5030"
                                   transform="matrix(1.5713649,0,0,1.5551129,-182.98344,-134.01333)">
                                <g
                                   id="layer1-72"
                                   transform="matrix(0.63638942,0,0,0.64304013,66.223794,-101.46956)">
                                <g
                                   id="layer1-06"
                                   transform="translate(66.411606,232.19706)">
                                <g
                                   id="layer1-85"
                                   transform="translate(-63.980856,-142.78077)">
                                <g
                                   id="g11416">
                                <g
                                   id="layer1-1"
                                   transform="translate(-1051.8062,-2761.3737)">
                                <g
                                   id="g12903">
                                <g
                                   id="g12881"
                                   transform="matrix(2,0,0,2,-1689.5,-3023.4999)">
                                <g
                                   id="layer1-41"
                                   transform="matrix(0.5,0,0,0.5,1445.6768,3035.6911)">
                                <g
                                   id="g36550"
                                   transform="matrix(1.5803703,0,0,1.5783361,-185.78827,-139.12469)">
                                <path
                                   style="opacity:0.28176796;fill:#502d16;fill-rule:evenodd;stroke:none"
                                   id="path4511"
                                   d="m 481.40424,333.41366 c 16.49302,11.66222 35.74144,22.2074 56.11136,20.51235 26.67015,-4.88627 35.92211,-12.38962 52.07973,-33.79565 6.73334,-35.61977 -3.69939,-44.55792 -31.52704,-53.13547 -16.18974,-2.87103 -30.26484,-4.3862 -46.52559,-1.18541 -30.55871,11.76882 -45.90101,20.99718 -30.13846,67.60418 z m 47.74895,-56.0462 c 9.06048,-0.65601 17.71717,5.59366 26.82283,3.08158 6.17691,-1.00288 13.40317,-3.17324 18.8332,1.36691 7.14682,6.20753 6.64832,18.87945 0.12482,25.357 -4.70797,6.4836 -13.7461,10.8349 -21.05341,6.62495 -4.67793,-3.0043 -9.13722,-7.5943 -14.97503,-7.44045 -8.85619,-1.40001 -18.75864,0.34962 -25.35756,7.17202 -9.42231,7.13786 -24.16065,2.04265 -28.61676,-9.04823 -1.96649,-3.9553 -2.89927,-8.55171 -2.14392,-12.98362 -0.60233,-6.38408 5.40341,-12.14544 11.32235,-11.37019 11.02094,-1.62102 22.60168,2.06211 33.22429,-2.5157 0.60801,-0.1099 1.21523,-0.20056 1.81926,-0.24427 z"
                                   inkscape:connector-curvature="0" />
                                </g>
                                </g>
                                </g>
                                </g>
                                </g>
                                </g>
                                </g>
                                </g>
                                </g>
                                </g>
                                </g>
                                </g>
                                </g>
                                </g>
                              </g>
                            </g>
                          </g>
                        </g>
                      </g>
                    </g>
                  </g>
                </g>
              </g>
            </g>
          </g>
        </g>
      </g>
    </g>
  </g>
</svg>
