<?xml version="1.0" encoding="UTF-8" standalone="no"?>
<!-- Created with Inkscape (http://www.inkscape.org/) -->

<svg
   xmlns:dc="http://purl.org/dc/elements/1.1/"
   xmlns:cc="http://creativecommons.org/ns#"
   xmlns:rdf="http://www.w3.org/1999/02/22-rdf-syntax-ns#"
   xmlns:svg="http://www.w3.org/2000/svg"
   xmlns="http://www.w3.org/2000/svg"
   xmlns:sodipodi="http://sodipodi.sourceforge.net/DTD/sodipodi-0.dtd"
   xmlns:inkscape="http://www.inkscape.org/namespaces/inkscape"
   width="260.91144"
   height="235.46875"
   id="svg2"
   version="1.1"
   inkscape:version="0.48.3.1 r9886"
   sodipodi:docname="barba7.svg">
  <defs
     id="defs4" />
  <sodipodi:namedview
     id="base"
     pagecolor="#ffffff"
     bordercolor="#666666"
     borderopacity="1.0"
     inkscape:pageopacity="0.0"
     inkscape:pageshadow="2"
     inkscape:zoom="0.35"
     inkscape:cx="130.46678"
     inkscape:cy="117.04348"
     inkscape:document-units="px"
     inkscape:current-layer="layer1"
     showgrid="false"
     fit-margin-top="0"
     fit-margin-left="0"
     fit-margin-right="0"
     fit-margin-bottom="0"
     inkscape:window-width="552"
     inkscape:window-height="752"
     inkscape:window-x="65"
     inkscape:window-y="24"
     inkscape:window-maximized="0" />
  <metadata
     id="metadata7">
    <rdf:RDF>
      <cc:Work
         rdf:about="">
        <dc:format>image/svg+xml</dc:format>
        <dc:type
           rdf:resource="http://purl.org/dc/dcmitype/StillImage" />
        <dc:title></dc:title>
      </cc:Work>
    </rdf:RDF>
  </metadata>
  <g
     inkscape:label="Capa 1"
     inkscape:groupmode="layer"
     id="layer1"
     transform="translate(-219.53322,-413.93691)">
    <g
       transform="translate(-8.9149766,-394.22805)"
       inkscape:label="Layer 1"
       id="layer1-6">
      <g
         inkscape:export-ydpi="90"
         inkscape:export-xdpi="90"
         id="g6846">
        <g
           inkscape:label="Capa 1"
           id="layer1-4"
           transform="translate(608.2923,-216.81779)">
          <g
             inkscape:label="Capa 1"
             id="layer1-0"
             transform="translate(-464.26829,9.26096)">
            <g
               transform="matrix(2,0,0,2,-125.03069,-1240.877)"
               id="g7230">
              <g
                 inkscape:label="Capa 1"
                 id="layer1-5"
                 transform="matrix(0.5,0,0,0.5,198.03499,723.12882)">
                <g
                   id="g3815">
                  <g
                     inkscape:label="Capa 1"
                     id="layer1-8"
                     transform="translate(-509.47265,-858.01422)">
                    <g
                       id="g4403">
                      <g
                         id="g5615">
                        <g
                           inkscape:label="Capa 1"
                           id="layer1-9"
                           transform="translate(34.810242,624.88049)">
                          <g
                             id="g4728"
                             transform="matrix(0.86372251,0,0,0.75945223,-6.6412836,551.71009)">
                            <g
                               inkscape:label="Capa 1"
                               id="layer1-42"
                               transform="matrix(1.1577793,0,0,1.3167385,-36.133084,-705.63507)">
                              <g
                                 id="g5224"
                                 transform="matrix(0.88307479,0,0,0.70910051,43.988222,438.13275)">
                                <g
                                   inkscape:label="Capa 1"
                                   id="layer1-02"
                                   transform="matrix(1.1324069,0,0,1.4102373,58.462682,-691.18829)">
                                <g
                                   id="g5286"
                                   transform="matrix(1.127305,0,0,1.127305,-48.449071,-93.350364)">
                                <g
                                   inkscape:label="Layer 1"
                                   id="layer1-7"
                                   transform="matrix(0.88707135,0,0,0.8870714,15.021825,628.39384)">
                                <g
                                   id="g5030"
                                   transform="matrix(1.5713649,0,0,1.5551129,-182.98344,-134.01333)">
                                <g
                                   inkscape:label="Capa 1"
                                   id="layer1-72"
                                   transform="matrix(0.63638942,0,0,0.64304013,66.223794,-101.46956)">
                                <g
                                   transform="translate(66.411606,232.19706)"
                                   id="layer1-06"
                                   inkscape:label="Layer 1">
                                <g
                                   inkscape:label="Capa 1"
                                   id="layer1-85"
                                   transform="translate(-63.980856,-142.78077)">
                                <g
                                   id="g11416">
                                <g
                                   id="layer1-1"
                                   inkscape:label="Layer 1"
                                   transform="translate(-1051.8062,-2761.3737)">
                                <g
                                   id="g12903">
                                <g
                                   transform="matrix(2,0,0,2,-1689.5,-3023.4999)"
                                   id="g12881">
                                <g
                                   id="layer1-41"
                                   inkscape:label="Layer 1"
                                   transform="matrix(0.5,0,0,0.5,1445.6768,3035.6911)">
                                <g
                                   id="g36550"
                                   transform="matrix(1.5803703,0,0,1.5783361,-185.78827,-139.12469)">
                                <g
                                   transform="matrix(0.6327631,0,0,0.63357861,253.98729,172.72975)"
                                   id="g16139">
                                <g
                                   transform="translate(32.646514,64.302354)"
                                   id="g17122"
                                   style="display:inline">
                                <g
                                   transform="translate(230.67166,48.649982)"
                                   id="g17985"
                                   style="display:inline">
                                <g
                                   id="layer51"
                                   inkscape:label="glasses04"
                                   style="display:none">
                                <g
                                   id="g3293">
                                <g
                                   id="g3286">
                                <path
                                   inkscape:connector-curvature="0"
                                   style="fill:#555753;fill-opacity:1;stroke:none"
                                   d="m 264.4181,212.78125 c -32.31852,0 -58.5431,20.04591 -58.5431,44.75 0,24.70409 26.22459,44.75001 58.5431,44.75 32.31853,0 58.54309,-20.0459 58.54311,-44.75 0,-24.70409 -26.22457,-44.75 -58.54311,-44.75 z"
                                   id="path3274" />
                                <path
                                   sodipodi:type="arc"
                                   style="fill:none;stroke:#555753;stroke-width:31.03476334;stroke-linecap:round;stroke-linejoin:round;stroke-miterlimit:4;stroke-opacity:1;stroke-dasharray:none"
                                   id="path3253"
                                   sodipodi:cx="-100"
                                   sodipodi:cy="152.10728"
                                   sodipodi:rx="27.969349"
                                   sodipodi:ry="12.643678"
                                   d="m -72.030651,152.10728 c 0,6.98291 -12.522304,12.64368 -27.969349,12.64368 -15.44704,0 -27.96935,-5.66077 -27.96935,-12.64368 0,0 0,0 0,0"
                                   sodipodi:start="0"
                                   sodipodi:end="3.1415927"
                                   sodipodi:open="true"
                                   transform="matrix(0.298049,0,0,-0.1549048,229.03861,284.77197)" />
                                <path
                                   inkscape:connector-curvature="0"
                                   style="fill:#555753;fill-opacity:1;stroke:none"
                                   d="m 136.41811,212.78125 c 32.31852,0 58.5431,20.04591 58.5431,44.75 0,24.70409 -26.22459,44.75001 -58.5431,44.75 -32.31853,0 -58.54309,-20.0459 -58.54311,-44.75 0,-24.70409 26.22457,-44.75 58.54311,-44.75 z"
                                   id="path3270" />
                                </g>
                                <path
                                   inkscape:connector-curvature="0"
                                   style="fill:#d3d7cf;fill-opacity:1;stroke:none"
                                   d="m 157.8581,226.57435 c 10.73549,0 19.4467,6.6588 19.4467,14.86494 0,8.20615 -8.71122,14.86495 -19.4467,14.86495 -10.73548,0 -19.44669,-6.6588 -19.4467,-14.86495 0,-8.20614 8.71121,-14.86494 19.4467,-14.86494 z"
                                   id="path3284" />
                                <path
                                   inkscape:connector-curvature="0"
                                   id="path3291"
                                   d="m 287.36002,228.10692 c 10.73549,0 19.4467,6.6588 19.4467,14.86494 0,8.20615 -8.71122,14.86495 -19.4467,14.86495 -10.73548,0 -19.44669,-6.6588 -19.4467,-14.86495 0,-8.20614 8.71121,-14.86494 19.4467,-14.86494 z"
                                   style="fill:#d3d7cf;fill-opacity:1;stroke:none" />
                                </g>
                                </g>
                                </g>
                                <g
                                   transform="translate(-127.67838,19.722045)"
                                   inkscape:label="Layer 1"
                                   id="layer1-725">
                                <path
                                   inkscape:connector-curvature="0"
                                   style="fill:#693500;fill-opacity:1;fill-rule:evenodd;stroke:#000000;stroke-width:1.99999988;stroke-linecap:butt;stroke-linejoin:miter;stroke-miterlimit:4;stroke-opacity:1;stroke-dasharray:none"
                                   d="m 69.808158,165.36029 c 0,0 -1.53944,48.59588 -1.01663,74.21351 0.50647,24.81707 8.90507,35.40639 9.42688,36.04393 l 5.63764,5.08312 c -1.80798,1.50372 -3.04987,4.04561 -3.04987,6.93152 0,4.61744 3.08743,8.41025 6.8391,8.41025 0.31553,0 0.61962,-0.0407 0.9242,-0.0924 0.77518,1.66676 2.32128,2.89875 4.0665,3.32713 0.82566,3.75842 3.67203,6.55224 7.11636,6.65427 0.411412,1.30592 1.228762,2.38844 2.310512,3.14229 -0.22145,0.90394 -0.27726,1.86946 -0.27726,2.86503 0,5.33891 3.43446,9.70413 7.76331,9.70413 0.0338,0 0.0587,5.4e-4 0.0924,0 0.32881,3.44561 2.22894,6.20615 4.71343,7.02395 0.43576,7.73491 5.56986,13.86305 11.92223,13.86305 1.6575,0 3.27141,-0.45282 4.71343,-1.20147 0.9311,0.87127 2.04517,1.53856 3.23471,2.03325 -0.33442,1.61199 -0.55452,3.26988 -0.55452,4.9907 0,12.40937 9.21042,22.45814 20.60974,22.45814 2.9166,0 5.70897,-0.65931 8.2254,-1.84841 -0.0777,0.85207 -0.0924,1.71298 -0.0924,2.58777 0,13.99664 10.18174,25.41559 22.7354,25.41559 3.23649,0 6.26918,-0.76506 9.0572,-2.12567 2.85095,1.68897 6.27121,2.58777 9.98139,2.58777 9.81205,0 17.83712,-6.92079 17.83712,-15.43419 0,-2.35449 -0.57472,-4.56495 -1.66356,-6.56185 6.32442,-3.36108 10.71632,-9.06742 11.46012,-15.71145 0.53941,0.0614 1.10668,0.0924 1.66356,0.0924 3.57583,0 6.81444,-1.28995 9.24204,-3.41955 2.71118,2.16591 6.17563,3.41955 9.88897,3.41955 8.80199,0 15.8963,-7.22727 15.8963,-16.17356 0,-0.66398 -0.016,-1.39012 -0.0924,-2.03325 4.69938,-1.27634 8.24342,-5.23604 8.87235,-10.07381 4.38649,-0.60338 7.88625,-4.47634 8.41025,-9.24203 -8.9e-4,-0.006 -2.7e-4,-0.0718 0,-0.0924 0.0103,-1.8e-4 0.0726,8e-5 0.0924,0 1.5812,-0.25727 3.07125,-0.90466 4.25133,-1.94083 0.96452,0.2581 1.99936,0.36968 3.04987,0.36968 5.77179,0 10.4435,-4.23226 10.4435,-9.42687 0,-0.89283 -0.11117,-1.76921 -0.36968,-2.58777 0.84429,0.33085 1.79863,0.4621 2.77261,0.4621 3.89597,0 7.02394,-2.86204 7.02394,-6.46942 0,-1.04277 -0.2696,-2.08258 -0.73936,-2.95745 3.58943,-0.17514 6.46942,-2.97478 6.46942,-6.46943 0,-1.2562 -0.19705,-2.51466 -0.83178,-3.51197 0.26111,0.0453 0.55559,0.0924 0.83178,0.0924 2.88591,0 5.26799,-2.8215 5.26796,-6.28458 0,-1.49141 -0.4731,-2.90173 -1.20146,-3.97407 -0.50602,-0.71772 -1.20948,-1.35765 -1.94083,-1.75599 -0.0508,-0.0264 -0.13344,-0.0681 -0.18484,-0.0924 -0.0158,-0.0167 -0.0766,-0.0758 -0.0924,-0.0924 -0.005,10e-4 -0.0717,3.2e-4 -0.0924,0 -0.69299,-1.15648 -1.72529,-1.97318 -2.95745,-2.12567 4.64485,-9.09484 9.70106,-22.12241 9.98139,-35.85909 0.52279,-25.61763 -1.01662,-74.21351 -1.01662,-74.21351 l -0.44393,0.4621 -8.98294,69.5925 c 0.17162,1.30474 2.77278,22.52075 -9.88898,39.74074 -9.61704,13.07918 -30.92819,26.98316 -37.98475,31.42291 -0.56434,-15.63166 -6.74669,-40.38768 -6.74669,-40.38768 -0.042,-1.3604 -1.34874,-23.18165 -41.8664,-22.45814 -25.16016,0.44927 -32.70284,-0.63712 -32.7168,-0.64694 l -30.0366,0.64694 c 3e-5,-3e-5 -23.07504,1.49091 -26.06253,18.66891 -1.93761,11.14124 -4.77395,30.16226 -6.56185,42.14366 -8.18876,-6.6532 -26.086162,-21.48277 -35.951502,-32.53195 -12.66177,-14.18115 -10.15302,-35.29667 -9.9814,-36.59845 l -10.038349,-68.53709 0.611479,-1.51751 z m 114.508782,89.55529 c 0.93266,-0.0185 1.74182,0.0107 2.31051,0 0.64993,-0.0122 1.01579,-8e-4 1.01662,0 0.004,0.003 6.30887,0.7684 25.97011,0.4621 32.07894,-0.49975 33.83974,15.54315 33.91826,16.54324 0,0 9.43409,26.474 3.23471,36.04393 -0.0494,0.0763 -0.12758,0.19794 -0.18484,0.27726 -5.02707,6.74588 -37.42904,23.93393 -64.78664,20.88699 -27.79185,-3.09533 -49.07517,-24.2141 -49.0752,-24.21413 0,0 4.10418,-24.82546 6.46943,-36.69086 2.29134,-11.49464 19.62472,-12.77468 20.70215,-12.84643 0,0 13.89617,-0.3328 20.42489,-0.4621 z"
                                   id="path2940"
                                   sodipodi:nodetypes="csccssccccssccsccsscsscssccscssccssscsscsscscsscsssccscccsccsccscsccccssscscscscc" />
                                </g>
                                </g>
                                </g>
                                </g>
                                </g>
                                </g>
                                </g>
                                </g>
                                </g>
                                </g>
                                </g>
                                </g>
                                </g>
                                </g>
                                </g>
                                </g>
                              </g>
                            </g>
                          </g>
                        </g>
                      </g>
                    </g>
                  </g>
                </g>
              </g>
            </g>
          </g>
        </g>
      </g>
    </g>
  </g>
</svg>
