<?xml version="1.0" encoding="UTF-8" standalone="no"?>
<!-- Created with Inkscape (http://www.inkscape.org/) -->

<svg
   xmlns:dc="http://purl.org/dc/elements/1.1/"
   xmlns:cc="http://creativecommons.org/ns#"
   xmlns:rdf="http://www.w3.org/1999/02/22-rdf-syntax-ns#"
   xmlns:svg="http://www.w3.org/2000/svg"
   xmlns="http://www.w3.org/2000/svg"
   xmlns:sodipodi="http://sodipodi.sourceforge.net/DTD/sodipodi-0.dtd"
   xmlns:inkscape="http://www.inkscape.org/namespaces/inkscape"
   width="304.31589"
   height="234.59624"
   id="svg2"
   version="1.1"
   inkscape:version="0.48.3.1 r9886"
   sodipodi:docname="barba12.svg">
  <defs
     id="defs4" />
  <sodipodi:namedview
     id="base"
     pagecolor="#ffffff"
     bordercolor="#666666"
     borderopacity="1.0"
     inkscape:pageopacity="0.0"
     inkscape:pageshadow="2"
     inkscape:zoom="0.35"
     inkscape:cx="152.21377"
     inkscape:cy="117.24853"
     inkscape:document-units="px"
     inkscape:current-layer="layer1"
     showgrid="false"
     fit-margin-top="0"
     fit-margin-left="0"
     fit-margin-right="0"
     fit-margin-bottom="0"
     inkscape:window-width="552"
     inkscape:window-height="752"
     inkscape:window-x="65"
     inkscape:window-y="24"
     inkscape:window-maximized="0" />
  <metadata
     id="metadata7">
    <rdf:RDF>
      <cc:Work
         rdf:about="">
        <dc:format>image/svg+xml</dc:format>
        <dc:type
           rdf:resource="http://purl.org/dc/dcmitype/StillImage" />
        <dc:title></dc:title>
      </cc:Work>
    </rdf:RDF>
  </metadata>
  <g
     inkscape:label="Capa 1"
     inkscape:groupmode="layer"
     id="layer1"
     transform="translate(-197.78622,-415.01442)">
    <g
       transform="translate(154.67006,-346.22841)"
       inkscape:label="Layer 1"
       id="layer1-3">
      <g
         inkscape:export-ydpi="90"
         inkscape:export-xdpi="90"
         id="g6846">
        <g
           inkscape:label="Capa 1"
           id="layer1-4"
           transform="translate(608.2923,-216.81779)">
          <g
             inkscape:label="Capa 1"
             id="layer1-0"
             transform="translate(-464.26829,9.26096)">
            <g
               transform="matrix(2,0,0,2,-125.03069,-1240.877)"
               id="g7230">
              <g
                 inkscape:label="Capa 1"
                 id="layer1-5"
                 transform="matrix(0.5,0,0,0.5,198.03499,723.12882)">
                <g
                   id="g3815">
                  <g
                     inkscape:label="Capa 1"
                     id="layer1-8"
                     transform="translate(-509.47265,-858.01422)">
                    <g
                       id="g4403">
                      <g
                         id="g5615">
                        <g
                           inkscape:label="Capa 1"
                           id="layer1-9"
                           transform="translate(34.810242,624.88049)">
                          <g
                             id="g4728"
                             transform="matrix(0.86372251,0,0,0.75945223,-6.6412836,551.71009)">
                            <g
                               inkscape:label="Capa 1"
                               id="layer1-42"
                               transform="matrix(1.1577793,0,0,1.3167385,-36.133084,-705.63507)">
                              <g
                                 id="g5224"
                                 transform="matrix(0.88307479,0,0,0.70910051,43.988222,438.13275)">
                                <g
                                   inkscape:label="Capa 1"
                                   id="layer1-02"
                                   transform="matrix(1.1324069,0,0,1.4102373,58.462682,-691.18829)">
                                <g
                                   id="g5286"
                                   transform="matrix(1.127305,0,0,1.127305,-48.449071,-93.350364)">
                                <g
                                   inkscape:label="Layer 1"
                                   id="layer1-7"
                                   transform="matrix(0.88707135,0,0,0.8870714,15.021825,628.39384)">
                                <g
                                   id="g5030"
                                   transform="matrix(1.5713649,0,0,1.5551129,-182.98344,-134.01333)">
                                <g
                                   inkscape:label="Capa 1"
                                   id="layer1-72"
                                   transform="matrix(0.63638942,0,0,0.64304013,66.223794,-101.46956)">
                                <g
                                   transform="translate(66.411606,232.19706)"
                                   id="layer1-06"
                                   inkscape:label="Layer 1">
                                <g
                                   inkscape:label="Capa 1"
                                   id="layer1-85"
                                   transform="translate(-63.980856,-142.78077)">
                                <g
                                   id="g11416">
                                <g
                                   id="layer1-1"
                                   inkscape:label="Layer 1"
                                   transform="translate(-1051.8062,-2761.3737)">
                                <g
                                   id="g12903">
                                <g
                                   transform="matrix(2,0,0,2,-1689.5,-3023.4999)"
                                   id="g12881">
                                <g
                                   id="layer1-41"
                                   inkscape:label="Layer 1"
                                   transform="matrix(0.5,0,0,0.5,1445.6768,3035.6911)">
                                <g
                                   id="g36550"
                                   transform="matrix(1.5803703,0,0,1.5783361,-185.78827,-139.12469)">
                                <g
                                   transform="matrix(0.6327631,0,0,0.63357861,253.98729,172.72975)"
                                   id="g16139">
                                <g
                                   transform="translate(32.646514,64.302354)"
                                   id="g17122"
                                   style="display:inline">
                                <g
                                   transform="translate(230.67166,48.649982)"
                                   id="g17985"
                                   style="display:inline">
                                <g
                                   id="layer51"
                                   inkscape:label="glasses04"
                                   style="display:none">
                                <g
                                   id="g3293">
                                <g
                                   id="g3286">
                                <path
                                   inkscape:connector-curvature="0"
                                   style="fill:#555753;fill-opacity:1;stroke:none"
                                   d="m 264.4181,212.78125 c -32.31852,0 -58.5431,20.04591 -58.5431,44.75 0,24.70409 26.22459,44.75001 58.5431,44.75 32.31853,0 58.54309,-20.0459 58.54311,-44.75 0,-24.70409 -26.22457,-44.75 -58.54311,-44.75 z"
                                   id="path3274" />
                                <path
                                   sodipodi:type="arc"
                                   style="fill:none;stroke:#555753;stroke-width:31.03476334;stroke-linecap:round;stroke-linejoin:round;stroke-miterlimit:4;stroke-opacity:1;stroke-dasharray:none"
                                   id="path3253"
                                   sodipodi:cx="-100"
                                   sodipodi:cy="152.10728"
                                   sodipodi:rx="27.969349"
                                   sodipodi:ry="12.643678"
                                   d="m -72.030651,152.10728 c 0,6.98291 -12.522304,12.64368 -27.969349,12.64368 -15.44704,0 -27.96935,-5.66077 -27.96935,-12.64368 0,0 0,0 0,0"
                                   sodipodi:start="0"
                                   sodipodi:end="3.1415927"
                                   sodipodi:open="true"
                                   transform="matrix(0.298049,0,0,-0.1549048,229.03861,284.77197)" />
                                <path
                                   inkscape:connector-curvature="0"
                                   style="fill:#555753;fill-opacity:1;stroke:none"
                                   d="m 136.41811,212.78125 c 32.31852,0 58.5431,20.04591 58.5431,44.75 0,24.70409 -26.22459,44.75001 -58.5431,44.75 -32.31853,0 -58.54309,-20.0459 -58.54311,-44.75 0,-24.70409 26.22457,-44.75 58.54311,-44.75 z"
                                   id="path3270" />
                                </g>
                                <path
                                   inkscape:connector-curvature="0"
                                   style="fill:#d3d7cf;fill-opacity:1;stroke:none"
                                   d="m 157.8581,226.57435 c 10.73549,0 19.4467,6.6588 19.4467,14.86494 0,8.20615 -8.71122,14.86495 -19.4467,14.86495 -10.73548,0 -19.44669,-6.6588 -19.4467,-14.86495 0,-8.20614 8.71121,-14.86494 19.4467,-14.86494 z"
                                   id="path3284" />
                                <path
                                   inkscape:connector-curvature="0"
                                   id="path3291"
                                   d="m 287.36002,228.10692 c 10.73549,0 19.4467,6.6588 19.4467,14.86494 0,8.20615 -8.71122,14.86495 -19.4467,14.86495 -10.73548,0 -19.44669,-6.6588 -19.4467,-14.86495 0,-8.20614 8.71121,-14.86494 19.4467,-14.86494 z"
                                   style="fill:#d3d7cf;fill-opacity:1;stroke:none" />
                                </g>
                                </g>
                                </g>
                                <g
                                   transform="translate(-291.82995,-48.730476)"
                                   inkscape:label="Layer 1"
                                   id="layer1-73">
                                <g
                                   style="overflow:visible"
                                   id="g2207"
                                   transform="matrix(5.2101698,0,0,4.5925712,-981.53569,-1326.6003)">
                                <g
                                   inkscape:label="Layer 1"
                                   id="g2209">
                                <linearGradient
                                   gradientTransform="matrix(1,0,0,-1,-103.7402,669.2354)"
                                   y2="356.91599"
                                   x2="350.96329"
                                   y1="356.91599"
                                   x1="344.9473"
                                   gradientUnits="userSpaceOnUse"
                                   id="path2779_1_">
                                <stop
                                   id="stop51"
                                   style="stop-color:#C17D11"
                                   offset="0" />
                                <stop
                                   id="stop53"
                                   style="stop-color:#E9B96E"
                                   offset="1" />
                                </linearGradient>
                                <linearGradient
                                   gradientTransform="matrix(0.4187,0,0,-0.4187,62.6646,711.7626)"
                                   y2="1042.7896"
                                   x2="378.0538"
                                   y1="1107.4297"
                                   x1="319.35059"
                                   gradientUnits="userSpaceOnUse"
                                   id="path3828_1_">
                                <stop
                                   id="stop74"
                                   style="stop-color:#F0DAD4"
                                   offset="0" />
                                <stop
                                   id="stop76"
                                   style="stop-color:#E4B8AD"
                                   offset="1" />
                                </linearGradient>
                                <linearGradient
                                   gradientTransform="matrix(0.4187,0,0,-0.4187,59.8071,601.9989)"
                                   y2="901.81659"
                                   x2="373.60489"
                                   y1="966.45697"
                                   x1="314.9014"
                                   gradientUnits="userSpaceOnUse"
                                   id="path4669_1_">
                                <stop
                                   id="stop125"
                                   style="stop-color:#F0DAD4"
                                   offset="0" />
                                <stop
                                   id="stop127"
                                   style="stop-color:#E4B8AD"
                                   offset="1" />
                                </linearGradient>
                                <linearGradient
                                   gradientTransform="matrix(0.4187,0,0,-0.4187,-57.2192,609.7821)"
                                   y2="914.51422"
                                   x2="532.32428"
                                   y1="979.1543"
                                   x1="473.62109"
                                   gradientUnits="userSpaceOnUse"
                                   id="path3478_1_">
                                <stop
                                   id="stop323"
                                   style="stop-color:#F0DAD4"
                                   offset="0" />
                                <stop
                                   id="stop325"
                                   style="stop-color:#E4B8AD"
                                   offset="1" />
                                </linearGradient>
                                </g>
                                <path
                                   inkscape:connector-curvature="0"
                                   style="fill:#693500;stroke:#000000"
                                   d="m 206.39376,329.54656 c 0,0 -6.914,5.033 -6.831,9.079 0.08,3.919 -1.822,10.876 -1.739,10.977 l 0.891,0.803 c -0.286,0.238 -0.482,0.639 -0.482,1.094 0,0.73 0.487,1.329 1.08,1.329 0.05,0 0.098,-0.007 0.146,-0.015 0.122,0.263 0.366,0.458 0.643,0.526 0.129,0.593 1.426,13.018 1.97,13.034 0.064,0.206 0.194,0.377 0.365,0.496 -0.035,0.143 -0.044,0.295 -0.044,0.453 0,0.843 0.543,1.532 1.227,1.532 0.005,0 0.008,0 0.015,0 0.05,0.544 5.956,0.864 6.349,0.993 0.069,1.222 0.88,2.189 1.883,2.189 0.263,0 0.517,-0.072 0.745,-0.189 0.146,0.137 0.321,0.243 0.511,0.321 -0.054,0.255 -0.088,0.517 -0.088,0.788 0,1.96 4.198,2.146 5.998,2.146 0.462,0 0.902,-0.104 1.3,-0.292 -0.013,0.134 -0.015,0.27 -0.015,0.408 0,2.211 0.586,3.795 2.569,3.795 0.511,0 -0.295,0.113 0.146,-0.102 0.45,0.267 0.989,0.409 1.577,0.409 1.55,0 5.195,0.906 5.195,-0.438 0,-0.372 1.194,-0.954 1.022,-1.27 0.998,-0.531 3.574,0.67 3.692,-0.379 0.085,0.009 0.174,0.015 0.263,0.015 0.564,0 1.076,-0.204 1.46,-0.54 0.428,0.342 0.975,0.54 1.562,0.54 1.39,0 4.086,-2.324 4.086,-3.737 0,-0.105 -0.002,-0.22 -0.013,-0.321 0.741,-0.202 1.301,-0.827 1.399,-1.591 0.692,-0.095 1.245,-0.707 1.329,-1.46 0,0 0,-0.011 0,-0.014 0.001,0 0.011,0 0.015,0 0.249,-0.041 0.485,-0.143 0.671,-0.307 0.152,0.041 0.316,0.058 0.481,0.058 0.912,0 1.649,-0.668 1.649,-1.488 0,-0.141 -0.017,-0.279 -0.058,-0.409 0.133,0.053 0.283,0.074 0.438,0.074 0.616,0 1.124,-4.232 1.124,-4.803 0,-0.165 4.525,-13.421 4.451,-13.56 0.566,-0.028 1.021,-0.47 1.021,-1.021 0,-0.199 -0.03,-0.397 -0.13,-0.555 0.04,0.007 0.087,0.014 0.13,0.014 0.457,0 0.833,-0.445 0.833,-0.992 0,-0.235 -0.075,-0.459 -0.189,-0.628 -0.08,-0.113 -0.191,-0.214 -0.308,-0.277 -0.007,-0.004 -0.021,-0.01 -0.028,-0.014 -0.004,-0.002 -0.013,-0.012 -0.015,-0.015 -0.001,10e-4 -0.011,10e-4 -0.015,0 -0.11,-0.182 -0.272,-0.312 -0.468,-0.335 0.734,-1.437 -1.354,-6.705 -1.311,-8.875 0.083,-4.046 -5.97,-7.444 -5.97,-7.444 l -1.737,0.073 -2.027,8.019 c 0.027,0.206 0.911,2.341 -1.089,5.06 -1.519,2.066 -1.401,4.565 -2.516,5.266 -0.089,-2.468 -2.746,-2.494 -2.746,-2.494 -0.007,-0.215 -0.213,-3.662 -6.611,-3.547 -3.975,0.07 -5.166,-0.101 -5.167,-0.102 l -4.744,0.102 c 0,0 -3.645,0.236 -4.115,2.948 -0.307,1.76 -2.162,0.729 -2.444,2.622 -1.294,-1.05 -0.38,-3.128 -1.938,-4.873 -1.998,-2.24 -0.806,-5.789 -0.778,-5.994 l -2.882,-7.007 -1.738,-0.075 z m 17.283,15.461 c 0.148,-0.002 1.001,-0.31 1.091,-0.312 0.103,-0.002 1.711,-0.934 1.713,-0.934 0,0 1.253,1.917 4.358,1.869 5.066,-0.079 3.609,0.588 3.623,0.746 0,0 -0.931,-0.077 -1.911,1.434 -0.007,0.012 -4.543,1.392 -5.604,1.246 -1.185,-0.159 -3.297,0.342 -3.58,0.311 -0.934,-0.934 -3.426,-1.557 -3.426,-1.557 0,0 -2.331,-0.144 -1.957,-2.018 0.361,-1.815 3.604,1.394 3.826,-0.785 0,0 0.836,0.021 1.867,0 z"
                                   id="path2940_2_" />
                                </g>
                                </g>
                                </g>
                                </g>
                                </g>
                                </g>
                                </g>
                                </g>
                                </g>
                                </g>
                                </g>
                                </g>
                                </g>
                                </g>
                                </g>
                                </g>
                                </g>
                              </g>
                            </g>
                          </g>
                        </g>
                      </g>
                    </g>
                  </g>
                </g>
              </g>
            </g>
          </g>
        </g>
      </g>
    </g>
  </g>
</svg>
