<?xml version="1.0" encoding="UTF-8" standalone="no"?>
<!-- Created with Inkscape (http://www.inkscape.org/) -->

<svg
   xmlns:dc="http://purl.org/dc/elements/1.1/"
   xmlns:cc="http://creativecommons.org/ns#"
   xmlns:rdf="http://www.w3.org/1999/02/22-rdf-syntax-ns#"
   xmlns:svg="http://www.w3.org/2000/svg"
   xmlns="http://www.w3.org/2000/svg"
   xmlns:sodipodi="http://sodipodi.sourceforge.net/DTD/sodipodi-0.dtd"
   xmlns:inkscape="http://www.inkscape.org/namespaces/inkscape"
   id="svg2"
   version="1.1"
   inkscape:version="0.48.3.1 r9886"
   width="1041.5125"
   height="1002.2125"
   xml:space="preserve"
   sodipodi:docname="korea music clipartMUSIC3.eps"><metadata
     id="metadata8"><rdf:RDF><cc:Work
         rdf:about=""><dc:format>image/svg+xml</dc:format><dc:type
           rdf:resource="http://purl.org/dc/dcmitype/StillImage" /><dc:title></dc:title></cc:Work></rdf:RDF></metadata><defs
     id="defs6" /><sodipodi:namedview
     pagecolor="#ffffff"
     bordercolor="#666666"
     borderopacity="1"
     objecttolerance="10"
     gridtolerance="10"
     guidetolerance="10"
     inkscape:pageopacity="0"
     inkscape:pageshadow="2"
     inkscape:window-width="640"
     inkscape:window-height="480"
     id="namedview4"
     showgrid="false"
     inkscape:zoom="0.235479"
     inkscape:cx="520.75623"
     inkscape:cy="501.10626"
     inkscape:window-x="0"
     inkscape:window-y="48"
     inkscape:window-maximized="0"
     inkscape:current-layer="g10" /><g
     id="g10"
     inkscape:groupmode="layer"
     inkscape:label="ink_ext_XXXXXX"
     transform="matrix(1.25,0,0,-1.25,0,1002.2125)"><g
       id="g12"
       transform="scale(0.1,0.1)"><path
         d="m 6800.61,5793.79 c 79.52,584.49 159.08,1169.16 238.6,1753.66 216.98,-165.33 606.85,-26.47 669.5,222.39 34.2,135.76 -82.34,225.82 -194.59,247.87 -44.02,0 -88.04,0 -132.05,0 -36.28,-9.26 -72.59,-18.53 -108.87,-27.8 -92.36,-36.53 -174.2,-90.52 -227.02,-166.79 -47.47,-68.51 -43.46,-164.65 -62.56,-259.46 -18.54,-136.67 -37.07,-273.37 -55.6,-410.03 -61.77,-450.92 -123.56,-901.97 -185.33,-1352.89 1.55,-0.78 3.08,-1.54 4.63,-2.32 17.76,-1.54 35.53,-3.09 53.29,-4.63"
         style="fill:#000000;fill-opacity:1;fill-rule:nonzero;stroke:none"
         id="path14" /><path
         d="m 6316.44,6928.91 c 7.72,1.55 15.45,3.09 23.17,4.64 18.43,69.56 39.14,148.37 50.96,224.71 34.81,224.92 -123.46,346.13 -245.57,433.2 -40.18,28.66 -87.84,56.59 -118.13,94.98 -41.11,52.08 -46.76,112.7 -81.08,171.42 0,1.55 0,3.1 0,4.64 -10.81,-1.54 -21.63,-3.09 -32.43,-4.64 -0.79,-1.54 -1.56,-3.09 -2.32,-4.62 63.31,-329.7 126.65,-659.49 189.96,-989.19 -136.71,44.79 -260.3,-57.39 -303.48,-150.58 -42.24,-91.14 -3.65,-183.73 90.36,-194.59 108.27,-12.51 290.65,125.46 266.4,254.83 -47.1,247.07 -94.22,494.22 -141.33,741.31 311.45,2.43 397.46,-309.91 303.49,-583.79 0,-0.77 0,-1.54 0,-2.32"
         style="fill:#000000;fill-opacity:1;fill-rule:nonzero;stroke:none"
         id="path16" /><path
         d="m 8324.93,6599.96 c -22.88,121.94 -75.54,226.64 -134.37,315.06 -25.48,34.74 -50.97,69.49 -76.45,104.24 -13.84,7.4 -15.47,-0.51 -32.43,-6.95 20.08,-29.34 40.15,-58.69 60.24,-88.03 37.14,-58.4 74.33,-124.16 97.29,-194.59 90.36,-277.24 -69.07,-513.04 -277.98,-581.47 -0.78,0 -1.56,0 -2.33,0 -45.56,288.78 -91.12,577.64 -136.68,866.41 164.56,-84.09 335.69,68.61 400.77,176.06 38.52,63.6 51.33,161.68 0,222.39 -33.49,39.62 -91.58,41.51 -143.63,50.97 -29.34,-6.95 -58.69,-13.91 -88.02,-20.85 -98.26,-39.84 -189.21,-117.81 -224.72,-220.08 -30.76,-88.59 25.36,-331.67 46.33,-437.83 57.91,-369.84 115.84,-739.8 173.75,-1109.65 14.67,1.55 29.34,3.09 44.03,4.63 0,44.78 0,89.58 0,134.36 5.81,55.74 16,104.93 34.73,148.27 74.89,173.3 312.71,353.16 259.47,637.06"
         style="fill:#000000;fill-opacity:1;fill-rule:nonzero;stroke:none"
         id="path18" /><path
         d="m 4553.52,5682.59 c -25.28,16.61 -50.36,37.75 -81.09,48.65 -174.13,61.75 -379.13,-45.79 -447.1,-152.9 -66.09,-104.14 -59.42,-260.73 55.6,-308.1 170.44,-70.2 381.47,33.79 458.68,143.63 71.88,102.23 70.27,379.31 99.61,530.49 56.37,393.01 112.76,786.14 169.12,1179.15 0,0.77 0,1.54 0,2.31 -16.98,2.32 -33.99,4.64 -50.97,6.95 -67.95,-483.34 -135.91,-966.83 -203.85,-1450.18 z M 4215.29,5362.9 c -38.86,-12.33 -148.26,-39.97 -171.43,4.64 -31.81,42.33 34.55,101.76 50.97,118.14 62.98,62.85 151.88,107.62 240.93,143.63 32.42,8.49 64.86,16.99 97.28,25.48 46.84,0.81 68.23,-4.52 92.67,-23.16 29.17,-113.4 -221.14,-240.4 -310.42,-268.73"
         style="fill:#000000;fill-opacity:1;fill-rule:nonzero;stroke:none"
         id="path20" /><path
         d="m 7785.16,5446.3 c 1.54,10.81 3.08,21.63 4.63,32.43 -3.09,44.79 -6.18,89.59 -9.27,134.37 -10.05,43.95 -37.63,85.34 -46.32,122.78 -7.86,33.81 12.23,100.43 6.95,141.31 -11.17,86.33 -33.08,164.78 -71.83,229.34 -73.52,122.49 -190.59,210.93 -305.79,291.89 -97.51,68.53 -205.48,125.58 -215.44,280.3 -4.62,0 -9.26,0 -13.89,0 -12.36,-2.31 -24.71,-4.63 -37.08,-6.94 84.17,-582.18 168.36,-1164.53 252.51,-1746.71 -178.11,108.81 -431.04,-105.01 -477.2,-250.19 -42.07,-132.3 55.6,-261.09 196.89,-238.61 166.43,26.47 306.3,135.89 345.19,289.57 19.77,78.16 -13.1,207.19 -27.81,284.95 -30.88,216.18 -61.78,432.44 -92.66,648.64 61,-30.11 122.01,-60.24 183.01,-90.35 97.63,-51.13 207.09,-89.56 271.04,-173.74 95.58,-125.82 88.37,-347.62 27.79,-498.07 50.08,-6.25 52.87,66.62 64.88,106.56 34.94,116.33 26.11,286.97 -20.85,389.19 -11.59,17.76 -23.17,35.52 -34.75,53.28 z m -88.04,356.75 c -0.77,0 -1.54,0 -2.31,0 -87.93,210.77 -468.79,273.24 -495.74,521.24 235.46,-73.3 486.52,-238.08 498.05,-521.24 z m -169.1,-129.73 c -137.57,95.59 -223.71,141.06 -282.63,319.7 177.82,-54.23 395.41,-189.51 465.63,-349.81 18.26,-41.67 22.83,-91.86 32.44,-143.63 -69.26,59.54 -139.42,120.93 -215.44,173.74"
         style="fill:#000000;fill-opacity:1;fill-rule:nonzero;stroke:none"
         id="path22" /><path
         d="m 6972.04,5311.94 c 20.48,111.81 -79.87,198.31 -180.71,180.7 -103.88,-18.16 -254.92,-94.66 -287.24,-194.6 -2.33,-1.55 -4.64,-3.09 -6.97,-4.64 -42.46,417.72 -84.94,835.56 -127.4,1253.28 0,0.77 0,1.54 0,2.31 -5.41,0.78 -10.82,1.55 -16.21,2.32 -10.82,-1.54 -21.62,-3.09 -32.44,-4.63 50.2,-471 100.4,-942.13 150.59,-1413.12 36.7,-91.78 155.79,-119.18 257.13,-83.4 115.66,40.84 219.03,129.56 243.25,261.78"
         style="fill:#000000;fill-opacity:1;fill-rule:nonzero;stroke:none"
         id="path24" /><path
         d="m 6094.05,6122.74 c -14.79,-3.14 -28.7,-11.03 -37.07,-20.85 24.06,-50.36 21.96,-108 32.42,-176.05 10.15,-65.97 -1.9,-141.22 -13.89,-192.28 -78.54,-334.32 -372.8,-369.83 -655.59,-493.44 45.55,265.61 91.12,531.29 136.68,796.91 14.77,67.4 60.55,238.24 46.33,312.74 -26.62,139.44 -154.53,193.4 -326.64,189.96 -44.76,-17.85 -97.31,-15.06 -138.98,-30.12 -124.42,-44.9 -354.95,-200.31 -275.69,-398.45 61.72,-154.27 302.35,-172.13 470.27,-101.93 69.85,29.21 118.5,74.05 173.74,115.83 0,1.55 0,3.09 0,4.63 11.09,-35.01 -15.33,-109.9 -23.15,-145.94 -20.09,-115.05 -40.16,-230.13 -60.25,-345.18 -73.35,-423.12 -146.72,-846.36 -220.08,-1269.48 0,-2.32 0,-4.64 0,-6.96 20.85,-3.08 41.7,-6.17 62.56,-9.26 66.91,172.97 154.75,203.79 296.52,296.52 70.86,46.35 138.97,96.08 203.86,148.27 132.45,106.51 216.74,284.09 264.09,474.89 11.32,45.63 15.17,94.67 13.91,150.59 -1.55,18.52 -3.09,37.06 -4.64,55.59 13.12,20.08 26.26,40.16 39.39,60.23 13.88,36.29 27.79,72.6 41.7,108.88 26.2,92.75 35.83,243.2 11.57,347.49 -12.36,42.47 -24.71,84.94 -37.06,127.41 z m -157.53,-931.27 c -111.7,-255.04 -334.37,-356.64 -602.32,-456.36 -0.77,0 -1.54,0 -2.31,0 44.09,266.21 297.95,387.99 481.84,518.91 62.36,44.39 154.95,104.44 187.65,176.06 17.72,-53.81 -47.59,-199.16 -64.86,-238.61"
         style="fill:#000000;fill-opacity:1;fill-rule:nonzero;stroke:none"
         id="path26" /><path
         d="m 3619.93,5974.48 c 0.77,1.54 1.54,3.09 2.32,4.63 31.65,-208.47 63.32,-417 94.98,-625.47 6.8,-2.89 17.64,-1.59 25.48,-2.32 -28.57,184.54 -57.15,369.13 -85.72,553.66 -23.51,119.3 11.6,173.87 -108.88,206.18 -27.54,-11 -53.54,-11.64 -76.45,-25.48 -42.95,-25.96 -121.5,-105.25 -76.44,-178.38 62.65,-101.67 189.62,21.98 224.71,67.18"
         style="fill:#000000;fill-opacity:1;fill-rule:nonzero;stroke:none"
         id="path28" /><path
         d="m 3138.07,4102.68 c 13.13,2.32 26.27,4.63 39.39,6.95 0.78,1.54 1.54,3.09 2.31,4.63 -90.33,387.6 -180.7,775.33 -271.04,1162.93 0,0.77 0,1.54 0,2.32 160.12,-43.5 306.39,70.77 356.75,187.64 35.39,82.1 17.88,211.83 -53.27,250.19 -24.75,13.34 -52.33,11.79 -76.45,16.22 -23.94,-4.64 -47.88,-9.27 -71.81,-13.91 -90.96,-33.06 -174.36,-102.75 -210.81,-189.95 -47.94,-114.7 25.85,-304.25 53.27,-414.67 77.22,-337.42 154.46,-674.93 231.66,-1012.35 z m -208.48,1355.2 c 58.11,99.14 134.08,170.34 243.24,220.08 13.37,-3.76 27.03,-5.07 39.38,-13.9 27.82,-109.26 -115.58,-248.93 -176.06,-294.21 -25.81,-19.32 -81.36,-66.98 -120.47,-41.7 -38.55,23.68 0.07,106.13 13.91,129.73"
         style="fill:#000000;fill-opacity:1;fill-rule:nonzero;stroke:none"
         id="path30" /><path
         d="m 3687.11,4985.3 c -13.9,3.86 -27.8,7.72 -41.7,11.58 -72.58,-398.41 -145.18,-796.94 -217.76,-1195.36 -0.77,0 -1.54,0 -2.32,0 -18.92,39.86 -117.56,68.91 -176.06,60.24 -106.93,-15.88 -212.46,-62.77 -266.4,-145.95 -37.87,-58.4 -27.05,-143.88 23.16,-183.02 76.56,-59.65 209.4,-51.12 296.52,-6.94 49.33,25.01 94.67,53.9 122.78,99.61 29.48,47.92 29.78,116.64 44.02,180.7 24.71,130.48 49.42,261.01 74.13,391.5 10.04,55.59 20.08,111.2 30.11,166.79 0,1.55 0,3.09 0,4.64 39.38,-36.29 78.77,-72.59 118.15,-108.89 129.33,-104 234.63,-239.28 148.27,-447.09 -22.76,-54.75 -56.49,-100.57 -88.04,-145.95 7.73,-1.55 15.45,-3.09 23.17,-4.64 77.02,58.31 118.74,187.39 136.68,296.53 8.14,49.54 -21.25,123.49 -16.21,143.63 8.04,32.18 31.01,69.04 41.69,104.25 39.02,128.72 -4.8,273.2 -60.23,366.02 -48.53,81.24 -248.73,287.23 -189.96,412.35 z m 194.59,-838.6 c -0.77,0 -1.54,0 -2.32,0 -56.26,201.98 -270.78,281.32 -245.55,551.34 79.86,-37.13 271.68,-269.46 268.72,-386.86 -1.48,-58.81 -14.28,-109.4 -20.85,-164.48"
         style="fill:#000000;fill-opacity:1;fill-rule:nonzero;stroke:none"
         id="path32" /><path
         d="m 4567.41,4943.6 c -146.18,40.93 -312.75,-74.2 -372.97,-173.75 -52.78,-87.23 -30.12,-320.23 -30.12,-463.31 0,-370.62 0,-741.34 0,-1111.96 15.45,0 30.89,0 46.35,0 26.5,273.33 127.67,319.58 261.76,486.47 78.52,97.73 194.82,218.23 169.11,407.73 -15.72,115.97 -46.23,220.51 -88.02,315.06 -18.54,34.74 -37.07,69.5 -55.59,104.25 -11.66,2.22 -17.4,-2.03 -30.13,-4.64 17.75,-38.61 35.52,-77.22 53.28,-115.83 25.23,-58.84 44.55,-123.01 57.92,-192.28 44.84,-232.39 -141.03,-526 -368.33,-525.86 0,291.85 0,583.81 0,875.66 161.88,-106.29 379.57,26.95 451.72,145.95 68.54,113.05 12.63,222.38 -94.98,252.51"
         style="fill:#000000;fill-opacity:1;fill-rule:nonzero;stroke:none"
         id="path34" /><path
         d="m 1961.25,4392.25 c 302.04,3.18 402.11,-296.9 303.47,-583.77 0,-0.78 0,-1.55 0,-2.32 7.72,0.77 15.44,1.54 23.17,2.32 18.7,69.8 39.22,148.27 50.96,224.7 35.51,231.06 -127.54,350.71 -252.51,440.15 -39,27.92 -84.29,55.19 -113.51,92.67 -36.07,46.27 -62.34,108.8 -78.77,173.75 -11.58,-1.55 -23.15,-3.1 -34.74,-4.64 63.32,-332.01 126.64,-664.12 189.95,-996.15 -130.75,65.42 -285.15,-85.3 -315.05,-178.35 -25.65,-79.85 23.11,-164.89 97.3,-164.49 115.94,0.63 296.22,110.51 271.04,254.83 -47.1,247.07 -94.22,494.22 -141.31,741.3"
         style="fill:#000000;fill-opacity:1;fill-rule:nonzero;stroke:none"
         id="path36" /><path
         d="m 2857.77,4301.91 c -102.91,21.47 -223.73,-68.71 -259.46,-125.11 -46.1,-72.74 -27.81,-234.57 -27.8,-354.43 0,-277.96 0,-556 0,-833.97 11.58,0 23.17,0 34.75,0 0,336.65 0,673.39 0,1010.04 129.62,-58.26 261.59,-2.23 331.28,97.29 61.39,87.68 20.01,185.56 -78.77,206.18"
         style="fill:#000000;fill-opacity:1;fill-rule:nonzero;stroke:none"
         id="path38" /><path
         d="m 2308.73,2589.95 c -16.21,-19.31 -32.43,-38.61 -48.64,-57.92 -0.77,-1.54 -1.55,-3.08 -2.32,-4.64 -23.93,160.61 -47.87,321.26 -71.81,481.86 157.68,-75.68 290.49,-101.26 217.75,-340.53 4.64,0.76 9.27,1.53 13.91,2.32 28.73,51.89 37.95,136.5 16.21,199.21 -9.26,16.98 -18.53,33.99 -27.79,50.97 0.77,13.91 1.54,27.8 2.31,41.7 1.76,31.99 -4.1,68.29 -16.22,99.62 -37.09,95.89 -128.4,136.43 -203.85,194.59 -36.08,27.8 -29.73,68.09 -55.6,99.61 -5.41,-0.77 -10.82,-1.56 -16.22,-2.33 -1.54,-0.76 -3.09,-1.53 -4.63,-2.3 36.28,-243.23 72.58,-486.51 108.88,-729.74 14.72,-75.11 1.85,-229.58 90.34,-227.01 76.38,2.2 238.04,91.84 176.06,199.23 -37.58,65.11 -134.84,29.05 -178.38,-4.64 z m 67.19,435.52 c 3.86,-25.48 7.72,-50.97 11.58,-76.45 -16.99,16.21 -33.98,32.43 -50.97,48.65 -72.78,55.76 -151.75,89.64 -176.06,194.6 84.97,-16.66 187.87,-91.1 215.45,-166.8"
         style="fill:#000000;fill-opacity:1;fill-rule:nonzero;stroke:none"
         id="path40" /><path
         d="m 1854.68,3006.93 c -6.36,-40.21 22.13,-87.21 11.59,-143.62 -32.52,-173.93 -166.15,-188.95 -305.79,-252.51 21.61,125.08 43.25,250.2 64.86,375.29 10.04,45.57 31.68,108.67 13.9,150.57 -18.9,44.56 -74.04,67.43 -132.04,67.18 -26.25,-5.4 -52.52,-10.8 -78.77,-16.21 -57.52,-22.68 -158.96,-91.87 -120.46,-183.01 52.64,-124.59 230.03,-39.37 294.2,9.26 -46.32,-267.16 -92.66,-534.39 -138.99,-801.54 9.27,-1.53 18.53,-3.08 27.8,-4.63 40.65,103.12 142.82,133.93 222.4,196.91 60.78,48.11 103.51,131.27 125.09,217.75 7.1,28.49 -3.02,77.31 4.64,99.62 6.07,17.74 25.42,37.81 32.42,57.92 27.1,77.73 12.8,158.45 -6.95,231.65 -4.63,-1.54 -9.26,-3.09 -13.9,-4.63 z m -62.54,-426.25 c -55.38,-110.61 -149.62,-154.25 -271.05,-199.23 24.83,72.98 59.87,128.28 115.84,169.12 63.65,46.43 146.93,77.27 187.64,145.95 9.41,-33 -20.18,-91.36 -32.43,-115.84"
         style="fill:#000000;fill-opacity:1;fill-rule:nonzero;stroke:none"
         id="path42" /><path
         d="m 965.113,2805.39 c 0,3.86 0,7.72 0,11.58 -7.718,0.77 -15.445,1.55 -23.16,2.32 -30.891,-219.27 -61.781,-438.63 -92.668,-657.91 -82.469,37.26 -177.168,34.11 -233.973,-39.39 -25.054,-32.4 -40.554,-112.93 0,-141.31 75.024,-52.5 197.52,5.99 231.661,60.24 34.172,54.29 25.144,153.53 39.382,224.7 26.247,179.92 52.508,359.86 78.758,539.77 z M 833.066,2105.78 c -20.058,-36.35 -155.988,-124 -208.488,-94.98 -6.414,3.65 -5.484,3.35 -9.266,9.27 19.723,78.78 98.676,91.75 171.422,125.1 33.559,1.56 65.457,-4.73 46.332,-39.39"
         style="fill:#000000;fill-opacity:1;fill-rule:nonzero;stroke:none"
         id="path44" /><path
         d="m 1164.35,1966.79 c -1.56,0 -3.1,0 -4.64,0 -18.53,188.39 -37.07,376.85 -55.6,565.24 -1.55,1.56 -3.09,3.1 -4.63,4.64 -3.87,0 -7.72,0 -11.59,0 -3.09,-2.31 -6.18,-4.64 -9.26,-6.95 23.93,-215.42 47.87,-430.91 71.82,-646.32 55.46,-101.51 247.19,17.14 227.02,111.19 -24.34,113.43 -189.81,39.93 -213.12,-27.8"
         style="fill:#000000;fill-opacity:1;fill-rule:nonzero;stroke:none"
         id="path46" /><path
         d="m 601.406,1765.24 c -2.312,0 -4.625,0 -6.941,0 -3.863,-1.54 -7.727,-3.08 -11.59,-4.63 -1.547,0 -3.086,0 -4.629,0 44.781,-220.06 89.574,-440.17 134.359,-660.24 -138.179,57.27 -306.222,-193.632 -148.265,-231.647 80.238,-19.309 202.34,89.722 185.332,176.047 -49.418,240.14 -98.848,480.35 -148.266,720.47"
         style="fill:#000000;fill-opacity:1;fill-rule:nonzero;stroke:none"
         id="path48" /><path
         d="m 960.484,1693.43 c -44.257,-25.44 -85.257,-37.98 -104.25,-88.03 -15.086,-39.79 7.707,-118.28 16.215,-164.48 20.074,-139.76 40.153,-279.55 60.239,-419.3 0.769,0 1.539,0 2.312,0 4.629,0.76 9.27,1.53 13.895,2.31 0.773,0.78 1.55,1.55 2.32,2.32 -24.707,166.01 -49.422,332.07 -74.125,498.05 134.39,-41.56 247.92,175.5 83.394,169.13"
         style="fill:#000000;fill-opacity:1;fill-rule:nonzero;stroke:none"
         id="path50" /><path
         d="m 550.445,796.914 c 18.071,-39.309 11.879,-83.652 13.895,-132.043 7.101,-170.262 -179.535,-213.23 -303.473,-261.773 21.621,125.836 43.25,251.746 64.871,377.593 9.594,47.129 32.274,111.45 11.582,152.891 -27.086,54.262 -84.914,54.238 -150.582,60.246 C 163.574,987.645 140.41,981.465 117.242,975.293 71.9766,955.93 -25.1758,884.324 6.04688,801.543 34.5781,725.859 147.41,720.09 223.809,752.891 c 30.953,13.289 52.492,36.64 78.753,53.281 C 255.469,539.797 208.355,273.34 161.262,6.95312 c 0,-0.77343 0,-1.55468 0,-2.32421 C 167.434,3.09766 173.617,1.54297 179.797,0 194.078,2.80469 237.539,81.7656 260.867,97.2969 377.496,175 470.473,224.891 524.961,366.023 c 6.949,30.891 13.906,61.77 20.851,92.668 -0.773,18.528 -1.542,37.071 -2.32,55.606 9.266,15.437 18.535,30.867 27.801,46.316 32.945,81.274 14.59,163.098 -2.313,243.254 -6.183,-2.324 -12.359,-4.64 -18.535,-6.953 z M 497.164,384.559 C 445.133,262.031 346.305,226.355 223.809,173.738 c -0.778,0 -1.547,0 -2.321,0 43.297,182.403 226.016,184.25 303.473,315.063 8.367,-29.848 -17.899,-80.949 -27.797,-104.242"
         style="fill:#000000;fill-opacity:1;fill-rule:nonzero;stroke:none"
         id="path52" /></g></g></svg>