<?xml version="1.0" encoding="UTF-8" standalone="no"?>
<!-- Created with Inkscape (http://www.inkscape.org/) -->

<svg
   xmlns:dc="http://purl.org/dc/elements/1.1/"
   xmlns:cc="http://creativecommons.org/ns#"
   xmlns:rdf="http://www.w3.org/1999/02/22-rdf-syntax-ns#"
   xmlns:svg="http://www.w3.org/2000/svg"
   xmlns="http://www.w3.org/2000/svg"
   xmlns:sodipodi="http://sodipodi.sourceforge.net/DTD/sodipodi-0.dtd"
   xmlns:inkscape="http://www.inkscape.org/namespaces/inkscape"
   id="svg2"
   version="1.1"
   inkscape:version="0.48.3.1 r9886"
   width="765"
   height="765"
   xml:space="preserve"
   sodipodi:docname="korea music clipartMUSIC1.eps"><metadata
     id="metadata8"><rdf:RDF><cc:Work
         rdf:about=""><dc:format>image/svg+xml</dc:format><dc:type
           rdf:resource="http://purl.org/dc/dcmitype/StillImage" /><dc:title></dc:title></cc:Work></rdf:RDF></metadata><defs
     id="defs6"><clipPath
       clipPathUnits="userSpaceOnUse"
       id="clipPath20"><path
         d="M 4636.41,4012.65 C 4191.98,4329.68 3579.77,4524.92 2903.99,4524.96 2228.19,4524.92 1616,4329.68 1171.56,4012.65 727.309,3695.81 450.027,3255.62 450.012,2767.69 450.027,2279.73 727.309,1839.55 1171.56,1522.73 1616,1205.69 2228.19,1010.46 2903.99,1010.4 c 675.78,0.04 1287.99,195.29 1732.42,512.33 444.27,316.82 721.54,757 721.56,1244.96 -0.02,487.93 -277.29,928.12 -721.56,1244.96 z m -25.8,-2453.81 C 4174.93,1247.9 3571.22,1054.73 2903.99,1054.79 2236.74,1054.73 1633.03,1247.9 1197.34,1558.84 761.453,1870 494.371,2297.38 494.395,2767.69 c -0.024,470.32 267.058,897.67 702.945,1208.83 435.63,310.91 1039.3,504.07 1706.45,504.07 0.08,0 0.11,0 0.2,0 667.23,0.04 1270.94,-193.13 1706.62,-504.07 435.89,-311.16 703,-738.51 702.98,-1208.83 C 5313.61,2297.38 5046.5,1870 4610.61,1558.84 z M 4303.3,3745.55 C 3921.56,4017.87 3395.7,4185.56 2815.24,4185.6 2234.76,4185.56 1708.92,4017.87 1327.17,3745.55 945.582,3473.4 707.406,3095.31 707.387,2676.18 c 0.019,-419.11 238.195,-797.22 619.783,-1069.34 381.75,-272.32 907.59,-440.02 1488.07,-440.06 580.46,0.02 1106.32,167.74 1488.06,440.06 381.59,272.12 619.77,650.23 619.79,1069.34 -0.02,419.13 -238.2,797.22 -619.79,1069.37 z m -22.15,-2107.7 c -374.24,-267.09 -892.79,-433.01 -1465.91,-432.96 -573.14,-0.05 -1091.7,165.87 -1465.93,432.96 -374.404,267.27 -603.818,634.36 -603.79,1038.33 -0.028,404 229.386,771.07 603.79,1038.34 374.19,267.06 892.7,432.96 1465.75,432.97 0.08,0 0.11,0 0.18,0 573.12,0.04 1091.67,-165.88 1465.91,-432.97 374.4,-267.27 603.83,-634.34 603.82,-1038.34 0.01,-403.97 -229.42,-771.06 -603.82,-1038.33 z m -288.53,1877.96 c -322.76,230.24 -767.39,372.03 -1258.18,372.07 -490.81,-0.04 -935.41,-141.83 -1258.19,-372.07 -322.64,-230.11 -524.016,-549.8 -524.031,-904.17 0.015,-354.37 201.391,-674.07 524.031,-904.16 322.78,-230.25 767.38,-372.04 1258.19,-372.08 490.79,0.03 935.42,141.83 1258.18,372.08 322.65,230.09 524.03,549.79 524.05,904.16 -0.02,354.37 -201.4,674.06 -524.05,904.17 z m -18.7,-1782.1 c -316.44,-225.83 -754.89,-366.11 -1239.48,-366.08 -484.6,-0.03 -923.05,140.25 -1239.46,366.08 -316.57,225.97 -510.542,536.36 -510.523,877.93 -0.019,341.58 193.953,651.93 510.523,877.92 316.38,225.8 754.79,366.08 1239.31,366.09 0.06,0 0.1,0 0.15,0 484.59,0.03 923.04,-140.25 1239.48,-366.09 316.54,-225.99 510.52,-536.34 510.52,-877.92 0,-341.57 -193.98,-651.96 -510.52,-877.93 z m -246.6,1591.65 c -274.86,196.08 -653.5,316.82 -1071.45,316.85 -417.98,-0.03 -796.6,-120.77 -1071.48,-316.85 -274.77,-195.96 -446.25,-468.21 -446.27,-769.99 0.02,-301.78 171.5,-574.03 446.27,-769.98 274.88,-196.07 653.5,-316.83 1071.48,-316.85 417.95,0.01 796.59,120.78 1071.45,316.85 274.76,195.95 446.27,468.2 446.29,769.98 -0.02,301.78 -171.53,574.03 -446.29,769.99 z m -15.93,-1517.65 c -269.48,-192.3 -642.85,-311.76 -1055.52,-311.74 -412.69,-0.02 -786.07,119.44 -1055.52,311.74 -269.6,192.46 -434.78,456.77 -434.78,747.66 0,290.89 165.18,555.19 434.78,747.64 269.42,192.29 642.77,311.76 1055.38,311.76 0.05,0 0.09,0 0.14,0 412.67,0.03 786.04,-119.44 1055.52,-311.76 269.58,-192.45 434.77,-456.75 434.77,-747.64 0,-290.89 -165.19,-555.2 -434.77,-747.66 z m -186,1384.08 c -238.01,169.78 -565.89,274.33 -927.81,274.36 -361.93,-0.03 -689.78,-104.58 -927.81,-274.36 -237.93,-169.69 -386.42,-405.44 -386.43,-666.76 0.01,-261.32 148.5,-497.07 386.43,-666.75 238.03,-169.78 565.88,-274.34 927.81,-274.37 361.92,0.02 689.8,104.59 927.81,274.37 237.91,169.68 386.43,405.43 386.45,666.75 -0.02,261.32 -148.54,497.07 -386.45,666.76 z M 3511.6,1877.62 c -233.37,-166.53 -556.67,-269.98 -914.02,-269.94 -357.35,-0.04 -680.67,103.41 -913.99,269.94 -233.46,166.65 -376.49,395.52 -376.48,647.41 -0.01,251.88 143.02,480.75 376.48,647.4 233.3,166.51 556.59,269.96 913.87,269.96 0.05,0 0.08,0 0.12,0 357.35,0.02 680.65,-103.43 914.02,-269.96 233.43,-166.65 376.47,-395.52 376.47,-647.4 0,-251.89 -143.04,-480.76 -376.47,-647.41"
         id="path22" /></clipPath></defs><sodipodi:namedview
     pagecolor="#ffffff"
     bordercolor="#666666"
     borderopacity="1"
     objecttolerance="10"
     gridtolerance="10"
     guidetolerance="10"
     inkscape:pageopacity="0"
     inkscape:pageshadow="2"
     inkscape:window-width="640"
     inkscape:window-height="480"
     id="namedview4"
     showgrid="false"
     inkscape:zoom="0.30849673"
     inkscape:cx="382.5"
     inkscape:cy="382.5"
     inkscape:window-x="0"
     inkscape:window-y="48"
     inkscape:window-maximized="0"
     inkscape:current-layer="g10" /><g
     id="g10"
     inkscape:groupmode="layer"
     inkscape:label="ink_ext_XXXXXX"
     transform="matrix(1.25,0,0,-1.25,0,765)"><g
       id="g12"
       transform="scale(0.1,0.1)"><path
         d="m 0,0 6120,0 0,6120 L 0,6120 0,0 z"
         style="fill:#ffffff;fill-opacity:1;fill-rule:nonzero;stroke:none"
         id="path14" /><g
         id="g16"><g
           id="g18"
           clip-path="url(#clipPath20)"><path
             d="M 4636.41,4012.65 C 4191.98,4329.68 3579.77,4524.92 2903.99,4524.96 2228.19,4524.92 1616,4329.68 1171.56,4012.65 727.309,3695.81 450.027,3255.62 450.012,2767.69 450.027,2279.73 727.309,1839.55 1171.56,1522.73 1616,1205.69 2228.19,1010.46 2903.99,1010.4 c 675.78,0.04 1287.99,195.29 1732.42,512.33 444.27,316.82 721.54,757 721.56,1244.96 -0.02,487.93 -277.29,928.12 -721.56,1244.96 z m -25.8,-2453.81 C 4174.93,1247.9 3571.22,1054.73 2903.99,1054.79 2236.74,1054.73 1633.03,1247.9 1197.34,1558.84 761.453,1870 494.371,2297.38 494.395,2767.69 c -0.024,470.32 267.058,897.67 702.945,1208.83 435.63,310.91 1039.3,504.07 1706.45,504.07 0.08,0 0.11,0 0.2,0 667.23,0.04 1270.94,-193.13 1706.62,-504.07 435.89,-311.16 703,-738.51 702.98,-1208.83 C 5313.61,2297.38 5046.5,1870 4610.61,1558.84 z M 4303.3,3745.55 C 3921.56,4017.87 3395.7,4185.56 2815.24,4185.6 2234.76,4185.56 1708.92,4017.87 1327.17,3745.55 945.582,3473.4 707.406,3095.31 707.387,2676.18 c 0.019,-419.11 238.195,-797.22 619.783,-1069.34 381.75,-272.32 907.59,-440.02 1488.07,-440.06 580.46,0.02 1106.32,167.74 1488.06,440.06 381.59,272.12 619.77,650.23 619.79,1069.34 -0.02,419.13 -238.2,797.22 -619.79,1069.37 z m -22.15,-2107.7 c -374.24,-267.09 -892.79,-433.01 -1465.91,-432.96 -573.14,-0.05 -1091.7,165.87 -1465.93,432.96 -374.404,267.27 -603.818,634.36 -603.79,1038.33 -0.028,404 229.386,771.07 603.79,1038.34 374.19,267.06 892.7,432.96 1465.75,432.97 0.08,0 0.11,0 0.18,0 573.12,0.04 1091.67,-165.88 1465.91,-432.97 374.4,-267.27 603.83,-634.34 603.82,-1038.34 0.01,-403.97 -229.42,-771.06 -603.82,-1038.33 z m -288.53,1877.96 c -322.76,230.24 -767.39,372.03 -1258.18,372.07 -490.81,-0.04 -935.41,-141.83 -1258.19,-372.07 -322.64,-230.11 -524.016,-549.8 -524.031,-904.17 0.015,-354.37 201.391,-674.07 524.031,-904.16 322.78,-230.25 767.38,-372.04 1258.19,-372.08 490.79,0.03 935.42,141.83 1258.18,372.08 322.65,230.09 524.03,549.79 524.05,904.16 -0.02,354.37 -201.4,674.06 -524.05,904.17 z m -18.7,-1782.1 c -316.44,-225.83 -754.89,-366.11 -1239.48,-366.08 -484.6,-0.03 -923.05,140.25 -1239.46,366.08 -316.57,225.97 -510.542,536.36 -510.523,877.93 -0.019,341.58 193.953,651.93 510.523,877.92 316.38,225.8 754.79,366.08 1239.31,366.09 0.06,0 0.1,0 0.15,0 484.59,0.03 923.04,-140.25 1239.48,-366.09 316.54,-225.99 510.52,-536.34 510.52,-877.92 0,-341.57 -193.98,-651.96 -510.52,-877.93 z m -246.6,1591.65 c -274.86,196.08 -653.5,316.82 -1071.45,316.85 -417.98,-0.03 -796.6,-120.77 -1071.48,-316.85 -274.77,-195.96 -446.25,-468.21 -446.27,-769.99 0.02,-301.78 171.5,-574.03 446.27,-769.98 274.88,-196.07 653.5,-316.83 1071.48,-316.85 417.95,0.01 796.59,120.78 1071.45,316.85 274.76,195.95 446.27,468.2 446.29,769.98 -0.02,301.78 -171.53,574.03 -446.29,769.99 z m -15.93,-1517.65 c -269.48,-192.3 -642.85,-311.76 -1055.52,-311.74 -412.69,-0.02 -786.07,119.44 -1055.52,311.74 -269.6,192.46 -434.78,456.77 -434.78,747.66 0,290.89 165.18,555.19 434.78,747.64 269.42,192.29 642.77,311.76 1055.38,311.76 0.05,0 0.09,0 0.14,0 412.67,0.03 786.04,-119.44 1055.52,-311.76 269.58,-192.45 434.77,-456.75 434.77,-747.64 0,-290.89 -165.19,-555.2 -434.77,-747.66 z m -186,1384.08 c -238.01,169.78 -565.89,274.33 -927.81,274.36 -361.93,-0.03 -689.78,-104.58 -927.81,-274.36 -237.93,-169.69 -386.42,-405.44 -386.43,-666.76 0.01,-261.32 148.5,-497.07 386.43,-666.75 238.03,-169.78 565.88,-274.34 927.81,-274.37 361.92,0.02 689.8,104.59 927.81,274.37 237.91,169.68 386.43,405.43 386.45,666.75 -0.02,261.32 -148.54,497.07 -386.45,666.76 z M 3511.6,1877.62 c -233.37,-166.53 -556.67,-269.98 -914.02,-269.94 -357.35,-0.04 -680.67,103.41 -913.99,269.94 -233.46,166.65 -376.49,395.52 -376.48,647.41 -0.01,251.88 143.02,480.75 376.48,647.4 233.3,166.51 556.59,269.96 913.87,269.96 0.05,0 0.08,0 0.12,0 357.35,0.02 680.65,-103.43 914.02,-269.96 233.43,-166.65 376.47,-395.52 376.47,-647.4 0,-251.89 -143.04,-480.76 -376.47,-647.41"
             style="fill:url(#(null));fill-opacity:1;fill-rule:nonzero;stroke:none"
             id="path24" /></g></g><path
         d="m 3376.22,3592.61 -15.89,-0.04 0,-418.98 c -17.3,11.18 -46.58,10.24 -73.98,-4.23 -35.07,-18.54 -53.67,-52.15 -41.55,-75.09 12.11,-22.93 50.37,-26.5 85.45,-7.96 25.53,13.5 42.27,34.98 44.84,54.53 l 1.13,0 0,451.77"
         style="fill:#000000;fill-opacity:1;fill-rule:nonzero;stroke:none"
         id="path26" /><path
         d="m 5210.68,1913.04 c -4.59,46.32 -29.05,86.87 -56.57,131.27 -27.52,44.39 -59.63,187.27 -59.63,187.27 l 0,-465.24 c -18.33,11.85 -49.35,10.86 -78.37,-4.48 -37.15,-19.63 -56.86,-55.24 -44.02,-79.54 12.83,-24.29 53.36,-28.07 90.51,-8.43 27.07,14.3 44.78,37.06 47.5,57.76 l 1.2,0 0,294.42 c 8.14,-9.41 24.42,-29.96 48.93,-68.63 36.68,-57.93 47.02,-117.73 47.02,-117.73 0,0 8.02,26.99 3.43,73.33"
         style="fill:#000000;fill-opacity:1;fill-rule:nonzero;stroke:none"
         id="path28" /><path
         d="m 4571.7,4455.64 c -4.59,46.33 -29.04,86.88 -56.56,131.28 -27.52,44.39 -59.63,187.27 -59.63,187.27 l 0,-465.24 c -18.34,11.85 -49.36,10.85 -78.38,-4.49 -37.15,-19.62 -56.86,-55.23 -44.02,-79.53 12.83,-24.3 53.37,-28.07 90.51,-8.43 27.07,14.29 44.79,37.05 47.5,57.75 l 1.2,0 0,294.42 c 8.15,-9.41 24.42,-29.94 48.92,-68.63 36.7,-57.92 47.03,-117.73 47.03,-117.73 0,0 8.02,26.99 3.43,73.33"
         style="fill:#000000;fill-opacity:1;fill-rule:nonzero;stroke:none"
         id="path30" /><path
         d="m 2260.6,3719.83 c -4.25,42.97 -26.94,80.56 -52.46,121.73 -25.52,41.17 -55.29,173.66 -55.29,173.66 l 0,-431.41 c -17.01,10.99 -45.76,10.07 -72.67,-4.15 -34.45,-18.2 -52.72,-51.22 -40.82,-73.75 11.91,-22.53 49.48,-26.03 83.93,-7.81 25.1,13.25 41.52,34.35 44.05,53.55 l 1.1,0 0,273 c 7.55,-8.73 22.65,-27.77 45.38,-63.64 34.02,-53.71 43.59,-109.17 43.59,-109.17 0,0 7.44,25.04 3.19,67.99"
         style="fill:#000000;fill-opacity:1;fill-rule:nonzero;stroke:none"
         id="path32" /><path
         d="m 2779.71,1927.4 c -31.92,40.79 -66.59,128.48 -92.59,203.48 19.13,-17.87 54.52,-53.97 106.27,-118.65 82.09,-102.61 105.2,-208.6 105.2,-208.6 0,0 17.94,47.83 7.68,129.92 -10.27,82.1 -65,153.94 -126.56,232.61 -61.56,78.65 -133.4,331.79 -133.4,331.79 l 0,-1040.84 c -41.01,26.51 -110.42,24.28 -175.35,-10.03 -83.12,-43.92 -127.21,-123.56 -98.48,-177.93 28.71,-54.35 119.4,-62.8 202.5,-18.87 60.53,31.99 100.19,82.9 106.28,129.22 l 2.67,0 0,515.58 c 18.23,-16.68 54.64,-53.07 109.46,-121.6 82.09,-102.61 105.2,-208.59 105.2,-208.59 0,0 17.94,47.82 7.68,129.92 -10.27,82.08 -65,153.93 -126.56,232.59"
         style="fill:#000000;fill-opacity:1;fill-rule:nonzero;stroke:none"
         id="path34" /><path
         d="m 2563.52,4608.28 0,119.76 -52.18,-17.31 0,153.82 -32.57,0 0,-164.62 -123.96,-41.1 0,174.21 -32.61,0 0,-185.01 -56.49,-18.73 0,-119.74 56.49,18.72 0,-165.92 -56.49,-18.72 0,-119.71 56.49,18.71 0,-146.86 32.61,0 0,157.68 123.96,41.06 0,-167.23 32.57,0 0,178.03 52.18,17.3 0,119.72 -52.18,-17.3 0,165.93 52.18,17.31 z m -84.75,-194.04 -123.96,-41.07 0,165.92 123.96,41.09 0,-165.94"
         style="fill:#000000;fill-opacity:1;fill-rule:nonzero;stroke:none"
         id="path36" /><path
         d="m 4700.03,2729.18 c 0,0 -72.37,40.9 -56.44,71.18 15.91,30.28 52.09,28.77 52.09,28.77 0,0 -44.87,39.39 -44.87,56.03 0,16.68 33.3,49.98 33.3,71.2 0,21.19 -26.06,74.19 -26.06,74.19 0,0 79.63,-75.71 78.16,-96.93 -1.44,-21.2 -30.39,-36.35 -31.83,-62.09 -1.46,-25.74 41.97,-78.73 41.97,-78.73 0,0 -33.28,7.56 -53.56,-4.56 -20.28,-12.12 7.24,-59.06 7.24,-59.06"
         style="fill:#000000;fill-opacity:1;fill-rule:nonzero;stroke:none"
         id="path38" /><path
         d="m 2825.21,3425.57 159.75,-24.4 68.72,1120.85 -162.05,9.82 -66.42,-1106.27 z m 492.93,587.32 c 38.31,-2.32 71.24,25.83 73.48,62.9 2.25,37.02 -27.05,68.93 -65.36,71.25 -38.36,2.32 -71.3,-25.81 -73.55,-62.84 -2.24,-37.07 27.06,-68.99 65.43,-71.31 z m -215.15,-644.26 30.63,-8.51 71.38,1152.73 -32.56,1.97 -69.45,-1146.19 z m 205.66,487.74 c -38.36,2.33 -71.31,-25.87 -73.56,-62.87 -2.24,-37.06 27.07,-69 65.43,-71.33 38.3,-2.31 71.25,25.85 73.5,62.91 2.23,37 -27.06,68.97 -65.37,71.29"
         style="fill:#000000;fill-opacity:1;fill-rule:nonzero;stroke:none"
         id="path40" /><path
         d="m 3695.9,4654.1 0,23.11 -179.44,-70.12 0,259.87 -49.3,0 0,-570.37 -0.09,-0.04 0,-108.21 179.82,70.29 0,-257.04 49.34,0 0,652.51 -0.33,0 z m -49.01,-287.26 -130.43,-50.99 0,183.04 130.43,50.97 0,-183.02"
         style="fill:#000000;fill-opacity:1;fill-rule:nonzero;stroke:none"
         id="path42" /><path
         d="m 3240.27,1885.37 0,313.99 -47.02,0 0,-640.44 c 0,0 130.05,53.85 181.2,142.47 56.61,98.01 27.85,229.74 -134.18,183.98 z m 85.62,-171.63 c -19.25,-35.2 -56.17,-62.11 -82.85,-78.14 l 0,201.02 c 100.58,28.92 118.34,-58.05 82.85,-122.88"
         style="fill:#000000;fill-opacity:1;fill-rule:nonzero;stroke:none"
         id="path44" /><path
         d="m 5303.12,3162.88 c 0,0 -220.6,13.07 -256.11,-205.63 0,0 -11.21,-157.02 121.51,-157.02 0,0 99.08,-11.21 99.08,93.47 0,0 20.56,100.94 -95.34,104.69 0,0 -56.07,0 -26.17,48.59 0,0 108.42,117.78 239.25,-7.47 0,0 102.8,-121.51 28.05,-302.83 0,0 -24.32,-198.16 -332.74,-349.56 0,0 -46.73,-63.57 22.44,-44.86 0,0 476.67,151.41 482.27,543.96 0,0 0,276.66 -282.24,276.66 z m 353.3,-179.45 c 30.94,0 56.05,25.11 56.05,56.08 0,30.96 -25.11,56.07 -56.05,56.07 -30.98,0 -56.1,-25.11 -56.1,-56.07 0,-30.97 25.12,-56.08 56.1,-56.08 z m 0,-158.89 c -30.98,0 -56.1,-25.11 -56.1,-56.08 0,-30.97 25.12,-56.08 56.1,-56.08 30.94,0 56.05,25.11 56.05,56.08 0,30.97 -25.11,56.08 -56.05,56.08"
         style="fill:#000000;fill-opacity:1;fill-rule:nonzero;stroke:none"
         id="path46" /><path
         d="m 2211.13,2694.43 c -106.83,445.39 -555.51,455.75 -668.49,451.08 -2.16,14.35 -4.01,27.59 -5.62,39.24 -11.55,86.5 -33.66,225.98 -59.45,381.61 99.91,98.59 182.06,180.12 182.06,180.12 738.78,837.54 -10.25,1634.25 -10.25,1634.25 C 873.176,5081.14 1220.42,4052.9 1220.42,4052.9 c 0,0 11.33,-52.69 30.54,-142.69 -221.54,-212.65 -449.315,-470.14 -449.315,-470.14 -548.149,-633.28 -17.02,-1293.78 -17.02,-1293.78 236.125,-314.81 680.285,-315.38 891.015,-295.24 21.8,-115.4 37.8,-206.02 45.27,-259.73 51.06,-367.71 -71.53,-500.49 -71.53,-500.49 -214.52,-306.428 -469.79,-71.48 -469.79,-71.48 255.27,71.48 224.69,285.98 224.69,285.98 10.22,204.27 -245.17,245.16 -245.17,245.16 -194.02,0 -275.774,-255.35 -214.465,-418.78 61.245,-163.448 163.415,-217.933 163.415,-217.933 303.01,-166.836 490.24,-37.461 490.24,-37.461 320.09,166.864 234.97,725.254 234.97,725.254 0,0 -21.12,105.69 -52.22,263.4 7.16,1.29 11.36,2.12 11.36,2.12 163.45,81.72 541.32,316.68 418.72,827.34 z m -561.75,2420.71 c 148.13,-130.22 145.56,-395.77 145.56,-395.77 -49.01,-418.46 -217.12,-541.57 -397.33,-683.71 -41.24,237.19 -75.06,425.84 -75.06,425.84 -74.86,449.4 326.83,653.64 326.83,653.64 z M 1128.54,2112.23 c -548.251,408.58 -71.54,1048.69 10.19,1123.58 31.93,29.24 118.29,113.53 211.8,205.38 22.09,-104.51 45.68,-217.13 70.12,-333.64 C 1048.54,2938.34 1057,2561.67 1057,2561.67 c 0,-449.44 377.86,-439.2 377.86,-439.2 -357.44,326.82 -71.45,582.15 -71.45,582.15 38.55,33.5 81.94,56.76 126.05,72.68 58.18,-280.85 115.23,-560.44 158.63,-782.95 -245.48,-39.78 -519.55,117.88 -519.55,117.88 z m 473.03,690.44 c 70.7,7.41 134.38,-0.48 172.93,-13.75 40.89,-14.04 156.37,-64.08 204.33,-153.26 47.81,-88.91 28.12,-217.04 28.12,-217.04 -40.9,-226.22 -139.8,-342.17 -257.16,-394.35 -46.61,238.34 -103.96,536.05 -148.22,778.4"
         style="fill:#000000;fill-opacity:1;fill-rule:nonzero;stroke:none"
         id="path48" /><path
         d="m 4105.08,3752.55 c 78.66,-87.17 100.79,-177.2 100.79,-177.2 0,0 17.2,40.63 7.38,110.36 -9.83,69.74 -62.29,130.77 -121.29,197.57 -23.97,27.17 -49.6,78.84 -71.55,130.59 19.61,-17.62 47.73,-44.95 84.67,-85.87 78.66,-87.16 100.79,-177.18 100.79,-177.18 0,0 17.2,40.62 7.38,110.35 -9.83,69.72 -62.29,130.75 -121.29,197.58 -58.99,66.8 -127.82,281.84 -127.82,281.84 l 0,-997.43 c -39.32,25.42 -105.81,23.28 -168.03,-9.6 -79.63,-42.08 -121.91,-118.41 -94.37,-170.51 27.52,-52.08 114.39,-60.17 194.04,-18.07 58.03,30.66 96.02,79.43 101.85,123.82 l 2.56,0 0,414.26 c 17.45,-14.17 52.35,-45.07 104.89,-103.29 78.66,-87.17 100.79,-177.18 100.79,-177.18 0,0 17.2,40.62 7.38,110.36 -9.83,69.72 -62.29,130.75 -121.29,197.56 -23.31,26.4 -48.12,75.95 -69.66,126.21 19.52,-17.67 47.02,-44.57 82.78,-84.17"
         style="fill:#000000;fill-opacity:1;fill-rule:nonzero;stroke:none"
         id="path50" /><path
         d="m 5329.52,3809.46 0,0.58 -2.92,-0.58 -5.79,-0.02 0,-1.14 -311.02,-61.92 0,-0.6 -3.26,-0.01 0,-327.37 c -13.52,8.75 -36.4,8.01 -57.81,-3.3 -27.4,-14.48 -41.94,-40.74 -32.46,-58.66 9.46,-17.92 39.35,-20.7 66.75,-6.22 19.96,10.54 33.04,27.33 35.04,42.6 l 0.88,0 0,232.32 301.88,60.11 0,-203.17 c -13.52,8.74 -36.4,8 -57.8,-3.31 -27.4,-14.48 -41.95,-40.73 -32.47,-58.66 9.46,-17.92 39.35,-20.7 66.76,-6.22 19.96,10.54 33.02,27.33 35.04,42.6 l 0.87,0 0,352.98 -3.69,-0.01 z m -310.59,-132.57 0,19.56 301.88,60.11 0,-19.56 -301.88,-60.11"
         style="fill:#000000;fill-opacity:1;fill-rule:nonzero;stroke:none"
         id="path52" /><path
         d="m 4658.14,2578.92 0,1.73 -8.87,-1.76 -17.57,-0.04 0,-3.46 -943.44,-187.83 0,-1.81 -9.86,-0.03 0,-992.99 c -41.02,26.5 -110.42,24.28 -175.34,-10.03 -83.13,-43.92 -127.23,-123.57 -98.49,-177.93 28.71,-54.36 119.39,-62.8 202.5,-18.86 60.54,31.97 100.2,82.9 106.27,129.2 l 2.68,0 0,704.7 915.68,182.33 0,-616.27 c -41.02,26.51 -110.44,24.27 -175.34,-10.04 -83.12,-43.93 -127.22,-123.57 -98.49,-177.94 28.7,-54.34 119.4,-62.78 202.51,-18.86 60.51,31.99 100.17,82.9 106.26,129.21 l 2.68,0 0,1070.71 -11.18,-0.03 z m -942.12,-402.14 0,59.33 915.68,182.33 0,-59.34 -915.68,-182.32"
         style="fill:#000000;fill-opacity:1;fill-rule:nonzero;stroke:none"
         id="path54" /><path
         d="m 4192.23,3129.36 0,-422.74 c -17.44,11.29 -47,10.34 -74.64,-4.26 -35.38,-18.71 -54.15,-52.61 -41.93,-75.76 12.23,-23.14 50.84,-26.72 86.2,-8.03 25.78,13.62 42.68,35.29 45.26,55.02 l 1.14,0 0,455.82 -16.03,-0.05 z m -183.31,-457.28 c -13.75,0 -24.9,-11.14 -24.9,-24.88 0,-13.76 11.15,-24.9 24.9,-24.9 13.75,0 24.89,11.14 24.89,24.9 0,13.74 -11.14,24.88 -24.89,24.88"
         style="fill:#000000;fill-opacity:1;fill-rule:nonzero;stroke:none"
         id="path56" /><path
         d="m 3004.55,1470.64 0,-499.917 c -20.64,13.347 -55.59,12.226 -88.28,-5.039 -41.84,-22.11 -64.05,-62.215 -49.57,-89.59 14.45,-27.364 60.1,-31.614 101.94,-9.492 30.47,16.101 50.44,41.738 53.51,65.046 l 1.34,0 0,539.042 -18.94,-0.05 z m -51.01,-577.652 c -32.12,-16.98 -63.31,-21.047 -69.63,-9.093 -6.33,11.996 14.6,35.453 46.73,52.421 32.14,16.985 63.32,21.067 69.64,9.094 6.32,-11.953 -14.6,-35.43 -46.74,-52.422"
         style="fill:#000000;fill-opacity:1;fill-rule:nonzero;stroke:none"
         id="path58" /><path
         d="m 4755.65,4479.55 0,-992.99 c -41,26.51 -110.42,24.29 -175.34,-10.03 -83.11,-43.91 -127.21,-123.56 -98.49,-177.92 28.72,-54.36 119.4,-62.81 202.5,-18.88 60.54,31.99 100.2,82.9 106.29,129.22 l 2.67,0 0,1070.7 -37.63,-0.1 z m -101.31,-1147.4 c -63.82,-33.72 -125.75,-41.8 -138.32,-18.05 -12.55,23.79 29.01,70.4 92.82,104.11 63.84,33.75 125.77,41.85 138.34,18.06 12.55,-23.75 -29.02,-70.38 -92.84,-104.12"
         style="fill:#000000;fill-opacity:1;fill-rule:nonzero;stroke:none"
         id="path60" /></g></g></svg>