<?xml version="1.0" encoding="UTF-8" standalone="no"?>
<!-- Created with Inkscape (http://www.inkscape.org/) -->

<svg
   xmlns:dc="http://purl.org/dc/elements/1.1/"
   xmlns:cc="http://creativecommons.org/ns#"
   xmlns:rdf="http://www.w3.org/1999/02/22-rdf-syntax-ns#"
   xmlns:svg="http://www.w3.org/2000/svg"
   xmlns="http://www.w3.org/2000/svg"
   xmlns:xlink="http://www.w3.org/1999/xlink"
   xmlns:sodipodi="http://sodipodi.sourceforge.net/DTD/sodipodi-0.dtd"
   xmlns:inkscape="http://www.inkscape.org/namespaces/inkscape"
   width="294.01682"
   height="326.84299"
   id="svg7499"
   version="1.1"
   inkscape:version="0.48.3.1 r9886"
   sodipodi:docname="buho_2.svg"
   inkscape:export-filename="/home/vladimir/Documentos/mis_sitios/pagina_mirror/animales/buho_2.png"
   inkscape:export-xdpi="90"
   inkscape:export-ydpi="90">
  <defs
     id="defs7501">
    <inkscape:perspective
       sodipodi:type="inkscape:persp3d"
       inkscape:vp_x="0 : 526.18109 : 1"
       inkscape:vp_y="0 : 1000 : 0"
       inkscape:vp_z="744.09448 : 526.18109 : 1"
       inkscape:persp3d-origin="372.04724 : 350.78739 : 1"
       id="perspective7507" />
    <inkscape:perspective
       id="perspective7517"
       inkscape:persp3d-origin="0.5 : 0.33333333 : 1"
       inkscape:vp_z="1 : 0.5 : 1"
       inkscape:vp_y="0 : 1000 : 0"
       inkscape:vp_x="0 : 0.5 : 1"
       sodipodi:type="inkscape:persp3d" />
    <inkscape:perspective
       id="perspective7755"
       inkscape:persp3d-origin="0.5 : 0.33333333 : 1"
       inkscape:vp_z="1 : 0.5 : 1"
       inkscape:vp_y="0 : 1000 : 0"
       inkscape:vp_x="0 : 0.5 : 1"
       sodipodi:type="inkscape:persp3d" />
    <radialGradient
       inkscape:collect="always"
       xlink:href="#linearGradient6488"
       id="radialGradient6496"
       cx="-338.64062"
       cy="1193.1094"
       fx="-338.64062"
       fy="1193.1094"
       r="158.54688"
       gradientTransform="matrix(-1.136143e-7,0.79853046,-0.58975192,-7.9480073e-8,364.99788,1463.5243)"
       gradientUnits="userSpaceOnUse" />
    <linearGradient
       inkscape:collect="always"
       id="linearGradient6488">
      <stop
         style="stop-color:#ffffff;stop-opacity:1;"
         offset="0"
         id="stop6490" />
      <stop
         style="stop-color:#ffffff;stop-opacity:0;"
         offset="1"
         id="stop6492" />
    </linearGradient>
    <radialGradient
       inkscape:collect="always"
       xlink:href="#linearGradient5994"
       id="radialGradient6000"
       cx="-372.75092"
       cy="1176.424"
       fx="-372.75092"
       fy="1176.424"
       r="7.6897101"
       gradientTransform="matrix(1,0,0,2.4160908,0,-1665.9232)"
       gradientUnits="userSpaceOnUse" />
    <linearGradient
       inkscape:collect="always"
       id="linearGradient5994">
      <stop
         style="stop-color:#ffffff;stop-opacity:1;"
         offset="0"
         id="stop5996" />
      <stop
         style="stop-color:#ffffff;stop-opacity:0;"
         offset="1"
         id="stop5998" />
    </linearGradient>
  </defs>
  <sodipodi:namedview
     id="base"
     pagecolor="#ffffff"
     bordercolor="#666666"
     borderopacity="1.0"
     inkscape:pageopacity="0.0"
     inkscape:pageshadow="2"
     inkscape:zoom="0.45254834"
     inkscape:cx="16.683461"
     inkscape:cy="180.2286"
     inkscape:document-units="px"
     inkscape:current-layer="g6950"
     showgrid="false"
     inkscape:window-width="1264"
     inkscape:window-height="715"
     inkscape:window-x="0"
     inkscape:window-y="48"
     inkscape:window-maximized="1"
     fit-margin-top="0"
     fit-margin-left="0"
     fit-margin-right="0"
     fit-margin-bottom="0" />
  <metadata
     id="metadata7504">
    <rdf:RDF>
      <cc:Work
         rdf:about="">
        <dc:format>image/svg+xml</dc:format>
        <dc:type
           rdf:resource="http://purl.org/dc/dcmitype/StillImage" />
        <dc:title></dc:title>
      </cc:Work>
    </rdf:RDF>
  </metadata>
  <g
     inkscape:label="Capa 1"
     inkscape:groupmode="layer"
     id="layer1"
     transform="translate(-287.03983,-624.38768)">
    <g
       transform="matrix(1.5,0,0,1.5,1001.0368,-987.37867)"
       id="g6950">
      <path
         sodipodi:nodetypes="csssc"
         id="path9150-5-7"
         d="m -412.22931,1269.6963 c 5.90867,18.5565 -2.61364,20.0008 -9.37911,20.0161 -6.76548,0.015 -13.84662,-6.5845 -13.87343,-18.4586 -0.0268,-11.8741 7.80317,-20.5656 17.26375,-17.2852 6.39213,2.2164 5.96198,3.8536 5.98879,15.7277 z"
         style="color:#000000;fill:#decd87;fill-opacity:1;fill-rule:nonzero;stroke:#000000;stroke-width:1px;stroke-linecap:butt;stroke-linejoin:miter;stroke-miterlimit:4;stroke-opacity:1;stroke-dasharray:none;stroke-dashoffset:0;marker:none;visibility:visible;display:inline;overflow:visible;enable-background:accumulate"
         inkscape:connector-curvature="0" />
      <path
         id="path9150-5-7-4"
         d="m -414.09375,1256.125 c 0.1698,2.0764 0.14742,4.8702 0.15625,8.7812 5.90867,18.5565 -2.64078,19.9847 -9.40625,20 -4.37401,0.01 -8.85375,-2.7484 -11.5,-7.9062 1.87484,8.234 7.67034,12.7311 13.25,12.7188 6.76547,-0.015 15.28367,-1.4748 9.375,-20.0313 -0.0187,-8.2868 0.1728,-11.571 -1.875,-13.5625 z"
         style="opacity:0.27600002;color:#000000;fill:#000000;fill-opacity:1;fill-rule:nonzero;stroke:#000000;stroke-width:1px;stroke-linecap:butt;stroke-linejoin:miter;stroke-miterlimit:4;stroke-opacity:1;stroke-dasharray:none;stroke-dashoffset:0;marker:none;visibility:visible;display:inline;overflow:visible;enable-background:accumulate"
         inkscape:connector-curvature="0" />
      <path
         sodipodi:nodetypes="csssc"
         id="path9150-5-0-36"
         d="m -395.86893,1271.8791 c 5.90867,18.5564 -2.61364,20.0008 -9.37911,20.0161 -6.76548,0.015 -13.84662,-6.5845 -13.87343,-18.4586 -0.0268,-11.8741 7.80317,-20.5656 17.26375,-17.2852 6.39213,2.2164 5.96198,3.8536 5.98879,15.7277 z"
         style="color:#000000;fill:#decd87;fill-opacity:1;fill-rule:nonzero;stroke:#000000;stroke-width:1px;stroke-linecap:butt;stroke-linejoin:miter;stroke-miterlimit:4;stroke-opacity:1;stroke-dasharray:none;stroke-dashoffset:0;marker:none;visibility:visible;display:inline;overflow:visible;enable-background:accumulate"
         inkscape:connector-curvature="0" />
      <path
         sodipodi:nodetypes="csssc"
         id="path9150-5-1-0"
         d="m -338.95648,1268.5377 c -5.90867,18.5565 2.61364,20.0008 9.37911,20.0161 6.76548,0.015 13.84662,-6.5845 13.87343,-18.4586 0.0268,-11.8741 -7.80317,-20.5656 -17.26375,-17.2852 -6.39213,2.2164 -5.96198,3.8536 -5.98879,15.7277 z"
         style="color:#000000;fill:#decd87;fill-opacity:1;fill-rule:nonzero;stroke:#000000;stroke-width:1px;stroke-linecap:butt;stroke-linejoin:miter;stroke-miterlimit:4;stroke-opacity:1;stroke-dasharray:none;stroke-dashoffset:0;marker:none;visibility:visible;display:inline;overflow:visible;enable-background:accumulate"
         inkscape:connector-curvature="0" />
      <path
         id="path9150-5-7-4-5"
         d="m -336.2104,1254.3934 c -0.1698,2.0764 -0.14742,4.8702 -0.15625,8.7812 -5.90867,18.5565 2.64078,19.9847 9.40625,20 4.37401,0.01 8.85375,-2.7484 11.5,-7.9062 -1.87484,8.234 -7.67034,12.7311 -13.25,12.7188 -6.76547,-0.015 -15.28367,-1.4748 -9.375,-20.0313 0.0187,-8.2868 -0.1728,-11.571 1.875,-13.5625 z"
         style="opacity:0.27600002;color:#000000;fill:#000000;fill-opacity:1;fill-rule:nonzero;stroke:#000000;stroke-width:1px;stroke-linecap:butt;stroke-linejoin:miter;stroke-miterlimit:4;stroke-opacity:1;stroke-dasharray:none;stroke-dashoffset:0;marker:none;visibility:visible;display:inline;overflow:visible;enable-background:accumulate"
         inkscape:connector-curvature="0" />
      <path
         sodipodi:nodetypes="csssc"
         id="path9150-5-0-3-69"
         d="m -355.31686,1270.7205 c -5.90867,18.5564 2.61364,20.0008 9.37911,20.0161 6.76548,0.015 13.84662,-6.5845 13.87343,-18.4586 0.0268,-11.8741 -7.80317,-20.5656 -17.26375,-17.2853 -6.39213,2.2165 -5.96198,3.8537 -5.98879,15.7278 z"
         style="color:#000000;fill:#decd87;fill-opacity:1;fill-rule:nonzero;stroke:#000000;stroke-width:1px;stroke-linecap:butt;stroke-linejoin:miter;stroke-miterlimit:4;stroke-opacity:1;stroke-dasharray:none;stroke-dashoffset:0;marker:none;visibility:visible;display:inline;overflow:visible;enable-background:accumulate"
         inkscape:connector-curvature="0" />
      <path
         d="m -317.36942,1262.1464 c 0,6.4833 -25.96965,11.739 -58.00485,11.739 -32.03519,0 -58.00485,-5.2557 -58.00485,-11.739 0,-6.4834 25.96966,-11.7391 58.00485,-11.7391 32.0352,0 58.00485,5.2557 58.00485,11.7391 z"
         sodipodi:ry="11.739078"
         sodipodi:rx="58.004852"
         sodipodi:cy="1262.1464"
         sodipodi:cx="-375.37427"
         id="path6498"
         style="opacity:0.456;color:#000000;fill:#000000;fill-opacity:1;fill-rule:nonzero;stroke:none;stroke-width:1.29999995;marker:none;visibility:visible;display:inline;overflow:visible;enable-background:accumulate"
         sodipodi:type="arc" />
      <path
         sodipodi:nodetypes="ccccc"
         id="path8975-7-4"
         d="m -363.40631,1266.6753 33.61809,-1.5647 c 15.21381,-3.3144 12.5523,-10.6452 11.02724,-15.8398 -5.25834,-12.4311 -17.61305,-16.4324 -33.79461,-15.8879 -2.44097,11.4023 3.10372,24.8745 -10.85072,33.2924 z"
         style="color:#000000;fill:#483e37;fill-opacity:1;fill-rule:nonzero;stroke:#000000;stroke-width:1px;stroke-linecap:butt;stroke-linejoin:miter;stroke-miterlimit:4;stroke-opacity:1;stroke-dasharray:none;stroke-dashoffset:0;marker:none;visibility:visible;display:inline;overflow:visible;enable-background:accumulate"
         inkscape:connector-curvature="0" />
      <path
         sodipodi:nodetypes="ccccc"
         id="path8975-2"
         d="m -394.53951,1265.6827 -33.23401,-5.3033 c -14.74941,-4.99 -11.28713,-11.9783 -9.19239,-16.9705 6.61157,-11.7673 19.33539,-14.3662 35.35534,-12.0209 1.15443,11.6034 -5.8578,24.3734 7.07106,34.2947 z"
         style="color:#000000;fill:#483e37;fill-opacity:1;fill-rule:nonzero;stroke:#000000;stroke-width:1px;stroke-linecap:butt;stroke-linejoin:miter;stroke-miterlimit:4;stroke-opacity:1;stroke-dasharray:none;stroke-dashoffset:0;marker:none;visibility:visible;display:inline;overflow:visible;enable-background:accumulate"
         inkscape:connector-curvature="0" />
      <path
         sodipodi:nodetypes="ccccc"
         id="path8975-2-3"
         d="m -395.36164,1265.3048 -32.25596,-9.601 c -13.97082,-6.8746 -9.62499,-13.3506 -6.89582,-18.0262 8.09264,-10.8024 21.04698,-11.7162 36.62306,-7.2975 -0.37183,11.6547 -8.99273,23.3989 2.52872,34.9247 z"
         style="opacity:0.46000001;color:#000000;fill:#000000;fill-opacity:1;fill-rule:nonzero;stroke:#000000;stroke-width:1px;stroke-linecap:butt;stroke-linejoin:miter;stroke-miterlimit:4;stroke-opacity:1;stroke-dasharray:none;stroke-dashoffset:0;marker:none;visibility:visible;display:inline;overflow:visible;enable-background:accumulate"
         inkscape:connector-curvature="0" />
      <path
         id="path9150-5-0-36-7-9"
         d="m -352.55415,1256.5496 c -0.1729,2.0797 -0.14737,4.8811 -0.15625,8.8126 -5.90867,18.5563 2.60953,19.9846 9.375,20 4.37401,0.01 8.85375,-2.7485 11.5,-7.9063 -1.8762,8.2304 -7.64037,12.7311 -13.21875,12.7187 -6.76547,-0.015 -15.28367,-1.4748 -9.375,-20.0312 0.0187,-8.294 -0.17851,-11.6028 1.875,-13.5938 z"
         style="opacity:0.27600002;color:#000000;fill:#000000;fill-opacity:1;fill-rule:nonzero;stroke:#000000;stroke-width:1px;stroke-linecap:butt;stroke-linejoin:miter;stroke-miterlimit:4;stroke-opacity:1;stroke-dasharray:none;stroke-dashoffset:0;marker:none;visibility:visible;display:inline;overflow:visible;enable-background:accumulate"
         inkscape:connector-curvature="0" />
      <path
         sodipodi:nodetypes="ccccc"
         id="path8975-7-4-3"
         d="m -367.3621,1268.2471 33.31252,-4.7855 c 14.82526,-4.7599 11.47215,-11.8013 9.45536,-16.8254 -6.42767,-11.8688 -19.1095,-14.6653 -35.16401,-12.5696 -1.33485,11.584 5.47781,24.4616 -7.60387,34.1805 z"
         style="opacity:0.34799996;color:#000000;fill:#000000;fill-opacity:1;fill-rule:nonzero;stroke:#000000;stroke-width:1px;stroke-linecap:butt;stroke-linejoin:miter;stroke-miterlimit:4;stroke-opacity:1;stroke-dasharray:none;stroke-dashoffset:0;marker:none;visibility:visible;display:inline;overflow:visible;enable-background:accumulate"
         inkscape:connector-curvature="0" />
      <path
         id="path9150-5-0-36-7"
         d="m -397.75,1258.2812 c 0.1729,2.0797 0.14737,4.8811 0.15625,8.8126 5.90867,18.5563 -2.60953,19.9846 -9.375,20 -4.37401,0.01 -8.85375,-2.7485 -11.5,-7.9063 1.8762,8.2304 7.64037,12.7311 13.21875,12.7187 6.76547,-0.015 15.28367,-1.4748 9.375,-20.0312 -0.0187,-8.294 0.17851,-11.6028 -1.875,-13.5938 z"
         style="opacity:0.27600002;color:#000000;fill:#000000;fill-opacity:1;fill-rule:nonzero;stroke:#000000;stroke-width:1px;stroke-linecap:butt;stroke-linejoin:miter;stroke-miterlimit:4;stroke-opacity:1;stroke-dasharray:none;stroke-dashoffset:0;marker:none;visibility:visible;display:inline;overflow:visible;enable-background:accumulate"
         inkscape:connector-curvature="0" />
      <path
         id="path8428-71"
         d="m -289.97951,1075.0109 -15.90625,6 1.78125,-3.5312 -11.6875,4.5937 0.4375,0.5313 c -34.05567,-10.5915 -92.05471,-11.3398 -126,8.0312 l -9.59375,-3.7812 1.78125,3.5312 -15.90625,-6 c 0,0 -0.35355,37.1171 0,38.5313 l 0.28125,-0.3438 c 0.21775,46.2295 11.58176,123.3358 55.9375,138.25 8.98936,5.6173 38.52221,15.9202 65.21875,2.375 29.84679,-9.5204 60.17876,-102.8069 53.78125,-163.5937 -0.0221,-11.1028 -0.125,-24.5938 -0.125,-24.5938 z"
         style="color:#000000;fill:#917c6f;fill-opacity:1;fill-rule:nonzero;stroke:#000000;stroke-width:1px;stroke-linecap:butt;stroke-linejoin:miter;stroke-miterlimit:4;stroke-opacity:1;stroke-dasharray:none;stroke-dashoffset:0;marker:none;visibility:visible;display:inline;overflow:visible;enable-background:accumulate"
         inkscape:connector-curvature="0" />
      <path
         id="path8428-71-2"
         d="m -465.15625,1097.25 c -0.0773,11.0998 -0.13842,24.7276 0.0937,25.6562 l 0.28125,-0.3437 c 0.21775,46.2295 11.58176,123.3358 55.9375,138.25 8.98936,5.6173 38.52221,15.9202 65.21875,2.375 28.91408,-9.2229 58.25894,-97.0363 54.25,-157.7813 -3.37137,57.5972 -28.97487,125.7191 -54.25,133.7813 -26.69654,13.5452 -56.22939,3.2423 -65.21875,-2.375 -44.35574,-14.9142 -55.71975,-92.0205 -55.9375,-138.25 l -0.28125,0.3437 c -0.0378,-0.1512 -0.0708,-0.7777 -0.0937,-1.6562 z"
         style="opacity:0.17600002;color:#000000;fill:#000000;fill-opacity:1;fill-rule:nonzero;stroke:none;stroke-width:1px;marker:none;visibility:visible;display:inline;overflow:visible;enable-background:accumulate"
         inkscape:connector-curvature="0" />
      <path
         sodipodi:nodetypes="ccc"
         id="path8722-5"
         d="m -382.34712,1164.4651 c -7.71428,21.3484 -32.97736,21.6009 -45.25484,12.0208 4.15777,7.4589 39.40378,14.661 45.25484,-12.0208 z"
         style="color:#000000;fill:#000000;fill-opacity:1;fill-rule:nonzero;stroke:none;stroke-width:1px;marker:none;visibility:visible;display:inline;overflow:visible;enable-background:accumulate"
         inkscape:connector-curvature="0" />
      <path
         sodipodi:nodetypes="ccc"
         id="path8698-0"
         d="m -391.02577,1090.2312 c -37.31692,-0.3529 -46.33277,18.5096 -47.75,36.4013 0.54441,-34.7618 28.68107,-37.5768 47.75,-36.4013 z"
         style="fill:#000000;stroke:none"
         inkscape:connector-curvature="0" />
      <path
         transform="matrix(1.1360379,-0.0966364,0.18195548,1.1497025,-889.56246,702.56707)"
         d="m 385.01965,413.66797 c 0,21.3812 -12.26757,38.71409 -27.40039,38.71409 -15.13281,0 -27.40039,-17.33289 -27.40039,-38.71409 0,-21.38121 12.26758,-38.7141 27.40039,-38.7141 15.13282,0 27.40039,17.33289 27.40039,38.7141 z"
         sodipodi:ry="38.714096"
         sodipodi:rx="27.400389"
         sodipodi:cy="413.66797"
         sodipodi:cx="357.61926"
         id="path8525-8-1"
         style="opacity:0.46399997;color:#000000;fill:#000000;fill-opacity:1;fill-rule:nonzero;stroke:none;stroke-width:0.86917454px;marker:none;visibility:visible;display:inline;overflow:visible;enable-background:accumulate"
         sodipodi:type="arc" />
      <path
         transform="matrix(1.1360379,-0.0966364,0.18195548,1.1497025,-888.73381,696.49037)"
         d="m 385.01965,413.66797 c 0,21.3812 -12.26757,38.71409 -27.40039,38.71409 -15.13281,0 -27.40039,-17.33289 -27.40039,-38.71409 0,-21.38121 12.26758,-38.7141 27.40039,-38.7141 15.13282,0 27.40039,17.33289 27.40039,38.7141 z"
         sodipodi:ry="38.714096"
         sodipodi:rx="27.400389"
         sodipodi:cy="413.66797"
         sodipodi:cx="357.61926"
         id="path8525-8"
         style="color:#000000;fill:#e6e6e6;fill-opacity:1;fill-rule:nonzero;stroke:#000000;stroke-width:0.86917454px;stroke-linecap:butt;stroke-linejoin:miter;stroke-miterlimit:4;stroke-opacity:1;stroke-dasharray:none;stroke-dashoffset:0;marker:none;visibility:visible;display:inline;overflow:visible;enable-background:accumulate"
         sodipodi:type="arc" />
      <path
         id="path8428-71-2-7"
         d="m -465.15625,1113.25 c -0.0176,2.5303 -0.0186,4.9811 -0.0312,7.5938 5.4e-4,0.025 -5.4e-4,0.037 0,0.062 0.024,1.1067 0.0818,1.8272 0.125,2 l 0.28125,-0.3437 c 0.21775,46.2295 11.58176,123.3358 55.9375,138.25 8.98936,5.6173 38.52221,15.9202 65.21875,2.375 25.87692,-8.2541 52.08382,-79.4611 54.4375,-137.875 -0.0553,-1.309 -0.10265,-2.6205 -0.1875,-3.9063 -3.37137,57.5972 -28.97487,125.7191 -54.25,133.7813 -26.69654,13.5452 -56.22939,3.2423 -65.21875,-2.375 -44.35574,-14.9142 -55.71975,-92.0205 -55.9375,-138.25 l -0.28125,0.3437 c -0.0378,-0.1512 -0.0709,-0.7777 -0.0937,-1.6562 z"
         style="opacity:0.17600002;color:#000000;fill:#000000;fill-opacity:1;fill-rule:nonzero;stroke:none;stroke-width:1px;marker:none;visibility:visible;display:inline;overflow:visible;enable-background:accumulate"
         inkscape:connector-curvature="0" />
      <path
         id="path8483-24"
         d="m -460.47951,1171.0109 c -23.82147,35.0577 -23.62647,97.0018 32.53125,83.4375 7.60594,-6.8821 -1.98238,-14.7894 -12.875,-31.3437 14.10709,4.0538 -0.78223,-11.7246 -9.75,-17.8125 l 0.15625,0.625 c -0.10714,-0.2329 -0.2061,-0.4835 -0.3125,-0.7188 5.26073,1.5065 7.66112,-0.7859 -6,-16.375 -1.55517,-5.4351 -2.8532,-11.3395 -3.75,-17.8125 z"
         style="color:#000000;fill:#483e37;fill-opacity:1;fill-rule:nonzero;stroke:#000000;stroke-width:1px;stroke-linecap:butt;stroke-linejoin:miter;stroke-miterlimit:4;stroke-opacity:1;stroke-dasharray:none;stroke-dashoffset:0;marker:none;visibility:visible;display:inline;overflow:visible;enable-background:accumulate"
         inkscape:connector-curvature="0" />
      <path
         transform="matrix(-0.9624037,-0.08186632,-0.1541451,0.9739804,64.466721,772.26444)"
         d="m 385.01965,413.66797 c 0,21.3812 -12.26757,38.71409 -27.40039,38.71409 -15.13281,0 -27.40039,-17.33289 -27.40039,-38.71409 0,-21.38121 12.26758,-38.7141 27.40039,-38.7141 15.13282,0 27.40039,17.33289 27.40039,38.7141 z"
         sodipodi:ry="38.714096"
         sodipodi:rx="27.400389"
         sodipodi:cy="413.66797"
         sodipodi:cx="357.61926"
         id="path8525-7-15-9"
         style="opacity:0.46399997;color:#000000;fill:#000000;fill-opacity:1;fill-rule:nonzero;stroke:none;stroke-width:1.02598822px;marker:none;visibility:visible;display:inline;overflow:visible;enable-background:accumulate"
         sodipodi:type="arc" />
      <path
         transform="matrix(-0.9624037,-0.08186632,-0.1541451,0.9739804,64.80944,766.94988)"
         d="m 385.01965,413.66797 c 0,21.3812 -12.26757,38.71409 -27.40039,38.71409 -15.13281,0 -27.40039,-17.33289 -27.40039,-38.71409 0,-21.38121 12.26758,-38.7141 27.40039,-38.7141 15.13282,0 27.40039,17.33289 27.40039,38.7141 z"
         sodipodi:ry="38.714096"
         sodipodi:rx="27.400389"
         sodipodi:cy="413.66797"
         sodipodi:cx="357.61926"
         id="path8525-7-15"
         style="color:#000000;fill:#e6e6e6;fill-opacity:1;fill-rule:nonzero;stroke:#000000;stroke-width:1.02598822px;stroke-linecap:butt;stroke-linejoin:miter;stroke-miterlimit:4;stroke-opacity:1;stroke-dasharray:none;stroke-dashoffset:0;marker:none;visibility:visible;display:inline;overflow:visible;enable-background:accumulate"
         sodipodi:type="arc" />
      <path
         sodipodi:nodetypes="ccc"
         id="path8722-2-5"
         d="m -370.04443,1160.5276 c 7.71428,21.3485 32.97736,21.6009 45.25484,12.0208 -4.15777,7.4589 -39.40378,14.6611 -45.25484,-12.0208 z"
         style="color:#000000;fill:#000000;fill-opacity:1;fill-rule:nonzero;stroke:none;stroke-width:1px;marker:none;visibility:visible;display:inline;overflow:visible;enable-background:accumulate"
         inkscape:connector-curvature="0" />
      <path
         id="path8525-7-15-3"
         d="m -362.96875,1119.75 c -3.12951,5.361 -5.44246,11.7141 -6.53125,18.5938 -3.29581,20.8248 5.84237,38.6986 20.40625,39.9374 14.56388,1.2389 29.04794,-14.6438 32.34375,-35.4687 0.22123,-1.3979 0.38867,-2.7578 0.5,-4.125 -4.07949,19.0332 -17.04248,33.042 -30.0625,31.875 -13.82697,-1.2393 -22.50404,-19.1369 -19.375,-39.9687 0.57126,-3.8032 1.5039,-7.4446 2.71875,-10.8438 z"
         style="opacity:0.17600002;color:#000000;fill:#000000;fill-opacity:1;fill-rule:nonzero;stroke:none;stroke-width:1px;marker:none;visibility:visible;display:inline;overflow:visible;enable-background:accumulate"
         inkscape:connector-curvature="0" />
      <path
         id="path8525-8-3"
         d="m -435.3125,1110.375 c -3.50415,8.2137 -4.76516,18.6592 -3,29.8125 3.89043,24.582 20.9648,43.3061 38.15625,41.8437 17.19145,-1.4623 27.98418,-22.5742 24.09375,-47.1562 -1.3506,-8.5339 -4.29699,-16.3497 -8.28125,-22.875 2.63974,5.3064 4.58773,11.3346 5.59375,17.7812 3.62488,23.2286 -6.41947,43.1807 -22.4375,44.5626 -16.01803,1.3818 -31.93762,-16.334 -35.5625,-39.5626 -1.39028,-8.909 -0.75999,-17.3242 1.4375,-24.4062 z"
         style="opacity:0.17600002;color:#000000;fill:#000000;fill-opacity:1;fill-rule:nonzero;stroke:none;stroke-width:1px;marker:none;visibility:visible;display:inline;overflow:visible;enable-background:accumulate"
         inkscape:connector-curvature="0" />
      <path
         sodipodi:nodetypes="cccc"
         id="path8515-2"
         d="m -389.09448,1180.8476 c 1.74214,-15.0857 18.50106,-42.7216 32.13472,-3.661 l -12.20301,24.8129 -19.93171,-21.1519 z"
         style="color:#000000;fill:#d4aa00;fill-opacity:1;fill-rule:nonzero;stroke:#000000;stroke-width:1px;stroke-linecap:butt;stroke-linejoin:miter;stroke-miterlimit:4;stroke-opacity:1;stroke-dasharray:none;stroke-dashoffset:0;marker:none;visibility:visible;display:inline;overflow:visible;enable-background:accumulate"
         inkscape:connector-curvature="0" />
      <path
         sodipodi:nodetypes="ccc"
         id="path8698-3-7"
         d="m -359.85116,1098.9163 c 34.1909,-0.3233 42.45149,16.9591 43.75,33.352 -0.49881,-31.8498 -26.27847,-34.429 -43.75,-33.352 z"
         style="fill:#000000;stroke:none"
         inkscape:connector-curvature="0" />
      <path
         id="path8557-7"
         d="m -452.14366,1140.1071 151.72482,-6.5083"
         style="fill:none;stroke:#000000;stroke-width:1.15051723px;stroke-linecap:butt;stroke-linejoin:miter;stroke-opacity:1"
         inkscape:connector-curvature="0" />
      <path
         id="path8580-4"
         d="m -391.51076,1137.4172 -26.875,1.1562 c -0.007,0.2168 -0.0312,0.4374 -0.0312,0.6563 0,8.8365 6.04416,16 13.5,16 7.45584,0 13.5,-7.1635 13.5,-16 0,-0.6069 -0.0382,-1.2232 -0.0937,-1.8125 z"
         style="color:#000000;fill:#ececec;fill-opacity:1;fill-rule:nonzero;stroke:#000000;stroke-width:1px;stroke-linecap:butt;stroke-linejoin:miter;stroke-miterlimit:4;stroke-opacity:1;stroke-dasharray:none;stroke-dashoffset:0;marker:none;visibility:visible;display:inline;overflow:visible;enable-background:accumulate"
         inkscape:connector-curvature="0" />
      <path
         id="path8580-2-4"
         d="m -331.47951,1134.7922 -26.90625,1.1875 c -0.004,0.1656 -0.0312,0.3331 -0.0312,0.5 0,8.8365 6.04416,16 13.5,16 7.45584,0 13.5,-7.1635 13.5,-16 0,-0.5629 -0.0146,-1.1396 -0.0625,-1.6875 z"
         style="color:#000000;fill:#ececec;fill-opacity:1;fill-rule:nonzero;stroke:#000000;stroke-width:1px;stroke-linecap:butt;stroke-linejoin:miter;stroke-miterlimit:4;stroke-opacity:1;stroke-dasharray:none;stroke-dashoffset:0;marker:none;visibility:visible;display:inline;overflow:visible;enable-background:accumulate"
         inkscape:connector-curvature="0" />
      <path
         id="path8580-8-9"
         d="m -396.54878,1138.348 -17.27677,0.7433 c -0.005,0.1394 -0.0202,0.2811 -0.0202,0.4219 0,5.6806 3.88551,10.2857 8.67855,10.2857 4.79304,0 8.67855,-4.6051 8.67855,-10.2857 0,-0.3902 -0.0247,-0.7863 -0.0602,-1.1652 z"
         style="color:#000000;fill:#000000;fill-opacity:1;fill-rule:nonzero;stroke:#000000;stroke-width:0.6428569px;stroke-linecap:butt;stroke-linejoin:miter;stroke-miterlimit:4;stroke-opacity:1;stroke-dasharray:none;stroke-dashoffset:0;marker:none;visibility:visible;display:inline;overflow:visible;enable-background:accumulate"
         inkscape:connector-curvature="0" />
      <path
         id="path8580-2-0-0"
         d="m -336.02868,1135.7007 -17.29687,0.7634 c -0.004,0.1064 -0.0202,0.2141 -0.0202,0.3214 0,5.6806 3.88551,10.2857 8.67855,10.2857 4.79304,0 8.67855,-4.6051 8.67855,-10.2857 0,-0.3619 -0.009,-0.7326 -0.0401,-1.0848 z"
         style="color:#000000;fill:#000000;fill-opacity:1;fill-rule:nonzero;stroke:#000000;stroke-width:0.6428569px;stroke-linecap:butt;stroke-linejoin:miter;stroke-miterlimit:4;stroke-opacity:1;stroke-dasharray:none;stroke-dashoffset:0;marker:none;visibility:visible;display:inline;overflow:visible;enable-background:accumulate"
         inkscape:connector-curvature="0" />
      <path
         transform="translate(-760.85451,741.41718)"
         d="m 353.9375,401.67468 c 0,2.10559 -1.72091,3.8125 -3.84375,3.8125 -2.12284,0 -3.84375,-1.70691 -3.84375,-3.8125 0,-2.10558 1.72091,-3.8125 3.84375,-3.8125 2.12284,0 3.84375,1.70692 3.84375,3.8125 z"
         sodipodi:ry="3.8125"
         sodipodi:rx="3.84375"
         sodipodi:cy="401.67468"
         sodipodi:cx="350.09375"
         id="path8674-9"
         style="color:#000000;fill:#ffffff;fill-opacity:1;fill-rule:nonzero;stroke:none;stroke-width:1px;marker:none;visibility:visible;display:inline;overflow:visible;enable-background:accumulate"
         sodipodi:type="arc" />
      <path
         transform="translate(-699.76076,740.04218)"
         d="m 353.9375,401.67468 c 0,2.10559 -1.72091,3.8125 -3.84375,3.8125 -2.12284,0 -3.84375,-1.70691 -3.84375,-3.8125 0,-2.10558 1.72091,-3.8125 3.84375,-3.8125 2.12284,0 3.84375,1.70692 3.84375,3.8125 z"
         sodipodi:ry="3.8125"
         sodipodi:rx="3.84375"
         sodipodi:cy="401.67468"
         sodipodi:cx="350.09375"
         id="path8674-0-8"
         style="color:#000000;fill:#ffffff;fill-opacity:1;fill-rule:nonzero;stroke:none;stroke-width:1px;marker:none;visibility:visible;display:inline;overflow:visible;enable-background:accumulate"
         sodipodi:type="arc" />
      <path
         id="path8483-2-24"
         d="m -295.50523,1170.0516 c 23.82147,35.0577 23.62647,97.0017 -32.53125,83.4375 -7.60594,-6.8821 1.98238,-14.7894 12.875,-31.3437 -14.10709,4.0538 0.78223,-11.7246 9.75,-17.8125 l -0.15625,0.625 c 0.10714,-0.2329 0.2061,-0.4835 0.3125,-0.7188 -5.26073,1.5065 -7.66112,-0.7859 6,-16.375 1.55517,-5.4352 2.8532,-11.3395 3.75,-17.8125 z"
         style="color:#000000;fill:#483e37;fill-opacity:1;fill-rule:nonzero;stroke:#000000;stroke-width:1px;stroke-linecap:butt;stroke-linejoin:miter;stroke-miterlimit:4;stroke-opacity:1;stroke-dasharray:none;stroke-dashoffset:0;marker:none;visibility:visible;display:inline;overflow:visible;enable-background:accumulate"
         inkscape:connector-curvature="0" />
      <path
         id="path8525-8-4"
         d="m -412.625,1092.9375 c -0.53664,0.01 -1.08777,0.048 -1.625,0.094 -17.00966,1.447 -27.73065,22.1274 -24.1875,46.375 L -375.78125,1137 c -0.0877,-0.6995 -0.16957,-1.4194 -0.28125,-2.125 -3.76885,-23.8138 -19.9268,-42.1444 -36.5625,-41.9375 z"
         style="color:#000000;fill:#917c6f;fill-opacity:1;fill-rule:nonzero;stroke:#000000;stroke-width:1px;stroke-linecap:butt;stroke-linejoin:miter;stroke-miterlimit:4;stroke-opacity:1;stroke-dasharray:none;stroke-dashoffset:0;marker:none;visibility:visible;display:inline;overflow:visible;enable-background:accumulate"
         inkscape:connector-curvature="0" />
      <path
         id="path8525-7-15-6"
         d="m -338.53125,1102.8125 c -13.71917,-0.1707 -27.04424,14.546 -30.6875,33.9375 l 53.125,-2.0312 c 0.10188,-17.1725 -8.43289,-30.7695 -21.0625,-31.8438 -0.45512,-0.039 -0.92038,-0.057 -1.375,-0.062 z"
         style="color:#000000;fill:#917c6f;fill-opacity:1;fill-rule:nonzero;stroke:#000000;stroke-width:1px;stroke-linecap:butt;stroke-linejoin:miter;stroke-miterlimit:4;stroke-opacity:1;stroke-dasharray:none;stroke-dashoffset:0;marker:none;visibility:visible;display:inline;overflow:visible;enable-background:accumulate"
         inkscape:connector-curvature="0" />
      <path
         sodipodi:nodetypes="cccc"
         id="path8515-2-5"
         d="m -380.44062,1177.4584 c 0.83378,-12.5128 8.85446,-35.4356 15.37942,-3.0366 l -5.84026,20.5812 -9.53916,-17.5446 z"
         style="opacity:0.344;color:#000000;fill:url(#radialGradient6000);fill-opacity:1;fill-rule:nonzero;stroke:none;stroke-width:0.63005495px;marker:none;visibility:visible;display:inline;overflow:visible;enable-background:accumulate"
         inkscape:connector-curvature="0" />
      <path
         sodipodi:nodetypes="ccccccccccccccc"
         id="path6194"
         d="m -409.34854,1093.518 c 0.27622,1.1049 7.18156,16.0204 7.18156,16.0204 l -6.35292,8.5626 12.42962,-7.4578 -8.83884,12.7059 7.73398,-6.0767 6.0767,20.4398 -29.55485,0.5524 0,-3.867 11.04854,-9.9437 -11.32476,3.5908 10.21991,-11.8772 -10.77233,8.5626 -7.45777,-23.2019 c 4.78626,-4.9211 9.77358,-9.5837 19.61116,-8.0102 z"
         style="opacity:0.1;color:#000000;fill:#ffffff;fill-opacity:1;fill-rule:nonzero;stroke:none;stroke-width:1px;marker:none;visibility:visible;display:inline;overflow:visible;enable-background:accumulate"
         inkscape:connector-curvature="0" />
      <path
         id="path6194-9"
         d="m -338.53125,1102.8125 c -6.12823,-0.076 -12.16935,2.8267 -17.3125,7.7813 l 5.46875,17.0624 10.78125,-8.5624 -10.21875,11.875 11.3125,-3.5938 -9.53125,8.5625 26.34375,-1 -4.375,-14.75 -7.75,6.0937 8.84375,-12.7187 -12.4375,7.4687 6.375,-8.5624 c 0,0 -2.27643,-4.9143 -4.28125,-9.3438 -0.60414,-0.1133 -1.21902,-0.1969 -1.84375,-0.25 -0.45512,-0.039 -0.92038,-0.057 -1.375,-0.062 z"
         style="opacity:0.1;fill:#ffffff;stroke:none"
         inkscape:connector-curvature="0" />
      <path
         id="path8525-8-4-4"
         d="m -419.15625,1094.0312 c -14.1096,4.619 -22.47066,23.5482 -19.28125,45.375 l 7.28125,-0.2812 c -2.03309,-19.3317 2.88094,-36.4267 12,-45.0938 z"
         style="opacity:0.13200001;color:#000000;fill:#000000;fill-opacity:1;fill-rule:nonzero;stroke:none;stroke-width:1px;marker:none;visibility:visible;display:inline;overflow:visible;enable-background:accumulate"
         inkscape:connector-curvature="0" />
      <path
         id="path8525-7-15-6-1"
         d="m -342.71875,1103.2188 c -12.15663,2.4843 -23.22932,16.1228 -26.5,33.5312 l 5.84375,-0.2188 c 2.77778,-15.4304 10.95848,-28.0732 20.65625,-33.3124 z"
         style="opacity:0.13200001;color:#000000;fill:#000000;fill-opacity:1;fill-rule:nonzero;stroke:none;stroke-width:1px;marker:none;visibility:visible;display:inline;overflow:visible;enable-background:accumulate"
         inkscape:connector-curvature="0" />
      <path
         id="path8483-24-5"
         d="m -459.40625,1177.4062 c -15.57833,34.0755 -10.92367,79.6463 34.15625,72.125 0.48789,-5.9848 -7.13759,-13.6335 -15.5625,-26.4374 14.10709,4.0537 -0.78223,-11.7247 -9.75,-17.8126 l 0.15625,0.625 c -0.10714,-0.2328 -0.2061,-0.4834 -0.3125,-0.7187 5.26073,1.5065 7.66112,-0.7859 -6,-16.375 -1.02532,-3.5834 -1.92702,-7.3865 -2.6875,-11.4063 z"
         style="opacity:0.17600002;color:#000000;fill:#000000;fill-opacity:1;fill-rule:nonzero;stroke:none;stroke-width:1px;marker:none;visibility:visible;display:inline;overflow:visible;enable-background:accumulate"
         inkscape:connector-curvature="0" />
      <path
         id="path8483-24-5-0"
         d="m -297.11042,1176.4347 c 15.57833,34.0755 10.92367,79.6463 -34.15625,72.125 -0.48789,-5.9848 7.13759,-13.6335 15.5625,-26.4374 -14.10709,4.0537 0.78223,-11.7247 9.75,-17.8126 l -0.15625,0.625 c 0.10714,-0.2328 0.2061,-0.4834 0.3125,-0.7187 -5.26073,1.5065 -7.66112,-0.7859 6,-16.375 1.02532,-3.5834 1.92702,-7.3865 2.6875,-11.4063 z"
         style="opacity:0.17600002;color:#000000;fill:#000000;fill-opacity:1;fill-rule:nonzero;stroke:none;stroke-width:1px;marker:none;visibility:visible;display:inline;overflow:visible;enable-background:accumulate"
         inkscape:connector-curvature="0" />
    </g>
  </g>
</svg>
