<?xml version="1.0" encoding="UTF-8" standalone="no"?>
<!-- Created with Inkscape (http://www.inkscape.org/) -->

<svg
   xmlns:dc="http://purl.org/dc/elements/1.1/"
   xmlns:cc="http://creativecommons.org/ns#"
   xmlns:rdf="http://www.w3.org/1999/02/22-rdf-syntax-ns#"
   xmlns:svg="http://www.w3.org/2000/svg"
   xmlns="http://www.w3.org/2000/svg"
   xmlns:sodipodi="http://sodipodi.sourceforge.net/DTD/sodipodi-0.dtd"
   xmlns:inkscape="http://www.inkscape.org/namespaces/inkscape"
   width="384.90308"
   height="391.93674"
   id="svg2168"
   sodipodi:version="0.32"
   inkscape:version="0.48.3.1 r9886"
   sodipodi:docname="gallo.svg"
   inkscape:output_extension="org.inkscape.output.svg.inkscape"
   version="1.1">
  <defs
     id="defs2170" />
  <sodipodi:namedview
     id="base"
     pagecolor="#ffffff"
     bordercolor="#666666"
     borderopacity="1.0"
     inkscape:pageopacity="0.0"
     inkscape:pageshadow="2"
     inkscape:zoom="0.95331317"
     inkscape:cx="156.63785"
     inkscape:cy="181.1006"
     inkscape:current-layer="layer1"
     inkscape:document-units="px"
     inkscape:window-width="958"
     inkscape:window-height="690"
     inkscape:window-x="32"
     inkscape:window-y="48"
     showguides="true"
     inkscape:guide-bbox="true"
     showgrid="false"
     fit-margin-top="0"
     fit-margin-left="0"
     fit-margin-right="0"
     fit-margin-bottom="0"
     inkscape:window-maximized="0" />
  <metadata
     id="metadata2173">
    <rdf:RDF>
      <cc:Work
         rdf:about="">
        <dc:format>image/svg+xml</dc:format>
        <dc:type
           rdf:resource="http://purl.org/dc/dcmitype/StillImage" />
        <dc:title></dc:title>
      </cc:Work>
    </rdf:RDF>
  </metadata>
  <g
     id="layer1"
     inkscape:label="Layer 1"
     inkscape:groupmode="layer"
     transform="translate(-179.6766,-44.237337)">
    <path
       style="color:#000000;fill:#ff6600;fill-opacity:1;fill-rule:evenodd;stroke:#000000;stroke-width:2.76495504;stroke-linecap:butt;stroke-linejoin:miter;stroke-miterlimit:4;stroke-opacity:1;stroke-dasharray:none;stroke-dashoffset:0;marker:none;visibility:visible;display:inline;overflow:visible;enable-background:accumulate"
       d="m 311.20658,354.051 -2.38734,6.79473 c 3.26609,2.38764 -2.45961,14.52859 -13.56633,32.24708 9.72105,4.35072 23.20494,3.05716 36.66612,1.79742 -11.51672,6.47833 -25.94932,6.15332 -40.26076,6.11106 l -6.83004,14.37872 c 10.18506,-3.13078 20.37011,-3.69756 30.55517,-1.0784 5.19125,1.05902 6.83921,3.88974 8.26778,6.83006 l -9.34622,-3.23522 c -4.76499,5.74364 -11.32999,4.28708 -17.97365,2.51622 l -14.73834,2.51634 c -13.70964,7.1459 -23.85766,5.98108 -34.8687,6.82994 -3.62388,0.29314 -7.62691,0.11222 -7.54888,5.03264 -1.71224,-4.9507 2.19342,-7.6542 5.03264,-10.78414 l -12.5815,-1.79736 c -2.7775,-2.02469 -5.01071,-1.32844 -6.83006,1.4378 0.16366,-2.98765 -1.92229,-6.3843 8.26786,-7.54886 6.7257,0.125 9.09212,-1.2031 23.36562,1.43783 5.27226,-4.49416 10.54452,-5.62205 15.81678,-6.47049 20.30527,-28.45655 22.8637,-46.58517 18.13758,-56.76137"
       id="path2271"
       sodipodi:nodetypes="cccccccccccccccccccc"
       inkscape:connector-curvature="0" />
    <path
       style="color:#000000;fill:#550000;fill-opacity:1;fill-rule:evenodd;stroke:#000000;stroke-width:2.76495504;stroke-linecap:butt;stroke-linejoin:miter;stroke-miterlimit:4;stroke-opacity:1;stroke-dasharray:none;stroke-dashoffset:0;marker:none;visibility:visible;display:inline;overflow:visible;enable-background:accumulate"
       d="m 270.32468,312.16986 c 261.70008,-196.28026 201.12051,65.22405 260.36501,59.90468 -106.03036,19.49397 -29.56416,-170.51599 -249.51895,-52.63381 -8.35391,4.47746 -0.89214,-11.39993 -10.84606,-7.27087 z"
       id="path8034"
       sodipodi:nodetypes="ccsc"
       inkscape:connector-curvature="0" />
    <path
       style="color:#000000;fill:#550000;fill-opacity:1;fill-rule:evenodd;stroke:#000000;stroke-width:2.76495504;stroke-linecap:butt;stroke-linejoin:miter;stroke-miterlimit:4;stroke-opacity:1;stroke-dasharray:none;stroke-dashoffset:0;marker:none;visibility:visible;display:inline;overflow:visible;enable-background:accumulate"
       d="m 293.67604,311.76287 c 182.4241,-271.541052 211.38073,-4.678 265.56535,-29.2189 -93.68826,53.33863 -84.09166,-151.25562 -252.92878,32.51069 -6.41267,6.9798 -4.59839,-10.46924 -12.63657,-3.29179 z"
       id="path8032"
       sodipodi:nodetypes="ccsc"
       inkscape:connector-curvature="0" />
    <path
       style="color:#000000;fill:#550000;fill-opacity:1;fill-rule:evenodd;stroke:#000000;stroke-width:2.76495504;stroke-linecap:butt;stroke-linejoin:miter;stroke-miterlimit:4;stroke-opacity:1;stroke-dasharray:none;stroke-dashoffset:0;marker:none;visibility:visible;display:inline;overflow:visible;enable-background:accumulate"
       d="m 310.07137,292.75709 c 119.96557,-304.337798 205.4622,-49.8881 253.12582,-85.47506 -80.07469,72.18402 -114.5644,-129.710205 -240.07767,85.98121 -4.76706,8.19186 -6.73587,-9.24074 -13.04815,-0.50615 z"
       id="path8030"
       sodipodi:nodetypes="ccsc"
       inkscape:connector-curvature="0" />
    <path
       style="color:#000000;fill:#550000;fill-opacity:1;fill-rule:evenodd;stroke:#000000;stroke-width:2.76495504;stroke-linecap:butt;stroke-linejoin:miter;stroke-miterlimit:4;stroke-opacity:1;stroke-dasharray:none;stroke-dashoffset:0;marker:none;visibility:visible;display:inline;overflow:visible;enable-background:accumulate"
       d="M 314.07537,257.11612 C 403.28286,-57.613855 513.58102,187.10769 557.48175,146.97129 484.95683,226.73767 430.62435,29.2563 327.10957,256.32694 c -3.93162,8.62395 -7.61863,-8.52738 -13.0342,0.78918 z"
       id="path8028"
       sodipodi:nodetypes="ccsc"
       inkscape:connector-curvature="0" />
    <path
       style="color:#000000;fill:#aa0000;fill-opacity:1;fill-rule:evenodd;stroke:#000000;stroke-width:2.76495504;stroke-linecap:butt;stroke-linejoin:miter;stroke-miterlimit:4;stroke-opacity:1;stroke-dasharray:none;stroke-dashoffset:0;marker:none;visibility:visible;display:inline;overflow:visible;enable-background:accumulate"
       d="m 259.73422,133.44446 c -57.50285,-28.84385 50.43682,-74.428783 23.32876,-87.824645 17.81568,5.316189 30.63415,20.981598 7.48505,41.024579 7.13822,-4.204194 14.72271,-4.607193 18.39059,-16.434672 4.50164,8.850223 4.13948,23.022721 -16.62257,32.635608 6.29548,4.09782 12.72096,5.10031 19.28473,2.79753 -3.26485,6.80235 -8.07385,9.54034 -14.32611,8.4792 8.07082,8.67537 16.66726,14.63817 32.07051,5.36436 0.31864,30.55273 -41.21232,30.41964 -69.61096,13.95804 z"
       id="path5102"
       sodipodi:nodetypes="ccccccccc"
       inkscape:connector-curvature="0" />
    <path
       style="color:#000000;fill:#ff6600;fill-opacity:1;fill-rule:evenodd;stroke:#000000;stroke-width:2.76495504;stroke-linecap:butt;stroke-linejoin:miter;stroke-miterlimit:4;stroke-opacity:1;stroke-dasharray:none;stroke-dashoffset:0;marker:none;visibility:visible;display:inline;overflow:visible;enable-background:accumulate"
       d="m 230.90063,150.44394 c 9.32057,-28.12268 -29.67349,-38.09053 -44.47897,-39.74736 30.29012,28.39051 34.25238,37.8543 10.09475,50.15708 20.35765,3.58077 30.83242,-2.23941 34.38422,-10.40972 z"
       id="path4124"
       sodipodi:nodetypes="cccc"
       inkscape:connector-curvature="0" />
    <path
       style="color:#000000;fill:#008080;fill-opacity:1;fill-rule:evenodd;stroke:#000000;stroke-width:2.76495504;stroke-linecap:butt;stroke-linejoin:miter;stroke-miterlimit:4;stroke-opacity:1;stroke-dasharray:none;stroke-dashoffset:0;marker:none;visibility:visible;display:inline;overflow:visible;enable-background:accumulate"
       d="m 332.70128,251.57094 c 38.72722,-31.77598 90.95889,-43.71196 116.52765,-32.68682 -25.92022,-3.60969 -83.03999,28.96462 -98.44484,41.54304 l -18.08281,-8.85622 z"
       id="path3167"
       sodipodi:nodetypes="cccc"
       inkscape:connector-curvature="0" />
    <path
       style="color:#000000;fill:#550000;fill-opacity:1;fill-rule:evenodd;stroke:#000000;stroke-width:2.76495504;stroke-linecap:butt;stroke-linejoin:miter;stroke-miterlimit:4;stroke-opacity:1;stroke-dasharray:none;stroke-dashoffset:0;marker:none;visibility:visible;display:inline;overflow:visible;enable-background:accumulate"
       d="m 230.26978,209.74893 c -17.86923,-11.51711 -110.70622,106.83975 24.48424,141.39167 22.29971,5.69935 51.98414,-7.61841 89.17675,-10.94121 l 1.16396,-20.67296 c 23.05773,-47.3955 -35.65603,-40.59411 -70.66184,-118.61012 l -44.16311,8.83262 z"
       id="path8011"
       sodipodi:nodetypes="cscccc"
       inkscape:connector-curvature="0" />
    <path
       style="color:#000000;fill:#008080;fill-opacity:1;fill-rule:evenodd;stroke:#000000;stroke-width:2.76495504;stroke-linecap:butt;stroke-linejoin:miter;stroke-miterlimit:4;stroke-opacity:1;stroke-dasharray:none;stroke-dashoffset:0;marker:none;visibility:visible;display:inline;overflow:visible;enable-background:accumulate"
       d="m 181.05908,275.36318 c 15.68153,-9.91536 19.96597,-29.9027 44.79395,-36.25963 -9.57497,10.31895 -8.98284,29.95933 -6.93972,41.93807 12.17066,-26.6861 29.11959,-28.1575 37.22349,-33.43816 -2.13691,12.6075 -7.67288,27.15694 1.26168,33.43815 6.9782,-19.66348 17.53283,-19.659 27.76024,-21.45115 l 29.0214,8.20179 c -16.78645,-20.86471 -23.30173,-34.88229 -30.28352,-49.2107 -23.62046,-49.82516 -40.29377,-13.96204 -59.30524,-6.9401 -20.21768,26.26681 -38.49028,14.63578 -43.53228,63.72173 z"
       id="path8013"
       sodipodi:nodetypes="cccccccccc"
       inkscape:connector-curvature="0" />
    <path
       style="color:#000000;fill:#ffcc00;fill-opacity:1;fill-rule:evenodd;stroke:#000000;stroke-width:2.5988071;stroke-linecap:butt;stroke-linejoin:miter;stroke-miterlimit:4;stroke-opacity:1;stroke-dasharray:none;stroke-dashoffset:0;marker:none;visibility:visible;display:inline;overflow:visible;enable-background:accumulate"
       d="m 249.80276,124.81117 c 39.92722,5.13183 50.47571,27.69424 48.60867,53.01069 -1.44118,19.54634 -11.448,38.96269 -0.10323,58.33418 -11.93217,-7.95369 -31.20618,-13.1145 -35.12157,-31.48978 -1.11331,24.01856 -6.82451,23.91784 -24.537,35.68978 2.02736,-21.17072 2.64913,-13.7586 -1.38308,-31.70658 -5.92882,7.52628 -38.3532,17.75758 -55.134,47.68298 -2.01959,-35.76476 63.28428,-68.16221 40.0109,-91.37037 -4.40461,-29.92668 12.03472,-42.86395 27.65931,-40.1509 z"
       id="path2176"
       sodipodi:nodetypes="csccccccc"
       inkscape:connector-curvature="0" />
    <g
       id="g4126"
       style="stroke-width:4;stroke-miterlimit:4;stroke-dasharray:none"
       transform="matrix(-0.691237,0,0,0.691237,386.8057,53.346542)">
      <path
         transform="translate(-2.5815603,-3.2269504)"
         d="m 217.17376,138.10461 c 0,7.93077 -6.35693,14.35993 -14.19859,14.35993 -7.84166,0 -14.19858,-6.42916 -14.19858,-14.35993 0,-7.93077 6.35692,-14.35992 14.19858,-14.35992 7.84166,0 14.19859,6.42915 14.19859,14.35992 z"
         sodipodi:ry="14.359929"
         sodipodi:rx="14.198582"
         sodipodi:cy="138.10461"
         sodipodi:cx="202.97517"
         id="path3149"
         style="color:#000000;fill:#ffffff;fill-opacity:1;fill-rule:evenodd;stroke:#000000;stroke-width:4;stroke-linecap:butt;stroke-linejoin:miter;stroke-miterlimit:4;stroke-opacity:1;stroke-dasharray:none;stroke-dashoffset:0;marker:none;visibility:visible;display:inline;overflow:visible;enable-background:accumulate"
         sodipodi:type="arc" />
      <path
         transform="matrix(0.348955,0,0,0.348955,132.14591,88.78283)"
         d="m 217.17376,138.10461 c 0,7.93077 -6.35693,14.35993 -14.19859,14.35993 -7.84166,0 -14.19858,-6.42916 -14.19858,-14.35993 0,-7.93077 6.35692,-14.35992 14.19858,-14.35992 7.84166,0 14.19859,6.42915 14.19859,14.35992 z"
         sodipodi:ry="14.359929"
         sodipodi:rx="14.198582"
         sodipodi:cy="138.10461"
         sodipodi:cx="202.97517"
         id="path3151"
         style="color:#000000;fill:#000000;fill-opacity:1;fill-rule:evenodd;stroke:#000000;stroke-width:11.46279621;stroke-linecap:butt;stroke-linejoin:miter;stroke-miterlimit:4;stroke-opacity:1;stroke-dasharray:none;stroke-dashoffset:0;marker:none;visibility:visible;display:inline;overflow:visible;enable-background:accumulate"
         sodipodi:type="arc" />
      <path
         transform="matrix(0.1400404,0,0,0.1400404,177.13203,115.69879)"
         d="m 217.17376,138.10461 c 0,7.93077 -6.35693,14.35993 -14.19859,14.35993 -7.84166,0 -14.19858,-6.42916 -14.19858,-14.35993 0,-7.93077 6.35692,-14.35992 14.19858,-14.35992 7.84166,0 14.19859,6.42915 14.19859,14.35992 z"
         sodipodi:ry="14.359929"
         sodipodi:rx="14.198582"
         sodipodi:cy="138.10461"
         sodipodi:cx="202.97517"
         id="path3153"
         style="color:#000000;fill:#ffffff;fill-opacity:1;fill-rule:evenodd;stroke:none;stroke-width:28.56318665;marker:none;visibility:visible;display:inline;overflow:visible;enable-background:accumulate"
         sodipodi:type="arc" />
    </g>
    <path
       style="fill:#aa0000;fill-rule:evenodd;stroke:#000000;stroke-width:2.76495504;stroke-linecap:butt;stroke-linejoin:miter;stroke-miterlimit:4;stroke-opacity:1;stroke-dasharray:none"
       d="m 221.6389,160.80269 c -14.3086,12.90823 -24.3132,28.58381 -23.06828,35.50928 2.84136,15.80742 40.25763,9.79364 24.59469,-32.45787 l -1.52641,-3.05141 z"
       id="path4131"
       sodipodi:nodetypes="cscc"
       inkscape:connector-curvature="0" />
    <path
       style="color:#000000;fill:#008080;fill-opacity:1;fill-rule:evenodd;stroke:#000000;stroke-width:2.76495504;stroke-linecap:butt;stroke-linejoin:miter;stroke-miterlimit:4;stroke-opacity:1;stroke-dasharray:none;stroke-dashoffset:0;marker:none;visibility:visible;display:inline;overflow:visible;enable-background:accumulate"
       d="m 336.42626,251.37908 c 49.46458,-7.92047 100.59133,8.10149 117.11564,30.51181 -21.98457,-11.3118 -86.91465,-14.79523 -105.96307,-13.74778 l -11.15257,-16.76403 z"
       id="path3169"
       sodipodi:nodetypes="cccc"
       inkscape:connector-curvature="0" />
    <path
       style="color:#000000;fill:#008080;fill-opacity:1;fill-rule:evenodd;stroke:#000000;stroke-width:2.76495504;stroke-linecap:butt;stroke-linejoin:miter;stroke-miterlimit:4;stroke-opacity:1;stroke-dasharray:none;stroke-dashoffset:0;marker:none;visibility:visible;display:inline;overflow:visible;enable-background:accumulate"
       d="m 331.68749,242.0275 c 26.7561,-42.35089 72.57629,-70.12123 100.31514,-67.70461 -24.25211,8.09459 -74.00747,51.34664 -80.36392,70.41885 l -19.95122,-2.71424 z"
       id="path3165"
       sodipodi:nodetypes="cccc"
       inkscape:connector-curvature="0" />
    <path
       style="color:#000000;fill:#008080;fill-opacity:1;fill-rule:evenodd;stroke:#000000;stroke-width:2.76495504;stroke-linecap:butt;stroke-linejoin:miter;stroke-miterlimit:4;stroke-opacity:1;stroke-dasharray:none;stroke-dashoffset:0;marker:none;visibility:visible;display:inline;overflow:visible;enable-background:accumulate"
       d="m 318.83457,242.15839 c 11.13923,-48.84058 45.108,-90.27499 72.07033,-97.22635 -19.07319,16.25555 -52.27189,76.60406 -52.35298,93.14713 l -19.71735,4.07922 z"
       id="path3163"
       sodipodi:nodetypes="cccc"
       inkscape:connector-curvature="0" />
    <path
       style="color:#000000;fill:#550000;fill-opacity:1;fill-rule:evenodd;stroke:#000000;stroke-width:2.76495504;stroke-linecap:butt;stroke-linejoin:miter;stroke-miterlimit:4;stroke-opacity:1;stroke-dasharray:none;stroke-dashoffset:0;marker:none;visibility:visible;display:inline;overflow:visible;enable-background:accumulate"
       d="m 261.85666,351.19193 c 8.36717,6.87172 27.00076,7.73313 29.57655,17.08612 l 4.69691,-8.45943 6.86942,8.12742 4.00924,-12.64062 7.0845,9.21767 c -3.3164,-10.5589 3.1227,-13.72235 4.63218,-21.06326"
       id="path8054"
       sodipodi:nodetypes="ccccccc"
       inkscape:connector-curvature="0" />
    <path
       style="color:#000000;fill:#aa0000;fill-opacity:1;fill-rule:evenodd;stroke:#000000;stroke-width:2.76495504;stroke-linecap:butt;stroke-linejoin:miter;stroke-miterlimit:4;stroke-opacity:1;stroke-dasharray:none;stroke-dashoffset:0;marker:none;visibility:visible;display:inline;overflow:visible;enable-background:accumulate"
       d="m 279.87333,310.66417 c 37.3186,33.41867 88.98691,47.59871 115.00743,37.68805 -24.96005,-2.24178 -86.93169,-32.30192 -96.55924,-45.75517 l -18.44819,8.06712 z"
       id="path2277"
       sodipodi:nodetypes="cccc"
       inkscape:connector-curvature="0" />
    <path
       style="opacity:0.54000005;fill:#ffffff;fill-rule:evenodd;stroke:none"
       d="m 269.88125,137.11288 7.8193,3.73943 c 31.48118,23.57043 4.43475,54.61898 6.79889,81.92891 -1.21549,-31.19658 18.87131,-63.63871 -14.61819,-85.66834 z"
       id="path8074"
       sodipodi:nodetypes="cccc"
       inkscape:connector-curvature="0" />
    <path
       style="opacity:0.325;color:#000000;fill:#ffffff;fill-opacity:1;fill-rule:evenodd;stroke:none;stroke-width:1px;marker:none;visibility:visible;display:inline;overflow:visible;enable-background:accumulate"
       d="m 224.99981,130.9942 c -1.00541,1.5952 -2.33987,2.53207 -2.76469,5.28807 -2.64596,-9.67943 -15.88372,-16.17344 -27.40344,-21.8747 11.90859,3.22502 21.35327,7.53236 30.16813,16.58663 z"
       id="path9045"
       sodipodi:nodetypes="cccc"
       inkscape:connector-curvature="0" />
    <path
       style="fill:#000000;fill-rule:evenodd;stroke:none"
       d="m 207.3303,203.40407 c -6.34183,-5.09353 -1.02192,-11.59657 4.07905,-18.01807 -5.95162,4.5631 -10.93546,10.35587 -7.81865,17.16788 l 3.7396,0.85019 z"
       id="path9047"
       sodipodi:nodetypes="cccc"
       inkscape:connector-curvature="0" />
    <path
       style="opacity:0.19499996;fill:#ffffff;fill-rule:evenodd;stroke:none"
       d="m 291.58593,52.989581 c -10.41222,27.293725 -58.61992,52.432469 -34.37486,69.470739 l -5.76911,-0.48067 c -24.87472,-14.6935 31.83238,-47.198254 40.14397,-68.990069 z"
       id="path9049"
       sodipodi:nodetypes="cccc"
       inkscape:connector-curvature="0" />
    <path
       style="fill:none;stroke:#000000;stroke-width:1px;stroke-linecap:butt;stroke-linejoin:miter;stroke-opacity:1"
       d="m 244.12572,424.35881 c 1.50826,-3.88263 7.45862,-2.06664 13.91029,-3.47757 -7.28987,0.83407 -13.45583,-1.62863 -13.91029,3.47757 z"
       id="path2273"
       sodipodi:nodetypes="ccc"
       inkscape:connector-curvature="0" />
    <path
       style="color:#000000;fill:#aa0000;fill-opacity:1;fill-rule:evenodd;stroke:#000000;stroke-width:2.76495504;stroke-linecap:butt;stroke-linejoin:miter;stroke-miterlimit:4;stroke-opacity:1;stroke-dasharray:none;stroke-dashoffset:0;marker:none;visibility:visible;display:inline;overflow:visible;enable-background:accumulate"
       d="m 299.23816,317.72519 c 44.68022,22.65311 98.25779,23.01549 120.83826,6.72404 -24.69284,4.27711 -92.32368,-8.76761 -105.09763,-19.27978 l -15.74063,12.55574 z"
       id="path2302"
       sodipodi:nodetypes="cccc"
       inkscape:connector-curvature="0" />
    <path
       style="color:#000000;fill:#aa0000;fill-opacity:1;fill-rule:evenodd;stroke:#000000;stroke-width:2.76495504;stroke-linecap:butt;stroke-linejoin:miter;stroke-miterlimit:4;stroke-opacity:1;stroke-dasharray:none;stroke-dashoffset:0;marker:none;visibility:visible;display:inline;overflow:visible;enable-background:accumulate"
       d="m 300.52165,330.9712 c 49.95711,3.71117 99.54675,-16.57567 114.11734,-40.30301 -21.14439,13.45157 -88.58595,27.44198 -104.42185,22.65615 l -9.69549,17.64686 z"
       id="path2304"
       sodipodi:nodetypes="cccc"
       inkscape:connector-curvature="0" />
    <path
       style="color:#000000;fill:#aa0000;fill-opacity:1;fill-rule:evenodd;stroke:#000000;stroke-width:2.76495504;stroke-linecap:butt;stroke-linejoin:miter;stroke-miterlimit:4;stroke-opacity:1;stroke-dasharray:none;stroke-dashoffset:0;marker:none;visibility:visible;display:inline;overflow:visible;enable-background:accumulate"
       d="m 295.36683,322.6637 c 43.91859,24.09652 97.45593,26.20399 120.5551,10.65674 -24.81905,3.47048 -91.98908,-11.77038 -104.41382,-22.69308 l -16.14128,12.03634 z"
       id="path2308"
       sodipodi:nodetypes="cccc"
       inkscape:connector-curvature="0" />
    <path
       style="color:#000000;fill:#aa0000;fill-opacity:1;fill-rule:evenodd;stroke:#000000;stroke-width:2.76495504;stroke-linecap:butt;stroke-linejoin:miter;stroke-miterlimit:4;stroke-opacity:1;stroke-dasharray:none;stroke-dashoffset:0;marker:none;visibility:visible;display:inline;overflow:visible;enable-background:accumulate"
       d="m 300.13822,330.65699 c 49.08711,9.99707 100.84357,-3.85776 118.29691,-25.55268 -22.67531,10.67052 -91.34446,16.02257 -106.44826,9.27313 l -11.84865,16.27955 z"
       id="path2306"
       sodipodi:nodetypes="cccc"
       inkscape:connector-curvature="0" />
    <g
       id="g2293">
      <path
         sodipodi:nodetypes="ccccc"
         id="path8020"
         d="m 354.947,228.37853 c 63.51133,37.26949 39.77457,83.46809 17.79033,106.73929 l -1.77935,-4.15104 -56.33435,-81.83341 40.32337,-20.75484 z"
         style="color:#000000;fill:#ffcc00;fill-opacity:1;fill-rule:evenodd;stroke:#000000;stroke-width:2.5988071;stroke-linecap:butt;stroke-linejoin:miter;stroke-miterlimit:4;stroke-opacity:1;stroke-dasharray:none;stroke-dashoffset:0;marker:none;visibility:visible;display:inline;overflow:visible;enable-background:accumulate"
         inkscape:connector-curvature="0" />
      <path
         sodipodi:nodetypes="cccccc"
         id="path8018"
         d="m 372.93388,339.38998 c -131.75811,6.07211 -111.00796,-73.32941 -71.15933,-94.28596 l 5.33677,5.9296 4.74401,-13.63847 43.28839,-12.45326 c -23.09034,53.68683 42.87167,66.02726 17.79016,114.44809 z"
         style="color:#000000;fill:#502d16;fill-opacity:1;fill-rule:evenodd;stroke:#000000;stroke-width:2.5988071;stroke-linecap:butt;stroke-linejoin:miter;stroke-miterlimit:4;stroke-opacity:1;stroke-dasharray:none;stroke-dashoffset:0;marker:none;visibility:visible;display:inline;overflow:visible;enable-background:accumulate"
         inkscape:connector-curvature="0" />
      <path
         sodipodi:nodetypes="cccccc"
         id="path8015"
         d="m 350.39975,340.5759 c -131.75724,6.07235 -113.97266,-68.5852 -74.12453,-89.54228 l 5.33704,5.9304 4.7443,-13.63934 43.28835,-12.45255 c -23.09063,53.68706 45.83676,61.28317 20.75484,109.70377 z"
         style="color:#000000;fill:#ffcc00;fill-opacity:1;fill-rule:evenodd;stroke:#000000;stroke-width:2.5988071;stroke-linecap:butt;stroke-linejoin:miter;stroke-miterlimit:4;stroke-opacity:1;stroke-dasharray:none;stroke-dashoffset:0;marker:none;visibility:visible;display:inline;overflow:visible;enable-background:accumulate"
         inkscape:connector-curvature="0" />
      <path
         id="path8022"
         d="m 373.48527,243.81774 -82.64882,24.60534 87.06541,-22.08174 -4.41659,-2.5236 z"
         style="fill:#000000;fill-rule:evenodd;stroke:#000000;stroke-width:0.69123876px;stroke-linecap:butt;stroke-linejoin:miter;stroke-opacity:1"
         inkscape:connector-curvature="0" />
      <path
         id="path8024"
         d="m 389.56878,265.86029 -85.72182,9.38113 89.614,-6.10606 -3.89218,-3.27507 z"
         style="fill:#000000;fill-rule:evenodd;stroke:#000000;stroke-width:0.69123876px;stroke-linecap:butt;stroke-linejoin:miter;stroke-opacity:1"
         inkscape:connector-curvature="0" />
      <path
         id="path8026"
         d="m 392.43619,299.02487 -85.63064,-10.18452 89.55317,6.9465 -3.92253,3.23802 z"
         style="fill:#000000;fill-rule:evenodd;stroke:#000000;stroke-width:0.69123876px;stroke-linecap:butt;stroke-linejoin:miter;stroke-opacity:1"
         inkscape:connector-curvature="0" />
      <path
         id="path2190"
         d="m 288.70131,246.25759 39.42255,-11.77862 -1.202,2.64388 25.48095,-6.24987 -0.72138,2.16358 4.80799,-1.44221 4.80712,3.12503 -10.33648,2.64421 0.48107,-1.68262 -25.72127,5.2886 0,-1.68282 -37.01855,6.97084 z"
         style="opacity:0.22000002;fill:#ffffff;fill-rule:evenodd;stroke:none"
         inkscape:connector-curvature="0" />
    </g>
  </g>
</svg>
