<?xml version="1.0" encoding="UTF-8" standalone="no"?>
<!-- Created with Inkscape (http://www.inkscape.org/) -->

<svg
   xmlns:dc="http://purl.org/dc/elements/1.1/"
   xmlns:cc="http://creativecommons.org/ns#"
   xmlns:rdf="http://www.w3.org/1999/02/22-rdf-syntax-ns#"
   xmlns:svg="http://www.w3.org/2000/svg"
   xmlns="http://www.w3.org/2000/svg"
   xmlns:sodipodi="http://sodipodi.sourceforge.net/DTD/sodipodi-0.dtd"
   xmlns:inkscape="http://www.inkscape.org/namespaces/inkscape"
   width="414.64767"
   height="452.08069"
   id="svg6226"
   sodipodi:version="0.32"
   inkscape:version="0.48.3.1 r9886"
   sodipodi:docname="pajaro.svg"
   inkscape:output_extension="org.inkscape.output.svg.inkscape"
   version="1.1">
  <defs
     id="defs6228" />
  <sodipodi:namedview
     id="base"
     pagecolor="#ffffff"
     bordercolor="#666666"
     borderopacity="1.0"
     inkscape:pageopacity="0.0"
     inkscape:pageshadow="2"
     inkscape:zoom="0.89"
     inkscape:cx="264.77981"
     inkscape:cy="192.3653"
     inkscape:current-layer="layer1"
     inkscape:document-units="px"
     showguides="true"
     inkscape:guide-bbox="true"
     inkscape:window-width="1022"
     inkscape:window-height="703"
     inkscape:window-x="0"
     inkscape:window-y="48"
     showgrid="false"
     fit-margin-top="0"
     fit-margin-left="0"
     fit-margin-right="0"
     fit-margin-bottom="0"
     inkscape:window-maximized="0">
    <sodipodi:guide
       orientation="vertical"
       position="-174.70715,-15.72461"
       id="guide6318" />
  </sodipodi:namedview>
  <metadata
     id="metadata6231">
    <rdf:RDF>
      <cc:Work
         rdf:about="">
        <dc:format>image/svg+xml</dc:format>
        <dc:type
           rdf:resource="http://purl.org/dc/dcmitype/StillImage" />
        <cc:license
           rdf:resource="http://creativecommons.org/licenses/by/2.5/" />
        <dc:title></dc:title>
        <dc:date>27/01/2008</dc:date>
        <dc:creator>
          <cc:Agent>
            <dc:title>Vladimir Zuñiga C</dc:title>
          </cc:Agent>
        </dc:creator>
      </cc:Work>
      <cc:License
         rdf:about="http://creativecommons.org/licenses/by/2.5/">
        <cc:permits
           rdf:resource="http://web.resource.org/cc/Reproduction" />
        <cc:permits
           rdf:resource="http://web.resource.org/cc/Distribution" />
        <cc:requires
           rdf:resource="http://web.resource.org/cc/Notice" />
        <cc:requires
           rdf:resource="http://web.resource.org/cc/Attribution" />
        <cc:permits
           rdf:resource="http://web.resource.org/cc/DerivativeWorks" />
      </cc:License>
    </rdf:RDF>
  </metadata>
  <g
     id="layer1"
     inkscape:label="Layer 1"
     inkscape:groupmode="layer"
     transform="translate(-92.097221,-12.194698)">
    <path
       style="fill:#000000;fill-rule:evenodd;stroke:#000000;stroke-width:1.09069681px;stroke-linecap:butt;stroke-linejoin:miter;stroke-opacity:1"
       d="m 379.96261,79.813219 c 4.25444,14.97566 25.68587,-2.78874 35.05118,-15.51156 -6.45073,10.69567 -27.86624,25.83957 -35.91412,15.34204 l 2.00097,6.70071 -1.13803,-6.53119 z"
       id="path6296"
       sodipodi:nodetypes="ccccc"
       inkscape:connector-curvature="0" />
    <path
       style="fill:#000000;fill-rule:evenodd;stroke:#000000;stroke-width:1px;stroke-linecap:butt;stroke-linejoin:miter;stroke-opacity:1"
       d="m 385.19557,85.628979 c 1.75659,13.14465 25.71689,2.68516 36.99147,-5.96591 -8.07912,7.54842 -31.59887,15.85522 -37.81278,5.65917 l 0.88174,5.90032 -0.0604,-5.59358 z"
       id="path6298"
       sodipodi:nodetypes="ccccc"
       inkscape:connector-curvature="0" />
    <path
       style="fill:#3771c8;fill-rule:evenodd;stroke:#000000;stroke-width:4;stroke-linecap:butt;stroke-linejoin:miter;stroke-miterlimit:4;stroke-opacity:1;stroke-dasharray:none"
       d="m 285.13268,234.3691 36.14185,-81.31915 C 177.22522,131.92653 269.29669,54.234539 296.7497,17.518039 470.1645,63.448229 355.18071,152.24849 285.13268,234.3691 z"
       id="path6238"
       sodipodi:nodetypes="cccc"
       inkscape:connector-curvature="0" />
    <path
       style="fill:#d3bc5f;fill-rule:evenodd;stroke:#000000;stroke-width:4;stroke-linecap:butt;stroke-linejoin:miter;stroke-miterlimit:4;stroke-opacity:1;stroke-dasharray:none"
       d="m 330.25259,432.77686 c 21.76458,-21.5786 36.83364,-2.91418 52.26489,6.93852 -23.36072,-6.91307 -34.2205,-13.09785 -52.06022,-2.09454 -6.56114,7.56842 -63.73965,-5.77347 -67.99177,19.83272 1.42936,-26.64243 14.17719,-35.88585 52.10252,-22.65851 -32.99145,-10.77744 -50.36111,-11.18897 -77.58799,-0.5301 10.95722,-11.1338 24.07975,-18.67654 43.26646,-16.16211 9.62266,1.26105 20.77064,5.05178 33.93578,12.18787 l 9.03217,-105.95467 7.03816,108.44082 z"
       id="path6280"
       sodipodi:nodetypes="ccccccsccc"
       inkscape:connector-curvature="0" />
    <path
       style="fill:#3771c8;fill-rule:evenodd;stroke:#000000;stroke-width:4;stroke-linecap:butt;stroke-linejoin:miter;stroke-miterlimit:4;stroke-opacity:1;stroke-dasharray:none"
       d="m 452.00434,258.96545 c -6.00512,-20.05432 -6.42491,-55.55694 2.3451,-50.42258 4.99092,3.5843 13.01248,34.94013 -2.3451,50.42258 z"
       id="path6314"
       sodipodi:nodetypes="ccc"
       inkscape:connector-curvature="0" />
    <path
       style="opacity:0.10891089;fill:#000000;fill-rule:evenodd;stroke:#000000;stroke-width:1px;stroke-linecap:butt;stroke-linejoin:miter;stroke-opacity:1"
       d="m 383.79851,102.59053 c -108.54858,46.1947 -109.30652,2.81689 -136.90791,-18.254389 21.73241,47.011959 62.22048,87.772029 36.50877,150.598699 34.44143,-42.78515 83.77538,-85.2177 100.39914,-132.34431 z"
       id="path6328"
       sodipodi:nodetypes="cccc"
       inkscape:connector-curvature="0" />
    <path
       style="fill:#3771c8;fill-rule:evenodd;stroke:#000000;stroke-width:4;stroke-linecap:butt;stroke-linejoin:miter;stroke-miterlimit:4;stroke-opacity:1;stroke-dasharray:none"
       d="m 336.3371,168.76269 c -22.09774,45.23771 -89.34814,69.93274 -65.25944,136.45155 65.74125,112.07123 235.80755,-73.17281 169.76581,-40.616 -81.31282,-109.74431 -225.0495,85.29792 -104.50637,-95.83555 z"
       id="path6274"
       sodipodi:nodetypes="cccc"
       inkscape:connector-curvature="0" />
    <path
       style="fill:#d3bc5f;fill-rule:evenodd;stroke:#000000;stroke-width:4;stroke-linecap:butt;stroke-linejoin:miter;stroke-miterlimit:4;stroke-opacity:1;stroke-dasharray:none"
       d="m 297.66242,17.817799 c -74.50233,96.423151 0.79114,137.859971 37.1653,118.452011 20.42335,14.67741 -20.86103,82.99105 -56.79432,104.55319 29.88164,-75.45827 -6.71842,-81.43468 -31.62412,-85.19149 C 182.29043,143.58715 140.51834,148.8051 94.097221,159.50385 102.9473,58.512669 178.744,-1.5782739 297.66242,17.817799 z"
       id="path6234"
       sodipodi:nodetypes="cccccc"
       inkscape:connector-curvature="0" />
    <path
       style="fill:none;stroke:#000000;stroke-width:4;stroke-linecap:butt;stroke-linejoin:miter;stroke-miterlimit:4;stroke-opacity:1;stroke-dasharray:none"
       d="m 248.99084,155.63151 c 29.17434,2.33542 59.09394,21.48797 68.41135,1.29078"
       id="path6242"
       sodipodi:nodetypes="cc"
       inkscape:connector-curvature="0" />
    <path
       style="fill:#000000;fill-opacity:1;fill-rule:evenodd;stroke:#000000;stroke-width:1px;stroke-linecap:butt;stroke-linejoin:miter;stroke-opacity:1"
       d="m 250.27091,53.890259 c 12.48397,-16.18433 -5.25146,-9.52527 -12.59707,-11.27614 7.94164,1.85893 21.02824,-0.90763 12.59707,11.27614 z"
       id="path6246"
       sodipodi:nodetypes="ccc"
       inkscape:connector-curvature="0" />
    <path
       style="opacity:0.27722772;fill:#ffffff;fill-rule:evenodd;stroke:none"
       d="M 281.90573,20.099599 C 198.07778,15.258289 122.4553,29.065799 94.742612,151.75917 134.2933,52.150319 199.36389,14.810039 281.90573,20.099599 z"
       id="path6262"
       sodipodi:nodetypes="ccc"
       inkscape:connector-curvature="0" />
    <path
       style="opacity:0.29702968;fill:#ffffff;fill-rule:evenodd;stroke:none"
       d="m 299.82832,21.358499 c 38.93871,9.86191 100.223,30.40678 83.51383,83.970191 0.49934,-61.050221 -50.97837,-61.460561 -83.51383,-83.970191 z"
       id="path6270"
       sodipodi:nodetypes="ccc"
       inkscape:connector-curvature="0" />
    <path
       style="fill:none;stroke:#000000;stroke-width:4;stroke-linecap:butt;stroke-linejoin:miter;stroke-miterlimit:4;stroke-opacity:1;stroke-dasharray:none"
       d="m 344.72874,292.06876 c 10.47979,29.97072 36.65809,24.47784 49.93362,9.61462 -7.50564,-7.14568 -19.57418,-20.26108 -45.4117,-20.62242 41.02535,7.34202 60.55606,9.73655 85.96743,-1.46509 -25.93112,-21.85954 -52.15529,-29.3856 -78.72052,-20.2292"
       id="path6278"
       sodipodi:nodetypes="ccccc"
       inkscape:connector-curvature="0" />
    <path
       style="fill:#d3bc5f;fill-rule:evenodd;stroke:#000000;stroke-width:4;stroke-linecap:butt;stroke-linejoin:miter;stroke-miterlimit:4;stroke-opacity:1;stroke-dasharray:none"
       d="m 335.62175,437.59869 c -21.76458,-21.5786 -35.92092,7.12573 -51.35217,16.97843 23.36072,-6.91307 33.30778,-23.13776 51.1475,-12.13445 6.56114,7.56842 63.73965,-5.77347 67.99177,19.83272 -1.42936,-26.64243 -14.17719,-35.88585 -52.10252,-22.65851 32.99145,-10.77744 50.36111,-11.18897 77.58799,-0.5301 -16.45257,-16.7177 -37.787,-25.33906 -77.20224,-3.97424 l -9.03217,-105.95467 -7.03816,108.44082 z"
       id="path6282"
       sodipodi:nodetypes="ccccccccc"
       inkscape:connector-curvature="0" />
    <path
       style="opacity:0.35643562;fill:#ffffff;fill-rule:evenodd;stroke:none"
       d="m 316.25727,146.85742 c 13.74815,-4.88729 25.62651,4.16085 -0.45636,31.48882 11.28573,-16.71446 14.63948,-30.60693 0.45636,-31.48882 z"
       id="path6292"
       sodipodi:nodetypes="ccc"
       inkscape:connector-curvature="0" />
    <g
       id="g4243">
      <path
         sodipodi:nodetypes="ccc"
         id="path6248"
         d="m 310.50898,50.406899 c -17.01987,-3.10002 -56.32749,54.671161 -14.4862,68.471321 40.95849,1.7548 39.69686,-59.056661 14.4862,-68.471321 z"
         style="fill:#dbe3db;fill-rule:evenodd;stroke:#000000;stroke-width:4.57042885;stroke-linecap:butt;stroke-linejoin:miter;stroke-miterlimit:4;stroke-opacity:1;stroke-dasharray:none"
         inkscape:connector-curvature="0" />
      <path
         transform="translate(12.778072,-89.446501)"
         d="m 301.39715,177.31206 c 0,11.40605 -3.8286,20.65248 -8.55142,20.65248 -4.72281,0 -8.55141,-9.24643 -8.55141,-20.65248 0,-11.40605 3.8286,-20.65249 8.55141,-20.65249 4.72282,0 8.55142,9.24644 8.55142,20.65249 z"
         sodipodi:ry="20.652483"
         sodipodi:rx="8.5514183"
         sodipodi:cy="177.31206"
         sodipodi:cx="292.84573"
         id="path6252"
         style="fill:#000000;fill-opacity:1;fill-rule:nonzero;stroke:none"
         sodipodi:type="arc" />
      <path
         transform="translate(12.778072,-89.446501)"
         d="m 294.62057,169.08333 c 0,4.90104 -3.53965,8.87411 -7.90603,8.87411 -4.36638,0 -7.90603,-3.97307 -7.90603,-8.87411 0,-4.90104 3.53965,-8.87411 7.90603,-8.87411 4.36638,0 7.90603,3.97307 7.90603,8.87411 z"
         sodipodi:ry="8.8741131"
         sodipodi:rx="7.9060283"
         sodipodi:cy="169.08333"
         sodipodi:cx="286.71454"
         id="path6254"
         style="fill:#dbe3db;fill-opacity:1;fill-rule:nonzero;stroke:none"
         sodipodi:type="arc" />
      <path
         sodipodi:nodetypes="ccc"
         id="path6256"
         d="m 299.16991,99.321229 c 4.03355,7.100901 7.4973,11.536151 13.2305,-0.48405 -4.67908,6.204011 -8.55142,4.536181 -13.2305,0.48405 z"
         style="fill:#dbe3db;fill-rule:evenodd;stroke:#000000;stroke-width:1px;stroke-linecap:butt;stroke-linejoin:miter;stroke-opacity:1"
         inkscape:connector-curvature="0" />
      <path
         transform="translate(11.648639,-91.221324)"
         d="m 308.17376,184.97606 c 0,3.1634 -2.85339,5.72784 -6.37322,5.72784 -3.51984,0 -6.37323,-2.56444 -6.37323,-5.72784 0,-3.1634 2.85339,-5.72784 6.37323,-5.72784 3.51983,0 6.37322,2.56444 6.37322,5.72784 z"
         sodipodi:ry="5.7278371"
         sodipodi:rx="6.3732271"
         sodipodi:cy="184.97606"
         sodipodi:cx="301.80054"
         id="path6258"
         style="opacity:0.53465349;fill:#dbe3db;fill-opacity:1;fill-rule:nonzero;stroke:none"
         sodipodi:type="arc" />
      <path
         sodipodi:nodetypes="cc"
         id="path6260"
         d="m 328.05112,75.603149 c -0.48524,-15.79934 -8.54657,-36.86418 -33.88298,-26.1383"
         style="fill:none;stroke:#000000;stroke-width:4;stroke-linecap:butt;stroke-linejoin:miter;stroke-miterlimit:4;stroke-opacity:1;stroke-dasharray:none"
         inkscape:connector-curvature="0" />
      <path
         sodipodi:nodetypes="ccc"
         id="path6294"
         d="m 272.22488,108.51803 c 15.81228,13.22852 40.29744,19.71667 49.04964,-0.3227 -6.66902,14.21 -32.05437,17.50207 -49.04964,0.3227 z"
         style="fill:#000000;fill-rule:evenodd;stroke:#000000;stroke-width:1px;stroke-linecap:butt;stroke-linejoin:miter;stroke-opacity:1"
         inkscape:connector-curvature="0" />
    </g>
    <path
       style="opacity:0.30198017;fill:#ffffff;fill-rule:evenodd;stroke:none"
       d="m 429.89083,280.11445 c -16.42937,-15.896 -36.39039,-27.37743 -72.10483,-19.1671 23.62739,0.27567 47.28661,1.02891 72.10483,19.1671 z"
       id="path6300"
       sodipodi:nodetypes="ccc"
       inkscape:connector-curvature="0" />
    <path
       style="fill:#3771c8;fill-rule:evenodd;stroke:#000000;stroke-width:4;stroke-linecap:butt;stroke-linejoin:miter;stroke-miterlimit:4;stroke-opacity:1;stroke-dasharray:none"
       d="m 454.65117,259.91577 c 6.03057,-34.46497 30.25375,-91.02495 38.30513,-79.04628 4.11962,7.86879 -7.124,61.15972 -38.30513,79.04628 z"
       id="path6310"
       sodipodi:nodetypes="ccc"
       inkscape:connector-curvature="0" />
    <path
       style="fill:#3771c8;fill-rule:evenodd;stroke:#000000;stroke-width:4;stroke-linecap:butt;stroke-linejoin:miter;stroke-miterlimit:4;stroke-opacity:1;stroke-dasharray:none"
       d="m 455.77623,260.33515 c 9.86643,-12.09682 41.20867,-28.09561 48.51056,-21.1621 3.56001,4.24013 -13.72512,22.42855 -48.51056,21.1621 z"
       id="path6312"
       sodipodi:nodetypes="ccc"
       inkscape:connector-curvature="0" />
    <path
       style="opacity:0.23404254;fill:#000000;fill-rule:evenodd;stroke:none"
       d="m 451.7961,266.42366 c -54.47348,71.00396 -158.89613,99.76962 -171.59125,-27.38158 -30.77937,58.37396 -1.20338,93.29115 52.02501,104.05001 96.03427,-25.00694 112.56505,-66.03348 119.56624,-76.66843 z"
       id="path6316"
       sodipodi:nodetypes="cccc"
       inkscape:connector-curvature="0" />
    <path
       style="opacity:0.20297032;fill:#ffffff;fill-rule:evenodd;stroke:none"
       d="M 430.9181,258.318 C 377.08217,206.74496 329.14969,247.55808 288.28689,253.15488 337.14239,240.96362 392.14827,236.34187 430.9181,258.318 z"
       id="path6320"
       sodipodi:nodetypes="ccc"
       inkscape:connector-curvature="0" />
    <path
       style="opacity:0.16336634;fill:#000000;fill-rule:evenodd;stroke:none"
       d="m 310.43263,159.88652 c -2.0565,27.33506 -17.2314,52.33506 -30.33334,78.0922 5.08542,-27.40297 19.41756,-56.89961 -3.22695,-76.15603 16.97749,4.16836 26.62014,8.95148 33.56029,-1.93617 z"
       id="path6322"
       sodipodi:nodetypes="cccc"
       inkscape:connector-curvature="0" />
    <path
       style="opacity:0.05940594;fill:#000000;fill-rule:evenodd;stroke:#000000;stroke-width:1px;stroke-linecap:butt;stroke-linejoin:miter;stroke-opacity:1"
       d="m 383.36171,102.4468 c -43.73125,23.76623 -80.13987,21.90323 -113.58866,9.68086 -66.4422,28.72533 -181.354612,33.99054 -164.57447,-1.29078 l -10.971629,48.40425 c 12.720299,2.54282 241.303299,-52.09784 188.453899,76.15603 24.64641,-21.00124 76.55783,-75.15178 100.68086,-132.95036 z"
       id="path2293"
       sodipodi:nodetypes="cccccc"
       inkscape:connector-curvature="0" />
    <path
       style="opacity:0.43404254;fill:#000000;fill-rule:evenodd;stroke:#000000;stroke-width:1px;stroke-linecap:butt;stroke-linejoin:miter;stroke-opacity:1"
       d="m 491.14184,182.15248 c 0.5649,18.59246 1.10269,47.39441 -33.88298,73.89717 17.5625,-23.18589 27.47073,-48.13815 33.88298,-73.89717 z"
       id="path3161"
       sodipodi:nodetypes="ccc"
       inkscape:connector-curvature="0" />
    <path
       style="opacity:0.23404254;fill:#000000;fill-rule:evenodd;stroke:#000000;stroke-width:1px;stroke-linecap:butt;stroke-linejoin:miter;stroke-opacity:1"
       d="m 502.75886,240.88298 c -11.47567,9.11199 -23.16534,15.01388 -35.49645,11.29433 l -8.06738,6.77659 c 31.91922,-0.0431 38.69439,-8.72946 43.56383,-18.07092 z"
       id="path3163"
       sodipodi:nodetypes="cccc"
       inkscape:connector-curvature="0" />
    <path
       style="opacity:0.31063831;fill:#000000;fill-rule:evenodd;stroke:#000000;stroke-width:1px;stroke-linecap:butt;stroke-linejoin:miter;stroke-opacity:1"
       d="m 456.93617,215.71277 c 4.28023,5.76447 3.23367,37.69639 -3.54965,39.69149 l 3.54965,-39.69149 z"
       id="path3165"
       sodipodi:nodetypes="ccc"
       inkscape:connector-curvature="0" />
    <path
       style="opacity:0.24255317;fill:#ffffff;fill-rule:evenodd;stroke:none"
       d="m 484.36525,188.92908 -18.39362,42.59574 c 5.40687,-21.44195 11.25511,-31.04819 18.39362,-42.59574 z"
       id="path3167"
       sodipodi:nodetypes="ccc"
       inkscape:connector-curvature="0" />
    <path
       style="opacity:0.42127662;fill:#000000;fill-rule:evenodd;stroke:#000000;stroke-width:1px;stroke-linecap:butt;stroke-linejoin:miter;stroke-opacity:1"
       d="m 429.89083,280.11445 c -25.74527,10.92798 -52.97102,2.60958 -79.86295,-1.36907 26.62098,2.92048 53.24197,6.67401 79.86295,1.36907 z"
       id="path3169"
       sodipodi:nodetypes="ccc"
       inkscape:connector-curvature="0" />
    <path
       style="opacity:0.31489366;fill:#000000;fill-rule:evenodd;stroke:#000000;stroke-width:1px;stroke-linecap:butt;stroke-linejoin:miter;stroke-opacity:1"
       d="m 345.92065,293.80525 c 15.42135,12.43301 31.74264,12.26684 48.37412,7.75811 -18.41741,15.75559 -34.82122,15.40237 -48.37412,-7.75811 z"
       id="path3171"
       sodipodi:nodetypes="ccc"
       inkscape:connector-curvature="0" />
  </g>
</svg>
