<?xml version="1.0" encoding="UTF-8" standalone="no"?>
<!-- Created with Inkscape (http://www.inkscape.org/) -->

<svg
   xmlns:dc="http://purl.org/dc/elements/1.1/"
   xmlns:cc="http://creativecommons.org/ns#"
   xmlns:rdf="http://www.w3.org/1999/02/22-rdf-syntax-ns#"
   xmlns:svg="http://www.w3.org/2000/svg"
   xmlns="http://www.w3.org/2000/svg"
   xmlns:sodipodi="http://sodipodi.sourceforge.net/DTD/sodipodi-0.dtd"
   xmlns:inkscape="http://www.inkscape.org/namespaces/inkscape"
   width="624.75061"
   height="230.2048"
   id="svg5549"
   version="1.1"
   inkscape:version="0.48.3.1 r9886"
   sodipodi:docname="pajaro2.svg">
  <defs
     id="defs5551">
    <inkscape:perspective
       sodipodi:type="inkscape:persp3d"
       inkscape:vp_x="0 : 240 : 1"
       inkscape:vp_y="0 : 1000 : 0"
       inkscape:vp_z="640 : 240 : 1"
       inkscape:persp3d-origin="320 : 160 : 1"
       id="perspective5557" />
    <inkscape:perspective
       id="perspective5591"
       inkscape:persp3d-origin="0.5 : 0.33333333 : 1"
       inkscape:vp_z="1 : 0.5 : 1"
       inkscape:vp_y="0 : 1000 : 0"
       inkscape:vp_x="0 : 0.5 : 1"
       sodipodi:type="inkscape:persp3d" />
    <inkscape:perspective
       id="perspective2840"
       inkscape:persp3d-origin="0.5 : 0.33333333 : 1"
       inkscape:vp_z="1 : 0.5 : 1"
       inkscape:vp_y="0 : 1000 : 0"
       inkscape:vp_x="0 : 0.5 : 1"
       sodipodi:type="inkscape:persp3d" />
    <inkscape:perspective
       id="perspective3652"
       inkscape:persp3d-origin="0.5 : 0.33333333 : 1"
       inkscape:vp_z="1 : 0.5 : 1"
       inkscape:vp_y="0 : 1000 : 0"
       inkscape:vp_x="0 : 0.5 : 1"
       sodipodi:type="inkscape:persp3d" />
    <inkscape:perspective
       id="perspective3674"
       inkscape:persp3d-origin="0.5 : 0.33333333 : 1"
       inkscape:vp_z="1 : 0.5 : 1"
       inkscape:vp_y="0 : 1000 : 0"
       inkscape:vp_x="0 : 0.5 : 1"
       sodipodi:type="inkscape:persp3d" />
  </defs>
  <sodipodi:namedview
     id="base"
     pagecolor="#ffffff"
     bordercolor="#666666"
     borderopacity="1.0"
     inkscape:pageopacity="0.0"
     inkscape:pageshadow="2"
     inkscape:zoom="0.38736264"
     inkscape:cx="409.56021"
     inkscape:cy="87.592959"
     inkscape:current-layer="g3687"
     inkscape:document-units="px"
     showgrid="false"
     inkscape:window-width="1022"
     inkscape:window-height="623"
     inkscape:window-x="0"
     inkscape:window-y="48"
     inkscape:window-maximized="0"
     fit-margin-top="0"
     fit-margin-left="0"
     fit-margin-right="0"
     fit-margin-bottom="0" />
  <metadata
     id="metadata5554">
    <rdf:RDF>
      <cc:Work
         rdf:about="">
        <dc:format>image/svg+xml</dc:format>
        <dc:type
           rdf:resource="http://purl.org/dc/dcmitype/StillImage" />
        <dc:title></dc:title>
      </cc:Work>
    </rdf:RDF>
  </metadata>
  <g
     id="layer1"
     inkscape:label="Layer 1"
     inkscape:groupmode="layer"
     transform="translate(-21.406864,-156.1183)">
    <g
       id="g3687">
      <g
         id="g3008"
         transform="matrix(0.98478751,0.17376293,-0.17376293,0.98478751,48.190768,-51.605225)">
        <path
           sodipodi:type="arc"
           style="fill:#000000;fill-opacity:1;fill-rule:evenodd;stroke:none;stroke-width:5;marker:none;visibility:visible;display:inline;overflow:visible;enable-background:accumulate"
           id="path2383"
           sodipodi:cx="316.17773"
           sodipodi:cy="403.33917"
           sodipodi:rx="63.63961"
           sodipodi:ry="60.818115"
           d="m 379.81734,403.33917 c 0,33.58892 -28.49242,60.81812 -63.63961,60.81812 -35.14718,0 -63.63961,-27.2292 -63.63961,-60.81812 0,-33.58892 28.49243,-60.81811 63.63961,-60.81811 35.14719,0 63.63961,27.22919 63.63961,60.81811 z"
           transform="matrix(1.849465,0,0,1.849465,-248.29209,-475.0395)" />
        <path
           transform="matrix(1.723757,0,0,1.723757,-208.54609,-424.33662)"
           d="m 379.81734,403.33917 c 0,33.58892 -28.49242,60.81812 -63.63961,60.81812 -35.14718,0 -63.63961,-27.2292 -63.63961,-60.81812 0,-33.58892 28.49243,-60.81811 63.63961,-60.81811 35.14719,0 63.63961,27.22919 63.63961,60.81811 z"
           sodipodi:ry="60.818115"
           sodipodi:rx="63.63961"
           sodipodi:cy="403.33917"
           sodipodi:cx="316.17773"
           id="path2383-3"
           style="opacity:0.15021458;color:#000000;fill:#ffffff;fill-opacity:1;fill-rule:nonzero;stroke:none;stroke-width:5;marker:none;visibility:visible;display:inline;overflow:visible;enable-background:accumulate"
           sodipodi:type="arc" />
        <path
           transform="matrix(1.658897,0,0,1.5997305,-188.03886,-362.69484)"
           d="m 379.81734,403.33917 c 0,33.58892 -28.49242,60.81812 -63.63961,60.81812 -35.14718,0 -63.63961,-27.2292 -63.63961,-60.81812 0,-33.58892 28.49243,-60.81811 63.63961,-60.81811 35.14719,0 63.63961,27.22919 63.63961,60.81811 z"
           sodipodi:ry="60.818115"
           sodipodi:rx="63.63961"
           sodipodi:cy="403.33917"
           sodipodi:cx="316.17773"
           id="path2383-3-6"
           style="fill:#000000;fill-opacity:1;fill-rule:evenodd;stroke:none;stroke-width:5;marker:none;visibility:visible;display:inline;overflow:visible;enable-background:accumulate"
           sodipodi:type="arc" />
        <path
           sodipodi:type="arc"
           style="fill:#e6e6e6;fill-opacity:1;fill-rule:evenodd;stroke:#000000;stroke-width:5;stroke-linecap:butt;stroke-linejoin:miter;stroke-miterlimit:4;stroke-opacity:1;stroke-dasharray:none;stroke-dashoffset:0;marker:none;visibility:visible;display:inline;overflow:visible;enable-background:accumulate"
           id="path3155"
           sodipodi:cx="340.92648"
           sodipodi:cy="390.96481"
           sodipodi:rx="20.203051"
           sodipodi:ry="25.001276"
           d="m 361.12953,390.96481 c 0,13.80783 -9.04521,25.00128 -20.20305,25.00128 -11.15783,0 -20.20305,-11.19345 -20.20305,-25.00128 0,-13.80782 9.04522,-25.00127 20.20305,-25.00127 11.15784,0 20.20305,11.19345 20.20305,25.00127 z"
           transform="matrix(2.7973158,0,0,2.1110054,-569.10423,-609.98686)" />
        <path
           sodipodi:type="arc"
           style="color:#000000;fill:#e6e6e6;fill-opacity:1;fill-rule:evenodd;stroke:#000000;stroke-width:6.38582802;stroke-linecap:butt;stroke-linejoin:miter;stroke-miterlimit:4;stroke-opacity:1;stroke-dasharray:none;stroke-dashoffset:0;marker:none;visibility:visible;display:inline;overflow:visible;enable-background:accumulate"
           id="path3170"
           sodipodi:cx="340.92648"
           sodipodi:cy="390.96481"
           sodipodi:rx="20.203051"
           sodipodi:ry="25.001276"
           d="m 361.12953,390.96481 c 0,13.80783 -9.04521,25.00128 -20.20305,25.00128 -11.15783,0 -20.20305,-11.19345 -20.20305,-25.00128 0,-13.80782 9.04522,-25.00127 20.20305,-25.00127 11.15784,0 20.20305,11.19345 20.20305,25.00127 z"
           transform="matrix(2.2846154,0,0,1.5846135,-500.8009,-392.04252)" />
        <path
           style="fill:#ffff00;fill-opacity:1;fill-rule:evenodd;stroke:#000000;stroke-width:12.15025616;stroke-linecap:butt;stroke-linejoin:miter;stroke-miterlimit:4;stroke-opacity:1;stroke-dasharray:none;stroke-dashoffset:0;marker:none;visibility:visible;display:inline;overflow:visible;enable-background:accumulate"
           d="m 327.90814,240.05224 -47.12113,29.72355 50.86028,50.86028 46.89715,-54.16289 -50.6363,-26.42094 z"
           id="path3174"
           sodipodi:nodetypes="ccccc"
           inkscape:connector-curvature="0" />
        <path
           sodipodi:type="arc"
           style="fill:#000000;fill-opacity:1;fill-rule:evenodd;stroke:#000000;stroke-width:6.56960583;stroke-linecap:butt;stroke-linejoin:miter;stroke-miterlimit:4;stroke-opacity:1;stroke-dasharray:none;stroke-dashoffset:0;marker:none;visibility:visible;display:inline;overflow:visible;enable-background:accumulate"
           id="path3176"
           sodipodi:cx="281.42856"
           sodipodi:cy="377.54074"
           sodipodi:rx="8.2142859"
           sodipodi:ry="9.4642859"
           d="m 289.64284,377.54074 c 0,5.22698 -3.67766,9.46429 -8.21428,9.46429 -4.53663,0 -8.21429,-4.23731 -8.21429,-9.46429 0,-5.22698 3.67766,-9.46428 8.21429,-9.46428 4.53662,0 8.21428,4.2373 8.21428,9.46428 z"
           transform="matrix(1.849465,0,0,1.849465,-240.36581,-467.77374)" />
        <path
           sodipodi:type="arc"
           style="fill:#000000;fill-opacity:1;fill-rule:evenodd;stroke:#000000;stroke-width:6.56960583;stroke-linecap:butt;stroke-linejoin:miter;stroke-miterlimit:4;stroke-opacity:1;stroke-dasharray:none;stroke-dashoffset:0;marker:none;visibility:visible;display:inline;overflow:visible;enable-background:accumulate"
           id="path3178"
           sodipodi:cx="281.42856"
           sodipodi:cy="377.54074"
           sodipodi:rx="8.2142859"
           sodipodi:ry="9.4642859"
           d="m 289.64284,377.54074 c 0,5.22698 -3.67766,9.46429 -8.21428,9.46429 -4.53663,0 -8.21429,-4.23731 -8.21429,-9.46429 0,-5.22698 3.67766,-9.46428 8.21429,-9.46428 4.53662,0 8.21428,4.2373 8.21428,9.46428 z"
           transform="matrix(1.849465,0,0,1.849465,-141.94783,-474.04869)" />
        <path
           sodipodi:type="arc"
           style="color:#000000;fill:#e6e6e6;fill-opacity:1;fill-rule:evenodd;stroke:none;stroke-width:6.56960583;marker:none;visibility:visible;display:inline;overflow:visible;enable-background:accumulate"
           id="path3182"
           sodipodi:cx="291.25"
           sodipodi:cy="373.16574"
           sodipodi:rx="5.8928571"
           sodipodi:ry="6.6964288"
           d="m 297.14286,373.16574 c 0,3.69834 -2.63832,6.69643 -5.89286,6.69643 -3.25454,0 -5.89286,-2.99809 -5.89286,-6.69643 0,-3.69833 2.63832,-6.69643 5.89286,-6.69643 3.25454,0 5.89286,2.9981 5.89286,6.69643 z"
           transform="matrix(1.849465,0,0,1.849465,-247.6012,-460.87632)" />
        <path
           style="fill:#000000;fill-rule:evenodd;stroke:#000000;stroke-width:1.84946501px;stroke-linecap:butt;stroke-linejoin:miter;stroke-opacity:1"
           d="m 155.82041,253.54342 -143.221178,-33.31959 21.440644,55.64502 80.992344,20.87855 -48.382707,3.51077 34.725537,39.40907 53.53778,-8.87681 -34.11623,27.17904 39.42643,20.44171 45.91809,-26.87128 -15.18113,39.32095 22.80953,6.25711 31.84812,-48.11527 -10.91314,-14.64216 -8.67915,3.19648 c -21.77488,-30.96546 -24.5665,-61.9309 -17.85879,-92.89635 l -52.34615,8.88276 z"
           id="path3214"
           sodipodi:nodetypes="ccccccccccccccccc"
           inkscape:connector-curvature="0" />
        <path
           sodipodi:type="arc"
           style="color:#000000;fill:#e6e6e6;fill-opacity:1;fill-rule:evenodd;stroke:none;stroke-width:6.56960583;marker:none;visibility:visible;display:inline;overflow:visible;enable-background:accumulate"
           id="path3182-2"
           sodipodi:cx="291.25"
           sodipodi:cy="373.16574"
           sodipodi:rx="5.8928571"
           sodipodi:ry="6.6964288"
           d="m 297.14286,373.16574 c 0,3.69834 -2.63832,6.69643 -5.89286,6.69643 -3.25454,0 -5.89286,-2.99809 -5.89286,-6.69643 0,-3.69833 2.63832,-6.69643 5.89286,-6.69643 3.25454,0 5.89286,2.9981 5.89286,6.69643 z"
           transform="matrix(1.849465,0,0,1.849465,-148.91464,-468.35857)" />
        <path
           style="opacity:0.4506438;fill:#000000;stroke:#000000;stroke-width:1.84946501px;stroke-linecap:butt;stroke-linejoin:miter;stroke-opacity:1"
           d="m 327.90766,248.05212 3.45443,64.25248 -41.45323,-42.14411 37.9988,-22.10837 z"
           id="path5013"
           inkscape:connector-curvature="0" />
        <path
           style="opacity:0.15021458;fill:#ffffff;stroke:#000000;stroke-width:1.84946501px;stroke-linecap:butt;stroke-linejoin:miter;stroke-opacity:1"
           d="m 25.990043,229.05273 10.36331,24.87192 117.796217,17.96306 41.45322,-14.85407 3.10899,-6.56342 -45.59854,10.01787 -127.123197,-31.43536 z"
           id="path5525"
           sodipodi:nodetypes="ccccccc"
           inkscape:connector-curvature="0" />
        <g
           id="g5559"
           transform="matrix(1.8411323,0.1753647,-0.1753647,1.8411323,-181.68916,-538.56168)">
          <path
             sodipodi:nodetypes="ccccccccccccccccc"
             id="path3214-6"
             d="m 406.07332,354.86623 60.53994,-51.53951 3.50461,32.05223 -33.7305,30.12408 24.115,-10.31676 -6.90573,27.54805 -27.92288,9.01774 23.13303,4.59336 -13.8698,19.60201 -28.72653,-1.51755 17.04856,15.12423 -9.4058,8.66492 -27.23752,-15.21424 1.61028,-9.74186 4.96266,-0.61758 c 2.77878,-20.27861 -3.56238,-35.8476 -14.46719,-49.05988 l 27.35187,-8.71924 z"
             style="fill:#000000;fill-rule:evenodd;stroke:#000000;stroke-width:1px;stroke-linecap:butt;stroke-linejoin:miter;stroke-opacity:1"
             inkscape:connector-curvature="0" />
          <path
             sodipodi:nodetypes="ccccccc"
             id="path5525-2"
             d="m 463.04432,310.24551 1.63088,14.47729 -50.96511,39.41533 -23.494,3.86116 -3.19264,-2.28626 24.18382,-7.23542 51.83705,-48.2321 z"
             style="opacity:0.15021458;fill:#ffffff;stroke:none"
             inkscape:connector-curvature="0" />
        </g>
      </g>
    </g>
  </g>
</svg>
