<?xml version="1.0" encoding="UTF-8" standalone="no"?>
<!-- Created with Inkscape (http://www.inkscape.org/) -->

<svg
   xmlns:dc="http://purl.org/dc/elements/1.1/"
   xmlns:cc="http://creativecommons.org/ns#"
   xmlns:rdf="http://www.w3.org/1999/02/22-rdf-syntax-ns#"
   xmlns:svg="http://www.w3.org/2000/svg"
   xmlns="http://www.w3.org/2000/svg"
   xmlns:xlink="http://www.w3.org/1999/xlink"
   xmlns:sodipodi="http://sodipodi.sourceforge.net/DTD/sodipodi-0.dtd"
   xmlns:inkscape="http://www.inkscape.org/namespaces/inkscape"
   width="415.88657"
   height="338.50555"
   id="svg8280"
   version="1.1"
   inkscape:version="0.48.3.1 r9886"
   sodipodi:docname="pajaro3.svg"
   inkscape:export-filename="/home/vladimir/Documentos/mis_sitios/pagina_mirror/animales/pajaro3.png"
   inkscape:export-xdpi="90"
   inkscape:export-ydpi="90">
  <defs
     id="defs8282">
    <inkscape:perspective
       sodipodi:type="inkscape:persp3d"
       inkscape:vp_x="0 : 526.18109 : 1"
       inkscape:vp_y="0 : 1000 : 0"
       inkscape:vp_z="744.09448 : 526.18109 : 1"
       inkscape:persp3d-origin="372.04724 : 350.78739 : 1"
       id="perspective8288" />
    <inkscape:perspective
       id="perspective8218"
       inkscape:persp3d-origin="0.5 : 0.33333333 : 1"
       inkscape:vp_z="1 : 0.5 : 1"
       inkscape:vp_y="0 : 1000 : 0"
       inkscape:vp_x="0 : 0.5 : 1"
       sodipodi:type="inkscape:persp3d" />
    <linearGradient
       inkscape:collect="always"
       xlink:href="#linearGradient4761"
       id="linearGradient5242"
       gradientUnits="userSpaceOnUse"
       x1="-386.25708"
       y1="419.04666"
       x2="-347.36621"
       y2="419.04666" />
    <linearGradient
       inkscape:collect="always"
       id="linearGradient4761">
      <stop
         style="stop-color:#ffffff;stop-opacity:1;"
         offset="0"
         id="stop4763" />
      <stop
         style="stop-color:#ffffff;stop-opacity:0;"
         offset="1"
         id="stop4765" />
    </linearGradient>
    <linearGradient
       inkscape:collect="always"
       xlink:href="#linearGradient4816"
       id="linearGradient5239"
       gradientUnits="userSpaceOnUse"
       x1="-306.53079"
       y1="483.22906"
       x2="-268.17026"
       y2="483.2291" />
    <linearGradient
       inkscape:collect="always"
       id="linearGradient4816">
      <stop
         style="stop-color:#ffffff;stop-opacity:1;"
         offset="0"
         id="stop4818" />
      <stop
         style="stop-color:#ffffff;stop-opacity:0;"
         offset="1"
         id="stop4820" />
    </linearGradient>
  </defs>
  <sodipodi:namedview
     id="base"
     pagecolor="#ffffff"
     bordercolor="#666666"
     borderopacity="1.0"
     inkscape:pageopacity="0.0"
     inkscape:pageshadow="2"
     inkscape:zoom="0.35"
     inkscape:cx="240.80043"
     inkscape:cy="163.53851"
     inkscape:document-units="px"
     inkscape:current-layer="layer1"
     showgrid="false"
     inkscape:window-width="1264"
     inkscape:window-height="715"
     inkscape:window-x="0"
     inkscape:window-y="48"
     inkscape:window-maximized="1"
     fit-margin-top="0"
     fit-margin-left="0"
     fit-margin-right="0"
     fit-margin-bottom="0" />
  <metadata
     id="metadata8285">
    <rdf:RDF>
      <cc:Work
         rdf:about="">
        <dc:format>image/svg+xml</dc:format>
        <dc:type
           rdf:resource="http://purl.org/dc/dcmitype/StillImage" />
        <dc:title></dc:title>
      </cc:Work>
    </rdf:RDF>
  </metadata>
  <g
     inkscape:label="Capa 1"
     inkscape:groupmode="layer"
     id="layer1"
     transform="translate(-109.19957,-357.39512)">
    <g
       transform="matrix(1.5,0,0,1.5,698.14285,-202.89537)"
       id="g5288">
      <path
         sodipodi:nodetypes="cccc"
         id="path7047-2-8"
         d="m -369.82318,534.82218 110.66221,63.28605 c 14.37685,3.88011 29.99255,-12.01125 16.61701,-29.87526 l -128.1631,-39.06765"
         style="fill:#784421;stroke:#000000;stroke-width:1px;stroke-linecap:butt;stroke-linejoin:miter;stroke-opacity:1"
         inkscape:connector-curvature="0" />
      <path
         sodipodi:nodetypes="ccccccc"
         id="path3378"
         d="m -370.25,532.03125 0.4375,2.78125 110.65625,63.28125 c 4.6644,1.25886 9.45092,0.45185 13.34375,-1.84375 -7.74717,3.63827 -9.68103,0.30057 -13,-1.375 -6.83858,-5.02014 -3.67531,-11.03785 -1.40625,-16.96875 L -370.25,532.03125 z"
         style="opacity:0.28399999;fill:#000000;stroke:none"
         inkscape:connector-curvature="0" />
      <path
         sodipodi:nodetypes="cccccccc"
         id="path4241"
         d="m -370.1875,532.5625 0.15625,0.96875 6.21875,4.71875 104.65625,59.84375 c 2.28014,0.61538 4.59063,0.71451 6.8125,0.40625 L -252.5,597.875 c -7.90973,-2.44676 -9.08389,-7.1387 -11.25,-11.5 -37.62535,-15.25477 -71.18716,-35.58897 -106.4375,-53.8125 z"
         style="opacity:0.28399999;color:#000000;fill:#000000;fill-opacity:1;fill-rule:nonzero;stroke:none;stroke-width:1px;marker:none;visibility:visible;display:inline;overflow:visible;enable-background:accumulate"
         inkscape:connector-curvature="0" />
      <g
         id="g6990-1-2-4"
         transform="translate(-705.9242,-141.18735)">
        <path
           style="color:#000000;fill:#d4aa00;fill-opacity:1;fill-rule:nonzero;stroke:#000000;stroke-width:1px;stroke-linecap:butt;stroke-linejoin:miter;stroke-miterlimit:4;stroke-opacity:1;stroke-dasharray:none;stroke-dashoffset:0;marker:none;visibility:visible;display:inline;overflow:visible;enable-background:accumulate"
           d="m 344.61589,688.11786 c 1.93865,5.00895 7.25988,7.34559 15.75368,6.03401 -5.41487,-1.84821 -5.27921,-1.91855 -2.75368,-9.78401 l -13,3.75 z"
           id="path6944-9-8-0-8"
           sodipodi:nodetypes="cccc"
           inkscape:connector-curvature="0" />
        <path
           style="color:#000000;fill:#d4aa00;fill-opacity:1;fill-rule:nonzero;stroke:#000000;stroke-width:1px;stroke-linecap:butt;stroke-linejoin:miter;stroke-miterlimit:4;stroke-opacity:1;stroke-dasharray:none;stroke-dashoffset:0;marker:none;visibility:visible;display:inline;overflow:visible;enable-background:accumulate"
           d="m 356.65533,693.94797 c 1.93865,5.00895 7.25988,7.34559 15.75368,6.03401 -5.41487,-1.84821 -5.27921,-1.91855 -2.75368,-9.78401 l -13,3.75 z"
           id="path6944-7-2-1"
           sodipodi:nodetypes="cccc"
           inkscape:connector-curvature="0" />
        <path
           style="color:#000000;fill:#ffccaa;fill-opacity:1;fill-rule:nonzero;stroke:#000000;stroke-width:1px;stroke-linecap:butt;stroke-linejoin:miter;stroke-miterlimit:4;stroke-opacity:1;stroke-dasharray:none;stroke-dashoffset:0;marker:none;visibility:visible;display:inline;overflow:visible;enable-background:accumulate"
           d="m 356.42857,676.29075 c 7.18186,-9.79679 12.33736,-3.08943 14.82144,0.35715 1.50914,6.48809 0.63243,12.97619 -2.14286,19.46428 -0.10598,3.491 -12.89229,6.16332 -15.89286,-3.39286 l -0.29464,-1.26785 0.29464,0.19642 c -2.85875,-0.64723 -7.53965,1.49455 -10.53572,-4.64285 -1.73903,-3.68834 -1.0066,-9.75287 5.35714,-15.00001 0.61324,-0.75446 9.38994,-3.93377 8.39286,4.28572 z"
           id="path6890-4-4-0"
           sodipodi:nodetypes="ccccccccc"
           inkscape:connector-curvature="0" />
        <path
           style="fill:#000000;stroke:none"
           d="m 352.5,691.61218 c -1.42636,-4.67689 -0.23971,-9.31089 2.5,-12.875 -1.83174,3.85222 -2.96724,7.87523 -1.75,13.1875 l -0.75,-0.3125 z"
           id="path6914-1-5-3"
           sodipodi:nodetypes="cccc"
           inkscape:connector-curvature="0" />
        <path
           style="fill:#000000;stroke:none"
           d="m 363.875,688.73718 -8.375,-6.75 8.5,7.625 -0.125,-0.875 z"
           id="path6920-6-8-0"
           sodipodi:nodetypes="cccc"
           inkscape:connector-curvature="0" />
        <path
           style="fill:#000000;stroke:none"
           d="m 356.74625,686.57663 5.91906,3.00115 -6.44296,-2.84977 0.5239,-0.15138 z"
           id="path6920-4-3-4-4"
           sodipodi:nodetypes="cccc"
           inkscape:connector-curvature="0" />
      </g>
      <g
         transform="translate(-675.82364,-127.92417)"
         id="g6990-4-4">
        <path
           style="color:#000000;fill:#d4aa00;fill-opacity:1;fill-rule:nonzero;stroke:#000000;stroke-width:1px;stroke-linecap:butt;stroke-linejoin:miter;stroke-miterlimit:4;stroke-opacity:1;stroke-dasharray:none;stroke-dashoffset:0;marker:none;visibility:visible;display:inline;overflow:visible;enable-background:accumulate"
           d="m 344.61589,688.11786 c 1.93865,5.00895 7.25988,7.34559 15.75368,6.03401 -5.41487,-1.84821 -5.27921,-1.91855 -2.75368,-9.78401 l -13,3.75 z"
           id="path6944-9-2-4"
           sodipodi:nodetypes="cccc"
           inkscape:connector-curvature="0" />
        <path
           style="color:#000000;fill:#d4aa00;fill-opacity:1;fill-rule:nonzero;stroke:#000000;stroke-width:1px;stroke-linecap:butt;stroke-linejoin:miter;stroke-miterlimit:4;stroke-opacity:1;stroke-dasharray:none;stroke-dashoffset:0;marker:none;visibility:visible;display:inline;overflow:visible;enable-background:accumulate"
           d="m 356.65533,693.94797 c 1.93865,5.00895 7.25988,7.34559 15.75368,6.03401 -5.41487,-1.84821 -5.27921,-1.91855 -2.75368,-9.78401 l -13,3.75 z"
           id="path6944-5-4"
           sodipodi:nodetypes="cccc"
           inkscape:connector-curvature="0" />
        <path
           style="color:#000000;fill:#ffccaa;fill-opacity:1;fill-rule:nonzero;stroke:#000000;stroke-width:1px;stroke-linecap:butt;stroke-linejoin:miter;stroke-miterlimit:4;stroke-opacity:1;stroke-dasharray:none;stroke-dashoffset:0;marker:none;visibility:visible;display:inline;overflow:visible;enable-background:accumulate"
           d="m 356.42857,676.29075 c 7.18186,-9.79679 12.33736,-3.08943 14.82144,0.35715 1.50914,6.48809 0.63243,12.97619 -2.14286,19.46428 -0.10598,3.491 -12.89229,6.16332 -15.89286,-3.39286 l -0.29464,-1.26785 0.29464,0.19642 c -2.85875,-0.64723 -7.53965,1.49455 -10.53572,-4.64285 -1.73903,-3.68834 -1.0066,-9.75287 5.35714,-15.00001 0.61324,-0.75446 9.38994,-3.93377 8.39286,4.28572 z"
           id="path6890-42-7"
           sodipodi:nodetypes="ccccccccc"
           inkscape:connector-curvature="0" />
        <path
           style="fill:#000000;stroke:none"
           d="m 352.5,691.61218 c -1.42636,-4.67689 -0.23971,-9.31089 2.5,-12.875 -1.83174,3.85222 -2.96724,7.87523 -1.75,13.1875 l -0.75,-0.3125 z"
           id="path6914-7-6"
           sodipodi:nodetypes="cccc"
           inkscape:connector-curvature="0" />
        <path
           style="fill:#000000;stroke:none"
           d="m 363.875,688.73718 -8.375,-6.75 8.5,7.625 -0.125,-0.875 z"
           id="path6920-5-3"
           sodipodi:nodetypes="cccc"
           inkscape:connector-curvature="0" />
        <path
           style="fill:#000000;stroke:none"
           d="m 356.74625,686.57663 5.91906,3.00115 -6.44296,-2.84977 0.5239,-0.15138 z"
           id="path6920-4-7-1"
           sodipodi:nodetypes="cccc"
           inkscape:connector-curvature="0" />
      </g>
      <path
         sodipodi:nodetypes="cccc"
         id="path7049-52-7"
         d="m -243.44864,568.68801 c -29.2899,4.3146 -22.05538,36.17636 -6.125,25.625 -16.81939,8.39679 -18.84645,-20.72569 6.375,-23.875 l -0.25,-1.75 z"
         style="fill:#000000;stroke:none"
         inkscape:connector-curvature="0" />
      <path
         sodipodi:nodetypes="cccc"
         id="path7051-2-5"
         d="m -260.57364,579.31301 -37.375,-17.625 37.875,16.5 -0.5,1.125 z"
         style="fill:#000000;stroke:none"
         inkscape:connector-curvature="0" />
      <path
         sodipodi:nodetypes="cccc"
         id="path7049-0-8-9"
         d="m -245.64825,575.44132 c 7.00069,15.27798 -10.4044,21.68367 -10.30593,10.83774 1.20211,10.6031 15.69323,2.56512 9.3955,-10.41578 l 0.91043,-0.42196 z"
         style="fill:#000000;stroke:none"
         inkscape:connector-curvature="0" />
      <path
         transform="matrix(1.0418994,0,0,1,15.109964,0)"
         d="m -297.33842,531.75482 c 0,12.39915 -14.16706,22.45064 -31.64303,22.45064 -17.47596,0 -31.64302,-10.05149 -31.64302,-22.45064 0,-12.39914 14.16706,-22.45064 31.64302,-22.45064 17.47597,0 31.64303,10.0515 31.64303,22.45064 z"
         sodipodi:ry="22.45064"
         sodipodi:rx="31.643028"
         sodipodi:cy="531.75482"
         sodipodi:cx="-328.98145"
         id="path4915"
         style="opacity:0.47600002;color:#000000;fill:#000000;fill-opacity:1;fill-rule:nonzero;stroke:none;stroke-width:1px;marker:none;visibility:visible;display:inline;overflow:visible;enable-background:accumulate"
         sodipodi:type="arc" />
      <path
         sodipodi:nodetypes="ccccc"
         id="path9519-1-2"
         d="m -368.57165,467.45992 c -34.5281,30.11809 -19.17062,46.70133 32.25,53.5 31.87708,-1.64916 20.59697,-15.43627 11,-28.75 22.50512,-4.40051 10.59072,-12.38638 2.25,-20 19.07209,-31.40454 -27.74398,-17.96414 -45.5,-4.75 z"
         style="color:#000000;fill:#aa4400;fill-opacity:1;fill-rule:nonzero;stroke:#000000;stroke-width:1px;stroke-linecap:butt;stroke-linejoin:miter;stroke-miterlimit:4;stroke-opacity:1;stroke-dasharray:none;stroke-dashoffset:0;marker:none;visibility:visible;display:inline;overflow:visible;enable-background:accumulate"
         inkscape:connector-curvature="0" />
      <path
         transform="matrix(0.96698895,0.25481832,-0.25481832,0.96698895,-532.62462,-197.36324)"
         d="m 375.71428,543.43359 c 0,18.93548 -10.39338,34.28572 -23.21428,34.28572 -12.8209,0 -23.21428,-15.35024 -23.21428,-34.28572 0,-18.93547 10.39338,-34.28571 23.21428,-34.28571 12.8209,0 23.21428,15.35024 23.21428,34.28571 z"
         sodipodi:ry="34.285713"
         sodipodi:rx="23.214285"
         sodipodi:cy="543.43359"
         sodipodi:cx="352.5"
         id="path6384-0-3-1"
         style="color:#000000;fill:#e6e6e6;fill-opacity:1;fill-rule:nonzero;stroke:#000000;stroke-width:1px;stroke-linecap:butt;stroke-linejoin:miter;stroke-miterlimit:4;stroke-opacity:1;stroke-dasharray:none;stroke-dashoffset:0;marker:none;visibility:visible;display:inline;overflow:visible;enable-background:accumulate"
         sodipodi:type="arc" />
      <path
         sodipodi:nodetypes="ccccc"
         id="path6432-5-1-7"
         d="m -300.14035,416.72362 c -4.55128,-22.04771 -18.15682,-31.62576 -42.72807,-25.66365 l 11.29168,-9.21249 c 35.52236,-13.47656 33.21346,11.41461 34.43724,30.49623 l -3.00085,4.37991 z"
         style="color:#000000;fill:#aa4400;fill-opacity:1;fill-rule:nonzero;stroke:#000000;stroke-width:1px;stroke-linecap:butt;stroke-linejoin:miter;stroke-miterlimit:4;stroke-opacity:1;stroke-dasharray:none;stroke-dashoffset:0;marker:none;visibility:visible;display:inline;overflow:visible;enable-background:accumulate"
         inkscape:connector-curvature="0" />
      <path
         sodipodi:nodetypes="ccc"
         id="path9374-8"
         d="m -379.04737,504.49447 c 30.32414,87.14465 219.25758,23.86878 121.62237,-45.25483 2.49019,-174.68231 -140.15889,-40.35473 -121.62237,45.25483 z"
         style="color:#000000;fill:#aa4400;fill-opacity:1;fill-rule:nonzero;stroke:#000000;stroke-width:1px;stroke-linecap:butt;stroke-linejoin:miter;stroke-miterlimit:4;stroke-opacity:1;stroke-dasharray:none;stroke-dashoffset:0;marker:none;visibility:visible;display:inline;overflow:visible;enable-background:accumulate"
         inkscape:connector-curvature="0" />
      <path
         id="path6384-0-1-9"
         d="m -307.875,394.4375 c -11.04381,0.39592 -22.24678,11.7284 -26.46875,27.75 -4.82511,18.3104 1.28984,35.7955 13.6875,39.0625 6.6101,1.74187 13.68501,-0.89888 19.5625,-6.53125 2.88669,-0.95284 6.2061,-2.27393 10.09375,-4.0625 l -7.8125,1.625 c 4.10075,-4.74924 7.43675,-11.01327 9.34375,-18.25 4.82511,-18.3104 -1.28984,-35.82675 -13.6875,-39.09375 -1.54971,-0.40837 -3.14106,-0.55656 -4.71875,-0.5 z"
         style="opacity:0.17600002;color:#000000;fill:#000000;fill-opacity:1;fill-rule:nonzero;stroke:none;stroke-width:1px;marker:none;visibility:visible;display:inline;overflow:visible;enable-background:accumulate"
         inkscape:connector-curvature="0" />
      <path
         sodipodi:nodetypes="cccc"
         id="path4696"
         d="m -342.08588,426.35085 -15.1118,31.12742 -2.90686,-23.0113 18.01866,-8.11612 z"
         style="opacity:0.17600002;color:#000000;fill:#000000;fill-opacity:1;fill-rule:nonzero;stroke:none;stroke-width:1px;marker:none;visibility:visible;display:inline;overflow:visible;enable-background:accumulate"
         inkscape:connector-curvature="0" />
      <path
         sodipodi:nodetypes="cccc"
         id="path9405-5"
         d="m -343.33848,412.57059 c -19.15884,-3.11529 -37.94803,-5.08058 -48.79037,17.67767 17.80742,-2.40791 29.62131,4.42398 39.95153,11.31371 6.96323,-9.37687 14.68095,-18.69984 8.83884,-28.99138 z"
         style="color:#000000;fill:#d4aa00;fill-opacity:1;fill-rule:nonzero;stroke:#000000;stroke-width:1px;stroke-linecap:butt;stroke-linejoin:miter;stroke-miterlimit:4;stroke-opacity:1;stroke-dasharray:none;stroke-dashoffset:0;marker:none;visibility:visible;display:inline;overflow:visible;enable-background:accumulate"
         inkscape:connector-curvature="0" />
      <path
         sodipodi:nodetypes="cccc"
         id="path6866-6-0-7"
         d="m -331.53104,439.9854 c 3.10538,19.47242 20.68574,17.95469 30.50414,14.92053 -14.53596,2.64163 -22.97399,-0.56845 -29.62575,-13.30544 l -0.87839,-1.61509 z"
         style="fill:#000000;stroke:none"
         inkscape:connector-curvature="0" />
      <path
         sodipodi:nodetypes="cccc"
         id="path6866-0-4"
         d="m -331.91422,444.92851 c 8.86084,17.61545 25.15439,10.84103 33.59145,4.97391 -13.05171,6.9228 -22.06577,6.42101 -32.26488,-3.701 l -1.32657,-1.27291 z"
         style="fill:#000000;stroke:none"
         inkscape:connector-curvature="0" />
      <path
         transform="matrix(0.96698895,0.25481832,-0.25481832,0.96698895,-513.60654,-193.55935)"
         d="m 375.71428,543.43359 c 0,18.93548 -10.39338,34.28572 -23.21428,34.28572 -12.8209,0 -23.21428,-15.35024 -23.21428,-34.28572 0,-18.93547 10.39338,-34.28571 23.21428,-34.28571 12.8209,0 23.21428,15.35024 23.21428,34.28571 z"
         sodipodi:ry="34.285713"
         sodipodi:rx="23.214285"
         sodipodi:cy="543.43359"
         sodipodi:cx="352.5"
         id="path6384-0-1"
         style="color:#000000;fill:#e6e6e6;fill-opacity:1;fill-rule:nonzero;stroke:#000000;stroke-width:1px;stroke-linecap:butt;stroke-linejoin:miter;stroke-miterlimit:4;stroke-opacity:1;stroke-dasharray:none;stroke-dashoffset:0;marker:none;visibility:visible;display:inline;overflow:visible;enable-background:accumulate"
         sodipodi:type="arc" />
      <path
         id="path6432-5-9-2-3"
         d="m -307.1875,388.09375 c -3.51765,0.12611 -7.05578,1.35667 -10.375,3.5 -1.86704,0.5338 -3.8439,1.17447 -5.9375,1.96875 l -5.03125,4.09375 c 1.72789,-0.40674 3.41239,-0.71628 5.03125,-0.96875 -4.46552,4.84119 -8.12579,11.45102 -10.15625,19.15625 -4.82511,18.3104 1.28984,35.7955 13.6875,39.0625 12.39766,3.267 26.36239,-8.90835 31.1875,-27.21875 0.7511,-2.8503 1.23027,-5.67644 1.46875,-8.4375 0.37792,1.3406 0.70083,2.73825 1,4.1875 L -285,421.53125 c -0.74273,-10.50805 -2.18573,-22.13351 -9.375,-27.96875 -0.0163,-0.0132 -0.0149,-0.0493 -0.0312,-0.0625 -2.24131,-2.38768 -4.96308,-4.0895 -8.0625,-4.90625 -1.54971,-0.40837 -3.14106,-0.55656 -4.71875,-0.5 z m -1.4375,1.15625 c 1.36122,-0.0487 2.72542,0.11713 4.0625,0.46875 0.16713,0.0439 0.33551,0.10637 0.5,0.15625 -0.87947,-0.0751 -1.81586,-0.11337 -2.78125,-0.0937 -2.48257,0.0505 -5.24253,0.44106 -8.34375,1.1875 2.14846,-1.02612 4.3525,-1.63968 6.5625,-1.71875 z m -7.375,6.78125 c 11.3408,-0.0424 19.40805,4.55545 24.53125,13.21875 0.40595,4.40155 0.0389,9.21255 -1.25,14.09375 -4.16307,15.7658 -16.20963,26.28173 -26.90625,23.46875 -10.69662,-2.81298 -16.00682,-17.89045 -11.84375,-33.65625 1.76501,-6.68423 4.94973,-12.41419 8.84375,-16.59375 2.32103,-0.32633 4.52957,-0.52341 6.625,-0.53125 z"
         style="opacity:0.17600002;color:#000000;fill:#000000;fill-opacity:1;fill-rule:nonzero;stroke:none;stroke-width:1px;marker:none;visibility:visible;display:inline;overflow:visible;enable-background:accumulate"
         inkscape:connector-curvature="0" />
      <path
         transform="matrix(0.96698895,0.25481832,-0.25481832,0.96698895,-505.79176,-188.17601)"
         d="m 354.99999,540.2193 c 0,9.07325 -4.79695,16.42857 -10.71428,16.42857 -5.91734,0 -10.71429,-7.35532 -10.71429,-16.42857 0,-9.07325 4.79695,-16.42857 10.71429,-16.42857 5.91733,0 10.71428,7.35532 10.71428,16.42857 z"
         sodipodi:ry="16.428572"
         sodipodi:rx="10.714286"
         sodipodi:cy="540.2193"
         sodipodi:cx="344.28571"
         id="path6386-4-8"
         style="color:#000000;fill:#e6e6e6;fill-opacity:1;fill-rule:nonzero;stroke:#000000;stroke-width:1px;stroke-linecap:butt;stroke-linejoin:miter;stroke-miterlimit:4;stroke-opacity:1;stroke-dasharray:none;stroke-dashoffset:0;marker:none;visibility:visible;display:inline;overflow:visible;enable-background:accumulate"
         sodipodi:type="arc" />
      <path
         id="path6386-9-7-5"
         d="m -307.82829,411.6915 c -3.69394,-0.97342 -7.88517,2.82015 -9.37774,8.4842 -0.83958,3.18603 -0.65966,6.2815 0.33114,8.55427 -0.39474,-1.6704 -0.39571,-3.64909 0.13233,-5.65289 1.25587,-4.7658 4.923,-7.94532 8.17003,-7.08967 3.24703,0.85565 4.87102,5.42947 3.61515,10.19527 -0.12066,0.45786 -0.27861,0.87947 -0.44098,1.30573 0.64801,-1.12521 1.18149,-2.39874 1.54891,-3.79302 1.49257,-5.66405 -0.28484,-11.03046 -3.97879,-12.00388 z"
         style="color:#000000;fill:#000000;fill-opacity:1;fill-rule:nonzero;stroke:#000000;stroke-width:0.64556962px;stroke-linecap:butt;stroke-linejoin:miter;stroke-miterlimit:4;stroke-opacity:1;stroke-dasharray:none;stroke-dashoffset:0;marker:none;visibility:visible;display:inline;overflow:visible;enable-background:accumulate"
         inkscape:connector-curvature="0" />
      <path
         sodipodi:nodetypes="ccccccccc"
         id="path9374-8-1"
         d="m -260,419.8125 c 0.60863,7.18512 0.87491,15.14249 0.75,23.9375 0.57509,0.40869 1.13347,0.81053 1.6875,1.21875 -0.33514,-9.43486 -1.18678,-17.79514 -2.4375,-25.15625 z m -111.28125,25.25 c -8.16464,19.64503 -11.83611,40.71041 -7.78125,59.4375 22.07377,77.34835 195.69108,34.40032 136.71875,-31.375 -5.22415,43.74073 -108.98206,77.36713 -131.1875,13.3125 -2.81742,-13.06125 -1.64078,-27.33723 2.25,-41.375 z"
         style="opacity:0.17600002;color:#000000;fill:#000000;fill-opacity:1;fill-rule:nonzero;stroke:none;stroke-width:1px;marker:none;visibility:visible;display:inline;overflow:visible;enable-background:accumulate"
         inkscape:connector-curvature="0" />
      <path
         sodipodi:nodetypes="ccccc"
         id="path6432-5-9"
         d="m -284.95563,419.87552 c -4.55128,-22.04771 -18.15682,-31.62576 -42.72807,-25.66365 l 11.29168,-9.21249 c 35.52236,-13.47656 33.21346,11.41461 34.43724,30.49623 l -3.00085,4.37991 z"
         style="color:#000000;fill:#aa4400;fill-opacity:1;fill-rule:nonzero;stroke:#000000;stroke-width:1px;stroke-linecap:butt;stroke-linejoin:miter;stroke-miterlimit:4;stroke-opacity:1;stroke-dasharray:none;stroke-dashoffset:0;marker:none;visibility:visible;display:inline;overflow:visible;enable-background:accumulate"
         inkscape:connector-curvature="0" />
      <path
         id="path9519-7-9"
         d="m -249.3125,470.46875 c -11.60006,0.39007 -29.25461,7.47999 -38.6875,14.5 -32.92832,28.72264 -20.44789,45.11272 25.375,52.46875 10.26557,-4.54855 18.97017,-10.5378 24.84375,-17.59375 -1.92725,-3.26841 -4.50375,-6.70535 -6.96875,-10.125 22.50512,-4.40051 10.59072,-12.38638 2.25,-20 3.26698,-5.37948 4.62242,-9.4632 4.5,-12.4375 -0.005,-0.007 0.005,-0.0245 0,-0.0312 -1.55646,-2.05821 -3.36959,-4.12967 -5.40625,-6.21875 -1.68409,-0.46905 -3.67358,-0.63758 -5.90625,-0.5625 z"
         style="opacity:0.11199999;color:#000000;fill:#000000;fill-opacity:1;fill-rule:nonzero;stroke:#000000;stroke-width:1px;stroke-linecap:butt;stroke-linejoin:miter;stroke-miterlimit:4;stroke-opacity:1;stroke-dasharray:none;stroke-dashoffset:0;marker:none;visibility:visible;display:inline;overflow:visible;enable-background:accumulate"
         inkscape:connector-curvature="0" />
      <path
         sodipodi:nodetypes="ccccc"
         id="path9519-7"
         d="m -291.98785,478.9545 c -34.5281,30.11809 -19.17062,46.70133 32.25,53.5 31.87708,-1.64916 20.59697,-15.43627 11,-28.75 22.50512,-4.40051 10.59072,-12.38638 2.25,-20 19.07209,-31.40454 -27.74398,-17.96414 -45.5,-4.75 z"
         style="color:#000000;fill:#aa4400;fill-opacity:1;fill-rule:nonzero;stroke:#000000;stroke-width:1px;stroke-linecap:butt;stroke-linejoin:miter;stroke-miterlimit:4;stroke-opacity:1;stroke-dasharray:none;stroke-dashoffset:0;marker:none;visibility:visible;display:inline;overflow:visible;enable-background:accumulate"
         inkscape:connector-curvature="0" />
      <path
         id="path9551-5"
         d="m -233.73785,482.4545 109.5,-100 -5.5,42 -104,58 z"
         style="color:#000000;fill:#aa4400;fill-opacity:1;fill-rule:nonzero;stroke:#000000;stroke-width:1px;stroke-linecap:butt;stroke-linejoin:miter;stroke-miterlimit:4;stroke-opacity:1;stroke-dasharray:none;stroke-dashoffset:0;marker:none;visibility:visible;display:inline;overflow:visible;enable-background:accumulate"
         inkscape:connector-curvature="0" />
      <path
         id="path9551-0-3"
         d="m -233.60456,485.26281 117.73342,-45.61662 -17.31152,31.63974 -100.4219,13.97688 z"
         style="color:#000000;fill:#aa4400;fill-opacity:1;fill-rule:nonzero;stroke:#000000;stroke-width:1px;stroke-linecap:butt;stroke-linejoin:miter;stroke-miterlimit:4;stroke-opacity:1;stroke-dasharray:none;stroke-dashoffset:0;marker:none;visibility:visible;display:inline;overflow:visible;enable-background:accumulate"
         inkscape:connector-curvature="0" />
      <path
         sodipodi:nodetypes="ccccccccccccc"
         id="path9519-7-0"
         d="m -244.875,466.125 c 0.86356,2.88005 0.61389,10.8522 -3.125,17.0625 0.99505,0.91624 0.095,0.26758 1.125,1.1875 5.03155,-8.83824 5.69546,-15.89859 2,-18.25 z m 6.03125,24.65625 c 3.32114,2.95665 -1.21183,10.38187 -11,12.3125 1.19576,1.67335 1.41022,-1.34851 2.5625,0.3125 14.00208,-3.04511 13.05169,-7.64069 8.4375,-12.625 z m -69.3125,7.03125 c -9.25695,18.43391 8.94909,29.43935 48.40625,34.65625 23.59719,-1.2208 23.51202,-9.09224 18,-18.5 1.41332,6.07629 -2.47875,10.6495 -19.375,11.53125 -33.204,-4.42846 -50.29586,-13.27805 -47.03125,-27.6875 z"
         style="opacity:0.17600002;color:#000000;fill:#000000;fill-opacity:1;fill-rule:nonzero;stroke:none;stroke-width:1px;marker:none;visibility:visible;display:inline;overflow:visible;enable-background:accumulate"
         inkscape:connector-curvature="0" />
      <path
         id="path6432-5-9-2"
         d="m -305.5,386.21875 c -4.51589,0.0918 -9.99581,1.25439 -16.65625,3.78125 l -5.03125,4.09375 c 24.25266,-5.70905 37.69876,3.88512 42.21875,25.78125 l 1.3125,-1.90625 c -1.05459,-14.92012 -3.52301,-32.12229 -21.84375,-31.75 z"
         style="opacity:0.17600002;color:#000000;fill:#000000;fill-opacity:1;fill-rule:nonzero;stroke:none;stroke-width:1px;marker:none;visibility:visible;display:inline;overflow:visible;enable-background:accumulate"
         inkscape:connector-curvature="0" />
      <path
         sodipodi:nodetypes="cccccc"
         id="path9405-5-1"
         d="m -342.59375,414.0625 c 1.27683,8.57475 -3.11355,16.58955 -10.84375,21.25 -9.16005,-10.44567 -21.91444,-11.34 -38.28125,-5.84375 -0.13162,0.26455 -0.27688,0.5097 -0.40625,0.78125 17.80742,-2.40791 29.60728,4.42277 39.9375,11.3125 6.62545,-8.92201 13.93278,-17.79481 9.59375,-27.5 z"
         style="opacity:0.17600002;color:#000000;fill:#000000;fill-opacity:1;fill-rule:nonzero;stroke:none;stroke-width:1px;marker:none;visibility:visible;display:inline;overflow:visible;enable-background:accumulate"
         inkscape:connector-curvature="0" />
      <path
         sodipodi:nodetypes="cccc"
         id="path4759"
         d="m -347.36621,414.90542 0,4.06586 c -11.71784,-4.01781 -24.35271,-3.60334 -38.89087,6.01041 9.06402,-10.69919 21.81415,-14.45982 38.89087,-10.07627 z"
         style="opacity:0.58399999;fill:url(#linearGradient5242);fill-opacity:1;stroke:none"
         inkscape:connector-curvature="0" />
      <path
         sodipodi:nodetypes="cccc"
         id="path4769"
         d="m -245.54283,467.76165 c -28.5067,-4.06831 -55.54718,12.57376 -62.9325,33.41079 18.2433,-15.29961 39.817,-28.77791 62.75572,-29.5217 l 0.17678,-3.88909 z"
         style="opacity:0.12000002;color:#000000;fill:url(#linearGradient5239);fill-opacity:1;fill-rule:nonzero;stroke:none;stroke-width:1px;marker:none;visibility:visible;display:inline;overflow:visible;enable-background:accumulate"
         inkscape:connector-curvature="0" />
      <path
         id="path9519-1-2-2"
         d="m -380.25,479.4375 c -10.36625,13.21609 -8.6752,23.16143 3.3125,30.3125 -0.76694,-1.68892 -1.49216,-3.43138 -2.125,-5.25 -1.7378,-8.0259 -2.03064,-16.47499 -1.1875,-25.0625 z"
         style="opacity:0.41600001;color:#000000;fill:#000000;fill-opacity:1;fill-rule:nonzero;stroke:none;stroke-width:1px;marker:none;visibility:visible;display:inline;overflow:visible;enable-background:accumulate"
         inkscape:connector-curvature="0" />
      <path
         d="m -309,416.11218 c 0,3.79696 -3.07804,6.875 -6.875,6.875 -3.79696,0 -6.875,-3.07804 -6.875,-6.875 0,-3.79696 3.07804,-6.875 6.875,-6.875 3.79696,0 6.875,3.07804 6.875,6.875 z"
         sodipodi:ry="6.875"
         sodipodi:rx="6.875"
         sodipodi:cy="416.11218"
         sodipodi:cx="-315.875"
         id="path4890"
         style="opacity:0.41600001;color:#000000;fill:#ffffff;fill-opacity:1;fill-rule:nonzero;stroke:none;stroke-width:1px;marker:none;visibility:visible;display:inline;overflow:visible;enable-background:accumulate"
         sodipodi:type="arc" />
      <path
         sodipodi:nodetypes="cccccccccc"
         id="path4927"
         d="m -233.75,481.86218 36.26777,-31.38388 0.98223,8.88388 0.75,-12.25 1.51256,-1.08579 -0.63388,14.16422 3.54289,-16.28033 1.73224,-1.86612 -3.67678,16.90901 -40.47703,22.90901 z"
         style="opacity:0.17600002;color:#000000;fill:#000000;fill-opacity:1;fill-rule:nonzero;stroke:none;stroke-width:1px;marker:none;visibility:visible;display:inline;overflow:visible;enable-background:accumulate"
         inkscape:connector-curvature="0" />
      <path
         id="path4927-4"
         d="m -185.59375,466.65625 -2.125,0.84375 -8.5625,12.5625 1.75,-0.25 8.9375,-13.15625 z m -5.75,2.21875 -2,0.78125 -4.625,9.71875 2.40625,-8.59375 -5.9375,2.03125 -32.09375,12.4375 37.15625,-5.15625 5.09375,-11.21875 z"
         style="opacity:0.17600002;color:#000000;fill:#000000;fill-opacity:1;fill-rule:nonzero;stroke:none;stroke-width:1px;marker:none;visibility:visible;display:inline;overflow:visible;enable-background:accumulate"
         inkscape:connector-curvature="0" />
    </g>
  </g>
</svg>
