<?xml version="1.0" encoding="UTF-8" standalone="no"?>
<!-- Created with Inkscape (http://www.inkscape.org/) -->

<svg
   xmlns:dc="http://purl.org/dc/elements/1.1/"
   xmlns:cc="http://creativecommons.org/ns#"
   xmlns:rdf="http://www.w3.org/1999/02/22-rdf-syntax-ns#"
   xmlns:svg="http://www.w3.org/2000/svg"
   xmlns="http://www.w3.org/2000/svg"
   xmlns:sodipodi="http://sodipodi.sourceforge.net/DTD/sodipodi-0.dtd"
   xmlns:inkscape="http://www.inkscape.org/namespaces/inkscape"
   width="435.94431"
   height="631.15448"
   id="svg3260"
   sodipodi:version="0.32"
   inkscape:version="0.48.3.1 r9886"
   version="1.0"
   sodipodi:docname="pinguino.svg"
   inkscape:output_extension="org.inkscape.output.svg.inkscape">
  <defs
     id="defs3262" />
  <sodipodi:namedview
     id="base"
     pagecolor="#ffffff"
     bordercolor="#666666"
     borderopacity="1.0"
     inkscape:pageopacity="0.0"
     inkscape:pageshadow="2"
     inkscape:zoom="0.63"
     inkscape:cx="466.97533"
     inkscape:cy="340.41887"
     inkscape:current-layer="layer1"
     inkscape:document-units="px"
     width="480px"
     height="640px"
     inkscape:window-width="1022"
     inkscape:window-height="703"
     inkscape:window-x="0"
     inkscape:window-y="48"
     showguides="true"
     inkscape:guide-bbox="true"
     showgrid="false"
     fit-margin-top="0"
     fit-margin-left="0"
     fit-margin-right="0"
     fit-margin-bottom="0"
     inkscape:window-maximized="0" />
  <metadata
     id="metadata3265">
    <rdf:RDF>
      <cc:Work
         rdf:about="">
        <dc:format>image/svg+xml</dc:format>
        <dc:type
           rdf:resource="http://purl.org/dc/dcmitype/StillImage" />
        <dc:title></dc:title>
      </cc:Work>
    </rdf:RDF>
  </metadata>
  <g
     id="layer1"
     inkscape:label="Layer 1"
     inkscape:groupmode="layer"
     transform="translate(-28.409157,-4.670559)">
    <path
       style="opacity:0.30246911;fill:#000000;fill-opacity:1;fill-rule:evenodd;stroke:none"
       d="m 269.79493,383.85964 c 28.2147,44.80479 73.86161,70.53149 113.59153,102.73382 l -5.52181,15.53957 C 354.98382,481.09336 282.95533,415.95965 270.58376,389.03949 l -0.78883,-5.17985 z"
       id="path4079"
       sodipodi:nodetypes="ccccc"
       inkscape:connector-curvature="0" />
    <path
       style="fill:#003088;fill-opacity:1;fill-rule:evenodd;stroke:#000000;stroke-width:4;stroke-linecap:butt;stroke-linejoin:miter;stroke-miterlimit:4;stroke-opacity:1;stroke-dasharray:none"
       d="m 352.18878,311.6316 c 37.42764,39.11558 68.97305,83.92169 76.79427,151.67887 9.40489,67.22014 -7.32442,70.33073 -14.39892,95.70212 C 389.70557,447.24261 288.15467,443.5325 268.99498,378.44252 l 83.1938,-66.81092 z"
       id="path4081"
       sodipodi:nodetypes="ccccc"
       inkscape:connector-curvature="0" />
    <path
       style="fill:#003088;fill-opacity:1;fill-rule:evenodd;stroke:none"
       d="m 352.18878,295.3803 0,59.58812 -83.1938,27.08551 -17.59869,-37.91971 100.79249,-48.75392 z"
       id="path4083"
       inkscape:connector-curvature="0" />
    <path
       style="fill:#c4c201;fill-opacity:1;fill-rule:evenodd;stroke:#000000;stroke-width:4;stroke-linecap:butt;stroke-linejoin:miter;stroke-miterlimit:4;stroke-opacity:1;stroke-dasharray:none"
       d="m 278.11486,625.11828 c 107.45241,-12.18977 161.36728,-100.77711 183.77139,8.2201 6.21797,3.13014 -49.34163,-9.92998 -183.77139,-8.2201 z"
       id="path4095"
       sodipodi:nodetypes="ccc"
       inkscape:connector-curvature="0" />
    <path
       style="fill:#003088;fill-opacity:1;fill-rule:evenodd;stroke:#000000;stroke-width:4;stroke-linecap:butt;stroke-linejoin:miter;stroke-miterlimit:4;stroke-opacity:1;stroke-dasharray:none"
       d="M 345.39946,42.986635 C 280.98543,18.248787 283.23117,45.114502 267.80927,30.966346 178.91914,-29.047383 -4.7996924,501.34311 120.74203,582.55396 c 82.71696,68.54874 259.61802,32.05555 260.1959,15.32188 13.12884,-14.81833 63.21153,-119.49073 -49.7766,-349.84955 -10.77793,-68.94845 -11.09187,-136.0912 14.23813,-205.039655 z"
       id="path4045"
       sodipodi:nodetypes="cccccc"
       inkscape:connector-curvature="0" />
    <path
       style="opacity:0.11914894;fill:#ffffff;fill-opacity:1;fill-rule:evenodd;stroke:none"
       d="M 295.58857,31.292056 C 212.51502,39.682506 157.05656,161.74342 110.0024,318.39846 l -11.999098,1.80569 C 104.87185,293.7536 153.66097,118.45275 217.99435,50.25191 l 77.59422,-18.959854 z"
       id="path4087"
       sodipodi:nodetypes="ccccc"
       inkscape:connector-curvature="0" />
    <path
       sodipodi:type="arc"
       style="fill:#e6e6e6;fill-opacity:1;stroke:#000000;stroke-width:2.80058455;stroke-miterlimit:4;stroke-opacity:1;stroke-dasharray:none"
       id="path4031"
       sodipodi:cx="399.28571"
       sodipodi:cy="412.36218"
       sodipodi:rx="36.898663"
       sodipodi:ry="33.217789"
       d="m 436.18437,412.36218 c 0,18.34568 -16.5201,33.21779 -36.89866,33.21779 -20.37857,0 -36.89867,-14.87211 -36.89867,-33.21779 0,-18.34568 16.5201,-33.21779 36.89867,-33.21779 20.37856,0 36.89866,14.87211 36.89866,33.21779 z"
       transform="matrix(1.1698652,0.7220956,-0.6209126,1.360504,104.11768,-767.03939)" />
    <path
       style="fill:#000000;fill-rule:evenodd;stroke:#000000;stroke-width:1px;stroke-linecap:butt;stroke-linejoin:miter;stroke-opacity:1"
       d="m 232.78189,24.062275 c 25.84494,-33.3726923 50.14332,1.92412 44.39653,41.735865 C 274.60721,9.2344997 253.46233,7.0460247 232.78189,24.062275 z"
       id="path3329"
       sodipodi:nodetypes="ccc"
       inkscape:connector-curvature="0" />
    <path
       style="opacity:0.55555558;fill:#f9f9fb;fill-opacity:1;fill-rule:evenodd;stroke:none"
       d="M 268.85711,84.016362 C 264.40334,35.124015 316.30382,21.472048 343.40699,43.885881 309.08623,34.917534 285.83812,52.07373 268.85711,84.016362 z"
       id="path4039"
       sodipodi:nodetypes="ccc"
       inkscape:connector-curvature="0" />
    <path
       sodipodi:type="arc"
       style="opacity:0.55555558;fill:#f9f9fb;fill-opacity:1;stroke:none"
       id="path4041"
       sodipodi:cx="390.42395"
       sodipodi:cy="396.01556"
       sodipodi:rx="9.0913725"
       sodipodi:ry="8.3337584"
       d="m 399.51532,396.01556 c 0,4.60261 -4.07034,8.33376 -9.09137,8.33376 -5.02103,0 -9.09137,-3.73115 -9.09137,-8.33376 0,-4.6026 4.07034,-8.33375 9.09137,-8.33375 5.02103,0 9.09137,3.73115 9.09137,8.33375 z"
       transform="matrix(1.4760124,0,0,1.5884441,-275.35704,-580.73396)" />
    <path
       style="opacity:0.27777782;fill:#000000;fill-opacity:1;fill-rule:evenodd;stroke:none"
       d="m 363.38222,78.877879 c -20.83696,53.668401 -70.33085,29.232851 -95.27062,11.556743 9.00825,16.313098 10.66372,35.060908 43.98444,43.323408 32.70991,0.40685 53.02834,-23.86643 51.28618,-54.880151 z"
       id="path4043"
       sodipodi:nodetypes="cccc"
       inkscape:connector-curvature="0" />
    <path
       style="opacity:0.27777782;fill:#010001;fill-opacity:1;fill-rule:evenodd;stroke:none"
       d="m 188.61923,148.43408 70.07499,159.56246 c 11.71354,13.70232 52.42417,35.95106 85.46374,-16.89466 l -22.04693,-106.82823 -127.83538,-35.83957 -5.65642,0 z"
       id="path4089"
       sodipodi:nodetypes="cccccc"
       inkscape:connector-curvature="0" />
    <path
       style="fill:#d4cc00;fill-opacity:1;fill-rule:evenodd;stroke:#000000;stroke-width:4;stroke-linecap:butt;stroke-linejoin:miter;stroke-miterlimit:4;stroke-opacity:1;stroke-dasharray:none"
       d="m 422.79553,184.18514 c -85.68212,40.61425 -238.99318,7.02791 -237.57017,-47.24248 10.54152,-24.99461 57.15844,38.96316 105.20965,6.38412 13.40784,-28.8231 97.16495,29.72162 132.36052,40.85836 z"
       id="path1307"
       sodipodi:nodetypes="cccc"
       inkscape:connector-curvature="0" />
    <path
       style="fill:#f7f700;fill-opacity:1;fill-rule:evenodd;stroke:none"
       d="m 391.11951,176.8434 -82.86674,-34.47423 c -8.94415,2.07796 -16.30916,5.11562 -15.55519,13.08744 l 98.42193,21.38679 z"
       id="path3131"
       sodipodi:nodetypes="cccc"
       inkscape:connector-curvature="0" />
    <path
       sodipodi:type="arc"
       style="fill:#e6e6e6;fill-opacity:1;stroke:#000000;stroke-width:2.54858971;stroke-miterlimit:4;stroke-opacity:1;stroke-dasharray:none"
       id="path2256"
       sodipodi:cx="399.28571"
       sodipodi:cy="412.36218"
       sodipodi:rx="36.898663"
       sodipodi:ry="33.217789"
       d="m 436.18437,412.36218 c 0,18.34568 -16.5201,33.21779 -36.89866,33.21779 -20.37857,0 -36.89867,-14.87211 -36.89867,-33.21779 0,-18.34568 16.5201,-33.21779 36.89867,-33.21779 20.37856,0 36.89866,14.87211 36.89866,33.21779 z"
       transform="matrix(1.255297,0.8126088,-0.666256,1.5310404,25.225677,-869.56226)" />
    <path
       style="opacity:0.55555558;fill:#f9f9fb;fill-opacity:1;fill-rule:evenodd;stroke:none"
       d="m 201.99554,88.171634 c -4.77903,-55.020899 50.9116,-70.384107 79.99404,-45.160742 -36.82711,-10.092521 -61.77296,9.214172 -79.99404,45.160742 z"
       id="path4014"
       sodipodi:nodetypes="ccc"
       inkscape:connector-curvature="0" />
    <path
       sodipodi:type="arc"
       style="opacity:0.55555558;fill:#f9f9fb;fill-opacity:1;stroke:none"
       id="path4016"
       sodipodi:cx="390.42395"
       sodipodi:cy="396.01556"
       sodipodi:rx="9.0913725"
       sodipodi:ry="8.3337584"
       d="m 399.51532,396.01556 c 0,4.60261 -4.07034,8.33376 -9.09137,8.33376 -5.02103,0 -9.09137,-3.73115 -9.09137,-8.33376 0,-4.6026 4.07034,-8.33375 9.09137,-8.33375 5.02103,0 9.09137,3.73115 9.09137,8.33375 z"
       transform="matrix(1.5838011,0,0,1.7875524,-381.96093,-659.90379)" />
    <path
       style="opacity:0.89506172;fill:#dbe3e2;fill-opacity:1;fill-rule:evenodd;stroke:none"
       d="m 327.03679,250.68468 c -15.98539,45.84997 -53.53735,21.9835 -89.40576,3.55931 -93.11992,291.07783 -34.87478,282.58054 -21.58068,363.04841 52.69129,6.36788 104.01504,4.84169 152.60638,-12.45755 70.80983,-103.56601 -9.51633,-268.83866 -41.61994,-354.15017 z"
       id="path4047"
       sodipodi:nodetypes="ccccc"
       inkscape:connector-curvature="0" />
    <path
       style="opacity:0.30246911;fill:#000000;fill-opacity:1;fill-rule:evenodd;stroke:none"
       d="m 192.39625,387.91794 c -28.21471,44.80479 -73.86161,70.53149 -113.591532,102.73382 l 5.521812,15.53957 c 22.88083,-21.03967 94.90931,-86.17338 107.28089,-113.09354 l 0.78883,-5.17985 z"
       id="path4075"
       sodipodi:nodetypes="ccccc"
       inkscape:connector-curvature="0" />
    <path
       style="fill:#003088;fill-opacity:1;fill-rule:evenodd;stroke:#000000;stroke-width:4;stroke-linecap:butt;stroke-linejoin:miter;stroke-miterlimit:4;stroke-opacity:1;stroke-dasharray:none"
       d="M 110.0024,315.6899 C 72.574758,354.80548 41.029351,399.61159 33.20813,467.36877 23.803233,534.58891 40.532545,537.6995 47.607052,563.07089 72.485605,451.3009 174.03651,447.5908 193.19619,382.50082 L 110.0024,315.6899 z"
       id="path4071"
       sodipodi:nodetypes="ccccc"
       inkscape:connector-curvature="0" />
    <path
       style="fill:#003088;fill-opacity:1;fill-rule:evenodd;stroke:none"
       d="m 110.91512,311.30395 -0.91272,47.72277 83.19379,27.08551 17.59869,-37.91971 -99.87976,-36.88857 z"
       id="path4073"
       sodipodi:nodetypes="ccccc"
       inkscape:connector-curvature="0" />
    <path
       style="opacity:0.11728396;fill:#000000;fill-opacity:1;fill-rule:evenodd;stroke:none"
       d="M 44.407298,554.04239 C 77.626703,478.30701 162.09322,436.04418 193.19619,391.52933 111.87797,405.68539 53.427283,448.68723 44.407298,554.04239 z"
       id="path4077"
       sodipodi:nodetypes="ccc"
       inkscape:connector-curvature="0" />
    <path
       style="opacity:0.3641975;fill:#010001;fill-opacity:1;fill-rule:evenodd;stroke:none"
       d="M 382.06921,380.81589 C 426.82962,623.36067 291.61619,643.3575 84.540866,519.98963 91.324619,555.90631 125.15011,630.9114 297.22272,619.58184 409.21501,634.47238 416.07084,526.87047 382.06921,380.81589 z"
       id="path4091"
       sodipodi:nodetypes="cccc"
       inkscape:connector-curvature="0" />
    <path
       style="fill:#c4c201;fill-opacity:1;fill-rule:evenodd;stroke:#000000;stroke-width:4;stroke-linecap:butt;stroke-linejoin:miter;stroke-miterlimit:4;stroke-opacity:1;stroke-dasharray:none"
       d="M 285.26366,623.93217 C 177.81124,611.7424 123.89638,523.15506 101.49227,632.15226 c -6.217968,3.13015 49.34163,-9.92997 183.77139,-8.22009 z"
       id="path4097"
       sodipodi:nodetypes="ccc"
       inkscape:connector-curvature="0" />
    <path
       style="fill:#f7f701;fill-opacity:1;fill-rule:evenodd;stroke:none"
       d="m 434.1084,588.93808 c 4.14806,2.75199 8.2961,5.18562 12.44415,17.87552 -32.6302,-5.71899 -44.53313,-4.75405 -56.56433,-3.83047 10.8888,-6.40532 18.84924,-14.13268 44.12018,-14.04505 z"
       id="path4099"
       sodipodi:nodetypes="cccc"
       inkscape:connector-curvature="0" />
    <path
       style="fill:#f7f701;fill-opacity:1;fill-rule:evenodd;stroke:none"
       d="m 133.18619,587.66162 c -4.14805,2.75199 -8.29609,5.18562 -12.44414,17.87553 32.63019,-5.71899 44.53312,-4.75405 56.56433,-3.83048 -10.88881,-6.40532 -18.84925,-14.13267 -44.12019,-14.04505 z"
       id="path4101"
       sodipodi:nodetypes="cccc"
       inkscape:connector-curvature="0" />
    <path
       style="opacity:0.23188405;fill:#000000;fill-opacity:1;fill-rule:evenodd;stroke:#000000;stroke-width:1.68259549px;stroke-linecap:butt;stroke-linejoin:miter;stroke-opacity:1"
       d="m 202.76023,103.74527 c -4.80375,3.96587 6.95342,37.53766 53.17047,48.51929 40.26995,-7.91153 51.25611,-63.537783 41.52976,-86.224926 -5.43182,60.393846 -64.89224,70.838516 -94.70023,37.705636 z"
       id="path2193"
       sodipodi:nodetypes="cccc"
       inkscape:connector-curvature="0" />
    <path
       sodipodi:type="arc"
       style="color:#000000;fill:#000000;fill-opacity:1;fill-rule:evenodd;stroke:none;stroke-width:1;marker:none;visibility:visible;display:inline;overflow:visible;enable-background:accumulate"
       id="path2281"
       sodipodi:cx="501.03568"
       sodipodi:cy="390.45972"
       sodipodi:rx="8.586297"
       sodipodi:ry="17.930208"
       d="m 509.62197,390.45972 c 0,9.90258 -3.84421,17.93021 -8.58629,17.93021 -4.74209,0 -8.5863,-8.02763 -8.5863,-17.93021 0,-9.90258 3.84421,-17.93021 8.5863,-17.93021 4.64849,0 8.45284,7.72506 8.58293,17.42841"
       sodipodi:start="0"
       sodipodi:end="6.2551955"
       sodipodi:open="true"
       transform="matrix(1.3043068,0,0,1.233663,-393.50033,-371.82036)" />
    <path
       sodipodi:type="arc"
       style="color:#000000;fill:#e6e6e6;fill-opacity:1;fill-rule:evenodd;stroke:none;stroke-width:1;marker:none;visibility:visible;display:inline;overflow:visible;enable-background:accumulate"
       id="path3254"
       sodipodi:cx="322.49121"
       sodipodi:cy="345.76047"
       sodipodi:rx="6.3134532"
       sodipodi:ry="7.0710678"
       d="m 328.80466,345.76047 c 0,3.90524 -2.82663,7.07107 -6.31345,7.07107 -3.48682,0 -6.31345,-3.16583 -6.31345,-7.07107 0,-3.90525 2.82663,-7.07107 6.31345,-7.07107 3.41801,0 6.21532,3.0465 6.31098,6.87318"
       sodipodi:start="0"
       sodipodi:end="6.2551955"
       sodipodi:open="true"
       transform="matrix(1.3587423,0,0,1.2768231,-182.11806,-337.08372)" />
    <path
       sodipodi:type="arc"
       style="color:#000000;fill:#000000;fill-opacity:1;fill-rule:evenodd;stroke:none;stroke-width:1;marker:none;visibility:visible;display:inline;overflow:visible;enable-background:accumulate"
       id="path3256"
       sodipodi:cx="501.03568"
       sodipodi:cy="390.45972"
       sodipodi:rx="8.586297"
       sodipodi:ry="17.930208"
       d="m 509.62197,390.45972 c 0,9.90258 -3.84421,17.93021 -8.58629,17.93021 -4.74209,0 -8.5863,-8.02763 -8.5863,-17.93021 0,-9.90258 3.84421,-17.93021 8.5863,-17.93021 4.64849,0 8.45284,7.72506 8.58293,17.42841"
       sodipodi:start="0"
       sodipodi:end="6.2551955"
       sodipodi:open="true"
       transform="matrix(1.3043068,0,0,1.233663,-332.90565,-377.08746)" />
    <path
       sodipodi:type="arc"
       style="color:#000000;fill:#e6e6e6;fill-opacity:1;fill-rule:evenodd;stroke:none;stroke-width:1;marker:none;visibility:visible;display:inline;overflow:visible;enable-background:accumulate"
       id="path3258"
       sodipodi:cx="322.49121"
       sodipodi:cy="345.76047"
       sodipodi:rx="6.3134532"
       sodipodi:ry="7.0710678"
       d="m 328.80466,345.76047 c 0,3.90524 -2.82663,7.07107 -6.31345,7.07107 -3.48682,0 -6.31345,-3.16583 -6.31345,-7.07107 0,-3.90525 2.82663,-7.07107 6.31345,-7.07107 3.41801,0 6.21532,3.0465 6.31098,6.87318"
       sodipodi:start="0"
       sodipodi:end="6.2551955"
       sodipodi:open="true"
       transform="matrix(1.2565177,0,0,1.0030073,-89.847633,-245.73996)" />
    <path
       style="opacity:0.12765958;fill:#ffffff;fill-rule:evenodd;stroke:none"
       d="m 187.10748,456.5434 0,67.54124 C 175.57562,411.07804 344.12421,375.49414 393.38206,435.55085 344.12983,368.91422 210.3119,397.13512 187.10748,456.5434 z"
       id="path3301"
       sodipodi:nodetypes="cccc"
       inkscape:connector-curvature="0" />
    <path
       style="fill:#000000;fill-rule:evenodd;stroke:#000000;stroke-width:1px;stroke-linecap:butt;stroke-linejoin:miter;stroke-opacity:1"
       d="m 278.37941,38.517918 c -15.8191,-39.13379151 26.91156,-42.3535421 58.41405,-17.34167 -50.1641,-26.2606129 -62.70218,-9.094008 -58.41405,17.34167 z"
       id="path3327"
       sodipodi:nodetypes="ccc"
       inkscape:connector-curvature="0" />
  </g>
</svg>
