<?xml version="1.0" encoding="UTF-8" standalone="no"?>
<!-- Created with Inkscape (http://www.inkscape.org/) -->

<svg
   xmlns:dc="http://purl.org/dc/elements/1.1/"
   xmlns:cc="http://creativecommons.org/ns#"
   xmlns:rdf="http://www.w3.org/1999/02/22-rdf-syntax-ns#"
   xmlns:svg="http://www.w3.org/2000/svg"
   xmlns="http://www.w3.org/2000/svg"
   xmlns:sodipodi="http://sodipodi.sourceforge.net/DTD/sodipodi-0.dtd"
   xmlns:inkscape="http://www.inkscape.org/namespaces/inkscape"
   width="468.74939"
   height="434.22458"
   id="svg5549"
   version="1.1"
   inkscape:version="0.48.3.1 r9886"
   sodipodi:docname="pinguino2.svg">
  <defs
     id="defs5551">
    <inkscape:perspective
       sodipodi:type="inkscape:persp3d"
       inkscape:vp_x="0 : 240 : 1"
       inkscape:vp_y="0 : 1000 : 0"
       inkscape:vp_z="640 : 240 : 1"
       inkscape:persp3d-origin="320 : 160 : 1"
       id="perspective5557" />
    <inkscape:perspective
       id="perspective5591"
       inkscape:persp3d-origin="0.5 : 0.33333333 : 1"
       inkscape:vp_z="1 : 0.5 : 1"
       inkscape:vp_y="0 : 1000 : 0"
       inkscape:vp_x="0 : 0.5 : 1"
       sodipodi:type="inkscape:persp3d" />
    <inkscape:perspective
       id="perspective5748"
       inkscape:persp3d-origin="0.5 : 0.33333333 : 1"
       inkscape:vp_z="1 : 0.5 : 1"
       inkscape:vp_y="0 : 1000 : 0"
       inkscape:vp_x="0 : 0.5 : 1"
       sodipodi:type="inkscape:persp3d" />
    <inkscape:perspective
       id="perspective5748-2"
       inkscape:persp3d-origin="0.5 : 0.33333333 : 1"
       inkscape:vp_z="1 : 0.5 : 1"
       inkscape:vp_y="0 : 1000 : 0"
       inkscape:vp_x="0 : 0.5 : 1"
       sodipodi:type="inkscape:persp3d" />
    <inkscape:perspective
       id="perspective5780"
       inkscape:persp3d-origin="0.5 : 0.33333333 : 1"
       inkscape:vp_z="1 : 0.5 : 1"
       inkscape:vp_y="0 : 1000 : 0"
       inkscape:vp_x="0 : 0.5 : 1"
       sodipodi:type="inkscape:persp3d" />
    <inkscape:perspective
       id="perspective5802"
       inkscape:persp3d-origin="0.5 : 0.33333333 : 1"
       inkscape:vp_z="1 : 0.5 : 1"
       inkscape:vp_y="0 : 1000 : 0"
       inkscape:vp_x="0 : 0.5 : 1"
       sodipodi:type="inkscape:persp3d" />
    <inkscape:perspective
       id="perspective6336"
       inkscape:persp3d-origin="0.5 : 0.33333333 : 1"
       inkscape:vp_z="1 : 0.5 : 1"
       inkscape:vp_y="0 : 1000 : 0"
       inkscape:vp_x="0 : 0.5 : 1"
       sodipodi:type="inkscape:persp3d" />
    <inkscape:perspective
       id="perspective6358"
       inkscape:persp3d-origin="0.5 : 0.33333333 : 1"
       inkscape:vp_z="1 : 0.5 : 1"
       inkscape:vp_y="0 : 1000 : 0"
       inkscape:vp_x="0 : 0.5 : 1"
       sodipodi:type="inkscape:persp3d" />
    <inkscape:perspective
       id="perspective6380"
       inkscape:persp3d-origin="0.5 : 0.33333333 : 1"
       inkscape:vp_z="1 : 0.5 : 1"
       inkscape:vp_y="0 : 1000 : 0"
       inkscape:vp_x="0 : 0.5 : 1"
       sodipodi:type="inkscape:persp3d" />
    <inkscape:perspective
       id="perspective6403"
       inkscape:persp3d-origin="0.5 : 0.33333333 : 1"
       inkscape:vp_z="1 : 0.5 : 1"
       inkscape:vp_y="0 : 1000 : 0"
       inkscape:vp_x="0 : 0.5 : 1"
       sodipodi:type="inkscape:persp3d" />
    <inkscape:perspective
       id="perspective6426"
       inkscape:persp3d-origin="0.5 : 0.33333333 : 1"
       inkscape:vp_z="1 : 0.5 : 1"
       inkscape:vp_y="0 : 1000 : 0"
       inkscape:vp_x="0 : 0.5 : 1"
       sodipodi:type="inkscape:persp3d" />
    <inkscape:perspective
       id="perspective6448"
       inkscape:persp3d-origin="0.5 : 0.33333333 : 1"
       inkscape:vp_z="1 : 0.5 : 1"
       inkscape:vp_y="0 : 1000 : 0"
       inkscape:vp_x="0 : 0.5 : 1"
       sodipodi:type="inkscape:persp3d" />
    <inkscape:perspective
       id="perspective6471"
       inkscape:persp3d-origin="0.5 : 0.33333333 : 1"
       inkscape:vp_z="1 : 0.5 : 1"
       inkscape:vp_y="0 : 1000 : 0"
       inkscape:vp_x="0 : 0.5 : 1"
       sodipodi:type="inkscape:persp3d" />
    <inkscape:perspective
       id="perspective6493"
       inkscape:persp3d-origin="0.5 : 0.33333333 : 1"
       inkscape:vp_z="1 : 0.5 : 1"
       inkscape:vp_y="0 : 1000 : 0"
       inkscape:vp_x="0 : 0.5 : 1"
       sodipodi:type="inkscape:persp3d" />
    <inkscape:perspective
       id="perspective6529"
       inkscape:persp3d-origin="0.5 : 0.33333333 : 1"
       inkscape:vp_z="1 : 0.5 : 1"
       inkscape:vp_y="0 : 1000 : 0"
       inkscape:vp_x="0 : 0.5 : 1"
       sodipodi:type="inkscape:persp3d" />
    <inkscape:perspective
       id="perspective6529-9"
       inkscape:persp3d-origin="0.5 : 0.33333333 : 1"
       inkscape:vp_z="1 : 0.5 : 1"
       inkscape:vp_y="0 : 1000 : 0"
       inkscape:vp_x="0 : 0.5 : 1"
       sodipodi:type="inkscape:persp3d" />
    <inkscape:perspective
       id="perspective6529-1"
       inkscape:persp3d-origin="0.5 : 0.33333333 : 1"
       inkscape:vp_z="1 : 0.5 : 1"
       inkscape:vp_y="0 : 1000 : 0"
       inkscape:vp_x="0 : 0.5 : 1"
       sodipodi:type="inkscape:persp3d" />
    <inkscape:perspective
       id="perspective6567"
       inkscape:persp3d-origin="0.5 : 0.33333333 : 1"
       inkscape:vp_z="1 : 0.5 : 1"
       inkscape:vp_y="0 : 1000 : 0"
       inkscape:vp_x="0 : 0.5 : 1"
       sodipodi:type="inkscape:persp3d" />
    <inkscape:perspective
       id="perspective6589"
       inkscape:persp3d-origin="0.5 : 0.33333333 : 1"
       inkscape:vp_z="1 : 0.5 : 1"
       inkscape:vp_y="0 : 1000 : 0"
       inkscape:vp_x="0 : 0.5 : 1"
       sodipodi:type="inkscape:persp3d" />
    <inkscape:perspective
       id="perspective6611"
       inkscape:persp3d-origin="0.5 : 0.33333333 : 1"
       inkscape:vp_z="1 : 0.5 : 1"
       inkscape:vp_y="0 : 1000 : 0"
       inkscape:vp_x="0 : 0.5 : 1"
       sodipodi:type="inkscape:persp3d" />
  </defs>
  <sodipodi:namedview
     id="base"
     pagecolor="#ffffff"
     bordercolor="#666666"
     borderopacity="1.0"
     inkscape:pageopacity="0.0"
     inkscape:pageshadow="2"
     inkscape:zoom="0.54781349"
     inkscape:cx="206.87259"
     inkscape:cy="164.24554"
     inkscape:current-layer="g6625"
     inkscape:document-units="px"
     showgrid="false"
     inkscape:window-width="1264"
     inkscape:window-height="715"
     inkscape:window-x="0"
     inkscape:window-y="48"
     inkscape:window-maximized="1"
     fit-margin-top="0"
     fit-margin-left="0"
     fit-margin-right="0"
     fit-margin-bottom="0" />
  <metadata
     id="metadata5554">
    <rdf:RDF>
      <cc:Work
         rdf:about="">
        <dc:format>image/svg+xml</dc:format>
        <dc:type
           rdf:resource="http://purl.org/dc/dcmitype/StillImage" />
        <dc:title></dc:title>
      </cc:Work>
    </rdf:RDF>
  </metadata>
  <g
     id="layer1"
     inkscape:label="Layer 1"
     inkscape:groupmode="layer"
     transform="translate(-83.107162,-18.776982)">
    <g
       id="g6625"
       transform="matrix(1.123288,0,0,1.1868452,-46.206278,-70.633727)">
      <path
         id="path6519-4"
         d="m 185.24588,406.06973 c 0,16.57462 29.8468,30.01109 66.66467,30.01109 36.81788,0 66.66468,-13.43647 66.66468,-30.01109 0,-16.57463 -29.8468,-30.0111 -66.66468,-30.0111 -36.81787,0 -66.66467,13.43647 -66.66467,30.0111 z"
         style="opacity:0.99141636;color:#000000;fill:#d3bc5f;fill-opacity:1;fill-rule:evenodd;stroke:#000000;stroke-width:10.52260017;stroke-linecap:butt;stroke-linejoin:miter;stroke-miterlimit:4;stroke-opacity:1;stroke-dasharray:none;stroke-dashoffset:0;marker:none;visibility:visible;display:inline;overflow:visible;enable-background:accumulate"
         inkscape:connector-curvature="0" />
      <path
         id="path6519-7-8"
         d="m 221.45532,396.94254 c 0,9.0401 19.35624,16.36861 43.2333,16.36861 23.87706,0 43.23331,-7.32851 43.23331,-16.36861 0,-9.04011 -19.35625,-16.36861 -43.23331,-16.36861 -23.87706,0 -43.2333,7.3285 -43.2333,16.36861 z"
         style="opacity:0.31759656;color:#000000;fill:#000000;fill-opacity:1;fill-rule:evenodd;stroke:#000000;stroke-width:6.25820065;stroke-linecap:butt;stroke-linejoin:miter;stroke-miterlimit:4;stroke-opacity:1;stroke-dasharray:none;stroke-dashoffset:0;marker:none;visibility:visible;display:inline;overflow:visible;enable-background:accumulate"
         inkscape:connector-curvature="0" />
      <path
         id="path6519"
         d="m 476.01931,403.33155 c 0,16.57462 -29.8468,30.01109 -66.66467,30.01109 -36.81788,0 -66.66468,-13.43647 -66.66468,-30.01109 0,-16.57463 29.8468,-30.0111 66.66468,-30.0111 36.81787,0 66.66467,13.43647 66.66467,30.0111 z"
         style="opacity:0.99141636;color:#000000;fill:#d3bc5f;fill-opacity:1;fill-rule:evenodd;stroke:#000000;stroke-width:10.52260017;stroke-linecap:butt;stroke-linejoin:miter;stroke-miterlimit:4;stroke-opacity:1;stroke-dasharray:none;stroke-dashoffset:0;marker:none;visibility:visible;display:inline;overflow:visible;enable-background:accumulate"
         inkscape:connector-curvature="0" />
      <path
         transform="matrix(2.407238,0,0,2.7514686,-433.03755,-866.60464)"
         d="m 379.81734,403.33917 c 0,33.58892 -28.49242,60.81812 -63.63961,60.81812 -35.14718,0 -63.63961,-27.2292 -63.63961,-60.81812 0,-33.58892 28.49243,-60.81811 63.63961,-60.81811 35.14719,0 63.63961,27.22919 63.63961,60.81811 z"
         sodipodi:ry="60.818115"
         sodipodi:rx="63.63961"
         sodipodi:cy="403.33917"
         sodipodi:cx="316.17773"
         id="path2383"
         style="fill:#000000;fill-opacity:1;fill-rule:evenodd;stroke:none;stroke-width:5;marker:none;visibility:visible;display:inline;overflow:visible;enable-background:accumulate"
         sodipodi:type="arc" />
      <path
         transform="matrix(2.2921548,0,0,2.6199286,-396.65083,-813.54952)"
         d="m 379.81734,403.33917 c 0,33.58892 -28.49242,60.81812 -63.63961,60.81812 -35.14718,0 -63.63961,-27.2292 -63.63961,-60.81812 0,-33.58892 28.49243,-60.81811 63.63961,-60.81811 35.14719,0 63.63961,27.22919 63.63961,60.81811 z"
         sodipodi:ry="60.818115"
         sodipodi:rx="63.63961"
         sodipodi:cy="403.33917"
         sodipodi:cx="316.17773"
         id="path2383-9"
         style="opacity:0.13733903;fill:#ffffff;fill-opacity:1;fill-rule:evenodd;stroke:none;stroke-width:5;marker:none;visibility:visible;display:inline;overflow:visible;enable-background:accumulate"
         sodipodi:type="arc" />
      <path
         transform="matrix(2.3059326,0,0,2.4061761,-402.45449,-706.68247)"
         d="m 379.81734,403.33917 c 0,33.58892 -28.49242,60.81812 -63.63961,60.81812 -35.14718,0 -63.63961,-27.2292 -63.63961,-60.81812 0,-33.58892 28.49243,-60.81811 63.63961,-60.81811 35.14719,0 63.63961,27.22919 63.63961,60.81811 z"
         sodipodi:ry="60.818115"
         sodipodi:rx="63.63961"
         sodipodi:cy="403.33917"
         sodipodi:cx="316.17773"
         id="path2383-9-2"
         style="fill:#000000;fill-opacity:1;fill-rule:evenodd;stroke:none;stroke-width:5;marker:none;visibility:visible;display:inline;overflow:visible;enable-background:accumulate"
         sodipodi:type="arc" />
      <path
         id="path6519-7"
         d="m 433.42083,392.37891 c 0,9.0401 -19.35624,16.36861 -43.2333,16.36861 -23.87706,0 -43.23331,-7.32851 -43.23331,-16.36861 0,-9.04011 19.35625,-16.36861 43.23331,-16.36861 23.87706,0 43.2333,7.3285 43.2333,16.36861 z"
         style="opacity:0.31759656;color:#000000;fill:#000000;fill-opacity:1;fill-rule:evenodd;stroke:#000000;stroke-width:6.25820065;stroke-linecap:butt;stroke-linejoin:miter;stroke-miterlimit:4;stroke-opacity:1;stroke-dasharray:none;stroke-dashoffset:0;marker:none;visibility:visible;display:inline;overflow:visible;enable-background:accumulate"
         inkscape:connector-curvature="0" />
      <path
         transform="matrix(1.7742804,0,0,1.9383315,-232.91059,-497.62052)"
         d="m 379.81734,403.33917 c 0,33.58892 -28.49242,60.81812 -63.63961,60.81812 -35.14718,0 -63.63961,-27.2292 -63.63961,-60.81812 0,-33.58892 28.49243,-60.81811 63.63961,-60.81811 35.14719,0 63.63961,27.22919 63.63961,60.81811 z"
         sodipodi:ry="60.818115"
         sodipodi:rx="63.63961"
         sodipodi:cy="403.33917"
         sodipodi:cx="316.17773"
         id="path2383-0"
         style="fill:#cccccc;fill-opacity:1;fill-rule:evenodd;stroke:none;stroke-width:5;marker:none;visibility:visible;display:inline;overflow:visible;enable-background:accumulate"
         sodipodi:type="arc" />
      <path
         transform="matrix(2.7973158,0,0,2.1110054,-583.30281,-691.30601)"
         d="m 361.12953,390.96481 c 0,13.80783 -9.04521,25.00128 -20.20305,25.00128 -11.15783,0 -20.20305,-11.19345 -20.20305,-25.00128 0,-13.80782 9.04522,-25.00127 20.20305,-25.00127 11.15784,0 20.20305,11.19345 20.20305,25.00127 z"
         sodipodi:ry="25.001276"
         sodipodi:rx="20.203051"
         sodipodi:cy="390.96481"
         sodipodi:cx="340.92648"
         id="path3155"
         style="fill:#e6e6e6;fill-opacity:1;fill-rule:evenodd;stroke:#000000;stroke-width:5;stroke-linecap:butt;stroke-linejoin:miter;stroke-miterlimit:4;stroke-opacity:1;stroke-dasharray:none;stroke-dashoffset:0;marker:none;visibility:visible;display:inline;overflow:visible;enable-background:accumulate"
         sodipodi:type="arc" />
      <path
         transform="matrix(2.2846154,0,0,1.5846135,-514.99948,-473.36167)"
         d="m 361.12953,390.96481 c 0,13.80783 -9.04521,25.00128 -20.20305,25.00128 -11.15783,0 -20.20305,-11.19345 -20.20305,-25.00128 0,-13.80782 9.04522,-25.00127 20.20305,-25.00127 11.15784,0 20.20305,11.19345 20.20305,25.00127 z"
         sodipodi:ry="25.001276"
         sodipodi:rx="20.203051"
         sodipodi:cy="390.96481"
         sodipodi:cx="340.92648"
         id="path3170"
         style="color:#000000;fill:#e6e6e6;fill-opacity:1;fill-rule:evenodd;stroke:#000000;stroke-width:6.38582802;stroke-linecap:butt;stroke-linejoin:miter;stroke-miterlimit:4;stroke-opacity:1;stroke-dasharray:none;stroke-dashoffset:0;marker:none;visibility:visible;display:inline;overflow:visible;enable-background:accumulate"
         sodipodi:type="arc" />
      <path
         sodipodi:nodetypes="ccccc"
         id="path3174"
         d="m 313.70956,158.73309 -47.12113,29.72355 50.86028,50.86028 46.89715,-54.16289 -50.6363,-26.42094 z"
         style="fill:#ffff00;fill-opacity:1;fill-rule:evenodd;stroke:#000000;stroke-width:12.15025616;stroke-linecap:butt;stroke-linejoin:miter;stroke-miterlimit:4;stroke-opacity:1;stroke-dasharray:none;stroke-dashoffset:0;marker:none;visibility:visible;display:inline;overflow:visible;enable-background:accumulate"
         inkscape:connector-curvature="0" />
      <path
         transform="matrix(1.849465,0,0,1.849465,-254.56439,-549.09289)"
         d="m 289.64284,377.54074 c 0,5.22698 -3.67766,9.46429 -8.21428,9.46429 -4.53663,0 -8.21429,-4.23731 -8.21429,-9.46429 0,-5.22698 3.67766,-9.46428 8.21429,-9.46428 4.53662,0 8.21428,4.2373 8.21428,9.46428 z"
         sodipodi:ry="9.4642859"
         sodipodi:rx="8.2142859"
         sodipodi:cy="377.54074"
         sodipodi:cx="281.42856"
         id="path3176"
         style="fill:#000000;fill-opacity:1;fill-rule:evenodd;stroke:#000000;stroke-width:6.56960583;stroke-linecap:butt;stroke-linejoin:miter;stroke-miterlimit:4;stroke-opacity:1;stroke-dasharray:none;stroke-dashoffset:0;marker:none;visibility:visible;display:inline;overflow:visible;enable-background:accumulate"
         sodipodi:type="arc" />
      <path
         transform="matrix(1.849465,0,0,1.849465,-156.14641,-555.36784)"
         d="m 289.64284,377.54074 c 0,5.22698 -3.67766,9.46429 -8.21428,9.46429 -4.53663,0 -8.21429,-4.23731 -8.21429,-9.46429 0,-5.22698 3.67766,-9.46428 8.21429,-9.46428 4.53662,0 8.21428,4.2373 8.21428,9.46428 z"
         sodipodi:ry="9.4642859"
         sodipodi:rx="8.2142859"
         sodipodi:cy="377.54074"
         sodipodi:cx="281.42856"
         id="path3178"
         style="fill:#000000;fill-opacity:1;fill-rule:evenodd;stroke:#000000;stroke-width:6.56960583;stroke-linecap:butt;stroke-linejoin:miter;stroke-miterlimit:4;stroke-opacity:1;stroke-dasharray:none;stroke-dashoffset:0;marker:none;visibility:visible;display:inline;overflow:visible;enable-background:accumulate"
         sodipodi:type="arc" />
      <path
         transform="matrix(1.849465,0,0,1.849465,-261.79978,-542.19547)"
         d="m 297.14286,373.16574 c 0,3.69834 -2.63832,6.69643 -5.89286,6.69643 -3.25454,0 -5.89286,-2.99809 -5.89286,-6.69643 0,-3.69833 2.63832,-6.69643 5.89286,-6.69643 3.25454,0 5.89286,2.9981 5.89286,6.69643 z"
         sodipodi:ry="6.6964288"
         sodipodi:rx="5.8928571"
         sodipodi:cy="373.16574"
         sodipodi:cx="291.25"
         id="path3182"
         style="color:#000000;fill:#e6e6e6;fill-opacity:1;fill-rule:evenodd;stroke:none;stroke-width:6.56960583;marker:none;visibility:visible;display:inline;overflow:visible;enable-background:accumulate"
         sodipodi:type="arc" />
      <path
         transform="matrix(1.849465,0,0,1.849465,-163.11322,-549.67772)"
         d="m 297.14286,373.16574 c 0,3.69834 -2.63832,6.69643 -5.89286,6.69643 -3.25454,0 -5.89286,-2.99809 -5.89286,-6.69643 0,-3.69833 2.63832,-6.69643 5.89286,-6.69643 3.25454,0 5.89286,2.9981 5.89286,6.69643 z"
         sodipodi:ry="6.6964288"
         sodipodi:rx="5.8928571"
         sodipodi:cy="373.16574"
         sodipodi:cx="291.25"
         id="path3182-2"
         style="color:#000000;fill:#e6e6e6;fill-opacity:1;fill-rule:evenodd;stroke:none;stroke-width:6.56960583;marker:none;visibility:visible;display:inline;overflow:visible;enable-background:accumulate"
         sodipodi:type="arc" />
      <path
         id="path5013"
         d="m 313.70908,166.73297 3.45443,64.25248 -41.45323,-42.14411 37.9988,-22.10837 z"
         style="opacity:0.4506438;fill:#000000;stroke:#000000;stroke-width:1.84946501px;stroke-linecap:butt;stroke-linejoin:miter;stroke-opacity:1"
         inkscape:connector-curvature="0" />
      <path
         sodipodi:nodetypes="cccc"
         id="path5762"
         d="m 181.30733,243.03901 c -2.67169,17.75277 -3.1358,40.30644 7.33726,59.15646 -24.77387,7.52146 -55.11284,4.83997 -73.37231,24.30453 -2.5497,-27.09791 27.33048,-55.14966 66.03505,-83.46099 z"
         style="color:#000000;fill:#000000;fill-opacity:1;fill-rule:evenodd;stroke:none;stroke-width:12.86802197;marker:none;visibility:visible;display:inline;overflow:visible;enable-background:accumulate"
         inkscape:connector-curvature="0" />
      <path
         sodipodi:nodetypes="cccc"
         id="path5762-5"
         d="m 466.23478,248.52482 c 2.67169,17.75277 3.1358,40.30644 -7.33726,59.15646 24.77387,7.52146 55.11284,4.83997 73.37231,24.30453 2.5497,-27.09791 -27.33048,-55.14966 -66.03505,-83.46099 z"
         style="color:#000000;fill:#000000;fill-opacity:1;fill-rule:evenodd;stroke:none;stroke-width:12.86802197;marker:none;visibility:visible;display:inline;overflow:visible;enable-background:accumulate"
         inkscape:connector-curvature="0" />
      <path
         sodipodi:nodetypes="cccc"
         id="path5816"
         d="m 175.22341,252.82269 4.51773,25.17022 c -42.49079,9.59128 -47.31354,25.64916 -61.95745,40.01418 2.30735,-21.38587 24.16718,-42.93838 57.43972,-65.1844 z"
         style="opacity:0.13733903;color:#000000;fill:#ffffff;fill-opacity:1;fill-rule:evenodd;stroke:none;stroke-width:12.25283813;marker:none;visibility:visible;display:inline;overflow:visible;enable-background:accumulate"
         inkscape:connector-curvature="0" />
    </g>
  </g>
</svg>
