<?xml version="1.0" encoding="UTF-8" standalone="no"?>
<!-- Created with Inkscape (http://www.inkscape.org/) -->

<svg
   xmlns:dc="http://purl.org/dc/elements/1.1/"
   xmlns:cc="http://creativecommons.org/ns#"
   xmlns:rdf="http://www.w3.org/1999/02/22-rdf-syntax-ns#"
   xmlns:svg="http://www.w3.org/2000/svg"
   xmlns="http://www.w3.org/2000/svg"
   xmlns:xlink="http://www.w3.org/1999/xlink"
   xmlns:sodipodi="http://sodipodi.sourceforge.net/DTD/sodipodi-0.dtd"
   xmlns:inkscape="http://www.inkscape.org/namespaces/inkscape"
   width="576.74481"
   height="327.23849"
   id="svg12756"
   version="1.1"
   inkscape:version="0.48.3.1 r9886"
   sodipodi:docname="tucan.svg"
   inkscape:export-filename="/home/vladimir/Documentos/mis_sitios/pagina_mirror/animales/tucan.png"
   inkscape:export-xdpi="90"
   inkscape:export-ydpi="90">
  <defs
     id="defs12758">
    <inkscape:perspective
       sodipodi:type="inkscape:persp3d"
       inkscape:vp_x="0 : 526.18109 : 1"
       inkscape:vp_y="0 : 1000 : 0"
       inkscape:vp_z="744.09448 : 526.18109 : 1"
       inkscape:persp3d-origin="372.04724 : 350.78739 : 1"
       id="perspective12764" />
    <inkscape:perspective
       id="perspective12579"
       inkscape:persp3d-origin="0.5 : 0.33333333 : 1"
       inkscape:vp_z="1 : 0.5 : 1"
       inkscape:vp_y="0 : 1000 : 0"
       inkscape:vp_x="0 : 0.5 : 1"
       sodipodi:type="inkscape:persp3d" />
    <inkscape:perspective
       id="perspective12792"
       inkscape:persp3d-origin="0.5 : 0.33333333 : 1"
       inkscape:vp_z="1 : 0.5 : 1"
       inkscape:vp_y="0 : 1000 : 0"
       inkscape:vp_x="0 : 0.5 : 1"
       sodipodi:type="inkscape:persp3d" />
    <linearGradient
       inkscape:collect="always"
       xlink:href="#linearGradient12108"
       id="linearGradient12114"
       x1="1667.4899"
       y1="12766.527"
       x2="1657.0527"
       y2="12233.171"
       gradientUnits="userSpaceOnUse" />
    <linearGradient
       inkscape:collect="always"
       id="linearGradient12108">
      <stop
         style="stop-color:#000000;stop-opacity:1;"
         offset="0"
         id="stop12110" />
      <stop
         style="stop-color:#000000;stop-opacity:0;"
         offset="1"
         id="stop12112" />
    </linearGradient>
    <linearGradient
       inkscape:collect="always"
       xlink:href="#linearGradient12193"
       id="linearGradient12201"
       x1="2154.4272"
       y1="12766.035"
       x2="2164.1174"
       y2="12341.35"
       gradientUnits="userSpaceOnUse" />
    <linearGradient
       inkscape:collect="always"
       id="linearGradient12193">
      <stop
         style="stop-color:#000000;stop-opacity:1;"
         offset="0"
         id="stop12195" />
      <stop
         style="stop-color:#000000;stop-opacity:0;"
         offset="1"
         id="stop12197" />
    </linearGradient>
    <filter
       color-interpolation-filters="sRGB"
       inkscape:collect="always"
       id="filter12145"
       x="-0.24290334"
       width="1.4858067"
       y="-0.25049406"
       height="1.5009881">
      <feGaussianBlur
         inkscape:collect="always"
         stdDeviation="11.928289"
         id="feGaussianBlur12147" />
    </filter>
    <filter
       color-interpolation-filters="sRGB"
       inkscape:collect="always"
       id="filter12267"
       x="-0.091709279"
       width="1.1834186"
       y="-0.13460198"
       height="1.269204">
      <feGaussianBlur
         inkscape:collect="always"
         stdDeviation="4.4036946"
         id="feGaussianBlur12269" />
    </filter>
    <filter
       color-interpolation-filters="sRGB"
       inkscape:collect="always"
       id="filter12000"
       x="-0.10027417"
       width="1.2005483"
       y="-0.19658472"
       height="1.3931694">
      <feGaussianBlur
         inkscape:collect="always"
         stdDeviation="28.446227"
         id="feGaussianBlur12002" />
    </filter>
    <filter
       color-interpolation-filters="sRGB"
       inkscape:collect="always"
       id="filter12082"
       x="-0.20415524"
       width="1.4083105"
       y="-0.088341445"
       height="1.1766829">
      <feGaussianBlur
         inkscape:collect="always"
         stdDeviation="7.3540287"
         id="feGaussianBlur12084" />
    </filter>
    <linearGradient
       inkscape:collect="always"
       xlink:href="#linearGradient12066"
       id="linearGradient12074"
       x1="2124.2065"
       y1="12350.469"
       x2="2255.635"
       y2="12189.186"
       gradientUnits="userSpaceOnUse" />
    <linearGradient
       inkscape:collect="always"
       id="linearGradient12066">
      <stop
         style="stop-color:#000000;stop-opacity:1;"
         offset="0"
         id="stop12068" />
      <stop
         style="stop-color:#000000;stop-opacity:0;"
         offset="1"
         id="stop12070" />
    </linearGradient>
    <filter
       color-interpolation-filters="sRGB"
       inkscape:collect="always"
       id="filter11938"
       x="-0.047722384"
       width="1.0954448"
       y="-0.10911646"
       height="1.2182329">
      <feGaussianBlur
         inkscape:collect="always"
         stdDeviation="16.4984"
         id="feGaussianBlur11940" />
    </filter>
    <filter
       color-interpolation-filters="sRGB"
       inkscape:collect="always"
       id="filter11909"
       x="-0.12646303"
       width="1.252926"
       y="-0.21904729"
       height="1.4380946">
      <feGaussianBlur
         inkscape:collect="always"
         stdDeviation="5.8486556"
         id="feGaussianBlur11911" />
    </filter>
    <filter
       color-interpolation-filters="sRGB"
       inkscape:collect="always"
       id="filter11803"
       x="-0.10071648"
       width="1.2014329"
       y="-0.14413781"
       height="1.2882756">
      <feGaussianBlur
         inkscape:collect="always"
         stdDeviation="21.591491"
         id="feGaussianBlur11805" />
    </filter>
    <filter
       color-interpolation-filters="sRGB"
       inkscape:collect="always"
       id="filter11762"
       x="-0.10829553"
       width="1.2165911"
       y="-0.084392875"
       height="1.1687857">
      <feGaussianBlur
         inkscape:collect="always"
         stdDeviation="15.975782"
         id="feGaussianBlur11764" />
    </filter>
    <filter
       color-interpolation-filters="sRGB"
       inkscape:collect="always"
       id="filter11859"
       x="-0.17923021"
       width="1.3584604"
       y="-0.20152147"
       height="1.4030429">
      <feGaussianBlur
         inkscape:collect="always"
         stdDeviation="11.452498"
         id="feGaussianBlur11861" />
    </filter>
    <filter
       color-interpolation-filters="sRGB"
       inkscape:collect="always"
       id="filter11687"
       x="-0.13081241"
       width="1.2616248"
       y="-0.65697324"
       height="2.3139465">
      <feGaussianBlur
         inkscape:collect="always"
         stdDeviation="34.048643"
         id="feGaussianBlur11689" />
    </filter>
    <filter
       color-interpolation-filters="sRGB"
       inkscape:collect="always"
       id="filter11697"
       x="-0.0974968"
       width="1.1949936"
       y="-0.87746274"
       height="2.7549255">
      <feGaussianBlur
         inkscape:collect="always"
         stdDeviation="21.414478"
         id="feGaussianBlur11699" />
    </filter>
    <filter
       color-interpolation-filters="sRGB"
       inkscape:collect="always"
       id="filter11829"
       x="-0.2411155"
       width="1.482231"
       y="-0.1321777"
       height="1.2643554">
      <feGaussianBlur
         inkscape:collect="always"
         stdDeviation="13.060423"
         id="feGaussianBlur11831" />
    </filter>
    <filter
       color-interpolation-filters="sRGB"
       inkscape:collect="always"
       id="filter11899"
       x="-0.22828937"
       width="1.4565787"
       y="-0.16937247"
       height="1.3387449">
      <feGaussianBlur
         inkscape:collect="always"
         stdDeviation="13.338929"
         id="feGaussianBlur11901" />
    </filter>
    <linearGradient
       inkscape:collect="always"
       xlink:href="#linearGradient11956"
       id="linearGradient11962"
       x1="1983.4229"
       y1="12202.362"
       x2="2246.5769"
       y2="12202.362"
       gradientUnits="userSpaceOnUse" />
    <linearGradient
       inkscape:collect="always"
       id="linearGradient11956">
      <stop
         style="stop-color:#ffffff;stop-opacity:1;"
         offset="0"
         id="stop11958" />
      <stop
         style="stop-color:#ffffff;stop-opacity:0;"
         offset="1"
         id="stop11960" />
    </linearGradient>
    <filter
       color-interpolation-filters="sRGB"
       inkscape:collect="always"
       id="filter11952"
       x="-0.14408375"
       width="1.2881675"
       y="-0.542207"
       height="2.084414">
      <feGaussianBlur
         inkscape:collect="always"
         stdDeviation="12.26427"
         id="feGaussianBlur11954" />
    </filter>
    <radialGradient
       inkscape:collect="always"
       xlink:href="#linearGradient11982"
       id="radialGradient11988"
       cx="1834.9421"
       cy="12008.477"
       fx="1834.9421"
       fy="12008.477"
       r="103.81126"
       gradientTransform="matrix(1,0,0,1.1313639,0,-1577.48)"
       gradientUnits="userSpaceOnUse" />
    <linearGradient
       inkscape:collect="always"
       id="linearGradient11982">
      <stop
         style="stop-color:#ffffff;stop-opacity:1;"
         offset="0"
         id="stop11984" />
      <stop
         style="stop-color:#ffffff;stop-opacity:0;"
         offset="1"
         id="stop11986" />
    </linearGradient>
    <filter
       color-interpolation-filters="sRGB"
       inkscape:collect="always"
       id="filter11978"
       x="-0.7090351"
       width="2.4180703"
       y="-0.53810698"
       height="2.0762141">
      <feGaussianBlur
         inkscape:collect="always"
         stdDeviation="25.366588"
         id="feGaussianBlur11980" />
    </filter>
    <radialGradient
       inkscape:collect="always"
       xlink:href="#linearGradient12018"
       id="radialGradient12024"
       cx="1810.1934"
       cy="12603.866"
       fx="1810.1934"
       fy="12603.866"
       r="237.27374"
       gradientTransform="matrix(1,0,0,0.71303325,0,3616.8904)"
       gradientUnits="userSpaceOnUse" />
    <linearGradient
       inkscape:collect="always"
       id="linearGradient12018">
      <stop
         style="stop-color:#ffffff;stop-opacity:1;"
         offset="0"
         id="stop12020" />
      <stop
         style="stop-color:#ffffff;stop-opacity:0;"
         offset="1"
         id="stop12022" />
    </linearGradient>
    <filter
       color-interpolation-filters="sRGB"
       inkscape:collect="always"
       id="filter12014"
       x="-0.25284946"
       width="1.5056989"
       y="-0.44522452"
       height="1.890449">
      <feGaussianBlur
         inkscape:collect="always"
         stdDeviation="33.204148"
         id="feGaussianBlur12016" />
    </filter>
    <filter
       color-interpolation-filters="sRGB"
       inkscape:collect="always"
       id="filter12062">
      <feGaussianBlur
         inkscape:collect="always"
         stdDeviation="8.1553196"
         id="feGaussianBlur12064" />
    </filter>
    <filter
       color-interpolation-filters="sRGB"
       inkscape:collect="always"
       id="filter12121"
       x="-0.072541453"
       width="1.145083"
       y="-0.10372686"
       height="1.2074537">
      <feGaussianBlur
         inkscape:collect="always"
         stdDeviation="8.4958704"
         id="feGaussianBlur12123" />
    </filter>
    <filter
       color-interpolation-filters="sRGB"
       inkscape:collect="always"
       id="filter12135"
       x="-0.21087675"
       width="1.4217535"
       y="-0.16474846"
       height="1.3294969">
      <feGaussianBlur
         inkscape:collect="always"
         stdDeviation="3.3283995"
         id="feGaussianBlur12137" />
    </filter>
    <filter
       color-interpolation-filters="sRGB"
       inkscape:collect="always"
       id="filter12155">
      <feGaussianBlur
         inkscape:collect="always"
         stdDeviation="2.8656174"
         id="feGaussianBlur12157" />
    </filter>
    <linearGradient
       inkscape:collect="always"
       xlink:href="#linearGradient12369"
       id="linearGradient12377"
       x1="2106.4053"
       y1="12687.062"
       x2="1990.691"
       y2="12774.409"
       gradientUnits="userSpaceOnUse" />
    <linearGradient
       inkscape:collect="always"
       id="linearGradient12369">
      <stop
         style="stop-color:#000000;stop-opacity:1;"
         offset="0"
         id="stop12371" />
      <stop
         style="stop-color:#000000;stop-opacity:0;"
         offset="1"
         id="stop12373" />
    </linearGradient>
    <filter
       color-interpolation-filters="sRGB"
       inkscape:collect="always"
       id="filter12217">
      <feGaussianBlur
         inkscape:collect="always"
         stdDeviation="2.8368109"
         id="feGaussianBlur12219" />
    </filter>
    <filter
       color-interpolation-filters="sRGB"
       inkscape:collect="always"
       id="filter12251">
      <feGaussianBlur
         inkscape:collect="always"
         stdDeviation="4.7847491"
         id="feGaussianBlur12253" />
    </filter>
    <filter
       color-interpolation-filters="sRGB"
       inkscape:collect="always"
       id="filter12257"
       x="-0.33493802"
       width="1.669876"
       y="-0.4251835"
       height="1.850367">
      <feGaussianBlur
         inkscape:collect="always"
         stdDeviation="7.4716436"
         id="feGaussianBlur12259" />
    </filter>
    <radialGradient
       inkscape:collect="always"
       xlink:href="#linearGradient12281"
       id="radialGradient12287"
       cx="2062.614"
       cy="12658.969"
       fx="2062.614"
       fy="12658.969"
       r="43.600201"
       gradientTransform="matrix(1,0,0,0.87566439,0,1573.9606)"
       gradientUnits="userSpaceOnUse" />
    <linearGradient
       inkscape:collect="always"
       id="linearGradient12281">
      <stop
         style="stop-color:#ffffff;stop-opacity:1;"
         offset="0"
         id="stop12283" />
      <stop
         style="stop-color:#ffffff;stop-opacity:0;"
         offset="1"
         id="stop12285" />
    </linearGradient>
    <filter
       color-interpolation-filters="sRGB"
       inkscape:collect="always"
       id="filter12383"
       x="-0.3554292"
       width="1.7108583"
       y="-0.42941004"
       height="1.8588201">
      <feGaussianBlur
         inkscape:collect="always"
         stdDeviation="8.6522738"
         id="feGaussianBlur12385" />
    </filter>
    <filter
       color-interpolation-filters="sRGB"
       inkscape:collect="always"
       id="filter12365"
       x="-0.15104362"
       width="1.3020873"
       y="-0.36366722"
       height="1.7273344">
      <feGaussianBlur
         inkscape:collect="always"
         stdDeviation="4.4261956"
         id="feGaussianBlur12367" />
    </filter>
    <filter
       color-interpolation-filters="sRGB"
       inkscape:collect="always"
       id="filter12393"
       x="-0.27860594"
       width="1.5572119"
       y="-0.16085181"
       height="1.3217036">
      <feGaussianBlur
         inkscape:collect="always"
         stdDeviation="18.76986"
         id="feGaussianBlur12395" />
    </filter>
    <linearGradient
       inkscape:collect="always"
       xlink:href="#linearGradient12610"
       id="linearGradient12616"
       x1="1950.0336"
       y1="11913.791"
       x2="2066.395"
       y2="11913.791"
       gradientUnits="userSpaceOnUse" />
    <linearGradient
       inkscape:collect="always"
       id="linearGradient12610">
      <stop
         style="stop-color:#000000;stop-opacity:1;"
         offset="0"
         id="stop12612" />
      <stop
         style="stop-color:#000000;stop-opacity:0;"
         offset="1"
         id="stop12614" />
    </linearGradient>
    <filter
       color-interpolation-filters="sRGB"
       inkscape:collect="always"
       id="filter12606"
       x="-0.16738027"
       width="1.3347605"
       y="-0.11007028"
       height="1.2201406">
      <feGaussianBlur
         inkscape:collect="always"
         stdDeviation="6.0276779"
         id="feGaussianBlur12608" />
    </filter>
    <linearGradient
       y2="11913.791"
       x2="2066.395"
       y1="11913.791"
       x1="1950.0336"
       gradientUnits="userSpaceOnUse"
       id="linearGradient13023"
       xlink:href="#linearGradient12610"
       inkscape:collect="always" />
    <inkscape:perspective
       id="perspective17279"
       inkscape:persp3d-origin="0.5 : 0.33333333 : 1"
       inkscape:vp_z="1 : 0.5 : 1"
       inkscape:vp_y="0 : 1000 : 0"
       inkscape:vp_x="0 : 0.5 : 1"
       sodipodi:type="inkscape:persp3d" />
  </defs>
  <sodipodi:namedview
     id="base"
     pagecolor="#ffffff"
     bordercolor="#666666"
     borderopacity="1.0"
     inkscape:pageopacity="0.0"
     inkscape:pageshadow="2"
     inkscape:zoom="0.35"
     inkscape:cx="585.05531"
     inkscape:cy="-198.45977"
     inkscape:document-units="px"
     inkscape:current-layer="g12618"
     showgrid="false"
     inkscape:window-width="1264"
     inkscape:window-height="715"
     inkscape:window-x="0"
     inkscape:window-y="48"
     inkscape:window-maximized="1"
     fit-margin-top="0"
     fit-margin-left="0"
     fit-margin-right="0"
     fit-margin-bottom="0" />
  <metadata
     id="metadata12761">
    <rdf:RDF>
      <cc:Work
         rdf:about="">
        <dc:format>image/svg+xml</dc:format>
        <dc:type
           rdf:resource="http://purl.org/dc/dcmitype/StillImage" />
        <dc:title></dc:title>
      </cc:Work>
    </rdf:RDF>
  </metadata>
  <g
     inkscape:label="Capa 1"
     inkscape:groupmode="layer"
     id="layer1"
     transform="translate(-120.16855,-215.1928)">
    <g
       transform="matrix(0.5,0,0,0.5,-442.12658,-5561.6127)"
       id="g12618">
      <g
         style="stroke-width:15.91415882;stroke-miterlimit:4;stroke-dasharray:none"
         transform="matrix(-0.2513485,0,0,0.2513485,1916.9971,9620.3133)"
         id="g5889-8-8">
        <path
           id="path5612-6-6-3"
           transform="matrix(-3.9785398,0,0,3.9785398,7626.8492,-38274.799)"
           d="m 1654.9375,11938.406 c -31.5463,-0.183 -57.6156,17.338 -57.875,28.032 4.7856,7.989 19.5601,13.508 37.8437,15.624 -25.7674,12.856 -40.6092,36.376 -36.9687,45.688 11.387,8.376 41.7534,2.581 69.0625,-11.562 -7.8401,17.688 -8.1282,34.463 -2.625,39.531 22.4644,4.095 73.2366,-46.751 79.5312,-89.781 -17.7905,0.398 -32.3697,5.164 -44.0937,12.343 -1.5096,-0.526 -3.0102,-0.969 -4.5,-1.406 7.961,-2.468 15.3822,-5.709 21.7187,-9.813 -19.3968,-21.142 -41.8717,-28.538 -62.0937,-28.656 z"
           style="color:#000000;fill:#0b2228;fill-opacity:1;fill-rule:nonzero;stroke:#000000;stroke-width:4;stroke-linecap:butt;stroke-linejoin:miter;stroke-miterlimit:4;stroke-opacity:1;stroke-dasharray:none;stroke-dashoffset:0;marker:none;visibility:visible;display:inline;overflow:visible;filter:url(#filter5039-2-2);enable-background:accumulate"
           inkscape:connector-curvature="0" />
      </g>
      <g
         style="stroke-width:1.50856388;stroke-miterlimit:4;stroke-dasharray:none"
         transform="matrix(2.0036971,-1.7366062,1.7366062,2.0036971,-1681.7918,10158.201)"
         id="g3917-4-0-0-5-1-6-5-8">
        <path
           style="color:#000000;fill:#217844;fill-opacity:1;fill-rule:nonzero;stroke:#000000;stroke-width:1.50856388;stroke-linecap:butt;stroke-linejoin:miter;stroke-miterlimit:4;stroke-opacity:1;stroke-dasharray:none;stroke-dashoffset:0;marker:none;visibility:visible;display:inline;overflow:visible;enable-background:accumulate"
           d="m 451.25,965.34448 c 28.14108,0.31509 44.76079,-10.32917 53.39286,-28.57143 -31.36458,-11.93666 -48.21163,-0.90921 -53.39286,28.57143 z"
           id="path3860-2-1-2-4-7-5-62-0"
           transform="translate(0,308.2677)"
           sodipodi:nodetypes="ccc"
           inkscape:connector-curvature="0" />
        <path
           style="fill:#000000;stroke:none"
           d="m 450.90685,964.93908 c 12.08081,-16.77887 28.29323,-30.04208 51.13897,-27.65292 -30.05247,-2.13198 -41.41151,13.72159 -51.13897,27.65292 z"
           id="path3862-13-4-3-6-6-3-1-8"
           transform="translate(0,308.2677)"
           sodipodi:nodetypes="ccc"
           inkscape:connector-curvature="0" />
        <path
           style="color:#000000;fill:#000000;fill-opacity:1;fill-rule:nonzero;stroke:none;stroke-width:1.50856388;marker:none;visibility:visible;display:inline;overflow:visible;enable-background:accumulate"
           d="m 462.53369,1252.8022 c 7.03656,1.2054 6.32409,6.3675 8.05762,10.2806 -1.95368,-3.5953 -2.04406,-7.6195 -8.05762,-10.2806 z"
           id="path3864-2-2-0-6-2-0-1-5"
           sodipodi:nodetypes="ccc"
           inkscape:connector-curvature="0" />
      </g>
      <path
         id="path4315-1-8"
         d="m 1801.611,12077.248 c -14.5103,10.448 -29.6725,20.666 -42.9628,31.523 -83.6967,56.509 -35.537,111.907 -13.3938,75.599 15.8511,34.881 64.6612,21.91 40.6969,-7.754 -1.6825,-2.769 -2.98,-5.5 -4.0323,-8.144 -6.2339,-35.797 18.2172,-62.869 38.8501,-72.445 3.8635,-17.247 -6.8917,-18.829 -19.1581,-18.779 z"
         style="color:#000000;fill:#e9ddaf;fill-opacity:1;fill-rule:nonzero;stroke:#000000;stroke-width:4;stroke-linecap:butt;stroke-linejoin:miter;stroke-miterlimit:4;stroke-opacity:1;stroke-dasharray:none;stroke-dashoffset:0;marker:none;visibility:visible;display:inline;overflow:visible;filter:url(#filter5039-2-2);enable-background:accumulate"
         inkscape:connector-curvature="0" />
      <path
         sodipodi:nodetypes="ccc"
         id="path4380-0-1"
         d="m 1749.2574,12188.889 c -0.3895,-2.302 -14.5764,-17.493 -4.0658,-36.52 -14.0888,19.702 0.3812,35.259 4.0658,36.52 z"
         style="fill:#000000;stroke:none"
         inkscape:connector-curvature="0" />
      <path
         sodipodi:nodetypes="cccc"
         id="path4382-21-8"
         d="m 1723.6788,12189.026 c -1.2034,7.687 7.1648,11.114 10.0739,14.591 -1.1117,-5.379 -1.2434,-10.346 1.8229,-13.971 -2.6287,-0.908 -7.8254,-8.397 -11.8968,-0.62 z"
         style="color:#000000;fill:#ffffff;fill-opacity:1;fill-rule:nonzero;stroke:#000000;stroke-width:4;stroke-linecap:butt;stroke-linejoin:miter;stroke-miterlimit:4;stroke-opacity:1;stroke-dasharray:none;stroke-dashoffset:0;marker:none;visibility:visible;display:inline;overflow:visible;enable-background:accumulate"
         inkscape:connector-curvature="0" />
      <path
         sodipodi:nodetypes="cccc"
         id="path4382-2-2-5"
         d="m 1777.9126,12202.22 c 4.9765,5.981 13.0769,1.962 17.6093,2.076 -4.7725,-2.719 -8.5889,-5.902 -9.2848,-10.598 -2.4177,1.374 -11.4734,0.328 -8.3245,8.522 z"
         style="color:#000000;fill:#ffffff;fill-opacity:1;fill-rule:nonzero;stroke:#000000;stroke-width:4;stroke-linecap:butt;stroke-linejoin:miter;stroke-miterlimit:4;stroke-opacity:1;stroke-dasharray:none;stroke-dashoffset:0;marker:none;visibility:visible;display:inline;overflow:visible;enable-background:accumulate"
         inkscape:connector-curvature="0" />
      <path
         id="path4315-0"
         d="m 1875.5595,12069.358 c -12.3305,12.948 -25.3438,25.792 -36.3996,38.917 -71.8162,70.999 -14.2508,116.546 0.8034,76.772 22.0224,31.353 67.596,9.588 38.5639,-15.139 -2.1652,-2.411 -3.9448,-4.854 -5.4675,-7.258 -12.7399,-34.029 6.2887,-65.153 24.7974,-78.376 0.6106,-17.664 -10.2518,-17.232 -22.2976,-14.916 z"
         style="color:#000000;fill:#e9ddaf;fill-opacity:1;fill-rule:nonzero;stroke:#000000;stroke-width:4;stroke-linecap:butt;stroke-linejoin:miter;stroke-miterlimit:4;stroke-opacity:1;stroke-dasharray:none;stroke-dashoffset:0;marker:none;visibility:visible;display:inline;overflow:visible;filter:url(#filter5039-2-2);enable-background:accumulate"
         inkscape:connector-curvature="0" />
      <path
         sodipodi:nodetypes="ccc"
         id="path4380-1-1"
         d="m 1844.7322,12188.749 c -0.808,-2.191 -17.5571,-14.499 -10.7426,-35.14 -10.2064,21.966 6.8886,34.582 10.7426,35.14 z"
         style="fill:#000000;stroke:none"
         inkscape:connector-curvature="0" />
      <path
         sodipodi:nodetypes="cccc"
         id="path4382-9-4"
         d="m 1819.6193,12193.609 c 0.2375,7.777 9.0947,9.599 12.5961,12.479 -2.0862,-5.081 -3.1334,-9.938 -0.7895,-14.067 -2.7512,-0.407 -9.2421,-6.807 -11.8066,1.588 z"
         style="color:#000000;fill:#ffffff;fill-opacity:1;fill-rule:nonzero;stroke:#000000;stroke-width:4;stroke-linecap:butt;stroke-linejoin:miter;stroke-miterlimit:4;stroke-opacity:1;stroke-dasharray:none;stroke-dashoffset:0;marker:none;visibility:visible;display:inline;overflow:visible;enable-background:accumulate"
         inkscape:connector-curvature="0" />
      <path
         sodipodi:nodetypes="cccc"
         id="path4382-2-5-9"
         d="m 1875.357,12196.556 c 5.996,4.96 13.2144,-0.487 17.6898,-1.213 -5.1927,-1.79 -9.5314,-4.212 -11.0829,-8.7 -2.1223,1.798 -11.2153,2.442 -6.6069,9.913 z"
         style="color:#000000;fill:#ffffff;fill-opacity:1;fill-rule:nonzero;stroke:#000000;stroke-width:4;stroke-linecap:butt;stroke-linejoin:miter;stroke-miterlimit:4;stroke-opacity:1;stroke-dasharray:none;stroke-dashoffset:0;marker:none;visibility:visible;display:inline;overflow:visible;enable-background:accumulate"
         inkscape:connector-curvature="0" />
      <path
         sodipodi:nodetypes="ccccc"
         id="path5815-9-8"
         d="m 1724.7774,11643.499 c 25.6089,-17.99 26.8987,-24.022 72.7985,-24.426 l -6.2722,-31.037 c -47.1048,11.291 -56.8339,22.248 -73.1638,41.567 l 6.6375,13.896 z"
         style="color:#000000;fill:#0b2228;fill-opacity:1;fill-rule:nonzero;stroke:#000000;stroke-width:4;stroke-linecap:butt;stroke-linejoin:miter;stroke-miterlimit:4;stroke-opacity:1;stroke-dasharray:none;stroke-dashoffset:0;marker:none;visibility:visible;display:inline;overflow:visible;filter:url(#filter5039-2-2);enable-background:accumulate"
         inkscape:connector-curvature="0" />
      <path
         id="path5925-3"
         d="m 1912.4947,12037.754 363.5852,-379.835 -89.3729,-20.312 -276.2435,387.96 2.0312,12.187 z"
         style="color:#000000;fill:#0b2228;fill-opacity:1;fill-rule:nonzero;stroke:#000000;stroke-width:4;stroke-linecap:butt;stroke-linejoin:miter;stroke-miterlimit:4;stroke-opacity:1;stroke-dasharray:none;stroke-dashoffset:0;marker:none;visibility:visible;display:inline;overflow:visible;filter:url(#filter5039-2-2);enable-background:accumulate"
         inkscape:connector-curvature="0" />
      <path
         transform="matrix(1.1720248,-0.0878512,0.10336343,0.99613361,-1566.0683,193.46666)"
         d="m 1873.8329,12120.099 c 0,17.573 -24.8743,31.819 -55.5584,31.819 -30.684,0 -55.5584,-14.246 -55.5584,-31.819 0,-17.574 24.8744,-31.82 55.5584,-31.82 30.6841,0 55.5584,14.246 55.5584,31.82 z"
         sodipodi:ry="31.819805"
         sodipodi:rx="55.558388"
         sodipodi:cy="12120.099"
         sodipodi:cx="1818.2745"
         id="path11903"
         style="opacity:0.68674699;color:#000000;fill:#000000;fill-opacity:1;fill-rule:nonzero;stroke:none;stroke-width:4;marker:none;visibility:visible;display:inline;overflow:visible;filter:url(#filter11909);enable-background:accumulate"
         sodipodi:type="arc" />
      <g
         style="opacity:0.65060239;stroke-width:15.91415882;stroke-miterlimit:4;stroke-dasharray:none"
         transform="matrix(-0.2513485,0,0,0.2513485,1915.0841,9615.4972)"
         id="g5889-8-8-1">
        <path
           id="path5612-6-6-3-8"
           d="m 1190.8217,9314.9502 c 20.5119,15.7042 32.6297,32.3641 32.9579,45.8787 -12.3872,20.6788 -43.8606,36.6212 -85.2958,46.5336 -19.0015,-17.7152 -42.235,-34.5052 -68.981,-47.8474 55.1989,-6.3879 100.8857,-22.0074 121.3189,-44.5649 z m -354.32032,16.4257 c 9.60528,3.9486 19.54374,7.4455 29.78217,10.6199 -5.01216,1.472 -10.03098,2.9399 -15.11004,4.7091 -6.34506,-3.8857 -12.97104,-7.5121 -19.81817,-10.9489 1.69898,-1.4862 3.43759,-2.9504 5.14604,-4.3801 z m -127.23122,27.7011 c 2.57318,0.055 5.12951,0.2203 7.66454,0.3292 47.60696,129.8365 187.19322,259.9738 253.47681,247.8928 11.19075,-10.308 15.19307,-35.0692 10.84002,-66.1336 24.92227,59.7214 25.33547,115.3058 6.6786,132.4851 -78.71014,14.3479 -256.60502,-163.8058 -278.65997,-314.5735 z m 252.27259,115.1869 c 91.87865,47.5811 194.03425,67.0519 232.34475,38.8711 1.2907,-3.3004 1.9217,-7.1235 1.8618,-11.3876 21.881,29.7437 31.2341,57.8688 24.9641,73.909 -39.6557,29.1686 -144.9974,9.2607 -240.22849,-39.638 -3.16496,-19.0432 -9.37613,-40.1716 -18.94216,-61.7545 z"
           style="opacity:0.79919679;color:#000000;fill:#000000;fill-opacity:1;fill-rule:nonzero;stroke:#000000;stroke-width:14.01514626;stroke-linecap:butt;stroke-linejoin:miter;stroke-miterlimit:4;stroke-opacity:1;stroke-dasharray:none;stroke-dashoffset:0;marker:none;visibility:visible;display:inline;overflow:visible;filter:url(#filter11803);enable-background:accumulate"
           inkscape:connector-curvature="0" />
      </g>
      <path
         id="path5470-6"
         d="m 1871.625,11651.188 c -73.6084,0.1 -148.1565,86.536 -172.3125,204.781 -26.2031,128.266 16.8211,245.368 96.0937,261.562 48.0604,9.818 98.3992,-19.706 136.4376,-73.062 18.3741,24.905 43.3545,43.645 57.3437,41.093 5.5051,-5.069 5.2232,-21.835 -2.625,-39.531 27.3091,14.144 57.6755,19.939 69.0625,11.563 3.6405,-9.312 -11.2012,-32.833 -36.9688,-45.688 18.2838,-2.116 33.0582,-7.635 37.8438,-15.625 -0.3376,-13.916 -44.3744,-39.412 -87.3438,-22.375 7.1128,-18.575 12.9591,-38.429 17.2188,-59.281 26.2031,-128.266 -16.821,-245.367 -96.0938,-261.563 -6.1931,-1.265 -12.4182,-1.884 -18.6562,-1.874 z"
         style="color:#000000;fill:#0b2228;fill-opacity:1;fill-rule:nonzero;stroke:#000000;stroke-width:4;stroke-linecap:butt;stroke-linejoin:miter;stroke-miterlimit:4;stroke-opacity:1;stroke-dasharray:none;stroke-dashoffset:0;marker:none;visibility:visible;display:inline;overflow:visible;filter:url(#filter5039-2-2);enable-background:accumulate"
         inkscape:connector-curvature="0" />
      <path
         transform="matrix(0.20376123,0.04162595,-0.04162595,0.20376123,2058.9864,10075.837)"
         d="m 1154.2856,8624.0156 c 0,520.8502 -260.95398,943.0827 -582.85707,943.0827 -321.9031,0 -582.857119,-422.2325 -582.857119,-943.0827 0,-520.8501 260.954019,-943.0826 582.857119,-943.0826 321.90309,0 582.85707,422.2325 582.85707,943.0826 z"
         sodipodi:ry="943.08264"
         sodipodi:rx="582.85712"
         sodipodi:cy="8624.0156"
         sodipodi:cx="571.42853"
         id="path5470-9-0"
         style="color:#000000;fill:#ffcc00;fill-opacity:1;fill-rule:nonzero;stroke:#000000;stroke-width:19.23357964;stroke-linecap:butt;stroke-linejoin:miter;stroke-miterlimit:4;stroke-opacity:1;stroke-dasharray:none;stroke-dashoffset:0;marker:none;visibility:visible;display:inline;overflow:visible;filter:url(#filter5039-2-2);enable-background:accumulate"
         sodipodi:type="arc" />
      <path
         id="path5470-6-2"
         d="m 1871.6971,11658.132 c -71.4258,0.1 -143.764,83.967 -167.2032,198.705 -25.4268,124.465 16.322,238.095 93.2447,253.806 46.6353,9.531 95.4816,-19.118 132.3923,-70.892 17.8294,24.163 42.0693,42.35 55.6434,39.875 3.7237,-3.428 4.713,-12.369 2.3959,-23.293 -0.514,1.322 -1.1797,2.399 -2.0015,3.159 -12.0207,2.186 -33.4847,-13.939 -49.2756,-35.328 -32.6898,45.854 -75.9599,71.221 -117.2611,62.77 -68.1268,-13.905 -105.0903,-114.52 -82.571,-224.758 20.7589,-101.617 84.8124,-175.868 148.0697,-175.968 5.3613,-0.01 10.7203,0.513 16.0412,1.607 55.2999,11.292 90.0609,79.723 89.1513,164.051 2.9784,-98.254 -36.6309,-178.862 -100.5229,-191.916 -6.0089,-1.229 -12.05,-1.829 -18.1032,-1.818 z m 100.7957,295.619 c -1.1386,3.301 -2.3191,6.579 -3.5477,9.793 0.092,-0.04 0.1834,-0.06 0.2728,-0.09 1.1374,-3.194 2.2157,-6.439 3.2749,-9.706 z m 71.4119,28.139 c 0.051,0.298 0.1143,0.566 0.1215,0.854 -4.1123,6.862 -16.8244,11.614 -32.5373,13.43 5.665,2.826 10.713,6.251 15.0401,9.918 11.939,-2.726 21.0385,-7.22 24.5621,-13.101 -0.082,-3.293 -2.699,-7.234 -7.1864,-11.101 z m -59.98,43.607 c 2.9413,6.63 4.6506,13.121 5.246,18.681 24.8331,11.565 50.8415,15.83 61.0713,8.306 1.6969,-4.34 -0.7529,-11.863 -6.5193,-19.891 0.01,1.063 -0.1307,2.022 -0.4547,2.853 -9.7858,7.205 -35.8732,2.205 -59.3433,-9.949 z"
         style="opacity:0.69879521;color:#000000;fill:#000000;fill-opacity:1;fill-rule:nonzero;stroke:#000000;stroke-width:3.88140893;stroke-linecap:butt;stroke-linejoin:miter;stroke-miterlimit:4;stroke-opacity:1;stroke-dasharray:none;stroke-dashoffset:0;marker:none;visibility:visible;display:inline;overflow:visible;filter:url(#filter11762);enable-background:accumulate"
         inkscape:connector-curvature="0" />
      <path
         transform="matrix(0.29723534,0,0,0.29723534,1585.0537,9309.9477)"
         d="m 857.14285,8212.3623 c 0,195.6666 -117.68515,354.2857 -262.85714,354.2857 -145.172,0 -262.85715,-158.6191 -262.85715,-354.2857 0,-195.6666 117.68515,-354.2857 262.85715,-354.2857 145.17199,0 262.85714,158.6191 262.85714,354.2857 z"
         sodipodi:ry="354.28571"
         sodipodi:rx="262.85715"
         sodipodi:cy="8212.3623"
         sodipodi:cx="594.28571"
         id="path5533-5-4"
         style="color:#000000;fill:#000000;fill-opacity:1;fill-rule:nonzero;stroke:#000000;stroke-width:13.45734978;stroke-linecap:butt;stroke-linejoin:miter;stroke-miterlimit:4;stroke-opacity:1;stroke-dasharray:none;stroke-dashoffset:0;marker:none;visibility:visible;display:inline;overflow:visible;filter:url(#filter5039-2-2);enable-background:accumulate"
         sodipodi:type="arc" />
      <path
         sodipodi:nodetypes="cccc"
         id="path5472-7"
         d="m 1835.707,11660.938 c 25.2249,74.722 36.9681,229.116 -26.55,283.109 -234.1214,-18.391 -442.1951,-32.356 -647.8032,-23.678 12.4898,-267.415 331.8579,-284.521 674.3532,-259.431 z"
         style="color:#000000;fill:#e9ddaf;fill-opacity:1;fill-rule:nonzero;stroke:#000000;stroke-width:4;stroke-linecap:butt;stroke-linejoin:miter;stroke-miterlimit:4;stroke-opacity:1;stroke-dasharray:none;stroke-dashoffset:0;marker:none;visibility:visible;display:inline;overflow:visible;filter:url(#filter5039-2-2);enable-background:accumulate"
         inkscape:connector-curvature="0" />
      <path
         sodipodi:nodetypes="ccccccc"
         id="path5472-0-8"
         d="m 1806.2929,11658.887 c 33.6357,74.59 66.8082,287.079 -27.2949,280.85 -222.5665,-17.483 -421.5969,-30.964 -617.3434,-24.797 -0.1134,1.799 -0.2133,3.605 -0.2984,5.428 205.6081,-8.678 413.6822,5.29 647.8036,23.681 63.5181,-53.992 51.7736,-208.391 26.5487,-283.112 -9.8269,-0.72 -19.6335,-1.405 -29.4156,-2.05 z"
         style="color:#000000;fill:#000000;fill-opacity:1;fill-rule:nonzero;stroke:#000000;stroke-width:4;stroke-linecap:butt;stroke-linejoin:miter;stroke-miterlimit:4;stroke-opacity:1;stroke-dasharray:none;stroke-dashoffset:0;marker:none;visibility:visible;display:inline;overflow:visible;filter:url(#filter5039-2-2);enable-background:accumulate"
         inkscape:connector-curvature="0" />
      <path
         sodipodi:nodetypes="cccc"
         id="path5792-7"
         d="m 1953.8804,11808.99 c -73.6243,80.449 -116.0172,8.221 -153.3558,-50.78 23.5496,88.745 74.6699,148.141 150.309,60.936 l 3.0468,-10.156 z"
         style="color:#000000;fill:#000000;fill-opacity:1;fill-rule:nonzero;stroke:none;stroke-width:15.91415882;marker:none;visibility:visible;display:inline;overflow:visible;filter:url(#filter5039-2-2);enable-background:accumulate"
         inkscape:connector-curvature="0" />
      <path
         sodipodi:nodetypes="cccc"
         id="path5792-7-2"
         d="m 1942.4518,11793.99 c -73.6243,80.449 -104.5886,23.221 -141.9272,-35.78 -12.0017,131.011 133.5798,206.556 161.7376,36.65 l -19.8104,-0.87 z"
         style="opacity:0.71485943;color:#000000;fill:#000000;fill-opacity:1;fill-rule:nonzero;stroke:none;stroke-width:15.91415882;marker:none;visibility:visible;display:inline;overflow:visible;filter:url(#filter11859);enable-background:accumulate"
         inkscape:connector-curvature="0" />
      <path
         transform="matrix(0.29723534,0,0,0.29723534,1710.7282,9304.9232)"
         d="m 857.14285,8212.3623 c 0,195.6666 -117.68515,354.2857 -262.85714,354.2857 -145.172,0 -262.85715,-158.6191 -262.85715,-354.2857 0,-195.6666 117.68515,-354.2857 262.85715,-354.2857 145.17199,0 262.85714,158.6191 262.85714,354.2857 z"
         sodipodi:ry="354.28571"
         sodipodi:rx="262.85715"
         sodipodi:cy="8212.3623"
         sodipodi:cx="594.28571"
         id="path5533-0"
         style="color:#000000;fill:#ffffff;fill-opacity:1;fill-rule:nonzero;stroke:#000000;stroke-width:13.45734978;stroke-linecap:butt;stroke-linejoin:miter;stroke-miterlimit:4;stroke-opacity:1;stroke-dasharray:none;stroke-dashoffset:0;marker:none;visibility:visible;display:inline;overflow:visible;filter:url(#filter5039-2-2);enable-background:accumulate"
         sodipodi:type="arc" />
      <path
         id="path5565-4"
         d="m 1886.2924,11692.779 c -19.6326,0 -35.5501,25.754 -35.5501,57.52 0,31.766 15.9175,57.519 35.5501,57.519 17.1285,0 31.4271,-19.602 34.796,-45.698 -3.8618,2.052 -8.2552,3.213 -12.913,3.213 -15.4327,0 -27.939,-12.737 -27.939,-28.45 0,-15.713 12.5063,-28.449 27.939,-28.449 0.8655,0 1.7231,0.04 2.5685,0.117 -6.3717,-9.773 -14.9788,-15.772 -24.4515,-15.772 z"
         style="color:#000000;fill:#000000;fill-opacity:1;fill-rule:nonzero;stroke:none;stroke-width:15.91415882;marker:none;visibility:visible;display:inline;overflow:visible;filter:url(#filter5039-2-2);enable-background:accumulate"
         inkscape:connector-curvature="0" />
      <path
         id="path5663-6"
         d="m 1389.1875,11677.156 c -132.1732,33.028 -221.3605,104.407 -227.8437,243.219 90.9846,-3.841 182.4748,-3.262 276.4687,0.187 5.6652,-58.444 9.8859,-116.674 -8.4687,-171.687 l -60.5938,8.063 58.4375,-14.157 c -8.241,-22.502 -20.4048,-44.459 -38,-65.625 z"
         style="color:#000000;fill:#000000;fill-opacity:1;fill-rule:nonzero;stroke:#000000;stroke-width:4;stroke-linecap:butt;stroke-linejoin:miter;stroke-miterlimit:4;stroke-opacity:1;stroke-dasharray:none;stroke-dashoffset:0;marker:none;visibility:visible;display:inline;overflow:visible;filter:url(#filter5039-2-2);enable-background:accumulate"
         inkscape:connector-curvature="0" />
      <path
         sodipodi:nodetypes="ccccc"
         id="path5815-0"
         d="m 1982.4057,11666.537 c -51.2179,-35.98 -53.7973,-48.043 -145.597,-48.851 l 12.5444,-62.075 c 94.2094,22.583 113.6678,44.495 146.3276,83.135 l -13.275,27.791 z"
         style="color:#000000;fill:#0b2228;fill-opacity:1;fill-rule:nonzero;stroke:#000000;stroke-width:4;stroke-linecap:butt;stroke-linejoin:miter;stroke-miterlimit:4;stroke-opacity:1;stroke-dasharray:none;stroke-dashoffset:0;marker:none;visibility:visible;display:inline;overflow:visible;filter:url(#filter5039-2-2);enable-background:accumulate"
         inkscape:connector-curvature="0" />
      <path
         sodipodi:nodetypes="cccc"
         id="path5472-7-9"
         d="m 1812.7905,11803.977 c 22.6863,31.891 33.2475,97.787 -23.8777,120.83 -210.5586,-7.849 -397.6908,-13.809 -582.6058,-10.105 11.2328,-114.133 298.4583,-121.434 606.4835,-110.725 z"
         style="opacity:0.51807233;color:#000000;fill:#000000;fill-opacity:1;fill-rule:nonzero;stroke:none;stroke-width:2.4782095;marker:none;visibility:visible;display:inline;overflow:visible;filter:url(#filter11687);enable-background:accumulate"
         inkscape:connector-curvature="0" />
      <path
         sodipodi:nodetypes="cccc"
         id="path11691"
         d="m 1790,11775.219 -527.1429,24.286 c 154.1148,-62.809 339.2084,-48.17 514.2857,-58.572 l 12.8572,34.286 z"
         style="opacity:0.60240939;fill:#ffffff;stroke:none;filter:url(#filter11697)"
         inkscape:connector-curvature="0" />
      <path
         sodipodi:nodetypes="ccccccccc"
         id="path11807"
         d="m 1970,11809.505 c 1.035,59.632 -22.258,122.306 -51.4286,185.714 l 101.4285,2.857 -24.2857,11.429 50,37.143 -41.4285,-38.572 44.2857,-15.714 c -11.3365,-12.058 -47.0312,-14.982 -88.5714,-15.714 9.4751,-56.831 38.7358,-117.259 10,-167.143 z"
         style="opacity:0.17269078;fill:#ffffff;stroke:none;filter:url(#filter11829)"
         inkscape:connector-curvature="0" />
      <path
         id="path5533-0-5"
         d="m 1881.3141,11665.558 c -38.7267,0 -70.1159,42.324 -70.1159,94.522 0,52.197 31.3892,94.49 70.1159,94.49 38.7267,0 70.1159,-42.293 70.1159,-94.49 0,-15.066 -2.6429,-29.296 -7.2923,-41.934 2.2789,8.261 3.5338,17.185 3.5338,26.506 0,41.981 -25.2528,76.009 -56.401,76.009 -31.1473,0 -56.3732,-34.028 -56.3732,-76.009 0,-41.981 25.2259,-76.009 56.3732,-76.009 4.2809,0 8.473,0.64 12.4806,1.854 -7.0434,-3.206 -14.592,-4.939 -22.437,-4.939 z"
         style="opacity:0.68674699;color:#000000;fill:#000000;fill-opacity:1;fill-rule:nonzero;stroke:none;stroke-width:3.58993053;marker:none;visibility:visible;display:inline;overflow:visible;filter:url(#filter11899);enable-background:accumulate"
         inkscape:connector-curvature="0" />
      <path
         id="path11964"
         d="m 1792.0106,11972.111 35.3553,70.711 19.1929,-15.153 31.3147,37.376 -5.0507,-60.609 -21.2132,9.091 -29.2945,-61.619 -30.3045,20.203 z"
         style="opacity:0.8875502;fill:url(#radialGradient11988);fill-opacity:1;stroke:none;filter:url(#filter11978)"
         inkscape:connector-curvature="0" />
      <path
         id="path12397"
         d="m 1817.8571,11796.648 -88.5714,-0.715 91.4285,8.572 -2.8571,-7.857 z"
         style="fill:#000000;stroke:none"
         inkscape:connector-curvature="0" />
      <path
         id="path12600"
         d="m 1975,11970.933 76.4285,-77.143 -28.5714,9.286 16.4286,-55 -50.7143,70 -23.5714,61.429 14.2857,-12.143 -4.2857,3.571 z"
         style="fill:url(#linearGradient13023);fill-opacity:1;stroke:#000000;stroke-width:1px;stroke-linecap:butt;stroke-linejoin:miter;stroke-opacity:1;filter:url(#filter12606)"
         inkscape:connector-curvature="0" />
    </g>
  </g>
</svg>
