<?xml version="1.0" encoding="UTF-8" standalone="no"?>
<!-- Created with Inkscape (http://www.inkscape.org/) -->

<svg
   xmlns:dc="http://purl.org/dc/elements/1.1/"
   xmlns:cc="http://creativecommons.org/ns#"
   xmlns:rdf="http://www.w3.org/1999/02/22-rdf-syntax-ns#"
   xmlns:svg="http://www.w3.org/2000/svg"
   xmlns="http://www.w3.org/2000/svg"
   xmlns:sodipodi="http://sodipodi.sourceforge.net/DTD/sodipodi-0.dtd"
   xmlns:inkscape="http://www.inkscape.org/namespaces/inkscape"
   width="453.49963"
   height="514.43103"
   id="svg7277"
   version="1.1"
   inkscape:version="0.48.3.1 r9886"
   sodipodi:docname="invierno.svg">
  <defs
     id="defs7279">
    <inkscape:perspective
       sodipodi:type="inkscape:persp3d"
       inkscape:vp_x="0 : 240 : 1"
       inkscape:vp_y="0 : 1000 : 0"
       inkscape:vp_z="640 : 240 : 1"
       inkscape:persp3d-origin="320 : 160 : 1"
       id="perspective7285" />
    <inkscape:perspective
       id="perspective7120"
       inkscape:persp3d-origin="0.5 : 0.33333333 : 1"
       inkscape:vp_z="1 : 0.5 : 1"
       inkscape:vp_y="0 : 1000 : 0"
       inkscape:vp_x="0 : 0.5 : 1"
       sodipodi:type="inkscape:persp3d" />
    <inkscape:perspective
       id="perspective7921"
       inkscape:persp3d-origin="0.5 : 0.33333333 : 1"
       inkscape:vp_z="1 : 0.5 : 1"
       inkscape:vp_y="0 : 1000 : 0"
       inkscape:vp_x="0 : 0.5 : 1"
       sodipodi:type="inkscape:persp3d" />
    <inkscape:perspective
       id="perspective9010"
       inkscape:persp3d-origin="0.5 : 0.33333333 : 1"
       inkscape:vp_z="1 : 0.5 : 1"
       inkscape:vp_y="0 : 1000 : 0"
       inkscape:vp_x="0 : 0.5 : 1"
       sodipodi:type="inkscape:persp3d" />
  </defs>
  <sodipodi:namedview
     id="base"
     pagecolor="#ffffff"
     bordercolor="#666666"
     borderopacity="1.0"
     inkscape:pageopacity="0.0"
     inkscape:pageshadow="2"
     inkscape:zoom="0.38736264"
     inkscape:cx="-316.10429"
     inkscape:cy="286.6247"
     inkscape:current-layer="layer1"
     inkscape:document-units="px"
     showgrid="false"
     inkscape:window-width="1022"
     inkscape:window-height="623"
     inkscape:window-x="0"
     inkscape:window-y="48"
     inkscape:window-maximized="0"
     fit-margin-top="0"
     fit-margin-left="0"
     fit-margin-right="0"
     fit-margin-bottom="0" />
  <metadata
     id="metadata7282">
    <rdf:RDF>
      <cc:Work
         rdf:about="">
        <dc:format>image/svg+xml</dc:format>
        <dc:type
           rdf:resource="http://purl.org/dc/dcmitype/StillImage" />
        <dc:title></dc:title>
      </cc:Work>
    </rdf:RDF>
  </metadata>
  <g
     id="layer1"
     inkscape:label="Layer 1"
     inkscape:groupmode="layer"
     transform="translate(-5.5912029,48.279292)">
    <g
       id="g7314"
       transform="matrix(1.9740375,0,0,1.9740375,-2207.0054,-450.76276)">
      <path
         transform="matrix(0.39402899,0,0,0.40283172,1093.301,117.13965)"
         d="m 651.42856,486.64789 c 0,138.86017 -129.83742,251.42857 -290,251.42857 -160.16258,0 -290.000002,-112.5684 -290.000002,-251.42857 0,-138.86017 129.837422,-251.42858 290.000002,-251.42858 160.16258,0 290,112.56841 290,251.42858 z"
         sodipodi:ry="251.42857"
         sodipodi:rx="290"
         sodipodi:cy="486.64789"
         sodipodi:cx="361.42856"
         id="path4234-6-4"
         style="fill:#93ac9d;fill-opacity:1;fill-rule:evenodd;stroke:#000000;stroke-width:3;stroke-linecap:butt;stroke-linejoin:miter;stroke-miterlimit:4;stroke-opacity:1;stroke-dasharray:none;stroke-dashoffset:0;marker:none;visibility:visible;display:inline;overflow:visible;enable-background:accumulate"
         sodipodi:type="arc" />
      <path
         style="opacity:0.2232143;fill:#000000;fill-opacity:1;fill-rule:evenodd;stroke:none;stroke-width:3;marker:none;visibility:visible;display:inline;overflow:visible;enable-background:accumulate"
         d="m 1276.4181,227.0554 c -8.1811,0.81756 -91.6623,-13.89286 -91.188,15.56792 -8.1147,-1.51831 -18.6243,-8.39842 -18.0213,2.81471 -20.7966,2.30139 -13.2639,12.43023 -10.5123,21.23824 -14.6438,-2.19721 -17.8217,1.46666 -16.5191,7.42063 -9.5026,4.70446 -18.6095,14.38484 -11.4316,18.40713 18.8399,4.7274 25.0985,-1.824 32.3753,-12.20805 5.6113,20.00308 30.5076,6.02061 35.8447,7.92782 29.4263,7.26635 24.3529,-2.99721 19.5502,-11.56808 4.9694,10.47617 9.668,21.7577 21.7752,11.00296 6.2732,7.12943 14.7086,8.58145 17.6501,-2.00087 -2.2811,-14.41882 53.297,-37.33521 20.4768,-58.60241 z"
         id="path4244-9-3-1"
         sodipodi:nodetypes="cccccccccccc"
         inkscape:connector-curvature="0" />
      <path
         sodipodi:nodetypes="cccccccccc"
         id="path5167"
         d="m 1264.6428,280.71428 c -22.7961,6.02537 -45.0542,16.89255 -69.6428,6.78571 -10.9981,1.80569 -21.6837,10.80044 -33.5715,-7.85714 -6.9587,9.55691 -15.3096,14.58909 -26.0714,11.78572 l -11.4286,-4.28572 11.4286,7.5 c 13.1091,3.25957 19.0171,-6.68296 26.7857,-13.21428 10.7143,21.38922 21.4286,7.42854 32.1429,7.5 23.9286,9.77494 47.8571,1.30126 71.7857,-8.57143 l -1.4286,0.35714 z"
         style="color:#000000;fill:#000000;fill-opacity:1;fill-rule:evenodd;stroke:none;stroke-width:1;marker:none;visibility:visible;display:inline;overflow:visible;enable-background:accumulate"
         inkscape:connector-curvature="0" />
      <path
         sodipodi:nodetypes="cccccccc"
         id="path5283"
         d="m 1125.7143,288.21429 c 11.9048,4.47793 23.8095,10.71931 35.7143,-7.85715 8.4968,22.40837 22.3259,8.82372 34.2857,7.85715 l 17.1428,4.64285 c 33.1197,25.62703 46.3547,-17.09922 65.3572,-40 l 18.2143,-25.71428 C 1263.941,213.85999 1230.1665,205.90876 1191.0714,220 c -45.899,21.61655 -60.1063,44.70713 -65.3571,68.21429 z"
         style="opacity:0.2232143;color:#000000;fill:#000000;fill-opacity:1;fill-rule:evenodd;stroke:none;stroke-width:1.19521809;marker:none;visibility:visible;display:inline;overflow:visible;enable-background:accumulate"
         inkscape:connector-curvature="0" />
      <g
         transform="matrix(0.39402899,0,0,0.40283172,794.96472,74.554589)"
         id="g4248-1-4">
        <path
           style="fill:#ffffff;fill-rule:evenodd;stroke:#000000;stroke-width:1px;stroke-linecap:butt;stroke-linejoin:miter;stroke-opacity:1"
           d="m 1260.7143,374.50504 c -24.1051,18.60585 -48.2106,21.29323 -45.0001,63.57144 -23.1572,-4.2382 -53.1487,-23.44384 -51.4285,7.85714 -59.3495,6.42419 -37.8535,34.69855 -30,59.28571 -41.7908,-6.13347 -50.8596,4.09403 -47.1429,20.71428 -27.1185,13.13236 -27.6281,25.20037 -7.1428,36.42858 53.7663,13.19634 106.7766,25.38464 121.4286,-13.57143 21.1671,42.60586 44.1079,32.00144 67.1428,18.57143 39.4793,14.60614 35.4386,-12.23533 36.4286,-34.28572 14.1811,29.24373 27.5894,60.73562 62.1428,30.71429 17.9023,19.90151 32.32,21.68297 40.7143,-7.85715 -20.7094,-68.07912 -49.504,-133.98904 -147.1428,-181.42857 z"
           id="path4242-8-7"
           sodipodi:nodetypes="cccccccccccc"
           inkscape:connector-curvature="0" />
        <path
           style="fill:#000000;fill-rule:evenodd;stroke:#000000;stroke-width:1px;stroke-linecap:butt;stroke-linejoin:miter;stroke-opacity:1"
           d="m 1261.4286,375.93362 c -17.2329,15.05551 -39.8894,1.90881 -48.5715,61.42857 -20.5351,-11.69039 -41.0429,-23.09369 -57.8571,4.28571 -43.9683,7.15461 -33.5917,34.43695 -27.8572,60 -37.0562,-13.08704 -44.8881,6.70323 -52.1428,27.14286 -32.1972,29.96015 -0.3028,42.56216 58.5714,47.85714 31.0877,2.09805 62.7411,5.00427 67.8572,-30 14.1141,39.25781 37.0857,43.08568 66.4285,21.42857 19.0923,5.13179 41.8136,19.47547 37.1429,-35.71428 7.9682,35.77397 24.547,55.4028 62.8571,34.28571 28.3595,22.98071 37.6525,9.29505 41.4286,-15 -13.0015,5.12155 -1.8842,45.61748 -40.7143,12.85714 -42.4991,25.45751 -49.1552,-15.65039 -67.1428,-35.71428 5.4792,38.73535 -1.9558,55.22951 -30.7143,35 -50.3361,31.68225 -58.1929,-4.10262 -78.5715,-20 6.5078,38.15677 -31.9236,26.38109 -57.1428,29.28571 -76.1979,-12.40075 -83.184,-28.32075 -47.1429,-46.42857 -4.3023,-30.12991 25.9115,-21.14168 48.5715,-20.71429 -21.1185,-37.13024 -14.5753,-58.33407 27.1428,-59.28571 3.897,-31.72982 33.6399,-11.76784 55.0001,-8.57142 -17.6607,-39.88999 23.3321,-43.07663 42.8571,-62.14286 z"
           id="path4240-7-6"
           sodipodi:nodetypes="ccccccccccccccccccccc"
           inkscape:connector-curvature="0" />
        <path
           style="opacity:0.2232143;fill:#000000;fill-opacity:1;fill-rule:evenodd;stroke:none;stroke-width:3;marker:none;visibility:visible;display:inline;overflow:visible;enable-background:accumulate"
           d="m 1287.0504,387.07408 c -21.4375,16.54617 -62.0664,28.53246 -59.2113,66.13021 -20.594,-3.76909 -47.2662,-20.84844 -45.736,6.98732 -52.7793,5.71302 -33.6621,30.85713 -26.6788,52.72235 -37.1643,-5.45441 -45.2294,3.64088 -41.9236,18.42117 -24.1165,11.67848 -24.5691,22.4106 -6.3524,32.39564 47.8136,11.73543 81.8247,22.06946 94.8541,-12.57399 7.2382,37.88911 50.5891,28.96378 72.842,17.02052 35.1076,12.98924 31.5151,-10.88082 32.3949,-30.49009 12.6117,26.00632 24.5361,54.0119 55.2629,27.31405 15.9206,17.69827 37.3286,21.30282 44.7938,-4.96702 -5.7892,-35.79366 -36.9519,-120.1659 -120.2456,-172.96016 z"
           id="path4244-9-3"
           sodipodi:nodetypes="cccccccccccc"
           inkscape:connector-curvature="0" />
        <path
           style="opacity:0.2232143;fill:#000000;fill-opacity:1;fill-rule:evenodd;stroke:none;stroke-width:3;marker:none;visibility:visible;display:inline;overflow:visible;enable-background:accumulate"
           d="m 1316.5132,410.55127 c -18.6975,14.43137 -67.2664,21.8552 -64.7753,54.64735 -17.962,-3.28749 -41.2261,-18.18376 -39.89,6.09412 -46.0333,4.98282 -29.3601,26.91313 -23.2688,45.98355 -32.4143,-4.75721 -39.4494,3.17561 -36.5656,16.06677 -21.0345,10.18568 -29.0052,30.15275 -13.1165,38.86144 41.7016,10.23543 50.1535,4.09637 61.5169,-26.11908 12.3731,41.63261 50.184,30.81762 69.5929,20.40096 38.1957,19.91514 33.0429,-20.09682 33.8087,-37.19969 6.9592,33.28892 38.5727,56.70475 65.3735,33.4193 13.8846,15.43627 32.5566,18.58002 39.0678,-4.33202 -5.0492,-31.21866 -26.6727,-98.24091 -91.7436,-147.8227 z"
           id="path4246-2-1"
           sodipodi:nodetypes="cccccccccccc"
           inkscape:connector-curvature="0" />
      </g>
      <path
         style="fill:#cccccc;fill-opacity:1;fill-rule:evenodd;stroke:#000000;stroke-width:1.19521809;stroke-linecap:butt;stroke-linejoin:miter;stroke-miterlimit:4;stroke-opacity:1;stroke-dasharray:none;stroke-dashoffset:0;marker:none;visibility:visible;display:inline;overflow:visible;enable-background:accumulate"
         d="m 1333.8279,410.87342 c -30.998,-11.79479 -67.7173,-7.99214 -101.6371,-11.82144 -28.3522,-4.18432 -55.7936,-2.78183 -82.0239,6.04934 -37.5394,3.60139 -33.5463,44.97474 19.1053,43.07628 26.2278,21.44716 49.475,17.18616 71.9896,9.16731 17.6507,13.27999 33.1848,1.1274 49.7756,-6.86885 25.3281,-2.789 43.1712,-7.7724 33.9827,-20.68181 7.5367,-2.92896 29.7596,-16.11877 8.8078,-18.92083 z"
         id="path4811-2-1"
         sodipodi:nodetypes="cccccccc"
         inkscape:connector-curvature="0" />
      <path
         sodipodi:nodetypes="cccccccccccccccc"
         id="path4033-2-7"
         d="m 1169.6146,446.78264 c 7.3841,-4.17828 14.8923,-8.24232 32.6482,-2.87737 2.5849,-2.62076 -7.4801,-4.43324 -12.4921,-6.56859 6.0817,-1.45876 9.505,-2.55473 18.6839,-0.3371 1.1768,-2.85132 1.7999,-5.98568 -2.2515,-11.50948 l 3.3773,-5.75474 c -3.6403,0.74164 -8.2795,3.86598 -13.5095,8.39973 l 5.3675,-6.77204 -16.0626,5.278 46.7206,-25.32085 48.4093,-0.57547 c 20.3558,5.85623 43.8664,4.18685 60.2301,19.56611 l -15.1982,9.20758 c 1.5413,7.8907 6.17,16.1321 -31.5224,19.56611 -17.8251,9.86725 -35.6502,22.74903 -53.4753,7.48116 -23.6418,9.86214 -47.2835,10.91701 -70.9253,-9.78305 z"
         style="opacity:0.2232143;fill:#000000;fill-opacity:1;fill-rule:evenodd;stroke:none;stroke-width:3;marker:none;visibility:visible;display:inline;overflow:visible;enable-background:accumulate"
         inkscape:connector-curvature="0" />
      <path
         sodipodi:nodetypes="ccc"
         id="path4027-7-8"
         d="m 1228.1571,411.75128 c 7.835,-13.49815 32.6144,7.28936 52.449,18.07143 -19.2499,-9.0252 -44.647,-28.49225 -52.449,-18.07143 z"
         style="fill:#000000;fill-opacity:1;fill-rule:evenodd;stroke:none;stroke-width:1px;marker:none;visibility:visible;display:inline;overflow:visible;enable-background:accumulate"
         inkscape:connector-curvature="0" />
      <path
         sodipodi:nodetypes="ccc"
         id="path4029-3-5"
         d="m 1248.527,416.83144 c 4.5812,-14.98081 33.3797,-0.59127 55.1109,5.22723 -20.7663,-4.2467 -49.8681,-17.20578 -55.1109,-5.22723 z"
         style="fill:#000000;fill-opacity:1;fill-rule:evenodd;stroke:none;stroke-width:1px;marker:none;visibility:visible;display:inline;overflow:visible;enable-background:accumulate"
         inkscape:connector-curvature="0" />
      <path
         sodipodi:nodetypes="ccc"
         id="path4031-6-7"
         d="m 1231.3017,411.89838 c -7.8349,-13.49814 -32.6143,7.28937 -52.4489,18.07143 19.2499,-9.0252 44.6469,-28.49225 52.4489,-18.07143 z"
         style="fill:#000000;fill-opacity:1;fill-rule:evenodd;stroke:none;stroke-width:1px;marker:none;visibility:visible;display:inline;overflow:visible;enable-background:accumulate"
         inkscape:connector-curvature="0" />
      <path
         sodipodi:nodetypes="ccccccccc"
         id="path3690-5-4"
         d="m 1326.931,291.35642 c -11.5796,1.89322 -20.5646,0.30482 -23.6827,-9.15573 l -3.3833,5.28997 c -12.1542,1.54567 -21.4252,-7.71664 -30.4493,-17.90454 -18.1553,0.67322 -17.5436,-11.46994 -14.528,-21.15992 -0.7757,5.40274 -15.8847,21.07968 14.329,21.97376 9.5862,14.27055 19.4045,19.82812 30.0513,15.66648 l 3.7812,-3.6623 c 1.1789,10.52028 10.5304,11.95873 23.8818,8.95228 z"
         style="fill:#000000;fill-rule:evenodd;stroke:#000000;stroke-width:0.39840606px;stroke-linecap:butt;stroke-linejoin:miter;stroke-opacity:1"
         inkscape:connector-curvature="0" />
      <path
         sodipodi:nodetypes="cccc"
         id="path3233-7-1"
         d="m 1216.7601,324.07124 c -2.5682,1.46416 0.1392,5.3555 0.4222,7.91276 l 4.7846,-3.30897 -5.2068,-4.60379 z"
         style="fill:#ffffff;fill-opacity:1;fill-rule:evenodd;stroke:#000000;stroke-width:1.19521809;stroke-linecap:butt;stroke-linejoin:miter;stroke-miterlimit:4;stroke-opacity:1;stroke-dasharray:none;stroke-dashoffset:0;marker:none;visibility:visible;display:inline;overflow:visible;enable-background:accumulate"
         inkscape:connector-curvature="0" />
      <path
         sodipodi:nodetypes="cccccccccccccccccccccccccccccccccccccccccccccccccccccccccccccccccccccccccccccccccccccccccccccccccccccccccccccccccccccccccccccc"
         id="path2383-4-8"
         d="m 1243.9419,241.4068 c -2.6876,-0.94863 -8.7734,-11.97224 -13.9311,-20.24434 l -8.9556,-3.6623 -3.3833,-4.47613 -6.5675,-3.05191 -1.9901,2.64499 7.5626,3.25537 4.5773,5.28998 7.9606,4.57786 4.5773,7.0194 c 2.0904,28.77122 4.5696,49.41522 -8.0256,72.82441 l 3.9403,6.61796 -7.0362,-11.79722 -3.9403,-16.97648 -2.8145,-16.68874 1.6887,-6.90569 9.5692,-8.34437 0.5629,-6.61795 -3.6588,0 -8.162,10.35853 -4.2218,1.15095 -3.0959,-10.64627 -1.1258,-11.22174 -3.6588,-6.04248 -3.3774,2.01416 3.3774,8.91985 3.0959,24.1699 -4.2217,0 -12.1024,-4.02832 -5.9104,-2.01416 -3.3774,2.01416 -13.5096,0.57548 -6.7547,-0.28774 1.6887,3.16511 4.2217,0 21.3901,1.15094 13.2282,6.33022 5.066,-3.74058 -3.6831,3.25339 c 10.4743,12.98275 12.8258,28.83216 15.6056,43.91261 l -6.0529,-0.0668 -2.6042,8.25162 c 5.5182,2.93424 7.5888,3.695 10.574,6.09272 l -6.2269,0.49931 c 3.9302,15.0305 4.6694,15.1892 2.2374,26.96753 l -12.7369,-6.51075 -1.1941,15.0561 5.1744,3.66229 c -1.0879,12.07201 -0.094,24.14401 -12.3389,36.21602 -8.3586,2.1506 -16.7173,-1.6394 -25.0759,-3.45884 l -5.1744,7.93497 -5.1743,-0.40692 -4.7764,6.10382 5.5724,-2.84845 6.7665,1.42423 5.5724,-5.49344 c 14.2157,3.88887 26.2415,10.65612 43.7833,10.17304 l -6.3685,11.80072 8.1596,7.93497 -3.5823,8.13843 9.7518,7.93496 0,2.84846 2.7862,-4.27268 -6.9656,-8.34189 5.7715,-5.08652 -3.5823,-4.47613 12.5379,-13.22495 -3.7812,-3.86576 3.9802,2.64499 16.5183,-3.66229 7.1645,1.83115 11.5428,-3.45884 16.1203,2.44153 10.3487,-5.08652 9.7517,4.47614 3.5823,4.27268 -2.9852,-8.54536 -10.5478,-7.52804 -8.5576,6.7142 -3.4516,-1.23522 c -7.6652,-3.43098 -7.7811,-6.8238 -11.3072,-13.42841 -5.2792,-25.0075 -10.0958,-49.05338 1.8594,-72.99304 l 26.6314,-48.05164 11.1448,-5.28998 6.9655,-4.6796 6.9655,-0.20346 7.3636,-2.84845 -1.1941,-1.42423 -6.7665,2.44153 -7.7616,0 -4.9753,2.44153 c 1.1313,-3.25316 1.7161,-6.84156 5.3733,-8.54535 l -2.1891,-1.0173 -6.5675,10.3765 -9.7517,4.06921 -7.5626,7.12112 0,-36.62293 -0.796,-7.32458 -1.7912,0 0.5971,8.13843 -0.5971,10.57995 -0.796,4.06922 -3.5823,-2.84845 -8.3586,-2.44153 -0.3981,1.42422 6.5675,1.83115 3.5823,3.45883 2.1892,10.3765 -1.5921,11.19034 -6.9656,15.66648 -16.9162,19.53223 -9.7518,-20.95645 -5.1743,-28.07759 0.796,-18.31146 14.3291,-17.49763 33.0364,-10.17304 -4.3783,-2.0346 -22.2896,5.6969 -13.9311,4.88306 -5.9704,8.95227 6.3685,-22.78761 0.398,-9.76611 -2.3882,0 -1.9901,14.24225 -3.9803,14.24225 -5.5724,8.24016 z"
         style="color:#000000;fill:#aa4400;fill-opacity:1;fill-rule:evenodd;stroke:#000000;stroke-width:1.58739734;stroke-linecap:butt;stroke-linejoin:miter;stroke-miterlimit:4;stroke-opacity:1;stroke-dasharray:none;stroke-dashoffset:0;marker:none;visibility:visible;display:inline;overflow:visible;enable-background:accumulate"
         inkscape:connector-curvature="0" />
      <path
         sodipodi:nodetypes="cccccccccccc"
         id="path2385-5-5"
         d="m 1221.4532,334.08317 c -5.7385,4.37405 -16.4362,1.65016 -24.6778,2.44153 l -1.5921,-1.22076 -1.7912,0.40692 -26.6679,-2.23807 -3.9803,-2.03461 -0.5971,3.45884 3.9803,1.42422 28.0611,2.44153 1.3931,2.23807 25.4739,6.7142 c 1.1079,-0.86804 1.9722,-2.90069 1.3931,-6.00209"
         style="color:#000000;fill:#aa4400;fill-opacity:1;fill-rule:evenodd;stroke:#000000;stroke-width:1.58739734;stroke-linecap:butt;stroke-linejoin:miter;stroke-miterlimit:4;stroke-opacity:1;stroke-dasharray:none;stroke-dashoffset:0;marker:none;visibility:visible;display:inline;overflow:visible;enable-background:accumulate"
         inkscape:connector-curvature="0" />
      <path
         sodipodi:nodetypes="ccccccc"
         id="path2387-2-9"
         d="m 1216.4778,355.54828 c 10.2814,3.25521 21.5323,5.79702 30.3498,1.42422 l 4.4778,2.84846 c 5.283,0.81325 7.7249,-2.43975 10.4483,-5.28999 -1.5143,3.46903 -4.9063,6.90858 -10.9458,5.90036 l -3.9803,-2.84844 c -9.8161,5.71511 -31.8605,0.31674 -30.3498,-2.03461 z"
         style="fill:#000000;fill-opacity:1;fill-rule:evenodd;stroke:none;stroke-width:1px;marker:none;visibility:visible;display:inline;overflow:visible;enable-background:accumulate"
         inkscape:connector-curvature="0" />
      <path
         sodipodi:nodetypes="ccccccccccc"
         id="path2389-5-7"
         d="m 1227.8417,319.16619 c -1.2368,2.54025 -0.6256,5.66184 -4.9754,7.22286 l 4.0798,3.25537 24.9764,-4.47614 9.0551,1.72942 c 3.1324,-0.3907 4.5648,-1.80151 4.5774,-3.25537 l -7.0651,-6.51074 4.8559,6.67681 c 4.0902,4.35785 -23.7491,2.78064 -35.6236,4.17095 l -3.5823,-1.62769 c 4.0336,-2.13495 2.4774,-4.78942 3.7018,-7.18547 z"
         style="fill:#000000;fill-opacity:1;fill-rule:evenodd;stroke:none;stroke-width:1px;marker:none;visibility:visible;display:inline;overflow:visible;enable-background:accumulate"
         inkscape:connector-curvature="0" />
      <path
         sodipodi:nodetypes="ccc"
         id="path2391-4-5"
         d="m 1228.9307,331.64477 c 5.7375,5.44198 18.6205,12.82151 30.8912,-5.91905 -9.7433,7.91177 -17.5691,22.88668 -30.8912,5.91905 z"
         style="fill:#000000;fill-opacity:1;fill-rule:evenodd;stroke:none;stroke-width:1px;marker:none;visibility:visible;display:inline;overflow:visible;enable-background:accumulate"
         inkscape:connector-curvature="0" />
      <path
         sodipodi:nodetypes="ccccccccccccccccccccccccccccccccccccccccccccccccccccccccccccccccccccccccccccccccccccccccccccccc"
         id="path2413-7-3"
         d="m 1156.6707,413.77322 4.7846,-4.31605 5.0661,0.86321 5.3476,-5.61087 9.4285,2.58963 -3.0959,-2.30189 9.71,3.45284 15.9019,2.7335 10.2729,-15.9694 0,-4.89152 4.2217,3.45284 0.9851,-17.55196 -0.4222,-6.04247 3.9403,8.77597 2.6737,-4.31605 4.2218,0.71934 2.9552,-16.11327 -0.7036,-12.66042 -2.8145,1.00708 1.8294,-4.31606 1.548,-5.17926 1.2665,1.00708 3.0959,-1.58255 -2.2516,-24.74538 -2.1108,-5.17927 5.629,5.467 2.1108,-11.07787 -0.7036,-9.49532 3.2367,3.45285 0,-31.79494 -1.8295,-8.34437 2.5331,3.02124 -1.4073,-12.37269 3.5182,0.43161 0.8443,-3.30898 4.5032,-1.43868 6.4733,-8.77598 -0.4221,2.87737 6.0511,-8.2005 31.1002,-9.06372 3.3774,0.71935 -32.6482,10.5024 -14.6353,17.40808 -0.9851,18.55903 5.0661,27.47888 9.9914,20.86093 2.8145,1.29482 0.1408,3.88444 1.8294,-4.89152 9.8507,-12.8043 -1.2665,5.467 9.0064,-15.68166 7.7398,-8.77597 0,1.58255 5.4883,-11.50948 14.4946,-5.75474 5.4883,-3.30897 10.2729,-0.86322 3.7996,-1.87029 0.985,1.15095 -7.3176,2.7335 -7.3177,0.14387 -18.2942,10.35853 -21.5309,38.55675 -6.0512,11.50948 c -3.5047,8.97002 -7.0759,17.84957 -6.1919,32.80201 0.4177,12.70839 2.2097,25.41676 5.629,38.12515 l 4.5032,8.2005 c 3.095,3.02353 6.5681,5.08106 10.4137,6.18634 l 8.4434,-6.90568 10.4137,7.91276 2.8144,7.7689 -3.3773,-3.74058 -9.9915,-4.17218 -9.9914,4.89152 -15.1983,-2.87737 -12.6652,3.59672 -6.8956,-1.8703 -16.1833,3.88445 -3.7996,-2.15803 2.9553,2.87738 -12.6653,13.52363 3.6418,4.56888 -5.6119,5.35805 7.0362,7.76889 -2.8798,4.64593 -0.4976,-2.9195 -9.5692,-7.7689 4.081,-8.63211 -8.3269,-7.56543 6.9126,-12.08495 c -12.8431,2.46327 -29.236,-5.00077 -44.1805,-9.69879 l -5.7697,5.75474 -6.6141,-2.01416 -4.2217,2.58963 z"
         style="opacity:0.2232143;fill:#000000;fill-rule:evenodd;stroke:none"
         inkscape:connector-curvature="0" />
      <path
         sodipodi:nodetypes="ccccccccccccccccccccccccccccccccccccccccccccccccccccccccccsccsscccccccccc"
         id="path3167-4-8"
         d="m 1224.9221,455.78282 0.7037,-3.59671 -7.8806,-8.77598 1.1258,0.43161 3.7996,-6.76182 -0.8444,3.30897 2.8145,-2.30189 -6.1919,-7.91277 3.9403,-0.14387 2.533,-6.76181 -0.2814,3.45284 5.9104,-5.0354 -2.8145,-10.79013 8.725,5.75473 13.9317,-9.35144 -1.2665,3.59671 2.533,0.28774 5.3476,-7.7689 -5.9105,-30.21238 4.6439,7.62503 -4.081,-19.27838 4.6439,-6.18634 -1.6887,-18.41517 -8.5842,-13.6675 -3.7995,-2.7335 7.5991,2.30189 4.081,4.31606 -6.614,-19.27838 5.3475,7.33729 -4.5032,-20.57319 -0.1407,-5.03539 1.8294,4.60379 -3.6588,-27.47888 0.4221,-18.7029 0.9851,9.63919 0.7036,-10.64627 10.6951,-11.36561 -8.5842,11.94108 -0.5629,17.55196 5.2068,28.34208 9.8507,21.29254 0.5629,3.30897 1.6887,-3.02123 -0.1407,8.34437 9.1471,-14.96232 -3.2367,11.50948 13.0875,-20.14159 -1.9702,4.74766 6.7548,-11.36561 -0.1407,-2.7335 1.5479,2.87737 -18.7163,34.81617 c -6.7296,21.00748 -8.0367,43.18697 0.1407,68.62526 3.8871,6.70876 7.7877,13.39745 15.339,14.67458 l 7.3177,-3.30897 4.081,2.44576 -1.2666,-2.7335 6.8956,5.467 c 0,0 4.7846,6.90569 4.2217,6.33021 -0.5629,-0.57547 -4.081,-3.88444 -4.081,-3.88444 l -8.8657,-3.59672 c 0,0 -9.4285,4.6038 -10.8358,4.6038 -1.4072,0 -13.791,-2.73351 -15.339,-2.73351 -1.5479,0 -11.5394,4.45993 -11.5394,4.45993 l -8.162,-2.7335 -14.3539,3.88444 -2.6738,-0.28773 0.4222,1.87029 -11.1173,12.51655 2.9552,4.89153 -5.7697,4.45992 6.7548,8.48824 -2.6738,4.17219 z"
         style="opacity:0.2232143;fill:#000000;fill-opacity:1;fill-rule:evenodd;stroke:none;stroke-width:3;marker:none;visibility:visible;display:inline;overflow:visible;enable-background:accumulate"
         inkscape:connector-curvature="0" />
      <path
         id="path3169-4-8"
         d="m 1206.4276,366.43343 13.2345,5.28998 -11.9409,-3.3571 -1.2936,-1.93288 z"
         style="fill:#000000;fill-rule:evenodd;stroke:#000000;stroke-width:0.39840606px;stroke-linecap:butt;stroke-linejoin:miter;stroke-opacity:1"
         inkscape:connector-curvature="0" />
      <path
         sodipodi:nodetypes="ccc"
         id="path3171-3-3"
         d="m 1229.5133,359.51577 -1.2936,10.17303 c 0.3052,-3.51982 3.3743,-12.07773 1.2936,-10.17303 z"
         style="fill:#000000;fill-rule:evenodd;stroke:none"
         inkscape:connector-curvature="0" />
      <path
         sodipodi:nodetypes="ccc"
         id="path3173-0-1"
         d="m 1246.6376,357.93133 -0.3023,5.55011 c 0.028,-1.91451 1.3524,-6.66421 0.3023,-5.55011 z"
         style="fill:#000000;fill-rule:evenodd;stroke:none"
         inkscape:connector-curvature="0" />
      <path
         sodipodi:nodetypes="ccc"
         id="path3175-7-8"
         d="m 1213.3223,354.50728 -0.9943,7.81924 c 0.2346,-2.70542 2.5936,-9.28324 0.9943,-7.81924 z"
         style="fill:#000000;fill-rule:evenodd;stroke:none"
         inkscape:connector-curvature="0" />
      <path
         sodipodi:nodetypes="ccc"
         id="path3177-8-9"
         d="m 1215.3589,370.41039 -1.2936,10.17304 c 0.3052,-3.51983 3.3744,-12.07774 1.2936,-10.17304 z"
         style="fill:#000000;fill-rule:evenodd;stroke:none"
         inkscape:connector-curvature="0" />
      <path
         sodipodi:nodetypes="ccc"
         id="path3179-6-6"
         d="m 1217.6138,417.54965 2.4908,-19.58822 c -0.5877,6.77744 -6.4973,23.25573 -2.4908,19.58822 z"
         style="fill:#000000;fill-rule:evenodd;stroke:none"
         inkscape:connector-curvature="0" />
      <path
         sodipodi:nodetypes="cccccssccccccccc"
         id="path3181-8-4"
         d="m 1221.9669,341.98286 -3.0959,-2.30189 1.1258,2.73349 -12.2431,-3.45284 -8.5842,-0.57547 c 0,0 7.8806,3.45284 7.0363,3.1651 -0.8444,-0.28773 -7.7399,-1.29481 -8.5842,-1.58255 -0.8444,-0.28773 -3.6589,-3.45284 -3.6589,-3.45284 l -18.9978,-0.86321 -8.0213,-0.71935 -4.6439,-0.71934 3.6588,1.87029 27.8635,2.87737 1.9701,2.58963 25.3305,5.89861 c 0.8735,-1.82233 1.5421,-3.64467 0.8443,-5.467 z"
         style="opacity:0.2232143;fill:#000000;fill-opacity:1;fill-rule:evenodd;stroke:none;stroke-width:3;marker:none;visibility:visible;display:inline;overflow:visible;enable-background:accumulate"
         inkscape:connector-curvature="0" />
      <path
         sodipodi:nodetypes="ccc"
         id="path3183-8-3"
         d="m 1222.6928,344.61104 -5.4289,-0.30903 c 1.8727,0.0283 6.5186,1.38261 5.4289,0.30903 z"
         style="fill:#000000;fill-rule:evenodd;stroke:none"
         inkscape:connector-curvature="0" />
      <path
         sodipodi:nodetypes="ccc"
         id="path3185-4-3"
         d="m 1222.7811,344.56913 -3.2436,9.87787 c 1.2523,-3.35297 2.172,-12.56311 3.2436,-9.87787 z"
         style="fill:#000000;fill-rule:evenodd;stroke:none"
         inkscape:connector-curvature="0" />
      <path
         sodipodi:nodetypes="ccc"
         id="path3187-3-3"
         d="m 1222.8981,434.04277 0.5153,-9.46067 c -0.047,3.26346 -2.3053,11.35974 -0.5153,9.46067 z"
         style="fill:#000000;fill-rule:evenodd;stroke:none"
         inkscape:connector-curvature="0" />
      <path
         sodipodi:nodetypes="ccc"
         id="path3189-1-8"
         d="m 1251.3245,415.56204 -1.1542,-21.19231 c 0.1056,7.31028 5.164,25.44632 1.1542,21.19231 z"
         style="fill:#000000;fill-rule:evenodd;stroke:none"
         inkscape:connector-curvature="0" />
      <path
         sodipodi:nodetypes="ccc"
         id="path3191-4-6"
         d="m 1230.6552,312.04206 4.1261,-26.52322 c -0.1328,9.1988 -7.6237,28.71109 -4.1261,26.52322 z"
         style="fill:#000000;fill-rule:evenodd;stroke:none"
         inkscape:connector-curvature="0" />
      <path
         sodipodi:nodetypes="ccc"
         id="path3193-9-0"
         d="m 1253.5636,325.77572 -6.9307,-40.93293 c 0.2049,14.19639 10.077,42.29529 6.9307,40.93293 z"
         style="fill:#000000;fill-rule:evenodd;stroke:none"
         inkscape:connector-curvature="0" />
      <path
         sodipodi:nodetypes="ccc"
         id="path3195-2-4"
         d="m 1271.0009,414.82283 c -3.3025,-20.76059 -9.2765,-41.2177 -8.2842,-62.46614 -4.0686,21.85975 13.0387,64.5249 8.2842,62.46614 z"
         style="fill:#000000;fill-rule:evenodd;stroke:none"
         inkscape:connector-curvature="0" />
      <path
         sodipodi:nodetypes="ccc"
         id="path3197-0-8"
         d="m 1297.6264,411.63721 0.5358,-3.9021 c -0.049,1.34603 -2.3971,4.68538 -0.5358,3.9021 z"
         style="fill:#000000;fill-rule:evenodd;stroke:none"
         inkscape:connector-curvature="0" />
      <path
         sodipodi:nodetypes="ccc"
         id="path3199-6-8"
         d="m 1297.4782,412.11912 2.4732,-3.02216 c -0.7379,1.11591 -4.4581,2.68066 -2.4732,3.02216 z"
         style="fill:#000000;fill-rule:evenodd;stroke:none"
         inkscape:connector-curvature="0" />
      <path
         sodipodi:nodetypes="ccc"
         id="path3201-8-8"
         d="m 1287.4174,417.15631 0.5358,-3.9021 c -0.049,1.34602 -2.3971,4.68538 -0.5358,3.9021 z"
         style="fill:#000000;fill-rule:evenodd;stroke:none"
         inkscape:connector-curvature="0" />
      <path
         sodipodi:nodetypes="ccc"
         id="path3203-9-9"
         d="m 1203.3761,416.06817 c 0.3944,-3.08612 0.6178,-6.20719 2.2884,-9.03238 -1.3265,3.19749 -4.2087,10.79018 -2.2884,9.03238 z"
         style="fill:#000000;fill-rule:evenodd;stroke:none"
         inkscape:connector-curvature="0" />
      <path
         sodipodi:nodetypes="ccc"
         id="path3205-2-7"
         d="m 1250.4364,359.54016 -0.3302,-12.96429 c 0.067,4.61239 1.268,13.41027 0.3302,12.96429 z"
         style="fill:#000000;fill-rule:evenodd;stroke:none"
         inkscape:connector-curvature="0" />
      <path
         sodipodi:nodetypes="ccc"
         id="path3207-6-7"
         d="m 1244.6915,336.69637 0.6326,10.23823 c -0.3586,-3.51455 1.0536,-12.51448 -0.6326,-10.23823 z"
         style="fill:#000000;fill-rule:evenodd;stroke:none"
         inkscape:connector-curvature="0" />
      <path
         sodipodi:nodetypes="cccc"
         id="path3209-6-6"
         d="m 1228.0207,339.88181 c 11.7803,0.56697 24.2155,6.93617 34.529,-5.49345 -10.8455,13.99476 -22.3986,6.64985 -33.7329,5.90037 l -0.7961,-0.40692 z"
         style="fill:#000000;fill-opacity:1;fill-rule:evenodd;stroke:none;stroke-width:1px;marker:none;visibility:visible;display:inline;overflow:visible;enable-background:accumulate"
         inkscape:connector-curvature="0" />
      <path
         sodipodi:nodetypes="ccc"
         id="path3211-4-4"
         d="m 1254.0014,341.30777 4.5938,2.94611 c -1.6216,-0.94788 -5.0388,-4.42059 -4.5938,-2.94611 z"
         style="fill:#000000;fill-rule:evenodd;stroke:none"
         inkscape:connector-curvature="0" />
      <path
         sodipodi:nodetypes="ccc"
         id="path3213-9-3"
         d="m 1250.1765,342.69382 6.8089,9.7934 c -2.4782,-3.27264 -6.5041,-13.12307 -6.8089,-9.7934 z"
         style="fill:#000000;fill-rule:evenodd;stroke:none"
         inkscape:connector-curvature="0" />
      <path
         sodipodi:nodetypes="ccc"
         id="path3215-5-0"
         d="m 1242.5082,295.05711 1.3187,-41.51977 c 1.7202,14.08859 -4.2501,43.31449 -1.3187,41.51977 z"
         style="fill:#000000;fill-rule:evenodd;stroke:none"
         inkscape:connector-curvature="0" />
      <path
         sodipodi:nodetypes="ccc"
         id="path3217-0-3"
         d="m 1269.1296,320.97022 21.8583,-35.01911 c -5.5527,13.01365 -25.2751,35.03329 -21.8583,35.01911 z"
         style="fill:#000000;fill-rule:evenodd;stroke:none"
         inkscape:connector-curvature="0" />
      <path
         sodipodi:nodetypes="ccc"
         id="path3219-4-0"
         d="m 1221.6241,315.46127 -6.9307,-40.93292 c 0.2049,14.19638 10.077,42.29529 6.9307,40.93292 z"
         style="fill:#000000;fill-rule:evenodd;stroke:none"
         inkscape:connector-curvature="0" />
      <path
         sodipodi:nodetypes="ccccccccccccccccccccccccc"
         id="path3221-8-9"
         d="m 1218.866,314.7544 2.7862,2.23807 0,-2.84845 -3.5822,-19.73569 -0.5971,4.06921 -5.3734,-22.38068 0.5971,-13.42841 -3.5823,5.6969 -0.398,-14.64917 -3.9803,-17.90454 -4.1793,-4.88306 3.7812,9.15573 2.7862,23.60144 0,3.45884 -4.1793,2.23807 -12.1399,-7.12113 -11.3438,-2.03461 4.1793,2.44153 -14.329,-1.0173 -7.3636,-1.01731 0.5971,2.44154 25.0758,1.0173 14.13,6.91766 1.9902,-0.81384 c 11.772,15.66213 11.6979,29.89945 15.1251,44.5579 z"
         style="opacity:0.2232143;fill:#000000;fill-opacity:1;fill-rule:evenodd;stroke:none;stroke-width:3;marker:none;visibility:visible;display:inline;overflow:visible;enable-background:accumulate"
         inkscape:connector-curvature="0" />
      <path
         id="path3336-7-2"
         d="m 1218.2377,326.01346 0.6157,-5.98853 -0.5453,2.03215 -0.5981,-1.99618 0.088,-2.05013 -0.3166,1.11499 -0.4398,-2.57165 -0.6332,3.30897 -0.2287,0.71934 0,-2.01416 -0.7564,2.49972 0.1935,-5.59289 -0.862,2.6256 -0.1055,-3.65066 -1.8646,-0.12588 -2.6562,7.62503 8.1093,4.06428 z"
         style="opacity:0.2232143;fill:#000000;fill-opacity:1;fill-rule:evenodd;stroke:none;stroke-width:3;marker:none;visibility:visible;display:inline;overflow:visible;enable-background:accumulate"
         inkscape:connector-curvature="0" />
      <path
         sodipodi:nodetypes="cccccccccccccccccc"
         id="path3223-1-5"
         d="m 1218.871,314.21624 1.6887,0.71935 -2.3923,-14.24298 -0.7037,1.15095 -4.081,-16.25714 -4.6439,-11.94108 -1.8294,-4.74766 -0.2815,2.7335 -3.9403,-4.45992 -7.7398,-4.74767 -10.4136,-2.15802 0.8443,0.86321 -3.0959,0.71934 -16.4648,0.43161 22.5159,1.43868 12.6653,6.76182 2.2515,-0.43161 c 11.8406,14.72254 11.6314,29.44508 15.6205,44.16762 z"
         style="opacity:0.2232143;fill:#000000;fill-opacity:1;fill-rule:evenodd;stroke:none;stroke-width:3;marker:none;visibility:visible;display:inline;overflow:visible;enable-background:accumulate"
         inkscape:connector-curvature="0" />
      <path
         sodipodi:nodetypes="ccc"
         id="path3225-7-4"
         d="m 1210.6598,253.88314 2.8281,12.27264 c -1.1423,-4.18314 -1.2432,-15.38565 -2.8281,-12.27264 z"
         style="fill:#000000;fill-rule:evenodd;stroke:none"
         inkscape:connector-curvature="0" />
      <path
         id="path3227-2-0"
         d="m 1227.1034,245.51905 -2.1813,5.39507 -2.3923,1.87029 0.774,-2.7335 -6.0511,7.9847 -1.4073,0 -0.07,7.9847 2.6034,-6.97762 8.936,-7.1215 -0.211,-6.40214 z"
         style="opacity:0.2232143;fill:#000000;fill-opacity:1;fill-rule:evenodd;stroke:none;stroke-width:3;marker:none;visibility:visible;display:inline;overflow:visible;enable-background:accumulate"
         inkscape:connector-curvature="0" />
      <path
         sodipodi:nodetypes="ccc"
         id="path3229-7-5"
         d="m 1228.6972,331.95917 c 13.9316,8.22919 20.717,-0.14591 29.1557,-4.67959 -9.3171,6.38221 -18.7897,10.89687 -29.1557,4.67959 z"
         style="fill:#000000;fill-opacity:1;fill-rule:evenodd;stroke:none;stroke-width:1px;marker:none;visibility:visible;display:inline;overflow:visible;enable-background:accumulate"
         inkscape:connector-curvature="0" />
      <path
         sodipodi:nodetypes="ccc"
         id="path3231-2-9"
         d="m 1229.0741,329.30184 c 3.8207,6.40843 16.2436,7.55572 29.7527,-2.64498 -9.2966,-1.86936 -19.7377,1.33156 -29.7527,2.64498 z"
         style="fill:#e6e6e6;fill-rule:evenodd;stroke:#000000;stroke-width:0.39840606px;stroke-linecap:butt;stroke-linejoin:miter;stroke-opacity:1"
         inkscape:connector-curvature="0" />
      <path
         id="path3235-2-4"
         d="m 1222.0502,347.81677 -3.3832,6.20556 0,-3.45884 -1.3931,4.88306 0.597,-8.0367 4.1793,0.40692 z"
         style="opacity:0.2232143;fill:#000000;fill-opacity:1;fill-rule:evenodd;stroke:none;stroke-width:3;marker:none;visibility:visible;display:inline;overflow:visible;enable-background:accumulate"
         inkscape:connector-curvature="0" />
      <path
         id="path3237-6-6"
         d="m 1214.9307,370.82849 -4.0107,5.82667 0.2111,-4.53186 -2.533,7.5531 -1.1258,1.94222 1.0554,-4.17218 -2.1812,4.67572 1.548,-13.95524 7.0362,2.66157 z"
         style="opacity:0.2232143;fill:#000000;fill-opacity:1;fill-rule:evenodd;stroke:none;stroke-width:3;marker:none;visibility:visible;display:inline;overflow:visible;enable-background:accumulate"
         inkscape:connector-curvature="0" />
      <path
         id="path3239-1-9"
         d="m 1219.3635,371.6917 -3.0959,-4.31605 -1.2665,1.07901 -0.3519,-4.96346 -0.8443,3.95638 -1.8294,-1.79836 -2.322,0.14387 -0.9147,-8.99178 -2.6034,6.83375 -0.3518,-1.36675 -0.5629,0.71935 -1.1962,-11.36561 -1.2665,12.58849 5.2068,3.74058 11.3987,3.74058 z"
         style="opacity:0.1205357;fill:#000000;fill-opacity:1;fill-rule:evenodd;stroke:none;stroke-width:3;marker:none;visibility:visible;display:inline;overflow:visible;enable-background:accumulate"
         inkscape:connector-curvature="0" />
      <path
         sodipodi:nodetypes="ccc"
         id="path3241-0-2"
         d="m 1206.4773,366.21684 2.1201,-9.04212 c -0.2346,2.70542 -3.7194,10.50612 -2.1201,9.04212 z"
         style="fill:#000000;fill-rule:evenodd;stroke:none"
         inkscape:connector-curvature="0" />
      <path
         sodipodi:nodetypes="ccc"
         id="path3243-6-2"
         d="m 1173.7424,407.28282 0.5358,-3.9021 c -0.049,1.34603 -2.397,4.68538 -0.5358,3.9021 z"
         style="fill:#000000;fill-rule:evenodd;stroke:none"
         inkscape:connector-curvature="0" />
      <path
         sodipodi:nodetypes="ccc"
         id="path3245-1-4"
         d="m 1173.5943,407.76472 2.4732,-3.02215 c -0.7379,1.11591 -4.4581,2.68066 -2.4732,3.02215 z"
         style="fill:#000000;fill-rule:evenodd;stroke:none"
         inkscape:connector-curvature="0" />
      <path
         sodipodi:nodetypes="ccc"
         id="path3247-5-7"
         d="m 1167.2513,412.82176 -0.5357,-3.9021 c 0.049,1.34603 2.397,4.68538 0.5357,3.9021 z"
         style="fill:#000000;fill-rule:evenodd;stroke:none"
         inkscape:connector-curvature="0" />
      <path
         sodipodi:nodetypes="ccc"
         id="path3249-9-7"
         d="m 1167.3995,413.30366 -2.4732,-3.02215 c 0.7379,1.11591 4.4581,2.68066 2.4732,3.02215 z"
         style="fill:#000000;fill-rule:evenodd;stroke:none"
         inkscape:connector-curvature="0" />
      <path
         sodipodi:nodetypes="ccc"
         id="path3251-4-5"
         d="m 1231.7206,419.04911 c 2.8345,-17.81862 7.9619,-35.37674 7.1102,-53.61404 3.4921,18.76198 -11.1909,55.38105 -7.1102,53.61404 z"
         style="fill:#000000;fill-rule:evenodd;stroke:none"
         inkscape:connector-curvature="0" />
      <path
         id="path3253-9-4"
         d="m 1262.7488,312.51633 -0.9951,3.96749 -2.8857,-1.01731 6.4679,7.83324 3.6818,-6.81593 -1.9901,0.50865 2.5872,-1.72942 0,-1.62768 -1.1941,1.32249 -0.2985,-3.76402 -3.8808,3.45883 -1.4927,-2.13634 z"
         style="opacity:0.2232143;fill:#000000;fill-opacity:1;fill-rule:evenodd;stroke:none;stroke-width:3;marker:none;visibility:visible;display:inline;overflow:visible;enable-background:accumulate"
         inkscape:connector-curvature="0" />
      <path
         id="path3255-0-8"
         d="m 1231.7025,424.01282 -2.3882,-6.20555 0.796,0.71211 -0.398,-2.13634 -1.4926,-1.22076 -1.2936,-4.78133 2.1892,2.74672 0.1,-3.45883 1.1941,3.56056 2.0896,-0.30519 1.3931,2.44153 1.6916,-2.74672 0.7961,3.96748 4.0798,2.13634 -4.9754,0.61038 0,1.93288 -3.7812,2.74672 z"
         style="opacity:0.2232143;fill:#000000;fill-opacity:1;fill-rule:evenodd;stroke:none;stroke-width:3;marker:none;visibility:visible;display:inline;overflow:visible;enable-background:accumulate"
         inkscape:connector-curvature="0" />
      <path
         id="path3257-9-1"
         d="m 1248.9172,416.17958 1.1941,-5.18825 0.7961,0.20346 0.597,-2.74672 2.6867,5.39171 0.199,-1.42422 4.5774,5.18825 -5.871,-1.3225 -4.1793,-0.10173 z"
         style="opacity:0.2232143;fill:#000000;fill-opacity:1;fill-rule:evenodd;stroke:none;stroke-width:3;marker:none;visibility:visible;display:inline;overflow:visible;enable-background:accumulate"
         inkscape:connector-curvature="0" />
      <path
         id="path3259-1-2"
         d="m 1265.933,415.87439 3.3832,-12.4111 1.0946,4.78132 1.5921,-3.15364 3.4828,5.79863 1.2936,-1.42422 c 0,0 3.1842,6.10382 2.5872,5.90036 -0.5971,-0.20346 -7.6621,-1.11904 -7.6621,-1.11904 l -5.7714,1.62769 z"
         style="opacity:0.2232143;fill:#000000;fill-opacity:1;fill-rule:evenodd;stroke:none;stroke-width:3;marker:none;visibility:visible;display:inline;overflow:visible;enable-background:accumulate"
         inkscape:connector-curvature="0" />
      <path
         sodipodi:nodetypes="ccc"
         id="path3261-7-8"
         d="m 1256.7922,402.92274 c -1.5581,-9.795 -4.3767,-19.4468 -3.9085,-29.47193 -1.9196,10.31355 6.1517,30.44326 3.9085,29.47193 z"
         style="fill:#000000;fill-rule:evenodd;stroke:none"
         inkscape:connector-curvature="0" />
      <g
         transform="matrix(0.39402899,0,0,0.40283172,1121.3488,166.51884)"
         id="g3273-7-9">
        <path
           style="fill:#668000;fill-opacity:1;fill-rule:evenodd;stroke:#000000;stroke-width:1.29999995;stroke-linecap:butt;stroke-linejoin:miter;stroke-miterlimit:4;stroke-opacity:1;stroke-dasharray:none;stroke-dashoffset:0;marker:none;visibility:visible;display:inline;overflow:visible;enable-background:accumulate"
           d="m 113.92857,414.1479 c -3.08242,-10.54373 -3.46385,-19.31785 7.14285,-20.89285 4.65626,8.01278 -2.15177,14.16211 -5.35714,21.24999 -1.07836,-2.85541 -0.43736,-6.14066 0.35714,-9.46428 l -2.14285,9.10714 z"
           id="path3263-1-3"
           sodipodi:nodetypes="ccccc"
           inkscape:connector-curvature="0" />
        <path
           style="opacity:0.2232143;fill:#000000;fill-opacity:1;fill-rule:evenodd;stroke:none;stroke-width:3;marker:none;visibility:visible;display:inline;overflow:visible;enable-background:accumulate"
           d="m 120.53571,394.19254 -1.16071,8.66072 -1.33929,1.96428 0.22322,-3.25893 -1.38393,3.30358 -1.42857,2.09821 0,6.5625 4.6875,-6.78571 c 3.23319,-7.5471 1.57752,-11.74822 0.40178,-12.54465 z"
           id="path3265-1-6"
           sodipodi:nodetypes="ccccccccc"
           inkscape:connector-curvature="0" />
        <path
           style="opacity:0.2232143;fill:#000000;fill-opacity:1;fill-rule:evenodd;stroke:none;stroke-width:3;marker:none;visibility:visible;display:inline;overflow:visible;enable-background:accumulate"
           d="m 120.98214,394.70594 c 0.25197,3.52553 0.49699,7.05059 -1.80803,10.40178 l -1.89732,1.54018 -0.53572,-6.16071 -1.38393,6.29464 0.69197,6.36161 5.71428,-10.49108 c 1.02412,-3.73871 0.10952,-5.83246 -0.78125,-7.94642 z"
           id="path3267-5-8"
           sodipodi:nodetypes="cccccccc"
           inkscape:connector-curvature="0" />
        <path
           style="fill:#000000;fill-opacity:1;fill-rule:evenodd;stroke:none;stroke-width:3;marker:none;visibility:visible;display:inline;overflow:visible;enable-background:accumulate"
           d="m 115.40992,405.42262 c -0.3423,-0.69448 2.0828,-5.71368 2.27285,-5.71368 l -1.07329,5.5874 -1.19956,0.12628 z"
           id="path3269-9-0"
           sodipodi:nodetypes="cccc"
           inkscape:connector-curvature="0" />
        <path
           style="opacity:0.2232143;fill:#000000;fill-opacity:1;fill-rule:evenodd;stroke:none;stroke-width:3;marker:none;visibility:visible;display:inline;overflow:visible;enable-background:accumulate"
           d="m 117.63393,409.95147 c 0,-0.35714 1.02678,-3.30357 1.02678,-3.30357 l -1.96428,2.14286 0,-1.69643 -0.40179,0.0893 0.0893,-3.75 -1.60714,3.48215 -0.13393,-1.74107 -1.16072,2.32142 -0.66964,-0.49107 0.75893,5.22322 c 0,0 2.58928,1.60714 2.76786,1.20535 0.17857,-0.40178 1.38392,-3.57142 1.29464,-3.48214 z"
           id="path3271-7-2"
           inkscape:connector-curvature="0" />
      </g>
      <g
         transform="matrix(-0.34818226,0.18858772,0.18446668,0.35596076,1158.5017,165.9608)"
         id="g3280-7-1">
        <path
           style="fill:#668000;fill-opacity:1;fill-rule:evenodd;stroke:#000000;stroke-width:1.29999995;stroke-linecap:butt;stroke-linejoin:miter;stroke-miterlimit:4;stroke-opacity:1;stroke-dasharray:none;stroke-dashoffset:0;marker:none;visibility:visible;display:inline;overflow:visible;enable-background:accumulate"
           d="m 113.92857,414.1479 c -3.08242,-10.54373 -3.46385,-19.31785 7.14285,-20.89285 4.65626,8.01278 -2.15177,14.16211 -5.35714,21.24999 -1.07836,-2.85541 -0.43736,-6.14066 0.35714,-9.46428 l -2.14285,9.10714 z"
           id="path3282-6-0"
           sodipodi:nodetypes="ccccc"
           inkscape:connector-curvature="0" />
        <path
           style="opacity:0.2232143;fill:#000000;fill-opacity:1;fill-rule:evenodd;stroke:none;stroke-width:3;marker:none;visibility:visible;display:inline;overflow:visible;enable-background:accumulate"
           d="m 120.53571,394.19254 -1.16071,8.66072 -1.33929,1.96428 0.22322,-3.25893 -1.38393,3.30358 -1.42857,2.09821 0,6.5625 4.6875,-6.78571 c 3.23319,-7.5471 1.57752,-11.74822 0.40178,-12.54465 z"
           id="path3284-7-5"
           sodipodi:nodetypes="ccccccccc"
           inkscape:connector-curvature="0" />
        <path
           style="opacity:0.2232143;fill:#000000;fill-opacity:1;fill-rule:evenodd;stroke:none;stroke-width:3;marker:none;visibility:visible;display:inline;overflow:visible;enable-background:accumulate"
           d="m 120.98214,394.70594 c 0.25197,3.52553 0.49699,7.05059 -1.80803,10.40178 l -1.89732,1.54018 -0.53572,-6.16071 -1.38393,6.29464 0.69197,6.36161 5.71428,-10.49108 c 1.02412,-3.73871 0.10952,-5.83246 -0.78125,-7.94642 z"
           id="path3286-3-1"
           sodipodi:nodetypes="cccccccc"
           inkscape:connector-curvature="0" />
        <path
           style="fill:#000000;fill-opacity:1;fill-rule:evenodd;stroke:none;stroke-width:3;marker:none;visibility:visible;display:inline;overflow:visible;enable-background:accumulate"
           d="m 115.40992,405.42262 c -0.3423,-0.69448 2.0828,-5.71368 2.27285,-5.71368 l -1.07329,5.5874 -1.19956,0.12628 z"
           id="path3288-6-1"
           sodipodi:nodetypes="cccc"
           inkscape:connector-curvature="0" />
        <path
           style="opacity:0.2232143;fill:#000000;fill-opacity:1;fill-rule:evenodd;stroke:none;stroke-width:3;marker:none;visibility:visible;display:inline;overflow:visible;enable-background:accumulate"
           d="m 117.63393,409.95147 c 0,-0.35714 1.02678,-3.30357 1.02678,-3.30357 l -1.96428,2.14286 0,-1.69643 -0.40179,0.0893 0.0893,-3.75 -1.60714,3.48215 -0.13393,-1.74107 -1.16072,2.32142 -0.66964,-0.49107 0.75893,5.22322 c 0,0 2.58928,1.60714 2.76786,1.20535 0.17857,-0.40178 1.38392,-3.57142 1.29464,-3.48214 z"
           id="path3290-5-0"
           inkscape:connector-curvature="0" />
      </g>
      <g
         transform="matrix(0.14592643,0.37418817,0.36601136,-0.14918647,997.63292,355.01876)"
         id="g3292-6-8">
        <path
           style="fill:#668000;fill-opacity:1;fill-rule:evenodd;stroke:#000000;stroke-width:1.29999995;stroke-linecap:butt;stroke-linejoin:miter;stroke-miterlimit:4;stroke-opacity:1;stroke-dasharray:none;stroke-dashoffset:0;marker:none;visibility:visible;display:inline;overflow:visible;enable-background:accumulate"
           d="m 113.92857,414.1479 c -3.08242,-10.54373 -3.46385,-19.31785 7.14285,-20.89285 4.65626,8.01278 -2.15177,14.16211 -5.35714,21.24999 -1.07836,-2.85541 -0.43736,-6.14066 0.35714,-9.46428 l -2.14285,9.10714 z"
           id="path3294-3-5"
           sodipodi:nodetypes="ccccc"
           inkscape:connector-curvature="0" />
        <path
           style="opacity:0.2232143;fill:#000000;fill-opacity:1;fill-rule:evenodd;stroke:none;stroke-width:3;marker:none;visibility:visible;display:inline;overflow:visible;enable-background:accumulate"
           d="m 120.53571,394.19254 -1.16071,8.66072 -1.33929,1.96428 0.22322,-3.25893 -1.38393,3.30358 -1.42857,2.09821 0,6.5625 4.6875,-6.78571 c 3.23319,-7.5471 1.57752,-11.74822 0.40178,-12.54465 z"
           id="path3296-9-0"
           sodipodi:nodetypes="ccccccccc"
           inkscape:connector-curvature="0" />
        <path
           style="opacity:0.2232143;fill:#000000;fill-opacity:1;fill-rule:evenodd;stroke:none;stroke-width:3;marker:none;visibility:visible;display:inline;overflow:visible;enable-background:accumulate"
           d="m 120.98214,394.70594 c 0.25197,3.52553 0.49699,7.05059 -1.80803,10.40178 l -1.89732,1.54018 -0.53572,-6.16071 -1.38393,6.29464 0.69197,6.36161 5.71428,-10.49108 c 1.02412,-3.73871 0.10952,-5.83246 -0.78125,-7.94642 z"
           id="path3298-4-6"
           sodipodi:nodetypes="cccccccc"
           inkscape:connector-curvature="0" />
        <path
           style="fill:#000000;fill-opacity:1;fill-rule:evenodd;stroke:none;stroke-width:3;marker:none;visibility:visible;display:inline;overflow:visible;enable-background:accumulate"
           d="m 115.40992,405.42262 c -0.3423,-0.69448 2.0828,-5.71368 2.27285,-5.71368 l -1.07329,5.5874 -1.19956,0.12628 z"
           id="path3300-8-4"
           sodipodi:nodetypes="cccc"
           inkscape:connector-curvature="0" />
        <path
           style="opacity:0.2232143;fill:#000000;fill-opacity:1;fill-rule:evenodd;stroke:none;stroke-width:3;marker:none;visibility:visible;display:inline;overflow:visible;enable-background:accumulate"
           d="m 117.63393,409.95147 c 0,-0.35714 1.02678,-3.30357 1.02678,-3.30357 l -1.96428,2.14286 0,-1.69643 -0.40179,0.0893 0.0893,-3.75 -1.60714,3.48215 -0.13393,-1.74107 -1.16072,2.32142 -0.66964,-0.49107 0.75893,5.22322 c 0,0 2.58928,1.60714 2.76786,1.20535 0.17857,-0.40178 1.38392,-3.57142 1.29464,-3.48214 z"
           id="path3302-1-6"
           inkscape:connector-curvature="0" />
      </g>
      <path
         sodipodi:nodetypes="ccccccc"
         id="path3304-2-2"
         d="m 1262.6389,385.47846 c -1.2616,3.75474 0.7442,4.78714 3.3253,6.43365 4.6646,-5.11148 0.1477,-8.20519 -0.2309,-12.20835 -4.6973,1.92547 -0.4611,12.39737 0.7902,8.07868 -1.6754,3.05775 -4.8146,-6.58208 -0.9525,-6.87545 1.3313,3.27924 3.1953,6.51303 0.4707,10.13897 -3.41,-0.27859 -3.6818,-3.70572 -3.4028,-5.5675 z"
         style="fill:#000000;fill-opacity:1;fill-rule:evenodd;stroke:none;stroke-width:1px;marker:none;visibility:visible;display:inline;overflow:visible;enable-background:accumulate"
         inkscape:connector-curvature="0" />
      <path
         sodipodi:nodetypes="ccc"
         id="path3306-9-5"
         d="m 1215.2631,324.8205 0.3023,-5.55011 c -0.028,1.91451 -1.3524,6.66421 -0.3023,5.55011 z"
         style="fill:#000000;fill-rule:evenodd;stroke:none"
         inkscape:connector-curvature="0" />
      <path
         sodipodi:nodetypes="ccc"
         id="path3308-3-8"
         d="m 1218.2829,326.29179 1.1782,-12.44524 c -0.063,4.3426 -2.0825,14.90036 -1.1782,12.44524 z"
         style="fill:#000000;fill-rule:evenodd;stroke:none"
         inkscape:connector-curvature="0" />
      <path
         id="path3310-9-6"
         d="m 1219.0117,334.7175 -0.6332,-3.30897 2.1108,1.22288 0.07,-2.22996 0.6333,-0.64741 -1.0555,-1.22288 -5.4882,0.14387 1.6887,7.19342 2.6738,-1.15095 z"
         style="opacity:0.2232143;fill:#000000;fill-opacity:1;fill-rule:evenodd;stroke:none;stroke-width:3;marker:none;visibility:visible;display:inline;overflow:visible;enable-background:accumulate"
         inkscape:connector-curvature="0" />
      <path
         sodipodi:nodetypes="ccc"
         id="path3312-0-2"
         d="m 1218.4692,328.89929 0.3023,5.55012 c -0.028,-1.91451 -1.3524,-6.66421 -0.3023,-5.55012 z"
         style="fill:#000000;fill-rule:evenodd;stroke:none"
         inkscape:connector-curvature="0" />
      <path
         sodipodi:nodetypes="ccc"
         id="path3314-8-8"
         d="m 1219.1986,327.25666 4.9045,2.39975 c -1.721,-0.75537 -5.5121,-3.81675 -4.9045,-2.39975 z"
         style="fill:#000000;fill-rule:evenodd;stroke:none"
         inkscape:connector-curvature="0" />
      <path
         sodipodi:nodetypes="ccc"
         id="path3316-8-4"
         d="m 1236.0975,327.77105 -0.6595,-5.51766 c 0.3029,1.8895 -0.182,6.80357 0.6595,5.51766 z"
         style="fill:#000000;fill-rule:evenodd;stroke:none"
         inkscape:connector-curvature="0" />
      <path
         sodipodi:nodetypes="ccc"
         id="path3318-5-7"
         d="m 1225.1866,327.80906 c -4.2522,3.24708 -6.4577,-8.02357 -6.1043,-11.98449 0.041,4.97688 3.5761,16.50078 6.1043,11.98449 z"
         style="fill:#000000;fill-rule:evenodd;stroke:none"
         inkscape:connector-curvature="0" />
      <path
         id="path3322-0-2"
         d="m 1229.9611,330.06482 11.7916,-1.83114 6.3187,-0.71212 -0.6965,-0.35605 6.0202,-0.45779 4.7763,0.1526 -5.2739,-0.66125 c 0,0 -1.1941,-0.1526 -6.866,0.55952 -5.6719,0.71211 -16.8665,2.64499 -16.8665,2.64499 l 0.7961,0.66124 z"
         style="opacity:0.2232143;fill:#000000;fill-opacity:1;fill-rule:evenodd;stroke:none;stroke-width:3;marker:none;visibility:visible;display:inline;overflow:visible;enable-background:accumulate"
         inkscape:connector-curvature="0" />
      <path
         sodipodi:nodetypes="ccc"
         id="path3324-9-4"
         d="m 1241.2054,327.26724 c 4.2563,-0.44555 9.0868,-2.06531 12.6374,-1.06817 -0.9259,7.35904 -10.1147,8.29016 -12.6374,1.06817 z"
         style="fill:#552200;fill-rule:evenodd;stroke:#000000;stroke-width:0.39840606px;stroke-linecap:butt;stroke-linejoin:miter;stroke-opacity:1"
         inkscape:connector-curvature="0" />
      <path
         sodipodi:nodetypes="ccc"
         id="path3326-6-0"
         d="m 1244.5232,326.72831 c 2.9693,-0.31083 6.3393,-1.44083 8.8163,-0.74519 -0.6459,5.13391 -7.0564,5.78349 -8.8163,0.74519 z"
         style="fill:#2b1100;fill-rule:evenodd;stroke:#000000;stroke-width:0.27794111px;stroke-linecap:butt;stroke-linejoin:miter;stroke-opacity:1"
         inkscape:connector-curvature="0" />
      <path
         sodipodi:nodetypes="cccccccccccccccccccccccccccccccccccccccccccccccccccccccccccc"
         id="path3328-3-6"
         d="m 1241.3166,327.32626 2.6737,-0.34169 -1.7942,0.71934 0.1935,0.0899 -0.1231,0.41362 1.759,-1.00708 -1.4776,1.83433 0.2815,-0.0899 -0.1232,0.35967 1.4425,-1.15095 -1.1259,1.58256 0.2639,0 0,0.2158 1.1434,-0.70136 -0.6333,1.097 0.2463,0 0.088,0.16185 0.4925,-0.35967 0.018,0.82724 1.2138,-1.34877 -0.7388,1.54659 0.6684,-0.036 0.2111,0.28773 0.6157,-0.39564 0.1583,-0.41362 -0.1759,0.82725 -0.018,0.19782 0.4222,-0.10791 0.088,0.16186 0.088,-1.13297 0.4573,1.22288 0.1232,-0.25177 0.4573,0.10791 0.018,-1.02507 0.2639,1.04305 0.387,-0.32371 0.3694,0.036 0.053,-0.61145 0.6332,0.41362 0,-0.39563 0.5805,0.19782 -0.3166,-0.68338 0.4925,0.55749 0.053,-0.14387 0.1935,-0.0539 -0.3694,-0.4316 0.5453,0.37765 0.053,-0.34168 0.387,-0.0899 -0.3518,-0.43161 0.5981,0.14387 -0.053,-0.26975 0.4749,-0.14387 -0.088,-0.17984 0.4926,-0.17983 -0.3343,-0.25177 0.6509,0.12588 c -1.3931,1.02758 -0.8007,2.40818 -4.2218,3.07519 -1.6395,-0.0937 -3.1571,0.52428 -5.1012,-1.34877 -1.6827,-1.20176 -1.6803,-2.26571 -2.3044,-3.38091 z"
         style="fill:#000000;fill-opacity:1;fill-rule:evenodd;stroke:none;stroke-width:3;marker:none;visibility:visible;display:inline;overflow:visible;enable-background:accumulate"
         inkscape:connector-curvature="0" />
      <path
         transform="matrix(0.69583841,0,0,0.72893358,1023.7194,36.207524)"
         d="m 322.49119,401.31888 c 0,1.46446 -1.32852,2.65165 -2.96733,2.65165 -1.6388,0 -2.96732,-1.18719 -2.96732,-2.65165 0,-1.46447 1.32852,-2.65165 2.96732,-2.65165 1.63881,0 2.96733,1.18718 2.96733,2.65165 z"
         sodipodi:ry="2.6516504"
         sodipodi:rx="2.9673231"
         sodipodi:cy="401.31888"
         sodipodi:cx="319.52386"
         id="path3330-8-2"
         style="opacity:0.20089285;fill:#ffffff;fill-opacity:1;fill-rule:evenodd;stroke:none;stroke-width:3;marker:none;visibility:visible;display:inline;overflow:visible;enable-background:accumulate"
         sodipodi:type="arc" />
      <path
         sodipodi:nodetypes="ccc"
         id="path3332-5-9"
         d="m 1256.4431,329.94791 5.4126,0.34043 c -1.8675,-0.0393 -6.4933,-1.41759 -5.4126,-0.34043 z"
         style="fill:#000000;fill-rule:evenodd;stroke:none"
         inkscape:connector-curvature="0" />
      <path
         sodipodi:nodetypes="ccc"
         id="path3334-6-9"
         d="m 1258.8522,327.066 10.9514,0.35153 c -3.7739,0.0365 -13.198,-2.45987 -10.9514,-0.35153 z"
         style="fill:#000000;fill-rule:evenodd;stroke:none"
         inkscape:connector-curvature="0" />
      <path
         sodipodi:nodetypes="ccc"
         id="path3338-1-0"
         d="m 1214.665,314.11439 0.3023,5.55011 c -0.028,-1.91451 -1.3524,-6.66421 -0.3023,-5.55011 z"
         style="fill:#000000;fill-rule:evenodd;stroke:none"
         inkscape:connector-curvature="0" />
      <g
         transform="matrix(0.68205976,-0.19742461,0.19742461,0.68205976,345.55208,388.70561)"
         id="g6099-8-38">
        <path
           style="fill:#cccccc;stroke:none"
           d="m 1287.8571,335.35714 c -0.992,6.57583 1.2483,13.66835 2.2322,12.85715 1.1884,0.26366 1.4658,-1.11604 1.6071,-2.85715 0.087,-3.14594 -0.3944,-6.38218 -3.8393,-10 z"
           id="path6097-9-0"
           sodipodi:nodetypes="cccc"
           inkscape:connector-curvature="0" />
        <path
           style="color:#000000;fill:#000000;fill-opacity:1;fill-rule:evenodd;stroke:none;stroke-width:1.19521809;marker:none;visibility:visible;display:inline;overflow:visible;enable-background:accumulate"
           d="m 1287.8571,335.17857 c -0.575,26.67327 9.9503,6.20627 -0.2761,-0.46174 -2.4224,22.98787 11.5735,11.53547 0.2761,0.46174 z"
           id="path5315-2-4"
           sodipodi:nodetypes="ccc"
           inkscape:connector-curvature="0" />
      </g>
      <g
         transform="matrix(0.68205976,-0.19742461,0.19742461,0.68205976,207.16118,340.72336)"
         id="g6099-8-33">
        <path
           style="fill:#cccccc;stroke:none"
           d="m 1287.8571,335.35714 c -0.992,6.57583 1.2483,13.66835 2.2322,12.85715 1.1884,0.26366 0.6903,0.88488 0.8316,-0.85623 0.7123,-2.35631 0.3609,-8.35952 -3.0638,-12.00092 z"
           id="path6097-9-3"
           sodipodi:nodetypes="cccc"
           inkscape:connector-curvature="0" />
        <path
           style="color:#000000;fill:#000000;fill-opacity:1;fill-rule:evenodd;stroke:none;stroke-width:1.19521809;marker:none;visibility:visible;display:inline;overflow:visible;enable-background:accumulate"
           d="m 1287.8571,335.17857 c -0.027,26.79031 9.9503,6.20627 -0.2761,-0.46174 -2.5124,23.00443 10.0287,11.81961 0.2761,0.46174 z"
           id="path5315-2-7"
           sodipodi:nodetypes="ccc"
           inkscape:connector-curvature="0" />
      </g>
      <g
         transform="matrix(0.68205976,-0.19742461,0.19742461,0.68205976,213.61386,320.02451)"
         id="g6099-8-33-3">
        <path
           style="fill:#cccccc;stroke:none"
           d="m 1287.8571,335.35714 c -0.992,6.57583 1.2483,13.66835 2.2322,12.85715 1.1884,0.26366 0.6903,0.88488 0.8316,-0.85623 0.7123,-2.35631 0.3609,-8.35952 -3.0638,-12.00092 z"
           id="path6097-9-3-2"
           sodipodi:nodetypes="cccc"
           inkscape:connector-curvature="0" />
        <path
           style="color:#000000;fill:#000000;fill-opacity:1;fill-rule:evenodd;stroke:none;stroke-width:1.19521809;marker:none;visibility:visible;display:inline;overflow:visible;enable-background:accumulate"
           d="m 1287.8571,335.17857 c -0.027,26.79031 9.9503,6.20627 -0.2761,-0.46174 -2.5124,23.00443 10.0287,11.81961 0.2761,0.46174 z"
           id="path5315-2-7-6"
           sodipodi:nodetypes="ccc"
           inkscape:connector-curvature="0" />
      </g>
      <g
         transform="matrix(0.68205976,-0.19742461,0.19742461,0.68205976,189.50671,335.20308)"
         id="g6099-8-33-2">
        <path
           style="fill:#cccccc;stroke:none"
           d="m 1287.8571,335.35714 c -0.992,6.57583 1.2483,13.66835 2.2322,12.85715 1.1884,0.26366 0.6903,0.88488 0.8316,-0.85623 0.7123,-2.35631 0.3609,-8.35952 -3.0638,-12.00092 z"
           id="path6097-9-3-6"
           sodipodi:nodetypes="cccc"
           inkscape:connector-curvature="0" />
        <path
           style="color:#000000;fill:#000000;fill-opacity:1;fill-rule:evenodd;stroke:none;stroke-width:1.19521809;marker:none;visibility:visible;display:inline;overflow:visible;enable-background:accumulate"
           d="m 1287.8571,335.17857 c -0.027,26.79031 9.9503,6.20627 -0.2761,-0.46174 -2.5124,23.00443 10.0287,11.81961 0.2761,0.46174 z"
           id="path5315-2-7-5"
           sodipodi:nodetypes="ccc"
           inkscape:connector-curvature="0" />
      </g>
      <g
         transform="matrix(0.68205976,-0.19742461,0.19742461,0.68205976,200.75672,361.81022)"
         id="g6099-8-33-7">
        <path
           style="fill:#cccccc;stroke:none"
           d="m 1287.8571,335.35714 c -0.992,6.57583 1.2483,13.66835 2.2322,12.85715 1.1884,0.26366 0.6903,0.88488 0.8316,-0.85623 0.7123,-2.35631 0.3609,-8.35952 -3.0638,-12.00092 z"
           id="path6097-9-3-9"
           sodipodi:nodetypes="cccc"
           inkscape:connector-curvature="0" />
        <path
           style="color:#000000;fill:#000000;fill-opacity:1;fill-rule:evenodd;stroke:none;stroke-width:1.19521809;marker:none;visibility:visible;display:inline;overflow:visible;enable-background:accumulate"
           d="m 1287.8571,335.17857 c -0.027,26.79031 9.9503,6.20627 -0.2761,-0.46174 -2.5124,23.00443 10.0287,11.81961 0.2761,0.46174 z"
           id="path5315-2-7-60"
           sodipodi:nodetypes="ccc"
           inkscape:connector-curvature="0" />
      </g>
      <g
         transform="matrix(0.68205976,-0.19742461,0.19742461,0.68205976,242.36386,337.88166)"
         id="g6099-8-33-1">
        <path
           style="fill:#cccccc;stroke:none"
           d="m 1287.8571,335.35714 c -0.992,6.57583 1.2483,13.66835 2.2322,12.85715 1.1884,0.26366 0.6903,0.88488 0.8316,-0.85623 0.7123,-2.35631 0.3609,-8.35952 -3.0638,-12.00092 z"
           id="path6097-9-3-0"
           sodipodi:nodetypes="cccc"
           inkscape:connector-curvature="0" />
        <path
           style="color:#000000;fill:#000000;fill-opacity:1;fill-rule:evenodd;stroke:none;stroke-width:1.19521809;marker:none;visibility:visible;display:inline;overflow:visible;enable-background:accumulate"
           d="m 1287.8571,335.17857 c -0.027,26.79031 9.9503,6.20627 -0.2761,-0.46174 -2.5124,23.00443 10.0287,11.81961 0.2761,0.46174 z"
           id="path5315-2-7-4"
           sodipodi:nodetypes="ccc"
           inkscape:connector-curvature="0" />
      </g>
      <g
         transform="matrix(0.68205976,-0.19742461,0.19742461,0.68205976,226.64958,381.63166)"
         id="g6099-8-33-0">
        <path
           style="fill:#cccccc;stroke:none"
           d="m 1287.8571,335.35714 c -0.992,6.57583 1.2483,13.66835 2.2322,12.85715 1.1884,0.26366 0.6903,0.88488 0.8316,-0.85623 0.7123,-2.35631 0.3609,-8.35952 -3.0638,-12.00092 z"
           id="path6097-9-3-8"
           sodipodi:nodetypes="cccc"
           inkscape:connector-curvature="0" />
        <path
           style="color:#000000;fill:#000000;fill-opacity:1;fill-rule:evenodd;stroke:none;stroke-width:1.19521809;marker:none;visibility:visible;display:inline;overflow:visible;enable-background:accumulate"
           d="m 1287.8571,335.17857 c -0.027,26.79031 9.9503,6.20627 -0.2761,-0.46174 -2.5124,23.00443 10.0287,11.81961 0.2761,0.46174 z"
           id="path5315-2-7-62"
           sodipodi:nodetypes="ccc"
           inkscape:connector-curvature="0" />
      </g>
      <g
         transform="matrix(0.68205976,-0.19742461,0.19742461,0.68205976,199.32815,383.95309)"
         id="g6099-8-33-9">
        <path
           style="fill:#cccccc;stroke:none"
           d="m 1287.8571,335.35714 c -0.992,6.57583 1.2483,13.66835 2.2322,12.85715 1.1884,0.26366 0.6903,0.88488 0.8316,-0.85623 0.7123,-2.35631 0.3609,-8.35952 -3.0638,-12.00092 z"
           id="path6097-9-3-3"
           sodipodi:nodetypes="cccc"
           inkscape:connector-curvature="0" />
        <path
           style="color:#000000;fill:#000000;fill-opacity:1;fill-rule:evenodd;stroke:none;stroke-width:1.19521809;marker:none;visibility:visible;display:inline;overflow:visible;enable-background:accumulate"
           d="m 1287.8571,335.17857 c -0.027,26.79031 9.9503,6.20627 -0.2761,-0.46174 -2.5124,23.00443 10.0287,11.81961 0.2761,0.46174 z"
           id="path5315-2-7-9"
           sodipodi:nodetypes="ccc"
           inkscape:connector-curvature="0" />
      </g>
      <g
         transform="matrix(0.37553066,-0.10869867,0.10869867,0.37553066,639.53358,379.31171)"
         id="g6099-8-33-8">
        <path
           style="fill:#cccccc;stroke:none"
           d="m 1287.8571,335.35714 c -0.992,6.57583 1.2483,13.66835 2.2322,12.85715 1.1884,0.26366 0.6903,0.88488 0.8316,-0.85623 0.7123,-2.35631 0.3609,-8.35952 -3.0638,-12.00092 z"
           id="path6097-9-3-30"
           sodipodi:nodetypes="cccc"
           inkscape:connector-curvature="0" />
        <path
           style="color:#000000;fill:#000000;fill-opacity:1;fill-rule:evenodd;stroke:none;stroke-width:1.19521809;marker:none;visibility:visible;display:inline;overflow:visible;enable-background:accumulate"
           d="m 1287.8571,335.17857 c -0.027,26.79031 9.9503,6.20627 -0.2761,-0.46174 -2.5124,23.00443 10.0287,11.81961 0.2761,0.46174 z"
           id="path5315-2-7-1"
           sodipodi:nodetypes="ccc"
           inkscape:connector-curvature="0" />
      </g>
      <g
         transform="matrix(0.37553066,-0.10869867,0.10869867,0.37553066,652.28393,321.26201)"
         id="g6099-8-33-8-7">
        <path
           style="fill:#cccccc;stroke:none"
           d="m 1287.8571,335.35714 c -0.992,6.57583 1.2483,13.66835 2.2322,12.85715 1.1884,0.26366 0.6903,0.88488 0.8316,-0.85623 0.7123,-2.35631 0.3609,-8.35952 -3.0638,-12.00092 z"
           id="path6097-9-3-30-8"
           sodipodi:nodetypes="cccc"
           inkscape:connector-curvature="0" />
        <path
           style="color:#000000;fill:#000000;fill-opacity:1;fill-rule:evenodd;stroke:none;stroke-width:1.19521809;marker:none;visibility:visible;display:inline;overflow:visible;enable-background:accumulate"
           d="m 1287.8571,335.17857 c -0.027,26.79031 9.9503,6.20627 -0.2761,-0.46174 -2.5124,23.00443 10.0287,11.81961 0.2761,0.46174 z"
           id="path5315-2-7-1-9"
           sodipodi:nodetypes="ccc"
           inkscape:connector-curvature="0" />
      </g>
      <g
         transform="matrix(0.37553066,-0.10869867,0.10869867,0.37553066,669.10549,383.11112)"
         id="g6099-8-33-8-5">
        <path
           style="fill:#cccccc;stroke:none"
           d="m 1287.8571,335.35714 c -0.992,6.57583 1.2483,13.66835 2.2322,12.85715 1.1884,0.26366 0.6903,0.88488 0.8316,-0.85623 0.7123,-2.35631 0.3609,-8.35952 -3.0638,-12.00092 z"
           id="path6097-9-3-30-4"
           sodipodi:nodetypes="cccc"
           inkscape:connector-curvature="0" />
        <path
           style="color:#000000;fill:#000000;fill-opacity:1;fill-rule:evenodd;stroke:none;stroke-width:1.19521809;marker:none;visibility:visible;display:inline;overflow:visible;enable-background:accumulate"
           d="m 1287.8571,335.17857 c -0.027,26.79031 9.9503,6.20627 -0.2761,-0.46174 -2.5124,23.00443 10.0287,11.81961 0.2761,0.46174 z"
           id="path5315-2-7-1-92"
           sodipodi:nodetypes="ccc"
           inkscape:connector-curvature="0" />
      </g>
      <g
         transform="matrix(0.68205976,-0.19742461,0.19742461,0.68205976,250.93528,321.45308)"
         id="g6099-8-33-1-5">
        <path
           style="fill:#cccccc;stroke:none"
           d="m 1287.8571,335.35714 c -0.992,6.57583 1.2483,13.66835 2.2322,12.85715 1.1884,0.26366 0.6903,0.88488 0.8316,-0.85623 0.7123,-2.35631 0.3609,-8.35952 -3.0638,-12.00092 z"
           id="path6097-9-3-0-7"
           sodipodi:nodetypes="cccc"
           inkscape:connector-curvature="0" />
        <path
           style="color:#000000;fill:#000000;fill-opacity:1;fill-rule:evenodd;stroke:none;stroke-width:1.19521809;marker:none;visibility:visible;display:inline;overflow:visible;enable-background:accumulate"
           d="m 1287.8571,335.17857 c -0.027,26.79031 9.9503,6.20627 -0.2761,-0.46174 -2.5124,23.00443 10.0287,11.81961 0.2761,0.46174 z"
           id="path5315-2-7-4-4"
           sodipodi:nodetypes="ccc"
           inkscape:connector-curvature="0" />
      </g>
      <g
         transform="matrix(0.68205976,-0.19742461,0.19742461,0.68205976,355.221,355.02451)"
         id="g6099-8-33-1-9">
        <path
           style="fill:#cccccc;stroke:none"
           d="m 1287.8571,335.35714 c -0.992,6.57583 1.2483,13.66835 2.2322,12.85715 1.1884,0.26366 0.6903,0.88488 0.8316,-0.85623 0.7123,-2.35631 0.3609,-8.35952 -3.0638,-12.00092 z"
           id="path6097-9-3-0-4"
           sodipodi:nodetypes="cccc"
           inkscape:connector-curvature="0" />
        <path
           style="color:#000000;fill:#000000;fill-opacity:1;fill-rule:evenodd;stroke:none;stroke-width:1.19521809;marker:none;visibility:visible;display:inline;overflow:visible;enable-background:accumulate"
           d="m 1287.8571,335.17857 c -0.027,26.79031 9.9503,6.20627 -0.2761,-0.46174 -2.5124,23.00443 10.0287,11.81961 0.2761,0.46174 z"
           id="path5315-2-7-4-5"
           sodipodi:nodetypes="ccc"
           inkscape:connector-curvature="0" />
      </g>
      <g
         transform="matrix(0.68205976,-0.19742461,0.19742461,0.68205976,343.07814,360.7388)"
         id="g6099-8-33-1-57">
        <path
           style="fill:#cccccc;stroke:none"
           d="m 1287.8571,335.35714 c -0.992,6.57583 1.2483,13.66835 2.2322,12.85715 1.1884,0.26366 0.6903,0.88488 0.8316,-0.85623 0.7123,-2.35631 0.3609,-8.35952 -3.0638,-12.00092 z"
           id="path6097-9-3-0-0"
           sodipodi:nodetypes="cccc"
           inkscape:connector-curvature="0" />
        <path
           style="color:#000000;fill:#000000;fill-opacity:1;fill-rule:evenodd;stroke:none;stroke-width:1.19521809;marker:none;visibility:visible;display:inline;overflow:visible;enable-background:accumulate"
           d="m 1287.8571,335.17857 c -0.027,26.79031 9.9503,6.20627 -0.2761,-0.46174 -2.5124,23.00443 10.0287,11.81961 0.2761,0.46174 z"
           id="path5315-2-7-4-8"
           sodipodi:nodetypes="ccc"
           inkscape:connector-curvature="0" />
      </g>
      <g
         transform="matrix(0.68205976,-0.19742461,0.19742461,0.68205976,383.07814,347.16737)"
         id="g6099-8-33-1-99">
        <path
           style="fill:#cccccc;stroke:none"
           d="m 1287.8571,335.35714 c -0.992,6.57583 1.2483,13.66835 2.2322,12.85715 1.1884,0.26366 0.6903,0.88488 0.8316,-0.85623 0.7123,-2.35631 0.3609,-8.35952 -3.0638,-12.00092 z"
           id="path6097-9-3-0-78"
           sodipodi:nodetypes="cccc"
           inkscape:connector-curvature="0" />
        <path
           style="color:#000000;fill:#000000;fill-opacity:1;fill-rule:evenodd;stroke:none;stroke-width:1.19521809;marker:none;visibility:visible;display:inline;overflow:visible;enable-background:accumulate"
           d="m 1287.8571,335.17857 c -0.027,26.79031 9.9503,6.20627 -0.2761,-0.46174 -2.5124,23.00443 10.0287,11.81961 0.2761,0.46174 z"
           id="path5315-2-7-4-2"
           sodipodi:nodetypes="ccc"
           inkscape:connector-curvature="0" />
      </g>
      <g
         transform="matrix(0.68205976,-0.19742461,0.19742461,0.68205976,360.39957,341.63165)"
         id="g6099-8-33-1-3">
        <path
           style="fill:#cccccc;stroke:none"
           d="m 1287.8571,335.35714 c -0.992,6.57583 1.2483,13.66835 2.2322,12.85715 1.1884,0.26366 0.6903,0.88488 0.8316,-0.85623 0.7123,-2.35631 0.3609,-8.35952 -3.0638,-12.00092 z"
           id="path6097-9-3-0-49"
           sodipodi:nodetypes="cccc"
           inkscape:connector-curvature="0" />
        <path
           style="color:#000000;fill:#000000;fill-opacity:1;fill-rule:evenodd;stroke:none;stroke-width:1.19521809;marker:none;visibility:visible;display:inline;overflow:visible;enable-background:accumulate"
           d="m 1287.8571,335.17857 c -0.027,26.79031 9.9503,6.20627 -0.2761,-0.46174 -2.5124,23.00443 10.0287,11.81961 0.2761,0.46174 z"
           id="path5315-2-7-4-0"
           sodipodi:nodetypes="ccc"
           inkscape:connector-curvature="0" />
      </g>
      <g
         transform="matrix(0.68205976,-0.19742461,0.19742461,0.68205976,354.50672,374.66737)"
         id="g6099-8-33-1-0">
        <path
           style="fill:#cccccc;stroke:none"
           d="m 1287.8571,335.35714 c -0.992,6.57583 1.2483,13.66835 2.2322,12.85715 1.1884,0.26366 0.6903,0.88488 0.8316,-0.85623 0.7123,-2.35631 0.3609,-8.35952 -3.0638,-12.00092 z"
           id="path6097-9-3-0-1"
           sodipodi:nodetypes="cccc"
           inkscape:connector-curvature="0" />
        <path
           style="color:#000000;fill:#000000;fill-opacity:1;fill-rule:evenodd;stroke:none;stroke-width:1.19521809;marker:none;visibility:visible;display:inline;overflow:visible;enable-background:accumulate"
           d="m 1287.8571,335.17857 c -0.027,26.79031 9.9503,6.20627 -0.2761,-0.46174 -2.5124,23.00443 10.0287,11.81961 0.2761,0.46174 z"
           id="path5315-2-7-4-9"
           sodipodi:nodetypes="ccc"
           inkscape:connector-curvature="0" />
      </g>
      <g
         transform="matrix(0.68205976,-0.19742461,0.19742461,0.68205976,340.221,405.02451)"
         id="g6099-8-33-1-2">
        <path
           style="fill:#cccccc;stroke:none"
           d="m 1287.8571,335.35714 c -0.992,6.57583 1.2483,13.66835 2.2322,12.85715 1.1884,0.26366 0.6903,0.88488 0.8316,-0.85623 0.7123,-2.35631 0.3609,-8.35952 -3.0638,-12.00092 z"
           id="path6097-9-3-0-12"
           sodipodi:nodetypes="cccc"
           inkscape:connector-curvature="0" />
        <path
           style="color:#000000;fill:#000000;fill-opacity:1;fill-rule:evenodd;stroke:none;stroke-width:1.19521809;marker:none;visibility:visible;display:inline;overflow:visible;enable-background:accumulate"
           d="m 1287.8571,335.17857 c -0.027,26.79031 9.9503,6.20627 -0.2761,-0.46174 -2.5124,23.00443 10.0287,11.81961 0.2761,0.46174 z"
           id="path5315-2-7-4-07"
           sodipodi:nodetypes="ccc"
           inkscape:connector-curvature="0" />
      </g>
      <g
         transform="matrix(0.68205976,-0.19742461,0.19742461,0.68205976,367.36386,377.16737)"
         id="g6099-8-33-1-1">
        <path
           style="fill:#cccccc;stroke:none"
           d="m 1287.8571,335.35714 c -0.992,6.57583 1.2483,13.66835 2.2322,12.85715 1.1884,0.26366 0.6903,0.88488 0.8316,-0.85623 0.7123,-2.35631 0.3609,-8.35952 -3.0638,-12.00092 z"
           id="path6097-9-3-0-19"
           sodipodi:nodetypes="cccc"
           inkscape:connector-curvature="0" />
        <path
           style="color:#000000;fill:#000000;fill-opacity:1;fill-rule:evenodd;stroke:none;stroke-width:1.19521809;marker:none;visibility:visible;display:inline;overflow:visible;enable-background:accumulate"
           d="m 1287.8571,335.17857 c -0.027,26.79031 9.9503,6.20627 -0.2761,-0.46174 -2.5124,23.00443 10.0287,11.81961 0.2761,0.46174 z"
           id="path5315-2-7-4-05"
           sodipodi:nodetypes="ccc"
           inkscape:connector-curvature="0" />
      </g>
      <g
         transform="matrix(0.68205976,-0.19742461,0.19742461,0.68205976,328.79243,372.88166)"
         id="g6099-8-33-1-7">
        <path
           style="fill:#cccccc;stroke:none"
           d="m 1287.8571,335.35714 c -0.992,6.57583 1.2483,13.66835 2.2322,12.85715 1.1884,0.26366 0.6903,0.88488 0.8316,-0.85623 0.7123,-2.35631 0.3609,-8.35952 -3.0638,-12.00092 z"
           id="path6097-9-3-0-40"
           sodipodi:nodetypes="cccc"
           inkscape:connector-curvature="0" />
        <path
           style="color:#000000;fill:#000000;fill-opacity:1;fill-rule:evenodd;stroke:none;stroke-width:1.19521809;marker:none;visibility:visible;display:inline;overflow:visible;enable-background:accumulate"
           d="m 1287.8571,335.17857 c -0.027,26.79031 9.9503,6.20627 -0.2761,-0.46174 -2.5124,23.00443 10.0287,11.81961 0.2761,0.46174 z"
           id="path5315-2-7-4-6"
           sodipodi:nodetypes="ccc"
           inkscape:connector-curvature="0" />
      </g>
      <g
         transform="matrix(0.68205976,-0.19742461,0.19742461,0.68205976,239.50672,379.31023)"
         id="g6099-8-33-1-74">
        <path
           style="fill:#cccccc;stroke:none"
           d="m 1287.8571,335.35714 c -0.992,6.57583 1.2483,13.66835 2.2322,12.85715 1.1884,0.26366 0.6903,0.88488 0.8316,-0.85623 0.7123,-2.35631 0.3609,-8.35952 -3.0638,-12.00092 z"
           id="path6097-9-3-0-8"
           sodipodi:nodetypes="cccc"
           inkscape:connector-curvature="0" />
        <path
           style="color:#000000;fill:#000000;fill-opacity:1;fill-rule:evenodd;stroke:none;stroke-width:1.19521809;marker:none;visibility:visible;display:inline;overflow:visible;enable-background:accumulate"
           d="m 1287.8571,335.17857 c -0.027,26.79031 9.9503,6.20627 -0.2761,-0.46174 -2.5124,23.00443 10.0287,11.81961 0.2761,0.46174 z"
           id="path5315-2-7-4-58"
           sodipodi:nodetypes="ccc"
           inkscape:connector-curvature="0" />
      </g>
      <g
         transform="matrix(0.68205976,-0.19742461,0.19742461,0.68205976,223.79243,403.59594)"
         id="g6099-8-33-1-06">
        <path
           style="fill:#cccccc;stroke:none"
           d="m 1287.8571,335.35714 c -0.992,6.57583 1.2483,13.66835 2.2322,12.85715 1.1884,0.26366 0.6903,0.88488 0.8316,-0.85623 0.7123,-2.35631 0.3609,-8.35952 -3.0638,-12.00092 z"
           id="path6097-9-3-0-6"
           sodipodi:nodetypes="cccc"
           inkscape:connector-curvature="0" />
        <path
           style="color:#000000;fill:#000000;fill-opacity:1;fill-rule:evenodd;stroke:none;stroke-width:1.19521809;marker:none;visibility:visible;display:inline;overflow:visible;enable-background:accumulate"
           d="m 1287.8571,335.17857 c -0.027,26.79031 9.9503,6.20627 -0.2761,-0.46174 -2.5124,23.00443 10.0287,11.81961 0.2761,0.46174 z"
           id="path5315-2-7-4-46"
           sodipodi:nodetypes="ccc"
           inkscape:connector-curvature="0" />
      </g>
      <g
         transform="matrix(0.68205976,-0.19742461,0.19742461,0.68205976,315.99476,396.19656)"
         id="g6099-8-33-1-20">
        <path
           style="fill:#cccccc;stroke:none"
           d="m 1287.8571,335.35714 c -0.992,6.57583 1.2483,13.66835 2.2322,12.85715 1.1884,0.26366 0.6903,0.88488 0.8316,-0.85623 0.7123,-2.35631 0.3609,-8.35952 -3.0638,-12.00092 z"
           id="path6097-9-3-0-2"
           sodipodi:nodetypes="cccc"
           inkscape:connector-curvature="0" />
        <path
           style="color:#000000;fill:#000000;fill-opacity:1;fill-rule:evenodd;stroke:none;stroke-width:1.19521809;marker:none;visibility:visible;display:inline;overflow:visible;enable-background:accumulate"
           d="m 1287.8571,335.17857 c -0.027,26.79031 9.9503,6.20627 -0.2761,-0.46174 -2.5124,23.00443 10.0287,11.81961 0.2761,0.46174 z"
           id="path5315-2-7-4-90"
           sodipodi:nodetypes="ccc"
           inkscape:connector-curvature="0" />
      </g>
      <path
         sodipodi:nodetypes="ccc"
         id="path6613"
         d="m 1240.1517,381.96915 c 2.0529,21.00211 5.4482,16.62195 9.3439,2.77792 -3.5633,14.0094 -6.9457,21.99529 -9.3439,-2.77792 z"
         style="color:#000000;fill:#000000;fill-opacity:1;fill-rule:evenodd;stroke:none;stroke-width:0.84867382;marker:none;visibility:visible;display:inline;overflow:visible;enable-background:accumulate"
         inkscape:connector-curvature="0" />
      <path
         sodipodi:nodetypes="ccc"
         id="path6625"
         d="m 1260.234,331.18918 c -5.699,9.44306 5.15,39.61137 1.5354,1.26796 2.8901,29.78456 -6.6162,18.12448 -1.5354,-1.26796 z"
         style="color:#000000;fill:#000000;fill-opacity:1;fill-rule:evenodd;stroke:none;stroke-width:0.84867382;marker:none;visibility:visible;display:inline;overflow:visible;enable-background:accumulate"
         inkscape:connector-curvature="0" />
      <g
         transform="matrix(0.68205976,-0.19742461,0.19742461,0.68205976,259.70536,411.94541)"
         id="g6099-8-33-1-4">
        <path
           style="fill:#cccccc;stroke:none"
           d="m 1287.8571,335.35714 c -0.992,6.57583 1.2483,13.66835 2.2322,12.85715 1.1884,0.26366 0.6903,0.88488 0.8316,-0.85623 0.7123,-2.35631 0.3609,-8.35952 -3.0638,-12.00092 z"
           id="path6097-9-3-0-67"
           sodipodi:nodetypes="cccc"
           inkscape:connector-curvature="0" />
        <path
           style="color:#000000;fill:#000000;fill-opacity:1;fill-rule:evenodd;stroke:none;stroke-width:1.19521809;marker:none;visibility:visible;display:inline;overflow:visible;enable-background:accumulate"
           d="m 1287.8571,335.17857 c -0.027,26.79031 9.9503,6.20627 -0.2761,-0.46174 -2.5124,23.00443 10.0287,11.81961 0.2761,0.46174 z"
           id="path5315-2-7-4-60"
           sodipodi:nodetypes="ccc"
           inkscape:connector-curvature="0" />
      </g>
    </g>
  </g>
</svg>
