<?xml version="1.0" encoding="UTF-8" standalone="no"?>
<!-- Created with Inkscape (http://www.inkscape.org/) -->

<svg
   xmlns:dc="http://purl.org/dc/elements/1.1/"
   xmlns:cc="http://creativecommons.org/ns#"
   xmlns:rdf="http://www.w3.org/1999/02/22-rdf-syntax-ns#"
   xmlns:svg="http://www.w3.org/2000/svg"
   xmlns="http://www.w3.org/2000/svg"
   xmlns:sodipodi="http://sodipodi.sourceforge.net/DTD/sodipodi-0.dtd"
   xmlns:inkscape="http://www.inkscape.org/namespaces/inkscape"
   width="510.2084"
   height="463.42465"
   id="svg2160"
   sodipodi:version="0.32"
   inkscape:version="0.48.3.1 r9886"
   sodipodi:docname="sol.svg"
   inkscape:output_extension="org.inkscape.output.svg.inkscape"
   version="1.0">
  <defs
     id="defs2162" />
  <sodipodi:namedview
     id="base"
     pagecolor="#ffffff"
     bordercolor="#666666"
     borderopacity="1.0"
     inkscape:pageopacity="0.0"
     inkscape:pageshadow="2"
     inkscape:zoom="0.38736264"
     inkscape:cx="587.72962"
     inkscape:cy="107.77837"
     inkscape:current-layer="layer1"
     inkscape:document-units="px"
     showguides="true"
     inkscape:guide-bbox="true"
     inkscape:window-width="1022"
     inkscape:window-height="703"
     inkscape:window-x="0"
     inkscape:window-y="48"
     showgrid="false"
     fit-margin-top="0"
     fit-margin-left="0"
     fit-margin-right="0"
     fit-margin-bottom="0"
     inkscape:window-maximized="0" />
  <metadata
     id="metadata2165">
    <rdf:RDF>
      <cc:Work
         rdf:about="">
        <dc:format>image/svg+xml</dc:format>
        <dc:type
           rdf:resource="http://purl.org/dc/dcmitype/StillImage" />
        <cc:license
           rdf:resource="http://creativecommons.org/licenses/by/2.5/" />
        <dc:title></dc:title>
        <dc:date>27/01/2008</dc:date>
        <dc:creator>
          <cc:Agent>
            <dc:title>Vladimir Zuñiga C</dc:title>
          </cc:Agent>
        </dc:creator>
      </cc:Work>
      <cc:License
         rdf:about="http://creativecommons.org/licenses/by/2.5/">
        <cc:permits
           rdf:resource="http://web.resource.org/cc/Reproduction" />
        <cc:permits
           rdf:resource="http://web.resource.org/cc/Distribution" />
        <cc:requires
           rdf:resource="http://web.resource.org/cc/Notice" />
        <cc:requires
           rdf:resource="http://web.resource.org/cc/Attribution" />
        <cc:permits
           rdf:resource="http://web.resource.org/cc/DerivativeWorks" />
      </cc:License>
    </rdf:RDF>
  </metadata>
  <g
     id="layer1"
     inkscape:label="Layer 1"
     inkscape:groupmode="layer"
     style="display:inline"
     transform="translate(-37.08191,-6.1024147)">
    <g
       id="g4503">
      <path
         sodipodi:nodetypes="ccccccccccccccccccccccccc"
         id="path4363"
         d="m 281.04067,74.416274 c -47.34071,-4.624231 -54.07133,-28.625202 -76.05681,-51.690787 -1.05818,28.751271 17.3525,69.959437 0,81.617033 -31.80557,15.86419 -71.90824,-0.27641 -107.862363,-14.96312 18.230813,24.13359 56.526063,46.53867 52.548333,73.45532 -14.91567,23.68504 -79.118193,27.16618 -110.462816,33.97191 29.02422,12.47504 85.312286,26.42963 86.954336,49.00541 -5.09389,34.52353 -20.7281,56.60511 -44.251219,69.37448 26.356009,-1.10816 53.987829,-5.3537 73.291109,10.88227 -5.98699,91.18127 -24.71692,82.08271 -37.33699,121.06526 39.8396,-29.08791 79.8967,-60.74319 116.15949,-47.60994 41.39945,16.79095 42.78577,47.73203 63.72208,67.87785 5.53213,-22.12672 25.84939,-50.62251 49.6717,-58.35586 60.77634,-1.29232 76.90579,37.25282 117.54232,55.77163 -12.83123,-32.10619 -29.42938,-63.84394 -19.35991,-108.82271 20.94124,-23.80179 50.94819,-16.39142 78.82251,-16.3234 -17.26403,-14.61738 -46.17675,-20.06789 -47.01694,-47.60993 12.39717,-32.53935 36.37427,-36.6013 55.31404,-53.05107 C 511.97678,234.55935 489.40857,212.56018 477.793,190.04041 476.10154,155.76139 514.88284,118.42179 545.1652,83.938261 504.89962,96.411491 469.7028,120.51878 419.32577,109.78365 404.24574,91.646541 411.48189,73.509418 413.79436,55.372299 395.00094,66.358378 382.58199,92.222777 355.71462,82.577977 326.12265,72.242949 331.35945,33.166056 329.55062,8.2275187 314.33926,30.898916 320.52498,62.697509 281.04067,74.416274 z"
         style="fill:#ffcc00;fill-rule:evenodd;stroke:#000000;stroke-width:4.2502079;stroke-linecap:butt;stroke-linejoin:miter;stroke-miterlimit:4;stroke-opacity:1;stroke-dasharray:none"
         inkscape:connector-curvature="0" />
      <path
         transform="matrix(2.263599,0,0,2.2311306,-120.74554,-122.7703)"
         d="m 260.09219,165.37234 c 0,37.24789 -31.7846,67.44327 -70.9929,67.44327 -39.2083,0 -70.99291,-30.19538 -70.99291,-67.44327 0,-37.24788 31.78461,-67.443255 70.99291,-67.443255 39.2083,0 70.9929,30.195375 70.9929,67.443255 z"
         sodipodi:ry="67.44326"
         sodipodi:rx="70.992905"
         sodipodi:cy="165.37234"
         sodipodi:cx="189.09929"
         id="path4201"
         style="opacity:0.8960396;fill:#ffcc00;fill-opacity:1;fill-rule:nonzero;stroke:#000000;stroke-width:1.8912456;stroke-linejoin:round;stroke-miterlimit:4;stroke-opacity:1;stroke-dasharray:none"
         sodipodi:type="arc" />
      <path
         sodipodi:nodetypes="cccc"
         id="path4365"
         d="M 199.45246,139.7099 C 162.29423,335.63678 328.70104,378.91788 451.13134,305.66453 393.45833,419.95427 282.55206,406.78301 222.96093,369.59788 91.335229,289.84626 162.61,165.8933 199.45246,139.7099 z"
         style="opacity:0.19801983;fill:#000000;fill-rule:evenodd;stroke:none"
         inkscape:connector-curvature="0" />
      <path
         sodipodi:nodetypes="cccc"
         id="path4376"
         d="m 254.35434,317.51453 c 41.68418,22.3475 120.90874,1.35921 141.93023,-46.40667 l 0.6335,-0.87642 c -3.74168,122.8446 -110.66615,107.85543 -142.56373,47.28309 z"
         style="fill:#800000;fill-rule:evenodd;stroke:#000000;stroke-width:4.2502079;stroke-linecap:butt;stroke-linejoin:miter;stroke-miterlimit:4;stroke-opacity:1;stroke-dasharray:none"
         inkscape:connector-curvature="0" />
      <path
         sodipodi:nodetypes="ccc"
         id="path4378"
         d="m 251.89362,328.29408 c -6.0919,-8.81764 -3.43561,-15.61771 1.48324,-21.89596 -3.61273,7.09425 -4.10713,14.3929 -1.48324,21.89596 z"
         style="fill:#000000;fill-rule:evenodd;stroke:#000000;stroke-width:1.2424171px;stroke-linecap:butt;stroke-linejoin:miter;stroke-opacity:1"
         inkscape:connector-curvature="0" />
      <path
         sodipodi:nodetypes="ccc"
         id="path4380"
         d="m 390.89484,262.18013 c 10.83729,-0.12648 15.13359,5.80713 17.73818,13.30807 -4.01746,-6.88044 -9.93017,-11.31643 -17.73818,-13.30807 z"
         style="fill:#000000;fill-rule:evenodd;stroke:#000000;stroke-width:1.2424171px;stroke-linecap:butt;stroke-linejoin:miter;stroke-opacity:1;display:inline"
         inkscape:connector-curvature="0" />
      <path
         sodipodi:nodetypes="cccc"
         id="path4409"
         d="M 198.76104,140.39004 C 343.82684,62.357753 522.69786,201.76983 451.82276,306.34467 482.68429,225.79748 440.23464,140.48149 403.42298,120.66592 355.51924,95.83548 276.19994,75.330518 198.76104,140.39004 z"
         style="opacity:0.20792081;fill:#ffffff;fill-rule:evenodd;stroke:none"
         inkscape:connector-curvature="0" />
      <path
         transform="matrix(0.9999302,0,0,1.0283163,0.02097165,-13.278132)"
         d="m 261.03775,312.97235 c 0,16.63467 -13.07642,30.11974 -29.20702,30.11974 -16.13059,0 -29.20702,-13.48507 -29.20702,-30.11974 0,-16.63467 13.07643,-30.11974 29.20702,-30.11974 16.1306,0 29.20702,13.48507 29.20702,30.11974 z"
         sodipodi:ry="30.11974"
         sodipodi:rx="29.20702"
         sodipodi:cy="312.97235"
         sodipodi:cx="231.83073"
         id="path4459"
         style="opacity:0.2574257;fill:#000000;fill-opacity:1;fill-rule:nonzero;stroke:none"
         sodipodi:type="arc" />
      <g
         transform="matrix(1.0713296,0,0,1.0538463,0.08466532,-17.533545)"
         id="g4451">
        <path
           style="fill:#dbe3db;fill-rule:evenodd;stroke:#000000;stroke-width:4;stroke-linecap:butt;stroke-linejoin:miter;stroke-miterlimit:4;stroke-opacity:1;stroke-dasharray:none"
           d="m 222.4593,174.74059 c 32.01999,-5.65427 105.9706,99.71725 27.25332,124.88799 -77.05643,3.20066 -74.68289,-107.71616 -27.25332,-124.88799 z"
           id="path6248"
           sodipodi:nodetypes="ccc"
           inkscape:connector-curvature="0" />
        <path
           style="fill:#000000;fill-rule:evenodd;stroke:#000000;stroke-width:1px;stroke-linecap:butt;stroke-linejoin:miter;stroke-opacity:1"
           d="m 234.27444,156.25905 c -39.17718,-13.52463 -53.17106,9.74325 -69.7818,29.18792 19.44416,-23.24441 42.79638,-32.64927 69.7818,-29.18792 z"
           id="path4359"
           sodipodi:nodetypes="ccc"
           inkscape:connector-curvature="0" />
        <g
           id="g4438"
           transform="matrix(0.9950456,0.09941955,-0.09941955,0.9950456,12.438179,-23.516151)">
          <path
             transform="matrix(0.9795016,-0.2014363,0.2014363,0.9795016,-25.638484,69.128325)"
             inkscape:transform-center-y="-4.7436759"
             inkscape:transform-center-x="12.176796"
             d="m 247.18439,237.65602 c 0,14.79222 -7.51272,26.78369 -16.78014,26.78369 -9.26742,0 -16.78014,-11.99147 -16.78014,-26.78369 0,-14.79222 7.51272,-26.78369 16.78014,-26.78369 9.26742,0 16.78014,11.99147 16.78014,26.78369 z"
             sodipodi:ry="26.783688"
             sodipodi:rx="16.780142"
             sodipodi:cy="237.65602"
             sodipodi:cx="230.40425"
             id="path4428"
             style="fill:#000000;fill-opacity:1;fill-rule:nonzero;stroke:none"
             sodipodi:type="arc" />
          <path
             transform="matrix(-1.8813301,0,0,1.823946,833.76391,-73.900791)"
             d="m 308.17376,184.97606 c 0,3.1634 -2.85339,5.72784 -6.37322,5.72784 -3.51984,0 -6.37323,-2.56444 -6.37323,-5.72784 0,-3.1634 2.85339,-5.72784 6.37323,-5.72784 3.51983,0 6.37322,2.56444 6.37322,5.72784 z"
             sodipodi:ry="5.7278371"
             sodipodi:rx="6.3732271"
             sodipodi:cy="184.97606"
             sodipodi:cx="301.80054"
             id="path6258"
             style="opacity:0.53465349;fill:#dbe3db;fill-opacity:1;fill-rule:nonzero;stroke:none"
             sodipodi:type="arc" />
          <path
             transform="matrix(-1.8813301,0,0,1.823946,774.84475,-54.528858)"
             d="m 294.62057,169.08333 c 0,4.90104 -3.53965,8.87411 -7.90603,8.87411 -4.36638,0 -7.90603,-3.97307 -7.90603,-8.87411 0,-4.90104 3.53965,-8.87411 7.90603,-8.87411 4.36638,0 7.90603,3.97307 7.90603,8.87411 z"
             sodipodi:ry="8.8741131"
             sodipodi:rx="7.9060283"
             sodipodi:cy="169.08333"
             sodipodi:cx="286.71454"
             id="path6254"
             style="fill:#dbe3db;fill-opacity:1;fill-rule:nonzero;stroke:none"
             sodipodi:type="arc" />
        </g>
      </g>
      <path
         transform="matrix(0.9999302,0,0,1.0283163,178.90147,-68.653421)"
         d="m 261.03775,312.97235 c 0,16.63467 -13.07642,30.11974 -29.20702,30.11974 -16.13059,0 -29.20702,-13.48507 -29.20702,-30.11974 0,-16.63467 13.07643,-30.11974 29.20702,-30.11974 16.1306,0 29.20702,13.48507 29.20702,30.11974 z"
         sodipodi:ry="30.11974"
         sodipodi:rx="29.20702"
         sodipodi:cy="312.97235"
         sodipodi:cx="231.83073"
         id="path4461"
         style="opacity:0.19801983;fill:#000000;fill-opacity:1;fill-rule:nonzero;stroke:none;display:inline"
         sodipodi:type="arc" />
      <g
         transform="matrix(1.0713296,0,0,1.0538463,-7.737921,-2.1436897)"
         id="g4444">
        <path
           style="fill:#dbe3db;fill-rule:evenodd;stroke:#000000;stroke-width:4;stroke-linecap:butt;stroke-linejoin:miter;stroke-miterlimit:4;stroke-opacity:1;stroke-dasharray:none"
           d="m 335.54083,130.69772 c 46.30842,-24.45492 106.17808,99.02565 27.25332,124.88801 -77.05643,3.20066 -65.64744,-99.97149 -27.25332,-124.88801 z"
           id="path4272"
           sodipodi:nodetypes="ccc"
           inkscape:connector-curvature="0" />
        <path
           style="fill:#000000;fill-rule:evenodd;stroke:#000000;stroke-width:1px;stroke-linecap:butt;stroke-linejoin:miter;stroke-opacity:1;display:inline"
           d="m 376.17889,105.22705 c -39.0161,-13.982533 -53.28152,9.11985 -70.11885,28.36865 19.71505,-23.01509 43.17582,-32.14582 70.11885,-28.36865 z"
           id="path4361"
           sodipodi:nodetypes="ccc"
           inkscape:connector-curvature="0" />
        <path
           sodipodi:type="arc"
           style="fill:#000000;fill-opacity:1;fill-rule:nonzero;stroke:none;display:inline"
           id="path4432"
           sodipodi:cx="230.40425"
           sodipodi:cy="237.65602"
           sodipodi:rx="16.780142"
           sodipodi:ry="26.783688"
           d="m 247.18439,237.65602 c 0,14.79222 -7.51272,26.78369 -16.78014,26.78369 -9.26742,0 -16.78014,-11.99147 -16.78014,-26.78369 0,-14.79222 7.51272,-26.78369 16.78014,-26.78369 9.26742,0 16.78014,11.99147 16.78014,26.78369 z"
           inkscape:transform-center-x="11.533922"
           inkscape:transform-center-y="-6.1437075"
           transform="matrix(0.9964009,-0.08476596,0.08476596,0.9964009,106.47192,-4.5709795)" />
        <path
           sodipodi:type="arc"
           style="opacity:0.53465349;fill:#dbe3db;fill-opacity:1;fill-rule:nonzero;stroke:none;display:inline"
           id="path4434"
           sodipodi:cx="301.80054"
           sodipodi:cy="184.97606"
           sodipodi:rx="6.3732271"
           sodipodi:ry="5.7278371"
           d="m 308.17376,184.97606 c 0,3.1634 -2.85339,5.72784 -6.37322,5.72784 -3.51984,0 -6.37323,-2.56444 -6.37323,-5.72784 0,-3.1634 2.85339,-5.72784 6.37323,-5.72784 3.51983,0 6.37322,2.56444 6.37322,5.72784 z"
           transform="matrix(-1.8813301,0,0,1.823946,941.39771,-117.88406)" />
        <path
           sodipodi:type="arc"
           style="fill:#dbe3db;fill-opacity:1;fill-rule:nonzero;stroke:none;display:inline"
           id="path4436"
           sodipodi:cx="286.71454"
           sodipodi:cy="169.08333"
           sodipodi:rx="7.9060283"
           sodipodi:ry="8.8741131"
           d="m 294.62057,169.08333 c 0,4.90104 -3.53965,8.87411 -7.90603,8.87411 -4.36638,0 -7.90603,-3.97307 -7.90603,-8.87411 0,-4.90104 3.53965,-8.87411 7.90603,-8.87411 4.36638,0 7.90603,3.97307 7.90603,8.87411 z"
           transform="matrix(-1.8813301,0,0,1.823946,879.89699,-99.802908)" />
      </g>
      <path
         sodipodi:nodetypes="cccc"
         id="path4481"
         d="m 288.48936,327.68794 c -11.05114,-4.59724 -20.4136,6.69278 -19.3617,7.74468 l -11.61702,-15.48936 30.97872,7.74468 z"
         style="fill:#000000;fill-rule:evenodd;stroke:#000000;stroke-width:1px;stroke-linecap:butt;stroke-linejoin:miter;stroke-opacity:1"
         inkscape:connector-curvature="0" />
      <path
         sodipodi:nodetypes="cccc"
         id="path4483"
         d="m 369.99499,302.02006 c 8.03781,-8.86883 21.31919,-2.64587 20.81593,-1.24597 l 3.90746,-22.83566 -24.72339,24.08163 z"
         style="fill:#000000;fill-rule:evenodd;stroke:#000000;stroke-width:1px;stroke-linecap:butt;stroke-linejoin:miter;stroke-opacity:1;display:inline"
         inkscape:connector-curvature="0" />
      <path
         sodipodi:nodetypes="cccc"
         id="path4489"
         d="m 334.31206,322.52482 c 40.77182,-17.45058 45.33169,-2.1936 32.91489,28.39716 24.48587,-28.88919 21.76804,-43.13023 25.17022,-60.66666 l -58.08511,32.2695 z"
         style="opacity:0.16831683;fill:#000000;fill-rule:evenodd;stroke:#000000;stroke-width:1px;stroke-linecap:butt;stroke-linejoin:miter;stroke-opacity:1"
         inkscape:connector-curvature="0" />
    </g>
  </g>
</svg>
