<?xml version="1.0" encoding="UTF-8" standalone="no"?>
<!-- Created with Inkscape (http://www.inkscape.org/) -->

<svg
   xmlns:dc="http://purl.org/dc/elements/1.1/"
   xmlns:cc="http://creativecommons.org/ns#"
   xmlns:rdf="http://www.w3.org/1999/02/22-rdf-syntax-ns#"
   xmlns:svg="http://www.w3.org/2000/svg"
   xmlns="http://www.w3.org/2000/svg"
   xmlns:sodipodi="http://sodipodi.sourceforge.net/DTD/sodipodi-0.dtd"
   xmlns:inkscape="http://www.inkscape.org/namespaces/inkscape"
   width="217"
   height="469.6875"
   id="svg4385"
   version="1.1"
   inkscape:version="0.48.3.1 r9886"
   sodipodi:docname="cohete3.svg">
  <defs
     id="defs4387" />
  <sodipodi:namedview
     id="base"
     pagecolor="#ffffff"
     bordercolor="#666666"
     borderopacity="1.0"
     inkscape:pageopacity="0.0"
     inkscape:pageshadow="2"
     inkscape:zoom="0.35"
     inkscape:cx="108.4975"
     inkscape:cy="234.37442"
     inkscape:document-units="px"
     inkscape:current-layer="layer1"
     showgrid="false"
     fit-margin-top="0"
     fit-margin-left="0"
     fit-margin-right="0"
     fit-margin-bottom="0"
     inkscape:window-width="577"
     inkscape:window-height="451"
     inkscape:window-x="0"
     inkscape:window-y="48"
     inkscape:window-maximized="0" />
  <metadata
     id="metadata4390">
    <rdf:RDF>
      <cc:Work
         rdf:about="">
        <dc:format>image/svg+xml</dc:format>
        <dc:type
           rdf:resource="http://purl.org/dc/dcmitype/StillImage" />
        <dc:title></dc:title>
      </cc:Work>
    </rdf:RDF>
  </metadata>
  <g
     inkscape:label="Capa 1"
     inkscape:groupmode="layer"
     id="layer1"
     transform="translate(-241.5025,-297.0491)">
    <g
       transform="matrix(2,0,0,2,-3030.3725,-5552.5134)"
       id="g4393">
      <path
         inkscape:connector-curvature="0"
         style="color:#000000;fill:#d45500;fill-opacity:1;fill-rule:nonzero;stroke:#000000;stroke-width:1.25;stroke-linecap:butt;stroke-linejoin:miter;stroke-miterlimit:4;stroke-opacity:1;stroke-dasharray:none;stroke-dashoffset:0;marker:none;visibility:visible;display:inline;overflow:visible;enable-background:accumulate"
         d="m 1729.4613,3069.683 c 6.98,-4.4326 10.8573,-8.6193 9.8753,-11.4174 -1.8742,-5.3397 -20.7079,-3.5911 -42.0663,3.9053 -19.0622,6.6905 -33.693,15.6992 -35.2864,21.3546 4.8613,-5.1521 16.6894,-11.6806 31.2364,-16.7864 20.2694,-7.1142 38.1435,-8.7754 39.922,-3.7082 0.6138,1.7487 -0.7734,4.0698 -3.681,6.6521 z"
         id="path11119-7" />
      <path
         inkscape:connector-curvature="0"
         style="color:#000000;fill:#b3b3b3;fill-opacity:1;fill-rule:nonzero;stroke:#000000;stroke-width:1.25;stroke-linecap:butt;stroke-linejoin:miter;stroke-miterlimit:4;stroke-opacity:1;stroke-dasharray:none;stroke-dashoffset:0;marker:none;visibility:visible;display:inline;overflow:visible;enable-background:accumulate"
         d="m 1660.56,3030.1256 c 1,1 9,19.25 9,19.25 l 20.25,-6.25 -2.5,-23 -26.75,10 z"
         id="path11066"
         sodipodi:nodetypes="ccccc" />
      <path
         inkscape:connector-curvature="0"
         style="color:#000000;fill:#b3b3b3;fill-opacity:1;fill-rule:nonzero;stroke:#000000;stroke-width:1.25;stroke-linecap:butt;stroke-linejoin:miter;stroke-miterlimit:4;stroke-opacity:1;stroke-dasharray:none;stroke-dashoffset:0;marker:none;visibility:visible;display:inline;overflow:visible;enable-background:accumulate"
         d="m 1669.31,3048.1256 -13.5,-13.75 -19,22.5 17.5,16 -6.75,-15.75 21.75,-9 z"
         id="path11068" />
      <path
         inkscape:connector-curvature="0"
         style="color:#000000;fill:#d45500;fill-opacity:1;fill-rule:nonzero;stroke:#000000;stroke-width:1.25;stroke-linecap:butt;stroke-linejoin:miter;stroke-miterlimit:4;stroke-opacity:1;stroke-dasharray:none;stroke-dashoffset:0;marker:none;visibility:visible;display:inline;overflow:visible;enable-background:accumulate"
         d="m 1687.5625,3046.375 c -11.736,0 -21.25,9.5139 -21.25,21.25 0,10.8513 8.1218,19.8057 18.625,21.0938 16.8895,14.8959 35.5416,43.2607 48.1875,70.2812 l 10.4375,0 c -8.6073,-24.2979 -21.6478,-52.8628 -36.8125,-82.2188 1.3204,-2.768 2.0625,-5.885 2.0625,-9.1562 0,-11.7361 -9.5139,-21.25 -21.25,-21.25 z"
         id="path11193" />
      <path
         inkscape:connector-curvature="0"
         style="color:#000000;fill:#b3b3b3;fill-opacity:1;fill-rule:nonzero;stroke:#000000;stroke-width:1.25;stroke-linecap:butt;stroke-linejoin:miter;stroke-miterlimit:4;stroke-opacity:1;stroke-dasharray:none;stroke-dashoffset:0;marker:none;visibility:visible;display:inline;overflow:visible;enable-background:accumulate"
         d="m 1688.9862,3043.4831 4.8212,-18.6566 27.7019,9.9927 -7.1613,22.6046 -2.0249,-17.0154 -23.3369,3.0747 z"
         id="path11068-8" />
      <path
         inkscape:connector-curvature="0"
         style="opacity:0.43103446;color:#000000;fill:#000000;fill-opacity:1;fill-rule:nonzero;stroke:none;stroke-width:1px;marker:none;visibility:visible;display:inline;overflow:visible;enable-background:accumulate"
         d="m 1688.2174,3030.5649 -14.4956,3.8891 5.3033,12.5512 -9.1924,1.591 -7.6014,-16.6171 24.3952,-6.0104 1.5909,4.5962 z"
         id="path12373" />
      <path
         inkscape:connector-curvature="0"
         style="fill:#b3b3b3;stroke:#000000;stroke-width:1.25;stroke-linecap:butt;stroke-linejoin:miter;stroke-miterlimit:4;stroke-opacity:1;stroke-dasharray:none"
         d="m 1652.31,3031.3756 c 13.6006,0.6982 27.0143,1.957 44.5,-9 -2.4531,-32.2344 -11.3774,-66.6592 -43,-96.5 -12.7059,33.0043 -11.4612,71.2598 -1.5,105.5 z"
         id="path11092"
         sodipodi:nodetypes="cccc" />
      <path
         inkscape:connector-curvature="0"
         style="opacity:0.23706898;color:#000000;fill:#000000;fill-opacity:1;fill-rule:nonzero;stroke:none;stroke-width:1.25;marker:none;visibility:visible;display:inline;overflow:visible;enable-background:accumulate"
         d="m 1687.5625,3046.375 c -11.736,0 -21.25,9.5139 -21.25,21.25 0,10.8513 8.1218,19.8056 18.625,21.0938 16.8884,14.8949 35.4847,43.2702 48.125,70.2812 l 3.9063,0 c -10.6715,-27.1602 -30.3834,-59.306 -48,-74.8438 -9.2837,-1.1378 -16.4688,-9.0335 -16.4688,-18.625 0,-10.373 8.4083,-18.7812 18.7812,-18.7812 0.1062,0 0.2068,0 0.3126,0 -1.3042,-0.2502 -2.6543,-0.375 -4.0313,-0.375 z"
         id="path11193-9" />
      <path
         inkscape:connector-curvature="0"
         style="color:#000000;fill:#b3b3b3;fill-opacity:1;fill-rule:nonzero;stroke:#000000;stroke-width:1.25;stroke-linecap:butt;stroke-linejoin:miter;stroke-miterlimit:4;stroke-opacity:1;stroke-dasharray:none;stroke-dashoffset:0;marker:none;visibility:visible;display:inline;overflow:visible;enable-background:accumulate"
         d="m 1673.185,3036.1256 15.125,36.5 -9.125,-41 -6,4.5 z"
         id="path11094" />
      <path
         sodipodi:type="arc"
         style="color:#000000;fill:#37abc8;fill-opacity:1;fill-rule:nonzero;stroke:#000000;stroke-width:2.5;stroke-linecap:butt;stroke-linejoin:miter;stroke-miterlimit:4;stroke-opacity:1;stroke-dasharray:none;stroke-dashoffset:0;marker:none;visibility:visible;display:inline;overflow:visible;enable-background:accumulate"
         id="path11096"
         sodipodi:cx="375.12015"
         sodipodi:cy="1872.5007"
         sodipodi:rx="22.273863"
         sodipodi:ry="44.547726"
         d="m 397.39401,1872.5007 c 0,24.6031 -9.97235,44.5478 -22.27386,44.5478 -12.30152,0 -22.27387,-19.9447 -22.27387,-44.5478 0,-24.603 9.97235,-44.5477 22.27387,-44.5477 12.30151,0 22.27386,19.9447 22.27386,44.5477 z"
         transform="matrix(0.49103003,-0.09428418,0.09428418,0.49103003,1306.8146,2107.1654)" />
      <path
         inkscape:connector-curvature="0"
         style="color:#000000;fill:#d45500;fill-opacity:1;fill-rule:nonzero;stroke:#000000;stroke-width:1.25;stroke-linecap:butt;stroke-linejoin:miter;stroke-miterlimit:4;stroke-opacity:1;stroke-dasharray:none;stroke-dashoffset:0;marker:none;visibility:visible;display:inline;overflow:visible;enable-background:accumulate"
         d="m 1652.0128,3086.9559 c -7.4933,4.7589 -11.6557,9.2535 -10.6014,12.2574 2.0119,5.7323 22.2307,3.8553 45.1599,-4.1925 20.4641,-7.1825 36.1709,-16.8536 37.8814,-22.9251 -5.2189,5.531 -17.9168,12.5397 -33.5336,18.021 -21.76,7.6373 -40.9487,9.4206 -42.858,3.9807 -0.6589,-1.8772 0.8303,-4.369 3.9517,-7.1415 z"
         id="path11119" />
      <path
         inkscape:connector-curvature="0"
         style="opacity:0.23706898;fill:#000000;stroke:none"
         d="m 1652.2812,2930.0625 c -11.0616,32.027 -9.5124,68.5075 0.031,101.3125 7.6017,0.3902 15.1464,0.9591 23.375,-0.5312 -17.9995,-5.9139 -23.4005,-78.493 -23.4063,-100.7813 z"
         id="path11092-9" />
      <path
         inkscape:connector-curvature="0"
         style="opacity:0.23706898;color:#000000;fill:#000000;fill-opacity:1;fill-rule:nonzero;stroke:none;stroke-width:1px;marker:none;visibility:visible;display:inline;overflow:visible;enable-background:accumulate"
         d="m 1654,3037.125 3.375,8.875 -13.5,9.125 0.125,3.875 9.5,12.25 -6,-14.125 21.375,-9.375 -13.125,-12.5 -1.75,1.875 z"
         id="path12470" />
      <path
         inkscape:connector-curvature="0"
         style="opacity:0.23706898;color:#000000;fill:#000000;fill-opacity:1;fill-rule:nonzero;stroke:none;stroke-width:1px;marker:none;visibility:visible;display:inline;overflow:visible;enable-background:accumulate"
         d="m 1694.25,3026.5 -1.25,11.5 19.75,2 -24,2.75 5.5,-16.25 z"
         id="path12480" />
      <path
         inkscape:connector-curvature="0"
         style="opacity:0.11637932;color:#000000;fill:#000000;fill-opacity:1;fill-rule:nonzero;stroke:none;stroke-width:1.02874315;marker:none;visibility:visible;display:inline;overflow:visible;enable-background:accumulate"
         d="m 1664.763,2971.1704 c -0.3492,0 -0.7115,0.019 -1.0566,0.086 -5.5211,1.06 -8.2612,10.8655 -6.1412,21.9076 2.1205,11.042 8.3036,19.1405 13.8246,18.0806 5.521,-1.0602 8.2899,-10.8661 6.1696,-21.9082 -1.9878,-10.3517 -7.5586,-18.1099 -12.7964,-18.166 z m 2.7137,3.656 c 3.1521,0.034 6.4872,4.7102 7.6835,10.9398 1.2758,6.6452 -0.3622,12.5297 -3.6846,13.1676 -3.3227,0.6378 -7.0645,-4.2088 -8.3404,-10.854 -1.2762,-6.6449 0.3904,-12.5579 3.713,-13.1959 0.2076,-0.04 0.4183,-0.059 0.6285,-0.057 z"
         id="path11096-4" />
    </g>
  </g>
</svg>
