<?xml version="1.0" encoding="UTF-8" standalone="no"?>
<!-- Created with Inkscape (http://www.inkscape.org/) -->

<svg
   xmlns:dc="http://purl.org/dc/elements/1.1/"
   xmlns:cc="http://creativecommons.org/ns#"
   xmlns:rdf="http://www.w3.org/1999/02/22-rdf-syntax-ns#"
   xmlns:svg="http://www.w3.org/2000/svg"
   xmlns="http://www.w3.org/2000/svg"
   xmlns:xlink="http://www.w3.org/1999/xlink"
   xmlns:sodipodi="http://sodipodi.sourceforge.net/DTD/sodipodi-0.dtd"
   xmlns:inkscape="http://www.inkscape.org/namespaces/inkscape"
   width="603.5"
   height="937.15625"
   id="svg10076"
   version="1.1"
   inkscape:version="0.48.3.1 r9886"
   sodipodi:docname="tren.svg">
  <defs
     id="defs10078">
    <linearGradient
       inkscape:collect="always"
       xlink:href="#linearGradient7120-8"
       id="linearGradient7559"
       gradientUnits="userSpaceOnUse"
       gradientTransform="translate(-99.527613,-59.558831)"
       x1="285.97824"
       y1="1011.9065"
       x2="307.96185"
       y2="982.90649" />
    <linearGradient
       id="linearGradient7120-8"
       inkscape:collect="always">
      <stop
         id="stop7122-14"
         offset="0"
         style="stop-color:#000000;stop-opacity:1;" />
      <stop
         id="stop7124-6"
         offset="1"
         style="stop-color:#000000;stop-opacity:0;" />
    </linearGradient>
  </defs>
  <sodipodi:namedview
     id="base"
     pagecolor="#ffffff"
     bordercolor="#666666"
     borderopacity="1.0"
     inkscape:pageopacity="0.0"
     inkscape:pageshadow="2"
     inkscape:zoom="0.35"
     inkscape:cx="300.43444"
     inkscape:cy="469.53677"
     inkscape:document-units="px"
     inkscape:current-layer="layer1"
     showgrid="false"
     inkscape:window-width="577"
     inkscape:window-height="451"
     inkscape:window-x="687"
     inkscape:window-y="48"
     inkscape:window-maximized="0"
     fit-margin-top="0"
     fit-margin-left="0"
     fit-margin-right="0"
     fit-margin-bottom="0" />
  <metadata
     id="metadata10081">
    <rdf:RDF>
      <cc:Work
         rdf:about="">
        <dc:format>image/svg+xml</dc:format>
        <dc:type
           rdf:resource="http://purl.org/dc/dcmitype/StillImage" />
        <dc:title></dc:title>
      </cc:Work>
    </rdf:RDF>
  </metadata>
  <g
     inkscape:label="Capa 1"
     inkscape:groupmode="layer"
     id="layer1"
     transform="translate(-162.96875,-68.5)">
    <path
       style="color:#000000;fill:#d45500;fill-opacity:1;fill-rule:nonzero;stroke:#000000;stroke-width:7.70150042px;stroke-linecap:butt;stroke-linejoin:miter;stroke-miterlimit:4;stroke-opacity:1;stroke-dasharray:none;stroke-dashoffset:0;marker:none;visibility:visible;display:inline;overflow:visible;enable-background:accumulate"
       d="m 510.48237,781.64487 -14.28572,85.7143 18.57143,-37.1429 -11.42857,101.4286 40,-85.7143 37.14286,51.4286 0,-47.1429 153.57143,151.42863 26.42856,-2.85733 -98.57142,-192.857 60,-1.4286 -64.28572,-44.2857 78.57143,-12.85712 -68.57143,-17.14286 74.28572,-21.42857 -121.42857,-1.42857 -110,74.28572 z"
       id="path10863"
       sodipodi:nodetypes="ccccccccccccccccc"
       inkscape:connector-curvature="0" />
    <path
       style="opacity:0.28326183;color:#000000;fill:#000000;fill-opacity:1;fill-rule:nonzero;stroke:none;stroke-width:6.9711957px;marker:none;visibility:visible;display:inline;overflow:visible;enable-background:accumulate"
       d="m 510.48237,781.64487 -14.28572,85.7143 18.57143,-37.1429 -11.42857,101.4286 40,-85.7143 37.14286,51.4286 0,-47.1429 153.57143,151.42863 26.42856,-2.85733 -187.14285,-258.57128 -62.85714,41.42858 z"
       id="path10863-4"
       sodipodi:nodetypes="ccccccccccc"
       inkscape:connector-curvature="0" />
    <path
       style="color:#000000;fill:#ffff00;fill-opacity:1;fill-rule:nonzero;stroke:#000000;stroke-width:7.70150042px;stroke-linecap:butt;stroke-linejoin:miter;stroke-miterlimit:4;stroke-opacity:1;stroke-dasharray:none;stroke-dashoffset:0;marker:none;visibility:visible;display:inline;overflow:visible;enable-background:accumulate"
       d="M 287.72251,283.64719 166.32401,70.594096 300.39402,276.34974 l -12.67151,7.29745 z"
       id="path8058"
       inkscape:connector-curvature="0" />
    <path
       style="color:#000000;fill:#999999;fill-opacity:1;fill-rule:nonzero;stroke:#000000;stroke-width:7.70150042px;stroke-linecap:butt;stroke-linejoin:miter;stroke-miterlimit:4;stroke-opacity:1;stroke-dasharray:none;stroke-dashoffset:0;marker:none;visibility:visible;display:inline;overflow:visible;enable-background:accumulate"
       d="m 261.08272,327.545 -11.4053,-31.07383 83.67901,-50.78651 19.8821,21.00036 -92.15581,60.85998 z"
       id="path8048"
       inkscape:connector-curvature="0" />
    <path
       style="color:#000000;fill:#999999;fill-opacity:1;fill-rule:nonzero;stroke:#000000;stroke-width:7.70150042px;stroke-linecap:butt;stroke-linejoin:miter;stroke-miterlimit:4;stroke-opacity:1;stroke-dasharray:none;stroke-dashoffset:0;marker:none;visibility:visible;display:inline;overflow:visible;enable-background:accumulate"
       d="m 443.21773,726.69859 52.28715,58.91768 134.08777,-82.72794 -20.72654,-61.48991 -165.64838,85.30017 z"
       id="path7911"
       inkscape:connector-curvature="0" />
    <path
       style="color:#000000;fill:#aa0000;fill-opacity:1;fill-rule:nonzero;stroke:#000000;stroke-width:7.70150042px;stroke-linecap:butt;stroke-linejoin:miter;stroke-miterlimit:4;stroke-opacity:1;stroke-dasharray:none;stroke-dashoffset:0;marker:none;visibility:visible;display:inline;overflow:visible;enable-background:accumulate"
       d="m 254.01493,333.31879 102.76346,-81.8392 c 185.06615,88.33419 337.02693,287.93027 269.48805,401.0082 L 447.43943,749.9667 C 338.26953,744.30547 243.82345,543.55823 254.01493,333.31879 z"
       id="path7909"
       sodipodi:nodetypes="ccccc"
       inkscape:connector-curvature="0" />
    <path
       style="color:#000000;fill:#a0892c;fill-opacity:1;fill-rule:nonzero;stroke:#000000;stroke-width:7.70150042px;stroke-linecap:butt;stroke-linejoin:miter;stroke-miterlimit:4;stroke-opacity:1;stroke-dasharray:none;stroke-dashoffset:0;marker:none;visibility:visible;display:inline;overflow:visible;enable-background:accumulate"
       d="m 389.10004,739.50802 76.72123,20.06475 c -32.26269,25.8867 -55.16965,66.9388 -29.66783,125.3897 l -58.38556,-53.5698 11.33216,-91.88465 z"
       id="path7934"
       sodipodi:nodetypes="ccccc"
       inkscape:connector-curvature="0" />
    <path
       style="color:#000000;fill:#000000;fill-opacity:1;fill-rule:nonzero;stroke:none;stroke-width:2.44532084px;marker:none;visibility:visible;display:inline;overflow:visible;enable-background:accumulate"
       d="m 432.98427,882.41937 -30.75636,-60.1678 4.92255,-29.7686 -2.65549,29.7609 28.0085,52.0154 0.4808,8.1601 z"
       id="path7946"
       inkscape:connector-curvature="0" />
    <path
       style="color:#000000;fill:#a0892c;fill-opacity:1;fill-rule:nonzero;stroke:#000000;stroke-width:7.70150042px;stroke-linecap:butt;stroke-linejoin:miter;stroke-miterlimit:4;stroke-opacity:1;stroke-dasharray:none;stroke-dashoffset:0;marker:none;visibility:visible;display:inline;overflow:visible;enable-background:accumulate"
       d="m 652.64278,573.91473 -21.15084,76.42895 c 38.58245,-14.91284 85.58646,-14.12222 123.34343,37.271 l -17.03115,-77.38564 -85.16144,-36.31431 z"
       id="path7934-0"
       sodipodi:nodetypes="ccccc"
       inkscape:connector-curvature="0" />
    <path
       style="color:#000000;fill:#000000;fill-opacity:1;fill-rule:nonzero;stroke:none;stroke-width:2.44532084px;marker:none;visibility:visible;display:inline;overflow:visible;enable-background:accumulate"
       d="m 754.22635,683.5972 -36.60479,-56.79969 -28.21831,-10.68281 27.07382,12.63977 30.93266,50.33144 6.81662,4.51129 z"
       id="path7946-9"
       inkscape:connector-curvature="0" />
    <path
       style="opacity:0.28326183;color:#000000;fill:#000000;fill-opacity:1;fill-rule:nonzero;stroke:none;stroke-width:6.9711957px;marker:none;visibility:visible;display:inline;overflow:visible;enable-background:accumulate"
       d="m 256.24105,342.12205 84.93752,-50.84506 C 508.69568,371.2347 665.43952,557.9647 604.30504,660.31979 L 442.43547,748.5551 C 343.61773,739.65702 247.01605,525.61514 256.24105,342.12205 z"
       id="path7909-8"
       sodipodi:nodetypes="ccccc"
       inkscape:connector-curvature="0" />
    <path
       sodipodi:type="arc"
       style="color:#000000;fill:#b3b3b3;fill-opacity:1;fill-rule:nonzero;stroke:#000000;stroke-width:2.11331153px;stroke-linecap:butt;stroke-linejoin:miter;stroke-miterlimit:4;stroke-opacity:1;stroke-dasharray:none;stroke-dashoffset:0;marker:none;visibility:visible;display:inline;overflow:visible;enable-background:accumulate"
       id="path8046-2"
       sodipodi:cx="473.25647"
       sodipodi:cy="1537.993"
       sodipodi:rx="24.243662"
       sodipodi:ry="46.214478"
       d="m 497.50013,1537.993 c 0,25.5236 -10.85426,46.2145 -24.24366,46.2145 -13.38941,0 -24.24366,-20.6909 -24.24366,-46.2145 0,-25.5235 10.85425,-46.2144 24.24366,-46.2144 13.3894,0 24.24366,20.6909 24.24366,46.2144 z"
       transform="matrix(3.1735213,-1.8098152,1.8276189,3.1426066,-3883.9534,-3487.1798)" />
    <path
       style="opacity:0.28326183;color:#000000;fill:#000000;fill-opacity:1;fill-rule:nonzero;stroke:none;stroke-width:6.9711957px;marker:none;visibility:visible;display:inline;overflow:visible;enable-background:accumulate"
       d="m 335.18439,350.09647 c -33.78876,57.41599 147.22004,368.91401 194.95944,158.08888 40.60423,120.60544 -37.68958,180.5212 -146.47212,66.16499 -82.16051,-83.2345 -80.23134,-180.2135 -48.48732,-224.25387 z"
       id="path10545"
       sodipodi:nodetypes="cccc"
       inkscape:connector-curvature="0" />
    <path
       sodipodi:type="arc"
       style="color:#000000;fill:#00ffff;fill-opacity:1;fill-rule:nonzero;stroke:#000000;stroke-width:2.44532084px;stroke-linecap:butt;stroke-linejoin:miter;stroke-miterlimit:4;stroke-opacity:1;stroke-dasharray:none;stroke-dashoffset:0;marker:none;visibility:visible;display:inline;overflow:visible;enable-background:accumulate"
       id="path8046"
       sodipodi:cx="473.25647"
       sodipodi:cy="1537.993"
       sodipodi:rx="24.243662"
       sodipodi:ry="46.214478"
       d="m 497.50013,1537.993 c 0,25.5236 -10.85426,46.2145 -24.24366,46.2145 -13.38941,0 -24.24366,-20.6909 -24.24366,-46.2145 0,-25.5235 10.85425,-46.2144 24.24366,-46.2144 13.3894,0 24.24366,20.6909 24.24366,46.2144 z"
       transform="matrix(2.7292505,-1.5717651,1.5717651,2.7292505,-3280.198,-2965.6159)" />
    <path
       style="color:#000000;fill:#000000;fill-opacity:1;fill-rule:nonzero;stroke:none;stroke-width:2.44532084px;marker:none;visibility:visible;display:inline;overflow:visible;enable-background:accumulate"
       d="m 274.66824,402.35638 c 17.83367,127.00249 60.43965,294.81686 209.2158,322.82218 l -6.74891,6.74887 C 332.07229,701.57748 280.07329,542.96471 274.66824,402.35638 z"
       id="path8526"
       sodipodi:nodetypes="cccc"
       inkscape:connector-curvature="0" />
    <path
       style="color:#000000;fill:#000000;fill-opacity:1;fill-rule:nonzero;stroke:none;stroke-width:2.44532084px;marker:none;visibility:visible;display:inline;overflow:visible;enable-background:accumulate"
       d="m 352.28055,395.60747 c -33.51549,78.07768 110.023,279.98484 157.47427,158.59904 l 2.24964,15.74743 C 457.5968,696.74863 296.93837,443.09345 352.28055,395.60747 z"
       id="path8536"
       sodipodi:nodetypes="cccc"
       inkscape:connector-curvature="0" />
    <path
       style="color:#000000;fill:#000000;fill-opacity:1;fill-rule:nonzero;stroke:none;stroke-width:2.44532084px;marker:none;visibility:visible;display:inline;overflow:visible;enable-background:accumulate"
       d="m 604.89512,658.69807 c 18.73561,-55.32906 6.63616,-81.594 -2.52539,-118.69292 12.57021,39.22759 25.23297,78.45518 7.57615,117.68277 l -5.05076,1.01015 z"
       id="path10492"
       sodipodi:nodetypes="cccc"
       inkscape:connector-curvature="0" />
    <path
       style="opacity:0.28326183;color:#000000;fill:#000000;fill-opacity:1;fill-rule:nonzero;stroke:none;stroke-width:6.9711957px;marker:none;visibility:visible;display:inline;overflow:visible;enable-background:accumulate"
       d="m 614.0538,668.43058 -108.21429,78.92857 19.28571,19.64282 -6.78571,3.5715 -27.85714,-21.78575 22.5,23.57145 -18.21429,11.7857 -33.57143,-39.28572 152.14286,-82.85715 0.71429,6.42858 z"
       id="path10755"
       inkscape:connector-curvature="0" />
    <path
       style="opacity:0.28326183;color:#000000;fill:#000000;fill-opacity:1;fill-rule:nonzero;stroke:none;stroke-width:6.9711957px;marker:none;visibility:visible;display:inline;overflow:visible;enable-background:accumulate"
       d="m 612.98237,662.002 0.35714,3.92858 -143.57143,87.14285 -9.64286,-7.85714 151.07143,-85.35714 1.78572,2.14285 z"
       id="path10765"
       inkscape:connector-curvature="0" />
    <path
       style="color:#000000;fill:#a0892c;fill-opacity:1;fill-rule:nonzero;stroke:#000000;stroke-width:7.70150042px;stroke-linecap:butt;stroke-linejoin:miter;stroke-miterlimit:4;stroke-opacity:1;stroke-dasharray:none;stroke-dashoffset:0;marker:none;visibility:visible;display:inline;overflow:visible;enable-background:accumulate"
       d="m 513.75293,681.76653 84.21243,107.91234 -67.98351,-136.07941 -16.22892,28.16707 z"
       id="path7988"
       inkscape:connector-curvature="0" />
    <path
       style="color:#000000;fill:#ffffff;fill-opacity:1;fill-rule:nonzero;stroke:none;stroke-width:6.9711957px;marker:none;visibility:visible;display:inline;overflow:visible;enable-background:accumulate"
       d="m 372.98237,369.85915 c 41.30013,-11.26101 72.45162,29.91265 102.5,76.78571 -32.78184,-39.44355 -65.96498,-74.87398 -102.5,-76.78571 z"
       id="path10568"
       sodipodi:nodetypes="ccc"
       inkscape:connector-curvature="0" />
    <path
       style="color:#000000;fill:#000000;fill-opacity:1;fill-rule:nonzero;stroke:none;stroke-width:2.44532084px;marker:none;visibility:visible;display:inline;overflow:visible;enable-background:accumulate"
       d="m 502.98237,778.43057 -31.42858,-37.14285 35.71429,36.78575 -4.28571,0.3571 z"
       id="path10578"
       inkscape:connector-curvature="0" />
    <path
       style="color:#000000;fill:#000000;fill-opacity:1;fill-rule:nonzero;stroke:none;stroke-width:2.44532084px;marker:none;visibility:visible;display:inline;overflow:visible;enable-background:accumulate"
       d="m 509.0538,772.71627 -31.42858,-37.14283 35.71429,36.78573 -4.28571,0.3571 z"
       id="path10578-6"
       inkscape:connector-curvature="0" />
    <path
       style="color:#000000;fill:#000000;fill-opacity:1;fill-rule:nonzero;stroke:none;stroke-width:2.44532084px;marker:none;visibility:visible;display:inline;overflow:visible;enable-background:accumulate"
       d="m 521.01808,768.60917 -31.42858,-37.14288 35.71429,36.78568 -4.28571,0.3572 z"
       id="path10578-9"
       inkscape:connector-curvature="0" />
    <path
       style="color:#000000;fill:#000000;fill-opacity:1;fill-rule:nonzero;stroke:none;stroke-width:2.44532084px;marker:none;visibility:visible;display:inline;overflow:visible;enable-background:accumulate"
       d="m 265.51904,321.23753 -8.69878,-26.66138 12.81328,27.91269 -4.1145,-1.25131 z"
       id="path10578-0"
       sodipodi:nodetypes="cccc"
       inkscape:connector-curvature="0" />
    <path
       style="color:#000000;fill:#000000;fill-opacity:1;fill-rule:nonzero;stroke:none;stroke-width:2.44532084px;marker:none;visibility:visible;display:inline;overflow:visible;enable-background:accumulate"
       d="m 273.66736,314.17132 -8.69878,-26.66138 12.81328,27.91269 -4.1145,-1.25131 z"
       id="path10578-0-8"
       sodipodi:nodetypes="cccc"
       inkscape:connector-curvature="0" />
    <path
       style="color:#000000;fill:#000000;fill-opacity:1;fill-rule:nonzero;stroke:none;stroke-width:2.44532084px;marker:none;visibility:visible;display:inline;overflow:visible;enable-background:accumulate"
       d="m 285.45308,308.63561 -8.69878,-26.66138 12.81328,27.91269 -4.1145,-1.25131 z"
       id="path10578-0-3"
       sodipodi:nodetypes="cccc"
       inkscape:connector-curvature="0" />
    <path
       style="opacity:0.28326183;color:#000000;fill:#000000;fill-opacity:1;fill-rule:nonzero;stroke:none;stroke-width:6.9711957px;marker:none;visibility:visible;display:inline;overflow:visible;enable-background:accumulate"
       d="m 430.13873,873.86057 -26.26397,-52.5279 6.06091,-61.6193 0.50508,21.7182 3.53553,-26.769 -27.27411,4.5457 2.0203,-18.68784 75.76144,19.69794 -30.30457,32.3249 -9.59645,28.2843 5.55584,53.033 z"
       id="path10722"
       inkscape:connector-curvature="0" />
    <path
       style="opacity:0.28326183;color:#000000;fill:#000000;fill-opacity:1;fill-rule:nonzero;stroke:none;stroke-width:6.9711957px;marker:none;visibility:visible;display:inline;overflow:visible;enable-background:accumulate"
       d="m 749.85201,677.3859 -30.30458,-50.50763 -59.599,-20.20305 12.62691,-0.50508 -22.72844,-8.08122 -20.20305,52.52793 c 54.89167,-16.27487 92.19387,-2.64764 120.20816,26.76905 z"
       id="path10745"
       sodipodi:nodetypes="ccccccc"
       inkscape:connector-curvature="0" />
    <path
       style="opacity:0.28326183;color:#000000;fill:#000000;fill-opacity:1;fill-rule:nonzero;stroke:none;stroke-width:6.9711957px;marker:none;visibility:visible;display:inline;overflow:visible;enable-background:accumulate"
       d="m 351.34683,371.30967 c -0.0565,169.89434 145.39221,217.43637 157.58379,113.13709 15.80941,54.41112 43.62057,153.60993 -56.56854,126.26907 C 349.45665,556.3876 336.16766,471.06896 332.15393,400.6041 c 4.62856,-10.3545 0.0531,-23.777 19.1929,-29.29443 z"
       id="path10832"
       sodipodi:nodetypes="ccccc"
       inkscape:connector-curvature="0" />
  </g>
</svg>
