<?xml version="1.0" encoding="UTF-8" standalone="no"?>
<!-- Created with Inkscape (http://www.inkscape.org/) -->

<svg
   xmlns:dc="http://purl.org/dc/elements/1.1/"
   xmlns:cc="http://creativecommons.org/ns#"
   xmlns:rdf="http://www.w3.org/1999/02/22-rdf-syntax-ns#"
   xmlns:svg="http://www.w3.org/2000/svg"
   xmlns="http://www.w3.org/2000/svg"
   xmlns:sodipodi="http://sodipodi.sourceforge.net/DTD/sodipodi-0.dtd"
   xmlns:inkscape="http://www.inkscape.org/namespaces/inkscape"
   width="494.68719"
   height="471.05713"
   id="svg3201"
   sodipodi:version="0.32"
   inkscape:version="0.48.3.1 r9886"
   sodipodi:docname="draco.svg"
   inkscape:output_extension="org.inkscape.output.svg.inkscape"
   version="1.1">
  <defs
     id="defs3203" />
  <sodipodi:namedview
     id="base"
     pagecolor="#ffffff"
     bordercolor="#666666"
     borderopacity="1.0"
     inkscape:pageopacity="0.0"
     inkscape:pageshadow="2"
     inkscape:zoom="0.77472525"
     inkscape:cx="469.64242"
     inkscape:cy="173.22076"
     inkscape:current-layer="layer1"
     inkscape:document-units="px"
     showguides="true"
     inkscape:guide-bbox="true"
     showgrid="true"
     inkscape:window-width="1022"
     inkscape:window-height="703"
     inkscape:window-x="0"
     inkscape:window-y="48"
     fit-margin-top="0"
     fit-margin-left="0"
     fit-margin-right="0"
     fit-margin-bottom="0"
     inkscape:window-maximized="0" />
  <metadata
     id="metadata3206">
    <rdf:RDF>
      <cc:Work
         rdf:about="">
        <dc:format>image/svg+xml</dc:format>
        <dc:type
           rdf:resource="http://purl.org/dc/dcmitype/StillImage" />
        <dc:title></dc:title>
        <dc:date>01022008</dc:date>
        <dc:creator>
          <cc:Agent>
            <dc:title>Vladimir Zúñiga C</dc:title>
          </cc:Agent>
        </dc:creator>
        <cc:license
           rdf:resource="http://creativecommons.org/licenses/by/2.5/" />
      </cc:Work>
      <cc:License
         rdf:about="http://creativecommons.org/licenses/by/2.5/">
        <cc:permits
           rdf:resource="http://web.resource.org/cc/Reproduction" />
        <cc:permits
           rdf:resource="http://web.resource.org/cc/Distribution" />
        <cc:requires
           rdf:resource="http://web.resource.org/cc/Notice" />
        <cc:requires
           rdf:resource="http://web.resource.org/cc/Attribution" />
        <cc:permits
           rdf:resource="http://web.resource.org/cc/DerivativeWorks" />
      </cc:License>
    </rdf:RDF>
  </metadata>
  <g
     id="layer1"
     inkscape:label="Layer 1"
     inkscape:groupmode="layer"
     transform="translate(-60.607385,-1.6758905)">
    <path
       style="fill:#2ca02c;fill-rule:evenodd;stroke:#000000;stroke-width:3.26228309;stroke-linecap:butt;stroke-linejoin:miter;stroke-miterlimit:4;stroke-opacity:1;stroke-dasharray:none"
       d="m 78.034334,142.46012 18.075889,-18.83429 c -6.484711,0.44405 -14.516795,-18.76174 -18.075889,18.83429 z"
       id="path3277"
       sodipodi:nodetypes="ccc"
       inkscape:connector-curvature="0" />
    <path
       style="fill:#2ca02c;fill-rule:evenodd;stroke:#000000;stroke-width:3.26228309;stroke-linecap:butt;stroke-linejoin:miter;stroke-miterlimit:4;stroke-opacity:1;stroke-dasharray:none"
       d="M 192.16631,73.475745 C 174.305,74.505849 157.15926,84.390369 178.53262,92.620164 l 22.15476,-5.826562 -8.52107,-13.317857 z"
       id="path4256"
       sodipodi:nodetypes="cccc"
       inkscape:connector-curvature="0" />
    <path
       style="fill:#cdde87;fill-rule:evenodd;stroke:#000000;stroke-width:3.26228309;stroke-linecap:butt;stroke-linejoin:miter;stroke-miterlimit:4;stroke-opacity:1;stroke-dasharray:none"
       d="m 265.9338,61.210872 c 15.71,-16.854384 57.90182,-19.565381 99.14568,-10.221688 4.96208,-4.696519 6.79898,-9.907838 2.80601,-13.681117 -7.89414,-0.324607 -13.24797,-1.194774 -33.22744,1.751697 C 355.53004,18.11816 378.89736,20.271679 401.06146,11.289003 402.20137,3.9676533 396.13106,3.1900096 389.06147,3.3192902 340.37371,5.7748984 301.0645,27.099186 257.76609,41.128202 l 8.16771,20.08267 z"
       id="path4266"
       sodipodi:nodetypes="cccccccc"
       inkscape:connector-curvature="0" />
    <path
       style="opacity:0.22127662;fill:#000000;fill-rule:evenodd;stroke:none"
       d="M 398.70922,7.9686293 C 344.40015,24.799612 309.78329,30.019612 267.81414,53.233469 l 1.66826,9.35599 c 30.21558,-23.344959 63.95798,-16.863722 97.51349,-11.962914 1.79841,-6.013962 4.2948,-12.340827 -0.15139,-15.555378 l -34.44935,5.335769 c 17.49532,-18.987247 44.47267,-20.43019 66.31407,-32.4383067 z"
       id="path3211"
       sodipodi:nodetypes="ccccccc"
       inkscape:connector-curvature="0" />
    <path
       style="fill:#cdde87;fill-rule:evenodd;stroke:#000000;stroke-width:3.26228309;stroke-linecap:butt;stroke-linejoin:miter;stroke-miterlimit:4;stroke-opacity:1;stroke-dasharray:none"
       d="m 303.79216,73.475745 c 17.43422,-15.150574 59.68428,-13.520754 99.69636,0 5.43931,-4.16183 7.826,-9.156027 4.26053,-13.31787 -7.81566,-1.132185 -13.04642,-2.546468 -33.23213,-1.664732 23.00685,-18.685966 46.01371,-14.148533 69.02056,-20.809151 1.92028,-7.164044 -4.03293,-8.559768 -11.07737,-9.156027 -48.68269,-2.549821 -90.06603,14.626384 -134.63268,24.138616 l 5.96473,20.809164 z"
       id="path4262"
       sodipodi:nodetypes="cccccccc"
       inkscape:connector-curvature="0" />
    <path
       style="fill:#2ca02c;fill-rule:evenodd;stroke:#000000;stroke-width:3.26228309;stroke-linecap:butt;stroke-linejoin:miter;stroke-miterlimit:4;stroke-opacity:1;stroke-dasharray:none"
       d="m 260.9874,301.01654 c 10.92046,-34.83721 -5.0153,-49.50866 -16.29553,-67.67587 20.39562,-43.01033 75.31598,-39.945 118.65913,-52.33028 -22.41161,22.51785 -86.31227,19.38005 -62.58276,70.43026 l 3.23952,4.44235 -8.11319,2.90177 c -38.27638,11.10838 -19.9679,32.20529 -16.37789,31.70194 1.1872,8.27023 9.76005,8.48694 13.0808,7.51677"
       id="path3187"
       sodipodi:nodetypes="cccccccc"
       inkscape:connector-curvature="0" />
    <path
       style="fill:#2ca02c;fill-rule:evenodd;stroke:#000000;stroke-width:3.26228309;stroke-linecap:butt;stroke-linejoin:miter;stroke-miterlimit:4;stroke-opacity:1;stroke-dasharray:none"
       d="m 211.03422,52.895607 46.82286,-15.959544 c 15.13895,-1.39486 15.61273,10.602965 16.61473,21.733487 -12.40171,7.497382 -23.07277,24.643253 -34.60916,36.964886 -40.12934,1.247085 -34.86821,-20.54823 -28.82843,-42.738829 z"
       id="path4264"
       sodipodi:nodetypes="ccccc"
       inkscape:connector-curvature="0" />
    <path
       style="opacity:0.30212767;fill:#000000;fill-rule:evenodd;stroke:#000000;stroke-width:3.26228309;stroke-linecap:butt;stroke-linejoin:miter;stroke-miterlimit:4;stroke-opacity:1;stroke-dasharray:none"
       d="m 260.9874,301.01654 c 10.92046,-34.83721 -5.0153,-49.50866 -16.29553,-67.67587 20.39562,-43.01033 75.31598,-39.945 118.65913,-52.33028 -22.41161,22.51785 -86.31227,19.38005 -62.58276,70.43026 l 3.23952,4.44235 -8.11319,2.90177 c -38.27638,11.10838 -19.9679,32.20529 -16.37789,31.70194 1.1872,8.27023 9.76005,8.48694 13.0808,7.51677"
       id="path3189"
       sodipodi:nodetypes="cccccccc"
       inkscape:connector-curvature="0" />
    <path
       style="fill:#2ca02c;fill-rule:evenodd;stroke:#000000;stroke-width:3.26228309;stroke-linecap:butt;stroke-linejoin:miter;stroke-miterlimit:4;stroke-opacity:1;stroke-dasharray:none"
       d="m 181.95795,340.93027 c -0.41101,6.40939 3.0678,10.38943 7.88118,13.53593 3.60403,6.15272 0.27801,12.30541 0,18.45812 -12.24065,12.52504 -26.52884,16.09864 -41.37621,17.22757 l -16.41914,3.38398 c -9.55624,5.43489 -11.78786,13.63849 -12.80692,19.07338 4.04903,-5.02662 9.31148,-7.77972 15.10561,-9.53668 -2.37074,5.492 -5.02687,10.93945 -2.29869,17.22757 2.81841,-5.97346 6.19574,-11.42328 12.47855,-14.15121 -3.53344,0 9.05163,18.44769 8.20957,13.2283 -1.01058,-6.26392 1.13356,-17.039 1.6419,-16.91993 l 46.95873,-15.99702 4.08039,-0.30764 -3.42363,-3.99926 9.85149,-31.64882 15.76236,-6.19032"
       id="path3197"
       sodipodi:nodetypes="cccccccccscc"
       inkscape:connector-curvature="0" />
    <path
       style="opacity:0.35744683;fill:#000000;fill-rule:evenodd;stroke:#000000;stroke-width:3;stroke-linecap:butt;stroke-linejoin:miter;stroke-miterlimit:4;stroke-opacity:1;stroke-dasharray:none"
       d="m 181.95795,340.93027 c -0.41101,6.40939 3.0678,10.38943 7.88118,13.53593 3.60403,6.15272 0.27801,12.30541 0,18.45812 -12.24065,12.52504 -26.52884,16.09864 -41.37621,17.22757 l -16.41914,3.38398 c -9.55624,5.43489 -11.78786,13.63849 -12.80692,19.07338 4.04903,-5.02662 9.31148,-7.77972 15.10561,-9.53668 -2.37074,5.492 -5.02687,10.93945 -2.29869,17.22757 2.81841,-5.97346 6.19574,-11.42328 12.47855,-14.15121 -3.53344,0 9.05163,18.44769 8.20957,13.2283 -1.01058,-6.26392 1.13356,-17.039 1.6419,-16.91993 l 46.95873,-15.99702 4.08039,-0.30764 -3.42363,-3.99926 9.85149,-31.64882 15.76236,-6.19032"
       id="path3199"
       sodipodi:nodetypes="cccccccccscc"
       inkscape:connector-curvature="0" />
    <path
       style="fill:#cdde87;fill-rule:evenodd;stroke:#000000;stroke-width:3.26228309;stroke-linecap:butt;stroke-linejoin:miter;stroke-miterlimit:4;stroke-opacity:1;stroke-dasharray:none"
       d="m 291.6828,116.72311 c 4.2413,8.7752 7.00311,17.5504 17.72293,26.32559 -12.85396,-1.33031 -25.70794,-1.94045 -38.5619,3.2911 -1.91682,8.16057 -0.75028,14.51399 3.01265,19.34566 -9.47452,-2.5363 -15.52746,-0.89466 -20.48601,2.08325 -1.13961,9.54827 2.11917,14.80003 5.41928,20.01144 -7.45342,-2.39995 -13.49055,-2.03297 -18.67494,0 16.3319,-35.68389 33.71326,-54.71127 51.56799,-71.05704 z"
       id="path4408"
       sodipodi:nodetypes="cccccccc"
       inkscape:connector-curvature="0" />
    <path
       style="fill:#cdde87;fill-rule:evenodd;stroke:#000000;stroke-width:3.26228309;stroke-linecap:butt;stroke-linejoin:miter;stroke-miterlimit:4;stroke-opacity:1;stroke-dasharray:none"
       d="m 510.48596,374.47138 c -5.2947,-8.18284 -12.72709,-22.40327 -14.65614,-36.12177 -5.54105,11.67436 -11.69747,22.97461 -22.8454,31.24002 -7.96872,-2.60164 -12.79147,-6.89907 -14.96508,-12.62446 -2.75492,9.41328 -6.84585,7.79978 -11.96638,10.48963 -8.7507,-3.98666 -12.00153,-3.56683 -14.74006,-9.09404 -1.82145,7.61548 -7.55317,14.86515 -11.98361,18.23888 38.9752,4.58309 67.91409,4.63619 91.15667,-2.12826 z"
       id="path3235"
       sodipodi:nodetypes="cccccccc"
       inkscape:connector-curvature="0" />
    <path
       style="fill:#2ca02c;fill-rule:evenodd;stroke:#000000;stroke-width:3.26228309;stroke-linecap:butt;stroke-linejoin:miter;stroke-miterlimit:4;stroke-opacity:1;stroke-dasharray:none"
       d="m 258.32865,368.88851 c -7.89123,22.44203 -3.76019,38.48374 23.1227,42.41296 -38.34974,4.5537 -77.75912,-25.97035 -114.61868,29.83489 9.78141,-4.76019 19.70396,-9.59011 31.34834,-15.27127 -13.67207,5.74034 -16.97677,20.15653 -23.83359,28.4237 52.03897,-19.15451 104.60895,-20.68709 164.80574,-15.8225 l -10.45105,-13.91556 -18.09605,-25.84318 -1.00534,-19.87936"
       id="path3259"
       sodipodi:nodetypes="ccccccccc"
       inkscape:connector-curvature="0" />
    <path
       style="opacity:0.51063831;fill:#000000;fill-rule:evenodd;stroke:#000000;stroke-width:3.26228309;stroke-linecap:butt;stroke-linejoin:miter;stroke-miterlimit:4;stroke-opacity:1;stroke-dasharray:none"
       d="m 258.32865,368.88851 c -7.89123,22.44203 -3.76019,38.48374 23.1227,42.41296 -38.34974,4.5537 -77.75912,-25.97035 -114.61868,29.83489 9.78141,-4.76019 19.70396,-9.59011 31.34834,-15.27127 -13.67207,5.74034 -16.97677,20.15653 -23.83359,28.4237 52.03897,-19.15451 104.60895,-20.68709 164.80574,-15.8225 l -10.45105,-13.91556 -18.09605,-25.84318 -1.00534,-19.87936"
       id="path3261"
       sodipodi:nodetypes="ccccccccc"
       inkscape:connector-curvature="0" />
    <path
       style="fill:#cdde87;fill-rule:evenodd;stroke:#000000;stroke-width:3;stroke-linecap:butt;stroke-linejoin:miter;stroke-miterlimit:4;stroke-opacity:1;stroke-dasharray:none"
       d="m 508.84108,420 c -6.94878,-7.83203 -17.30829,-5.43189 -26.46887,-6.62852 l -0.91272,10.95264 -8.21447,-1.82544 c -14.72749,9.33558 -28.90745,19.76624 -41.07237,34.22697 16.59869,-0.30623 32.50779,0.76673 50.19956,-1.72565 l 5.93268,-11.50878 17.34167,1.50878 3.19452,-12.46141 0,-12.53859 z"
       id="path3292"
       sodipodi:nodetypes="cccccccccc"
       inkscape:connector-curvature="0" />
    <path
       style="opacity:0.2255319;fill:#000000;fill-rule:evenodd;stroke:none"
       d="M 509.29744,427.97499 432.62901,456.2693 481.91585,455 c 0,0 4.10724,-11.05242 6.8454,-11.05242 C 491.49941,443.94758 505,445 505,445 l 4.29744,-17.02501 z"
       id="path3294"
       inkscape:connector-curvature="0" />
    <path
       style="fill:#2ca02c;fill-rule:evenodd;stroke:#000000;stroke-width:3;stroke-linecap:butt;stroke-linejoin:miter;stroke-miterlimit:4;stroke-opacity:1;stroke-dasharray:none"
       d="m 296.12321,120.08823 c -94.08565,86.29214 -70.50449,132.88194 -55.38686,176.46163 7.10088,-15.28247 29.53966,-3.76937 36.64054,-0.83237 79.85464,-37.47322 108.59542,39.19161 106.84093,94.05738 119.21735,-61.4619 264.58829,23.6497 85.99794,50.55209 121.37952,-42.55936 -1.23309,-76.53784 -82.06514,-19.75453 -51.58623,27.5602 -103.49655,47.07706 -207.06167,-2.4971 -36.1321,-37.94668 -35.97903,-86.72013 -8.11841,-122.35784 18.88678,-87.19839 66.97686,-125.0204 103.55425,-183.12055"
       id="path2204"
       sodipodi:nodetypes="ccccccccc"
       inkscape:connector-curvature="0" />
    <path
       style="fill:#c6e9af;fill-rule:evenodd;stroke:none"
       d="m 173.60993,301.22694 c 40.55425,41.32837 62.63548,83.24807 56.79433,134.88653 -99.43948,-23.61056 -79.81241,-115.37256 -56.79433,-134.88653 z"
       id="path3270"
       sodipodi:nodetypes="ccc"
       inkscape:connector-curvature="0" />
    <path
       style="opacity:0.11063831;fill:#000000;fill-rule:evenodd;stroke:#000000;stroke-width:2;stroke-linecap:butt;stroke-linejoin:miter;stroke-miterlimit:4;stroke-opacity:1;stroke-dasharray:none"
       d="m 392.55483,416.14599 c -128.00392,0.45094 -232.48699,-21.83965 -204.86009,-171.86296 -4.6194,17.85334 -11.34872,33.64563 -13.8582,53.56003 -37.00262,54.90126 -30.38252,145.66408 105.4427,141.84579 60.3384,2.33244 94.65303,-7.06786 113.27559,-23.54286 z"
       id="path3207"
       sodipodi:nodetypes="ccccc"
       inkscape:connector-curvature="0" />
    <path
       style="fill:#2ca02c;fill-rule:evenodd;stroke:#000000;stroke-width:3.26228309;stroke-linecap:butt;stroke-linejoin:miter;stroke-miterlimit:4;stroke-opacity:1;stroke-dasharray:none"
       d="m 304.45229,385.7016 c -7.89123,22.44203 -3.76019,38.48374 23.1227,42.41296 -38.34974,4.5537 -77.75912,-25.97035 -114.61868,29.83489 9.78141,-4.76019 19.70396,-9.59011 31.34834,-15.27127 -13.67207,5.74034 -16.97677,20.15653 -23.83359,28.4237 52.03897,-19.15451 104.60895,-20.68709 164.80574,-15.8225 1.82785,-5.52377 -5.43505,-9.53243 -10.45105,-13.91556 L 356.7297,415.52064 c -9.19274,-6.62645 -1.55376,-13.25291 -1.00534,-19.87936"
       id="path3179"
       sodipodi:nodetypes="ccccccccc"
       inkscape:connector-curvature="0" />
    <path
       style="fill:#2ca02c;fill-rule:evenodd;stroke:#000000;stroke-width:3.26228309;stroke-linecap:butt;stroke-linejoin:miter;stroke-miterlimit:4;stroke-opacity:1;stroke-dasharray:none"
       d="m 226.35917,359.83034 c -0.41101,6.4094 3.06778,10.38943 7.88119,13.53593 3.60401,6.15272 0.27798,12.30541 0,18.45812 -12.24066,12.52504 -26.52885,16.09864 -41.37622,17.22757 l -16.41914,3.38398 c -9.55623,5.43489 -11.78786,13.63849 -12.80692,19.07338 4.04903,-5.02662 9.31148,-7.77972 15.10559,-9.53668 -2.37072,5.492 -5.02685,10.93945 -2.29867,17.22757 2.81841,-5.97346 6.19574,-11.42328 12.47855,-14.15121 -3.53346,0 9.05161,18.44769 8.20956,13.2283 -1.01057,-6.26392 1.13356,-17.039 1.64192,-16.91993 l 46.95872,-15.99702 4.08039,-0.30764 -3.42363,-3.99926 9.85149,-31.64882 15.76236,-6.19032"
       id="path3183"
       sodipodi:nodetypes="cccccccccscc"
       inkscape:connector-curvature="0" />
    <path
       style="fill:#2ca02c;fill-rule:evenodd;stroke:#000000;stroke-width:3.26228309;stroke-linecap:butt;stroke-linejoin:miter;stroke-miterlimit:4;stroke-opacity:1;stroke-dasharray:none"
       d="m 243.87637,58.158786 48.93998,-7.826271 c 15.15823,1.178318 13.50513,13.075997 12.52556,24.208414 -13.54025,5.29408 -27.0805,20.383663 -40.62075,30.575491 -39.74751,-5.536954 -30.71454,-26.118252 -20.84479,-46.957634 z"
       id="path4260"
       sodipodi:nodetypes="ccccc"
       inkscape:connector-curvature="0" />
    <path
       style="fill:#2ca02c;fill-rule:evenodd;stroke:#000000;stroke-width:3.26228309;stroke-linecap:butt;stroke-linejoin:miter;stroke-miterlimit:4;stroke-opacity:1;stroke-dasharray:none"
       d="m 285.30455,297.84305 c 20.41873,-33.51811 5.65346,-52.56509 -3.01265,-74.12064 33.07489,-39.7217 94.85974,-23.35363 147.01725,-25.7942 -30.66661,17.97851 -102.6526,-0.62121 -87.36681,58.03696 l 2.66662,5.38644 -9.89698,1.06211 c -46.09958,2.33258 -30.10898,28.61515 -25.90878,28.95505 -0.54684,8.86468 9.15761,11.14811 13.15855,10.93906"
       id="path3185"
       sodipodi:nodetypes="cccccccc"
       inkscape:connector-curvature="0" />
    <path
       style="fill:#ffffff;fill-rule:evenodd;stroke:#000000;stroke-width:3.26228309;stroke-linecap:butt;stroke-linejoin:miter;stroke-miterlimit:4;stroke-opacity:1;stroke-dasharray:none"
       d="m 218.5816,55.163679 33.60667,35.791753 C 201.35403,76.527754 230.91951,69.59137 218.5816,55.163679 z"
       id="path4258"
       sodipodi:nodetypes="ccc"
       inkscape:connector-curvature="0" />
    <path
       style="opacity:0.16595746;fill:#ffffff;fill-rule:evenodd;stroke:none"
       d="m 216.78961,51.903017 5.16233,9.271268 c 9.85462,-7.781669 28.84151,-21.032895 47.73033,-16.808231 2.04709,-1.54034 -6.29551,-8.564175 -10.77903,-7.208938 -3.4521,1.043471 -48.44444,19.626897 -42.11363,14.745901 z"
       id="path3215"
       sodipodi:nodetypes="cccsc"
       inkscape:connector-curvature="0" />
    <path
       style="opacity:0.50638302;fill:#000000;fill-rule:evenodd;stroke:#000000;stroke-width:3.26228309;stroke-linecap:butt;stroke-linejoin:miter;stroke-miterlimit:4;stroke-opacity:1;stroke-dasharray:none"
       d="M 192.16631,73.475745 C 174.305,74.505849 157.15926,84.390369 178.53262,92.620164 l 22.15476,-5.826562 -8.52107,-13.317857 z"
       id="path3229"
       sodipodi:nodetypes="cccc"
       inkscape:connector-curvature="0" />
    <path
       style="fill:#ffffff;fill-rule:evenodd;stroke:#000000;stroke-width:3.26228309;stroke-linecap:butt;stroke-linejoin:miter;stroke-miterlimit:4;stroke-opacity:1;stroke-dasharray:none"
       d="m 194.56014,89.364033 c 7.24272,3.895879 50.75412,-6.255146 19.13281,-46.645606 -14.20694,-3.491929 -48.43575,21.755051 -19.13281,46.645606 z"
       id="path4252"
       sodipodi:nodetypes="ccc"
       inkscape:connector-curvature="0" />
    <path
       style="opacity:0.14042556;fill:#000000;fill-rule:evenodd;stroke:#000000;stroke-width:3.26200008;stroke-linecap:butt;stroke-linejoin:miter;stroke-miterlimit:4;stroke-opacity:1;stroke-dasharray:none"
       d="m 284.68111,111.32495 c -22.19274,43.83236 -57.569,76.45136 -85.7148,114.46856 17.18688,-34.7077 57.75519,-74.85094 78.40197,-115.77625 l 7.31283,1.30769 z"
       id="path3201"
       sodipodi:nodetypes="cccc"
       inkscape:connector-curvature="0" />
    <path
       sodipodi:type="arc"
       style="color:#000000;fill:#000000;fill-opacity:1;fill-rule:evenodd;stroke:#000000;stroke-width:2.5;stroke-linecap:butt;stroke-linejoin:miter;stroke-miterlimit:4;stroke-opacity:1;stroke-dasharray:none;stroke-dashoffset:0;marker:none;visibility:visible;display:inline;overflow:visible;enable-background:accumulate"
       id="path4278"
       sodipodi:cx="91.728302"
       sodipodi:cy="-94.100502"
       sodipodi:rx="5.9326763"
       sodipodi:ry="9.1271944"
       d="m 97.660978,-94.100502 c 0,5.04081 -2.656149,9.127194 -5.932676,9.127194 -3.276527,0 -5.932676,-4.086384 -5.932676,-9.127194 0,-5.04081 2.656149,-9.127198 5.932676,-9.127198 3.276527,0 5.932676,4.086388 5.932676,9.127198 z"
       transform="matrix(1.3202955,0,0,1.2897102,82.252044,195.54818)" />
    <path
       style="fill:#2ca02c;fill-rule:evenodd;stroke:#000000;stroke-width:3;stroke-linecap:butt;stroke-linejoin:miter;stroke-miterlimit:4;stroke-opacity:1;stroke-dasharray:none"
       d="M 205.12067,82.136742 130.69111,115.38806 C 87.384971,111.41024 69.600048,145.86627 62.107385,195.82202 137.36842,265.73173 209.67104,78.276098 296.94283,120.16334 335.42079,65.260497 293.56352,44.891202 236.7482,95.670006 249.64147,77.758253 224.06642,85.131268 205.12067,82.136742 z"
       id="path3265"
       sodipodi:nodetypes="cccccc"
       inkscape:connector-curvature="0" />
    <path
       style="opacity:0.19148937;fill:#ffffff;fill-rule:evenodd;stroke:none"
       d="m 210.95264,81.78088 13.31092,8.090308 -110.02951,44.199722 96.71859,-52.29003 z"
       id="path3223"
       sodipodi:nodetypes="cccc"
       inkscape:connector-curvature="0" />
    <path
       style="fill:#2ca02c;fill-rule:evenodd;stroke:#000000;stroke-width:3.26228309;stroke-linecap:butt;stroke-linejoin:miter;stroke-miterlimit:4;stroke-opacity:1;stroke-dasharray:none"
       d="m 128.64683,155.40871 c 4.87379,-26.9377 40.3848,-37.49881 26.5113,-11.77144"
       id="path3273"
       sodipodi:nodetypes="cc"
       inkscape:connector-curvature="0" />
    <path
       style="fill:#000000;fill-rule:evenodd;stroke:#000000;stroke-width:3.26228309;stroke-linecap:butt;stroke-linejoin:miter;stroke-miterlimit:4;stroke-opacity:1;stroke-dasharray:none"
       d="m 135.27465,153.64299 c 15.38734,-23.1951 19.1772,-18.4354 15.06325,-8.82858 l -15.06325,8.82858 z"
       id="path3275"
       sodipodi:nodetypes="ccc"
       inkscape:connector-curvature="0" />
    <path
       sodipodi:type="arc"
       style="color:#000000;fill:#ffffff;fill-opacity:1;fill-rule:evenodd;stroke:none;stroke-width:2.5;marker:none;visibility:visible;display:inline;overflow:visible;enable-background:accumulate"
       id="path4382"
       sodipodi:cx="37.109928"
       sodipodi:cy="-111.58068"
       sodipodi:rx="3.5496454"
       sodipodi:ry="3.1462767"
       d="m 40.659574,-111.58068 c 0,1.73764 -1.589231,3.14628 -3.549646,3.14628 -1.960415,0 -3.549645,-1.40864 -3.549645,-3.14628 0,-1.73764 1.58923,-3.14628 3.549645,-3.14628 1.960415,0 3.549646,1.40864 3.549646,3.14628 z"
       transform="matrix(1.3202955,0,0,1.2897102,156.96528,218.84525)" />
    <path
       style="opacity:0.28085106;fill:#ffffff;fill-rule:evenodd;stroke:none"
       d="M 258.80143,56.946795 263.96455,65 c 11.09691,-5.875913 22.19761,-11.744259 40.01418,-4.180865 2.29142,-1.145708 -4.64697,-9.559505 -9.30143,-9.035461 -3.58372,0.403491 -35.87587,5.485816 -35.87587,5.163121 z"
       id="path3213"
       sodipodi:nodetypes="cccsc"
       inkscape:connector-curvature="0" />
    <path
       style="fill:#ffffff;fill-rule:evenodd;stroke:#000000;stroke-width:3.26228309;stroke-linecap:butt;stroke-linejoin:miter;stroke-miterlimit:4;stroke-opacity:1;stroke-dasharray:none"
       d="m 229.76599,98.674399 c 14.63264,0.586586 57.22627,-11.123789 22.16015,-51.996317 -15.75465,-3.533599 -54.65537,26.808677 -22.16015,51.996317 z"
       id="path4250"
       sodipodi:nodetypes="ccc"
       inkscape:connector-curvature="0" />
    <path
       sodipodi:type="arc"
       style="color:#000000;fill:#000000;fill-opacity:1;fill-rule:evenodd;stroke:#000000;stroke-width:2.5;stroke-linecap:butt;stroke-linejoin:miter;stroke-miterlimit:4;stroke-opacity:1;stroke-dasharray:none;stroke-dashoffset:0;marker:none;visibility:visible;display:inline;overflow:visible;enable-background:accumulate"
       id="path4276"
       sodipodi:cx="91.728302"
       sodipodi:cy="-94.100502"
       sodipodi:rx="5.9326763"
       sodipodi:ry="9.1271944"
       d="m 97.660978,-94.100502 c 0,5.04081 -2.656149,9.127194 -5.932676,9.127194 -3.276527,0 -5.932676,-4.086384 -5.932676,-9.127194 0,-5.04081 2.656149,-9.127198 5.932676,-9.127198 3.276527,0 5.932676,4.086388 5.932676,9.127198 z"
       transform="matrix(1.3202955,0,0,1.2897102,111.80027,205.55391)" />
    <path
       style="fill:#000000;fill-rule:evenodd;stroke:#000000;stroke-width:0.79215246;stroke-linecap:butt;stroke-linejoin:miter;stroke-miterlimit:4;stroke-opacity:1;stroke-dasharray:none"
       d="m 261.7405,89.157016 c 5.8846,-0.472237 11.17932,-0.07737 11.51777,7.603171 0.62323,-8.838578 -3.55604,-10.89264 -11.51777,-7.603171 z"
       id="path4286"
       sodipodi:nodetypes="ccc"
       inkscape:connector-curvature="0" />
    <path
       sodipodi:type="arc"
       style="color:#000000;fill:#ffffff;fill-opacity:1;fill-rule:evenodd;stroke:none;stroke-width:2.5;marker:none;visibility:visible;display:inline;overflow:visible;enable-background:accumulate"
       id="path4380"
       sodipodi:cx="37.109928"
       sodipodi:cy="-111.58068"
       sodipodi:rx="3.5496454"
       sodipodi:ry="3.1462767"
       d="m 40.659574,-111.58068 c 0,1.73764 -1.589231,3.14628 -3.549646,3.14628 -1.960415,0 -3.549645,-1.40864 -3.549645,-3.14628 0,-1.73764 1.58923,-3.14628 3.549645,-3.14628 1.960415,0 3.549646,1.40864 3.549646,3.14628 z"
       transform="matrix(1.3202955,0,0,1.2897102,188.07433,231.08795)" />
    <path
       style="opacity:0.13191486;fill:#000000;fill-rule:evenodd;stroke:#000000;stroke-width:3.26228309;stroke-linecap:butt;stroke-linejoin:miter;stroke-miterlimit:4;stroke-opacity:1;stroke-dasharray:none"
       d="m 306.99561,74.350723 c 4.74722,8.955786 9.1677,18.188189 -9.64048,47.085747 -19.08524,-2.43822 -24.70183,-18.63112 -76.52127,12.36 -55.0818,39.71432 -114.73494,113.47765 -157.862765,64.15432 15.749529,-75.80213 11.178533,-22.58491 9.640468,-34.13717 36.167817,74.18523 136.336657,-55.13414 178.951317,-64.74288 65.17656,25.30204 59.9915,-10.372417 55.43273,-24.720017 z"
       id="path4282"
       sodipodi:nodetypes="ccccccc"
       inkscape:connector-curvature="0" />
    <path
       style="opacity:0.22978725;fill:#ffffff;fill-rule:evenodd;stroke:none"
       d="m 344.4596,299.49171 -11.50341,10.40457 c 12.3401,-1.43111 24.41107,1.21252 34.51026,33.71083 0.0849,-18.23977 -6.07762,-33.63161 -23.00685,-44.1154 z"
       id="path3205"
       sodipodi:nodetypes="cccc"
       inkscape:connector-curvature="0" />
    <path
       style="opacity:0.22127662;fill:#000000;fill-rule:evenodd;stroke:none"
       d="M 444.67377,35.326227 C 410.25296,35.272966 333.88181,45.010331 305.9149,60.496441 l 0,9.503559 c 33.84439,-17.678403 65.92512,-5.374649 98.0993,5.340413 C 406.84038,69.735528 410.40863,63.945124 406.59576,60 l -34.85107,-0.79434 c 20.55669,-15.621279 49.31892,-15.891827 72.92908,-23.879433 z"
       id="path3209"
       sodipodi:nodetypes="ccccccc"
       inkscape:connector-curvature="0" />
    <path
       style="opacity:0.25106381;fill:#000000;fill-rule:evenodd;stroke:#000000;stroke-width:1px;stroke-linecap:butt;stroke-linejoin:miter;stroke-opacity:1"
       d="m 220.42174,81.597973 c 31.31126,23.628907 41.57938,-3.794876 41.07237,-19.167108 5.70935,16.061351 3.09446,30.104704 -31.03246,36.508777 -6.78964,-4.632887 -10.54721,-10.276466 -10.03991,-17.341669 z"
       id="path3243"
       sodipodi:nodetypes="cccc"
       inkscape:connector-curvature="0" />
    <path
       style="fill:#000000;fill-rule:evenodd;stroke:#000000;stroke-width:1px;stroke-linecap:butt;stroke-linejoin:miter;stroke-opacity:1"
       d="m 183.4566,159.17912 c 28.41505,-23.66345 92.95171,-52.63891 83.51383,-70.735751 3.53121,19.657441 -55.67588,47.157171 -83.51383,70.735751 z"
       id="path3217"
       sodipodi:nodetypes="ccc"
       inkscape:connector-curvature="0" />
    <path
       style="opacity:0.24255317;fill:#ffffff;fill-rule:evenodd;stroke:none"
       d="m 267.67829,75.665297 c 11.55718,0.835342 36.20192,-14.466767 41.07238,15.05987 7.53724,-26.037943 -18.8203,-27.167361 -41.07238,-15.05987 z"
       id="path3219"
       sodipodi:nodetypes="ccc"
       inkscape:connector-curvature="0" />
    <path
       style="opacity:0.16170211;fill:#ffffff;fill-rule:evenodd;stroke:none"
       d="m 130.3227,150.80496 c 22.72172,-35.46208 21.68847,-15.95918 24.6773,-8.66667 9.54758,-24.99041 -17.26342,-11.02382 -24.6773,8.66667 z"
       id="path3221"
       sodipodi:nodetypes="ccc"
       inkscape:connector-curvature="0" />
    <path
       style="opacity:0.16595746;fill:#000000;fill-rule:evenodd;stroke:#000000;stroke-width:1px;stroke-linecap:butt;stroke-linejoin:miter;stroke-opacity:1"
       d="m 397.03295,413.82784 -25.55615,0.45636 c 218.01772,-83.12461 163.00356,23.43524 105.87546,24.18707 129.24088,-64.77 -59.39767,-47.06287 -80.31931,-24.64343 z"
       id="path3231"
       sodipodi:nodetypes="cccc"
       inkscape:connector-curvature="0" />
    <path
       style="opacity:0.42978719;fill:#ffffff;fill-rule:evenodd;stroke:none"
       d="M 533.4845,385.53354 545,391.00986 c 6.29194,12.4257 0.0502,19.47982 -10.60278,24.64342 17.38649,-12.69352 4.52285,-20.84953 -0.91272,-30.11974 z"
       id="path3233"
       sodipodi:nodetypes="cccc"
       inkscape:connector-curvature="0" />
    <path
       style="fill:#000000;fill-rule:evenodd;stroke:#000000;stroke-width:1px;stroke-linecap:butt;stroke-linejoin:miter;stroke-opacity:1"
       d="M 177.76184,52.390952 C 189.98521,39.393287 203.75777,30.577 227.96141,48.740074 201.30973,20.285242 190.33942,38.58614 177.76184,52.390952 z"
       id="path3239"
       sodipodi:nodetypes="ccc"
       inkscape:connector-curvature="0" />
    <path
       style="fill:#000000;fill-rule:evenodd;stroke:#000000;stroke-width:0.87148839px;stroke-linecap:butt;stroke-linejoin:miter;stroke-opacity:1"
       d="m 276.36974,53.671493 c -11.36569,-10.616558 -24.17187,-17.817745 -46.67721,-2.982056 24.78161,-23.242048 34.98216,-8.293783 46.67721,2.982056 z"
       id="path3241"
       sodipodi:nodetypes="ccc"
       inkscape:connector-curvature="0" />
    <path
       style="opacity:0.23829789;fill:#000000;fill-rule:evenodd;stroke:#000000;stroke-width:1px;stroke-linecap:butt;stroke-linejoin:miter;stroke-opacity:1"
       d="m 190,53.760031 c -4.80568,30.938103 17.38435,21.382649 27.68358,29.663381 l -24.64342,3.650877 C 180.48988,73.662158 184.61971,63.586049 190,53.760031 z"
       id="path3245"
       sodipodi:nodetypes="cccc"
       inkscape:connector-curvature="0" />
    <path
       style="opacity:0.26808514;fill:#000000;fill-rule:evenodd;stroke:none"
       d="m 327.21278,427.7234 3.22695,0.34043 c -38.17939,-30.88254 -9.61855,-49.45411 -2.58156,-54.55319 -8.62355,2.52652 -18.45888,1.41771 -23.87944,13.55319 2.52647,11.61201 -17.92388,27.58912 23.23405,40.65957 z"
       id="path3251"
       sodipodi:nodetypes="ccccc"
       inkscape:connector-curvature="0" />
    <path
       style="opacity:0.07234042;fill:#000000;fill-rule:evenodd;stroke:#000000;stroke-width:3;stroke-linecap:butt;stroke-linejoin:miter;stroke-miterlimit:4;stroke-opacity:1;stroke-dasharray:none"
       d="m 192.97164,429.01418 -0.64539,-12.9078 48.40425,-16.78014 10.97164,-35.49646 22.58865,-12.26241 L 270,364.47517 255.57448,370 l -9.68086,31.9078 4.10638,3.22695 -50.57446,14.19858 -6.4539,9.68085 z"
       id="path3253"
       inkscape:connector-curvature="0" />
    <path
       style="fill:#000000;fill-rule:evenodd;stroke:#000000;stroke-width:1px;stroke-linecap:butt;stroke-linejoin:miter;stroke-opacity:1"
       d="m 243.41745,441.74595 c 8.29065,-4.33144 8.43113,-6.42467 19.33275,-4.9932 -9.84081,0.70044 -10.69829,2.89897 -21.18655,8.42346 l 1.8538,-3.43026 z"
       id="path3257"
       sodipodi:nodetypes="cccc"
       inkscape:connector-curvature="0" />
    <path
       style="opacity:0.22978725;fill:#000000;fill-rule:evenodd;stroke:#000000;stroke-width:1px;stroke-linecap:butt;stroke-linejoin:miter;stroke-opacity:1"
       d="m 406.16014,202.5333 c -38.87143,2.83135 -81.49013,-3.23705 -111.35177,20.99254 l 10.03992,33.77062 c -1.59447,-32.5145 27.51483,-52.64845 101.31185,-54.76316 z"
       id="path3263"
       sodipodi:nodetypes="cccc"
       inkscape:connector-curvature="0" />
    <path
       style="opacity:0.23404254;fill:#000000;fill-rule:evenodd;stroke:#000000;stroke-width:1px;stroke-linecap:butt;stroke-linejoin:miter;stroke-opacity:1"
       d="m 263.1546,87.987009 c 7.58661,-0.893187 12.48985,0.286166 9.29215,15.207511 20.17752,-29.288221 5.89154,-24.768593 -9.29215,-15.207511 z"
       id="path3272"
       sodipodi:nodetypes="ccc"
       inkscape:connector-curvature="0" />
    <path
       sodipodi:type="arc"
       style="opacity:0.20851063;color:#000000;fill:#000000;fill-opacity:1;fill-rule:evenodd;stroke:none;stroke-width:3;marker:none;visibility:visible;display:inline;overflow:visible;enable-background:accumulate"
       id="path3295"
       sodipodi:cx="78.092201"
       sodipodi:cy="282.83331"
       sodipodi:rx="14.198582"
       sodipodi:ry="13.230496"
       d="m 92.290783,282.83331 c 0,7.307 -6.356922,13.2305 -14.198582,13.2305 -7.84166,0 -14.198581,-5.9235 -14.198581,-13.2305 0,-7.307 6.356921,-13.23049 14.198581,-13.23049 7.84166,0 14.198582,5.92349 14.198582,13.23049 z"
       transform="matrix(0.5,0,0,0.5365854,325.5993,196.5762)" />
    <path
       sodipodi:type="arc"
       style="opacity:0.20851063;color:#000000;fill:#000000;fill-opacity:1;fill-rule:evenodd;stroke:none;stroke-width:3;marker:none;visibility:visible;display:inline;overflow:visible;enable-background:accumulate"
       id="path3297"
       sodipodi:cx="78.092201"
       sodipodi:cy="282.83331"
       sodipodi:rx="14.198582"
       sodipodi:ry="13.230496"
       d="m 92.290783,282.83331 c 0,7.307 -6.356922,13.2305 -14.198582,13.2305 -7.84166,0 -14.198581,-5.9235 -14.198581,-13.2305 0,-7.307 6.356921,-13.23049 14.198581,-13.23049 7.84166,0 14.198582,5.92349 14.198582,13.23049 z"
       transform="matrix(0.4545455,0,0,0.4390244,311.72342,218.68388)" />
    <path
       sodipodi:type="arc"
       style="opacity:0.20851063;color:#000000;fill:#000000;fill-opacity:1;fill-rule:evenodd;stroke:none;stroke-width:3;marker:none;visibility:visible;display:inline;overflow:visible;enable-background:accumulate"
       id="path3299"
       sodipodi:cx="78.092201"
       sodipodi:cy="282.83331"
       sodipodi:rx="14.198582"
       sodipodi:ry="13.230496"
       d="m 92.290783,282.83331 c 0,7.307 -6.356922,13.2305 -14.198582,13.2305 -7.84166,0 -14.198581,-5.9235 -14.198581,-13.2305 0,-7.307 6.356921,-13.23049 14.198581,-13.23049 7.84166,0 14.198582,5.92349 14.198582,13.23049 z"
       transform="matrix(0.5,0,0,0.4878049,322.37234,191.06089)" />
    <path
       style="opacity:0.1148936;fill:#ffffff;fill-rule:evenodd;stroke:none"
       d="M 230.40426,209.58155 C 210.7406,246.26479 207.42215,273.23842 215.56029,330 c 8.6052,-19.96343 17.2104,-32.87581 25.8156,-33.93618 -25.44987,-50.44545 -11.52352,-60.37838 -10.97163,-86.48227 z"
       id="path3464"
       sodipodi:nodetypes="cccc"
       inkscape:connector-curvature="0" />
  </g>
</svg>
