<?xml version="1.0" encoding="UTF-8" standalone="no"?>
<!-- Created with Inkscape (http://www.inkscape.org/) -->

<svg
   xmlns:dc="http://purl.org/dc/elements/1.1/"
   xmlns:cc="http://creativecommons.org/ns#"
   xmlns:rdf="http://www.w3.org/1999/02/22-rdf-syntax-ns#"
   xmlns:svg="http://www.w3.org/2000/svg"
   xmlns="http://www.w3.org/2000/svg"
   xmlns:xlink="http://www.w3.org/1999/xlink"
   xmlns:sodipodi="http://sodipodi.sourceforge.net/DTD/sodipodi-0.dtd"
   xmlns:inkscape="http://www.inkscape.org/namespaces/inkscape"
   width="735.22437"
   height="820.31976"
   id="svg9575"
   version="1.1"
   inkscape:version="0.48.3.1 r9886"
   sodipodi:docname="extraterrestre2.svg"
   inkscape:export-filename="/home/tarrito/Documents/pagina/fantasia/extraterrestre2.png"
   inkscape:export-xdpi="90"
   inkscape:export-ydpi="90">
  <defs
     id="defs9577">
    <inkscape:perspective
       sodipodi:type="inkscape:persp3d"
       inkscape:vp_x="0 : 526.18109 : 1"
       inkscape:vp_y="0 : 1000 : 0"
       inkscape:vp_z="744.09448 : 526.18109 : 1"
       inkscape:persp3d-origin="372.04724 : 350.78739 : 1"
       id="perspective9583" />
    <inkscape:perspective
       id="perspective9470"
       inkscape:persp3d-origin="0.5 : 0.33333333 : 1"
       inkscape:vp_z="1 : 0.5 : 1"
       inkscape:vp_y="0 : 1000 : 0"
       inkscape:vp_x="0 : 0.5 : 1"
       sodipodi:type="inkscape:persp3d" />
    <filter
       color-interpolation-filters="sRGB"
       inkscape:collect="always"
       id="filter4847"
       x="-0.081054129"
       width="1.1621083"
       y="-0.38449159"
       height="1.7689832">
      <feGaussianBlur
         inkscape:collect="always"
         stdDeviation="4.7165465"
         id="feGaussianBlur4849" />
    </filter>
    <linearGradient
       inkscape:collect="always"
       xlink:href="#linearGradient4245"
       id="linearGradient4251"
       x1="624.49078"
       y1="1081.1199"
       x2="646.61768"
       y2="1147.6875"
       gradientUnits="userSpaceOnUse" />
    <linearGradient
       inkscape:collect="always"
       id="linearGradient4245">
      <stop
         style="stop-color:#ffffff;stop-opacity:1;"
         offset="0"
         id="stop4247" />
      <stop
         style="stop-color:#ffffff;stop-opacity:0;"
         offset="1"
         id="stop4249" />
    </linearGradient>
    <filter
       color-interpolation-filters="sRGB"
       inkscape:collect="always"
       id="filter4600"
       x="-0.13076419"
       width="1.2615284"
       y="-0.17250031"
       height="1.3450006">
      <feGaussianBlur
         inkscape:collect="always"
         stdDeviation="5.9388738"
         id="feGaussianBlur4602" />
    </filter>
    <filter
       color-interpolation-filters="sRGB"
       inkscape:collect="always"
       id="filter4329"
       x="-0.10923163"
       width="1.2184633"
       y="-0.15728307"
       height="1.3145661">
      <feGaussianBlur
         inkscape:collect="always"
         stdDeviation="2.1611415"
         id="feGaussianBlur4331" />
    </filter>
    <filter
       color-interpolation-filters="sRGB"
       inkscape:collect="always"
       id="filter4329-3"
       x="-0.10923163"
       width="1.2184633"
       y="-0.15728307"
       height="1.3145661">
      <feGaussianBlur
         inkscape:collect="always"
         stdDeviation="2.1611415"
         id="feGaussianBlur4331-1" />
    </filter>
    <filter
       color-interpolation-filters="sRGB"
       inkscape:collect="always"
       id="filter4386"
       x="-0.061580755"
       width="1.1231616"
       y="-0.16138308"
       height="1.3227662">
      <feGaussianBlur
         inkscape:collect="always"
         stdDeviation="1.645866"
         id="feGaussianBlur4388" />
    </filter>
    <filter
       color-interpolation-filters="sRGB"
       inkscape:collect="always"
       id="filter4398"
       x="-0.1906914"
       width="1.3813828"
       y="-0.31658566"
       height="1.6331713">
      <feGaussianBlur
         inkscape:collect="always"
         stdDeviation="4.6736221"
         id="feGaussianBlur4400" />
    </filter>
    <filter
       color-interpolation-filters="sRGB"
       inkscape:collect="always"
       id="filter4434"
       x="-0.1271276"
       width="1.2542552"
       y="-0.2110571"
       height="1.4221143">
      <feGaussianBlur
         inkscape:collect="always"
         stdDeviation="3.1157481"
         id="feGaussianBlur4436" />
    </filter>
    <linearGradient
       inkscape:collect="always"
       xlink:href="#linearGradient4460"
       id="linearGradient4466"
       x1="560.96283"
       y1="1270.6813"
       x2="566.82928"
       y2="1306.7942"
       gradientUnits="userSpaceOnUse" />
    <linearGradient
       inkscape:collect="always"
       id="linearGradient4460">
      <stop
         style="stop-color:#ffffff;stop-opacity:1;"
         offset="0"
         id="stop4462" />
      <stop
         style="stop-color:#ffffff;stop-opacity:0;"
         offset="1"
         id="stop4464" />
    </linearGradient>
    <filter
       color-interpolation-filters="sRGB"
       inkscape:collect="always"
       id="filter4456"
       x="-0.19424991"
       width="1.3884999"
       y="-0.21324731"
       height="1.4264946">
      <feGaussianBlur
         inkscape:collect="always"
         stdDeviation="3.6575203"
         id="feGaussianBlur4458" />
    </filter>
    <linearGradient
       gradientTransform="translate(48.858695,34.723976)"
       y2="1306.7942"
       x2="566.82928"
       y1="1270.6813"
       x1="560.96283"
       gradientUnits="userSpaceOnUse"
       id="linearGradient4487"
       xlink:href="#linearGradient4460-2"
       inkscape:collect="always" />
    <linearGradient
       inkscape:collect="always"
       id="linearGradient4460-2">
      <stop
         style="stop-color:#ffffff;stop-opacity:1;"
         offset="0"
         id="stop4462-6" />
      <stop
         style="stop-color:#ffffff;stop-opacity:0;"
         offset="1"
         id="stop4464-6" />
    </linearGradient>
    <filter
       color-interpolation-filters="sRGB"
       inkscape:collect="always"
       id="filter4456-4"
       x="-0.19424991"
       width="1.3884999"
       y="-0.21324731"
       height="1.4264946">
      <feGaussianBlur
         inkscape:collect="always"
         stdDeviation="3.6575203"
         id="feGaussianBlur4458-9" />
    </filter>
    <linearGradient
       inkscape:collect="always"
       xlink:href="#linearGradient4588"
       id="linearGradient4594"
       x1="657.22162"
       y1="1305.7842"
       x2="676.32544"
       y2="1333.5634"
       gradientUnits="userSpaceOnUse" />
    <linearGradient
       inkscape:collect="always"
       id="linearGradient4588">
      <stop
         style="stop-color:#ffffff;stop-opacity:1;"
         offset="0"
         id="stop4590" />
      <stop
         style="stop-color:#ffffff;stop-opacity:0;"
         offset="1"
         id="stop4592" />
    </linearGradient>
    <filter
       color-interpolation-filters="sRGB"
       inkscape:collect="always"
       id="filter4456-4-0"
       x="-0.19424991"
       width="1.3884999"
       y="-0.21324731"
       height="1.4264946">
      <feGaussianBlur
         inkscape:collect="always"
         stdDeviation="3.6575203"
         id="feGaussianBlur4458-9-6" />
    </filter>
    <filter
       color-interpolation-filters="sRGB"
       inkscape:collect="always"
       id="filter4624"
       x="-0.17727268"
       width="1.3545454"
       y="-0.28363651"
       height="1.567273">
      <feGaussianBlur
         inkscape:collect="always"
         stdDeviation="1.6883109"
         id="feGaussianBlur4626" />
    </filter>
    <filter
       color-interpolation-filters="sRGB"
       inkscape:collect="always"
       id="filter4683"
       x="-0.23751733"
       width="1.4750347"
       y="-0.25930601"
       height="1.518612">
      <feGaussianBlur
         inkscape:collect="always"
         stdDeviation="2.6991984"
         id="feGaussianBlur4685" />
    </filter>
    <filter
       color-interpolation-filters="sRGB"
       inkscape:collect="always"
       id="filter4726"
       x="-0.17099693"
       width="1.3419939"
       y="-0.13164154"
       height="1.2632831">
      <feGaussianBlur
         inkscape:collect="always"
         stdDeviation="4.922845"
         id="feGaussianBlur4728" />
    </filter>
    <filter
       color-interpolation-filters="sRGB"
       inkscape:collect="always"
       id="filter4792"
       x="-0.11016608"
       width="1.2203321"
       y="-0.5483368"
       height="2.0966735">
      <feGaussianBlur
         inkscape:collect="always"
         stdDeviation="1.9279596"
         id="feGaussianBlur4794" />
    </filter>
    <filter
       color-interpolation-filters="sRGB"
       inkscape:collect="always"
       id="filter4857"
       x="-0.13918959"
       width="1.2783792"
       y="-0.26907364"
       height="1.5381473">
      <feGaussianBlur
         inkscape:collect="always"
         stdDeviation="2.1293139"
         id="feGaussianBlur4859" />
    </filter>
    <filter
       color-interpolation-filters="sRGB"
       inkscape:collect="always"
       id="filter5357"
       x="-0.24310541"
       width="1.4862108"
       y="-1.4531814"
       height="3.9063628">
      <feGaussianBlur
         inkscape:collect="always"
         stdDeviation="1.5348349"
         id="feGaussianBlur5359" />
    </filter>
    <linearGradient
       inkscape:collect="always"
       xlink:href="#linearGradient4245-8"
       id="linearGradient4251-3"
       x1="624.49078"
       y1="1081.1199"
       x2="646.61768"
       y2="1147.6875"
       gradientUnits="userSpaceOnUse" />
    <linearGradient
       inkscape:collect="always"
       id="linearGradient4245-8">
      <stop
         style="stop-color:#ffffff;stop-opacity:1;"
         offset="0"
         id="stop4247-5" />
      <stop
         style="stop-color:#ffffff;stop-opacity:0;"
         offset="1"
         id="stop4249-10" />
    </linearGradient>
    <filter
       color-interpolation-filters="sRGB"
       inkscape:collect="always"
       id="filter6937"
       x="-0.055047661"
       width="1.1100953"
       y="-0.17987506"
       height="1.3597502">
      <feGaussianBlur
         inkscape:collect="always"
         stdDeviation="0.95022747"
         id="feGaussianBlur6939" />
    </filter>
    <linearGradient
       y2="1147.6875"
       x2="646.61768"
       y1="1081.1199"
       x1="624.49078"
       gradientUnits="userSpaceOnUse"
       id="linearGradient9573"
       xlink:href="#linearGradient4245-8"
       inkscape:collect="always" />
  </defs>
  <sodipodi:namedview
     id="base"
     pagecolor="#ffffff"
     bordercolor="#666666"
     borderopacity="1.0"
     inkscape:pageopacity="0.0"
     inkscape:pageshadow="2"
     inkscape:zoom="0.175"
     inkscape:cx="848.12794"
     inkscape:cy="364.44383"
     inkscape:document-units="px"
     inkscape:current-layer="layer1"
     showgrid="false"
     inkscape:window-width="1264"
     inkscape:window-height="715"
     inkscape:window-x="0"
     inkscape:window-y="48"
     inkscape:window-maximized="1" />
  <metadata
     id="metadata9580">
    <rdf:RDF>
      <cc:Work
         rdf:about="">
        <dc:format>image/svg+xml</dc:format>
        <dc:type
           rdf:resource="http://purl.org/dc/dcmitype/StillImage" />
        <dc:title></dc:title>
      </cc:Work>
    </rdf:RDF>
  </metadata>
  <g
     inkscape:label="Capa 1"
     inkscape:groupmode="layer"
     id="layer1"
     transform="translate(17.192037,-82.202249)">
    <g
       transform="matrix(1.3849271,0,0,1.3849271,-568.23147,-1178.082)"
       id="g9416">
      <g
         transform="matrix(2,0,0,2,-673.02965,-1206.1604)"
         id="g5653">
        <path
           style="color:#000000;fill:#decd87;stroke:#000000;stroke-width:3.29999995;stroke-linecap:butt;stroke-linejoin:miter;stroke-miterlimit:4;stroke-opacity:1;stroke-dasharray:none;stroke-dashoffset:0;marker:none;visibility:visible;display:inline;overflow:visible;enable-background:accumulate"
           d="m 721.39597,1186.5777 2.05211,14.7664 19.96922,-0.1363 2.63212,-15.8363 -24.65345,1.2062 z"
           id="path3643-0-7-5" />
        <path
           style="color:#000000;fill:#222b00;stroke:#000000;stroke-width:3.29999995;stroke-linecap:butt;stroke-linejoin:miter;stroke-miterlimit:4;stroke-opacity:1;stroke-dasharray:none;stroke-dashoffset:0;marker:none;visibility:visible;display:inline;overflow:visible;enable-background:accumulate"
           d="m 767.09523,1252.0711 c -10.57646,-11.0836 -45.15271,-12.9908 -101.52033,-6.566 1.87739,-7.7287 -3.58159,-27.9679 23.23351,-58.5889 l -47.34822,-5.2381 -27.14287,102.6785 152.77791,-32.2855 z"
           id="path2825-5-5"
           sodipodi:nodetypes="ccc" />
        <path
           style="color:#000000;fill:#decd87;stroke:#000000;stroke-width:3.29999995;stroke-linecap:butt;stroke-linejoin:miter;stroke-miterlimit:4;stroke-opacity:1;stroke-dasharray:none;stroke-dashoffset:0;marker:none;visibility:visible;display:inline;overflow:visible;enable-background:accumulate"
           d="m 725.28383,1245.4349 1.33638,-14.8483 6.4537,-0.268 2.9304,3.1856 3.58364,-3.4561 6.98474,-0.2901 3.39408,15.6907 -24.68294,-0.014 0,2e-4 z"
           id="path3643-7-9-2-4"
           sodipodi:nodetypes="ccccccccc" />
        <path
           style="color:#000000;fill:#800000;stroke:#000000;stroke-width:3.63692045;stroke-linecap:butt;stroke-linejoin:miter;stroke-miterlimit:4;stroke-opacity:1;stroke-dasharray:none;stroke-dashoffset:0;marker:none;visibility:visible;display:inline;overflow:visible;enable-background:accumulate"
           d="m 627.49634,1276.9332 c 5.57516,-17.6903 10.55773,-27.4628 37.76605,-30.0039 45.12613,-11.4986 83.23479,-14.1266 101.89704,7.8271 -12.44009,28.4747 -87.2363,31.2815 -139.66309,22.1768 z"
           id="path2827-2-7"
           sodipodi:nodetypes="cccc" />
        <path
           style="opacity:0.52521009;color:#000000;fill:#000000;stroke:none;stroke-width:3.63692045;marker:none;visibility:visible;display:inline;overflow:visible;filter:url(#filter4847);enable-background:accumulate"
           d="m 764.56489,1251.4724 c -28.845,0.1552 -94.9234,38.0242 -127.5937,5.375 -4.5162,4.85 -6.941,11.3174 -9.5,19.4375 52.4267,9.1047 127.2161,6.2872 139.6562,-22.1875 -0.7856,-0.9242 -1.6151,-1.7868 -2.4688,-2.625 -0.0317,10e-5 -0.0618,-2e-4 -0.0937,0 z"
           id="path2827-2-7-0-7" />
        <path
           style="color:#000000;fill:#e9ddaf;stroke:#000000;stroke-width:3.29999995;stroke-linecap:butt;stroke-linejoin:miter;stroke-miterlimit:4;stroke-opacity:1;stroke-dasharray:none;stroke-dashoffset:0;marker:none;visibility:visible;display:inline;overflow:visible;enable-background:accumulate"
           d="m 693.13995,1277.4474 -0.73285,-14.8902 19.64547,-3.5839 5.53438,15.0695 -24.447,3.4046 z"
           id="path3643-7-8-6" />
        <path
           style="color:#000000;fill:#e9ddaf;stroke:#000000;stroke-width:3.29999995;stroke-linecap:butt;stroke-linejoin:miter;stroke-miterlimit:4;stroke-opacity:1;stroke-dasharray:none;stroke-dashoffset:0;marker:none;visibility:visible;display:inline;overflow:visible;enable-background:accumulate"
           d="m 668.60536,1184.8959 -0.50508,14.8998 19.69798,3.283 5.3033,-15.1523 -24.4962,-3.0305 z"
           id="path3643-9-5" />
        <path
           style="color:#000000;fill:#677821;fill-opacity:1;fill-rule:nonzero;stroke:#000000;stroke-width:3.29999995;stroke-linecap:butt;stroke-linejoin:miter;stroke-miterlimit:4;stroke-opacity:1;stroke-dasharray:none;stroke-dashoffset:0;marker:none;visibility:visible;display:inline;overflow:visible;enable-background:accumulate"
           d="m 676.66108,1065.4141 c -41.53337,-0.4678 -82.71538,60.7157 -88.12501,200.1875 -3.50857,-0.431 -7.18389,-0.5741 -10.96875,-0.375 -22.4434,1.1807 -40.02997,13.6738 -39.28125,27.9062 0.74872,14.2325 19.5566,24.837 42,23.6563 3.98881,-0.2098 7.79991,-0.7854 11.40625,-1.6563 -4.59923,8.3688 -5.46477,16.9358 -1.46875,23.4376 7.46265,12.1421 29.04033,12.4556 48.18751,0.6874 12.7606,-7.8426 21.20146,-19.0714 23.21875,-29.2812 -1.45969,15.4702 7.97577,27.7288 30.4375,30.0312 13.73577,0 25.36889,-5.6619 29.46875,-13.5 3.79862,4.6597 9.38167,8.8794 16.1875,11.8438 15.72794,6.8507 31.99941,4.3175 36.34375,-5.6562 2.38417,-5.4738 0.68485,-12.0465 -3.9375,-18 16.07548,-0.7501 28.75,-9.2706 28.75,-19.6563 0,-10.8789 -13.90733,-19.6875 -31.0625,-19.6875 -0.0315,0 -0.0623,-10e-5 -0.0937,0 0.12976,-7.2161 0.12727,-14.2677 -0.0313,-21.1562 -3.97599,18.3628 -106.26519,27.7003 -140.50001,17.5624 -3.60242,-30.9873 0.72003,-60.0413 24.75001,-87.875 43.55098,3.5537 94.65969,16.135 108.6875,0.875 -14.64754,-75.9781 -49.44147,-118.9548 -83.96875,-119.3437 z m 91.03125,188.7813 c 0.17308,-0.7995 0.15082,-1.6048 -0.0625,-2.4376 0.0225,0.8051 0.0439,1.6279 0.0625,2.4376 z m -0.0625,-2.4376 c -0.003,-0.1133 0.003,-0.2303 0,-0.3437 l -0.0313,0.1563 c 0.0182,0.062 0.0152,0.1253 0.0313,0.1874 z"
           id="path3926-8-4-6"
           sodipodi:nodetypes="ccssscsscccsscssccccccccccccc" />
        <path
           sodipodi:type="arc"
           style="color:#000000;fill:#ffffff;fill-opacity:1;fill-rule:nonzero;stroke:#000000;stroke-width:3.29999995;stroke-linecap:butt;stroke-linejoin:miter;stroke-miterlimit:4;stroke-opacity:1;stroke-dasharray:none;stroke-dashoffset:0;marker:none;visibility:visible;display:inline;overflow:visible;enable-background:accumulate"
           id="path3685-7-9"
           sodipodi:cx="380.06989"
           sodipodi:cy="461.67548"
           sodipodi:rx="27.526657"
           sodipodi:ry="27.526657"
           d="m 407.59654,461.67548 c 0,15.20255 -12.3241,27.52665 -27.52665,27.52665 -15.20256,0 -27.52666,-12.3241 -27.52666,-27.52665 0,-15.20256 12.3241,-27.52666 27.52666,-27.52666 15.20255,0 27.52665,12.3241 27.52665,27.52666 z"
           transform="translate(301.41492,673.47041)" />
        <path
           style="opacity:0.68487393;color:#000000;fill:url(#linearGradient4251);fill-opacity:1;fill-rule:nonzero;stroke:none;stroke-width:3.29999995;marker:none;visibility:visible;display:inline;overflow:visible;filter:url(#filter4600);enable-background:accumulate"
           d="m 677.37053,1065.0625 c -27.12649,-0.3055 -54.10425,25.6979 -71.0625,82.625 47.10476,-1.2083 87.87014,-27.033 109,-64.6563 -11.96347,-11.6575 -24.96717,-17.8226 -37.9375,-17.9687 z"
           id="path3926-8-4-6-6"
           transform="matrix(0.86909716,0,0,0.86909716,86.501628,144.82743)" />
        <path
           style="color:#000000;fill:#ffffff;fill-opacity:1;fill-rule:nonzero;stroke:#000000;stroke-width:3.29999995;stroke-linecap:butt;stroke-linejoin:miter;stroke-miterlimit:4;stroke-opacity:1;stroke-dasharray:none;stroke-dashoffset:0;marker:none;visibility:visible;display:inline;overflow:visible;enable-background:accumulate"
           d="m 752.15737,1138.4289 c 0,11.5552 -9.36733,20.9225 -20.92252,20.9225 -11.55519,0 -20.92252,-9.3673 -20.92252,-20.9225 0,-11.5552 9.36733,-20.9225 20.92252,-20.9225 11.55519,0 20.92252,9.3673 20.92252,20.9225 z"
           id="path3685-6-3-3" />
        <path
           sodipodi:type="arc"
           style="color:#000000;fill:#000000;fill-opacity:1;fill-rule:nonzero;stroke:#000000;stroke-width:3.29999995;stroke-linecap:butt;stroke-linejoin:miter;stroke-miterlimit:4;stroke-opacity:1;stroke-dasharray:none;stroke-dashoffset:0;marker:none;visibility:visible;display:inline;overflow:visible;enable-background:accumulate"
           id="path3762-6-7"
           sodipodi:cx="371.96429"
           sodipodi:cy="465.75504"
           sodipodi:rx="14.821428"
           sodipodi:ry="14.821428"
           d="m 386.78572,465.75504 c 0,8.18564 -6.63578,14.82142 -14.82143,14.82142 -8.18564,0 -14.82142,-6.63578 -14.82142,-14.82142 0,-8.18565 6.63578,-14.82143 14.82142,-14.82143 8.18565,0 14.82143,6.63578 14.82143,14.82143 z"
           transform="translate(310.54219,668.19993)" />
        <path
           sodipodi:type="arc"
           style="color:#000000;fill:#000000;fill-opacity:1;fill-rule:nonzero;stroke:#000000;stroke-width:3.29999995;stroke-linecap:butt;stroke-linejoin:miter;stroke-miterlimit:4;stroke-opacity:1;stroke-dasharray:none;stroke-dashoffset:0;marker:none;visibility:visible;display:inline;overflow:visible;enable-background:accumulate"
           id="path3762-2-1-4"
           sodipodi:cx="371.96429"
           sodipodi:cy="465.75504"
           sodipodi:rx="14.821428"
           sodipodi:ry="14.821428"
           d="m 386.78572,465.75504 c 0,8.18564 -6.63578,14.82142 -14.82143,14.82142 -8.18564,0 -14.82142,-6.63578 -14.82142,-14.82142 0,-8.18565 6.63578,-14.82143 14.82142,-14.82143 8.18565,0 14.82143,6.63578 14.82143,14.82143 z"
           transform="matrix(0.5,0,0,0.5,545.63145,903.04169)" />
        <path
           sodipodi:type="arc"
           style="color:#000000;fill:#ffffff;fill-opacity:1;fill-rule:nonzero;stroke:none;stroke-width:3.29999995;marker:none;visibility:visible;display:inline;overflow:visible;enable-background:accumulate"
           id="path3786-0-3-5"
           sodipodi:cx="385.71429"
           sodipodi:cy="462.54074"
           sodipodi:rx="10"
           sodipodi:ry="9.1071424"
           d="m 395.71429,462.54074 c 0,5.02974 -4.47715,9.10714 -10,9.10714 -5.52284,0 -10,-4.0774 -10,-9.10714 0,-5.02973 4.47716,-9.10714 10,-9.10714 5.52285,0 10,4.07741 10,9.10714 z"
           transform="matrix(0.4,0,0,0.4,582.32788,950.90299)" />
        <path
           sodipodi:type="arc"
           style="color:#000000;fill:#ffffff;fill-opacity:1;fill-rule:nonzero;stroke:none;stroke-width:3.29999995;marker:none;visibility:visible;display:inline;overflow:visible;enable-background:accumulate"
           id="path3786-9-2"
           sodipodi:cx="385.71429"
           sodipodi:cy="462.54074"
           sodipodi:rx="10"
           sodipodi:ry="9.1071424"
           d="m 395.71429,462.54074 c 0,5.02974 -4.47715,9.10714 -10,9.10714 -5.52284,0 -10,-4.0774 -10,-9.10714 0,-5.02973 4.47716,-9.10714 10,-9.10714 5.52285,0 10,4.07741 10,9.10714 z"
           transform="matrix(0.8,0,0,0.8,385.89932,764.63666)" />
        <path
           style="opacity:0.35714285;color:#000000;fill:#000000;fill-opacity:1;fill-rule:nonzero;stroke:#000000;stroke-width:3.29999995;stroke-linecap:butt;stroke-linejoin:miter;stroke-miterlimit:4;stroke-opacity:1;stroke-dasharray:none;stroke-dashoffset:0;marker:none;visibility:visible;display:inline;overflow:visible;enable-background:accumulate"
           d="m 643.97225,1124.8406 106.31856,10.3541 0.75761,-9.0914 -102.53048,-23.2335 -4.54569,21.9708 z"
           id="path3675-2-5-8" />
        <path
           style="color:#000000;fill:#445500;fill-opacity:1;fill-rule:nonzero;stroke:#000000;stroke-width:3.29999995;stroke-linecap:butt;stroke-linejoin:miter;stroke-miterlimit:4;stroke-opacity:1;stroke-dasharray:none;stroke-dashoffset:0;marker:none;visibility:visible;display:inline;overflow:visible;enable-background:accumulate"
           d="m 650.42261,1122.0139 106.31856,10.3541 0.75761,-9.0914 -102.53048,-23.2335 -4.54569,21.9708 z"
           id="path3675-2-5" />
        <path
           style="fill:#000000;stroke:none"
           d="m 710.77923,1142.4695 c -16.47775,27.8305 -37.6952,21.0871 -63.89215,23.2335 25.15994,1.2966 54.83837,6.401 64.14469,-20.4556 l -0.25254,-2.7779 z"
           id="path3810-1-4"
           sodipodi:nodetypes="cccc" />
        <path
           style="fill:#000000;stroke:none"
           d="m 712.84656,1147.6573 c 8.23888,13.9152 24.56189,16.2578 37.66037,17.331 -12.57997,0.6483 -33.13348,-2.5138 -37.78664,-15.9421 l 0.12627,-1.3889 z"
           id="path3810-2-9-7"
           sodipodi:nodetypes="cccc" />
        <path
           style="fill:#000000;stroke:none"
           d="m 709.30697,1139.7629 c -10.63794,30.5432 -32.77077,28.1366 -58.02333,35.4302 24.91817,-3.7133 55.0196,-4.5895 58.82118,-32.7573 l -0.79785,-2.6729 z"
           id="path3810-3-4-4"
           sodipodi:nodetypes="cccc" />
        <path
           style="color:#000000;fill:#445500;fill-opacity:1;fill-rule:nonzero;stroke:#000000;stroke-width:3.29999995;stroke-linecap:butt;stroke-linejoin:miter;stroke-miterlimit:4;stroke-opacity:1;stroke-dasharray:none;stroke-dashoffset:0;marker:none;visibility:visible;display:inline;overflow:visible;enable-background:accumulate"
           d="m 649.67447,1097.2138 -3.74999,23.3928 -5.7143,-1.0714 1.25,-21.6071 8.21429,-0.7143 z"
           id="path4060-4"
           sodipodi:nodetypes="ccccc" />
        <path
           style="fill:#000000;stroke:none"
           d="m 687.17447,1189.1781 -2.41071,10.3125 4.00122,-10.0817 -1.59051,-0.2308 z"
           id="path4091-3"
           sodipodi:nodetypes="cccc" />
        <path
           style="fill:#000000;stroke:none"
           d="m 740.59253,1200.0413 -0.57946,-4.504 -0.40173,4.4476 0.98119,0.056 0,4e-4 z"
           id="path4091-6-0"
           sodipodi:nodetypes="ccccc" />
        <path
           style="color:#000000;fill:#000000;fill-opacity:1;fill-rule:nonzero;stroke:none;stroke-width:1px;marker:none;visibility:visible;display:inline;overflow:visible;enable-background:accumulate"
           d="m 734.61119,1233.8058 2.90419,5.1139 0.75762,-6.0609 -3.66181,0.947 z"
           id="path4115-7" />
        <path
           style="color:#000000;fill:#000000;fill-opacity:1;fill-rule:nonzero;stroke:none;stroke-width:1px;marker:none;visibility:visible;display:inline;overflow:visible;enable-background:accumulate"
           d="m 695.38876,1262.2138 0.89286,6.9643 0.53571,-7.3215 -1.42857,0.3572 z"
           id="path4125-8" />
        <path
           style="opacity:0.34453783;color:#000000;fill:#000000;fill-opacity:1;fill-rule:nonzero;stroke:none;stroke-width:2.84741282;marker:none;visibility:visible;display:inline;overflow:visible;filter:url(#filter4329);enable-background:accumulate"
           d="m 703.57177,1128.0436 c 0.006,0.1992 0,0.393 0,0.5931 0,13.1178 -10.63786,23.7556 -23.75541,23.7556 -9.83819,0 -18.26226,-5.9819 -21.86791,-14.5068 0.33237,12.8279 10.8205,23.1352 23.72844,23.1352 13.11755,0 23.75542,-10.6378 23.75542,-23.7552 0,-3.2671 -0.66722,-6.389 -1.86054,-9.2219 z"
           id="path3685-7-9-8" />
        <path
           style="opacity:0.34453783;color:#000000;fill:#000000;fill-opacity:1;fill-rule:nonzero;stroke:none;stroke-width:2.84741282;marker:none;visibility:visible;display:inline;overflow:visible;filter:url(#filter4329-3);enable-background:accumulate"
           d="m 748.93869,1129.5653 c 0.006,0.1992 0,0.393 0,0.5931 0,13.1178 -10.63786,23.7556 -23.75541,23.7556 -9.83819,0 -18.26226,-5.9819 -21.86791,-14.5068 0.33237,12.8279 10.8205,23.1352 23.72844,23.1352 13.11755,0 23.75542,-10.6378 23.75542,-23.7552 0,-3.2671 -0.66722,-6.389 -1.86054,-9.2219 z"
           id="path3685-7-9-8-4"
           transform="matrix(0.72345776,0,0,0.72345776,205.8603,316.93233)" />
        <path
           style="opacity:0.58403362;fill:#000000;stroke:none;filter:url(#filter4386)"
           d="m 712.56494,1144.9695 c -16.47775,27.8305 -37.6952,21.0871 -63.89215,23.2335 25.15994,1.2966 54.83837,6.401 64.14469,-20.4556 l -0.25254,-2.7779 z"
           id="path3810-1-4-9"
           sodipodi:nodetypes="cccc" />
        <path
           style="opacity:0.83613443;fill:#000000;stroke:none;filter:url(#filter4398)"
           d="m 711.09268,1142.2629 c -10.63794,30.5432 -32.77077,28.1366 -58.02333,35.4302 24.91817,-3.7133 55.0196,-4.5895 58.82118,-32.7573 l -0.79785,-2.6729 z"
           id="path3810-3-4-4-2"
           sodipodi:nodetypes="cccc" />
        <path
           style="opacity:0.83613443;fill:#000000;stroke:none;filter:url(#filter4434)"
           d="m 735.21445,1149.8045 c -10.63794,30.5432 -32.77077,28.1366 -58.02333,35.4302 24.91817,-3.7133 55.0196,-4.5895 58.82118,-32.7573 l -0.79785,-2.6729 z"
           id="path3810-3-4-4-2-8"
           sodipodi:nodetypes="cccc"
           transform="matrix(-0.63382754,0.04434602,0.04434602,0.63382754,1128.4493,385.82447)" />
        <path
           style="fill:url(#linearGradient4466);fill-opacity:1;stroke:none;filter:url(#filter4456)"
           d="m 589.42401,1268.5348 c -24.27583,7.3801 -55.24547,11.7656 -30.30458,41.1637 -28.05609,-17.8609 -15.62074,-38.5149 30.30458,-41.1637 z"
           id="path4438"
           sodipodi:nodetypes="ccc" />
        <path
           style="fill:url(#linearGradient4487);fill-opacity:1;stroke:none;filter:url(#filter4456-4)"
           d="m 638.28271,1303.2588 c -24.27583,7.3801 -55.24547,11.7656 -30.30458,41.1637 -28.05609,-17.8609 -15.62074,-38.5149 30.30458,-41.1637 z"
           id="path4438-5"
           sodipodi:nodetypes="ccc"
           transform="matrix(0.96614884,-0.25798531,0.25798531,0.96614884,-321.95237,203.39945)" />
        <path
           style="color:#000000;fill:url(#linearGradient4594);fill-opacity:1;fill-rule:nonzero;stroke:none;stroke-width:1px;marker:none;visibility:visible;display:inline;overflow:visible;filter:url(#filter4456-4-0);enable-background:accumulate"
           d="m 666.95322,1304.1427 c 3.66242,9.6806 4.53708,19.3613 19.69797,29.0419 -18.26908,-3.0976 -22.94394,-13.842 -19.69797,-29.0419 z"
           id="path4556"
           sodipodi:nodetypes="ccc" />
        <path
           style="opacity:0.52100836;fill:#000000;stroke:#000000;stroke-width:1px;stroke-linecap:butt;stroke-linejoin:miter;stroke-opacity:1;filter:url(#filter4624)"
           d="m 665.11561,1186.4429 21.31296,5.205 -2.32143,9.1071 3.03572,0.3572 6.54627,-14.373 -28.75209,-3.7865 0.17857,3.4902 z"
           id="path4614"
           transform="matrix(0.7496952,0,0,0.7496952,172.48444,299.39198)"
           sodipodi:nodetypes="ccccccc" />
        <path
           style="fill:#000000;stroke:none"
           d="m 587.14286,1315.9336 20.71428,-12.6786 -16.78571,15 -3.92857,-2.3214 z"
           id="path4628" />
        <path
           style="color:#000000;fill:#000000;fill-opacity:1;fill-rule:nonzero;stroke:none;stroke-width:1px;marker:none;visibility:visible;display:inline;overflow:visible;enable-background:accumulate"
           d="m 650.15943,1169.6662 c -19.26381,-11.1892 -23.84468,6.6022 -27.27412,21.4657 4.99454,-11.9547 8.11465,-30.6817 27.27412,-21.4657 z"
           id="path4630"
           sodipodi:nodetypes="ccc" />
        <path
           style="color:#000000;fill:#ffffff;fill-opacity:1;fill-rule:nonzero;stroke:none;stroke-width:1px;marker:none;visibility:visible;display:inline;overflow:visible;filter:url(#filter4683);enable-background:accumulate"
           d="m 651.94514,1170.9162 c -19.26381,-11.1892 -23.84468,6.6022 -27.27412,21.4657 4.99454,-11.9547 8.11465,-30.6817 27.27412,-21.4657 z"
           id="path4630-4"
           sodipodi:nodetypes="ccc" />
        <path
           style="opacity:0.2773109;color:#000000;fill:#000000;fill-opacity:1;fill-rule:nonzero;stroke:none;stroke-width:3.29999995;marker:none;visibility:visible;display:inline;overflow:visible;filter:url(#filter4726);enable-background:accumulate"
           d="m 767.53797,1251.189 -0.0312,0.1562 c 0.018,0.062 0.0152,0.1254 0.0312,0.1876 l 0,-0.3438 z m 0,0.3438 c 0.023,0.8051 0.0435,1.6277 0.0625,2.4374 0.1731,-0.7995 0.1513,-1.6047 -0.0625,-2.4374 z m 0.0625,2.4374 c -1.5082,6.9656 -17.186,12.6085 -37.9063,16.4063 31.53142,17.4916 33.44227,47.9561 33.4063,70.5625 5.1032,-1.421 9.0517,-4.2828 10.875,-8.4688 2.3842,-5.4737 0.6848,-12.0464 -3.9375,-18 16.0755,-0.75 13.53517,-11.3335 17.66123,-19.9141 4.7145,-9.8043 -2.81853,-19.4296 -19.97373,-19.4296 -0.032,0 -0.0617,-10e-5 -0.0937,0 0.1296,-7.2161 0.127,-14.2678 -0.0313,-21.1563 z"
           id="path3926-8-4-6-9"
           sodipodi:nodetypes="ccccccccccscsscc" />
        <path
           style="fill:#000000;stroke:none"
           d="m 645.35714,1253.7908 c 3.30886,-4.4281 24.58147,-3.5157 45,-2.8572 -10.9799,-1.1799 -20.63436,-2.8696 -37.5,-1.7857 l -7.5,4.6429 z"
           id="path4730"
           sodipodi:nodetypes="cccc" />
        <path
           style="opacity:0.86974786;color:#000000;fill:#ffffff;stroke:none;stroke-width:3.63692045;marker:none;visibility:visible;display:inline;overflow:visible;filter:url(#filter4792);enable-background:accumulate"
           d="m 734.44129,1243.3668 c -3.3736,-0.2836 -6.99297,-0.287 -10.82259,-0.077 -3.56928,0.8391 -7.25025,1.7347 -11.12264,2.8143 16.1947,0.1344 30.34213,0.8664 42.00116,5.4763 -4.5781,-5.0138 -11.51109,-7.4935 -20.05593,-8.2132 z"
           id="path2827-2-7-1" />
        <path
           style="opacity:0.23949579;fill:#000000;stroke:#000000;stroke-width:1px;stroke-linecap:butt;stroke-linejoin:miter;stroke-opacity:1;filter:url(#filter4857)"
           d="m 733.37075,1332.8058 c 13.66497,-0.9291 31.71816,8.2346 36.11295,-14.0159 3.25674,17.7814 -6.40706,24.4881 -36.11295,14.0159 z"
           id="path4851"
           sodipodi:nodetypes="ccc" />
        <path
           style="fill:#000000;stroke:none;filter:url(#filter5357)"
           d="m 723.26922,1193.0259 c 4.90112,2.9275 14.58725,3.2017 19.82425,-0.2525 l -19.82425,0.2525 z"
           id="path5347"
           sodipodi:nodetypes="ccc" />
      </g>
      <path
         transform="matrix(2,0,0,2,-673.02965,-1206.1604)"
         id="path6888"
         d="m 656.96429,1104.3265 -1.78572,12.6785 3.21429,-8.75 38.21428,5.5358 -39.64285,-9.4643 z"
         style="opacity:0.81932774;color:#000000;fill:url(#linearGradient9573);fill-opacity:1;fill-rule:nonzero;stroke:none;stroke-width:2.86802053;marker:none;visibility:visible;display:inline;overflow:visible;filter:url(#filter6937);enable-background:accumulate" />
    </g>
  </g>
</svg>
