<?xml version="1.0" encoding="UTF-8" standalone="no"?>
<!-- Created with Inkscape (http://www.inkscape.org/) -->

<svg
   xmlns:dc="http://purl.org/dc/elements/1.1/"
   xmlns:cc="http://creativecommons.org/ns#"
   xmlns:rdf="http://www.w3.org/1999/02/22-rdf-syntax-ns#"
   xmlns:svg="http://www.w3.org/2000/svg"
   xmlns="http://www.w3.org/2000/svg"
   xmlns:sodipodi="http://sodipodi.sourceforge.net/DTD/sodipodi-0.dtd"
   xmlns:inkscape="http://www.inkscape.org/namespaces/inkscape"
   width="387.75"
   height="466.81204"
   id="svg4755"
   version="1.1"
   inkscape:version="0.48.3.1 r9886"
   sodipodi:docname="Nuevo documento 2">
  <defs
     id="defs4757" />
  <sodipodi:namedview
     id="base"
     pagecolor="#ffffff"
     bordercolor="#666666"
     borderopacity="1.0"
     inkscape:pageopacity="0.0"
     inkscape:pageshadow="2"
     inkscape:zoom="0.35"
     inkscape:cx="193.87728"
     inkscape:cy="233.40933"
     inkscape:document-units="px"
     inkscape:current-layer="layer1"
     showgrid="false"
     fit-margin-top="0"
     fit-margin-left="0"
     fit-margin-right="0"
     fit-margin-bottom="0"
     inkscape:window-width="469"
     inkscape:window-height="434"
     inkscape:window-x="695"
     inkscape:window-y="24"
     inkscape:window-maximized="0" />
  <metadata
     id="metadata4760">
    <rdf:RDF>
      <cc:Work
         rdf:about="">
        <dc:format>image/svg+xml</dc:format>
        <dc:type
           rdf:resource="http://purl.org/dc/dcmitype/StillImage" />
        <dc:title></dc:title>
      </cc:Work>
    </rdf:RDF>
  </metadata>
  <g
     inkscape:label="Capa 1"
     inkscape:groupmode="layer"
     id="layer1"
     transform="translate(-156.12272,-298.95946)">
    <g
       style="display:inline"
       transform="translate(101.02678,228.82138)"
       inkscape:label="Layer 1"
       id="layer1-09">
      <g
         transform="translate(9.1271938,36.508776)"
         id="g3202">
        <path
           inkscape:connector-curvature="0"
           style="fill:#e6e6e6;fill-rule:evenodd;stroke:#000000;stroke-width:5.04618788;stroke-linecap:butt;stroke-linejoin:miter;stroke-miterlimit:4;stroke-opacity:1;stroke-dasharray:none"
           d="M 50.258711,429.4187 C 97.738001,-209.68823 401.7587,36.898283 431.20088,417.57593 c -0.50223,14.55953 -13.85836,79.41647 -112.50624,35.5283 -30.23484,71.56835 -76.87362,31.87089 -116.45381,23.68552 -26.17278,42.24182 -73.12095,12.02393 -94.7421,-11.84276 -23.225288,1.28397 -49.122431,11.02879 -57.240019,-35.52829 z"
           id="path2393"
           sodipodi:nodetypes="cccccc" />
        <path
           inkscape:connector-curvature="0"
           style="fill:#000000;fill-rule:evenodd;stroke:#000000;stroke-width:1.52914774px;stroke-linecap:butt;stroke-linejoin:miter;stroke-opacity:1"
           d="m 390.41564,283.47357 -2.09353,38.38128 -25.82013,-9.07194 -9.76979,50.24459 -55.12946,-29.30935 -28.61151,42.56833 -48.15106,-34.89207 -34.19423,21.63309 -11.16546,-32.79856 -48.15106,13.95684 -4.18705,-31.40287 -25.122292,0.69784 22.330922,-23.02877 -14.65466,18.84172 17.44603,-2.79137 6.28058,33.4964 48.15106,-15.35252 10.46761,33.49639 36.28776,-24.42445 42.56833,38.38127 30.00718,-43.964 53.73378,30.00718 9.07195,-51.64027 25.12229,10.46763 5.58274,-33.49639 z"
           id="path3169" />
        <path
           inkscape:connector-curvature="0"
           style="fill:#000000;fill-rule:evenodd;stroke:#000000;stroke-width:1.83501101px;stroke-linecap:butt;stroke-linejoin:miter;stroke-opacity:1"
           d="m 115.40472,186.67591 163.29794,75.36826 C 156.08201,360.31772 121.38519,240.26673 136.89864,200.354 c -15.87403,60.55454 68.89878,124.16654 126.73028,65.03987 l -148.2242,-78.71796 z"
           id="path3171"
           sodipodi:nodetypes="ccccc" />
        <path
           inkscape:connector-curvature="0"
           style="fill:#000000;fill-rule:evenodd;stroke:#000000;stroke-width:1.25726938px;stroke-linecap:butt;stroke-linejoin:miter;stroke-opacity:1"
           d="M 394.37486,207.71917 282.49033,259.3582 c 84.01419,67.33266 107.69651,-14.93407 97.06736,-42.28057 10.87613,41.48944 -47.1159,85.08666 -86.73962,44.57564 l 101.55679,-53.9341 z"
           id="path3173"
           sodipodi:nodetypes="ccccc" />
        <path
           inkscape:connector-curvature="0"
           style="fill:#000000;fill-rule:evenodd;stroke:#000000;stroke-width:1.52914774px;stroke-linecap:butt;stroke-linejoin:miter;stroke-opacity:1"
           d="m 201.30061,476.77565 -2.09353,-59.31653 8.37409,60.01437 -6.28056,-0.69784 z"
           id="path3175"
           sodipodi:nodetypes="cccc" />
        <path
           inkscape:connector-curvature="0"
           style="fill:#000000;fill-rule:evenodd;stroke:#000000;stroke-width:1.07321835px;stroke-linecap:butt;stroke-linejoin:miter;stroke-opacity:1"
           d="m 322.10084,454.77783 1.46926,-41.6308 -5.87723,42.12059 4.40797,-0.48979 z"
           id="path3177"
           sodipodi:nodetypes="cccc" />
        <path
           inkscape:connector-curvature="0"
           style="fill:#000000;fill-rule:evenodd;stroke:#000000;stroke-width:1.07321835px;stroke-linecap:butt;stroke-linejoin:miter;stroke-opacity:1"
           d="m 108.56135,464.5476 1.46927,-41.6308 -5.87723,42.12059 4.40796,-0.48979 z"
           id="path3179"
           sodipodi:nodetypes="cccc" />
        <path
           inkscape:connector-curvature="0"
           style="opacity:0.2142857;fill:#000000;fill-rule:evenodd;stroke:#000000;stroke-width:1px;stroke-linecap:butt;stroke-linejoin:miter;stroke-opacity:1"
           d="m 241.37589,47.531911 -28.39717,61.957449 19.36171,-12.907803 -23.23405,65.829783 15.48937,2.58156 -11.61703,32.26951 21.94327,-1.29078 -20.65249,32.2695 18.07093,11.61702 12.9078,42.59575 -46.46809,51.6312 24.52483,0 -28.39717,46.46809 33.56029,-6.4539 -3.87234,60.66667 34.85106,28.39716 -15.48936,12.9078 23.23404,21.94326 -67.12057,-21.94326 C 169.0922,514.61928 138.11347,495.22427 107.13475,465.74468 77.143156,471.60792 55.819401,461.58011 46.468085,429.60284 69.081962,204.99779 117.41499,7.9877236 241.37589,47.531911 z"
           id="path3299"
           sodipodi:nodetypes="cccccccccccccccccccccc" />
        <path
           inkscape:connector-curvature="0"
           style="opacity:0.09375;fill:#000000;fill-rule:evenodd;stroke:#000000;stroke-width:1px;stroke-linecap:butt;stroke-linejoin:miter;stroke-opacity:1"
           d="m 207.1873,473.88507 -8.21447,-90.35922 -10.03991,29.20702 5.47631,-89.4465 -11.86535,20.99255 -24.64342,-40.15966 -14.60351,5.47632 11.86535,-29.20702 21.90526,-63.89036 0.91272,-35.59606 -12.77807,10.03992 16.42895,-76.66843 -21.90527,8.21447 20.07983,-42.89781 c 0,0 20.99255,-22.817985 17.34167,-22.817985 -3.65088,0 -25.55614,13.690791 -25.55614,13.690791 L 183.4566,49.47055 C 78.052146,124.12754 71.852809,284.21117 50.199567,430.98726 c 8.672806,26.32572 19.569588,49.57208 59.326763,32.8579 28.49388,19.58575 53.01363,55.068 97.66097,10.03991 z"
           id="path3297"
           sodipodi:nodetypes="ccccccccccccccsccccc" />
        <path
           inkscape:connector-curvature="0"
           style="fill:#ffffff;fill-rule:evenodd;stroke:#000000;stroke-width:1.52914774px;stroke-linecap:butt;stroke-linejoin:miter;stroke-opacity:1"
           d="m 138.14596,200.43044 c -17.32038,97.6389 86.27054,112.99118 128.40282,65.24817 L 138.14596,200.43044 z"
           id="path3195"
           sodipodi:nodetypes="ccc" />
        <path
           inkscape:connector-curvature="0"
           style="fill:#000000;fill-rule:evenodd;stroke:#000000;stroke-width:1.89372718px;stroke-linecap:butt;stroke-linejoin:miter;stroke-opacity:1"
           d="m 187.69624,240.68931 c 9.35843,44.26872 -77.84561,-43.8164 34.8325,2.4444 -114.92015,-62.7996 -33.7302,63.67828 -34.8325,-2.4444 z"
           id="path3181"
           sodipodi:nodetypes="ccc" />
        <path
           inkscape:connector-curvature="0"
           style="fill:#ffffff;fill-rule:evenodd;stroke:#000000;stroke-width:1.52914774px;stroke-linecap:butt;stroke-linejoin:miter;stroke-opacity:1"
           d="m 293.06675,262.1894 86.18342,-45.35969 c 5.48636,41.77872 -33.77051,87.49403 -86.18342,45.35969 z"
           id="path3197"
           sodipodi:nodetypes="ccc" />
        <path
           inkscape:connector-curvature="0"
           style="fill:#000000;fill-rule:evenodd;stroke:#000000;stroke-width:1.52914774px;stroke-linecap:butt;stroke-linejoin:miter;stroke-opacity:1"
           d="m 333.96932,249.15671 c 31.52841,18.4621 -68.46906,22.69409 20.38557,-19.47895 -99.95215,34.52636 19.71142,54.74665 -20.38557,19.47895 z"
           id="path3183"
           sodipodi:nodetypes="ccc" />
        <path
           inkscape:connector-curvature="0"
           style="fill:#000000;fill-rule:evenodd;stroke:#000000;stroke-width:1.52914774px;stroke-linecap:butt;stroke-linejoin:miter;stroke-opacity:1"
           d="m 114.07043,470.49507 c 5.4406,-11.55296 0.46616,-56.28688 2.09351,-90.71938 -1.6279,34.42954 9.29032,122.63022 -2.09351,90.71938 z"
           id="path3185"
           sodipodi:nodetypes="ccc" />
        <path
           inkscape:connector-curvature="0"
           style="fill:#000000;fill-opacity:1;fill-rule:evenodd;stroke:none;stroke-width:1.6782589px;marker:none;visibility:visible;display:inline;overflow:visible;enable-background:accumulate"
           d="m 260.2682,244.91783 c 11.51439,4.23255 23.02877,5.48079 34.54316,-1.39568 -11.51439,3.68931 -23.02877,3.25814 -34.54316,1.39568 z"
           id="path3187"
           sodipodi:nodetypes="ccc" />
        <path
           inkscape:connector-curvature="0"
           style="fill:#000000;fill-rule:evenodd;stroke:none"
           d="m 247.33236,233.93224 c 19.32418,7.1033 38.64822,9.1982 57.97239,-2.34229 -19.32417,6.19161 -38.64821,5.46806 -57.97239,2.34229 z"
           id="path3189"
           sodipodi:nodetypes="ccc" />
        <path
           inkscape:connector-curvature="0"
           style="fill:#000000;fill-rule:evenodd;stroke:none"
           d="m 225.14447,219.22339 c 31.55742,11.6001 63.11452,15.02114 94.67194,-3.82513 -31.55742,14.27965 -63.11452,11.57127 -94.67194,3.82513 z"
           id="path3191"
           sodipodi:nodetypes="ccc" />
        <path
           inkscape:connector-curvature="0"
           style="fill:#000000;fill-opacity:1;fill-rule:evenodd;stroke:none;stroke-width:1.6782589px;marker:none;visibility:visible;display:inline;overflow:visible;enable-background:accumulate"
           d="m 215.80187,324.12289 c 7.95652,-32.37105 46.794,-58.97439 72.919,-62.96008 -24.73672,2.34327 -55.94358,38.55576 -72.919,62.96008 z"
           id="path3193"
           sodipodi:nodetypes="ccc" />
        <path
           inkscape:connector-curvature="0"
           style="fill:#000000;fill-rule:evenodd;stroke:none"
           d="m 328.40612,297.18907 c -10.50283,-17.70794 -24.16724,-31.5315 -46.4395,-34.78013 18.89562,7.397 33.42575,20.15698 46.4395,34.78013 z"
           id="path3199"
           sodipodi:nodetypes="ccc" />
        <path
           inkscape:connector-curvature="0"
           style="fill:#000000;fill-rule:evenodd;stroke:none"
           d="m 318.19307,301.44867 c -7.30956,-19.24711 -18.40016,-35.20973 -39.78502,-42.23075 17.34667,10.52867 29.4726,25.592 39.78502,42.23075 z"
           id="path3201"
           sodipodi:nodetypes="ccc" />
        <path
           inkscape:connector-curvature="0"
           style="fill:#000000;fill-opacity:1;fill-rule:evenodd;stroke:none;stroke-width:1.6782589px;marker:none;visibility:visible;display:inline;overflow:visible;enable-background:accumulate"
           d="m 192.56865,320.46786 c 10.34888,-21.30175 41.29053,-33.99707 60.03223,-32.8744 -17.53268,-2.05681 -44.60495,18.45024 -60.03223,32.8744 z"
           id="path3203"
           sodipodi:nodetypes="ccc" />
        <path
           inkscape:connector-curvature="0"
           style="fill:#000000;fill-opacity:1;fill-rule:evenodd;stroke:none;stroke-width:1.6782589px;marker:none;visibility:visible;display:inline;overflow:visible;enable-background:accumulate"
           d="m 284.28197,263.2853 c 27.198,-15.10706 60.59135,-44.9325 84.56236,-46.15578 -24.67419,-2.92921 -62.81961,25.88295 -84.56236,46.15578 z"
           id="path3205"
           sodipodi:nodetypes="ccc" />
        <path
           inkscape:connector-curvature="0"
           style="fill:#000000;fill-opacity:1;fill-rule:evenodd;stroke:none;stroke-width:1.6782589px;marker:none;visibility:visible;display:inline;overflow:visible;enable-background:accumulate"
           d="m 274.33827,264.50822 c -16.19296,-33.21425 -67.63778,-45.27949 -93.73725,-51.16362 17.5815,1.28895 69.63545,28.6912 93.73725,51.16362 z"
           id="path3207"
           sodipodi:nodetypes="ccc" />
        <path
           inkscape:connector-curvature="0"
           style="opacity:0.07142855;fill:#000000;fill-rule:evenodd;stroke:#000000;stroke-width:1px;stroke-linecap:butt;stroke-linejoin:miter;stroke-opacity:1"
           d="m 262.67376,265.02837 -63.24823,12.9078 9.68085,-9.03546 -41.30496,-3.22695 5.16312,-3.87234 -39.36879,-40.65958 c 5.67439,108.92519 119.16562,75.69194 129.07801,43.88653 z"
           id="path3301"
           sodipodi:nodetypes="ccccccc" />
        <path
           inkscape:connector-curvature="0"
           style="opacity:0.26339285;fill:#000000;fill-opacity:1;fill-rule:evenodd;stroke:#000000;stroke-width:1px;stroke-linecap:butt;stroke-linejoin:miter;stroke-miterlimit:4;stroke-opacity:1;stroke-dasharray:none;stroke-dashoffset:0;marker:none;visibility:visible;display:inline;overflow:visible;enable-background:accumulate"
           d="m 198.78014,419.2766 c -1.53264,23.64648 -0.26655,49.15878 -6.4539,69.70212 l 13.55319,-15.48936 20.65248,10.32624 c -14.14083,-9.28739 -20.13578,-38.9395 -27.75177,-64.539 z"
           id="path2404"
           sodipodi:nodetypes="ccccc" />
        <path
           inkscape:connector-curvature="0"
           style="fill:#000000;fill-rule:evenodd;stroke:none"
           d="m 195.43708,198.93355 c 49.55751,18.21668 99.11443,23.58905 148.67194,-6.007 -45.03618,23.27728 -94.17389,22.10779 -148.67194,6.007 z"
           id="path3192"
           sodipodi:nodetypes="ccc" />
      </g>
    </g>
  </g>
</svg>
