<?xml version="1.0" encoding="UTF-8" standalone="no"?>
<!-- Created with Inkscape (http://www.inkscape.org/) -->

<svg
   xmlns:dc="http://purl.org/dc/elements/1.1/"
   xmlns:cc="http://creativecommons.org/ns#"
   xmlns:rdf="http://www.w3.org/1999/02/22-rdf-syntax-ns#"
   xmlns:svg="http://www.w3.org/2000/svg"
   xmlns="http://www.w3.org/2000/svg"
   xmlns:xlink="http://www.w3.org/1999/xlink"
   xmlns:sodipodi="http://sodipodi.sourceforge.net/DTD/sodipodi-0.dtd"
   xmlns:inkscape="http://www.inkscape.org/namespaces/inkscape"
   width="464.47906"
   height="462.03781"
   id="svg2"
   sodipodi:version="0.32"
   inkscape:version="0.48.3.1 r9886"
   version="1.0"
   sodipodi:docname="hombre_gato.svg"
   inkscape:output_extension="org.inkscape.output.svg.inkscape"
   inkscape:export-filename="/home/vladimir/vectorizados/nekojin.png"
   inkscape:export-xdpi="90"
   inkscape:export-ydpi="90"
   sodipodi:modified="true">
  <defs
     id="defs4">
    <linearGradient
       inkscape:collect="always"
       id="linearGradient6561">
      <stop
         style="stop-color:#ffffff;stop-opacity:1;"
         offset="0"
         id="stop6563" />
      <stop
         style="stop-color:#ffffff;stop-opacity:0;"
         offset="1"
         id="stop6565" />
    </linearGradient>
    <linearGradient
       inkscape:collect="always"
       id="linearGradient6515">
      <stop
         style="stop-color:#ffffff;stop-opacity:1;"
         offset="0"
         id="stop6517" />
      <stop
         style="stop-color:#ffffff;stop-opacity:0;"
         offset="1"
         id="stop6519" />
    </linearGradient>
    <linearGradient
       id="linearGradient6481">
      <stop
         style="stop-color:#ffffff;stop-opacity:1;"
         offset="0"
         id="stop6483" />
      <stop
         style="stop-color:#ffffff;stop-opacity:0;"
         offset="1"
         id="stop6485" />
    </linearGradient>
    <linearGradient
       inkscape:collect="always"
       xlink:href="#linearGradient6561"
       id="linearGradient8358"
       gradientUnits="userSpaceOnUse"
       gradientTransform="matrix(2,0,0,2,-160.79893,-159.54377)"
       x1="250.51103"
       y1="321.55688"
       x2="239.97211"
       y2="335.20956" />
    <linearGradient
       inkscape:collect="always"
       xlink:href="#linearGradient6515"
       id="linearGradient8376"
       gradientUnits="userSpaceOnUse"
       gradientTransform="matrix(2,0,0,2,-160.79893,-159.54377)"
       x1="225.98802"
       y1="231.31737"
       x2="221.31737"
       y2="236.34731" />
    <linearGradient
       inkscape:collect="always"
       xlink:href="#linearGradient6481"
       id="linearGradient8380"
       gradientUnits="userSpaceOnUse"
       gradientTransform="matrix(2,0,0,2,-160.79893,-159.54377)"
       x1="243.83234"
       y1="263.11377"
       x2="218.20198"
       y2="281.31738" />
  </defs>
  <sodipodi:namedview
     id="base"
     pagecolor="#ffffff"
     bordercolor="#666666"
     borderopacity="1.0"
     inkscape:pageopacity="0.0"
     inkscape:pageshadow="2"
     inkscape:zoom="0.7859375"
     inkscape:cx="223.84637"
     inkscape:cy="107.82691"
     inkscape:document-units="px"
     inkscape:current-layer="layer1"
     width="480px"
     height="640px"
     showguides="true"
     inkscape:guide-bbox="true"
     inkscape:window-width="1022"
     inkscape:window-height="704"
     inkscape:window-x="0"
     inkscape:window-y="48"
     showgrid="false"
     fit-margin-top="0"
     fit-margin-left="0"
     fit-margin-right="0"
     fit-margin-bottom="0"
     inkscape:window-maximized="0">
    <sodipodi:guide
       orientation="vertical"
       position="-19.540965,-110.38383"
       id="guide6361" />
  </sodipodi:namedview>
  <metadata
     id="metadata7">
    <rdf:RDF>
      <cc:Work
         rdf:about="">
        <dc:format>image/svg+xml</dc:format>
        <dc:type
           rdf:resource="http://purl.org/dc/dcmitype/StillImage" />
        <dc:title></dc:title>
      </cc:Work>
    </rdf:RDF>
  </metadata>
  <g
     inkscape:label="Capa 1"
     inkscape:groupmode="layer"
     id="layer1"
     transform="translate(-16.153628,-67.578371)">
    <path
       style="fill:#000000;fill-rule:evenodd;stroke:#000000;stroke-width:1px;stroke-linecap:butt;stroke-linejoin:miter;stroke-opacity:1"
       d="m 280.71856,361.83633 28.42316,7.34531 9.9002,-18.84232 -11.17765,-22.67465 -3.19361,9.58084 -21.07785,7.34531 -10.21956,-5.10978 7.34531,22.35529 z"
       id="path8131"
       sodipodi:nodetypes="cccccccc"
       inkscape:connector-curvature="0" />
    <path
       style="color:#000000;fill:#4d4d4d;fill-opacity:1;fill-rule:evenodd;stroke:#000000;stroke-width:2.29999995;stroke-linecap:butt;stroke-linejoin:miter;stroke-miterlimit:4;stroke-opacity:1;stroke-dasharray:none;stroke-dashoffset:0;marker:none;visibility:visible;display:inline;overflow:visible;enable-background:accumulate"
       d="m 195.53572,469.70323 7.45214,41.32552 C 51.630251,475.95259 110.17357,366.10814 120.33681,276.62496 206.89898,172.09667 70.891461,238.62043 62.413327,246.81639 c -134.544768,2.7428 70.199183,-113.27516 117.540643,-29.1311 20.94253,29.32744 -56.61722,84.60266 -54.19742,116.52442 -9.4586,65.8657 11.5439,131.0148 69.77917,135.49352 z"
       id="path7919"
       sodipodi:nodetypes="ccccccc"
       inkscape:connector-curvature="0" />
    <path
       style="opacity:0.27604167;color:#000000;fill:#000000;fill-opacity:1;fill-rule:evenodd;stroke:none;stroke-width:1.81595397px;marker:none;visibility:visible;display:inline;overflow:visible;enable-background:accumulate"
       d="m 186.71974,478.71789 -0.89818,26.02556 C 61.805445,468.10472 112.08718,356.39243 121.31518,275.1438 207.57627,173.52797 72.587593,236.32516 65.847724,246.64115 c -121.835902,5.11164 64.631146,-95.71605 106.724266,-26.4503 19.01533,26.62864 -42.46507,78.09466 -40.26795,107.07897 -8.58816,59.8045 1.53948,147.38155 54.4157,151.44807 z"
       id="path8026"
       sodipodi:nodetypes="ccccccc"
       inkscape:connector-curvature="0" />
    <path
       style="fill:#4d4d4d;fill-rule:evenodd;stroke:#000000;stroke-width:2px;stroke-linecap:butt;stroke-linejoin:miter;stroke-opacity:1"
       d="m 169.63589,426.49413 -0.33874,3.21796 11.51694,9.99266 -1.5243,-8.12962 -9.48454,-4.23416"
       id="path7568"
       inkscape:connector-curvature="0" />
    <path
       style="fill:#4d4d4d;fill-rule:evenodd;stroke:#000000;stroke-width:2px;stroke-linecap:butt;stroke-linejoin:miter;stroke-opacity:1"
       d="m 290.73415,295.40969 c 28.06958,-12.31266 45.78324,4.55958 59.09394,33.84012 -0.008,21.5443 -14.4738,28.28788 -7.57616,52.52792 l 45.96194,-31.8198 61.61932,40.4061 -55.5584,69.70052 c -29.77078,21.09606 -64.163,3.43392 -91.92388,11.61676 L 290.73415,295.40969 z"
       id="path6396"
       sodipodi:nodetypes="cccccccc"
       inkscape:connector-curvature="0" />
    <path
       style="opacity:0.32291667;fill:#000000;fill-rule:evenodd;stroke:#000000;stroke-width:2px;stroke-linecap:butt;stroke-linejoin:miter;stroke-opacity:1"
       d="m 290.73415,295.40969 c 28.06958,-12.31266 45.78324,4.55958 59.09394,33.84012 -0.008,21.5443 -14.4738,28.28788 -7.57616,52.52792 l 45.96194,-31.8198 61.61932,40.4061 -55.5584,69.70052 c -29.77078,21.09606 -64.163,3.43392 -91.92388,11.61676 L 290.73415,295.40969 z"
       id="path7558"
       sodipodi:nodetypes="cccccccc"
       inkscape:connector-curvature="0" />
    <path
       style="fill:#4d4d4d;fill-rule:evenodd;stroke:#000000;stroke-width:2px;stroke-linecap:butt;stroke-linejoin:miter;stroke-opacity:1"
       d="m 193.75951,490.36913 -34.34518,-141.42136 168.69548,19.1929 c 0.9075,35.35534 -8.88206,70.71068 4.0406,106.06602 -44.43938,35.8239 -91.30214,28.02708 -138.3909,16.16244 z"
       id="path6433"
       sodipodi:nodetypes="ccccc"
       inkscape:connector-curvature="0" />
    <path
       style="fill:#333333;fill-rule:evenodd;stroke:#000000;stroke-width:2px;stroke-linecap:butt;stroke-linejoin:miter;stroke-opacity:1"
       d="m 190.72905,275.71171 c -3.14664,-24.58906 -1.8232,-49.1781 -9.64852,-73.76716 l 110.66378,34.8763 c -18.62244,21.38156 -5.73808,42.76312 -7.57614,64.14468 l -1.03852,-0.5093 c -34.7188,3.2771 -73.05452,17.19224 -92.4006,-24.74452 z"
       id="path6337"
       sodipodi:nodetypes="cccccc"
       inkscape:connector-curvature="0" />
    <path
       style="opacity:0.29166667;color:#000000;fill:#000000;fill-opacity:1;fill-rule:evenodd;stroke:#000000;stroke-width:2px;stroke-linecap:butt;stroke-linejoin:miter;stroke-miterlimit:4;stroke-opacity:1;stroke-dasharray:none;stroke-dashoffset:0;marker:none;visibility:visible;display:inline;overflow:visible;enable-background:accumulate"
       d="m 188.09687,211.05943 5.08102,46.06782 76.2151,43.01918 14.2268,-4.40354 -1.69366,-17.9529 -93.82926,-66.73056 z"
       id="path6451"
       sodipodi:nodetypes="cccccc"
       inkscape:connector-curvature="0" />
    <path
       style="opacity:0.13020833;fill:#000000;fill-rule:evenodd;stroke:#000000;stroke-width:2px;stroke-linecap:butt;stroke-linejoin:miter;stroke-opacity:1"
       d="m 181.13261,208.53657 7.07106,0 8.08122,45.45686 67.17514,32.32488 c 4.20898,1.71458 8.41794,2.12416 12.62692,-1.51522 56.91204,-23.90694 58.76464,-51.34942 58.58884,-71.72084 l -2.0203,-18.68782 8.08122,-15.15228 c -0.0386,-56.58624 -65.94106,-87.453679 -113.64216,-76.26652 -6.3983,-8.754659 -13.29266,-17.509299 -22.22336,-26.263959 l -15.65736,-6.06092 c -11.00402,12.96362 -18.38234,25.92726 -16.66752,38.890879 l 7.57614,58.08376 c -4.96546,13.63706 -6.19694,21.85258 1.01016,40.91118 z"
       id="path7564"
       sodipodi:nodetypes="cccccccccccccc"
       inkscape:connector-curvature="0" />
    <path
       style="fill:#666666;fill-rule:evenodd;stroke:#000000;stroke-width:2px;stroke-linecap:butt;stroke-linejoin:miter;stroke-opacity:1"
       d="m 181.13261,208.53657 7.07106,0 8.08122,45.45686 67.17514,32.32488 c 4.20898,1.71458 8.41794,2.12416 12.62692,-1.51522 56.91204,-23.90694 58.76464,-51.34942 58.58884,-71.72084 l -2.0203,-18.68782 8.08122,-15.15228 c -0.0386,-56.58624 -65.94106,-87.453679 -113.64216,-76.26652 -6.3983,-8.754659 -13.29266,-17.509299 -22.22336,-26.263959 l -15.65736,-6.06092 c -11.00402,12.96362 -18.38234,25.92726 -16.66752,38.890879 l 7.57614,58.08376 c -4.96546,13.63706 -6.19694,21.85258 1.01016,40.91118 z"
       id="path6311"
       sodipodi:nodetypes="cccccccccccccc"
       inkscape:connector-curvature="0" />
    <path
       style="opacity:0.33812501;fill:#000000;fill-rule:evenodd;stroke:#000000;stroke-width:2px;stroke-linecap:butt;stroke-linejoin:miter;stroke-opacity:1"
       d="m 181.13261,208.53657 7.07106,0 8.08122,45.45686 67.17514,32.32488 c 4.20898,1.71458 8.41794,2.12416 12.62692,-1.51522 43.36268,-19.16466 44.53782,-47.28462 44.36202,-67.65604 l -3.37524,-22.07516 8.08122,-13.11986 c -6.13584,-55.23132 -49.68184,-73.90434 -95.35052,-73.55666 -6.3983,-8.754659 -16.00254,-22.929039 -24.93324,-31.683699 l -15.65736,-6.06092 c -11.00402,12.96362 -18.38234,25.92726 -16.66752,38.890879 l 7.57614,58.08376 c -4.96546,13.63706 -6.19694,21.85258 1.01016,40.91118 z"
       id="path6445"
       sodipodi:nodetypes="cccccccccccccc"
       inkscape:connector-curvature="0" />
    <path
       style="fill:#ffffff;fill-rule:evenodd;stroke:#000000;stroke-width:2px;stroke-linecap:butt;stroke-linejoin:miter;stroke-opacity:1"
       d="m 229.20107,177.24195 c -13.14836,22.38228 19.31358,42.75826 51.07142,29.2857 l -51.07142,-29.2857 z"
       id="path6315"
       sodipodi:nodetypes="ccc"
       inkscape:connector-curvature="0" />
    <path
       style="fill:#000000;fill-rule:evenodd;stroke:#000000;stroke-width:2px;stroke-linecap:butt;stroke-linejoin:miter;stroke-opacity:1"
       d="m 296.79507,203.73835 c 14.64722,-8.00786 29.29442,-20.62034 43.94164,-23.73858 l -6.56448,-2.5405 -37.37716,26.27908 z"
       id="path6317"
       sodipodi:nodetypes="cccc"
       inkscape:connector-curvature="0" />
    <path
       style="fill:#ffffff;fill-rule:evenodd;stroke:#000000;stroke-width:2px;stroke-linecap:butt;stroke-linejoin:miter;stroke-opacity:1"
       d="m 299.32045,202.72819 c 14.42006,8.63252 30.1796,7.81558 39.90102,-21.97082 -13.30034,1.89884 -26.60068,14.55128 -39.90102,21.97082 z"
       id="path6319"
       sodipodi:nodetypes="ccc"
       inkscape:connector-curvature="0" />
    <path
       style="fill:#803300;fill-rule:evenodd;stroke:#000000;stroke-width:2px;stroke-linecap:butt;stroke-linejoin:miter;stroke-opacity:1"
       d="m 284.42071,222.42617 c 7.78474,2.58608 11.21,6.4284 25.75888,0 -7.07106,-6.05402 -19.1929,-5.3248 -25.75888,0 z"
       id="path6321"
       sodipodi:nodetypes="ccc"
       inkscape:connector-curvature="0" />
    <path
       style="fill:none;stroke:#000000;stroke-width:2px;stroke-linecap:butt;stroke-linejoin:miter;stroke-opacity:1"
       d="m 302.35091,236.06323 c -11.66084,2.31834 -30.69184,2.85634 -44.19418,-8.08122 -18.91158,13.04028 -17.99694,25.53666 -6.31344,41.92132 16.32998,-6.30604 31.7688,-4.59174 47.47716,-5.3033"
       id="path6323"
       sodipodi:nodetypes="cccc"
       inkscape:connector-curvature="0" />
    <path
       style="opacity:0.65625;fill:#000000;fill-rule:evenodd;stroke:#000000;stroke-width:2px;stroke-linecap:butt;stroke-linejoin:miter;stroke-opacity:1"
       d="m 302.35091,236.06323 c -11.66084,2.31834 -30.69184,2.85634 -44.19418,-8.08122 -18.91158,13.04028 -17.1501,22.65742 -5.4666,39.04208 15.16506,-3.58812 30.33014,-2.37128 45.49522,-2.10598 -14.50096,-13.30022 -8.78048,-21.85396 4.16556,-28.85488 z"
       id="path6449"
       sodipodi:nodetypes="ccccc"
       inkscape:connector-curvature="0" />
    <path
       style="fill:#800000;fill-rule:evenodd;stroke:#000000;stroke-width:2px;stroke-linecap:butt;stroke-linejoin:miter;stroke-opacity:1"
       d="m 246.53999,252.47821 c 11.05988,-3.50954 22.21464,-6.44992 34.59772,-2.0203 7.14256,2.93038 5.97438,7.7076 7.57614,11.86928 l -28.5368,2.27284 c -7.80426,-1.71304 -10.35038,-7.18192 -13.63706,-12.12182 z"
       id="path6329"
       sodipodi:nodetypes="ccccc"
       inkscape:connector-curvature="0" />
    <path
       style="fill:#ffffff;fill-rule:evenodd;stroke:#000000;stroke-width:2px;stroke-linecap:butt;stroke-linejoin:miter;stroke-opacity:1"
       d="m 246.03491,252.98329 c 3.68174,3.70516 6.59456,11.1752 14.39466,11.61674 l 4.79824,-10.35406 1.76776,6.06092 22.4759,0 1.01014,-6.566 6.06092,9.34392 c -14.84262,1.93838 -31.492,-0.50412 -43.94164,4.79822 -4.75044,-7.02582 -7.85676,-11.23016 -6.56598,-14.89974 z"
       id="path6325"
       sodipodi:nodetypes="ccccccccc"
       inkscape:connector-curvature="0" />
    <path
       style="fill:#ffffff;fill-rule:evenodd;stroke:#000000;stroke-width:2px;stroke-linecap:butt;stroke-linejoin:miter;stroke-opacity:1"
       d="m 256.64151,231.77007 12.37436,8.33376 1.01016,6.566 4.79822,-6.31346 19.95052,1.76778 2.0203,7.3236 4.29314,-12.12184 c -17.51896,4.00114 -31.50704,-2.26964 -43.18402,-8.08122 l -1.26268,2.52538 z"
       id="path6327"
       sodipodi:nodetypes="ccccccccc"
       inkscape:connector-curvature="0" />
    <path
       sodipodi:type="arc"
       style="color:#000000;fill:#aa4400;fill-opacity:1;fill-rule:evenodd;stroke:#000000;stroke-width:1.1753974;stroke-linecap:butt;stroke-linejoin:miter;stroke-miterlimit:4;stroke-opacity:1;stroke-dasharray:none;stroke-dashoffset:0;marker:none;visibility:visible;display:inline;overflow:visible;enable-background:accumulate"
       id="path6331"
       sodipodi:cx="151.64915"
       sodipodi:cy="185.22485"
       sodipodi:rx="5.4295697"
       sodipodi:ry="5.4927044"
       d="m 156.33641,182.45257 c 1.51349,2.6188 0.64186,5.98295 -1.94684,7.51404 -2.5887,1.53109 -5.91418,0.64932 -7.42767,-1.96948 -1.51349,-2.6188 -0.64186,-5.98295 1.94684,-7.51403 0.72746,-0.43026 1.54393,-0.68332 2.38478,-0.73916"
       transform="matrix(1.7103012,0.06176982,-0.06105982,1.6906426,-3.5157807,-126.59264)"
       sodipodi:start="5.7541273"
       sodipodi:end="10.930028"
       sodipodi:open="true" />
    <path
       sodipodi:type="arc"
       style="color:#000000;fill:#aa4400;fill-opacity:1;fill-rule:evenodd;stroke:#000000;stroke-width:1.68573356;stroke-linecap:butt;stroke-linejoin:miter;stroke-miterlimit:4;stroke-opacity:1;stroke-dasharray:none;stroke-dashoffset:0;marker:none;visibility:visible;display:inline;overflow:visible;enable-background:accumulate"
       id="path6333"
       sodipodi:cx="151.64915"
       sodipodi:cy="185.22485"
       sodipodi:rx="5.4295697"
       sodipodi:ry="5.4927044"
       d="m 152.37404,179.78132 c 2.97182,0.405 5.05642,3.17046 4.65608,6.17685 -0.40034,3.00638 -3.13402,5.11521 -6.10585,4.71022 -2.97182,-0.405 -5.05642,-3.17047 -4.65608,-6.17685 0.0345,-0.25896 0.0872,-0.5151 0.15772,-0.76647"
       transform="matrix(1.2098408,0,0,1.1634666,130.39611,-15.300101)"
       sodipodi:start="4.8462953"
       sodipodi:end="9.7013396"
       sodipodi:open="true" />
    <path
       style="fill:#666666;fill-rule:evenodd;stroke:#000000;stroke-width:2px;stroke-linecap:butt;stroke-linejoin:miter;stroke-opacity:1"
       d="m 285.23037,108.98447 c 8.47304,-15.060439 15.98314,-31.725819 28.28428,-40.406099 l 10.10152,32.829959 -2.0203,28.44046"
       id="path6335"
       sodipodi:nodetypes="cccc"
       inkscape:connector-curvature="0" />
    <path
       style="opacity:0.27604167;fill:#000000;fill-rule:evenodd;stroke:#000000;stroke-width:2px;stroke-linecap:butt;stroke-linejoin:miter;stroke-opacity:1"
       d="m 325.42861,431.59395 -42.63472,31.13772 -103.9521,-30.17964 99.64072,37.36528 46.9461,-38.32336 z"
       id="path7566"
       sodipodi:nodetypes="ccccc"
       inkscape:connector-curvature="0" />
    <path
       style="opacity:0.359375;fill:#000000;fill-rule:evenodd;stroke:#000000;stroke-width:2px;stroke-linecap:butt;stroke-linejoin:miter;stroke-opacity:1"
       d="m 193.75951,490.36913 -34.34518,-141.42136 97.79728,79.07314 c 0.9075,35.35534 -35.22936,45.32146 -10.33066,64.86842 -44.43938,35.8239 -6.03268,9.34444 -53.12144,-2.5202 z"
       id="path7562"
       sodipodi:nodetypes="ccccc"
       inkscape:connector-curvature="0" />
    <path
       style="fill:#b3b3b3;fill-rule:evenodd;stroke:#000000;stroke-width:2px;stroke-linecap:butt;stroke-linejoin:miter;stroke-opacity:1"
       d="m 181.63769,299.45031 121.2183,8.08122 c 23.1895,24.0635 47.16392,55.76322 24.24366,122.22844 l -44.44672,33.33504 c -39.33522,-5.63042 -76.46834,-20.06918 -113.13708,-36.36548 l -1.16634,3.08252 c 6.4056,4.913 11.69486,9.37948 13.61102,12.49672 l -42.74926,-34.77214 42.42642,-108.08632 z"
       id="path6431"
       sodipodi:nodetypes="ccccccccc"
       inkscape:connector-curvature="0" />
    <path
       style="fill:#b3b3b3;fill-rule:evenodd;stroke:#000000;stroke-width:2px;stroke-linecap:butt;stroke-linejoin:miter;stroke-opacity:1"
       d="m 189.21383,269.14573 c -8.51268,11.46474 -9.49972,17.69918 -9.59646,27.27412 13.10216,16.60972 76.84222,47.4279 117.68278,14.6472 l -12.12184,-24.74874 c 10.78718,25.1101 -88.43764,15.35048 -95.96448,-17.17258 z"
       id="path6339"
       sodipodi:nodetypes="ccccc"
       inkscape:connector-curvature="0" />
    <path
       style="opacity:0.31770833;fill:#ffffff;fill-rule:evenodd;stroke:none"
       d="m 287.10527,293.15085 c -20.29476,18.64102 -84.59348,4.24582 -99.64072,-20.83832 0.51726,25.77896 93.39174,47.05022 99.64072,20.83832 z"
       id="path6491"
       sodipodi:nodetypes="ccc"
       inkscape:connector-curvature="0" />
    <path
       style="opacity:0.22916667;fill:#000000;fill-rule:evenodd;stroke:none"
       d="m 212.48571,293.03301 c -7.92494,9.04654 -23.8241,17.56148 46.74526,31.84098 -25.4905,-0.2483 -51.17492,-1.40156 -81.97358,-26.42124 -1.16094,-11.03288 3.66794,-19.6698 11.51694,-27.0987 l 23.71138,21.67896 z"
       id="path6489"
       sodipodi:nodetypes="ccccc"
       inkscape:connector-curvature="0" />
    <path
       style="fill:#4d4d4d;fill-rule:evenodd;stroke:#000000;stroke-width:2px;stroke-linecap:butt;stroke-linejoin:miter;stroke-opacity:1"
       d="m 129.91535,293.31337 c 38.85758,-34.19168 94.44944,24.58776 74.28572,71.42858 l -50,46.42856 c -5.98296,19.67944 -14.64428,37.35012 -35.71428,45.71428 -19.793939,-3.3013 -49.471459,3.28098 -55.714299,-13.57142 -15.80526,1.9467 -16.97674,-15.6183 -22.14284,-27.85714 l 1.42856,-41.42858 87.857139,-80.71428 z"
       id="path6392"
       sodipodi:nodetypes="cccccccc"
       inkscape:connector-curvature="0" />
    <path
       style="opacity:0.22916667;fill:#000000;fill-rule:evenodd;stroke:#000000;stroke-width:2px;stroke-linecap:butt;stroke-linejoin:miter;stroke-opacity:1"
       d="m 195.12921,311.35443 c 11.3307,26.6466 33.63494,51.00022 -37.36526,94.8503 l 3.83232,-34.01198 10.53894,-15.32934 c -2.42902,-5.26946 -1.06824,-10.53892 6.70658,-15.80838 9.6777,7.3052 11.67316,-3.31486 13.89222,-13.41318 l 2.3952,-16.28742 z"
       id="path6547"
       sodipodi:nodetypes="ccccccc"
       inkscape:connector-curvature="0" />
    <path
       style="opacity:0.27083333;fill:#000000;fill-rule:evenodd;stroke:#000000;stroke-width:2px;stroke-linecap:butt;stroke-linejoin:miter;stroke-opacity:1"
       d="m 129.91535,293.31337 c 38.85758,-34.19168 94.44944,24.58776 74.28572,71.42858 l -50,46.42856 c -5.98296,19.67944 -14.64428,37.35012 -35.71428,45.71428 -19.793939,-3.3013 -49.471459,3.28098 -55.714299,-13.57142 -15.80526,1.9467 -16.97674,-15.6183 -22.14284,-27.85714 l 1.42856,-41.42858 87.857139,-80.71428 z"
       id="path7560"
       sodipodi:nodetypes="cccccccc"
       inkscape:connector-curvature="0" />
    <path
       style="fill:#cccccc;fill-rule:evenodd;stroke:#000000;stroke-width:2px;stroke-linecap:butt;stroke-linejoin:miter;stroke-opacity:1"
       d="m 158.48679,351.17051 c 3.02354,17.61904 7.53322,35.2381 1.42856,52.85714 -45.75776,49.91508 -90.107479,26.44356 -121.428565,7.14286 -8.475056,-10.71428 -4.428146,-35.7143 3.571426,-46.42858 L 158.48679,351.17051 z"
       id="path6394"
       sodipodi:nodetypes="ccccc"
       inkscape:connector-curvature="0" />
    <path
       style="opacity:0.25520833;fill:#000000;fill-rule:evenodd;stroke:#000000;stroke-width:2px;stroke-linecap:butt;stroke-linejoin:miter;stroke-opacity:1"
       d="m 42.441351,414.97717 c 4.97106,11.06266 1.34204,29.76984 21.00148,27.77618 4.11036,11.94582 30.39882,12.80258 55.552339,14.22682 -30.024099,-5.67334 -20.138279,-16.04196 -21.678959,-25.0663 l 14.904299,0 c -20.052559,-13.77518 -3.37682,-27.55034 -4.06482,-41.32552 l 10.83948,-4.74228 c 3.38734,3.1462 6.77468,8.75456 10.16202,3.38734 l 34.55084,-4.0648 -8.1296,-27.0987 -116.524425,10.83948 c -12.456912,25.54544 -2.77409,42.6157 3.387346,46.06778 z"
       id="path6549"
       sodipodi:nodetypes="cccccccccccc"
       inkscape:connector-curvature="0" />
    <path
       style="fill:#4d4d4d;fill-rule:evenodd;stroke:#000000;stroke-width:2px;stroke-linecap:butt;stroke-linejoin:miter;stroke-opacity:1"
       d="m 56.343931,299.74195 17.14286,-42.85716 31.428559,-2.85714 c 21.08472,10.99084 23.85328,28.6421 24.28572,47.14286 l 30.71428,47.85714 c 23.90934,-0.57602 37.1619,9.50476 47.85714,22.14286 10.12064,39.29454 -20.49338,32.52904 -38.57142,22.14286 l -2.85714,-12.85714 c -9.02564,-1.32052 -15.9412,-3.69608 -32.14286,-1.42858 -5,6.2815 -10,4.38102 -15,-0.71428 -8.1633,8.80944 -18.27854,13.06434 -32.142859,8.57142 1.2411,16.0405 8.75904,37.10248 -17.14286,31.42858 -33.715132,3.94966 -22.33534,-16.1513 -30.71428,-25.71428 l 2.85714,-21.42858 -12.85714,-5.71428 c -2.238214,-21.90476 -4.118074,-43.80952 27.14286,-65.71428 z"
       id="path6343"
       sodipodi:nodetypes="cccccccccccccccc"
       inkscape:connector-curvature="0" />
    <path
       style="opacity:0.30729167;fill:#000000;fill-rule:evenodd;stroke:#000000;stroke-width:1.82577801px;stroke-linecap:butt;stroke-linejoin:miter;stroke-opacity:1"
       d="m 61.796651,302.95643 15.6495,-39.1238 28.690799,-2.60826 c 19.248,10.0334 21.77536,26.14706 22.17012,43.03622 l 28.03876,43.68826 c 21.82654,-0.52586 33.9247,8.67676 43.68826,20.21394 9.23904,35.87154 -18.70818,29.6954 -35.21142,20.21394 l -2.60826,-11.73714 c -8.2394,-1.20548 -14.55256,-3.37408 -29.34286,-1.3041 -4.56448,5.7343 -9.12888,3.9994 -13.69336,-0.65204 -7.45218,8.042 -16.68624,11.92626 -29.342859,7.8247 1.13302,14.64322 7.99608,33.87048 -15.6495,28.69082 -30.77818,3.6056 -20.38966,-14.74434 -28.03876,-23.47428 l 2.60826,-19.5619 -11.737128,-5.21648 c -2.043242,-19.9966 -3.759342,-39.99328 24.778448,-59.98988 z"
       id="path7550"
       sodipodi:nodetypes="cccccccccccccccc"
       inkscape:connector-curvature="0" />
    <path
       style="fill:none;stroke:#000000;stroke-width:2px;stroke-linecap:butt;stroke-linejoin:miter;stroke-opacity:1"
       d="m 86.343931,389.74195 c -1.52514,-8.11398 -10.72046,-9.83614 -17.5,-13.57144 6.30172,4.05542 14.6371,6.0772 17.5,13.57144 z"
       id="path6347"
       sodipodi:nodetypes="ccc"
       inkscape:connector-curvature="0" />
    <path
       style="fill:#ffffff;fill-rule:evenodd;stroke:#000000;stroke-width:2px;stroke-linecap:butt;stroke-linejoin:miter;stroke-opacity:1"
       d="m 198.48679,422.59909 c 0.91332,-9.74238 0.21746,-18.68016 -6.42858,-24.64286 1.73002,-7.3034 6.37076,-9.94964 12.85714,-9.64286 1.10992,12.24176 0.0478,23.94052 -6.42856,34.28572 z"
       id="path6355"
       sodipodi:nodetypes="cccc"
       inkscape:connector-curvature="0" />
    <path
       style="fill:#000000;fill-rule:evenodd;stroke:#000000;stroke-width:2px;stroke-linecap:butt;stroke-linejoin:miter;stroke-opacity:1"
       d="m 118.84393,378.67051 c -8.35094,3.36266 -6.79552,-9.78526 -10,-15 3.21852,5.17222 3.37702,14.93446 10,15 z"
       id="path6357"
       sodipodi:nodetypes="ccc"
       inkscape:connector-curvature="0" />
    <path
       style="fill:none;stroke:#000000;stroke-width:2px;stroke-linecap:butt;stroke-linejoin:miter;stroke-opacity:1"
       d="m 166.70107,379.02765 c -7.14232,-4.5001 -4.52498,-10.95214 -6.78572,-16.42856 2.18918,5.5368 -0.64792,15.26216 6.78572,16.42856 z"
       id="path6359"
       sodipodi:nodetypes="ccc"
       inkscape:connector-curvature="0" />
    <path
       style="fill:#cccccc;fill-rule:evenodd;stroke:#000000;stroke-width:2px;stroke-linecap:butt;stroke-linejoin:miter;stroke-opacity:1"
       d="m 337.84683,384.40725 58.95334,-34.44932 49.49748,44.4467 c -8.51992,21.03298 -14.61198,59.94926 -28.02394,65.60786 -82.83654,0.78698 -85.9545,-51.94202 -80.42688,-75.60524 z"
       id="path6418"
       sodipodi:nodetypes="ccccc"
       inkscape:connector-curvature="0" />
    <path
       style="opacity:0.15104167;fill:#000000;fill-rule:evenodd;stroke:#000000;stroke-width:2px;stroke-linecap:butt;stroke-linejoin:miter;stroke-opacity:1"
       d="m 414.03231,357.73117 c -14.96892,17.65564 -31.6746,41.1839 -36.83796,63.75574 -2.80182,12.24826 -17.02482,10.0108 -29.8926,13.47558 15.98846,12.49962 34.43566,27.81564 71.47284,25.06628 19.29936,-24.3345 23.18954,-65.05442 33.53464,-97.89406 l -38.27692,-4.40354 z"
       id="path7548"
       sodipodi:nodetypes="cscccc"
       inkscape:connector-curvature="0" />
    <path
       style="fill:#4d4d4d;fill-rule:evenodd;stroke:#000000;stroke-width:2px;stroke-linecap:butt;stroke-linejoin:miter;stroke-opacity:1"
       d="m 383.66819,341.87671 c -57.77658,-4.58838 -37.9962,22.5511 -40.91118,40.4061 11.80644,5.01036 26.06366,24.72544 35.35534,14.64722 l 26.76904,3.53552 -13.42358,3.47826 29.58602,7.63342 c 25.34746,1.31676 69.11932,15.35806 51.51778,-42.93148 l 7.07108,-6.06092 c -7.31976,-37.83216 -19.30224,-36.9121 -36.3655,-35.35534 l 4.5457,-23.73858 c -22.9757,-22.02074 -37.98838,-12.42216 -50.50766,-1.51522 l -13.63704,29.7995 0,10.10152 z"
       id="path6398"
       sodipodi:nodetypes="ccccccccccccc"
       inkscape:connector-curvature="0" />
    <path
       style="opacity:0.34375;fill:#000000;fill-rule:evenodd;stroke:#000000;stroke-width:2px;stroke-linecap:butt;stroke-linejoin:miter;stroke-opacity:1"
       d="m 470.26211,369.24811 c -2.0324,0.67748 -29.1311,22.0177 -29.1311,22.0177 l -19.30782,-4.0648 -20.66276,6.43594 19.98528,-20.32402 c 16.37214,20.68746 32.74426,2.95062 49.1164,-4.06482 z"
       id="path7554"
       sodipodi:nodetypes="cccccc"
       inkscape:connector-curvature="0" />
    <path
       style="opacity:0.22395833;fill:#000000;fill-rule:evenodd;stroke:#000000;stroke-width:2px;stroke-linecap:butt;stroke-linejoin:miter;stroke-opacity:1"
       d="m 382.71759,352.86923 c -57.77658,-4.58838 -36.55908,23.03014 -38.03692,39.92706 11.80644,5.01036 23.1894,25.20448 32.48108,15.12626 l 26.76904,3.53552 -13.42358,3.47826 29.58602,7.63342 c 3.23164,-4.72598 10.40156,-6.48706 21.61754,-9.7926 7.75624,-2.28588 21.90538,-1.16264 25.93804,-5.18606 6.10406,-6.09006 9.38334,-16.8595 3.9622,-27.95282 1.27194,-4.81472 -6.32084,-8.91088 1.32258,-13.7256 -7.31976,-37.83216 -13.55374,-29.24742 -30.617,-27.69066 l 2.86906,-23.73858 c -22.9757,-22.02074 -36.31174,-12.42216 -48.83102,-1.51522 l -13.63704,29.7995 0,10.10152 z"
       id="path6571"
       sodipodi:nodetypes="ccccccssccccccc"
       inkscape:connector-curvature="0" />
    <path
       style="opacity:0.22395833;fill:#000000;fill-rule:evenodd;stroke:#000000;stroke-width:2px;stroke-linecap:butt;stroke-linejoin:miter;stroke-opacity:1"
       d="m 382.71759,352.86923 c -57.77658,-4.58838 -36.55908,23.03014 -38.03692,39.92706 11.80644,5.01036 23.1894,25.20448 32.48108,15.12626 l 26.76904,3.53552 -13.42358,3.47826 29.58602,7.63342 c 3.23164,-4.72598 10.40156,-6.48706 21.61754,-9.7926 7.75624,-2.28588 21.90538,-1.16264 25.93804,-5.18606 6.10406,-6.09006 9.38334,-16.8595 3.9622,-27.95282 1.27194,-4.81472 -6.32084,-8.91088 1.32258,-13.7256 -7.31976,-37.83216 -13.55374,-29.24742 -30.617,-27.69066 l 2.86906,-23.73858 c -22.9757,-22.02074 -36.31174,-12.42216 -48.83102,-1.51522 l -13.63704,29.7995 0,10.10152 z"
       id="path7556"
       sodipodi:nodetypes="ccccccssccccccc"
       inkscape:connector-curvature="0" />
    <path
       style="fill:#ffffff;fill-rule:evenodd;stroke:#000000;stroke-width:2px;stroke-linecap:butt;stroke-linejoin:miter;stroke-opacity:1"
       d="m 420.03369,365.11021 -20.70814,24.24366 30.30458,-9.09136 c -5.58694,-3.6179 -10.63112,-7.56144 -9.59644,-15.1523 z"
       id="path6404"
       sodipodi:nodetypes="cccc"
       inkscape:connector-curvature="0" />
    <path
       style="fill:#ffffff;fill-rule:evenodd;stroke:#000000;stroke-width:2px;stroke-linecap:butt;stroke-linejoin:miter;stroke-opacity:1"
       d="m 413.79361,396.18613 -22.33644,7.28874 30.59976,7.53448 c -6.80958,-3.53098 -6.83796,-9.42 -8.26332,-14.82322 z"
       id="path6406"
       sodipodi:nodetypes="cccc"
       inkscape:connector-curvature="0" />
    <path
       style="fill:#ffffff;fill-rule:evenodd;stroke:#000000;stroke-width:2px;stroke-linecap:butt;stroke-linejoin:miter;stroke-opacity:1"
       d="m 387.70881,378.74727 15.15228,21.71828 -23.2335,-3.53552 c 9.37514,-3.83378 5.86912,-11.9613 8.08122,-18.18276 z"
       id="path6408"
       sodipodi:nodetypes="cccc"
       inkscape:connector-curvature="0" />
    <path
       style="fill:#4d4d4d;fill-rule:evenodd;stroke:#000000;stroke-width:2px;stroke-linecap:butt;stroke-linejoin:miter;stroke-opacity:1"
       d="m 382.15297,394.90971 c 16.08838,-30.48954 -6.3667,-35.84698 -14.64722,-50.50762 7.7309,14.80122 32.22884,17.62602 14.64722,50.50762 z"
       id="path6410"
       sodipodi:nodetypes="ccc"
       inkscape:connector-curvature="0" />
    <path
       style="fill:#ffffff;fill-rule:evenodd;stroke:#000000;stroke-width:2px;stroke-linecap:butt;stroke-linejoin:miter;stroke-opacity:1"
       d="m 384.49089,340.81449 c -1.62208,2.00414 -7.22034,18.57154 -11.4293,28.33634 l 24.74874,-12.62692 c -7.40094,-3.0356 -11.2233,-8.69522 -13.31944,-15.70942 z"
       id="path6402"
       sodipodi:nodetypes="cccc"
       inkscape:connector-curvature="0" />
    <path
       style="fill:#4d4d4d;fill-rule:evenodd;stroke:#000000;stroke-width:2px;stroke-linecap:butt;stroke-linejoin:miter;stroke-opacity:1"
       d="m 395.28495,355.51377 c 23.42874,11.64542 33.01748,-16.25202 47.98224,-28.78936 -14.90054,12.6948 -25.7487,36.87136 -47.98224,28.78936 z"
       id="path6412"
       sodipodi:nodetypes="ccc"
       inkscape:connector-curvature="0" />
    <path
       style="fill:#4d4d4d;fill-rule:evenodd;stroke:#000000;stroke-width:2px;stroke-linecap:butt;stroke-linejoin:miter;stroke-opacity:1"
       d="m 430.64029,381.77773 c -22.67108,5.43656 -18.48796,16.71098 -10.6066,28.78936 -12.8473,-16.5932 -3.33422,-25.76944 10.6066,-28.78936 z"
       id="path6416"
       sodipodi:nodetypes="ccc"
       inkscape:connector-curvature="0" />
    <path
       style="fill:#ffffff;fill-rule:evenodd;stroke:none"
       d="m 287.97311,221.53103 c 3.94182,0.83538 5.73352,2.29074 12.8616,-0.67782 -3.65896,-2.24908 -9.69602,-1.63676 -12.8616,0.67782 z"
       id="path6441"
       sodipodi:nodetypes="ccc"
       inkscape:connector-curvature="0" />
    <path
       style="opacity:0.30729167;fill:#000000;fill-rule:evenodd;stroke:#000000;stroke-width:2px;stroke-linecap:butt;stroke-linejoin:miter;stroke-opacity:1"
       d="m 268.42263,105.36641 c -40.1826,-13.951979 -85.6434,21.26812 -63.23354,87.66466 10.28052,12.93778 16.8059,30.09044 33.53294,33.53294 -74.14638,-2.734 1.83592,49.4657 33.53294,59.4012 -8.46448,1.45062 -50.77846,-21.71656 -76.16768,-32.57484 l -8.62274,-45.509 c -10.58167,0.21443 -11.90461,-25.93937 -6.22756,-39.76048 -12.03844,-56.29908 -11.3385,-72.789479 8.14372,-97.005979 l 15.80838,7.9042 20.5988,24.431139 42.63474,1.91616 z"
       id="path6443"
       sodipodi:nodetypes="ccccccccccc"
       inkscape:connector-curvature="0" />
    <path
       style="fill:#b3b3b3;fill-rule:evenodd;stroke:#000000;stroke-width:2px;stroke-linecap:butt;stroke-linejoin:miter;stroke-opacity:1"
       d="m 193.21305,79.258631 23.47306,34.970039 c -14.11048,11.90916 -19.75908,6.06762 -26.34732,-2.87424 -0.29472,7.02594 -5.29058,15.2495 -1.91616,22.27544 -18.5662,-15.93012 -10.00622,-44.428079 4.79042,-54.371239 z"
       id="path6447"
       sodipodi:nodetypes="ccccc"
       inkscape:connector-curvature="0" />
    <path
       style="opacity:0.26041667;fill:#000000;fill-rule:evenodd;stroke:#000000;stroke-width:2px;stroke-linecap:butt;stroke-linejoin:miter;stroke-opacity:1"
       d="m 188.42263,115.18677 -2.87426,-6.70658 -3.83232,14.8503 4.55088,7.66466 2.1557,-15.80838 z"
       id="path7588"
       inkscape:connector-curvature="0" />
    <path
       style="fill:url(#linearGradient8380);fill-opacity:1;fill-rule:evenodd;stroke:none"
       d="m 261.23699,330.99515 c 16.5658,41.83632 12.4601,83.67266 18.68264,125.50898 l 44.5509,-31.61676 c 11.61784,-36.72654 12.28394,-74.41118 -22.03592,-111.61676 -12.85616,7.66094 -24.7217,17.30312 -41.19762,17.72454 z"
       id="path6471"
       sodipodi:nodetypes="ccccc"
       inkscape:connector-curvature="0" />
    <path
       style="opacity:0.140625;fill:#000000;fill-rule:evenodd;stroke:#000000;stroke-width:2px;stroke-linecap:butt;stroke-linejoin:miter;stroke-opacity:1"
       d="m 309.70229,222.91511 c -7.55292,3.90152 -20.05828,6.343 -24.72756,11.17822 4.3019,-3.83898 3.04776,-7.33922 -0.33872,-11.1782 l 25.06628,-2e-5 z"
       id="path6511"
       sodipodi:nodetypes="cccc"
       inkscape:connector-curvature="0" />
    <path
       style="fill:url(#linearGradient8376);fill-opacity:1;fill-rule:evenodd;stroke:none"
       d="m 288.06335,296.26461 c -1.16772,4.74794 -4.70966,6.5281 -8.38324,8.14372 1.96512,3.52754 4.81512,5.87524 5.02994,11.73652 l 10.2994,-5.7485 -6.9461,-14.13174 z"
       id="path6513"
       sodipodi:nodetypes="ccccc"
       inkscape:connector-curvature="0" />
    <path
       style="opacity:0.09375;fill:#000000;fill-rule:evenodd;stroke:#000000;stroke-width:2px;stroke-linecap:butt;stroke-linejoin:miter;stroke-opacity:1"
       d="M 108.90167,331.47419 C 69.977711,335.56843 69.680331,285.92305 74.889691,256.74365 l -17.72454,41.67666 c -0.4814,22.21376 6.51422,64.88084 51.736519,33.05388 z"
       id="path6534"
       sodipodi:nodetypes="cccc"
       inkscape:connector-curvature="0" />
    <path
       style="opacity:0.10416667;fill:#ffffff;fill-rule:evenodd;stroke:none"
       d="m 139.08131,319.97719 19.16168,36.88622 19.16168,1.91618 5.7485,5.7485 11.497,5.26946 c 8.6767,5.10978 5.82388,10.21956 8.62276,15.32934 l 5.26946,9.1018 -1.43712,-22.51498 c -16.9726,-23.41772 -33.038,-18.90744 -47.9042,-22.03592 l -20.11976,-29.7006 z"
       id="path6536"
       sodipodi:nodetypes="cccccccccc"
       inkscape:connector-curvature="0" />
    <path
       style="opacity:0.140625;fill:#ffffff;fill-rule:evenodd;stroke:none"
       d="m 107.94359,268.24067 c 9.25844,8.4635 9.60402,19.97956 10.05988,29.70058 -0.4436,16.46482 -5.15162,30.79744 -15.80838,42.1557 l 1.43712,-0.47904 -5.748519,-11.01796 c 3.581919,-0.77484 6.714799,-2.22324 5.269479,-10.53894 l 5.74848,-9.10178 c 1.29064,-12.0991 -17.557059,-21.0798 -0.95806,-40.71856 z"
       id="path6538"
       sodipodi:nodetypes="cccccccc"
       inkscape:connector-curvature="0" />
    <path
       style="fill:none;stroke:#000000;stroke-width:2px;stroke-linecap:butt;stroke-linejoin:miter;stroke-opacity:1"
       d="m 126.34393,307.59909 -8.57144,-2.14286 c -1.12586,-13.80892 -4.2012,-15.02184 -10.9324,-18.55432 7.21154,4.67948 8.48194,9.5901 10.9324,19.98288 -6.10828,45.73256 -34.248299,36.28256 -44.285699,35.7143 -17.315,-1.74588 -15.27774,-31.93112 -16.68092,-44.79042 1.39104,16.3997 -0.28898,40.3918 16.68092,46.21898 0.23194,18.79172 -5.36204,29.53256 -29.28572,27.14286"
       id="path6345"
       sodipodi:nodetypes="cccccccc"
       inkscape:connector-curvature="0" />
    <path
       style="opacity:0.33333333;fill:#000000;fill-rule:evenodd;stroke:#000000;stroke-width:2px;stroke-linecap:butt;stroke-linejoin:miter;stroke-opacity:1"
       d="m 100.63359,371.71959 c -4.991599,-10.47618 -2.426759,-20.95238 -2.142859,-31.42856 -10.57596,-4.72334 -19.35608,-5.85504 -21.42858,6.42856 7.40888,12.36774 13.87966,22.63944 23.571439,25 z"
       id="path6543"
       sodipodi:nodetypes="cccc"
       inkscape:connector-curvature="0" />
    <path
       style="fill:#ffffff;fill-rule:evenodd;stroke:#000000;stroke-width:2px;stroke-linecap:butt;stroke-linejoin:miter;stroke-opacity:1"
       d="m 103.84393,366.88479 c -4.991599,-10.47618 -2.42676,-20.95238 -2.14286,-31.42856 -10.575959,-4.72334 -19.356079,-5.85504 -21.428579,6.42856 7.40888,12.36774 13.87966,22.63944 23.571439,25 z"
       id="path6349"
       sodipodi:nodetypes="cccc"
       inkscape:connector-curvature="0" />
    <path
       style="opacity:0.32291667;fill:#000000;fill-rule:evenodd;stroke:#000000;stroke-width:2px;stroke-linecap:butt;stroke-linejoin:miter;stroke-opacity:1"
       d="m 89.979531,376.50413 -36.16768,0.95808 -6.22754,-1.43712 c -3.98488,-7.77666 -10.192202,-5.55226 -15.329346,-8.1437 l -1.676648,-2.39522 c 11.239954,7.29022 23.304634,9.93646 37.844334,-3.11376 l 5.988,5.50898 15.56888,8.62274 z"
       id="path6545"
       sodipodi:nodetypes="cccccccc"
       inkscape:connector-curvature="0" />
    <path
       style="opacity:0.125;fill:#000000;fill-rule:evenodd;stroke:#000000;stroke-width:2px;stroke-linecap:butt;stroke-linejoin:miter;stroke-opacity:1"
       d="m 70.338791,358.30055 c -43.355634,17.87876 -37.525848,-17.8911 -32.814366,-40.47906 -9.613534,15.96806 -11.286836,31.93614 -8.143712,47.9042 10.778438,6.46612 21.556898,6.93266 32.335338,3.83234 l 8.62274,-11.25748 z"
       id="path6553"
       sodipodi:nodetypes="ccccc"
       inkscape:connector-curvature="0" />
    <path
       style="fill:#ffffff;fill-rule:evenodd;stroke:#000000;stroke-width:2px;stroke-linecap:butt;stroke-linejoin:miter;stroke-opacity:1"
       d="m 52.062491,370.08627 36.78572,0 c -6.89892,-3.52654 -14.50996,-5.27272 -19.64286,-13.2143 -7.82802,-1.03054 -15.8068,-2.44876 -17.14286,13.2143 z"
       id="path6351"
       sodipodi:nodetypes="cccc"
       inkscape:connector-curvature="0" />
    <path
       style="opacity:0.3125;fill:#000000;fill-rule:evenodd;stroke:#000000;stroke-width:2px;stroke-linecap:butt;stroke-linejoin:miter;stroke-opacity:1"
       d="m 55.990691,301.84009 c -4.08234,30.12208 8.75824,59.6575 22.69518,44.37412 -22.94158,-6.88758 -18.8822,-28.00198 -22.69518,-44.37412 z"
       id="path6540"
       sodipodi:nodetypes="ccc"
       inkscape:connector-curvature="0" />
    <path
       style="opacity:0.20833333;fill:#000000;fill-rule:evenodd;stroke:#000000;stroke-width:2px;stroke-linecap:butt;stroke-linejoin:miter;stroke-opacity:1"
       d="m 42.793891,372.91131 -2.1557,20.11976 c 3.1189,23.14996 13.01266,30.2542 28.26348,24.67066 6.87112,1.32004 13.94906,3.09514 17.72456,-2.3952 l 0.47904,-10.29938 c -21.18408,1.80618 -39.31828,26.18438 -44.31138,-32.09584 z"
       id="path6551"
       sodipodi:nodetypes="cccccc"
       inkscape:connector-curvature="0" />
    <path
       style="fill:#ffffff;fill-rule:evenodd;stroke:#000000;stroke-width:2px;stroke-linecap:butt;stroke-linejoin:miter;stroke-opacity:1"
       d="m 108.12965,407.95623 c -9.047619,4.36244 -19.880959,10.04966 -28.928579,6.07142 -11.10712,-3.92016 -4.80836,-15.49958 1.42858,-13.92856 1.73162,0.43618 27.499999,7.5 27.499999,7.85714 z"
       id="path6353"
       sodipodi:nodetypes="ccsc"
       inkscape:connector-curvature="0" />
    <path
       style="fill:#b3b3b3;fill-rule:evenodd;stroke:#000000;stroke-width:2px;stroke-linecap:butt;stroke-linejoin:miter;stroke-opacity:1"
       d="m 190.95815,484.79169 c -3.05778,-1.43678 -13.70914,25.216 0.95808,36.88622 26.32212,14.97378 132.54514,4.17494 150.41916,-17.72454 2.94376,-18.04574 -4.01794,-28.56804 -10.53892,-32.57486 -2.02426,21.42724 -136.77292,31.06686 -140.83832,13.41318 z"
       id="path6555"
       sodipodi:nodetypes="ccccc"
       inkscape:connector-curvature="0" />
    <path
       style="opacity:0.27083333;fill:#ffffff;fill-rule:evenodd;stroke:none"
       d="m 333.33281,474.46821 c -1.76848,22.7172 -120.1454,34.20472 -143.47306,12.93412 40.4615,18.0337 122.5539,5.24358 143.47306,-12.93412 z"
       id="path6569"
       sodipodi:nodetypes="ccc"
       inkscape:connector-curvature="0" />
    <path
       style="opacity:0.40104167;fill:#000000;fill-rule:evenodd;stroke:#000000;stroke-width:2px;stroke-linecap:butt;stroke-linejoin:miter;stroke-opacity:1"
       d="m 189.85975,485.72569 c 9.16064,9.43236 34.94166,10.97128 58.4431,8.14372 -6.60564,9.52872 -52.43376,35.52466 52.69462,28.26346 -35.12974,4.81344 -72.17564,12.01846 -108.26346,-0.47904 -12.79942,-13.05254 -7.33596,-24.9674 -2.87426,-35.92814 z"
       id="path6557"
       sodipodi:nodetypes="ccccc"
       inkscape:connector-curvature="0" />
    <path
       style="fill:url(#linearGradient8358);fill-opacity:1;fill-rule:evenodd;stroke:none"
       d="m 335.00945,480.69573 c 8.20848,8.46308 4.5076,14.77048 4.31138,22.75452 -8.27314,7.8159 -17.78446,9.44096 -27.30538,11.01796 0.93534,-7.18564 1.3483,-12.4551 -4.07186,-19.64074 9.59628,-1.50416 18.73402,-5.04094 27.06586,-14.13174 z"
       id="path6559"
       sodipodi:nodetypes="ccccc"
       inkscape:connector-curvature="0" />
    <path
       style="color:#000000;fill:none;stroke:#000000;stroke-width:2px;stroke-linecap:butt;stroke-linejoin:miter;stroke-miterlimit:4;stroke-opacity:1;stroke-dasharray:none;stroke-dashoffset:0;marker:none;visibility:visible;display:inline;overflow:visible;enable-background:accumulate"
       d="m 442.30911,333.84755 -25.0143,22.38478 c -0.0971,17.26966 9.24442,25.10076 23.95208,27.5657 l 30.80964,-18.18274"
       id="path6573"
       sodipodi:nodetypes="cccc"
       inkscape:connector-curvature="0" />
    <path
       style="opacity:0.19791667;fill:#000000;fill-rule:evenodd;stroke:#000000;stroke-width:2px;stroke-linecap:butt;stroke-linejoin:miter;stroke-opacity:1"
       d="m 385.57867,341.13321 c 25.00666,33.671 42.04628,-14.04896 58.93968,-27.77616 l -1.69368,13.21062 c -18.02286,19.30156 -40.62848,45.0066 -57.246,14.56554 z"
       id="path7552"
       sodipodi:nodetypes="cccc"
       inkscape:connector-curvature="0" />
    <path
       style="opacity:0.27083333;fill:#000000;fill-rule:evenodd;stroke:#000000;stroke-width:2px;stroke-linecap:butt;stroke-linejoin:miter;stroke-opacity:1"
       d="m 91.896471,333.00361 c 3.28334,10.83948 -0.48404,21.67896 10.839479,32.51844 -9.078219,-1.4673 -14.806039,-14.10266 -21.340219,-24.0501 0.4602,-3.7348 1.19778,-7.38638 10.50074,-8.46834 z"
       id="path7570"
       sodipodi:nodetypes="cccc"
       inkscape:connector-curvature="0" />
    <path
       style="opacity:0.34375;fill:#000000;fill-rule:evenodd;stroke:#000000;stroke-width:2px;stroke-linecap:butt;stroke-linejoin:miter;stroke-opacity:1"
       d="m 84.444331,369.92559 c -9.1634,-3.15272 -23.49212,-3.7228 -27.43744,-9.48456 -3.71642,1.5856 -3.48386,5.14566 -3.72606,8.46836 l 31.1635,1.0162 z"
       id="path7572"
       sodipodi:nodetypes="cccc"
       inkscape:connector-curvature="0" />
    <path
       style="opacity:0.375;fill:#000000;fill-rule:evenodd;stroke:#000000;stroke-width:2px;stroke-linecap:butt;stroke-linejoin:miter;stroke-opacity:1"
       d="m 105.10709,407.86377 c -9.986619,-0.65558 -19.359219,6.67094 -30.147299,-4.40354 -1.20168,3.7468 -1.3302,7.187 3.72606,9.14582 9.99204,4.34408 18.189,-0.28736 26.421239,-4.74228 z"
       id="path7574"
       sodipodi:nodetypes="cccc"
       inkscape:connector-curvature="0" />
    <path
       style="opacity:0.421875;fill:#000000;fill-rule:evenodd;stroke:#000000;stroke-width:2px;stroke-linecap:butt;stroke-linejoin:miter;stroke-opacity:1"
       d="m 197.92015,391.26581 c 6.02474,10.99074 1.89146,19.44196 1.35494,28.79238 -0.67202,-7.90534 -0.0788,-16.17218 -6.77468,-22.35644 0.84024,-4.07798 2.7748,-5.96734 5.41974,-6.43594 z"
       id="path7576"
       sodipodi:nodetypes="cccc"
       inkscape:connector-curvature="0" />
    <path
       style="opacity:0.42708333;fill:#000000;fill-rule:evenodd;stroke:#000000;stroke-width:2px;stroke-linecap:butt;stroke-linejoin:miter;stroke-opacity:1"
       d="m 388.18311,352.07299 -12.93414,15.32934 19.64072,-10.05988 -6.70658,-5.26946 z"
       id="path7578"
       inkscape:connector-curvature="0" />
    <path
       style="opacity:0.359375;fill:#000000;fill-rule:evenodd;stroke:#000000;stroke-width:2px;stroke-linecap:butt;stroke-linejoin:miter;stroke-opacity:1"
       d="m 420.75795,375.06701 c -4.40432,7.787 -12.22498,9.31074 -19.16166,12.45508 l 25.86826,-8.62274 -6.7066,-3.83234 z"
       id="path7580"
       sodipodi:nodetypes="cccc"
       inkscape:connector-curvature="0" />
    <path
       style="opacity:0.390625;fill:#000000;fill-rule:evenodd;stroke:#000000;stroke-width:2px;stroke-linecap:butt;stroke-linejoin:miter;stroke-opacity:1"
       d="m 387.44171,386.86227 13.54934,12.87188 -19.47718,-2.5405 5.92784,-10.33138 z"
       id="path7582"
       inkscape:connector-curvature="0" />
    <path
       style="opacity:0.55208333;fill:#000000;fill-rule:evenodd;stroke:#000000;stroke-width:2px;stroke-linecap:butt;stroke-linejoin:miter;stroke-opacity:1"
       d="m 412.84673,400.91973 -17.27542,2.70986 22.0177,5.58912 -4.74228,-8.29898 z"
       id="path7584"
       sodipodi:nodetypes="cccc"
       inkscape:connector-curvature="0" />
    <path
       style="opacity:0.30729167;fill:#000000;fill-rule:evenodd;stroke:#000000;stroke-width:2px;stroke-linecap:butt;stroke-linejoin:miter;stroke-opacity:1"
       d="m 193.21305,81.653831 c 0.55882,11.15882 21.70212,38.058699 1.43712,33.293419 6.48506,8.89486 14.04928,5.37926 21.7964,-0.23952 L 193.21305,81.653831 z"
       id="path7586"
       sodipodi:nodetypes="cccc"
       inkscape:connector-curvature="0" />
    <path
       style="fill:#000000;fill-rule:evenodd;stroke:#000000;stroke-width:1;stroke-linecap:butt;stroke-linejoin:miter;stroke-miterlimit:4;stroke-opacity:1;stroke-dasharray:none"
       d="m 215.59281,176.22575 c 4.10284,2.69714 9.05254,-1.31776 14.67968,0.62222 l 51.42858,31.42858 5.35714,-4.28572 -5,2.85714 c -17.24514,-10.03354 -34.55328,-25.53016 -50.03682,-39.0869 -4.68104,4.80942 -10.9329,5.6918 -16.42858,8.46468 z"
       id="path6313"
       sodipodi:nodetypes="ccccccc"
       inkscape:connector-curvature="0" />
    <path
       sodipodi:type="arc"
       style="color:#000000;fill:#000000;fill-opacity:1;fill-rule:evenodd;stroke:#000000;stroke-width:1.1753974;stroke-linecap:butt;stroke-linejoin:miter;stroke-miterlimit:4;stroke-opacity:1;stroke-dasharray:none;stroke-dashoffset:0;marker:none;visibility:visible;display:inline;overflow:visible;enable-background:accumulate"
       id="path7598"
       sodipodi:cx="151.64915"
       sodipodi:cy="185.22485"
       sodipodi:rx="5.4295697"
       sodipodi:ry="5.4927044"
       d="m 157.07872,185.22485 c 0,3.03354 -2.4309,5.49271 -5.42957,5.49271 -2.99866,0 -5.42957,-2.45917 -5.42957,-5.49271 0,-3.03353 2.43091,-5.4927 5.42957,-5.4927 2.99867,0 5.42957,2.45917 5.42957,5.4927 z"
       transform="matrix(1.0456802,0.03776614,-0.03733204,1.033661,93.386591,-3.1247627)" />
    <path
       sodipodi:type="arc"
       style="color:#000000;fill:#ffffff;fill-opacity:1;fill-rule:evenodd;stroke:none;stroke-width:1;marker:none;visibility:visible;display:inline;overflow:visible;enable-background:accumulate"
       id="path7592"
       sodipodi:cx="164.37126"
       sodipodi:cy="182.45509"
       sodipodi:rx="2.8143713"
       sodipodi:ry="2.8143713"
       d="m 167.18563,182.45509 c 0,1.55434 -1.26003,2.81437 -2.81437,2.81437 -1.55433,0 -2.81437,-1.26003 -2.81437,-2.81437 0,-1.55433 1.26004,-2.81437 2.81437,-2.81437 1.55434,0 2.81437,1.26004 2.81437,2.81437 z"
       transform="matrix(1.6595744,0,0,1.6595744,-33.705033,-110.36553)" />
    <path
       sodipodi:type="arc"
       style="color:#000000;fill:#000000;fill-opacity:1;fill-rule:evenodd;stroke:none;stroke-width:1;marker:none;visibility:visible;display:inline;overflow:visible;enable-background:accumulate"
       id="path7600"
       sodipodi:cx="260.23224"
       sodipodi:cy="192.16096"
       sodipodi:rx="1.1008848"
       sodipodi:ry="1.3549352"
       d="m 261.33312,192.16096 c 0,0.74831 -0.49288,1.35494 -1.10088,1.35494 -0.608,0 -1.10089,-0.60663 -1.10089,-1.35494 0,-0.74831 0.49289,-1.35493 1.10089,-1.35493 0.608,0 1.10088,0.60662 1.10088,1.35493 z"
       transform="matrix(3.8702852,0,0,3.1294418,-694.84549,-401.60961)" />
    <path
       sodipodi:type="arc"
       style="color:#000000;fill:#ffffff;fill-opacity:1;fill-rule:evenodd;stroke:none;stroke-width:1;marker:none;visibility:visible;display:inline;overflow:visible;enable-background:accumulate"
       id="path7596"
       sodipodi:cx="164.37126"
       sodipodi:cy="182.45509"
       sodipodi:rx="2.8143713"
       sodipodi:ry="2.8143713"
       d="m 167.18563,182.45509 c 0,1.55434 -1.26003,2.81437 -2.81437,2.81437 -1.55433,0 -2.81437,-1.26003 -2.81437,-2.81437 0,-1.55433 1.26004,-2.81437 2.81437,-2.81437 1.55434,0 2.81437,1.26004 2.81437,2.81437 z"
       transform="matrix(0.8085106,0,0,0.893617,176.00575,38.129825)" />
    <path
       style="fill:#000000;fill-rule:evenodd;stroke:#000000;stroke-width:0.60000002;stroke-linecap:butt;stroke-linejoin:miter;stroke-miterlimit:4;stroke-opacity:1;stroke-dasharray:none"
       d="m 282.31485,218.42031 c 6.5469,-6.20406 15.48902,-2.75678 23.23352,-2.39522 -5.30334,-2.41006 -9.40272,-5.5081 -18.92214,-5.50898 3.71006,-3.81002 5.2346,-3.03836 9.58082,-2.3952 -3.3533,0.59408 -4.07184,-1.40524 -7.42514,2.15568 7.65068,-0.46154 11.9605,3.25294 17.2455,5.7485 -7.90418,-1.12904 -16.28742,-2.3569 -23.71256,2.39522 z"
       id="path7604"
       sodipodi:nodetypes="ccccccc"
       inkscape:connector-curvature="0" />
    <path
       style="fill:#000000;fill-rule:evenodd;stroke:#000000;stroke-width:0.60000002;stroke-linecap:butt;stroke-linejoin:miter;stroke-miterlimit:4;stroke-opacity:1;stroke-dasharray:none"
       d="m 228.06745,210.04321 c 20.69102,-4.50946 29.78158,0.94934 47.08402,5.75848 -18.0658,-5.12788 -29.01822,-6.88388 -47.08402,-5.75848 z"
       id="path7608"
       sodipodi:nodetypes="ccc"
       inkscape:connector-curvature="0" />
    <path
       style="fill:#000000;fill-rule:evenodd;stroke:#000000;stroke-width:0.60000002;stroke-linecap:butt;stroke-linejoin:miter;stroke-miterlimit:4;stroke-opacity:1;stroke-dasharray:none"
       d="m 331.88937,207.66659 c -20.69102,-4.50946 -12.50616,-0.4056 -29.8086,4.40354 18.0658,-5.12788 11.7428,-5.52894 29.8086,-4.40354 z"
       id="path7610"
       sodipodi:nodetypes="ccc"
       inkscape:connector-curvature="0" />
    <path
       style="opacity:0.05208333;fill:#ffffff;fill-rule:evenodd;stroke:none"
       d="m 323.51297,180.43912 c -2.23552,1.59681 -28.74251,20.43912 -28.74251,20.43912 l -13.41317,2.55489 -46.94611,-38.00399 c 18.95255,-42.19271 74.4068,-35.94148 89.10179,15.00998 z"
       id="path8125"
       sodipodi:nodetypes="ccccc"
       inkscape:connector-curvature="0" />
    <path
       style="opacity:0.16666667;fill:#ffffff;fill-rule:evenodd;stroke:none"
       d="m 228.5324,214.55036 c 7.67796,-2.80917 15.35593,-3.20728 23.03389,0 -6.55079,1.48707 -17.64921,0.52541 -9.48455,9.93619 l -13.54934,-9.93619 z"
       id="path8127"
       sodipodi:nodetypes="cccc"
       inkscape:connector-curvature="0" />
    <path
       style="opacity:0.16666667;fill:#ffffff;fill-rule:evenodd;stroke:none"
       d="m 331.46431,210.80575 c -8.0167,-1.6047 -15.66551,-0.82657 -22.76416,3.51472 6.70099,0.47008 17.52271,-2.17382 10.88964,8.3726 l 11.87452,-11.88732 z"
       id="path8129"
       sodipodi:nodetypes="cccc"
       inkscape:connector-curvature="0" />
  </g>
</svg>
