<?xml version="1.0" encoding="UTF-8" standalone="no"?>
<!-- Created with Inkscape (http://www.inkscape.org/) -->

<svg
   xmlns:dc="http://purl.org/dc/elements/1.1/"
   xmlns:cc="http://creativecommons.org/ns#"
   xmlns:rdf="http://www.w3.org/1999/02/22-rdf-syntax-ns#"
   xmlns:svg="http://www.w3.org/2000/svg"
   xmlns="http://www.w3.org/2000/svg"
   xmlns:sodipodi="http://sodipodi.sourceforge.net/DTD/sodipodi-0.dtd"
   xmlns:inkscape="http://www.inkscape.org/namespaces/inkscape"
   width="386.80804"
   height="671.92206"
   id="svg7305"
   version="1.1"
   inkscape:version="0.48.3.1 r9886"
   sodipodi:docname="mago.svg">
  <defs
     id="defs7307">
    <inkscape:perspective
       sodipodi:type="inkscape:persp3d"
       inkscape:vp_x="0 : 240 : 1"
       inkscape:vp_y="0 : 1000 : 0"
       inkscape:vp_z="640 : 240 : 1"
       inkscape:persp3d-origin="320 : 160 : 1"
       id="perspective7313" />
    <inkscape:perspective
       id="perspective7230"
       inkscape:persp3d-origin="0.5 : 0.33333333 : 1"
       inkscape:vp_z="1 : 0.5 : 1"
       inkscape:vp_y="0 : 1000 : 0"
       inkscape:vp_x="0 : 0.5 : 1"
       sodipodi:type="inkscape:persp3d" />
    <inkscape:perspective
       id="perspective7570"
       inkscape:persp3d-origin="0.5 : 0.33333333 : 1"
       inkscape:vp_z="1 : 0.5 : 1"
       inkscape:vp_y="0 : 1000 : 0"
       inkscape:vp_x="0 : 0.5 : 1"
       sodipodi:type="inkscape:persp3d" />
    <inkscape:perspective
       id="perspective8532"
       inkscape:persp3d-origin="0.5 : 0.33333333 : 1"
       inkscape:vp_z="1 : 0.5 : 1"
       inkscape:vp_y="0 : 1000 : 0"
       inkscape:vp_x="0 : 0.5 : 1"
       sodipodi:type="inkscape:persp3d" />
    <inkscape:perspective
       id="perspective8792"
       inkscape:persp3d-origin="0.5 : 0.33333333 : 1"
       inkscape:vp_z="1 : 0.5 : 1"
       inkscape:vp_y="0 : 1000 : 0"
       inkscape:vp_x="0 : 0.5 : 1"
       sodipodi:type="inkscape:persp3d" />
    <inkscape:perspective
       id="perspective18448"
       inkscape:persp3d-origin="0.5 : 0.33333333 : 1"
       inkscape:vp_z="1 : 0.5 : 1"
       inkscape:vp_y="0 : 1000 : 0"
       inkscape:vp_x="0 : 0.5 : 1"
       sodipodi:type="inkscape:persp3d" />
    <inkscape:perspective
       id="perspective9217"
       inkscape:persp3d-origin="0.5 : 0.33333333 : 1"
       inkscape:vp_z="1 : 0.5 : 1"
       inkscape:vp_y="0 : 1000 : 0"
       inkscape:vp_x="0 : 0.5 : 1"
       sodipodi:type="inkscape:persp3d" />
  </defs>
  <sodipodi:namedview
     id="base"
     pagecolor="#ffffff"
     bordercolor="#666666"
     borderopacity="1.0"
     inkscape:pageopacity="0.0"
     inkscape:pageshadow="2"
     inkscape:zoom="0.38736264"
     inkscape:cx="-146.10655"
     inkscape:cy="263.43069"
     inkscape:current-layer="g9129"
     inkscape:document-units="px"
     showgrid="false"
     inkscape:window-width="1022"
     inkscape:window-height="623"
     inkscape:window-x="0"
     inkscape:window-y="48"
     inkscape:window-maximized="0"
     fit-margin-top="0"
     fit-margin-left="0"
     fit-margin-right="0"
     fit-margin-bottom="0" />
  <metadata
     id="metadata7310">
    <rdf:RDF>
      <cc:Work
         rdf:about="">
        <dc:format>image/svg+xml</dc:format>
        <dc:type
           rdf:resource="http://purl.org/dc/dcmitype/StillImage" />
        <dc:title></dc:title>
      </cc:Work>
    </rdf:RDF>
  </metadata>
  <g
     id="layer1"
     inkscape:label="Layer 1"
     inkscape:groupmode="layer"
     transform="translate(-51.84421,257.69695)">
    <g
       transform="matrix(4,0,0,4,759.39677,-7301.2699)"
       id="g9129">
      <path
         transform="matrix(0.3025508,0,0,-0.32357084,-79.474723,2220.1724)"
         d="m -167.3792,1418.235 -48.73892,-88.3679 -50.78161,-87.2101 100.89833,1.9748 100.916975,-0.3731 -52.159415,86.3931 z"
         inkscape:randomized="0"
         inkscape:rounded="0"
         inkscape:flatsided="false"
         sodipodi:arg2="2.6259302"
         sodipodi:arg1="1.5787327"
         sodipodi:r2="57.086895"
         sodipodi:r1="116.52179"
         sodipodi:cy="1301.7169"
         sodipodi:cx="-166.45445"
         sodipodi:sides="3"
         id="path8282"
         style="color:#000000;fill:#000080;fill-opacity:1;fill-rule:nonzero;stroke:#000000;stroke-width:2.42683339px;stroke-linecap:butt;stroke-linejoin:miter;stroke-miterlimit:4;stroke-opacity:1;stroke-dasharray:none;stroke-dashoffset:0;marker:none;visibility:visible;display:inline;overflow:visible;enable-background:accumulate"
         sodipodi:type="star" />
      <path
         sodipodi:nodetypes="cccccccccc"
         id="path7991-1-8"
         d="m -197.80319,1542.5002 -7.07229,-3.6521 -5.26998,2.9724 0.7502,-6.5895 0.62767,-6.7553 3.5255,-7.3555 3.57495,7.1116 7.91124,0.876 -5.65881,5.5976 1.61152,7.7948 z"
         style="color:#000000;fill:#808000;fill-opacity:1;fill-rule:nonzero;stroke:none;stroke-width:0.91235238px;marker:none;visibility:visible;display:inline;overflow:visible;enable-background:accumulate"
         transform="matrix(-1.410276,0.58204096,0.58204096,1.410276,-1306.011,-256.97673)"
         inkscape:connector-curvature="0" />
      <path
         sodipodi:nodetypes="cccc"
         id="path8537-7-5"
         d="m -131.8003,1761.0023 26.54763,49.1912 -26.02435,-10.2728 -0.52328,-38.9184 z"
         style="opacity:0.16738197;fill:#000000;stroke:none"
         inkscape:connector-curvature="0" />
      <path
         sodipodi:nodetypes="cccccccccc"
         id="path7991-4"
         d="m -197.80319,1542.5002 -7.07229,-3.6521 -6.91526,3.9413 1.28789,-7.8547 0.67681,-6.4701 4.58395,-7.3444 3.57495,7.1116 7.91124,0.876 -5.65881,5.5976 1.61152,7.7948 z"
         style="color:#000000;fill:#808000;fill-opacity:1;fill-rule:nonzero;stroke:none;stroke-width:0.91235238px;marker:none;visibility:visible;display:inline;overflow:visible;enable-background:accumulate"
         transform="matrix(0.51616726,0.21302956,-0.21302956,0.51616726,287.14451,1049.9683)"
         inkscape:connector-curvature="0" />
      <path
         sodipodi:nodetypes="cccc"
         id="path8537-7"
         d="m -130.45203,1764.7013 -26.54763,49.1912 26.02435,-10.2728 0.52328,-38.9184 z"
         style="opacity:0.16738197;fill:#ffffff;stroke:none"
         inkscape:connector-curvature="0" />
      <path
         transform="translate(0,308.2677)"
         id="path8537"
         d="m -130.45203,1457.8207 -16.83779,40.8685 13.0779,-3.106 3.75989,-37.7625 z"
         style="opacity:0.16738197;fill:#ffffff;stroke:none"
         inkscape:connector-curvature="0" />
      <path
         transform="matrix(0.93181818,0,0,1.242236,-5.4959398,-62.94338)"
         d="m -97.560814,1521.46 c 0,10.2783 -15.939896,18.6105 -35.602756,18.6105 -19.66287,0 -35.60276,-8.3322 -35.60276,-18.6105 0,-10.2784 15.93989,-18.6106 35.60276,-18.6106 19.66286,0 35.602756,8.3322 35.602756,18.6106 z"
         sodipodi:ry="18.610533"
         sodipodi:rx="35.60276"
         sodipodi:cy="1521.46"
         sodipodi:cx="-133.16357"
         id="path8259"
         style="color:#000000;fill:#000080;fill-opacity:1;fill-rule:nonzero;stroke:#000000;stroke-width:0.73419702px;stroke-linecap:butt;stroke-linejoin:miter;stroke-miterlimit:4;stroke-opacity:1;stroke-dasharray:none;stroke-dashoffset:0;marker:none;visibility:visible;display:inline;overflow:visible;enable-background:accumulate"
         sodipodi:type="arc" />
      <g
         id="g5353-2-9-3-4"
         transform="translate(-960.62436,99.54513)">
        <path
           sodipodi:type="arc"
           style="color:#000000;fill:#000080;fill-opacity:1;fill-rule:nonzero;stroke:#000000;stroke-width:0.5521636px;stroke-linecap:butt;stroke-linejoin:miter;stroke-miterlimit:4;stroke-opacity:1;stroke-dasharray:none;stroke-dashoffset:0;marker:none;visibility:visible;display:inline;overflow:visible;enable-background:accumulate"
           id="path6017-7-5-3-1-0-8-7-4-1-8"
           sodipodi:cx="266.68027"
           sodipodi:cy="450.3295"
           sodipodi:rx="7.8286824"
           sodipodi:ry="8.6494312"
           d="m 274.50895,450.3295 c 0,4.77695 -3.50502,8.64943 -7.82868,8.64943 -4.32366,0 -7.82869,-3.87248 -7.82869,-8.64943 0,-4.77695 3.50503,-8.64943 7.82869,-8.64943 4.32366,0 7.82868,3.87248 7.82868,8.64943 z"
           transform="matrix(-1.4540078,0.15094832,0.29675927,2.224977,1100.4274,766.35756)" />
        <path
           sodipodi:type="arc"
           style="color:#000000;fill:#000080;fill-opacity:1;fill-rule:nonzero;stroke:#000000;stroke-width:0.5521636px;stroke-linecap:butt;stroke-linejoin:miter;stroke-miterlimit:4;stroke-opacity:1;stroke-dasharray:none;stroke-dashoffset:0;marker:none;visibility:visible;display:inline;overflow:visible;enable-background:accumulate"
           id="path6017-6-6-5-9-9-2-8-1-7"
           sodipodi:cx="266.68027"
           sodipodi:cy="450.3295"
           sodipodi:rx="7.8286824"
           sodipodi:ry="8.6494312"
           d="m 274.50895,450.3295 c 0,4.77695 -3.50502,8.64943 -7.82868,8.64943 -4.32366,0 -7.82869,-3.87248 -7.82869,-8.64943 0,-4.77695 3.50503,-8.64943 7.82869,-8.64943 4.32366,0 7.82868,3.87248 7.82868,8.64943 z"
           transform="matrix(1.4540078,0.15094832,-0.29675927,2.224977,564.30127,767.31924)" />
        <path
           style="color:#000000;fill:#cccccc;fill-opacity:1;fill-rule:nonzero;stroke:#000000;stroke-width:1px;stroke-linecap:butt;stroke-linejoin:miter;stroke-miterlimit:4;stroke-opacity:1;stroke-dasharray:none;stroke-dashoffset:0;marker:none;visibility:visible;display:inline;overflow:visible;enable-background:accumulate"
           d="m 804.15249,1777.3392 c 19.20277,7.7947 37.23319,6.6803 54.53121,0 l 0,24.3791 c -21.49596,11.1976 -39.64414,8.5306 -54.53121,0 l 0,-24.3791 z"
           id="rect5545-7-1-48-4-4-2-1-0-1"
           sodipodi:nodetypes="ccccc"
           inkscape:connector-curvature="0" />
        <path
           style="color:#000000;fill:#cccccc;fill-opacity:1;fill-rule:nonzero;stroke:none;stroke-width:1px;marker:none;visibility:visible;display:inline;overflow:visible;enable-background:accumulate"
           d="m 807.09757,1776.7027 -0.64031,4.0702 c 16.52391,4.1611 34.6084,6.966 51.60133,-0.8329 -0.33099,-1.5445 -0.66198,-2.9326 -0.99297,-4.3119 l -49.96805,1.0746 z"
           id="path3059-3-0-7-6-2-3-7"
           sodipodi:nodetypes="ccccc"
           inkscape:connector-curvature="0" />
        <g
           id="g5345-1-9-4-2">
          <path
             sodipodi:nodetypes="cccc"
             id="path6197-8-2-6-8-5-2-0-3-0-7"
             d="m 851.49762,1826.3689 c 3.6698,-6.0601 5.12801,-19.3924 -5.57041,-20.7057 l 9.82257,-3.2109 c 3.56449,7.7256 5.45336,18.3625 -4.25216,23.9166 z"
             style="opacity:0.10280373;color:#000000;fill:#000000;fill-opacity:1;fill-rule:nonzero;stroke:none;stroke-width:1px;marker:none;visibility:visible;display:inline;overflow:visible;enable-background:accumulate"
             inkscape:connector-curvature="0" />
          <path
             sodipodi:nodetypes="ccccc"
             id="path6139-0-8-9-6-1-6-9-3-2"
             d="m 808.02524,1804.0691 c 7.57838,3.1434 14.95118,4.9505 22.05357,5 l -0.625,1.9643 c -7.96503,-0.1079 -15.47917,-1.3108 -21.78572,-5.4464 l 0.35715,-1.5179 z"
             style="opacity:0.21028035;color:#000000;fill:#000000;fill-opacity:1;fill-rule:nonzero;stroke:none;stroke-width:1px;marker:none;visibility:visible;display:inline;overflow:visible;enable-background:accumulate"
             inkscape:connector-curvature="0" />
          <path
             sodipodi:nodetypes="ccccc"
             id="path6139-9-4-9-6-9-3-1-0-9-2"
             d="m 856.46273,1803.1762 c -7.57838,3.1434 -14.95118,4.9505 -22.05357,5 l 0.625,1.9643 c 7.96503,-0.1079 15.47917,-1.3108 21.78572,-5.4464 l -0.35715,-1.5179 z"
             style="opacity:0.21028035;color:#000000;fill:#000000;fill-opacity:1;fill-rule:nonzero;stroke:none;stroke-width:1px;marker:none;visibility:visible;display:inline;overflow:visible;enable-background:accumulate"
             inkscape:connector-curvature="0" />
          <path
             sodipodi:nodetypes="cccc"
             id="path6197-17-7-2-2-3-5-8-1-6"
             d="m 814.54309,1828.4441 c 6.08859,-3.6223 13.64534,-14.7026 4.82143,-20.8929 l 10.17857,1.7857 c -0.4874,8.4943 -3.8227,18.7698 -15,19.1072 z"
             style="opacity:0.21028035;color:#000000;fill:#000000;fill-opacity:1;fill-rule:nonzero;stroke:none;stroke-width:1px;marker:none;visibility:visible;display:inline;overflow:visible;enable-background:accumulate"
             inkscape:connector-curvature="0" />
          <path
             sodipodi:nodetypes="cccc"
             id="path6197-1-9-3-1-2-3-9-8-9-1"
             d="m 849.90811,1827.8852 c -6.08859,-3.6223 -13.64534,-14.7026 -4.82143,-20.8929 l -10.17857,1.7857 c 0.4874,8.4943 3.8227,18.7698 15,19.1072 z"
             style="opacity:0.21028035;color:#000000;fill:#000000;fill-opacity:1;fill-rule:nonzero;stroke:none;stroke-width:1px;marker:none;visibility:visible;display:inline;overflow:visible;enable-background:accumulate"
             inkscape:connector-curvature="0" />
          <path
             sodipodi:nodetypes="cccc"
             id="path6197-8-5-3-6-7-4-8-4-5-6-0"
             d="m 814.83004,1828.4342 c -4.24833,-5.6695 -7.01141,-18.7936 3.50584,-21.1534 l -10.09085,-2.2286 c -1.0655,5.7793 -2.98708,17.9792 6.58501,23.382 z"
             style="opacity:0.16309013;color:#000000;fill:#ffffff;fill-opacity:1;fill-rule:nonzero;stroke:none;stroke-width:1px;marker:none;visibility:visible;display:inline;overflow:visible;enable-background:accumulate"
             inkscape:connector-curvature="0" />
        </g>
      </g>
      <path
         transform="matrix(0.87630366,0,0,1.1682278,-12.888455,49.657027)"
         d="m -97.560814,1521.46 c 0,10.2783 -15.939896,18.6105 -35.602756,18.6105 -19.66287,0 -35.60276,-8.3322 -35.60276,-18.6105 0,-10.2784 15.93989,-18.6106 35.60276,-18.6106 19.66286,0 35.602756,8.3322 35.602756,18.6106 z"
         sodipodi:ry="18.610533"
         sodipodi:rx="35.60276"
         sodipodi:cy="1521.46"
         sodipodi:cx="-133.16357"
         id="path8259-3"
         style="opacity:0.40772532;color:#000000;fill:#000000;fill-opacity:1;fill-rule:nonzero;stroke:none;stroke-width:0.73419702px;marker:none;visibility:visible;display:inline;overflow:visible;enable-background:accumulate"
         sodipodi:type="arc" />
      <path
         d="m 311.42858,356.41592 c 0,15.28646 -12.23222,27.67858 -27.32143,27.67858 -15.08921,0 -27.32143,-12.39212 -27.32143,-27.67858 0,-15.28645 12.23222,-27.67857 27.32143,-27.67857 15.08921,0 27.32143,12.39212 27.32143,27.67857 z"
         sodipodi:ry="27.678572"
         sodipodi:rx="27.321428"
         sodipodi:cy="356.41592"
         sodipodi:cx="284.10715"
         id="path5403-1-1-6-9-22-2-0-9-6"
         style="color:#000000;fill:#000080;fill-opacity:1;fill-rule:nonzero;stroke:#000000;stroke-width:1px;stroke-linecap:butt;stroke-linejoin:miter;stroke-miterlimit:4;stroke-opacity:1;stroke-dasharray:none;stroke-dashoffset:0;marker:none;visibility:visible;display:inline;overflow:visible;enable-background:accumulate"
         sodipodi:type="arc"
         transform="translate(-413.11379,1519.7819)" />
      <path
         sodipodi:nodetypes="ccccc"
         id="rect5545-7-1-48-8-3-9-3-1"
         d="m -156.40312,1877.2619 c 19.20277,7.7947 37.23319,6.6803 54.53121,0 l 0.69356,34.0889 c -21.49596,11.1976 -40.22211,7.8371 -55.10918,-0.6935 l -0.11559,-33.3954 z"
         style="color:#000000;fill:#000080;fill-opacity:1;fill-rule:nonzero;stroke:#000000;stroke-width:1px;stroke-linecap:butt;stroke-linejoin:miter;stroke-miterlimit:4;stroke-opacity:1;stroke-dasharray:none;stroke-dashoffset:0;marker:none;visibility:visible;display:inline;overflow:visible;enable-background:accumulate"
         inkscape:connector-curvature="0" />
      <path
         sodipodi:nodetypes="ccccc"
         id="path3059-3-9-7-6-38-5"
         d="m -151.49636,1876.6254 -0.64031,4.0702 c 16.52391,4.1611 34.6084,6.966 51.60133,-0.8329 -0.33099,-1.5445 -0.66198,-2.9326 -0.99297,-4.3119 l -49.96805,1.0746 z"
         style="color:#000000;fill:#000080;fill-opacity:1;fill-rule:nonzero;stroke:none;stroke-width:1px;marker:none;visibility:visible;display:inline;overflow:visible;enable-background:accumulate"
         inkscape:connector-curvature="0" />
      <path
         transform="matrix(-0.352569,0.14551024,0.14551024,0.352569,-437.63347,1356.4347)"
         d="m -197.80319,1542.5002 -7.07229,-3.6521 -6.91526,3.9413 1.28789,-7.8547 -5.88539,-5.3589 7.86826,-1.2023 3.27789,-7.2533 3.57495,7.1116 7.91124,0.876 -5.65881,5.5976 z"
         inkscape:randomized="0"
         inkscape:rounded="0"
         inkscape:flatsided="false"
         sodipodi:arg2="1.5501193"
         sodipodi:arg1="0.92180077"
         sodipodi:r2="5.8306255"
         sodipodi:r1="11.901066"
         sodipodi:cy="1533.0187"
         sodipodi:cx="-204.99603"
         sodipodi:sides="5"
         id="path7991-5"
         style="color:#000000;fill:#808000;fill-opacity:1;fill-rule:nonzero;stroke:none;stroke-width:0.91235238px;marker:none;visibility:visible;display:inline;overflow:visible;enable-background:accumulate"
         sodipodi:type="star" />
      <path
         transform="matrix(-0.55457807,0.06521811,0.06521811,0.55457807,-361.56601,1056.3283)"
         d="m -197.80319,1542.5002 -7.07229,-3.6521 -6.91526,3.9413 1.28789,-7.8547 -5.88539,-5.3589 7.86826,-1.2023 3.27789,-7.2533 3.57495,7.1116 7.91124,0.876 -5.65881,5.5976 z"
         inkscape:randomized="0"
         inkscape:rounded="0"
         inkscape:flatsided="false"
         sodipodi:arg2="1.5501193"
         sodipodi:arg1="0.92180077"
         sodipodi:r2="5.8306255"
         sodipodi:r1="11.901066"
         sodipodi:cy="1533.0187"
         sodipodi:cx="-204.99603"
         sodipodi:sides="5"
         id="path7991-1"
         style="color:#000000;fill:#808000;fill-opacity:1;fill-rule:nonzero;stroke:none;stroke-width:0.91235238px;marker:none;visibility:visible;display:inline;overflow:visible;enable-background:accumulate"
         sodipodi:type="star" />
      <path
         sodipodi:nodetypes="cccccc"
         id="path7991-7-8"
         d="m -141.33437,1911.9409 2.71644,-5.7586 -6.18492,1.5122 -4.63728,-4.363 -0.47315,6.3494 8.57891,2.26 z"
         style="color:#000000;fill:#808000;fill-opacity:1;fill-rule:nonzero;stroke:none;stroke-width:0.91235238px;marker:none;visibility:visible;display:inline;overflow:visible;enable-background:accumulate"
         inkscape:connector-curvature="0" />
      <path
         sodipodi:nodetypes="ccccccc"
         id="path5951-5-5-3-3-9-3-0-9"
         d="m -137.35968,1853.8137 c -10.77668,15.1409 -13.63194,51.2053 -6.92108,62.112 l -12.51939,-4.8659 1.14478,-20.3716 c 1.77898,-12.3923 3.70393,-24.7221 8.75,-35.7143 l 4.2731,-2.8013 5.27259,1.6411 z"
         style="opacity:0.21028035;fill:#000000;stroke:none"
         inkscape:connector-curvature="0" />
      <path
         sodipodi:nodetypes="cccccccccccc"
         id="path7991-7"
         d="m -121.57425,1917.0997 -1.94602,-2.2978 -8.55282,1.0887 4.53543,-7.3326 -3.6784,-7.7978 8.37518,2.0476 6.27946,-5.908 0.64071,8.598 7.55937,4.1464 -7.97922,3.2663 -0.64645,3.4063 -4.58724,0.7829 z"
         style="color:#000000;fill:#808000;fill-opacity:1;fill-rule:nonzero;stroke:none;stroke-width:0.91235238px;marker:none;visibility:visible;display:inline;overflow:visible;enable-background:accumulate"
         inkscape:connector-curvature="0" />
      <path
         sodipodi:nodetypes="cccccc"
         id="path7991-7-8-8"
         d="m -102.0497,1899.686 -6.24315,1.2505 2.95645,-5.6391 -3.11852,-5.5511 6.27662,1.069 0.1286,8.8707 z"
         style="color:#000000;fill:#808000;fill-opacity:1;fill-rule:nonzero;stroke:none;stroke-width:0.91235238px;marker:none;visibility:visible;display:inline;overflow:visible;enable-background:accumulate"
         inkscape:connector-curvature="0" />
      <g
         transform="translate(-20.344434,-1.3871205)"
         id="g8463">
        <path
           transform="matrix(-0.28558156,0,0,0.28558156,7.893068,1792.8115)"
           sodipodi:type="arc"
           style="color:#000000;fill:#d3bc5f;fill-opacity:1;fill-rule:nonzero;stroke:#000000;stroke-width:2.76598692px;stroke-linecap:butt;stroke-linejoin:miter;stroke-miterlimit:4;stroke-opacity:1;stroke-dasharray:none;stroke-dashoffset:0;marker:none;visibility:visible;display:inline;overflow:visible;enable-background:accumulate"
           id="path5403-8-7-2-3-7-7-1-4-9-4"
           sodipodi:cx="284.10715"
           sodipodi:cy="356.41592"
           sodipodi:rx="27.321428"
           sodipodi:ry="27.678572"
           d="m 311.42858,356.41592 c 0,15.28646 -12.23222,27.67858 -27.32143,27.67858 -15.08921,0 -27.32143,-12.39212 -27.32143,-27.67858 0,-15.28645 12.23222,-27.67857 27.32143,-27.67857 15.08921,0 27.32143,12.39212 27.32143,27.67857 z" />
        <path
           style="opacity:0.3218884;color:#000000;fill:#000000;fill-opacity:1;fill-rule:nonzero;stroke:none;stroke-width:1px;marker:none;visibility:visible;display:inline;overflow:visible;enable-background:accumulate"
           d="m -65.928137,1893.2426 -7.70241,3.1567 c -1.74404,3.7911 0.85587,4.5159 4.79822,4.2931 -5.60241,3.2831 -8.76398,1.4134 -11.364208,-1.6415 -0.19995,-2.0948 -1.30989,-5.3096 0.50507,-4.9245 4.714048,1.9194 9.428088,-0.7095 14.142138,-2.2728 l -0.37881,1.389 z"
           id="path6893-1-9-3-4-6-5-0-7-8"
           sodipodi:nodetypes="ccccccc"
           inkscape:connector-curvature="0" />
        <path
           sodipodi:type="star"
           style="color:#000000;fill:#808000;fill-opacity:1;fill-rule:nonzero;stroke:none;stroke-width:0.91235238px;marker:none;visibility:visible;display:inline;overflow:visible;enable-background:accumulate"
           id="path7991-1-5-1"
           sodipodi:sides="5"
           sodipodi:cx="-204.99603"
           sodipodi:cy="1533.0187"
           sodipodi:r1="11.901066"
           sodipodi:r2="5.8306255"
           sodipodi:arg1="0.92180077"
           sodipodi:arg2="1.5501193"
           inkscape:flatsided="false"
           inkscape:rounded="0"
           inkscape:randomized="0"
           d="m -197.80319,1542.5002 -7.07229,-3.6521 -6.91526,3.9413 1.28789,-7.8547 -5.88539,-5.3589 7.86826,-1.2023 3.27789,-7.2533 3.57495,7.1116 7.91124,0.876 -5.65881,5.5976 z"
           transform="matrix(0.352569,0.14551024,-0.14551024,0.352569,215.19276,1368.829)" />
        <path
           style="color:#000000;fill:#000080;fill-opacity:1;fill-rule:nonzero;stroke:#000000;stroke-width:1px;stroke-linecap:butt;stroke-linejoin:miter;stroke-miterlimit:4;stroke-opacity:1;stroke-dasharray:none;stroke-dashoffset:0;marker:none;visibility:visible;display:inline;overflow:visible;enable-background:accumulate"
           d="m -89.467315,1857.5195 c 18.707028,7.4282 25.859648,29.7672 28.387648,40.2437 -4.04643,4.0742 -13.39015,-3.813 -19.816218,-3.8152 -1.40415,-12.1428 -2.96913,-24.2857 -8.57143,-36.4285 z"
           id="path5614-3-8-8-8-3-1-0-1-0"
           sodipodi:nodetypes="cccc"
           inkscape:connector-curvature="0" />
        <path
           style="opacity:0.16738197;color:#000000;fill:#ffffff;fill-opacity:1;fill-rule:nonzero;stroke:none;stroke-width:1px;marker:none;visibility:visible;display:inline;overflow:visible;enable-background:accumulate"
           d="m -87.661795,1858.4953 c 8.81685,11.0433 15.963888,24.0522 14.481978,36.7413 2.36053,-1.0675 3.36574,3.24 4.7479,2.0094 -2.10752,-11.3955 -5.99001,-30.596 -19.229878,-38.7507 z"
           id="path6260-6-1-8-3-2-8-6-1-3"
           sodipodi:nodetypes="cccc"
           inkscape:connector-curvature="0" />
        <path
           style="fill:#808000;stroke:#000000;stroke-width:1px;stroke-linecap:butt;stroke-linejoin:miter;stroke-opacity:1"
           d="m -81.102855,1894.1234 -0.32695,-4.2504 c 8.212438,-2.1469 12.002368,5.7015 19.289908,2.2886 l 1.798201,5.5582 c -5.306781,4.0865 -12.339111,-3.3513 -20.761159,-3.5964 z"
           id="path7989-0"
           sodipodi:nodetypes="ccccc"
           inkscape:connector-curvature="0" />
      </g>
      <path
         sodipodi:nodetypes="ccccccc"
         id="path5951-4-9-9-1-1-2-8-5-4"
         d="m -122.1997,1854.6866 c 10.77668,18.0023 17.4032,48.1956 10.69234,61.1634 l 9.84184,-5.1196 -0.597,-13.552 c 1.1697,-11.0617 -2.21568,-28.9289 -8.75,-42.4634 l -5.23071,-2.8645 -5.95647,2.8361 z"
         style="opacity:0.21028035;fill:#000000;stroke:none"
         inkscape:connector-curvature="0" />
      <path
         transform="matrix(1.0011314,0,0,0.85912343,-414.19111,1524.8774)"
         d="m 311.42858,356.41592 c 0,15.28646 -12.23222,27.67858 -27.32143,27.67858 -15.08921,0 -27.32143,-12.39212 -27.32143,-27.67858 0,-15.28645 12.23222,-27.67857 27.32143,-27.67857 15.08921,0 27.32143,12.39212 27.32143,27.67857 z"
         sodipodi:ry="27.678572"
         sodipodi:rx="27.321428"
         sodipodi:cy="356.41592"
         sodipodi:cx="284.10715"
         id="path5403-5-2-3-2-8-5-6-9"
         style="color:#000000;fill:#d3bc5f;fill-opacity:1;fill-rule:nonzero;stroke:#000000;stroke-width:0.85173982px;stroke-linecap:butt;stroke-linejoin:miter;stroke-miterlimit:4;stroke-opacity:1;stroke-dasharray:none;stroke-dashoffset:0;marker:none;visibility:visible;display:inline;overflow:visible;enable-background:accumulate"
         sodipodi:type="arc" />
      <path
         sodipodi:nodetypes="cccc"
         id="path4675-4-4-9-6-6-0"
         d="m -130.33304,1807.8732 c 37.7238,34.6194 4.44562,53.3865 -18.21428,38.5889 14.4032,16.1605 36.99689,7.4934 44.07651,-9.0944 9.72905,-18.6259 -11.02126,-31.0738 -25.86223,-29.4945 z"
         style="opacity:0.3218884;color:#000000;fill:#000000;fill-opacity:1;fill-rule:nonzero;stroke:none;stroke-width:1px;marker:none;visibility:visible;display:inline;overflow:visible;enable-background:accumulate"
         inkscape:connector-curvature="0" />
      <path
         d="m 311.42858,356.41592 c 0,15.28646 -12.23222,27.67858 -27.32143,27.67858 -15.08921,0 -27.32143,-12.39212 -27.32143,-27.67858 0,-15.28645 12.23222,-27.67857 27.32143,-27.67857 15.08921,0 27.32143,12.39212 27.32143,27.67857 z"
         sodipodi:ry="27.678572"
         sodipodi:rx="27.321428"
         sodipodi:cy="356.41592"
         sodipodi:cx="284.10715"
         id="path5403-8-7-2-3-7-7-1-4-9"
         style="color:#000000;fill:#d3bc5f;fill-opacity:1;fill-rule:nonzero;stroke:#000000;stroke-width:2.76598692px;stroke-linecap:butt;stroke-linejoin:miter;stroke-miterlimit:4;stroke-opacity:1;stroke-dasharray:none;stroke-dashoffset:0;marker:none;visibility:visible;display:inline;overflow:visible;enable-background:accumulate"
         sodipodi:type="arc"
         transform="matrix(0.28558156,0,0,0.28558156,-244.62291,1790.9783)" />
      <path
         sodipodi:nodetypes="ccccccc"
         id="path6893-1-9-3-4-6-5-0-7"
         d="m -170.8017,1891.4094 7.70241,3.1567 c 1.74404,3.7911 -0.85587,4.5159 -4.79822,4.2931 5.60241,3.2831 8.76398,1.4134 11.36421,-1.6415 0.19995,-2.0948 1.30989,-5.3096 -0.50507,-4.9245 -4.71405,1.9194 -9.42809,-0.7095 -14.14214,-2.2728 l 0.37881,1.389 z"
         style="opacity:0.3218884;color:#000000;fill:#000000;fill-opacity:1;fill-rule:nonzero;stroke:none;stroke-width:1px;marker:none;visibility:visible;display:inline;overflow:visible;enable-background:accumulate"
         inkscape:connector-curvature="0" />
      <path
         transform="matrix(-0.352569,0.14551024,0.14551024,0.352569,-447.99925,1366.9958)"
         d="m -197.80319,1542.5002 -7.07229,-3.6521 -6.91526,3.9413 1.28789,-7.8547 -5.88539,-5.3589 7.86826,-1.2023 3.27789,-7.2533 3.57495,7.1116 7.91124,0.876 -5.65881,5.5976 z"
         inkscape:randomized="0"
         inkscape:rounded="0"
         inkscape:flatsided="false"
         sodipodi:arg2="1.5501193"
         sodipodi:arg1="0.92180077"
         sodipodi:r2="5.8306255"
         sodipodi:r1="11.901066"
         sodipodi:cy="1533.0187"
         sodipodi:cx="-204.99603"
         sodipodi:sides="5"
         id="path7991-1-5"
         style="color:#000000;fill:#808000;fill-opacity:1;fill-rule:nonzero;stroke:none;stroke-width:0.91235238px;marker:none;visibility:visible;display:inline;overflow:visible;enable-background:accumulate"
         sodipodi:type="star" />
      <path
         sodipodi:nodetypes="cccc"
         id="path5614-3-8-8-8-3-1-0-1"
         d="m -147.26252,1855.6863 c -18.70703,7.4282 -25.85965,29.7672 -28.38765,40.2437 4.04643,4.0742 13.39015,-3.813 19.81622,-3.8152 1.40415,-12.1428 2.96913,-24.2857 8.57143,-36.4285 z"
         style="color:#000000;fill:#000080;fill-opacity:1;fill-rule:nonzero;stroke:#000000;stroke-width:1px;stroke-linecap:butt;stroke-linejoin:miter;stroke-miterlimit:4;stroke-opacity:1;stroke-dasharray:none;stroke-dashoffset:0;marker:none;visibility:visible;display:inline;overflow:visible;enable-background:accumulate"
         inkscape:connector-curvature="0" />
      <path
         transform="matrix(-0.48512293,-0.27652483,-0.27652483,0.48512293,163.9217,1078.709)"
         d="m -197.80319,1542.5002 -7.07229,-3.6521 -6.91526,3.9413 1.28789,-7.8547 -5.88539,-5.3589 7.86826,-1.2023 3.27789,-7.2533 3.57495,7.1116 7.91124,0.876 -5.65881,5.5976 z"
         inkscape:randomized="0"
         inkscape:rounded="0"
         inkscape:flatsided="false"
         sodipodi:arg2="1.5501193"
         sodipodi:arg1="0.92180077"
         sodipodi:r2="5.8306255"
         sodipodi:r1="11.901066"
         sodipodi:cy="1533.0187"
         sodipodi:cx="-204.99603"
         sodipodi:sides="5"
         id="path7991-1-9"
         style="color:#000000;fill:#808000;fill-opacity:1;fill-rule:nonzero;stroke:none;stroke-width:0.91235238px;marker:none;visibility:visible;display:inline;overflow:visible;enable-background:accumulate"
         sodipodi:type="star" />
      <path
         sodipodi:nodetypes="cccc"
         id="path6260-6-1-8-3-2-8-6-1"
         d="m -149.06804,1856.6621 c -8.81685,11.0433 -15.96389,24.0522 -14.48198,36.7413 -2.36053,-1.0675 -3.36574,3.24 -4.7479,2.0094 2.10752,-11.3955 5.99001,-30.596 19.22988,-38.7507 z"
         style="opacity:0.16738197;color:#000000;fill:#ffffff;fill-opacity:1;fill-rule:nonzero;stroke:none;stroke-width:1px;marker:none;visibility:visible;display:inline;overflow:visible;enable-background:accumulate"
         inkscape:connector-curvature="0" />
      <path
         transform="matrix(0.352569,0.14551024,-0.14551024,0.352569,164.71411,1378.3975)"
         d="m -197.80319,1542.5002 -7.07229,-3.6521 -6.91526,3.9413 1.28789,-7.8547 -5.88539,-5.3589 7.86826,-1.2023 3.27789,-7.2533 3.57495,7.1116 7.91124,0.876 -5.65881,5.5976 z"
         inkscape:randomized="0"
         inkscape:rounded="0"
         inkscape:flatsided="false"
         sodipodi:arg2="1.5501193"
         sodipodi:arg1="0.92180077"
         sodipodi:r2="5.8306255"
         sodipodi:r1="11.901066"
         sodipodi:cy="1533.0187"
         sodipodi:cx="-204.99603"
         sodipodi:sides="5"
         id="path7991-9"
         style="color:#000000;fill:#808000;fill-opacity:1;fill-rule:nonzero;stroke:none;stroke-width:0.91235238px;marker:none;visibility:visible;display:inline;overflow:visible;enable-background:accumulate"
         sodipodi:type="star" />
      <path
         sodipodi:nodetypes="cccccc"
         id="path5975-5-7-7-47-4-4-7-3"
         d="m -116.13656,1915.5181 c -3.30753,-0.051 3.92418,0.8348 -12.28836,1.5611 -0.51085,0.028 -1.31549,0.3043 -0.81935,0.1362 -12.13638,1.667 -10.18912,-1.5439 -11.78469,-0.7554 -4.49106,-15.5984 3.51221,-56.9193 11.41741,-62.142 11.02391,15.1026 13.98574,34.1625 13.47499,61.2001 z"
         style="opacity:0.16309013;color:#000000;fill:#ffffff;fill-opacity:1;fill-rule:nonzero;stroke:none;stroke-width:1px;marker:none;visibility:visible;display:inline;overflow:visible;enable-background:accumulate"
         inkscape:connector-curvature="0" />
      <path
         sodipodi:nodetypes="ccccc"
         transform="translate(0,308.2677)"
         id="path7989"
         d="m -155.62698,1584.0225 0.32695,-4.2504 c -8.21244,-2.1469 -12.00237,5.7015 -19.28991,2.2886 l -1.7982,5.5582 c 5.30678,4.0865 12.33911,-3.3513 20.76116,-3.5964 z"
         style="fill:#808000;stroke:#000000;stroke-width:1px;stroke-linecap:butt;stroke-linejoin:miter;stroke-opacity:1"
         inkscape:connector-curvature="0" />
      <path
         sodipodi:nodetypes="cccc"
         id="path8195-5-6"
         d="m -148.14149,1869.8568 14.87129,-17.5053 -15.36942,16.3585 0.49813,1.1468 z"
         style="fill:#000000;stroke:none"
         inkscape:connector-curvature="0" />
      <path
         sodipodi:nodetypes="cccccccccccc"
         id="path7991-7-5"
         d="m -94.714411,1868.2956 -0.372187,0.9436 1.685018,2.365 -2.898461,-0.1785 -1.728775,2.3335 -0.725793,-2.812 -2.753441,-0.9228 2.449887,-1.5594 0.02708,-2.9038 2.239965,1.8482 1.113972,-0.3505 0.962734,1.2367 z"
         style="color:#000000;fill:#808000;fill-opacity:1;fill-rule:nonzero;stroke:none;stroke-width:0.91235238px;marker:none;visibility:visible;display:inline;overflow:visible;enable-background:accumulate"
         inkscape:connector-curvature="0" />
      <path
         sodipodi:nodetypes="cccccccccccccc"
         id="path8117"
         d="m -129.153,1888.7946 -13.72513,-8.0226 2.3809,-4.7483 -20.84501,-9.0823 18.46411,-23.9909 2.80106,-1.4734 -0.14006,9.3325 21.98821,0.1637 -0.27341,-9.2844 2.6543,1.5891 20.089118,23.1048 -22.329958,8.986 2.24084,5.5668 -13.30497,7.859 z"
         style="color:#000000;fill:#b3b3b3;fill-opacity:1;fill-rule:nonzero;stroke:#000000;stroke-width:0.9263168px;stroke-linecap:butt;stroke-linejoin:miter;stroke-miterlimit:4;stroke-opacity:1;stroke-dasharray:none;stroke-dashoffset:0;marker:none;visibility:visible;display:inline;overflow:visible;enable-background:accumulate"
         inkscape:connector-curvature="0" />
      <path
         sodipodi:nodetypes="cccccccccc"
         id="path8117-4"
         d="m -129.13557,1885.8522 -12.01816,-7.0248 2.08477,-4.1579 -18.6787,-8.6999 16.59393,-20.26 2.45269,-1.2901 -0.12265,8.1718 9.82373,-0.048 -0.13561,33.3085 0,4e-4 z"
         style="opacity:0.3476395;color:#000000;fill:#ffffff;fill-opacity:1;fill-rule:nonzero;stroke:none;stroke-width:0.81111234px;marker:none;visibility:visible;display:inline;overflow:visible;enable-background:accumulate"
         inkscape:connector-curvature="0" />
      <path
         sodipodi:nodetypes="cccccccccc"
         id="path8117-4-4"
         d="m -129.10914,1885.8522 12.01816,-7.0248 -2.08477,-4.1579 20.47691,-9.3538 -18.39214,-19.6061 -2.45269,-1.2901 0.12265,8.1718 -9.70814,0.2992 0.02,32.9617 2e-5,0 z"
         style="opacity:0.3476395;color:#000000;fill:#000000;fill-opacity:1;fill-rule:nonzero;stroke:none;stroke-width:0.81111234px;marker:none;visibility:visible;display:inline;overflow:visible;enable-background:accumulate"
         inkscape:connector-curvature="0" />
      <path
         transform="matrix(-0.352569,0.14551024,0.14551024,0.352569,-405.11782,1370.2359)"
         d="m -197.80319,1542.5002 -7.07229,-3.6521 -6.91526,3.9413 1.28789,-7.8547 -5.88539,-5.3589 7.86826,-1.2023 3.27789,-7.2533 3.57495,7.1116 7.91124,0.876 -5.65881,5.5976 z"
         inkscape:randomized="0"
         inkscape:rounded="0"
         inkscape:flatsided="false"
         sodipodi:arg2="1.5501193"
         sodipodi:arg1="0.92180077"
         sodipodi:r2="5.8306255"
         sodipodi:r1="11.901066"
         sodipodi:cy="1533.0187"
         sodipodi:cx="-204.99603"
         sodipodi:sides="5"
         id="path7991"
         style="color:#000000;fill:#808000;fill-opacity:1;fill-rule:nonzero;stroke:none;stroke-width:0.91235238px;marker:none;visibility:visible;display:inline;overflow:visible;enable-background:accumulate"
         sodipodi:type="star" />
      <path
         sodipodi:nodetypes="cccc"
         id="path8141-9"
         d="m -118.94669,1841.3007 10.17504,42.2667 -19.08445,-44.0347 8.90941,1.768 z"
         style="color:#000000;fill:#b3b3b3;fill-opacity:1;fill-rule:nonzero;stroke:#000000;stroke-width:1px;stroke-linecap:butt;stroke-linejoin:miter;stroke-miterlimit:4;stroke-opacity:1;stroke-dasharray:none;stroke-dashoffset:0;marker:none;visibility:visible;display:inline;overflow:visible;enable-background:accumulate"
         inkscape:connector-curvature="0" />
      <path
         sodipodi:nodetypes="cccc"
         id="path8141-9-0"
         d="m -139.3007,1841.0893 -10.17504,42.2667 19.57488,-43.8713 -9.39984,1.6046 z"
         style="color:#000000;fill:#b3b3b3;fill-opacity:1;fill-rule:nonzero;stroke:#000000;stroke-width:1px;stroke-linecap:butt;stroke-linejoin:miter;stroke-miterlimit:4;stroke-opacity:1;stroke-dasharray:none;stroke-dashoffset:0;marker:none;visibility:visible;display:inline;overflow:visible;enable-background:accumulate"
         inkscape:connector-curvature="0" />
      <path
         id="path8195"
         d="m -140.33377,1876.7741 4.16137,-10.0566 -4.73933,8.3227 0.57796,1.7339 z"
         style="fill:#000000;stroke:none"
         inkscape:connector-curvature="0" />
      <path
         id="path8195-8"
         d="m -117.15729,1878.797 -4.16137,-10.0566 4.73933,8.3227 -0.57796,1.7339 z"
         style="fill:#000000;stroke:none"
         inkscape:connector-curvature="0" />
      <path
         sodipodi:nodetypes="cccc"
         id="path8195-5"
         d="m -134.38071,1885.2702 3.00544,-22.7719 -4.04577,22.0783 1.04033,0.6936 z"
         style="fill:#000000;stroke:none"
         inkscape:connector-curvature="0" />
      <path
         sodipodi:nodetypes="cccc"
         id="path8195-5-0"
         d="m -123.05255,1885.617 -3.00544,-22.7719 4.04577,22.0783 -1.04033,0.6936 z"
         style="fill:#000000;stroke:none"
         inkscape:connector-curvature="0" />
      <path
         id="path8195-4"
         d="m -156.6683,1869.0736 7.50785,-7.8795 -5.68849,7.7053 -1.81936,0.1742 z"
         style="fill:#000000;stroke:none"
         inkscape:connector-curvature="0" />
      <path
         id="path8195-4-4"
         d="m -101.52315,1868.1124 -7.50785,-7.8795 5.68849,7.7053 1.81936,0.1742 z"
         style="fill:#000000;stroke:none"
         inkscape:connector-curvature="0" />
      <path
         sodipodi:nodetypes="cccc"
         id="path8561-1"
         d="m -116.31095,1805.7474 -6.88759,-20.7019 5.19719,19.9083 1.6904,0.7936 z"
         style="fill:#000000;stroke:none"
         inkscape:connector-curvature="0" />
      <path
         sodipodi:nodetypes="cccc"
         transform="translate(0,308.2677)"
         id="path8585"
         d="m -120.96847,1500.0752 4.64708,-2.2162 -1.78469,-0.5717 -2.86239,2.7879 z"
         style="color:#000000;fill:#000000;fill-opacity:1;fill-rule:nonzero;stroke:none;stroke-width:1px;marker:none;visibility:visible;display:inline;overflow:visible;enable-background:accumulate"
         inkscape:connector-curvature="0" />
      <path
         sodipodi:nodetypes="cccc"
         id="path8141-9-0-5"
         d="m -139.3007,1841.0893 -10.17504,42.2667 14.95114,-42.4842 -4.7761,0.2175 z"
         style="opacity:0.32618025;color:#000000;fill:#000000;fill-opacity:1;fill-rule:nonzero;stroke:none;stroke-width:1px;marker:none;visibility:visible;display:inline;overflow:visible;enable-background:accumulate"
         inkscape:connector-curvature="0" />
      <path
         sodipodi:nodetypes="cccc"
         id="path8141-9-0-5-9"
         d="m -119.26486,1840.4464 10.17504,42.2667 -14.95114,-42.4842 4.7761,0.2175 z"
         style="opacity:0.32618025;color:#000000;fill:#000000;fill-opacity:1;fill-rule:nonzero;stroke:none;stroke-width:1px;marker:none;visibility:visible;display:inline;overflow:visible;enable-background:accumulate"
         inkscape:connector-curvature="0" />
      <path
         sodipodi:nodetypes="cccc"
         transform="translate(0,308.2677)"
         id="path8908"
         d="m -163.21785,1586.0188 0.1734,-4.4504 0.23118,4.277 -0.40458,0.1734 z"
         style="color:#000000;fill:#000000;fill-opacity:1;fill-rule:nonzero;stroke:none;stroke-width:1px;marker:none;visibility:visible;display:inline;overflow:visible;enable-background:accumulate"
         inkscape:connector-curvature="0" />
      <path
         sodipodi:nodetypes="cccc"
         transform="translate(0,308.2677)"
         id="path8918"
         d="m -162.87107,1585.123 -0.11559,-3.3233 0.9103,3.1499 -0.79471,0.1734 z"
         style="opacity:0.40772532;fill:#f9f9f9;stroke:none"
         inkscape:connector-curvature="0" />
      <path
         sodipodi:nodetypes="ccccc"
         transform="translate(0,308.2677)"
         id="path8920"
         d="m -173.91023,1583.6492 -1.27153,3.8146 c 2.80523,1.3227 5.77309,-0.1193 8.7273,-1.3294 -2.4405,0.1467 -4.76272,0.8849 -7.34018,0.3468 l -0.11559,-2.832 z"
         style="opacity:0.40772532;color:#000000;fill:#f9f9f9;fill-opacity:1;fill-rule:nonzero;stroke:none;stroke-width:1px;marker:none;visibility:visible;display:inline;overflow:visible;enable-background:accumulate"
         inkscape:connector-curvature="0" />
      <path
         sodipodi:nodetypes="ccccc"
         id="path8920-8"
         d="m -82.939393,1892.2598 1.27153,3.8146 c -2.80523,1.3227 -5.77309,-0.1193 -8.7273,-1.3294 2.4405,0.1467 4.76272,0.8849 7.34018,0.3468 l 0.11559,-2.832 z"
         style="opacity:0.40772532;color:#000000;fill:#f9f9f9;fill-opacity:1;fill-rule:nonzero;stroke:none;stroke-width:1px;marker:none;visibility:visible;display:inline;overflow:visible;enable-background:accumulate"
         inkscape:connector-curvature="0" />
      <path
         sodipodi:nodetypes="ccccc"
         transform="translate(0,308.2677)"
         id="path8989"
         d="m -156.51343,1596.3644 c -1.31476,3.6264 -0.18664,4.9384 0.46238,6.7044 21.18906,11.3931 38.738,8.2256 55.02244,10e-5 1.340624,-2.1578 0.93486,-4.3155 0.11559,-6.4733 -17.69329,9.445 -36.06076,11.2492 -55.60041,-0.2312 z"
         style="color:#000000;fill:#808000;fill-opacity:1;fill-rule:nonzero;stroke:#000000;stroke-width:1px;stroke-linecap:butt;stroke-linejoin:miter;stroke-miterlimit:4;stroke-opacity:1;stroke-dasharray:none;stroke-dashoffset:0;marker:none;visibility:visible;display:inline;overflow:visible;enable-background:accumulate"
         inkscape:connector-curvature="0" />
      <path
         sodipodi:nodetypes="cccc"
         id="path8195-5-0-3"
         d="m -145.60148,1915.1891 3.00544,-22.7719 -3.4678,23.003 0.46236,-0.2311 z"
         style="fill:#000000;stroke:none"
         inkscape:connector-curvature="0" />
      <path
         sodipodi:nodetypes="cccc"
         id="path8195-5-0-3-8"
         d="m -110.56346,1915.3447 -1.9496,-14.7719 2.62445,14.3219 -0.67485,0.45 z"
         style="fill:#000000;stroke:none"
         inkscape:connector-curvature="0" />
      <path
         transform="translate(0,308.2677)"
         id="path9012"
         d="m -98.574653,1580.3443 -0.08174,2.6156 1.30779,-1.7982 1.062579,4.0051 -4.985946,-0.6539 -0.32695,-4.3321 3.024264,0.1635 z"
         style="opacity:0.21028035;color:#000000;fill:#000000;fill-opacity:1;fill-rule:nonzero;stroke:none;stroke-width:1px;marker:none;visibility:visible;display:inline;overflow:visible;enable-background:accumulate"
         inkscape:connector-curvature="0" />
      <path
         transform="translate(0,308.2677)"
         id="path9035"
         d="m -155.70428,1580.1236 -0.40457,3.5834 -2.42747,0.4045 -0.11559,-2.8898 -1.04034,2.832 -0.75136,-4.1613 3.81459,-0.3468 0.92474,0.578 z"
         style="opacity:0.21028035;color:#000000;fill:#000000;fill-opacity:1;fill-rule:nonzero;stroke:none;stroke-width:1px;marker:none;visibility:visible;display:inline;overflow:visible;enable-background:accumulate"
         inkscape:connector-curvature="0" />
      <path
         sodipodi:nodetypes="ccccc"
         id="path8989-3"
         d="m -156.28224,1906.7128 0.23119,4.6237 c 21.18906,11.3931 38.738,8.2256 55.02244,1e-4 l 0.34678,-4.3926 c -17.69329,9.445 -36.06076,11.2492 -55.60041,-0.2312 z"
         style="opacity:0.27467813;color:#000000;fill:#000000;fill-opacity:1;fill-rule:nonzero;stroke:#000000;stroke-width:1px;stroke-linecap:butt;stroke-linejoin:miter;stroke-miterlimit:4;stroke-opacity:1;stroke-dasharray:none;stroke-dashoffset:0;marker:none;visibility:visible;display:inline;overflow:visible;enable-background:accumulate"
         inkscape:connector-curvature="0" />
      <path
         sodipodi:nodetypes="ccc"
         transform="translate(0,308.2677)"
         id="path9075"
         d="m -156.93477,1526.1528 c -4.53611,-34.3834 57.506639,-38.0159 54.1098,-1.4713 -9.41392,-37.0639 -56.1684,-21.9077 -54.1098,1.4713 z"
         style="opacity:0.28755362;color:#000000;fill:#000000;fill-opacity:1;fill-rule:nonzero;stroke:none;stroke-width:1px;marker:none;visibility:visible;display:inline;overflow:visible;enable-background:accumulate"
         inkscape:connector-curvature="0" />
    </g>
  </g>
</svg>
