<?xml version="1.0" encoding="UTF-8" standalone="no"?>
<!-- Created with Inkscape (http://www.inkscape.org/) -->

<svg
   xmlns:dc="http://purl.org/dc/elements/1.1/"
   xmlns:cc="http://creativecommons.org/ns#"
   xmlns:rdf="http://www.w3.org/1999/02/22-rdf-syntax-ns#"
   xmlns:svg="http://www.w3.org/2000/svg"
   xmlns="http://www.w3.org/2000/svg"
   xmlns:xlink="http://www.w3.org/1999/xlink"
   xmlns:sodipodi="http://sodipodi.sourceforge.net/DTD/sodipodi-0.dtd"
   xmlns:inkscape="http://www.inkscape.org/namespaces/inkscape"
   width="328.97595"
   height="423.17938"
   id="svg3266"
   version="1.1"
   inkscape:version="0.48.3.1 r9886"
   sodipodi:docname="biberón.svg">
  <defs
     id="defs3268">
    <linearGradient
       inkscape:collect="always"
       xlink:href="#linearGradient6669"
       id="linearGradient6675"
       x1="-409.63589"
       y1="2405.2412"
       x2="207.06407"
       y2="2405.2412"
       gradientUnits="userSpaceOnUse" />
    <linearGradient
       inkscape:collect="always"
       id="linearGradient6669">
      <stop
         style="stop-color:#000000;stop-opacity:1;"
         offset="0"
         id="stop6671" />
      <stop
         style="stop-color:#000000;stop-opacity:0;"
         offset="1"
         id="stop6673" />
    </linearGradient>
    <linearGradient
       inkscape:collect="always"
       xlink:href="#linearGradient6669"
       id="linearGradient3288"
       x1="-409.63589"
       y1="2405.2412"
       x2="207.06407"
       y2="2405.2412"
       gradientUnits="userSpaceOnUse" />
    <linearGradient
       inkscape:collect="always"
       xlink:href="#linearGradient6669"
       id="linearGradient3296"
       x1="-409.63589"
       y1="2405.2412"
       x2="207.06407"
       y2="2405.2412"
       gradientUnits="userSpaceOnUse" />
    <linearGradient
       gradientUnits="userSpaceOnUse"
       xlink:href="#linearGradient5325-92-2-4"
       id="linearGradient6131-4-4"
       y2="746.78821"
       x2="-630.68909"
       y1="746.78821"
       x1="-654.87616" />
    <linearGradient
       id="linearGradient5325-92-2-4">
      <stop
         offset="0"
         style="stop-color:#000000;stop-opacity:1"
         id="stop5327-2-9-0" />
      <stop
         offset="1"
         style="stop-color:#000000;stop-opacity:0"
         id="stop5329-47-9-3" />
    </linearGradient>
    <linearGradient
       gradientTransform="translate(897.43131,-162.73819)"
       gradientUnits="userSpaceOnUse"
       xlink:href="#linearGradient5325-9-5-2-3"
       id="linearGradient6133-8-8"
       y2="746.78821"
       x2="-630.68909"
       y1="746.78821"
       x1="-654.87616" />
    <linearGradient
       id="linearGradient5325-9-5-2-3">
      <stop
         offset="0"
         style="stop-color:#000000;stop-opacity:1"
         id="stop5327-6-4-1-0" />
      <stop
         offset="1"
         style="stop-color:#000000;stop-opacity:0"
         id="stop5329-4-8-3-9" />
    </linearGradient>
    <filter
       color-interpolation-filters="sRGB"
       inkscape:collect="always"
       id="filter6585-8-9">
      <feGaussianBlur
         inkscape:collect="always"
         stdDeviation="2.0134725"
         id="feGaussianBlur6587-8-4" />
    </filter>
    <filter
       color-interpolation-filters="sRGB"
       inkscape:collect="always"
       id="filter6686-0-3"
       x="-0.14261886"
       width="1.2852377"
       y="-0.1093168"
       height="1.2186337">
      <feGaussianBlur
         inkscape:collect="always"
         stdDeviation="2.7933996"
         id="feGaussianBlur6688-8-8" />
    </filter>
    <filter
       color-interpolation-filters="sRGB"
       inkscape:collect="always"
       id="filter6748-2-2"
       x="-0.11093106"
       width="1.2218621"
       y="-0.077832296"
       height="1.1556646">
      <feGaussianBlur
         inkscape:collect="always"
         stdDeviation="2.0831602"
         id="feGaussianBlur6750-3-9" />
    </filter>
    <filter
       color-interpolation-filters="sRGB"
       inkscape:collect="always"
       id="filter6821-0-6"
       x="-0.11781558"
       width="1.2356312"
       y="-0.090305179"
       height="1.1806104">
      <feGaussianBlur
         inkscape:collect="always"
         stdDeviation="2.307591"
         id="feGaussianBlur6823-5-4" />
    </filter>
    <inkscape:path-effect
       effect="spiro"
       id="path-effect7421-0-04"
       is_visible="true" />
    <inkscape:path-effect
       effect="spiro"
       id="path-effect7421-3-4-10"
       is_visible="true" />
    <inkscape:path-effect
       effect="spiro"
       id="path-effect7421-3-0-8-8"
       is_visible="true" />
    <inkscape:path-effect
       effect="spiro"
       id="path-effect7421-3-3-4-06"
       is_visible="true" />
  </defs>
  <sodipodi:namedview
     id="base"
     pagecolor="#ffffff"
     bordercolor="#666666"
     borderopacity="1.0"
     inkscape:pageopacity="0.0"
     inkscape:pageshadow="2"
     inkscape:zoom="0.35"
     inkscape:cx="164.24562"
     inkscape:cy="211.59597"
     inkscape:document-units="px"
     inkscape:current-layer="layer1"
     showgrid="false"
     fit-margin-top="0"
     fit-margin-left="0"
     fit-margin-right="0"
     fit-margin-bottom="0"
     inkscape:window-width="597"
     inkscape:window-height="586"
     inkscape:window-x="65"
     inkscape:window-y="24"
     inkscape:window-maximized="0" />
  <metadata
     id="metadata3271">
    <rdf:RDF>
      <cc:Work
         rdf:about="">
        <dc:format>image/svg+xml</dc:format>
        <dc:type
           rdf:resource="http://purl.org/dc/dcmitype/StillImage" />
        <dc:title></dc:title>
      </cc:Work>
    </rdf:RDF>
  </metadata>
  <g
     inkscape:label="Capa 1"
     inkscape:groupmode="layer"
     id="layer1"
     transform="translate(-185.75438,-320.77876)">
    <g
       transform="translate(-152.87002,288.10668)"
       id="layer1-9"
       inkscape:label="Capa 1">
      <g
         transform="translate(206.15942,-101.75712)"
         id="layer1-5"
         inkscape:label="Layer 1">
        <g
           id="g3153"
           transform="matrix(1.1823924,0,0,1.1823924,-34.247148,-69.395081)">
          <g
             inkscape:label="Capa 1"
             id="layer1-56"
             transform="matrix(0.84574292,0,0,0.84574292,160.13709,25.435109)">
            <g
               id="g6469">
              <g
                 id="g8826-6-1-5-6"
                 transform="matrix(0.3262862,0,0,0.3262862,-898.60116,-43.73356)">
                <path
                   style="color:#000000;fill:#ffffff;fill-opacity:1;fill-rule:nonzero;stroke:#000000;stroke-width:8.75935173;stroke-linecap:butt;stroke-linejoin:miter;stroke-miterlimit:4;stroke-opacity:1;stroke-dasharray:none;stroke-dashoffset:0;marker:none;visibility:visible;display:inline;overflow:visible;enable-background:accumulate"
                   d="m 3644.5132,1736.4866 -588.919,87.1795 c -35.8218,61.4757 -25.773,126.544 -6.0609,135.3604 179.0199,-17.266 369.4644,-54.1171 561.6449,-93.9442 6.6656,-3.3671 6.9039,-6.7343 5.0507,-10.1015 l -20.6109,-17.1621 c -0.4187,-26.0653 1.9305,-57.6638 18.5906,-81.8328 l 37.3757,-7.0711 c 3.0476,-6.1081 0.3553,-10.1289 -7.0711,-12.4282 z"
                   id="path6452-7-1-8-9-2"
                   sodipodi:nodetypes="ccccccccc"
                   inkscape:connector-curvature="0" />
                <path
                   style="color:#000000;fill:#008066;fill-opacity:1;fill-rule:nonzero;stroke:#000000;stroke-width:8.75935173;stroke-linecap:butt;stroke-linejoin:miter;stroke-miterlimit:4;stroke-opacity:1;stroke-dasharray:none;stroke-dashoffset:0;marker:none;visibility:visible;display:inline;overflow:visible;enable-background:accumulate"
                   d="m 3651.721,1742.0549 -342.8572,-370 -388.5714,77.1428 c 34.6173,172.4774 71.0985,330.855 117.1429,495.7143"
                   id="path8621-2-2-7-7-6"
                   sodipodi:nodetypes="cccc"
                   inkscape:connector-curvature="0" />
                <path
                   style="color:#000000;fill:#000000;fill-opacity:1;fill-rule:nonzero;stroke:#000000;stroke-width:1;stroke-linecap:butt;stroke-linejoin:miter;stroke-miterlimit:4;stroke-opacity:1;stroke-dasharray:none;stroke-dashoffset:0;marker:none;visibility:visible;display:inline;overflow:visible;enable-background:accumulate"
                   d="m 3050.7143,1958.7908 c -20.9909,-12.0954 -17.7543,-84.7999 9.0616,-130.2303 l 590.0625,-85.8691 -587.4146,87.2977 c -16.7776,26.3578 -32.4112,89.9422 -11.7095,128.8017 z"
                   id="path8796-9-9-7-1"
                   sodipodi:nodetypes="ccccc"
                   inkscape:connector-curvature="0" />
                <path
                   style="color:#000000;fill:#ffffff;fill-opacity:1;fill-rule:nonzero;stroke:#000000;stroke-width:8.75935173;stroke-linecap:butt;stroke-linejoin:miter;stroke-miterlimit:4;stroke-opacity:1;stroke-dasharray:none;stroke-dashoffset:0;marker:none;visibility:visible;display:inline;overflow:visible;enable-background:accumulate"
                   d="m 3062.6653,1941.8539 c -20.4984,-28.1423 -4.6039,-72.0275 10.1015,-107.5812 180.4847,-24.8458 360.9695,-46.0539 541.4542,-79.7178 -14.4288,28.9952 -23.8064,59.0006 -19.2857,91.7857 -184.8887,45.3819 -357.6984,70.1997 -532.27,95.5133 z"
                   id="path8611-9-3-2-6-8"
                   sodipodi:nodetypes="ccccc"
                   inkscape:connector-curvature="0" />
                <path
                   style="color:#000000;fill:#000000;fill-opacity:1;fill-rule:nonzero;stroke:#000000;stroke-width:1;stroke-linecap:butt;stroke-linejoin:miter;stroke-miterlimit:4;stroke-opacity:1;stroke-dasharray:none;stroke-dashoffset:0;marker:none;visibility:visible;display:inline;overflow:visible;enable-background:accumulate"
                   d="m 3060.7622,1829.1695 -46.467,-143.4417 49.4975,143.9468 -3.0305,-0.5051 z"
                   id="path8806-1-0-7-7"
                   inkscape:connector-curvature="0" />
                <path
                   style="color:#000000;fill:#803300;fill-opacity:1;fill-rule:nonzero;stroke:#000000;stroke-width:8.75935173;stroke-linecap:butt;stroke-linejoin:miter;stroke-miterlimit:4;stroke-opacity:1;stroke-dasharray:none;stroke-dashoffset:0;marker:none;visibility:visible;display:inline;overflow:visible;enable-background:accumulate"
                   d="m 2783.1495,1543.4834 c -7.6482,51.0084 -9.7883,106.4085 29.2857,159.2858 l 626.4287,126.4285 15,-161.4285 12.1428,2.8571 35.7143,-395.7143 -520,110 -198.5715,158.5714 z"
                   id="path8623-0-9-2-3-9"
                   sodipodi:nodetypes="cccccccc"
                   inkscape:connector-curvature="0" />
                <path
                   style="color:#000000;fill:#ffffff;fill-opacity:1;fill-rule:nonzero;stroke:#000000;stroke-width:8.75935173;stroke-linecap:butt;stroke-linejoin:miter;stroke-miterlimit:4;stroke-opacity:1;stroke-dasharray:none;stroke-dashoffset:0;marker:none;visibility:visible;display:inline;overflow:visible;enable-background:accumulate"
                   d="m 2807.4353,1554.912 c -8.5221,41.8621 -10.6079,84.3678 18.5714,130 l 605.7143,122.8572 c -8.811,-48.6669 -1.1738,-95.1406 18.5714,-140 L 2807.4353,1554.912 z"
                   id="path8625-2-4-3-6-2"
                   sodipodi:nodetypes="ccccc"
                   inkscape:connector-curvature="0" />
                <path
                   style="color:#000000;fill:#d4aa00;fill-opacity:1;fill-rule:nonzero;stroke:#000000;stroke-width:8.75935173;stroke-linecap:butt;stroke-linejoin:miter;stroke-miterlimit:4;stroke-opacity:1;stroke-dasharray:none;stroke-dashoffset:0;marker:none;visibility:visible;display:inline;overflow:visible;enable-background:accumulate"
                   d="m 2715.2924,1273.4834 c -3.5551,44.611 -6.1926,92.2216 25.7143,150 l 447.8571,222.8572 484.6429,-282.5 -23.2143,-7.8572 c -7.153,-33.4523 -2.6878,-66.9047 10.7143,-100.3571 l 26.0714,-9.6429 -2.8571,-6.7857 -391.0715,-91.4285 -22.1428,2.8571 -555.7143,122.8571 z"
                   id="path8686-3-7-7-5-0"
                   sodipodi:nodetypes="ccccccccccc"
                   inkscape:connector-curvature="0" />
                <path
                   style="color:#000000;fill:#e6e6e6;fill-opacity:1;fill-rule:nonzero;stroke:#000000;stroke-width:8.75935173;stroke-linecap:butt;stroke-linejoin:miter;stroke-miterlimit:4;stroke-opacity:1;stroke-dasharray:none;stroke-dashoffset:0;marker:none;visibility:visible;display:inline;overflow:visible;enable-background:accumulate"
                   d="m 2731.3353,1289.2954 c -5.4279,43.0998 -2.7768,86.1997 25.2538,129.2995 l 425.1319,197.7457 471.4286,-255.7143 c -9.5035,-35.5533 -1.4158,-69.152 5.7143,-102.8571 -161.4696,53.7842 -325.3179,133.7344 -488.5715,207.1428 l -438.9571,-175.6166 z"
                   id="path8688-7-8-5-6-2"
                   sodipodi:nodetypes="ccccccc"
                   inkscape:connector-curvature="0" />
                <path
                   style="fill:#000000;stroke:none"
                   d="m 3180.3571,1617.3622 c -22.7954,-39.5351 -23.6996,-101.5579 -10.4984,-149.8273 -4.754,50.791 -11.5631,99.3747 16.1624,145.967 l -5.664,3.8603 z"
                   id="path8794-4-9-3-3"
                   sodipodi:nodetypes="cccc"
                   inkscape:connector-curvature="0" />
                <path
                   style="color:#000000;fill:#000000;fill-opacity:1;fill-rule:nonzero;stroke:#000000;stroke-width:1;stroke-linecap:butt;stroke-linejoin:miter;stroke-miterlimit:4;stroke-opacity:1;stroke-dasharray:none;stroke-dashoffset:0;marker:none;visibility:visible;display:inline;overflow:visible;enable-background:accumulate"
                   d="m 2716.4286,1273.4336 456.4285,174.6429 509.2858,-207.8572 -510.7143,212.1429 -455,-178.9286 z"
                   id="path8816-5-2-9-7"
                   inkscape:connector-curvature="0" />
              </g>
              <path
                 sodipodi:nodetypes="ccccccccc"
                 id="path6452-7-6-2-4-5"
                 d="M 282.643,367.2874 90.4868,395.7329 c -11.6881,20.0586 -8.4093,41.2895 -1.9776,44.1662 58.4118,-5.6337 120.5512,-17.6577 183.257,-30.6527 2.1749,-1.0986 2.2527,-2.1973 1.648,-3.296 l -6.7251,-5.5997 c -0.1366,-8.5048 0.6299,-18.8149 6.0659,-26.7009 l 12.1952,-2.3073 c 0.9944,-1.9929 0.1159,-3.3049 -2.3072,-4.0551 z"
                 style="color:#000000;fill:#806600;fill-opacity:1;fill-rule:nonzero;stroke:#000000;stroke-width:2.85805559;stroke-linecap:butt;stroke-linejoin:miter;stroke-miterlimit:4;stroke-opacity:1;stroke-dasharray:none;stroke-dashoffset:0;marker:none;visibility:visible;display:inline;overflow:visible;enable-background:accumulate"
                 inkscape:connector-curvature="0" />
              <path
                 sodipodi:nodetypes="cccc"
                 id="path8621-2-1-8-8-9"
                 d="M 284.9948,369.1043 173.1252,248.37836 46.3397,273.54899 C 57.6349,329.826 69.5382,381.5024 84.5618,435.2937"
                 style="color:#000000;fill:#806600;fill-opacity:1;fill-rule:nonzero;stroke:#000000;stroke-width:2.85805559;stroke-linecap:butt;stroke-linejoin:miter;stroke-miterlimit:4;stroke-opacity:1;stroke-dasharray:none;stroke-dashoffset:0;marker:none;visibility:visible;display:inline;overflow:visible;enable-background:accumulate"
                 inkscape:connector-curvature="0" />
              <path
                 sodipodi:nodetypes="ccccc"
                 id="path8796-0-9-1-2"
                 d="m 88.8946,439.8222 c -6.8491,-3.9466 -5.793,-27.669 2.9567,-42.4924 L 284.3805,369.3119 92.7152,397.796 c -5.4743,8.6002 -10.5753,29.3469 -3.8206,42.0262 z"
                 style="color:#000000;fill:#000000;fill-opacity:1;fill-rule:nonzero;stroke:#000000;stroke-width:0.3262862;stroke-linecap:butt;stroke-linejoin:miter;stroke-miterlimit:4;stroke-opacity:1;stroke-dasharray:none;stroke-dashoffset:0;marker:none;visibility:visible;display:inline;overflow:visible;enable-background:accumulate"
                 inkscape:connector-curvature="0" />
              <path
                 inkscape:connector-curvature="0"
                 style="opacity:0.33596838;color:#000000;fill:#000000;fill-opacity:1;fill-rule:nonzero;stroke:none;stroke-width:2.93657589;marker:none;visibility:visible;display:inline;overflow:visible;enable-background:accumulate"
                 d="M 282.643,367.2874 90.4868,395.7329 c -11.6881,20.0586 -8.4093,41.2895 -1.9775,44.1662 58.4117,-5.6337 120.5511,-17.6577 183.2569,-30.6527 2.1749,-1.0986 2.2527,-2.1973 1.648,-3.296 l -6.725,-5.5997 c -0.1367,-8.5048 0.6299,-18.8149 6.0658,-26.7009 l 12.1952,-2.3073 c 0.9944,-1.9929 0.1159,-3.3049 -2.3072,-4.0551 z"
                 id="path6452-7-6-2-4-9-2"
                 sodipodi:nodetypes="ccccccccc" />
              <path
                 sodipodi:nodetypes="ccccc"
                 id="path8611-9-6-7-2-8"
                 d="m 92.794,434.2959 c -6.6883,-9.1824 -1.5022,-23.5016 3.296,-35.1022 58.8897,-8.1069 117.7794,-15.0268 176.669,-26.0109 -4.7079,9.4608 -7.7677,19.2511 -6.2926,29.9484 -60.3266,14.8075 -116.7121,22.9052 -173.6724,31.1647 z"
                 style="color:#000000;fill:#e6e6e6;fill-opacity:1;fill-rule:nonzero;stroke:#000000;stroke-width:2.85805559;stroke-linecap:butt;stroke-linejoin:miter;stroke-miterlimit:4;stroke-opacity:1;stroke-dasharray:none;stroke-dashoffset:0;marker:none;visibility:visible;display:inline;overflow:visible;enable-background:accumulate"
                 inkscape:connector-curvature="0" />
              <path
                 id="path8806-3-3-9-9"
                 d="m 92.1731,397.5286 -15.1616,-46.8031 16.1504,46.9679 -0.9888,-0.1648 z"
                 style="color:#000000;fill:#000000;fill-opacity:1;fill-rule:nonzero;stroke:#000000;stroke-width:0.3262862;stroke-linecap:butt;stroke-linejoin:miter;stroke-miterlimit:4;stroke-opacity:1;stroke-dasharray:none;stroke-dashoffset:0;marker:none;visibility:visible;display:inline;overflow:visible;enable-background:accumulate"
                 inkscape:connector-curvature="0" />
              <path
                 sodipodi:nodetypes="cccccccc"
                 id="path8623-0-2-6-3-7"
                 d="m 1.5919,304.31311 c -2.4955,16.64339 -3.1938,34.71959 9.5555,51.97279 l 204.395,41.2519 4.8943,-52.6719 3.9621,0.9322 11.653,-129.11612 L 66.383,252.57345 1.5919,304.31311 z"
                 style="color:#000000;fill:#6c5353;fill-opacity:1;fill-rule:nonzero;stroke:#000000;stroke-width:2.85805559;stroke-linecap:butt;stroke-linejoin:miter;stroke-miterlimit:4;stroke-opacity:1;stroke-dasharray:none;stroke-dashoffset:0;marker:none;visibility:visible;display:inline;overflow:visible;enable-background:accumulate"
                 inkscape:connector-curvature="0" />
              <path
                 sodipodi:nodetypes="ccccc"
                 id="path8625-2-0-1-9-3"
                 d="M 9.516,308.04211 C 6.7354,321.7011 6.0548,335.5702 15.5756,350.4593 l 197.6362,40.0866 c -2.8749,-15.8793 -0.383,-31.043 6.0596,-45.68 L 9.516,308.04211 z"
                 style="color:#000000;fill:#e6e6e6;fill-opacity:1;fill-rule:nonzero;stroke:#000000;stroke-width:2.85805559;stroke-linecap:butt;stroke-linejoin:miter;stroke-miterlimit:4;stroke-opacity:1;stroke-dasharray:none;stroke-dashoffset:0;marker:none;visibility:visible;display:inline;overflow:visible;enable-background:accumulate"
                 inkscape:connector-curvature="0" />
              <path
                 id="path9273-2-0-6"
                 d="M 1.863,302.27448 223.3534,340.5079 1.2038,304.25207 1.863,302.27448 z"
                 style="color:#000000;fill:#000000;fill-opacity:1;fill-rule:nonzero;stroke:none;stroke-width:8.75935173;marker:none;visibility:visible;display:inline;overflow:visible;enable-background:accumulate"
                 inkscape:connector-curvature="0" />
              <path
                 sodipodi:nodetypes="ccccccccccc"
                 id="path8686-3-6-9-8-1"
                 d="m -20.549,216.21585 c -1.1599,14.55594 -2.0205,30.09062 8.3903,48.94292 l 146.1296,72.71523 158.1323,-92.17585 -7.5746,-2.5637 c -2.3339,-10.91502 -0.8769,-21.83008 3.496,-32.74513 l 8.5067,-3.14634 -0.9322,-2.21408 -127.6013,-29.83186 -7.2248,0.93223 -181.322,40.08658 z"
                 style="color:#000000;fill:#aa4400;fill-opacity:1;fill-rule:nonzero;stroke:#000000;stroke-width:2.85794067;stroke-linecap:butt;stroke-linejoin:miter;stroke-miterlimit:4;stroke-opacity:1;stroke-dasharray:none;stroke-dashoffset:0;marker:none;visibility:visible;display:inline;overflow:visible;enable-background:accumulate"
                 inkscape:connector-curvature="0" />
              <path
                 sodipodi:nodetypes="ccccccc"
                 id="path8688-7-1-3-8-2"
                 d="m -15.3144,221.37508 c -1.771,14.06287 -0.906,28.12577 8.24,42.18864 l 138.7147,64.52168 153.8206,-83.43603 c -3.1009,-11.60056 -0.4619,-22.56335 1.8645,-33.56085 -52.6853,17.54903 -106.1467,43.63568 -159.4141,67.58783 L -15.3144,221.37508 z"
                 style="color:#000000;fill:#e6e6e6;fill-opacity:1;fill-rule:nonzero;stroke:#000000;stroke-width:2.85805559;stroke-linecap:butt;stroke-linejoin:miter;stroke-miterlimit:4;stroke-opacity:1;stroke-dasharray:none;stroke-dashoffset:0;marker:none;visibility:visible;display:inline;overflow:visible;enable-background:accumulate"
                 inkscape:connector-curvature="0" />
              <path
                 sodipodi:nodetypes="cccc"
                 id="path8794-5-1-5-9"
                 d="m 131.1952,328.4188 c -7.4378,-12.89981 -7.7328,-33.13699 -3.4254,-48.88663 -1.5512,16.5724 -3.7729,32.42459 5.2735,47.62703 l -1.8481,1.2596 z"
                 style="fill:#000000;stroke:none"
                 inkscape:connector-curvature="0" />
              <path
                 id="path8816-54-9-0-3"
                 d="M -20.1782,216.1996 128.7481,273.18316 294.921,205.36223 128.282,274.58152 -20.1782,216.1996 z"
                 style="color:#000000;fill:#000000;fill-opacity:1;fill-rule:nonzero;stroke:#000000;stroke-width:0.3262862;stroke-linecap:butt;stroke-linejoin:miter;stroke-miterlimit:4;stroke-opacity:1;stroke-dasharray:none;stroke-dashoffset:0;marker:none;visibility:visible;display:inline;overflow:visible;enable-background:accumulate"
                 inkscape:connector-curvature="0" />
              <path
                 inkscape:connector-curvature="0"
                 id="path5384-8"
                 d="M 127.4787,312.54472 243.1721,253.47684 127.815,315.44112 z"
                 style="opacity:0.03676471;fill:#000000;stroke:none" />
              <path
                 inkscape:connector-curvature="0"
                 id="path8855-3"
                 d="m 154.9578,334.1911 c 1.7858,-0.3571 74.2858,-42.49998 74.2858,-42.49998 l 0,-9.28571 -83.2143,49.99999 z"
                 style="opacity:0.33596838;color:#000000;fill:#000000;fill-opacity:1;fill-rule:nonzero;stroke:none;stroke-width:2.93657589;marker:none;visibility:visible;display:inline;overflow:visible;enable-background:accumulate" />
              <path
                 inkscape:connector-curvature="0"
                 id="path8874-6"
                 d="m 292.815,246.69112 -157.5,92.14288 -146.7857,-72.50002 -5.3572,-36.07143 11.0715,34.28572 139.5486,63.90633 153.5432,-82.83248 z"
                 style="opacity:0.30039523;color:#000000;fill:#000000;fill-opacity:1;fill-rule:nonzero;stroke:none;stroke-width:2.93657589;marker:none;visibility:visible;display:inline;overflow:visible;enable-background:accumulate" />
              <path
                 sodipodi:nodetypes="ccccccc"
                 inkscape:connector-curvature="0"
                 id="path8882-1"
                 d="m 219.9578,348.1197 -2.8571,50.7143 c 0,0 -203.5714,-39.6429 -204.6428,-41.0714 -10.9791,-12.5157 -8.575,-55.42924 -5,-51.42862 1.2198,14.74612 -0.5547,29.15952 9.1566,44.84912 l 194.9594,37.3756 c 1.9403,-25.4398 5.1215,-33.5078 8.3839,-40.439 z"
                 style="opacity:0.33596838;color:#000000;fill:#000000;fill-opacity:1;fill-rule:nonzero;stroke:none;stroke-width:2.93657589;marker:none;visibility:visible;display:inline;overflow:visible;enable-background:accumulate" />
              <path
                 sodipodi:nodetypes="cccccccc"
                 inkscape:connector-curvature="0"
                 id="path8977-0"
                 d="M 301.225,400.6805 140.3582,493.1095 -4.5987,421.8937 c -4.644,-14.6472 -7.5431,-29.2944 -5.5558,-43.9416 2.1853,12.9636 4.1775,25.9273 9.5964,38.8909 l 138.7302,64.1338 156.4286,-83.5714 z"
                 style="opacity:0.33596838;color:#000000;fill:#000000;fill-opacity:1;fill-rule:nonzero;stroke:none;stroke-width:2.93657589;marker:none;visibility:visible;display:inline;overflow:visible;enable-background:accumulate" />
              <path
                 sodipodi:nodetypes="ccccccc"
                 inkscape:connector-curvature="0"
                 id="path8882-0-6"
                 d="m 225.886,502.9184 -2.8571,50.7143 c 0,0 -203.5714,-39.6428 -204.6428,-41.0714 -10.9791,-12.5157 -8.575,-55.4292 -5,-51.4286 1.2198,14.7461 -0.5547,29.1595 9.1566,44.8491 l 194.9594,37.3756 c 1.9403,-25.4398 5.1215,-33.5077 8.3839,-40.439 z"
                 style="opacity:0.33596838;color:#000000;fill:#000000;fill-opacity:1;fill-rule:nonzero;stroke:none;stroke-width:2.93657589;marker:none;visibility:visible;display:inline;overflow:visible;enable-background:accumulate" />
              <path
                 inkscape:connector-curvature="0"
                 id="path9020-3"
                 d="m 237.3328,443.612 -61.6193,46.467 c 0,0 -23.2335,-1.0101 -21.2132,-3.5355 2.0203,-2.5254 82.8325,-49.4975 82.8325,-49.4975 z"
                 style="opacity:0.33596838;color:#000000;fill:#000000;fill-opacity:1;fill-rule:nonzero;stroke:none;stroke-width:2.93657589;marker:none;visibility:visible;display:inline;overflow:visible;enable-background:accumulate" />
            </g>
          </g>
        </g>
      </g>
    </g>
  </g>
</svg>
