<?xml version="1.0" encoding="UTF-8" standalone="no"?>
<!-- Created with Inkscape (http://www.inkscape.org/) -->

<svg
   xmlns:dc="http://purl.org/dc/elements/1.1/"
   xmlns:cc="http://creativecommons.org/ns#"
   xmlns:rdf="http://www.w3.org/1999/02/22-rdf-syntax-ns#"
   xmlns:svg="http://www.w3.org/2000/svg"
   xmlns="http://www.w3.org/2000/svg"
   xmlns:xlink="http://www.w3.org/1999/xlink"
   xmlns:sodipodi="http://sodipodi.sourceforge.net/DTD/sodipodi-0.dtd"
   xmlns:inkscape="http://www.inkscape.org/namespaces/inkscape"
   width="372.75632"
   height="441.89096"
   id="svg8704"
   version="1.1"
   inkscape:version="0.48.3.1 r9886"
   sodipodi:docname="vela2.svg">
  <defs
     id="defs8706">
    <filter
       color-interpolation-filters="sRGB"
       inkscape:collect="always"
       id="filter9459"
       x="-0.27160931"
       width="1.5432186"
       y="-0.080311127"
       height="1.1606224">
      <feGaussianBlur
         inkscape:collect="always"
         stdDeviation="14.763333"
         id="feGaussianBlur9461" />
    </filter>
    <linearGradient
       inkscape:collect="always"
       xlink:href="#linearGradient9532"
       id="linearGradient9538"
       x1="444.69489"
       y1="642.46368"
       x2="418.37115"
       y2="634.96368"
       gradientUnits="userSpaceOnUse" />
    <linearGradient
       inkscape:collect="always"
       id="linearGradient9532">
      <stop
         style="stop-color:#000000;stop-opacity:1;"
         offset="0"
         id="stop9534" />
      <stop
         style="stop-color:#000000;stop-opacity:0;"
         offset="1"
         id="stop9536" />
    </linearGradient>
    <radialGradient
       inkscape:collect="always"
       xlink:href="#linearGradient9481"
       id="radialGradient9487"
       cx="300.52039"
       cy="163.4136"
       fx="300.52039"
       fy="163.4136"
       r="58.239887"
       gradientTransform="matrix(1,0,0,2.3225323,0,-216.11977)"
       gradientUnits="userSpaceOnUse" />
    <linearGradient
       inkscape:collect="always"
       id="linearGradient9481">
      <stop
         style="stop-color:#ffffff;stop-opacity:1;"
         offset="0"
         id="stop9483" />
      <stop
         style="stop-color:#ffffff;stop-opacity:0;"
         offset="1"
         id="stop9485" />
    </linearGradient>
    <filter
       color-interpolation-filters="sRGB"
       inkscape:collect="always"
       id="filter9477"
       x="-0.2117845"
       width="1.423569"
       y="-0.073467001"
       height="1.146934">
      <feGaussianBlur
         inkscape:collect="always"
         stdDeviation="7.220295"
         id="feGaussianBlur9479" />
    </filter>
    <linearGradient
       gradientTransform="translate(-5.7428359e-7,-4.6660803e-6)"
       y2="645.19147"
       x2="428.09387"
       y1="634.96368"
       x1="407.95059"
       gradientUnits="userSpaceOnUse"
       id="linearGradient9557"
       xlink:href="#linearGradient9532-5-7-85"
       inkscape:collect="always" />
    <linearGradient
       inkscape:collect="always"
       id="linearGradient9532-5-7-85">
      <stop
         style="stop-color:#000000;stop-opacity:1;"
         offset="0"
         id="stop9534-7-7-9" />
      <stop
         style="stop-color:#000000;stop-opacity:0;"
         offset="1"
         id="stop9536-3-7-6" />
    </linearGradient>
    <filter
       color-interpolation-filters="sRGB"
       inkscape:collect="always"
       id="filter9770"
       x="-0.052731887"
       width="1.1054637"
       y="-0.10156753"
       height="1.2031351">
      <feGaussianBlur
         inkscape:collect="always"
         stdDeviation="0.96331819"
         id="feGaussianBlur9772" />
    </filter>
    <filter
       color-interpolation-filters="sRGB"
       inkscape:collect="always"
       id="filter9941"
       x="-0.38518745"
       width="1.7703749"
       y="-0.4902257"
       height="1.9804513">
      <feGaussianBlur
         inkscape:collect="always"
         stdDeviation="2.376361"
         id="feGaussianBlur9943" />
    </filter>
    <filter
       color-interpolation-filters="sRGB"
       inkscape:collect="always"
       id="filter9953"
       x="-0.49796268"
       width="1.9959254"
       y="-0.27228898"
       height="1.544578">
      <feGaussianBlur
         inkscape:collect="always"
         stdDeviation="2.4493291"
         id="feGaussianBlur9955" />
    </filter>
    <filter
       color-interpolation-filters="sRGB"
       inkscape:collect="always"
       id="filter9937"
       x="-1.3687314"
       width="3.7374628"
       y="-0.1315317"
       height="1.2630634">
      <feGaussianBlur
         inkscape:collect="always"
         stdDeviation="1.3311507"
         id="feGaussianBlur9939" />
    </filter>
    <filter
       color-interpolation-filters="sRGB"
       inkscape:collect="always"
       id="filter9596"
       x="-0.66254342"
       width="2.3250868"
       y="-0.26331848"
       height="1.526637">
      <feGaussianBlur
         inkscape:collect="always"
         stdDeviation="3.2417753"
         id="feGaussianBlur9598" />
    </filter>
    <linearGradient
       inkscape:collect="always"
       xlink:href="#linearGradient9622"
       id="linearGradient9628"
       x1="461.91208"
       y1="625.35339"
       x2="425.30493"
       y2="622.49628"
       gradientUnits="userSpaceOnUse" />
    <linearGradient
       inkscape:collect="always"
       id="linearGradient9622">
      <stop
         style="stop-color:#000000;stop-opacity:1;"
         offset="0"
         id="stop9624" />
      <stop
         style="stop-color:#000000;stop-opacity:0;"
         offset="1"
         id="stop9626" />
    </linearGradient>
    <linearGradient
       gradientTransform="translate(-5.7428359e-7,-4.6660803e-6)"
       y2="624.63916"
       x2="429.23349"
       y1="611.06769"
       x1="404.41208"
       gradientUnits="userSpaceOnUse"
       id="linearGradient9647"
       xlink:href="#linearGradient9622-5-5-90"
       inkscape:collect="always" />
    <linearGradient
       inkscape:collect="always"
       id="linearGradient9622-5-5-90">
      <stop
         style="stop-color:#000000;stop-opacity:1;"
         offset="0"
         id="stop9624-5-32-95" />
      <stop
         style="stop-color:#000000;stop-opacity:0;"
         offset="1"
         id="stop9626-3-2-9" />
    </linearGradient>
    <radialGradient
       inkscape:collect="always"
       xlink:href="#linearGradient9812"
       id="radialGradient9818"
       cx="432.96872"
       cy="627.4494"
       fx="432.96872"
       fy="627.4494"
       r="24.657684"
       gradientTransform="matrix(0.4785746,0.11587231,-0.12442598,0.51390287,303.83189,250.05773)"
       gradientUnits="userSpaceOnUse" />
    <linearGradient
       inkscape:collect="always"
       id="linearGradient9812">
      <stop
         style="stop-color:#ffffff;stop-opacity:1;"
         offset="0"
         id="stop9814" />
      <stop
         style="stop-color:#ffffff;stop-opacity:0;"
         offset="1"
         id="stop9816" />
    </linearGradient>
    <filter
       color-interpolation-filters="sRGB"
       inkscape:collect="always"
       id="filter9868"
       x="-0.11536201"
       width="1.230724"
       y="-0.12289253"
       height="1.2457851">
      <feGaussianBlur
         inkscape:collect="always"
         stdDeviation="4.1715709"
         id="feGaussianBlur9870" />
    </filter>
    <filter
       color-interpolation-filters="sRGB"
       inkscape:collect="always"
       id="filter9933"
       x="-0.23669069"
       width="1.4733814"
       y="-0.12504221"
       height="1.2500844">
      <feGaussianBlur
         inkscape:collect="always"
         stdDeviation="3.5726349"
         id="feGaussianBlur9935" />
    </filter>
  </defs>
  <sodipodi:namedview
     id="base"
     pagecolor="#ffffff"
     bordercolor="#666666"
     borderopacity="1.0"
     inkscape:pageopacity="0.0"
     inkscape:pageshadow="2"
     inkscape:zoom="0.35"
     inkscape:cx="186.37815"
     inkscape:cy="221.16679"
     inkscape:document-units="px"
     inkscape:current-layer="layer1"
     showgrid="false"
     fit-margin-top="0"
     fit-margin-left="0"
     fit-margin-right="0"
     fit-margin-bottom="0"
     inkscape:window-width="521"
     inkscape:window-height="434"
     inkscape:window-x="65"
     inkscape:window-y="29"
     inkscape:window-maximized="0" />
  <metadata
     id="metadata8709">
    <rdf:RDF>
      <cc:Work
         rdf:about="">
        <dc:format>image/svg+xml</dc:format>
        <dc:type
           rdf:resource="http://purl.org/dc/dcmitype/StillImage" />
        <dc:title></dc:title>
      </cc:Work>
    </rdf:RDF>
  </metadata>
  <g
     inkscape:label="Capa 1"
     inkscape:groupmode="layer"
     id="layer1"
     transform="translate(-163.62186,-311.638)">
    <g
       transform="translate(-199.72528,235.33597)"
       id="layer1-01"
       inkscape:label="Capa 1">
      <g
         transform="translate(206.15942,-101.75712)"
         id="layer1-5"
         inkscape:label="Layer 1">
        <g
           id="g3153"
           transform="matrix(1.1823924,0,0,1.1823924,-34.247148,-69.395081)">
          <g
             transform="matrix(0.84574292,0,0,0.84574292,-41.268792,26.063476)"
             id="layer1-9"
             inkscape:label="Layer 1">
            <g
               id="g3006"
               transform="matrix(5.582782,0,0,5.582782,-3159.9323,-1053.8796)">
              <g
                 transform="matrix(0.17912217,0,0,0.17912217,591.64151,193.52672)"
                 id="layer1-8"
                 inkscape:label="Layer 1">
                <g
                   transform="translate(66.378417,-64.892057)"
                   id="layer1-7"
                   inkscape:label="Layer 1">
                  <g
                     inkscape:label="Capa 1"
                     id="layer1-0"
                     transform="translate(-114.28726,-21.705835)">
                    <g
                       transform="matrix(1.190461,0,0,1.190461,2400.0247,-1283.4222)"
                       id="g6324"
                       inkscape:export-xdpi="90"
                       inkscape:export-ydpi="90">
                      <g
                         id="g5072">
                        <g
                           inkscape:label="Capa 1"
                           id="layer1-6"
                           transform="matrix(0.8400107,0,0,0.8400107,-2872.465,3435.4932)">
                          <g
                             id="g13303">
                            <g
                               id="g13252">
                              <g
                                 id="g11902" />
                            </g>
                          </g>
                          <g
                             inkscape:label="Capa 1"
                             id="layer1-80"
                             transform="translate(1004.7711,-2867.1078)">
                            <g
                               id="g10000">
                              <path
                                 inkscape:connector-curvature="0"
                                 sodipodi:nodetypes="ccc"
                                 id="path5030"
                                 d="M 424.608,654.7371 C 388.53876,563.85405 463.27823,434.9105 520.86182,337.87231 506.66242,425.72065 513.47201,587.18452 424.608,654.7371 z"
                                 style="color:#000000;fill:#784421;fill-opacity:1;fill-rule:nonzero;stroke:#000000;stroke-width:1.81735885px;stroke-linecap:butt;stroke-linejoin:miter;stroke-miterlimit:4;stroke-opacity:1;stroke-dasharray:none;stroke-dashoffset:0;marker:none;visibility:visible;display:inline;overflow:visible;enable-background:accumulate" />
                              <path
                                 inkscape:connector-curvature="0"
                                 sodipodi:nodetypes="cccc"
                                 id="path5017"
                                 d="m 419.04431,649.29354 c -85.73708,42.22317 2.32922,70.35793 -69.26889,86.57919 44.16025,4.90447 90.3863,-9.50441 86.55256,-77.27953 l -17.28367,-9.29966 z"
                                 style="color:#000000;fill:#aca793;fill-opacity:1;fill-rule:nonzero;stroke:#000000;stroke-width:1.81735885px;stroke-linecap:butt;stroke-linejoin:miter;stroke-miterlimit:4;stroke-opacity:1;stroke-dasharray:none;stroke-dashoffset:0;marker:none;visibility:visible;display:inline;overflow:visible;enable-background:accumulate" />
                              <path
                                 inkscape:connector-curvature="0"
                                 transform="matrix(0.57949721,0.00644266,-0.00644266,0.57949721,750.75933,340.7151)"
                                 sodipodi:nodetypes="cscc"
                                 id="path5444"
                                 d="m -522.42218,498.10533 c 4.85055,-4.89152 -18.76477,1.84325 -13.89216,-3.59123 63.99747,-71.37713 109.88175,-293.34943 125.00894,-438.855586 -16.52753,146.530036 -47.26898,374.554016 -111.11678,442.446816 z"
                                 style="color:#000000;fill:#000000;fill-opacity:1;fill-rule:nonzero;stroke:none;stroke-width:1px;marker:none;visibility:visible;display:inline;overflow:visible;filter:url(#filter9459);enable-background:accumulate" />
                              <path
                                 inkscape:connector-curvature="0"
                                 sodipodi:nodetypes="ccccc"
                                 id="path5007"
                                 d="m 415.35603,608.68271 -2.96676,43.43468 c 6.4111,11.62905 13.90772,9.92969 23.93411,6.88973 l 22.38909,-40.3209 c -9.44362,5.5313 -30.27778,9.36231 -43.35644,-10.00351 z"
                                 style="color:#000000;fill:#808080;fill-opacity:1;fill-rule:nonzero;stroke:#000000;stroke-width:1.81735885px;stroke-linecap:butt;stroke-linejoin:miter;stroke-miterlimit:4;stroke-opacity:1;stroke-dasharray:none;stroke-dashoffset:0;marker:none;visibility:visible;display:inline;overflow:visible;enable-background:accumulate" />
                              <path
                                 inkscape:connector-curvature="0"
                                 sodipodi:nodetypes="ccccc"
                                 id="path5007-5"
                                 d="m 415.35603,608.68271 -2.96676,43.43468 c 6.4111,11.62905 13.90772,9.92969 23.93411,6.88973 l 22.38909,-40.3209 c -9.44362,5.5313 -30.27778,9.36231 -43.35644,-10.00351 z"
                                 style="opacity:0.63865548;color:#000000;fill:url(#linearGradient9538);fill-opacity:1;fill-rule:nonzero;stroke:#000000;stroke-width:1.81735885px;stroke-linecap:butt;stroke-linejoin:miter;stroke-miterlimit:4;stroke-opacity:1;stroke-dasharray:none;stroke-dashoffset:0;marker:none;visibility:visible;display:inline;overflow:visible;enable-background:accumulate" />
                              <path
                                 inkscape:connector-curvature="0"
                                 sodipodi:nodetypes="ccccc"
                                 transform="translate(162.73002,337.70385)"
                                 id="path9463"
                                 d="m 338.90618,45.4783 c -28.32343,78.62354 -62.07281,157.24708 -79.29698,235.87062 l 13.13199,0 c 16.50916,-77.27667 44.93414,-154.55334 68.69037,-231.83001 l -2.52538,-4.04061 z"
                                 style="fill:url(#radialGradient9487);fill-opacity:1;stroke:none;filter:url(#filter9477)" />
                              <path
                                 inkscape:connector-curvature="0"
                                 sodipodi:nodetypes="ccccc"
                                 id="path5007-5-3"
                                 d="m 415.35603,608.68271 -2.96676,43.43468 c 6.4111,11.62905 13.90772,9.92969 23.93411,6.88973 l 22.38909,-40.3209 c -9.44362,5.5313 -30.27778,9.36231 -43.35644,-10.00351 z"
                                 style="opacity:0.63865548;color:#000000;fill:url(#linearGradient9557);fill-opacity:1;fill-rule:nonzero;stroke:#000000;stroke-width:1.81735885px;stroke-linecap:butt;stroke-linejoin:miter;stroke-miterlimit:4;stroke-opacity:1;stroke-dasharray:none;stroke-dashoffset:0;marker:none;visibility:visible;display:inline;overflow:visible;enable-background:accumulate" />
                              <path
                                 inkscape:connector-curvature="0"
                                 id="path5007-9-8-8-6"
                                 transform="translate(162.73002,337.70385)"
                                 d="m 252.625,270.96875 -0.84375,12.1875 c 11.29656,11.46646 25.09945,11.75015 37.75,9.40625 l 6.09375,-10.96875 c -1.78512,0.82375 -3.77828,1.57217 -5.96875,2.15625 -0.0227,0.007 -0.0398,0.024 -0.0625,0.0313 -10.5966,3.36209 -26.34234,2.92223 -36.96875,-12.8125 z"
                                 style="opacity:0.39915969;color:#000000;fill:#000000;fill-opacity:1;fill-rule:nonzero;stroke:#000000;stroke-width:1.81735885px;stroke-linecap:butt;stroke-linejoin:miter;stroke-miterlimit:4;stroke-opacity:1;stroke-dasharray:none;stroke-dashoffset:0;marker:none;visibility:visible;display:inline;overflow:visible;filter:url(#filter9770);enable-background:accumulate" />
                              <path
                                 inkscape:connector-curvature="0"
                                 sodipodi:nodetypes="ccccc"
                                 id="path5007-9"
                                 d="m 414.36626,605.18861 -0.86086,12.59529 c 12.10685,13.20227 27.28402,12.91969 40.87811,10.07858 l 6.6199,-11.90783 c -10.1582,5.94985 -32.56883,10.06517 -46.63715,-10.76604 z"
                                 style="color:#000000;fill:#808080;fill-opacity:1;fill-rule:nonzero;stroke:#000000;stroke-width:1.81735885px;stroke-linecap:butt;stroke-linejoin:miter;stroke-miterlimit:4;stroke-opacity:1;stroke-dasharray:none;stroke-dashoffset:0;marker:none;visibility:visible;display:inline;overflow:visible;enable-background:accumulate" />
                              <path
                                 inkscape:connector-curvature="0"
                                 transform="translate(162.73002,337.70385)"
                                 id="path9976"
                                 d="m 219.46429,382.88141 9.46428,-41.25 -8.21428,41.42857 -1.25,-0.17857 z"
                                 style="fill:#000000;stroke:none" />
                              <path
                                 inkscape:connector-curvature="0"
                                 id="path9168"
                                 d="m 416.46899,694.75555 c -0.36955,-0.0182 -0.54763,0.36852 -0.40888,0.93725 0.15858,0.64998 0.62256,1.09129 1.03947,0.98958 0.41692,-0.10172 0.68528,-0.50671 0.58956,-0.89902 -0.0957,-0.39231 -0.57779,-0.83383 -1.05757,-0.98978 -0.06,-0.0195 -0.10979,-0.0354 -0.16258,-0.038 z m -39.77306,4.90071 c 0.32143,1.65447 0.66963,3.27653 1.01449,4.86517 0.0482,-0.003 0.0948,-0.0115 0.14507,-0.0165 1.40405,-0.13834 1.67448,-0.53029 1.32582,-1.95941 -0.35817,-1.46805 -1.35651,-2.56439 -2.48538,-2.88926 z m 11.9261,10.61917 c -0.37631,-10e-4 -0.826,0.14463 -1.38134,0.43743 -0.8769,0.46234 -2.36646,0.50068 -3.31541,0.0899 -2.50558,-1.08457 -2.8853,-0.79286 -3.39591,2.44352 -0.24321,1.54155 -0.83418,2.58752 -1.5375,3.07998 -0.87241,7.83431 -7.15104,14.45566 -29.21383,19.54355 20.19936,2.24336 40.83662,0.45691 56.91192,-8.64037 -0.50267,-0.5222 -0.89262,-1.1278 -1.04892,-1.76848 -0.23852,-0.97766 -0.73255,-1.71504 -1.10486,-1.62421 -2.54974,0.62207 -2.77109,-6.7506 -0.30397,-10.12772 0.86618,-1.18567 1.29003,-2.32687 0.93386,-2.54334 -0.35618,-0.21646 -1.06185,0.15379 -1.56686,0.83382 -0.50501,0.68 -1.72806,1.2357 -2.71218,1.21954 -1.3495,-0.0222 -2.21891,0.76269 -3.54904,3.1844 -1.92878,3.51166 -3.04165,4.09387 -5.64811,3.01616 -1.57046,-0.64937 -1.71058,-1.03094 -1.63463,-4.47361 0.072,-3.26692 -0.30428,-4.66638 -1.43322,-4.67059 z m 11.59856,5.8703 c 0.46866,5.7e-4 0.83799,0.37036 1.01995,1.11614 0.42607,1.7464 -0.67022,3.5316 -2.41661,3.95767 -1.76088,0.4296 -2.15861,-1.26962 -0.77828,-3.30495 0.79506,-1.17233 1.57238,-1.76978 2.17494,-1.76886 z"
                                 style="fill:#800000" />
                              <path
                                 inkscape:connector-curvature="0"
                                 style="fill:#800000"
                                 d="m 172.7713,771.2283 c 1.97541,-0.77678 2.40052,-0.79785 1.995,-0.0989 -0.21718,0.37432 -0.85091,0.71242 -1.40826,0.75132 -1.27476,0.089 -1.58751,-0.25882 -0.58674,-0.65238 z m 6.22271,-2.7335 c 3.7966,-1.50137 4.38946,-1.53324 1.51804,-0.0816 -1.49587,0.75621 -2.884,1.3864 -3.08475,1.40041 -1.14806,0.0801 -0.41903,-0.53357 1.56671,-1.3188 z m -19.10683,-25.98649 c 1.02878,-0.0718 5.20562,0.39235 6.89614,0.76631 1.8218,0.40299 1.82203,0.40832 0.0179,0.53036 -1.00228,0.0679 -2.2338,0.0678 -2.73657,-5e-5 -1.20602,-0.16274 -4.73402,-1.25777 -4.17744,-1.2966 z m 29.58341,21.90099 c 1.38183,-0.71847 2.70976,-0.88652 2.49232,-0.31546 -0.16779,0.44065 -2.45348,1.17089 -3.1998,1.02229 -0.25929,-0.0516 0.0591,-0.3697 0.70748,-0.70683 z m -19.2611,-25.67418 c 0.70213,-0.051 1.57265,9.7e-4 1.9347,0.11583 0.83309,0.26423 -0.16842,0.33413 -1.89138,0.13197 -1.13731,-0.13342 -1.14331,-0.16766 -0.043,-0.24779 z m 26.00892,29.83797 c 1.6914,-0.66511 2.36664,-0.77472 2.20815,-0.35847 -0.18066,0.47445 -2.53114,1.21285 -2.79546,0.87821 -0.0957,-0.1212 0.16856,-0.35508 0.58731,-0.51974 z m -8.38048,-17.09462 c 0.0124,-0.2902 1.12418,-0.52971 3.67974,-0.7928 4.9549,-0.51006 6.45515,-1.22662 5.00441,-2.39024 -0.60343,-0.48402 -0.83706,-0.96228 -0.51923,-1.06281 1.35693,-0.42914 -0.33838,-1.13509 -3.7058,-1.54312 -1.95191,-0.23654 -3.43023,-0.49177 -3.28516,-0.5672 0.14508,-0.0754 1.96237,-0.0762 4.03842,-0.002 2.07606,0.0745 4.22349,0.0399 4.77207,-0.0769 1.37234,-0.29206 0.39934,-1.3057 -2.31364,-2.41027 -1.24845,-0.5083 -2.09997,-0.93605 -1.89228,-0.95053 0.34259,-0.0239 3.25098,0.32099 13.86015,1.64369 3.73294,0.46539 8.0212,0.38186 7.5951,-0.14795 -0.41942,-0.52193 -10.48326,-4.07126 -11.71038,-4.13019 -0.69266,-0.0333 -1.43764,-0.39391 -1.8239,-0.88295 -0.39485,-0.4999 -1.1291,-0.84958 -1.85743,-0.88454 -0.66245,-0.0318 -1.9253,-0.4245 -2.80632,-0.87264 -0.88103,-0.44814 -2.48919,-1.09951 -3.57368,-1.44748 -1.08449,-0.34798 -2.0553,-0.7367 -2.15734,-0.86382 -0.36307,-0.4526 8.49777,1.45888 12.23053,2.63831 4.00252,1.26467 6.46829,1.42758 7.86044,0.51932 0.37458,-0.24439 1.67157,-0.66921 2.88218,-0.94405 3.07903,-0.69901 4.06784,-1.72947 2.66182,-2.77395 -0.77136,-0.57301 -0.86714,-0.97261 -0.30338,-1.26572 0.45311,-0.23559 0.65836,-0.63786 0.4561,-0.89394 -0.68033,-0.86135 0.95061,-0.56771 2.71645,0.48908 2.38271,1.42597 4.67537,2.06998 6.83302,1.91941 1.93283,-0.1349 2.8541,-0.85378 2.18301,-1.70345 -0.39815,-0.50409 -0.32195,-0.51802 1.27567,-0.23313 0.93452,0.16665 2.40142,0.25398 3.25979,0.19408 1.03375,-0.0721 1.88188,0.0837 2.51207,0.46151 1.44838,0.86837 3.83321,0.56285 4.36751,-0.55952 0.48598,-1.02087 0.87171,-1.10554 3.38532,-0.74309 0.95199,0.13727 2.42868,0.13527 3.302,-0.004 2.21229,-0.35396 2.91811,-0.0175 2.85516,1.36095 -0.0498,1.08948 0.0938,1.21243 1.66904,1.42997 2.61443,0.36104 3.71528,0.18159 5.61721,-0.91566 1.31162,-0.75668 2.1789,-0.99764 3.52845,-0.98035 0.98416,0.0127 2.19831,-0.1501 2.69811,-0.36157 0.4998,-0.21149 1.20147,-0.32622 1.55926,-0.25497 0.35778,0.0712 -0.0508,0.43131 -0.90785,0.80015 -2.44126,1.05056 -2.16408,3.38752 0.38071,3.20992 0.37159,-0.0259 0.87684,0.20761 1.12277,0.51898 0.50971,0.64536 3.21998,1.21576 5.13993,1.08178 0.712,-0.0497 2.39634,-0.38276 3.74298,-0.74014 1.34664,-0.35739 3.83462,-0.82767 5.52885,-1.04505 2.75061,-0.35293 3.12043,-0.3446 3.4541,0.0779 0.30849,0.39057 -0.12808,0.50373 -2.50237,0.6486 -3.2129,0.19603 -6.74231,1.27151 -6.90154,2.10305 -0.0533,0.27801 0.60108,0.77385 1.45407,1.10184 1.42724,0.54884 1.86169,0.57025 5.45063,0.26874 2.14487,-0.18023 3.93875,-0.27831 3.98643,-0.21796 0.0477,0.0604 -0.97945,0.35174 -2.28245,0.64755 -2.53533,0.57559 -2.71947,1.2275 -0.36611,1.29613 0.79046,0.0231 1.96845,0.26377 2.61776,0.53498 0.86496,0.36124 1.94475,0.46067 4.03908,0.37189 2.02334,-0.0858 3.10303,0.006 3.69539,0.31524 1.1869,0.61898 3.74923,0.36277 4.03328,-0.40327 0.1797,-0.48464 0.64805,-0.62771 1.99806,-0.61041 1.24117,0.0155 2.01658,-0.16482 2.61849,-0.61033 0.80784,-0.59791 0.94499,-0.61502 2.48004,-0.30935 1.14663,0.22833 2.26235,0.23387 3.79062,0.0188 3.17886,-0.44726 10.4544,0.17169 10.4343,0.88774 -0.0132,0.46986 0.34074,0.49256 3.85651,0.24721 4.16984,-0.29101 4.40498,-0.46266 2.09686,-1.53077 -0.75947,-0.35143 -1.81059,-0.52703 -2.75879,-0.46087 -2.30376,0.16079 -2.17454,-0.29438 0.18268,-0.64341 2.58998,-0.38351 7.17295,-2.14667 6.80166,-2.61676 -0.15283,-0.19349 -0.99822,-0.51116 -1.87867,-0.70592 -1.51869,-0.33596 -1.47836,-0.36266 0.78613,-0.52069 2.14777,-0.14989 2.32961,-0.23915 1.81488,-0.89084 -0.44006,-0.55716 -0.2316,-0.74802 0.90349,-0.82723 0.81152,-0.0566 1.64449,-0.29974 1.85102,-0.54022 0.29384,-0.34213 0.74626,-0.40426 2.07983,-0.28559 0.93736,0.0834 2.31348,0.0535 3.05804,-0.0664 1.33061,-0.2144 4.98948,0.006 9.76688,0.58821 1.89025,0.23037 2.42201,0.42912 2.4235,0.90578 0.001,0.36259 0.66502,0.81044 1.63425,1.1025 1.57842,0.47561 1.56239,0.5017 -0.48555,0.78984 -2.63563,0.37084 -2.25744,1.15624 0.87804,1.82345 1.99767,0.4251 2.0712,0.48175 1.01975,0.78577 -0.62322,0.18021 -1.02481,0.46482 -0.8924,0.63246 0.29992,0.37973 -4.5335,0.69217 -7.78467,0.50324 -3.04175,-0.17678 -5.48862,0.35162 -6.23033,1.34545 -0.3161,0.42356 -0.99634,0.9485 -1.51164,1.16655 -1.06239,0.44952 -0.68781,1.24807 0.60592,1.29171 0.55481,0.0186 0.69428,0.3741 0.39421,1.00444 -0.69818,1.46662 0.11877,2.18194 2.69118,2.35638 1.97103,0.13368 2.08192,0.18506 1.1483,0.53199 -1.54718,0.57494 -0.17813,1.22149 2.72594,1.28737 l 2.54881,0.0578 -1.97218,0.67435 c -2.46451,0.84272 -2.29695,1.95252 0.30625,2.02844 1.53187,0.0447 1.77146,0.17204 1.99454,1.06045 0.27491,1.09484 1.28677,1.37298 4.2647,1.17229 1.3595,-0.0916 7.45678,0.99826 7.76452,1.3879 0.15804,0.20007 -5.30791,-0.31828 -8.04796,-0.76325 -5.25962,-0.8541 -10.73393,0.4158 -9.52204,2.20887 0.80871,1.19655 -1.07828,2.26028 -4.42375,2.49376 -4.28633,0.29911 -5.29991,1.8628 -1.80565,2.78563 0.8145,0.21512 1.53655,0.46155 1.60454,0.54763 0.21709,0.27485 -3.20888,0.98032 -5.55624,1.14415 -2.22366,0.15517 -4.78524,1.12001 -4.96319,1.86939 -0.0648,0.27271 -0.69996,0.26744 -2.77404,-0.023 -2.96172,-0.41476 -4.89964,-0.18501 -5.04971,0.59866 -0.084,0.43895 -0.25138,0.46206 -1.51823,0.20979 -1.68408,-0.33534 -1.81199,-0.33135 -3.38451,0.10592 -0.66703,0.1855 -1.17911,0.68474 -1.13796,1.10946 0.0507,0.52377 -0.72566,1.03039 -2.41329,1.57473 -1.53186,0.4941 -2.34244,0.98692 -2.10912,1.28232 0.25484,0.32264 -0.12866,0.51525 -1.17065,0.58797 -1.02472,0.0715 -1.70173,0.39918 -1.99863,0.96732 l -0.44899,0.85921 -0.63568,-0.76532 c -1.13584,-1.36742 -4.78284,-1.68063 -7.6555,-0.65748 -1.35541,0.48278 -1.63643,0.50237 -3.87871,0.2707 -1.32959,-0.13741 -2.96068,-0.21188 -3.62466,-0.16555 -0.66398,0.0463 -1.28766,-0.0178 -1.38594,-0.14199 -0.0983,-0.12444 0.98946,-0.24645 2.41721,-0.27114 3.03213,-0.0524 4.3194,-0.63095 3.25817,-1.46425 -0.53515,-0.42018 -1.2539,-0.51754 -3.25601,-0.44099 -2.06834,0.0791 -2.45312,0.0225 -1.97351,-0.29044 0.32767,-0.21379 0.31524,-1.00372 -0.0276,-1.75541 -0.47331,-1.03777 -1.04182,-1.49283 -2.36188,-1.89058 -1.86469,-0.56187 -4.00683,-0.55482 -5.1063,0.0168 -0.49125,0.25541 -0.9654,0.29602 -1.71447,0.14687 -0.74908,-0.14916 -0.82116,-0.40006 -0.26069,-0.90721 0.81126,-0.73408 -0.0433,-1.25928 -3.2541,-1.99997 -1.15981,-0.26754 -1.03062,-0.3824 1.00882,-0.8969 2.60815,-0.65798 3.43477,-1.72079 1.79487,-2.30773 -1.64564,-0.589 -9.33613,-0.76328 -11.65486,-0.26413 -1.04154,0.2242 -1.96162,0.58603 -2.04464,0.80409 -0.25713,0.67531 -2.15724,0.57726 -3.96337,-0.20449 -0.94871,-0.41064 -2.51188,-0.76957 -3.47368,-0.79762 -2.13002,-0.0621 -4.83249,0.7706 -5.10695,1.57361 l -0.19401,0.56762 -0.96222,-0.50178 c -2.06667,-1.07778 -6.2176,0.074 -6.51124,1.80666 -0.0491,0.28957 -1.14423,0.78186 -2.43368,1.09401 -2.75384,0.66665 -3.16615,0.48301 -2.42256,-1.079 0.25284,-0.53113 0.17769,-1.09532 -0.16697,-1.25381 -0.97346,-0.44758 -4.29259,-0.0913 -5.06653,0.54386 -0.69312,0.56884 -0.69824,0.56899 -1.57284,0.0446 -1.42369,-0.85358 -7.80845,-1.94845 -11.03673,-1.89262 -2.53608,0.0439 -3.2072,0.19693 -5.89299,1.34396 -3.6977,1.57919 -4.69007,1.5562 -1.6583,-0.0384 3.46969,-1.82496 3.3624,-3.07309 -0.29213,-3.39829 -2.10565,-0.18739 -3.46035,0.1226 -7.57522,1.73338 -1.9283,0.75484 -3.59048,1.26547 -3.69373,1.13474 -0.10326,-0.13073 -0.51104,-0.38635 -0.90619,-0.56802 -0.51041,-0.23468 0.65089,-0.7398 4.01047,-1.7444 5.78685,-1.7304 11.48789,-4.4792 10.88169,-5.24671 -0.24115,-0.30531 -1.33889,-0.65378 -2.49498,-0.79199 -1.82311,-0.21795 -2.39412,-0.18081 -4.88561,0.31792 -1.55166,0.3106 -3.95414,0.90057 -5.33882,1.31104 l -2.5176,0.74633 -2.05815,-0.40983 c -1.14704,-0.22841 -3.00991,-0.34342 -4.20808,-0.25981 -1.84033,0.12844 -2.38226,0.0245 -3.7634,-0.72214 -0.88742,-0.4797 -1.60695,-0.91665 -1.59895,-0.971 0.008,-0.0543 0.0226,-0.28595 0.0324,-0.51465 z m 70.60236,-16.86679 c 1.74301,-0.12164 2.81598,-0.67951 2.37667,-1.23571 -0.4288,-0.54291 -1.78596,-0.46394 -3.18344,0.18522 -1.36475,0.63396 -0.95068,1.17313 0.80679,1.05049 z m 30.70702,9.43623 c 1.04632,0.11537 1.58461,-0.40139 0.70781,-0.6795 -0.73616,-0.2335 -1.95702,0.0387 -1.68996,0.37682 0.0925,0.11712 0.53446,0.25332 0.98215,0.30268 z m 40.28178,-1.39927 c 1.83006,-0.12771 4.17657,-1.00099 3.83881,-1.42862 -0.32044,-0.40572 -2.8412,-0.28595 -4.6669,0.22172 -1.6147,0.44902 -1.00682,1.33494 0.82809,1.2069 z m -147.14835,-2.46728 c 0.41611,-0.029 1.05277,0.0411 1.41482,0.15599 0.36204,0.11483 0.3178,0.23255 -0.0983,0.26159 -0.41612,0.029 -1.05278,-0.0412 -1.41482,-0.15599 -0.36205,-0.11485 -0.3178,-0.23257 0.0983,-0.26159 z m 23.38417,23.96213 c 0.97563,-0.6252 2.06285,-1.0801 2.41602,-1.01086 0.35319,0.0692 -0.22339,0.6249 -1.28128,1.23483 -2.50103,1.44196 -3.44401,1.25584 -1.13474,-0.22397 z m -20.50558,-32.05955 c 0.62416,-0.0435 1.22064,0.0294 1.32552,0.16222 0.10487,0.13279 -0.32,0.27706 -0.94416,0.32063 -0.62415,0.0435 -1.22064,-0.0295 -1.32552,-0.16223 -0.10487,-0.13278 0.32,-0.27706 0.94416,-0.32062 z m 45.78761,30.68325 c 0.33249,-0.37344 0.69032,-0.57037 0.7952,-0.43758 0.10487,0.13278 -0.0814,0.54696 -0.41383,0.92043 -0.33249,0.37345 -0.69033,0.57035 -0.7952,0.43758 -0.10488,-0.13278 0.0814,-0.54698 0.41383,-0.92043 z m 18.46007,-1.41565 c 0.19272,-0.35362 0.42416,-0.15817 0.69653,0.58822 0.22435,0.6148 0.32081,1.17164 0.21436,1.23745 -0.40348,0.24941 -1.1865,-1.31993 -0.91089,-1.82567 z m 9.14028,6.94557 c 0.31476,0.0627 0.5061,0.26903 0.42516,0.45855 -0.0894,0.20943 -0.31384,0.16475 -0.57228,-0.11396 -0.23384,-0.2522 -0.16766,-0.40727 0.14709,-0.34459 z m -23.66062,-40.7024 c 1.57366,-0.10981 3.25399,0.31635 3.75666,0.95277 0.35949,0.45516 0.0915,0.58057 -1.31136,0.6137 -1.35139,0.0319 -1.9633,-0.13773 -2.61997,-0.72642 -0.58808,-0.52717 -0.53329,-0.79064 0.17467,-0.84005 z m 39.66454,49.60238 c 0.33153,-0.10485 0.95721,-0.0277 1.39037,0.17147 1.06307,0.4888 0.62444,0.65106 -0.81842,0.30275 -0.70041,-0.16907 -0.93136,-0.36057 -0.57195,-0.47422 z m -8.26293,-14.09429 c 0.1835,-0.0128 0.62985,0.0707 0.99189,0.18552 0.36205,0.11484 0.29772,0.23394 -0.14294,0.26471 -0.44066,0.0307 -0.88702,-0.0528 -0.99189,-0.18551 -0.10488,-0.13278 -0.0405,-0.2519 0.14294,-0.26472 z m 3.74135,1.13992 c 0.48092,0.053 1.04601,0.31368 1.25576,0.57923 0.20976,0.26558 -0.0121,0.43947 -0.49304,0.38644 -0.48092,-0.053 -1.04601,-0.31368 -1.25576,-0.57923 -0.20975,-0.26558 0.0121,-0.43947 0.49304,-0.38644 z m 10.21189,8.76507 c 0.82738,-0.50172 1.67925,-0.7326 2.39369,-0.64876 0.82916,0.0973 0.75361,0.30232 -0.29929,0.81217 -1.98843,0.96284 -3.72789,0.82714 -2.0944,-0.16341 z m -2.57739,-5.58421 c 0.78926,-0.0661 1.28116,-0.0403 1.09314,0.0575 -0.18804,0.0978 -0.8338,0.15186 -1.43503,0.12022 -0.6644,-0.035 -0.53031,-0.10466 0.34189,-0.17775 z m -31.541,-52.07572 c 0.77245,-0.0539 1.3596,0.13509 1.68004,0.54079 0.59735,0.75631 -1.24478,0.79752 -2.21164,0.0495 -0.43555,-0.33697 -0.257,-0.53525 0.5316,-0.59028 z m 29.92144,11.03029 c 0.48092,0.053 0.95515,0.19863 1.05384,0.32358 0.0987,0.12494 -0.16102,0.25093 -0.57714,0.27996 -0.4161,0.0291 -0.89033,-0.11656 -1.05383,-0.32357 -0.1635,-0.20701 0.0962,-0.333 0.57713,-0.27997 z m 48.16964,52.23244 c 0.34098,0.15133 0.5555,0.42294 0.47671,0.60354 -0.0788,0.18065 -0.35776,0.0568 -0.61995,-0.27513 -0.26219,-0.33194 -0.19773,-0.47972 0.14324,-0.32841 z m 2.105,-4.62615 c 0.49115,-0.46733 1.95658,0.32938 2.83792,1.5429 l 0.61625,0.84853 -1.61132,-0.65173 c -1.88048,-0.7606 -2.37813,-1.2304 -1.84288,-1.7397 z m -32.86969,-44.54521 c 0.69195,-0.63874 1.80029,-1.26807 2.46297,-1.39853 0.66269,-0.13044 1.58837,-0.43656 2.05706,-0.68025 0.75897,-0.39461 0.90839,-0.37188 1.36632,0.2079 0.4748,0.60114 0.68704,0.62665 2.77227,0.33326 2.95233,-0.41539 4.63079,-0.13569 4.77634,0.79595 0.0928,0.59359 0.47742,0.7507 2.11221,0.86267 1.53924,0.10544 2.2072,0.34927 2.90522,1.06053 0.83534,0.85119 0.73631,0.9488 -1.26311,1.24485 -1.3349,0.19766 -2.3171,0.57558 -2.55311,0.98234 -0.35235,0.6073 -0.67128,0.66718 -3.91973,0.73583 -4.97216,0.1051 -8.09889,-0.44086 -10.2052,-1.78191 -2.08115,-1.32505 -2.00692,-0.98198 -0.51124,-2.36264 z m 31.45517,37.13579 c 0.41031,-0.30157 0.9642,-0.42338 1.35767,-0.29857 0.36554,0.11594 0.0673,0.37689 -0.66272,0.57991 -1.551,0.43129 -1.62421,0.40165 -0.69495,-0.28134 z m 5.23228,-0.01 c 0.62992,-0.0363 1.89996,-0.0201 2.8223,0.036 1.67699,0.10189 1.67699,0.10189 0.17436,0.22076 -0.82645,0.0654 -2.09648,0.0492 -2.8223,-0.036 -1.17305,-0.13764 -1.19242,-0.16216 -0.17436,-0.22076 z m -32.7686,-47.83242 c 0.57485,-0.18181 5.07458,0.7538 5.43134,1.12932 0.0936,0.0985 -0.96462,0.25836 -2.35164,0.35515 -2.30578,0.16092 -2.57159,0.11304 -3.10229,-0.55888 -0.31924,-0.40418 -0.30907,-0.8207 0.0226,-0.92559 z m 9.43651,-5.96413 c 0.48093,0.053 0.95515,0.19863 1.05383,0.32358 0.0987,0.12495 -0.16102,0.25093 -0.57712,0.27997 -0.41611,0.029 -0.89033,-0.11657 -1.05384,-0.32358 -0.1635,-0.20701 0.0962,-0.33299 0.57713,-0.27997 z m 38.46942,45.11591 c 0.77786,-0.006 1.68228,0.12485 2.00982,0.29049 0.38092,0.19263 0.0859,0.30502 -0.81877,0.31187 -0.77786,0.006 -1.68227,-0.12485 -2.00982,-0.2905 -0.38092,-0.19262 -0.0859,-0.30501 0.81877,-0.31186 z m 4.64779,-6.28977 c 0.18604,-0.0967 0.87135,-0.15027 1.5229,-0.11899 0.90897,0.0437 1.04392,0.14871 0.5799,0.45144 -0.3326,0.21699 -0.90351,0.41538 -1.26866,0.44087 -0.74991,0.0523 -1.35077,-0.50471 -0.83414,-0.77332 z"
                                 id="path9168-7" />
                              <path
                                 inkscape:connector-curvature="0"
                                 sodipodi:nodetypes="cccc"
                                 id="path5366"
                                 d="m 413.66051,655.47321 c -4.69581,2.14239 -9.41675,6.54573 -14.14531,11.63396 5.006,-4.73313 10.39394,-9.40407 14.80647,-11.07042 l -0.66116,-0.56354 z"
                                 style="fill:#000000;stroke:none;filter:url(#filter9941)" />
                              <path
                                 inkscape:connector-curvature="0"
                                 sodipodi:nodetypes="cccc"
                                 id="path5366-4"
                                 d="m 416.12394,657.83699 c -4.48154,5.10263 -7.77455,12.93263 -10.70753,21.58879 3.4574,-8.37948 7.40676,-16.8902 11.80488,-21.26875 l -1.09735,-0.32004 z"
                                 style="fill:#000000;stroke:none;filter:url(#filter9953)" />
                              <path
                                 inkscape:connector-curvature="0"
                                 sodipodi:nodetypes="cccc"
                                 id="path5366-4-8"
                                 d="m 430.16828,660.57796 c 1.80235,6.54772 1.34417,15.02964 0.20123,24.09744 0.55034,-9.048 0.71547,-18.42896 -1.32815,-24.28891 l 1.12692,0.19147 z"
                                 style="fill:#000000;stroke:none;filter:url(#filter9937)" />
                              <path
                                 inkscape:connector-curvature="0"
                                 id="path9976-9"
                                 d="m 388.6058,719.75731 19.72278,-37.44525 -18.56033,37.9383 -1.16245,-0.49305 z"
                                 style="fill:#000000;stroke:none" />
                              <path
                                 inkscape:connector-curvature="0"
                                 sodipodi:nodetypes="cccc"
                                 id="path5366-4-1"
                                 d="m 399.05226,722.92817 c 5.74977,-3.61404 11.13746,-10.18104 16.41546,-17.64256 -5.70184,7.04687 -11.91264,14.07934 -17.37612,17.02309 l 0.96066,0.61947 z"
                                 style="fill:#000000;stroke:none" />
                              <path
                                 inkscape:connector-curvature="0"
                                 transform="translate(162.73002,337.70385)"
                                 id="path9578"
                                 d="m 260.8719,289.80895 -5.42957,27.52665 5.05076,2.02031 6.69226,-26.01143 -6.31345,-3.53553 z"
                                 style="opacity:0.74369746;fill:#ffffff;stroke:none;filter:url(#filter9596)" />
                              <path
                                 inkscape:connector-curvature="0"
                                 sodipodi:nodetypes="ccccc"
                                 id="path5007-9-8"
                                 d="m 414.36626,605.18861 -0.86086,12.59529 c 12.10685,13.20227 27.28402,12.91969 40.87811,10.07858 l 6.6199,-11.90783 c -10.1582,5.94985 -32.56883,10.06517 -46.63715,-10.76604 z"
                                 style="color:#000000;fill:url(#linearGradient9628);fill-opacity:1;fill-rule:nonzero;stroke:#000000;stroke-width:1.81735885px;stroke-linecap:butt;stroke-linejoin:miter;stroke-miterlimit:4;stroke-opacity:1;stroke-dasharray:none;stroke-dashoffset:0;marker:none;visibility:visible;display:inline;overflow:visible;enable-background:accumulate" />
                              <path
                                 inkscape:connector-curvature="0"
                                 sodipodi:nodetypes="ccccc"
                                 id="path5007-9-8-8"
                                 d="m 414.36626,605.18861 -0.86086,12.59529 c 12.10685,13.20227 27.28402,12.91969 40.87811,10.07858 l 6.6199,-11.90783 c -10.1582,5.94985 -32.56883,10.06517 -46.63715,-10.76604 z"
                                 style="color:#000000;fill:url(#linearGradient9647);fill-opacity:1;fill-rule:nonzero;stroke:#000000;stroke-width:1.81735885px;stroke-linecap:butt;stroke-linejoin:miter;stroke-miterlimit:4;stroke-opacity:1;stroke-dasharray:none;stroke-dashoffset:0;marker:none;visibility:visible;display:inline;overflow:visible;enable-background:accumulate" />
                              <path
                                 inkscape:connector-curvature="0"
                                 sodipodi:nodetypes="ccccc"
                                 id="path5007-9-8-8-2"
                                 d="m 414.36626,605.18861 -0.86086,12.59529 c 12.10685,13.20227 27.28402,12.91969 40.87811,10.07858 l 6.6199,-11.90783 c -10.1582,5.94985 -32.56883,10.06517 -46.63715,-10.76604 z"
                                 style="opacity:0.51260502;color:#000000;fill:url(#radialGradient9818);fill-opacity:1;fill-rule:nonzero;stroke:#000000;stroke-width:1.81735885px;stroke-linecap:butt;stroke-linejoin:miter;stroke-miterlimit:4;stroke-opacity:1;stroke-dasharray:none;stroke-dashoffset:0;marker:none;visibility:visible;display:inline;overflow:visible;enable-background:accumulate" />
                              <path
                                 inkscape:connector-curvature="0"
                                 sodipodi:nodetypes="cccccc"
                                 id="path5017-4"
                                 transform="matrix(0.9233028,0,0,0.9233028,180.4029,365.18417)"
                                 d="M 267.40625,317.5625 271.5,320.625 c -4.58191,48.37252 -30.03169,70.09228 -60.08194,71.91116 -4.29126,3.73077 -12.09605,2.78572 -24.38681,5.62009 44.16025,4.90447 90.39624,-9.50613 86.5625,-77.28125 l -6.1875,-3.3125 z"
                                 style="color:#000000;fill:#000000;fill-opacity:1;fill-rule:nonzero;stroke:none;stroke-width:1.81735885px;marker:none;visibility:visible;display:inline;overflow:visible;filter:url(#filter9868);enable-background:accumulate" />
                              <path
                                 inkscape:connector-curvature="0"
                                 sodipodi:nodetypes="cccc"
                                 transform="translate(162.73002,337.70385)"
                                 id="path9927"
                                 d="m 250,317.70284 c 0.78142,30.78832 -27.1882,41.52165 -33.03571,68.57143 18.36789,-20.16795 39.11318,-39.77949 35.89285,-65 L 250,317.70284 z"
                                 style="fill:#ffffff;stroke:none;filter:url(#filter9933)" />
                            </g>
                          </g>
                        </g>
                      </g>
                    </g>
                  </g>
                </g>
              </g>
            </g>
          </g>
        </g>
      </g>
    </g>
  </g>
</svg>
