<?xml version="1.0" encoding="UTF-8" standalone="no"?>
<!-- Created with Inkscape (http://www.inkscape.org/) -->

<svg
   xmlns:dc="http://purl.org/dc/elements/1.1/"
   xmlns:cc="http://creativecommons.org/ns#"
   xmlns:rdf="http://www.w3.org/1999/02/22-rdf-syntax-ns#"
   xmlns:svg="http://www.w3.org/2000/svg"
   xmlns="http://www.w3.org/2000/svg"
   xmlns:xlink="http://www.w3.org/1999/xlink"
   xmlns:sodipodi="http://sodipodi.sourceforge.net/DTD/sodipodi-0.dtd"
   xmlns:inkscape="http://www.inkscape.org/namespaces/inkscape"
   width="269.22873"
   height="271.22556"
   id="svg3266"
   version="1.1"
   inkscape:version="0.48.3.1 r9886"
   sodipodi:docname="vela.svg">
  <defs
     id="defs3268">
    <linearGradient
       inkscape:collect="always"
       xlink:href="#linearGradient6669"
       id="linearGradient6675"
       x1="-409.63589"
       y1="2405.2412"
       x2="207.06407"
       y2="2405.2412"
       gradientUnits="userSpaceOnUse" />
    <linearGradient
       inkscape:collect="always"
       id="linearGradient6669">
      <stop
         style="stop-color:#000000;stop-opacity:1;"
         offset="0"
         id="stop6671" />
      <stop
         style="stop-color:#000000;stop-opacity:0;"
         offset="1"
         id="stop6673" />
    </linearGradient>
    <linearGradient
       inkscape:collect="always"
       xlink:href="#linearGradient6669"
       id="linearGradient3288"
       x1="-409.63589"
       y1="2405.2412"
       x2="207.06407"
       y2="2405.2412"
       gradientUnits="userSpaceOnUse" />
    <linearGradient
       inkscape:collect="always"
       xlink:href="#linearGradient6669"
       id="linearGradient3296"
       x1="-409.63589"
       y1="2405.2412"
       x2="207.06407"
       y2="2405.2412"
       gradientUnits="userSpaceOnUse" />
    <linearGradient
       gradientUnits="userSpaceOnUse"
       xlink:href="#linearGradient5325-92-2-4"
       id="linearGradient6131-4-4"
       y2="746.78821"
       x2="-630.68909"
       y1="746.78821"
       x1="-654.87616" />
    <linearGradient
       id="linearGradient5325-92-2-4">
      <stop
         offset="0"
         style="stop-color:#000000;stop-opacity:1"
         id="stop5327-2-9-0" />
      <stop
         offset="1"
         style="stop-color:#000000;stop-opacity:0"
         id="stop5329-47-9-3" />
    </linearGradient>
    <linearGradient
       gradientTransform="translate(897.43131,-162.73819)"
       gradientUnits="userSpaceOnUse"
       xlink:href="#linearGradient5325-9-5-2-3"
       id="linearGradient6133-8-8"
       y2="746.78821"
       x2="-630.68909"
       y1="746.78821"
       x1="-654.87616" />
    <linearGradient
       id="linearGradient5325-9-5-2-3">
      <stop
         offset="0"
         style="stop-color:#000000;stop-opacity:1"
         id="stop5327-6-4-1-0" />
      <stop
         offset="1"
         style="stop-color:#000000;stop-opacity:0"
         id="stop5329-4-8-3-9" />
    </linearGradient>
    <filter
       color-interpolation-filters="sRGB"
       inkscape:collect="always"
       id="filter6585-8-9">
      <feGaussianBlur
         inkscape:collect="always"
         stdDeviation="2.0134725"
         id="feGaussianBlur6587-8-4" />
    </filter>
    <filter
       color-interpolation-filters="sRGB"
       inkscape:collect="always"
       id="filter6686-0-3"
       x="-0.14261886"
       width="1.2852377"
       y="-0.1093168"
       height="1.2186337">
      <feGaussianBlur
         inkscape:collect="always"
         stdDeviation="2.7933996"
         id="feGaussianBlur6688-8-8" />
    </filter>
    <filter
       color-interpolation-filters="sRGB"
       inkscape:collect="always"
       id="filter6748-2-2"
       x="-0.11093106"
       width="1.2218621"
       y="-0.077832296"
       height="1.1556646">
      <feGaussianBlur
         inkscape:collect="always"
         stdDeviation="2.0831602"
         id="feGaussianBlur6750-3-9" />
    </filter>
    <filter
       color-interpolation-filters="sRGB"
       inkscape:collect="always"
       id="filter6821-0-6"
       x="-0.11781558"
       width="1.2356312"
       y="-0.090305179"
       height="1.1806104">
      <feGaussianBlur
         inkscape:collect="always"
         stdDeviation="2.307591"
         id="feGaussianBlur6823-5-4" />
    </filter>
    <linearGradient
       inkscape:collect="always"
       xlink:href="#linearGradient12398"
       id="linearGradient12835"
       gradientUnits="userSpaceOnUse"
       gradientTransform="matrix(0.25,0,0,0.25,287.79463,-989.85336)"
       x1="-165.35938"
       y1="5225.3457"
       x2="16.234104"
       y2="5371.1865" />
    <linearGradient
       inkscape:collect="always"
       id="linearGradient12398">
      <stop
         style="stop-color:#ffffff;stop-opacity:1;"
         offset="0"
         id="stop12400" />
      <stop
         style="stop-color:#ffffff;stop-opacity:0;"
         offset="1"
         id="stop12402" />
    </linearGradient>
    <linearGradient
       inkscape:collect="always"
       xlink:href="#linearGradient12431-81"
       id="linearGradient12837"
       gradientUnits="userSpaceOnUse"
       gradientTransform="matrix(0.25,0,0,0.25,287.79463,-989.85336)"
       x1="146.25122"
       y1="5654.1284"
       x2="146.25122"
       y2="5409.894" />
    <linearGradient
       inkscape:collect="always"
       id="linearGradient12431-81">
      <stop
         style="stop-color:#000000;stop-opacity:1;"
         offset="0"
         id="stop12433-2" />
      <stop
         style="stop-color:#000000;stop-opacity:0;"
         offset="1"
         id="stop12435-1" />
    </linearGradient>
  </defs>
  <sodipodi:namedview
     id="base"
     pagecolor="#ffffff"
     bordercolor="#666666"
     borderopacity="1.0"
     inkscape:pageopacity="0.0"
     inkscape:pageshadow="2"
     inkscape:zoom="0.35"
     inkscape:cx="134.61438"
     inkscape:cy="135.61278"
     inkscape:document-units="px"
     inkscape:current-layer="layer1"
     showgrid="false"
     fit-margin-top="0"
     fit-margin-left="0"
     fit-margin-right="0"
     fit-margin-bottom="0"
     inkscape:window-width="597"
     inkscape:window-height="586"
     inkscape:window-x="65"
     inkscape:window-y="24"
     inkscape:window-maximized="0" />
  <metadata
     id="metadata3271">
    <rdf:RDF>
      <cc:Work
         rdf:about="">
        <dc:format>image/svg+xml</dc:format>
        <dc:type
           rdf:resource="http://purl.org/dc/dcmitype/StillImage" />
        <dc:title></dc:title>
      </cc:Work>
    </rdf:RDF>
  </metadata>
  <g
     inkscape:label="Capa 1"
     inkscape:groupmode="layer"
     id="layer1"
     transform="translate(-215.38562,-396.74943)">
    <g
       transform="translate(-169.76139,276.39447)"
       id="layer1-7"
       inkscape:label="Capa 1">
      <g
         transform="translate(206.15942,-101.75712)"
         id="layer1-5"
         inkscape:label="Layer 1">
        <g
           id="g3153"
           transform="matrix(1.1823924,0,0,1.1823924,-34.247148,-69.395081)">
          <g
             inkscape:label="Capa 1"
             id="layer1-6"
             transform="matrix(0.84574292,0,0,0.84574292,39.400158,63.137352)">
            <g
               id="g12839">
              <g
                 id="g12801">
                <g
                   id="g8336-3-4-1"
                   transform="matrix(0.24035496,-0.06877132,0.06877132,0.24035496,-298.90531,-633.40172)"
                   style="opacity:0.39631336;fill:#000000;stroke:#000000">
                  <path
                     inkscape:connector-curvature="0"
                     id="rect8239-1-0-9"
                     transform="translate(0,308.2677)"
                     d="m 831.71875,3704.0625 c 0.3345,2.2978 0.53125,4.6407 0.53125,7.0313 0,-2.3906 0.19675,-4.7335 0.53125,-7.0313 l -1.0625,0 z m 0.53125,7.0313 c 0,25.9153 -20.34458,47.0776 -45.9375,48.375 -0.82558,0.042 -1.66402,0.062 -2.5,0.062 26.7513,0 48.4375,21.6863 48.4375,48.4376 0,26.7512 -21.6862,48.4374 -48.4375,48.4374 26.7513,0 48.4375,21.6863 48.4375,48.4376 0,26.7512 -21.6862,48.4374 -48.4375,48.4374 26.7513,0 48.4375,21.6863 48.4375,48.4376 0,26.7512 -21.6862,48.4374 -48.4375,48.4374 26.7513,0 48.4375,21.6863 48.4375,48.4376 0,26.7512 -21.6862,48.4374 -48.4375,48.4374 26.7513,0 48.4375,21.6863 48.4375,48.4376 0,26.7512 -21.6862,48.4374 -48.4375,48.4374 26.7513,0 48.4375,21.6863 48.4375,48.4376 0,26.7512 -21.6862,48.4374 -48.4375,48.4374 26.7513,0 48.4375,21.6863 48.4375,48.4376 0,26.7512 -21.6862,48.4374 -48.4375,48.4374 26.7513,0 48.4375,21.6863 48.4375,48.4376 0,26.7512 -21.6862,48.4374 -48.4375,48.4374 26.7513,0 48.4375,21.6863 48.4375,48.4376 0,-26.7513 21.6862,-48.4376 48.4375,-48.4376 26.7513,0 48.4375,21.6863 48.4375,48.4376 0,-26.7513 21.6862,-48.4376 48.4375,-48.4376 26.7513,0 48.4375,21.6863 48.4375,48.4376 0,-26.7513 21.6862,-48.4376 48.4375,-48.4376 26.7513,0 48.4375,21.6863 48.4375,48.4376 0,-26.7513 21.6862,-48.4376 48.4375,-48.4376 26.7513,0 48.4375,21.6863 48.4375,48.4376 0,-26.7513 21.6862,-48.4376 48.4375,-48.4376 26.7513,0 48.4375,21.6863 48.4375,48.4376 0,-26.7513 21.6862,-48.4376 48.4375,-48.4376 26.7513,0 48.4375,21.6863 48.4375,48.4376 0,-26.7513 21.6862,-48.4376 48.4375,-48.4376 26.7513,0 48.4375,21.6863 48.4375,48.4376 0,-26.7513 21.6862,-48.4376 48.4375,-48.4376 26.7513,0 48.4375,21.6863 48.4375,48.4376 0,-26.7513 21.6862,-48.4376 48.4375,-48.4376 -26.7513,0 -48.4375,-21.6862 -48.4375,-48.4374 0,-26.7513 21.6862,-48.4376 48.4375,-48.4376 -26.7513,0 -48.4375,-21.6862 -48.4375,-48.4374 0,-26.7513 21.6862,-48.4376 48.4375,-48.4376 -26.7513,0 -48.4375,-21.6862 -48.4375,-48.4374 0,-26.7513 21.6862,-48.4376 48.4375,-48.4376 -26.7513,0 -48.4375,-21.6862 -48.4375,-48.4374 0,-26.7513 21.6862,-48.4376 48.4375,-48.4376 -26.7513,0 -48.4375,-21.6862 -48.4375,-48.4374 0,-26.7513 21.6862,-48.4376 48.4375,-48.4376 -26.7513,0 -48.4375,-21.6862 -48.4375,-48.4374 0,-26.7513 21.6862,-48.4376 48.4375,-48.4376 -26.7513,0 -48.4375,-21.6862 -48.4375,-48.4374 0,-26.7513 21.6862,-48.4376 48.4375,-48.4376 -26.7513,0 -48.4375,-21.6862 -48.4375,-48.4374 0,-26.7513 21.6862,-48.4376 48.4375,-48.4376 -26.7513,0 -48.4375,-21.6862 -48.4375,-48.4374 0,26.7512 -21.6862,48.4374 -48.4375,48.4374 -26.7513,0 -48.4375,-21.6862 -48.4375,-48.4374 0,26.7512 -21.6862,48.4374 -48.4375,48.4374 -26.7513,0 -48.4375,-21.6862 -48.4375,-48.4374 0,26.7512 -21.6862,48.4374 -48.4375,48.4374 -26.7513,0 -48.4375,-21.6862 -48.4375,-48.4374 0,26.7512 -21.6862,48.4374 -48.4375,48.4374 -26.7513,0 -48.4375,-21.6862 -48.4375,-48.4374 0,26.7512 -21.6862,48.4374 -48.4375,48.4374 -26.7513,0 -48.4375,-21.6862 -48.4375,-48.4374 0,26.7512 -21.6862,48.4374 -48.4375,48.4374 -26.7513,0 -48.4375,-21.6862 -48.4375,-48.4374 0,26.7512 -21.6862,48.4374 -48.4375,48.4374 -26.7513,0 -48.4375,-21.6862 -48.4375,-48.4374 0,26.7512 -21.6862,48.4374 -48.4375,48.4374 -26.7513,0 -48.4375,-21.6862 -48.4375,-48.4374 z m 96.875,0 c 0,-2.3906 0.19675,-4.7335 0.53125,-7.0313 l -1.0625,0 c 0.3345,2.2978 0.53125,4.6407 0.53125,7.0313 z m 96.875,0 c 0,-2.3906 0.1967,-4.7335 0.5312,-7.0313 l -1.0624,0 c 0.3345,2.2978 0.5312,4.6407 0.5312,7.0313 z m 96.875,0 c 0,-2.3906 0.1967,-4.7335 0.5312,-7.0313 l -1.0624,0 c 0.3345,2.2978 0.5312,4.6407 0.5312,7.0313 z m 96.875,0 c 0,-2.3906 0.1967,-4.7335 0.5312,-7.0313 l -1.0624,0 c 0.3345,2.2978 0.5312,4.6407 0.5312,7.0313 z m 96.875,0 c 0,-2.3906 0.1967,-4.7335 0.5312,-7.0313 l -1.0624,0 c 0.3345,2.2978 0.5312,4.6407 0.5312,7.0313 z m 96.875,0 c 0,-2.3906 0.1967,-4.7335 0.5312,-7.0313 l -1.0624,0 c 0.3345,2.2978 0.5312,4.6407 0.5312,7.0313 z m 96.875,0 c 0,-2.3906 0.1967,-4.7335 0.5312,-7.0313 l -1.0624,0 c 0.3345,2.2978 0.5312,4.6407 0.5312,7.0313 z m 96.875,0 c 0,-2.3906 0.1967,-4.7335 0.5312,-7.0313 l -1.0624,0 c 0.3345,2.2978 0.5312,4.6407 0.5312,7.0313 z m 48.4375,48.4374 c 1.7374,0 3.4661,0.1029 5.1563,0.2813 l 0,-0.5625 c -1.6902,0.1784 -3.4188,0.2812 -5.1563,0.2812 z m 0,96.875 c 1.7374,0 3.4661,0.1029 5.1563,0.2813 l 0,-0.5625 c -1.6902,0.1784 -3.4188,0.2812 -5.1563,0.2812 z m 0,96.875 c 1.7374,0 3.4661,0.1029 5.1563,0.2813 l 0,-0.5625 c -1.6902,0.1784 -3.4188,0.2812 -5.1563,0.2812 z m 0,96.875 c 1.7374,0 3.4661,0.1029 5.1563,0.2813 l 0,-0.5625 c -1.6902,0.1784 -3.4188,0.2812 -5.1563,0.2812 z m 0,96.875 c 1.7374,0 3.4661,0.1029 5.1563,0.2813 l 0,-0.5625 c -1.6902,0.1784 -3.4188,0.2812 -5.1563,0.2812 z m 0,96.875 c 1.7374,0 3.4661,0.1029 5.1563,0.2813 l 0,-0.5625 c -1.6902,0.1784 -3.4188,0.2812 -5.1563,0.2812 z m 0,96.875 c 1.7374,0 3.4661,0.1029 5.1563,0.2813 l 0,-0.5625 c -1.6902,0.1784 -3.4188,0.2812 -5.1563,0.2812 z m 0,96.875 c 1.7374,0 3.4661,0.1029 5.1563,0.2813 l 0,-0.5625 c -1.6902,0.1784 -3.4188,0.2812 -5.1563,0.2812 z m 0,96.875 c 1.7374,0 3.4661,0.1029 5.1563,0.2813 l 0,-0.5625 c -1.6902,0.1784 -3.4188,0.2812 -5.1563,0.2812 z m -48.4375,48.4376 c 0,2.3905 -0.1967,4.7646 -0.5312,7.0624 l 1.0624,0 c -0.3345,-2.2978 -0.5312,-4.6719 -0.5312,-7.0624 z m -96.875,0 c 0,2.3905 -0.1967,4.7646 -0.5312,7.0624 l 1.0624,0 c -0.3345,-2.2978 -0.5312,-4.6719 -0.5312,-7.0624 z m -96.875,0 c 0,2.3905 -0.1967,4.7646 -0.5312,7.0624 l 1.0624,0 c -0.3345,-2.2978 -0.5312,-4.6719 -0.5312,-7.0624 z m -96.875,0 c 0,2.3905 -0.1967,4.7646 -0.5312,7.0624 l 1.0624,0 c -0.3345,-2.2978 -0.5312,-4.6719 -0.5312,-7.0624 z m -96.875,0 c 0,2.3905 -0.1967,4.7646 -0.5312,7.0624 l 1.0624,0 c -0.3345,-2.2978 -0.5312,-4.6719 -0.5312,-7.0624 z m -96.875,0 c 0,2.3905 -0.1967,4.7646 -0.5312,7.0624 l 1.0624,0 c -0.3345,-2.2978 -0.5312,-4.6719 -0.5312,-7.0624 z m -96.875,0 c 0,2.3905 -0.1967,4.7646 -0.5312,7.0624 l 1.0624,0 c -0.3345,-2.2978 -0.5312,-4.6719 -0.5312,-7.0624 z m -96.875,0 c 0,2.3905 -0.19675,4.7646 -0.53125,7.0624 l 1.0625,0 c -0.3345,-2.2978 -0.53125,-4.6719 -0.53125,-7.0624 z m -96.875,0 c 0,2.3905 -0.19675,4.7646 -0.53125,7.0624 l 1.0625,0 c -0.3345,-2.2978 -0.53125,-4.6719 -0.53125,-7.0624 z m -48.4375,-48.4376 c -1.73664,0 -3.4356,-0.103 -5.125,-0.2812 l 0,0.5625 c 1.68934,-0.1782 3.38843,-0.2813 5.125,-0.2813 z m 0,-96.875 c -1.73664,0 -3.4356,-0.103 -5.125,-0.2812 l 0,0.5625 c 1.68934,-0.1782 3.38843,-0.2813 5.125,-0.2813 z m 0,-96.875 c -1.73664,0 -3.4356,-0.103 -5.125,-0.2812 l 0,0.5625 c 1.68934,-0.1782 3.38843,-0.2813 5.125,-0.2813 z m 0,-96.875 c -1.73664,0 -3.4356,-0.103 -5.125,-0.2812 l 0,0.5625 c 1.68934,-0.1782 3.38843,-0.2813 5.125,-0.2813 z m 0,-96.875 c -1.73664,0 -3.4356,-0.103 -5.125,-0.2812 l 0,0.5625 c 1.68934,-0.1782 3.38843,-0.2813 5.125,-0.2813 z m 0,-96.875 c -1.73664,0 -3.4356,-0.103 -5.125,-0.2812 l 0,0.5625 c 1.68934,-0.1782 3.38843,-0.2813 5.125,-0.2813 z m 0,-96.875 c -1.73664,0 -3.4356,-0.103 -5.125,-0.2812 l 0,0.5625 c 1.68934,-0.1782 3.38843,-0.2813 5.125,-0.2813 z m 0,-96.875 c -1.73664,0 -3.4356,-0.103 -5.125,-0.2812 l 0,0.5625 c 1.68934,-0.1782 3.38843,-0.2813 5.125,-0.2813 z m 0,-96.875 c -0.83598,0 -1.64317,-0.021 -2.46875,-0.062 -0.88945,-0.045 -1.78009,-0.1264 -2.65625,-0.2188 l 0,0.5625 c 1.68934,-0.1782 3.38843,-0.2813 5.125,-0.2813 z"
                     style="color:#000000;fill:#000000;fill-opacity:1;fill-rule:nonzero;stroke:#000000;stroke-width:8.45240688;marker:none;visibility:visible;display:inline;overflow:visible;enable-background:accumulate" />
                  <rect
                     y="4118.2798"
                     x="884.9353"
                     height="652.54395"
                     width="670.75439"
                     id="rect8253-8-5-6"
                     style="color:#000000;fill:#000000;fill-opacity:1;fill-rule:nonzero;stroke:#000000;stroke-width:8.45240688;stroke-linecap:butt;stroke-linejoin:miter;stroke-miterlimit:4;stroke-opacity:1;stroke-dasharray:none;stroke-dashoffset:0;marker:none;visibility:visible;display:inline;overflow:visible;enable-background:accumulate" />
                </g>
                <g
                   id="g8336-3-4"
                   transform="matrix(0.24035496,-0.06877132,0.06877132,0.24035496,-297.7164,-635.61093)">
                  <path
                     inkscape:connector-curvature="0"
                     id="rect8239-1-0"
                     transform="translate(0,308.2677)"
                     d="m 831.71875,3704.0625 c 0.3345,2.2978 0.53125,4.6407 0.53125,7.0313 0,-2.3906 0.19675,-4.7335 0.53125,-7.0313 l -1.0625,0 z m 0.53125,7.0313 c 0,25.9153 -20.34458,47.0776 -45.9375,48.375 -0.82558,0.042 -1.66402,0.062 -2.5,0.062 26.7513,0 48.4375,21.6863 48.4375,48.4376 0,26.7512 -21.6862,48.4374 -48.4375,48.4374 26.7513,0 48.4375,21.6863 48.4375,48.4376 0,26.7512 -21.6862,48.4374 -48.4375,48.4374 26.7513,0 48.4375,21.6863 48.4375,48.4376 0,26.7512 -21.6862,48.4374 -48.4375,48.4374 26.7513,0 48.4375,21.6863 48.4375,48.4376 0,26.7512 -21.6862,48.4374 -48.4375,48.4374 26.7513,0 48.4375,21.6863 48.4375,48.4376 0,26.7512 -21.6862,48.4374 -48.4375,48.4374 26.7513,0 48.4375,21.6863 48.4375,48.4376 0,26.7512 -21.6862,48.4374 -48.4375,48.4374 26.7513,0 48.4375,21.6863 48.4375,48.4376 0,26.7512 -21.6862,48.4374 -48.4375,48.4374 26.7513,0 48.4375,21.6863 48.4375,48.4376 0,26.7512 -21.6862,48.4374 -48.4375,48.4374 26.7513,0 48.4375,21.6863 48.4375,48.4376 0,-26.7513 21.6862,-48.4376 48.4375,-48.4376 26.7513,0 48.4375,21.6863 48.4375,48.4376 0,-26.7513 21.6862,-48.4376 48.4375,-48.4376 26.7513,0 48.4375,21.6863 48.4375,48.4376 0,-26.7513 21.6862,-48.4376 48.4375,-48.4376 26.7513,0 48.4375,21.6863 48.4375,48.4376 0,-26.7513 21.6862,-48.4376 48.4375,-48.4376 26.7513,0 48.4375,21.6863 48.4375,48.4376 0,-26.7513 21.6862,-48.4376 48.4375,-48.4376 26.7513,0 48.4375,21.6863 48.4375,48.4376 0,-26.7513 21.6862,-48.4376 48.4375,-48.4376 26.7513,0 48.4375,21.6863 48.4375,48.4376 0,-26.7513 21.6862,-48.4376 48.4375,-48.4376 26.7513,0 48.4375,21.6863 48.4375,48.4376 0,-26.7513 21.6862,-48.4376 48.4375,-48.4376 26.7513,0 48.4375,21.6863 48.4375,48.4376 0,-26.7513 21.6862,-48.4376 48.4375,-48.4376 -26.7513,0 -48.4375,-21.6862 -48.4375,-48.4374 0,-26.7513 21.6862,-48.4376 48.4375,-48.4376 -26.7513,0 -48.4375,-21.6862 -48.4375,-48.4374 0,-26.7513 21.6862,-48.4376 48.4375,-48.4376 -26.7513,0 -48.4375,-21.6862 -48.4375,-48.4374 0,-26.7513 21.6862,-48.4376 48.4375,-48.4376 -26.7513,0 -48.4375,-21.6862 -48.4375,-48.4374 0,-26.7513 21.6862,-48.4376 48.4375,-48.4376 -26.7513,0 -48.4375,-21.6862 -48.4375,-48.4374 0,-26.7513 21.6862,-48.4376 48.4375,-48.4376 -26.7513,0 -48.4375,-21.6862 -48.4375,-48.4374 0,-26.7513 21.6862,-48.4376 48.4375,-48.4376 -26.7513,0 -48.4375,-21.6862 -48.4375,-48.4374 0,-26.7513 21.6862,-48.4376 48.4375,-48.4376 -26.7513,0 -48.4375,-21.6862 -48.4375,-48.4374 0,-26.7513 21.6862,-48.4376 48.4375,-48.4376 -26.7513,0 -48.4375,-21.6862 -48.4375,-48.4374 0,26.7512 -21.6862,48.4374 -48.4375,48.4374 -26.7513,0 -48.4375,-21.6862 -48.4375,-48.4374 0,26.7512 -21.6862,48.4374 -48.4375,48.4374 -26.7513,0 -48.4375,-21.6862 -48.4375,-48.4374 0,26.7512 -21.6862,48.4374 -48.4375,48.4374 -26.7513,0 -48.4375,-21.6862 -48.4375,-48.4374 0,26.7512 -21.6862,48.4374 -48.4375,48.4374 -26.7513,0 -48.4375,-21.6862 -48.4375,-48.4374 0,26.7512 -21.6862,48.4374 -48.4375,48.4374 -26.7513,0 -48.4375,-21.6862 -48.4375,-48.4374 0,26.7512 -21.6862,48.4374 -48.4375,48.4374 -26.7513,0 -48.4375,-21.6862 -48.4375,-48.4374 0,26.7512 -21.6862,48.4374 -48.4375,48.4374 -26.7513,0 -48.4375,-21.6862 -48.4375,-48.4374 0,26.7512 -21.6862,48.4374 -48.4375,48.4374 -26.7513,0 -48.4375,-21.6862 -48.4375,-48.4374 z m 96.875,0 c 0,-2.3906 0.19675,-4.7335 0.53125,-7.0313 l -1.0625,0 c 0.3345,2.2978 0.53125,4.6407 0.53125,7.0313 z m 96.875,0 c 0,-2.3906 0.1967,-4.7335 0.5312,-7.0313 l -1.0624,0 c 0.3345,2.2978 0.5312,4.6407 0.5312,7.0313 z m 96.875,0 c 0,-2.3906 0.1967,-4.7335 0.5312,-7.0313 l -1.0624,0 c 0.3345,2.2978 0.5312,4.6407 0.5312,7.0313 z m 96.875,0 c 0,-2.3906 0.1967,-4.7335 0.5312,-7.0313 l -1.0624,0 c 0.3345,2.2978 0.5312,4.6407 0.5312,7.0313 z m 96.875,0 c 0,-2.3906 0.1967,-4.7335 0.5312,-7.0313 l -1.0624,0 c 0.3345,2.2978 0.5312,4.6407 0.5312,7.0313 z m 96.875,0 c 0,-2.3906 0.1967,-4.7335 0.5312,-7.0313 l -1.0624,0 c 0.3345,2.2978 0.5312,4.6407 0.5312,7.0313 z m 96.875,0 c 0,-2.3906 0.1967,-4.7335 0.5312,-7.0313 l -1.0624,0 c 0.3345,2.2978 0.5312,4.6407 0.5312,7.0313 z m 96.875,0 c 0,-2.3906 0.1967,-4.7335 0.5312,-7.0313 l -1.0624,0 c 0.3345,2.2978 0.5312,4.6407 0.5312,7.0313 z m 48.4375,48.4374 c 1.7374,0 3.4661,0.1029 5.1563,0.2813 l 0,-0.5625 c -1.6902,0.1784 -3.4188,0.2812 -5.1563,0.2812 z m 0,96.875 c 1.7374,0 3.4661,0.1029 5.1563,0.2813 l 0,-0.5625 c -1.6902,0.1784 -3.4188,0.2812 -5.1563,0.2812 z m 0,96.875 c 1.7374,0 3.4661,0.1029 5.1563,0.2813 l 0,-0.5625 c -1.6902,0.1784 -3.4188,0.2812 -5.1563,0.2812 z m 0,96.875 c 1.7374,0 3.4661,0.1029 5.1563,0.2813 l 0,-0.5625 c -1.6902,0.1784 -3.4188,0.2812 -5.1563,0.2812 z m 0,96.875 c 1.7374,0 3.4661,0.1029 5.1563,0.2813 l 0,-0.5625 c -1.6902,0.1784 -3.4188,0.2812 -5.1563,0.2812 z m 0,96.875 c 1.7374,0 3.4661,0.1029 5.1563,0.2813 l 0,-0.5625 c -1.6902,0.1784 -3.4188,0.2812 -5.1563,0.2812 z m 0,96.875 c 1.7374,0 3.4661,0.1029 5.1563,0.2813 l 0,-0.5625 c -1.6902,0.1784 -3.4188,0.2812 -5.1563,0.2812 z m 0,96.875 c 1.7374,0 3.4661,0.1029 5.1563,0.2813 l 0,-0.5625 c -1.6902,0.1784 -3.4188,0.2812 -5.1563,0.2812 z m 0,96.875 c 1.7374,0 3.4661,0.1029 5.1563,0.2813 l 0,-0.5625 c -1.6902,0.1784 -3.4188,0.2812 -5.1563,0.2812 z m -48.4375,48.4376 c 0,2.3905 -0.1967,4.7646 -0.5312,7.0624 l 1.0624,0 c -0.3345,-2.2978 -0.5312,-4.6719 -0.5312,-7.0624 z m -96.875,0 c 0,2.3905 -0.1967,4.7646 -0.5312,7.0624 l 1.0624,0 c -0.3345,-2.2978 -0.5312,-4.6719 -0.5312,-7.0624 z m -96.875,0 c 0,2.3905 -0.1967,4.7646 -0.5312,7.0624 l 1.0624,0 c -0.3345,-2.2978 -0.5312,-4.6719 -0.5312,-7.0624 z m -96.875,0 c 0,2.3905 -0.1967,4.7646 -0.5312,7.0624 l 1.0624,0 c -0.3345,-2.2978 -0.5312,-4.6719 -0.5312,-7.0624 z m -96.875,0 c 0,2.3905 -0.1967,4.7646 -0.5312,7.0624 l 1.0624,0 c -0.3345,-2.2978 -0.5312,-4.6719 -0.5312,-7.0624 z m -96.875,0 c 0,2.3905 -0.1967,4.7646 -0.5312,7.0624 l 1.0624,0 c -0.3345,-2.2978 -0.5312,-4.6719 -0.5312,-7.0624 z m -96.875,0 c 0,2.3905 -0.1967,4.7646 -0.5312,7.0624 l 1.0624,0 c -0.3345,-2.2978 -0.5312,-4.6719 -0.5312,-7.0624 z m -96.875,0 c 0,2.3905 -0.19675,4.7646 -0.53125,7.0624 l 1.0625,0 c -0.3345,-2.2978 -0.53125,-4.6719 -0.53125,-7.0624 z m -96.875,0 c 0,2.3905 -0.19675,4.7646 -0.53125,7.0624 l 1.0625,0 c -0.3345,-2.2978 -0.53125,-4.6719 -0.53125,-7.0624 z m -48.4375,-48.4376 c -1.73664,0 -3.4356,-0.103 -5.125,-0.2812 l 0,0.5625 c 1.68934,-0.1782 3.38843,-0.2813 5.125,-0.2813 z m 0,-96.875 c -1.73664,0 -3.4356,-0.103 -5.125,-0.2812 l 0,0.5625 c 1.68934,-0.1782 3.38843,-0.2813 5.125,-0.2813 z m 0,-96.875 c -1.73664,0 -3.4356,-0.103 -5.125,-0.2812 l 0,0.5625 c 1.68934,-0.1782 3.38843,-0.2813 5.125,-0.2813 z m 0,-96.875 c -1.73664,0 -3.4356,-0.103 -5.125,-0.2812 l 0,0.5625 c 1.68934,-0.1782 3.38843,-0.2813 5.125,-0.2813 z m 0,-96.875 c -1.73664,0 -3.4356,-0.103 -5.125,-0.2812 l 0,0.5625 c 1.68934,-0.1782 3.38843,-0.2813 5.125,-0.2813 z m 0,-96.875 c -1.73664,0 -3.4356,-0.103 -5.125,-0.2812 l 0,0.5625 c 1.68934,-0.1782 3.38843,-0.2813 5.125,-0.2813 z m 0,-96.875 c -1.73664,0 -3.4356,-0.103 -5.125,-0.2812 l 0,0.5625 c 1.68934,-0.1782 3.38843,-0.2813 5.125,-0.2813 z m 0,-96.875 c -1.73664,0 -3.4356,-0.103 -5.125,-0.2812 l 0,0.5625 c 1.68934,-0.1782 3.38843,-0.2813 5.125,-0.2813 z m 0,-96.875 c -0.83598,0 -1.64317,-0.021 -2.46875,-0.062 -0.88945,-0.045 -1.78009,-0.1264 -2.65625,-0.2188 l 0,0.5625 c 1.68934,-0.1782 3.38843,-0.2813 5.125,-0.2813 z"
                     style="color:#000000;fill:#c8beb7;fill-opacity:1;fill-rule:nonzero;stroke:#000000;stroke-width:8.45240688;marker:none;visibility:visible;display:inline;overflow:visible;enable-background:accumulate" />
                  <rect
                     y="4118.2798"
                     x="884.9353"
                     height="652.54395"
                     width="670.75439"
                     id="rect8253-8-5"
                     style="color:#000000;fill:#916f6f;fill-opacity:1;fill-rule:nonzero;stroke:#000000;stroke-width:8.45240688;stroke-linecap:butt;stroke-linejoin:miter;stroke-miterlimit:4;stroke-opacity:1;stroke-dasharray:none;stroke-dashoffset:0;marker:none;visibility:visible;display:inline;overflow:visible;enable-background:accumulate" />
                </g>
                <g
                   id="g11665-9-9"
                   transform="matrix(0.0872095,-0.02495273,0.02495273,0.0872095,-11.360495,-140.25816)"
                   style="color:#000000;fill:#ffffff;fill-opacity:1;fill-rule:nonzero;stroke:#000000;stroke-width:23.29537392;stroke-linecap:butt;stroke-linejoin:miter;stroke-miterlimit:4;stroke-opacity:1;stroke-dasharray:none;stroke-dashoffset:0;marker:none;visibility:visible;display:inline;overflow:visible;enable-background:accumulate">
                  <path
                     transform="matrix(4.1070038,0,0,3.9110521,-7616.2311,4059.8978)"
                     d="m 2377.0573,458.67957 c 0,81.68466 -63.3165,147.90316 -141.4213,147.90316 -78.1049,0 -141.4214,-66.2185 -141.4214,-147.90316 0,-81.68467 63.3165,-147.90317 141.4214,-147.90317 78.1048,0 141.4213,66.2185 141.4213,147.90317 z"
                     sodipodi:ry="147.90317"
                     sodipodi:rx="141.42136"
                     sodipodi:cy="458.67957"
                     sodipodi:cx="2235.636"
                     id="path11705-6-4"
                     style="color:#000000;fill:#0088aa;fill-opacity:1;fill-rule:nonzero;stroke:#000000;stroke-width:5.81246519;stroke-linecap:butt;stroke-linejoin:miter;stroke-miterlimit:4;stroke-opacity:1;stroke-dasharray:none;stroke-dashoffset:0;marker:none;visibility:visible;display:inline;overflow:visible;enable-background:accumulate"
                     sodipodi:type="arc" />
                  <path
                     inkscape:connector-curvature="0"
                     sodipodi:nodetypes="ccccccccccccccccccccccccccccccccccccccccccccccccccccccccccsccccccccccccccccccccccccccsccccccccccccccccccccccccccccccccccccccccccccccccc"
                     id="path11664-4-6"
                     d="m 1160.2154,5437.4005 88.2091,-70.0844 18.3336,15.8334 0.8332,-9.1667 19.1668,-5 -21.6668,-8.3333 87.5,-48.3334 -20.8332,28.3334 47.5,29.1666 33.3332,0.8334 0,13.3333 44.1668,8.3333 -38.3336,0.8334 -10,11.6667 25,13.3333 -10,0.8333 -40,-8.3333 -15,-10 13.3336,-18.3334 -18.3336,5 -7.5,-16.6666 -36.6664,2.5 -1.6668,18.3333 -12.5,0 19.1668,17.5 -30,5 -2.5,-12.5 -32.5,4.1667 -22.5,32.5 20.8332,24.1667 66.6668,3.3333 -8.3336,26.6667 24.1668,-6.6667 -2.5,-24.1667 13.3332,-5.8333 2.5,-35 44.1668,12.5 8.3332,15.8333 34.1668,-6.6666 10.8332,24.1666 40.8336,14.1667 -1.6668,21.6667 24.1668,15 -38.3336,0 -6.6664,-21.6667 -5,8.3333 -33.3336,-0.8333 -5,16.6667 15,5.8333 c 0,0 15,10.8333 18.3336,12.5 3.3332,1.6667 -23.3336,9.1667 -23.3336,9.1667 l -18.3332,-10 -12.5,2.5 -2.5,22.5 -24.1668,2.5 -9.1664,18.3333 -8.3336,2.5 -0.8332,20.8333 -35,24.1667 7.5,34.1667 -4.1668,4.1666 -4.1664,-10 -5.8336,-5 -5.8332,-17.5 -42.5,1.6667 5.8332,7.5 -15.8332,-5 -8.3332,4.1667 -36.6668,4.1666 1.6668,10.8334 5.8332,36.6666 3.3332,20.8334 26.6668,-6.6667 19.1668,-21.6667 11.6664,9.1667 -5.8332,25.8333 c 0,0 22.5,16.6667 29.1668,17.5 6.6664,0.8334 7.5,33.3334 7.5,33.3334 l 36.6664,5 22.5,-18.3334 56.6668,-3.3333 27.5,24.1667 73.3332,30 3.3336,28.3333 64.1664,5.8333 36.6668,26.6667 -6.6668,30.8333 -27.5,19.1667 -3.5701,57.9472 -41.248,11.7851 -15.3208,27.1058 -32.9984,44.7834 -23.57,-2.357 -1.1783,23.5702 -27.1061,9.4281 -4.714,11.7851 -11.7852,0 0,12.9636 -25.9272,21.2132 8.2496,12.9636 -15.3204,22.3918 10.6064,18.8562 -41.248,2.357 -2.3568,-17.6777 -10.6068,-7.0711 2.3572,-29.4628 7.0708,-10.6066 -1.1784,-48.3189 8.2496,-16.4992 1.1784,-27.1057 9.4284,-9.4281 0,-7.0711 7.0708,-49.4975 -11.7848,-24.7487 -32.9984,-25.9272 -10.6068,-30.6414 -18.856,-20.0346 9.428,-40.0694 22.0688,-28.1333 -4.1668,-5 0,-11.6667 -35.8332,-2.5 -19.1668,-14.1666 0,-12.5 -20,-15.8334 -10,5.8334 -28.3332,-19.1667 -26.6668,5 -54.1668,-32.5 -1.6664,-18.3333 -25,-30.8334 -1.6668,25.8334 -47.5,-60 -4.1668,2.5 -25.8333,-30.0001 19.7075,-42.8323"
                     style="color:#000000;fill:#000000;fill-opacity:1;fill-rule:nonzero;stroke:none;stroke-width:23.29537392;marker:none;visibility:visible;display:inline;overflow:visible;enable-background:accumulate" />
                  <path
                     inkscape:connector-curvature="0"
                     id="path11687-3-9"
                     d="m 1752.9176,5303.4527 -22.3915,5.8925 3.5356,9.4281 -4.714,2.3571 2.3568,12.9636 -15.3204,12.9636 -5.8928,25.9272 -62.4608,7.0711 -5.8928,12.9637 -49.4972,8.2495 -18.8564,30.6413 -23.5704,1.1785 -3.5352,-16.4991 -21.2132,-2.357 -11.7852,-22.3918 0,-20.0346 -9.428,2.357 -16.4992,-36.5339 -17.6776,-3.5355 -27.106,-8.2496 -32.9984,4.714 -12.9636,-10.6066 17.6776,-28.2842 60.6935,-8.2496 165.5808,-4.1248 111.9585,24.1595 z"
                     style="color:#000000;fill:#000000;fill-opacity:1;fill-rule:nonzero;stroke:none;stroke-width:23.29537392;marker:none;visibility:visible;display:inline;overflow:visible;enable-background:accumulate" />
                  <path
                     inkscape:connector-curvature="0"
                     sodipodi:nodetypes="cccccccccccccccccccccccccccccccscccccccc"
                     id="path11689-3-2"
                     d="m 1211.7581,6315.6495 109.1664,7.5 54.1668,-0.8333 5,-25.8334 14.1668,0 5.8332,-7.5 20.8332,3.3334 0,-15.8334 8.3336,-4.1666 -3.3336,-10.8334 22.5,5.8334 -1.6664,9.1666 -17.5,7.5 -1.6668,11.6667 33.3332,24.1667 -15,18.3333 -50.8332,2.5 -16.6668,9.1667 -20,-0.8334 -5,7.5 35.8336,40 68.3332,-31.6666 36.6668,11.6666 43.3332,-3.3333 1.6668,-21.6667 23.3332,6.6667 -3.3332,6.6667 36.6664,8.3333 50,-10 -15,-5 23.3336,-13.3333 c 0,0 13.3332,6.6666 21.6664,6.6666 8.3336,0 45,-5 45,-5 l 73.3336,-35 20,-13.3333 48.3332,10 31.6668,-8.3333 21.6664,11.6666 -2.14,6.6681 c -228.0883,152.6221 -458.526,161.4331 -702.0264,-2.5014 z"
                     style="color:#000000;fill:#ffffff;fill-opacity:1;fill-rule:nonzero;stroke:#000000;stroke-width:23.29537392;stroke-linecap:butt;stroke-linejoin:miter;stroke-miterlimit:4;stroke-opacity:1;stroke-dasharray:none;stroke-dashoffset:0;marker:none;visibility:visible;display:inline;overflow:visible;enable-background:accumulate" />
                  <path
                     inkscape:connector-curvature="0"
                     id="path11691-3-2"
                     d="m 1317.1745,5693.5661 15.8336,2.5 13.3332,10.4167 24.5832,-1.25 -0.8332,-11.6667 -17.0832,2.5 -9.5836,-11.6666 -7.9164,-0.4167 -5,-1.6667 -13.75,5.8334 0.4164,5.4166 z"
                     style="color:#000000;fill:#ffffff;fill-opacity:1;fill-rule:nonzero;stroke:#000000;stroke-width:23.29537392;stroke-linecap:butt;stroke-linejoin:miter;stroke-miterlimit:4;stroke-opacity:1;stroke-dasharray:none;stroke-dashoffset:0;marker:none;visibility:visible;display:inline;overflow:visible;enable-background:accumulate" />
                  <path
                     inkscape:connector-curvature="0"
                     id="path11693-8-4"
                     d="m 1378.8413,5703.5661 -7.0832,12.5 11.6664,-0.4166 3.75,-5 15,3.75 14.1668,-5.4167 -4.1668,-8.3333 -23.3332,6.25 -10,-3.3334 z"
                     style="color:#000000;fill:#ffffff;fill-opacity:1;fill-rule:nonzero;stroke:#000000;stroke-width:23.29537392;stroke-linecap:butt;stroke-linejoin:miter;stroke-miterlimit:4;stroke-opacity:1;stroke-dasharray:none;stroke-dashoffset:0;marker:none;visibility:visible;display:inline;overflow:visible;enable-background:accumulate" />
                  <path
                     inkscape:connector-curvature="0"
                     id="path11695-6-7"
                     d="m 1705.7773,5399.796 18.5616,7.071 6.1872,11.1959 17.0884,-3.2409 3.8303,-6.1872 20.3293,-1.4731 c 0,0 1.4731,-11.1959 -0.296,-11.1959 -1.7676,0 -27.4004,-0.2948 -27.4004,-0.2948 l -5.0084,-2.9462 -15.91,0 -13.2584,-5.3034 -4.1248,12.3744 z"
                     style="color:#000000;fill:#ffffff;fill-opacity:1;fill-rule:nonzero;stroke:#000000;stroke-width:23.29537392;stroke-linecap:butt;stroke-linejoin:miter;stroke-miterlimit:4;stroke-opacity:1;stroke-dasharray:none;stroke-dashoffset:0;marker:none;visibility:visible;display:inline;overflow:visible;enable-background:accumulate" />
                  <path
                     inkscape:connector-curvature="0"
                     id="path11697-0-7"
                     d="m 2131.2201,5734.7878 -42.4264,-86.0313 20.0344,10.6066 -16.4993,-43.6049 -44.7831,4.714 -53.0332,-8.2496 3.5356,7.0711 -14.142,15.3207 -49.4976,-18.8562 -4.714,-29.4628 -31.8196,7.0711 -28.2844,-5.8926 -25.9272,10.6066 -25.9272,-2.357 -30.6416,50.676 -34.1768,32.9983 -2.3568,32.9983 3.5356,32.9983 27.1056,24.7488 24.7488,34.1768 25.9272,0 29.4628,2.357 12.9636,-9.4281 11.7851,-5.8925 16.4993,16.4991 22.3916,1.1785 -5.8925,30.6413 14.142,4.7141 2.3568,22.3917 17.678,40.0694 -11.7852,29.4627 0,12.9637 15.3204,35.3553 9.4284,12.9636 0,24.7488 8.2496,10.6066 17.6776,24.7487 35.3552,3.5355 20.0348,-12.9636 31.8196,-17.6776 2.3572,-23.5703 16.4992,-14.1421 0,-17.6777 -2.3572,-17.6776 40.0696,-23.5703 -1.1784,-34.1768 -8.2496,0 -8.2496,-31.8198 20.0344,-18.8562 8.2497,-14.7314 -1.1785,-54.2115"
                     style="color:#000000;fill:#000000;fill-opacity:1;fill-rule:nonzero;stroke:none;stroke-width:23.29537392;marker:none;visibility:visible;display:inline;overflow:visible;enable-background:accumulate" />
                  <path
                     inkscape:connector-curvature="0"
                     id="path11699-4-5"
                     d="m 2080.5441,5593.9557 -33.5876,0 -12.3744,-17.0884 -3.5357,-9.4281 -12.9636,5.3033 1.7677,21.2132 -9.428,-1.1785 0,-7.071 -4.714,-15.3207 -12.3744,-9.4281 -17.6776,-11.1958 -18.2668,-15.91 -12.9636,1.7678 0,8.2496 10.0171,5.8926 7.0712,7.071 17.0884,1.7678 0,4.714 -8.2496,1.1785 -1.1788,18.8562 -7.66,-17.0884 -22.392,-9.4281 -5.8924,-11.1958 -51.2652,-0.5893 -1.1783,8.8388 -7.6605,8.2496 -17.6776,17.6777 -14.1424,1.1785 -9.428,12.3744 -20.0348,-7.6603 -4.7139,-4.7141 2.9463,-31.8198 32.4092,-5.3033 2.946,-8.8388 -7.6604,-15.3207 2.3572,-14.7314 7.6604,-2.9463 7.6604,-5.3033 c 0,0 23.5701,1.1785 25.3381,-1.7677 1.7676,-2.9463 20.6236,-20.0347 20.6236,-20.0347 l 17.0884,-10.0174 7.0712,-6.4818 10.6068,-10.6066 -11.196,-2.357 -20.624,-1.1785 -5.3032,-21.8025 30.052,-17.0884 48.9084,44.1942 -14.1424,11.1959 -23.57,7.6603 57.1576,-2.3571"
                     style="color:#000000;fill:#000000;fill-opacity:1;fill-rule:nonzero;stroke:none;stroke-width:23.29537392;marker:none;visibility:visible;display:inline;overflow:visible;enable-background:accumulate" />
                  <path
                     inkscape:connector-curvature="0"
                     id="path11701-8-4"
                     d="m 1815.3789,5466.6765 -7.0712,14.1421 -1.7676,11.1959 9.428,3.5355 7.0711,-15.9099 -1.1783,-10.6066 -6.482,-2.357 z"
                     style="color:#000000;fill:#ffffff;fill-opacity:1;fill-rule:nonzero;stroke:#000000;stroke-width:23.29537392;stroke-linecap:butt;stroke-linejoin:miter;stroke-miterlimit:4;stroke-opacity:1;stroke-dasharray:none;stroke-dashoffset:0;marker:none;visibility:visible;display:inline;overflow:visible;enable-background:accumulate" />
                  <path
                     inkscape:connector-curvature="0"
                     id="path11703-8-8"
                     d="m 1822.4501,5457.8377 14.7312,18.8561 -2.3568,9.4281 c 0,0 1.1783,8.8389 4.714,7.0711 3.5356,-1.7678 24.1596,-1.7678 24.1596,-1.7678 0,0 1.7676,-10.0173 -1.1789,-10.0173 -2.9459,0 -18.2667,-8.2496 -18.2667,-8.2496 l 1.1783,-11.7851 -11.1956,-3.5355 0,-7.0711 -11.7851,7.0711 z"
                     style="color:#000000;fill:#ffffff;fill-opacity:1;fill-rule:nonzero;stroke:#000000;stroke-width:23.29537392;stroke-linecap:butt;stroke-linejoin:miter;stroke-miterlimit:4;stroke-opacity:1;stroke-dasharray:none;stroke-dashoffset:0;marker:none;visibility:visible;display:inline;overflow:visible;enable-background:accumulate" />
                </g>
                <text
                   xml:space="preserve"
                   style="font-size:30.22296333px;font-style:normal;font-weight:normal;fill:#000000;fill-opacity:1;stroke:none;font-family:Bitstream Vera Sans"
                   x="675.33813"
                   y="-142.82321"
                   id="text11699-8-1"
                   transform="matrix(0.16756608,0.5856414,-1.5783175,0.45159448,0,0)"><tspan
                     sodipodi:role="line"
                     id="tspan11701-9-2"
                     x="675.33813"
                     y="-142.82321">CORREO</tspan></text>
                <g
                   id="g11817-7-8"
                   transform="matrix(0.28094083,-0.08038391,0.08038391,0.28094083,-108.15797,-744.65256)"
                   style="color:#000000;fill:#ffffff;fill-opacity:1;fill-rule:nonzero;stroke:#000000;stroke-width:8.45240688;stroke-linecap:butt;stroke-linejoin:miter;stroke-miterlimit:4;stroke-opacity:1;stroke-dasharray:none;stroke-dashoffset:0;marker:none;visibility:visible;display:inline;overflow:visible;enable-background:accumulate">
                  <g
                     id="g11747-5-7-9"
                     transform="matrix(0.5,0,0,0.5,169.07131,2320.6695)"
                     style="color:#000000;fill:#ffffff;fill-opacity:1;fill-rule:nonzero;stroke:#000000;stroke-width:16.90481377;stroke-linecap:butt;stroke-linejoin:miter;stroke-miterlimit:4;stroke-opacity:1;stroke-dasharray:none;stroke-dashoffset:0;marker:none;visibility:visible;display:inline;overflow:visible;enable-background:accumulate">
                    <path
                       inkscape:connector-curvature="0"
                       style="color:#000000;fill:#dbe3e2;fill-opacity:1;fill-rule:nonzero;stroke:#000000;stroke-width:16.90481377;stroke-linecap:butt;stroke-linejoin:miter;stroke-miterlimit:4;stroke-opacity:1;stroke-dasharray:none;stroke-dashoffset:0;marker:none;visibility:visible;display:inline;overflow:visible;enable-background:accumulate"
                       d="m -106.06602,2909.609 -5.49174,645.2349 606.53251,-402.1669 0,-287.2622 -601.04077,44.1942 z"
                       id="path11704-9-6-3"
                       transform="translate(0,308.2677)"
                       sodipodi:nodetypes="ccccc" />
                    <path
                       inkscape:connector-curvature="0"
                       style="color:#000000;fill:#ffffff;fill-opacity:1;fill-rule:nonzero;stroke:#000000;stroke-width:16.90481377;stroke-linecap:butt;stroke-linejoin:miter;stroke-miterlimit:4;stroke-opacity:1;stroke-dasharray:none;stroke-dashoffset:0;marker:none;visibility:visible;display:inline;overflow:visible;enable-background:accumulate"
                       d="m -112.5,2912.8445 609.375,237.5"
                       id="path11714-6-4-6"
                       transform="translate(0,308.2677)" />
                    <path
                       inkscape:connector-curvature="0"
                       style="color:#000000;fill:#ffffff;fill-opacity:1;fill-rule:nonzero;stroke:#000000;stroke-width:16.90481377;stroke-linecap:butt;stroke-linejoin:miter;stroke-miterlimit:4;stroke-opacity:1;stroke-dasharray:none;stroke-dashoffset:0;marker:none;visibility:visible;display:inline;overflow:visible;enable-background:accumulate"
                       d="m 493.75,2862.8445 -603.125,693.75"
                       id="path11716-2-3-8"
                       transform="translate(0,308.2677)" />
                  </g>
                  <path
                     inkscape:connector-curvature="0"
                     sodipodi:nodetypes="cccc"
                     transform="translate(0,308.2677)"
                     id="path11783-0-0"
                     d="m 118.21941,3621.1352 206.60777,121.534 92.80776,-141.4214 -299.41553,19.8874 z"
                     style="color:#000000;fill:#dbe3e2;fill-opacity:1;fill-rule:nonzero;stroke:#000000;stroke-width:8.45240688;stroke-linecap:butt;stroke-linejoin:miter;stroke-miterlimit:4;stroke-opacity:1;stroke-dasharray:none;stroke-dashoffset:0;marker:none;visibility:visible;display:inline;overflow:visible;enable-background:accumulate" />
                </g>
                <text
                   sodipodi:linespacing="125%"
                   transform="matrix(1.1973758,-0.34259796,0.22087672,0.77196156,0,0)"
                   id="text3655-7-3-2"
                   y="482.07306"
                   x="180.35854"
                   style="font-size:24.9905529px;font-style:normal;font-variant:normal;font-weight:200;font-stretch:normal;text-align:start;line-height:125%;writing-mode:lr-tb;text-anchor:start;color:#000000;fill:#6f918a;fill-opacity:1;fill-rule:nonzero;stroke:#000000;stroke-width:2.11310172;stroke-linecap:butt;stroke-linejoin:miter;stroke-miterlimit:4;stroke-opacity:1;stroke-dasharray:none;stroke-dashoffset:0;marker:none;visibility:visible;display:inline;overflow:visible;enable-background:accumulate;font-family:AcmeFont;-inkscape-font-specification:AcmeFont Thin"
                   xml:space="preserve"><tspan
                     style="color:#000000;fill:#6f918a;fill-opacity:1;fill-rule:nonzero;stroke:#000000;stroke-width:2.11310172;stroke-linecap:butt;stroke-linejoin:miter;stroke-miterlimit:4;stroke-opacity:1;stroke-dasharray:none;stroke-dashoffset:0;marker:none;visibility:visible;display:inline;overflow:visible;enable-background:accumulate"
                     y="482.07306"
                     x="180.35854"
                     id="tspan3657-3-0-1"
                     sodipodi:role="line">$</tspan></text>
                <text
                   sodipodi:linespacing="125%"
                   transform="matrix(1.113039,-0.3184672,0.23761292,0.83045436,0,0)"
                   id="text4611-7-9-0"
                   y="468.05975"
                   x="196.85698"
                   style="font-size:103.43175507px;font-style:normal;font-variant:normal;font-weight:800;font-stretch:condensed;text-indent:0;text-align:start;text-decoration:none;line-height:125%;letter-spacing:normal;word-spacing:normal;text-transform:none;direction:ltr;block-progression:tb;writing-mode:lr-tb;text-anchor:start;color:#000000;fill:#6f918a;fill-opacity:1;fill-rule:nonzero;stroke:#000000;stroke-width:2.11310172;stroke-linecap:butt;stroke-linejoin:miter;stroke-miterlimit:4;stroke-opacity:1;stroke-dasharray:none;stroke-dashoffset:0;marker:none;visibility:visible;display:inline;overflow:visible;enable-background:accumulate;font-family:Abadi MT Condensed Extra Bold;-inkscape-font-specification:'Abadi MT Condensed Extra Bold, Ultra-Bold Condensed'"
                   xml:space="preserve"><tspan
                     style="font-size:103.43175507px;font-style:normal;font-variant:normal;font-weight:800;font-stretch:condensed;text-indent:0;text-align:start;text-decoration:none;line-height:125%;letter-spacing:normal;word-spacing:normal;text-transform:none;direction:ltr;block-progression:tb;writing-mode:lr-tb;text-anchor:start;color:#000000;fill:#6f918a;fill-opacity:1;fill-rule:nonzero;stroke:#000000;stroke-width:2.11310172;stroke-linecap:butt;stroke-linejoin:miter;stroke-miterlimit:4;stroke-opacity:1;stroke-dasharray:none;stroke-dashoffset:0;marker:none;visibility:visible;display:inline;overflow:visible;enable-background:accumulate;font-family:Abadi MT Condensed Extra Bold;-inkscape-font-specification:'Abadi MT Condensed Extra Bold, Ultra-Bold Condensed'"
                     y="468.05975"
                     x="196.85698"
                     id="tspan4613-8-2-5"
                     sodipodi:role="line">1</tspan></text>
                <path
                   inkscape:connector-curvature="0"
                   style="opacity:0.35483871;color:#000000;fill:url(#linearGradient12835);fill-opacity:1;fill-rule:nonzero;stroke:none;stroke-width:8.45240688;marker:none;visibility:visible;display:inline;overflow:visible;enable-background:accumulate"
                   d="m 318.47432,232.30732 -0.25,0.0781 c 0.23842,0.52928 0.44497,1.07383 0.60937,1.64843 -0.1644,-0.57458 -0.28175,-1.15128 -0.35937,-1.72655 z m 0.35937,1.72655 c 1.83973,6.42982 -1.8827,13.13687 -8.3125,14.97657 -6.42982,1.83973 -13.13686,-1.88272 -14.97656,-8.3125 1.8397,6.42978 -1.87486,13.13683 -8.30469,14.97658 -6.4298,1.83972 -13.13684,-1.88273 -14.97656,-8.3125 1.83972,6.42977 -1.8827,13.12899 -8.3125,14.96875 -6.42742,1.83902 -13.12611,-1.87931 -14.96875,-8.3047 1.83485,6.42757 -1.88511,13.12972 -8.3125,14.96875 -6.42981,1.83972 -13.13685,-1.88273 -14.97656,-8.3125 1.83971,6.42977 -1.8827,13.13682 -8.3125,14.97655 -6.42981,1.83975 -13.12904,-1.8827 -14.96875,-8.3125 1.83971,6.4298 -1.8827,13.13685 -8.3125,14.97657 -6.42981,1.83973 -13.13685,-1.88272 -14.97657,-8.3125 1.78223,6.22888 -1.64877,12.70935 -7.71093,14.78125 -0.19555,0.0668 -0.39282,0.13 -0.59375,0.1875 6.4298,-1.83972 13.12902,1.8827 14.96875,8.3125 1.83971,6.42978 -1.8827,13.13683 -8.3125,14.97658 6.4298,-1.83976 13.13684,1.8827 14.97656,8.3125 1.83971,6.4298 -1.88269,13.12899 -8.3125,14.96875 6.42981,-1.83976 13.13684,1.8827 14.97656,8.3125 1.83972,6.42977 -1.88269,13.13682 -8.3125,14.97655 6.42981,-1.83973 13.13684,1.8749 14.97656,8.3047 1.83972,6.42977 -1.88269,13.13682 -8.3125,14.97655 6.42981,-1.83973 13.12903,1.8827 14.96875,8.3125 1.03871,3.63025 0.30573,7.34637 -1.6875,10.22655 64.00245,-12.17525 112.59375,-71.93845 112.59375,-143.8281 0,-5.78328 -0.31801,-11.48595 -0.92968,-17.09375 -1.65288,-1.47305 -2.92404,-3.4171 -3.57813,-5.70315 z M 197.4665,382.11982 c -0.41741,0.11945 -0.83169,0.2079 -1.25,0.28125 l 0.0391,0.14062 c 0.39378,-0.159 0.79354,-0.30245 1.21093,-0.42187 z m -6.66406,-23.28125 c -0.41741,0.11942 -0.83169,0.2079 -1.25,0.28125 l 0.0391,0.1328 c 0.39379,-0.159 0.79355,-0.29463 1.21094,-0.41405 z m -6.66406,-23.28905 c -0.41741,0.11942 -0.83169,0.21569 -1.25,0.28905 l 0.0391,0.1328 c 0.39379,-0.159 0.79354,-0.30245 1.21094,-0.42185 z m -6.66406,-23.28125 c -0.41741,0.11942 -0.83169,0.20787 -1.25,0.28125 l 0.0391,0.14059 c 0.39379,-0.159 0.79354,-0.30242 1.21094,-0.42184 z m -6.65625,-23.28908 c -0.20094,0.0575 -0.40031,0.10933 -0.60157,0.15625 -0.21687,0.0503 -0.43149,0.0947 -0.64843,0.13283 l 0.0313,0.1328 c 0.39378,-0.159 0.80135,-0.30245 1.21875,-0.42188 z m 8.30468,-14.96875 c -0.1644,-0.57457 -0.27393,-1.15127 -0.35156,-1.72657 l -0.25781,0.0703 c 0.23842,0.5293 0.44497,1.08168 0.60937,1.65625 z m 23.28907,-6.66407 c -0.16441,-0.57458 -0.28175,-1.15128 -0.35938,-1.72655 l -0.25,0.0703 c 0.23842,0.5293 0.44497,1.08165 0.60938,1.65625 z m 23.28125,-6.66405 c -0.16441,-0.5746 -0.27394,-1.15125 -0.35157,-1.72655 l -0.25781,0.0781 c 0.23842,0.5293 0.44497,1.07385 0.60938,1.64845 z m 46.57031,-13.3203 c -0.16443,-0.5746 -0.27396,-1.15128 -0.35156,-1.72658 l -0.25782,0.0703 c 0.23843,0.52927 0.44495,1.08162 0.60938,1.65625 z m 23.28125,-6.66408 c -0.1644,-0.5746 -0.27394,-1.15125 -0.35156,-1.72657 l -0.25782,0.0703 c 0.23843,0.52928 0.44498,1.08165 0.60938,1.65625 z m -46.92188,11.60158 -0.25781,0.0703 c 0.23743,0.52707 0.4531,1.07642 0.61719,1.64845 -0.1633,-0.57223 -0.28207,-1.14586 -0.35938,-1.71875 z"
                   id="rect8239-1-0-4" />
                <path
                   inkscape:connector-curvature="0"
                   style="opacity:0.26267281;color:#000000;fill:url(#linearGradient12837);fill-opacity:1;fill-rule:nonzero;stroke:none;stroke-width:8.45240688;marker:none;visibility:visible;display:inline;overflow:visible;enable-background:accumulate"
                   d="m 358.50587,362.62014 c -57.54129,0 -109.21413,25.1408 -144.63281,65.03125 5.33143,-0.0733 10.25973,3.40898 11.79687,8.78125 1.83973,6.42978 -1.88267,13.129 -8.3125,14.96875 6.42983,-1.83975 13.13684,1.8827 14.97657,8.3125 1.8397,6.42978 -1.88268,13.13683 -8.3125,14.97655 6.42982,-1.83972 13.13683,1.8827 14.97656,8.3125 -1.83973,-6.4298 1.88267,-13.13682 8.3125,-14.97655 6.4298,-1.83975 13.12902,1.8827 14.96875,8.3125 -1.83973,-6.4298 1.88269,-13.13685 8.3125,-14.97657 6.42981,-1.83973 13.13684,1.8827 14.97656,8.3125 -1.83972,-6.4298 1.87488,-13.13683 8.30469,-14.97658 6.42981,-1.83972 13.13684,1.88273 14.97656,8.3125 -1.83972,-6.42977 1.8827,-13.129 8.3125,-14.96875 6.42981,-1.83972 13.12903,1.88273 14.96875,8.3125 -1.83972,-6.42977 1.88269,-13.13682 8.3125,-14.97655 6.42981,-1.83972 13.13684,1.8827 14.97656,8.3125 -1.83972,-6.4298 1.8827,-13.13682 8.3125,-14.97655 6.42981,-1.83975 13.12903,1.88268 14.96875,8.3125 -1.83972,-6.42982 1.8827,-13.13685 8.3125,-14.97657 6.42981,-1.8397 13.13685,1.88267 14.97657,8.3125 -1.83972,-6.42983 1.87488,-13.12905 8.30468,-14.96875 6.42981,-1.83973 13.13684,1.8749 14.97657,8.30467 -1.83973,-6.4298 1.8827,-13.129 8.3125,-14.96875 -6.4298,1.83975 -13.13684,-1.88267 -14.97657,-8.3125 -1.83971,-6.4298 1.8827,-13.13682 8.3125,-14.97655 -6.4298,1.83973 -13.13684,-1.8749 -14.97656,-8.3047 -1.2762,-4.46032 0.12645,-9.05362 3.25,-12.0625 -17.92876,-5.49035 -36.96038,-8.4531 -56.6875,-8.4531 z m 75.07813,52.10935 c 0.4176,-0.1195 0.83928,-0.2157 1.25781,-0.28905 l -0.0391,-0.1328 c -0.394,0.1591 -0.80113,0.30235 -1.21875,0.42185 z m -8.3125,14.96875 c 0.1644,0.57458 0.28175,1.15912 0.35937,1.7344 l 0.25781,-0.0703 c -0.23842,-0.52928 -0.45278,-1.0895 -0.61718,-1.66408 z m -23.28125,6.66407 c 0.16439,0.57455 0.27393,1.15911 0.35156,1.73438 l 0.25781,-0.0703 c -0.23842,-0.5293 -0.44498,-1.08953 -0.60937,-1.66408 z m -23.28907,6.66408 c 0.1644,0.57455 0.28175,1.15907 0.35938,1.73435 l 0.25781,-0.0703 c -0.23842,-0.5293 -0.45279,-1.0895 -0.61719,-1.66405 z m -23.28125,6.66405 c 0.1644,0.57458 0.28176,1.15907 0.35938,1.73437 l 0.25,-0.0781 c -0.23842,-0.52928 -0.44498,-1.08167 -0.60938,-1.65625 z m -23.28906,6.66405 c 0.1644,0.5746 0.28175,1.1591 0.35938,1.7344 l 0.25781,-0.0781 c -0.23842,-0.52928 -0.45279,-1.08167 -0.61719,-1.65625 z m -23.28125,6.65625 c 0.1644,0.5746 0.28176,1.1591 0.35938,1.7344 l 0.25781,-0.0703 c -0.23842,-0.52928 -0.45279,-1.0895 -0.61719,-1.66408 z m -23.28125,6.66407 c 0.1644,0.57458 0.27394,1.15908 0.35157,1.73438 l 0.25781,-0.0703 c -0.23842,-0.5293 -0.44498,-1.0895 -0.60938,-1.66408 z m -23.28906,6.66408 c 0.1644,0.57457 0.28175,1.15907 0.35937,1.73435 l 0.25782,-0.0781 c -0.2384,-0.5293 -0.45279,-1.0817 -0.61719,-1.65625 z m -23.28125,6.66405 c 0.1644,0.57455 0.28175,1.1591 0.35937,1.73437 l 0.25,-0.0781 c -0.23842,-0.5293 -0.44497,-1.0817 -0.60937,-1.65625 z m -14.97656,-8.3125 c -0.4174,0.11945 -0.83168,0.2079 -1.25,0.28125 l 0.0391,0.14062 c 0.3938,-0.159 0.79356,-0.30242 1.21094,-0.42187 z m -6.66407,-23.28905 c -0.41742,0.11942 -0.83167,0.2157 -1.25,0.28905 l 0.0391,0.1328 c 0.39377,-0.159 0.79353,-0.30243 1.21093,-0.42185 z m 210.78125,-60.38283 c -0.394,0.15913 -0.80115,0.31018 -1.21875,0.42968 0.41758,-0.11945 0.83929,-0.21567 1.25782,-0.28905 l -0.0391,-0.14063 z"
                   id="rect8239-1-0-5" />
              </g>
            </g>
          </g>
        </g>
      </g>
    </g>
  </g>
</svg>
