<?xml version="1.0" encoding="UTF-8" standalone="no"?>
<!-- Created with Inkscape (http://www.inkscape.org/) -->

<svg
   xmlns:dc="http://purl.org/dc/elements/1.1/"
   xmlns:cc="http://creativecommons.org/ns#"
   xmlns:rdf="http://www.w3.org/1999/02/22-rdf-syntax-ns#"
   xmlns:svg="http://www.w3.org/2000/svg"
   xmlns="http://www.w3.org/2000/svg"
   xmlns:xlink="http://www.w3.org/1999/xlink"
   xmlns:sodipodi="http://sodipodi.sourceforge.net/DTD/sodipodi-0.dtd"
   xmlns:inkscape="http://www.inkscape.org/namespaces/inkscape"
   width="434.51288"
   height="440.04269"
   id="svg2160"
   sodipodi:version="0.32"
   inkscape:version="0.48.3.1 r9886"
   sodipodi:docname="abeja.svg"
   inkscape:output_extension="org.inkscape.output.svg.inkscape"
   version="1.1">
  <defs
     id="defs2162">
    <inkscape:perspective
       sodipodi:type="inkscape:persp3d"
       inkscape:vp_x="0 : 240 : 1"
       inkscape:vp_y="0 : 1000 : 0"
       inkscape:vp_z="640 : 240 : 1"
       inkscape:persp3d-origin="320 : 160 : 1"
       id="perspective4043" />
    <radialGradient
       xlink:href="#linearGradient12513"
       r="137.14285"
       inkscape:collect="always"
       id="radialGradient10739"
       gradientUnits="userSpaceOnUse"
       gradientTransform="matrix(1,0,0,0.114583,0,730.6629)"
       fy="825.2193"
       fx="427.14285"
       cy="825.2193"
       cx="427.14285" />
    <radialGradient
       xlink:href="#linearGradient11019"
       r="15.714286"
       inkscape:collect="always"
       id="radialGradient10712"
       gradientUnits="userSpaceOnUse"
       gradientTransform="matrix(1,0,0,0.477273,0,257.1845)"
       fy="492.00504"
       fx="439.28571"
       cy="492.00504"
       cx="439.28571" />
    <radialGradient
       xlink:href="#linearGradient11019"
       r="15.714286"
       inkscape:collect="always"
       id="radialGradient8226"
       gradientUnits="userSpaceOnUse"
       gradientTransform="matrix(1,0,0,0.477273,0,257.1845)"
       fy="492.00504"
       fx="439.28571"
       cy="492.00504"
       cx="439.28571" />
    <radialGradient
       xlink:href="#linearGradient12513"
       r="137.14285"
       inkscape:collect="always"
       id="radialGradient1538"
       gradientUnits="userSpaceOnUse"
       gradientTransform="matrix(1,0,0,0.114583,0,730.6629)"
       fy="825.2193"
       fx="427.14285"
       cy="825.2193"
       cx="427.14285" />
    <radialGradient
       xlink:href="#linearGradient12513"
       r="137.14285"
       inkscape:collect="always"
       id="radialGradient2487"
       gradientUnits="userSpaceOnUse"
       gradientTransform="matrix(1,0,0,0.114583,0,730.6629)"
       fy="825.2193"
       fx="427.14285"
       cy="825.2193"
       cx="427.14285" />
    <radialGradient
       xlink:href="#linearGradient11759"
       r="15.714286"
       inkscape:collect="always"
       id="radialGradient2485"
       gradientUnits="userSpaceOnUse"
       gradientTransform="matrix(1,0,0,0.477273,0,257.1845)"
       fy="492.00504"
       fx="439.28571"
       cy="492.00504"
       cx="439.28571" />
    <radialGradient
       xlink:href="#linearGradient11759"
       r="15.714286"
       inkscape:collect="always"
       id="radialGradient2483"
       gradientUnits="userSpaceOnUse"
       gradientTransform="matrix(1,0,0,0.477273,0,257.1845)"
       fy="492.00504"
       fx="439.28571"
       cy="492.00504"
       cx="439.28571" />
    <radialGradient
       xlink:href="#linearGradient8091"
       r="15.714286"
       inkscape:collect="always"
       id="radialGradient2481"
       gradientUnits="userSpaceOnUse"
       gradientTransform="matrix(1,0,0,0.477273,0,257.1845)"
       fy="492.00504"
       fx="439.28571"
       cy="492.00504"
       cx="439.28571" />
    <radialGradient
       xlink:href="#linearGradient11767"
       r="15.714286"
       inkscape:collect="always"
       id="radialGradient2479"
       gradientUnits="userSpaceOnUse"
       gradientTransform="matrix(1,0,0,0.477273,0,257.1845)"
       fy="492.00504"
       fx="439.28571"
       cy="492.00504"
       cx="439.28571" />
    <radialGradient
       xlink:href="#linearGradient11759"
       r="15.714286"
       inkscape:collect="always"
       id="radialGradient2477"
       gradientUnits="userSpaceOnUse"
       gradientTransform="matrix(1,0,0,0.477273,0,257.1845)"
       fy="492.00504"
       fx="439.28571"
       cy="492.00504"
       cx="439.28571" />
    <radialGradient
       xlink:href="#linearGradient11019"
       r="15.714286"
       inkscape:collect="always"
       id="radialGradient2475"
       gradientUnits="userSpaceOnUse"
       gradientTransform="matrix(1,0,0,0.477273,0,257.1845)"
       fy="492.00504"
       fx="439.28571"
       cy="492.00504"
       cx="439.28571" />
    <linearGradient
       id="linearGradient2342">
      <stop
         style="stop-color:#000000;stop-opacity:0.16494845;"
         offset="0.0000000"
         id="stop2344" />
      <stop
         style="stop-color:#000000;stop-opacity:0;"
         offset="1"
         id="stop2346" />
    </linearGradient>
    <linearGradient
       id="linearGradient2360">
      <stop
         style="stop-color:#f15959;stop-opacity:0.28865978;"
         offset="0.0000000"
         id="stop2362" />
      <stop
         style="stop-color:#f15959;stop-opacity:0;"
         offset="1"
         id="stop2364" />
    </linearGradient>
    <linearGradient
       id="linearGradient2366">
      <stop
         style="stop-color:#000000;stop-opacity:0.35051546;"
         offset="0.0000000"
         id="stop2368" />
      <stop
         style="stop-color:#000000;stop-opacity:0;"
         offset="1"
         id="stop2370" />
    </linearGradient>
    <radialGradient
       xlink:href="#linearGradient8091"
       r="15.714286"
       inkscape:collect="always"
       id="radialGradient2378"
       gradientUnits="userSpaceOnUse"
       gradientTransform="matrix(1,0,0,0.477273,0,257.1845)"
       fy="492.00504"
       fx="439.28571"
       cy="492.00504"
       cx="439.28571" />
    <radialGradient
       xlink:href="#linearGradient11019"
       r="15.714286"
       inkscape:collect="always"
       id="radialGradient2380"
       gradientUnits="userSpaceOnUse"
       gradientTransform="matrix(1,0,0,0.477273,0,257.1845)"
       fy="492.00504"
       fx="439.28571"
       cy="492.00504"
       cx="439.28571" />
    <radialGradient
       xlink:href="#linearGradient11759"
       r="15.714286"
       inkscape:collect="always"
       id="radialGradient2382"
       gradientUnits="userSpaceOnUse"
       gradientTransform="matrix(1,0,0,0.477273,0,257.1845)"
       fy="492.00504"
       fx="439.28571"
       cy="492.00504"
       cx="439.28571" />
    <radialGradient
       xlink:href="#linearGradient11767"
       r="15.714286"
       inkscape:collect="always"
       id="radialGradient2384"
       gradientUnits="userSpaceOnUse"
       gradientTransform="matrix(1,0,0,0.477273,0,257.1845)"
       fy="492.00504"
       fx="439.28571"
       cy="492.00504"
       cx="439.28571" />
    <radialGradient
       xlink:href="#linearGradient11759"
       r="15.714286"
       inkscape:collect="always"
       id="radialGradient2386"
       gradientUnits="userSpaceOnUse"
       gradientTransform="matrix(1,0,0,0.477273,0,257.1845)"
       fy="492.00504"
       fx="439.28571"
       cy="492.00504"
       cx="439.28571" />
    <radialGradient
       xlink:href="#linearGradient11759"
       r="15.714286"
       inkscape:collect="always"
       id="radialGradient2388"
       gradientUnits="userSpaceOnUse"
       gradientTransform="matrix(1,0,0,0.477273,0,257.1845)"
       fy="492.00504"
       fx="439.28571"
       cy="492.00504"
       cx="439.28571" />
    <radialGradient
       xlink:href="#linearGradient12513"
       r="137.14285"
       inkscape:collect="always"
       id="radialGradient2390"
       gradientUnits="userSpaceOnUse"
       gradientTransform="matrix(1,0,0,0.114583,0,730.6629)"
       fy="825.2193"
       fx="427.14285"
       cy="825.2193"
       cx="427.14285" />
    <radialGradient
       xlink:href="#linearGradient12513"
       r="137.14285"
       inkscape:collect="always"
       id="radialGradient12519"
       gradientUnits="userSpaceOnUse"
       gradientTransform="matrix(1,0,0,0.114583,0,730.6629)"
       fy="825.2193"
       fx="427.14285"
       cy="825.2193"
       cx="427.14285" />
    <radialGradient
       xlink:href="#linearGradient11759"
       r="15.714286"
       inkscape:collect="always"
       id="radialGradient11781"
       gradientUnits="userSpaceOnUse"
       gradientTransform="matrix(1,0,0,0.477273,0,257.1845)"
       fy="492.00504"
       fx="439.28571"
       cy="492.00504"
       cx="439.28571" />
    <radialGradient
       xlink:href="#linearGradient11759"
       r="15.714286"
       inkscape:collect="always"
       id="radialGradient11777"
       gradientUnits="userSpaceOnUse"
       gradientTransform="matrix(1,0,0,0.477273,0,257.1845)"
       fy="492.00504"
       fx="439.28571"
       cy="492.00504"
       cx="439.28571" />
    <radialGradient
       xlink:href="#linearGradient11767"
       r="15.714286"
       inkscape:collect="always"
       id="radialGradient11773"
       gradientUnits="userSpaceOnUse"
       gradientTransform="matrix(1,0,0,0.477273,0,257.1845)"
       fy="492.00504"
       fx="439.28571"
       cy="492.00504"
       cx="439.28571" />
    <radialGradient
       xlink:href="#linearGradient11759"
       r="15.714286"
       inkscape:collect="always"
       id="radialGradient11765"
       gradientUnits="userSpaceOnUse"
       gradientTransform="matrix(1,0,0,0.477273,0,257.1845)"
       fy="492.00504"
       fx="439.28571"
       cy="492.00504"
       cx="439.28571" />
    <radialGradient
       xlink:href="#linearGradient11019"
       r="15.714286"
       inkscape:collect="always"
       id="radialGradient11754"
       gradientUnits="userSpaceOnUse"
       gradientTransform="matrix(1,0,0,0.477273,0,257.1845)"
       fy="492.00504"
       fx="439.28571"
       cy="492.00504"
       cx="439.28571" />
    <radialGradient
       xlink:href="#linearGradient8091"
       r="15.714286"
       inkscape:collect="always"
       id="radialGradient8097"
       gradientUnits="userSpaceOnUse"
       gradientTransform="matrix(1,0,0,0.477273,0,257.1845)"
       fy="492.00504"
       fx="439.28571"
       cy="492.00504"
       cx="439.28571" />
    <linearGradient
       inkscape:collect="always"
       id="linearGradient8091">
      <stop
         style="stop-color:#ffffff;stop-opacity:1;"
         offset="0"
         id="stop8093" />
      <stop
         style="stop-color:#ffffff;stop-opacity:0;"
         offset="1"
         id="stop8095" />
    </linearGradient>
    <linearGradient
       id="linearGradient9559">
      <stop
         style="stop-color:#000000;stop-opacity:0.35051546;"
         offset="0.0000000"
         id="stop9561" />
      <stop
         style="stop-color:#000000;stop-opacity:0;"
         offset="1"
         id="stop9563" />
    </linearGradient>
    <linearGradient
       id="linearGradient11019">
      <stop
         style="stop-color:#f15959;stop-opacity:0.28865978;"
         offset="0.0000000"
         id="stop11021" />
      <stop
         style="stop-color:#f15959;stop-opacity:0;"
         offset="1"
         id="stop11023" />
    </linearGradient>
    <linearGradient
       inkscape:collect="always"
       id="linearGradient11759">
      <stop
         style="stop-color:#ffffff;stop-opacity:1;"
         offset="0"
         id="stop11761" />
      <stop
         style="stop-color:#ffffff;stop-opacity:0;"
         offset="1"
         id="stop11763" />
    </linearGradient>
    <linearGradient
       inkscape:collect="always"
       id="linearGradient11767">
      <stop
         style="stop-color:#ffffff;stop-opacity:1;"
         offset="0"
         id="stop11769" />
      <stop
         style="stop-color:#ffffff;stop-opacity:0;"
         offset="1"
         id="stop11771" />
    </linearGradient>
    <linearGradient
       id="linearGradient12513">
      <stop
         style="stop-color:#000000;stop-opacity:0.16494845;"
         offset="0.0000000"
         id="stop12515" />
      <stop
         style="stop-color:#000000;stop-opacity:0;"
         offset="1"
         id="stop12517" />
    </linearGradient>
    <inkscape:perspective
       id="perspective4053"
       inkscape:persp3d-origin="0.5 : 0.33333333 : 1"
       inkscape:vp_z="1 : 0.5 : 1"
       inkscape:vp_y="0 : 1000 : 0"
       inkscape:vp_x="0 : 0.5 : 1"
       sodipodi:type="inkscape:persp3d" />
    <inkscape:perspective
       id="perspective4074"
       inkscape:persp3d-origin="0.5 : 0.33333333 : 1"
       inkscape:vp_z="1 : 0.5 : 1"
       inkscape:vp_y="0 : 1000 : 0"
       inkscape:vp_x="0 : 0.5 : 1"
       sodipodi:type="inkscape:persp3d" />
    <inkscape:perspective
       id="perspective4095"
       inkscape:persp3d-origin="0.5 : 0.33333333 : 1"
       inkscape:vp_z="1 : 0.5 : 1"
       inkscape:vp_y="0 : 1000 : 0"
       inkscape:vp_x="0 : 0.5 : 1"
       sodipodi:type="inkscape:persp3d" />
  </defs>
  <sodipodi:namedview
     id="base"
     pagecolor="#ffffff"
     bordercolor="#666666"
     borderopacity="1.0"
     inkscape:pageopacity="0.0"
     inkscape:pageshadow="2"
     inkscape:zoom="0.38736265"
     inkscape:cx="82.386708"
     inkscape:cy="302.60314"
     inkscape:current-layer="g3140"
     inkscape:document-units="px"
     showguides="true"
     inkscape:guide-bbox="true"
     inkscape:window-width="589"
     inkscape:window-height="485"
     inkscape:window-x="64"
     inkscape:window-y="48"
     showgrid="false"
     inkscape:window-maximized="0"
     fit-margin-top="0"
     fit-margin-left="0"
     fit-margin-right="0"
     fit-margin-bottom="0" />
  <metadata
     id="metadata2165">
    <rdf:RDF>
      <cc:Work
         rdf:about="">
        <dc:format>image/svg+xml</dc:format>
        <dc:type
           rdf:resource="http://purl.org/dc/dcmitype/StillImage" />
        <dc:title></dc:title>
        <dc:date>28012008</dc:date>
        <dc:creator>
          <cc:Agent>
            <dc:title>Vladimir Zuñiga</dc:title>
          </cc:Agent>
        </dc:creator>
        <cc:license
           rdf:resource="http://creativecommons.org/licenses/by/2.5/" />
      </cc:Work>
      <cc:License
         rdf:about="http://creativecommons.org/licenses/by/2.5/">
        <cc:permits
           rdf:resource="http://web.resource.org/cc/Reproduction" />
        <cc:permits
           rdf:resource="http://web.resource.org/cc/Distribution" />
        <cc:requires
           rdf:resource="http://web.resource.org/cc/Notice" />
        <cc:requires
           rdf:resource="http://web.resource.org/cc/Attribution" />
        <cc:permits
           rdf:resource="http://web.resource.org/cc/DerivativeWorks" />
      </cc:License>
    </rdf:RDF>
  </metadata>
  <g
     id="layer1"
     inkscape:label="Layer 1"
     inkscape:groupmode="layer"
     transform="translate(-78.378102,1.4838186)">
    <g
       id="g3306"
       transform="translate(-54.184398,-7.3900686)">
      <g
         id="g3140">
        <g
           id="g3197">
          <path
             sodipodi:nodetypes="cccc"
             id="path4370"
             d="m 425.26592,290.43239 c 16.14611,17.41183 15.16567,30.21722 22.11293,61.43377 -14.42373,-21.70084 -32.51802,-18.25321 -55.28233,-21.63161 16.98551,-6.06403 27.86387,-15.45694 33.1694,-39.80216 z"
             style="fill:#333333;fill-rule:evenodd;stroke:#000000;stroke-width:3.83398366;stroke-linecap:butt;stroke-linejoin:miter;stroke-miterlimit:4;stroke-opacity:1;stroke-dasharray:none"
             inkscape:connector-curvature="0" />
          <path
             sodipodi:nodetypes="ccccc"
             id="path4392"
             d="m 345.55955,292.59556 c 0.9505,24.47105 -8.08307,46.98874 3.53807,73.54747 36.38354,8.83708 51.02555,44.87119 52.18652,67.49063 -28.51858,-2.69461 -44.03255,-42.92276 -53.95555,-68.35589 20.01299,-24.22741 -1.12984,-48.45482 -1.76904,-72.68221 z"
             style="fill:#1a1a1a;fill-rule:evenodd;stroke:#000000;stroke-width:3.83398366;stroke-linecap:butt;stroke-linejoin:miter;stroke-miterlimit:4;stroke-opacity:1;stroke-dasharray:none"
             inkscape:connector-curvature="0" />
          <path
             sodipodi:nodetypes="ccccc"
             id="path4396"
             d="m 307.61081,286.53869 c -5.97168,19.88277 -13.65448,39.34707 -10.6142,61.43379 12.69862,17.21345 29.98379,33.73663 13.26776,55.37693 l -13.26776,-54.51167 c 17.80891,-17.9743 16.14033,-39.75932 10.6142,-62.29905 z"
             style="fill:#1a1a1a;fill-rule:evenodd;stroke:#000000;stroke-width:3.83398366;stroke-linecap:butt;stroke-linejoin:miter;stroke-miterlimit:4;stroke-opacity:1;stroke-dasharray:none"
             inkscape:connector-curvature="0" />
          <path
             sodipodi:nodetypes="ccc"
             id="path4414"
             d="M 303.80526,193.1375 C 448.54002,191.85311 457.35582,46.249084 404.70668,7.8778488 356.13507,12.120563 246.32765,109.91108 303.80526,193.1375 z"
             style="opacity:0.23762375;fill:#00d4aa;fill-rule:evenodd;stroke:#000000;stroke-width:0.83607423px;stroke-linecap:butt;stroke-linejoin:miter;stroke-opacity:1"
             inkscape:connector-curvature="0" />
          <path
             sodipodi:nodetypes="ccc"
             id="path4446"
             d="M 303.80526,193.1375 C 448.54002,191.85311 457.35582,46.249084 404.70668,7.8778488 356.13507,12.120563 246.32765,109.91108 303.80526,193.1375 z"
             style="fill:none;stroke:#000000;stroke-width:3.83398366;stroke-linecap:butt;stroke-linejoin:miter;stroke-miterlimit:4;stroke-opacity:1;stroke-dasharray:none"
             inkscape:connector-curvature="0" />
          <path
             sodipodi:nodetypes="csssc"
             id="path4296"
             d="m 425.07768,257.98497 c 11.00234,84.67168 -44.56552,86.44117 -88.70574,71.20019 -39.72787,-13.71746 -72.52644,-61.13965 -50.67149,-69.46966 53.19199,-20.27409 20.11645,-64.27808 50.67149,-71.20019 41.04376,-9.29828 81.6296,30.64478 88.70574,69.46966 z"
             style="fill:#ffdd55;fill-opacity:1;fill-rule:nonzero;stroke:#000000;stroke-width:4.20632362;stroke-linejoin:round;stroke-miterlimit:4;stroke-opacity:1"
             inkscape:connector-curvature="0" />
          <path
             sodipodi:nodetypes="ccccccc"
             id="path4406"
             d="m 273.57125,221.20814 c -5.784,22.92274 -3.22182,47.47838 -19.45938,68.35591 -13.02287,23.68483 -40.49777,15.56037 -61.9162,20.76634 -11.49872,7.04652 -22.99745,4.3517 -34.49617,0 10.31936,-4.39766 20.63873,-13.86015 30.9581,-0.86527 21.14227,-8.49715 39.23176,-31.92595 64.56975,-19.90107 -10.18214,-35.23096 13.28821,-45.77191 20.3439,-68.35591 z"
             style="fill:#1a1a1a;fill-rule:evenodd;stroke:#000000;stroke-width:3.83398366;stroke-linecap:butt;stroke-linejoin:miter;stroke-miterlimit:4;stroke-opacity:1;stroke-dasharray:none"
             inkscape:connector-curvature="0" />
          <path
             sodipodi:nodetypes="csssc"
             id="path4299"
             d="m 322.73374,216.88489 c -8.84518,25.83058 -20.13952,44.6662 -44.73992,46.79453 -30.00354,2.59579 -64.03381,-36.88111 -44.73991,-46.79453 9.76365,-5.01667 23.77521,-10.50336 36.77925,-45.92925 8.3464,-22.73738 64.1993,1.06287 52.70058,45.92925 z"
             style="fill:#4d4d4d;fill-opacity:1;fill-rule:nonzero;stroke:#000000;stroke-width:3.69195795;stroke-linejoin:round;stroke-miterlimit:4;stroke-opacity:1"
             inkscape:connector-curvature="0" />
          <g
             transform="matrix(0.9691008,0,0,0.9480071,-108.95561,74.181543)"
             id="g4243">
            <path
               style="fill:#dbe3db;fill-rule:evenodd;stroke:#000000;stroke-width:4.57042885;stroke-linecap:butt;stroke-linejoin:miter;stroke-miterlimit:4;stroke-opacity:1;stroke-dasharray:none"
               d="m 310.50898,50.406899 c -17.01987,-3.10002 -56.32749,54.671161 -14.4862,68.471321 40.95849,1.7548 39.69686,-59.056661 14.4862,-68.471321 z"
               id="path6248"
               sodipodi:nodetypes="ccc"
               inkscape:connector-curvature="0" />
            <path
               sodipodi:type="arc"
               style="fill:#000000;fill-opacity:1;fill-rule:nonzero;stroke:none"
               id="path6252"
               sodipodi:cx="292.84573"
               sodipodi:cy="177.31206"
               sodipodi:rx="8.5514183"
               sodipodi:ry="20.652483"
               d="m 301.39715,177.31206 c 0,11.40605 -3.8286,20.65248 -8.55142,20.65248 -4.72281,0 -8.55141,-9.24643 -8.55141,-20.65248 0,-11.40605 3.8286,-20.65249 8.55141,-20.65249 4.72282,0 8.55142,9.24644 8.55142,20.65249 z"
               transform="translate(12.778072,-89.446501)" />
            <path
               sodipodi:type="arc"
               style="fill:#dbe3db;fill-opacity:1;fill-rule:nonzero;stroke:none"
               id="path6254"
               sodipodi:cx="286.71454"
               sodipodi:cy="169.08333"
               sodipodi:rx="7.9060283"
               sodipodi:ry="8.8741131"
               d="m 294.62057,169.08333 c 0,4.90104 -3.53965,8.87411 -7.90603,8.87411 -4.36638,0 -7.90603,-3.97307 -7.90603,-8.87411 0,-4.90104 3.53965,-8.87411 7.90603,-8.87411 4.36638,0 7.90603,3.97307 7.90603,8.87411 z"
               transform="translate(12.778072,-89.446501)" />
            <path
               style="fill:#dbe3db;fill-rule:evenodd;stroke:#000000;stroke-width:1px;stroke-linecap:butt;stroke-linejoin:miter;stroke-opacity:1"
               d="m 299.16991,99.321229 c 4.03355,7.100901 7.4973,11.536151 13.2305,-0.48405 -4.67908,6.204011 -8.55142,4.536181 -13.2305,0.48405 z"
               id="path6256"
               sodipodi:nodetypes="ccc"
               inkscape:connector-curvature="0" />
            <path
               sodipodi:type="arc"
               style="opacity:0.53465349;fill:#dbe3db;fill-opacity:1;fill-rule:nonzero;stroke:none"
               id="path6258"
               sodipodi:cx="301.80054"
               sodipodi:cy="184.97606"
               sodipodi:rx="6.3732271"
               sodipodi:ry="5.7278371"
               d="m 308.17376,184.97606 c 0,3.1634 -2.85339,5.72784 -6.37322,5.72784 -3.51984,0 -6.37323,-2.56444 -6.37323,-5.72784 0,-3.1634 2.85339,-5.72784 6.37323,-5.72784 3.51983,0 6.37322,2.56444 6.37322,5.72784 z"
               transform="translate(11.648639,-91.221324)" />
            <path
               style="fill:none;stroke:#000000;stroke-width:4;stroke-linecap:butt;stroke-linejoin:miter;stroke-miterlimit:4;stroke-opacity:1;stroke-dasharray:none"
               d="m 328.05112,75.603149 c -0.48524,-15.79934 -8.54657,-36.86418 -33.88298,-26.1383"
               id="path6260"
               sodipodi:nodetypes="cc"
               inkscape:connector-curvature="0" />
            <path
               style="fill:#000000;fill-rule:evenodd;stroke:#000000;stroke-width:1px;stroke-linecap:butt;stroke-linejoin:miter;stroke-opacity:1"
               d="m 272.22488,108.51803 c 15.81228,13.22852 40.29744,19.71667 49.04964,-0.3227 -6.66902,14.21 -32.05437,17.50207 -49.04964,0.3227 z"
               id="path6294"
               sodipodi:nodetypes="ccc"
               inkscape:connector-curvature="0" />
          </g>
          <path
             sodipodi:nodetypes="ccc"
             id="path4434"
             d="M 222.25894,135.02372 C 246.9576,85.836246 228.64561,96.370122 206.05787,99.149366 219.65736,103.74302 242.38143,84.0606 222.25894,135.02372 z"
             style="fill:#000000;fill-rule:evenodd;stroke:#000000;stroke-width:0.80373853px;stroke-linecap:butt;stroke-linejoin:miter;stroke-opacity:1"
             inkscape:connector-curvature="0" />
          <path
             sodipodi:nodetypes="ccc"
             id="path4302"
             d="m 258.74378,191.78694 c -29.89093,44.8572 -47.2832,25.41737 -100.53253,32.00636 C 124.36035,112.13075 329.6487,73.176932 258.74378,191.78694 z"
             style="fill:#ffdd55;fill-rule:evenodd;stroke:#000000;stroke-width:3.86175156;stroke-linecap:butt;stroke-linejoin:miter;stroke-miterlimit:4;stroke-opacity:1;stroke-dasharray:none"
             inkscape:connector-curvature="0" />
          <path
             sodipodi:nodetypes="ccccc"
             id="path4304"
             d="m 360.69617,190.06172 c 5.42324,52.41951 -21.3696,85.14221 -72.5304,102.96647 l 14.15227,12.11369 c 54.59494,-11.5071 74.74594,-52.31353 75.18396,-109.88857 l -16.80583,-5.19159 z"
             style="opacity:0.83663366;fill:#000000;fill-rule:evenodd;stroke:none"
             inkscape:connector-curvature="0" />
          <path
             sodipodi:nodetypes="ccccc"
             id="path4306"
             d="m 388.55847,202.60806 c 5.42324,52.41951 -23.13864,95.52538 -74.29944,113.34964 l 14.15227,12.11369 c 54.59495,-11.5071 76.51498,-52.31353 76.95299,-109.88858 l -16.80582,-15.57475 z"
             style="opacity:0.83663366;fill:#000000;fill-rule:evenodd;stroke:none"
             inkscape:connector-curvature="0" />
          <path
             sodipodi:nodetypes="ccccc"
             id="path4308"
             d="m 415.09397,230.29651 c 5.42324,52.4195 -21.36961,85.14223 -72.5304,102.96647 l 19.45938,5.19159 c 51.05687,-17.56396 60.59366,-28.08615 64.56974,-85.66119 l -11.49872,-22.49687 z"
             style="opacity:0.83663366;fill:#000000;fill-rule:evenodd;stroke:none"
             inkscape:connector-curvature="0" />
          <g
             transform="matrix(0.9691008,0,0,0.9480071,-77.113004,74.181544)"
             id="g4354">
            <path
               style="fill:#dbe3db;fill-rule:evenodd;stroke:#000000;stroke-width:4.57042885;stroke-linecap:butt;stroke-linejoin:miter;stroke-miterlimit:4;stroke-opacity:1;stroke-dasharray:none"
               d="m 310.50898,50.406899 c -17.01987,-3.10002 -56.32749,54.671161 -14.4862,68.471321 40.95849,1.7548 39.69686,-59.056661 14.4862,-68.471321 z"
               id="path4356"
               sodipodi:nodetypes="ccc"
               inkscape:connector-curvature="0" />
            <path
               sodipodi:type="arc"
               style="fill:#000000;fill-opacity:1;fill-rule:nonzero;stroke:none"
               id="path4358"
               sodipodi:cx="292.84573"
               sodipodi:cy="177.31206"
               sodipodi:rx="8.5514183"
               sodipodi:ry="20.652483"
               d="m 301.39715,177.31206 c 0,11.40605 -3.8286,20.65248 -8.55142,20.65248 -4.72281,0 -8.55141,-9.24643 -8.55141,-20.65248 0,-11.40605 3.8286,-20.65249 8.55141,-20.65249 4.72282,0 8.55142,9.24644 8.55142,20.65249 z"
               transform="translate(12.778072,-89.446501)" />
            <path
               sodipodi:type="arc"
               style="fill:#dbe3db;fill-opacity:1;fill-rule:nonzero;stroke:none"
               id="path4360"
               sodipodi:cx="286.71454"
               sodipodi:cy="169.08333"
               sodipodi:rx="7.9060283"
               sodipodi:ry="8.8741131"
               d="m 294.62057,169.08333 c 0,4.90104 -3.53965,8.87411 -7.90603,8.87411 -4.36638,0 -7.90603,-3.97307 -7.90603,-8.87411 0,-4.90104 3.53965,-8.87411 7.90603,-8.87411 4.36638,0 7.90603,3.97307 7.90603,8.87411 z"
               transform="translate(12.778072,-89.446501)" />
            <path
               style="fill:#dbe3db;fill-rule:evenodd;stroke:#000000;stroke-width:1px;stroke-linecap:butt;stroke-linejoin:miter;stroke-opacity:1"
               d="m 299.16991,99.321229 c 4.03355,7.100901 7.4973,11.536151 13.2305,-0.48405 -4.67908,6.204011 -8.55142,4.536181 -13.2305,0.48405 z"
               id="path4362"
               sodipodi:nodetypes="ccc"
               inkscape:connector-curvature="0" />
            <path
               sodipodi:type="arc"
               style="opacity:0.53465349;fill:#dbe3db;fill-opacity:1;fill-rule:nonzero;stroke:none"
               id="path4364"
               sodipodi:cx="301.80054"
               sodipodi:cy="184.97606"
               sodipodi:rx="6.3732271"
               sodipodi:ry="5.7278371"
               d="m 308.17376,184.97606 c 0,3.1634 -2.85339,5.72784 -6.37322,5.72784 -3.51984,0 -6.37323,-2.56444 -6.37323,-5.72784 0,-3.1634 2.85339,-5.72784 6.37323,-5.72784 3.51983,0 6.37322,2.56444 6.37322,5.72784 z"
               transform="translate(11.648639,-91.221324)" />
            <path
               style="fill:none;stroke:#000000;stroke-width:4;stroke-linecap:butt;stroke-linejoin:miter;stroke-miterlimit:4;stroke-opacity:1;stroke-dasharray:none"
               d="m 328.05112,75.603149 c -0.48524,-15.79934 -8.54657,-36.86418 -33.88298,-26.1383"
               id="path4366"
               sodipodi:nodetypes="cc"
               inkscape:connector-curvature="0" />
            <path
               style="fill:#000000;fill-rule:evenodd;stroke:#000000;stroke-width:1px;stroke-linecap:butt;stroke-linejoin:miter;stroke-opacity:1"
               d="m 272.22488,108.51803 c 15.81228,13.22852 40.29744,19.71667 49.04964,-0.3227 -6.66902,14.21 -32.05437,17.50207 -49.04964,0.3227 z"
               id="path4368"
               sodipodi:nodetypes="ccc"
               inkscape:connector-curvature="0" />
          </g>
          <path
             sodipodi:nodetypes="ccccc"
             id="path4390"
             d="m 383.69361,305.14188 c 0.9505,24.47105 -8.08307,46.98876 3.53807,73.54749 36.38354,8.83707 73.13847,42.27538 74.29944,64.89482 -28.51858,-2.69461 -66.14547,-40.32697 -76.06848,-65.76009 20.013,-24.2274 -1.12983,-48.45481 -1.76903,-72.68222 z"
             style="fill:#666666;fill-rule:evenodd;stroke:#000000;stroke-width:3.83398366;stroke-linecap:butt;stroke-linejoin:miter;stroke-miterlimit:4;stroke-opacity:1;stroke-dasharray:none"
             inkscape:connector-curvature="0" />
          <path
             sodipodi:nodetypes="cccc"
             id="path4416"
             d="m 318.72251,233.87038 c 16.38968,43.9179 38.83924,81.48436 101.32258,77.09113 -6.27918,20.77821 -36.20027,30.66577 -86.31182,14.68403 -80.12299,-22.98989 -38.65886,-73.38996 -15.01076,-91.77516 z"
             style="opacity:0.41089107;fill:#000000;fill-rule:evenodd;stroke:#000000;stroke-width:0.95849591px;stroke-linecap:butt;stroke-linejoin:miter;stroke-opacity:1"
             inkscape:connector-curvature="0" />
          <path
             sodipodi:nodetypes="ccccc"
             id="path4394"
             d="m 333.27614,296.48924 c -5.97169,19.88277 -13.65448,39.34707 -10.6142,61.43379 12.69862,17.21345 29.98378,33.73664 13.26775,55.37692 l -13.26775,-54.51167 c 17.8089,-17.9743 16.14032,-39.75932 10.6142,-62.29904 z"
             style="fill:#4d4d4d;fill-rule:evenodd;stroke:#000000;stroke-width:3.83398366;stroke-linecap:butt;stroke-linejoin:miter;stroke-miterlimit:4;stroke-opacity:1;stroke-dasharray:none"
             inkscape:connector-curvature="0" />
          <path
             sodipodi:nodetypes="cccc"
             id="path4418"
             d="m 421.29599,283.42896 c -21.81472,-42.72152 -49.95841,-56.96352 -80.05735,-62.40711 l 6.87994,-20.19053 c 41.59032,15.81149 68.27392,45.57943 73.17741,82.59764 z"
             style="opacity:0.52970294;fill:#ffffff;fill-rule:evenodd;stroke:none"
             inkscape:connector-curvature="0" />
          <path
             sodipodi:nodetypes="cccc"
             id="path4420"
             d="m 313.71893,235.70589 c -17.51308,20.68113 -70.03695,-12.14278 -56.91576,-40.38108 -12.23111,17.12767 -51.27947,29.29224 -6.87994,56.90059 29.80077,18.61501 48.94137,7.10427 63.7957,-16.51951 z"
             style="opacity:0.29207919;fill:#000000;fill-rule:evenodd;stroke:#000000;stroke-width:0.95849591px;stroke-linecap:butt;stroke-linejoin:miter;stroke-opacity:1"
             inkscape:connector-curvature="0" />
          <path
             transform="matrix(0.9691008,0,0,0.9480071,-144.36308,165.92002)"
             d="m 394.29478,121.75764 c 0,7.30917 -23.70103,13.23443 -52.93772,13.23443 -29.2367,0 -52.93773,-5.92526 -52.93773,-13.23443 0,-7.30918 23.70103,-13.23443 52.93773,-13.23443 29.23669,0 52.93772,5.92525 52.93772,13.23443 z"
             sodipodi:ry="13.234431"
             sodipodi:rx="52.937725"
             sodipodi:cy="121.75764"
             sodipodi:cx="341.35706"
             id="path4402"
             style="fill:#666666;fill-opacity:1;fill-rule:nonzero;stroke:#000000;stroke-width:4;stroke-linejoin:round;stroke-miterlimit:4;stroke-opacity:1;stroke-dasharray:none"
             sodipodi:type="arc" />
          <path
             sodipodi:nodetypes="ccc"
             id="path4410"
             d="m 137.23527,280.66671 c 18.19598,13.32393 63.29918,22.90083 100.07169,3.05917 -27.45612,-6.61511 -57.66538,-15.5011 -100.07169,-3.05917 z"
             style="fill:#808000;fill-rule:evenodd;stroke:#000000;stroke-width:0.95849591px;stroke-linecap:butt;stroke-linejoin:miter;stroke-opacity:1"
             inkscape:connector-curvature="0" />
          <path
             sodipodi:nodetypes="ccccc"
             id="path4404"
             d="m 135.14431,281.77975 13.26775,80.4696 c 20.63035,12.82227 43.0933,17.87604 70.76137,0.86527 l 18.57487,-78.73908 c -22.08843,9.60778 -61.79166,22.52114 -102.60399,-2.59579 z"
             style="fill:#999999;fill-rule:evenodd;stroke:#000000;stroke-width:3.83398366;stroke-linecap:butt;stroke-linejoin:miter;stroke-miterlimit:4;stroke-opacity:1;stroke-dasharray:none"
             inkscape:connector-curvature="0" />
          <path
             sodipodi:nodetypes="cccc"
             id="path4438"
             d="m 235.09475,286.97133 c -27.0391,25.55247 -4.80331,74.73351 -85.79816,74.41275 20.03023,10.5287 40.83599,18.45631 68.99232,1.73052 l 16.80584,-76.14327 z"
             style="opacity:0.28217821;fill:#000000;fill-rule:evenodd;stroke:#000000;stroke-width:0.95849591px;stroke-linecap:butt;stroke-linejoin:miter;stroke-opacity:1"
             inkscape:connector-curvature="0" />
          <path
             sodipodi:nodetypes="ccccccc"
             id="path4408"
             d="m 137.86073,285.56138 c 4.90174,5.04412 0.22553,25.67204 14.38529,17.13136 6.05577,49.0923 16.44104,53.95607 34.39966,1.22367 3.60361,21.67537 11.35483,13.94035 13.75984,-1.22367 13.39513,16.11207 26.01036,-0.19559 33.14875,-8.56568 l 3.75269,-8.56568 c -28.08902,10.06056 -57.79189,17.73625 -99.44623,0 z"
             style="color:#000000;fill:#808000;fill-opacity:1;fill-rule:evenodd;stroke:#000000;stroke-width:3.83398366;stroke-linecap:butt;stroke-linejoin:miter;stroke-miterlimit:4;stroke-opacity:1;stroke-dasharray:none;stroke-dashoffset:0;marker:none;visibility:visible;display:inline;overflow:visible;enable-background:accumulate"
             inkscape:connector-curvature="0" />
          <path
             sodipodi:nodetypes="cccc"
             id="path4664"
             d="m 139.82596,278.60324 c 12.32818,-5.87942 106.41097,-0.80548 44.40681,16.51953 23.22969,-0.44604 44.7293,-5.26798 51.28675,-11.62485 -3.1349,-16.08192 -71.70442,-14.72704 -95.69356,-4.89468 z"
             style="opacity:0.32673268;fill:#000000;fill-rule:evenodd;stroke:#000000;stroke-width:0.95849591px;stroke-linecap:butt;stroke-linejoin:miter;stroke-opacity:1"
             inkscape:connector-curvature="0" />
          <path
             sodipodi:nodetypes="ccc"
             id="path2635"
             d="m 135.57272,281.60236 c 4.42482,11.22896 61.5238,26.70429 104.37302,3.46106 -46.14231,18.106 -76.80558,13.32034 -104.37302,-3.46106 z"
             style="fill:#808000;fill-rule:evenodd;stroke:#000000;stroke-width:2;stroke-linecap:butt;stroke-linejoin:miter;stroke-miterlimit:4;stroke-opacity:1;stroke-dasharray:none"
             inkscape:connector-curvature="0" />
          <path
             sodipodi:nodetypes="ccccc"
             id="path3664"
             d="m 163.84128,367.64342 c -0.34215,-24.47337 -7.87607,-48.94675 -0.62544,-73.42012 l -13.75987,-5.50651 c -5.54351,24.88126 3.0903,49.76253 5.00358,74.64379 l 9.38173,4.28284 z"
             style="opacity:0.41702127;fill:#ffffff;fill-rule:evenodd;stroke:none"
             inkscape:connector-curvature="0" />
          <path
             sodipodi:nodetypes="ccccccc"
             id="path4398"
             d="m 295.24191,237.65125 c -5.78399,22.92274 5.07089,51.53448 -19.45938,68.35591 -13.02286,23.68482 -40.49776,15.56037 -61.9162,20.76634 -11.49872,7.04651 -22.99744,4.3517 -34.49616,0 10.31936,-4.39767 20.63873,-13.86015 30.95809,-0.86528 21.14227,-8.49715 39.23176,-31.92594 64.56975,-19.90106 -10.18214,-35.23096 13.28822,-45.77191 20.3439,-68.35591 z"
             style="fill:#666666;fill-rule:evenodd;stroke:#000000;stroke-width:3.83398366;stroke-linecap:butt;stroke-linejoin:miter;stroke-miterlimit:4;stroke-opacity:1;stroke-dasharray:none"
             inkscape:connector-curvature="0" />
          <path
             sodipodi:nodetypes="cccc"
             id="path4424"
             d="m 196.44742,220.71594 c 24.4626,-5.50994 44.86657,-14.22664 47.84678,-36.71006 -2.08507,16.21353 -8.98342,31.08179 -45.6577,37.6278 l -2.18908,-0.91774 z"
             style="fill:#000000;fill-rule:evenodd;stroke:#000000;stroke-width:0.95849591px;stroke-linecap:butt;stroke-linejoin:miter;stroke-opacity:1"
             inkscape:connector-curvature="0" />
          <path
             sodipodi:nodetypes="ccc"
             id="path4426"
             d="m 238.97788,184.00587 c 3.90381,-0.57352 7.7378,-0.97628 10.00717,2.44735 -1.75219,-4.68845 -4.92099,-5.91245 -10.00717,-2.44735 z"
             style="fill:#000000;fill-rule:evenodd;stroke:#000000;stroke-width:0.95849591px;stroke-linecap:butt;stroke-linejoin:miter;stroke-opacity:1"
             inkscape:connector-curvature="0" />
          <path
             sodipodi:nodetypes="cccc"
             id="path4428"
             d="m 262.87164,148.09639 c 1.05989,-8.36039 4.29501,-17.16878 -8.31727,-22.7132 l -13.26801,-1.51421 c 9.83509,3.99772 20.89326,6.10614 21.58528,24.22741 z"
             style="opacity:0.51485153;fill:#ffffff;fill-rule:evenodd;stroke:none"
             inkscape:connector-curvature="0" />
          <path
             sodipodi:nodetypes="cccc"
             id="path4430"
             d="m 270.47542,138.57847 c -8.00175,49.20519 -50.60733,84.78026 -113.66044,83.49803 25.651,-2.30737 59.0127,6.69957 76.95299,-6.92212 26.49412,-13.60868 42.36577,-58.93912 36.70745,-76.57591 z"
             style="opacity:0.22277228;fill:#000000;fill-rule:evenodd;stroke:#000000;stroke-width:0.95849591px;stroke-linecap:butt;stroke-linejoin:miter;stroke-opacity:1"
             inkscape:connector-curvature="0" />
          <path
             sodipodi:nodetypes="ccc"
             id="path4432"
             d="M 254.55412,132.089 C 286.91699,78.702444 262.92263,90.135581 233.32571,93.152093 251.14524,98.137899 280.9208,76.775212 254.55412,132.089 z"
             style="fill:#000000;fill-rule:evenodd;stroke:#000000;stroke-width:0.95849591px;stroke-linecap:butt;stroke-linejoin:miter;stroke-opacity:1"
             inkscape:connector-curvature="0" />
          <path
             sodipodi:nodetypes="cccc"
             id="path4436"
             d="m 275.78253,172.75642 c 16.38269,-1.73596 32.06332,2.02226 43.7836,36.77375 -4.87601,-17.49303 -1.90957,-39.65579 -32.28488,-41.96533 l -11.49872,5.19158 z"
             style="opacity:0.43069308;fill:#ffffff;fill-rule:evenodd;stroke:none"
             inkscape:connector-curvature="0" />
          <path
             sodipodi:nodetypes="ccc"
             id="path4412"
             d="M 304.96266,193.4893 C 415.3883,288.2898 566.72387,167.52338 565.14904,99.266814 524.30356,70.767094 344.31929,83.029424 304.96266,193.4893 z"
             style="opacity:0.16336634;fill:#00d4aa;fill-rule:evenodd;stroke:#000000;stroke-width:0.95849591px;stroke-linecap:butt;stroke-linejoin:miter;stroke-opacity:1"
             inkscape:connector-curvature="0" />
          <path
             sodipodi:nodetypes="ccc"
             id="path4444"
             d="M 304.96266,193.4893 C 415.3883,288.2898 566.72387,167.52338 565.14904,99.266814 524.30356,70.767094 344.31929,83.029424 304.96266,193.4893 z"
             style="fill:none;stroke:#000000;stroke-width:3.83398366;stroke-linecap:butt;stroke-linejoin:miter;stroke-miterlimit:4;stroke-opacity:1;stroke-dasharray:none"
             inkscape:connector-curvature="0" />
          <path
             sodipodi:nodetypes="cccc"
             id="path4550"
             d="m 443.16456,343.61232 c -4.852,-21.69441 -11.38933,-35.14559 -22.11292,-28.1211 l 7.07614,-19.03582 c 14.05627,18.26317 13.78787,31.72114 15.03678,47.15692 z"
             style="opacity:0.42574259;fill:#ffffff;fill-rule:evenodd;stroke:none"
             inkscape:connector-curvature="0" />
          <path
             sodipodi:nodetypes="ccccc"
             id="path4552"
             d="m 385.1089,315.01638 c 0.48913,21.04556 -7.23357,42.09111 1.87635,63.13667 22.99898,26.47888 49.22923,48.21635 76.93011,67.79589 -30.51777,-13.95312 -59.39678,-30.82095 -77.1133,-67.54246 -3.39468,-24.82163 -1.45598,-42.68685 -1.69316,-63.3901 z"
             style="opacity:0.31063831;fill:#000000;fill-rule:evenodd;stroke:none"
             inkscape:connector-curvature="0" />
          <path
             sodipodi:nodetypes="ccccccc"
             id="path4554"
             d="m 292.3544,250.16374 c -4.22962,19.63495 -6.37253,40.29053 -17.24808,56.67483 -11.98195,17.89411 -36.82055,16.92303 -60.14716,18.17056 -8.29938,2.19508 -18.97827,2.99353 -33.1694,1.73053 14.32306,7.92875 23.79697,4.47288 32.28488,-1.29789 20.79583,-5.45161 42.81277,-7.31962 61.47394,-19.03583 25.39822,-17.82524 13.51655,-37.38706 16.80582,-56.2422 z"
             style="opacity:0.2871287;fill:#000000;fill-rule:evenodd;stroke:none"
             inkscape:connector-curvature="0" />
          <path
             transform="translate(1.9361702,1.2907801)"
             d="m 254.28368,184.73404 c 0,5.88124 -5.49007,10.64894 -12.26241,10.64894 -6.77234,0 -12.26241,-4.7677 -12.26241,-10.64894 0,-5.88125 5.49007,-10.64894 12.26241,-10.64894 6.77234,0 12.26241,4.76769 12.26241,10.64894 z"
             sodipodi:ry="10.648936"
             sodipodi:rx="12.262411"
             sodipodi:cy="184.73404"
             sodipodi:cx="242.02127"
             id="path2273"
             style="opacity:0.15319148;color:#000000;fill:#800000;fill-opacity:1;fill-rule:evenodd;stroke:none;stroke-width:3;marker:none;visibility:visible;display:inline;overflow:visible;enable-background:accumulate"
             sodipodi:type="arc" />
        </g>
      </g>
    </g>
  </g>
</svg>
